<svg xmlns="http://www.w3.org/2000/svg" width="60" height="60" viewBox="0 0 60 60">
  <g id="Grupo_94357" data-name="Grupo 94357" transform="translate(-764 -7645.18)">
    <path id="Trazado_192450" data-name="Trazado 192450" d="M30,0A30,30,0,1,1,0,30,30,30,0,0,1,30,0Z" transform="translate(764 7645.18)" fill="#ffa726"/>
    <path id="Trazado_192451" data-name="Trazado 192451" d="M1.318,32V30.315a9.844,9.844,0,0,1,.439-3.105,7.8,7.8,0,0,1,1.384-2.476,21.325,21.325,0,0,1,3.289-2.974,24.386,24.386,0,0,0,2.219-1.9,4.754,4.754,0,0,0,.82-1.121,2.584,2.584,0,0,0,.271-1.172q0-2.095-2.52-2.095a7.561,7.561,0,0,0-4.849,1.86V12.225a14.692,14.692,0,0,1,3.259-1.23,13.735,13.735,0,0,1,3.113-.352,7.8,7.8,0,0,1,5.3,1.641,5.788,5.788,0,0,1,1.875,4.6,7.17,7.17,0,0,1-.981,3.853,11.63,11.63,0,0,1-3.647,3.3,24.132,24.132,0,0,0-2.7,1.926A1.712,1.712,0,0,0,7.91,26.99h8.2V32Z" transform="translate(785 7655.18)" fill="#fff"/>
  </g>
</svg>
