<svg xmlns="http://www.w3.org/2000/svg" width="60" height="60" viewBox="0 0 60 60">
  <g id="Grupo_94358" data-name="Grupo 94358" transform="translate(-764 -7781.941)">
    <path id="Trazado_192452" data-name="Trazado 192452" d="M30,0A30,30,0,1,1,0,30,30,30,0,0,1,30,0Z" transform="translate(764 7781.941)" fill="#ffa726"/>
    <path id="Trazado_192453" data-name="Trazado 192453" d="M15.82,25.994a5.563,5.563,0,0,1-2.2,4.7,10.222,10.222,0,0,1-6.284,1.67,17.813,17.813,0,0,1-3.018-.256,12.91,12.91,0,0,1-2.563-.681V26.536A8.768,8.768,0,0,0,4,27.459a9.825,9.825,0,0,0,2.549.337,4.112,4.112,0,0,0,2.292-.535,1.733,1.733,0,0,0,.8-1.531,1.757,1.757,0,0,0-.981-1.582,5.474,5.474,0,0,0-2.739-.571H3.9v-4.6H5.684A4.884,4.884,0,0,0,8.3,18.428,1.649,1.649,0,0,0,9.141,17,1.566,1.566,0,0,0,8.5,15.682,3.23,3.23,0,0,0,6.548,15.2,8.1,8.1,0,0,0,2.476,16.37V11.7a13.885,13.885,0,0,1,5.361-1.055A9.218,9.218,0,0,1,13.3,12.063,4.582,4.582,0,0,1,15.278,16a5.123,5.123,0,0,1-1.062,3.3,5,5,0,0,1-2.981,1.743v.073a5.415,5.415,0,0,1,3.354,1.619A4.612,4.612,0,0,1,15.82,25.994Z" transform="translate(785 7791.941)" fill="#fff"/>
  </g>
</svg>
