<svg xmlns="http://www.w3.org/2000/svg" width="60" height="60" viewBox="0 0 60 60">
  <g id="Grupo_94360" data-name="Grupo 94360" transform="translate(-764 -8119.203)">
    <path id="Trazado_192456" data-name="Trazado 192456" d="M30,0A30,30,0,1,1,0,30,30,30,0,0,1,30,0Z" transform="translate(764 8119.203)" fill="#ffa726"/>
    <path id="Trazado_192457" data-name="Trazado 192457" d="M15.967,24.9a7.388,7.388,0,0,1-1.018,3.86,6.885,6.885,0,0,1-2.937,2.659,10.073,10.073,0,0,1-4.526.952,19.374,19.374,0,0,1-3.025-.249,13.441,13.441,0,0,1-2.585-.63V26.624A9.729,9.729,0,0,0,6.519,27.8a4.211,4.211,0,0,0,2.439-.586,1.91,1.91,0,0,0,.828-1.655q0-2.314-3.838-2.314a16.331,16.331,0,0,0-3.56.366l.791-12.612H15.044v4.863H8.013L7.808,18.8a15.562,15.562,0,0,1,1.6-.088,6.7,6.7,0,0,1,4.819,1.663A5.949,5.949,0,0,1,15.967,24.9Z" transform="translate(785 8129.203)" fill="#fff"/>
  </g>
</svg>
