<svg xmlns="http://www.w3.org/2000/svg" width="150" height="150" viewBox="0 0 150 150">
  <g id="Grupo_94351" data-name="Grupo 94351" transform="translate(-1020 -3749)">
    <rect id="Rect치ngulo_39756" data-name="Rect치ngulo 39756" width="115.15" height="115.15" transform="translate(1035.77 3758.28)" fill="none"/>
    <circle id="Elipse_7782" data-name="Elipse 7782" cx="62.82" cy="62.82" r="62.82" transform="translate(1033.74 3761.18)" fill="#104c82"/>
    <path id="Trazado_190906" data-name="Trazado 190906" d="M134.57,74.82c2.18-2.16,4.41-4.26,6.53-6.48a7.2,7.2,0,0,0,.83-9.26,4.281,4.281,0,0,0-.45-.78,7.52,7.52,0,0,0-11-.54c-1.41,1.32-2.78,2.69-4.17,4V14.82c0-1.29-.36-1.64-1.62-1.6-3,.1-6,0-9,0H38.55c-1,0-1.27.3-1.27,1.28V76.56C36.15,76,35.43,74.8,34.41,74a5.57,5.57,0,0,0-8.94,2.46,16.47,16.47,0,0,0-.88,5.31c-.06,4.15,1.18,8.07,2.11,12.05h-2a4.24,4.24,0,1,0,0,8.47h4.36a4,4,0,0,0,.21,1.28c.9,3.4,3.12,5.79,5.9,7.75v5.82H26.58a10.44,10.44,0,0,0-10.18,8.14c-.6,2.73-.19,5.52-.23,8.28,0,2,0,4-.06,6,0,.77.24.95,1,.95H124.76c1.31,0,1.58-.39,1.57-1.63q-.06-27,0-54a11.483,11.483,0,0,0-.06-1.45l1.93-2a68.338,68.338,0,0,0,6.37-6.61Z" transform="translate(1020 3749)" fill="#fefefe"/>
    <path id="Trazado_190907" data-name="Trazado 190907" d="M37.32,76.61V14.55c0-1,.27-1.28,1.27-1.28h77.14V72.36q-6.37,6.6-13,13H58.53V84.7c-.2-5.19-2.56-9.05-7.37-11.07-4.64-2-9-1.09-12.75,2.25A11.476,11.476,0,0,0,37.32,76.61Zm66.76-11.06a11.74,11.74,0,0,0-1.17-1.77c-1.26-1.33-1.47-2.65-.28-4.14a3.42,3.42,0,0,0,.69-1.57c.43-3,2.16-4.32,5.1-4.32.7,0,.94-.4.93-1.12,0-2.12-.08-4.24,0-6.35,0-1-.29-1.45-1.29-1.49-2.46-.08-4.26-1-4.52-3.74a2.25,2.25,0,0,0-.28-.73c-.54-1.15-1.58-2.35-1.48-3.44s1.25-2.26,2-3.32c.45-.63.25-1-.22-1.46-1-1-2.07-2.05-3.1-3.07-2.21-2.2-2.23-2.24-4.79-.44-1,.72-1.9,1.09-3,.16a4.62,4.62,0,0,0-2-.93c-3-.5-4.5-2.11-4.44-5.18,0-.7-.43-.92-1.13-.89-1.63.05-3.26,0-4.89,0-2.68,0-2.75,0-3.13,2.61-.23,1.53-.65,2.65-2.45,2.8a3.7,3.7,0,0,0-1.83.69c-2.4,1.76-4.6,1.61-6.68-.5-.59-.6-1-.31-1.55.21-1.41,1.46-2.82,2.92-4.31,4.29-.78.72-.9,1.31-.18,2.08.21.22.32.54.53.76,1.3,1.37,1.62,2.78.31,4.37a3.28,3.28,0,0,0-.69,1.56c-.37,3-2.16,4.23-5,4.26-.78,0-1,.46-.95,1.21a56.832,56.832,0,0,1,0,5.69c-.1,1.37.28,2,1.7,2.06,2.19.06,3.76.89,4,3.35a2.72,2.72,0,0,0,.54,1.34C62.3,60.88,61.8,63,59.87,65c-.56.56-.4,1,.15,1.55,1.35,1.27,2.7,2.55,3.92,3.94.94,1.08,1.76,1.4,2.89.31,1.55-1.49,3.21-2,5-.42a2.27,2.27,0,0,0,1.09.47c3,.45,4.46,2.14,4.42,5.18,0,.61.35.88,1,.86H83.5c2.5,0,2.59,0,2.94-2.51.22-1.6.65-2.75,2.5-2.9a3.84,3.84,0,0,0,1.84-.7c2.41-1.83,4.59-1.52,6.67.54a.82.82,0,0,0,1.35-.06c1.6-1.64,3.24-3.25,4.85-4.87a.83.83,0,0,0,.43-.84Z" transform="translate(1020 3749)" fill="#e1e6f5"/>
    <path id="Trazado_190908" data-name="Trazado 190908" d="M126.21,83.37c0,.49.06,1,.06,1.45v54c0,1.24-.26,1.64-1.57,1.63q-28.91-.07-57.8,0l.1-12.74h47.1c1.24,0,1.64-.25,1.63-1.57-.07-6.53,0-13,0-19.58,0-4.19,0-8.38-.05-12.57C119,90.34,122.61,86.84,126.21,83.37Z" transform="translate(1020 3749)" fill="#c7ccec"/>
    <path id="Trazado_190909" data-name="Trazado 190909" d="M16.17,133.51c0-2.76-.37-5.55.23-8.28a10.44,10.44,0,0,1,10.18-8.14h8.59a6.5,6.5,0,0,0,.87,3.14,6.39,6.39,0,0,0,6.75,3.09c3-.7,4.83-2.87,5.15-6.22H58.48v.24c-.44.38-.26.9-.26,1.36v8.2a6.76,6.76,0,0,1-1,3.49c-1.53,2.59-4,3.08-6.7,3.09C39.07,133.53,27.62,133.51,16.17,133.51Z" transform="translate(1020 3749)" fill="#4480b7"/>
    <path id="Trazado_190910" data-name="Trazado 190910" d="M115.71,72.39V13.3c3,0,6,.06,9,0,1.26,0,1.62.31,1.62,1.6V61.84l-2.13,2.34a24.67,24.67,0,0,0-3.2,3.09,24.58,24.58,0,0,0-3.18,3.19Z" transform="translate(1020 3749)" fill="#c7ccec"/>
    <path id="Trazado_190911" data-name="Trazado 190911" d="M35.21,111.28c-2.78-2-5-4.35-5.9-7.75a4,4,0,0,1-.21-1.28,6.48,6.48,0,0,1-.27-2.06q0-3.21,0-6.43c0-2.15.07-2.12,2.2-2.37,1.4-.17,2.8-.35,4.18-.59a17,17,0,0,0,4-.86c2.84-1.25,4.21-3.55,4.57-6.68,3,2.42,5.84,4.81,8.8,7,1.26.94,2,1.92,1.73,3.49,0,2.83,0,5.65-.05,8.47a14.44,14.44,0,0,1-6.36,9,15.34,15.34,0,0,1-6.9,1.65,18.45,18.45,0,0,1-5.79-1.59Z" transform="translate(1020 3749)" fill="#fae0c9"/>
    <path id="Trazado_190912" data-name="Trazado 190912" d="M54.28,93.76c.25-1.57-.47-2.55-1.73-3.49-3-2.2-5.78-4.59-8.8-7-.36,3.13-1.73,5.43-4.57,6.68a17,17,0,0,1-4,.86c-1.38.24-2.78.42-4.18.59-2.13.25-2.13.23-2.2,2.37H26.69c-.93-4-2.17-7.9-2.11-12.05a16.468,16.468,0,0,1,.879-5.309A5.57,5.57,0,0,1,34.41,74c1,.83,1.74,2,2.91,2.64a8.046,8.046,0,0,0,1-.78c3.79-3.34,8.11-4.2,12.75-2.25,4.81,2,7.17,5.88,7.37,11.07v.66a12.6,12.6,0,0,1-.32,3.11C57.56,90.18,57,92,56.4,93.76Z" transform="translate(1020 3749)" fill="#ffa726"/>
    <path id="Trazado_190913" data-name="Trazado 190913" d="M16.17,133.51H50.53c2.65,0,5.17-.5,6.7-3.09a6.76,6.76,0,0,0,1-3.49q0-4.09,0-8.2c0-.46-.18-1,.26-1.36h.79c.29.38.77.39,1.15.56a10.59,10.59,0,0,1,6.55,9.8l-.06,12.66H17.07c-.73,0-1-.18-1-.95C16.17,137.48,16.15,135.5,16.17,133.51Z" transform="translate(1020 3749)" fill="#3b5892"/>
    <path id="Trazado_190914" data-name="Trazado 190914" d="M126.21,83.37c-3.6,3.47-7.17,7-10.58,10.62l-8.44,8.43c-1.09,1.06-2.17,2.13-3.27,3.18-.33.32-.6.78-1.18.66L92.63,96.15a.9.9,0,0,1,.38-.91l3.63-3.55c1.79,1.75,3.63,3.46,5.35,5.27.77.81,1.21.77,2,0q9.53-9.6,19.11-19.15a2.56,2.56,0,0,0,.83-1,44.482,44.482,0,0,1,3.64,3.49c.3.29.71.54.6,1.07Z" transform="translate(1020 3749)" fill="#ffa726"/>
    <path id="Trazado_190915" data-name="Trazado 190915" d="M124.15,64.14l2.13-2.34c1.39-1.35,2.76-2.72,4.17-4a7.52,7.52,0,0,1,11,.54,4.281,4.281,0,0,1,.45.78c-3.14,3.1-6.29,6.22-9.45,9.31a8.911,8.911,0,0,1-2,1.84Z" transform="translate(1020 3749)" fill="#ffca7d"/>
    <path id="Trazado_190916" data-name="Trazado 190916" d="M35.21,111.28a18.45,18.45,0,0,0,5.8,1.59,15.34,15.34,0,0,0,6.86-1.61c0,1.95.05,3.9.07,5.85-.32,3.35-2.12,5.52-5.15,6.22A6.39,6.39,0,0,1,36,120.24a6.5,6.5,0,0,1-.87-3.14C35.18,115.16,35.19,113.22,35.21,111.28Z" transform="translate(1020 3749)" fill="#f0b8a1"/>
    <path id="Trazado_190917" data-name="Trazado 190917" d="M130.45,70.23a8.91,8.91,0,0,0,2-1.84c3.16-3.09,6.31-6.21,9.45-9.31a7.2,7.2,0,0,1-.83,9.26c-2.12,2.22-4.35,4.32-6.53,6.48a15.53,15.53,0,0,0-2.92-3Z" transform="translate(1020 3749)" fill="#ffa726"/>
    <path id="Trazado_190918" data-name="Trazado 190918" d="M131.65,71.79a15.531,15.531,0,0,1,2.92,3,68.338,68.338,0,0,1-6.43,6.53c.11-.53-.3-.78-.6-1.07a44.478,44.478,0,0,0-3.64-3.49,14.118,14.118,0,0,0-1-1.07c-1.71-1.76-3.43-3.51-5.15-5.27A25.141,25.141,0,0,1,121,67.27c2.13,2.52,4.62,4.68,6.89,7.06.5.53.8.22,1.19-.13a17.37,17.37,0,0,1,2.57-2.41Z" transform="translate(1020 3749)" fill="#d71c24"/>
    <path id="Trazado_190919" data-name="Trazado 190919" d="M26.7,93.79h2.11v6.43a6.48,6.48,0,0,0,.27,2.06H24.72a4.24,4.24,0,1,1,0-8.47C25.38,93.78,26,93.79,26.7,93.79Z" transform="translate(1020 3749)" fill="#f0b8a1"/>
    <path id="Trazado_190920" data-name="Trazado 190920" d="M104.08,65.55a.83.83,0,0,1-.36.79c-1.61,1.62-3.25,3.23-4.85,4.87a.82.82,0,0,1-1.35.06c-2.08-2.06-4.26-2.37-6.67-.54a3.84,3.84,0,0,1-1.84.7c-1.85.15-2.28,1.3-2.5,2.9-.35,2.53-.44,2.51-2.94,2.51H78.41c-.68,0-1-.25-1-.86,0-3-1.43-4.73-4.42-5.18a2.27,2.27,0,0,1-1.09-.47c-1.83-1.57-3.49-1.07-5,.42-1.13,1.09-2,.77-2.89-.31-1.22-1.39-2.57-2.67-3.92-3.94-.55-.53-.71-1-.15-1.55,1.93-2,2.43-4.09.56-6.43a2.72,2.72,0,0,1-.54-1.34c-.21-2.46-1.78-3.29-4-3.35-1.42,0-1.8-.69-1.7-2.06a56.832,56.832,0,0,0,0-5.69c0-.75.17-1.2.95-1.21,2.86,0,4.65-1.27,5-4.26a3.28,3.28,0,0,1,.69-1.56c1.31-1.59,1-3-.31-4.37-.21-.22-.32-.54-.53-.76-.72-.77-.6-1.36.18-2.08,1.49-1.37,2.9-2.83,4.31-4.29.5-.52,1-.81,1.55-.21,2.08,2.11,4.28,2.26,6.68.5a3.7,3.7,0,0,1,1.83-.69c1.8-.15,2.22-1.27,2.45-2.8.38-2.62.45-2.61,3.13-2.61h4.89c.7,0,1.15.19,1.13.89-.06,3.07,1.48,4.68,4.44,5.18a4.62,4.62,0,0,1,2,.93c1.13.93,2,.56,3-.16,2.56-1.8,2.58-1.76,4.79.44,1,1,2.05,2.07,3.1,3.07.47.45.67.83.22,1.46-.77,1.06-1.91,2.16-2,3.32s.94,2.29,1.48,3.44a2.25,2.25,0,0,1,.28.73c.26,2.76,2.06,3.66,4.52,3.74,1,0,1.33.47,1.29,1.49-.09,2.11-.06,4.23,0,6.35,0,.72-.23,1.12-.93,1.12-2.94,0-4.67,1.35-5.1,4.32a3.42,3.42,0,0,1-.69,1.57c-1.19,1.49-1,2.81.28,4.14a11.74,11.74,0,0,1,1.19,1.78Zm-35-16.26a12.72,12.72,0,1,1,.01,0Z" transform="translate(1020 3749)" fill="#1565aa"/>
    <path id="Trazado_190921" data-name="Trazado 190921" d="M47.94,117.11c0-2,0-3.9-.07-5.85a14.44,14.44,0,0,0,6.36-9c1.46,0,2.91.06,4.36,0A4.2,4.2,0,0,0,62.73,98a4.25,4.25,0,0,0-4.22-4.2H56.4c.6-1.78,1.16-3.58,1.81-5.34a12.6,12.6,0,0,0,.32-3.11h44.19l-1,1.06c-1.68,1.78-3.57,3.36-5.12,5.27L93,95.24a.9.9,0,0,0-.38.91c-.42.19-.49.59-.59,1l-2.31,8.1c-.51,1.79-1,3.57-1.58,5.54l13.93-4c.32-.09.6-.14.66-.52.58.12.85-.34,1.18-.66,1.1-1,2.18-2.12,3.27-3.18v13.1c0,1.28-.35,1.6-1.62,1.6q-22.41-.06-44.83,0c-.5,0-1.06-.2-1.5.25h-.52l-.29-.2Zm23.26-8.49H63.53c-3,0-2.89,0-3,3,0,1.13.42,1.28,1.38,1.27H78.69c3.13,0,3.08,0,3.08-3.12,0-1-.38-1.15-1.24-1.14C77.45,108.64,74.32,108.62,71.2,108.62Z" transform="translate(1020 3749)" fill="#789fd3"/>
    <path id="Trazado_190922" data-name="Trazado 190922" d="M96.64,91.69c1.55-1.91,3.44-3.49,5.12-5.27l1-1.06q6.62-6.36,13-13l2.09-1.93q2.58,2.63,5.15,5.26c.33.34.63.72,1,1.07a2.56,2.56,0,0,1-.83,1Q113.52,87.37,104,97c-.76.78-1.2.82-2,0C100.27,95.15,98.43,93.44,96.64,91.69Z" transform="translate(1020 3749)" fill="#ffca7d"/>
    <path id="Trazado_190923" data-name="Trazado 190923" d="M59.29,117.35c.44-.45,1-.25,1.5-.25h44.83c1.27,0,1.65-.32,1.62-1.6-.08-4.37,0-8.73,0-13.1l8.39-8.4c0,4.19.05,8.38.05,12.57v19.58c0,1.32-.39,1.58-1.63,1.57q-22.68-.06-45.38,0H66.95a10.59,10.59,0,0,0-6.55-9.8C60.06,117.74,59.58,117.73,59.29,117.35Z" transform="translate(1020 3749)" fill="#5e86c9"/>
    <path id="Trazado_190924" data-name="Trazado 190924" d="M58.48,117.11l.29.2H58.5C58.49,117.27,58.49,117.19,58.48,117.11Z" transform="translate(1020 3749)" fill="#5e86c9"/>
    <path id="Trazado_190925" data-name="Trazado 190925" d="M131.65,71.79a17.37,17.37,0,0,0-2.59,2.41c-.39.35-.69.66-1.19.13-2.27-2.38-4.76-4.54-6.89-7.06a24.67,24.67,0,0,1,3.17-3.13l6.3,6.09Z" transform="translate(1020 3749)" fill="#e7777c"/>
    <path id="Trazado_190926" data-name="Trazado 190926" d="M56.4,93.76h2.11A4.25,4.25,0,0,1,62.73,98a4.2,4.2,0,0,1-4.14,4.26H54.23c0-2.82,0-5.64.05-8.47Z" transform="translate(1020 3749)" fill="#f0b8a1"/>
    <path id="Trazado_190927" data-name="Trazado 190927" d="M102.74,106.26c-.06.38-.34.43-.66.52l-13.93,4c.57-2,1.07-3.75,1.58-5.54L92,97.13c.1-.39.17-.79.59-1Z" transform="translate(1020 3749)" fill="#b3b3b4"/>
    <path id="Trazado_190928" data-name="Trazado 190928" d="M69.09,49.29A12.71,12.71,0,1,1,81.78,62,12.71,12.71,0,0,1,69.09,49.29Z" transform="translate(1020 3749)" fill="#f0f0f1"/>
    <path id="Trazado_190929" data-name="Trazado 190929" d="M71.2,108.62h9.38c.86,0,1.24.15,1.24,1.14,0,3.12.05,3.12-3.08,3.12H61.96c-1,0-1.4-.14-1.38-1.27.06-3,0-3,3-3Z" transform="translate(1020 3749)" fill="#e1e6f5"/>
    <rect id="Rect치ngulo_39757" data-name="Rect치ngulo 39757" width="150" height="150" transform="translate(1020 3749)" fill="none"/>
  </g>
</svg>
