<svg xmlns="http://www.w3.org/2000/svg" width="125.64" height="128.541" viewBox="0 0 125.64 128.541">
  <g id="Grupo_94353" data-name="Grupo 94353" transform="translate(-414 -4740.085)">
    <rect id="Rectángulo_38962" data-name="Rectángulo 38962" width="115.15" height="115.15" transform="translate(416.029 4740.085)" fill="none"/>
    <circle id="Elipse_7661" data-name="Elipse 7661" cx="62.82" cy="62.82" r="62.82" transform="translate(414 4742.986)" fill="#104c82"/>
    <path id="Trazado_185832" data-name="Trazado 185832" d="M51.73,124.39h-25v-6.36a11.26,11.26,0,0,1,1.61-3.67,8.81,8.81,0,0,1,9.31-3.49,9.42,9.42,0,0,1,5.16,3.41l1.14,2.18a16.539,16.539,0,0,1,1-1.79,9.4,9.4,0,0,1,5.87-4c1.91,0,3.84-.16,5.55,1-.2.17-.39.34-.6.5a9,9,0,0,0-3.82,6.3A53.251,53.251,0,0,0,51.73,124.39Z" transform="translate(400.26 4730.806)" fill="#96ce92"/>
    <path id="Trazado_185833" data-name="Trazado 185833" d="M51.73,124.39c.11-2-.11-4,.17-5.92a9,9,0,0,1,3.82-6.3c.21-.16.4-.33.6-.5a9,9,0,0,1,4.41,5c1.59-3.57,4.14-5.77,8-5.91,4.17-.14,7,1.94,8.77,5.89,1.67-3.76,4.39-5.9,8.45-5.89s6.7,2.19,8.35,5.87a18.481,18.481,0,0,1,1-1.83,8.64,8.64,0,0,1,7.5-4.06h1.49a11.19,11.19,0,0,1,5.21,3,15.05,15.05,0,0,1,1.64,3,9.33,9.33,0,0,1,6.31-5.81,8.91,8.91,0,0,1,8,2.1,8.49,8.49,0,0,1,2.88,6c.09,1.55,0,3.11,0,4.66,0,.55-.16.82-.73.74H52.52Z" transform="translate(400.26 4730.806)" fill="#a2e09f"/>
    <path id="Trazado_185834" data-name="Trazado 185834" d="M117.46,45.35a14.72,14.72,0,0,1,3,.52l-4.08,7C110,63.8,103.52,74.74,97.14,85.72a2.43,2.43,0,0,1-2.47,1.4c-7.45-.06-14.89,0-22.34,0a5.53,5.53,0,0,1,.84-1.66q4.55-7.8,9.12-15.6H91.4a6,6,0,0,0,5.3-9.22c-1.5-2.6-3-5.22-4.44-7.82l4.39-7.38h20.81Z" transform="translate(400.26 4730.806)" fill="#e18086"/>
    <path id="Trazado_185835" data-name="Trazado 185835" d="M92.26,52.76c1.48,2.6,2.94,5.22,4.44,7.82a6,6,0,0,1-5.3,9.22H66.58c0-.5-.53-.44-.82-.59A6.09,6.09,0,0,1,63,61.11c1.28-2.34,2.67-4.62,4-6.94q4.57-7.9,9.14-15.84c1-1.69,1.83-3.46,3.77-4.3a6,6,0,0,1,3.1,2.91c1.64,2.83,3.3,5.64,5,8.46C89.32,47.91,90.76,50.35,92.26,52.76Z" transform="translate(400.26 4730.806)" fill="#ffdca8"/>
    <path id="Trazado_185836" data-name="Trazado 185836" d="M66.63,69.79h2L58.48,87.07H45.17a.66.66,0,0,0-.24-.17,10.16,10.16,0,0,1-6.76-4.18c-.21-.28-.35-.64-.71-.79l.15-.42Q46.7,66,55.79,50.55a53.731,53.731,0,0,0,2.92-5.18h8.3a3.1,3.1,0,0,1-.15.46c-2.78,4.82-5.55,9.65-8.36,14.46a6,6,0,0,0-.26,6.37,5.64,5.64,0,0,0,5.42,3.11C64.65,69.78,65.64,69.79,66.63,69.79Z" transform="translate(400.26 4730.806)" fill="#e18086"/>
    <path id="Trazado_185837" data-name="Trazado 185837" d="M58.71,45.37a53.73,53.73,0,0,1-2.92,5.18Q46.72,66,37.61,81.51a6.49,6.49,0,0,1-1.34-4.43c-.08-5.49-.05-11-.06-16.48l.06-.29c3-4.86,5.86-9.8,8.68-14.75a.34.34,0,0,0,.07-.15h5.72Z" transform="translate(400.26 4730.806)" fill="#f8f4f8"/>
    <path id="Trazado_185838" data-name="Trazado 185838" d="M110.09,87.05c1.56-2.69,3.1-5.38,4.67-8.06l12.6-21.46a1.09,1.09,0,0,1,.47-.46V58c0,6-.14,12,0,18.06a10.58,10.58,0,0,1-10.4,11Z" transform="translate(400.26 4730.806)" fill="#e18086"/>
    <path id="Trazado_185839" data-name="Trazado 185839" d="M58.48,87.07,68.59,69.82h13.7l-9.12,15.6a5.53,5.53,0,0,0-.84,1.66Z" transform="translate(400.26 4730.806)" fill="#f8f5f7"/>
    <path id="Trazado_185840" data-name="Trazado 185840" d="M45,45.41a.34.34,0,0,1-.07.15,10.26,10.26,0,0,0-8.19,7.12c-.86,2.49-.44,5.08-.49,7.63l-.06.29a5.321,5.321,0,0,0-.36.47q-4,6.87-8.07,13.74c-.15.25-.16.68-.62.67.18-6.38.06-12.75.07-19.12a10.76,10.76,0,0,1,1.95-6.61,10.53,10.53,0,0,1,8.46-4.41H42.8Z" transform="translate(400.26 4730.806)" fill="#dc636e"/>
    <path id="Trazado_185841" data-name="Trazado 185841" d="M45.17,87.07h5.62c0,3,0,6.07-.07,9.1H43.89c-.85,0-1.12.2-1.11,1.09v17a9.42,9.42,0,0,0-5.16-3.41V87.08Z" transform="translate(400.26 4730.806)" fill="#02749e"/>
    <path id="Trazado_185842" data-name="Trazado 185842" d="M110.09,87.05l7.38.06V96.2h-6.85c-.82,0-1.06.23-1.06,1.06v16.48a11.19,11.19,0,0,0-5.21-3V88.33c0-1,.29-1.28,1.26-1.23C107.05,87.14,108.57,87.06,110.09,87.05Z" transform="translate(400.26 4730.806)" fill="#02749e"/>
    <path id="Trazado_185843" data-name="Trazado 185843" d="M66.63,69.79h-3a5.64,5.64,0,0,1-5.42-3.11,6,6,0,0,1,.26-6.37c2.81-4.81,5.58-9.64,8.36-14.46a3.1,3.1,0,0,0,.15-.46c1.68-2.49,3-5.16,4.56-7.75,1-1.65,2-3.23,3.92-3.86A5.36,5.36,0,0,1,80,34c-1.94.84-2.8,2.61-3.77,4.3q-4.56,7.93-9.14,15.84c-1.34,2.32-2.73,4.6-4,6.94a6.09,6.09,0,0,0,2.76,8.1C66.1,69.35,66.58,69.29,66.63,69.79Z" transform="translate(400.26 4730.806)" fill="#f0ca86"/>
    <path id="Trazado_185844" data-name="Trazado 185844" d="M27.16,75.48c.46,0,.47-.42.62-.67q4-6.87,8.07-13.74a5.321,5.321,0,0,1,.36-.47c0,5.49,0,11,.06,16.48a6.49,6.49,0,0,0,1.34,4.43l-.15.42-2.78,4.73a10.41,10.41,0,0,1-7.38-9,6.41,6.41,0,0,1-.14-2.18Z" transform="translate(400.26 4730.806)" fill="#ddd8e9"/>
    <path id="Trazado_185845" data-name="Trazado 185845" d="M109.52,113.73V97.25c0-.83.24-1.08,1.06-1.06h6.85v14.7a9.33,9.33,0,0,0-6.31,5.81,15.05,15.05,0,0,0-1.6-2.97Z" transform="translate(400.26 4730.806)" fill="#039be5"/>
    <path id="Trazado_185846" data-name="Trazado 185846" d="M42.79,114.31v-17c0-.89.26-1.11,1.11-1.09,2.28.06,4.56,0,6.83,0q0,7.25.05,14.5a9.4,9.4,0,0,0-5.87,4c-.35.54-.62,1.13-1,1.79Z" transform="translate(400.26 4730.806)" fill="#039be5"/>
    <path id="Trazado_185847" data-name="Trazado 185847" d="M45,45.41l-2.22-.07V41.08a3.87,3.87,0,0,1,2.56-4c.73,0,1.46-.05,2.19,0a3.27,3.27,0,0,1,3.2,3.26q0,2.535,0,5.07Z" transform="translate(400.26 4730.806)" fill="#039be5"/>
    <path id="Trazado_185848" data-name="Trazado 185848" d="M117.46,45.35h-7.93c0-1.32.09-2.64,0-4a4.13,4.13,0,0,1,2.39-4.34h2.17a3.36,3.36,0,0,1,3.38,3.39C117.48,42.07,117.46,43.71,117.46,45.35Z" transform="translate(400.26 4730.806)" fill="#039be5"/>
    <path id="Trazado_185849" data-name="Trazado 185849" d="M111.9,37.06a4.13,4.13,0,0,0-2.39,4.34c.11,1.31,0,2.63,0,4H104.3V40.57A3.27,3.27,0,0,1,107.86,37C109.21,37,110.55,37.05,111.9,37.06Z" transform="translate(400.26 4730.806)" fill="#02749e"/>
    <path id="Trazado_185850" data-name="Trazado 185850" d="M45.36,37.06a3.87,3.87,0,0,0-2.56,4v4.26H37.64V40.38A3.31,3.31,0,0,1,41,37C42.47,37,43.91,37.05,45.36,37.06Z" transform="translate(400.26 4730.806)" fill="#02749e"/>
    <path id="Trazado_185851" data-name="Trazado 185851" d="M92.26,52.76c-1.5-2.41-2.94-4.85-4.24-7.37h8.63Q94.46,49.07,92.26,52.76Z" transform="translate(400.26 4730.806)" fill="#f8f5f7"/>
    <path id="Trazado_185852" data-name="Trazado 185852" d="M34.68,86.66l2.78-4.73c.36.15.5.51.71.79a10.16,10.16,0,0,0,6.76,4.18.66.66,0,0,1,.24.17l-7.53.06A9.31,9.31,0,0,1,34.68,86.66Z" transform="translate(400.26 4730.806)" fill="#dc636e"/>
    <path id="Trazado_185853" data-name="Trazado 185853" d="M36.27,60.31c0-2.55-.37-5.14.49-7.63A10.26,10.26,0,0,1,45,45.56C42.13,50.51,39.27,55.45,36.27,60.31Z" transform="translate(400.26 4730.806)" fill="#e18086"/>
    <path id="Trazado_185854" data-name="Trazado 185854" d="M120.48,45.87s4.25.48,5.53,2.2c2.11,2.85,1.82,9,1.82,9l-17.74,30s-14.42.49-13.69-.42S120.48,45.87,120.48,45.87Z" transform="translate(400.26 4730.806)" fill="#fcfdfd"/>
  </g>
</svg>
