<svg xmlns="http://www.w3.org/2000/svg" width="200" height="200" viewBox="0 0 200 200">
  <g id="Grupo_94260" data-name="Grupo 94260" transform="translate(-490 -5319.545)">
    <rect id="Rectángulo_38930" data-name="Rectángulo 38930" width="200" height="200" transform="translate(490 5319.545)" fill="none"/>
    <circle id="Elipse_7619" data-name="Elipse 7619" cx="83.76" cy="83.76" r="83.76" transform="translate(508.32 5335.786)" fill="#4dd0e1"/>
    <g id="Grupo_92547" data-name="Grupo 92547" transform="translate(526.728 5324.359)">
      <path id="Trazado_185195" data-name="Trazado 185195" d="M61.737,10.983c.747.093,1.48.213,2.227.293A9.013,9.013,0,0,0,71.15,9.463,28.533,28.533,0,0,1,81.377,3.61h3.84A26.027,26.027,0,0,1,95.883,9.57c2.347,1.987,4.973,1.92,7.76,1.6a29.413,29.413,0,0,1,8-.307,12.613,12.613,0,0,1,9.507,6.893,71.519,71.519,0,0,1,3.2,6.787,6.493,6.493,0,0,0,3.587,3.587c1.12.493,2.213,1.04,3.347,1.48,4.893,1.92,8.68,4.947,10.227,10.2a40.506,40.506,0,0,1-.4,9.76,8.773,8.773,0,0,0,2.227,7.573,44,44,0,0,1,2.827,4,13.147,13.147,0,0,1,0,15.547c-1.2,1.853-2.533,3.64-3.84,5.413a7.173,7.173,0,0,0-1.333,5.44,43.521,43.521,0,0,1,.547,8.533,12,12,0,0,1-4.4,8.787,29.16,29.16,0,0,1-6.667,3.747,13.427,13.427,0,0,0-4.427,2.373c-1.907,1.427-2.227,3.773-3.293,5.68-3.92-.173-7.813.76-11.893.173a18.387,18.387,0,0,0,3.093-5.56c1.907-4.48,4.32-8.52,9.147-10.493,2.04-.827,4-1.84,6.013-2.773a3.36,3.36,0,0,0,2.267-3.693c-.227-1.96-.133-4-.467-5.893a15.04,15.04,0,0,1,2.467-11.147c1.24-1.893,2.573-3.733,3.907-5.56s1.507-3.267.173-5.253c-.813-1.2-1.68-2.373-2.547-3.533-2.667-3.493-4.413-7.267-4.2-11.733a42.1,42.1,0,0,1,.6-5.173c.693-4.067.307-4.92-3.4-6.667-.84-.4-1.693-.76-2.547-1.12-4.627-1.92-8.4-4.707-10.373-9.533-.813-1.987-1.813-3.907-2.667-5.867a3.187,3.187,0,0,0-3.213-1.973c-1.493,0-2.987.4-4.48.52-4.693.373-9.333.48-13.333-2.667-1.587-1.253-3.253-2.36-4.853-3.52-2.4-1.733-3.093-1.84-5.613-.147-1.493,1-2.947,2.067-4.413,3.107a16.347,16.347,0,0,1-9.88,3.373c-3.52,0-6.96-.88-10.667-.587a63.47,63.47,0,0,1,3.747-6.373A10.173,10.173,0,0,0,61.737,10.983Z" transform="translate(-18.104 -3.61)" fill="#ffca7d"/>
      <path id="Trazado_185196" data-name="Trazado 185196" d="M71.178,9.207a10.173,10.173,0,0,1-2.067,3.587,63.467,63.467,0,0,0-3.747,6.373c3.653-.293,7.093.547,10.667.587a16.347,16.347,0,0,0,9.88-3.373c1.467-1.04,2.92-2.107,4.413-3.107,2.467-1.693,3.16-1.587,5.56.147,1.6,1.16,3.267,2.227,4.813,3.453,4,3.16,8.64,3.053,13.333,2.667,1.493-.12,2.987-.453,4.48-.52a3.187,3.187,0,0,1,3.213,2c.893,1.96,1.893,3.88,2.667,5.867,1.973,4.827,5.747,7.613,10.373,9.533.853.36,1.707.72,2.547,1.12,3.707,1.8,4.093,2.667,3.4,6.667a42.09,42.09,0,0,0-.56,5.213c-.213,4.467,1.587,8.24,4.2,11.733.867,1.16,1.733,2.333,2.547,3.533,1.333,1.987,1.24,3.28-.173,5.253s-2.667,3.667-3.907,5.56a15.04,15.04,0,0,0-2.44,11.12c.333,1.933.24,4,.467,5.893a3.36,3.36,0,0,1-2.267,3.693c-2,.933-4,1.947-6.013,2.773-4.827,1.973-7.24,6.013-9.147,10.493a18.387,18.387,0,0,1-3.093,5.56c4.08.587,8-.347,11.893-.173-1.973,5.133-4.893,9.333-10.773,10.32a18.666,18.666,0,0,1-6.773-.08c-4-.8-7.72-.507-10.84,2.667a18.961,18.961,0,0,1-3.267,2.307,13.24,13.24,0,0,1-15.4,0c-1.893-1.24-3.72-2.6-5.56-3.933a7,7,0,0,0-5.44-1.253,43.412,43.412,0,0,1-8,.573,12.107,12.107,0,0,1-9.493-4.747,31.653,31.653,0,0,1-3.653-6.667c-.693-1.507-1.08-3.2-2.44-4.36a3.547,3.547,0,0,0-1.8-1.333c-1.573-.733-3.173-1.413-4.76-2.133-4.267-1.96-7.813-4.587-9.013-9.48a21.253,21.253,0,0,1,0-8.653c.56-3.44.293-6.56-2.227-9.253A23.506,23.506,0,0,1,30.6,75.9c-4-5.92-4.107-10.987-.147-16.973.96-1.453,1.973-2.893,3.067-4.24a7.573,7.573,0,0,0,1.707-5.667c-.28-3.573-1.027-7.133-.413-10.747,1.333-5.24,4.96-8.387,9.8-10.067,4.573-1.587,7.76-4.293,9.067-9.027a10.667,10.667,0,0,1,.853-1.92C58.1,10.194,62.471,8.127,71.178,9.207Zm4.36,88a37.2,37.2,0,0,0,23.267,4,33.827,33.827,0,0,0,20.84-11.2,34.667,34.667,0,0,0,9.16-21.693c1.04-15.547-9.48-35.787-34.147-37.333A35.24,35.24,0,0,0,58.151,68.314c-.36-.093-.36-.44-.413-.693-.533-2.84-1.027-5.68-1.333-8.56a63.573,63.573,0,0,1,.627-16.987A63.173,63.173,0,0,1,59.7,31.407c.12-.36.48-.8,0-1.067s-.573.253-.773.52a14.507,14.507,0,0,1-5.573,4.36c-2.267,1.053-4.533,2.12-6.787,3.227a2.52,2.52,0,0,0-1.653,2.24,40.107,40.107,0,0,0,.573,7.307,15.867,15.867,0,0,1-1.333,8.627c-1.333,2.973-3.52,5.333-5.24,8-1.333,2.107-1.333,3.36.213,5.333a70.4,70.4,0,0,1,4.44,6.44c2.547,4.133,2.067,8.64,1.587,13.187-.52,4.933-.747,5.453,3.867,7.373,1.027.427,2.013.92,3.027,1.333a15.92,15.92,0,0,1,8.707,7.853c1.04,2.213,2.107,4.413,3.133,6.667a3.44,3.44,0,0,0,3.827,2.347c1.547-.213,3.12-.253,4.667-.48a16.92,16.92,0,0,1,10.507,1.333,51.828,51.828,0,0,1,7.333,4.987c1.867,1.333,2.96,1.453,4.907.16,2.36-1.467,4.68-3.12,7.08-4.64a12.373,12.373,0,0,1,4-1.68,28,28,0,0,1,4.107-.48c-13.147-2.56-25.027-7.613-34.773-17.12Z" transform="translate(-27.546 -1.834)" fill="#ffa726"/>
      <path id="Trazado_185197" data-name="Trazado 185197" d="M48.243,84.473c1.333,1.16,1.747,2.853,2.44,4.36A31.653,31.653,0,0,0,54.337,95.5a12.107,12.107,0,0,0,9.493,4.747,43.413,43.413,0,0,0,8-.573,7,7,0,0,1,5.44,1.253c1.84,1.333,3.667,2.667,5.56,3.933a13.24,13.24,0,0,0,15.4,0,18.961,18.961,0,0,0,3.267-2.213c3.12-3.107,6.813-3.4,10.84-2.667a18.667,18.667,0,0,0,6.773.08c5.88-1,8.8-5.187,10.773-10.32,1.067-1.907,1.333-4.253,3.293-5.68,2.173,8,4.36,16.08,6.507,24.12q3.453,12.947,6.88,25.893a50.08,50.08,0,0,1-9.333,7.52,83.467,83.467,0,0,1-32.12,13.12,14.987,14.987,0,0,1-1.907.08c-.093-.453-.147-.907-.267-1.333L93.5,118.353c-.88-3.267-1.76-6.547-2.773-10.293-3.067,11.427-6.027,22.32-8.92,33.24-1.2,4.533-2.667,9.013-3.507,13.627a70.827,70.827,0,0,1-20-5.427,83.373,83.373,0,0,1-22.92-14.333c-.307-.267-.547-.587-.827-.88a8.107,8.107,0,0,0,.573-1.253c2.48-9.333,4.933-18.587,7.427-27.88Q45.45,94.853,48.243,84.473Z" transform="translate(-25.211 23.207)" fill="#1565b2"/>
      <path id="Trazado_185198" data-name="Trazado 185198" d="M72.94,91.872c9.747,9.507,21.627,14.56,34.773,17.12a28,28,0,0,0-4.107.453,12.373,12.373,0,0,0-4,1.68c-2.4,1.547-4.72,3.2-7.08,4.773-1.947,1.333-3.04,1.24-4.907-.16a51.826,51.826,0,0,0-7.333-4.987,16.92,16.92,0,0,0-10.507-1.333c-1.547.227-3.12.267-4.667.48a3.44,3.44,0,0,1-3.827-2.347c-1.027-2.213-2.093-4.413-3.133-6.667a15.92,15.92,0,0,0-8.707-7.893c-1.013-.44-2-.933-3.027-1.333-4.613-1.92-4.387-2.44-3.867-7.373.48-4.547.96-9.053-1.587-13.187-1.333-2.213-2.907-4.333-4.44-6.44s-1.56-3.293-.213-5.333c1.72-2.667,4-5.027,5.24-8A15.867,15.867,0,0,0,42.887,42.7a40.1,40.1,0,0,1-.507-7.28,2.52,2.52,0,0,1,1.653-2.24c2.253-1.107,4.52-2.173,6.787-3.227a14.507,14.507,0,0,0,5.573-4.36c.2-.267.373-.72.773-.52s.147.707,0,1.067A63.172,63.172,0,0,0,54.5,36.806a63.573,63.573,0,0,0-.627,16.987c.293,2.88.787,5.72,1.333,8.56,0,.253,0,.6.427.693A35.227,35.227,0,0,1,92.127,25.712c24.667,1.587,35.187,21.827,34.147,37.333a34.667,34.667,0,0,1-9.16,21.693A33.827,33.827,0,0,1,96.22,95.886a37.2,37.2,0,0,1-23.28-4.013Zm-1.2-.933-.147-.08.147.08c0,.253,0,.547.427.533a.147.147,0,0,0,.107-.107c.027-.387-.28-.387-.533-.427Zm35-36.453a2.533,2.533,0,0,0-1.573-2.507,2.88,2.88,0,0,0-3.373.653c-4.08,3.813-8.24,7.56-12.24,11.453-1.173,1.133-1.773.96-2.747-.12-1.6-1.76-3.32-3.427-5.053-5.067a2.88,2.88,0,0,0-4.213,0,2.667,2.667,0,0,0,.28,4q4,4.12,8.16,8.16a2.667,2.667,0,0,0,4.187.107c5.24-4.813,10.427-9.68,15.627-14.52a2.773,2.773,0,0,0,.947-2.16Z" transform="translate(-24.948 3.528)" fill="#bf7d1d"/>
      <path id="Trazado_185199" data-name="Trazado 185199" d="M96.39,47.814a2.773,2.773,0,0,1-.973,2.173c-5.2,4.84-10.387,9.707-15.627,14.52A2.667,2.667,0,0,1,75.6,64.4q-4.12-4-8.16-8.16a2.667,2.667,0,0,1-.28-4,2.88,2.88,0,0,1,4.213,0c1.733,1.64,3.453,3.307,5.053,5.067.973,1.08,1.573,1.253,2.747.12,4-3.893,8.187-7.64,12.267-11.453a2.88,2.88,0,0,1,3.373-.653,2.533,2.533,0,0,1,1.573,2.493Z" transform="translate(-14.597 10.199)" fill="#fefefe"/>
      <path id="Trazado_185200" data-name="Trazado 185200" d="M62.64,74.46c.253,0,.56,0,.533.427a.147.147,0,0,1-.107.107C62.68,74.993,62.68,74.713,62.64,74.46Z" transform="translate(-15.848 20.007)" fill="#ffa726"/>
      <path id="Trazado_185201" data-name="Trazado 185201" d="M62.677,74.48l-.147-.08Z" transform="translate(-15.884 19.987)" fill="#ffa726"/>
    </g>
  </g>
</svg>
