<svg xmlns="http://www.w3.org/2000/svg" width="200" height="200" viewBox="0 0 200 200">
  <g id="Grupo_94261" data-name="Grupo 94261" transform="translate(-910 -5319.545)">
    <rect id="Rectángulo_38929" data-name="Rectángulo 38929" width="200" height="200" transform="translate(910 5319.545)" fill="none"/>
    <circle id="Elipse_7618" data-name="Elipse 7618" cx="83.76" cy="83.76" r="83.76" transform="translate(928.32 5335.786)" fill="#4dd0e1"/>
    <g id="Grupo_92545" data-name="Grupo 92545" transform="translate(940.333 5347.559)">
      <path id="Trazado_185182" data-name="Trazado 185182" d="M107.417,21.16h51.307a18.92,18.92,0,0,1,3.027,1.12,9.8,9.8,0,0,1,4.587,6.773V52.28A4.867,4.867,0,0,1,161,55.4c-3.16-.187-6.333-.227-9.507-.307-1.96,0-1.96,0-1.96,1.96v94.573a12.653,12.653,0,0,1-13.067,13.067H79.3c-13.333,0-26.52.08-39.787,0-6.667,0-11.613-3.32-14.84-9.147-2.187-4-2.027-8.28-1.787-12.56a4,4,0,0,1,4-3.48h79.2c1.067,0,1.333-.36,1.333-1.333v-7h20.72c2.773,0,4.52-1.64,4.52-4.213s-1.747-4.2-4.52-4.213h-20.72Z" transform="translate(-22.75 -20.96)" fill="#7395cb"/>
      <path id="Trazado_185183" data-name="Trazado 185183" d="M105.319,21.21V122.65H51.252a13.841,13.841,0,0,0-1.667,0,3.733,3.733,0,0,0-3.44,2.987c-.72,3.173,1.067,5.333,4.413,5.333h54.747v7c0,1.027-.28,1.413-1.333,1.333H29.052V34.1A12.52,12.52,0,0,1,34.145,23.57a16.347,16.347,0,0,1,6.107-2.56ZM63,105.317h12.88a4.187,4.187,0,0,0,.16-8.32q-13.08-.08-26.173,0a3.707,3.707,0,0,0-3.707,2.84,4.12,4.12,0,0,0,4.24,5.533C54.6,105.343,58.8,105.317,63,105.317ZM58.425,54.85h8.267a4.2,4.2,0,1,0,.08-8.387H50.239a4.2,4.2,0,1,0,.067,8.4C52.985,54.877,55.719,54.85,58.425,54.85Zm.147,25.24h8c2.667,0,4.56-1.653,4.533-4.227a4.08,4.08,0,0,0-4.48-4.2H50.385a4,4,0,0,0-4.453,4.16c0,2.547,1.72,4.227,4.507,4.24s5.427.027,8.133.027Z" transform="translate(-20.652 -21.01)" fill="#c2d2e4"/>
      <path id="Trazado_185184" data-name="Trazado 185184" d="M101.07,105.706H46.323c-3.347,0-5.133-2.2-4.413-5.333a3.733,3.733,0,0,1,3.44-2.987,13.838,13.838,0,0,1,1.667,0h74.8c2.773,0,4.52,1.64,4.52,4.213s-1.747,4.2-4.52,4.213Z" transform="translate(-16.416 4.44)" fill="#1565b2"/>
      <path id="Trazado_185185" data-name="Trazado 185185" d="M58.784,86.32h-12.6a4.12,4.12,0,0,1-4.24-5.533A3.707,3.707,0,0,1,45.651,78H71.824a4.187,4.187,0,0,1-.16,8.36C67.437,86.36,63.077,86.32,58.784,86.32Z" transform="translate(-16.437 -2.014)" fill="#1565b2"/>
      <path id="Trazado_185186" data-name="Trazado 185186" d="M54.168,48.491h-8.12a4.2,4.2,0,1,1-.067-8.4H62.515a4.2,4.2,0,1,1-.08,8.387C59.688,48.518,56.928,48.491,54.168,48.491Z" transform="translate(-16.395 -14.651)" fill="#1565b2"/>
      <path id="Trazado_185187" data-name="Trazado 185187" d="M54.351,67.433H46.218c-2.707,0-4.547-1.76-4.507-4.253a4,4,0,0,1,4.453-4.173H62.4a4.08,4.08,0,0,1,4.453,4.173c0,2.573-1.72,4.213-4.533,4.227S57,67.433,54.351,67.433Z" transform="translate(-16.431 -8.353)" fill="#1565b2"/>
    </g>
    <g id="Grupo_92546" data-name="Grupo 92546" transform="translate(1005.443 5356.479)">
      <path id="Trazado_185188" data-name="Trazado 185188" d="M84.883,30.567l.867.107a3.507,3.507,0,0,0,2.8-.72,11.04,11.04,0,0,1,4-2.253h1.507a9.893,9.893,0,0,1,4.16,2.32,3.587,3.587,0,0,0,3.013.613,12.067,12.067,0,0,1,3.107-.12,4.92,4.92,0,0,1,3.693,2.667,28.08,28.08,0,0,1,1.253,2.667A2.533,2.533,0,0,0,110.7,37.18c.427.2.853.4,1.333.573a6.093,6.093,0,0,1,4,4,15.093,15.093,0,0,1-.16,3.8,3.48,3.48,0,0,0,.867,2.947,15.749,15.749,0,0,1,1.107,1.56,5.12,5.12,0,0,1-.013,6.04c-.467.72-.987,1.413-1.507,2.107a2.773,2.773,0,0,0-.507,2.12,16.228,16.228,0,0,1,.213,3.32,4.6,4.6,0,0,1-1.72,3.413,10.867,10.867,0,0,1-2.667,1.467,5.12,5.12,0,0,0-1.72.92c-.747.56-.867,1.467-1.333,2.213a44.374,44.374,0,0,1-4.627,0,7.067,7.067,0,0,0,1.2-2.16,6.84,6.84,0,0,1,3.56-4.093c.8-.32,1.56-.707,2.347-1.08a1.333,1.333,0,0,0,.88-1.44,18.99,18.99,0,0,0-.187-2.293,5.827,5.827,0,0,1,.96-4.32c.48-.747,1-1.453,1.507-2.173a1.48,1.48,0,0,0,0-2.04,14.372,14.372,0,0,0-.987-1.333,6.987,6.987,0,0,1-1.627-4.573,17.228,17.228,0,0,1,.227-2.013c.28-1.587.12-1.907-1.333-2.667-.32-.16-.653-.293-1-.44a6.813,6.813,0,0,1-4-3.707c-.32-.773-.707-1.52-1.067-2.28a1.213,1.213,0,0,0-1.24-.773c-.587,0-1.16.16-1.747.2a6.933,6.933,0,0,1-5.187-1.04c-.6-.48-1.253-.893-1.88-1.333-.947-.707-1.2-.72-2.187,0l-1.72,1.2a6.373,6.373,0,0,1-3.84,1.333c-1.333,0-2.667-.347-4.133-.227a24.733,24.733,0,0,1,1.453-2.48,4.107,4.107,0,0,0,.92-1.36Z" transform="translate(-67.94 -27.7)" fill="#ffca7d"/>
      <path id="Trazado_185189" data-name="Trazado 185189" d="M88.526,29.877a4.107,4.107,0,0,1-.813,1.333,24.735,24.735,0,0,0-1.453,2.48c1.413-.12,2.76.213,4.133.227a6.373,6.373,0,0,0,3.84-1.333l1.72-1.2c.987-.667,1.24-.653,2.187,0,.627.453,1.333.867,1.88,1.333a6.933,6.933,0,0,0,5.187,1.04c.587,0,1.16-.173,1.747-.2a1.213,1.213,0,0,1,1.24.773c.36.76.747,1.507,1.067,2.28a6.813,6.813,0,0,0,4,3.707c.347.147.68.28,1,.44,1.44.707,1.6,1.027,1.333,2.667a17.231,17.231,0,0,0-.227,2.013,6.987,6.987,0,0,0,1.64,4.64c.347.453.68.907.987,1.333a1.48,1.48,0,0,1,0,2.04c-.507.72-1.027,1.427-1.507,2.173a5.827,5.827,0,0,0-.96,4.32c.133.76.093,1.533.187,2.293a1.333,1.333,0,0,1-.88,1.44c-.787.373-1.547.76-2.347,1.08a6.84,6.84,0,0,0-3.56,4.093,7.067,7.067,0,0,1-1.2,2.16,44.376,44.376,0,0,0,4.627,0c-.76,2-1.907,3.627-4.187,4a7.32,7.32,0,0,1-2.667,0,4.32,4.32,0,0,0-4.227,1.013,7.2,7.2,0,0,1-1.267.893,5.147,5.147,0,0,1-6,0c-.733-.48-1.453-1.013-2.16-1.533a2.667,2.667,0,0,0-2.12-.48,17.454,17.454,0,0,1-3.12.213,4.72,4.72,0,0,1-3.693-1.84,12.533,12.533,0,0,1-1.427-2.667,4.267,4.267,0,0,0-.947-1.693,1.333,1.333,0,0,0-.693-.507c-.613-.293-1.24-.56-1.853-.84a5.573,5.573,0,0,1-3.52-3.68,8.453,8.453,0,0,1,0-3.373,4,4,0,0,0-.867-3.6,12.171,12.171,0,0,1-.853-1.147,5.333,5.333,0,0,1,0-6.667c.373-.56.773-1.12,1.2-1.64a3.013,3.013,0,0,0,.667-2.213,16.907,16.907,0,0,1-.173-4.187,5.52,5.52,0,0,1,3.827-3.907,5.08,5.08,0,0,0,3.533-3.52,3.707,3.707,0,0,1,.32-.747C83.432,30.264,85.126,29.45,88.526,29.877Zm1.693,34.267a14.4,14.4,0,0,0,9.067,1.56,13.093,13.093,0,0,0,8.107-4.347,13.547,13.547,0,0,0,3.573-8.453,13.787,13.787,0,1,0-27.52,0c-.133,0-.133-.173-.16-.267-.2-1.107-.4-2.213-.507-3.333a25.933,25.933,0,0,1,1.333-10.747c0-.147.2-.32,0-.413s-.227.093-.307.2a5.64,5.64,0,0,1-2.173,1.693L78.966,41.29a1,1,0,0,0-.64.88,16.761,16.761,0,0,0,.2,2.84,6.227,6.227,0,0,1-.493,3.347,22.107,22.107,0,0,1-2.08,3.053,1.547,1.547,0,0,0,.093,2.107c.587.813,1.2,1.64,1.733,2.507a7.733,7.733,0,0,1,.613,5.133c-.213,1.92-.293,2.12,1.507,2.867.4.16.773.36,1.173.533a6.147,6.147,0,0,1,3.387,3.053c.413.867.827,1.72,1.227,2.587a1.333,1.333,0,0,0,1.48.907c.613-.08,1.213-.093,1.827-.187a6.587,6.587,0,0,1,4.093.547A20.627,20.627,0,0,1,95.939,73.4a1.333,1.333,0,0,0,1.907,0c.92-.613,1.813-1.253,2.76-1.853a4.827,4.827,0,0,1,1.547-.653,13.038,13.038,0,0,1,1.6-.173,25.88,25.88,0,0,1-13.533-6.573Z" transform="translate(-71.583 -27.01)" fill="#ffa726"/>
      <path id="Trazado_185190" data-name="Trazado 185190" d="M79.6,59.177a4.267,4.267,0,0,1,.973,1.693A12.533,12.533,0,0,0,82,63.537a4.72,4.72,0,0,0,3.693,1.84,17.453,17.453,0,0,0,3.12-.213,2.667,2.667,0,0,1,2.12.48c.707.52,1.427,1.053,2.16,1.533a5.147,5.147,0,0,0,6,0,7.2,7.2,0,0,0,1.267-.893,4.32,4.32,0,0,1,4.213-1.04,7.32,7.32,0,0,0,2.667,0c2.28-.387,3.427-2.013,4.187-4,.413-.747.533-1.653,1.333-2.213.853,3.133,1.707,6.267,2.533,9.4.907,3.347,1.787,6.667,2.667,10.067a19.64,19.64,0,0,1-3.627,2.933,32.547,32.547,0,0,1-12.507,5.107,6.83,6.83,0,0,1-.747,0,1.054,1.054,0,0,0-.093-.533L97.223,72.39c-.347-1.333-.693-2.56-1.08-4-1.2,4.453-2.347,8.693-3.467,12.947a54.69,54.69,0,0,0-1.333,5.333,28.147,28.147,0,0,1-7.773-2.12,32.786,32.786,0,0,1-8.96-5.56l-.32-.347a2.347,2.347,0,0,0,.227-.493c.973-3.613,1.92-7.227,2.893-10.853C78.13,64.55,78.863,61.87,79.6,59.177Z" transform="translate(-70.68 -17.257)" fill="#1565b2"/>
      <path id="Trazado_185191" data-name="Trazado 185191" d="M89.23,62.072a25.88,25.88,0,0,0,13.533,6.667,13.04,13.04,0,0,0-1.6.173,4.827,4.827,0,0,0-1.547.653c-.947.6-1.84,1.24-2.76,1.853a1.333,1.333,0,0,1-1.907,0A20.628,20.628,0,0,0,92.1,69.485,6.587,6.587,0,0,0,88,68.938c-.613.093-1.213.107-1.827.187a1.333,1.333,0,0,1-1.48-.907c-.4-.867-.813-1.72-1.227-2.587a6.147,6.147,0,0,0-3.387-3.053c-.4-.173-.773-.373-1.173-.533-1.8-.747-1.72-.947-1.507-2.867a7.733,7.733,0,0,0-.613-5.133c-.533-.867-1.147-1.693-1.733-2.507a1.547,1.547,0,0,1-.093-2.2,22.106,22.106,0,0,0,2.053-3.12,6.227,6.227,0,0,0,.493-3.347,16.76,16.76,0,0,1-.2-2.84,1,1,0,0,1,.64-.88L80.617,37.9a5.64,5.64,0,0,0,2.173-1.693c.08-.107.147-.28.307-.2s0,.267,0,.413a25.933,25.933,0,0,0-1.333,10.747c.107,1.12.307,2.227.507,3.333,0,.093,0,.227.173.267a13.773,13.773,0,1,1,27.507,0,13.547,13.547,0,0,1-3.573,8.453,13.093,13.093,0,0,1-8.107,4.347,14.4,14.4,0,0,1-9.04-1.493Zm-.467-.36h0c0,.107,0,.213.16.213h0C88.977,61.725,88.857,61.725,88.764,61.712Z" transform="translate(-70.594 -24.938)" fill="#bf7d1d"/>
      <path id="Trazado_185192" data-name="Trazado 185192" d="M85.21,55.293c.093,0,.213,0,.213.16h0c-.147,0-.147-.107-.16-.213Z" transform="translate(-67.04 -18.52)" fill="#ffa726"/>
      <path id="Trazado_185193" data-name="Trazado 185193" d="M85.21,55.28Z" transform="translate(-67.04 -18.507)" fill="#ffa726"/>
    </g>
    <path id="Trazado_185194" data-name="Trazado 185194" d="M102.654,45.3l-7.387-7.387h0l-.133-.093a1.173,1.173,0,0,0-.2-.16h0l-.173-.16-.187-.093h0l-.2-.067h-.453a.573.573,0,0,0-.213,0h-.493l-.2.067H92.8l-.173.093h0l-.187.107h0l-.12.093-.213.173h0l-7.64,8a2.333,2.333,0,1,0,3.36,3.227l3.627-3.76V59.289a2.333,2.333,0,0,0,4.667,0V45.2l3.413,3.413a2.333,2.333,0,1,0,3.293-3.307Z" transform="translate(937.906 5331.99)" fill="#fff"/>
  </g>
</svg>
