<?xml version="1.0" encoding="utf-8"?>
<!-- Generator: Adobe Illustrator 25.4.2, SVG Export Plug-In . SVG Version: 6.00 Build 0)  -->
<svg version="1.1" id="Capa_1" xmlns="http://www.w3.org/2000/svg" xmlns:xlink="http://www.w3.org/1999/xlink" x="0px" y="0px"
	 viewBox="0 0 1240 600" style="enable-background:new 0 0 1240 600;" xml:space="preserve">
<style type="text/css">
	.st0{fill:none;}
	.st1{fill:#91E6DD;}
	.st2{fill:#9AD7F5;}
	.st3{fill:#FFECB1;}
	.st4{fill:#C2D2E4;}
	.st5{fill:#12263F;}
	.st6{enable-background:new    ;}
	.st7{opacity:0.5;fill:#6B98F6;enable-background:new    ;}
	.st8{fill:#DCEAFF;}
	.st9{fill:#C8DEFB;}
	.st10{fill:#1E3865;}
	.st11{fill:#FFAE73;}
	.st12{fill:#F99352;}
	.st13{fill:#2A3967;}
	.st14{fill:#6B98F6;}
	.st15{fill:#FF912B;}
	.st16{fill:#577BEC;}
	.st17{fill:#25468F;}
	.st18{fill:#FFFFFF;}
	.st19{fill:#0B3563;}
	.st20{fill:#143057;}
	.st21{fill:#FC7600;}
	.st22{fill:#F48F4E;}
	.st23{fill:#8DB4FF;}
	.st24{fill:#FFA726;}
	.st25{opacity:0.9;}
	.st26{fill:#E9F1FF;}
</style>
<g id="Capa_1_00000035521352420050667880000015375568883507190462_" transform="translate(0 2.22)">
	<rect id="Rectángulo_38931" y="-2.2" class="st0" width="1240" height="600"/>
	<path id="Trazado_185202" class="st1" d="M469.4,226.4c0-21.1,17.1-38.2,38.2-38.2h102.2V90.1c0-10.1-8.2-18.2-18.2-18.2h-278
		c-10.1,0-18.2,8.2-18.2,18.2v179.2c0,10.1,8.2,18.2,18.2,18.2h155.8L469.4,226.4L469.4,226.4z"/>
	<path id="Trazado_185203" class="st2" d="M507.6,407.4c-21.1,0-38.2-17.1-38.2-38.2V308H313.6c-10.1,0-18.2,8.2-18.2,18.2v179.2
		c0,10.1,8.2,18.2,18.2,18.2h278c10.1,0,18.2-8.2,18.2-18.2v-98.1L507.6,407.4L507.6,407.4z"/>
	<path id="Trazado_185204" class="st3" d="M926.4,308H770.6v61.2c0,21.1-17.1,38.2-38.2,38.2H630.2v98.1c0,10.1,8.2,18.2,18.2,18.2
		h278c10.1,0,18.2-8.2,18.2-18.2l0,0V326.2C944.7,316.1,936.5,308,926.4,308z"/>
	<path id="Trazado_185205" class="st4" d="M926.4,71.8h-278c-10.1,0-18.2,8.2-18.2,18.2v98.1h102.2c21.1,0,38.2,17.1,38.2,38.2v61.2
		h155.8c10.1,0,18.2-8.2,18.2-18.2V90.1C944.7,80,936.5,71.8,926.4,71.8z"/>
	<path id="Rectángulo_38932" class="st5" d="M507.6,208.2h224.8c10.1,0,18.2,8.2,18.2,18.2v142.7c0,10.1-8.2,18.2-18.2,18.2H507.6
		c-10.1,0-18.2-8.2-18.2-18.2V226.4C489.4,216.3,497.5,208.2,507.6,208.2z"/>
	<g class="st6">
		<path class="st5" d="M320.1,107.2h-3.2v-14h3.2V107.2z"/>
		<path class="st5" d="M322.6,106.7v-3.1c0.6,0.5,1.2,0.8,1.8,1.1s1.3,0.4,2,0.4c0.4,0,0.7,0,1-0.1s0.5-0.2,0.7-0.3s0.3-0.3,0.4-0.4
			s0.1-0.4,0.1-0.6c0-0.3-0.1-0.5-0.2-0.7s-0.4-0.4-0.6-0.6s-0.6-0.4-1-0.5s-0.8-0.3-1.2-0.5c-1.1-0.5-1.9-1-2.4-1.7
			s-0.8-1.5-0.8-2.4c0-0.7,0.1-1.4,0.4-1.9s0.7-1,1.2-1.3s1.1-0.6,1.8-0.7s1.4-0.2,2.1-0.2s1.4,0,1.9,0.1s1.1,0.2,1.6,0.4v2.9
			c-0.2-0.2-0.5-0.3-0.8-0.4s-0.6-0.2-0.9-0.3s-0.6-0.1-0.9-0.2s-0.6-0.1-0.8-0.1c-0.4,0-0.7,0-1,0.1s-0.5,0.2-0.7,0.3
			s-0.4,0.3-0.5,0.4s-0.2,0.4-0.2,0.6s0.1,0.4,0.2,0.6s0.3,0.4,0.5,0.5s0.5,0.3,0.8,0.5s0.7,0.3,1.1,0.5c0.6,0.2,1.1,0.5,1.5,0.7
			s0.8,0.6,1.1,0.9s0.6,0.7,0.7,1.1s0.3,0.9,0.3,1.5c0,0.8-0.1,1.4-0.4,2s-0.7,1-1.2,1.3s-1.1,0.6-1.8,0.7s-1.4,0.2-2.1,0.2
			c-0.8,0-1.5-0.1-2.2-0.2S323.1,107,322.6,106.7z"/>
		<path class="st5" d="M340.4,107.5c-2,0-3.6-0.7-4.9-2s-1.9-3-1.9-5.1c0-2.2,0.6-4,1.9-5.4s3-2.1,5.1-2.1c2,0,3.6,0.7,4.8,2
			s1.9,3,1.9,5.2s-0.6,4-1.9,5.3S342.4,107.5,340.4,107.5z M340.5,95.7c-1.1,0-2,0.4-2.6,1.2s-1,1.9-1,3.3s0.3,2.5,1,3.3
			s1.5,1.2,2.6,1.2s1.9-0.4,2.6-1.2s1-1.9,1-3.3c0-1.5-0.3-2.6-0.9-3.4S341.6,95.7,340.5,95.7z"/>
		<path class="st5" d="M357.1,93.2l-6.8,16.3h-2.8l6.8-16.3H357.1z"/>
		<path class="st5" d="M361.6,107.2h-3.2v-14h3.2V107.2z"/>
		<path class="st5" d="M373.2,107.2h-8.4v-14h8.1v2.6H368v3.1h4.6v2.6H368v3.2h5.2V107.2z"/>
		<path class="st5" d="M385.5,106.7c-1,0.5-2.4,0.7-4,0.7c-2.1,0-3.8-0.6-5.1-1.9s-1.8-2.9-1.8-5c0-2.2,0.7-4.1,2.1-5.4
			s3.2-2.1,5.4-2.1c1.4,0,2.5,0.2,3.5,0.5v3c-0.9-0.6-2-0.8-3.2-0.8c-1.3,0-2.4,0.4-3.2,1.2s-1.2,1.9-1.2,3.4c0,1.4,0.4,2.4,1.1,3.2
			s1.8,1.2,3.1,1.2c1.2,0,2.4-0.3,3.4-0.9L385.5,106.7L385.5,106.7z"/>
		<path class="st5" d="M396.1,104.7h5.9v2.6h-9.3v-1.1c0-0.7,0.1-1.4,0.4-1.9s0.5-1.1,0.9-1.5s0.8-0.9,1.2-1.2s0.8-0.7,1.2-0.9
			c0.4-0.3,0.8-0.6,1.1-0.8s0.6-0.5,0.8-0.8s0.4-0.5,0.5-0.8s0.2-0.6,0.2-0.9c0-0.6-0.2-1.1-0.5-1.4s-0.9-0.5-1.6-0.5
			c-1.2,0-2.4,0.5-3.5,1.4v-2.7c1.2-0.8,2.6-1.2,4.1-1.2c0.7,0,1.3,0.1,1.9,0.3s1,0.5,1.4,0.8s0.7,0.8,0.9,1.3s0.3,1,0.3,1.6
			s-0.1,1.2-0.3,1.7s-0.5,1-0.8,1.4s-0.7,0.8-1.1,1.1s-0.9,0.7-1.3,1c-0.3,0.2-0.6,0.4-0.9,0.7s-0.5,0.4-0.8,0.6s-0.4,0.4-0.5,0.6
			S396.1,104.5,396.1,104.7z"/>
		<path class="st5" d="M404.8,106.9v-2.6c1,0.6,2,0.9,3.1,0.9c0.8,0,1.5-0.2,1.9-0.6s0.7-0.9,0.7-1.6c0-1.4-1-2.1-2.9-2.1
			c-0.7,0-1.6,0.1-2.5,0.2l0.5-7.8h7.4v2.5h-5.1l-0.2,2.8c0.5,0,0.9-0.1,1.3-0.1c1.4,0,2.6,0.4,3.4,1.1s1.2,1.8,1.2,3
			c0,1.4-0.5,2.6-1.5,3.5s-2.3,1.3-3.9,1.3C406.8,107.5,405.7,107.3,404.8,106.9z"/>
		<path class="st5" d="M420.5,107.5c-3.3,0-5-2.3-5-7c0-2.4,0.5-4.3,1.4-5.6s2.2-1.9,3.9-1.9c3.3,0,4.9,2.4,4.9,7.1
			c0,2.4-0.4,4.2-1.3,5.4S422.2,107.5,420.5,107.5z M420.7,95.3c-1.3,0-2,1.7-2,5c0,3.2,0.7,4.7,2,4.7s1.9-1.6,1.9-4.9
			S421.9,95.3,420.7,95.3z"/>
		<path class="st5" d="M434.5,92.9v14.3h-3.1V96.4c-0.2,0.1-0.4,0.3-0.6,0.4s-0.5,0.3-0.7,0.4s-0.5,0.2-0.8,0.3s-0.6,0.1-0.8,0.2V95
			c0.8-0.2,1.6-0.5,2.3-0.9s1.4-0.8,1.9-1.2H434.5z"/>
		<path class="st5" d="M448.8,107.2h-3.1v-5.6c0-1.5-0.6-2.3-1.7-2.3c-0.5,0-1,0.2-1.3,0.6s-0.5,0.9-0.5,1.6v5.7h-3.1v-10h3.1v1.6
			l0,0c0.7-1.2,1.8-1.8,3.2-1.8c2.2,0,3.3,1.4,3.3,4.1v6.1H448.8z"/>
		<path class="st5" d="M452.7,100.3c-0.5,0-0.9-0.2-1.3-0.5s-0.5-0.7-0.5-1.1c0-0.5,0.2-0.9,0.5-1.2s0.8-0.4,1.3-0.4s1,0.2,1.3,0.5
			s0.5,0.7,0.5,1.1c0,0.5-0.2,0.9-0.5,1.2S453.2,100.3,452.7,100.3z M452.7,107.5c-0.5,0-0.9-0.2-1.3-0.5s-0.5-0.7-0.5-1.2
			s0.2-0.9,0.5-1.2s0.8-0.4,1.3-0.4s1,0.2,1.3,0.5s0.5,0.7,0.5,1.1c0,0.5-0.2,0.9-0.5,1.2S453.2,107.5,452.7,107.5z"/>
	</g>
	<g class="st6">
		<path class="st5" d="M317,128.8v-12.6h3.5c4.4,0,6.7,2,6.7,6.1c0,1.9-0.6,3.5-1.9,4.7c-1.2,1.2-2.9,1.8-5,1.8H317z M318.4,117.6
			v9.9h1.9c1.7,0,2.9-0.4,3.9-1.3s1.4-2.1,1.4-3.8c0-3.2-1.7-4.8-5.2-4.8C320.4,117.6,318.4,117.6,318.4,117.6z"/>
		<path class="st5" d="M330.1,117.5c-0.3,0-0.5-0.1-0.7-0.3s-0.3-0.4-0.3-0.7s0.1-0.5,0.3-0.7s0.4-0.3,0.7-0.3
			c0.3,0,0.5,0.1,0.7,0.3s0.3,0.4,0.3,0.7c0,0.3-0.1,0.5-0.3,0.7S330.4,117.5,330.1,117.5z M330.8,128.8h-1.4v-9h1.4V128.8z"/>
		<path class="st5" d="M340.8,119.8l-3.6,9h-1.4l-3.4-9h1.6l2.3,6.5c0.2,0.5,0.3,0.9,0.3,1.3l0,0c0.1-0.5,0.2-0.9,0.3-1.2l2.4-6.6
			C339.3,119.8,340.8,119.8,340.8,119.8z"/>
		<path class="st5" d="M343.1,117.5c-0.3,0-0.5-0.1-0.7-0.3s-0.3-0.4-0.3-0.7s0.1-0.5,0.3-0.7s0.4-0.3,0.7-0.3
			c0.3,0,0.5,0.1,0.7,0.3s0.3,0.4,0.3,0.7c0,0.3-0.1,0.5-0.3,0.7S343.4,117.5,343.1,117.5z M343.8,128.8h-1.4v-9h1.4V128.8z"/>
		<path class="st5" d="M346.2,128.5V127c0.8,0.6,1.6,0.9,2.6,0.9c1.3,0,1.9-0.4,1.9-1.3c0-0.2-0.1-0.4-0.2-0.6s-0.3-0.3-0.4-0.4
			s-0.4-0.2-0.7-0.3c-0.2-0.1-0.5-0.2-0.8-0.3c-0.4-0.2-0.7-0.3-1.1-0.5s-0.6-0.3-0.8-0.5c-0.2-0.2-0.4-0.4-0.5-0.7
			s-0.2-0.6-0.2-0.9c0-0.4,0.1-0.8,0.3-1.1c0.2-0.3,0.5-0.6,0.8-0.8c0.3-0.2,0.7-0.4,1.1-0.5s0.8-0.2,1.3-0.2c0.8,0,1.5,0.1,2.1,0.4
			v1.5c-0.7-0.4-1.4-0.7-2.3-0.7c-0.3,0-0.5,0-0.7,0.1s-0.4,0.1-0.6,0.3s-0.3,0.2-0.4,0.4s-0.1,0.3-0.1,0.5s0,0.4,0.1,0.6
			s0.2,0.3,0.4,0.4s0.4,0.2,0.6,0.3s0.5,0.2,0.8,0.3c0.4,0.2,0.8,0.3,1.1,0.5s0.6,0.3,0.8,0.5c0.2,0.2,0.4,0.4,0.5,0.7
			s0.2,0.6,0.2,0.9c0,0.4-0.1,0.8-0.3,1.2c-0.2,0.4-0.5,0.6-0.8,0.8s-0.7,0.4-1.1,0.5s-0.9,0.2-1.3,0.2
			C347.7,129,346.9,128.9,346.2,128.5z"/>
		<path class="st5" d="M355.1,117.5c-0.3,0-0.5-0.1-0.7-0.3s-0.3-0.4-0.3-0.7s0.1-0.5,0.3-0.7s0.4-0.3,0.7-0.3
			c0.3,0,0.5,0.1,0.7,0.3s0.3,0.4,0.3,0.7c0,0.3-0.1,0.5-0.3,0.7S355.4,117.5,355.1,117.5z M355.8,128.8h-1.4v-9h1.4V128.8z"/>
		<path class="st5" d="M362.5,129c-1.3,0-2.4-0.4-3.2-1.3c-0.8-0.8-1.2-2-1.2-3.3c0-1.5,0.4-2.7,1.2-3.5s1.9-1.3,3.3-1.3
			c1.3,0,2.4,0.4,3.1,1.2s1.1,2,1.1,3.4s-0.4,2.6-1.2,3.4C364.9,128.6,363.8,129,362.5,129z M362.6,120.8c-0.9,0-1.7,0.3-2.2,0.9
			s-0.8,1.5-0.8,2.6s0.3,1.9,0.8,2.5s1.3,0.9,2.2,0.9c0.9,0,1.6-0.3,2.1-0.9s0.8-1.5,0.8-2.6s-0.3-2-0.8-2.6
			S363.5,120.8,362.6,120.8z M364.7,115.2l-2.3,2.9h-1.1l2-2.9H364.7z"/>
		<path class="st5" d="M376.7,128.8h-1.4v-5.1c0-1.9-0.7-2.9-2.1-2.9c-0.7,0-1.3,0.3-1.8,0.8s-0.7,1.2-0.7,2.1v5.1h-1.4v-9h1.4v1.5
			l0,0c0.7-1.1,1.7-1.7,3-1.7c1,0,1.7,0.3,2.3,1c0.5,0.6,0.8,1.6,0.8,2.8L376.7,128.8L376.7,128.8z"/>
		<path class="st5" d="M385.9,127.5L385.9,127.5v5.4h-1.4v-13.1h1.4v1.6l0,0c0.7-1.2,1.7-1.8,3.1-1.8c1.2,0,2.1,0.4,2.7,1.2
			s1,1.9,1,3.2c0,1.5-0.4,2.7-1.1,3.6s-1.7,1.4-3,1.4C387.4,129,386.5,128.5,385.9,127.5z M385.8,123.9v1.3c0,0.7,0.2,1.4,0.7,1.9
			s1.1,0.8,1.8,0.8c0.9,0,1.6-0.3,2.1-1s0.7-1.6,0.7-2.8c0-1-0.2-1.8-0.7-2.4s-1.1-0.9-1.9-0.9s-1.5,0.3-2,0.9
			S385.8,123,385.8,123.9z"/>
		<path class="st5" d="M401.4,128.8H400v-1.4l0,0c-0.6,1.1-1.5,1.6-2.8,1.6c-0.9,0-1.6-0.2-2.1-0.7s-0.8-1.1-0.8-1.9
			c0-1.7,1-2.7,3-2.9l2.7-0.4c0-1.5-0.6-2.3-1.9-2.3c-1.1,0-2.1,0.4-2.9,1.1v-1.5c0.9-0.6,1.9-0.8,3.1-0.8c2.1,0,3.2,1.1,3.2,3.4
			v5.8H401.4z M400,124.3l-2.2,0.3c-0.7,0.1-1.2,0.3-1.5,0.5s-0.5,0.7-0.5,1.3c0,0.4,0.2,0.8,0.5,1.1c0.3,0.3,0.7,0.4,1.3,0.4
			c0.7,0,1.3-0.2,1.8-0.8c0.5-0.5,0.7-1.1,0.7-1.9L400,124.3L400,124.3z"/>
	</g>
	<g class="st6">
		<path class="st5" d="M408.8,121.3c-0.3-0.2-0.6-0.3-1.1-0.3c-0.6,0-1.1,0.3-1.5,0.9s-0.6,1.4-0.6,2.4v4.6h-1.4v-9h1.4v1.9l0,0
			c0.2-0.6,0.5-1.1,0.9-1.5s0.9-0.5,1.4-0.5c0.4,0,0.7,0,0.9,0.1L408.8,121.3L408.8,121.3z"/>
	</g>
	<g class="st6">
		<path class="st5" d="M416.5,128.8H415v-1.4l0,0c-0.6,1.1-1.5,1.6-2.8,1.6c-0.9,0-1.6-0.2-2.1-0.7s-0.8-1.1-0.8-1.9
			c0-1.7,1-2.7,3-2.9l2.7-0.4c0-1.5-0.6-2.3-1.9-2.3c-1.1,0-2.1,0.4-2.9,1.1v-1.5c0.9-0.6,1.9-0.8,3.1-0.8c2.1,0,3.2,1.1,3.2,3.4
			L416.5,128.8L416.5,128.8z M415,124.3l-2.2,0.3c-0.7,0.1-1.2,0.3-1.5,0.5s-0.5,0.7-0.5,1.3c0,0.4,0.2,0.8,0.5,1.1
			c0.3,0.3,0.7,0.4,1.3,0.4c0.7,0,1.3-0.2,1.8-0.8c0.5-0.5,0.7-1.1,0.7-1.9L415,124.3L415,124.3z"/>
		<path class="st5" d="M431.3,124.7H425c0,1,0.3,1.8,0.8,2.3s1.2,0.8,2.1,0.8c1,0,1.9-0.3,2.8-1v1.4c-0.8,0.6-1.8,0.9-3.1,0.9
			c-1.3,0-2.3-0.4-3-1.2s-1.1-2-1.1-3.4s0.4-2.5,1.2-3.4c0.8-0.9,1.8-1.3,3-1.3s2.1,0.4,2.7,1.1s1,1.8,1,3.2v0.6H431.3z
			 M429.9,123.5c0-0.8-0.2-1.5-0.6-1.9s-0.9-0.7-1.6-0.7s-1.3,0.2-1.7,0.7s-0.8,1.1-0.9,1.9H429.9z"/>
		<path class="st5" d="M435,128.8h-1.4v-13.3h1.4V128.8z"/>
		<path class="st5" d="M455.6,128.8h-1.4v-5.2c0-1-0.2-1.7-0.5-2.2s-0.8-0.7-1.6-0.7c-0.6,0-1.1,0.3-1.6,0.8s-0.6,1.2-0.6,2v5.1
			h-1.4v-5.3c0-1.8-0.7-2.7-2-2.7c-0.6,0-1.2,0.3-1.6,0.8s-0.6,1.2-0.6,2.1v5.1h-1.4v-9h1.4v1.4l0,0c0.6-1.1,1.6-1.6,2.8-1.6
			c0.6,0,1.2,0.2,1.6,0.5c0.5,0.3,0.8,0.8,0.9,1.3c0.7-1.2,1.7-1.9,3-1.9c2,0,3,1.2,3,3.7L455.6,128.8L455.6,128.8z"/>
		<path class="st5" d="M462.1,129c-1.3,0-2.4-0.4-3.2-1.3c-0.8-0.8-1.2-2-1.2-3.3c0-1.5,0.4-2.7,1.2-3.5s1.9-1.3,3.3-1.3
			c1.3,0,2.4,0.4,3.1,1.2s1.1,2,1.1,3.4s-0.4,2.6-1.2,3.4C464.5,128.6,463.4,129,462.1,129z M462.2,120.8c-0.9,0-1.7,0.3-2.2,0.9
			s-0.8,1.5-0.8,2.6s0.3,1.9,0.8,2.5s1.3,0.9,2.2,0.9c0.9,0,1.6-0.3,2.1-0.9s0.8-1.5,0.8-2.6s-0.3-2-0.8-2.6
			S463.1,120.8,462.2,120.8z"/>
		<path class="st5" d="M476.5,128.8h-1.4v-1.5l0,0c-0.7,1.2-1.7,1.7-3.1,1.7c-1.1,0-2-0.4-2.7-1.2s-1-1.9-1-3.3
			c0-1.5,0.4-2.7,1.1-3.6s1.7-1.3,3-1.3c1.2,0,2.1,0.5,2.7,1.5l0,0v-5.6h1.4V128.8z M475.1,124.8v-1.3c0-0.7-0.2-1.3-0.7-1.8
			s-1.1-0.8-1.8-0.8c-0.9,0-1.6,0.3-2.1,1s-0.8,1.5-0.8,2.7c0,1,0.2,1.9,0.7,2.5s1.1,0.9,1.9,0.9s1.5-0.3,2-0.9
			S475.1,125.6,475.1,124.8z"/>
		<path class="st5" d="M486.7,124.7h-6.4c0,1,0.3,1.8,0.8,2.3s1.2,0.8,2.1,0.8c1,0,1.9-0.3,2.8-1v1.4c-0.8,0.6-1.8,0.9-3.1,0.9
			c-1.3,0-2.3-0.4-3-1.2s-1.1-2-1.1-3.4s0.4-2.5,1.2-3.4c0.8-0.9,1.8-1.3,3-1.3s2.1,0.4,2.7,1.1s1,1.8,1,3.2V124.7z M485.2,123.5
			c0-0.8-0.2-1.5-0.6-1.9s-0.9-0.7-1.6-0.7s-1.3,0.2-1.7,0.7s-0.8,1.1-0.9,1.9H485.2z"/>
		<path class="st5" d="M490.3,128.8h-1.4v-13.3h1.4V128.8z"/>
		<path class="st5" d="M497,129c-1.3,0-2.4-0.4-3.2-1.3c-0.8-0.8-1.2-2-1.2-3.3c0-1.5,0.4-2.7,1.2-3.5s1.9-1.3,3.3-1.3
			c1.3,0,2.4,0.4,3.1,1.2s1.1,2,1.1,3.4s-0.4,2.6-1.2,3.4C499.5,128.6,498.4,129,497,129z M497.1,120.8c-0.9,0-1.7,0.3-2.2,0.9
			s-0.8,1.5-0.8,2.6s0.3,1.9,0.8,2.5s1.3,0.9,2.2,0.9c0.9,0,1.6-0.3,2.1-0.9s0.8-1.5,0.8-2.6s-0.3-2-0.8-2.6S498,120.8,497.1,120.8z
			"/>
		<path class="st5" d="M516.4,128.8H515v-1.5l0,0c-0.7,1.2-1.7,1.7-3.1,1.7c-1.1,0-2-0.4-2.7-1.2s-1-1.9-1-3.3
			c0-1.5,0.4-2.7,1.1-3.6s1.7-1.3,3-1.3c1.2,0,2.1,0.5,2.7,1.5l0,0v-5.6h1.4V128.8z M515,124.8v-1.3c0-0.7-0.2-1.3-0.7-1.8
			s-1.1-0.8-1.8-0.8c-0.9,0-1.6,0.3-2.1,1s-0.8,1.5-0.8,2.7c0,1,0.2,1.9,0.7,2.5s1.1,0.9,1.9,0.9s1.5-0.3,2-0.9S515,125.6,515,124.8
			z"/>
		<path class="st5" d="M526.5,124.7h-6.4c0,1,0.3,1.8,0.8,2.3s1.2,0.8,2.1,0.8c1,0,1.9-0.3,2.8-1v1.4c-0.8,0.6-1.8,0.9-3.1,0.9
			s-2.3-0.4-3-1.2s-1.1-2-1.1-3.4s0.4-2.5,1.2-3.4s1.8-1.3,3-1.3s2.1,0.4,2.7,1.1s1,1.8,1,3.2V124.7z M525.1,123.5
			c0-0.8-0.2-1.5-0.6-1.9s-0.9-0.7-1.6-0.7c-0.7,0-1.3,0.2-1.7,0.7s-0.8,1.1-0.9,1.9H525.1z"/>
		<path class="st5" d="M535.1,128.8h-1.4v-13.3h1.4V128.8z"/>
		<path class="st5" d="M544.5,128.8H543v-1.4l0,0c-0.6,1.1-1.5,1.6-2.8,1.6c-0.9,0-1.6-0.2-2.1-0.7s-0.8-1.1-0.8-1.9
			c0-1.7,1-2.7,3-2.9l2.7-0.4c0-1.5-0.6-2.3-1.9-2.3c-1.1,0-2.1,0.4-2.9,1.1v-1.5c0.9-0.6,1.9-0.8,3.1-0.8c2.1,0,3.2,1.1,3.2,3.4
			V128.8z M543,124.3l-2.2,0.3c-0.7,0.1-1.2,0.3-1.5,0.5s-0.5,0.7-0.5,1.3c0,0.4,0.2,0.8,0.5,1.1c0.3,0.3,0.7,0.4,1.3,0.4
			c0.7,0,1.3-0.2,1.8-0.8c0.5-0.5,0.7-1.1,0.7-1.9L543,124.3L543,124.3z"/>
	</g>
	<g class="st6">
		<path class="st5" d="M322.9,150c-0.7,0.4-1.5,0.6-2.5,0.6c-1.3,0-2.3-0.4-3.1-1.3c-0.8-0.8-1.2-1.9-1.2-3.2c0-1.5,0.4-2.7,1.3-3.6
			s2-1.3,3.4-1.3c0.8,0,1.5,0.1,2.1,0.4v1.5c-0.7-0.5-1.4-0.7-2.1-0.7c-0.9,0-1.7,0.3-2.3,1c-0.6,0.7-0.9,1.5-0.9,2.6
			s0.3,1.9,0.8,2.5s1.3,0.9,2.2,0.9c0.8,0,1.5-0.3,2.2-0.8v1.4H322.9z"/>
		<path class="st5" d="M331.5,150.4h-1.4V149l0,0c-0.6,1.1-1.5,1.6-2.8,1.6c-0.9,0-1.6-0.2-2.1-0.7s-0.8-1.1-0.8-1.9
			c0-1.7,1-2.7,3-2.9l2.7-0.4c0-1.5-0.6-2.3-1.9-2.3c-1.1,0-2.1,0.4-2.9,1.1V142c0.9-0.6,1.9-0.8,3.1-0.8c2.1,0,3.2,1.1,3.2,3.4v5.8
			H331.5z M330.1,145.9l-2.2,0.3c-0.7,0.1-1.2,0.3-1.5,0.5s-0.5,0.7-0.5,1.3c0,0.4,0.2,0.8,0.5,1.1s0.7,0.4,1.3,0.4
			c0.7,0,1.3-0.2,1.8-0.8c0.5-0.5,0.7-1.1,0.7-1.9L330.1,145.9L330.1,145.9z"/>
		<path class="st5" d="M335.7,150.4h-1.4v-13.3h1.4V150.4z"/>
		<path class="st5" d="M339.3,139.1c-0.3,0-0.5-0.1-0.7-0.3s-0.3-0.4-0.3-0.7s0.1-0.5,0.3-0.7s0.4-0.3,0.7-0.3
			c0.3,0,0.5,0.1,0.7,0.3s0.3,0.4,0.3,0.7s-0.1,0.5-0.3,0.7S339.6,139.1,339.3,139.1z M340,150.4h-1.4v-9h1.4V150.4z"/>
		<path class="st5" d="M350.6,150.4h-1.4v-1.5l0,0c-0.7,1.2-1.7,1.7-3.1,1.7c-1.1,0-2-0.4-2.7-1.2s-1-1.9-1-3.3
			c0-1.5,0.4-2.7,1.1-3.6s1.7-1.3,3-1.3c1.2,0,2.1,0.5,2.7,1.5l0,0v-5.6h1.4V150.4z M349.2,146.4V145c0-0.7-0.2-1.3-0.7-1.8
			s-1.1-0.8-1.8-0.8c-0.9,0-1.6,0.3-2.1,1s-0.8,1.5-0.8,2.7c0,1,0.2,1.9,0.7,2.5s1.1,0.9,1.9,0.9s1.5-0.3,2-0.9
			S349.2,147.2,349.2,146.4z"/>
		<path class="st5" d="M360,150.4h-1.4V149l0,0c-0.6,1.1-1.5,1.6-2.8,1.6c-0.9,0-1.6-0.2-2.1-0.7s-0.8-1.1-0.8-1.9
			c0-1.7,1-2.7,3-2.9l2.7-0.4c0-1.5-0.6-2.3-1.9-2.3c-1.1,0-2.1,0.4-2.9,1.1V142c0.9-0.6,1.9-0.8,3.1-0.8c2.1,0,3.2,1.1,3.2,3.4v5.8
			H360z M358.6,145.9l-2.2,0.3c-0.7,0.1-1.2,0.3-1.5,0.5s-0.5,0.7-0.5,1.3c0,0.4,0.2,0.8,0.5,1.1s0.7,0.4,1.3,0.4
			c0.7,0,1.3-0.2,1.8-0.8c0.5-0.5,0.7-1.1,0.7-1.9L358.6,145.9L358.6,145.9z"/>
		<path class="st5" d="M370.4,150.4H369v-1.5l0,0c-0.7,1.2-1.7,1.7-3.1,1.7c-1.1,0-2-0.4-2.7-1.2s-1-1.9-1-3.3
			c0-1.5,0.4-2.7,1.1-3.6s1.7-1.3,3-1.3c1.2,0,2.1,0.5,2.7,1.5l0,0v-5.6h1.4V150.4z M368.9,146.4V145c0-0.7-0.2-1.3-0.7-1.8
			s-1.1-0.8-1.8-0.8c-0.9,0-1.6,0.3-2.1,1s-0.8,1.5-0.8,2.7c0,1,0.2,1.9,0.7,2.5s1.1,0.9,1.9,0.9s1.5-0.3,2-0.9
			S368.9,147.2,368.9,146.4z"/>
	</g>
	<g class="st6">
		<path class="st5" d="M320.1,450.7h-3.2v-14h3.2V450.7z"/>
		<path class="st5" d="M322.6,450.2V447c0.6,0.5,1.2,0.8,1.8,1.1s1.3,0.4,2,0.4c0.4,0,0.7,0,1-0.1s0.5-0.2,0.7-0.3s0.3-0.3,0.4-0.4
			s0.1-0.4,0.1-0.6c0-0.3-0.1-0.5-0.2-0.7s-0.4-0.4-0.6-0.6s-0.6-0.4-1-0.5s-0.8-0.3-1.2-0.5c-1.1-0.5-1.9-1-2.4-1.7
			s-0.8-1.5-0.8-2.4c0-0.7,0.1-1.4,0.4-1.9s0.7-1,1.2-1.3s1.1-0.6,1.8-0.7s1.4-0.2,2.1-0.2s1.4,0,1.9,0.1s1.1,0.2,1.6,0.4v2.9
			c-0.2-0.2-0.5-0.3-0.8-0.4s-0.6-0.2-0.9-0.3s-0.6-0.1-0.9-0.2s-0.6-0.1-0.8-0.1c-0.4,0-0.7,0-1,0.1s-0.5,0.2-0.7,0.3
			s-0.4,0.3-0.5,0.4s-0.2,0.4-0.2,0.6s0.1,0.4,0.2,0.6s0.3,0.4,0.5,0.5s0.5,0.3,0.8,0.5s0.7,0.3,1.1,0.5c0.6,0.2,1.1,0.5,1.5,0.7
			s0.8,0.6,1.1,0.9s0.6,0.7,0.7,1.1s0.3,0.9,0.3,1.5c0,0.8-0.1,1.4-0.4,2s-0.7,1-1.2,1.3s-1.1,0.6-1.8,0.7s-1.4,0.2-2.1,0.2
			c-0.8,0-1.5-0.1-2.2-0.2S323.1,450.4,322.6,450.2z"/>
		<path class="st5" d="M340.4,450.9c-2,0-3.6-0.7-4.9-2s-1.9-3-1.9-5.1c0-2.2,0.6-4,1.9-5.4s3-2.1,5.1-2.1c2,0,3.6,0.7,4.8,2
			s1.9,3,1.9,5.2s-0.6,4-1.9,5.3S342.4,450.9,340.4,450.9z M340.5,439.2c-1.1,0-2,0.4-2.6,1.2s-1,1.9-1,3.3s0.3,2.5,1,3.3
			s1.5,1.2,2.6,1.2s1.9-0.4,2.6-1.2s1-1.9,1-3.3c0-1.5-0.3-2.6-0.9-3.4S341.6,439.2,340.5,439.2z"/>
		<path class="st5" d="M357.1,436.7l-6.8,16.3h-2.8l6.8-16.3H357.1z"/>
		<path class="st5" d="M361.6,450.7h-3.2v-14h3.2V450.7z"/>
		<path class="st5" d="M373.2,450.7h-8.4v-14h8.1v2.6H368v3.1h4.6v2.6H368v3.2h5.2V450.7z"/>
		<path class="st5" d="M385.5,450.2c-1,0.5-2.4,0.7-4,0.7c-2.1,0-3.8-0.6-5.1-1.9s-1.8-2.9-1.8-5c0-2.2,0.7-4.1,2.1-5.4
			s3.2-2.1,5.4-2.1c1.4,0,2.5,0.2,3.5,0.5v3c-0.9-0.6-2-0.8-3.2-0.8c-1.3,0-2.4,0.4-3.2,1.2s-1.2,1.9-1.2,3.4c0,1.4,0.4,2.4,1.1,3.2
			s1.8,1.2,3.1,1.2c1.2,0,2.4-0.3,3.4-0.9L385.5,450.2L385.5,450.2z"/>
		<path class="st5" d="M396.1,448.1h5.9v2.6h-9.3v-1.1c0-0.7,0.1-1.4,0.4-1.9s0.5-1.1,0.9-1.5s0.8-0.9,1.2-1.2s0.8-0.7,1.2-0.9
			c0.4-0.3,0.8-0.6,1.1-0.8s0.6-0.5,0.8-0.8s0.4-0.5,0.5-0.8s0.2-0.6,0.2-0.9c0-0.6-0.2-1.1-0.5-1.4s-0.9-0.5-1.6-0.5
			c-1.2,0-2.4,0.5-3.5,1.4v-2.7c1.2-0.8,2.6-1.2,4.1-1.2c0.7,0,1.3,0.1,1.9,0.3s1,0.5,1.4,0.8s0.7,0.8,0.9,1.3s0.3,1,0.3,1.6
			s-0.1,1.2-0.3,1.7s-0.5,1-0.8,1.4s-0.7,0.8-1.1,1.1s-0.9,0.7-1.3,1c-0.3,0.2-0.6,0.4-0.9,0.7s-0.5,0.4-0.8,0.6s-0.4,0.4-0.5,0.6
			S396.1,448,396.1,448.1z"/>
		<path class="st5" d="M404.8,450.3v-2.6c1,0.6,2,0.9,3.1,0.9c0.8,0,1.5-0.2,1.9-0.6s0.7-0.9,0.7-1.6c0-1.4-1-2.1-2.9-2.1
			c-0.7,0-1.6,0.1-2.5,0.2l0.5-7.8h7.4v2.5h-5.1l-0.2,2.8c0.5,0,0.9-0.1,1.3-0.1c1.4,0,2.6,0.4,3.4,1.1s1.2,1.8,1.2,3
			c0,1.4-0.5,2.6-1.5,3.5s-2.3,1.3-3.9,1.3C406.8,450.9,405.7,450.7,404.8,450.3z"/>
		<path class="st5" d="M420.5,450.9c-3.3,0-5-2.3-5-7c0-2.4,0.5-4.3,1.4-5.6s2.2-1.9,3.9-1.9c3.3,0,4.9,2.4,4.9,7.1
			c0,2.4-0.4,4.2-1.3,5.4S422.2,450.9,420.5,450.9z M420.7,438.8c-1.3,0-2,1.7-2,5c0,3.2,0.7,4.7,2,4.7s1.9-1.6,1.9-4.9
			S421.9,438.8,420.7,438.8z"/>
		<path class="st5" d="M427.5,450.2v-2.7c0.9,0.7,2,1,3.3,1c0.8,0,1.4-0.2,1.8-0.5s0.7-0.8,0.7-1.4s-0.3-1.1-0.8-1.4
			s-1.3-0.5-2.2-0.5H429v-2.4h1.2c1.8,0,2.7-0.6,2.7-1.8c0-1.1-0.7-1.7-2.1-1.7c-0.9,0-1.8,0.3-2.7,0.9v-2.5c1-0.5,2.1-0.7,3.4-0.7
			c1.4,0,2.5,0.3,3.3,1s1.2,1.5,1.2,2.5c0,1.8-0.9,3-2.8,3.4l0,0c1,0.1,1.8,0.5,2.3,1.1s0.9,1.3,0.9,2.2c0,1.3-0.5,2.3-1.4,3.1
			s-2.3,1.1-4,1.1C429.6,450.9,428.4,450.7,427.5,450.2z"/>
		<path class="st5" d="M448.8,450.7h-3.1v-5.6c0-1.5-0.6-2.3-1.7-2.3c-0.5,0-1,0.2-1.3,0.6s-0.5,0.9-0.5,1.6v5.7h-3.1v-10h3.1v1.6
			l0,0c0.7-1.2,1.8-1.8,3.2-1.8c2.2,0,3.3,1.4,3.3,4.1v6.1H448.8z"/>
		<path class="st5" d="M452.7,443.8c-0.5,0-0.9-0.2-1.3-0.5s-0.5-0.7-0.5-1.1c0-0.5,0.2-0.9,0.5-1.2s0.8-0.4,1.3-0.4s1,0.2,1.3,0.5
			s0.5,0.7,0.5,1.1c0,0.5-0.2,0.9-0.5,1.2S453.2,443.8,452.7,443.8z M452.7,450.9c-0.5,0-0.9-0.2-1.3-0.5s-0.5-0.7-0.5-1.2
			s0.2-0.9,0.5-1.2s0.8-0.4,1.3-0.4s1,0.2,1.3,0.5s0.5,0.7,0.5,1.1c0,0.5-0.2,0.9-0.5,1.2S453.2,450.9,452.7,450.9z"/>
	</g>
	<g class="st6">
		<path class="st5" d="M317,472.3v-12.6h3.5c4.4,0,6.7,2,6.7,6.1c0,1.9-0.6,3.5-1.9,4.7c-1.2,1.2-2.9,1.8-5,1.8H317z M318.4,461v9.9
			h1.9c1.7,0,2.9-0.4,3.9-1.3s1.4-2.1,1.4-3.8c0-3.2-1.7-4.8-5.2-4.8L318.4,461L318.4,461z"/>
		<path class="st5" d="M330.1,461c-0.3,0-0.5-0.1-0.7-0.3s-0.3-0.4-0.3-0.7s0.1-0.5,0.3-0.7c0.2-0.2,0.4-0.3,0.7-0.3
			c0.3,0,0.5,0.1,0.7,0.3c0.2,0.2,0.3,0.4,0.3,0.7c0,0.3-0.1,0.5-0.3,0.7S330.4,461,330.1,461z M330.8,472.3h-1.4v-9h1.4V472.3z"/>
		<path class="st5" d="M340.8,463.3l-3.6,9h-1.4l-3.4-9h1.6l2.3,6.5c0.2,0.5,0.3,0.9,0.3,1.3l0,0c0.1-0.5,0.2-0.9,0.3-1.2l2.4-6.6
			L340.8,463.3L340.8,463.3z"/>
		<path class="st5" d="M343.1,461c-0.3,0-0.5-0.1-0.7-0.3s-0.3-0.4-0.3-0.7s0.1-0.5,0.3-0.7c0.2-0.2,0.4-0.3,0.7-0.3
			c0.3,0,0.5,0.1,0.7,0.3c0.2,0.2,0.3,0.4,0.3,0.7c0,0.3-0.1,0.5-0.3,0.7S343.4,461,343.1,461z M343.8,472.3h-1.4v-9h1.4V472.3z"/>
		<path class="st5" d="M346.2,472v-1.5c0.8,0.6,1.6,0.9,2.6,0.9c1.3,0,1.9-0.4,1.9-1.3c0-0.2-0.1-0.4-0.2-0.6s-0.3-0.3-0.4-0.4
			s-0.4-0.2-0.7-0.3c-0.2-0.1-0.5-0.2-0.8-0.3c-0.4-0.2-0.7-0.3-1.1-0.5c-0.3-0.2-0.6-0.3-0.8-0.5c-0.2-0.2-0.4-0.4-0.5-0.7
			s-0.2-0.6-0.2-0.9c0-0.4,0.1-0.8,0.3-1.1c0.2-0.3,0.5-0.6,0.8-0.8c0.3-0.2,0.7-0.4,1.1-0.5s0.8-0.2,1.3-0.2c0.8,0,1.5,0.1,2.1,0.4
			v1.5c-0.7-0.4-1.4-0.7-2.3-0.7c-0.3,0-0.5,0-0.7,0.1s-0.4,0.1-0.6,0.3s-0.3,0.2-0.4,0.4c-0.1,0.2-0.1,0.3-0.1,0.5s0,0.4,0.1,0.6
			s0.2,0.3,0.4,0.4s0.4,0.2,0.6,0.3s0.5,0.2,0.8,0.3c0.4,0.2,0.8,0.3,1.1,0.5c0.3,0.2,0.6,0.3,0.8,0.5c0.2,0.2,0.4,0.4,0.5,0.7
			s0.2,0.6,0.2,0.9c0,0.4-0.1,0.8-0.3,1.2s-0.5,0.6-0.8,0.8s-0.7,0.4-1.1,0.5s-0.9,0.2-1.3,0.2C347.7,472.5,346.9,472.3,346.2,472z"
			/>
		<path class="st5" d="M355.1,461c-0.3,0-0.5-0.1-0.7-0.3s-0.3-0.4-0.3-0.7s0.1-0.5,0.3-0.7c0.2-0.2,0.4-0.3,0.7-0.3
			c0.3,0,0.5,0.1,0.7,0.3c0.2,0.2,0.3,0.4,0.3,0.7c0,0.3-0.1,0.5-0.3,0.7S355.4,461,355.1,461z M355.8,472.3h-1.4v-9h1.4V472.3z"/>
		<path class="st5" d="M362.5,472.5c-1.3,0-2.4-0.4-3.2-1.3c-0.8-0.8-1.2-2-1.2-3.3c0-1.5,0.4-2.7,1.2-3.5s1.9-1.3,3.3-1.3
			c1.3,0,2.4,0.4,3.1,1.2s1.1,2,1.1,3.4s-0.4,2.6-1.2,3.4C364.9,472.1,363.8,472.5,362.5,472.5z M362.6,464.3
			c-0.9,0-1.7,0.3-2.2,0.9s-0.8,1.5-0.8,2.6s0.3,1.9,0.8,2.5s1.3,0.9,2.2,0.9c0.9,0,1.6-0.3,2.1-0.9s0.8-1.5,0.8-2.6s-0.3-2-0.8-2.6
			S363.5,464.3,362.6,464.3z M364.7,458.7l-2.3,2.9h-1.1l2-2.9H364.7z"/>
		<path class="st5" d="M376.7,472.3h-1.4v-5.1c0-1.9-0.7-2.9-2.1-2.9c-0.7,0-1.3,0.3-1.8,0.8s-0.7,1.2-0.7,2.1v5.1h-1.4v-9h1.4v1.5
			l0,0c0.7-1.1,1.7-1.7,3-1.7c1,0,1.7,0.3,2.3,1c0.5,0.6,0.8,1.6,0.8,2.8L376.7,472.3L376.7,472.3z"/>
		<path class="st5" d="M385.9,471L385.9,471v5.4h-1.4v-13.1h1.4v1.6l0,0c0.7-1.2,1.7-1.8,3.1-1.8c1.2,0,2.1,0.4,2.7,1.2
			c0.7,0.8,1,1.9,1,3.2c0,1.5-0.4,2.7-1.1,3.6s-1.7,1.4-3,1.4C387.4,472.5,386.5,472,385.9,471z M385.8,467.4v1.3
			c0,0.7,0.2,1.4,0.7,1.9s1.1,0.8,1.8,0.8c0.9,0,1.6-0.3,2.1-1s0.7-1.6,0.7-2.8c0-1-0.2-1.8-0.7-2.4s-1.1-0.9-1.9-0.9
			s-1.5,0.3-2,0.9C386.1,465.8,385.8,466.5,385.8,467.4z"/>
		<path class="st5" d="M401.4,472.3H400v-1.4l0,0c-0.6,1.1-1.5,1.6-2.8,1.6c-0.9,0-1.6-0.2-2.1-0.7s-0.8-1.1-0.8-1.9
			c0-1.7,1-2.7,3-2.9l2.7-0.4c0-1.5-0.6-2.3-1.9-2.3c-1.1,0-2.1,0.4-2.9,1.1v-1.5c0.9-0.6,1.9-0.8,3.1-0.8c2.1,0,3.2,1.1,3.2,3.4
			v5.8H401.4z M400,467.7l-2.2,0.3c-0.7,0.1-1.2,0.3-1.5,0.5s-0.5,0.7-0.5,1.3c0,0.4,0.2,0.8,0.5,1.1c0.3,0.3,0.7,0.4,1.3,0.4
			c0.7,0,1.3-0.2,1.8-0.8c0.5-0.5,0.7-1.1,0.7-1.9L400,467.7L400,467.7z"/>
	</g>
	<g class="st6">
		<path class="st5" d="M408.8,464.8c-0.3-0.2-0.6-0.3-1.1-0.3c-0.6,0-1.1,0.3-1.5,0.9s-0.6,1.4-0.6,2.4v4.6h-1.4v-9h1.4v1.9l0,0
			c0.2-0.6,0.5-1.1,0.9-1.5s0.9-0.5,1.4-0.5c0.4,0,0.7,0,0.9,0.1L408.8,464.8L408.8,464.8z"/>
	</g>
	<g class="st6">
		<path class="st5" d="M416.5,472.3H415v-1.4l0,0c-0.6,1.1-1.5,1.6-2.8,1.6c-0.9,0-1.6-0.2-2.1-0.7s-0.8-1.1-0.8-1.9
			c0-1.7,1-2.7,3-2.9l2.7-0.4c0-1.5-0.6-2.3-1.9-2.3c-1.1,0-2.1,0.4-2.9,1.1v-1.5c0.9-0.6,1.9-0.8,3.1-0.8c2.1,0,3.2,1.1,3.2,3.4
			L416.5,472.3L416.5,472.3z M415,467.7l-2.2,0.3c-0.7,0.1-1.2,0.3-1.5,0.5s-0.5,0.7-0.5,1.3c0,0.4,0.2,0.8,0.5,1.1
			c0.3,0.3,0.7,0.4,1.3,0.4c0.7,0,1.3-0.2,1.8-0.8c0.5-0.5,0.7-1.1,0.7-1.9L415,467.7L415,467.7z"/>
		<path class="st5" d="M425.6,472.3h-1.4V459h1.4V472.3z"/>
		<path class="st5" d="M432.2,472.5c-1.3,0-2.4-0.4-3.2-1.3c-0.8-0.8-1.2-2-1.2-3.3c0-1.5,0.4-2.7,1.2-3.5s1.9-1.3,3.3-1.3
			c1.3,0,2.4,0.4,3.1,1.2s1.1,2,1.1,3.4s-0.4,2.6-1.2,3.4C434.7,472.1,433.6,472.5,432.2,472.5z M432.3,464.3
			c-0.9,0-1.7,0.3-2.2,0.9s-0.8,1.5-0.8,2.6s0.3,1.9,0.8,2.5s1.3,0.9,2.2,0.9c0.9,0,1.6-0.3,2.1-0.9s0.8-1.5,0.8-2.6s-0.3-2-0.8-2.6
			S433.3,464.3,432.3,464.3z"/>
		<path class="st5" d="M438.5,472v-1.5c0.8,0.6,1.6,0.9,2.6,0.9c1.3,0,1.9-0.4,1.9-1.3c0-0.2-0.1-0.4-0.2-0.6s-0.3-0.3-0.4-0.4
			s-0.4-0.2-0.7-0.3c-0.2-0.1-0.5-0.2-0.8-0.3c-0.4-0.2-0.7-0.3-1.1-0.5c-0.3-0.2-0.6-0.3-0.8-0.5c-0.2-0.2-0.4-0.4-0.5-0.7
			s-0.2-0.6-0.2-0.9c0-0.4,0.1-0.8,0.3-1.1c0.2-0.3,0.5-0.6,0.8-0.8c0.3-0.2,0.7-0.4,1.1-0.5s0.8-0.2,1.3-0.2c0.8,0,1.5,0.1,2.1,0.4
			v1.5c-0.7-0.4-1.4-0.7-2.3-0.7c-0.3,0-0.5,0-0.7,0.1s-0.4,0.1-0.6,0.3s-0.3,0.2-0.4,0.4c-0.1,0.2-0.1,0.3-0.1,0.5s0,0.4,0.1,0.6
			s0.2,0.3,0.4,0.4s0.4,0.2,0.6,0.3s0.5,0.2,0.8,0.3c0.4,0.2,0.8,0.3,1.1,0.5c0.3,0.2,0.6,0.3,0.8,0.5c0.2,0.2,0.4,0.4,0.5,0.7
			s0.2,0.6,0.2,0.9c0,0.4-0.1,0.8-0.3,1.2s-0.5,0.6-0.8,0.8s-0.7,0.4-1.1,0.5s-0.9,0.2-1.3,0.2C440,472.5,439.1,472.3,438.5,472z"/>
	</g>
	<g class="st6">
		<path class="st5" d="M456.3,464.8c-0.3-0.2-0.6-0.3-1.1-0.3c-0.6,0-1.1,0.3-1.5,0.9s-0.6,1.4-0.6,2.4v4.6h-1.4v-9h1.4v1.9l0,0
			c0.2-0.6,0.5-1.1,0.9-1.5s0.9-0.5,1.4-0.5c0.4,0,0.7,0,0.9,0.1L456.3,464.8L456.3,464.8z"/>
	</g>
	<g class="st6">
		<path class="st5" d="M464.9,468.2h-6.4c0,1,0.3,1.8,0.8,2.3s1.2,0.8,2.1,0.8c1,0,1.9-0.3,2.8-1v1.4c-0.8,0.6-1.8,0.9-3.1,0.9
			c-1.3,0-2.3-0.4-3-1.2c-0.7-0.8-1.1-2-1.1-3.4s0.4-2.5,1.2-3.4c0.8-0.9,1.8-1.3,3-1.3s2.1,0.4,2.7,1.1s1,1.8,1,3.2V468.2z
			 M463.4,466.9c0-0.8-0.2-1.5-0.6-1.9s-0.9-0.7-1.6-0.7s-1.3,0.2-1.7,0.7s-0.8,1.1-0.9,1.9H463.4z"/>
		<path class="st5" d="M474.8,476.4h-1.4v-5.7l0,0c-0.6,1.2-1.7,1.8-3.1,1.8c-1.1,0-2-0.4-2.7-1.2c-0.7-0.8-1-1.9-1-3.3
			c0-1.5,0.4-2.7,1.1-3.6c0.8-0.9,1.8-1.3,3-1.3s2.1,0.5,2.7,1.5l0,0v-1.2h1.4V476.4z M473.3,468.2v-1.3c0-0.7-0.2-1.4-0.7-1.9
			s-1.1-0.8-1.8-0.8c-0.9,0-1.6,0.3-2.1,1c-0.5,0.6-0.8,1.5-0.8,2.7c0,1,0.2,1.8,0.7,2.4s1.1,0.9,1.9,0.9s1.5-0.3,2-0.9
			C473.1,469.9,473.3,469.1,473.3,468.2z"/>
		<path class="st5" d="M485,472.3h-1.4v-1.4l0,0c-0.6,1.1-1.5,1.6-2.8,1.6c-2.1,0-3.2-1.3-3.2-3.8v-5.4h1.4v5.2
			c0,1.9,0.7,2.8,2.2,2.8c0.7,0,1.3-0.3,1.7-0.8c0.5-0.5,0.7-1.2,0.7-2v-5.2h1.4L485,472.3L485,472.3z"/>
		<path class="st5" d="M488.6,461c-0.3,0-0.5-0.1-0.7-0.3s-0.3-0.4-0.3-0.7s0.1-0.5,0.3-0.7c0.2-0.2,0.4-0.3,0.7-0.3
			c0.3,0,0.5,0.1,0.7,0.3c0.2,0.2,0.3,0.4,0.3,0.7c0,0.3-0.1,0.5-0.3,0.7S488.9,461,488.6,461z M489.3,472.3h-1.4v-9h1.4V472.3z"/>
		<path class="st5" d="M491.7,472v-1.5c0.8,0.6,1.6,0.9,2.6,0.9c1.3,0,1.9-0.4,1.9-1.3c0-0.2-0.1-0.4-0.2-0.6s-0.3-0.3-0.4-0.4
			s-0.4-0.2-0.7-0.3c-0.2-0.1-0.5-0.2-0.8-0.3c-0.4-0.2-0.7-0.3-1-0.5s-0.6-0.3-0.8-0.5c-0.2-0.2-0.4-0.4-0.5-0.7s-0.2-0.6-0.2-0.9
			c0-0.4,0.1-0.8,0.3-1.1c0.2-0.3,0.5-0.6,0.8-0.8c0.3-0.2,0.7-0.4,1.1-0.5s0.8-0.2,1.3-0.2c0.8,0,1.5,0.1,2.1,0.4v1.5
			c-0.7-0.4-1.4-0.7-2.3-0.7c-0.3,0-0.5,0-0.7,0.1s-0.4,0.1-0.6,0.3s-0.3,0.2-0.4,0.4c-0.1,0.2-0.1,0.3-0.1,0.5s0,0.4,0.1,0.6
			s0.2,0.3,0.4,0.4s0.4,0.2,0.6,0.3s0.5,0.2,0.8,0.3c0.4,0.2,0.8,0.3,1.1,0.5c0.3,0.2,0.6,0.3,0.8,0.5c0.2,0.2,0.4,0.4,0.5,0.7
			s0.2,0.6,0.2,0.9c0,0.4-0.1,0.8-0.3,1.2s-0.5,0.6-0.8,0.8s-0.7,0.4-1.1,0.5s-0.9,0.2-1.3,0.2C493.2,472.5,492.4,472.3,491.7,472z"
			/>
		<path class="st5" d="M500.6,461c-0.3,0-0.5-0.1-0.7-0.3s-0.3-0.4-0.3-0.7s0.1-0.5,0.3-0.7c0.2-0.2,0.4-0.3,0.7-0.3
			c0.3,0,0.5,0.1,0.7,0.3c0.2,0.2,0.3,0.4,0.3,0.7c0,0.3-0.1,0.5-0.3,0.7S500.9,461,500.6,461z M501.3,472.3h-1.4v-9h1.4V472.3z"/>
	</g>
	<g class="st6">
		<path class="st5" d="M508.4,472.2c-0.3,0.2-0.8,0.3-1.3,0.3c-1.6,0-2.4-0.9-2.4-2.6v-5.3h-1.5v-1.2h1.5v-2.2l1.4-0.5v2.7h2.3v1.2
			h-2.3v5.1c0,0.6,0.1,1,0.3,1.3s0.5,0.4,1,0.4c0.4,0,0.7-0.1,0.9-0.3v1.1H508.4z"/>
	</g>
	<g class="st6">
		<path class="st5" d="M513.9,472.5c-1.3,0-2.4-0.4-3.2-1.3c-0.8-0.8-1.2-2-1.2-3.3c0-1.5,0.4-2.7,1.2-3.5s1.9-1.3,3.3-1.3
			c1.3,0,2.4,0.4,3.1,1.2s1.1,2,1.1,3.4s-0.4,2.6-1.2,3.4C516.4,472.1,515.3,472.5,513.9,472.5z M514,464.3c-0.9,0-1.7,0.3-2.2,0.9
			s-0.8,1.5-0.8,2.6s0.3,1.9,0.8,2.5s1.3,0.9,2.2,0.9s1.6-0.3,2.1-0.9s0.8-1.5,0.8-2.6s-0.3-2-0.8-2.6S514.9,464.3,514,464.3z"/>
		<path class="st5" d="M520.1,472v-1.5c0.8,0.6,1.6,0.9,2.6,0.9c1.3,0,1.9-0.4,1.9-1.3c0-0.2-0.1-0.4-0.2-0.6
			c-0.1-0.2-0.3-0.3-0.4-0.4s-0.4-0.2-0.7-0.3c-0.2-0.1-0.5-0.2-0.8-0.3c-0.4-0.2-0.7-0.3-1.1-0.5c-0.3-0.2-0.6-0.3-0.8-0.5
			s-0.4-0.4-0.5-0.7s-0.2-0.6-0.2-0.9c0-0.4,0.1-0.8,0.3-1.1c0.2-0.3,0.5-0.6,0.8-0.8c0.3-0.2,0.7-0.4,1.1-0.5s0.8-0.2,1.3-0.2
			c0.8,0,1.5,0.1,2.1,0.4v1.5c-0.7-0.4-1.4-0.7-2.3-0.7c-0.3,0-0.5,0-0.7,0.1s-0.4,0.1-0.6,0.3s-0.3,0.2-0.4,0.4
			c-0.1,0.2-0.1,0.3-0.1,0.5s0,0.4,0.1,0.6s0.2,0.3,0.4,0.4s0.4,0.2,0.6,0.3s0.5,0.2,0.8,0.3c0.4,0.2,0.8,0.3,1.1,0.5
			s0.6,0.3,0.8,0.5s0.4,0.4,0.5,0.7s0.2,0.6,0.2,0.9c0,0.4-0.1,0.8-0.3,1.2s-0.5,0.6-0.8,0.8s-0.7,0.4-1.1,0.5s-0.9,0.2-1.3,0.2
			C521.6,472.5,520.8,472.3,520.1,472z"/>
		<path class="st5" d="M540.9,472.3h-1.4v-1.5l0,0c-0.7,1.2-1.7,1.7-3.1,1.7c-1.1,0-2-0.4-2.7-1.2c-0.7-0.8-1-1.9-1-3.3
			c0-1.5,0.4-2.7,1.1-3.6s1.7-1.3,3-1.3c1.2,0,2.1,0.5,2.7,1.5l0,0V459h1.4V472.3z M539.5,468.2v-1.3c0-0.7-0.2-1.3-0.7-1.8
			s-1.1-0.8-1.8-0.8c-0.9,0-1.6,0.3-2.1,1s-0.8,1.5-0.8,2.7c0,1,0.2,1.9,0.7,2.5s1.1,0.9,1.9,0.9c0.8,0,1.5-0.3,2-0.9
			S539.5,469.1,539.5,468.2z"/>
		<path class="st5" d="M551.1,468.2h-6.4c0,1,0.3,1.8,0.8,2.3s1.2,0.8,2.1,0.8c1,0,1.9-0.3,2.8-1v1.4c-0.8,0.6-1.8,0.9-3.1,0.9
			s-2.3-0.4-3-1.2c-0.7-0.8-1.1-2-1.1-3.4s0.4-2.5,1.2-3.4s1.8-1.3,3-1.3s2.1,0.4,2.7,1.1s1,1.8,1,3.2V468.2z M549.6,466.9
			c0-0.8-0.2-1.5-0.6-1.9s-0.9-0.7-1.6-0.7c-0.7,0-1.3,0.2-1.7,0.7s-0.8,1.1-0.9,1.9H549.6z"/>
		<path class="st5" d="M559.6,472.3h-1.4V459h1.4V472.3z"/>
		<path class="st5" d="M569,472.3h-1.4v-1.4l0,0c-0.6,1.1-1.5,1.6-2.8,1.6c-0.9,0-1.6-0.2-2.1-0.7s-0.8-1.1-0.8-1.9
			c0-1.7,1-2.7,3-2.9l2.7-0.4c0-1.5-0.6-2.3-1.9-2.3c-1.1,0-2.1,0.4-2.9,1.1v-1.5c0.9-0.6,1.9-0.8,3.1-0.8c2.1,0,3.2,1.1,3.2,3.4
			L569,472.3L569,472.3z M567.6,467.7l-2.2,0.3c-0.7,0.1-1.2,0.3-1.5,0.5s-0.5,0.7-0.5,1.3c0,0.4,0.2,0.8,0.5,1.1
			c0.3,0.3,0.7,0.4,1.3,0.4c0.7,0,1.3-0.2,1.8-0.8c0.5-0.5,0.7-1.1,0.7-1.9L567.6,467.7L567.6,467.7z"/>
	</g>
	<g class="st6">
		<path class="st5" d="M322.9,493.5c-0.7,0.4-1.5,0.6-2.5,0.6c-1.3,0-2.3-0.4-3.1-1.3c-0.8-0.8-1.2-1.9-1.2-3.2
			c0-1.5,0.4-2.7,1.3-3.6s2-1.3,3.4-1.3c0.8,0,1.5,0.1,2.1,0.4v1.5c-0.7-0.5-1.4-0.7-2.1-0.7c-0.9,0-1.7,0.3-2.3,1
			c-0.6,0.7-0.9,1.5-0.9,2.6s0.3,1.9,0.8,2.5s1.3,0.9,2.2,0.9c0.8,0,1.5-0.3,2.2-0.8v1.4H322.9z"/>
		<path class="st5" d="M331.5,493.9h-1.4v-1.4l0,0c-0.6,1.1-1.5,1.6-2.8,1.6c-0.9,0-1.6-0.2-2.1-0.7s-0.8-1.1-0.8-1.9
			c0-1.7,1-2.7,3-2.9l2.7-0.4c0-1.5-0.6-2.3-1.9-2.3c-1.1,0-2.1,0.4-2.9,1.1v-1.5c0.9-0.6,1.9-0.8,3.1-0.8c2.1,0,3.2,1.1,3.2,3.4
			v5.8H331.5z M330.1,489.3l-2.2,0.3c-0.7,0.1-1.2,0.3-1.5,0.5s-0.5,0.7-0.5,1.3c0,0.4,0.2,0.8,0.5,1.1c0.3,0.3,0.7,0.4,1.3,0.4
			c0.7,0,1.3-0.2,1.8-0.8c0.5-0.5,0.7-1.1,0.7-1.9L330.1,489.3L330.1,489.3z"/>
		<path class="st5" d="M335.7,493.9h-1.4v-13.3h1.4V493.9z"/>
		<path class="st5" d="M339.3,482.6c-0.3,0-0.5-0.1-0.7-0.3s-0.3-0.4-0.3-0.7s0.1-0.5,0.3-0.7s0.4-0.3,0.7-0.3
			c0.3,0,0.5,0.1,0.7,0.3s0.3,0.4,0.3,0.7c0,0.3-0.1,0.5-0.3,0.7S339.6,482.6,339.3,482.6z M340,493.9h-1.4v-9h1.4V493.9z"/>
		<path class="st5" d="M350.6,493.9h-1.4v-1.5l0,0c-0.7,1.2-1.7,1.7-3.1,1.7c-1.1,0-2-0.4-2.7-1.2c-0.7-0.8-1-1.9-1-3.3
			c0-1.5,0.4-2.7,1.1-3.6s1.7-1.3,3-1.3c1.2,0,2.1,0.5,2.7,1.5l0,0v-5.6h1.4V493.9z M349.2,489.8v-1.3c0-0.7-0.2-1.3-0.7-1.8
			s-1.1-0.8-1.8-0.8c-0.9,0-1.6,0.3-2.1,1s-0.8,1.5-0.8,2.7c0,1,0.2,1.9,0.7,2.5s1.1,0.9,1.9,0.9s1.5-0.3,2-0.9
			S349.2,490.7,349.2,489.8z"/>
		<path class="st5" d="M360,493.9h-1.4v-1.4l0,0c-0.6,1.1-1.5,1.6-2.8,1.6c-0.9,0-1.6-0.2-2.1-0.7s-0.8-1.1-0.8-1.9
			c0-1.7,1-2.7,3-2.9l2.7-0.4c0-1.5-0.6-2.3-1.9-2.3c-1.1,0-2.1,0.4-2.9,1.1v-1.5c0.9-0.6,1.9-0.8,3.1-0.8c2.1,0,3.2,1.1,3.2,3.4
			v5.8H360z M358.6,489.3l-2.2,0.3c-0.7,0.1-1.2,0.3-1.5,0.5s-0.5,0.7-0.5,1.3c0,0.4,0.2,0.8,0.5,1.1c0.3,0.3,0.7,0.4,1.3,0.4
			c0.7,0,1.3-0.2,1.8-0.8c0.5-0.5,0.7-1.1,0.7-1.9L358.6,489.3L358.6,489.3z"/>
		<path class="st5" d="M370.4,493.9H369v-1.5l0,0c-0.7,1.2-1.7,1.7-3.1,1.7c-1.1,0-2-0.4-2.7-1.2c-0.7-0.8-1-1.9-1-3.3
			c0-1.5,0.4-2.7,1.1-3.6s1.7-1.3,3-1.3c1.2,0,2.1,0.5,2.7,1.5l0,0v-5.6h1.4V493.9z M368.9,489.8v-1.3c0-0.7-0.2-1.3-0.7-1.8
			s-1.1-0.8-1.8-0.8c-0.9,0-1.6,0.3-2.1,1s-0.8,1.5-0.8,2.7c0,1,0.2,1.9,0.7,2.5s1.1,0.9,1.9,0.9s1.5-0.3,2-0.9
			S368.9,490.7,368.9,489.8z"/>
	</g>
	<g class="st6">
		<path class="st5" d="M658.6,450.7h-3.2v-14h3.2V450.7z"/>
		<path class="st5" d="M661.1,450.2V447c0.6,0.5,1.2,0.8,1.8,1.1s1.3,0.4,2,0.4c0.4,0,0.7,0,1-0.1s0.5-0.2,0.7-0.3
			c0.2-0.1,0.3-0.3,0.4-0.4s0.1-0.4,0.1-0.6c0-0.3-0.1-0.5-0.2-0.7s-0.4-0.4-0.6-0.6c-0.3-0.2-0.6-0.4-1-0.5s-0.8-0.3-1.2-0.5
			c-1.1-0.5-1.9-1-2.4-1.7s-0.8-1.5-0.8-2.4c0-0.7,0.1-1.4,0.4-1.9s0.7-1,1.2-1.3s1.1-0.6,1.8-0.7s1.4-0.2,2.1-0.2
			c0.7,0,1.4,0,1.9,0.1c0.6,0.1,1.1,0.2,1.6,0.4v2.9c-0.2-0.2-0.5-0.3-0.8-0.4s-0.6-0.2-0.9-0.3s-0.6-0.1-0.9-0.2
			c-0.3,0-0.6-0.1-0.8-0.1c-0.4,0-0.7,0-1,0.1s-0.5,0.2-0.7,0.3c-0.2,0.1-0.4,0.3-0.5,0.4c-0.1,0.2-0.2,0.4-0.2,0.6s0.1,0.4,0.2,0.6
			c0.1,0.2,0.3,0.4,0.5,0.5c0.2,0.2,0.5,0.3,0.8,0.5s0.7,0.3,1.1,0.5c0.6,0.2,1.1,0.5,1.5,0.7c0.4,0.3,0.8,0.6,1.1,0.9
			s0.6,0.7,0.7,1.1c0.2,0.4,0.3,0.9,0.3,1.5c0,0.8-0.1,1.4-0.4,2c-0.3,0.5-0.7,1-1.2,1.3s-1.1,0.6-1.8,0.7s-1.4,0.2-2.1,0.2
			c-0.8,0-1.5-0.1-2.2-0.2S661.6,450.4,661.1,450.2z"/>
		<path class="st5" d="M678.9,450.9c-2,0-3.6-0.7-4.9-2c-1.3-1.3-1.9-3-1.9-5.1c0-2.2,0.6-4,1.9-5.4c1.3-1.4,3-2.1,5.1-2.1
			c2,0,3.6,0.7,4.8,2s1.9,3,1.9,5.2s-0.6,4-1.9,5.3S680.9,450.9,678.9,450.9z M679,439.2c-1.1,0-2,0.4-2.6,1.2c-0.7,0.8-1,1.9-1,3.3
			s0.3,2.5,1,3.3s1.5,1.2,2.6,1.2s2-0.4,2.6-1.2c0.6-0.8,1-1.9,1-3.3c0-1.5-0.3-2.6-0.9-3.4C680.9,439.6,680.1,439.2,679,439.2z"/>
		<path class="st5" d="M695.6,436.7l-6.8,16.3H686l6.8-16.3H695.6z"/>
		<path class="st5" d="M700.1,450.7H697v-14h3.2v14H700.1z"/>
		<path class="st5" d="M711.7,450.7h-8.4v-14h8.1v2.6h-4.9v3.1h4.6v2.6h-4.6v3.2h5.2L711.7,450.7L711.7,450.7z"/>
		<path class="st5" d="M724,450.2c-1,0.5-2.4,0.7-4,0.7c-2.1,0-3.8-0.6-5.1-1.9s-1.8-2.9-1.8-5c0-2.2,0.7-4.1,2.1-5.4
			c1.4-1.4,3.2-2.1,5.4-2.1c1.4,0,2.5,0.2,3.5,0.5v3c-0.9-0.6-2-0.8-3.2-0.8c-1.3,0-2.4,0.4-3.2,1.2c-0.8,0.8-1.2,1.9-1.2,3.4
			c0,1.4,0.4,2.4,1.1,3.2s1.8,1.2,3.1,1.2c1.2,0,2.4-0.3,3.4-0.9L724,450.2L724,450.2z"/>
		<path class="st5" d="M734.6,448.1h5.9v2.6h-9.3v-1.1c0-0.7,0.1-1.4,0.4-1.9c0.2-0.6,0.5-1.1,0.9-1.5c0.4-0.5,0.8-0.9,1.2-1.2
			c0.4-0.3,0.8-0.7,1.2-0.9c0.4-0.3,0.8-0.6,1.1-0.8c0.3-0.3,0.6-0.5,0.8-0.8s0.4-0.5,0.5-0.8s0.2-0.6,0.2-0.9
			c0-0.6-0.2-1.1-0.5-1.4s-0.9-0.5-1.6-0.5c-1.2,0-2.4,0.5-3.5,1.4v-2.7c1.2-0.8,2.6-1.2,4.1-1.2c0.7,0,1.3,0.1,1.9,0.3
			c0.6,0.2,1,0.5,1.4,0.8s0.7,0.8,0.9,1.3s0.3,1,0.3,1.6s-0.1,1.2-0.3,1.7s-0.5,1-0.8,1.4s-0.7,0.8-1.1,1.1s-0.9,0.7-1.3,1
			c-0.3,0.2-0.6,0.4-0.9,0.7c-0.3,0.2-0.5,0.4-0.8,0.6c-0.2,0.2-0.4,0.4-0.5,0.6C734.6,447.8,734.6,448,734.6,448.1z"/>
		<path class="st5" d="M743.3,450.3v-2.6c1,0.6,2,0.9,3.1,0.9c0.8,0,1.5-0.2,1.9-0.6s0.7-0.9,0.7-1.6c0-1.4-1-2.1-2.9-2.1
			c-0.7,0-1.6,0.1-2.5,0.2l0.5-7.8h7.4v2.5h-5.1l-0.2,2.8c0.5,0,0.9-0.1,1.3-0.1c1.4,0,2.6,0.4,3.4,1.1c0.8,0.8,1.2,1.8,1.2,3
			c0,1.4-0.5,2.6-1.5,3.5s-2.3,1.3-3.9,1.3C745.3,450.9,744.2,450.7,743.3,450.3z"/>
		<path class="st5" d="M759.1,450.9c-3.3,0-5-2.3-5-7c0-2.4,0.5-4.3,1.4-5.6c0.9-1.3,2.2-1.9,3.9-1.9c3.3,0,4.9,2.4,4.9,7.1
			c0,2.4-0.4,4.2-1.3,5.4S760.7,450.9,759.1,450.9z M759.2,438.8c-1.3,0-2,1.7-2,5c0,3.2,0.7,4.7,2,4.7s1.9-1.6,1.9-4.9
			S760.4,438.8,759.2,438.8z"/>
		<path class="st5" d="M774.2,436.7v8.8h1.7v2.3h-1.7v2.9h-2.8v-2.9h-6.1v-2.4c0.5-0.6,1.1-1.3,1.7-2c0.6-0.7,1.1-1.5,1.7-2.2
			c0.5-0.8,1-1.5,1.5-2.3s0.9-1.5,1.2-2.2L774.2,436.7L774.2,436.7z M768,445.5h3.3v-4.9c-0.2,0.4-0.5,0.9-0.7,1.3
			c-0.3,0.4-0.5,0.9-0.8,1.3s-0.6,0.8-0.9,1.2C768.6,444.8,768.3,445.2,768,445.5z"/>
		<path class="st5" d="M787.3,450.7h-3.1v-5.6c0-1.5-0.6-2.3-1.7-2.3c-0.5,0-1,0.2-1.3,0.6s-0.5,0.9-0.5,1.6v5.7h-3.1v-10h3.1v1.6
			l0,0c0.7-1.2,1.8-1.8,3.2-1.8c2.2,0,3.3,1.4,3.3,4.1L787.3,450.7L787.3,450.7z"/>
		<path class="st5" d="M791.2,443.8c-0.5,0-0.9-0.2-1.3-0.5c-0.3-0.3-0.5-0.7-0.5-1.1c0-0.5,0.2-0.9,0.5-1.2
			c0.3-0.3,0.8-0.4,1.3-0.4s1,0.2,1.3,0.5s0.5,0.7,0.5,1.1c0,0.5-0.2,0.9-0.5,1.2S791.7,443.8,791.2,443.8z M791.2,450.9
			c-0.5,0-0.9-0.2-1.3-0.5c-0.3-0.3-0.5-0.7-0.5-1.2s0.2-0.9,0.5-1.2c0.3-0.3,0.8-0.4,1.3-0.4s1,0.2,1.3,0.5s0.5,0.7,0.5,1.1
			c0,0.5-0.2,0.9-0.5,1.2S791.7,450.9,791.2,450.9z"/>
	</g>
	<g class="st6">
		<path class="st5" d="M655.5,472.3v-12.6h3.5c4.4,0,6.7,2,6.7,6.1c0,1.9-0.6,3.5-1.8,4.7s-2.9,1.8-5,1.8H655.5z M656.9,461v9.9h1.9
			c1.7,0,2.9-0.4,3.9-1.3s1.4-2.1,1.4-3.8c0-3.2-1.7-4.8-5.2-4.8L656.9,461L656.9,461z"/>
		<path class="st5" d="M668.6,461c-0.3,0-0.5-0.1-0.7-0.3s-0.3-0.4-0.3-0.7s0.1-0.5,0.3-0.7s0.4-0.3,0.7-0.3s0.5,0.1,0.7,0.3
			c0.2,0.2,0.3,0.4,0.3,0.7c0,0.3-0.1,0.5-0.3,0.7S668.9,461,668.6,461z M669.3,472.3h-1.4v-9h1.4V472.3z"/>
		<path class="st5" d="M679.3,463.3l-3.6,9h-1.4l-3.4-9h1.6l2.3,6.5c0.2,0.5,0.3,0.9,0.3,1.3l0,0c0.1-0.5,0.2-0.9,0.3-1.2l2.4-6.6
			L679.3,463.3L679.3,463.3z"/>
		<path class="st5" d="M681.6,461c-0.3,0-0.5-0.1-0.7-0.3s-0.3-0.4-0.3-0.7s0.1-0.5,0.3-0.7s0.4-0.3,0.7-0.3s0.5,0.1,0.7,0.3
			c0.2,0.2,0.3,0.4,0.3,0.7c0,0.3-0.1,0.5-0.3,0.7S681.9,461,681.6,461z M682.3,472.3h-1.4v-9h1.4V472.3z"/>
		<path class="st5" d="M684.7,472v-1.5c0.8,0.6,1.6,0.9,2.6,0.9c1.3,0,1.9-0.4,1.9-1.3c0-0.2-0.1-0.4-0.2-0.6
			c-0.1-0.2-0.3-0.3-0.4-0.4s-0.4-0.2-0.7-0.3c-0.2-0.1-0.5-0.2-0.8-0.3c-0.4-0.2-0.7-0.3-1-0.5s-0.6-0.3-0.8-0.5s-0.4-0.4-0.5-0.7
			s-0.2-0.6-0.2-0.9c0-0.4,0.1-0.8,0.3-1.1c0.2-0.3,0.5-0.6,0.8-0.8c0.3-0.2,0.7-0.4,1.1-0.5s0.8-0.2,1.3-0.2c0.8,0,1.5,0.1,2.1,0.4
			v1.5c-0.7-0.4-1.4-0.7-2.3-0.7c-0.3,0-0.5,0-0.7,0.1s-0.4,0.1-0.6,0.3s-0.3,0.2-0.4,0.4c-0.1,0.2-0.1,0.3-0.1,0.5s0,0.4,0.1,0.6
			s0.2,0.3,0.4,0.4s0.4,0.2,0.6,0.3s0.5,0.2,0.8,0.3c0.4,0.2,0.8,0.3,1.1,0.5s0.6,0.3,0.8,0.5s0.4,0.4,0.5,0.7s0.2,0.6,0.2,0.9
			c0,0.4-0.1,0.8-0.3,1.2s-0.5,0.6-0.8,0.8s-0.7,0.4-1.1,0.5s-0.9,0.2-1.3,0.2C686.2,472.5,685.4,472.3,684.7,472z"/>
		<path class="st5" d="M693.6,461c-0.3,0-0.5-0.1-0.7-0.3s-0.3-0.4-0.3-0.7s0.1-0.5,0.3-0.7s0.4-0.3,0.7-0.3s0.5,0.1,0.7,0.3
			c0.2,0.2,0.3,0.4,0.3,0.7c0,0.3-0.1,0.5-0.3,0.7S693.9,461,693.6,461z M694.3,472.3h-1.4v-9h1.4V472.3z"/>
		<path class="st5" d="M701,472.5c-1.3,0-2.4-0.4-3.2-1.3c-0.8-0.8-1.2-2-1.2-3.3c0-1.5,0.4-2.7,1.2-3.5s1.9-1.3,3.3-1.3
			c1.3,0,2.4,0.4,3.1,1.2s1.1,2,1.1,3.4s-0.4,2.6-1.2,3.4C703.4,472.1,702.4,472.5,701,472.5z M701.1,464.3c-0.9,0-1.7,0.3-2.2,0.9
			s-0.8,1.5-0.8,2.6s0.3,1.9,0.8,2.5s1.3,0.9,2.2,0.9s1.6-0.3,2.1-0.9s0.8-1.5,0.8-2.6s-0.2-2-0.8-2.6S702,464.3,701.1,464.3z
			 M703.2,458.7l-2.3,2.9h-1.1l2-2.9H703.2z"/>
		<path class="st5" d="M715.2,472.3h-1.4v-5.1c0-1.9-0.7-2.9-2.1-2.9c-0.7,0-1.3,0.3-1.8,0.8s-0.7,1.2-0.7,2.1v5.1h-1.4v-9h1.4v1.5
			l0,0c0.7-1.1,1.7-1.7,3-1.7c1,0,1.7,0.3,2.3,1c0.5,0.6,0.8,1.6,0.8,2.8L715.2,472.3L715.2,472.3z"/>
		<path class="st5" d="M724.4,471L724.4,471v5.4H723v-13.1h1.4v1.6l0,0c0.7-1.2,1.7-1.8,3.1-1.8c1.2,0,2.1,0.4,2.7,1.2
			c0.7,0.8,1,1.9,1,3.2c0,1.5-0.4,2.7-1.1,3.6c-0.7,0.9-1.7,1.4-3,1.4C725.9,472.5,725,472,724.4,471z M724.3,467.4v1.3
			c0,0.7,0.2,1.4,0.7,1.9s1.1,0.8,1.8,0.8c0.9,0,1.6-0.3,2.1-1s0.7-1.6,0.7-2.8c0-1-0.2-1.8-0.7-2.4s-1.1-0.9-1.9-0.9
			c-0.8,0-1.5,0.3-2,0.9C724.6,465.8,724.3,466.5,724.3,467.4z"/>
		<path class="st5" d="M739.9,472.3h-1.4v-1.4l0,0c-0.6,1.1-1.5,1.6-2.8,1.6c-0.9,0-1.6-0.2-2.1-0.7s-0.8-1.1-0.8-1.9
			c0-1.7,1-2.7,3-2.9l2.7-0.4c0-1.5-0.6-2.3-1.9-2.3c-1.1,0-2.1,0.4-2.9,1.1v-1.5c0.9-0.6,1.9-0.8,3.1-0.8c2.1,0,3.2,1.1,3.2,3.4
			L739.9,472.3L739.9,472.3z M738.5,467.7l-2.2,0.3c-0.7,0.1-1.2,0.3-1.5,0.5s-0.5,0.7-0.5,1.3c0,0.4,0.2,0.8,0.5,1.1
			c0.3,0.3,0.7,0.4,1.3,0.4c0.7,0,1.3-0.2,1.8-0.8c0.5-0.5,0.7-1.1,0.7-1.9L738.5,467.7L738.5,467.7z"/>
	</g>
	<g class="st6">
		<path class="st5" d="M747.3,464.8c-0.3-0.2-0.6-0.3-1.1-0.3c-0.6,0-1.1,0.3-1.5,0.9s-0.6,1.4-0.6,2.4v4.6h-1.4v-9h1.4v1.9l0,0
			c0.2-0.6,0.5-1.1,0.9-1.5s0.9-0.5,1.4-0.5c0.4,0,0.7,0,0.9,0.1L747.3,464.8L747.3,464.8z"/>
	</g>
	<g class="st6">
		<path class="st5" d="M755,472.3h-1.4v-1.4l0,0c-0.6,1.1-1.5,1.6-2.8,1.6c-0.9,0-1.6-0.2-2.1-0.7s-0.8-1.1-0.8-1.9
			c0-1.7,1-2.7,3-2.9l2.7-0.4c0-1.5-0.6-2.3-1.9-2.3c-1.1,0-2.1,0.4-2.9,1.1v-1.5c0.9-0.6,1.9-0.8,3.1-0.8c2.1,0,3.2,1.1,3.2,3.4
			L755,472.3L755,472.3z M753.5,467.7l-2.2,0.3c-0.7,0.1-1.2,0.3-1.5,0.5s-0.5,0.7-0.5,1.3c0,0.4,0.2,0.8,0.5,1.1
			c0.3,0.3,0.7,0.4,1.3,0.4c0.7,0,1.3-0.2,1.8-0.8c0.5-0.5,0.7-1.1,0.7-1.9L753.5,467.7L753.5,467.7z"/>
		<path class="st5" d="M764.1,472.3h-1.4V459h1.4V472.3z"/>
		<path class="st5" d="M773.4,472.3H772v-1.4l0,0c-0.6,1.1-1.5,1.6-2.8,1.6c-0.9,0-1.6-0.2-2.1-0.7s-0.8-1.1-0.8-1.9
			c0-1.7,1-2.7,3-2.9l2.7-0.4c0-1.5-0.6-2.3-1.9-2.3c-1.1,0-2.1,0.4-2.9,1.1v-1.5c0.9-0.6,1.9-0.8,3.1-0.8c2.1,0,3.2,1.1,3.2,3.4
			L773.4,472.3L773.4,472.3z M772,467.7l-2.2,0.3c-0.7,0.1-1.2,0.3-1.5,0.5s-0.5,0.7-0.5,1.3c0,0.4,0.2,0.8,0.5,1.1
			c0.3,0.3,0.7,0.4,1.3,0.4c0.7,0,1.3-0.2,1.8-0.8c0.5-0.5,0.7-1.1,0.7-1.9L772,467.7L772,467.7z"/>
	</g>
	<g class="st6">
		<path class="st5" d="M788.3,468.2h-6.4c0,1,0.3,1.8,0.8,2.3s1.2,0.8,2.1,0.8c1,0,1.9-0.3,2.8-1v1.4c-0.8,0.6-1.8,0.9-3.1,0.9
			s-2.3-0.4-3-1.2c-0.7-0.8-1.1-2-1.1-3.4s0.4-2.5,1.2-3.4s1.8-1.3,3-1.3s2.1,0.4,2.7,1.1s1,1.8,1,3.2V468.2z M786.8,466.9
			c0-0.8-0.2-1.5-0.6-1.9s-0.9-0.7-1.6-0.7c-0.7,0-1.3,0.2-1.7,0.7s-0.8,1.1-0.9,1.9H786.8z"/>
		<path class="st5" d="M797.4,463.3l-3.6,9h-1.4l-3.4-9h1.6l2.3,6.5c0.2,0.5,0.3,0.9,0.3,1.3l0,0c0.1-0.5,0.2-0.9,0.3-1.2l2.4-6.6
			L797.4,463.3L797.4,463.3z"/>
	</g>
	<g class="st6">
		<path class="st5" d="M805.2,472.3h-1.4v-1.4l0,0c-0.6,1.1-1.5,1.6-2.8,1.6c-0.9,0-1.6-0.2-2.1-0.7s-0.8-1.1-0.8-1.9
			c0-1.7,1-2.7,3-2.9l2.7-0.4c0-1.5-0.6-2.3-1.9-2.3c-1.1,0-2.1,0.4-2.9,1.1v-1.5c0.9-0.6,1.9-0.8,3.1-0.8c2.1,0,3.2,1.1,3.2,3.4
			L805.2,472.3L805.2,472.3z M803.7,467.7l-2.2,0.3c-0.7,0.1-1.2,0.3-1.5,0.5s-0.5,0.7-0.5,1.3c0,0.4,0.2,0.8,0.5,1.1
			c0.3,0.3,0.7,0.4,1.3,0.4c0.7,0,1.3-0.2,1.8-0.8c0.5-0.5,0.7-1.1,0.7-1.9L803.7,467.7L803.7,467.7z"/>
		<path class="st5" d="M809.3,472.3h-1.4V459h1.4V472.3z"/>
		<path class="st5" d="M819.5,472.3h-1.4v-1.4l0,0c-0.6,1.1-1.5,1.6-2.8,1.6c-2.1,0-3.2-1.3-3.2-3.8v-5.4h1.4v5.2
			c0,1.9,0.7,2.8,2.2,2.8c0.7,0,1.3-0.3,1.7-0.8c0.5-0.5,0.7-1.2,0.7-2v-5.2h1.4L819.5,472.3L819.5,472.3z"/>
		<path class="st5" d="M828.9,472.3h-1.4v-1.4l0,0c-0.6,1.1-1.5,1.6-2.8,1.6c-0.9,0-1.6-0.2-2.1-0.7s-0.8-1.1-0.8-1.9
			c0-1.7,1-2.7,3-2.9l2.7-0.4c0-1.5-0.6-2.3-1.9-2.3c-1.1,0-2.1,0.4-2.9,1.1v-1.5c0.9-0.6,1.9-0.8,3.1-0.8c2.1,0,3.2,1.1,3.2,3.4
			L828.9,472.3L828.9,472.3z M827.4,467.7l-2.2,0.3c-0.7,0.1-1.2,0.3-1.5,0.5s-0.5,0.7-0.5,1.3c0,0.4,0.2,0.8,0.5,1.1
			c0.3,0.3,0.7,0.4,1.3,0.4c0.7,0,1.3-0.2,1.8-0.8c0.5-0.5,0.7-1.1,0.7-1.9L827.4,467.7L827.4,467.7z"/>
		<path class="st5" d="M837.7,471.9c-0.7,0.4-1.5,0.6-2.5,0.6c-1.3,0-2.3-0.4-3.1-1.3c-0.8-0.8-1.2-1.9-1.2-3.2
			c0-1.5,0.4-2.7,1.3-3.6c0.8-0.9,2-1.3,3.4-1.3c0.8,0,1.5,0.1,2.1,0.4v1.5c-0.7-0.5-1.4-0.7-2.1-0.7c-0.9,0-1.7,0.3-2.3,1
			s-0.9,1.5-0.9,2.6s0.3,1.9,0.8,2.5s1.3,0.9,2.2,0.9c0.8,0,1.5-0.3,2.2-0.8L837.7,471.9L837.7,471.9z"/>
		<path class="st5" d="M840.7,461c-0.3,0-0.5-0.1-0.7-0.3s-0.3-0.4-0.3-0.7s0.1-0.5,0.3-0.7s0.4-0.3,0.7-0.3s0.5,0.1,0.7,0.3
			c0.2,0.2,0.3,0.4,0.3,0.7c0,0.3-0.1,0.5-0.3,0.7S840.9,461,840.7,461z M841.4,472.3H840v-9h1.4V472.3z"/>
		<path class="st5" d="M848,472.5c-1.3,0-2.4-0.4-3.2-1.3c-0.8-0.8-1.2-2-1.2-3.3c0-1.5,0.4-2.7,1.2-3.5s1.9-1.3,3.3-1.3
			c1.3,0,2.4,0.4,3.1,1.2s1.1,2,1.1,3.4s-0.4,2.6-1.2,3.4C850.5,472.1,849.4,472.5,848,472.5z M848.1,464.3c-0.9,0-1.7,0.3-2.2,0.9
			s-0.8,1.5-0.8,2.6s0.3,1.9,0.8,2.5s1.3,0.9,2.2,0.9s1.6-0.3,2.1-0.9s0.8-1.5,0.8-2.6s-0.2-2-0.8-2.6S849.1,464.3,848.1,464.3z
			 M850.3,458.7l-2.3,2.9h-1.1l2-2.9H850.3z"/>
		<path class="st5" d="M862.3,472.3h-1.4v-5.1c0-1.9-0.7-2.9-2.1-2.9c-0.7,0-1.3,0.3-1.8,0.8s-0.7,1.2-0.7,2.1v5.1h-1.4v-9h1.4v1.5
			l0,0c0.7-1.1,1.7-1.7,3-1.7c1,0,1.7,0.3,2.3,1c0.5,0.6,0.8,1.6,0.8,2.8L862.3,472.3L862.3,472.3z"/>
		<path class="st5" d="M877.6,472.3h-1.4v-1.5l0,0c-0.7,1.2-1.7,1.7-3.1,1.7c-1.1,0-2-0.4-2.7-1.2c-0.7-0.8-1-1.9-1-3.3
			c0-1.5,0.4-2.7,1.1-3.6s1.7-1.3,3-1.3c1.2,0,2.1,0.5,2.7,1.5l0,0V459h1.4V472.3z M876.2,468.2v-1.3c0-0.7-0.2-1.3-0.7-1.8
			s-1.1-0.8-1.8-0.8c-0.9,0-1.6,0.3-2.1,1s-0.8,1.5-0.8,2.7c0,1,0.2,1.9,0.7,2.5s1.1,0.9,1.9,0.9c0.8,0,1.5-0.3,2-0.9
			S876.2,469.1,876.2,468.2z"/>
		<path class="st5" d="M887.8,468.2h-6.4c0,1,0.3,1.8,0.8,2.3s1.2,0.8,2.1,0.8c1,0,1.9-0.3,2.8-1v1.4c-0.8,0.6-1.8,0.9-3.1,0.9
			s-2.3-0.4-3-1.2c-0.7-0.8-1.1-2-1.1-3.4s0.4-2.5,1.2-3.4s1.8-1.3,3-1.3s2.1,0.4,2.7,1.1s1,1.8,1,3.2V468.2z M886.3,466.9
			c0-0.8-0.2-1.5-0.6-1.9s-0.9-0.7-1.6-0.7c-0.7,0-1.3,0.2-1.7,0.7s-0.8,1.1-0.9,1.9H886.3z"/>
		<path class="st5" d="M896.3,472.3h-1.4V459h1.4V472.3z"/>
		<path class="st5" d="M905.7,472.3h-1.4v-1.4l0,0c-0.6,1.1-1.5,1.6-2.8,1.6c-0.9,0-1.6-0.2-2.1-0.7s-0.8-1.1-0.8-1.9
			c0-1.7,1-2.7,3-2.9l2.7-0.4c0-1.5-0.6-2.3-1.9-2.3c-1.1,0-2.1,0.4-2.9,1.1v-1.5c0.9-0.6,1.9-0.8,3.1-0.8c2.1,0,3.2,1.1,3.2,3.4
			L905.7,472.3L905.7,472.3z M904.2,467.7L902,468c-0.7,0.1-1.2,0.3-1.5,0.5s-0.5,0.7-0.5,1.3c0,0.4,0.2,0.8,0.5,1.1
			c0.3,0.3,0.7,0.4,1.3,0.4c0.7,0,1.3-0.2,1.8-0.8c0.5-0.5,0.7-1.1,0.7-1.9L904.2,467.7L904.2,467.7z"/>
	</g>
	<g class="st6">
		<path class="st5" d="M661.4,493.5c-0.7,0.4-1.5,0.6-2.5,0.6c-1.3,0-2.3-0.4-3.1-1.3c-0.8-0.8-1.2-1.9-1.2-3.2
			c0-1.5,0.4-2.7,1.3-3.6s2-1.3,3.4-1.3c0.8,0,1.5,0.1,2.1,0.4v1.5c-0.7-0.5-1.4-0.7-2.1-0.7c-0.9,0-1.7,0.3-2.3,1s-0.9,1.5-0.9,2.6
			s0.3,1.9,0.8,2.5s1.3,0.9,2.2,0.9c0.8,0,1.5-0.3,2.2-0.8L661.4,493.5L661.4,493.5z"/>
		<path class="st5" d="M670,493.9h-1.4v-1.4l0,0c-0.6,1.1-1.5,1.6-2.8,1.6c-0.9,0-1.6-0.2-2.1-0.7s-0.8-1.1-0.8-1.9
			c0-1.7,1-2.7,3-2.9l2.7-0.4c0-1.5-0.6-2.3-1.9-2.3c-1.1,0-2.1,0.4-2.9,1.1v-1.5c0.9-0.6,1.9-0.8,3.1-0.8c2.1,0,3.2,1.1,3.2,3.4
			L670,493.9L670,493.9z M668.6,489.3l-2.2,0.3c-0.7,0.1-1.2,0.3-1.5,0.5s-0.5,0.7-0.5,1.3c0,0.4,0.2,0.8,0.5,1.1
			c0.3,0.3,0.7,0.4,1.3,0.4c0.7,0,1.3-0.2,1.8-0.8c0.5-0.5,0.7-1.1,0.7-1.9L668.6,489.3L668.6,489.3z"/>
		<path class="st5" d="M674.2,493.9h-1.4v-13.3h1.4V493.9z"/>
		<path class="st5" d="M677.8,482.6c-0.3,0-0.5-0.1-0.7-0.3s-0.3-0.4-0.3-0.7s0.1-0.5,0.3-0.7s0.4-0.3,0.7-0.3s0.5,0.1,0.7,0.3
			s0.3,0.4,0.3,0.7c0,0.3-0.1,0.5-0.3,0.7S678.1,482.6,677.8,482.6z M678.5,493.9h-1.4v-9h1.4V493.9z"/>
		<path class="st5" d="M689.1,493.9h-1.4v-1.5l0,0c-0.7,1.2-1.7,1.7-3.1,1.7c-1.1,0-2-0.4-2.7-1.2c-0.7-0.8-1-1.9-1-3.3
			c0-1.5,0.4-2.7,1.1-3.6s1.7-1.3,3-1.3c1.2,0,2.1,0.5,2.7,1.5l0,0v-5.6h1.4V493.9z M687.7,489.8v-1.3c0-0.7-0.2-1.3-0.7-1.8
			s-1.1-0.8-1.8-0.8c-0.9,0-1.6,0.3-2.1,1s-0.8,1.5-0.8,2.7c0,1,0.2,1.9,0.7,2.5s1.1,0.9,1.9,0.9c0.8,0,1.5-0.3,2-0.9
			S687.7,490.7,687.7,489.8z"/>
		<path class="st5" d="M698.5,493.9h-1.4v-1.4l0,0c-0.6,1.1-1.5,1.6-2.8,1.6c-0.9,0-1.6-0.2-2.1-0.7s-0.8-1.1-0.8-1.9
			c0-1.7,1-2.7,3-2.9l2.7-0.4c0-1.5-0.6-2.3-1.9-2.3c-1.1,0-2.1,0.4-2.9,1.1v-1.5c0.9-0.6,1.9-0.8,3.1-0.8c2.1,0,3.2,1.1,3.2,3.4
			L698.5,493.9L698.5,493.9z M697.1,489.3l-2.2,0.3c-0.7,0.1-1.2,0.3-1.5,0.5s-0.5,0.7-0.5,1.3c0,0.4,0.2,0.8,0.5,1.1
			c0.3,0.3,0.7,0.4,1.3,0.4c0.7,0,1.3-0.2,1.8-0.8c0.5-0.5,0.7-1.1,0.7-1.9L697.1,489.3L697.1,489.3z"/>
		<path class="st5" d="M708.9,493.9h-1.4v-1.5l0,0c-0.7,1.2-1.7,1.7-3.1,1.7c-1.1,0-2-0.4-2.7-1.2c-0.7-0.8-1-1.9-1-3.3
			c0-1.5,0.4-2.7,1.1-3.6s1.7-1.3,3-1.3c1.2,0,2.1,0.5,2.7,1.5l0,0v-5.6h1.4V493.9z M707.5,489.8v-1.3c0-0.7-0.2-1.3-0.7-1.8
			s-1.1-0.8-1.8-0.8c-0.9,0-1.6,0.3-2.1,1s-0.8,1.5-0.8,2.7c0,1,0.2,1.9,0.7,2.5s1.1,0.9,1.9,0.9c0.8,0,1.5-0.3,2-0.9
			S707.5,490.7,707.5,489.8z"/>
	</g>
	<g class="st6">
		<path class="st5" d="M673.2,107.2H670v-14h3.2V107.2z"/>
		<path class="st5" d="M675.7,106.7v-3.1c0.6,0.5,1.2,0.8,1.8,1.1s1.3,0.4,2,0.4c0.4,0,0.7,0,1-0.1s0.5-0.2,0.7-0.3
			c0.2-0.1,0.3-0.3,0.4-0.4s0.1-0.4,0.1-0.6c0-0.3-0.1-0.5-0.2-0.7s-0.4-0.4-0.6-0.6c-0.3-0.2-0.6-0.4-1-0.5s-0.8-0.3-1.2-0.5
			c-1.1-0.5-1.9-1-2.4-1.7s-0.8-1.5-0.8-2.4c0-0.7,0.1-1.4,0.4-1.9s0.7-1,1.2-1.3s1.1-0.6,1.8-0.7s1.4-0.2,2.1-0.2
			c0.7,0,1.4,0,1.9,0.1c0.6,0.1,1.1,0.2,1.6,0.4v2.9c-0.2-0.2-0.5-0.3-0.8-0.4s-0.6-0.2-0.9-0.3s-0.6-0.1-0.9-0.2
			c-0.3,0-0.6-0.1-0.8-0.1c-0.4,0-0.7,0-1,0.1s-0.5,0.2-0.7,0.3c-0.2,0.1-0.4,0.3-0.5,0.4c-0.1,0.2-0.2,0.4-0.2,0.6s0.1,0.4,0.2,0.6
			c0.1,0.2,0.3,0.4,0.5,0.5c0.2,0.2,0.5,0.3,0.8,0.5s0.7,0.3,1.1,0.5c0.6,0.2,1.1,0.5,1.5,0.7c0.4,0.3,0.8,0.6,1.1,0.9
			s0.6,0.7,0.7,1.1c0.2,0.4,0.3,0.9,0.3,1.5c0,0.8-0.1,1.4-0.4,2c-0.3,0.5-0.7,1-1.2,1.3s-1.1,0.6-1.8,0.7s-1.4,0.2-2.1,0.2
			c-0.8,0-1.5-0.1-2.2-0.2S676.2,107,675.7,106.7z"/>
		<path class="st5" d="M693.5,107.5c-2,0-3.6-0.7-4.9-2c-1.3-1.3-1.9-3-1.9-5.1c0-2.2,0.6-4,1.9-5.4c1.3-1.4,3-2.1,5.1-2.1
			c2,0,3.6,0.7,4.8,2s1.9,3,1.9,5.2s-0.6,4-1.9,5.3S695.5,107.5,693.5,107.5z M693.6,95.7c-1.1,0-2,0.4-2.6,1.2
			c-0.7,0.8-1,1.9-1,3.3s0.3,2.5,1,3.3s1.5,1.2,2.6,1.2s1.9-0.4,2.6-1.2c0.6-0.8,1-1.9,1-3.3c0-1.5-0.3-2.6-0.9-3.4
			C695.5,96.1,694.7,95.7,693.6,95.7z"/>
		<path class="st5" d="M710.2,93.2l-6.8,16.3h-2.8l6.8-16.3H710.2z"/>
		<path class="st5" d="M714.7,107.2h-3.2v-14h3.2V107.2z"/>
		<path class="st5" d="M726.3,107.2h-8.4v-14h8.1v2.6h-4.9v3.1h4.6v2.6h-4.6v3.2h5.2L726.3,107.2L726.3,107.2z"/>
		<path class="st5" d="M738.6,106.7c-1,0.5-2.4,0.7-4,0.7c-2.1,0-3.8-0.6-5.1-1.9s-1.8-2.9-1.8-5c0-2.2,0.7-4.1,2.1-5.4
			c1.4-1.4,3.2-2.1,5.4-2.1c1.4,0,2.5,0.2,3.5,0.5v3c-0.9-0.6-2-0.8-3.2-0.8c-1.3,0-2.4,0.4-3.2,1.2c-0.8,0.8-1.2,1.9-1.2,3.4
			c0,1.4,0.4,2.4,1.1,3.2s1.8,1.2,3.1,1.2c1.2,0,2.4-0.3,3.4-0.9L738.6,106.7L738.6,106.7z"/>
		<path class="st5" d="M749.2,104.7h5.9v2.6h-9.3v-1.1c0-0.7,0.1-1.4,0.4-1.9c0.2-0.6,0.5-1.1,0.9-1.5c0.4-0.5,0.8-0.9,1.2-1.2
			c0.4-0.3,0.8-0.7,1.2-0.9c0.4-0.3,0.8-0.6,1.1-0.8c0.3-0.3,0.6-0.5,0.8-0.8s0.4-0.5,0.5-0.8s0.2-0.6,0.2-0.9
			c0-0.6-0.2-1.1-0.5-1.4s-0.9-0.5-1.6-0.5c-1.2,0-2.4,0.5-3.5,1.4v-2.7c1.2-0.8,2.6-1.2,4.1-1.2c0.7,0,1.3,0.1,1.9,0.3
			c0.6,0.2,1,0.5,1.4,0.8s0.7,0.8,0.9,1.3s0.3,1,0.3,1.6s-0.1,1.2-0.3,1.7s-0.5,1-0.8,1.4s-0.7,0.8-1.1,1.1s-0.9,0.7-1.3,1
			c-0.3,0.2-0.6,0.4-0.9,0.7c-0.3,0.2-0.5,0.4-0.8,0.6c-0.2,0.2-0.4,0.4-0.5,0.6C749.2,104.3,749.2,104.5,749.2,104.7z"/>
		<path class="st5" d="M757.9,106.9v-2.6c1,0.6,2,0.9,3.1,0.9c0.8,0,1.5-0.2,1.9-0.6s0.7-0.9,0.7-1.6c0-1.4-1-2.1-2.9-2.1
			c-0.7,0-1.6,0.1-2.5,0.2l0.5-7.8h7.4v2.5H761l-0.2,2.8c0.5,0,0.9-0.1,1.3-0.1c1.4,0,2.6,0.4,3.4,1.1c0.8,0.8,1.2,1.8,1.2,3
			c0,1.4-0.5,2.6-1.5,3.5s-2.3,1.3-3.9,1.3C759.9,107.5,758.8,107.3,757.9,106.9z"/>
		<path class="st5" d="M773.7,107.5c-3.3,0-5-2.3-5-7c0-2.4,0.5-4.3,1.4-5.6c0.9-1.3,2.2-1.9,3.9-1.9c3.3,0,4.9,2.4,4.9,7.1
			c0,2.4-0.4,4.2-1.3,5.4S775.3,107.5,773.7,107.5z M773.8,95.3c-1.3,0-2,1.7-2,5c0,3.2,0.7,4.7,2,4.7s1.9-1.6,1.9-4.9
			S775,95.3,773.8,95.3z"/>
		<path class="st5" d="M783.7,104.7h5.9v2.6h-9.3v-1.1c0-0.7,0.1-1.4,0.4-1.9c0.2-0.6,0.5-1.1,0.9-1.5c0.4-0.5,0.8-0.9,1.2-1.2
			c0.4-0.3,0.8-0.7,1.2-0.9c0.4-0.3,0.8-0.6,1.1-0.8c0.3-0.3,0.6-0.5,0.8-0.8s0.4-0.5,0.5-0.8s0.2-0.6,0.2-0.9
			c0-0.6-0.2-1.1-0.5-1.4s-0.9-0.5-1.6-0.5c-1.2,0-2.4,0.5-3.5,1.4v-2.7c1.2-0.8,2.6-1.2,4.1-1.2c0.7,0,1.3,0.1,1.9,0.3
			c0.6,0.2,1,0.5,1.4,0.8s0.7,0.8,0.9,1.3s0.3,1,0.3,1.6s-0.1,1.2-0.3,1.7s-0.5,1-0.8,1.4s-0.7,0.8-1.1,1.1s-0.9,0.7-1.3,1
			c-0.3,0.2-0.6,0.4-0.9,0.7c-0.3,0.2-0.5,0.4-0.8,0.6c-0.2,0.2-0.4,0.4-0.5,0.6C783.7,104.3,783.7,104.5,783.7,104.7z"/>
		<path class="st5" d="M801.9,107.2h-3.1v-5.6c0-1.5-0.6-2.3-1.7-2.3c-0.5,0-1,0.2-1.3,0.6s-0.5,0.9-0.5,1.6v5.7h-3.1v-10h3.1v1.6
			l0,0c0.7-1.2,1.8-1.8,3.2-1.8c2.2,0,3.3,1.4,3.3,4.1L801.9,107.2L801.9,107.2z"/>
		<path class="st5" d="M805.8,100.3c-0.5,0-0.9-0.2-1.3-0.5c-0.3-0.3-0.5-0.7-0.5-1.1c0-0.5,0.2-0.9,0.5-1.2
			c0.3-0.3,0.8-0.4,1.3-0.4s1,0.2,1.3,0.5s0.5,0.7,0.5,1.1c0,0.5-0.2,0.9-0.5,1.2S806.3,100.3,805.8,100.3z M805.8,107.5
			c-0.5,0-0.9-0.2-1.3-0.5c-0.3-0.3-0.5-0.7-0.5-1.2s0.2-0.9,0.5-1.2c0.3-0.3,0.8-0.4,1.3-0.4s1,0.2,1.3,0.5s0.5,0.7,0.5,1.1
			c0,0.5-0.2,0.9-0.5,1.2S806.3,107.5,805.8,107.5z"/>
	</g>
	<g class="st6">
		<path class="st5" d="M670.1,128.8v-12.6h3.5c4.4,0,6.7,2,6.7,6.1c0,1.9-0.6,3.5-1.9,4.7c-1.2,1.2-2.9,1.8-5,1.8H670.1z
			 M671.5,117.6v9.9h1.9c1.7,0,2.9-0.4,3.9-1.3s1.4-2.1,1.4-3.8c0-3.2-1.7-4.8-5.2-4.8C673.5,117.6,671.5,117.6,671.5,117.6z"/>
		<path class="st5" d="M683.2,117.5c-0.3,0-0.5-0.1-0.7-0.3s-0.3-0.4-0.3-0.7s0.1-0.5,0.3-0.7s0.4-0.3,0.7-0.3s0.5,0.1,0.7,0.3
			s0.3,0.4,0.3,0.7c0,0.3-0.1,0.5-0.3,0.7S683.5,117.5,683.2,117.5z M683.9,128.8h-1.4v-9h1.4V128.8z"/>
		<path class="st5" d="M693.9,119.8l-3.6,9h-1.4l-3.4-9h1.6l2.3,6.5c0.2,0.5,0.3,0.9,0.3,1.3l0,0c0.1-0.5,0.2-0.9,0.3-1.2l2.4-6.6
			C692.4,119.8,693.9,119.8,693.9,119.8z"/>
		<path class="st5" d="M696.2,117.5c-0.3,0-0.5-0.1-0.7-0.3s-0.3-0.4-0.3-0.7s0.1-0.5,0.3-0.7s0.4-0.3,0.7-0.3s0.5,0.1,0.7,0.3
			s0.3,0.4,0.3,0.7c0,0.3-0.1,0.5-0.3,0.7S696.5,117.5,696.2,117.5z M696.9,128.8h-1.4v-9h1.4V128.8z"/>
		<path class="st5" d="M699.3,128.5V127c0.8,0.6,1.6,0.9,2.6,0.9c1.3,0,1.9-0.4,1.9-1.3c0-0.2-0.1-0.4-0.2-0.6
			c-0.1-0.2-0.3-0.3-0.4-0.4s-0.4-0.2-0.7-0.3c-0.2-0.1-0.5-0.2-0.8-0.3c-0.4-0.2-0.7-0.3-1.1-0.5s-0.6-0.3-0.8-0.5
			s-0.4-0.4-0.5-0.7s-0.2-0.6-0.2-0.9c0-0.4,0.1-0.8,0.3-1.1c0.2-0.3,0.5-0.6,0.8-0.8c0.3-0.2,0.7-0.4,1.1-0.5s0.8-0.2,1.3-0.2
			c0.8,0,1.5,0.1,2.1,0.4v1.5c-0.7-0.4-1.4-0.7-2.3-0.7c-0.3,0-0.5,0-0.7,0.1s-0.4,0.1-0.6,0.3s-0.3,0.2-0.4,0.4s-0.1,0.3-0.1,0.5
			s0,0.4,0.1,0.6s0.2,0.3,0.4,0.4s0.4,0.2,0.6,0.3s0.5,0.2,0.8,0.3c0.4,0.2,0.8,0.3,1.1,0.5s0.6,0.3,0.8,0.5s0.4,0.4,0.5,0.7
			s0.2,0.6,0.2,0.9c0,0.4-0.1,0.8-0.3,1.2c-0.2,0.4-0.5,0.6-0.8,0.8s-0.7,0.4-1.1,0.5s-0.9,0.2-1.3,0.2
			C700.8,129,700,128.9,699.3,128.5z"/>
		<path class="st5" d="M708.2,117.5c-0.3,0-0.5-0.1-0.7-0.3s-0.3-0.4-0.3-0.7s0.1-0.5,0.3-0.7s0.4-0.3,0.7-0.3s0.5,0.1,0.7,0.3
			s0.3,0.4,0.3,0.7c0,0.3-0.1,0.5-0.3,0.7S708.5,117.5,708.2,117.5z M708.9,128.8h-1.4v-9h1.4V128.8z"/>
		<path class="st5" d="M715.6,129c-1.3,0-2.4-0.4-3.2-1.3c-0.8-0.8-1.2-2-1.2-3.3c0-1.5,0.4-2.7,1.2-3.5s1.9-1.3,3.3-1.3
			c1.3,0,2.4,0.4,3.1,1.2s1.1,2,1.1,3.4s-0.4,2.6-1.2,3.4C718,128.6,717,129,715.6,129z M715.7,120.8c-0.9,0-1.7,0.3-2.2,0.9
			s-0.8,1.5-0.8,2.6s0.3,1.9,0.8,2.5s1.3,0.9,2.2,0.9s1.6-0.3,2.1-0.9s0.8-1.5,0.8-2.6s-0.3-2-0.8-2.6S716.6,120.8,715.7,120.8z
			 M717.8,115.2l-2.3,2.9h-1.1l2-2.9H717.8z"/>
		<path class="st5" d="M729.8,128.8h-1.4v-5.1c0-1.9-0.7-2.9-2.1-2.9c-0.7,0-1.3,0.3-1.8,0.8s-0.7,1.2-0.7,2.1v5.1h-1.4v-9h1.4v1.5
			l0,0c0.7-1.1,1.7-1.7,3-1.7c1,0,1.7,0.3,2.3,1c0.5,0.6,0.8,1.6,0.8,2.8L729.8,128.8L729.8,128.8z"/>
		<path class="st5" d="M739,127.5L739,127.5v5.4h-1.4v-13.1h1.4v1.6l0,0c0.7-1.2,1.7-1.8,3.1-1.8c1.2,0,2.1,0.4,2.7,1.2s1,1.9,1,3.2
			c0,1.5-0.4,2.7-1.1,3.6c-0.7,0.9-1.7,1.4-3,1.4C740.5,129,739.6,128.5,739,127.5z M738.9,123.9v1.3c0,0.7,0.2,1.4,0.7,1.9
			s1.1,0.8,1.8,0.8c0.9,0,1.6-0.3,2.1-1s0.7-1.6,0.7-2.8c0-1-0.2-1.8-0.7-2.4s-1.1-0.9-1.9-0.9c-0.8,0-1.5,0.3-2,0.9
			S738.9,123,738.9,123.9z"/>
		<path class="st5" d="M754.5,128.8h-1.4v-1.4l0,0c-0.6,1.1-1.5,1.6-2.8,1.6c-0.9,0-1.6-0.2-2.1-0.7s-0.8-1.1-0.8-1.9
			c0-1.7,1-2.7,3-2.9l2.7-0.4c0-1.5-0.6-2.3-1.9-2.3c-1.1,0-2.1,0.4-2.9,1.1v-1.5c0.9-0.6,1.9-0.8,3.1-0.8c2.1,0,3.2,1.1,3.2,3.4
			L754.5,128.8L754.5,128.8z M753.1,124.3l-2.2,0.3c-0.7,0.1-1.2,0.3-1.5,0.5s-0.5,0.7-0.5,1.3c0,0.4,0.2,0.8,0.5,1.1
			c0.3,0.3,0.7,0.4,1.3,0.4c0.7,0,1.3-0.2,1.8-0.8c0.5-0.5,0.7-1.1,0.7-1.9L753.1,124.3L753.1,124.3z"/>
	</g>
	<g class="st6">
		<path class="st5" d="M761.9,121.3c-0.3-0.2-0.6-0.3-1.1-0.3c-0.6,0-1.1,0.3-1.5,0.9s-0.6,1.4-0.6,2.4v4.6h-1.4v-9h1.4v1.9l0,0
			c0.2-0.6,0.5-1.1,0.9-1.5s0.9-0.5,1.4-0.5c0.4,0,0.7,0,0.9,0.1L761.9,121.3L761.9,121.3z"/>
	</g>
	<g class="st6">
		<path class="st5" d="M769.6,128.8h-1.4v-1.4l0,0c-0.6,1.1-1.5,1.6-2.8,1.6c-0.9,0-1.6-0.2-2.1-0.7s-0.8-1.1-0.8-1.9
			c0-1.7,1-2.7,3-2.9l2.7-0.4c0-1.5-0.6-2.3-1.9-2.3c-1.1,0-2.1,0.4-2.9,1.1v-1.5c0.9-0.6,1.9-0.8,3.1-0.8c2.1,0,3.2,1.1,3.2,3.4
			L769.6,128.8L769.6,128.8z M768.1,124.3l-2.2,0.3c-0.7,0.1-1.2,0.3-1.5,0.5s-0.5,0.7-0.5,1.3c0,0.4,0.2,0.8,0.5,1.1
			c0.3,0.3,0.7,0.4,1.3,0.4c0.7,0,1.3-0.2,1.8-0.8c0.5-0.5,0.7-1.1,0.7-1.9L768.1,124.3L768.1,124.3z"/>
		<path class="st5" d="M778.7,128.8h-1.4v-13.3h1.4V128.8z"/>
		<path class="st5" d="M788,128.8h-1.4v-1.4l0,0c-0.6,1.1-1.5,1.6-2.8,1.6c-0.9,0-1.6-0.2-2.1-0.7s-0.8-1.1-0.8-1.9
			c0-1.7,1-2.7,3-2.9l2.7-0.4c0-1.5-0.6-2.3-1.9-2.3c-1.1,0-2.1,0.4-2.9,1.1v-1.5c0.9-0.6,1.9-0.8,3.1-0.8c2.1,0,3.2,1.1,3.2,3.4
			L788,128.8L788,128.8z M786.6,124.3l-2.2,0.3c-0.7,0.1-1.2,0.3-1.5,0.5s-0.5,0.7-0.5,1.3c0,0.4,0.2,0.8,0.5,1.1
			c0.3,0.3,0.7,0.4,1.3,0.4c0.7,0,1.3-0.2,1.8-0.8c0.5-0.5,0.7-1.1,0.7-1.9L786.6,124.3L786.6,124.3z"/>
		<path class="st5" d="M808.4,128.8H807v-5.2c0-1-0.2-1.7-0.5-2.2s-0.8-0.7-1.6-0.7c-0.6,0-1.1,0.3-1.6,0.8s-0.6,1.2-0.6,2v5.1h-1.4
			v-5.3c0-1.8-0.7-2.7-2-2.7c-0.6,0-1.2,0.3-1.6,0.8c-0.4,0.5-0.6,1.2-0.6,2.1v5.1h-1.4v-9h1.4v1.4l0,0c0.6-1.1,1.6-1.6,2.8-1.6
			c0.6,0,1.2,0.2,1.6,0.5c0.5,0.3,0.8,0.8,0.9,1.3c0.7-1.2,1.7-1.9,3-1.9c2,0,3,1.2,3,3.7L808.4,128.8L808.4,128.8z"/>
		<path class="st5" d="M818.4,124.7H812c0,1,0.3,1.8,0.8,2.3s1.2,0.8,2.1,0.8c1,0,1.9-0.3,2.8-1v1.4c-0.8,0.6-1.8,0.9-3.1,0.9
			s-2.3-0.4-3-1.2s-1.1-2-1.1-3.4s0.4-2.5,1.2-3.4s1.8-1.3,3-1.3s2.1,0.4,2.7,1.1s1,1.8,1,3.2V124.7z M816.9,123.5
			c0-0.8-0.2-1.5-0.6-1.9s-0.9-0.7-1.6-0.7c-0.7,0-1.3,0.2-1.7,0.7s-0.8,1.1-0.9,1.9H816.9z"/>
		<path class="st5" d="M828.3,128.8h-1.4v-1.5l0,0c-0.7,1.2-1.7,1.7-3.1,1.7c-1.1,0-2-0.4-2.7-1.2s-1-1.9-1-3.3
			c0-1.5,0.4-2.7,1.1-3.6s1.7-1.3,3-1.3c1.2,0,2.1,0.5,2.7,1.5l0,0v-5.6h1.4V128.8z M826.8,124.8v-1.3c0-0.7-0.2-1.3-0.7-1.8
			s-1.1-0.8-1.8-0.8c-0.9,0-1.6,0.3-2.1,1s-0.8,1.5-0.8,2.7c0,1,0.2,1.9,0.7,2.5s1.1,0.9,1.9,0.9c0.8,0,1.5-0.3,2-0.9
			S826.8,125.6,826.8,124.8z"/>
		<path class="st5" d="M831.9,117.5c-0.3,0-0.5-0.1-0.7-0.3s-0.3-0.4-0.3-0.7s0.1-0.5,0.3-0.7s0.4-0.3,0.7-0.3s0.5,0.1,0.7,0.3
			s0.3,0.4,0.3,0.7c0,0.3-0.1,0.5-0.3,0.7S832.2,117.5,831.9,117.5z M832.6,128.8h-1.4v-9h1.4V128.8z"/>
		<path class="st5" d="M841.7,128.4c-0.7,0.4-1.5,0.6-2.5,0.6c-1.3,0-2.3-0.4-3.1-1.3c-0.8-0.8-1.2-1.9-1.2-3.2
			c0-1.5,0.4-2.7,1.3-3.6s2-1.3,3.4-1.3c0.8,0,1.5,0.1,2.1,0.4v1.5c-0.7-0.5-1.4-0.7-2.1-0.7c-0.9,0-1.7,0.3-2.3,1s-0.9,1.5-0.9,2.6
			s0.3,1.9,0.8,2.5s1.3,0.9,2.2,0.9c0.8,0,1.5-0.3,2.2-0.8L841.7,128.4L841.7,128.4z"/>
		<path class="st5" d="M844.6,117.5c-0.3,0-0.5-0.1-0.7-0.3s-0.3-0.4-0.3-0.7s0.1-0.5,0.3-0.7s0.4-0.3,0.7-0.3s0.5,0.1,0.7,0.3
			s0.3,0.4,0.3,0.7c0,0.3-0.1,0.5-0.3,0.7S844.9,117.5,844.6,117.5z M845.3,128.8h-1.4v-9h1.4V128.8z"/>
		<path class="st5" d="M852,129c-1.3,0-2.4-0.4-3.2-1.3c-0.8-0.8-1.2-2-1.2-3.3c0-1.5,0.4-2.7,1.2-3.5s1.9-1.3,3.3-1.3
			c1.3,0,2.4,0.4,3.1,1.2s1.1,2,1.1,3.4s-0.4,2.6-1.2,3.4C854.4,128.6,853.3,129,852,129z M852.1,120.8c-0.9,0-1.7,0.3-2.2,0.9
			s-0.8,1.5-0.8,2.6s0.3,1.9,0.8,2.5s1.3,0.9,2.2,0.9s1.6-0.3,2.1-0.9s0.8-1.5,0.8-2.6s-0.2-2-0.8-2.6S853,120.8,852.1,120.8z
			 M854.2,115.2l-2.3,2.9h-1.1l2-2.9H854.2z"/>
		<path class="st5" d="M866.2,128.8h-1.4v-5.1c0-1.9-0.7-2.9-2.1-2.9c-0.7,0-1.3,0.3-1.8,0.8s-0.7,1.2-0.7,2.1v5.1h-1.4v-9h1.4v1.5
			l0,0c0.7-1.1,1.7-1.7,3-1.7c1,0,1.7,0.3,2.3,1c0.5,0.6,0.8,1.6,0.8,2.8L866.2,128.8L866.2,128.8z"/>
		<path class="st5" d="M881.6,128.8h-1.4v-1.5l0,0c-0.7,1.2-1.7,1.7-3.1,1.7c-1.1,0-2-0.4-2.7-1.2s-1-1.9-1-3.3
			c0-1.5,0.4-2.7,1.1-3.6s1.7-1.3,3-1.3c1.2,0,2.1,0.5,2.7,1.5l0,0v-5.6h1.4V128.8z M880.1,124.8v-1.3c0-0.7-0.2-1.3-0.7-1.8
			s-1.1-0.8-1.8-0.8c-0.9,0-1.6,0.3-2.1,1s-0.8,1.5-0.8,2.7c0,1,0.2,1.9,0.7,2.5s1.1,0.9,1.9,0.9c0.8,0,1.5-0.3,2-0.9
			S880.1,125.6,880.1,124.8z"/>
		<path class="st5" d="M891.7,124.7h-6.4c0,1,0.3,1.8,0.8,2.3s1.2,0.8,2.1,0.8c1,0,1.9-0.3,2.8-1v1.4c-0.8,0.6-1.8,0.9-3.1,0.9
			s-2.3-0.4-3-1.2s-1.1-2-1.1-3.4s0.4-2.5,1.2-3.4s1.8-1.3,3-1.3s2.1,0.4,2.7,1.1s1,1.8,1,3.2V124.7z M890.2,123.5
			c0-0.8-0.2-1.5-0.6-1.9s-0.9-0.7-1.6-0.7c-0.7,0-1.3,0.2-1.7,0.7s-0.8,1.1-0.9,1.9H890.2z"/>
		<path class="st5" d="M900.3,128.8h-1.4v-13.3h1.4V128.8z"/>
		<path class="st5" d="M909.6,128.8h-1.4v-1.4l0,0c-0.6,1.1-1.5,1.6-2.8,1.6c-0.9,0-1.6-0.2-2.1-0.7s-0.8-1.1-0.8-1.9
			c0-1.7,1-2.7,3-2.9l2.7-0.4c0-1.5-0.6-2.3-1.9-2.3c-1.1,0-2.1,0.4-2.9,1.1v-1.5c0.9-0.6,1.9-0.8,3.1-0.8c2.1,0,3.2,1.1,3.2,3.4
			L909.6,128.8L909.6,128.8z M908.2,124.3l-2.2,0.3c-0.7,0.1-1.2,0.3-1.5,0.5s-0.5,0.7-0.5,1.3c0,0.4,0.2,0.8,0.5,1.1
			c0.3,0.3,0.7,0.4,1.3,0.4c0.7,0,1.3-0.2,1.8-0.8c0.5-0.5,0.7-1.1,0.7-1.9L908.2,124.3L908.2,124.3z"/>
	</g>
	<g class="st6">
		<path class="st5" d="M676,150c-0.7,0.4-1.5,0.6-2.5,0.6c-1.3,0-2.3-0.4-3.1-1.3c-0.8-0.8-1.2-1.9-1.2-3.2c0-1.5,0.4-2.7,1.3-3.6
			s2-1.3,3.4-1.3c0.8,0,1.5,0.1,2.1,0.4v1.5c-0.7-0.5-1.4-0.7-2.1-0.7c-0.9,0-1.7,0.3-2.3,1s-0.9,1.5-0.9,2.6s0.3,1.9,0.8,2.5
			s1.3,0.9,2.2,0.9c0.8,0,1.5-0.3,2.2-0.8L676,150L676,150z"/>
		<path class="st5" d="M684.6,150.4h-1.4V149l0,0c-0.6,1.1-1.5,1.6-2.8,1.6c-0.9,0-1.6-0.2-2.1-0.7s-0.8-1.1-0.8-1.9
			c0-1.7,1-2.7,3-2.9l2.7-0.4c0-1.5-0.6-2.3-1.9-2.3c-1.1,0-2.1,0.4-2.9,1.1V142c0.9-0.6,1.9-0.8,3.1-0.8c2.1,0,3.2,1.1,3.2,3.4
			L684.6,150.4L684.6,150.4z M683.2,145.9l-2.2,0.3c-0.7,0.1-1.2,0.3-1.5,0.5s-0.5,0.7-0.5,1.3c0,0.4,0.2,0.8,0.5,1.1
			s0.7,0.4,1.3,0.4c0.7,0,1.3-0.2,1.8-0.8c0.5-0.5,0.7-1.1,0.7-1.9L683.2,145.9L683.2,145.9z"/>
		<path class="st5" d="M688.8,150.4h-1.4v-13.3h1.4V150.4z"/>
		<path class="st5" d="M692.4,139.1c-0.3,0-0.5-0.1-0.7-0.3s-0.3-0.4-0.3-0.7s0.1-0.5,0.3-0.7s0.4-0.3,0.7-0.3s0.5,0.1,0.7,0.3
			s0.3,0.4,0.3,0.7s-0.1,0.5-0.3,0.7S692.7,139.1,692.4,139.1z M693.1,150.4h-1.4v-9h1.4V150.4z"/>
		<path class="st5" d="M703.7,150.4h-1.4v-1.5l0,0c-0.7,1.2-1.7,1.7-3.1,1.7c-1.1,0-2-0.4-2.7-1.2s-1-1.9-1-3.3
			c0-1.5,0.4-2.7,1.1-3.6s1.7-1.3,3-1.3c1.2,0,2.1,0.5,2.7,1.5l0,0v-5.6h1.4V150.4z M702.3,146.4V145c0-0.7-0.2-1.3-0.7-1.8
			s-1.1-0.8-1.8-0.8c-0.9,0-1.6,0.3-2.1,1s-0.8,1.5-0.8,2.7c0,1,0.2,1.9,0.7,2.5s1.1,0.9,1.9,0.9c0.8,0,1.5-0.3,2-0.9
			S702.3,147.2,702.3,146.4z"/>
		<path class="st5" d="M713.1,150.4h-1.4V149l0,0c-0.6,1.1-1.5,1.6-2.8,1.6c-0.9,0-1.6-0.2-2.1-0.7s-0.8-1.1-0.8-1.9
			c0-1.7,1-2.7,3-2.9l2.7-0.4c0-1.5-0.6-2.3-1.9-2.3c-1.1,0-2.1,0.4-2.9,1.1V142c0.9-0.6,1.9-0.8,3.1-0.8c2.1,0,3.2,1.1,3.2,3.4
			L713.1,150.4L713.1,150.4z M711.7,145.9l-2.2,0.3c-0.7,0.1-1.2,0.3-1.5,0.5s-0.5,0.7-0.5,1.3c0,0.4,0.2,0.8,0.5,1.1
			s0.7,0.4,1.3,0.4c0.7,0,1.3-0.2,1.8-0.8c0.5-0.5,0.7-1.1,0.7-1.9L711.7,145.9L711.7,145.9z"/>
		<path class="st5" d="M723.5,150.4h-1.4v-1.5l0,0c-0.7,1.2-1.7,1.7-3.1,1.7c-1.1,0-2-0.4-2.7-1.2s-1-1.9-1-3.3
			c0-1.5,0.4-2.7,1.1-3.6s1.7-1.3,3-1.3c1.2,0,2.1,0.5,2.7,1.5l0,0v-5.6h1.4V150.4z M722.1,146.4V145c0-0.7-0.2-1.3-0.7-1.8
			s-1.1-0.8-1.8-0.8c-0.9,0-1.6,0.3-2.1,1s-0.8,1.5-0.8,2.7c0,1,0.2,1.9,0.7,2.5s1.1,0.9,1.9,0.9c0.8,0,1.5-0.3,2-0.9
			S722.1,147.2,722.1,146.4z"/>
	</g>
	<path id="Trazado_185206" class="st7" d="M991.4,95.5l10.3,1c0.9,0.1,1.6,0.7,1.9,1.5c0.4,1,0.8,2,1.3,3c0.9,1.8,1.9,3.6,3,5.3
		c0.5,0.8,0.5,1.8,0,2.5l-6,9c-0.7,1-0.4,2.3,0.5,3l7.7,6.1c0.9,0.7,2.1,0.6,2.9-0.2l7-7.1c0.7-0.7,1.7-0.9,2.6-0.4
		c3.8,1.9,7.8,3.2,12,3.8c1,0.2,1.8,1,1.9,2l0.6,6c0.1,1.1,1.1,2,2.2,2.1l9.8,0.1c0.2,0,0.4,0,0.6-0.1c0.9-0.2,1.6-1,1.7-1.9
		l0.8-7.7l0.2-1.9c1.8-0.5,3.5-1.2,5.2-2c2.2-1.1,4.4-2.3,6.4-3.8c0.7-0.6,1.8-0.6,2.5-0.1l7.2,4.8c1,0.6,2.3,0.4,3-0.5l4.7-5.9
		l1.3-1.7c0.7-0.9,0.7-2.2-0.2-3.1l-5.9-5.8c-0.7-0.7-0.9-1.7-0.5-2.5c1.2-2.6,2.2-5.2,2.8-8c0.1-0.2,0.1-0.5,0.2-0.7
		c0-0.1,0-0.2,0.1-0.2c0.3-0.9,1-1.5,1.9-1.6l9.8-0.9c0.1,0,0.2,0,0.3,0c1-0.2,1.7-1.1,1.7-2.2l0.1-9.8c0-1.2-0.8-2.2-2-2.3
		l-10.7-1.1c-0.9-0.1-1.7-0.7-1.9-1.6c-0.6-2-1.3-3.9-2.2-5.7c-0.5-1-1-2-1.5-2.9c-0.4-0.8-0.4-1.7,0.1-2.4l5.7-8.6
		c0.7-1,0.5-2.3-0.5-3l-7.7-6.1c-0.9-0.7-2.3-0.7-3.1,0.2l-5.5,5.6c-0.7,0.7-1.9,0.9-2.8,0.4c-3.5-2.1-7.3-3.7-11.3-4.7
		c-1-0.2-1.7-1-1.8-2l-0.8-8.8c-0.1-1.2-1.1-2.1-2.3-2.1l-9.7-0.1c-1.2,0-2.1,0.8-2.2,2V35l-0.9,8.9c-0.1,1-0.8,1.7-1.7,2l0,0
		c-2.3,0.6-4.5,1.4-6.6,2.4c-1.2,0.5-2.2,1.2-3.3,1.8c-0.7,0.4-1.7,0.4-2.4,0l-7.3-4.9c-1-0.7-2.4-0.5-3.1,0.5l-6,7.6
		c-0.2,0.2-0.3,0.4-0.4,0.7c-0.3,0.8-0.1,1.7,0.5,2.3l4.7,4.6c0.6,0.6,0.8,1.4,0.6,2.2c-0.1,0.2-0.1,0.4-0.2,0.6
		c-2.7,4.5-4.5,9.5-5.2,14.8c-0.1,0.9-0.8,1.6-1.6,1.8c-0.1,0-0.3,0.1-0.4,0.1l-7.9,0.8c-1.2,0.1-2,1.1-2,2.2v0.2l-0.1,9.5
		C989.3,94.4,990.2,95.4,991.4,95.5L991.4,95.5z M1061.6,80.8c0.3,1.6,0.4,3.3,0.4,4.9c-0.3,3.8-1.6,7.5-3.8,10.7
		c-0.2,0.3-0.4,0.6-0.7,0.8c-13.7,16.1-38.6,7-38.5-14.5c0.2-3.3,1.2-6.6,2.8-9.4c0.3-0.6,0.7-1.2,1.2-1.7c1.7-2.2,3.8-4.1,6.2-5.6
		c10-6.2,23.2-3.2,29.4,6.8C1060.1,75.3,1061.2,78,1061.6,80.8z"/>
	<path id="Trazado_185207" class="st8" d="M1108.7,70.3l6.5,1.6c0.5,0.1,1,0.6,1.1,1.1c0.2,0.7,0.3,1.4,0.6,2.1
		c0.4,1.3,0.9,2.5,1.5,3.7c0.3,0.5,0.2,1.2-0.2,1.7l-4.7,5.3c-0.5,0.6-0.5,1.4,0,2l4.4,4.7c0.5,0.5,1.3,0.6,1.9,0.2l5.2-4
		c0.5-0.4,1.2-0.4,1.7,0c2.3,1.6,4.7,2.8,7.4,3.6c0.6,0.2,1,0.8,1,1.5l-0.2,3.9c0,0.8,0.5,1.4,1.2,1.5l6.3,1c0.1,0,0.3,0,0.4,0
		c0.6-0.1,1.1-0.5,1.3-1.1l1.2-4.9l0.3-1.2c1.2-0.2,2.4-0.5,3.6-0.8c1.5-0.5,3-1.1,4.5-1.9c0.5-0.3,1.2-0.2,1.6,0.2l4.2,3.8
		c0.6,0.5,1.4,0.5,2,0l3.6-3.4l1-1c0.6-0.5,0.6-1.4,0.2-2l-3.3-4.4c-0.4-0.5-0.4-1.2-0.1-1.7c1-1.5,1.9-3.2,2.5-4.9
		c0.1-0.2,0.1-0.3,0.2-0.4c0-0.1,0-0.1,0.1-0.2c0.3-0.5,0.8-0.9,1.4-0.8l6.4,0.3c0.1,0,0.1,0,0.2,0c0.7-0.1,1.2-0.6,1.3-1.2l1-6.3
		c0.1-0.8-0.4-1.5-1.1-1.7l-6.8-1.7c-0.6-0.1-1-0.6-1.1-1.2c-0.2-1.3-0.5-2.6-0.9-3.9c-0.2-0.7-0.5-1.4-0.7-2
		c-0.2-0.5-0.1-1.1,0.3-1.6l4.5-5.1c0.5-0.6,0.5-1.4,0-2l-4.4-4.6c-0.5-0.6-1.4-0.6-2-0.2l-4.1,3.1c-0.5,0.4-1.3,0.4-1.8,0
		c-2.1-1.7-4.4-3-6.9-4c-0.6-0.2-1-0.8-1-1.5l0.3-5.8c0-0.8-0.5-1.4-1.3-1.6l-6.3-1c-0.7-0.1-1.5,0.4-1.6,1.1l-0.1,0.3l-1.4,5.7
		c-0.2,0.6-0.7,1-1.3,1.1l0,0c-1.5,0.2-3,0.5-4.5,1c-0.8,0.2-1.6,0.5-2.3,0.8c-0.5,0.2-1.1,0.1-1.6-0.2l-4.3-3.8
		c-0.6-0.5-1.5-0.5-2.1,0L1119,44c-0.1,0.1-0.2,0.3-0.3,0.4c-0.2,0.5-0.2,1.1,0.1,1.6l2.6,3.4c0.3,0.4,0.4,1,0.2,1.5
		c-0.1,0.1-0.1,0.2-0.2,0.4c-2.2,2.7-3.8,5.8-4.7,9.1c-0.2,0.5-0.6,0.9-1.2,1h-0.2l-5.2-0.2c-0.8,0-1.4,0.5-1.5,1.2v0.2l-1,6.1
		C1107.4,69.4,1107.9,70.1,1108.7,70.3L1108.7,70.3z M1155.4,67.2c0,1.1,0,2.2-0.2,3.2c-0.5,2.5-1.7,4.7-3.4,6.6l-0.5,0.5
		c-10.3,9.2-25.6,1-23.5-12.9c0.4-2.1,1.3-4.1,2.7-5.8c0.3-0.4,0.6-0.7,0.9-1c1.3-1.2,2.8-2.3,4.5-3c7.1-3.1,15.3,0.2,18.4,7.2
		C1155,63.7,1155.4,65.4,1155.4,67.2L1155.4,67.2z"/>
	<path id="Trazado_185208" class="st9" d="M1058.3,207.4l16.2,1.9c1.4,0.2,2.5,1.1,3,2.4c0.6,1.6,1.3,3.3,2,4.8
		c1.3,2.9,2.9,5.7,4.6,8.4c0.8,1.2,0.8,2.8,0,4l-9.6,14c-1,1.5-0.7,3.6,0.7,4.7l12,9.9c1.4,1.1,3.3,1,4.6-0.2l11.2-11
		c1.1-1.1,2.8-1.3,4.1-0.6c5.9,3.1,12.2,5.3,18.8,6.4c1.6,0.3,2.8,1.6,2.9,3.2l0.7,9.5c0.2,1.8,1.6,3.2,3.5,3.3l15.4,0.4
		c1.8,0.1,3.4-1.3,3.6-3.1l1.4-12.1l0.3-2.9c6.6-1.9,12.8-4.9,18.4-8.9c1.2-0.8,2.8-0.8,4,0l11.3,7.8c1.5,1.1,3.6,0.8,4.8-0.7
		l7.6-9.2l2.2-2.6c1.2-1.4,1.1-3.5-0.2-4.9l-9.2-9.4c-1.1-1-1.3-2.7-0.7-4c2-4,3.5-8.2,4.6-12.5c0.1-0.4,0.2-0.7,0.3-1.1
		c0-0.1,0.1-0.2,0.1-0.4c0.5-1.4,1.7-2.3,3.1-2.4l15.4-1.2c0.2,0,0.4,0,0.5-0.1c1.6-0.4,2.7-1.7,2.8-3.4l0.5-15.4
		c0.1-1.9-1.3-3.5-3.2-3.7l-16.9-2c-1.4-0.1-2.6-1.2-3-2.6c-0.9-3.1-2-6.1-3.3-9.1c-0.7-1.6-1.5-3.1-2.3-4.6
		c-0.7-1.2-0.6-2.7,0.2-3.9l9.2-13.5c1-1.5,0.7-3.5-0.7-4.7l-11.9-9.8c-1.4-1.2-3.6-1.1-4.9,0.2l-8.9,8.7c-1.2,1.2-3,1.4-4.4,0.5
		c-5.5-3.4-11.5-6-17.8-7.6c-1.5-0.4-2.6-1.7-2.7-3.2l-1.2-13.9c-0.2-1.9-1.7-3.3-3.6-3.4l-15.3-0.5c-1.8-0.1-3.4,1.3-3.6,3.1
		l-0.1,0.7l-1.6,14c-0.2,1.5-1.3,2.7-2.7,3.1l0,0c-3.6,0.9-7.1,2.1-10.4,3.7c-1.8,0.8-3.6,1.7-5.3,2.7c-1.2,0.7-2.7,0.6-3.8-0.1
		l-11.5-7.9c-1.6-1.1-3.7-0.8-4.9,0.7l-9.7,11.9c-0.3,0.3-0.5,0.7-0.6,1.1c-0.4,1.3-0.1,2.7,0.8,3.7l7.3,7.5
		c0.9,0.9,1.2,2.2,0.9,3.5c-0.1,0.3-0.2,0.6-0.4,0.9c-4.4,7.1-7.3,14.9-8.6,23.2c-0.2,1.4-1.2,2.5-2.6,2.9c-0.2,0.1-0.4,0.1-0.6,0.1
		l-12.5,1c-1.8,0.1-3.2,1.6-3.3,3.4v0.4l-0.5,15C1055,205.5,1056.4,207.1,1058.3,207.4z M1169.5,186c0.4,2.6,0.5,5.2,0.5,7.8
		c-0.2,5.2-3,12.8-6.3,16.8l-1.1,1.3c-22.1,25.1-61.2,10-60.4-23.9c0.1-4.4,2.1-10.5,4.7-14.8c0.6-0.9,1.2-1.8,1.9-2.7
		c2.8-3.4,6.2-6.3,9.9-8.6c16-9.6,36.7-4.4,46.3,11.6C1167.4,177.3,1168.9,181.6,1169.5,186z"/>
	<g id="Grupo_92549">
		<path id="Trazado_185209" class="st10" d="M1012.3,529.3c0,0,0-5.7,0.8-7.6s3.8-9.7,3.8-9.7h11.7c0,0,2.2,7.1,2.3,9.4s0,7.9,0,7.9
			L1012.3,529.3z"/>
		<path id="Trazado_185210" class="st10" d="M1086.6,529.3c0,0,0-5.7-0.8-7.6s-3.8-9.6-3.8-9.6h-11.7c0,0-2.2,7.1-2.3,9.4
			s0,7.9,0,7.9L1086.6,529.3z"/>
		<path id="Trazado_185211" class="st11" d="M1039.7,207.6c0,0-0.4,12.8-2,18.5l-12.9,9l48.7,7.3l-11.6-16c0,0-3.5-17.1-1.7-23.4
			S1039.7,207.6,1039.7,207.6z"/>
		<path id="Trazado_185212" class="st12" d="M1039.7,209.3c0,0,3.8,9.3,11.1,9.1s8.9-8.4,8.9-8.4L1039.7,209.3z"/>
		<path id="Trazado_185213" class="st13" d="M1035.3,201.8c0,0-2.3-11.7-4-15.2s-3-19.3,15.1-20.1c0,0,6.9,0.8,10.8-1.5
			c0,0,0,2.3-1,3.1c4.2-0.7,8.4,0.8,11.2,4c4.9,5.4-3.3,24.5-2.9,29L1035.3,201.8z"/>
		<path id="Trazado_185214" class="st11" d="M1049.9,214.8c-5.2-0.1-14.9-7.1-14.9-15.8v-13.5c0-3.2,2.2-5.8,4.9-5.8h20
			c2.7,0,4.9,2.6,4.9,5.8v12.8C1064.8,207.4,1055.9,214.9,1049.9,214.8z"/>
		<path id="Trazado_185215" class="st13" d="M1035,192.8c0,0,0-8.1,6.5-9.4s20.8,4,22.9-2s-27.8-5.8-29.3-2S1035,192.8,1035,192.8z"
			/>
		<path id="Trazado_185216" class="st14" d="M1013.8,330.8c0,0,2,62.5-1,98.2s0,85.4,0,85.4s9.8,5.4,20.4,0c0,0,11.7-69,11.6-85.4
			c-0.1-17.5,12.7-95.5,12.7-95.5L1013.8,330.8z"/>
		<path id="Trazado_185217" class="st14" d="M1086.2,514.4c0,0-9.8,5.4-20.4,0c0,0-11.7-69-11.6-85.4c0-7.4-2.2-25.6-4.8-44.1
			c-3.6-25.4-7.8-51.4-7.8-51.4l45.4-2.8c0,0-3.7,62.7-0.7,98.4S1086.2,514.4,1086.2,514.4z"/>
		<path id="Trazado_185218" class="st15" d="M1086.4,341.2c0,0-19.3,3.8-37,3.8c-7.6-0.1-15.2-0.7-22.7-1.7c-7.4-1-12.6-2-12.6-2
			s-3.9,0.4-1.6-19c1.8-14.7,1.2-28,0.8-41.6c0-1.5,0-3.3,0.1-5.3c0.8-15.9,5.6-44.6,9.2-46.2c4.9-1.6,10-2.6,15.1-3
			c0,0.2,5.6,8.4,12.2,9.3c4.1-1.6,7.4-3,11.9-9c6.3,0.7,12.5,1.9,18.6,3.6c0,0,0.7,3,3.3,55.8
			C1084.8,306.5,1091.9,341.2,1086.4,341.2z"/>
		<path id="Trazado_185219" class="st16" d="M1054.2,429c0-7.4-2.2-25.6-4.8-44.1c2.7-11.1,9.3-21.7,9.3-21.7
			C1067.1,386.6,1054.2,429,1054.2,429z"/>
		<path id="Trazado_185220" class="st15" d="M995,289.7c-0.9,2.8,1.5,6.5,3.9,11.6c4.9,10.7,13,26.4,13,26.4
			c-0.6,2.5-1.4,4.9-2.5,7.2c-13.6-10.7-22.4-19.8-28-26.8c-7.9-9.8-8.5-19.7-7.1-24c17.5-51.5,49.3-55.4,49.3-55.4l-2.5,40.8
			C1021.1,269.6,996.8,284.1,995,289.7z"/>
		<path id="Trazado_185221" class="st11" d="M1010.2,328.6c0,0,7.3-6.8,10.3-3s3.5,9.8,1.2,9.4s-7.1-2.6-7.8-1.5s-3.7,3.2-4.7,1.5
			S1010.2,328.6,1010.2,328.6z"/>
		<path id="Trazado_185222" class="st11" d="M1011.9,327.8c-0.6,2.5-1.4,4.9-2.5,7.2c-13.6-10.7-22.4-19.8-28-26.8
			c4.2-0.3,10.4-1.8,17.5-6.8C1003.8,312,1011.9,327.8,1011.9,327.8z"/>
		<path id="Trazado_185223" class="st15" d="M1127.9,288.3c0.1,3.2-0.5,10.1-8.4,19.9c-5.6,7-14.4,16.1-28,26.8
			c-1-2.3-1.8-4.7-2.5-7.2c0,0,8.1-15.8,13-26.4c2.4-5.2,4.1-7.6,3.5-9.6c-1.8-6.2-16.4-14.9-22.5-19.5c-1.1-0.8-2.2-1.7-3.2-2.7
			l0.6-39.6c0,0,8.1,2,13,7C1113.7,257.1,1127.3,273.3,1127.9,288.3z"/>
		<path id="Trazado_185224" class="st11" d="M1090.7,328.6c0,0-7.3-6.8-10.3-3s-3.5,9.8-1.2,9.4s7.1-2.6,7.8-1.5s3.7,3.2,4.7,1.5
			S1090.7,328.6,1090.7,328.6z"/>
		<path id="Trazado_185225" class="st11" d="M1089.1,327.8c0.6,2.5,1.4,4.9,2.5,7.2c13.6-10.7,22.4-19.8,28-26.8
			c-4.2-0.3-10.4-1.8-17.5-6.8C1097.2,312,1089.1,327.8,1089.1,327.8z"/>
		<path id="Trazado_185226" class="st17" d="M1038.3,222.9c-1.4,0.7-2.4,1.9-2.8,3.4c0,0,8.7,8.9,14.3,9.1L1038.3,222.9z"/>
		<path id="Trazado_185227" class="st17" d="M1049.9,235.3l11.2-12.9c1.3,0.9,2.2,2.4,2.3,4C1063.4,226.5,1054.7,235.7,1049.9,235.3
			z"/>
		<path id="Trazado_185228" class="st17" d="M1047.9,234.4c0,0-8.5,73.7-5.6,82.7c1.3,4,3.1,7.8,5.2,11.4c0.8,1.4,2.6,2,4.1,1.2
			c0.5-0.3,0.9-0.7,1.2-1.2c2.3-3.9,5.2-9.6,5.2-12.5c0-4.7-6.5-81.6-6.5-81.6L1047.9,234.4z"/>
		<path id="Trazado_185229" class="st17" d="M1045.7,230.9c2.8-0.4,5.5-0.5,8.3-0.3c0.6,0.1,1,1.1,0.7,1.9c-0.9,2.3-2.7,6.3-4.6,6.3
			C1047.4,238.8,1043.3,231.2,1045.7,230.9z"/>
		<path id="Trazado_185230" class="st18" d="M1045.7,206.1c1.1,1.4,2.7,2.1,4.5,2.1c1.7,0,3.2-0.8,4.2-2.1
			C1051.5,205.6,1048.6,205.6,1045.7,206.1z"/>
	</g>
	<g id="Grupo_92550">
		<path id="Trazado_185231" class="st19" d="M134.6,267.5c-0.8-2.5,11.3,5.1,25.7,0.3c12.4-4.2,1.2-12.3,4.4-22.6
			c2.2-7.3,1.5-27-17.7-27.8c0,0-4.6-2.8-11.3-0.6C120.6,221.9,89,271,134.6,267.5z"/>
		<path id="Trazado_185232" class="st14" d="M155.7,312.6c1.5,2.7,3.2,5.3,5.1,7.8c4,5,24.9-6.9,23.1-7.8s-12-29.9-16.3-35
			c-2.5-2.9-5.8-4.9-9.6-5.8L155.7,312.6z"/>
		<path id="Trazado_185233" class="st20" d="M85,517c0,0-5.8,5.3-4.7,9s6.3,6.2,7,10.8s3.6,7.1,6.1,7.1h12.1c0,0,1.9-3.2-2.6-4.2
			s-6.2-6.3-5.9-11.3c0.1-3.9,0-7.8-0.4-11.7l-9.5-2.2L85,517z"/>
		<path id="Trazado_185234" class="st20" d="M133.9,519.3c0,0-2.1,22.3,0.4,23.6l32.5-0.1c0,0,0-3.8-5.2-4.6s-14.4-3.9-15.9-10.7
			S133.9,519.3,133.9,519.3z"/>
		<path id="Trazado_185235" class="st14" d="M108.9,297.5c-0.3,5-0.3,10,0,15c0.3,5.4,5.8,12.7,6.6,14.5c2,4.5,4.2,5.2,4.2,5.2
			l17,4.2l6,1.5l18.9-5.6c0,0,8.6-24,5.1-37.6c-2-8-4.9-15.7-8.7-22.9c0,0-12.9-2.9-35.5-1.3L108.9,297.5z"/>
		<path id="Trazado_185236" class="st16" d="M107.3,312.7c0.3,5.4,7.4,12.5,8.2,14.3c2,4.5,4.2,5.2,4.2,5.2l17,4.2l4.6-6.4
			c0,0-27.6-7.7-22.4-32L107.3,312.7z"/>
		<path id="Trazado_185237" class="st21" d="M160.4,335.9c0,0,9.4,29.1,10,39.1s-17.9,141-18.6,145.5c-0.7,4.3-6.1,7.1-6.1,7.1
			c-1.9,0.9-4,1.1-6,0.5c-4.9-1.4-6.4-3-6.4-3s-7.3-93.5-2.8-126.8c2.7-20.6,4.3-41.4,4.6-62.3L160.4,335.9z"/>
		<path id="Trazado_185238" class="st15" d="M120.8,335c0,0-14.3,19.2-15.6,32.1s-2.1,58.5-4.9,71.1S87,475.2,87,514.5
			c1,1.7,2.6,2.9,4.4,3.5c1.3,0.4,2.6,0.8,3.9,1.1c2.8,0.6,5.6-0.7,6.8-3.2c7-14.2,29.5-60,30.6-69.5c0.8-6.7,7.9-51.2,23.4-77.3
			c3.7-6.3-2.3-31.2-2.3-31.2L120.8,335z"/>
		<path id="Trazado_185239" class="st16" d="M161.9,331.4c0,0-3.8,3-11.2,3.1c-8.9,0.2-31-2.3-31-2.3c-0.6,1.8-0.9,3.7-0.9,5.6
			c0,0,27,6.8,42.6,1C161.4,338.9,163.4,335.1,161.9,331.4z"/>
		<path id="Trazado_185240" class="st18" d="M148.8,337.6c0.3-2.2,2.3-3.8,4.6-3.6s3.8,2.3,3.6,4.6c-0.3,2.1-2,3.6-4.1,3.6
			C150.5,342,148.6,340,148.8,337.6z M150.1,337.6c0.3,1.5,1.7,2.5,3.2,2.2s2.5-1.7,2.2-3.2c-0.2-1.3-1.4-2.3-2.7-2.3
			C151.2,334.5,150,335.9,150.1,337.6L150.1,337.6z"/>
		<path id="Trazado_185241" class="st19" d="M133.3,350.6l40.6,0.4l20-46.9l-40.6-0.4L133.3,350.6z"/>
		<path id="Trazado_185242" class="st11" d="M138.6,329.4l3-3.6c1-0.9,2.2-1.6,3.5-2.1c1.5-0.3,4.6-2.1,4.9-1.6s-2.4,4.1-2.4,4.1
			h-0.1c3.1,2.3,10.8,0.3,11.8,1.2c1.2,1.1-1.6,3.6-3.1,5s-5.7,3.7-9,2.7c-2.4-0.8-6.2-1.5-6.2-1.5L138.6,329.4z"/>
		<path id="Trazado_185243" class="st11" d="M190.8,312.3c0,0-2.5-2.9-4.2-1.5s0.4,8.2,2,7.5S191.7,313.1,190.8,312.3z"/>
		<path id="Trazado_185244" class="st14" d="M122.5,270.5c0,0-13.5,1-18.7,13.5s-14.7,33.4-12.7,42.1c0.8,3.5,10.7,15.5,51.8,7.8
			c0,0-0.3-4.3-3.1-6.3c0,0-29-9.3-28.9-11.1c0.1-3.5,3.9-6.5,20.1-22.7C135.4,289.4,122.5,270.5,122.5,270.5z"/>
		<path id="Trazado_185245" class="st11" d="M131.5,271.1c-0.4-0.5,0.1-2.2,0.8-5.4c0.9-4,1.5-8.2,1.5-12.3l0.9,0.1l14.4,2.4
			c0,0-0.3,3.8-0.3,7.5v0.1c0,3.1,0.9,7.9-0.2,8.5C143,275.2,133,273.1,131.5,271.1z"/>
		<path id="Trazado_185246" class="st22" d="M149,255.9c0,0-0.3,5.4-0.3,9.1c-8.1-0.2-12.4-8-14.1-11.5L149,255.9z"/>
		<path id="Trazado_185247" class="st11" d="M149.9,262.4c0,0-18.9-2.7-17-14.4s0.7-20,12.8-18.8s13.8,6.1,14.1,10.1
			S154.8,262.8,149.9,262.4z"/>
		<path id="Trazado_185248" class="st19" d="M154.3,230.3c0,0-7.4,12.9-15.6,13.7s-11.3-1.9-11.3-1.9c4.5-2.8,7.8-7.1,9.4-12.1
			C136.8,230,151.4,223.1,154.3,230.3z"/>
		<path id="Trazado_185249" class="st19" d="M152.8,231.2c0,0,3.6,2,4.7,5.1c1.4,3.6,1.7,7.4,0.8,11.2c0,0,5.4-8.7,1.9-14.7
			C156.5,226.4,152.8,231.2,152.8,231.2z"/>
	</g>
	<path id="Trazado_185250" class="st23" d="M267.7,401.3h-64.3V337h64.3V401.3z M206.4,398.3h58.2V340h-58.2L206.4,398.3
		L206.4,398.3z"/>
	<path id="Trazado_185251" class="st15" d="M237.2,388.4c-1.4,0-2.6-0.6-3.5-1.6l-19.8-24c-1.5-2-1-4.9,1-6.4c1.9-1.4,4.4-1.1,6,0.6
		l15.7,19l28.4-47.7c1.3-2.2,4-2.9,6.2-1.6s2.9,4,1.6,6.2c0,0,0,0.1-0.1,0.1l-31.8,53.3c-0.8,1.3-2.1,2.1-3.6,2.2L237.2,388.4z"/>
	<path id="Trazado_185252" class="st23" d="M267.7,505.7h-64.3v-64.3h64.3V505.7z M206.4,502.7h58.2v-58.3h-58.2L206.4,502.7
		L206.4,502.7z"/>
	<path id="Trazado_185253" class="st15" d="M237.2,492.8c-1.4,0-2.6-0.6-3.5-1.6l-19.8-24c-1.7-1.8-1.6-4.7,0.2-6.4
		c1.8-1.7,4.7-1.6,6.4,0.2c0.1,0.1,0.2,0.3,0.3,0.4l15.7,19l28.4-47.7c1.3-2.2,4-2.9,6.2-1.6s2.9,4,1.6,6.2c0,0,0,0.1-0.1,0.1
		l-31.8,53.3c-0.8,1.3-2.1,2.1-3.6,2.2V492.8z"/>
	<g id="Grupo_92553">
		<g id="Grupo_92552">
			<path id="Trazado_185254" class="st14" d="M527.9,256.1c0,0-50.7,18.6-75.3,68.3l16.7-2.9l7.1,11.9c0,0,19.6-44.7,59.9-58.1
				L527.9,256.1z"/>
			<path id="Trazado_185255" class="st14" d="M511.1,258.8c0,0,52.2,13.7,81.5,60.7l-16.9-1.2l-5.9,12.5c0,0-23.8-42.6-65.2-52
				L511.1,258.8z"/>
			<circle id="Elipse_7620" class="st24" cx="525" cy="244.6" r="64.9"/>
			<g id="Grupo_92551" class="st25">
				<path id="Trazado_185256" class="st26" d="M525,302.8c-32.2,0-58.2-26.1-58.2-58.2s26.1-58.2,58.2-58.2s58.2,26.1,58.2,58.2l0,0
					C583.2,276.7,557.2,302.8,525,302.8z M525,188.2c-31.2,0-56.4,25.3-56.4,56.4S493.8,301,525,301s56.4-25.3,56.4-56.4
					S556.2,188.2,525,188.2L525,188.2z"/>
			</g>
		</g>
		<g id="Grupo">
			<g class="st6">
				<path class="st5" d="M495.2,230.9H492V217h3.1v13.9H495.2z"/>
				<path class="st5" d="M497.7,230.3v-3.1c0.6,0.5,1.2,0.8,1.8,1.1c0.7,0.2,1.3,0.4,2,0.4c0.4,0,0.7,0,1-0.1s0.5-0.2,0.7-0.3
					s0.3-0.3,0.4-0.4c0.1-0.2,0.1-0.4,0.1-0.6c0-0.3-0.1-0.5-0.2-0.7c-0.2-0.2-0.4-0.4-0.6-0.6c-0.3-0.2-0.6-0.4-1-0.5
					c-0.4-0.2-0.8-0.3-1.2-0.5c-1.1-0.5-1.9-1-2.4-1.7s-0.8-1.4-0.8-2.4c0-0.7,0.1-1.3,0.4-1.9c0.3-0.5,0.7-0.9,1.2-1.3
					c0.5-0.3,1.1-0.6,1.7-0.7s1.4-0.2,2.1-0.2s1.4,0,1.9,0.1c0.6,0.1,1.1,0.2,1.5,0.4v2.9c-0.2-0.2-0.5-0.3-0.8-0.4
					c-0.3-0.1-0.6-0.2-0.8-0.3c-0.3-0.1-0.6-0.1-0.9-0.2s-0.6-0.1-0.8-0.1c-0.4,0-0.7,0-1,0.1s-0.5,0.2-0.7,0.3s-0.4,0.3-0.5,0.4
					c-0.1,0.2-0.2,0.4-0.2,0.6c0,0.2,0.1,0.4,0.2,0.6c0.1,0.2,0.3,0.4,0.5,0.5s0.5,0.3,0.8,0.5s0.7,0.3,1.1,0.5
					c0.6,0.2,1.1,0.5,1.5,0.7c0.4,0.3,0.8,0.6,1.1,0.9c0.3,0.3,0.6,0.7,0.7,1.1c0.2,0.4,0.3,0.9,0.3,1.5c0,0.8-0.1,1.4-0.4,2
					s-0.7,1-1.2,1.3s-1.1,0.6-1.8,0.7s-1.4,0.2-2.1,0.2c-0.8,0-1.5-0.1-2.2-0.2C498.8,230.8,498.2,230.6,497.7,230.3z"/>
				<path class="st5" d="M515.4,231.1c-2,0-3.6-0.6-4.9-1.9c-1.3-1.3-1.9-3-1.9-5.1c0-2.2,0.6-4,1.9-5.3c1.3-1.4,3-2,5.1-2
					c2,0,3.6,0.7,4.8,2s1.8,3,1.8,5.1c0,2.2-0.6,4-1.9,5.3S517.4,231.1,515.4,231.1z M515.5,219.4c-1.1,0-2,0.4-2.6,1.2
					s-1,1.9-1,3.3c0,1.4,0.3,2.5,1,3.3c0.6,0.8,1.5,1.2,2.5,1.2c1.1,0,1.9-0.4,2.6-1.2c0.6-0.8,1-1.9,1-3.2c0-1.4-0.3-2.6-0.9-3.4
					C517.4,219.8,516.6,219.4,515.5,219.4z"/>
				<path class="st5" d="M532,216.9l-6.8,16.2h-2.7l6.8-16.2H532z"/>
				<path class="st5" d="M536.5,230.9h-3.1V217h3.1V230.9z"/>
				<path class="st5" d="M548,230.9h-8.3V217h8v2.6h-4.9v3.1h4.6v2.5h-4.6v3.2h5.2V230.9z"/>
				<path class="st5" d="M560.2,230.4c-1,0.5-2.3,0.7-4,0.7c-2.1,0-3.8-0.6-5-1.9c-1.2-1.3-1.8-2.9-1.8-5c0-2.2,0.7-4,2.1-5.4
					c1.4-1.4,3.2-2.1,5.4-2.1c1.4,0,2.5,0.2,3.4,0.5v3c-0.9-0.6-2-0.8-3.2-0.8c-1.3,0-2.4,0.4-3.2,1.2s-1.2,1.9-1.2,3.3
					c0,1.3,0.4,2.4,1.1,3.2c0.8,0.8,1.8,1.2,3.1,1.2c1.2,0,2.3-0.3,3.4-0.9L560.2,230.4L560.2,230.4z"/>
			</g>
			<g class="st6">
				<path class="st5" d="M498,252.2h5.9v2.5h-9.3v-1c0-0.7,0.1-1.4,0.4-1.9c0.2-0.6,0.5-1.1,0.9-1.5c0.4-0.5,0.8-0.8,1.2-1.2
					c0.4-0.3,0.8-0.7,1.2-0.9c0.4-0.3,0.8-0.6,1.1-0.8c0.3-0.3,0.6-0.5,0.8-0.8c0.2-0.3,0.4-0.5,0.5-0.8s0.2-0.6,0.2-0.9
					c0-0.6-0.2-1-0.5-1.3s-0.9-0.5-1.5-0.5c-1.2,0-2.3,0.5-3.4,1.4v-2.7c1.2-0.8,2.6-1.2,4.1-1.2c0.7,0,1.3,0.1,1.9,0.3
					s1,0.4,1.4,0.8s0.7,0.8,0.9,1.2c0.2,0.5,0.3,1,0.3,1.6s-0.1,1.2-0.3,1.7c-0.2,0.5-0.5,1-0.8,1.4s-0.7,0.8-1.1,1.1
					s-0.9,0.7-1.3,1c-0.3,0.2-0.6,0.4-0.9,0.7s-0.5,0.4-0.8,0.6c-0.2,0.2-0.4,0.4-0.5,0.6C498.1,251.8,498,252,498,252.2z"/>
				<path class="st5" d="M506.6,254.4v-2.6c1,0.6,2,0.9,3,0.9c0.8,0,1.4-0.2,1.9-0.6c0.5-0.4,0.7-0.9,0.7-1.6c0-1.4-1-2.1-2.9-2.1
					c-0.7,0-1.5,0.1-2.5,0.2l0.5-7.8h7.4v2.5h-5l-0.2,2.8c0.5,0,0.9-0.1,1.3-0.1c1.4,0,2.5,0.4,3.4,1.1c0.8,0.8,1.2,1.8,1.2,3
					c0,1.4-0.5,2.6-1.4,3.4c-1,0.9-2.3,1.3-3.9,1.3C508.7,255,507.6,254.8,506.6,254.4z"/>
				<path class="st5" d="M522.3,255c-3.3,0-5-2.3-5-7c0-2.4,0.4-4.3,1.3-5.5c0.9-1.3,2.2-1.9,3.9-1.9c3.2,0,4.9,2.4,4.9,7.1
					c0,2.4-0.4,4.2-1.3,5.4C525.3,254.3,524,255,522.3,255z M522.5,242.9c-1.3,0-2,1.7-2,5c0,3.1,0.7,4.7,2,4.7s1.9-1.6,1.9-4.9
					S523.7,242.9,522.5,242.9z"/>
				<path class="st5" d="M533.8,255c-3.3,0-5-2.3-5-7c0-2.4,0.4-4.3,1.3-5.5c0.9-1.3,2.2-1.9,3.9-1.9c3.2,0,4.9,2.4,4.9,7.1
					c0,2.4-0.4,4.2-1.3,5.4C536.7,254.3,535.4,255,533.8,255z M533.9,242.9c-1.3,0-2,1.7-2,5c0,3.1,0.7,4.7,2,4.7s1.9-1.6,1.9-4.9
					S535.2,242.9,533.9,242.9z"/>
				<path class="st5" d="M550.5,254.7h-3.1v-5.5c0-1.5-0.5-2.3-1.6-2.3c-0.5,0-1,0.2-1.3,0.6c-0.3,0.4-0.5,0.9-0.5,1.6v5.7h-3.1
					v-9.9h3.1v1.6l0,0c0.7-1.2,1.8-1.8,3.2-1.8c2.2,0,3.3,1.4,3.3,4.1L550.5,254.7L550.5,254.7z"/>
				<path class="st5" d="M554.3,247.9c-0.5,0-0.9-0.2-1.3-0.5c-0.3-0.3-0.5-0.7-0.5-1.1c0-0.5,0.2-0.8,0.5-1.1s0.8-0.4,1.3-0.4
					s1,0.2,1.3,0.5s0.5,0.7,0.5,1.1c0,0.5-0.2,0.9-0.5,1.2S554.8,247.9,554.3,247.9z M554.3,255c-0.5,0-0.9-0.2-1.3-0.5
					c-0.3-0.3-0.5-0.7-0.5-1.1c0-0.5,0.2-0.8,0.5-1.1s0.8-0.4,1.3-0.4s1,0.2,1.3,0.5s0.5,0.7,0.5,1.1c0,0.5-0.2,0.9-0.5,1.2
					S554.8,255,554.3,255z"/>
			</g>
		</g>
	</g>
</g>
<g class="st6">
	<path class="st18" d="M615.4,314.7v-12.8h3.6c1.1,0,2.1,0.2,3,0.7s1.5,1.2,2,2.1s0.7,2,0.7,3.1v0.8c0,1.2-0.2,2.3-0.7,3.2
		s-1.1,1.6-2,2.1s-1.9,0.7-3,0.7H615.4z M617.1,303.2v10h1.8c1.3,0,2.3-0.4,3-1.2s1.1-2,1.1-3.5v-0.7c0-1.5-0.3-2.6-1-3.4
		c-0.7-0.8-1.7-1.2-2.9-1.2H617.1z"/>
	<path class="st18" d="M627,302.6c0-0.3,0.1-0.5,0.2-0.7s0.4-0.3,0.7-0.3s0.6,0.1,0.7,0.3s0.2,0.4,0.2,0.7s-0.1,0.5-0.2,0.7
		s-0.4,0.3-0.7,0.3s-0.6-0.1-0.7-0.3S627,302.9,627,302.6z M628.7,314.7h-1.6v-9.5h1.6V314.7z"/>
	<path class="st18" d="M634.4,312.4l2.4-7.3h1.7l-3.4,9.5h-1.2l-3.4-9.5h1.7L634.4,312.4z"/>
	<path class="st18" d="M640,302.6c0-0.3,0.1-0.5,0.2-0.7s0.4-0.3,0.7-0.3s0.6,0.1,0.7,0.3s0.2,0.4,0.2,0.7s-0.1,0.5-0.2,0.7
		s-0.4,0.3-0.7,0.3s-0.6-0.1-0.7-0.3S640,302.9,640,302.6z M641.8,314.7h-1.6v-9.5h1.6V314.7z"/>
	<path class="st18" d="M649.9,312.1c0-0.4-0.2-0.8-0.5-1c-0.3-0.2-0.9-0.5-1.7-0.6s-1.5-0.4-2-0.6s-0.8-0.5-1.1-0.9
		s-0.3-0.7-0.3-1.2c0-0.8,0.3-1.4,1-2s1.5-0.8,2.5-0.8c1.1,0,2,0.3,2.6,0.8s1,1.3,1,2.1h-1.6c0-0.4-0.2-0.8-0.6-1.2
		s-0.9-0.5-1.4-0.5c-0.6,0-1.1,0.1-1.4,0.4s-0.5,0.6-0.5,1c0,0.4,0.2,0.7,0.5,0.9s0.9,0.4,1.7,0.6s1.5,0.4,2,0.7s0.9,0.6,1.1,0.9
		c0.2,0.4,0.4,0.8,0.4,1.3c0,0.8-0.3,1.5-1,2c-0.7,0.5-1.6,0.8-2.6,0.8c-0.8,0-1.4-0.1-2-0.4s-1-0.6-1.4-1.1c-0.3-0.5-0.5-1-0.5-1.6
		h1.6c0,0.5,0.2,1,0.7,1.3c0.4,0.3,0.9,0.5,1.6,0.5c0.6,0,1.1-0.1,1.5-0.4C649.7,312.9,649.9,312.5,649.9,312.1z"/>
	<path class="st18" d="M653.7,302.6c0-0.3,0.1-0.5,0.2-0.7s0.4-0.3,0.7-0.3s0.6,0.1,0.7,0.3s0.2,0.4,0.2,0.7s-0.1,0.5-0.2,0.7
		s-0.4,0.3-0.7,0.3s-0.6-0.1-0.7-0.3S653.7,302.9,653.7,302.6z M655.4,314.7h-1.6v-9.5h1.6V314.7z"/>
	<path class="st18" d="M657.6,309.8c0-0.9,0.2-1.8,0.5-2.5s0.9-1.3,1.5-1.7s1.4-0.6,2.2-0.6c1.3,0,2.3,0.4,3.1,1.3s1.2,2.1,1.2,3.6
		v0.1c0,0.9-0.2,1.8-0.5,2.5c-0.4,0.7-0.9,1.3-1.5,1.7s-1.4,0.6-2.3,0.6c-1.3,0-2.3-0.4-3.1-1.3s-1.2-2.1-1.2-3.6V309.8z M659.3,310
		c0,1.1,0.2,1.9,0.7,2.5s1.1,1,2,1c0.8,0,1.5-0.3,2-1c0.5-0.6,0.7-1.6,0.7-2.7c0-1-0.2-1.9-0.7-2.5c-0.5-0.6-1.2-1-2-1
		c-0.8,0-1.5,0.3-1.9,1S659.3,308.8,659.3,310z M662.7,301.2h2l-2.4,2.6l-1.3,0L662.7,301.2z"/>
	<path class="st18" d="M669.9,305.1l0.1,1.2c0.7-0.9,1.7-1.4,2.8-1.4c2,0,3,1.1,3,3.4v6.3h-1.6v-6.3c0-0.7-0.2-1.2-0.5-1.5
		s-0.8-0.5-1.4-0.5c-0.5,0-1,0.1-1.4,0.4s-0.7,0.7-0.9,1.1v6.8h-1.6v-9.5H669.9z"/>
	<path class="st18" d="M690.7,310c0,1.4-0.3,2.6-1,3.5s-1.6,1.3-2.7,1.3c-1.2,0-2.1-0.4-2.7-1.1v4.6h-1.6v-13.2h1.5l0.1,1.1
		c0.7-0.8,1.6-1.2,2.8-1.2c1.1,0,2,0.4,2.7,1.3s1,2.1,1,3.6V310z M689.1,309.8c0-1.1-0.2-1.9-0.7-2.5s-1.1-0.9-1.9-0.9
		c-1,0-1.7,0.4-2.2,1.3v4.5c0.5,0.9,1.2,1.3,2.2,1.3c0.8,0,1.4-0.3,1.9-0.9S689.1,311,689.1,309.8z"/>
	<path class="st18" d="M698.7,314.7c-0.1-0.2-0.2-0.5-0.2-1c-0.8,0.8-1.7,1.2-2.7,1.2c-0.9,0-1.7-0.3-2.3-0.8s-0.9-1.2-0.9-2
		c0-1,0.4-1.8,1.1-2.3s1.8-0.8,3.2-0.8h1.6v-0.7c0-0.6-0.2-1-0.5-1.4c-0.3-0.3-0.8-0.5-1.5-0.5c-0.6,0-1.1,0.1-1.5,0.4
		s-0.6,0.6-0.6,1.1h-1.6c0-0.5,0.2-0.9,0.5-1.4s0.8-0.8,1.4-1.1s1.2-0.4,1.9-0.4c1.1,0,2,0.3,2.6,0.8s0.9,1.3,1,2.3v4.4
		c0,0.9,0.1,1.6,0.3,2.1v0.1H698.7z M696,313.4c0.5,0,1-0.1,1.5-0.4s0.8-0.6,1-1v-2h-1.3c-2,0-3,0.6-3,1.7c0,0.5,0.2,0.9,0.5,1.2
		S695.4,313.4,696,313.4z"/>
</g>
<g class="st6">
	<path class="st18" d="M707.2,306.6c-0.2,0-0.5-0.1-0.8-0.1c-1.1,0-1.8,0.5-2.2,1.4v6.8h-1.6v-9.5h1.6l0,1.1
		c0.5-0.8,1.3-1.3,2.3-1.3c0.3,0,0.6,0,0.7,0.1V306.6z"/>
</g>
<g class="st6">
	<path class="st18" d="M714.2,314.7c-0.1-0.2-0.2-0.5-0.2-1c-0.8,0.8-1.7,1.2-2.7,1.2c-0.9,0-1.7-0.3-2.3-0.8
		c-0.6-0.5-0.9-1.2-0.9-2c0-1,0.4-1.8,1.1-2.3c0.8-0.5,1.8-0.8,3.2-0.8h1.6v-0.7c0-0.6-0.2-1-0.5-1.4c-0.3-0.3-0.8-0.5-1.5-0.5
		c-0.6,0-1.1,0.1-1.5,0.4s-0.6,0.6-0.6,1.1h-1.6c0-0.5,0.2-0.9,0.5-1.4c0.3-0.4,0.8-0.8,1.4-1.1c0.6-0.3,1.2-0.4,1.9-0.4
		c1.1,0,2,0.3,2.6,0.8s0.9,1.3,1,2.3v4.4c0,0.9,0.1,1.6,0.3,2.1v0.1H714.2z M711.5,313.4c0.5,0,1-0.1,1.5-0.4s0.8-0.6,1-1v-2h-1.3
		c-2,0-3,0.6-3,1.7c0,0.5,0.2,0.9,0.5,1.2S711,313.4,711.5,313.4z"/>
</g>
<g class="st6">
	<path class="st18" d="M614.8,333.8c0-1.5,0.3-2.7,1-3.5s1.6-1.3,2.7-1.3c1.2,0,2.1,0.4,2.7,1.2l0.1-1.1h1.5v9.3
		c0,1.2-0.4,2.2-1.1,2.9s-1.7,1.1-2.9,1.1c-0.7,0-1.4-0.1-2-0.4s-1.2-0.7-1.5-1.2l0.8-1c0.7,0.9,1.5,1.3,2.6,1.3
		c0.8,0,1.4-0.2,1.9-0.7s0.7-1.1,0.7-1.9v-0.8c-0.7,0.8-1.5,1.1-2.7,1.1c-1.1,0-2-0.4-2.7-1.3S614.8,335.4,614.8,333.8z M616.4,334
		c0,1.1,0.2,1.9,0.7,2.5c0.4,0.6,1.1,0.9,1.8,0.9c1,0,1.8-0.5,2.3-1.4v-4.3c-0.5-0.9-1.2-1.4-2.2-1.4c-0.8,0-1.4,0.3-1.9,0.9
		S616.4,332.8,616.4,334z"/>
	<path class="st18" d="M629.2,338.8c-1.3,0-2.3-0.4-3.1-1.3s-1.2-2-1.2-3.4v-0.3c0-0.9,0.2-1.8,0.5-2.5s0.9-1.3,1.5-1.7
		s1.3-0.6,2.1-0.6c1.2,0,2.2,0.4,2.9,1.2s1,2,1,3.5v0.7h-6.4c0,0.9,0.3,1.7,0.8,2.3c0.5,0.6,1.2,0.9,2,0.9c0.6,0,1.1-0.1,1.5-0.4
		s0.7-0.5,1-0.9l1,0.8C632,338.2,630.8,338.8,629.2,338.8z M629,330.3c-0.7,0-1.2,0.2-1.7,0.7s-0.7,1.1-0.8,2h4.8v-0.1
		c0-0.8-0.3-1.5-0.7-1.9S629.7,330.3,629,330.3z"/>
	<path class="st18" d="M640.3,336.1c0-0.4-0.2-0.8-0.5-1c-0.3-0.2-0.9-0.5-1.7-0.6s-1.5-0.4-2-0.6s-0.8-0.5-1.1-0.9
		s-0.3-0.7-0.3-1.2c0-0.8,0.3-1.4,1-2s1.5-0.8,2.5-0.8c1.1,0,2,0.3,2.6,0.8s1,1.3,1,2.1h-1.6c0-0.4-0.2-0.8-0.6-1.2
		s-0.9-0.5-1.4-0.5c-0.6,0-1.1,0.1-1.4,0.4s-0.5,0.6-0.5,1c0,0.4,0.2,0.7,0.5,0.9s0.9,0.4,1.7,0.6s1.5,0.4,2,0.7s0.9,0.6,1.1,0.9
		c0.2,0.4,0.4,0.8,0.4,1.3c0,0.8-0.3,1.5-1,2c-0.7,0.5-1.6,0.8-2.6,0.8c-0.8,0-1.4-0.1-2-0.4s-1-0.6-1.4-1.1c-0.3-0.5-0.5-1-0.5-1.6
		h1.6c0,0.5,0.2,1,0.7,1.3c0.4,0.3,0.9,0.5,1.6,0.5c0.6,0,1.1-0.1,1.5-0.4C640.1,336.9,640.3,336.5,640.3,336.1z"/>
	<path class="st18" d="M646.3,326.8v2.3h1.8v1.3h-1.8v5.9c0,0.4,0.1,0.7,0.2,0.9s0.4,0.3,0.8,0.3c0.2,0,0.4,0,0.8-0.1v1.3
		c-0.4,0.1-0.8,0.2-1.2,0.2c-0.7,0-1.3-0.2-1.6-0.7s-0.6-1.1-0.6-1.9v-5.9h-1.7v-1.3h1.7v-2.3H646.3z"/>
	<path class="st18" d="M649.9,326.6c0-0.3,0.1-0.5,0.2-0.7s0.4-0.3,0.7-0.3s0.6,0.1,0.7,0.3s0.2,0.4,0.2,0.7s-0.1,0.5-0.2,0.7
		s-0.4,0.3-0.7,0.3s-0.6-0.1-0.7-0.3S649.9,326.9,649.9,326.6z M651.7,338.7h-1.6v-9.5h1.6V338.7z"/>
	<path class="st18" d="M653.9,333.8c0-0.9,0.2-1.8,0.5-2.5s0.9-1.3,1.5-1.7s1.4-0.6,2.2-0.6c1.3,0,2.3,0.4,3.1,1.3s1.2,2.1,1.2,3.6
		v0.1c0,0.9-0.2,1.8-0.5,2.5c-0.4,0.7-0.9,1.3-1.5,1.7s-1.4,0.6-2.3,0.6c-1.3,0-2.3-0.4-3.1-1.3s-1.2-2.1-1.2-3.6V333.8z M655.5,334
		c0,1.1,0.2,1.9,0.7,2.5s1.1,1,2,1c0.8,0,1.5-0.3,2-1c0.5-0.6,0.7-1.6,0.7-2.7c0-1-0.2-1.9-0.7-2.5c-0.5-0.6-1.2-1-2-1
		c-0.8,0-1.5,0.3-1.9,1S655.5,332.8,655.5,334z M658.9,325.2h2l-2.4,2.6l-1.3,0L658.9,325.2z"/>
	<path class="st18" d="M666.1,329.1l0.1,1.2c0.7-0.9,1.7-1.4,2.8-1.4c2,0,3,1.1,3,3.4v6.3h-1.6v-6.3c0-0.7-0.2-1.2-0.5-1.5
		s-0.8-0.5-1.4-0.5c-0.5,0-1,0.1-1.4,0.4s-0.7,0.7-0.9,1.1v6.8h-1.6v-9.5H666.1z"/>
	<path class="st18" d="M678.6,333.8c0-1.5,0.3-2.6,1-3.5c0.7-0.9,1.6-1.3,2.7-1.3c1.1,0,2,0.4,2.6,1.1v-5h1.6v13.5h-1.5l-0.1-1
		c-0.7,0.8-1.6,1.2-2.7,1.2c-1.1,0-2-0.5-2.7-1.4s-1-2.1-1-3.5V333.8z M680.2,334c0,1.1,0.2,1.9,0.7,2.5s1.1,0.9,1.8,0.9
		c1,0,1.8-0.5,2.3-1.4v-4.4c-0.5-0.9-1.2-1.3-2.2-1.3c-0.8,0-1.4,0.3-1.9,0.9S680.2,332.8,680.2,334z"/>
	<path class="st18" d="M693.1,338.8c-1.3,0-2.3-0.4-3.1-1.3s-1.2-2-1.2-3.4v-0.3c0-0.9,0.2-1.8,0.5-2.5s0.9-1.3,1.5-1.7
		s1.3-0.6,2.1-0.6c1.2,0,2.2,0.4,2.9,1.2s1,2,1,3.5v0.7h-6.4c0,0.9,0.3,1.7,0.8,2.3c0.5,0.6,1.2,0.9,2,0.9c0.6,0,1.1-0.1,1.5-0.4
		s0.7-0.5,1-0.9l1,0.8C695.8,338.2,694.6,338.8,693.1,338.8z M692.9,330.3c-0.7,0-1.2,0.2-1.7,0.7s-0.7,1.1-0.8,2h4.8v-0.1
		c0-0.8-0.3-1.5-0.7-1.9S693.5,330.3,692.9,330.3z"/>
	<path class="st18" d="M704.9,338.7h-1.6v-13.5h1.6V338.7z"/>
	<path class="st18" d="M713.3,338.7c-0.1-0.2-0.2-0.5-0.2-1c-0.8,0.8-1.7,1.2-2.7,1.2c-0.9,0-1.7-0.3-2.3-0.8s-0.9-1.2-0.9-2
		c0-1,0.4-1.8,1.1-2.3s1.8-0.8,3.2-0.8h1.6v-0.7c0-0.6-0.2-1-0.5-1.4c-0.3-0.3-0.8-0.5-1.5-0.5c-0.6,0-1.1,0.1-1.5,0.4
		s-0.6,0.6-0.6,1.1h-1.6c0-0.5,0.2-0.9,0.5-1.4s0.8-0.8,1.4-1.1s1.2-0.4,1.9-0.4c1.1,0,2,0.3,2.6,0.8s0.9,1.3,1,2.3v4.4
		c0,0.9,0.1,1.6,0.3,2.1v0.1H713.3z M710.6,337.4c0.5,0,1-0.1,1.5-0.4s0.8-0.6,1-1v-2h-1.3c-2,0-3,0.6-3,1.7c0,0.5,0.2,0.9,0.5,1.2
		S710.1,337.4,710.6,337.4z"/>
</g>
<g class="st6">
	<path class="st18" d="M619,361.5c0.6,0,1.1-0.2,1.5-0.5s0.7-0.8,0.7-1.3h1.5c0,0.5-0.2,1.1-0.6,1.6s-0.8,0.9-1.4,1.2
		s-1.2,0.4-1.8,0.4c-1.3,0-2.3-0.4-3.1-1.3c-0.8-0.9-1.1-2-1.1-3.5v-0.3c0-0.9,0.2-1.7,0.5-2.5s0.8-1.3,1.5-1.7s1.4-0.6,2.3-0.6
		c1.1,0,2,0.3,2.7,1s1.1,1.5,1.1,2.5h-1.5c0-0.6-0.3-1.1-0.7-1.5c-0.4-0.4-0.9-0.6-1.6-0.6c-0.8,0-1.5,0.3-1.9,0.9s-0.7,1.5-0.7,2.6
		v0.3c0,1.1,0.2,1.9,0.7,2.5S618.1,361.5,619,361.5z"/>
	<path class="st18" d="M630.4,362.7c-0.1-0.2-0.2-0.5-0.2-1c-0.8,0.8-1.7,1.2-2.7,1.2c-0.9,0-1.7-0.3-2.3-0.8s-0.9-1.2-0.9-2
		c0-1,0.4-1.8,1.1-2.3s1.8-0.8,3.2-0.8h1.6v-0.7c0-0.6-0.2-1-0.5-1.4c-0.3-0.3-0.8-0.5-1.5-0.5c-0.6,0-1.1,0.1-1.5,0.4
		s-0.6,0.6-0.6,1.1h-1.6c0-0.5,0.2-0.9,0.5-1.4s0.8-0.8,1.4-1.1s1.2-0.4,1.9-0.4c1.1,0,2,0.3,2.6,0.8s0.9,1.3,1,2.3v4.4
		c0,0.9,0.1,1.6,0.3,2.1v0.1H630.4z M627.7,361.4c0.5,0,1-0.1,1.5-0.4s0.8-0.6,1-1v-2h-1.3c-2,0-3,0.6-3,1.7c0,0.5,0.2,0.9,0.5,1.2
		S627.2,361.4,627.7,361.4z"/>
	<path class="st18" d="M636.1,362.7h-1.6v-13.5h1.6V362.7z"/>
	<path class="st18" d="M638.7,350.6c0-0.3,0.1-0.5,0.2-0.7s0.4-0.3,0.7-0.3s0.6,0.1,0.7,0.3s0.2,0.4,0.2,0.7s-0.1,0.5-0.2,0.7
		s-0.4,0.3-0.7,0.3s-0.6-0.1-0.7-0.3S638.7,350.9,638.7,350.6z M640.5,362.7h-1.6v-9.5h1.6V362.7z"/>
	<path class="st18" d="M642.7,357.8c0-1.5,0.3-2.6,1-3.5c0.7-0.9,1.6-1.3,2.7-1.3c1.1,0,2,0.4,2.6,1.1v-5h1.6v13.5h-1.5l-0.1-1
		c-0.7,0.8-1.6,1.2-2.7,1.2c-1.1,0-2-0.5-2.7-1.4s-1-2.1-1-3.5V357.8z M644.3,358c0,1.1,0.2,1.9,0.7,2.5s1.1,0.9,1.8,0.9
		c1,0,1.8-0.5,2.3-1.4v-4.4c-0.5-0.9-1.2-1.3-2.2-1.3c-0.8,0-1.4,0.3-1.9,0.9S644.3,356.8,644.3,358z"/>
	<path class="st18" d="M659.1,362.7c-0.1-0.2-0.2-0.5-0.2-1c-0.8,0.8-1.7,1.2-2.7,1.2c-0.9,0-1.7-0.3-2.3-0.8s-0.9-1.2-0.9-2
		c0-1,0.4-1.8,1.1-2.3s1.8-0.8,3.2-0.8h1.6v-0.7c0-0.6-0.2-1-0.5-1.4c-0.3-0.3-0.8-0.5-1.5-0.5c-0.6,0-1.1,0.1-1.5,0.4
		s-0.6,0.6-0.6,1.1h-1.6c0-0.5,0.2-0.9,0.5-1.4s0.8-0.8,1.4-1.1s1.2-0.4,1.9-0.4c1.1,0,2,0.3,2.6,0.8s0.9,1.3,1,2.3v4.4
		c0,0.9,0.1,1.6,0.3,2.1v0.1H659.1z M656.4,361.4c0.5,0,1-0.1,1.5-0.4s0.8-0.6,1-1v-2h-1.3c-2,0-3,0.6-3,1.7c0,0.5,0.2,0.9,0.5,1.2
		S655.9,361.4,656.4,361.4z"/>
	<path class="st18" d="M662.6,357.8c0-1.5,0.3-2.6,1-3.5c0.7-0.9,1.6-1.3,2.7-1.3c1.1,0,2,0.4,2.6,1.1v-5h1.6v13.5h-1.5l-0.1-1
		c-0.7,0.8-1.6,1.2-2.7,1.2c-1.1,0-2-0.5-2.7-1.4s-1-2.1-1-3.5V357.8z M664.3,358c0,1.1,0.2,1.9,0.7,2.5s1.1,0.9,1.8,0.9
		c1,0,1.8-0.5,2.3-1.4v-4.4c-0.5-0.9-1.2-1.3-2.2-1.3c-0.8,0-1.4,0.3-1.9,0.9S664.3,356.8,664.3,358z"/>
</g>
</svg>
