<svg xmlns="http://www.w3.org/2000/svg" width="361.1" height="646.678" viewBox="0 0 361.1 646.678">
  <g id="Grupo_94361" data-name="Grupo 94361" transform="translate(-280.9 -7486.661)">
    <g id="Grupo_94143" data-name="Grupo 94143" transform="translate(176.46 7433.342)">
      <g id="Grupo_94131" data-name="Grupo 94131">
        <path id="Trazado_190974" data-name="Trazado 190974" d="M391.85,628.32a36.828,36.828,0,0,0,1-6.64h0l3.16-1.83v7.34a37.3,37.3,0,0,1-1.45,8.09v.21h0v.5h0v.06l-.07.19h0v.07l-.05.14h0v.06l-.05.14v.06h0l-.06.15v.07h0l-.06.14v.07h0l-.09.21h0c-.05.15-.11.29-.17.43h0l-.09.22h0l-.12.25h0c-.11.24-.22.47-.34.7h0l-.11.21-.15.28h0c-2.78,5.13-8.38,8.63-9.22,9.13l-19,11c-6.32,3.65-9.48,5.47-12.64,5.47s-6.31-1.82-12.63-5.47L289.18,630.4c-6.24-3.61-9.39-5.43-9.47-7.23h0v-7.36c0,1.82,3.16,3.65,9.48,7.29l50.53,29.17c12.63,7.3,12.63,7.3,25.27,0l15.9-9.17c.84-.51,6.43-4,9.21-9.14h0a25.654,25.654,0,0,0,2.26-6" fill="#36d1c0" fill-rule="evenodd"/>
        <path id="Trazado_190975" data-name="Trazado 190975" d="M391.85,628.32a36.828,36.828,0,0,0,1-6.64h0l3.16-1.83v7.34a37.3,37.3,0,0,1-1.45,8.09v.21h0v.5h0v.06l-.07.19h0v.07l-.05.14h0v.06l-.05.14v.06h0l-.06.15v.07h0l-.06.14v.07h0l-.09.21h0c-.05.15-.11.29-.17.43h0l-.09.22h0l-.12.25h0c-.11.24-.22.47-.34.7h0l-.11.21-.15.28h0c-2.78,5.13-8.38,8.63-9.22,9.13l-1,.58-6.32-3.65,4.16-2.39c.84-.51,6.43-4,9.21-9.14h0a25.649,25.649,0,0,0,2.26-6" fill="#28559a" fill-rule="evenodd"/>
        <path id="Trazado_190976" data-name="Trazado 190976" d="M317.1,577.92a32.714,32.714,0,0,1-3.3,12.63c-2.87,5.29-8.42,8.66-9.23,9.15l-15.9,9.18c-12.62,7.29-12.62,7.29,0,14.58l50.53,29.17c12.63,7.3,12.63,7.3,25.27,0l15.9-9.17c.84-.51,6.43-4,9.21-9.14h0a25.65,25.65,0,0,0,2.26-6,36.836,36.836,0,0,0,1-6.64h0l-75.79-43.76h0Z" fill="#039be5" fill-rule="evenodd"/>
        <path id="Trazado_190977" data-name="Trazado 190977" d="M317.1,577.92a32.714,32.714,0,0,1-3.3,12.63h0c-2.79,5.15-8.42,8.66-9.23,9.15l-4.15,2.39,75.8,43.76,4.16-2.39c.84-.51,6.43-4,9.21-9.14h0a25.649,25.649,0,0,0,2.26-6,36.834,36.834,0,0,0,1-6.64h0l-75.79-43.76h0Z" fill="#3778c2" fill-rule="evenodd"/>
        <path id="Trazado_190978" data-name="Trazado 190978" d="M175,463V266.09c0-29.18,0-29.19,25.27-14.6L427.64,382.77c25.26,14.59,25.26,14.59,25.26,43.77V623.46Z" fill="#fff" fill-rule="evenodd"/>
        <path id="Trazado_190979" data-name="Trazado 190979" d="M427.65,645.35,200.27,514.07C175,499.47,175,499.47,175,470.28V463L452.9,623.46v7.28c0,29.19,0,29.19-25.25,14.61" fill="#039be5" fill-rule="evenodd"/>
        <path id="Trazado_190980" data-name="Trazado 190980" d="M190.78,235.1c3.16-1.82,9.48,1.82,22.1,9.11L440.27,375.49c25.27,14.59,25.27,14.59,25.27,43.77v204.2c0,14.64,0,21.93-3.18,23.73h0l-11.91,6.73h0c1.77-1.79,2.27-6,2.41-13.26h0v-3.51h0V426.54c0-29.18,0-29.18-25.26-43.77L200.25,251.49l-1.34-.77h-.07l-.23-.13-.22-.14h0l-.21-.12-.23-.13-.1-.06-.12-.06-.22-.13-.19-.11h0l-.22-.13-.22-.12h-.05l-.17-.1-.21-.12-.14-.08h-.07L196,249l-.21-.12h0l-.21-.12-.2-.12h-.09l-.12-.07-.21-.12-.16-.09h0l-.2-.12-.2-.11h0l-.16-.09-.2-.12-.11-.06-.09-.05-.19-.11-.19-.1h0l-.19-.1-.19-.11h-.06l-.13-.07-.19-.1-.13-.08h-.06l-.18-.1h0l-.34-.19-.18-.1-.09-.05h-.09l-.18-.09-.16-.09h0l-.18-.1-.17-.09-.18-.1-.17-.09-.11-.06h-.06l-.17-.1-.34-.18-.16-.08h-.07l-.1-.05-.16-.09-.14-.07h0l-.16-.09h0l-.3-.15-.16-.09h-.15l-.16-.08-.15-.07h0l-.15-.08c-4.8-2.41-7.81-3.27-9.69-2.18L191,235.49Z" fill="#3778c2" fill-rule="evenodd"/>
        <path id="Trazado_190981" data-name="Trazado 190981" d="M320.16,562.65c0,4.59-2.78,6.66-6.22,4.62s-6.22-7.4-6.22-12,2.79-6.66,6.22-4.63,6.22,7.41,6.22,12" fill="#dbd9fe" fill-rule="evenodd"/>
        <path id="Trazado_190982" data-name="Trazado 190982" d="M440.27,404.66V605.89L277.36,511.83l81.21-154.34Z" fill="#3778c2"/>
        <path id="Trazado_190983" data-name="Trazado 190983" d="M200.25,251.49l164.2,94.8h0l-5.88,11.2-170.95-98.7V460l89.74,51.81-4.15,7.89L175,463V266.09C175,236.91,175,236.9,200.25,251.49Z" fill="#9df"/>
        <path id="Trazado_190984" data-name="Trazado 190984" d="M187.62,258.79V460.02l89.74,51.81,81.21-154.34Z" fill="#104c82"/>
      </g>
      <path id="Trazado_190985" data-name="Trazado 190985" d="M421.16,397.61V590.88L206.72,467.06V273.81Z" fill="#039be5" fill-rule="evenodd"/>
      <path id="Trazado_190986" data-name="Trazado 190986" d="M206.72,273.8v20.4L421.16,418V397.61Z" fill="#36d1c0" fill-rule="evenodd"/>
      <g id="Grupo_94132" data-name="Grupo 94132">
        <path id="Trazado_190987" data-name="Trazado 190987" d="M338.66,393l-25.85-14.92a3.57,3.57,0,0,1-1.31-4.89h0a3.57,3.57,0,0,1,4.88-1.31l25.86,14.93a3.58,3.58,0,0,1,1.31,4.88h0a3.58,3.58,0,0,1-4.89,1.31Z" fill="#28559a"/>
        <path id="Trazado_190988" data-name="Trazado 190988" d="M338.65,411.5,312.8,396.57a3.56,3.56,0,0,1-1.3-4.88h0a3.57,3.57,0,0,1,4.88-1.31l25.85,14.93a3.57,3.57,0,0,1,1.31,4.88h0a3.58,3.58,0,0,1-4.89,1.31Z" fill="#28559a"/>
        <path id="Trazado_190989" data-name="Trazado 190989" d="M338.65,430,312.8,415.08a3.58,3.58,0,0,1-1.31-4.89h0a3.59,3.59,0,0,1,4.89-1.31l25.85,14.93a3.58,3.58,0,0,1,1.31,4.89h0a3.59,3.59,0,0,1-4.89,1.3Z" fill="#28559a"/>
        <path id="Trazado_190990" data-name="Trazado 190990" d="M338.66,448.51,312.8,433.58a3.57,3.57,0,0,1-1.31-4.88h0a3.56,3.56,0,0,1,4.88-1.31l25.87,14.92a3.59,3.59,0,0,1,1.31,4.89h0a3.59,3.59,0,0,1-4.89,1.31Z" fill="#28559a"/>
        <path id="Trazado_190991" data-name="Trazado 190991" d="M338.66,467,312.8,452.09a3.58,3.58,0,0,1-1.31-4.89h0a3.57,3.57,0,0,1,4.88-1.31l25.86,14.92a3.58,3.58,0,0,1,1.32,4.89h0a3.58,3.58,0,0,1-4.89,1.3Z" fill="#28559a"/>
        <path id="Trazado_190992" data-name="Trazado 190992" d="M338.66,485.51,312.8,470.59a3.58,3.58,0,0,1-1.31-4.89h0a3.57,3.57,0,0,1,4.88-1.31l25.86,14.92a3.58,3.58,0,0,1,1.32,4.89h0a3.58,3.58,0,0,1-4.89,1.31Z" fill="#28559a"/>
        <path id="Trazado_190993" data-name="Trazado 190993" d="M338.66,504,312.8,489.09a3.58,3.58,0,0,1-1.31-4.89h0a3.58,3.58,0,0,1,4.88-1.31l25.87,14.93a3.58,3.58,0,0,1,1.31,4.88h0a3.57,3.57,0,0,1-4.89,1.3Z" fill="#28559a"/>
        <path id="Trazado_190994" data-name="Trazado 190994" d="M338.66,522.51l-25.85-14.92a3.58,3.58,0,0,1-1.31-4.89h0a3.59,3.59,0,0,1,4.89-1.31l25.85,14.93a3.58,3.58,0,0,1,1.31,4.88h0a3.58,3.58,0,0,1-4.89,1.31Z" fill="#28559a"/>
      </g>
      <g id="Grupo_94136" data-name="Grupo 94136">
        <g id="Grupo_94133" data-name="Grupo 94133">
          <path id="Trazado_190995" data-name="Trazado 190995" d="M274.57,356l-57.9-33.43a3.57,3.57,0,0,1-1.31-4.88h0a3.57,3.57,0,0,1,4.89-1.31l57.89,33.42a3.58,3.58,0,0,1,1.31,4.89h0a3.57,3.57,0,0,1-4.88,1.31Z" fill="#fff"/>
          <path id="Trazado_190996" data-name="Trazado 190996" d="M274.57,374.5l-57.9-33.43a3.57,3.57,0,0,1-1.31-4.88h0a3.58,3.58,0,0,1,4.89-1.31l57.89,33.42a3.58,3.58,0,0,1,1.31,4.89h0a3.57,3.57,0,0,1-4.88,1.31Z" fill="#fff"/>
          <path id="Trazado_190997" data-name="Trazado 190997" d="M274.57,393l-57.9-33.42a3.59,3.59,0,0,1-1.31-4.89h0a3.58,3.58,0,0,1,4.89-1.31l57.89,33.43a3.57,3.57,0,0,1,1.31,4.88h0a3.57,3.57,0,0,1-4.88,1.31Z" fill="#fff"/>
          <path id="Trazado_190998" data-name="Trazado 190998" d="M274.57,411.5l-57.9-33.42a3.59,3.59,0,0,1-1.31-4.89h0a3.58,3.58,0,0,1,4.89-1.31l57.89,33.43a3.57,3.57,0,0,1,1.31,4.88h0a3.56,3.56,0,0,1-4.88,1.31Z" fill="#fff"/>
          <path id="Trazado_190999" data-name="Trazado 190999" d="M274.57,430l-57.9-33.43a3.58,3.58,0,0,1-1.31-4.88h0a3.58,3.58,0,0,1,4.89-1.31l57.89,33.43a3.57,3.57,0,0,1,1.31,4.88h0a3.57,3.57,0,0,1-4.88,1.31Z" fill="#fff"/>
          <path id="Trazado_191000" data-name="Trazado 191000" d="M274.57,448.51l-57.9-33.43a3.59,3.59,0,0,1-1.31-4.89h0a3.58,3.58,0,0,1,4.89-1.3l57.89,33.42a3.58,3.58,0,0,1,1.31,4.89h0a3.58,3.58,0,0,1-4.88,1.31Z" fill="#fff"/>
          <path id="Trazado_191001" data-name="Trazado 191001" d="M274.57,467l-57.9-33.43a3.58,3.58,0,0,1-1.31-4.88h0a3.57,3.57,0,0,1,4.89-1.31l57.89,33.43a3.57,3.57,0,0,1,1.31,4.88h0a3.57,3.57,0,0,1-4.88,1.31Z" fill="#fff"/>
          <path id="Trazado_191002" data-name="Trazado 191002" d="M274.57,485.51l-57.91-33.43a3.58,3.58,0,0,1-1.31-4.88h0a3.58,3.58,0,0,1,4.89-1.31l57.9,33.42a3.58,3.58,0,0,1,1.31,4.89h0a3.57,3.57,0,0,1-4.88,1.31Z" fill="#fff"/>
        </g>
        <g id="Grupo_94134" data-name="Grupo 94134">
          <path id="Trazado_191003" data-name="Trazado 191003" d="M402.74,430l-41.87-24.17a3.59,3.59,0,0,1-1.31-4.89h0a3.58,3.58,0,0,1,4.89-1.31l41.87,24.18a3.58,3.58,0,0,1,1.31,4.89h0a3.58,3.58,0,0,1-4.89,1.3Z" fill="#fff"/>
          <path id="Trazado_191004" data-name="Trazado 191004" d="M402.76,448.51l-41.89-24.18a3.58,3.58,0,0,1-1.31-4.88h0a3.58,3.58,0,0,1,4.89-1.31l41.88,24.17a3.57,3.57,0,0,1,1.31,4.89h0a3.57,3.57,0,0,1-4.88,1.31Z" fill="#fff"/>
          <path id="Trazado_191005" data-name="Trazado 191005" d="M402.76,467l-41.89-24.18a3.58,3.58,0,0,1-1.31-4.88h0a3.58,3.58,0,0,1,4.89-1.31l41.88,24.18a3.56,3.56,0,0,1,1.31,4.88h0a3.57,3.57,0,0,1-4.88,1.31Z" fill="#fff"/>
          <path id="Trazado_191006" data-name="Trazado 191006" d="M402.76,485.51l-41.89-24.17a3.59,3.59,0,0,1-1.31-4.89h0a3.58,3.58,0,0,1,4.89-1.31l41.88,24.17a3.57,3.57,0,0,1,1.31,4.89h0A3.58,3.58,0,0,1,402.76,485.51Z" fill="#fff"/>
          <path id="Trazado_191007" data-name="Trazado 191007" d="M402.75,504l-41.88-24.18a3.58,3.58,0,0,1-1.31-4.88h0a3.58,3.58,0,0,1,4.89-1.31l41.88,24.17a3.58,3.58,0,0,1,1.31,4.89h0a3.58,3.58,0,0,1-4.89,1.31Z" fill="#fff"/>
          <path id="Trazado_191008" data-name="Trazado 191008" d="M402.76,522.52l-41.89-24.19a3.58,3.58,0,0,1-1.31-4.88h0a3.58,3.58,0,0,1,4.89-1.31l41.89,24.18a3.58,3.58,0,0,1,1.3,4.89h0a3.57,3.57,0,0,1-4.88,1.31Z" fill="#fff"/>
          <path id="Trazado_191009" data-name="Trazado 191009" d="M402.74,541l-41.87-24.18a3.59,3.59,0,0,1-1.31-4.89h0a3.59,3.59,0,0,1,4.89-1.31l41.87,24.18a3.58,3.58,0,0,1,1.31,4.89h0a3.59,3.59,0,0,1-4.89,1.31Z" fill="#fff"/>
          <path id="Trazado_191010" data-name="Trazado 191010" d="M402.74,559.51l-41.87-24.17a3.59,3.59,0,0,1-1.31-4.89h0a3.59,3.59,0,0,1,4.89-1.31l41.87,24.18a3.57,3.57,0,0,1,1.31,4.88h0a3.57,3.57,0,0,1-4.89,1.31Z" fill="#fff"/>
        </g>
        <g id="Grupo_94135" data-name="Grupo 94135">
          <path id="Trazado_191011" data-name="Trazado 191011" d="M258.54,346.75l-41.87-24.18a3.57,3.57,0,0,1-1.31-4.88h0a3.58,3.58,0,0,1,4.89-1.31l41.87,24.17a3.58,3.58,0,0,1,1.31,4.89h0a3.58,3.58,0,0,1-4.89,1.31Z" fill="#36d1c0"/>
          <path id="Trazado_191012" data-name="Trazado 191012" d="M242.52,356l-25.85-14.93a3.57,3.57,0,0,1-1.31-4.88h0a3.58,3.58,0,0,1,4.89-1.31l25.84,14.92a3.58,3.58,0,0,1,1.31,4.89h0a3.58,3.58,0,0,1-4.88,1.31Z" fill="#36d1c0"/>
          <path id="Trazado_191013" data-name="Trazado 191013" d="M226.5,365.25l-9.83-5.67a3.57,3.57,0,0,1-1.31-4.88h0a3.58,3.58,0,0,1,4.89-1.31l9.82,5.66a3.58,3.58,0,0,1,1.31,4.89h0a3.57,3.57,0,0,1-4.88,1.31Z" fill="#36d1c0"/>
          <path id="Trazado_191014" data-name="Trazado 191014" d="M242.52,393l-25.85-14.91a3.58,3.58,0,0,1-1.31-4.89h0a3.58,3.58,0,0,1,4.89-1.31l25.85,14.92a3.57,3.57,0,0,1,1.31,4.88h0A3.58,3.58,0,0,1,242.52,393Z" fill="#36d1c0"/>
          <path id="Trazado_191015" data-name="Trazado 191015" d="M258.54,439.25l-41.87-24.16a3.58,3.58,0,0,1-1.31-4.89h0a3.58,3.58,0,0,1,4.89-1.31l41.86,24.17a3.56,3.56,0,0,1,1.31,4.88h0a3.56,3.56,0,0,1-4.88,1.31Z" fill="#36d1c0"/>
          <path id="Trazado_191016" data-name="Trazado 191016" d="M242.52,448.51l-25.85-14.92a3.58,3.58,0,0,1-1.31-4.89h0a3.59,3.59,0,0,1,4.89-1.31l25.85,14.92a3.58,3.58,0,0,1,1.31,4.89h0a3.58,3.58,0,0,1-4.89,1.31Z" fill="#36d1c0"/>
          <path id="Trazado_191017" data-name="Trazado 191017" d="M258.54,476.26l-41.87-24.19a3.57,3.57,0,0,1-1.31-4.88h0a3.58,3.58,0,0,1,4.89-1.31l41.87,24.18a3.58,3.58,0,0,1,1.31,4.89h0A3.59,3.59,0,0,1,258.54,476.26Z" fill="#36d1c0"/>
        </g>
      </g>
      <g id="Grupo_94137" data-name="Grupo 94137">
        <path id="Trazado_191018" data-name="Trazado 191018" d="M326.82,699.88h0a2.6,2.6,0,0,1-1.74-3.26l72.66-237.73a2.62,2.62,0,0,1,3.27-1.74h0a2.62,2.62,0,0,1,1.74,3.27L330.08,698.15a2.6,2.6,0,0,1-3.26,1.73Z" fill="#28559a"/>
        <path id="Trazado_191019" data-name="Trazado 191019" d="M277.36,671.33h0a2.62,2.62,0,0,1-1.74-3.27l72.66-237.73a2.62,2.62,0,0,1,3.27-1.74h0a2.62,2.62,0,0,1,1.74,3.27L280.63,669.59A2.62,2.62,0,0,1,277.36,671.33Z" fill="#28559a"/>
      </g>
      <g id="Grupo_94138" data-name="Grupo 94138">
        <path id="Trazado_191020" data-name="Trazado 191020" d="M387.5,494.2l-46.44-26.82a1.74,1.74,0,0,1-.64-2.38h0a1.75,1.75,0,0,1,2.38-.64l46.44,26.81a1.75,1.75,0,0,1,.64,2.39h0a1.75,1.75,0,0,1-2.38.64Z" fill="#3778c2"/>
        <path id="Trazado_191021" data-name="Trazado 191021" d="M380.08,518.47l-46.44-26.81a1.74,1.74,0,0,1-.64-2.38h0a1.74,1.74,0,0,1,2.38-.63l46.44,26.81a1.74,1.74,0,0,1,.64,2.38h0a1.74,1.74,0,0,1-2.38.63Z" fill="#3778c2"/>
        <path id="Trazado_191022" data-name="Trazado 191022" d="M372.66,542.74l-46.44-26.81a1.75,1.75,0,0,1-.64-2.38h0a1.75,1.75,0,0,1,2.39-.64l46.43,26.81a1.74,1.74,0,0,1,.64,2.38h0a1.73,1.73,0,0,1-2.38.64Z" fill="#3778c2"/>
        <path id="Trazado_191023" data-name="Trazado 191023" d="M365.24,567,318.8,540.21a1.76,1.76,0,0,1-.64-2.39h0a1.74,1.74,0,0,1,2.39-.63L367,564a1.74,1.74,0,0,1,.64,2.38h0a1.75,1.75,0,0,1-2.4.62Z" fill="#3778c2"/>
        <path id="Trazado_191024" data-name="Trazado 191024" d="M357.82,591.29l-46.44-26.81a1.75,1.75,0,0,1-.64-2.38h0a1.75,1.75,0,0,1,2.39-.64l46.43,26.81a1.74,1.74,0,0,1,.64,2.38h0a1.74,1.74,0,0,1-2.38.64Z" fill="#3778c2"/>
        <path id="Trazado_191025" data-name="Trazado 191025" d="M350.4,615.56,304,588.76a1.76,1.76,0,0,1-.64-2.39h0a1.75,1.75,0,0,1,2.38-.64l46.43,26.81a1.74,1.74,0,0,1,.64,2.39h0a1.74,1.74,0,0,1-2.41.63Z" fill="#3778c2"/>
        <path id="Trazado_191026" data-name="Trazado 191026" d="M343,639.84,296.55,613a1.73,1.73,0,0,1-.64-2.38h0a1.74,1.74,0,0,1,2.38-.64l46.44,26.81a1.74,1.74,0,0,1,.63,2.38h0a1.74,1.74,0,0,1-2.36.67Z" fill="#3778c2"/>
        <path id="Trazado_191027" data-name="Trazado 191027" d="M335.56,664.11,289.13,637.3a1.74,1.74,0,0,1-.64-2.38h0a1.75,1.75,0,0,1,2.38-.64l46.44,26.81a1.74,1.74,0,0,1,.63,2.38h0a1.74,1.74,0,0,1-2.38.64Z" fill="#3778c2"/>
      </g>
      <g id="Grupo_94140" data-name="Grupo 94140">
        <path id="Trazado_191028" data-name="Trazado 191028" d="M344,442.43s-9.42,19.63-14.94,24.49a74.445,74.445,0,0,1-10,6.88c-4.68-2.91-10-5.55-13.51-5.45a5.74,5.74,0,0,0-2,.4h0s17.53-7.53,21.33-12.64,11.26-20,11.26-20a8.58,8.58,0,0,1,5.29,2,6.18,6.18,0,0,1,2.53,4.37" fill="#ffc774" fill-rule="evenodd"/>
        <path id="Trazado_191029" data-name="Trazado 191029" d="M326.59,448.85a14.78,14.78,0,0,1,4.75,7.17c1.67,5.92.12,12.31-1.89,14s-8.4.63-11.62-.17a6.739,6.739,0,0,1-2.69-1.32l4.3.54a5.53,5.53,0,0,1-1.55-3.07,4.44,4.44,0,0,1,.38-2.88s-3-2.41-1.1-4.37,5.43,2.53,5.43,2.53a18.3,18.3,0,0,0,.72-4.88,8.58,8.58,0,0,0-1.46-4.46,11.61,11.61,0,0,0,4.73-3.12" fill="#ffc398" fill-rule="evenodd"/>
        <path id="Trazado_191030" data-name="Trazado 191030" d="M323.56,470.87l-.17,3.07a38.888,38.888,0,0,0-5.39-3c-1.87-.86-3.12-1.4-3.94-1.74l.55-.86a1.468,1.468,0,0,0,.29.16h.24a6.741,6.741,0,0,0,2.69,1.32,40.155,40.155,0,0,0,5.73,1" fill="#eba87c" fill-rule="evenodd"/>
        <path id="Trazado_191031" data-name="Trazado 191031" d="M325.14,478l-.58-3.19A35.389,35.389,0,0,0,318,471c-4.19-1.93-5.29-2.27-5.29-2.27l-1.31,1.06A71,71,0,0,1,325.14,478" fill="#ffc774" fill-rule="evenodd"/>
        <path id="Trazado_191032" data-name="Trazado 191032" d="M331.86,487.21a14.63,14.63,0,0,0-5.58-8.39c-4.83-3.74-15.12-10.64-20.75-10.47s-7.19,6.9-2.13,22.66a47.4,47.4,0,0,1-.81,29.89s4.83,10.58,14.26,11.27,18-5.41,18-5.41-.34-12.87-1-23.68-2-15.87-2-15.87" fill="#ffa726" fill-rule="evenodd"/>
        <path id="Trazado_191033" data-name="Trazado 191033" d="M334.9,526.76l.92,34.9a14.341,14.341,0,0,1,.46,5.58,10.08,10.08,0,0,1-1.21,4.42l-.92,21.91s3.45,1.61,10.12,1.72,7.58-.51,8.39,0,1.38,4.31-2.41,6.84-18.75,4.37-22.37,3.57-3.5-5.46-3.16-7.94.75-4.13.75-4.13-3.91-13.34-2.82-19.09,2.18-7.42,2.18-7.42l-7.18-20.23a33.61,33.61,0,0,1-7.94-10.81,35,35,0,0,1-2.54-8.75,15.29,15.29,0,0,0,9.68,4.84c9.43.69,18-5.41,18-5.41" fill="#3778c2" fill-rule="evenodd"/>
        <path id="Trazado_191034" data-name="Trazado 191034" d="M336.16,436.1a15.48,15.48,0,0,1,.6-5.23,8.37,8.37,0,0,1,3.05-4.26c.86-.51,4.54-.05,5.17-.11s3.88-5.95,4.86-5.95-3.45,9.31-3.45,11,4.94,2.41,5.86,4-2.12-.23-4.42.87-2.28,1.54-3.57,2.41c-.41.28-.87.57-1.31.84a7.609,7.609,0,0,0-1.5-1.61,8.58,8.58,0,0,0-5.29-2" fill="#ffc398" fill-rule="evenodd"/>
        <path id="Trazado_191035" data-name="Trazado 191035" d="M334.15,593.57s3.45,1.61,10.12,1.72,7.58-.51,8.39,0,1.38,4.31-2.41,6.84-18.75,4.37-22.37,3.57-3.5-5.46-3.16-7.94.75-4.13.75-4.13a17.751,17.751,0,0,0,4.5.77,13.2,13.2,0,0,0,4.18-.83" fill="#9df" fill-rule="evenodd"/>
        <path id="Trazado_191036" data-name="Trazado 191036" d="M302.59,520.9a30.848,30.848,0,0,0-.87,6.15,29.509,29.509,0,0,0-.06,5.64l.92,23.91s-3.1,4.48-2.76,13.11.92,15.23.92,15.23-1.72,7.42,1.61,9.32,18.34,0,21.5-2.36a9.66,9.66,0,0,0,.93-.81c-.36-1.4-.81-3.27-1.22-5.28a65.126,65.126,0,0,1-7.53-.64c-4.83-.8-6.67-2.07-6.67-2.07s2-17.13,2.3-18.57,2.13-3.16,2-6.15-.51-3.22-.51-3.22l4.69-7.71-.2-.56a33.61,33.61,0,0,1-7.94-10.81,35,35,0,0,1-2.54-8.75,25,25,0,0,1-4.58-6.43" fill="#28559a" fill-rule="evenodd"/>
        <path id="Trazado_191037" data-name="Trazado 191037" d="M300.74,584.94s-1.72,7.42,1.61,9.32,18.34,0,21.5-2.36a9.66,9.66,0,0,0,.93-.81c-.36-1.4-.81-3.27-1.22-5.28a65.126,65.126,0,0,1-7.53-.64c-4.83-.8-6.67-2.07-6.67-2.07a7.76,7.76,0,0,1-4.17,1.69,16.278,16.278,0,0,1-4.45.15" fill="#9df" fill-rule="evenodd"/>
        <g id="Grupo_94139" data-name="Grupo 94139">
          <path id="Trazado_191038" data-name="Trazado 191038" d="M323.5,478s4.42-.35,9,5.21S346,498.92,346,498.92L368.84,504a14.09,14.09,0,0,1,8.81,5.3c3.53,4.68,3.7,5.56,1.4,7.54s-2.2,1.51-3.51-.57a6.1,6.1,0,0,0-3.11-2.6,8.419,8.419,0,0,1,1.88,2.56c.26,1,.34,1.53-2.79-.45a14.6,14.6,0,0,1-4.69-4.89s-23.82-1.34-27.16-3.34-16.49-18.15-19.25-22.5S323.5,478,323.5,478" fill="#ffc774" fill-rule="evenodd"/>
          <path id="Trazado_191039" data-name="Trazado 191039" d="M368.84,504a14.09,14.09,0,0,1,8.81,5.3c3.53,4.68,3.7,5.56,1.4,7.54s-2.2,1.51-3.51-.57a6.1,6.1,0,0,0-3.11-2.6,8.419,8.419,0,0,1,1.88,2.56c.26,1,.34,1.53-2.79-.45a14.6,14.6,0,0,1-4.69-4.89,11.139,11.139,0,0,0,1.81-3.35,6.41,6.41,0,0,0,.2-3.54" fill="#ffc398" fill-rule="evenodd"/>
        </g>
        <path id="Trazado_191040" data-name="Trazado 191040" d="M321.86,452s7.94-2.47,6.61-10.18-9.43-9-11.15-4.13.11,7.41.11,7.41-7.41-.52-9.37,2.3a5.07,5.07,0,0,0-.34,5.41s-2.65,6.89,1.84,11.21,5.34,4.54,5.34,4.54l4.54.57a5.53,5.53,0,0,1-1.55-3.07,4.44,4.44,0,0,1,.38-2.88s-3-2.41-1.1-4.37,5.43,2.53,5.43,2.53a18.3,18.3,0,0,0,.72-4.88,8.58,8.58,0,0,0-1.46-4.46" fill="#28559a" fill-rule="evenodd"/>
      </g>
      <path id="Trazado_191041" data-name="Trazado 191041" d="M363.91,292.94l-64.89,45.55,77.26-38.41Z" fill="#039be5"/>
      <path id="Trazado_191042" data-name="Trazado 191042" d="M252.62,185.85l20.47,140.33-8.1-133.19Z" fill="#039be5"/>
      <path id="Trazado_191043" data-name="Trazado 191043" d="M328.43,135.61a24.47,24.47,0,0,1,12.19,3.29l23.29,13.45V139.73a31.4,31.4,0,0,0-15.706-27.2L248.83,55.16a14,14,0,0,0-20.94,12.08v86.2a31.418,31.418,0,0,0,15.7,27.2L304,215.5V160.06a24.47,24.47,0,0,1,24.43-24.45Z" fill="#039be5"/>
      <path id="Trazado_191044" data-name="Trazado 191044" d="M314.45,160.06v86.19a31.418,31.418,0,0,0,15.7,27.2L429.53,330.83a14,14,0,0,0,20.94-12.09v-86.2a31.4,31.4,0,0,0-15.706-27.2L335.39,148a14,14,0,0,0-20.94,12.06Z" fill="#039be5" fill-rule="evenodd"/>
      <g id="Grupo_94141" data-name="Grupo 94141">
        <path id="Trazado_191045" data-name="Trazado 191045" d="M367.39,211.12l-.02,9.82-17.84-.95,17.79,18.6-.03,9.74-29-31.59.02-5.68Z" fill="#fff"/>
        <path id="Trazado_191046" data-name="Trazado 191046" d="M395.48,221.46l-15.8,40.57-9.94-5.74,15.8-40.57Z" fill="#fff"/>
        <path id="Trazado_191047" data-name="Trazado 191047" d="M397.64,228.59l28.99,33.46-.01,5.69-29.09-1.95.03-9.74,17.83,1.96L397.61,238.4Z" fill="#fff"/>
      </g>
      <g id="Grupo_94142" data-name="Grupo 94142">
        <path id="Trazado_191048" data-name="Trazado 191048" d="M243.75,76.75V70.53l67.21,38.8v6.23Z" fill="#fff"/>
        <path id="Trazado_191049" data-name="Trazado 191049" d="M243.75,105.31V99.08l54.84,31.67v6.22Z" fill="#fff"/>
        <path id="Trazado_191050" data-name="Trazado 191050" d="M243.75,133.86v-6.22l42.48,24.53v6.22Z" fill="#fff"/>
        <path id="Trazado_191051" data-name="Trazado 191051" d="M243.74,162.42V156.2l42.49,24.53v6.22Z" fill="#fff"/>
      </g>
    </g>
    <g id="Grupo_94146" data-name="Grupo 94146" transform="translate(176.46 7433.342)">
      <g id="Grupo_94144" data-name="Grupo 94144">
        <path id="Trazado_191052" data-name="Trazado 191052" d="M160.19,467.79a32.225,32.225,0,0,1-3.78-2.56,12.53,12.53,0,0,1-5.59-1.81c-7.35-4.25-13.29-14.53-13.26-23a12.29,12.29,0,0,1,1.2-5.63,33.2,33.2,0,0,1-.34-4.72,19.41,19.41,0,0,1,2.43-10c-7,.15-11.8,5.79-11.83,15.47,0,13.86,9.71,30.74,21.77,37.71,8.48,4.89,15.84,3.58,19.48-2.44a19.64,19.64,0,0,1-10.08-3.02Z" fill="#28559a"/>
        <path id="Trazado_191053" data-name="Trazado 191053" d="M106.35,409.35l8.8,5.09a26.131,26.131,0,0,1,2.47-5.36l-3.08-5.33a1,1,0,0,0-.4.3l-9,5.1h0A1.37,1.37,0,0,1,106.35,409.35Z" fill="#28559a"/>
        <path id="Trazado_191054" data-name="Trazado 191054" d="M204.85,455.38,196,450.29a76.786,76.786,0,0,0-2.43-8.18l6.26-3.57c.73-.42.74-1.79,0-3.05l-13.35-23.12A3.87,3.87,0,0,0,185.2,411a1.37,1.37,0,0,0-1.34-.13l-6.25,3.56a77.224,77.224,0,0,0-5.88-6.21V398.1a4.14,4.14,0,0,0-1.88-3.25l-18.94-10.94a1.34,1.34,0,0,0-1.35-.12h0l-9.23,5.33h0a1.41,1.41,0,0,1,1.19.19l18.94,10.93a4.16,4.16,0,0,1,1.87,3.25v10.12a75.64,75.64,0,0,1,5.88,6.22l6.26-3.57a1.33,1.33,0,0,1,1.33.14,3.84,3.84,0,0,1,1.33,1.4l13.35,23.12c.73,1.27.73,2.63,0,3.06l-6.25,3.56a78.615,78.615,0,0,1,2.43,8.19l8.81,5.08a4.16,4.16,0,0,1,1.87,3.25l-.06,21.76a1.23,1.23,0,0,1-.67,1.25l.07.08,9.17-5.35v-.09c.5-.1.83-.57.83-1.31l.06-21.76A4.09,4.09,0,0,0,204.85,455.38Z" fill="#28559a"/>
        <path id="Trazado_191055" data-name="Trazado 191055" d="M195.38,486.89l-8.8-5.08a25.8,25.8,0,0,1-2.47,5.35l6.21,10.76a2.73,2.73,0,0,1,.24,2.85l9.15-5.21c.73-.43.73-1.79,0-3.06l-3.13-5.43a1.39,1.39,0,0,1-1.2-.18Z" fill="#28559a"/>
        <path id="Trazado_191056" data-name="Trazado 191056" d="M126.19,387.74a3.92,3.92,0,0,1,1.33,1.4l6.21,10.77a26,26,0,0,1,5.9.58V390.38a1.4,1.4,0,0,1,.44-1.13l-3.19-5.53a3.92,3.92,0,0,0-1.33-1.4,1.31,1.31,0,0,0-1.33-.13l-13.44,7.65a1,1,0,0,0-.25.22l4.3-2.45a1.35,1.35,0,0,1,1.36.13Z" fill="#28559a"/>
        <path id="Trazado_191057" data-name="Trazado 191057" d="M162.1,495.75v10.12a1.35,1.35,0,0,1-.51,1.18h0l9.47-5.46-3-5.27a25.506,25.506,0,0,1-5.96-.57Z" fill="#28559a"/>
        <path id="Trazado_191058" data-name="Trazado 191058" d="M151.58,426.12h0a6.45,6.45,0,0,0-1.35.77l-8.4,4.81h0c2.39-1.17,5.58-.89,9.09,1.13,7.35,4.24,13.29,14.53,13.26,23,0,4.21-1.5,7.17-3.91,8.55h0l8.78-5.11h0a6.9,6.9,0,0,0,3.32-3.22c-1.6-11.24-8.66-23.43-17.63-30.43a7.19,7.19,0,0,0-3.16.5Z" fill="#28559a"/>
      </g>
      <g id="Grupo_94145" data-name="Grupo 94145">
        <path id="Trazado_191059" data-name="Trazado 191059" d="M197.27,485.81l.06-21.76a4.16,4.16,0,0,0-1.87-3.25l-8.81-5.08a78.619,78.619,0,0,0-2.43-8.19l6.25-3.56c.74-.43.74-1.79,0-3.06l-13.35-23.12a3.84,3.84,0,0,0-1.33-1.4,1.33,1.33,0,0,0-1.33-.14l-6.26,3.57a75.621,75.621,0,0,0-5.88-6.22V403.48a4.16,4.16,0,0,0-1.87-3.25l-18.9-10.93a1.41,1.41,0,0,0-1.19-.19.94.94,0,0,0-.26.14,1.4,1.4,0,0,0-.44,1.13v10.11a26,26,0,0,0-5.9-.58l-6.21-10.77a3.92,3.92,0,0,0-1.33-1.4,1.35,1.35,0,0,0-1.33-.13l-4.3,2.45-9.14,5.21c-.74.41-.74,1.78,0,3.05l3.13,5.43,3.08,5.33a26.131,26.131,0,0,0-2.47,5.36l-8.8-5.09a1.37,1.37,0,0,0-1.24-.16,1.27,1.27,0,0,0-.65,1.24l-.06,21.76a4.13,4.13,0,0,0,1.87,3.25l8.81,5.09a77.742,77.742,0,0,0,2.43,8.18l-6.25,3.57c-.74.42-.74,1.78,0,3.05l13.35,23.13a3.83,3.83,0,0,0,1.33,1.4,1.35,1.35,0,0,0,1.33.13l6.25-3.56a77.324,77.324,0,0,0,5.89,6.21v10.12a4.16,4.16,0,0,0,1.87,3.25L160.19,507a1.3,1.3,0,0,0,1.37.1,1.35,1.35,0,0,0,.51-1.18V495.8a25.51,25.51,0,0,0,5.9.59l3,5.27,3.17,5.49a3.92,3.92,0,0,0,1.33,1.4,1.33,1.33,0,0,0,1.33.14L190.31,501a.85.85,0,0,0,.25-.21,2.73,2.73,0,0,0-.24-2.85l-6.21-10.76a25.8,25.8,0,0,0,2.47-5.35l8.8,5.08a1.39,1.39,0,0,0,1.2.18h0A1.23,1.23,0,0,0,197.27,485.81Zm-46.48-12.59c-12.06-7-21.81-23.85-21.77-37.71,0-9.68,4.83-15.32,11.83-15.47a19.7,19.7,0,0,1,10.09,3,33.717,33.717,0,0,1,3.79,2.57c9,7,16,19.19,17.63,30.43a32.82,32.82,0,0,1,.34,4.7,19.41,19.41,0,0,1-2.43,10c-3.64,6.06-11,7.37-19.48,2.48Z" fill="#36d1c0"/>
        <path id="Trazado_191060" data-name="Trazado 191060" d="M160.26,464.36c2.41-1.38,3.9-4.34,3.91-8.55,0-8.45-5.91-18.74-13.26-23-3.51-2-6.7-2.3-9.09-1.13a6.88,6.88,0,0,0-3.06,3.11,12.29,12.29,0,0,0-1.2,5.63c0,8.45,5.91,18.73,13.26,23a12.531,12.531,0,0,0,5.59,1.81,6.92,6.92,0,0,0,3.85-.87Z" fill="#36d1c0"/>
      </g>
    </g>
  </g>
</svg>
