<svg xmlns="http://www.w3.org/2000/svg" xmlns:xlink="http://www.w3.org/1999/xlink" width="150" height="150" viewBox="0 0 150 150">
  <defs>
    <clipPath id="clip-path">
      <rect id="Rectángulo_38934" data-name="Rectángulo 38934" width="82.415" height="103.604" fill="#727997"/>
    </clipPath>
  </defs>
  <g id="Grupo_94262" data-name="Grupo 94262" transform="translate(-419 -9183)">
    <circle id="Elipse_7633" data-name="Elipse 7633" cx="75" cy="75" r="75" transform="translate(419 9183)" fill="#fff"/>
    <g id="Grupo_92601" data-name="Grupo 92601" transform="translate(454.312 9206)" style="mix-blend-mode: multiply;isolation: isolate">
      <g id="Grupo_92600" data-name="Grupo 92600">
        <g id="Grupo_92599" data-name="Grupo 92599" clip-path="url(#clip-path)">
          <path id="Trazado_185383" data-name="Trazado 185383" d="M68.077,64.988H71.33v-6.5H68.077Zm11.861-2.776-4.879,4.879,2.3,2.3,4.878-4.879Zm-22.768,2.3,4.879,4.879,2.3-2.3-4.879-4.879Z" transform="translate(-15.837 -16.201)" fill="#727997"/>
          <path id="Trazado_185384" data-name="Trazado 185384" d="M70.9,89.248l-1.55-2.859c-17.557,9.508-32.08,6.6-44.316,3.118C13.824,86.317,6.255,82.574,3.694,80.742,7.79,67.3,26.085,20.732,33.775,9.481,39.02,7.593,51.842,3.253,55.494,3.253c2.133,0,8.131,7.186,8.131,11.383,0,2.311-1.414,3.253-4.879,3.253H52.24a1.607,1.607,0,0,1-1.149-.476,1.577,1.577,0,0,1-.42-.859l4.616-3.077L57.6,15.786l2.3-2.3-3.253-3.253-2.051-.2L40.74,19.263l-5.662-2.829-1.455,2.909L37.4,21.229c-4.356,9.28-3.562,17.757-2.778,25.961.87,9.1,1.693,17.688-4.834,26.662l2.63,1.913c7.252-9.971,6.332-19.585,5.443-28.884-.743-7.769-1.5-15.8,2.5-24.3l1.405-.087,6.123-4.081a4.774,4.774,0,0,0,4.359,2.728h6.505c7.075,0,8.132-4.075,8.132-6.505C66.878,9.029,59.856,0,55.494,0,50.472,0,34.027,5.927,32.169,6.6l-.475.171-.292.411C22.932,19.043,3.377,69.961.262,80.867L0,81.786l.677.677c1.888,1.89,9.932,6.321,23.472,10.173,8.027,2.28,22.035,6.253,38.733.216a74.943,74.943,0,0,0,9.35,10.752l2.3-2.3a73.508,73.508,0,0,1-8.544-9.681c1.617-.695,3.256-1.479,4.916-2.376M82.415,55.02l-1.8-2.707A66.612,66.612,0,0,0,70.262,61c-4.441-3.51-11.332-6.842-18.288-5.682-4.579.763-8.134,2.781-12.273,6.965l2.312,2.286c3.663-3.7,6.6-5.394,10.495-6.043,8.923-1.487,18.029,6.1,19.419,8.88l2.91-1.455a12.168,12.168,0,0,0-2.143-2.782,62.31,62.31,0,0,1,9.721-8.147M66.087,76.2l-1.674-2.789c-7.132,4.28-14.663,4.836-21.2,1.566l-1.455,2.91c7.572,3.785,16.212,3.185,24.332-1.687M19.715,71.555v3.253a9.769,9.769,0,0,0,9.757-9.757H26.221a6.511,6.511,0,0,1-6.505,6.5" fill="#727997"/>
        </g>
      </g>
    </g>
  </g>
</svg>
