<svg xmlns="http://www.w3.org/2000/svg" width="150" height="150" viewBox="0 0 150 150">
  <g id="Grupo_94362" data-name="Grupo 94362" transform="translate(-394 -8584)">
    <rect id="Rectángulo_39820" data-name="Rectángulo 39820" width="150" height="150" transform="translate(394 8584)" fill="none"/>
    <path id="Trazado_191308" data-name="Trazado 191308" d="M68,106.79c0-.55-.06-1.1-.06-1.65v-29c0-2.06-.87-2.92-2.94-3H61.69c-2.58,0-3.36.78-3.36,3.39v26.48c0,1.24-.06,2.48-.09,3.71H48.87c0-.45-.12-.91-.12-1.36V90.48c0-2-.91-2.94-2.94-3H42.37c-2.44,0-3.2.78-3.21,3.22v16H34.41a2.29,2.29,0,0,0-2.15,1.3c-.95,1.75.3,3.5,2.54,3.5h80.57c1.76,0,2.77-.88,2.78-2.35s-1-2.39-2.74-2.4H106.3c0-.59-.07-1.19-.07-1.78V56.74a2.44,2.44,0,0,0-2.67-2.65H99.98c-2.64,0-3.36.72-3.36,3.34V105a17.843,17.843,0,0,1-.06,1.79h-9.5V66.66c0-2.13-.79-2.91-2.9-2.94H80.38c-2.11,0-2.88.81-2.89,2.94V106.8Zm29.42-71c-.53.34-.79.53-1.06.69L44.76,67.1c-2.25,1.34-4.51,2.66-6.74,4a2.28,2.28,0,0,0-1.11,2.94,2.31,2.31,0,0,0,2.5,1.54,4.16,4.16,0,0,0,1.74-.78L92.71,44.22c2.35-1.4,4.72-2.78,7.21-4.26a18.13,18.13,0,0,1-.74,3.53c-.38,1.72.29,3,1.76,3.35,1.31.3,2.46-.53,2.87-2.12.75-2.94,1.49-5.87,2.2-8.82.46-1.86-.16-2.91-2-3.38-3-.79-6-1.54-9.08-2.29a2.35,2.35,0,0,0-3,1.61,2.32,2.32,0,0,0,1.74,3c1.1.32,2.25.58,3.7.96ZM23.68,39.46a2.46,2.46,0,0,0-1.47-2,2.11,2.11,0,0,0-2.54.47,11.79,11.79,0,0,0-2.15,3.34,2.14,2.14,0,0,0,.61,2.52,2.27,2.27,0,0,0,2.56.44C21.69,43.87,23.7,40.74,23.68,39.46ZM29,27.73a2.27,2.27,0,0,0-.72.17,8.73,8.73,0,0,0-3.36,3.54A2.09,2.09,0,0,0,25.66,34a2.16,2.16,0,0,0,2.69.18,9.28,9.28,0,0,0,2.89-3.09A2.36,2.36,0,0,0,29,27.73ZM17.38,51.84a2.41,2.41,0,0,0-1.85-2.45,2.19,2.19,0,0,0-2.66,1.2,15.46,15.46,0,0,0-1.13,3.09A2.13,2.13,0,0,0,13,56.19a2.14,2.14,0,0,0,2.85-.57,11.14,11.14,0,0,0,1.53-3.78ZM36.5,25.92c1.37,0,4.24-2,4.54-3.17a2.27,2.27,0,0,0-.68-2.39,2.14,2.14,0,0,0-2.42-.48,10.12,10.12,0,0,0-3,2.12,2.17,2.17,0,0,0-.35,2.57,2.31,2.31,0,0,0,1.91,1.35ZM13.83,64.27c.06-1.75-.74-2.78-2-3a2.44,2.44,0,0,0-2.67,2,17.41,17.41,0,0,0-.36,2.58,2.31,2.31,0,0,0,2,2.5,2.37,2.37,0,0,0,2.59-1.77A19.032,19.032,0,0,0,13.83,64.27Z" transform="translate(394 8584)" fill="#fff"/>
    <path id="Trazado_191309" data-name="Trazado 191309" d="M69.54,142.71c-1.49-.61-3.11-.51-4.67-.78q-33.12-5.76-49.23-35.27A64.13,64.13,0,0,1,8,76.23c0-1.74.69-2.74,2.05-3a2.36,2.36,0,0,1,2.71,2.42c.18,3,.25,6,.69,8.94A61.15,61.15,0,0,0,31.4,120c10.54,10.37,23.25,16.44,38,17.6,21.93,1.73,40.18-6,54.16-23,10.51-12.79,14.78-27.74,13.58-44.22-1.76-24.06-18.69-45.85-41.52-53.57a56.48,56.48,0,0,0-19-3.31,12.293,12.293,0,0,1-1.49-.06V8.51a65.32,65.32,0,0,1,34.58,9.68c17.72,11,28.42,26.83,31.69,47.46,5,31.32-13.66,62.52-43.44,73a67.1,67.1,0,0,1-17,3.73c-.22,0-.47,0-.57.27Z" transform="translate(394 8584)" fill="#fff"/>
    <path id="Trazado_191310" data-name="Trazado 191310" d="M96.55,106.79c0-.6.06-1.19.06-1.79V57.43c0-2.62.72-3.34,3.36-3.34h3.58a2.44,2.44,0,0,1,2.67,2.65q0,.69,0,1.38V105a15.136,15.136,0,0,0,.07,1.78Z" transform="translate(394 8584)" fill="#36d0bf"/>
    <path id="Trazado_191311" data-name="Trazado 191311" d="M97.37,35.8c-1.45-.38-2.6-.64-3.73-1a2.32,2.32,0,0,1-1.74-3,2.35,2.35,0,0,1,3-1.61c3,.75,6.06,1.5,9.08,2.29,1.83.47,2.45,1.52,2,3.38-.71,3-1.45,5.88-2.2,8.82-.41,1.59-1.56,2.42-2.87,2.12-1.47-.34-2.14-1.63-1.76-3.35A18.13,18.13,0,0,0,99.92,40c-2.49,1.48-4.86,2.86-7.21,4.26L41.15,74.83a4.16,4.16,0,0,1-1.74.78,2.31,2.31,0,0,1-2.5-1.54A2.28,2.28,0,0,1,38,71.13c2.23-1.37,4.49-2.69,6.74-4L96.31,36.49C96.58,36.33,96.84,36.14,97.37,35.8Z" transform="translate(394 8584)" fill="#ffa726"/>
    <path id="Trazado_191312" data-name="Trazado 191312" d="M77.45,106.76V66.62c0-2.13.78-2.91,2.89-2.94h3.73c2.11,0,2.9.81,2.9,2.94v40.13Z" transform="translate(394 8584)" fill="#6dd6ca"/>
    <path id="Trazado_191313" data-name="Trazado 191313" d="M77.45,106.76h37.96c1.74,0,2.75.92,2.74,2.4s-1,2.35-2.78,2.35H34.8c-2.24,0-3.49-1.75-2.54-3.5a2.29,2.29,0,0,1,2.15-1.25H77.45Z" transform="translate(394 8584)" fill="#fff"/>
    <path id="Trazado_191314" data-name="Trazado 191314" d="M68,106.79H58.18c0-1.23.09-2.47.09-3.71V76.6c0-2.61.78-3.38,3.36-3.39h3.31c2.07,0,2.94.9,2.94,3v29A15.339,15.339,0,0,0,68,106.79Z" transform="translate(394 8584)" fill="#87dcd3"/>
    <path id="Trazado_191315" data-name="Trazado 191315" d="M75.08,8.53v9.62a2.113,2.113,0,0,1-3.32,2q-6.1-3.48-12.12-7.1c-1.84-1.11-1.78-3.08.07-4.18q5.93-3.52,11.9-7C73.46.8,75,1.7,75.06,3.84,75.09,5.4,75.07,7,75.08,8.53Z" transform="translate(394 8584)" fill="#fff"/>
    <path id="Trazado_191316" data-name="Trazado 191316" d="M48.87,106.8H39.1v-16c0-2.44.77-3.2,3.21-3.22h3.44c2,0,2.93.93,2.94,3v14.88C48.75,105.89,48.83,106.35,48.87,106.8Z" transform="translate(394 8584)" fill="#b6e1dd"/>
    <path id="Trazado_191317" data-name="Trazado 191317" d="M23.68,39.46c0,1.28-2,4.41-3,4.82a2.27,2.27,0,0,1-2.56-.44,2.14,2.14,0,0,1-.61-2.52A11.79,11.79,0,0,1,19.67,38a2.11,2.11,0,0,1,2.54-.47,2.46,2.46,0,0,1,1.47,1.93Z" transform="translate(394 8584)" fill="#fff"/>
    <path id="Trazado_191318" data-name="Trazado 191318" d="M29,27.73a2.36,2.36,0,0,1,2.24,3.39,9.28,9.28,0,0,1-2.89,3.09A2.16,2.16,0,0,1,25.66,34a2.09,2.09,0,0,1-.74-2.59,8.73,8.73,0,0,1,3.36-3.54,2.27,2.27,0,0,1,.72-.14Z" transform="translate(394 8584)" fill="#fff"/>
    <path id="Trazado_191319" data-name="Trazado 191319" d="M17.38,51.84a11.14,11.14,0,0,1-1.54,3.78,2.14,2.14,0,0,1-2.85.57,2.13,2.13,0,0,1-1.25-2.51,15.46,15.46,0,0,1,1.13-3.09,2.19,2.19,0,0,1,2.66-1.2,2.41,2.41,0,0,1,1.85,2.45Z" transform="translate(394 8584)" fill="#fff"/>
    <path id="Trazado_191320" data-name="Trazado 191320" d="M36.5,25.92a2.31,2.31,0,0,1-1.93-1.35A2.17,2.17,0,0,1,34.92,22a10.12,10.12,0,0,1,3-2.12,2.14,2.14,0,0,1,2.42.48A2.27,2.27,0,0,1,41,22.75C40.74,23.91,37.87,26,36.5,25.92Z" transform="translate(394 8584)" fill="#fff"/>
    <path id="Trazado_191321" data-name="Trazado 191321" d="M13.83,64.27c-.1.59-.2,1.5-.43,2.39a2.37,2.37,0,0,1-2.59,1.77,2.31,2.31,0,0,1-2-2.5,17.41,17.41,0,0,1,.36-2.58,2.44,2.44,0,0,1,2.67-2C13.09,61.49,13.89,62.52,13.83,64.27Z" transform="translate(394 8584)" fill="#fff"/>
    <path id="Trazado_191322" data-name="Trazado 191322" d="M47,17.74a2.42,2.42,0,0,1-2.49-1.56,2.19,2.19,0,0,1,.75-2.71,8.91,8.91,0,0,1,3-1.38,2.15,2.15,0,0,1,2.54,1.17,2.12,2.12,0,0,1-.28,2.67A8.78,8.78,0,0,1,47,17.74Z" transform="translate(394 8584)" fill="#fff"/>
  </g>
</svg>
