<svg xmlns="http://www.w3.org/2000/svg" width="150" height="150" viewBox="0 0 150 150">
  <g id="Grupo_94363" data-name="Grupo 94363" transform="translate(-709 -8584)">
    <rect id="Rectángulo_39821" data-name="Rectángulo 39821" width="150" height="150" transform="translate(709 8584)" fill="none"/>
    <path id="Trazado_191323" data-name="Trazado 191323" d="M105.39,11.24a18,18,0,0,1,2.08,1.57c6.66,6.62,13.27,13.28,19.94,19.89A5,5,0,0,1,129,36.49v94.42c0,5.85-3.25,9.09-9.11,9.09H35.74c-4.3,0-7.39-2.16-8.4-6a13.38,13.38,0,0,1-.34-3.35V21.41c0-6.08,1.22-7.93,6.73-10.17Zm-3.27,5.39H35.8c-2.48,0-3.41,1-3.41,3.58v110.9c0,2.63.93,3.58,3.54,3.58h84.12c2.55,0,3.51-1,3.51-3.47V37.54a2.73,2.73,0,0,0-.71-1.73c-4.77-4.83-9.58-9.62-14.39-14.42a8.482,8.482,0,0,0-1-.79c0,3.26-.06,6.27,0,9.28,0,1.87,1.1,2.79,3,2.83h4.93v5.26c-2.15,0-4.21.12-6.24,0a6.78,6.78,0,0,1-5.76-3.72,11.63,11.63,0,0,1-1.23-4.77C102,25.21,102.12,21,102.12,16.63Z" transform="translate(708.533 8584)" fill="#fff"/>
    <path id="Trazado_191324" data-name="Trazado 191324" d="M88.73,99.69H83.39c0-2.36-.06-4.66,0-7,0-1.41,1.1-2.06,2.3-2.52a21.24,21.24,0,0,0,8.93-6.5C104.73,71.45,98,52.42,82.4,49.24A21.45,21.45,0,0,0,62.74,85.32a19.89,19.89,0,0,0,7.41,4.85,3.41,3.41,0,0,1,2.5,3.72c-.07,1.91,0,3.83,0,5.81h-5.4V95.81a1.35,1.35,0,0,0-.87-1.45c-9.7-5-14.84-13-15.17-23.8A26.2,26.2,0,0,1,66.34,46.11c14.25-6.67,30.2-.51,36.44,13.93C108.16,72.47,102.52,88,90.34,94a2.39,2.39,0,0,0-1.63,2.75,29.339,29.339,0,0,1,.02,2.94Z" transform="translate(708.533 8584)" fill="#ffa726"/>
    <path id="Trazado_191325" data-name="Trazado 191325" d="M94,105.21v5.24H88.73v4.48c0,1.67-.34,3.08-2.26,3.55-.21,0-.41.57-.42.87v4.15c0,2-1,3-3,3.09q-5,.09-10.05,0c-2,0-3-1.12-3-3.2v-2.52c0-1.17.35-2.41-1.45-2.89-1.08-.29-1.23-1.58-1.25-2.66v-4.77H62v-5.34Zm-10.78,5.38H72.74v2.49H83.26Zm-7.91,8v2.48h5.24v-2.48Z" transform="translate(708.533 8584)" fill="#fff"/>
    <path id="Trazado_191326" data-name="Trazado 191326" d="M43.14,32.58V27.42H69.85v5.16Z" transform="translate(708.533 8584)" fill="#fff"/>
    <path id="Trazado_191327" data-name="Trazado 191327" d="M77.92,56.91v5.23c-4.8.55-7.48,3.21-8,8H64.79C64,64.69,69.68,56.77,77.92,56.91Z" transform="translate(708.533 8584)" fill="#ffa726"/>
    <path id="Trazado_191328" data-name="Trazado 191328" d="M48.38,43.37H43.17v-5.2h5.21Z" transform="translate(708.533 8584)" fill="#fff"/>
    <path id="Trazado_191329" data-name="Trazado 191329" d="M59.12,38.18v5.18H53.91V38.18Z" transform="translate(708.533 8584)" fill="#fff"/>
  </g>
</svg>
