<svg xmlns="http://www.w3.org/2000/svg" xmlns:xlink="http://www.w3.org/1999/xlink" width="150" height="150" viewBox="0 0 150 150">
  <defs>
    <clipPath id="clip-path">
      <rect id="Rectángulo_38933" data-name="Rectángulo 38933" width="101.688" height="101.686" fill="#727997"/>
    </clipPath>
  </defs>
  <g id="Grupo_94263" data-name="Grupo 94263" transform="translate(-1037 -9183)">
    <circle id="Elipse_7634" data-name="Elipse 7634" cx="75" cy="75" r="75" transform="translate(1037 9183)" fill="#fff"/>
    <g id="Grupo_92598" data-name="Grupo 92598" transform="translate(1059.352 9207)" style="mix-blend-mode: multiply;isolation: isolate">
      <g id="Grupo_92597" data-name="Grupo 92597" transform="translate(0 0)">
        <g id="Grupo_92596" data-name="Grupo 92596" clip-path="url(#clip-path)">
          <path id="Trazado_185381" data-name="Trazado 185381" d="M1202.141,22.656l-.252,3.243a16.262,16.262,0,0,1,10.231,27.712l-9.756,9.758,2.3,2.3,9.76-9.757a19.517,19.517,0,0,0-12.281-33.257m-15.321,5.658-9.755,9.756,2.3,2.3,9.758-9.756a16.269,16.269,0,0,1,6.766-4.062l-.945-3.113a19.586,19.586,0,0,0-8.124,4.876M1215,45.668l.253-3.243a16.264,16.264,0,0,1-10.231-27.714l9.759-9.757-2.3-2.3-9.759,9.757A19.517,19.517,0,0,0,1215,45.668m22.778-17.715-9.755,9.757a16.3,16.3,0,0,1-6.768,4.062l.943,3.112a19.537,19.537,0,0,0,8.124-4.875l9.757-9.757Zm-74.3,33.372-.254,3.244a16.263,16.263,0,0,1,10.229,27.714l-9.756,9.758,2.3,2.3,9.759-9.759a19.517,19.517,0,0,0-12.277-33.256m-15.322,5.659L1138.4,76.74l2.3,2.3,9.758-9.758a16.277,16.277,0,0,1,6.766-4.062l-.946-3.112a19.556,19.556,0,0,0-8.121,4.876" transform="translate(-1138.391 -2.653)" fill="#727997"/>
          <path id="Trazado_185382" data-name="Trazado 185382" d="M1169.232,72.523a16.155,16.155,0,0,1,4.764-11.5l9.756-9.757-2.3-2.3-9.758,9.758a19.515,19.515,0,0,0,12.281,33.255l.251-3.242a16.267,16.267,0,0,1-14.995-16.212m37.52,1.74-9.758,9.757a16.271,16.271,0,0,1-6.767,4.062l.943,3.113a19.545,19.545,0,0,0,8.123-4.876l9.759-9.756ZM1172.484,46.5h-6.5v3.252h6.5Zm4.4-7.656-4.88-4.879-2.3,2.3,4.877,4.879Zm31.375,53.191h3.251v-6.5h-3.251Zm-26.021-55.293h3.253v-6.5h-3.253Zm39.03,39.031h6.507V72.522h-6.507Zm-4.4,7.653,4.879,4.88,2.3-2.3-4.877-4.879Z" transform="translate(-1146.033 -10.295)" fill="#727997"/>
        </g>
      </g>
    </g>
  </g>
</svg>
