<svg xmlns="http://www.w3.org/2000/svg" width="150" height="150" viewBox="0 0 150 150">
  <g id="Grupo_94364" data-name="Grupo 94364" transform="translate(-1024 -8584)">
    <rect id="Rectángulo_39822" data-name="Rectángulo 39822" width="150" height="150" transform="translate(1024 8584)" fill="none"/>
    <path id="Trazado_191330" data-name="Trazado 191330" d="M7.49,71c.33-2.46.58-4.94,1-7.39A66.27,66.27,0,0,1,21.44,34c.24-.31.45-.63.75-1.06l-4.86-1.33c-3.13-.85-3.92-3.56-1.66-5.84q4.89-5,9.84-9.84c2.21-2.19,5-1.44,5.82,1.55.45,1.6.86,3.2,1.34,5l1.32-1A66.39,66.39,0,0,1,46.43,14c1.48-.68,2.59-.41,3.11.76s0,2.08-1.4,2.79c-1,.49-2,1-3.07,1.51l8.25,14.29q21.41-10.26,42.8,0l8.23-14.24c-.52-.3-1-.6-1.47-.84A63.2,63.2,0,0,0,58.05,14c-.33.09-.67.2-1,.27a1.975,1.975,0,1,1-.98-3.82c2.25-.57,4.49-1.2,6.77-1.57,19.93-3.25,38,1.13,53.86,13.71,13.73,10.92,21.86,25.26,24.49,42.63.46,3.06.58,6.18.75,9.28.11,1.79-.64,2.53-2.38,2.54H120c-1.8,0-2.42-.72-2.46-2.64A42.79,42.79,0,0,0,33,65.5a72.49,72.49,0,0,0-1.08,9c-.17,1.84-.73,2.52-2.59,2.52C22.91,77,16.48,77,10,77a3,3,0,0,1-2.55-1.26ZM107.8,21c-2.82,4.88-5.53,9.59-8.24,14.29,13.5,9.09,20.75,21.63,22,37.66H138A63.66,63.66,0,0,0,107.8,21Zm-66.23-.1c-2.53,1.88-5,3.66-7.32,5.5A1.38,1.38,0,0,0,34,27.52c.29,1.28.72,2.52,1,3.8a3.19,3.19,0,0,1-4,4,28.55,28.55,0,0,1-3.41-.91,1.54,1.54,0,0,0-2,.61A63.23,63.23,0,0,0,12,66.49c-.3,2.13-.41,4.3-.6,6.49H27.93c1.21-16.12,8.51-28.64,22-37.67ZM30.92,31.2,27.85,19.78l-8.41,8.34Z" transform="translate(1024.066 8584)" fill="#fff"/>
    <path id="Trazado_191331" data-name="Trazado 191331" d="M68.6,101.71H45.23a4.77,4.77,0,0,1-5-3.71,5.23,5.23,0,0,1,.87-4Q51.71,75.66,62.29,57.3q4-7,8.06-14c2.3-4,6.54-4,8.82-.05l29.31,50.79c2.27,3.94.13,7.6-4.42,7.62h-2a2,2,0,1,1,0-3.92h1.71c1.78,0,2-.38,1.14-1.88L95,78.73,75.86,45.56c-.93-1.61-1.34-1.62-2.26,0Q59.07,70.7,44.54,95.86c-.89,1.53-.67,1.91,1.09,1.91H91.94c1.76,0,2.69.69,2.69,2s-1,2-2.71,2Q80.29,101.73,68.6,101.71Z" transform="translate(1024.066 8584)" fill="#ffa726"/>
    <path id="Trazado_191332" data-name="Trazado 191332" d="M130,82.56a9.58,9.58,0,1,1-6.778,2.809A9.58,9.58,0,0,1,130,82.56Zm0,3.94a5.62,5.62,0,1,0,4,1.614A5.61,5.61,0,0,0,130,86.5Z" transform="translate(1024.066 8584)" fill="#36d0bf"/>
    <path id="Trazado_191333" data-name="Trazado 191333" d="M80.07,68.65q-.16,3.07-.35,6.16a5,5,0,0,1-10,0q-.34-6-.67-11.93a5.7,5.7,0,1,1,11.35,0Zm-3.93-.23c.11-1.88.23-3.75.31-5.63.07-1.31-.63-2.16-1.72-2.17s-1.81.84-1.74,2.15c.2,3.83.44,7.67.65,11.51,0,.78.25,1.54,1.12,1.38.42-.07.94-.85,1-1.36C76,72.35,76,70.38,76.14,68.42Z" transform="translate(1024.066 8584)" fill="#fff"/>
    <path id="Trazado_191334" data-name="Trazado 191334" d="M19,86.5l-.7.07c-1.36.08-2.25-.54-2.39-1.67a2,2,0,0,1,1.92-2.21A9.3,9.3,0,0,1,27,86.28,9.556,9.556,0,1,1,9.91,91.53a3.29,3.29,0,0,1,1.19-2.26c1.31-.82,2.9.34,2.76,2.22a5.52,5.52,0,0,0,4,6,5.38,5.38,0,0,0,5.9-1.82,5.24,5.24,0,0,0,.69-6.12A5.38,5.38,0,0,0,19,86.5Z" transform="translate(1024.066 8584)" fill="#e6777c"/>
    <path id="Trazado_191335" data-name="Trazado 191335" d="M74.66,94.19a5.81,5.81,0,1,1,5.86-5.76,5.75,5.75,0,0,1-5.86,5.76Zm.1-7.66a1.88,1.88,0,1,0,1.323.6,1.87,1.87,0,0,0-1.323-.6Z" transform="translate(1024.066 8584)" fill="#fff"/>
  </g>
</svg>
