<svg xmlns="http://www.w3.org/2000/svg" width="150.015" height="150" viewBox="0 0 150.015 150">
  <g id="Grupo_94365" data-name="Grupo 94365" transform="translate(-394 -9020)">
    <rect id="Rectángulo_39823" data-name="Rectángulo 39823" width="150" height="150" transform="translate(394.016 9020)" fill="none"/>
    <path id="Trazado_191336" data-name="Trazado 191336" d="M52.86,40.91c2.4-.08,4.33,1.19,6.08,3,.87.89,1.58,2.46,3.25,1.77s1-2.32,1-3.55c.06-5.83,2.94-8.77,8.73-8.77h7A7.54,7.54,0,0,1,86.57,41q0,1.59,0,3.18a1.62,1.62,0,0,0,2.77,1.18c.82-.66,1.52-1.47,2.28-2.21a7.69,7.69,0,0,1,11,0q2.84,2.73,5.57,5.54a7.41,7.41,0,0,1,0,10.77c-.43.44-.9.84-1.3,1.31-.69.79-1.92,1.35-1.28,2.77s1.87.92,2.93,1,2,0,3,.15A7.36,7.36,0,0,1,118,71.84q.12,4.26,0,8.52a7.35,7.35,0,0,1-6.61,7.22c-1.38.16-2.8,0-4.17.2a2.35,2.35,0,0,0-1.6,1.08,2.12,2.12,0,0,0,.42,1.75c.67.88,1.57,1.58,2.33,2.4a7.35,7.35,0,0,1,0,10.39c-1.92,2-3.9,4-5.93,5.9a7.51,7.51,0,0,1-10.56,0,27.47,27.47,0,0,0-2.41-2.3,1.65,1.65,0,0,0-2.8,1.17c-.16,1.09,0,2.23-.07,3.34A7.54,7.54,0,0,1,79,118.9H70.81a7.55,7.55,0,0,1-7.62-7.5,27.912,27.912,0,0,0,0-3.17,2.15,2.15,0,0,0-.93-1.55,2.46,2.46,0,0,0-1.94.34,21.56,21.56,0,0,0-2.29,2.2,7.54,7.54,0,0,1-10.69,0c-2-1.88-3.91-3.81-5.81-5.77a7.37,7.37,0,0,1,.08-10.64,22.609,22.609,0,0,0,2.21-2.28,1.623,1.623,0,0,0-1.15-2.76c-1.43-.19-2.9,0-4.33-.22a7.32,7.32,0,0,1-6.53-7.11c-.09-2.9-.1-5.8,0-8.69a7.33,7.33,0,0,1,6.56-7.09c1.32-.16,2.69,0,4-.19a2.47,2.47,0,0,0,1.78-1.06,2.65,2.65,0,0,0-.58-2,17.22,17.22,0,0,0-2-2,7.38,7.38,0,0,1,0-10.64c1.87-1.92,3.79-3.78,5.69-5.66a7.42,7.42,0,0,1,5.6-2.2ZM104.61,54.2a7.43,7.43,0,0,0-.81-1.4c-1.76-1.8-3.55-3.54-5.33-5.31a1.65,1.65,0,0,0-2.62,0c-.87.86-1.71,1.76-2.65,2.55a7.26,7.26,0,0,1-8.12,1.11,7.14,7.14,0,0,1-4.52-6.65V41.15a1.6,1.6,0,0,0-1.76-1.77H71.08c-1.27,0-1.8.7-1.82,1.89v3a7.15,7.15,0,0,1-4.64,6.92,7.35,7.35,0,0,1-8.36-1.45c-.73-.68-1.45-1.39-2.14-2.12a1.75,1.75,0,0,0-2.87,0c-1.68,1.71-3.39,3.39-5.1,5.06a1.74,1.74,0,0,0,0,2.87c.81.77,1.62,1.54,2.35,2.38a7.09,7.09,0,0,1,1.29,7.93,7.18,7.18,0,0,1-6.55,4.67c-1.17.07-2.34,0-3.51,0a1.73,1.73,0,0,0-1.93,2v7.19a1.751,1.751,0,0,0,2,2h3.18A7.63,7.63,0,0,1,48.32,94.6c-.67.74-1.39,1.44-2.13,2.12-1.1,1-1,2,0,3q2.53,2.43,5,5a1.75,1.75,0,0,0,2.87,0c.77-.8,1.54-1.61,2.38-2.34a7.29,7.29,0,0,1,8.1-1.28,7.16,7.16,0,0,1,4.68,6.72v3.34A1.62,1.62,0,0,0,71,112.91h7.69c1.25,0,1.8-.7,1.81-1.9s0-2.12,0-3.18a7.13,7.13,0,0,1,4.63-6.75,7.3,7.3,0,0,1,8.11,1.23c.89.77,1.69,1.62,2.52,2.45a1.64,1.64,0,0,0,2.62,0l5.34-5.3a1.64,1.64,0,0,0,0-2.62c-.86-.87-1.77-1.7-2.56-2.63a7,7,0,0,1-1.2-7.8,7.18,7.18,0,0,1,6.55-4.68c1.16-.07,2.34,0,3.51,0a1.74,1.74,0,0,0,1.94-2q0-3.6,0-7.19a1.78,1.78,0,0,0-2-2h-3.51a7.67,7.67,0,0,1-6.91-9.19c.49-2.36,2.15-3.83,3.71-5.42C103.72,55.38,104.12,54.8,104.61,54.2Z" transform="translate(394.016 9020)" fill="#6dd6ca"/>
    <path id="Trazado_191337" data-name="Trazado 191337" d="M91.71,132.54a48.211,48.211,0,0,0,16.06-6.94c15.18-10.06,24.49-24,27.39-42.06.23-1.44.43-2.91,2-3.57a3,3,0,0,1,4.14,3.37,65.31,65.31,0,0,1-14.92,33.74A66.45,66.45,0,0,1,92.7,138.83c-.37.1-.74.22-1.43.44,1.27,1.08,2.37,2,3.49,3,.68.57,1.38,1.12,2,1.71,1.58,1.4,1.85,3,.75,4.4a3.1,3.1,0,0,1-4.59.21c-2.72-2.22-5.4-4.48-8.1-6.73-.94-.78-1.91-1.53-2.82-2.36a2.91,2.91,0,0,1-.3-4.5q4.48-5.4,9.07-10.72a3,3,0,0,1,4.43-.45c1.28,1.15,1.36,2.78.12,4.33S92.91,131.09,91.71,132.54Z" transform="translate(394.016 9020)" fill="#fff"/>
    <path id="Trazado_191338" data-name="Trazado 191338" d="M134.06,60.5a51.74,51.74,0,0,0-4.84-13.15Q115.44,21.52,86.75,15.52l-1-.23c-2-.47-3-1.85-2.62-3.58A3,3,0,0,1,87,9.47c27.26,5.82,44.93,22,52.79,48.82.08.27.14.54.23.8a4.33,4.33,0,0,0,.28.43c1.29-2.21,2.49-4.36,3.78-6.47,1.14-1.88,3.18-2.29,4.66-1a2.78,2.78,0,0,1,.64,3.77c-2.39,4.21-4.79,8.42-7.25,12.59A2.85,2.85,0,0,1,138,69.6q-6.3-3.46-12.5-7.08a2.9,2.9,0,0,1-1.21-4,3,3,0,0,1,4.2-1.12C130.27,58.32,132,59.37,134.06,60.5Z" transform="translate(394.016 9020)" fill="#fff"/>
    <path id="Trazado_191339" data-name="Trazado 191339" d="M9.51,89.65C8.2,91.43,7,93.09,5.76,94.73s-3.1,2.18-4.59,1S-.4,93,.9,91.2q4-5.53,8.1-11c1.38-1.85,2.89-2.11,4.76-.79q5.59,4,11.1,8c1.67,1.22,2,2.9,1,4.34S23,93.39,21.3,92.2a52,52,0,0,0-5.72-3.69c.54,1.85,1,3.73,1.64,5.53,7.61,20.79,22.21,33.9,43.58,39.55.37.1.76.16,1.13.29a3,3,0,0,1-1.33,5.77,24.323,24.323,0,0,1-3.25-.76C32.81,131.49,16.92,115.56,10,90.81c-.06-.21-.12-.43-.2-.64a5.53,5.53,0,0,0-.29-.52Z" transform="translate(394.016 9020)" fill="#fff"/>
    <path id="Trazado_191340" data-name="Trazado 191340" d="M57.09,16.86C35.77,24.32,21.62,38.6,15.72,60.71c-.43,1.61-.68,3.27-1,4.91-.4,2.13-1.7,3.22-3.51,2.93S8.4,66.74,8.76,64.68c3.71-21.1,14.91-37,33.37-47.75a64.176,64.176,0,0,1,6.28-3.1c2.13-.94,4.33-1.7,6.85-2.67L50.32,9.33c-.68-.26-1.37-.47-2-.75a3,3,0,1,1,1.91-5.64c1.54.46,3,1.07,4.56,1.61,2.93,1,5.87,2.08,8.8,3.15,2.3.85,3,2.28,2.14,4.6q-2.25,6.28-4.57,12.54c-.75,2-2.32,2.84-4,2.19s-2.34-2.22-1.64-4.26c.66-1.88,1.34-3.74,2-5.61Z" transform="translate(394.016 9020)" fill="#fff"/>
    <path id="Trazado_191341" data-name="Trazado 191341" d="M58.14,76.13A16.76,16.76,0,1,1,74.86,92.8,16.76,16.76,0,0,1,58.14,76.13Zm27.48,0a10.682,10.682,0,1,1,0-.05Z" transform="translate(394.016 9020)" fill="#fff"/>
  </g>
</svg>
