<?xml version="1.0" encoding="utf-8"?>
<!-- Generator: Adobe Illustrator 26.1.0, SVG Export Plug-In . SVG Version: 6.00 Build 0)  -->
<svg version="1.1" id="Layer_1" xmlns="http://www.w3.org/2000/svg" xmlns:xlink="http://www.w3.org/1999/xlink" x="0px" y="0px"
	 viewBox="0 0 1030 532" style="enable-background:new 0 0 1030 532;" xml:space="preserve">
<style type="text/css">
	.st0{fill:#F3F9FF;}
	.st1{fill:#12263F;}
	.st2{fill:#104C82;}
	.st3{fill:#1C5588;}
	.st4{fill:#1E5789;}
	.st5{fill:#316593;}
	.st6{fill:#40709B;}
	.st7{fill:none;stroke:#7395CB;stroke-miterlimit:10;}
	.st8{fill:#FFFFFF;}
	.st9{fill:#FFA726;stroke:#7395CB;}
</style>
<path id="Trazado_191424" class="st0" d="M21,0h988c11.6,0,21,9.4,21,21v490c0,11.6-9.4,21-21,21l0,0H21c-11.6,0-21-9.4-21-21l0,0
	V21C0,9.4,9.4,0,21,0z"/>
<path id="Trazado_191402" class="st1" d="M103.3,68.1h-4.9v4.4h4.6v1.3h-4.6v5.6h-1.5V66.8h6.4V68.1z M109,79.6
	c-1.2,0.1-2.4-0.4-3.2-1.3c-0.8-0.9-1.2-2.1-1.2-3.3c-0.1-1.3,0.4-2.6,1.2-3.5c0.9-0.9,2.1-1.3,3.3-1.3c1.2-0.1,2.3,0.4,3.1,1.2
	c0.8,1,1.2,2.2,1.1,3.4c0.1,1.3-0.4,2.5-1.2,3.5C111.5,79.2,110.3,79.7,109,79.6z M109.1,71.4c-0.8,0-1.7,0.3-2.2,0.9
	c-0.6,0.7-0.9,1.7-0.8,2.6c-0.1,0.9,0.2,1.8,0.8,2.5c0.6,0.6,1.4,1,2.2,0.9c0.8,0,1.6-0.3,2.1-0.9c0.5-0.7,0.8-1.7,0.8-2.6
	c0.1-0.9-0.2-1.8-0.8-2.6C110.8,71.7,110,71.3,109.1,71.4z M122,79c-0.7,0.4-1.6,0.6-2.5,0.6c-1.2,0-2.3-0.4-3.1-1.3
	c-0.8-0.9-1.2-2.1-1.2-3.2c-0.1-1.3,0.4-2.6,1.3-3.6c0.9-0.9,2.1-1.4,3.4-1.3c0.7,0,1.4,0.1,2.1,0.4v1.5c-0.6-0.5-1.4-0.7-2.1-0.7
	c-0.9,0-1.7,0.3-2.3,1c-0.6,0.7-0.9,1.7-0.9,2.6c-0.1,0.9,0.2,1.8,0.8,2.5c0.6,0.6,1.4,0.9,2.2,0.9c0.8,0,1.6-0.3,2.2-0.8L122,79
	L122,79z M127.9,79.6c-1.2,0.1-2.4-0.4-3.2-1.3c-0.8-0.9-1.2-2.1-1.2-3.3c-0.1-1.3,0.4-2.6,1.2-3.5c0.9-0.9,2.1-1.3,3.3-1.3
	c1.2-0.1,2.3,0.4,3.1,1.2c0.8,1,1.2,2.2,1.1,3.4c0.1,1.3-0.4,2.5-1.2,3.5C130.3,79.2,129.1,79.7,127.9,79.6z M128,71.4
	c-0.8,0-1.7,0.3-2.2,0.9c-0.6,0.7-0.9,1.7-0.8,2.6c-0.1,0.9,0.2,1.8,0.8,2.5c0.6,0.6,1.4,1,2.2,0.9c0.8,0,1.6-0.3,2.1-0.9
	c0.5-0.7,0.8-1.7,0.8-2.6c0.1-0.9-0.2-1.8-0.8-2.6C129.6,71.7,128.8,71.3,128,71.4z M146.8,75.2h-6.4c0,0.8,0.3,1.7,0.8,2.3
	c0.6,0.6,1.3,0.9,2.1,0.8c1,0,2-0.4,2.8-1v1.3c-0.9,0.6-2,0.9-3.1,0.9c-1.1,0.1-2.2-0.4-3-1.2c-0.8-1-1.2-2.2-1.1-3.4
	c-0.1-1.3,0.4-2.5,1.2-3.4c0.7-0.9,1.8-1.3,3-1.3c1-0.1,2,0.4,2.7,1.1c0.7,0.9,1,2,1,3.2V75.2z M145.4,74c0-0.7-0.2-1.4-0.6-1.9
	c-0.4-0.5-1-0.7-1.6-0.7c-0.7,0-1.3,0.3-1.7,0.7c-0.5,0.5-0.8,1.2-0.9,1.9H145.4z M156.5,79.4h-1.4v-5.1c0-1.9-0.7-2.9-2.1-2.9
	c-0.7,0-1.3,0.3-1.8,0.8c-0.5,0.6-0.7,1.3-0.7,2.1v5.1H149v-9h1.4v1.5l0,0c0.6-1.1,1.7-1.7,2.9-1.7c0.9-0.1,1.7,0.3,2.3,1
	c0.6,0.8,0.8,1.8,0.8,2.8v5.4H156.5z M176.9,79.4h-1.4v-5.2c0.1-0.8-0.1-1.5-0.5-2.2c-0.4-0.5-1-0.7-1.6-0.7s-1.2,0.3-1.6,0.8
	c-0.4,0.6-0.7,1.3-0.6,2v5.1h-1.4V74c0-1.8-0.7-2.7-2-2.7c-0.6,0-1.2,0.3-1.6,0.8c-0.4,0.6-0.6,1.3-0.6,2.1v5.1h-1.4v-9h1.4v1.4l0,0
	c0.5-1,1.6-1.7,2.8-1.6c0.6,0,1.1,0.2,1.6,0.5s0.8,0.8,0.9,1.3c0.5-1.2,1.7-1.9,3-1.9c2,0,3,1.2,3,3.7L176.9,79.4z M186.9,75.2h-6.4
	c0,0.8,0.3,1.7,0.8,2.3c0.6,0.6,1.3,0.9,2.1,0.8c1,0,2-0.4,2.8-1v1.3c-0.9,0.6-2,0.9-3.1,0.9c-1.1,0.1-2.2-0.4-3-1.2
	c-0.8-1-1.2-2.2-1.1-3.4c-0.1-1.3,0.4-2.5,1.2-3.4c0.7-0.9,1.8-1.3,3-1.3c1-0.1,2,0.4,2.7,1.1c0.7,0.9,1,2,1,3.2V75.2z M185.4,74
	c0-0.7-0.2-1.4-0.6-1.9c-0.4-0.5-1-0.7-1.7-0.7s-1.3,0.3-1.7,0.7c-0.5,0.5-0.8,1.2-0.9,1.9H185.4z M190.5,79
	c0.1,1.2-0.2,2.4-0.9,3.4c-0.6,0.8-1.6,1.3-2.6,1.2c-0.4,0-0.8-0.1-1.2-0.3V82c0.4,0.2,0.8,0.4,1.2,0.4c1.3,0,2-1,2-3.1v-8.9h1.5V79
	z M189.8,68.1c-0.2,0-0.5-0.1-0.7-0.3c-0.2-0.2-0.3-0.4-0.3-0.7c0-0.3,0.1-0.5,0.3-0.7s0.4-0.3,0.7-0.3s0.5,0.1,0.7,0.3
	c0.2,0.2,0.3,0.4,0.3,0.7c0,0.2-0.1,0.5-0.3,0.7C190.3,68,190.1,68.1,189.8,68.1L189.8,68.1z M197.2,79.6c-1.2,0.1-2.4-0.4-3.2-1.3
	s-1.2-2.1-1.2-3.3c-0.1-1.3,0.4-2.6,1.2-3.5c0.9-0.9,2.1-1.3,3.3-1.3c1.2-0.1,2.3,0.4,3.1,1.2c0.8,1,1.2,2.2,1.1,3.4
	c0.1,1.3-0.4,2.5-1.2,3.5C199.6,79.2,198.4,79.7,197.2,79.6L197.2,79.6z M197.3,71.4c-0.8,0-1.7,0.3-2.2,0.9
	c-0.6,0.7-0.9,1.7-0.8,2.6c-0.1,0.9,0.2,1.8,0.8,2.5c0.6,0.6,1.4,1,2.2,0.9c0.8,0,1.6-0.3,2.1-0.9c0.5-0.7,0.8-1.7,0.8-2.6
	c0.1-0.9-0.2-1.8-0.8-2.6C198.9,71.7,198.1,71.3,197.3,71.4z M208.7,71.8c-0.3-0.2-0.7-0.3-1.1-0.3c-0.6,0-1.2,0.3-1.5,0.9
	c-0.4,0.7-0.7,1.5-0.6,2.4v4.6H204v-9h1.4v1.9l0,0c0.2-0.6,0.5-1.1,0.9-1.5c0.4-0.3,0.9-0.5,1.4-0.5c0.3,0,0.6,0,0.9,0.1L208.7,71.8
	z M216.3,79.4h-1.4V78l0,0c-0.5,1-1.6,1.7-2.8,1.6c-0.8,0-1.5-0.2-2.1-0.7c-0.5-0.5-0.8-1.2-0.8-1.9c0-1.7,1-2.7,3-2.9l2.7-0.4
	c0-1.5-0.6-2.3-1.9-2.3c-1.1,0-2.1,0.4-2.9,1.1V71c0.9-0.6,2-0.9,3.1-0.8c2.1,0,3.2,1.1,3.2,3.4L216.3,79.4z M214.9,74.8l-2.2,0.3
	c-0.5,0-1.1,0.2-1.5,0.5s-0.6,0.8-0.5,1.3c0,0.4,0.2,0.8,0.5,1.1c0.4,0.3,0.8,0.4,1.3,0.4c0.7,0,1.3-0.3,1.8-0.8s0.7-1.2,0.7-1.9
	L214.9,74.8z M102.8,100.6c-0.7,0.4-1.6,0.6-2.5,0.6c-1.2,0-2.3-0.4-3.1-1.3C96.4,99,96,97.8,96,96.7c-0.1-1.3,0.4-2.6,1.3-3.6
	c0.9-0.9,2.1-1.4,3.4-1.3c0.7,0,1.4,0.1,2.1,0.4v1.5c-0.6-0.5-1.4-0.7-2.1-0.7c-0.9,0-1.7,0.3-2.3,1c-0.6,0.7-0.9,1.7-0.9,2.6
	c-0.1,0.9,0.2,1.8,0.8,2.5c0.6,0.6,1.4,1,2.2,0.9c0.8,0,1.6-0.3,2.2-0.8L102.8,100.6z M108.7,101.2c-1.2,0.1-2.4-0.4-3.2-1.3
	c-0.8-0.9-1.2-2.1-1.2-3.3c-0.1-1.3,0.4-2.6,1.2-3.5c0.9-0.9,2.1-1.3,3.3-1.3c1.2-0.1,2.3,0.4,3.1,1.2c0.8,1,1.2,2.2,1.1,3.4
	c0.1,1.3-0.4,2.5-1.2,3.4C111.2,100.8,110,101.3,108.7,101.2z M108.8,93c-0.8,0-1.7,0.3-2.2,0.9c-0.6,0.7-0.9,1.7-0.8,2.6
	c-0.1,0.9,0.2,1.8,0.8,2.5c0.6,0.6,1.4,1,2.2,0.9c0.8,0,1.6-0.3,2.1-0.9c0.5-0.7,0.8-1.7,0.8-2.6c0.1-0.9-0.2-1.8-0.8-2.6
	C110.5,93.3,109.7,92.9,108.8,93L108.8,93z M123,101h-1.4v-5.1c0-1.9-0.7-2.9-2.1-2.9c-0.7,0-1.3,0.3-1.8,0.8
	c-0.5,0.6-0.7,1.3-0.7,2.1v5.1h-1.4v-9h1.4v1.5l0,0c0.6-1.1,1.7-1.7,3-1.7c0.9-0.1,1.7,0.3,2.3,1c0.6,0.8,0.8,1.8,0.8,2.8L123,101z
	 M129.9,100.9c-0.4,0.2-0.9,0.3-1.3,0.3c-1.6,0-2.4-0.9-2.4-2.6v-5.3h-1.5V92h1.5v-2.2l1.4-0.5V92h2.3v1.2h-2.3v5.1
	c0,0.5,0.1,0.9,0.3,1.3c0.3,0.3,0.6,0.4,1,0.4c0.3,0,0.7-0.1,0.9-0.3L129.9,100.9z M132.6,89.7c-0.2,0-0.5-0.1-0.7-0.3
	c-0.2-0.2-0.3-0.4-0.3-0.7c0-0.5,0.4-0.9,0.9-0.9l0,0c0.3,0,0.5,0.1,0.7,0.3c0.4,0.4,0.4,1,0,1.3l0,0
	C133,89.6,132.8,89.7,132.6,89.7L132.6,89.7z M133.3,101h-1.4v-9h1.4V101z M143.6,101h-1.4v-5.1c0-1.9-0.7-2.9-2.1-2.9
	c-0.7,0-1.3,0.3-1.8,0.8c-0.5,0.6-0.7,1.3-0.7,2.1v5.1h-1.4v-9h1.4v1.5l0,0c0.6-1.1,1.7-1.7,3-1.7c0.9-0.1,1.7,0.3,2.3,1
	c0.6,0.8,0.8,1.8,0.8,2.8L143.6,101z M153.6,101h-1.4v-1.4l0,0c-0.5,1-1.6,1.7-2.8,1.6c-2.1,0-3.2-1.3-3.2-3.8V92h1.4v5.2
	c0,1.9,0.7,2.8,2.2,2.8c0.7,0,1.3-0.3,1.7-0.8c0.5-0.6,0.7-1.3,0.7-2V92h1.4L153.6,101z M163,101h-1.4v-1.4l0,0
	c-0.5,1-1.6,1.7-2.8,1.6c-0.8,0-1.5-0.2-2.1-0.7c-0.5-0.5-0.8-1.2-0.8-1.9c0-1.7,1-2.7,3-2.9l2.7-0.4c0-1.5-0.6-2.3-1.9-2.3
	c-1.1,0-2.1,0.4-2.9,1.1v-1.5c0.9-0.6,2-0.9,3.1-0.8c2.1,0,3.2,1.1,3.2,3.4L163,101z M161.5,96.4l-2.2,0.3c-0.5,0-1.1,0.2-1.5,0.5
	s-0.6,0.8-0.5,1.3c0,0.4,0.2,0.8,0.5,1.1c0.4,0.3,0.8,0.4,1.3,0.4c0.7,0,1.3-0.3,1.8-0.8s0.7-1.2,0.7-1.9v-0.9H161.5z M178.3,101
	h-1.4v-1.5l0,0c-0.6,1.1-1.8,1.8-3.1,1.7c-1,0-2-0.4-2.7-1.2c-0.7-0.9-1.1-2.1-1-3.3c-0.1-1.3,0.3-2.6,1.1-3.6
	c0.7-0.9,1.8-1.4,3-1.3c1.1-0.1,2.2,0.5,2.7,1.5l0,0v-5.6h1.4V101z M176.9,96.9v-1.3c0-0.7-0.2-1.4-0.7-1.8
	c-0.5-0.5-1.1-0.8-1.8-0.8c-0.8,0-1.6,0.3-2.1,1c-0.5,0.8-0.8,1.7-0.8,2.7c0,0.9,0.2,1.7,0.7,2.5c0.5,0.6,1.2,0.9,1.9,0.9
	c0.8,0,1.5-0.3,2-0.9C176.6,98.5,176.9,97.7,176.9,96.9z M188.5,96.9h-6.4c0,0.8,0.3,1.7,0.8,2.3c0.6,0.6,1.3,0.9,2.1,0.8
	c1,0,2-0.4,2.8-1v1.4c-0.9,0.6-2,0.9-3.1,0.9c-1.1,0.1-2.2-0.4-3-1.2c-0.8-1-1.2-2.2-1.1-3.4c-0.1-1.3,0.4-2.5,1.2-3.4
	c0.7-0.9,1.8-1.3,3-1.3c1-0.1,2,0.4,2.7,1.1c0.7,0.9,1,2,1,3.2V96.9z M187,95.6c0-0.7-0.2-1.4-0.6-1.9c-0.4-0.5-1-0.7-1.6-0.7
	c-0.7,0-1.3,0.3-1.7,0.7c-0.5,0.5-0.8,1.2-0.9,1.9H187z M197.1,99.7L197.1,99.7v5.4h-1.4V92h1.4v1.6l0,0c0.6-1.1,1.8-1.8,3.1-1.8
	c1-0.1,2.1,0.4,2.7,1.2c0.7,0.9,1,2.1,1,3.2c0.1,1.3-0.3,2.6-1.1,3.6c-0.7,0.9-1.8,1.4-3,1.4C198.6,101.2,197.6,100.7,197.1,99.7z
	 M197,96.1v1.3c0,0.7,0.2,1.4,0.7,1.9c1,1,2.6,1,3.7,0c0.1-0.1,0.2-0.2,0.2-0.3c0.5-0.8,0.8-1.8,0.7-2.8c0-0.8-0.2-1.7-0.7-2.4
	c-0.5-0.6-1.2-0.9-1.9-0.9c-0.8,0-1.5,0.3-2,0.9C197.3,94.5,197,95.3,197,96.1L197,96.1z M210.9,93.4c-0.3-0.2-0.7-0.3-1.1-0.3
	c-0.6,0-1.2,0.3-1.5,0.9c-0.4,0.7-0.7,1.5-0.6,2.4v4.6h-1.4v-9h1.4v1.9l0,0c0.2-0.6,0.5-1.1,0.9-1.5c0.4-0.3,0.9-0.5,1.4-0.5
	c0.3,0,0.6,0,0.9,0.1L210.9,93.4z M216,101.2c-1.2,0.1-2.4-0.4-3.2-1.3s-1.2-2.1-1.2-3.3c-0.1-1.3,0.4-2.6,1.2-3.5
	c0.9-0.9,2.1-1.3,3.3-1.3c1.2-0.1,2.3,0.4,3.1,1.2c0.8,1,1.2,2.2,1.1,3.4c0.1,1.3-0.4,2.5-1.2,3.4
	C218.4,100.8,217.2,101.3,216,101.2L216,101.2z M216.1,93c-0.8,0-1.7,0.3-2.2,0.9c-0.6,0.7-0.9,1.7-0.8,2.6
	c-0.1,0.9,0.2,1.8,0.8,2.5c0.6,0.6,1.4,1,2.2,0.9c0.8,0,1.6-0.3,2.1-0.9c0.5-0.7,0.8-1.7,0.8-2.6c0.1-0.9-0.2-1.8-0.8-2.6
	C217.7,93.3,216.9,92.9,216.1,93z M228.9,100.6c-0.7,0.4-1.6,0.6-2.5,0.6c-1.2,0-2.3-0.4-3.1-1.3s-1.2-2.1-1.2-3.2
	c-0.1-1.3,0.4-2.6,1.3-3.6c0.9-0.9,2.1-1.4,3.4-1.3c0.7,0,1.4,0.1,2.1,0.4v1.5c-0.6-0.5-1.4-0.7-2.1-0.7c-0.9,0-1.7,0.3-2.3,1
	s-0.9,1.7-0.9,2.6c-0.1,0.9,0.2,1.8,0.8,2.5c0.6,0.6,1.4,1,2.2,0.9c0.8,0,1.6-0.3,2.2-0.8L228.9,100.6z M238.3,96.8H232
	c0,0.8,0.3,1.7,0.8,2.3c0.6,0.6,1.3,0.9,2.1,0.8c1,0,2-0.4,2.8-1v1.4c-0.9,0.6-2,0.9-3.1,0.9c-1.1,0.1-2.2-0.4-3-1.2
	c-0.8-1-1.2-2.2-1.1-3.4c-0.1-1.3,0.4-2.5,1.2-3.4c0.7-0.9,1.8-1.3,3-1.3c1-0.1,2,0.4,2.7,1.1c0.7,0.9,1,2,1,3.2L238.3,96.8z
	 M236.9,95.6c0-0.7-0.2-1.4-0.6-1.9c-0.4-0.5-1-0.7-1.6-0.7c-0.7,0-1.3,0.3-1.7,0.7c-0.5,0.5-0.8,1.2-0.9,1.9H236.9z M240,100.7
	v-1.5c0.7,0.6,1.7,0.9,2.6,0.9c1.3,0,1.9-0.4,1.9-1.3c0-0.2-0.1-0.4-0.2-0.6c-0.1-0.2-0.3-0.3-0.4-0.4c-0.2-0.1-0.4-0.3-0.6-0.3
	c-0.2-0.1-0.5-0.2-0.8-0.3c-0.4-0.1-0.7-0.3-1.1-0.5c-0.3-0.1-0.5-0.3-0.8-0.5c-0.2-0.2-0.4-0.4-0.5-0.7c-0.1-0.3-0.2-0.6-0.2-0.9
	c0-0.4,0.1-0.8,0.3-1.1c0.2-0.3,0.5-0.6,0.8-0.8c0.3-0.2,0.7-0.4,1.1-0.5c0.4-0.1,0.8-0.2,1.3-0.2c0.7,0,1.4,0.1,2.1,0.4v1.5
	c-0.7-0.4-1.5-0.7-2.3-0.7c-0.2,0-0.5,0-0.7,0.1s-0.4,0.1-0.6,0.3c-0.1,0.1-0.3,0.2-0.4,0.4c-0.1,0.2-0.1,0.3-0.1,0.5s0,0.4,0.1,0.6
	s0.2,0.3,0.4,0.4s0.4,0.2,0.6,0.3c0.2,0.1,0.5,0.2,0.8,0.3c0.4,0.1,0.7,0.3,1.1,0.5c0.3,0.1,0.6,0.3,0.8,0.5s0.4,0.4,0.5,0.7
	c0.1,0.3,0.2,0.6,0.2,0.9c0,0.4-0.1,0.8-0.3,1.2c-0.2,0.3-0.5,0.6-0.8,0.8c-0.3,0.2-0.7,0.4-1.1,0.5c-0.4,0.1-0.9,0.2-1.3,0.2
	C241.5,101.2,240.7,101,240,100.7L240,100.7z M251.9,101.2c-1.2,0.1-2.4-0.4-3.2-1.3s-1.2-2.1-1.2-3.3c-0.1-1.3,0.4-2.6,1.2-3.5
	c0.9-0.9,2.1-1.3,3.3-1.3c1.2-0.1,2.3,0.4,3.1,1.2c0.8,1,1.2,2.2,1.1,3.4c0.1,1.3-0.4,2.5-1.2,3.4
	C254.3,100.8,253.1,101.3,251.9,101.2L251.9,101.2z M252,93c-0.8,0-1.7,0.3-2.2,0.9c-0.6,0.7-0.9,1.7-0.8,2.6
	c-0.1,0.9,0.2,1.8,0.8,2.5c0.6,0.6,1.4,1,2.2,0.9c0.8,0,1.6-0.3,2.1-0.9c0.5-0.7,0.8-1.7,0.8-2.6c0.1-0.9-0.2-1.8-0.8-2.6
	C253.6,93.3,252.8,92.9,252,93L252,93z M258.2,100.7v-1.5c0.7,0.6,1.7,0.9,2.6,0.9c1.3,0,1.9-0.4,1.9-1.3c0-0.2-0.1-0.4-0.2-0.6
	s-0.3-0.3-0.4-0.4c-0.2-0.1-0.4-0.3-0.6-0.3c-0.2-0.1-0.5-0.2-0.8-0.3c-0.4-0.1-0.7-0.3-1.1-0.5c-0.3-0.1-0.5-0.3-0.8-0.5
	c-0.2-0.2-0.4-0.4-0.5-0.7c-0.1-0.3-0.2-0.6-0.2-0.9c0-0.4,0.1-0.8,0.3-1.1c0.2-0.3,0.5-0.6,0.8-0.8c0.3-0.2,0.7-0.4,1.1-0.5
	s0.8-0.2,1.3-0.2c0.7,0,1.4,0.1,2.1,0.4v1.5c-0.7-0.4-1.5-0.7-2.3-0.7c-0.2,0-0.5,0-0.7,0.1s-0.4,0.1-0.6,0.3
	c-0.1,0.1-0.3,0.2-0.4,0.4c-0.1,0.2-0.1,0.3-0.1,0.5s0,0.4,0.1,0.6s0.2,0.3,0.4,0.4c0.2,0.1,0.4,0.2,0.6,0.3
	c0.2,0.1,0.5,0.2,0.8,0.3c0.4,0.1,0.7,0.3,1.1,0.5c0.3,0.1,0.6,0.3,0.8,0.5c0.2,0.2,0.4,0.4,0.5,0.7c0.1,0.3,0.2,0.6,0.2,0.9
	c0,0.4-0.1,0.8-0.3,1.2c-0.2,0.3-0.5,0.6-0.8,0.8c-0.3,0.2-0.7,0.4-1.1,0.5s-0.9,0.2-1.3,0.2C259.7,101.2,258.9,101,258.2,100.7
	L258.2,100.7z"/>
<path id="Trazado_191403" class="st1" d="M98.3,160v4.8h-1.5v-12.6h3.5c1.1-0.1,2.2,0.3,3.1,1c0.8,0.7,1.2,1.7,1.1,2.8
	c0,1.1-0.4,2.2-1.2,2.9c-0.9,0.8-2.1,1.2-3.3,1.1H98.3z M98.3,153.5v5.2h1.5c0.8,0.1,1.7-0.2,2.3-0.7c0.6-0.5,0.8-1.2,0.8-2
	c0-1.7-1-2.5-3-2.5H98.3z M111.4,157.3c-0.3-0.2-0.7-0.3-1.1-0.3c-0.6,0-1.2,0.3-1.5,0.9c-0.4,0.7-0.7,1.5-0.6,2.4v4.6h-1.4v-9h1.4
	v1.9l0,0c0.2-0.6,0.5-1.1,0.9-1.5c0.4-0.3,0.9-0.5,1.4-0.5c0.3,0,0.6,0,0.9,0.1L111.4,157.3z M116.6,165c-1.2,0.1-2.4-0.4-3.2-1.3
	c-0.8-0.9-1.3-2.1-1.2-3.3c-0.1-1.3,0.4-2.6,1.2-3.5c0.9-0.9,2.1-1.3,3.3-1.3c1.2-0.1,2.3,0.4,3.1,1.2c0.8,1,1.2,2.2,1.1,3.4
	c0.1,1.3-0.4,2.5-1.2,3.4C119,164.6,117.8,165.1,116.6,165z M116.7,156.8c-0.8,0-1.7,0.3-2.2,0.9c-0.6,0.7-0.9,1.7-0.8,2.6
	c0,0.9,0.2,1.8,0.8,2.5c0.6,0.6,1.4,1,2.2,0.9c0.8,0,1.6-0.3,2.1-0.9c0.5-0.7,0.8-1.7,0.8-2.6c0.1-0.9-0.2-1.8-0.8-2.6
	C118.3,157.1,117.5,156.8,116.7,156.8z M129.5,164.4c-0.7,0.4-1.6,0.6-2.5,0.6c-1.2,0-2.3-0.4-3.1-1.3c-0.8-0.9-1.2-2.1-1.2-3.2
	c-0.1-1.3,0.4-2.6,1.3-3.6c0.9-0.9,2.1-1.4,3.4-1.3c0.7,0,1.4,0.1,2.1,0.4v1.5c-0.6-0.5-1.4-0.7-2.1-0.7c-0.9,0-1.7,0.3-2.3,1
	c-0.6,0.7-0.9,1.7-0.9,2.6c-0.1,0.9,0.2,1.8,0.8,2.5c0.6,0.6,1.4,0.9,2.2,0.9c0.8,0,1.6-0.3,2.2-0.8L129.5,164.4L129.5,164.4z
	 M138.9,160.7h-6.4c0,0.8,0.3,1.7,0.8,2.3c0.6,0.6,1.3,0.9,2.1,0.8c1,0,2-0.4,2.8-1v1.4c-0.9,0.6-2,0.9-3.1,0.9
	c-1.1,0.1-2.2-0.4-3-1.2c-0.8-1-1.2-2.2-1.1-3.4c-0.1-1.3,0.4-2.5,1.2-3.4c0.7-0.9,1.8-1.3,3-1.3c1-0.1,2,0.4,2.7,1.1
	c0.7,0.9,1,2,1,3.2V160.7z M137.4,159.4c0-0.7-0.2-1.4-0.6-1.9c-0.4-0.5-1-0.7-1.7-0.7s-1.3,0.3-1.7,0.7c-0.5,0.5-0.8,1.2-0.9,1.9
	H137.4z M140.6,164.5V163c0.7,0.6,1.7,0.9,2.6,0.9c1.3,0,1.9-0.4,1.9-1.3c0-0.2-0.1-0.4-0.2-0.6c-0.1-0.2-0.3-0.3-0.4-0.4
	c-0.2-0.1-0.4-0.3-0.7-0.3c-0.2-0.1-0.5-0.2-0.8-0.3c-0.4-0.1-0.7-0.3-1-0.5c-0.3-0.1-0.5-0.3-0.8-0.5c-0.2-0.2-0.4-0.4-0.5-0.7
	s-0.2-0.6-0.2-0.9c0-0.4,0.1-0.8,0.3-1.1s0.5-0.6,0.8-0.8s0.7-0.4,1.1-0.5c0.4-0.1,0.8-0.2,1.3-0.2c0.7,0,1.4,0.1,2.1,0.4v1.5
	c-0.7-0.4-1.5-0.7-2.3-0.6c-0.2,0-0.5,0-0.7,0.1s-0.4,0.1-0.6,0.3c-0.1,0.1-0.3,0.2-0.4,0.4c-0.1,0.2-0.1,0.3-0.1,0.5s0,0.4,0.1,0.6
	c0.1,0.2,0.2,0.3,0.4,0.4c0.2,0.1,0.4,0.2,0.6,0.3c0.2,0.1,0.5,0.2,0.8,0.3c0.4,0.1,0.7,0.3,1.1,0.5c0.3,0.1,0.6,0.3,0.8,0.5
	s0.4,0.4,0.5,0.7s0.2,0.6,0.2,0.9c0,0.4-0.1,0.8-0.3,1.2c-0.2,0.3-0.5,0.6-0.8,0.8s-0.7,0.4-1.1,0.5c-0.4,0.1-0.9,0.2-1.3,0.2
	C142.1,165,141.3,164.9,140.6,164.5z M152.5,165c-1.2,0.1-2.4-0.4-3.2-1.3c-0.8-0.9-1.2-2.1-1.2-3.3c-0.1-1.3,0.4-2.6,1.2-3.5
	c0.9-0.9,2.1-1.3,3.3-1.3c1.2-0.1,2.3,0.4,3.1,1.2c0.8,1,1.2,2.2,1.1,3.4c0.1,1.3-0.4,2.5-1.2,3.4
	C154.9,164.6,153.7,165.1,152.5,165z M152.6,156.8c-0.8,0-1.7,0.3-2.2,0.9c-0.6,0.7-0.9,1.7-0.8,2.6c-0.1,0.9,0.2,1.8,0.8,2.5
	c0.6,0.6,1.4,1,2.2,0.9c0.8,0,1.6-0.3,2.1-0.9c0.5-0.7,0.8-1.7,0.8-2.6c0.1-0.9-0.2-1.8-0.8-2.6
	C154.2,157.1,153.4,156.8,152.6,156.8z M177,164.8h-1.4v-5.2c0.1-0.8-0.1-1.5-0.5-2.2c-0.4-0.5-1-0.7-1.6-0.7s-1.2,0.3-1.6,0.8
	c-0.4,0.6-0.7,1.3-0.6,2v5.1h-1.4v-5.3c0-1.8-0.7-2.7-2-2.7c-0.6,0-1.2,0.3-1.6,0.8c-0.4,0.6-0.6,1.3-0.6,2.1v5.1h-1.4v-9h1.4v1.4
	l0,0c0.5-1,1.6-1.7,2.8-1.6c0.6,0,1.1,0.2,1.6,0.5s0.8,0.8,0.9,1.3c0.5-1.2,1.7-1.9,3-1.9c2,0,3,1.2,3,3.7L177,164.8z M187,160.7
	h-6.4c0,0.8,0.3,1.7,0.8,2.3c0.6,0.6,1.3,0.9,2.1,0.8c1,0,2-0.4,2.8-1v1.4c-0.9,0.6-2,0.9-3.1,0.9c-1.1,0.1-2.2-0.4-3-1.2
	c-0.8-1-1.2-2.2-1.1-3.4c-0.1-1.3,0.4-2.5,1.2-3.4c0.7-0.9,1.8-1.3,3-1.3c1-0.1,2,0.4,2.7,1.1c0.7,0.9,1,2,1,3.2V160.7z
	 M185.5,159.4c0-0.7-0.2-1.4-0.6-1.9c-0.4-0.5-1-0.7-1.6-0.7c-0.7,0-1.3,0.3-1.7,0.7c-0.5,0.5-0.8,1.2-0.9,1.9H185.5z M196.8,164.8
	h-1.4v-1.5l0,0c-0.6,1.1-1.8,1.8-3.1,1.7c-1,0-2-0.4-2.7-1.2c-0.7-0.9-1.1-2.1-1-3.3c-0.1-1.3,0.3-2.6,1.1-3.6
	c0.7-0.9,1.8-1.4,3-1.3c1.1-0.1,2.2,0.5,2.7,1.5l0,0v-5.6h1.4V164.8z M195.4,160.7v-1.3c0-0.7-0.2-1.4-0.7-1.8
	c-0.5-0.5-1.1-0.8-1.8-0.8c-0.8,0-1.6,0.3-2.1,1c-0.5,0.8-0.8,1.7-0.8,2.7c-0.1,0.9,0.2,1.7,0.7,2.5c0.5,0.6,1.2,0.9,1.9,0.9
	c0.8,0,1.5-0.3,2-0.9C195.1,162.3,195.4,161.5,195.4,160.7z M200.5,153.5c-0.2,0-0.5-0.1-0.7-0.3s-0.3-0.4-0.3-0.7s0.1-0.5,0.3-0.7
	s0.4-0.3,0.7-0.3s0.5,0.1,0.7,0.3s0.3,0.4,0.3,0.7c0,0.2-0.1,0.5-0.3,0.7S200.7,153.5,200.5,153.5L200.5,153.5z M201.2,164.8h-1.4
	v-9h1.4V164.8z M211.8,164.8h-1.4v-1.5l0,0c-0.6,1.1-1.8,1.8-3.1,1.7c-1,0-2-0.4-2.7-1.2c-0.7-0.9-1.1-2.1-1-3.3
	c-0.1-1.3,0.3-2.6,1.1-3.6c0.7-0.9,1.8-1.4,3-1.3c1.1-0.1,2.2,0.5,2.7,1.5l0,0v-5.6h1.4V164.8z M210.3,160.7v-1.3
	c0-0.7-0.2-1.4-0.7-1.8c-0.5-0.5-1.1-0.8-1.8-0.8c-0.8,0-1.6,0.3-2.1,1c-0.5,0.8-0.8,1.7-0.8,2.7c-0.1,0.9,0.2,1.7,0.7,2.5
	c0.5,0.6,1.2,0.9,1.9,0.9c0.8,0,1.5-0.3,2-0.9C210.1,162.3,210.4,161.5,210.3,160.7L210.3,160.7z M218.5,165
	c-1.2,0.1-2.4-0.4-3.2-1.3c-0.8-0.9-1.2-2.1-1.2-3.3c-0.1-1.3,0.4-2.6,1.2-3.5c0.9-0.9,2.1-1.3,3.3-1.3c1.2-0.1,2.3,0.4,3.1,1.2
	c0.8,1,1.2,2.2,1.1,3.4c0.1,1.3-0.4,2.5-1.2,3.4C220.9,164.6,219.7,165.1,218.5,165L218.5,165z M218.6,156.8c-0.8,0-1.7,0.3-2.2,0.9
	c-0.6,0.7-0.9,1.7-0.8,2.6c-0.1,0.9,0.2,1.8,0.8,2.5c0.6,0.6,1.4,1,2.2,0.9c0.8,0,1.6-0.3,2.1-0.9c0.5-0.7,0.8-1.7,0.8-2.6
	c0.1-0.9-0.2-1.8-0.8-2.6C220.2,157.1,219.4,156.8,218.6,156.8z M237.3,155.8l-4.1,10.4c-0.7,1.9-1.8,2.8-3.1,2.8
	c-0.3,0-0.6,0-0.9-0.1v-1.3c0.3,0.1,0.6,0.2,0.9,0.2c0.8,0,1.4-0.6,1.6-1.3l0.7-1.7l-3.5-9h1.6l2.4,6.9c0,0.1,0.1,0.3,0.2,0.7h0.1
	c0-0.1,0.1-0.4,0.2-0.7l2.6-6.9L237.3,155.8L237.3,155.8z M102.8,186c-0.7,0.4-1.6,0.6-2.5,0.6c-1.2,0-2.3-0.4-3.1-1.3
	c-0.8-0.9-1.2-2.1-1.2-3.2c-0.1-1.3,0.4-2.6,1.3-3.6c0.9-0.9,2.1-1.4,3.4-1.3c0.7,0,1.4,0.1,2.1,0.4v1.5c-0.6-0.5-1.4-0.7-2.1-0.7
	c-0.9,0-1.7,0.3-2.3,1c-0.6,0.7-0.9,1.7-0.9,2.6c-0.1,0.9,0.2,1.8,0.8,2.5c0.6,0.6,1.4,1,2.2,0.9c0.8,0,1.6-0.3,2.2-0.8L102.8,186z
	 M108.7,186.6c-1.2,0.1-2.4-0.4-3.2-1.3c-0.8-0.9-1.2-2.1-1.2-3.3c-0.1-1.3,0.4-2.6,1.2-3.5c0.9-0.9,2.1-1.3,3.3-1.3
	c1.2-0.1,2.3,0.4,3.1,1.2c0.8,1,1.2,2.2,1.1,3.4c0.1,1.3-0.4,2.5-1.2,3.4C111.2,186.2,110,186.7,108.7,186.6z M108.8,178.4
	c-0.8,0-1.7,0.3-2.2,0.9c-0.6,0.7-0.9,1.7-0.8,2.6c-0.1,0.9,0.2,1.8,0.8,2.5c0.6,0.6,1.4,1,2.2,0.9c0.8,0,1.6-0.3,2.1-0.9
	c0.5-0.7,0.8-1.7,0.8-2.6c0.1-0.9-0.2-1.8-0.8-2.6C110.5,178.7,109.7,178.4,108.8,178.4L108.8,178.4z M123,186.4h-1.4v-5.1
	c0-1.9-0.7-2.9-2.1-2.9c-0.7,0-1.3,0.3-1.8,0.8c-0.5,0.6-0.7,1.3-0.7,2.1v5.1h-1.4v-9h1.4v1.5l0,0c0.6-1.1,1.7-1.7,3-1.7
	c0.9-0.1,1.7,0.3,2.3,1c0.6,0.8,0.8,1.8,0.8,2.8L123,186.4z M129.9,186.3c-0.4,0.2-0.9,0.3-1.3,0.3c-1.6,0-2.4-0.9-2.4-2.6v-5.3
	h-1.5v-1.2h1.5v-2.2l1.4-0.5v2.7h2.3v1.2h-2.3v5.1c0,0.5,0.1,0.9,0.3,1.3c0.3,0.3,0.6,0.4,1,0.4c0.3,0,0.7-0.1,0.9-0.3L129.9,186.3z
	 M136.5,178.9c-0.3-0.2-0.7-0.3-1.1-0.3c-0.6,0-1.2,0.3-1.5,0.9c-0.4,0.7-0.7,1.5-0.6,2.4v4.6h-1.4v-9h1.4v1.9l0,0
	c0.2-0.6,0.5-1.1,0.9-1.5c0.4-0.3,0.9-0.5,1.4-0.5c0.3,0,0.6,0,0.9,0.1L136.5,178.9z M141.7,186.6c-1.2,0.1-2.4-0.4-3.2-1.3
	c-0.8-0.9-1.2-2.1-1.2-3.3c-0.1-1.3,0.4-2.6,1.2-3.5c0.9-0.9,2.1-1.3,3.3-1.3c1.2-0.1,2.3,0.4,3.1,1.2c0.8,1,1.2,2.2,1.1,3.4
	c0.1,1.3-0.4,2.5-1.2,3.4C144.1,186.2,142.9,186.7,141.7,186.6z M141.8,178.4c-0.8,0-1.7,0.3-2.2,0.9c-0.6,0.7-0.9,1.7-0.8,2.6
	c-0.1,0.9,0.2,1.8,0.8,2.5c0.6,0.6,1.4,1,2.2,0.9c0.8,0,1.6-0.3,2.1-0.9c0.5-0.7,0.8-1.7,0.8-2.6c0.1-0.9-0.2-1.8-0.8-2.6
	C143.4,178.7,142.6,178.4,141.8,178.4L141.8,178.4z M149.9,186.4h-1.4v-13.3h1.4V186.4z M159.2,186.4h-1.4V185l0,0
	c-0.5,1-1.6,1.7-2.8,1.6c-0.8,0-1.5-0.2-2.1-0.7c-0.5-0.5-0.8-1.2-0.8-1.9c0-1.7,1-2.7,3-2.9l2.7-0.4c0-1.5-0.6-2.3-1.9-2.3
	c-1.1,0-2.1,0.4-2.9,1.1V178c0.9-0.6,2-0.9,3.1-0.8c2.1,0,3.2,1.1,3.2,3.4v5.8H159.2z M157.8,181.9l-2.2,0.3c-0.5,0-1.1,0.2-1.5,0.5
	s-0.6,0.8-0.5,1.3c0,0.4,0.2,0.8,0.5,1.1c0.4,0.3,0.8,0.4,1.3,0.4c0.7,0,1.3-0.3,1.8-0.8s0.7-1.2,0.7-1.9L157.8,181.9z M169.6,186.4
	h-1.4v-1.5l0,0c-0.6,1.1-1.8,1.8-3.1,1.7c-1,0-2-0.4-2.7-1.2c-0.7-0.9-1.1-2.1-1-3.3c-0.1-1.3,0.3-2.6,1.1-3.6
	c0.7-0.9,1.8-1.4,3-1.3c1.1-0.1,2.2,0.5,2.7,1.5l0,0v-5.6h1.4V186.4z M168.2,182.3V181c0-0.7-0.2-1.4-0.7-1.8
	c-0.5-0.5-1.1-0.8-1.8-0.8c-0.8,0-1.6,0.3-2.1,1c-0.5,0.8-0.8,1.7-0.8,2.7c0,0.9,0.2,1.7,0.7,2.5c0.5,0.6,1.2,0.9,1.9,0.9
	c0.8,0,1.5-0.3,2-0.9C168,183.9,168.2,183.1,168.2,182.3z M176.3,186.6c-1.2,0.1-2.4-0.4-3.2-1.3c-0.8-0.9-1.2-2.1-1.2-3.3
	c-0.1-1.3,0.4-2.6,1.2-3.5c0.9-0.9,2.1-1.3,3.3-1.3c1.2-0.1,2.3,0.4,3.1,1.2c0.8,1,1.2,2.2,1.1,3.4c0.1,1.3-0.4,2.5-1.2,3.4
	C178.7,186.2,177.5,186.7,176.3,186.6z M176.4,178.4c-0.8,0-1.7,0.3-2.2,0.9c-0.6,0.7-0.9,1.7-0.8,2.6c-0.1,0.9,0.2,1.8,0.8,2.5
	c0.6,0.6,1.4,1,2.2,0.9c0.8,0,1.6-0.3,2.1-0.9c0.5-0.7,0.8-1.7,0.8-2.6c0.1-0.9-0.2-1.8-0.8-2.6C178,178.7,177.2,178.4,176.4,178.4
	L176.4,178.4z"/>
<path id="Trazado_191425" class="st1" d="M98.3,245.5v4.8h-1.5v-12.6h3.5c1.1-0.1,2.2,0.3,3.1,1c0.8,0.7,1.2,1.7,1.1,2.8
	c0,1.1-0.4,2.2-1.2,2.9c-0.9,0.8-2.1,1.2-3.3,1.1H98.3z M98.3,239v5.2h1.5c0.8,0.1,1.7-0.2,2.3-0.7c0.6-0.5,0.8-1.2,0.8-2
	c0-1.7-1-2.5-3-2.5H98.3z"/>
<path id="Trazado_191426" class="st1" d="M112.7,242.7c-0.3-0.2-0.7-0.3-1.1-0.3c-0.6,0-1.2,0.3-1.5,0.9c-0.4,0.7-0.7,1.5-0.6,2.4
	v4.6H108v-9h1.4v1.9l0,0c0.2-0.6,0.5-1.1,0.9-1.5c0.4-0.3,0.9-0.5,1.4-0.5c0.3,0,0.6,0,0.9,0.1L112.7,242.7z"/>
<path id="Trazado_191427" class="st1" d="M117.7,250.4c-1.2,0.1-2.4-0.4-3.2-1.3c-0.8-0.9-1.2-2.1-1.2-3.3c-0.1-1.3,0.4-2.6,1.2-3.5
	c0.9-0.9,2.1-1.3,3.3-1.3c1.2-0.1,2.3,0.4,3.1,1.2c0.8,1,1.2,2.2,1.1,3.4c0.1,1.3-0.4,2.5-1.2,3.4
	C120.1,250,118.9,250.5,117.7,250.4z M117.8,242.2c-0.8,0-1.7,0.3-2.2,0.9c-0.6,0.7-0.9,1.7-0.8,2.6c-0.1,0.9,0.2,1.8,0.8,2.5
	c0.6,0.6,1.4,1,2.2,0.9c0.8,0,1.6-0.3,2.1-0.9c0.5-0.7,0.8-1.7,0.8-2.6c0.1-0.9-0.2-1.8-0.8-2.6
	C119.4,242.5,118.6,242.2,117.8,242.2z M130.6,249.8c-0.7,0.4-1.6,0.6-2.5,0.6c-1.2,0-2.3-0.4-3.1-1.3c-0.8-0.9-1.2-2.1-1.2-3.2
	c-0.1-1.3,0.4-2.6,1.3-3.6c0.9-0.9,2.1-1.4,3.4-1.3c0.7,0,1.4,0.1,2.1,0.4v1.5c-0.6-0.5-1.4-0.7-2.1-0.7c-0.9,0-1.7,0.3-2.3,1
	c-0.6,0.7-0.9,1.7-0.9,2.6c-0.1,0.9,0.2,1.8,0.8,2.5c0.6,0.6,1.4,0.9,2.2,0.9s1.6-0.3,2.2-0.8L130.6,249.8z M140,246.1h-6.4
	c0,0.8,0.3,1.7,0.8,2.3c0.6,0.6,1.3,0.9,2.1,0.8c1,0,2-0.4,2.8-1v1.4c-0.9,0.6-2,0.9-3.1,0.9c-1.1,0.1-2.2-0.4-3-1.2
	c-0.8-1-1.2-2.2-1.1-3.4c-0.1-1.3,0.4-2.5,1.2-3.4c0.7-0.9,1.8-1.3,3-1.3c1-0.1,2,0.4,2.7,1.1c0.7,0.9,1,2,1,3.2V246.1z
	 M138.6,244.9c0-0.7-0.2-1.4-0.6-1.9c-0.4-0.5-1-0.7-1.7-0.7s-1.3,0.3-1.7,0.7c-0.5,0.5-0.8,1.2-0.9,1.9H138.6z M141.7,249.9v-1.5
	c0.7,0.6,1.7,0.9,2.6,0.9c1.3,0,1.9-0.4,1.9-1.3c0-0.2-0.1-0.4-0.2-0.6c-0.1-0.2-0.3-0.3-0.4-0.4c-0.2-0.1-0.4-0.3-0.7-0.3
	c-0.2-0.1-0.5-0.2-0.8-0.3c-0.4-0.1-0.7-0.3-1-0.5c-0.3-0.1-0.5-0.3-0.8-0.5c-0.2-0.2-0.4-0.4-0.5-0.7s-0.2-0.6-0.2-0.9
	c0-0.4,0.1-0.8,0.3-1.1s0.5-0.6,0.8-0.8s0.7-0.4,1.1-0.5c0.4-0.1,0.8-0.2,1.3-0.2c0.7,0,1.4,0.1,2.1,0.4v1.5
	c-0.7-0.4-1.5-0.7-2.3-0.6c-0.2,0-0.5,0-0.7,0.1s-0.4,0.1-0.6,0.3c-0.1,0.1-0.3,0.2-0.4,0.4c-0.1,0.2-0.1,0.3-0.1,0.5s0,0.4,0.1,0.6
	c0.1,0.2,0.2,0.3,0.4,0.4c0.2,0.1,0.4,0.2,0.6,0.3c0.2,0.1,0.5,0.2,0.8,0.3c0.4,0.1,0.7,0.3,1.1,0.5c0.3,0.1,0.6,0.3,0.8,0.5
	s0.4,0.4,0.5,0.7s0.2,0.6,0.2,0.9c0,0.4-0.1,0.8-0.3,1.2c-0.2,0.3-0.5,0.6-0.8,0.8s-0.7,0.4-1.1,0.5c-0.4,0.1-0.9,0.2-1.3,0.2
	C143.2,250.5,142.4,250.3,141.7,249.9z M153.6,250.4c-1.2,0.1-2.4-0.4-3.2-1.3c-0.8-0.9-1.2-2.1-1.2-3.3c-0.1-1.3,0.4-2.6,1.2-3.5
	c0.9-0.9,2.1-1.3,3.3-1.3c1.2-0.1,2.3,0.4,3.1,1.2c0.8,1,1.2,2.2,1.1,3.4c0.1,1.3-0.4,2.5-1.2,3.4C156,250,154.8,250.5,153.6,250.4z
	 M153.7,242.2c-0.8,0-1.7,0.3-2.2,0.9c-0.6,0.7-0.9,1.7-0.8,2.6c-0.1,0.9,0.2,1.8,0.8,2.5c0.6,0.6,1.4,1,2.2,0.9
	c0.8,0,1.6-0.3,2.1-0.9c0.5-0.7,0.8-1.7,0.8-2.6c0.1-0.9-0.2-1.8-0.8-2.6C155.3,242.5,154.5,242.2,153.7,242.2z M171.5,249.8
	c-0.7,0.4-1.6,0.6-2.5,0.6c-1.2,0-2.3-0.4-3.1-1.3c-0.8-0.9-1.2-2.1-1.2-3.2c-0.1-1.3,0.4-2.6,1.3-3.6c0.9-0.9,2.1-1.4,3.4-1.3
	c0.7,0,1.4,0.1,2.1,0.4v1.5c-0.6-0.5-1.4-0.7-2.1-0.7c-0.9,0-1.7,0.3-2.3,1s-0.9,1.7-0.9,2.6c-0.1,0.9,0.2,1.8,0.8,2.5
	c0.6,0.6,1.4,0.9,2.2,0.9s1.6-0.3,2.2-0.8L171.5,249.8z M180.1,250.2h-1.4v-1.4l0,0c-0.5,1-1.6,1.7-2.8,1.6c-0.8,0-1.5-0.2-2.1-0.7
	c-0.5-0.5-0.8-1.2-0.8-1.9c0-1.7,1-2.7,3-2.9l2.7-0.4c0-1.5-0.6-2.3-1.9-2.3c-1.1,0-2.1,0.4-2.9,1.1v-1.5c0.9-0.6,2-0.9,3.1-0.8
	c2.1,0,3.2,1.1,3.2,3.4L180.1,250.2z M178.7,245.7l-2.2,0.3c-0.5,0-1.1,0.2-1.5,0.5s-0.6,0.8-0.5,1.3c0,0.4,0.2,0.8,0.5,1.1
	c0.4,0.3,0.8,0.4,1.3,0.4c0.7,0,1.3-0.3,1.8-0.8s0.7-1.2,0.7-1.9L178.7,245.7z"/>
<path id="Trazado_191428" class="st1" d="M186.9,242.7c-0.3-0.2-0.7-0.3-1.1-0.3c-0.6,0-1.2,0.3-1.5,0.9c-0.4,0.7-0.7,1.5-0.6,2.4
	v4.6h-1.4v-9h1.4v1.9l0,0c0.2-0.6,0.5-1.1,0.9-1.5c0.4-0.3,0.9-0.5,1.4-0.5c0.3,0,0.6,0,0.9,0.1L186.9,242.7z"/>
<path id="Trazado_191429" class="st1" d="M194.4,250.2H193v-1.4l0,0c-0.5,1-1.6,1.7-2.8,1.6c-0.8,0-1.5-0.2-2.1-0.7
	c-0.5-0.5-0.8-1.2-0.8-1.9c0-1.7,1-2.7,3-2.9l2.7-0.4c0-1.5-0.6-2.3-1.9-2.3c-1.1,0-2.1,0.4-2.9,1.1v-1.5c0.9-0.6,2-0.9,3.1-0.8
	c2.1,0,3.2,1.1,3.2,3.4v5.8H194.4z M193,245.7l-2.2,0.3c-0.5,0-1.1,0.2-1.5,0.5s-0.6,0.8-0.5,1.3c0,0.4,0.2,0.8,0.5,1.1
	s0.8,0.4,1.3,0.4c0.7,0,1.3-0.3,1.8-0.8s0.7-1.2,0.7-1.9L193,245.7z M203.3,249.8c-0.7,0.4-1.6,0.6-2.5,0.6c-1.2,0-2.3-0.4-3.1-1.3
	c-0.8-0.9-1.2-2.1-1.2-3.2c-0.1-1.3,0.4-2.6,1.3-3.6c0.9-0.9,2.1-1.4,3.4-1.3c0.7,0,1.4,0.1,2.1,0.4v1.5c-0.6-0.5-1.4-0.7-2.1-0.7
	c-0.9,0-1.7,0.3-2.3,1s-0.9,1.7-0.9,2.6c-0.1,0.9,0.2,1.8,0.8,2.5c0.6,0.6,1.4,0.9,2.2,0.9s1.6-0.3,2.2-0.8v1.4H203.3z M209.6,250.1
	c-0.4,0.2-0.9,0.3-1.3,0.3c-1.6,0-2.4-0.9-2.4-2.6v-5.3h-1.5v-1.2h1.5V239l1.4-0.5v2.7h2.3v1.2h-2.3v5.1c0,0.5,0.1,0.9,0.3,1.3
	c0.3,0.3,0.6,0.4,1,0.4c0.3,0,0.7-0.1,0.9-0.3L209.6,250.1z M218.8,246.1h-6.4c0,0.8,0.3,1.7,0.8,2.3c0.6,0.6,1.3,0.9,2.1,0.8
	c1,0,2-0.4,2.8-1v1.4c-0.9,0.6-2,0.9-3.1,0.9c-1.1,0.1-2.2-0.4-3-1.2c-0.8-1-1.2-2.2-1.1-3.4c-0.1-1.3,0.4-2.5,1.2-3.4
	c0.7-0.9,1.8-1.3,3-1.3c1-0.1,2.1,0.4,2.7,1.1c0.7,0.9,1,2,1,3.2V246.1z M217.3,244.9c0-0.7-0.2-1.4-0.6-1.9c-0.4-0.5-1-0.7-1.7-0.7
	s-1.3,0.3-1.7,0.7c-0.5,0.5-0.8,1.2-0.9,1.9H217.3z M225.7,242.7c-0.3-0.2-0.7-0.3-1.1-0.3c-0.6,0-1.2,0.3-1.5,0.9
	c-0.4,0.7-0.7,1.5-0.6,2.4v4.6H221v-9h1.4v1.9l0,0c0.2-0.6,0.5-1.1,0.9-1.5c0.4-0.3,0.9-0.5,1.4-0.5c0.3,0,0.6,0,0.9,0.1
	L225.7,242.7z M228,238.9c-0.2,0-0.5-0.1-0.7-0.3s-0.3-0.4-0.3-0.7s0.1-0.5,0.3-0.7s0.4-0.3,0.7-0.3s0.5,0.1,0.7,0.3
	s0.3,0.4,0.3,0.7c0,0.2-0.1,0.5-0.3,0.7C228.5,238.8,228.2,238.9,228,238.9L228,238.9z M228.7,250.2h-1.4v-9h1.4V250.2z
	 M237.9,241.6l-5.3,7.4h5.3v1.2h-7.4v-0.4l5.3-7.3H231v-1.2h6.9V241.6z M246.2,250.2h-1.4v-1.4l0,0c-0.5,1-1.6,1.7-2.8,1.6
	c-0.8,0-1.5-0.2-2.1-0.7c-0.5-0.5-0.8-1.2-0.8-1.9c0-1.7,1-2.7,3-2.9l2.7-0.4c0-1.5-0.6-2.3-1.9-2.3c-1.1,0-2.1,0.4-2.9,1.1v-1.5
	c0.9-0.6,2-0.9,3.1-0.8c2.1,0,3.2,1.1,3.2,3.4v5.8H246.2z M244.7,245.7l-2.2,0.3c-0.5,0-1.1,0.2-1.5,0.5s-0.6,0.8-0.5,1.3
	c0,0.4,0.2,0.8,0.5,1.1c0.4,0.3,0.8,0.4,1.3,0.4c0.7,0,1.3-0.3,1.8-0.8s0.7-1.2,0.7-1.9v-0.9H244.7z M256.6,250.2h-1.4v-1.5l0,0
	c-0.6,1.1-1.8,1.8-3.1,1.7c-1,0-2-0.4-2.7-1.2c-0.7-0.9-1.1-2.1-1-3.3c-0.1-1.3,0.3-2.6,1.1-3.6c0.7-0.9,1.8-1.4,3-1.3
	c1.1-0.1,2.2,0.5,2.7,1.5l0,0v-5.6h1.4V250.2z M255.1,246.2v-1.3c0-0.7-0.2-1.4-0.7-1.8c-0.5-0.5-1.1-0.8-1.8-0.8
	c-0.8,0-1.6,0.3-2.1,1c-0.5,0.8-0.8,1.7-0.8,2.7c-0.1,0.9,0.2,1.7,0.7,2.5c0.5,0.6,1.2,0.9,1.9,0.9c0.8,0,1.5-0.3,2-0.9
	C254.9,247.7,255.2,247,255.1,246.2z M263.2,250.4c-1.2,0.1-2.4-0.4-3.2-1.3c-0.8-0.9-1.2-2.1-1.2-3.3c-0.1-1.3,0.4-2.6,1.2-3.5
	c0.9-0.9,2.1-1.3,3.3-1.3c1.2-0.1,2.3,0.4,3.1,1.2c0.8,1,1.2,2.2,1.1,3.4c0.1,1.3-0.4,2.5-1.2,3.4
	C265.7,250,264.5,250.5,263.2,250.4z M263.3,242.2c-0.8,0-1.7,0.3-2.2,0.9c-0.6,0.7-0.9,1.7-0.8,2.6c-0.1,0.9,0.2,1.8,0.8,2.5
	c0.6,0.6,1.4,1,2.2,0.9c0.8,0,1.6-0.3,2.1-0.9c0.5-0.7,0.8-1.7,0.8-2.6c0.1-0.9-0.2-1.8-0.8-2.6C265,242.5,264.2,242.2,263.3,242.2z
	 M276.4,248.9L276.4,248.9v5.4H275v-13.1h1.4v1.6l0,0c0.6-1.1,1.8-1.8,3.1-1.8c1-0.1,2.1,0.4,2.7,1.2c0.7,0.9,1,2.1,1,3.2
	c0.1,1.3-0.3,2.6-1.1,3.6c-0.7,0.9-1.8,1.4-3,1.4C278,250.5,277,249.9,276.4,248.9z M276.4,245.3v1.3c0,0.7,0.2,1.4,0.7,1.9
	s1.1,0.8,1.8,0.8c0.8,0,1.6-0.3,2.1-1c0.5-0.8,0.8-1.8,0.7-2.8c0-0.8-0.2-1.7-0.7-2.4c-0.5-0.6-1.2-0.9-1.9-0.9
	c-0.8,0-1.5,0.3-2,0.9S276.4,244.5,276.4,245.3L276.4,245.3z M289.3,250.4c-1.2,0.1-2.4-0.4-3.2-1.3c-0.8-0.9-1.3-2.1-1.2-3.3
	c-0.1-1.3,0.4-2.6,1.2-3.5c0.9-0.9,2.1-1.3,3.3-1.3c1.2-0.1,2.3,0.4,3.1,1.2c0.8,1,1.2,2.2,1.1,3.4c0.1,1.3-0.4,2.5-1.2,3.4
	C291.7,250,290.5,250.5,289.3,250.4L289.3,250.4z M289.4,242.2c-0.8,0-1.7,0.3-2.2,0.9c-0.6,0.7-0.9,1.7-0.8,2.6
	c-0.1,0.9,0.2,1.8,0.8,2.5c0.6,0.6,1.4,1,2.2,0.9c0.8,0,1.6-0.3,2.1-0.9c0.5-0.7,0.8-1.7,0.8-2.6c0.1-0.9-0.2-1.8-0.8-2.6
	C291,242.5,290.2,242.2,289.4,242.2z M300.8,242.7c-0.3-0.2-0.7-0.3-1.1-0.3c-0.6,0-1.2,0.3-1.5,0.9c-0.4,0.7-0.7,1.5-0.6,2.4v4.6
	h-1.4v-9h1.4v1.9l0,0c0.2-0.6,0.5-1.1,0.9-1.5c0.4-0.3,0.9-0.5,1.4-0.5c0.3,0,0.6,0,0.9,0.1L300.8,242.7z M308.7,250.2h-1.4v-13.3
	h1.4V250.2z M318.1,250.2h-1.4v-1.4l0,0c-0.5,1-1.6,1.7-2.8,1.6c-0.8,0-1.5-0.2-2.1-0.7c-0.5-0.5-0.8-1.2-0.8-1.9c0-1.7,1-2.7,3-2.9
	l2.7-0.4c0-1.5-0.6-2.3-1.9-2.3c-1.1,0-2.1,0.4-2.9,1.1v-1.5c0.9-0.6,2-0.9,3.1-0.8c2.1,0,3.2,1.1,3.2,3.4L318.1,250.2z
	 M316.6,245.7l-2.2,0.3c-0.5,0-1.1,0.2-1.5,0.5s-0.6,0.8-0.5,1.3c0,0.4,0.2,0.8,0.5,1.1c0.4,0.3,0.8,0.4,1.3,0.4
	c0.7,0,1.3-0.3,1.8-0.8s0.7-1.2,0.7-1.9L316.6,245.7z"/>
<path id="Trazado_191430" class="st1" d="M100.7,272.1c-1.3,0.1-2.6-0.4-3.5-1.3s-1.4-2.2-1.3-3.4c-0.1-1.3,0.4-2.6,1.3-3.5
	c1-0.9,2.3-1.3,3.6-1.3c1.3-0.1,2.6,0.4,3.5,1.3s1.3,2.1,1.3,3.3c0.1,1.3-0.4,2.6-1.3,3.5C103.3,271.7,102,272.1,100.7,272.1z
	 M100.7,264.7c-0.6,0-1.2,0.2-1.5,0.7c-0.4,0.6-0.6,1.2-0.5,1.9c0,1.7,0.7,2.6,2.1,2.6c1.3,0,2-0.9,2-2.7
	C102.8,265.6,102.1,264.7,100.7,264.7L100.7,264.7z"/>
<path id="Trazado_191431" class="st1" d="M112.4,265.3c-0.4-0.2-0.8-0.3-1.2-0.3c-0.6,0-1.1,0.2-1.4,0.7c-0.4,0.5-0.5,1.2-0.5,1.8
	v4.3h-2.8v-9h2.8v1.7l0,0c0.3-1.1,1.3-1.8,2.4-1.8c0.2,0,0.5,0,0.7,0.1V265.3z"/>
<path id="Trazado_191432" class="st1" d="M121.8,270.8c0.1,1.4-0.4,2.9-1.4,3.9c-1.2,1-2.7,1.5-4.2,1.4c-1,0-2-0.1-2.9-0.5v-2.3
	c0.8,0.5,1.8,0.8,2.8,0.8c0.8,0.1,1.6-0.2,2.2-0.7c0.5-0.5,0.8-1.3,0.8-2v-0.7l0,0c-0.6,1-1.7,1.6-2.8,1.5c-1.1,0-2.1-0.4-2.7-1.2
	c-0.7-0.9-1.1-2.1-1-3.3c-0.1-1.3,0.3-2.6,1.1-3.6c0.7-0.9,1.8-1.4,3-1.3c1-0.1,1.9,0.4,2.5,1.3l0,0v-1h2.8v7.7H121.8z M119,267.5
	v-0.7c0-0.5-0.2-1-0.5-1.5c-0.3-0.4-0.8-0.6-1.3-0.6c-0.6,0-1.1,0.3-1.4,0.7c-0.4,0.6-0.6,1.3-0.5,2c0,0.6,0.1,1.3,0.5,1.8
	c0.3,0.4,0.8,0.7,1.4,0.7c0.5,0,1.1-0.2,1.4-0.7C118.9,268.8,119.1,268.1,119,267.5L119,267.5z M131.6,271.8H129v-1.3l0,0
	c-0.5,1-1.6,1.6-2.7,1.5c-0.8,0-1.5-0.2-2.1-0.7c-0.5-0.5-0.8-1.2-0.8-2c0-1.7,1-2.8,3.1-3l2.4-0.3c0-1-0.5-1.5-1.6-1.5
	s-2.2,0.3-3.1,1v-2.1c0.5-0.2,1-0.4,1.6-0.5s1.2-0.2,1.8-0.2c2.6,0,3.8,1.3,3.8,3.8L131.6,271.8z M129,268.2v-0.6l-1.6,0.2
	c-0.9,0.1-1.4,0.5-1.4,1.2c0,0.3,0.1,0.6,0.3,0.8c0.2,0.2,0.6,0.3,0.9,0.3c0.5,0,1-0.2,1.3-0.5C128.8,269.2,129,268.7,129,268.2
	L129,268.2z M142.5,271.8h-2.8v-5c0-1.4-0.5-2.1-1.5-2.1c-0.5,0-0.9,0.2-1.2,0.6s-0.5,0.9-0.5,1.4v5.1h-2.8v-9h2.8v1.4l0,0
	c0.6-1,1.7-1.7,2.9-1.6c2,0,3,1.2,3,3.7L142.5,271.8z M146.1,261.4c-0.4,0-0.8-0.1-1.2-0.4c-0.3-0.3-0.5-0.6-0.4-1
	c0-0.4,0.2-0.8,0.4-1c0.3-0.3,0.7-0.4,1.2-0.4c0.4,0,0.8,0.1,1.2,0.4c0.3,0.3,0.5,0.6,0.4,1c0,0.4-0.2,0.8-0.4,1
	C146.9,261.3,146.5,261.4,146.1,261.4L146.1,261.4z M147.5,271.8h-2.8v-9h2.8V271.8z M156.9,271.8h-8.1v-1.2l4.5-5.8h-4.1v-2h7.6
	v1.4l-4.3,5.6h4.3L156.9,271.8z M165.9,271.8h-2.6v-1.3l0,0c-0.5,1-1.6,1.6-2.7,1.5c-0.8,0-1.5-0.2-2.1-0.7c-0.5-0.5-0.8-1.2-0.8-2
	c0-1.7,1-2.8,3.1-3l2.4-0.3c0-1-0.5-1.5-1.6-1.5s-2.2,0.3-3.1,1v-2.1c0.5-0.2,1-0.4,1.6-0.5s1.2-0.2,1.8-0.2c2.6,0,3.8,1.3,3.8,3.8
	L165.9,271.8z M163.3,268.2v-0.6l-1.6,0.2c-0.9,0.1-1.4,0.5-1.4,1.2c0,0.3,0.1,0.6,0.3,0.8c0.2,0.2,0.6,0.3,0.9,0.3
	c0.5,0,0.9-0.2,1.3-0.5C163.1,269.2,163.3,268.7,163.3,268.2z M174.9,271.5c-0.8,0.4-1.8,0.6-2.7,0.5c-1.2,0.1-2.5-0.4-3.4-1.3
	s-1.3-2-1.3-3.2c-0.1-1.3,0.4-2.7,1.4-3.6s2.3-1.4,3.7-1.3c0.8-0.1,1.6,0.1,2.3,0.4v2.4c-0.6-0.4-1.2-0.7-1.9-0.6
	c-0.7,0-1.4,0.2-1.9,0.7s-0.7,1.2-0.7,1.9c0,0.7,0.2,1.4,0.7,1.9s1.2,0.7,1.8,0.7c0.7,0,1.4-0.2,2-0.6L174.9,271.5z M178.1,261.4
	c-0.4,0-0.8-0.1-1.2-0.4c-0.3-0.3-0.5-0.6-0.4-1c0-0.4,0.2-0.8,0.4-1c0.3-0.3,0.7-0.4,1.2-0.4c0.4,0,0.8,0.1,1.2,0.4
	c0.3,0.3,0.5,0.6,0.4,1c0,0.4-0.2,0.8-0.4,1C179,261.3,178.6,261.4,178.1,261.4L178.1,261.4z M179.5,271.8h-2.8v-9h2.8V271.8z
	 M186.1,272.1c-1.3,0.1-2.6-0.4-3.5-1.3s-1.4-2.2-1.3-3.4c-0.1-1.3,0.4-2.6,1.3-3.5c1-0.9,2.3-1.3,3.6-1.3c1.3-0.1,2.6,0.4,3.5,1.3
	s1.3,2.1,1.3,3.3c0.1,1.3-0.4,2.6-1.3,3.5C188.8,271.7,187.5,272.1,186.1,272.1L186.1,272.1z M186.2,264.7c-0.6,0-1.2,0.2-1.5,0.7
	c-0.4,0.6-0.6,1.2-0.5,1.9c0,1.7,0.7,2.6,2.1,2.6c1.3,0,2-0.9,2-2.7C188.2,265.6,187.6,264.7,186.2,264.7L186.2,264.7z M189.2,258.6
	l-2.8,2.8h-2l2.3-2.8H189.2z M201.5,271.8h-2.8v-5c0-1.4-0.5-2.1-1.5-2.1c-0.5,0-0.9,0.2-1.2,0.6s-0.5,0.9-0.5,1.4v5.1h-2.8v-9h2.8
	v1.4l0,0c0.6-1,1.7-1.7,2.9-1.6c2,0,3,1.2,3,3.7v5.5H201.5z"/>
<path id="Trazado_191433" class="st1" d="M212.9,262.8l-4.1,10.4c-0.7,1.9-1.8,2.8-3.1,2.8c-0.3,0-0.6,0-0.9-0.1v-1.3
	c0.3,0.1,0.6,0.2,0.9,0.2c0.8,0,1.4-0.6,1.6-1.3l0.7-1.7l-3.5-9h1.6l2.4,6.9c0,0.1,0.1,0.3,0.2,0.7h0.1c0-0.1,0.1-0.4,0.2-0.7
	l2.6-6.9H212.9z M226.6,267.7h-6.4c0,0.8,0.3,1.7,0.8,2.3c0.6,0.6,1.3,0.9,2.1,0.8c1,0,2-0.4,2.8-1v1.4c-0.9,0.6-2,0.9-3.1,0.9
	c-1.1,0.1-2.2-0.4-3-1.2c-0.8-1-1.2-2.2-1.1-3.4c-0.1-1.3,0.4-2.5,1.2-3.4c0.7-0.9,1.8-1.3,3-1.3c1-0.1,2,0.4,2.7,1.1
	c0.7,0.9,1,2,1,3.2V267.7z M225.1,266.5c0-0.7-0.2-1.4-0.6-1.9c-0.4-0.5-1-0.7-1.6-0.7c-0.7,0-1.3,0.3-1.7,0.7
	c-0.5,0.5-0.8,1.2-0.9,1.9H225.1z M228.2,271.5V270c0.7,0.6,1.7,0.9,2.6,0.9c1.3,0,1.9-0.4,1.9-1.3c0-0.2-0.1-0.4-0.2-0.6
	c-0.1-0.2-0.3-0.3-0.4-0.4c-0.2-0.1-0.4-0.3-0.7-0.3c-0.2-0.1-0.5-0.2-0.8-0.3c-0.4-0.1-0.7-0.3-1-0.5c-0.3-0.1-0.5-0.3-0.8-0.5
	c-0.2-0.2-0.4-0.4-0.5-0.7c-0.1-0.3-0.2-0.6-0.2-0.9c0-0.4,0.1-0.8,0.3-1.1c0.2-0.3,0.5-0.6,0.8-0.8c0.3-0.2,0.7-0.4,1.1-0.5
	c0.4-0.1,0.8-0.2,1.3-0.2c0.7,0,1.4,0.1,2.1,0.4v1.5c-0.7-0.4-1.5-0.7-2.3-0.6c-0.2,0-0.5,0-0.7,0.1s-0.4,0.1-0.6,0.3
	c-0.1,0.1-0.3,0.2-0.4,0.4c-0.1,0.2-0.1,0.3-0.1,0.5s0,0.4,0.1,0.6s0.2,0.3,0.4,0.4s0.4,0.2,0.6,0.3c0.2,0.1,0.5,0.2,0.8,0.3
	c0.4,0.1,0.7,0.3,1.1,0.5c0.3,0.1,0.6,0.3,0.8,0.5s0.4,0.4,0.5,0.7c0.1,0.3,0.2,0.6,0.2,0.9c0,0.4-0.1,0.8-0.3,1.2
	c-0.2,0.3-0.5,0.6-0.8,0.8c-0.3,0.2-0.7,0.4-1.1,0.5c-0.4,0.1-0.9,0.2-1.3,0.2C229.8,272.1,229,271.9,228.2,271.5z M242.8,270.5
	L242.8,270.5v5.4h-1.4v-13.1h1.4v1.6l0,0c0.6-1.1,1.8-1.8,3.1-1.8c1-0.1,2.1,0.4,2.7,1.2c0.7,0.9,1,2.1,1,3.2
	c0.1,1.3-0.3,2.6-1.1,3.6c-0.7,0.9-1.8,1.4-3,1.4C244.4,272.1,243.4,271.5,242.8,270.5z M242.8,266.9v1.3c0,0.7,0.2,1.4,0.7,1.9
	s1.1,0.8,1.8,0.8c0.8,0,1.6-0.3,2.1-1c0.5-0.8,0.8-1.8,0.7-2.8c0-0.8-0.2-1.7-0.7-2.4c-0.5-0.6-1.2-0.9-1.9-0.9
	c-0.8,0-1.5,0.3-2,0.9C243,265.3,242.8,266.1,242.8,266.9L242.8,266.9z"/>
<path id="Trazado_191434" class="st1" d="M256.8,264.3c-0.3-0.2-0.7-0.3-1.1-0.3c-0.6,0-1.2,0.3-1.5,0.9c-0.4,0.7-0.7,1.5-0.6,2.4
	v4.6h-1.4v-9h1.4v1.9l0,0c0.2-0.6,0.5-1.1,0.9-1.5c0.4-0.3,0.9-0.5,1.4-0.5c0.3,0,0.6,0,0.9,0.1L256.8,264.3z"/>
<path id="Trazado_191435" class="st1" d="M261.8,272c-1.2,0.1-2.4-0.4-3.2-1.3c-0.8-0.9-1.2-2.1-1.2-3.3c-0.1-1.3,0.4-2.6,1.2-3.5
	c0.9-0.9,2.1-1.3,3.3-1.3c1.2-0.1,2.3,0.4,3.1,1.2c0.8,1,1.2,2.2,1.1,3.4c0.1,1.3-0.4,2.5-1.2,3.5C264.2,271.6,263,272.1,261.8,272z
	 M261.9,263.8c-0.8,0-1.7,0.3-2.2,0.9c-0.6,0.7-0.9,1.7-0.8,2.6c-0.1,0.9,0.2,1.8,0.8,2.5c0.6,0.6,1.4,1,2.2,0.9
	c0.8,0,1.6-0.3,2.1-0.9c0.5-0.7,0.8-1.7,0.8-2.6c0.1-0.9-0.2-1.8-0.8-2.6C263.5,264.1,262.7,263.8,261.9,263.8z M275,271.8h-1.4
	v-1.4l0,0c-0.5,1-1.6,1.7-2.8,1.6c-0.8,0-1.5-0.2-2.1-0.7c-0.5-0.5-0.8-1.2-0.8-1.9c0-1.7,1-2.7,3-2.9l2.7-0.4
	c0-1.5-0.6-2.3-1.9-2.3c-1.1,0-2.1,0.4-2.9,1.1v-1.5c0.9-0.6,2-0.9,3.1-0.8c2.1,0,3.2,1.1,3.2,3.4v5.8H275z M273.5,267.3l-2.2,0.3
	c-0.5,0-1.1,0.2-1.5,0.5s-0.6,0.8-0.5,1.3c0,0.4,0.2,0.8,0.5,1.1c0.4,0.3,0.8,0.4,1.3,0.4c0.7,0,1.3-0.3,1.8-0.8s0.7-1.2,0.7-1.9
	L273.5,267.3z M283.8,271.4c-0.7,0.4-1.6,0.6-2.5,0.6c-1.2,0-2.3-0.4-3.1-1.3c-0.8-0.9-1.2-2.1-1.2-3.2c-0.1-1.3,0.4-2.6,1.3-3.6
	c0.9-0.9,2.1-1.4,3.4-1.3c0.7,0,1.4,0.1,2.1,0.4v1.5c-0.6-0.5-1.4-0.7-2.1-0.7c-0.9,0-1.7,0.3-2.3,1c-0.6,0.7-0.9,1.7-0.9,2.6
	c-0.1,0.9,0.2,1.8,0.8,2.5c0.6,0.6,1.4,0.9,2.2,0.9c0.8,0,1.6-0.3,2.2-0.8v1.4H283.8z M290.2,271.7c-0.4,0.2-0.9,0.3-1.3,0.3
	c-1.6,0-2.4-0.9-2.4-2.6v-5.3H285v-1.2h1.5v-2.2l1.4-0.5v2.7h2.3v1.2h-2.3v5.1c0,0.5,0.1,0.9,0.3,1.3c0.3,0.3,0.6,0.4,1,0.4
	c0.3,0,0.7-0.1,0.9-0.3v1.1H290.2z M292.8,260.5c-0.2,0-0.5-0.1-0.7-0.3c-0.2-0.2-0.3-0.4-0.3-0.7c0-0.3,0.1-0.5,0.3-0.7
	c0.2-0.2,0.4-0.3,0.7-0.3c0.3,0,0.5,0.1,0.7,0.3c0.2,0.2,0.3,0.4,0.3,0.7c0,0.2-0.1,0.5-0.3,0.7
	C293.3,260.4,293.1,260.5,292.8,260.5L292.8,260.5z M293.6,271.8h-1.4v-9h1.4V271.8z"/>
<path id="Trazado_191436" class="st1" d="M304.8,262.8l-3.6,9h-1.4l-3.4-9h1.6l2.3,6.5c0.2,0.4,0.3,0.8,0.3,1.3l0,0
	c0.1-0.4,0.1-0.8,0.3-1.2l2.4-6.6L304.8,262.8L304.8,262.8z"/>
<path id="Trazado_191437" class="st1" d="M310.1,272c-1.2,0.1-2.4-0.4-3.2-1.3c-0.8-0.9-1.2-2.1-1.2-3.3c-0.1-1.3,0.4-2.6,1.2-3.5
	c0.9-0.9,2.1-1.3,3.3-1.3c1.2-0.1,2.3,0.4,3.1,1.2c0.8,1,1.2,2.2,1.1,3.4c0.1,1.3-0.4,2.5-1.2,3.5
	C312.5,271.6,311.3,272.1,310.1,272z M310.2,263.8c-0.8,0-1.7,0.3-2.2,0.9c-0.6,0.7-0.9,1.7-0.8,2.6c-0.1,0.9,0.2,1.8,0.8,2.5
	c0.6,0.6,1.4,1,2.2,0.9c0.8,0,1.6-0.3,2.1-0.9c0.5-0.7,0.8-1.7,0.8-2.6c0.1-0.9-0.2-1.8-0.8-2.6C311.8,264.1,311,263.8,310.2,263.8z
	"/>
<path id="Trazado_191404" class="st1" d="M98.3,410.2v4.8h-1.5v-12.6h3.5c1.1-0.1,2.2,0.3,3.1,1c0.8,0.7,1.2,1.7,1.1,2.8
	c0,1.1-0.4,2.2-1.2,2.9c-0.9,0.8-2.1,1.2-3.3,1.1L98.3,410.2L98.3,410.2z M98.3,403.7v5.2h1.5c0.8,0.1,1.7-0.2,2.3-0.7
	c0.6-0.5,0.8-1.2,0.8-2c0-1.7-1-2.5-3-2.5H98.3z M111.4,407.5c-0.3-0.2-0.7-0.3-1.1-0.3c-0.6,0-1.2,0.3-1.5,0.9
	c-0.4,0.7-0.7,1.5-0.6,2.4v4.6h-1.4v-9h1.4v1.9l0,0c0.2-0.6,0.5-1.1,0.9-1.5c0.4-0.3,0.9-0.5,1.4-0.5c0.3,0,0.6,0,0.9,0.1
	L111.4,407.5z M116.6,415.2c-1.2,0.1-2.4-0.4-3.2-1.3c-0.8-0.9-1.3-2.1-1.2-3.3c-0.1-1.3,0.4-2.6,1.2-3.5c0.9-0.9,2.1-1.3,3.3-1.3
	c1.2-0.1,2.3,0.4,3.1,1.2c0.8,1,1.2,2.2,1.1,3.4c0.1,1.3-0.4,2.5-1.2,3.5C119,414.8,117.8,415.3,116.6,415.2z M116.7,407
	c-0.8,0-1.7,0.3-2.2,0.9c-0.6,0.7-0.9,1.7-0.8,2.6c0,0.9,0.2,1.8,0.8,2.5c0.6,0.6,1.4,1,2.2,0.9c0.8,0,1.6-0.3,2.1-0.9
	c0.5-0.7,0.8-1.7,0.8-2.6c0.1-0.9-0.2-1.8-0.8-2.6C118.3,407.3,117.5,407,116.7,407z M129.5,414.6c-0.7,0.4-1.6,0.6-2.5,0.6
	c-1.2,0-2.3-0.4-3.1-1.3c-0.8-0.9-1.2-2.1-1.2-3.2c-0.1-1.3,0.4-2.6,1.3-3.6c0.9-0.9,2.1-1.4,3.4-1.3c0.7,0,1.4,0.1,2.1,0.4v1.5
	c-0.6-0.5-1.4-0.7-2.1-0.7c-0.9,0-1.7,0.3-2.3,1c-0.6,0.7-0.9,1.7-0.9,2.6c-0.1,0.9,0.2,1.8,0.8,2.5c0.6,0.6,1.4,0.9,2.2,0.9
	c0.8,0,1.6-0.3,2.2-0.8L129.5,414.6L129.5,414.6z M138.9,410.9h-6.4c0,0.8,0.3,1.7,0.8,2.3c0.6,0.6,1.3,0.9,2.1,0.8c1,0,2-0.4,2.8-1
	v1.4c-0.9,0.6-2,0.9-3.1,0.9c-1.1,0.1-2.2-0.4-3-1.2c-0.8-1-1.2-2.2-1.1-3.4c-0.1-1.3,0.4-2.5,1.2-3.4c0.7-0.9,1.8-1.3,3-1.3
	c1-0.1,2,0.4,2.7,1.1c0.7,0.9,1,2,1,3.2V410.9z M137.4,409.6c0-0.7-0.2-1.4-0.6-1.9c-0.4-0.5-1-0.7-1.7-0.7s-1.3,0.3-1.7,0.7
	c-0.5,0.5-0.8,1.2-0.9,1.9H137.4z M140.6,414.7v-1.5c0.7,0.6,1.7,0.9,2.6,0.9c1.3,0,1.9-0.4,1.9-1.3c0-0.2-0.1-0.4-0.2-0.6
	c-0.1-0.2-0.3-0.3-0.4-0.4c-0.2-0.1-0.4-0.3-0.7-0.3c-0.2-0.1-0.5-0.2-0.8-0.3c-0.4-0.1-0.7-0.3-1-0.5c-0.3-0.1-0.5-0.3-0.8-0.5
	c-0.2-0.2-0.4-0.4-0.5-0.7c-0.1-0.3-0.2-0.6-0.2-0.9c0-0.4,0.1-0.8,0.3-1.1c0.2-0.3,0.5-0.6,0.8-0.8c0.3-0.2,0.7-0.4,1.1-0.5
	c0.4-0.1,0.8-0.2,1.3-0.2c0.7,0,1.4,0.1,2.1,0.4v1.5c-0.7-0.4-1.5-0.7-2.3-0.6c-0.2,0-0.5,0-0.7,0.1s-0.4,0.1-0.6,0.3
	c-0.1,0.1-0.3,0.2-0.4,0.4c-0.1,0.2-0.1,0.3-0.1,0.5s0,0.4,0.1,0.6s0.2,0.3,0.4,0.4s0.4,0.2,0.6,0.3c0.2,0.1,0.5,0.2,0.8,0.3
	c0.4,0.1,0.7,0.3,1.1,0.5c0.3,0.1,0.6,0.3,0.8,0.5s0.4,0.4,0.5,0.7c0.1,0.3,0.2,0.6,0.2,0.9c0,0.4-0.1,0.8-0.3,1.2
	c-0.2,0.3-0.5,0.6-0.8,0.8c-0.3,0.2-0.7,0.4-1.1,0.5c-0.4,0.1-0.9,0.2-1.3,0.2C142.1,415.2,141.3,415.1,140.6,414.7z M152.5,415.2
	c-1.2,0.1-2.4-0.4-3.2-1.3s-1.2-2.1-1.2-3.3c-0.1-1.3,0.4-2.6,1.2-3.5c0.9-0.9,2.1-1.3,3.3-1.3c1.2-0.1,2.3,0.4,3.1,1.2
	c0.8,1,1.2,2.2,1.1,3.4c0.1,1.3-0.4,2.5-1.2,3.5C154.9,414.8,153.7,415.3,152.5,415.2z M152.6,407c-0.8,0-1.7,0.3-2.2,0.9
	c-0.6,0.7-0.9,1.7-0.8,2.6c-0.1,0.9,0.2,1.8,0.8,2.5c0.6,0.6,1.4,1,2.2,0.9c0.8,0,1.6-0.3,2.1-0.9c0.5-0.7,0.8-1.7,0.8-2.6
	c0.1-0.9-0.2-1.8-0.8-2.6C154.2,407.3,153.4,407,152.6,407z M165,403.7c-0.2,0-0.5-0.1-0.7-0.3c-0.2-0.2-0.3-0.4-0.3-0.7
	c0-0.3,0.1-0.5,0.3-0.7s0.4-0.3,0.7-0.3s0.5,0.1,0.7,0.3c0.2,0.2,0.3,0.4,0.3,0.7c0,0.2-0.1,0.5-0.3,0.7
	C165.5,403.6,165.2,403.7,165,403.7L165,403.7z M165.7,415h-1.4v-9h1.4V415z M181.4,415H180v-5.2c0.1-0.8-0.1-1.5-0.5-2.2
	c-0.4-0.5-1-0.7-1.5-0.7c-0.6,0-1.2,0.3-1.6,0.8c-0.4,0.6-0.7,1.3-0.6,2v5.1h-1.4v-5.3c0-1.8-0.7-2.7-2-2.7c-0.6,0-1.2,0.3-1.6,0.8
	c-0.4,0.6-0.6,1.3-0.6,2.1v5.1h-1.4v-9h1.4v1.4l0,0c0.5-1,1.6-1.7,2.8-1.6c0.6,0,1.1,0.2,1.6,0.5s0.8,0.8,0.9,1.3
	c0.5-1.2,1.7-1.9,3-1.9c2,0,3,1.2,3,3.7L181.4,415z M185.6,413.7L185.6,413.7v5.4h-1.4V406h1.4v1.6l0,0c0.6-1.1,1.8-1.8,3.1-1.8
	c1-0.1,2.1,0.4,2.7,1.2c0.7,0.9,1,2.1,1,3.2c0.1,1.3-0.3,2.6-1.1,3.6c-0.7,0.9-1.8,1.4-3,1.4C187.1,415.3,186.1,414.7,185.6,413.7
	L185.6,413.7z M185.5,410.1v1.3c0,0.7,0.2,1.4,0.7,1.9s1.1,0.8,1.8,0.8c0.8,0,1.6-0.3,2.1-1c0.5-0.8,0.8-1.8,0.7-2.8
	c0-0.8-0.2-1.7-0.7-2.4c-0.5-0.6-1.2-0.9-1.9-0.9c-0.8,0-1.5,0.3-2,0.9C185.8,408.5,185.5,409.3,185.5,410.1L185.5,410.1z
	 M199.4,407.5c-0.3-0.2-0.7-0.3-1.1-0.3c-0.6,0-1.2,0.3-1.5,0.9c-0.4,0.7-0.7,1.5-0.6,2.4v4.6h-1.4v-9h1.4v1.9l0,0
	c0.2-0.6,0.5-1.1,0.9-1.5c0.4-0.3,0.9-0.5,1.4-0.5c0.3,0,0.6,0,0.9,0.1L199.4,407.5z M208,410.9h-6.4c0,0.8,0.3,1.7,0.8,2.3
	c0.6,0.6,1.3,0.9,2.1,0.8c1,0,2-0.4,2.8-1v1.4c-0.9,0.6-2,0.9-3.1,0.9c-1.1,0.1-2.2-0.4-3-1.2c-0.8-1-1.2-2.2-1.1-3.4
	c-0.1-1.3,0.4-2.5,1.2-3.4c0.7-0.9,1.8-1.3,3-1.3c1-0.1,2.1,0.4,2.7,1.1c0.7,0.9,1,2,1,3.2V410.9z M206.5,409.6
	c0-0.7-0.2-1.4-0.6-1.9c-0.4-0.5-1-0.7-1.7-0.7s-1.3,0.3-1.7,0.7c-0.5,0.5-0.8,1.2-0.9,1.9H206.5z M217.8,415h-1.4v-1.5l0,0
	c-0.6,1.1-1.8,1.8-3.1,1.7c-1,0-2-0.4-2.7-1.2c-0.7-0.9-1.1-2.1-1-3.3c-0.1-1.3,0.3-2.6,1.1-3.6c0.7-0.9,1.8-1.4,3-1.3
	c1.1-0.1,2.2,0.5,2.7,1.5l0,0v-5.6h1.4V415z M216.4,410.9v-1.3c0-0.7-0.2-1.4-0.7-1.8c-0.5-0.5-1.1-0.8-1.8-0.8
	c-0.8,0-1.6,0.3-2.1,1c-0.5,0.8-0.8,1.7-0.8,2.7c-0.1,0.9,0.2,1.7,0.7,2.5c0.5,0.6,1.2,0.9,1.9,0.9c0.8,0,1.5-0.3,2-0.9
	C216.2,412.5,216.4,411.7,216.4,410.9z M228,410.9h-6.4c0,0.8,0.3,1.7,0.8,2.3c0.6,0.6,1.3,0.9,2.1,0.8c1,0,2-0.4,2.8-1v1.4
	c-0.9,0.6-2,0.9-3.1,0.9c-1.1,0.1-2.2-0.4-3-1.2c-0.8-1-1.2-2.2-1.1-3.4c-0.1-1.3,0.4-2.5,1.2-3.4c0.7-0.9,1.8-1.3,3-1.3
	c1-0.1,2,0.4,2.7,1.1c0.7,0.9,1,2,1,3.2V410.9z M226.5,409.6c0-0.7-0.2-1.4-0.6-1.9c-0.4-0.5-1-0.7-1.6-0.7c-0.7,0-1.3,0.3-1.7,0.7
	c-0.5,0.5-0.8,1.2-0.9,1.9H226.5z M236.3,414.6c-0.7,0.4-1.6,0.6-2.5,0.6c-1.2,0-2.3-0.4-3.1-1.3s-1.2-2.1-1.2-3.2
	c-0.1-1.3,0.4-2.6,1.3-3.6c0.9-0.9,2.1-1.4,3.4-1.3c0.7,0,1.4,0.1,2.1,0.4v1.5c-0.6-0.5-1.4-0.7-2.1-0.7c-0.9,0-1.7,0.3-2.3,1
	s-0.9,1.7-0.9,2.6c-0.1,0.9,0.2,1.8,0.8,2.5c0.6,0.6,1.4,0.9,2.2,0.9s1.6-0.3,2.2-0.8v1.4H236.3z M239.2,403.7
	c-0.2,0-0.5-0.1-0.7-0.3c-0.2-0.2-0.3-0.4-0.3-0.7c0-0.3,0.1-0.5,0.3-0.7s0.4-0.3,0.7-0.3s0.5,0.1,0.7,0.3c0.2,0.2,0.3,0.4,0.3,0.7
	c0,0.2-0.1,0.5-0.3,0.7C239.7,403.6,239.5,403.7,239.2,403.7z M239.9,415h-1.4v-9h1.4V415z M244.3,413.7L244.3,413.7v1.3h-1.4v-13.3
	h1.4v5.9l0,0c0.6-1.1,1.8-1.8,3.1-1.8c1,0,2.1,0.4,2.7,1.2c0.7,0.9,1,2.1,1,3.2c0.1,1.3-0.3,2.6-1.1,3.6c-0.7,0.9-1.8,1.4-3,1.4
	C245.9,415.3,244.9,414.7,244.3,413.7L244.3,413.7z M244.3,410.1v1.3c0,0.7,0.2,1.4,0.7,1.9s1.1,0.8,1.8,0.8c0.8,0,1.6-0.3,2.1-1
	c0.5-0.8,0.8-1.8,0.7-2.8c0-0.8-0.2-1.7-0.7-2.4c-0.5-0.6-1.2-0.9-1.9-0.9c-0.8,0-1.5,0.3-2,0.9
	C244.5,408.5,244.3,409.3,244.3,410.1L244.3,410.1z M254.9,415h-1.4v-13.3h1.4V415z M265,410.9h-6.4c0,0.8,0.3,1.7,0.8,2.3
	c0.6,0.6,1.3,0.9,2.1,0.8c1,0,2-0.4,2.8-1v1.4c-0.9,0.6-2,0.9-3.1,0.9c-1.1,0.1-2.2-0.4-3-1.2c-0.8-1-1.2-2.2-1.1-3.4
	c-0.1-1.3,0.4-2.5,1.2-3.4c0.7-0.9,1.8-1.3,3-1.3c1-0.1,2,0.4,2.7,1.1c0.7,0.9,1,2,1,3.2V410.9z M263.5,409.6c0-0.7-0.2-1.4-0.6-1.9
	s-1-0.7-1.6-0.7c-0.7,0-1.3,0.3-1.7,0.7c-0.5,0.5-0.8,1.2-0.9,1.9H263.5z M268.5,413l-1.4,4.3h-1l1-4.3H268.5z M288.8,415h-1.4v-5.2
	c0.1-0.8-0.1-1.5-0.5-2.2c-0.4-0.5-1-0.7-1.6-0.7s-1.2,0.3-1.6,0.8c-0.4,0.6-0.7,1.3-0.6,2v5.1h-1.4v-5.3c0-1.8-0.7-2.7-2-2.7
	c-0.6,0-1.2,0.3-1.6,0.8c-0.4,0.6-0.6,1.3-0.6,2.1v5.1H276v-9h1.4v1.4l0,0c0.5-1,1.6-1.7,2.8-1.6c0.6,0,1.1,0.2,1.6,0.5
	s0.8,0.8,0.9,1.3c0.5-1.2,1.7-1.9,3-1.9c2,0,3,1.2,3,3.7L288.8,415z M298,415h-1.4v-1.4l0,0c-0.5,1-1.6,1.7-2.8,1.6
	c-0.8,0-1.5-0.2-2.1-0.7c-0.5-0.5-0.8-1.2-0.8-1.9c0-1.7,1-2.7,3-2.9l2.7-0.4c0-1.5-0.6-2.3-1.9-2.3c-1.1,0-2.1,0.4-2.9,1.1v-1.5
	c0.9-0.6,2-0.9,3.1-0.8c2.1,0,3.2,1.1,3.2,3.4L298,415z M296.5,410.5l-2.2,0.3c-0.5,0-1.1,0.2-1.5,0.5s-0.6,0.8-0.5,1.3
	c0,0.4,0.2,0.8,0.5,1.1c0.4,0.3,0.8,0.4,1.2,0.4c0.7,0,1.3-0.3,1.8-0.8s0.7-1.2,0.7-1.9V410.5z M302.1,415h-1.4v-13.3h1.4V415z
	 M102.8,436.2c-0.7,0.4-1.6,0.6-2.5,0.6c-1.2,0-2.3-0.4-3.1-1.3c-0.8-0.9-1.2-2.1-1.2-3.2c-0.1-1.3,0.4-2.6,1.3-3.6
	c0.9-0.9,2.1-1.4,3.4-1.3c0.7,0,1.4,0.1,2.1,0.4v1.5c-0.6-0.5-1.4-0.7-2.1-0.7c-0.9,0-1.7,0.3-2.3,1c-0.6,0.7-0.9,1.7-0.9,2.6
	c-0.1,0.9,0.2,1.8,0.8,2.5c0.6,0.6,1.4,1,2.2,0.9c0.8,0,1.6-0.3,2.2-0.8L102.8,436.2z M108.7,436.8c-1.2,0.1-2.4-0.4-3.2-1.3
	c-0.8-0.9-1.2-2.1-1.2-3.3c-0.1-1.3,0.4-2.6,1.2-3.5c0.9-0.9,2.1-1.3,3.3-1.3c1.2-0.1,2.3,0.4,3.1,1.2c0.8,1,1.2,2.2,1.1,3.4
	c0.1,1.3-0.4,2.5-1.2,3.5C111.2,436.4,110,436.9,108.7,436.8z M108.8,428.6c-0.8,0-1.7,0.3-2.2,0.9c-0.6,0.7-0.9,1.7-0.8,2.6
	c-0.1,0.9,0.2,1.8,0.8,2.5c0.6,0.6,1.4,1,2.2,0.9c0.8,0,1.6-0.3,2.1-0.9c0.5-0.7,0.8-1.7,0.8-2.6c0.1-0.9-0.2-1.8-0.8-2.6
	C110.5,428.9,109.7,428.6,108.8,428.6L108.8,428.6z M123,436.6h-1.4v-5.1c0-1.9-0.7-2.9-2.1-2.9c-0.7,0-1.3,0.3-1.8,0.8
	c-0.5,0.6-0.7,1.3-0.7,2.1v5.1h-1.4v-9h1.4v1.5l0,0c0.6-1.1,1.7-1.7,3-1.7c0.9-0.1,1.7,0.3,2.3,1c0.6,0.8,0.8,1.8,0.8,2.8L123,436.6
	z M129.9,436.5c-0.4,0.2-0.9,0.3-1.3,0.3c-1.6,0-2.4-0.9-2.4-2.6v-5.3h-1.5v-1.2h1.5v-2.2l1.4-0.5v2.7h2.3v1.2h-2.3v5.1
	c0,0.5,0.1,0.9,0.3,1.3c0.3,0.3,0.6,0.4,1,0.4c0.3,0,0.7-0.1,0.9-0.3L129.9,436.5z M136.5,429.1c-0.3-0.2-0.7-0.3-1.1-0.3
	c-0.6,0-1.2,0.3-1.5,0.9c-0.4,0.7-0.7,1.5-0.6,2.4v4.6h-1.4v-9h1.4v1.9l0,0c0.2-0.6,0.5-1.1,0.9-1.5c0.4-0.3,0.9-0.5,1.4-0.5
	c0.3,0,0.6,0,0.9,0.1L136.5,429.1z M141.7,436.8c-1.2,0.1-2.4-0.4-3.2-1.3s-1.2-2.1-1.2-3.3c-0.1-1.3,0.4-2.6,1.2-3.5
	c0.9-0.9,2.1-1.3,3.3-1.3c1.2-0.1,2.3,0.4,3.1,1.2c0.8,1,1.2,2.2,1.1,3.4c0.1,1.3-0.4,2.5-1.2,3.5
	C144.1,436.4,142.9,436.9,141.7,436.8z M141.8,428.6c-0.8,0-1.7,0.3-2.2,0.9c-0.6,0.7-0.9,1.7-0.8,2.6c-0.1,0.9,0.2,1.8,0.8,2.5
	c0.6,0.6,1.4,1,2.2,0.9c0.8,0,1.6-0.3,2.1-0.9c0.5-0.7,0.8-1.7,0.8-2.6c0.1-0.9-0.2-1.8-0.8-2.6
	C143.4,428.9,142.6,428.6,141.8,428.6L141.8,428.6z M149.9,436.6h-1.4v-13.3h1.4V436.6z M159.2,436.6h-1.4v-1.4l0,0
	c-0.5,1-1.6,1.7-2.8,1.6c-0.8,0-1.5-0.2-2.1-0.7c-0.5-0.5-0.8-1.2-0.8-1.9c0-1.7,1-2.7,3-2.9l2.7-0.4c0-1.5-0.6-2.3-1.9-2.3
	c-1.1,0-2.1,0.4-2.9,1.1v-1.5c0.9-0.6,2-0.9,3.1-0.8c2.1,0,3.2,1.1,3.2,3.4v5.8H159.2z M157.8,432.1l-2.2,0.3
	c-0.5,0-1.1,0.2-1.5,0.5s-0.6,0.8-0.5,1.3c0,0.4,0.2,0.8,0.5,1.1c0.4,0.3,0.8,0.4,1.3,0.4c0.7,0,1.3-0.3,1.8-0.8s0.7-1.2,0.7-1.9
	L157.8,432.1z M169.6,436.6h-1.4v-1.5l0,0c-0.6,1.1-1.8,1.8-3.1,1.7c-1,0-2-0.4-2.7-1.2c-0.7-0.9-1.1-2.1-1-3.3
	c-0.1-1.3,0.3-2.6,1.1-3.6c0.7-0.9,1.8-1.4,3-1.3c1.1-0.1,2.2,0.5,2.7,1.5l0,0v-5.6h1.4V436.6z M168.2,432.5v-1.3
	c0-0.7-0.2-1.4-0.7-1.8c-0.5-0.5-1.1-0.8-1.8-0.8c-0.8,0-1.6,0.3-2.1,1c-0.5,0.8-0.8,1.7-0.8,2.7c0,0.9,0.2,1.7,0.7,2.5
	c0.5,0.6,1.2,0.9,1.9,0.9c0.8,0,1.5-0.3,2-0.9C168,434.1,168.2,433.3,168.2,432.5z M179,436.6h-1.4v-1.4l0,0c-0.5,1-1.6,1.7-2.8,1.6
	c-0.8,0-1.5-0.2-2.1-0.7c-0.5-0.5-0.8-1.2-0.8-1.9c0-1.7,1-2.7,3-2.9l2.7-0.4c0-1.5-0.6-2.3-1.9-2.3c-1.1,0-2.1,0.4-2.9,1.1v-1.5
	c0.9-0.6,2-0.9,3.1-0.8c2.1,0,3.2,1.1,3.2,3.4L179,436.6z M177.6,432.1l-2.2,0.3c-0.5,0-1.1,0.2-1.5,0.5s-0.6,0.8-0.5,1.3
	c0,0.4,0.2,0.8,0.5,1.1c0.4,0.3,0.8,0.4,1.3,0.4c0.7,0,1.3-0.3,1.8-0.8s0.7-1.2,0.7-1.9v-0.9H177.6z M183,434.6l-1.4,4.3h-1l1-4.3
	H183z M197.7,427.6l-4.1,10.4c-0.7,1.9-1.8,2.8-3.1,2.8c-0.3,0-0.6,0-0.9-0.1v-1.3c0.3,0.1,0.6,0.2,0.9,0.2c0.8,0,1.4-0.6,1.6-1.3
	l0.7-1.7l-3.5-9h1.6l2.4,6.9c0,0.1,0.1,0.3,0.2,0.7h0.1c0-0.1,0.1-0.4,0.2-0.7l2.6-6.9H197.7z M208.9,429.1
	c-0.3-0.2-0.7-0.3-1.1-0.3c-0.6,0-1.2,0.3-1.5,0.9c-0.4,0.7-0.7,1.5-0.6,2.4v4.6h-1.4v-9h1.4v1.9l0,0c0.2-0.6,0.5-1.1,0.9-1.5
	c0.4-0.3,0.9-0.5,1.4-0.5c0.3,0,0.6,0,0.9,0.1L208.9,429.1z M217.5,432.5h-6.4c0,0.8,0.3,1.7,0.8,2.3c0.6,0.6,1.3,0.9,2.1,0.8
	c1,0,2-0.4,2.8-1v1.4c-0.9,0.6-2,0.9-3.1,0.9c-1.1,0.1-2.2-0.4-3-1.2c-0.8-1-1.2-2.2-1.1-3.4c-0.1-1.3,0.4-2.5,1.2-3.4
	c0.7-0.9,1.8-1.3,3-1.3c1-0.1,2,0.4,2.7,1.1c0.7,0.9,1,2,1,3.2V432.5z M216,431.2c0-0.7-0.2-1.4-0.6-1.9c-0.4-0.5-1-0.7-1.6-0.7
	c-0.7,0-1.3,0.3-1.7,0.7c-0.5,0.5-0.8,1.2-0.9,1.9H216z M226.1,436.6h-1.4v-1.4l0,0c-0.5,1-1.6,1.7-2.8,1.6c-0.8,0-1.5-0.2-2.1-0.7
	c-0.5-0.5-0.8-1.2-0.8-1.9c0-1.7,1-2.7,3-2.9l2.7-0.4c0-1.5-0.6-2.3-1.9-2.3c-1.1,0-2.1,0.4-2.9,1.1v-1.5c0.9-0.6,2-0.9,3.1-0.8
	c2.1,0,3.2,1.1,3.2,3.4L226.1,436.6z M224.7,432.1l-2.2,0.3c-0.5,0-1.1,0.2-1.5,0.5s-0.6,0.8-0.5,1.3c0,0.4,0.2,0.8,0.5,1.1
	c0.3,0.3,0.8,0.4,1.2,0.4c0.7,0,1.3-0.3,1.8-0.8s0.7-1.2,0.7-1.9V432.1z M235,436.2c-0.7,0.4-1.6,0.6-2.5,0.6
	c-1.2,0-2.3-0.4-3.1-1.3s-1.2-2.1-1.2-3.2c-0.1-1.3,0.4-2.6,1.3-3.6c0.9-0.9,2.1-1.4,3.4-1.3c0.7,0,1.4,0.1,2.1,0.4v1.5
	c-0.6-0.5-1.4-0.7-2.1-0.7c-0.9,0-1.7,0.3-2.3,1s-0.9,1.7-0.9,2.6c-0.1,0.9,0.2,1.8,0.8,2.5c0.6,0.6,1.4,1,2.2,0.9
	c0.8,0,1.6-0.3,2.2-0.8L235,436.2z M241.3,436.5c-0.4,0.2-0.9,0.3-1.3,0.3c-1.6,0-2.4-0.9-2.4-2.6v-5.3h-1.5v-1.2h1.5v-2.2l1.4-0.5
	v2.7h2.3v1.2H239v5.1c0,0.5,0.1,0.9,0.3,1.3c0.3,0.3,0.6,0.4,1,0.4c0.3,0,0.7-0.1,0.9-0.3v1.1H241.3z M244,425.3
	c-0.2,0-0.5-0.1-0.7-0.3c-0.2-0.2-0.3-0.4-0.3-0.7c0-0.5,0.4-0.9,0.9-0.9l0,0c0.3,0,0.5,0.1,0.7,0.3c0.4,0.4,0.4,1,0,1.3l0,0
	C244.5,425.2,244.2,425.3,244,425.3L244,425.3z M244.7,436.6h-1.4v-9h1.4V436.6z M254.7,427.6l-3.6,9h-1.4l-3.4-9h1.6l2.3,6.5
	c0.2,0.4,0.3,0.8,0.3,1.3l0,0c0.1-0.4,0.1-0.8,0.3-1.2l2.4-6.6L254.7,427.6L254.7,427.6z M262.5,436.6h-1.4v-1.4l0,0
	c-0.5,1-1.6,1.7-2.8,1.6c-0.8,0-1.5-0.2-2.1-0.7c-0.5-0.5-0.8-1.2-0.8-1.9c0-1.7,1-2.7,3-2.9l2.7-0.4c0-1.5-0.6-2.3-1.9-2.3
	c-1.1,0-2.1,0.4-2.9,1.1v-1.5c0.9-0.6,2-0.9,3.1-0.8c2.1,0,3.2,1.1,3.2,3.4L262.5,436.6z M261.1,432.1l-2.2,0.3
	c-0.5,0-1.1,0.2-1.5,0.5s-0.6,0.8-0.5,1.3c0,0.4,0.2,0.8,0.5,1.1c0.4,0.3,0.8,0.4,1.3,0.4c0.7,0,1.3-0.3,1.8-0.8s0.7-1.2,0.7-1.9
	L261.1,432.1L261.1,432.1z"/>
<path id="Trazado_191405" class="st2" d="M396.1,383.8h604.5v87.4H396.1V383.8z"/>
<path id="Trazado_191406" class="st3" d="M525.1,298.4h475.5v87.4H525.1V298.4z"/>
<path id="Trazado_191407" class="st4" d="M632.4,213h368.2v87.4H632.4V213z"/>
<path id="Trazado_191408" class="st5" d="M745.6,127.6h255V215h-255V127.6z"/>
<path id="Trazado_191409" class="st6" d="M853.3,42.2h147.3v87.4H853.3V42.2z"/>
<path id="Trazado_185385" class="st7" d="M1000.6,42.2H59V73"/>
<path id="Trazado_185386" class="st7" d="M1000.6,127.6H59v30.8"/>
<path id="Trazado_185387" class="st7" d="M1000.6,213H59v30.8"/>
<path id="Trazado_185388" class="st7" d="M1000.6,298.4H59v30.8"/>
<path id="Trazado_185389" class="st7" d="M1000.6,383.8H59v30.8"/>
<path id="Trazado_191410" class="st8" d="M879.8,93.6c-1.6,0.1-3.2-0.6-4.3-1.8c-1.1-1.3-1.7-2.9-1.6-4.6c-0.1-1.8,0.5-3.5,1.6-4.8
	c1.2-1.2,2.8-1.9,4.5-1.8c1.6-0.1,3.1,0.6,4.2,1.8c1.1,1.3,1.7,2.9,1.6,4.6c0.1,1.8-0.5,3.5-1.6,4.9C883.1,93,881.5,93.7,879.8,93.6
	z M879.9,81.9c-1.2,0-2.4,0.5-3.2,1.4c-0.9,1.1-1.3,2.4-1.2,3.8c-0.1,1.4,0.4,2.7,1.2,3.7c0.8,0.9,1.9,1.5,3.2,1.4
	c1.2,0.1,2.4-0.4,3.3-1.4c0.9-1.1,1.3-2.4,1.2-3.8c0.1-1.4-0.3-2.8-1.2-3.9C882.3,82.3,881.1,81.8,879.9,81.9L879.9,81.9z
	 M889.6,92.1L889.6,92.1v5.4h-1.4V84.4h1.4V86l0,0c0.6-1.1,1.8-1.8,3.1-1.8c1-0.1,2.1,0.4,2.7,1.2c0.7,0.9,1,2.1,1,3.2
	c0.1,1.3-0.3,2.6-1.1,3.6c-0.7,0.9-1.8,1.4-3,1.4C891.2,93.6,890.1,93,889.6,92.1z M889.6,88.4v1.3c0,0.7,0.2,1.4,0.7,1.9
	s1.1,0.8,1.8,0.8c0.8,0,1.6-0.3,2.1-1c0.5-0.8,0.8-1.8,0.7-2.8c0-0.8-0.2-1.7-0.7-2.4c-0.5-0.6-1.2-0.9-1.9-0.9
	c-0.8,0-1.5,0.3-2,0.9C889.8,86.9,889.5,87.6,889.6,88.4L889.6,88.4z M902.9,93.3c-0.4,0.2-0.9,0.3-1.3,0.3c-1.6,0-2.4-0.9-2.4-2.6
	v-5.3h-1.5v-1.2h1.5v-2.2l1.4-0.5v2.7h2.3v1.2h-2.3v5.1c0,0.5,0.1,0.9,0.3,1.3c0.3,0.3,0.6,0.4,1,0.4c0.3,0,0.7-0.1,0.9-0.3
	L902.9,93.3z M905.5,82.1c-0.2,0-0.5-0.1-0.7-0.3c-0.2-0.2-0.3-0.4-0.3-0.7c0-0.3,0.1-0.5,0.3-0.7s0.4-0.3,0.7-0.3s0.5,0.1,0.7,0.3
	c0.2,0.2,0.3,0.4,0.3,0.7c0,0.2-0.1,0.5-0.3,0.7C906,82,905.8,82.1,905.5,82.1L905.5,82.1z M906.2,93.4h-1.4v-9h1.4V93.4z
	 M921.9,93.4h-1.4v-5.2c0.1-0.8-0.1-1.5-0.5-2.2c-0.4-0.5-1-0.7-1.5-0.7c-0.6,0-1.2,0.3-1.6,0.8c-0.4,0.6-0.7,1.3-0.6,2v5.1h-1.4V88
	c0-1.8-0.7-2.7-2-2.7c-0.6,0-1.2,0.3-1.6,0.8c-0.4,0.6-0.6,1.3-0.6,2.1v5.1h-1.4v-9h1.4v1.4l0,0c0.5-1,1.6-1.7,2.8-1.6
	c0.6,0,1.1,0.2,1.6,0.5s0.8,0.8,0.9,1.3c0.5-1.2,1.7-1.9,3-1.9c2,0,3,1.2,3,3.7L921.9,93.4z M925.4,82.1c-0.2,0-0.5-0.1-0.7-0.3
	c-0.2-0.2-0.3-0.4-0.3-0.7c0-0.3,0.1-0.5,0.3-0.7s0.4-0.3,0.7-0.3s0.5,0.1,0.7,0.3c0.2,0.2,0.3,0.4,0.3,0.7c0,0.2-0.1,0.5-0.3,0.7
	C925.9,82,925.7,82.1,925.4,82.1L925.4,82.1z M926.1,93.4h-1.4v-9h1.4V93.4z M935.3,84.8l-5.3,7.4h5.3v1.2h-7.4V93l5.3-7.3h-4.8
	v-1.2h6.9V84.8z M943.6,93.4h-1.4V92l0,0c-0.5,1-1.6,1.7-2.8,1.6c-0.8,0-1.5-0.2-2.1-0.7c-0.5-0.5-0.8-1.2-0.8-1.9
	c0-1.7,1-2.7,3-2.9l2.7-0.4c0-1.5-0.6-2.3-1.9-2.3c-1.1,0-2.1,0.4-2.9,1.1V85c0.9-0.6,2-0.9,3.1-0.8c2.1,0,3.2,1.1,3.2,3.4
	L943.6,93.4L943.6,93.4z M942.2,88.8l-2.2,0.3c-0.5,0-1.1,0.2-1.5,0.5s-0.6,0.8-0.5,1.3c0,0.4,0.2,0.8,0.5,1.1
	c0.4,0.3,0.8,0.4,1.2,0.4c0.7,0,1.3-0.3,1.8-0.8s0.7-1.2,0.7-1.9V88.8z M952.5,93c-0.7,0.4-1.6,0.6-2.5,0.6c-1.2,0-2.3-0.4-3.1-1.3
	s-1.2-2.1-1.2-3.2c-0.1-1.3,0.4-2.6,1.3-3.6c0.9-0.9,2.1-1.4,3.4-1.3c0.7,0,1.4,0.1,2.1,0.4v1.5c-0.6-0.5-1.4-0.7-2.1-0.7
	c-0.9,0-1.7,0.3-2.3,1s-0.9,1.7-0.9,2.6c-0.1,0.9,0.2,1.8,0.8,2.5c0.6,0.6,1.4,0.9,2.2,0.9s1.6-0.3,2.2-0.8L952.5,93L952.5,93z
	 M955.4,82.1c-0.2,0-0.5-0.1-0.7-0.3c-0.2-0.2-0.3-0.4-0.3-0.7c0-0.3,0.1-0.5,0.3-0.7s0.4-0.3,0.7-0.3s0.5,0.1,0.7,0.3
	c0.2,0.2,0.3,0.4,0.3,0.7c0,0.2-0.1,0.5-0.3,0.7C955.9,82,955.6,82.1,955.4,82.1z M956.1,93.4h-1.4v-9h1.4V93.4z M962.8,93.6
	c-1.2,0.1-2.4-0.4-3.2-1.3s-1.2-2.1-1.2-3.3c-0.1-1.3,0.4-2.6,1.2-3.5c0.9-0.9,2.1-1.3,3.3-1.3c1.2-0.1,2.3,0.4,3.1,1.2
	c0.8,1,1.2,2.2,1.1,3.4c0.1,1.3-0.4,2.5-1.2,3.4C965.2,93.2,964,93.6,962.8,93.6z M962.9,85.4c-0.8,0-1.7,0.3-2.2,0.9
	c-0.6,0.7-0.9,1.7-0.8,2.6c-0.1,0.9,0.2,1.8,0.8,2.5c0.6,0.6,1.4,1,2.2,0.9c0.8,0,1.6-0.3,2.1-0.9c0.5-0.7,0.8-1.7,0.8-2.6
	c0.1-0.9-0.2-1.8-0.8-2.6C964.5,85.7,963.7,85.3,962.9,85.4z M965,79.8l-2.3,2.9h-1.1l2-2.9H965z M977,93.4h-1.4v-5.1
	c0-1.9-0.7-2.9-2.1-2.9c-0.7,0-1.3,0.3-1.8,0.8c-0.5,0.6-0.7,1.3-0.7,2.1v5.1h-1.4v-9h1.4v1.5l0,0c0.6-1.1,1.7-1.7,3-1.7
	c0.9-0.1,1.7,0.3,2.3,1c0.6,0.8,0.8,1.8,0.8,2.8L977,93.4z"/>
<path id="Trazado_191411" class="st8" d="M678.9,261.4v-12.6h3.5c4.4,0,6.7,2,6.7,6.1c0.1,1.8-0.6,3.5-1.9,4.7
	c-1.4,1.2-3.1,1.9-5,1.8H678.9z M680.4,250.1v9.9h1.9c1.4,0.1,2.8-0.4,3.9-1.3c1-1,1.5-2.4,1.4-3.8c0-3.2-1.7-4.8-5.1-4.8H680.4z
	 M698.6,257.2h-6.4c0,0.8,0.3,1.7,0.8,2.3c0.6,0.6,1.3,0.9,2.1,0.8c1,0,2-0.4,2.8-1v1.4c-0.9,0.6-2,0.9-3.1,0.9
	c-1.1,0.1-2.2-0.4-3-1.2c-0.8-1-1.2-2.2-1.1-3.4c-0.1-1.3,0.4-2.5,1.2-3.4c0.7-0.9,1.8-1.3,3-1.3c1-0.1,2,0.4,2.7,1.1
	c0.7,0.9,1,2,1,3.2V257.2z M697.1,256c0-0.7-0.2-1.4-0.6-1.9c-0.4-0.5-1-0.7-1.7-0.7s-1.3,0.3-1.7,0.7c-0.5,0.5-0.8,1.2-0.9,1.9
	H697.1z M705.2,249.3c-0.3-0.2-0.6-0.2-1-0.2c-1,0-1.5,0.6-1.5,1.9v1.4h2.1v1.2h-2.1v7.8h-1.4v-7.8h-1.5v-1.2h1.5v-1.5
	c0-0.8,0.3-1.6,0.8-2.2c0.5-0.5,1.3-0.8,2-0.8c0.4,0,0.7,0,1,0.2L705.2,249.3z M707.1,250.1c-0.2,0-0.5-0.1-0.7-0.3
	s-0.3-0.4-0.3-0.7s0.1-0.5,0.3-0.7s0.4-0.3,0.7-0.3s0.5,0.1,0.7,0.3s0.3,0.4,0.3,0.7c0,0.2-0.1,0.5-0.3,0.7S707.4,250.1,707.1,250.1
	L707.1,250.1z M707.8,261.4h-1.4v-9h1.4V261.4z M718.2,261.4h-1.4v-5.1c0-1.9-0.7-2.9-2.1-2.9c-0.7,0-1.3,0.3-1.8,0.8
	c-0.5,0.6-0.7,1.3-0.7,2.1v5.1h-1.4v-9h1.4v1.5l0,0c0.6-1.1,1.7-1.7,3-1.7c0.9-0.1,1.7,0.3,2.3,1c0.6,0.8,0.8,1.8,0.8,2.8
	L718.2,261.4L718.2,261.4z M721.7,250.1c-0.2,0-0.5-0.1-0.7-0.3s-0.3-0.4-0.3-0.7s0.1-0.5,0.3-0.7s0.4-0.3,0.7-0.3s0.5,0.1,0.7,0.3
	s0.3,0.4,0.3,0.7c0,0.2-0.1,0.5-0.3,0.7C722.1,250,721.9,250.1,721.7,250.1z M722.4,261.4H721v-9h1.4V261.4z M733,261.4h-1.4v-1.5
	l0,0c-0.6,1.1-1.8,1.8-3.1,1.7c-1,0-2-0.4-2.7-1.2c-0.7-0.9-1.1-2.1-1-3.3c-0.1-1.3,0.3-2.6,1.1-3.6c0.7-0.9,1.8-1.4,3-1.3
	c1.1-0.1,2.2,0.5,2.7,1.5l0,0V248h1.4V261.4z M731.5,257.3V256c0-0.7-0.2-1.4-0.7-1.8c-0.5-0.5-1.1-0.8-1.8-0.8
	c-0.8,0-1.6,0.3-2.1,1c-0.5,0.8-0.8,1.7-0.8,2.7c-0.1,0.9,0.2,1.7,0.7,2.5c0.5,0.6,1.2,0.9,1.9,0.9c0.8,0,1.5-0.3,2-0.9
	C731.3,258.9,731.5,258.1,731.5,257.3z M739.6,261.6c-1.2,0.1-2.4-0.4-3.2-1.3s-1.2-2.1-1.2-3.3c-0.1-1.3,0.4-2.6,1.2-3.5
	c0.9-0.9,2.1-1.3,3.3-1.3c1.2-0.1,2.3,0.4,3.1,1.2c0.8,1,1.2,2.2,1.1,3.4c0.1,1.3-0.4,2.5-1.2,3.5
	C742,261.2,740.9,261.6,739.6,261.6z M739.7,253.4c-0.8,0-1.7,0.3-2.2,0.9c-0.6,0.7-0.9,1.7-0.8,2.6c-0.1,0.9,0.2,1.8,0.8,2.5
	c0.6,0.6,1.4,1,2.2,0.9c0.8,0,1.6-0.3,2.1-0.9c0.5-0.7,0.8-1.7,0.8-2.6c0.1-0.9-0.2-1.8-0.8-2.6
	C741.4,253.7,740.6,253.3,739.7,253.4z"/>
<path id="Trazado_191412" class="st8" d="M574.4,344.8c-1.3,0.7-2.7,1.1-4.2,1.1c-1.6,0.1-3.2-0.6-4.4-1.7c-1.1-1.3-1.7-2.9-1.7-4.6
	c-0.1-1.8,0.6-3.5,1.9-4.8c1.2-1.3,2.9-1.9,4.7-1.9c1.2,0,2.4,0.2,3.5,0.7v1.6c-1.1-0.7-2.3-1-3.6-1s-2.6,0.5-3.5,1.5
	s-1.4,2.4-1.4,3.8c-0.1,1.4,0.4,2.7,1.3,3.8c0.9,0.9,2.1,1.4,3.4,1.4c0.9,0,1.8-0.2,2.6-0.6v-3.5h-2.8v-1.3h4.2V344.8z M584.4,341.5
	H578c0,0.8,0.3,1.7,0.8,2.3c0.6,0.6,1.3,0.9,2.1,0.8c1,0,2-0.4,2.8-1v1.4c-0.9,0.6-2,0.9-3.1,0.9c-1.1,0.1-2.2-0.4-3-1.2
	c-0.8-1-1.2-2.2-1.1-3.4c-0.1-1.3,0.4-2.5,1.2-3.4c0.7-0.9,1.8-1.3,3-1.3c1-0.1,2,0.4,2.7,1.1c0.7,0.9,1,2,1,3.2V341.5z
	 M582.9,340.3c0-0.7-0.2-1.4-0.6-1.9c-0.4-0.5-1-0.7-1.6-0.7c-0.7,0-1.3,0.3-1.7,0.7c-0.5,0.5-0.8,1.2-0.9,1.9H582.9z M586,345.3
	v-1.5c0.7,0.6,1.7,0.9,2.6,0.9c1.3,0,1.9-0.4,1.9-1.3c0-0.2-0.1-0.4-0.2-0.6c-0.1-0.2-0.3-0.3-0.4-0.4c-0.2-0.1-0.4-0.3-0.6-0.3
	c-0.2-0.1-0.5-0.2-0.8-0.3c-0.4-0.1-0.7-0.3-1.1-0.5c-0.3-0.1-0.5-0.3-0.8-0.5c-0.2-0.2-0.4-0.4-0.5-0.7c-0.1-0.3-0.2-0.6-0.2-0.9
	c0-0.4,0.1-0.8,0.3-1.1c0.2-0.3,0.5-0.6,0.8-0.8c0.3-0.2,0.7-0.4,1.1-0.5c0.4-0.1,0.8-0.2,1.3-0.2c0.7,0,1.4,0.1,2.1,0.4v1.5
	c-0.7-0.4-1.5-0.7-2.3-0.6c-0.2,0-0.5,0-0.7,0.1s-0.4,0.1-0.6,0.3c-0.1,0.1-0.3,0.2-0.4,0.4c-0.1,0.2-0.1,0.3-0.1,0.5s0,0.4,0.1,0.6
	s0.2,0.3,0.4,0.4s0.4,0.2,0.6,0.3c0.2,0.1,0.5,0.2,0.8,0.3c0.4,0.1,0.7,0.3,1.1,0.5c0.3,0.1,0.6,0.3,0.8,0.5s0.4,0.4,0.5,0.7
	c0.1,0.3,0.2,0.6,0.2,0.9c0,0.4-0.1,0.8-0.3,1.2c-0.2,0.3-0.5,0.6-0.8,0.8c-0.3,0.2-0.7,0.4-1.1,0.5c-0.4,0.1-0.9,0.2-1.3,0.2
	C587.6,345.9,586.8,345.7,586,345.3z M598.4,345.6c-0.4,0.2-0.9,0.3-1.3,0.3c-1.6,0-2.4-0.9-2.4-2.6V338h-1.5v-1.2h1.5v-2.2l1.4-0.5
	v2.7h2.3v1.2h-2.3v5.1c0,0.5,0.1,0.9,0.3,1.3c0.3,0.3,0.6,0.4,1,0.4c0.3,0,0.7-0.1,0.9-0.3L598.4,345.6z M601.1,334.4
	c-0.2,0-0.5-0.1-0.7-0.3c-0.2-0.2-0.3-0.4-0.3-0.7c0-0.3,0.1-0.5,0.3-0.7s0.4-0.3,0.7-0.3s0.5,0.1,0.7,0.3c0.2,0.2,0.3,0.4,0.3,0.7
	c0,0.2-0.1,0.5-0.3,0.7C601.6,334.3,601.3,334.4,601.1,334.4L601.1,334.4z M601.8,345.7h-1.4v-9h1.4V345.7z M608.4,345.9
	c-1.2,0.1-2.4-0.4-3.2-1.3s-1.3-2.1-1.2-3.3c-0.1-1.3,0.4-2.6,1.2-3.5c0.9-0.9,2.1-1.3,3.4-1.3c1.2-0.1,2.3,0.4,3.1,1.2
	c0.8,1,1.2,2.2,1.1,3.4c0.1,1.3-0.4,2.5-1.2,3.5C610.9,345.5,609.7,345.9,608.4,345.9L608.4,345.9z M608.5,337.7
	c-0.8,0-1.7,0.3-2.2,0.9c-0.6,0.7-0.9,1.7-0.8,2.6c0,0.9,0.2,1.8,0.8,2.5c0.6,0.6,1.4,1,2.2,0.9c0.8,0,1.6-0.3,2.1-0.9
	c0.5-0.7,0.8-1.7,0.8-2.6c0.1-0.9-0.2-1.8-0.8-2.6C610.2,338,609.4,337.6,608.5,337.7z M622.7,345.7h-1.4v-5.1
	c0-1.9-0.7-2.9-2.1-2.9c-0.7,0-1.3,0.3-1.8,0.8c-0.5,0.6-0.7,1.3-0.7,2.1v5.1h-1.4v-9h1.4v1.5l0,0c0.6-1.1,1.7-1.7,3-1.7
	c0.9-0.1,1.7,0.3,2.3,1c0.6,0.8,0.8,1.8,0.8,2.8L622.7,345.7L622.7,345.7z M631.9,345.7h-1.4v-1.4l0,0c-0.5,1-1.6,1.7-2.8,1.6
	c-0.8,0-1.5-0.2-2.1-0.7c-0.5-0.5-0.8-1.2-0.8-1.9c0-1.7,1-2.7,3-2.9l2.7-0.4c0-1.5-0.6-2.3-1.9-2.3c-1.1,0-2.1,0.4-2.9,1.1v-1.5
	c0.9-0.6,2-0.9,3.1-0.8c2.1,0,3.2,1.1,3.2,3.4L631.9,345.7z M630.4,341.1l-2.2,0.3c-0.5,0-1.1,0.2-1.5,0.5s-0.6,0.8-0.5,1.3
	c0,0.4,0.2,0.8,0.5,1.1c0.4,0.3,0.8,0.4,1.3,0.4c0.7,0,1.3-0.3,1.8-0.8s0.7-1.2,0.7-1.9L630.4,341.1z M642.3,345.7h-1.4v-1.5l0,0
	c-0.6,1.1-1.8,1.8-3.1,1.7c-1,0-2-0.4-2.7-1.2c-0.7-0.9-1.1-2.1-1-3.3c-0.1-1.3,0.3-2.6,1.1-3.6c0.7-0.9,1.8-1.4,3-1.3
	c1.1-0.1,2.2,0.5,2.7,1.5l0,0v-5.6h1.4V345.7z M640.8,341.6v-1.3c0-0.7-0.2-1.4-0.7-1.8c-0.5-0.5-1.1-0.8-1.8-0.8
	c-0.8,0-1.6,0.3-2.1,1c-0.5,0.8-0.8,1.7-0.8,2.7c0,0.9,0.2,1.7,0.7,2.5c0.5,0.6,1.2,0.9,1.9,0.9c0.8,0,1.5-0.3,2-0.9
	C640.6,343.2,640.8,342.4,640.8,341.6z M648.9,345.9c-1.2,0.1-2.4-0.4-3.2-1.3s-1.2-2.1-1.2-3.3c-0.1-1.3,0.4-2.6,1.2-3.5
	c0.9-0.9,2.1-1.3,3.3-1.3c1.2-0.1,2.3,0.4,3.1,1.2c0.8,1,1.2,2.2,1.1,3.4c0.1,1.3-0.4,2.5-1.2,3.4
	C651.3,345.5,650.2,345.9,648.9,345.9z M649,337.7c-0.8,0-1.7,0.3-2.2,0.9c-0.6,0.7-0.9,1.7-0.8,2.6c-0.1,0.9,0.2,1.8,0.8,2.5
	c0.6,0.6,1.4,1,2.2,0.9c0.8,0,1.6-0.3,2.1-0.9c0.5-0.7,0.8-1.7,0.8-2.6c0.1-0.9-0.2-1.8-0.8-2.6C650.7,338,649.9,337.6,649,337.7z"
	/>
<path id="Trazado_191413" class="st8" d="M434.3,431.1h-1.5v-12.6h1.5V431.1z M444.9,431.1h-1.4V426c0-1.9-0.7-2.9-2.1-2.9
	c-0.7,0-1.3,0.3-1.8,0.8c-0.5,0.6-0.7,1.3-0.7,2.1v5.1h-1.4v-9h1.4v1.5l0,0c0.6-1.1,1.7-1.7,3-1.7c0.9-0.1,1.7,0.3,2.3,1
	c0.6,0.8,0.8,1.8,0.8,2.8L444.9,431.1L444.9,431.1z M448.3,419.8c-0.2,0-0.5-0.1-0.7-0.3c-0.2-0.2-0.3-0.4-0.3-0.7
	c0-0.3,0.1-0.5,0.3-0.7c0.2-0.2,0.4-0.3,0.7-0.3c0.3,0,0.5,0.1,0.7,0.3c0.2,0.2,0.3,0.4,0.3,0.7c0,0.2-0.1,0.5-0.3,0.7
	C448.8,419.7,448.6,419.8,448.3,419.8z M449,431.1h-1.4v-9h1.4V431.1z M458.1,430.7c-0.7,0.4-1.6,0.6-2.5,0.6
	c-1.2,0-2.3-0.4-3.1-1.3c-0.8-0.9-1.2-2.1-1.2-3.2c-0.1-1.3,0.4-2.6,1.3-3.6c0.9-0.9,2.1-1.4,3.4-1.3c0.7,0,1.4,0.1,2.1,0.4v1.5
	c-0.6-0.5-1.4-0.7-2.1-0.7c-0.9,0-1.7,0.3-2.3,1c-0.6,0.7-0.9,1.7-0.9,2.6c-0.1,0.9,0.2,1.8,0.8,2.5c0.6,0.6,1.4,1,2.2,0.9
	c0.8,0,1.6-0.3,2.2-0.8v1.4H458.1z M461,419.8c-0.2,0-0.5-0.1-0.7-0.3c-0.2-0.2-0.3-0.4-0.3-0.7c0-0.3,0.1-0.5,0.3-0.7
	c0.2-0.2,0.4-0.3,0.7-0.3c0.3,0,0.5,0.1,0.7,0.3c0.2,0.2,0.3,0.4,0.3,0.7c0,0.2-0.1,0.5-0.3,0.7C461.5,419.7,461.2,419.8,461,419.8z
	 M461.7,431.1h-1.4v-9h1.4V431.1z M471.1,431.1h-1.4v-1.4l0,0c-0.5,1-1.6,1.7-2.8,1.6c-0.8,0-1.5-0.2-2.1-0.7
	c-0.5-0.5-0.8-1.2-0.8-1.9c0-1.7,1-2.7,3-2.9l2.7-0.4c0-1.5-0.6-2.3-1.9-2.3c-1.1,0-2.1,0.4-2.9,1.1v-1.5c0.9-0.6,2-0.9,3.1-0.8
	c2.1,0,3.2,1.1,3.2,3.4L471.1,431.1z M469.6,426.5l-2.2,0.3c-0.5,0-1.1,0.2-1.5,0.5s-0.6,0.8-0.5,1.3c0,0.4,0.2,0.8,0.5,1.1
	c0.4,0.3,0.8,0.4,1.3,0.4c0.7,0,1.3-0.3,1.8-0.8s0.7-1.2,0.7-1.9L469.6,426.5z M475.2,431.1h-1.4v-13.3h1.4V431.1z"/>
<path id="Trazado_191455" class="st8" d="M784.4,164c-1.3,0.7-2.7,1.1-4.2,1.1c-1.6,0.1-3.2-0.6-4.4-1.7c-1.1-1.3-1.7-2.9-1.7-4.6
	c-0.1-1.8,0.6-3.5,1.9-4.8c1.2-1.3,2.9-1.9,4.7-1.9c1.2,0,2.4,0.2,3.5,0.7v1.6c-1.1-0.7-2.3-1-3.6-1s-2.6,0.5-3.5,1.5
	s-1.4,2.4-1.4,3.8c-0.1,1.4,0.4,2.7,1.3,3.8c0.9,0.9,2.1,1.4,3.4,1.4c0.9,0,1.8-0.2,2.6-0.6v-3.5h-2.8v-1.3h4.2V164z M794.3,160.7
	H788c0,0.8,0.3,1.7,0.8,2.3c0.6,0.6,1.3,0.9,2.1,0.8c1,0,2-0.4,2.8-1v1.4c-0.9,0.6-2,0.9-3.1,0.9c-1.1,0.1-2.2-0.4-3-1.2
	c-0.8-1-1.2-2.2-1.1-3.4c-0.1-1.3,0.4-2.5,1.2-3.4c0.7-0.9,1.8-1.3,3-1.3c1-0.1,2,0.4,2.7,1.1c0.7,0.9,1,2,1,3.2v0.6H794.3z
	 M792.9,159.5c0-0.7-0.2-1.4-0.6-1.9c-0.4-0.5-1-0.7-1.6-0.7c-0.7,0-1.3,0.3-1.7,0.7c-0.5,0.5-0.8,1.2-0.9,1.9H792.9z M796,164.5
	V163c0.7,0.6,1.7,0.9,2.6,0.9c1.3,0,1.9-0.4,1.9-1.3c0-0.2-0.1-0.4-0.2-0.6c-0.1-0.2-0.3-0.3-0.4-0.4c-0.2-0.1-0.4-0.3-0.6-0.3
	c-0.2-0.1-0.5-0.2-0.8-0.3c-0.4-0.1-0.7-0.3-1.1-0.5c-0.3-0.1-0.5-0.3-0.8-0.5c-0.2-0.2-0.4-0.4-0.5-0.7s-0.2-0.6-0.2-0.9
	c0-0.4,0.1-0.8,0.3-1.1s0.5-0.6,0.8-0.8s0.7-0.4,1.1-0.5c0.4-0.1,0.8-0.2,1.3-0.2c0.7,0,1.4,0.1,2.1,0.4v1.5
	c-0.7-0.4-1.5-0.7-2.3-0.6c-0.2,0-0.5,0-0.7,0.1s-0.4,0.1-0.6,0.3c-0.1,0.1-0.3,0.2-0.4,0.4c-0.1,0.2-0.1,0.3-0.1,0.5s0,0.4,0.1,0.6
	c0.1,0.2,0.2,0.3,0.4,0.4c0.2,0.1,0.4,0.2,0.6,0.3c0.2,0.1,0.5,0.2,0.8,0.3c0.4,0.1,0.7,0.3,1.1,0.5c0.3,0.1,0.6,0.3,0.8,0.5
	s0.4,0.4,0.5,0.7s0.2,0.6,0.2,0.9c0,0.4-0.1,0.8-0.3,1.2c-0.2,0.3-0.5,0.6-0.8,0.8s-0.7,0.4-1.1,0.5c-0.4,0.1-0.9,0.2-1.3,0.2
	C797.6,165.1,796.7,164.9,796,164.5z M808.3,164.7c-0.4,0.2-0.9,0.3-1.3,0.3c-1.6,0-2.4-0.9-2.4-2.6v-5.3h-1.5v-1.2h1.5v-2.2
	l1.4-0.5v2.7h2.3v1.2H806v5.1c0,0.5,0.1,0.9,0.3,1.3c0.3,0.3,0.6,0.4,1,0.4c0.3,0,0.7-0.1,0.9-0.3L808.3,164.7z M811,153.5
	c-0.2,0-0.5-0.1-0.7-0.3s-0.3-0.4-0.3-0.7s0.1-0.5,0.3-0.7s0.4-0.3,0.7-0.3s0.5,0.1,0.7,0.3s0.3,0.4,0.3,0.7c0,0.2-0.1,0.5-0.3,0.7
	S811.3,153.5,811,153.5L811,153.5z M811.7,164.8h-1.4v-9h1.4V164.8z M818.4,165c-1.2,0.1-2.4-0.4-3.2-1.3c-0.8-0.9-1.3-2.1-1.2-3.3
	c-0.1-1.3,0.4-2.6,1.2-3.5c0.9-0.9,2.1-1.3,3.4-1.3c1.2-0.1,2.3,0.4,3.1,1.2c0.8,1,1.2,2.2,1.1,3.4c0.1,1.3-0.4,2.5-1.2,3.4
	C820.8,164.6,819.6,165.1,818.4,165L818.4,165z M818.5,156.8c-0.8,0-1.7,0.3-2.2,0.9c-0.6,0.7-0.9,1.7-0.8,2.6
	c0,0.9,0.2,1.8,0.8,2.5c0.6,0.6,1.4,1,2.2,0.9c0.8,0,1.6-0.3,2.1-0.9c0.5-0.7,0.8-1.7,0.8-2.6c0.1-0.9-0.2-1.8-0.8-2.6
	C820.1,157.1,819.3,156.8,818.5,156.8z M832.6,164.8h-1.4v-5.1c0-1.9-0.7-2.9-2.1-2.9c-0.7,0-1.3,0.3-1.8,0.8
	c-0.5,0.6-0.7,1.3-0.7,2.1v5.1h-1.4v-9h1.4v1.5l0,0c0.6-1.1,1.7-1.7,3-1.7c0.9-0.1,1.7,0.3,2.3,1c0.6,0.8,0.8,1.8,0.8,2.8
	L832.6,164.8L832.6,164.8z M841.8,164.8h-1.4v-1.4l0,0c-0.5,1-1.6,1.7-2.8,1.6c-0.8,0-1.5-0.2-2.1-0.7c-0.5-0.5-0.8-1.2-0.8-1.9
	c0-1.7,1-2.7,3-2.9l2.7-0.4c0-1.5-0.6-2.3-1.9-2.3c-1.1,0-2.1,0.4-2.9,1.1v-1.5c0.9-0.6,2-0.9,3.1-0.8c2.1,0,3.2,1.1,3.2,3.4
	L841.8,164.8z M840.4,160.3l-2.2,0.3c-0.5,0-1.1,0.2-1.5,0.5s-0.6,0.8-0.5,1.3c0,0.4,0.2,0.8,0.5,1.1c0.4,0.3,0.8,0.4,1.3,0.4
	c0.7,0,1.3-0.3,1.8-0.8s0.7-1.2,0.7-1.9L840.4,160.3z M852.2,164.8h-1.4v-1.5l0,0c-0.6,1.1-1.8,1.8-3.1,1.7c-1,0-2-0.4-2.7-1.2
	c-0.7-0.9-1.1-2.1-1-3.3c-0.1-1.3,0.3-2.6,1.1-3.6c0.7-0.9,1.8-1.4,3-1.3c1.1-0.1,2.2,0.5,2.7,1.5l0,0v-5.6h1.4V164.8z M850.7,160.8
	v-1.3c0-0.7-0.2-1.4-0.7-1.8c-0.5-0.5-1.1-0.8-1.8-0.8c-0.8,0-1.6,0.3-2.1,1c-0.5,0.8-0.8,1.7-0.8,2.7c0,0.9,0.2,1.7,0.7,2.5
	c0.5,0.6,1.2,0.9,1.9,0.9c0.8,0,1.5-0.3,2-0.9C850.5,162.3,850.8,161.6,850.7,160.8z M858.9,165c-1.2,0.1-2.4-0.4-3.2-1.3
	c-0.8-0.9-1.2-2.1-1.2-3.3c-0.1-1.3,0.4-2.6,1.2-3.5c0.9-0.9,2.1-1.3,3.3-1.3c1.2-0.1,2.3,0.4,3.1,1.2c0.8,1,1.2,2.2,1.1,3.4
	c0.1,1.3-0.4,2.5-1.2,3.4C861.3,164.6,860.1,165.1,858.9,165z M859,156.8c-0.8,0-1.7,0.3-2.2,0.9c-0.6,0.7-0.9,1.7-0.8,2.6
	c-0.1,0.9,0.2,1.8,0.8,2.5c0.6,0.6,1.4,1,2.2,0.9c0.8,0,1.6-0.3,2.1-0.9c0.5-0.7,0.8-1.7,0.8-2.6c0.1-0.9-0.2-1.8-0.8-2.6
	C860.6,157.1,859.8,156.8,859,156.8z"/>
<path id="Trazado_191456" class="st8" d="M780.9,186c-0.7,0.4-1.6,0.6-2.5,0.6c-1.2,0-2.3-0.4-3.1-1.3c-0.8-0.9-1.2-2.1-1.2-3.2
	c-0.1-1.3,0.4-2.6,1.3-3.6c0.9-0.9,2.1-1.4,3.4-1.3c0.7,0,1.4,0.1,2.1,0.4v1.5c-0.6-0.5-1.4-0.7-2.1-0.7c-0.9,0-1.7,0.3-2.3,1
	s-0.9,1.7-0.9,2.6c-0.1,0.9,0.2,1.8,0.8,2.5c0.6,0.6,1.4,0.9,2.2,0.9s1.6-0.3,2.2-0.8L780.9,186L780.9,186z M790.4,186.4H789V185
	l0,0c-0.5,1-1.6,1.7-2.8,1.6c-2.1,0-3.2-1.3-3.2-3.8v-5.4h1.4v5.1c0,1.9,0.7,2.9,2.2,2.9c0.7,0,1.3-0.3,1.7-0.8
	c0.5-0.6,0.7-1.3,0.7-2v-5.2h1.4L790.4,186.4z M799.7,186.4h-1.4V185l0,0c-0.5,1-1.6,1.7-2.8,1.6c-0.8,0-1.5-0.2-2.1-0.7
	c-0.5-0.5-0.8-1.2-0.8-1.9c0-1.7,1-2.7,3-2.9l2.7-0.4c0-1.5-0.6-2.3-1.9-2.3c-1.1,0-2.1,0.4-2.9,1.1V178c0.9-0.6,2-0.9,3.1-0.8
	c2.1,0,3.2,1.1,3.2,3.4L799.7,186.4z M798.3,181.9l-2.2,0.3c-0.5,0-1.1,0.2-1.5,0.5s-0.6,0.8-0.5,1.3c0,0.4,0.2,0.8,0.5,1.1
	c0.4,0.3,0.8,0.4,1.3,0.4c0.7,0,1.3-0.3,1.8-0.8s0.7-1.2,0.7-1.9L798.3,181.9z M809.9,186.4h-1.4v-5.1c0-1.9-0.7-2.9-2.1-2.9
	c-0.7,0-1.3,0.3-1.8,0.8c-0.5,0.6-0.7,1.3-0.7,2.1v5.1h-1.4v-9h1.4v1.5l0,0c0.6-1.1,1.7-1.7,3-1.7c0.9-0.1,1.7,0.3,2.3,1
	c0.6,0.8,0.8,1.8,0.8,2.8L809.9,186.4L809.9,186.4z M816.8,186.3c-0.4,0.2-0.9,0.3-1.3,0.3c-1.6,0-2.4-0.9-2.4-2.6v-5.3h-1.5v-1.2
	h1.5v-2.2l1.4-0.5v2.7h2.3v1.2h-2.3v5.1c0,0.5,0.1,0.9,0.3,1.3c0.3,0.3,0.6,0.4,1,0.4c0.3,0,0.7-0.1,0.9-0.3L816.8,186.3
	L816.8,186.3z M819.4,175.1c-0.2,0-0.5-0.1-0.7-0.3s-0.3-0.4-0.3-0.7s0.1-0.5,0.3-0.7s0.4-0.3,0.7-0.3s0.5,0.1,0.7,0.3
	s0.3,0.4,0.3,0.7c0,0.2-0.1,0.5-0.3,0.7S819.7,175.1,819.4,175.1L819.4,175.1z M820.1,186.4h-1.4v-9h1.4V186.4z M827.2,186.3
	c-0.4,0.2-0.9,0.3-1.3,0.3c-1.6,0-2.4-0.9-2.4-2.6v-5.3H822v-1.2h1.5v-2.2l1.4-0.5v2.7h2.3v1.2H825v5.1c0,0.5,0.1,0.9,0.3,1.3
	c0.3,0.3,0.6,0.4,1,0.4c0.3,0,0.7-0.1,0.9-0.3V186.3z M835.6,186.4h-1.4V185l0,0c-0.5,1-1.6,1.7-2.8,1.6c-0.8,0-1.5-0.2-2.1-0.7
	c-0.5-0.5-0.8-1.2-0.8-1.9c0-1.7,1-2.7,3-2.9l2.7-0.4c0-1.5-0.6-2.3-1.9-2.3c-1.1,0-2.1,0.4-2.9,1.1V178c0.9-0.6,2-0.9,3.1-0.8
	c2.1,0,3.2,1.1,3.2,3.4L835.6,186.4z M834.2,181.9l-2.2,0.3c-0.5,0-1.1,0.2-1.5,0.5s-0.6,0.8-0.5,1.3c0,0.4,0.2,0.8,0.5,1.1
	c0.4,0.3,0.8,0.4,1.3,0.4c0.7,0,1.3-0.3,1.8-0.8s0.7-1.2,0.7-1.9L834.2,181.9z M842.5,186.3c-0.4,0.2-0.9,0.3-1.3,0.3
	c-1.6,0-2.4-0.9-2.4-2.6v-5.3h-1.6v-1.2h1.5v-2.2l1.4-0.5v2.7h2.3v1.2h-2.3v5.1c0,0.5,0.1,0.9,0.3,1.3c0.3,0.3,0.6,0.4,1,0.4
	c0.3,0,0.7-0.1,0.9-0.3L842.5,186.3z M845.2,175.1c-0.2,0-0.5-0.1-0.7-0.3s-0.3-0.4-0.3-0.7s0.1-0.5,0.3-0.7s0.4-0.3,0.7-0.3
	s0.5,0.1,0.7,0.3s0.3,0.4,0.3,0.7c0,0.2-0.1,0.5-0.3,0.7S845.4,175.1,845.2,175.1L845.2,175.1z M845.9,186.4h-1.4v-9h1.4V186.4z"/>
<path id="Trazado_191457" class="st8" d="M857.1,177.4l-3.6,9h-1.4l-3.4-9h1.6l2.3,6.5c0.2,0.4,0.3,0.8,0.3,1.3l0,0
	c0.1-0.4,0.1-0.8,0.3-1.2l2.4-6.6H857.1z"/>
<path id="Trazado_191458" class="st8" d="M865,186.4h-1.4V185l0,0c-0.5,1-1.6,1.7-2.8,1.6c-0.8,0-1.5-0.2-2.1-0.7
	c-0.5-0.5-0.8-1.2-0.8-1.9c0-1.7,1-2.7,3-2.9l2.7-0.4c0-1.5-0.6-2.3-1.9-2.3c-1.1,0-2.1,0.4-2.9,1.1V178c0.9-0.6,2-0.9,3.1-0.8
	c2.1,0,3.2,1.1,3.2,3.4L865,186.4L865,186.4z M863.6,181.9l-2.2,0.3c-0.5,0-1.1,0.2-1.5,0.5s-0.6,0.8-0.5,1.3c0,0.4,0.2,0.8,0.5,1.1
	s0.8,0.4,1.3,0.4c0.7,0,1.3-0.3,1.8-0.8s0.7-1.2,0.7-1.9L863.6,181.9z M880.5,186.4h-1.4v-5.2c0.1-0.8-0.1-1.5-0.5-2.2
	c-0.4-0.5-1-0.7-1.6-0.7s-1.2,0.3-1.6,0.8c-0.4,0.6-0.7,1.3-0.6,2v5.1h-1.4v-5.3c0-1.8-0.7-2.7-2-2.7c-0.6,0-1.2,0.3-1.6,0.8
	c-0.4,0.6-0.6,1.3-0.6,2.1v5.1h-1.4v-9h1.4v1.4l0,0c0.5-1,1.6-1.7,2.8-1.6c0.6,0,1.1,0.2,1.6,0.5s0.8,0.8,0.9,1.3
	c0.5-1.2,1.7-1.9,3-1.9c2,0,3,1.2,3,3.7L880.5,186.4z M890.5,182.3h-6.4c0,0.8,0.3,1.7,0.8,2.3c0.6,0.6,1.3,0.9,2.1,0.8
	c1,0,2-0.4,2.8-1v1.4c-0.9,0.6-2,0.9-3.1,0.9c-1.1,0.1-2.2-0.4-3-1.2c-0.8-1-1.2-2.2-1.1-3.4c-0.1-1.3,0.4-2.5,1.2-3.4
	c0.7-0.9,1.8-1.3,3-1.3c1-0.1,2,0.4,2.7,1.1c0.7,0.9,1,2,1,3.2V182.3z M889,181.1c0-0.7-0.2-1.4-0.6-1.9c-0.4-0.5-1-0.7-1.7-0.7
	s-1.3,0.3-1.7,0.7c-0.5,0.5-0.8,1.2-0.9,1.9H889z M900.1,186.4h-1.4v-5.1c0-1.9-0.7-2.9-2.1-2.9c-0.7,0-1.3,0.3-1.8,0.8
	c-0.5,0.6-0.7,1.3-0.7,2.1v5.1h-1.4v-9h1.4v1.5l0,0c0.6-1.1,1.7-1.7,3-1.7c0.9-0.1,1.7,0.3,2.3,1c0.6,0.8,0.8,1.8,0.8,2.8
	L900.1,186.4L900.1,186.4z M907,186.3c-0.4,0.2-0.9,0.3-1.3,0.3c-1.6,0-2.4-0.9-2.4-2.6v-5.3h-1.6v-1.2h1.5v-2.2l1.4-0.5v2.7h2.3
	v1.2h-2.3v5.1c0,0.5,0.1,0.9,0.3,1.3c0.3,0.3,0.6,0.4,1,0.4c0.3,0,0.7-0.1,0.9-0.3L907,186.3z M916.2,182.3h-6.4
	c0,0.8,0.3,1.7,0.8,2.3c0.6,0.6,1.3,0.9,2.1,0.8c1,0,2-0.4,2.8-1v1.4c-0.9,0.6-2,0.9-3.1,0.9c-1.1,0.1-2.2-0.4-3-1.2
	c-0.8-1-1.2-2.2-1.1-3.4c-0.1-1.3,0.4-2.5,1.2-3.4c0.7-0.9,1.8-1.3,3-1.3c1-0.1,2,0.4,2.7,1.1c0.7,0.9,1,2,1,3.2V182.3z
	 M914.7,181.1c0-0.7-0.2-1.4-0.6-1.9c-0.4-0.5-1-0.7-1.6-0.7c-0.7,0-1.3,0.3-1.7,0.7c-0.5,0.5-0.8,1.2-0.9,1.9H914.7z"/>
<path id="Trazado_191414" class="st9" d="M59,58.2c12.7,0,23,10.3,23,23s-10.3,23-23,23s-23-10.3-23-23l0,0
	C36,68.5,46.3,58.2,59,58.2z"/>
<path id="Trazado_191415" class="st9" d="M59,143.1c12.7,0,23,10.3,23,23s-10.3,23-23,23s-23-10.3-23-23l0,0
	C36,153.4,46.3,143.1,59,143.1z"/>
<path id="Trazado_191416" class="st9" d="M59,228.1c12.7,0,23,10.3,23,23c0,12.7-10.3,23-23,23s-23-10.3-23-23l0,0
	C36,238.4,46.3,228.1,59,228.1z"/>
<path id="Trazado_191417" class="st9" d="M59,313c12.7,0,23,10.3,23,23s-10.3,23-23,23s-23-10.3-23-23l0,0C36,323.3,46.3,313,59,313
	z"/>
<path id="Trazado_191418" class="st9" d="M59,398c12.7,0,23,10.3,23,23s-10.3,23-23,23s-23-10.3-23-23l0,0C36,408.3,46.3,398,59,398
	z"/>
<path id="Trazado_191419" class="st8" d="M55.1,86.1v-2.4c0.8,0.5,1.8,0.8,2.8,0.8c0.6,0,1.2-0.1,1.7-0.5c0.4-0.4,0.6-0.9,0.6-1.4
	c0-1.2-0.9-1.9-2.6-1.9c-0.8,0-1.5,0.1-2.2,0.1l0.5-7h6.7V76H58l-0.2,2.5c0.5,0,0.8-0.1,1.2-0.1c1.1-0.1,2.2,0.3,3,1
	c0.7,0.7,1.1,1.7,1.1,2.7c0,1.2-0.4,2.3-1.3,3.1c-1,0.8-2.3,1.3-3.5,1.2C57.1,86.6,56,86.4,55.1,86.1z"/>
<path id="Trazado_191420" class="st8" d="M62.2,159.2v7.9h1.5v2.1h-1.5v2.6h-2.5v-2.6h-5.5V167c0.5-0.5,1-1.1,1.5-1.8
	c0.5-0.6,1-1.3,1.5-2s0.9-1.4,1.4-2.1c0.4-0.6,0.7-1.3,1.1-2h2.5V159.2z M56.6,167.1h3v-4.4c-0.2,0.4-0.4,0.8-0.7,1.2
	c-0.2,0.4-0.5,0.8-0.8,1.1c-0.3,0.4-0.5,0.7-0.8,1.1C57.2,166.5,56.9,166.8,56.6,167.1z"/>
<path id="Trazado_191421" class="st8" d="M54.8,256.8v-2.4c0.9,0.6,1.9,0.9,3,0.9c0.6,0,1.2-0.1,1.7-0.5c0.4-0.3,0.6-0.8,0.6-1.3
	s-0.3-1-0.7-1.3c-0.6-0.3-1.3-0.5-2-0.5h-1.2v-2.1h1.1c1.6,0,2.5-0.5,2.5-1.6c0-1-0.6-1.5-1.9-1.5c-0.9,0-1.7,0.3-2.5,0.8V245
	c1-0.5,2-0.7,3.1-0.7c1.1-0.1,2.1,0.2,3,0.9c0.7,0.5,1.1,1.4,1.1,2.3c0.1,1.5-1,2.9-2.5,3.1l0,0c0.8,0.1,1.5,0.4,2.1,1
	c0.5,0.5,0.8,1.2,0.8,2c0,1.1-0.4,2.1-1.3,2.8c-1,0.7-2.3,1.1-3.6,1C56.9,257.5,55.8,257.3,54.8,256.8z"/>
<path id="Trazado_191422" class="st8" d="M61.1,415.2v12.9h-2.8v-9.8c-0.2,0.1-0.4,0.3-0.5,0.4c-0.2,0.1-0.4,0.2-0.7,0.3
	c-0.2,0.1-0.5,0.2-0.7,0.2c-0.2,0.1-0.5,0.1-0.7,0.1V417c0.7-0.2,1.4-0.5,2-0.8s1.2-0.7,1.7-1.1L61.1,415.2z"/>
<path id="Trazado_191423" class="st8" d="M57.6,340.3h5.3v2.3h-8.4v-0.9c0-0.6,0.1-1.2,0.3-1.7s0.5-1,0.8-1.4s0.7-0.8,1.1-1.1
	c0.4-0.3,0.8-0.6,1.1-0.8c0.4-0.3,0.7-0.5,1-0.8c0.3-0.2,0.5-0.5,0.7-0.7s0.3-0.5,0.4-0.7c0.1-0.2,0.1-0.5,0.1-0.8
	c0-0.5-0.1-0.9-0.5-1.2c-0.4-0.3-0.9-0.5-1.4-0.4c-1.2,0-2.3,0.5-3.1,1.3V331c1.1-0.7,2.4-1.1,3.7-1.1c0.6,0,1.2,0.1,1.7,0.2
	s0.9,0.4,1.3,0.7c0.3,0.3,0.6,0.7,0.8,1.1c0.2,0.5,0.3,1,0.3,1.5s-0.1,1.1-0.3,1.5s-0.4,0.9-0.7,1.2c-0.3,0.4-0.6,0.7-1,1
	s-0.8,0.6-1.2,0.9c-0.3,0.2-0.6,0.4-0.8,0.6s-0.5,0.4-0.7,0.6s-0.3,0.4-0.5,0.6C57.7,340,57.6,340.2,57.6,340.3z"/>
<g>
	<path class="st1" d="M96.9,316.6c0.8-0.1,1.9-0.2,3.2-0.2c1.7,0,2.9,0.4,3.6,1.1c0.7,0.6,1.1,1.6,1.1,2.7c0,1.2-0.3,2.1-1,2.8
		c-0.9,0.9-2.3,1.4-4,1.4c-0.5,0-1,0-1.3-0.1v5.2h-1.7V316.6z M98.5,322.8c0.4,0.1,0.8,0.1,1.4,0.1c2,0,3.3-1,3.3-2.8
		c0-1.7-1.2-2.5-3.1-2.5c-0.7,0-1.3,0.1-1.6,0.1V322.8z"/>
	<path class="st1" d="M106.7,323c0-1.1,0-2-0.1-2.9h1.5l0.1,1.8h0.1c0.4-1.2,1.4-2,2.6-2c0.2,0,0.3,0,0.5,0.1v1.6
		c-0.2,0-0.3-0.1-0.6-0.1c-1.2,0-2,0.9-2.3,2.2c0,0.2-0.1,0.5-0.1,0.8v5h-1.7V323z"/>
	<path class="st1" d="M121.3,324.7c0,3.4-2.4,4.9-4.6,4.9c-2.5,0-4.5-1.8-4.5-4.8c0-3.1,2-4.9,4.6-4.9
		C119.5,319.9,121.3,321.8,121.3,324.7z M113.9,324.8c0,2,1.2,3.6,2.8,3.6c1.6,0,2.8-1.5,2.8-3.6c0-1.6-0.8-3.6-2.8-3.6
		S113.9,323,113.9,324.8z"/>
	<path class="st1" d="M130,329.1c-0.4,0.2-1.4,0.5-2.7,0.5c-2.8,0-4.6-1.9-4.6-4.8c0-2.9,2-4.9,5-4.9c1,0,1.9,0.2,2.3,0.5l-0.4,1.3
		c-0.4-0.2-1-0.4-2-0.4c-2.1,0-3.3,1.6-3.3,3.5c0,2.2,1.4,3.5,3.2,3.5c1,0,1.6-0.2,2.1-0.5L130,329.1z"/>
	<path class="st1" d="M132.8,325.1c0,2.3,1.5,3.2,3.2,3.2c1.2,0,1.9-0.2,2.6-0.5l0.3,1.2c-0.6,0.3-1.6,0.6-3.1,0.6
		c-2.9,0-4.6-1.9-4.6-4.7c0-2.8,1.7-5,4.4-5c3,0,3.8,2.7,3.8,4.4c0,0.3,0,0.6-0.1,0.8H132.8z M137.8,323.9c0-1.1-0.4-2.8-2.3-2.8
		c-1.7,0-2.5,1.6-2.6,2.8H137.8z"/>
	<path class="st1" d="M141.3,327.7c0.5,0.3,1.4,0.7,2.2,0.7c1.2,0,1.8-0.6,1.8-1.4c0-0.8-0.5-1.3-1.7-1.7c-1.7-0.6-2.5-1.5-2.5-2.6
		c0-1.5,1.2-2.7,3.2-2.7c0.9,0,1.8,0.3,2.3,0.6l-0.4,1.2c-0.4-0.2-1-0.5-1.9-0.5c-1,0-1.6,0.6-1.6,1.3c0,0.8,0.6,1.1,1.8,1.6
		c1.6,0.6,2.4,1.4,2.4,2.8c0,1.6-1.3,2.8-3.5,2.8c-1,0-2-0.2-2.6-0.6L141.3,327.7z"/>
	<path class="st1" d="M157.6,324.7c0,3.4-2.4,4.9-4.6,4.9c-2.5,0-4.5-1.8-4.5-4.8c0-3.1,2-4.9,4.6-4.9
		C155.8,319.9,157.6,321.8,157.6,324.7z M150.2,324.8c0,2,1.2,3.6,2.8,3.6c1.6,0,2.8-1.5,2.8-3.6c0-1.6-0.8-3.6-2.8-3.6
		S150.2,323,150.2,324.8z"/>
	<path class="st1" d="M170.2,328L170.2,328c-0.5,0.9-1.6,1.7-3.1,1.7c-2.2,0-3.9-1.9-3.9-4.7c0-3.5,2.3-5,4.2-5
		c1.4,0,2.4,0.7,2.9,1.6h0l0.1-1.4h1.6c0,0.8-0.1,1.6-0.1,2.6v10.6h-1.7V328z M170.2,323.9c0-0.2,0-0.5-0.1-0.7
		c-0.2-1-1.2-1.9-2.4-1.9c-1.8,0-2.8,1.5-2.8,3.6c0,1.8,0.9,3.5,2.8,3.5c1.1,0,2-0.7,2.4-1.8c0.1-0.2,0.1-0.6,0.1-0.8V323.9z"/>
	<path class="st1" d="M182.4,326.9c0,1,0,1.8,0.1,2.5H181l-0.1-1.5h0c-0.4,0.8-1.4,1.7-3.1,1.7c-1.5,0-3.2-0.8-3.2-4.1v-5.4h1.7v5.2
		c0,1.8,0.5,3,2.1,3c1.1,0,1.9-0.8,2.2-1.5c0.1-0.2,0.2-0.6,0.2-0.9v-5.7h1.7V326.9z"/>
	<path class="st1" d="M186.2,325.1c0,2.3,1.5,3.2,3.2,3.2c1.2,0,1.9-0.2,2.6-0.5l0.3,1.2c-0.6,0.3-1.6,0.6-3.1,0.6
		c-2.9,0-4.6-1.9-4.6-4.7c0-2.8,1.7-5,4.4-5c3,0,3.8,2.7,3.8,4.4c0,0.3,0,0.6-0.1,0.8H186.2z M191.1,323.9c0-1.1-0.4-2.8-2.3-2.8
		c-1.7,0-2.5,1.6-2.6,2.8H191.1z"/>
	<path class="st1" d="M205.6,329.1c-0.4,0.2-1.4,0.5-2.7,0.5c-2.8,0-4.6-1.9-4.6-4.8c0-2.9,2-4.9,5-4.9c1,0,1.9,0.2,2.3,0.5
		l-0.4,1.3c-0.4-0.2-1-0.4-2-0.4c-2.1,0-3.3,1.6-3.3,3.5c0,2.2,1.4,3.5,3.2,3.5c1,0,1.6-0.2,2.1-0.5L205.6,329.1z"/>
	<path class="st1" d="M212.7,329.4l-0.1-1.2h-0.1c-0.5,0.7-1.5,1.4-2.8,1.4c-1.9,0-2.8-1.3-2.8-2.7c0-2.3,2-3.5,5.6-3.5v-0.2
		c0-0.8-0.2-2.2-2.1-2.2c-0.9,0-1.8,0.3-2.4,0.7l-0.4-1.1c0.8-0.5,1.9-0.8,3.1-0.8c2.8,0,3.5,1.9,3.5,3.8v3.5c0,0.8,0,1.6,0.2,2.2
		H212.7z M212.5,324.7c-1.8,0-3.9,0.3-3.9,2.1c0,1.1,0.7,1.6,1.6,1.6c1.2,0,2-0.8,2.3-1.6c0.1-0.2,0.1-0.4,0.1-0.5V324.7z"/>
	<path class="st1" d="M216.8,323c0-1.1,0-2-0.1-2.9h1.5l0.1,1.8h0.1c0.4-1.2,1.4-2,2.6-2c0.2,0,0.3,0,0.5,0.1v1.6
		c-0.2,0-0.3-0.1-0.6-0.1c-1.2,0-2,0.9-2.3,2.2c0,0.2-0.1,0.5-0.1,0.8v5h-1.7V323z"/>
	<path class="st1" d="M228.2,329.4l-0.1-1.2H228c-0.5,0.7-1.5,1.4-2.8,1.4c-1.9,0-2.8-1.3-2.8-2.7c0-2.3,2-3.5,5.6-3.5v-0.2
		c0-0.8-0.2-2.2-2.1-2.2c-0.9,0-1.8,0.3-2.4,0.7l-0.4-1.1c0.8-0.5,1.9-0.8,3.1-0.8c2.8,0,3.5,1.9,3.5,3.8v3.5c0,0.8,0,1.6,0.2,2.2
		H228.2z M227.9,324.7c-1.8,0-3.9,0.3-3.9,2.1c0,1.1,0.7,1.6,1.6,1.6c1.2,0,2-0.8,2.3-1.6c0.1-0.2,0.1-0.4,0.1-0.5V324.7z"/>
	<path class="st1" d="M238.9,329.1c-0.4,0.2-1.4,0.5-2.7,0.5c-2.8,0-4.6-1.9-4.6-4.8c0-2.9,2-4.9,5-4.9c1,0,1.9,0.2,2.3,0.5
		l-0.4,1.3c-0.4-0.2-1-0.4-2-0.4c-2.1,0-3.3,1.6-3.3,3.5c0,2.2,1.4,3.5,3.2,3.5c1,0,1.6-0.2,2.1-0.5L238.9,329.1z"/>
	<path class="st1" d="M243.2,317.4v2.7h2.4v1.3h-2.4v5c0,1.2,0.3,1.8,1.3,1.8c0.4,0,0.8-0.1,1-0.1l0.1,1.3c-0.3,0.1-0.8,0.2-1.5,0.2
		c-0.8,0-1.4-0.2-1.8-0.7c-0.5-0.5-0.7-1.3-0.7-2.4v-5.1h-1.4v-1.3h1.4v-2.2L243.2,317.4z"/>
	<path class="st1" d="M248.4,325.1c0,2.3,1.5,3.2,3.2,3.2c1.2,0,1.9-0.2,2.6-0.5l0.3,1.2c-0.6,0.3-1.6,0.6-3.1,0.6
		c-2.9,0-4.6-1.9-4.6-4.7c0-2.8,1.7-5,4.4-5c3,0,3.8,2.7,3.8,4.4c0,0.3,0,0.6-0.1,0.8H248.4z M253.3,323.9c0-1.1-0.4-2.8-2.3-2.8
		c-1.7,0-2.5,1.6-2.6,2.8H253.3z"/>
	<path class="st1" d="M257.1,323c0-1.1,0-2-0.1-2.9h1.5l0.1,1.8h0.1c0.4-1.2,1.4-2,2.6-2c0.2,0,0.3,0,0.5,0.1v1.6
		c-0.2,0-0.3-0.1-0.6-0.1c-1.2,0-2,0.9-2.3,2.2c0,0.2-0.1,0.5-0.1,0.8v5h-1.7V323z"/>
	<path class="st1" d="M265.3,317.5c0,0.6-0.4,1-1.1,1c-0.6,0-1-0.5-1-1c0-0.6,0.4-1.1,1.1-1.1C264.9,316.4,265.3,316.9,265.3,317.5z
		 M263.4,329.4v-9.3h1.7v9.3H263.4z"/>
	<path class="st1" d="M266.9,328.4l4.2-5.5c0.4-0.5,0.8-0.9,1.2-1.4v0h-5v-1.4h7.1l0,1.1l-4.2,5.4c-0.4,0.5-0.8,1-1.2,1.5v0h5.4v1.3
		h-7.6V328.4z"/>
	<path class="st1" d="M281.3,329.4l-0.1-1.2h-0.1c-0.5,0.7-1.5,1.4-2.8,1.4c-1.9,0-2.8-1.3-2.8-2.7c0-2.3,2-3.5,5.6-3.5v-0.2
		c0-0.8-0.2-2.2-2.1-2.2c-0.9,0-1.8,0.3-2.4,0.7l-0.4-1.1c0.8-0.5,1.9-0.8,3.1-0.8c2.8,0,3.5,1.9,3.5,3.8v3.5c0,0.8,0,1.6,0.2,2.2
		H281.3z M281.1,324.7c-1.8,0-3.9,0.3-3.9,2.1c0,1.1,0.7,1.6,1.6,1.6c1.2,0,2-0.8,2.3-1.6c0.1-0.2,0.1-0.4,0.1-0.5V324.7z"/>
	<path class="st1" d="M294.7,329.4l-0.1-1.2h-0.1c-0.5,0.7-1.5,1.4-2.8,1.4c-1.9,0-2.8-1.3-2.8-2.7c0-2.3,2-3.5,5.6-3.5v-0.2
		c0-0.8-0.2-2.2-2.1-2.2c-0.9,0-1.8,0.3-2.4,0.7l-0.4-1.1c0.8-0.5,1.9-0.8,3.1-0.8c2.8,0,3.5,1.9,3.5,3.8v3.5c0,0.8,0,1.6,0.2,2.2
		H294.7z M294.4,324.7c-1.8,0-3.9,0.3-3.9,2.1c0,1.1,0.7,1.6,1.6,1.6c1.2,0,2-0.8,2.3-1.6c0.1-0.2,0.1-0.4,0.1-0.5V324.7z"/>
	<path class="st1" d="M302.9,315.7h1.7v13.7h-1.7V315.7z"/>
	<path class="st1" d="M315.8,324.7c0,3.4-2.4,4.9-4.6,4.9c-2.5,0-4.5-1.8-4.5-4.8c0-3.1,2-4.9,4.6-4.9
		C314,319.9,315.8,321.8,315.8,324.7z M308.5,324.8c0,2,1.2,3.6,2.8,3.6c1.6,0,2.8-1.5,2.8-3.6c0-1.6-0.8-3.6-2.8-3.6
		S308.5,323,308.5,324.8z"/>
	<path class="st1" d="M317.8,327.7c0.5,0.3,1.4,0.7,2.2,0.7c1.2,0,1.8-0.6,1.8-1.4c0-0.8-0.5-1.3-1.7-1.7c-1.7-0.6-2.5-1.5-2.5-2.6
		c0-1.5,1.2-2.7,3.2-2.7c0.9,0,1.8,0.3,2.3,0.6l-0.4,1.2c-0.4-0.2-1-0.5-1.9-0.5c-1,0-1.6,0.6-1.6,1.3c0,0.8,0.6,1.1,1.8,1.6
		c1.6,0.6,2.4,1.4,2.4,2.8c0,1.6-1.3,2.8-3.5,2.8c-1,0-2-0.2-2.6-0.6L317.8,327.7z"/>
	<path class="st1" d="M96.6,346.2c0-1.2,0-2.3-0.1-3.2H99l0.1,1.3h0c0.7-1,1.8-1.5,3.1-1.5c2.1,0,3.9,1.8,3.9,4.8c0,3.4-2.2,5-4.3,5
		c-1.1,0-2-0.5-2.4-1.1h0v4.7h-2.9V346.2z M99.5,348.5c0,0.2,0,0.4,0.1,0.6c0.2,0.8,0.9,1.4,1.7,1.4c1.3,0,2-1.1,2-2.7
		c0-1.5-0.7-2.6-2-2.6c-0.8,0-1.6,0.6-1.8,1.5c0,0.2-0.1,0.3-0.1,0.5V348.5z"/>
	<path class="st1" d="M108.1,346.2c0-1.4,0-2.3-0.1-3.1h2.5l0.1,1.8h0.1c0.5-1.4,1.6-2,2.5-2c0.3,0,0.4,0,0.6,0.1v2.8
		c-0.2,0-0.5-0.1-0.8-0.1c-1.1,0-1.8,0.6-2,1.5c0,0.2-0.1,0.4-0.1,0.7v4.8h-2.9V346.2z"/>
	<path class="st1" d="M119.6,352.7c-2.8,0-4.9-1.8-4.9-4.8c0-3,2-5,5-5c2.9,0,4.8,2,4.8,4.8C124.5,351.1,122.1,352.7,119.6,352.7
		L119.6,352.7z M119.6,350.6c1.2,0,1.9-1.1,1.9-2.8c0-1.4-0.5-2.8-1.9-2.8c-1.4,0-1.9,1.4-1.9,2.8
		C117.7,349.4,118.4,350.6,119.6,350.6L119.6,350.6z"/>
	<path class="st1" d="M128.4,343.1l1.4,4.6c0.2,0.5,0.3,1.2,0.5,1.8h0.1c0.1-0.5,0.3-1.2,0.4-1.8l1.2-4.6h3.1l-2.2,6.2
		c-1.3,3.8-2.3,5.2-3.3,6.2c-1,0.9-2.1,1.2-2.8,1.3l-0.6-2.5c0.4-0.1,0.8-0.2,1.3-0.5c0.4-0.2,0.9-0.7,1.2-1.2
		c0.1-0.2,0.2-0.3,0.2-0.4s0-0.2-0.1-0.5l-3.5-8.6H128.4z"/>
	<path class="st1" d="M138.2,348.7c0.1,1.2,1.3,1.8,2.7,1.8c1,0,1.8-0.1,2.6-0.4l0.4,2c-1,0.4-2.1,0.6-3.4,0.6c-3.2,0-5-1.8-5-4.8
		c0-2.4,1.5-5,4.8-5c3,0,4.2,2.4,4.2,4.7c0,0.5-0.1,0.9-0.1,1.2H138.2z M141.6,346.7c0-0.7-0.3-1.9-1.6-1.9c-1.3,0-1.8,1.1-1.8,1.9
		H141.6z"/>
	<path class="st1" d="M153.2,352.2c-0.5,0.2-1.5,0.4-2.6,0.4c-3,0-5-1.9-5-4.8c0-2.7,1.9-5,5.4-5c0.8,0,1.6,0.1,2.2,0.4l-0.5,2.2
		c-0.3-0.2-0.9-0.3-1.6-0.3c-1.5,0-2.5,1.1-2.5,2.6c0,1.7,1.2,2.6,2.6,2.6c0.7,0,1.2-0.1,1.7-0.3L153.2,352.2z"/>
	<path class="st1" d="M158.4,340.5v2.6h2.1v2.2h-2.1v3.4c0,1.1,0.3,1.7,1.2,1.7c0.4,0,0.6,0,0.9-0.1l0,2.2c-0.4,0.1-1.1,0.2-1.9,0.2
		c-0.9,0-1.7-0.3-2.2-0.8c-0.5-0.6-0.8-1.5-0.8-2.8v-3.8h-1.3v-2.2h1.3v-1.8L158.4,340.5z"/>
	<path class="st1" d="M166.4,352.7c-2.8,0-4.9-1.8-4.9-4.8c0-3,2-5,5-5c2.9,0,4.8,2,4.8,4.8C171.3,351.1,168.9,352.7,166.4,352.7
		L166.4,352.7z M166.5,350.6c1.2,0,1.9-1.1,1.9-2.8c0-1.4-0.5-2.8-1.9-2.8c-1.4,0-1.9,1.4-1.9,2.8
		C164.5,349.4,165.2,350.6,166.5,350.6L166.5,350.6z"/>
	<path class="st1" d="M173.1,349.9c0.5,0.3,1.7,0.7,2.5,0.7c0.9,0,1.3-0.3,1.3-0.8c0-0.5-0.3-0.7-1.4-1.1c-2-0.7-2.7-1.7-2.7-2.8
		c0-1.8,1.5-3.1,3.8-3.1c1.1,0,2.1,0.3,2.6,0.6l-0.5,2c-0.4-0.2-1.3-0.5-2-0.5c-0.7,0-1.1,0.3-1.1,0.8c0,0.4,0.4,0.7,1.5,1.1
		c1.8,0.6,2.5,1.5,2.5,2.9c0,1.8-1.4,3.1-4.1,3.1c-1.2,0-2.3-0.3-3-0.7L173.1,349.9z"/>
	<path class="st1" d="M186.4,343.2l2,5.5c0.2,0.6,0.4,1.3,0.6,1.9h0c0.2-0.6,0.4-1.3,0.6-1.9l1.8-5.5h1.8l-2.5,6.6
		c-1.2,3.2-2,4.8-3.2,5.8c-0.8,0.7-1.7,1-2.1,1.1l-0.4-1.4c0.4-0.1,1-0.4,1.5-0.8c0.5-0.4,1-1,1.4-1.9c0.1-0.2,0.1-0.3,0.1-0.4
		c0-0.1,0-0.2-0.1-0.4l-3.4-8.6H186.4z"/>
	<path class="st1" d="M199.9,348.1c0,2.3,1.5,3.2,3.2,3.2c1.2,0,1.9-0.2,2.6-0.5l0.3,1.2c-0.6,0.3-1.6,0.6-3.1,0.6
		c-2.9,0-4.6-1.9-4.6-4.7c0-2.8,1.7-5,4.4-5c3,0,3.8,2.7,3.8,4.4c0,0.3,0,0.6-0.1,0.8H199.9z M204.9,346.9c0-1.1-0.4-2.8-2.3-2.8
		c-1.7,0-2.5,1.6-2.6,2.8H204.9z"/>
	<path class="st1" d="M208.4,350.8c0.5,0.3,1.4,0.7,2.2,0.7c1.2,0,1.8-0.6,1.8-1.4c0-0.8-0.5-1.3-1.7-1.7c-1.7-0.6-2.5-1.5-2.5-2.6
		c0-1.5,1.2-2.7,3.2-2.7c0.9,0,1.8,0.3,2.3,0.6l-0.4,1.2c-0.4-0.2-1-0.5-1.9-0.5c-1,0-1.6,0.6-1.6,1.3c0,0.8,0.6,1.1,1.8,1.6
		c1.6,0.6,2.4,1.4,2.4,2.8c0,1.6-1.3,2.8-3.5,2.8c-1,0-2-0.2-2.6-0.6L208.4,350.8z"/>
	<path class="st1" d="M225.4,352.5l-0.1-1.2h-0.1c-0.5,0.7-1.5,1.4-2.8,1.4c-1.9,0-2.8-1.3-2.8-2.7c0-2.3,2-3.5,5.6-3.5v-0.2
		c0-0.8-0.2-2.2-2.1-2.2c-0.9,0-1.8,0.3-2.4,0.7l-0.4-1.1c0.8-0.5,1.9-0.8,3.1-0.8c2.8,0,3.5,1.9,3.5,3.8v3.5c0,0.8,0,1.6,0.2,2.2
		H225.4z M225.2,347.7c-1.8,0-3.9,0.3-3.9,2.1c0,1.1,0.7,1.6,1.6,1.6c1.2,0,2-0.8,2.3-1.6c0.1-0.2,0.1-0.4,0.1-0.5V347.7z"/>
	<path class="st1" d="M233.6,345.7c0-1,0-1.8-0.1-2.5h1.5l0.1,1.5h0.1c0.5-0.9,1.4-1.7,2.9-1.7c1.3,0,2.2,0.8,2.6,1.9h0
		c0.3-0.5,0.7-0.9,1-1.2c0.6-0.4,1.2-0.7,2.1-0.7c1.2,0,3.1,0.8,3.1,4v5.5h-1.7v-5.3c0-1.8-0.7-2.9-2-2.9c-1,0-1.7,0.7-2,1.5
		c-0.1,0.2-0.1,0.5-0.1,0.8v5.8h-1.7v-5.6c0-1.5-0.7-2.6-1.9-2.6c-1.1,0-1.8,0.8-2.1,1.7c-0.1,0.3-0.1,0.5-0.1,0.8v5.6h-1.7V345.7z"
		/>
	<path class="st1" d="M250.6,348.1c0,2.3,1.5,3.2,3.2,3.2c1.2,0,1.9-0.2,2.6-0.5l0.3,1.2c-0.6,0.3-1.6,0.6-3.1,0.6
		c-2.9,0-4.6-1.9-4.6-4.7c0-2.8,1.7-5,4.4-5c3,0,3.8,2.7,3.8,4.4c0,0.3,0,0.6-0.1,0.8H250.6z M255.6,346.9c0-1.1-0.4-2.8-2.3-2.8
		c-1.7,0-2.5,1.6-2.6,2.8H255.6z"/>
	<path class="st1" d="M259.3,345.7c0-1,0-1.8-0.1-2.5h1.5l0.1,1.5h0c0.5-0.9,1.5-1.8,3.1-1.8c1.3,0,3.3,0.8,3.3,4v5.6h-1.7v-5.4
		c0-1.5-0.6-2.8-2.2-2.8c-1.1,0-2,0.8-2.3,1.7c-0.1,0.2-0.1,0.5-0.1,0.8v5.6h-1.7V345.7z"/>
	<path class="st1" d="M277.8,350c0,1,0,1.8,0.1,2.5h-1.5l-0.1-1.5h0c-0.4,0.8-1.4,1.7-3.1,1.7c-1.5,0-3.2-0.8-3.2-4.1v-5.4h1.7v5.2
		c0,1.8,0.5,3,2.1,3c1.1,0,1.9-0.8,2.2-1.5c0.1-0.2,0.2-0.6,0.2-0.9v-5.7h1.7V350z"/>
	<path class="st1" d="M288.6,338.8v11.3c0,0.8,0,1.8,0.1,2.4h-1.5l-0.1-1.6h0c-0.5,1-1.7,1.8-3.2,1.8c-2.3,0-4-1.9-4-4.7
		c0-3.1,1.9-5,4.2-5c1.4,0,2.4,0.7,2.8,1.4h0v-5.6H288.6z M287,347c0-0.2,0-0.5-0.1-0.7c-0.2-1.1-1.2-2-2.4-2
		c-1.8,0-2.8,1.5-2.8,3.6c0,1.9,0.9,3.4,2.8,3.4c1.1,0,2.2-0.8,2.5-2c0.1-0.2,0.1-0.5,0.1-0.7V347z"/>
	<path class="st1" d="M299.9,347.8c0,3.4-2.4,4.9-4.6,4.9c-2.5,0-4.5-1.8-4.5-4.8c0-3.1,2-4.9,4.6-4.9
		C298.1,343,299.9,344.9,299.9,347.8z M292.5,347.9c0,2,1.2,3.6,2.8,3.6c1.6,0,2.8-1.5,2.8-3.6c0-1.6-0.8-3.6-2.8-3.6
		S292.5,346.1,292.5,347.9z"/>
	<path class="st1" d="M306.1,346.1c0-1.1,0-2-0.1-2.9h1.5l0.1,1.8h0.1c0.4-1.2,1.4-2,2.6-2c0.2,0,0.3,0,0.5,0.1v1.6
		c-0.2,0-0.3-0.1-0.6-0.1c-1.2,0-2,0.9-2.3,2.2c0,0.2-0.1,0.5-0.1,0.8v5h-1.7V346.1z"/>
	<path class="st1" d="M313.1,348.1c0,2.3,1.5,3.2,3.2,3.2c1.2,0,1.9-0.2,2.6-0.5l0.3,1.2c-0.6,0.3-1.6,0.6-3.1,0.6
		c-2.9,0-4.6-1.9-4.6-4.7c0-2.8,1.7-5,4.4-5c3,0,3.8,2.7,3.8,4.4c0,0.3,0,0.6-0.1,0.8H313.1z M318.1,346.9c0-1.1-0.4-2.8-2.3-2.8
		c-1.7,0-2.5,1.6-2.6,2.8H318.1z"/>
	<path class="st1" d="M327,352.5l-0.1-1.2h-0.1c-0.5,0.7-1.5,1.4-2.8,1.4c-1.9,0-2.8-1.3-2.8-2.7c0-2.3,2-3.5,5.6-3.5v-0.2
		c0-0.8-0.2-2.2-2.1-2.2c-0.9,0-1.8,0.3-2.4,0.7l-0.4-1.1c0.8-0.5,1.9-0.8,3.1-0.8c2.8,0,3.5,1.9,3.5,3.8v3.5c0,0.8,0,1.6,0.2,2.2
		H327z M326.7,347.7c-1.8,0-3.9,0.3-3.9,2.1c0,1.1,0.7,1.6,1.6,1.6c1.2,0,2-0.8,2.3-1.6c0.1-0.2,0.1-0.4,0.1-0.5V347.7z"/>
	<path class="st1" d="M337.7,352.2c-0.4,0.2-1.4,0.5-2.7,0.5c-2.8,0-4.6-1.9-4.6-4.8c0-2.9,2-4.9,5-4.9c1,0,1.9,0.2,2.3,0.5
		l-0.4,1.3c-0.4-0.2-1-0.4-2-0.4c-2.1,0-3.3,1.6-3.3,3.5c0,2.2,1.4,3.5,3.2,3.5c1,0,1.6-0.2,2.1-0.5L337.7,352.2z"/>
	<path class="st1" d="M342,340.5v2.7h2.4v1.3H342v5c0,1.2,0.3,1.8,1.3,1.8c0.4,0,0.8-0.1,1-0.1l0.1,1.3c-0.3,0.1-0.8,0.2-1.5,0.2
		c-0.8,0-1.4-0.2-1.8-0.7c-0.5-0.5-0.7-1.3-0.7-2.4v-5.1h-1.4v-1.3h1.4V341L342,340.5z"/>
	<path class="st1" d="M348.2,340.6c0,0.6-0.4,1-1.1,1c-0.6,0-1-0.5-1-1c0-0.6,0.4-1.1,1.1-1.1C347.8,339.5,348.2,340,348.2,340.6z
		 M346.3,352.5v-9.3h1.7v9.3H346.3z"/>
	<path class="st1" d="M351.5,343.2l1.8,5.2c0.3,0.8,0.6,1.6,0.8,2.4h0.1c0.2-0.8,0.5-1.5,0.8-2.4l1.8-5.2h1.8l-3.7,9.3h-1.6
		l-3.5-9.3H351.5z"/>
	<path class="st1" d="M365.2,352.5l-0.1-1.2H365c-0.5,0.7-1.5,1.4-2.8,1.4c-1.9,0-2.8-1.3-2.8-2.7c0-2.3,2-3.5,5.6-3.5v-0.2
		c0-0.8-0.2-2.2-2.1-2.2c-0.9,0-1.8,0.3-2.4,0.7l-0.4-1.1c0.8-0.5,1.9-0.8,3.1-0.8c2.8,0,3.5,1.9,3.5,3.8v3.5c0,0.8,0,1.6,0.2,2.2
		H365.2z M364.9,347.7c-1.8,0-3.9,0.3-3.9,2.1c0,1.1,0.7,1.6,1.6,1.6c1.2,0,2-0.8,2.3-1.6c0.1-0.2,0.1-0.4,0.1-0.5V347.7z"/>
</g>
</svg>
