<svg xmlns="http://www.w3.org/2000/svg" width="150" height="150" viewBox="0 0 150 150">
  <g id="Grupo_94366" data-name="Grupo 94366" transform="translate(-709 -9020)">
    <rect id="Rectángulo_39824" data-name="Rectángulo 39824" width="150" height="150" transform="translate(709 9020)" fill="none"/>
    <path id="Trazado_191342" data-name="Trazado 191342" d="M82.45,13.49h2.64c.26.1.52.2.78.28a7.5,7.5,0,0,1,5.38,6,7.78,7.78,0,0,1-.89,5.11c-.32.65,0,1,.4,1.31s.68,1.21,1.64.77a13.49,13.49,0,0,1,2.84-.93,1.79,1.79,0,0,1,.83,3.47c-1.3.5-2.63.95-3.93,1.45a2,2,0,0,1-2.47-.6c-.87-.94-1.77-1.85-2.71-2.71a2,2,0,0,1-.6-2.47c.34-.81.69-1.62,1-2.44a3.942,3.942,0,1,0-7.29-3c-.35.81-.67,1.63-1,2.44a2,2,0,0,1-2.19,1.3,35.317,35.317,0,0,0-3.71,0,2,2,0,0,1-2.26-1.36c-.35-.89-.71-1.79-1.12-2.65a3.9,3.9,0,0,0-5.1-2.09,3.94,3.94,0,0,0-2.16,5.09c.35.93.76,1.84,1.14,2.77a2,2,0,0,1-.59,2.37c-1,.9-1.89,1.84-2.8,2.8a2,2,0,0,1-2.38.6c-.88-.37-1.76-.76-2.65-1.1a3.93,3.93,0,1,0-3,7.24c.87.41,1.76.76,2.65,1.12a2,2,0,0,1,1.33,2.28,28.671,28.671,0,0,0,0,3.59,2.08,2.08,0,0,1-1.43,2.34c-.93.36-1.87.73-2.76,1.17a3.91,3.91,0,0,0,3,7.21c1-.34,1.93-.77,2.89-1.17a2,2,0,0,1,2.38.55c.9,1,1.83,1.9,2.8,2.8a2,2,0,0,1,.59,2.37c-.36.89-.76,1.76-1.1,2.66a3.932,3.932,0,1,0,7.27,3c.39-.83.73-1.69,1.07-2.54a2,2,0,0,1,2.25-1.37c1.24.06,2.48.06,3.71,0a2,2,0,0,1,2.2,1.29c.38.92.74,1.86,1.16,2.76a3.928,3.928,0,1,0,7.26-3c-.33-.94-.74-1.85-1.13-2.77A2,2,0,0,1,87,57c.94-.87,1.84-1.77,2.71-2.72a2,2,0,0,1,2.47-.6c1,.41,1.9.84,2.89,1.17a3.92,3.92,0,0,0,3.07-7.19c-.46-.24-1-.4-1.43-.62-2.1-1-3.24-.56-2.73-4.14a4,4,0,0,0,0-.6c0-3.52,0-3.52,3.23-4.88,2.65-1.11,3.39-2.7,2.76-5.53a2.29,2.29,0,0,1,.46-1.81,2,2,0,0,1,1.71-.41,2.4,2.4,0,0,1,1.2,1.33,7.47,7.47,0,0,1-4.21,9.52c-1.76.8-1.76.8-1.45,3H115.4a15,15,0,0,1,3.79.43c5.06,1.36,8.22,5.75,8.22,11.33v59.56l1,.3A10.87,10.87,0,0,1,136,128.85c-1.43,4.66-5.64,7.64-10.86,7.65H24.2a10.82,10.82,0,0,1-10.18-7.41c-.22-.64-.38-1.29-.57-1.94V124c.09-.25.19-.5.26-.76a10.86,10.86,0,0,1,7.86-8.13l1-.29V55.72a16.15,16.15,0,0,1,.16-2.87,11.12,11.12,0,0,1,11-9.35c5.76-.07,11.53,0,17.29,0h1.26c.29-2.21.29-2.2-1.57-3a7.25,7.25,0,0,1-4.56-6.52c-.32-5.63,5.19-9.41,10.55-7.33.7.28,1.32.91,2.21,0a1.81,1.81,0,0,0,.41-2.36c-1.94-4.69.26-9.15,5.12-10.53a2.35,2.35,0,0,0,.42-.21h2.65a30.447,30.447,0,0,1,2.89,1.36,7.4,7.4,0,0,1,3,4.17,1,1,0,0,0,1.27.75c.6-.09,1.38.33,1.69-.65a8.24,8.24,0,0,1,6.09-5.69ZM26.2,114.74H36.6c1.55,0,2.48,1.51,1.62,2.61a2.92,2.92,0,0,1-2,.92c-3.68.09-7.36,0-11,.06a10.41,10.41,0,0,0-2.62.26,7.25,7.25,0,0,0,2.12,14.27H125.37a7.261,7.261,0,0,0,.17-14.52c-9.76-.07-19.53,0-29.3,0a.94.94,0,0,0-1.09.78,9.78,9.78,0,0,1-9.87,7.24H64.86a9.79,9.79,0,0,1-9.88-7.22,1,1,0,0,0-1.07-.81H43.82a1.62,1.62,0,0,1-1.65-1.71,1.66,1.66,0,0,1,1.57-1.8,11.569,11.569,0,0,1,1.56-.05h78.57V54.98A7.57,7.57,0,0,0,116,47.09H103.63a3.909,3.909,0,0,0-.53,0l1,5.48h7.15c4.34,0,7.06,2.72,7.06,7v42.88a8,8,0,0,1-.18,1.9c-.75,3.07-3.17,4.78-6.73,4.78H37.41a6.06,6.06,0,0,1-5.63-6q-.06-22.1,0-44.2a6.31,6.31,0,0,1,4.37-6,10.38,10.38,0,0,1,3-.37c2.35-.06,4.71,0,6.86,0l1-5.48a.25.25,0,0,0-.13,0c-4.08,0-8.17.12-12.25-.05-5-.21-8.49,3.63-8.45,8.47.12,19.25.05,38.51.05,57.77ZM75,105.61h36.51c2.13,0,3.16-.94,3.16-2.9V59.48a2.94,2.94,0,0,0-3.17-3.26h-8.89a1.74,1.74,0,0,0-1.08.34,7.59,7.59,0,0,1-8.91,1.19c-.64-.3-1-.13-1.55.3-1,.76-.8,1.47-.4,2.46,2.14,5.26-1.42,10.74-6.94,10.61a7.313,7.313,0,0,1-7.17-5.39c-.31-.86-.83-.89-1.55-.88a1.43,1.43,0,0,0-1.59.86A12.1,12.1,0,0,1,71,69.35a7.3,7.3,0,0,1-9.3.3c-2.89-2.14-3.77-5.74-2.29-9.36.29-.71.58-1.26-.2-2a1.66,1.66,0,0,0-2.14-.41,7.5,7.5,0,0,1-8.5-1.24,2.19,2.19,0,0,0-1.28-.43h-8c-3,0-3.91,1-3.91,3.86V102c0,2.84.78,3.62,3.64,3.62ZM58.55,118.4a6,6,0,0,0,6,4.35H85.42c3,0,5.57-1.88,6-4.35Z" transform="translate(708.976 9020)" fill="#fff"/>
    <path id="Trazado_191343" data-name="Trazado 191343" d="M91.38,118.4c-.39,2.47-2.93,4.33-6,4.35H64.51a6,6,0,0,1-6-4.35" transform="translate(708.976 9020)" fill="#fff"/>
    <path id="Trazado_191344" data-name="Trazado 191344" d="M86.45,42.48A11.45,11.45,0,1,1,75.14,30.87,11.45,11.45,0,0,1,86.45,42.48Zm-19.07.93H82.63c.74-2.31-.69-5.86-3.17-7.54a8,8,0,0,0-8.92,0C67.83,37.71,66.66,41.42,67.38,43.41ZM69,47.14c3.15,4.4,10,3.52,12,0Z" transform="translate(708.976 9020)" fill="#fff"/>
    <path id="Trazado_191345" data-name="Trazado 191345" d="M57.31,79.59c.86-.94,1.52-1.75,2.26-2.46a6.06,6.06,0,1,1,8.62,8.52c-.7.75-1.53,1.39-2.52,2.27.94.86,1.7,1.49,2.39,2.2a6.07,6.07,0,1,1-8.61,8.55c-.68-.67-1.32-1.4-2.2-2.34-.78.88-1.41,1.7-2.15,2.42a6.07,6.07,0,1,1-8.52-8.63c.67-.69,1.39-1.31,2.2-2.06-.88-.9-1.66-1.68-2.41-2.48A5.86,5.86,0,0,1,45,79.36,6,6,0,0,1,55,77C55.74,77.78,56.43,78.62,57.31,79.59ZM47.93,94.73a10.56,10.56,0,0,0,1.78,2,2.06,2.06,0,0,0,2.64-.38c1.2-1.13,2.32-2.32,3.51-3.46a1.85,1.85,0,0,1,2.93,0c1.09,1.11,2.14,2.2,3.21,3.26a2.45,2.45,0,0,0,3.63.15,2.48,2.48,0,0,0-.15-3.63c-1-1-2-2-3.05-3.07-1.22-1.25-1.23-2,0-3.26,1-1,2-2,3-3.07a2.49,2.49,0,0,0,.21-3.63c-1-1.07-2.48-1-3.72.17-1.06,1-2.08,2.1-3.15,3.13a1.85,1.85,0,0,1-3,0c-1.07-1-2.09-2.1-3.15-3.13-1.24-1.19-2.68-1.24-3.72-.17a2.54,2.54,0,0,0,.22,3.64c.94,1,1.92,1.93,2.88,2.89,1.38,1.39,1.39,2.17,0,3.53-1,1-2,1.88-2.87,2.9a14.86,14.86,0,0,0-1.2,2.13Z" transform="translate(708.976 9020)" fill="#e6777c"/>
    <path id="Trazado_191346" data-name="Trazado 191346" d="M93.6,84.11c1.61-2.86,3.11-5.55,4.65-8.21a5.87,5.87,0,0,1,6.18-3,5.67,5.67,0,0,1,4.79,5.13,6.74,6.74,0,0,1-.72,3.56q-4.36,8.06-9,16a5.83,5.83,0,0,1-9.86.68c-2.27-2.85-4.49-5.73-6.69-8.63a5.9,5.9,0,1,1,9.36-7.17ZM105.75,79a1.989,1.989,0,0,0-.1-.63,2.29,2.29,0,0,0-4.33-.53c-1.91,3.37-3.8,6.75-5.73,10.12-.92,1.61-2.26,1.7-3.43.25-1-1.22-1.88-2.49-2.89-3.68a2.19,2.19,0,0,0-3.11-.4,2.28,2.28,0,0,0-.48,3.2,5.341,5.341,0,0,0,.35.48c2.06,2.66,4.11,5.32,6.18,8,1.49,1.91,3.24,1.78,4.44-.34q4.26-7.5,8.49-15a13.912,13.912,0,0,0,.61-1.47Z" transform="translate(708.976 9020)" fill="#36d0bf"/>
  </g>
</svg>
