<svg xmlns="http://www.w3.org/2000/svg" xmlns:xlink="http://www.w3.org/1999/xlink" width="400" height="550" viewBox="0 0 400 550">
  <defs>
    <clipPath id="clip-path">
      <rect id="Rectángulo_38941" data-name="Rectángulo 38941" width="400" height="550" transform="translate(180 434)" fill="#fff" stroke="#707070" stroke-width="1"/>
    </clipPath>
  </defs>
  <g id="Enmascarar_grupo_8" data-name="Enmascarar grupo 8" transform="translate(-180 -434)" clip-path="url(#clip-path)">
    <g id="Capa_1" data-name="Capa 1" transform="translate(180 434)">
      <rect id="Rectángulo_38942" data-name="Rectángulo 38942" width="400" height="550" fill="none"/>
      <text id="_5" data-name="5" transform="translate(222.11 69.53)" fill="#1565b2" font-size="18" font-family="SegoeUI-Bold, Segoe UI" font-weight="700"><tspan x="0" y="0">5</tspan></text>
      <text id="_4" data-name="4" transform="translate(175.4 118.83)" fill="#1565b2" font-size="18" font-family="SegoeUI-Bold, Segoe UI" font-weight="700"><tspan x="0" y="0">4</tspan></text>
      <text id="_3" data-name="3" transform="translate(128.69 168.12)" fill="#1565b2" font-size="18" font-family="SegoeUI-Bold, Segoe UI" font-weight="700"><tspan x="0" y="0">3</tspan></text>
      <text id="_1" data-name="1" transform="translate(35.27 266.7)" fill="#1565b2" font-size="18" font-family="SegoeUI-Bold, Segoe UI" font-weight="700"><tspan x="0" y="0">1</tspan></text>
      <text id="_2" data-name="2" transform="translate(81.98 217.41)" fill="#1565b2" font-size="18" font-family="SegoeUI-Bold, Segoe UI" font-weight="700"><tspan x="0" y="0">2</tspan></text>
      <g id="Grupo_92609" data-name="Grupo 92609">
        <g id="Grupo_92604" data-name="Grupo 92604">
          <rect id="Rectángulo_38943" data-name="Rectángulo 38943" width="65.09" height="30.79" transform="translate(140.81 191.37) rotate(-45)" fill="#039be5"/>
          <rect id="Rectángulo_38944" data-name="Rectángulo 38944" width="65.09" height="30.79" transform="translate(94.86 237.324) rotate(-45)" fill="#35afea"/>
          <path id="Trazado_185390" data-name="Trazado 185390" d="M63.79,255.51h51.8V286.3H63.79A13.28,13.28,0,0,1,50.51,273v-4.2a13.28,13.28,0,0,1,13.28-13.28Z" transform="translate(-167.24 138.07) rotate(-45)" fill="#68c3ef"/>
          <rect id="Rectángulo_38945" data-name="Rectángulo 38945" width="65.09" height="30.79" transform="translate(186.68 145.514) rotate(-45)" fill="#02749e"/>
          <path id="Trazado_185391" data-name="Trazado 185391" d="M233.9,72.12h51.8A13.28,13.28,0,0,1,299,85.4v4.22a13.28,13.28,0,0,1-13.28,13.28H233.9Z" transform="translate(16.16 214.04) rotate(-45)" fill="#024e73"/>
          <g id="Grupo_92603" data-name="Grupo 92603">
            <g id="Grupo_92602" data-name="Grupo 92602">
              <circle id="Elipse_7640" data-name="Elipse 7640" cx="22.45" cy="22.45" r="22.45" transform="matrix(0.864, -0.503, 0.503, 0.864, 187.515, 126.976)" fill="#12263f"/>
              <circle id="Elipse_7641" data-name="Elipse 7641" cx="22.45" cy="22.45" r="22.45" transform="matrix(0.01, -1, 1, 0.01, 199.557, 153.229)" fill="#ffa726"/>
            </g>
            <path id="Trazado_185392" data-name="Trazado 185392" d="M236.1,117.17a32.1,32.1,0,0,0-3.87-2.85,18.709,18.709,0,0,0-5.2-2.11,19.36,19.36,0,0,0-22.25,10.63,17.78,17.78,0,0,0-1.59,5.31A19.489,19.489,0,0,0,203,131a20.507,20.507,0,0,0,.24,2.91,19.2,19.2,0,0,0,16.13,16.13,22.129,22.129,0,0,0,2.92.25,22.51,22.51,0,0,0,2.86-.23,18.23,18.23,0,0,0,5.32-1.59,19.363,19.363,0,0,0,10.62-22.26A18.821,18.821,0,0,0,239,121a31.322,31.322,0,0,0-2.85-3.87,1.379,1.379,0,0,1,.23.21l.65.68a9,9,0,0,1,1,1.15,14.769,14.769,0,0,1,1.18,1.71,18.611,18.611,0,0,1,2.23,5.23A19.69,19.69,0,0,1,230.65,149a18.741,18.741,0,0,1-5.46,1.66,18.191,18.191,0,0,1-5.95,0,19.72,19.72,0,0,1-16.6-16.6,23.489,23.489,0,0,1-.25-3,22,22,0,0,1,.25-3,18.51,18.51,0,0,1,1.65-5.46,19.625,19.625,0,0,1,22.78-10.76,18.62,18.62,0,0,1,5.23,2.22,14,14,0,0,1,1.71,1.18,8.389,8.389,0,0,1,1.16,1l.67.64a1.73,1.73,0,0,1,.26.29Z" fill="#12263f"/>
          </g>
        </g>
        <g id="Grupo_92605" data-name="Grupo 92605">
          <path id="Trazado_185393" data-name="Trazado 185393" d="M222.16,137.22a30.55,30.55,0,0,1-5.92.73h-.41v-.35a30.259,30.259,0,0,1,.88-5.83,30.58,30.58,0,0,1-.3,5.89l-.31-.32h.06A31.141,31.141,0,0,1,222.16,137.22Z" fill="#12263f"/>
          <path id="Trazado_185394" data-name="Trazado 185394" d="M226,122.52a30.551,30.551,0,0,1,5.92-.73h.43v.34a30.461,30.461,0,0,1-.88,5.84,30.58,30.58,0,0,1,.3-5.89l.31.31H232a31.141,31.141,0,0,1-6,.13Z" fill="#12263f"/>
          <path id="Trazado_185395" data-name="Trazado 185395" d="M231.46,122.35a98.54,98.54,0,0,1-7.45,7.86,100.373,100.373,0,0,1-7.86,7.45,102.722,102.722,0,0,1,7.45-7.86,105.18,105.18,0,0,1,7.86-7.45Z" fill="#12263f"/>
        </g>
        <g id="Grupo_92606" data-name="Grupo 92606">
          <path id="Trazado_185396" data-name="Trazado 185396" d="M52.5,304.09a29.1,29.1,0,0,0-3.69-2.72,18.109,18.109,0,0,0-5-2A18.47,18.47,0,0,0,22.63,309.5a17.22,17.22,0,0,0-1.51,5.07,19,19,0,0,0-.22,2.73,20.169,20.169,0,0,0,.23,2.78,18.35,18.35,0,0,0,15.38,15.38,21.713,21.713,0,0,0,2.78.23,20.507,20.507,0,0,0,2.73-.22A17.22,17.22,0,0,0,47.09,334a18.494,18.494,0,0,0,10.13-21.19,17.86,17.86,0,0,0-2-5,28.15,28.15,0,0,0-2.72-3.69,1.72,1.72,0,0,1,.23.2l.62.64a9.119,9.119,0,0,1,.93,1.11,11.741,11.741,0,0,1,1.13,1.63,17.42,17.42,0,0,1,2.13,5,18.774,18.774,0,0,1-10.23,21.77A17.73,17.73,0,0,1,42.1,336a21.733,21.733,0,0,1-2.81.23,21.483,21.483,0,0,1-2.87-.23,18.86,18.86,0,0,1-15.85-15.85,19.009,19.009,0,0,1,1.58-10.9,18.79,18.79,0,0,1,21.78-10.22,17.42,17.42,0,0,1,5,2.13,12.681,12.681,0,0,1,1.63,1.12,9.091,9.091,0,0,1,1.11.94l.64.62C52.44,304,52.51,304.08,52.5,304.09Z" fill="#12263f"/>
          <path id="Trazado_185397" data-name="Trazado 185397" d="M45.32,311.27a71.507,71.507,0,0,1-6.18,6.59,71.834,71.834,0,0,1-6.6,6.19,70.357,70.357,0,0,1,6.19-6.6,69.857,69.857,0,0,1,6.59-6.18Z" fill="#12263f"/>
        </g>
        <g id="Grupo_92608" data-name="Grupo 92608">
          <g id="Grupo_92607" data-name="Grupo 92607">
            <path id="Trazado_185398" data-name="Trazado 185398" d="M321.7,31.56a30.891,30.891,0,0,0-3.7-2.71,17.9,17.9,0,0,0-4.95-2A18.567,18.567,0,0,0,291.83,37a17.539,17.539,0,0,0-1.52,5.07,22.178,22.178,0,0,0-.22,2.73,20.2,20.2,0,0,0,.24,2.78A18.35,18.35,0,0,0,305.7,62.94a21.871,21.871,0,0,0,2.79.23,20.651,20.651,0,0,0,2.73-.22,17.08,17.08,0,0,0,5.06-1.52,18.5,18.5,0,0,0,10.14-21.21,17.55,17.55,0,0,0-2-5,30.61,30.61,0,0,0-2.71-3.7l.22.21.62.64a8.28,8.28,0,0,1,.94,1.11,13.231,13.231,0,0,1,1.13,1.62,17.791,17.791,0,0,1,2.12,5,18.81,18.81,0,0,1-10.22,21.78,17.82,17.82,0,0,1-5.21,1.58,21.729,21.729,0,0,1-2.81.23,21.35,21.35,0,0,1-2.87-.23A18.86,18.86,0,0,1,289.78,47.6a21.22,21.22,0,0,1-.24-2.86,21.892,21.892,0,0,1,.23-2.82,17.819,17.819,0,0,1,1.58-5.21,18.814,18.814,0,0,1,21.79-10.22,17.42,17.42,0,0,1,5,2.13,14.273,14.273,0,0,1,1.63,1.12,8.9,8.9,0,0,1,1.1.94l.65.62a1.291,1.291,0,0,1,.18.26Z" fill="#12263f"/>
            <path id="Trazado_185399" data-name="Trazado 185399" d="M314.52,38.75a72.557,72.557,0,0,1-6.19,6.59,72.559,72.559,0,0,1-6.59,6.19c-.12-.12,2.65-3.07,6.18-6.6S314.4,38.63,314.52,38.75Z" fill="#12263f"/>
          </g>
          <path id="Trazado_185400" data-name="Trazado 185400" d="M313.86,50.87a67,67,0,0,1-6.38-6,65.6,65.6,0,0,1-6-6.38,65.6,65.6,0,0,1,6.38,6,67,67,0,0,1,6,6.38Z" fill="#12263f"/>
        </g>
      </g>
      <g id="Grupo_92614" data-name="Grupo 92614">
        <g id="Grupo_92611" data-name="Grupo 92611">
          <path id="Trazado_185401" data-name="Trazado 185401" d="M146.18,456.53c-8.26-8.12-9.35-21.86-8.21-34,.19-2,.15-4.19,1.07-5.89s2.9-2.75,4.37-1.75c1.21.83,1.65,2.63,2.26,4.15a11.49,11.49,0,0,0,3.69,4.93,3.281,3.281,0,0,0,3.46.71c1.53-.83,1.87-3.24,2-5.26q.34-5.66.68-11.31a22.61,22.61,0,0,1,.91-6c.65-1.87,1.93-3.54,3.58-3.93a3.25,3.25,0,0,1,3.77,2.92,21.257,21.257,0,0,1-.12,2.52,2.27,2.27,0,0,0,.91,2.1c.66.3,1.37-.21,1.92-.75a27,27,0,0,0,4.52-6.91,37.8,37.8,0,0,1,4.26-7.17c1.73-2.07,4-3.63,6.47-3.57a5.79,5.79,0,0,1,5.32,5c.43,2.9-1.16,5.66-2.82,7.83a40.29,40.29,0,0,1-8.45,8.22,3.36,3.36,0,0,0-1.43,1.57,3,3,0,0,0,1.61,3.3,16.943,16.943,0,0,0,3.91.9,3.94,3.94,0,0,1,3.09,2.68c.56,2.13-1,4.16-2.54,5.44a30.56,30.56,0,0,1-10,5.71,10,10,0,0,0-3.69,1.73,4.14,4.14,0,0,0-1.29,4.19,3.05,3.05,0,0,0,3.36,1.92,20.516,20.516,0,0,0,3.83-1.34c2.39-.84,5.38-.36,6.71,2.18a7.56,7.56,0,0,1,.2,5.71,15,15,0,0,1-2.9,4.76A32.07,32.07,0,0,1,162,457.51c-5.54,1.73-10.58,1.86-15.78-1" fill="#36dac9"/>
          <g id="Grupo_92610" data-name="Grupo 92610" opacity="0.4">
            <path id="Trazado_185402" data-name="Trazado 185402" d="M146.18,456.53c-8.26-8.12-9.35-21.86-8.21-34,.19-2,.15-4.19,1.07-5.89s2.9-2.75,4.37-1.75c1.21.83,1.65,2.63,2.26,4.15a11.49,11.49,0,0,0,3.69,4.93,3.281,3.281,0,0,0,3.46.71c1.53-.83,1.87-3.24,2-5.26q.34-5.66.68-11.31a22.61,22.61,0,0,1,.91-6c.65-1.87,1.93-3.54,3.58-3.93a3.25,3.25,0,0,1,3.77,2.92,21.257,21.257,0,0,1-.12,2.52,2.27,2.27,0,0,0,.91,2.1c.66.3,1.37-.21,1.92-.75a27,27,0,0,0,4.52-6.91,37.8,37.8,0,0,1,4.26-7.17c1.73-2.07,4-3.63,6.47-3.57a5.79,5.79,0,0,1,5.32,5c.43,2.9-1.16,5.66-2.82,7.83a40.29,40.29,0,0,1-8.45,8.22,3.36,3.36,0,0,0-1.43,1.57,3,3,0,0,0,1.61,3.3,16.943,16.943,0,0,0,3.91.9,3.94,3.94,0,0,1,3.09,2.68c.56,2.13-1,4.16-2.54,5.44a30.56,30.56,0,0,1-10,5.71,10,10,0,0,0-3.69,1.73,4.14,4.14,0,0,0-1.29,4.19,3.05,3.05,0,0,0,3.36,1.92,20.516,20.516,0,0,0,3.83-1.34c2.39-.84,5.38-.36,6.71,2.18a7.56,7.56,0,0,1,.2,5.71,15,15,0,0,1-2.9,4.76A32.07,32.07,0,0,1,162,457.51c-5.54,1.73-10.58,1.86-15.78-1"/>
          </g>
          <path id="Trazado_185403" data-name="Trazado 185403" d="M184.77,389.34a1.211,1.211,0,0,1-.18.18l-.54.49c-.47.42-1.17,1.05-2.05,1.89a70.848,70.848,0,0,0-7,7.73c-1.38,1.76-2.83,3.76-4.35,5.93s-3.13,4.53-4.74,7.08a93.379,93.379,0,0,0-4.75,8.25c-.75,1.48-1.44,3-2.14,4.64l-2.12,4.84c-2.85,6.56-5.4,12.91-7.31,18.89a104.737,104.737,0,0,0-3.91,16.33,77.44,77.44,0,0,0-.91,11.41c0,1.35,0,2.4.05,3.12v.81a1,1,0,0,1,0,.28v-.28a7.32,7.32,0,0,0-.06-.81c-.05-.71-.09-1.77-.1-3.12a74.307,74.307,0,0,1,.81-11.46,103.671,103.671,0,0,1,3.86-16.4,199.365,199.365,0,0,1,7.3-18.94l2.13-4.85c.7-1.59,1.39-3.17,2.15-4.66a92.414,92.414,0,0,1,4.78-8.27c1.62-2.54,3.24-4.88,4.77-7.06s3-4.16,4.39-5.91a64.6,64.6,0,0,1,7.1-7.66c.89-.83,1.6-1.44,2.09-1.84l.55-.46Z" fill="#12263f"/>
          <path id="Trazado_185404" data-name="Trazado 185404" d="M161,420.69a4.928,4.928,0,0,1-.11-.88c-.05-.57-.1-1.39-.15-2.41-.11-2-.18-4.85-.24-8s-.17-5.92-.3-7.94c-.06-1-.12-1.84-.17-2.4a5,5,0,0,1,0-.89,5.27,5.27,0,0,1,.15.87c.09.56.18,1.38.27,2.39.19,2,.33,4.85.39,8s.11,5.84.15,8c0,1,0,1.76.06,2.41a4.772,4.772,0,0,1-.05.85Z" fill="#12263f"/>
          <path id="Trazado_185405" data-name="Trazado 185405" d="M183.05,417.87a3.81,3.81,0,0,1-.88.05c-.56,0-1.37,0-2.37.05-2,.07-4.79.28-7.84.68s-5.79.9-7.77,1.34c-1,.2-1.79.4-2.34.53a4.67,4.67,0,0,1-.87.17,4.069,4.069,0,0,1,.84-.32c.55-.17,1.34-.4,2.33-.65a71.774,71.774,0,0,1,7.78-1.45,65.209,65.209,0,0,1,7.86-.56c1,0,1.83,0,2.39.06A4.489,4.489,0,0,1,183.05,417.87Z" fill="#12263f"/>
          <path id="Trazado_185406" data-name="Trazado 185406" d="M149.61,448.69a1.3,1.3,0,0,1-.13-.34c-.08-.26-.19-.58-.31-1-.27-.85-.62-2.09-1-3.63-.85-3.07-1.92-7.37-3-12.13s-2.16-9.06-3-12.15l-1-3.66c-.1-.4-.19-.73-.26-1a2.079,2.079,0,0,1-.07-.36,1.311,1.311,0,0,1,.13.33c.09.27.19.59.31,1,.27.85.63,2.09,1.05,3.63.86,3.07,1.92,7.37,3,12.13s2.15,9.06,3,12.15c.39,1.5.72,2.74.95,3.66.11.4.19.73.26,1a2.08,2.08,0,0,1,.07.37Z" fill="#12263f"/>
          <path id="Trazado_185407" data-name="Trazado 185407" d="M179.24,440.27a1.2,1.2,0,0,1-.3.11l-.86.26-3.17.91c-2.68.77-6.37,1.88-10.45,3.11s-7.78,2.31-10.47,3c-1.35.35-2.44.62-3.2.79l-.87.19h-.31a1.484,1.484,0,0,1,.29-.12l.87-.26,3.17-.9c2.68-.77,6.37-1.88,10.45-3.12s7.78-2.3,10.47-3c1.35-.35,2.44-.62,3.2-.79l.87-.19A1,1,0,0,1,179.24,440.27Z" fill="#12263f"/>
        </g>
        <g id="Grupo_92612" data-name="Grupo 92612">
          <path id="Trazado_185408" data-name="Trazado 185408" d="M138.62,445c12.75-12.54,14.44-33.74,12.67-52.5-.3-3.13-.23-6.47-1.66-9.1s-4.47-4.25-6.73-2.7c-1.88,1.28-2.55,4.07-3.49,6.41a17.73,17.73,0,0,1-5.7,7.61c-1.6,1.2-3.63,2-5.35,1.09-2.37-1.28-2.88-5-3.07-8.12l-1.06-17.46a34.309,34.309,0,0,0-1.4-9.2c-1-2.89-3-5.47-5.52-6.07a5,5,0,0,0-5.82,4.51,33.873,33.873,0,0,0,.18,3.89c0,1.31-.4,2.79-1.4,3.25s-2.12-.33-3-1.17c-2.9-2.9-5-6.78-7-10.66s-3.91-7.86-6.58-11.07-6.23-5.61-10-5.51a9,9,0,0,0-8.22,7.71c-.66,4.49,1.79,8.75,4.36,12.1a61.9,61.9,0,0,0,13,12.69,5.26,5.26,0,0,1,2.2,2.41c.7,2-.81,4.25-2.49,5.1-1.89,1-4,.92-6,1.39a6.11,6.11,0,0,0-4.77,4.14c-.86,3.29,1.59,6.42,3.93,8.41a47.26,47.26,0,0,0,15.46,8.81c2,.66,4,1.2,5.7,2.67a6.42,6.42,0,0,1,2,6.47,4.75,4.75,0,0,1-5.19,3c-2-.26-3.93-1.4-5.9-2.08-3.7-1.28-8.31-.55-10.37,3.37a11.64,11.64,0,0,0-.3,8.82,23.16,23.16,0,0,0,4.46,7.34c6.29,7.53,14.08,13.33,22.63,16s16.33,2.88,24.37-1.52" fill="#36dac9"/>
          <path id="Trazado_185409" data-name="Trazado 185409" d="M79,341.25a2.331,2.331,0,0,0,.28.27l.83.76c.73.66,1.81,1.63,3.17,2.92A107.8,107.8,0,0,1,94.1,357.14c2.13,2.71,4.37,5.79,6.72,9.16s4.83,7,7.32,10.92A146.7,146.7,0,0,1,115.5,390c1.16,2.3,2.22,4.71,3.3,7.17s2.18,5,3.28,7.48c4.4,10.12,8.33,19.94,11.29,29.17a161.3,161.3,0,0,1,6,25.21,122.43,122.43,0,0,1,1.4,17.61c0,2.09,0,3.72-.08,4.82v1.25a2.349,2.349,0,0,0,0,.43,2.75,2.75,0,0,0,0-.43,6.963,6.963,0,0,1,.09-1.25c.08-1.1.14-2.72.17-4.82a115.7,115.7,0,0,0-1.26-17.68,158.171,158.171,0,0,0-6-25.33,309.83,309.83,0,0,0-11.27-29.25l-3.28-7.48c-1.09-2.46-2.16-4.89-3.33-7.19a143.266,143.266,0,0,0-7.38-12.77c-2.51-3.93-5-7.54-7.37-10.9s-4.62-6.44-6.77-9.14a101.8,101.8,0,0,0-11-11.83c-1.38-1.27-2.48-2.21-3.23-2.84l-.85-.7A1.62,1.62,0,0,0,79,341.25Z" fill="#12263f"/>
          <path id="Trazado_185410" data-name="Trazado 185410" d="M115.76,389.65a8.1,8.1,0,0,0,.17-1.36c.08-.87.16-2.14.24-3.72.16-3.14.27-7.49.37-12.29s.25-9.13.46-12.26c.09-1.57.18-2.84.26-3.71a7.12,7.12,0,0,0,0-1.37,8.65,8.65,0,0,0-.24,1.34c-.13.87-.27,2.13-.41,3.7-.3,3.13-.51,7.48-.6,12.29s-.17,9-.23,12.28c0,1.48-.07,2.73-.09,3.73a7.67,7.67,0,0,0,.07,1.37Z" fill="#12263f"/>
          <path id="Trazado_185411" data-name="Trazado 185411" d="M81.69,385.3a6.261,6.261,0,0,0,1.35.07c.87,0,2.12,0,3.67.09,3.1.1,7.38.43,12.09,1s9,1.4,12,2.07c1.53.32,2.76.62,3.61.82a6.481,6.481,0,0,0,1.34.26,6,6,0,0,0-1.3-.48c-.84-.27-2.06-.64-3.59-1a108,108,0,0,0-12-2.24A101.339,101.339,0,0,0,86.72,385c-1.56,0-2.82,0-3.69.1A6.368,6.368,0,0,0,81.69,385.3Z" fill="#12263f"/>
          <path id="Trazado_185412" data-name="Trazado 185412" d="M133.32,432.88a2.481,2.481,0,0,0,.2-.51l.48-1.51c.41-1.31,1-3.22,1.62-5.6,1.32-4.75,3-11.38,4.7-18.73s3.33-14,4.56-18.76c.61-2.33,1.1-4.24,1.47-5.66l.4-1.54a2.161,2.161,0,0,0,.1-.55,3,3,0,0,0-.19.51l-.48,1.51c-.41,1.31-1,3.22-1.62,5.6-1.32,4.75-3,11.38-4.7,18.73s-3.33,14-4.57,18.76c-.6,2.33-1.1,4.24-1.47,5.66-.16.61-.29,1.12-.39,1.54A2,2,0,0,0,133.32,432.88Z" fill="#12263f"/>
          <path id="Trazado_185413" data-name="Trazado 185413" d="M87.57,419.88a1.63,1.63,0,0,0,.46.18l1.33.4,4.9,1.4c4.13,1.18,9.83,2.9,16.13,4.8s12,3.56,16.17,4.64c2.08.55,3.76,1,4.93,1.22l1.35.3a1.459,1.459,0,0,0,.48.06,1.629,1.629,0,0,0-.46-.18l-1.33-.4-4.9-1.4c-4.13-1.18-9.83-2.9-16.13-4.8s-12-3.56-16.17-4.64c-2.08-.55-3.76-1-4.94-1.23l-1.34-.29a1.461,1.461,0,0,0-.48-.06Z" fill="#12263f"/>
        </g>
        <g id="Grupo_92613" data-name="Grupo 92613">
          <path id="Trazado_185414" data-name="Trazado 185414" d="M122.86,480.97l1.17,37.66h33.94l2.69-37.66Z" fill="#12263f"/>
          <rect id="Rectángulo_38946" data-name="Rectángulo 38946" width="45.12" height="12.45" transform="translate(119.59 468.52)" fill="#12263f"/>
          <path id="Trazado_185415" data-name="Trazado 185415" d="M161.13,480.76c0,.14-8.5.25-19,.25s-19-.11-19-.25,8.5-.25,19-.25S161.13,480.62,161.13,480.76Z" fill="#375a64"/>
        </g>
      </g>
      <g id="Grupo_92625" data-name="Grupo 92625">
        <g id="Grupo_92615" data-name="Grupo 92615">
          <path id="Trazado_185416" data-name="Trazado 185416" d="M334.31,512.21,297,319.18h.05c-.07-.29-.14-.56-.22-.84h0C291.12,295.59,286.6,290,286.6,290l-55.78,1.52c-4.38,7.86-4.93,26.74-4.93,26.74-.6,2.31,8,190.09,8,190.09l23.12-.06,6.32-178.08,49.89,182.44Z" fill="#12263f"/>
          <path id="Trazado_185417" data-name="Trazado 185417" d="M278.07,324.2c.05.19-6.16,1.95-13.86,3.95s-14,3.46-14,3.28,6.16-1.95,13.86-3.95S278,324,278.07,324.2Z" fill="#375a64"/>
          <path id="Trazado_185418" data-name="Trazado 185418" d="M238.22,510.77c-.16,0-1.56-44.35-3.13-99.06s-2.71-99.09-2.55-99.09,1.56,44.34,3.13,99.07S238.38,510.77,238.22,510.77Z" fill="#375a64"/>
          <path id="Trazado_185419" data-name="Trazado 185419" d="M244.58,507.46c-.16,0-.44-43.67-.63-97.53s-.21-97.54,0-97.54.44,43.66.62,97.53S244.74,507.46,244.58,507.46Z" fill="#375a64"/>
          <path id="Trazado_185420" data-name="Trazado 185420" d="M254.38,309.73c.16,0-.45,44.27-1.37,98.87s-1.79,98.86-1.95,98.86.45-44.26,1.37-98.87S254.22,309.73,254.38,309.73Z" fill="#375a64"/>
          <path id="Trazado_185421" data-name="Trazado 185421" d="M263.32,330.24a99.635,99.635,0,0,1-.78-10.71,98.232,98.232,0,0,1-.21-10.73,99.628,99.628,0,0,1,.78,10.71,98.248,98.248,0,0,1,.21,10.73Z" fill="#375a64"/>
          <path id="Trazado_185422" data-name="Trazado 185422" d="M318.48,512.08c-.15,0-11.19-45.44-24.66-101.57S269.57,308.84,269.73,308.8s11.19,45.43,24.66,101.58S318.64,512,318.48,512.08Z" fill="#375a64"/>
          <path id="Trazado_185423" data-name="Trazado 185423" d="M325.14,511.92c-.15,0-10.63-45.85-23.39-102.46s-23-102.56-22.83-102.6,10.63,45.84,23.39,102.47S325.3,511.88,325.14,511.92Z" fill="#375a64"/>
          <path id="Trazado_185424" data-name="Trazado 185424" d="M329.36,510.77c-.16,0-9.26-45.59-20.33-101.89s-19.93-102-19.77-102,9.26,45.59,20.33,101.91S329.52,510.74,329.36,510.77Z" fill="#375a64"/>
        </g>
        <path id="Trazado_185425" data-name="Trazado 185425" d="M234.85,213.13l-37.13-32,.72-45.65.71-1c.39-.53.83-1.11,1.35-1.75a8.7,8.7,0,0,1,2.13-1.88,13.08,13.08,0,0,1,3.18-1.56c1.06-.24,1.31-1.62.42-2s-3.84.21-6.65,2.31-1.43-3.18-1-5.11,1.64-8,1.16-8.58c-.71-.88-1.81-.27-2.24,1.67s-2.1,7.69-3.12,7.42S196,114.92,196,114.92s.88-2-.28-2.37c-2.1-.63-4,10-4.17,11-.1.7-1.22.45-1.06-.3s2.75-9.75.62-10.41c-1.63-.51-1.65,8.72-3.23,10.31s.74-7-.84-7.44c-.59-.16-1.05-.19-1.66,4.92a99.806,99.806,0,0,0-1.12,10.66h0l-6.44,55,37.38,42Z" fill="#ffbf9d"/>
        <g id="Grupo_92617" data-name="Grupo 92617">
          <path id="Trazado_185426" data-name="Trazado 185426" d="M234.86,508.83l-3.02,10.09,21.58-.26.96-10.79Z" fill="#36dac9"/>
          <path id="Trazado_185427" data-name="Trazado 185427" d="M253.83,516.62a13.328,13.328,0,0,1-3.14.25H243.1l-7.57-.24a15,15,0,0,1-3.14-.25,13.941,13.941,0,0,1,3.14-.24c1.95-.05,4.63,0,7.59,0l7.58.23a15.513,15.513,0,0,1,3.13.25Z" fill="#12263f"/>
          <path id="Trazado_185428" data-name="Trazado 185428" d="M244.58,507.46c.19,0,.23,2.05.09,4.55s-.4,4.52-.59,4.51-.23-2-.09-4.55S244.39,507.45,244.58,507.46Z" fill="#12263f"/>
          <g id="Grupo_92616" data-name="Grupo 92616" opacity="0.6">
            <path id="Trazado_185429" data-name="Trazado 185429" d="M231.84,518.92l21.58-.26.18-2.04-21.41-.28-.36,2.34" fill="#fff"/>
          </g>
        </g>
        <path id="Trazado_185430" data-name="Trazado 185430" d="M252.46,113.92c-1.42.82,3,8.54,1.1,7.41s-4.33-10-5.77-9.14c-1.89,1.19,2.92,9.19,3.28,9.9a.576.576,0,0,1-1,.57c-.41-.94-5-10.71-6.85-9.56-1,.64.34,2.36.34,2.36s5,8.84,4.07,9.36-4-4.58-4.93-6.37-2.13-2.07-2.59-1c-.31.7,2.38,6.25,3.33,8s3.65,6.5.39,5.19-6.25-1.13-7-.53-.17,1.88.92,1.84a12.67,12.67,0,0,1,3.47.69,8.55,8.55,0,0,1,2.55,1.26c.67.48,1.24.93,1.75,1.34l.94.75,18.6,45.87-16.9,39.34,26.2,9.75,11.77-52-27-50.63h0a97,97,0,0,0-3.82-10C253.43,113.46,253,113.62,252.46,113.92Z" fill="#ffbf9d"/>
        <g id="Grupo_92621" data-name="Grupo 92621">
          <g id="Grupo_92619" data-name="Grupo 92619">
            <path id="Trazado_185431" data-name="Trazado 185431" d="M335.51,514.12l-.08-2.2-22.29.64.19,7.26h1.38c6.13.15,31.19.37,35.25-.89C354.48,517.56,335.51,514.12,335.51,514.12Z" fill="#36dac9"/>
            <g id="Grupo_92618" data-name="Grupo 92618" opacity="0.6">
              <path id="Trazado_185432" data-name="Trazado 185432" d="M321.37,519.44a7.09,7.09,0,0,0-3-4.32,7.85,7.85,0,0,0-5.23-1.36l.17,5.76Z" fill="#fff"/>
            </g>
          </g>
          <g id="Grupo_92620" data-name="Grupo 92620" opacity="0.6">
            <path id="Trazado_185433" data-name="Trazado 185433" d="M344.79,516.1s6.66,1.6,5.87,2.63-26.13,1.7-37.33,1.09v-.46l29.56-.55S343.5,516.19,344.79,516.1Z" fill="#fff"/>
          </g>
          <path id="Trazado_185434" data-name="Trazado 185434" d="M313,519.35h1.48l4,.06c3.41,0,8.12,0,13.32-.13s9.91-.35,13.31-.55l4-.27,1.1-.08.38-.05h-1.48l-4,.18c-3.4.15-8.11.34-13.31.48s-9.9.18-13.31.2H313.4Z" fill="#12263f"/>
          <path id="Trazado_185435" data-name="Trazado 185435" d="M342.91,519.13a8.681,8.681,0,0,1,.7-1.81,8.9,8.9,0,0,1,1.33-1.47,3,3,0,0,0-1.56,1.35,2.65,2.65,0,0,0-.47,1.93Z" fill="#12263f"/>
          <path id="Trazado_185436" data-name="Trazado 185436" d="M336.27,516.22a2.609,2.609,0,0,0,.68-.81c.31-.48.51-.91.44-.94s-.36.33-.67.81S336.21,516.18,336.27,516.22Z" fill="#12263f"/>
          <path id="Trazado_185437" data-name="Trazado 185437" d="M334.45,515.38a2.76,2.76,0,0,0,.77-.5c.38-.32.63-.64.58-.69s-.4.17-.77.5S334.4,515.33,334.45,515.38Z" fill="#12263f"/>
          <path id="Trazado_185438" data-name="Trazado 185438" d="M333.25,513.46a5.44,5.44,0,0,0,2.32,0,2.74,2.74,0,0,0-1.16-.11A3,3,0,0,0,333.25,513.46Z" fill="#12263f"/>
          <path id="Trazado_185439" data-name="Trazado 185439" d="M332.82,512.1a2.38,2.38,0,0,0,1.3.32,2.47,2.47,0,0,0,1.33-.2,7.247,7.247,0,0,0-1.31-.05A7.818,7.818,0,0,0,332.82,512.1Z" fill="#12263f"/>
          <path id="Trazado_185440" data-name="Trazado 185440" d="M337,514.4a4.528,4.528,0,0,0,1.43,0,8.8,8.8,0,0,0,1.5-.35,4.1,4.1,0,0,0,.86-.35.75.75,0,0,0,.34-.43.48.48,0,0,0-.23-.52,2.73,2.73,0,0,0-3.21.8,2.25,2.25,0,0,0-.44.89.83.83,0,0,0,0,.36,4.311,4.311,0,0,1,.62-1.15,2.59,2.59,0,0,1,1.2-.76,2.32,2.32,0,0,1,1.7.06c.23.15.15.4-.1.55a4.252,4.252,0,0,1-.79.33,9.572,9.572,0,0,1-1.46.4A13.6,13.6,0,0,0,337,514.4Z" fill="#12263f"/>
          <path id="Trazado_185441" data-name="Trazado 185441" d="M337.34,514.45a1.23,1.23,0,0,0,.14-.92,2.16,2.16,0,0,0-.42-1,1.45,1.45,0,0,0-1.21-.64.52.52,0,0,0-.42.62,1.38,1.38,0,0,0,.26.59,4.18,4.18,0,0,0,.7.78,2.36,2.36,0,0,0,.83.52,9.109,9.109,0,0,1-.7-.64,5.31,5.31,0,0,1-.62-.78c-.2-.28-.35-.78,0-.85a1.29,1.29,0,0,1,1,.54,2.139,2.139,0,0,1,.43.85,4.242,4.242,0,0,1,.01.93Z" fill="#12263f"/>
          <path id="Trazado_185442" data-name="Trazado 185442" d="M313.28,513.7a16.206,16.206,0,0,1,1.64,0,7.5,7.5,0,0,1,3.62,1.27,6.75,6.75,0,0,1,2.33,2.88c.36.88.41,1.47.46,1.46s0-.15,0-.41a5.25,5.25,0,0,0-.27-1.11,6.45,6.45,0,0,0-2.35-3,7.2,7.2,0,0,0-3.76-1.25,6,6,0,0,0-1.22.06,1.3,1.3,0,0,0-.45.1Z" fill="#12263f"/>
          <path id="Trazado_185443" data-name="Trazado 185443" d="M324.1,517.35a19.29,19.29,0,0,0,6.49-.11,27.6,27.6,0,0,0-3.25.08C325.55,517.4,324.11,517.28,324.1,517.35Z" fill="#12263f"/>
          <path id="Trazado_185444" data-name="Trazado 185444" d="M319.75,517.46c-.05,0,.13.29.29.59s.24.58.32.57.1-.33-.08-.68S319.8,517.41,319.75,517.46Z" fill="#12263f"/>
          <path id="Trazado_185445" data-name="Trazado 185445" d="M318.06,515.61c-.06,0,.09.26.33.47s.47.34.52.29-.1-.26-.33-.47S318.11,515.56,318.06,515.61Z" fill="#12263f"/>
          <path id="Trazado_185446" data-name="Trazado 185446" d="M315.68,514.8c0,.07.32.06.65.16s.56.26.62.21-.14-.33-.55-.45S315.66,514.74,315.68,514.8Z" fill="#12263f"/>
          <path id="Trazado_185447" data-name="Trazado 185447" d="M314,514.44c0,.07.11.17.29.23s.36.06.39,0-.11-.16-.3-.23S314,514.37,314,514.44Z" fill="#12263f"/>
        </g>
        <g id="Grupo_92622" data-name="Grupo 92622">
          <path id="Trazado_185448" data-name="Trazado 185448" d="M286.15,240.9l-6.06,31.53c12.64,17.6,13.79,32.68,13.79,32.68l-68,8c0-12.32,9-32.24,9-32.24l-10.92-37.26L204.2,217.88l19.61-17.68c-.37,1,18.39,11.86,18.39,11.86l26.94.23A22.1,22.1,0,0,1,273,213l13.16-34.13a47.85,47.85,0,0,1,9.5,33.31c-2.12,21.55-4.69,16.19-9.5,28.7" fill="#36dac9"/>
          <path id="Trazado_185449" data-name="Trazado 185449" d="M248.82,268.6a1.2,1.2,0,0,1-.24.59,6.24,6.24,0,0,1-1,1.41,3.66,3.66,0,0,1-2.39,1.14,2.83,2.83,0,0,1-1.58-.42,14.381,14.381,0,0,1-1.33-.94,4.07,4.07,0,0,0-4.93,0,7.79,7.79,0,0,0-1.44,1.74,3.07,3.07,0,0,1,1.18-2.06,4.23,4.23,0,0,1,2.42-1.05,4.5,4.5,0,0,1,3.11.86c.9.68,1.67,1.35,2.55,1.29a3.42,3.42,0,0,0,2.13-.9C248.29,269.35,248.73,268.53,248.82,268.6Z" fill="#fafafa"/>
          <path id="Trazado_185450" data-name="Trazado 185450" d="M282.45,289.67a2.6,2.6,0,0,1-.24.59,6,6,0,0,1-1,1.41,3.66,3.66,0,0,1-2.39,1.14,2.9,2.9,0,0,1-1.58-.41c-.48-.28-.9-.64-1.33-.95a4.13,4.13,0,0,0-2.73-.8,4,4,0,0,0-2.19.84,7.141,7.141,0,0,0-1.44,1.74,3,3,0,0,1,1.17-2.05,4.24,4.24,0,0,1,2.42-1.06,4.49,4.49,0,0,1,3.11.86c.9.68,1.67,1.35,2.55,1.3a3.42,3.42,0,0,0,2.13-.91C281.92,290.43,282.36,289.6,282.45,289.67Z" fill="#fafafa"/>
          <path id="Trazado_185451" data-name="Trazado 185451" d="M260.82,256.41a2.514,2.514,0,0,1,.48.43,6.529,6.529,0,0,1,1,1.46,3.71,3.71,0,0,1,.24,2.64,2.94,2.94,0,0,1-.94,1.33,16.006,16.006,0,0,1-1.34.92,4.1,4.1,0,0,0-1.7,2.28,4,4,0,0,0,0,2.35,7.681,7.681,0,0,0,1.13,2,3.07,3.07,0,0,1-1.52-1.82,4.25,4.25,0,0,1-.15-2.63,4.51,4.51,0,0,1,1.89-2.62c.95-.61,1.84-1.1,2.1-1.94a3.34,3.34,0,0,0-.11-2.31C261.35,257.17,260.73,256.48,260.82,256.41Z" fill="#fafafa"/>
          <path id="Trazado_185452" data-name="Trazado 185452" d="M264.18,286.49a2.116,2.116,0,0,1,0-.64,6.58,6.58,0,0,1,.42-1.69,3.71,3.71,0,0,1,1.79-2A2.84,2.84,0,0,1,268,282a15.385,15.385,0,0,1,1.59.37,4.072,4.072,0,0,0,4.55-1.9,7.159,7.159,0,0,0,.67-2.15,3,3,0,0,1-.31,2.35,4.21,4.21,0,0,1-1.84,1.89,4.5,4.5,0,0,1-3.2.38c-1.09-.3-2.06-.62-2.85-.24a3.4,3.4,0,0,0-1.63,1.64C264.38,285.59,264.29,286.52,264.18,286.49Z" fill="#fafafa"/>
          <path id="Trazado_185453" data-name="Trazado 185453" d="M268.47,302.61a2.162,2.162,0,0,1,.36-.53,6.09,6.09,0,0,1,1.28-1.18,3.71,3.71,0,0,1,2.57-.64,2.83,2.83,0,0,1,1.47.72,15.5,15.5,0,0,1,1.11,1.19,4.08,4.08,0,0,0,2.52,1.32,4,4,0,0,0,2.32-.38,7.579,7.579,0,0,0,1.75-1.42c.06,0-.24,1-1.56,1.78a4.22,4.22,0,0,1-2.57.56,4.44,4.44,0,0,1-2.88-1.47c-.75-.84-1.37-1.65-2.25-1.77a3.37,3.37,0,0,0-2.26.46C269.14,302,268.55,302.7,268.47,302.61Z" fill="#fafafa"/>
          <path id="Trazado_185454" data-name="Trazado 185454" d="M231.84,303.7a2.3,2.3,0,0,1,.47-.43,6.531,6.531,0,0,1,1.55-.81,3.72,3.72,0,0,1,2.65,0,2.85,2.85,0,0,1,1.23,1.06,15.547,15.547,0,0,1,.78,1.44,4.06,4.06,0,0,0,2.1,1.92,4,4,0,0,0,2.34.21,7.289,7.289,0,0,0,2.06-.93,3,3,0,0,1-2,1.33,4.24,4.24,0,0,1-2.64-.11,4.52,4.52,0,0,1-2.41-2.15c-.51-1-.91-1.94-1.72-2.28a3.39,3.39,0,0,0-2.31-.13C232.65,303.25,231.89,303.8,231.84,303.7Z" fill="#fafafa"/>
          <path id="Trazado_185455" data-name="Trazado 185455" d="M269.73,248.21a2.044,2.044,0,0,1,.6-.2,6.34,6.34,0,0,1,1.74-.14,3.71,3.71,0,0,1,2.42,1.09,2.72,2.72,0,0,1,.71,1.46c.1.55.1,1.1.15,1.62a4.07,4.07,0,0,0,3.23,3.73,7.5,7.5,0,0,0,2.26,0,3,3,0,0,1-2.33.44,4.29,4.29,0,0,1-2.38-1.15,4.49,4.49,0,0,1-1.36-2.92c-.07-1.13-.06-2.15-.67-2.79a3.44,3.44,0,0,0-2.07-1C270.64,248.12,269.74,248.32,269.73,248.21Z" fill="#fafafa"/>
          <path id="Trazado_185456" data-name="Trazado 185456" d="M289.82,197.49a2.492,2.492,0,0,1,.49.41,6.179,6.179,0,0,1,1,1.41,3.62,3.62,0,0,1,.36,2.62,2.83,2.83,0,0,1-.87,1.38c-.41.37-.88.66-1.3,1a4.08,4.08,0,0,0-1.59,2.36,3.91,3.91,0,0,0,.13,2.35,8,8,0,0,0,1.22,1.9,3.387,3.387,0,0,1-1.6-1.75,4.21,4.21,0,0,1-.28-2.62,4.47,4.47,0,0,1,1.77-2.7c.92-.66,1.79-1.18,2-2a3.4,3.4,0,0,0-.22-2.3C290.38,198.22,289.73,197.56,289.82,197.49Z" fill="#fafafa"/>
          <path id="Trazado_185457" data-name="Trazado 185457" d="M256.78,241.51a2.044,2.044,0,0,1,.6-.2,6,6,0,0,1,1.74-.14,3.69,3.69,0,0,1,2.42,1.08,2.78,2.78,0,0,1,.71,1.47c.1.54.1,1.09.15,1.62a4.08,4.08,0,0,0,1.16,2.6,4,4,0,0,0,2.07,1.12,7.74,7.74,0,0,0,2.26,0,3.11,3.11,0,0,1-2.33.44,4.29,4.29,0,0,1-2.38-1.15,4.49,4.49,0,0,1-1.36-2.93c-.07-1.13-.06-2.14-.67-2.78a3.44,3.44,0,0,0-2.07-1C257.7,241.42,256.79,241.62,256.78,241.51Z" fill="#fafafa"/>
          <path id="Trazado_185458" data-name="Trazado 185458" d="M281,212.37a2.4,2.4,0,0,1,.61-.21,6.37,6.37,0,0,1,1.74-.13,3.66,3.66,0,0,1,2.42,1.08,2.85,2.85,0,0,1,.7,1.46,15.439,15.439,0,0,1,.15,1.63,4,4,0,0,0,3.23,3.72,7.08,7.08,0,0,0,2.26,0,3,3,0,0,1-2.33.44,4.18,4.18,0,0,1-2.37-1.14,4.5,4.5,0,0,1-1.37-2.93c-.06-1.13-.05-2.14-.67-2.78a3.36,3.36,0,0,0-2.07-1C282,212.27,281,212.48,281,212.37Z" fill="#fafafa"/>
          <path id="Trazado_185459" data-name="Trazado 185459" d="M231.69,248.5a1.364,1.364,0,0,1,.6.21,6.149,6.149,0,0,1,1.46,1A3.68,3.68,0,0,1,235,252a2.8,2.8,0,0,1-.34,1.59c-.25.5-.59.93-.87,1.38a4.07,4.07,0,0,0-.67,2.77,4,4,0,0,0,1,2.15,7.539,7.539,0,0,0,1.81,1.35,3.05,3.05,0,0,1-2.11-1.07,4.2,4.2,0,0,1-1.18-2.36,4.44,4.44,0,0,1,.71-3.15c.63-.94,1.26-1.74,1.16-2.62a3.41,3.41,0,0,0-1-2.08C232.47,249,231.63,248.6,231.69,248.5Z" fill="#fafafa"/>
          <path id="Trazado_185460" data-name="Trazado 185460" d="M219.79,217.8a2.342,2.342,0,0,1,.6-.23,6.131,6.131,0,0,1,1.73-.21,3.68,3.68,0,0,1,2.47,1,2.86,2.86,0,0,1,.77,1.43,13.159,13.159,0,0,1,.21,1.61,4.14,4.14,0,0,0,1.28,2.55,4,4,0,0,0,2.11,1,7.37,7.37,0,0,0,2.26-.13,3.07,3.07,0,0,1-2.31.54,4.26,4.26,0,0,1-2.42-1.05,4.46,4.46,0,0,1-1.49-2.86c-.12-1.12-.15-2.14-.79-2.75a3.47,3.47,0,0,0-2.11-.94C220.71,217.67,219.81,217.91,219.79,217.8Z" fill="#fafafa"/>
          <path id="Trazado_185461" data-name="Trazado 185461" d="M221.56,204.93a2.148,2.148,0,0,1,.6-.23,6.129,6.129,0,0,1,1.73-.21,3.64,3.64,0,0,1,2.46,1,2.8,2.8,0,0,1,.78,1.43c.12.54.14,1.09.21,1.62a4.09,4.09,0,0,0,1.28,2.54,4,4,0,0,0,2.11,1A7.23,7.23,0,0,0,233,212a3,3,0,0,1-2.3.54,4.26,4.26,0,0,1-2.42-1.05,4.42,4.42,0,0,1-1.49-2.86c-.12-1.12-.15-2.14-.8-2.75a3.42,3.42,0,0,0-2.11-.94A22.329,22.329,0,0,0,221.56,204.93Z" fill="#fafafa"/>
          <path id="Trazado_185462" data-name="Trazado 185462" d="M221.25,235.09a2.646,2.646,0,0,1,.59-.23,6.21,6.21,0,0,1,1.74-.21,3.7,3.7,0,0,1,2.46,1,2.78,2.78,0,0,1,.77,1.43,15.342,15.342,0,0,1,.22,1.62,4.1,4.1,0,0,0,1.27,2.54,4.05,4.05,0,0,0,2.12,1,7.44,7.44,0,0,0,2.25-.14,3,3,0,0,1-2.31.54,4.23,4.23,0,0,1-2.42-1,4.53,4.53,0,0,1-1.49-2.87c-.11-1.12-.15-2.13-.79-2.74a3.4,3.4,0,0,0-2.11-.95C222.16,235,221.26,235.2,221.25,235.09Z" fill="#fafafa"/>
          <path id="Trazado_185463" data-name="Trazado 185463" d="M212.68,215.35a1.364,1.364,0,0,1,.6.21,5.76,5.76,0,0,1,1.46.95,3.66,3.66,0,0,1,1.26,2.34,2.82,2.82,0,0,1-.34,1.59c-.25.5-.59.93-.87,1.38a4,4,0,0,0,.28,4.91,7.79,7.79,0,0,0,1.81,1.36,3,3,0,0,1-2.11-1.08,4.27,4.27,0,0,1-1.18-2.36,4.47,4.47,0,0,1,.71-3.15c.64-.93,1.26-1.73,1.16-2.61a3.41,3.41,0,0,0-1-2.08C213.46,215.84,212.62,215.44,212.68,215.35Z" fill="#fafafa"/>
          <path id="Trazado_185464" data-name="Trazado 185464" d="M267.81,264.77a2.5,2.5,0,0,1,.6-.2,6.07,6.07,0,0,1,1.75-.13,3.64,3.64,0,0,1,2.41,1.08,2.72,2.72,0,0,1,.71,1.46,15.44,15.44,0,0,1,.15,1.63,4.1,4.1,0,0,0,1.16,2.59,4,4,0,0,0,2.07,1.13,7.5,7.5,0,0,0,2.26,0,3,3,0,0,1-2.33.44,4.26,4.26,0,0,1-2.37-1.15,4.45,4.45,0,0,1-1.37-2.92c-.07-1.13-.06-2.15-.67-2.78a3.4,3.4,0,0,0-2.07-1C268.73,264.68,267.82,264.88,267.81,264.77Z" fill="#fafafa"/>
          <path id="Trazado_185465" data-name="Trazado 185465" d="M236.07,293.9a1.528,1.528,0,0,1,.19-.61,6.449,6.449,0,0,1,.89-1.5,3.74,3.74,0,0,1,2.28-1.35,2.839,2.839,0,0,1,1.61.27,16.227,16.227,0,0,1,1.41.82,4.05,4.05,0,0,0,4.9-.49,7.509,7.509,0,0,0,1.28-1.86,3.06,3.06,0,0,1-1,2.15,4.25,4.25,0,0,1-2.31,1.28,4.45,4.45,0,0,1-3.17-.58c-1-.6-1.79-1.19-2.66-1a3.34,3.34,0,0,0-2,1.09C236.53,293.1,236.17,294,236.07,293.9Z" fill="#fafafa"/>
          <path id="Trazado_185466" data-name="Trazado 185466" d="M256.19,303.56a2.209,2.209,0,0,1-.3-.56,6,6,0,0,1-.42-1.7,3.66,3.66,0,0,1,.67-2.56,2.85,2.85,0,0,1,1.33-.94,15.3,15.3,0,0,1,1.58-.41,4.06,4.06,0,0,0,3.14-3.79,7,7,0,0,0-.41-2.23,3.07,3.07,0,0,1,.82,2.23,4.17,4.17,0,0,1-.75,2.53,4.48,4.48,0,0,1-2.66,1.82c-1.1.25-2.1.41-2.63,1.12a3.42,3.42,0,0,0-.68,2.21C256,302.67,256.3,303.54,256.19,303.56Z" fill="#fafafa"/>
          <path id="Trazado_185467" data-name="Trazado 185467" d="M244.37,280.72a2.212,2.212,0,0,1,.41-.48,5.9,5.9,0,0,1,1.43-1,3.65,3.65,0,0,1,2.63-.31,2.82,2.82,0,0,1,1.36.89,14.737,14.737,0,0,1,1,1.32,4.11,4.11,0,0,0,2.33,1.63,4,4,0,0,0,2.35-.1,7.391,7.391,0,0,0,1.92-1.19,3.082,3.082,0,0,1-1.77,1.57,4.27,4.27,0,0,1-2.63.24,4.52,4.52,0,0,1-2.67-1.81c-.64-.94-1.15-1.81-2-2a3.41,3.41,0,0,0-2.3.17C245.11,280.17,244.43,280.82,244.37,280.72Z" fill="#fafafa"/>
          <path id="Trazado_185468" data-name="Trazado 185468" d="M240.44,255.27a2.343,2.343,0,0,1,.4-.5,6.07,6.07,0,0,1,1.4-1,3.7,3.7,0,0,1,2.62-.39,2.89,2.89,0,0,1,1.38.86,15,15,0,0,1,1,1.3,4.08,4.08,0,0,0,2.37,1.56,4,4,0,0,0,2.35-.15,7.811,7.811,0,0,0,1.89-1.24,3.11,3.11,0,0,1-1.73,1.62,4.27,4.27,0,0,1-2.62.3,4.5,4.5,0,0,1-2.72-1.74c-.66-.92-1.2-1.78-2.06-2a3.39,3.39,0,0,0-2.3.24C241.16,254.7,240.51,255.36,240.44,255.27Z" fill="#fafafa"/>
        </g>
        <g id="Grupo_92624" data-name="Grupo 92624">
          <g id="Grupo_92623" data-name="Grupo 92623">
            <path id="Trazado_185469" data-name="Trazado 185469" d="M243.57,159.27c-5.65,2.56-7.92,8.81-8.48,14.54s0,11.72-2.18,17.09c-1.86,4.53-5.7,8.66-5.27,13.51.32,3.61,3,6.8,3.51,10.4.95,7-6.45,13.22-5.11,20.14.62,3.17,3.05,5.89,6,7.77a42.331,42.331,0,0,0,9.63,4.13c4.49,1.5,9.49,3,13.9,1.42,3.93-1.4,6.59-5,10.66-6,3.9-1,8,.62,12.1.71a13.62,13.62,0,0,0,10-3.81,9,9,0,0,0,2.07-9.52c-1.82-4.47-7.39-7.35-8.25-12-.78-4.24,2.67-8.44,1.59-12.62-1.22-4.67-7.45-7.12-9-11.71-1.82-5.51,4-11.38,1.72-16.76-1.33-3.16-5.14-5.16-6.16-8.41-.71-2.23.05-4.62-.46-6.89-.87-3.92-5.28-6.46-9.59-7.35a22.44,22.44,0,0,0-15.54,2.24,15.86,15.86,0,0,0-8.11,12" fill="#12263f"/>
            <path id="Trazado_185470" data-name="Trazado 185470" d="M252,155.28a19,19,0,0,1,25.47,14.08c.87,4.37.22,9.1,2.12,13.13,2.07,4.38,6.91,7.38,7.64,12.16.71,4.62-2.74,8.82-3.45,13.44-.75,4.81,1.51,9.67,1,14.51a12.6,12.6,0,0,1-21.89,7" fill="#12263f"/>
          </g>
          <path id="Trazado_185471" data-name="Trazado 185471" d="M266.8,165.1a11.12,11.12,0,0,1,15.25-8.93,8.64,8.64,0,0,1,4.41,3.79,9.36,9.36,0,0,1,.41,6.87,12.46,12.46,0,0,1-6.79,8,10.1,10.1,0,0,1-10.25-1.27,8.51,8.51,0,0,1-2.41-9.81" fill="#12263f"/>
          <path id="Trazado_185472" data-name="Trazado 185472" d="M275.31,175a3.61,3.61,0,0,1-1,.15,23.371,23.371,0,0,1-2.8.05,11.42,11.42,0,0,1-4.09-.89,7,7,0,0,1-3.62-3.64,8.26,8.26,0,0,1-.45-5.12,9.37,9.37,0,0,1,1.89-3.75,10.31,10.31,0,0,1,2.06-1.92,2.76,2.76,0,0,1,.91-.49,20,20,0,0,0-2.65,2.66,9.69,9.69,0,0,0-1.69,3.61,7.91,7.91,0,0,0,.46,4.78,6.58,6.58,0,0,0,3.31,3.38,11.71,11.71,0,0,0,3.9,1A23.605,23.605,0,0,1,275.31,175Z" fill="#36dac9"/>
          <path id="Trazado_185473" data-name="Trazado 185473" d="M276.57,173.78a9.16,9.16,0,0,0-1.23,2.68,10.3,10.3,0,0,0-.21,3.45,17.838,17.838,0,0,0,1.14,4.49c.61,1.62,1.55,3.29,2.47,5.15a24.1,24.1,0,0,1,2.37,6.25,9.85,9.85,0,0,1-1.27,7.3,10.07,10.07,0,0,1-6.59,4.59l-.36.07v-.37c.08-1.4.17-2.89.26-4.4l.56.13a5.67,5.67,0,0,1-1.63,2.22,6,6,0,0,1-5.15,1.33l-.35-.08.16-.33a27.211,27.211,0,0,0,2.88-7.72,10,10,0,0,0-.11-3.82,9.449,9.449,0,0,0-1.57-3.29c-1.41-2-3.17-3.54-4.38-5.38a15.63,15.63,0,0,1-2.34-5.59,16.08,16.08,0,0,1,.51-8.59,11.741,11.741,0,0,1,1.37-2.84,31.142,31.142,0,0,0-1.17,2.9,16.36,16.36,0,0,0-.33,8.45,15.17,15.17,0,0,0,2.34,5.41c1.18,1.78,3,3.32,4.42,5.34a10.07,10.07,0,0,1,1.67,3.47,10.63,10.63,0,0,1,.14,4,27.561,27.561,0,0,1-2.91,7.9l-.19-.41a5.48,5.48,0,0,0,4.64-1.21,5.27,5.27,0,0,0,1.46-2l.66-1.6-.1,1.72c-.09,1.51-.18,3-.27,4.39l-.33-.3a9.49,9.49,0,0,0,7.46-11.23,24.069,24.069,0,0,0-2.27-6.14,55.806,55.806,0,0,1-2.42-5.21,18,18,0,0,1-1.09-4.61,10.261,10.261,0,0,1,.31-3.53,7.11,7.11,0,0,1,.94-2A3.7,3.7,0,0,1,276.57,173.78Z" fill="#375a64"/>
          <path id="Trazado_185474" data-name="Trazado 185474" d="M280.48,156a2.9,2.9,0,0,1,.3.87,12.4,12.4,0,0,1,.33,2.47A14.53,14.53,0,0,1,273.2,173a12,12,0,0,1-2.32.92,2.63,2.63,0,0,1-.9.17c0-.1,1.24-.42,3-1.45a15.08,15.08,0,0,0,7.7-13.21C280.71,157.32,280.37,156.06,280.48,156Z" fill="#375a64"/>
          <path id="Trazado_185475" data-name="Trazado 185475" d="M277.36,170a4.91,4.91,0,0,1-2.31.08,9.972,9.972,0,0,1-8.23-6.88,5,5,0,0,1-.32-2.3c.09,0,.2.87.71,2.16a11,11,0,0,0,3.09,4.34,10.87,10.87,0,0,0,4.81,2.28C276.47,170,277.35,169.93,277.36,170Z" fill="#375a64"/>
          <path id="Trazado_185476" data-name="Trazado 185476" d="M254,248.27a13.48,13.48,0,0,0,3.56-2.1,16.64,16.64,0,0,0,5.3-9.72c.86-4.68-.14-10.59-3.26-16.08a80.586,80.586,0,0,0-5.76-8.1,26.681,26.681,0,0,1-2.73-4.57,15.68,15.68,0,0,1-1.35-5.34,23.81,23.81,0,0,1,2.14-10.54c1.34-3.22,3.05-6.11,4.43-9a32.21,32.21,0,0,0,3-8.41,20.351,20.351,0,0,0-.12-7.73,20.58,20.58,0,0,0-5.12-9.91,23.493,23.493,0,0,0-3.21-2.64.919.919,0,0,1,.25.12l.69.41a16.559,16.559,0,0,1,2.43,2,20.3,20.3,0,0,1,5.36,10,20.6,20.6,0,0,1,.19,7.91,32.191,32.191,0,0,1-3,8.55c-1.38,2.88-3.07,5.77-4.38,8.95a23.35,23.35,0,0,0-2.09,10.28,18.021,18.021,0,0,0,4,9.62,71.754,71.754,0,0,1,5.77,8.17c3.14,5.6,4.13,11.64,3.19,16.42a16.54,16.54,0,0,1-5.56,9.81,11.751,11.751,0,0,1-2.67,1.6c-.33.13-.59.2-.77.26Z" fill="#375a64"/>
          <path id="Trazado_185477" data-name="Trazado 185477" d="M244.53,247.77s-.07,0-.19-.15-.3-.28-.51-.52a8.31,8.31,0,0,1-1.41-2.41,9.68,9.68,0,0,1-.52-4.39,8.87,8.87,0,0,1,2.47-5.28c1.59-1.6,3.93-2.38,6-3.66a7.12,7.12,0,0,0,2.68-2.63,6.51,6.51,0,0,0,.66-3.89,13.87,13.87,0,0,0-4-7.65c-2.1-2.25-4.65-4.29-6.53-7.09a11.63,11.63,0,0,1-1.88-4.58,14.87,14.87,0,0,1,0-4.8,38.9,38.9,0,0,1,2.63-8.6,35.119,35.119,0,0,0,2.31-7.68,13.8,13.8,0,0,0-.65-6.83,9.1,9.1,0,0,0-1.54-2.57,14.109,14.109,0,0,0-2-1.83,30.6,30.6,0,0,1-3.39-2.81,5.36,5.36,0,0,1-1.39-2.42,2.75,2.75,0,0,1-.08-1,3.326,3.326,0,0,0,.2.94,5.42,5.42,0,0,0,1.43,2.29,31.41,31.41,0,0,0,3.43,2.71,14.4,14.4,0,0,1,2.07,1.84,9.49,9.49,0,0,1,1.65,2.66,14,14,0,0,1,.74,7.05,34.88,34.88,0,0,1-2.28,7.81,39,39,0,0,0-2.57,8.49,14.329,14.329,0,0,0,0,4.62,11.15,11.15,0,0,0,1.79,4.36c1.81,2.7,4.34,4.74,6.46,7a14.37,14.37,0,0,1,4.09,8,7.06,7.06,0,0,1-.74,4.19,7.55,7.55,0,0,1-2.87,2.8c-2.22,1.3-4.51,2-6,3.54a8.56,8.56,0,0,0-2.44,5,9.64,9.64,0,0,0,.41,4.27A9.46,9.46,0,0,0,244.53,247.77Z" fill="#375a64"/>
          <path id="Trazado_185478" data-name="Trazado 185478" d="M276.2,240a2.22,2.22,0,0,1-.3-.52,5.851,5.851,0,0,1-.56-1.61,10.29,10.29,0,0,1-.15-2.71,24.9,24.9,0,0,1,.55-3.53c.27-1.29.61-2.69.81-4.21a15,15,0,0,0,.14-2.35,11.659,11.659,0,0,0-.38-2.44,12.91,12.91,0,0,0-2.58-4.64,45.392,45.392,0,0,0-4.07-4.16,51.058,51.058,0,0,1-4.13-4.21,16.13,16.13,0,0,1-2.86-4.72,17.16,17.16,0,0,1-.45-9.25,41.566,41.566,0,0,1,1.69-6c.25-.69.45-1.23.6-1.59a2.8,2.8,0,0,1,.24-.54,1.9,1.9,0,0,1-.13.58c-.13.43-.3,1-.49,1.62a51.8,51.8,0,0,0-1.51,6,17.07,17.07,0,0,0,.55,9c1.19,3.24,4,6,6.89,8.69a45.337,45.337,0,0,1,4.11,4.23,13,13,0,0,1,2.65,4.86,12.1,12.1,0,0,1,.38,2.57,14.72,14.72,0,0,1-.17,2.43c-.23,1.55-.6,3-.89,4.23a29.067,29.067,0,0,0-.63,3.47,10.211,10.211,0,0,0,.06,2.64,14.259,14.259,0,0,0,.63,2.16Z" fill="#375a64"/>
        </g>
      </g>
    </g>
  </g>
</svg>
