<svg xmlns="http://www.w3.org/2000/svg" width="150" height="150" viewBox="0 0 150 150">
  <g id="Grupo_94367" data-name="Grupo 94367" transform="translate(-1024 -9020)">
    <rect id="Rectángulo_39825" data-name="Rectángulo 39825" width="150" height="150" transform="translate(1024 9020)" fill="none"/>
    <path id="Trazado_191347" data-name="Trazado 191347" d="M108.58,13.34c.8.71,1.64,1.38,2.39,2.14,6.58,6.55,13.13,13.13,19.72,19.67a4.59,4.59,0,0,1,1.44,3.51v89.45c0,5.34-2.88,8.2-8.25,8.2H37.54c-5.34,0-8.2-2.88-8.21-8.24v-19c0-1.85.94-3,2.43-2.94s2.35,1.08,2.36,2.76v19.34c0,2.44.8,3.24,3.24,3.24h86.79c2.29,0,3.13-.84,3.13-3.11V40H113.24c-4.78,0-7.77-3-7.78-7.82V18.15H37.57c-2.7,0-3.43.73-3.43,3.41v2c2-.21,4-.45,5.93-.58,2.25-.15,3.2.77,3.2,3V54.07c0,2.14-.86,3-3,3H12.18a3.14,3.14,0,0,1-3-1.71V52a4.77,4.77,0,0,0,.22-.8c1.51-11.5,7.48-19.87,17.79-25,1.77-.89,2.31-1.77,2.23-3.63a13.71,13.71,0,0,1,.66-4.93c.82-2.42,2.95-3.54,5.28-4.26ZM14.24,52.18H38.37V28C24.89,28.92,14.67,40.78,14.24,52.18Zm109.29-17L110.3,22V33.12a2.16,2.16,0,0,0,2.24,2.09C116.24,35.22,119.9,35.18,123.53,35.18Z" transform="translate(1024.001 9020)" fill="#fff"/>
    <path id="Trazado_191348" data-name="Trazado 191348" d="M47.09,60.88v-26c0-2.54.8-3.32,3.3-3.25a31.7,31.7,0,1,1-32,37.9,38.8,38.8,0,0,1-.58-5.6c-.12-2.1.81-3,2.92-3H47.09Zm23-14.75c-.31.3-.63.59-.93.9-5.74,5.74-11.5,11.46-17.21,17.24a4.61,4.61,0,0,1-3.51,1.44H22.74a26.87,26.87,0,0,0,50.52,10.2C79,64.87,76.1,52.74,70.05,46.13ZM52,36.5V56.88L66.46,42.42A26.48,26.48,0,0,0,52,36.5Z" transform="translate(1024.001 9020)" fill="#ffa726"/>
    <path id="Trazado_191349" data-name="Trazado 191349" d="M71.91,94a7.13,7.13,0,0,1,6.82,8.84,1.51,1.51,0,0,0,.45,1.67q3.94,3.87,7.81,7.8a1.27,1.27,0,0,0,1.57.38,6.1,6.1,0,0,1,4.45,0,1.26,1.26,0,0,0,1.56-.38q6.21-6.25,12.47-12.47a1.4,1.4,0,0,0,.43-1.57,7.164,7.164,0,0,1,13.82-3.78,7,7,0,0,1-5.1,8.72,12.24,12.24,0,0,1-4.33-.22c-.64-.09-1-.18-1.55.34q-6.16,6.22-12.39,12.39a1.32,1.32,0,0,0-.39,1.56,7.06,7.06,0,0,1-2.65,8.06,7.22,7.22,0,0,1-8.32,0,7.07,7.07,0,0,1-2.64-8,1.46,1.46,0,0,0-.42-1.77c-2.52-2.46-5-5-7.47-7.47a1.24,1.24,0,0,0-1.66-.31,6.2,6.2,0,0,1-4.89.13,1.29,1.29,0,0,0-1.58.35q-3.69,3.76-7.47,7.47a1.22,1.22,0,0,0-.35,1.45,7.08,7.08,0,0,1-3,8.43,7.17,7.17,0,0,1-9.82-9.92,7.09,7.09,0,0,1,8.35-3,1.21,1.21,0,0,0,1.46-.33q3.74-3.81,7.55-7.55a1.32,1.32,0,0,0,.34-1.58A7.14,7.14,0,0,1,71.91,94Zm18.87,23.1a2.38,2.38,0,0,0-2.39,2.33,2.41,2.41,0,0,0,2.32,2.43,2.48,2.48,0,0,0,2.42-2.35,2.45,2.45,0,0,0-2.35-2.41Zm-37.43,4.77a2.49,2.49,0,0,0,2.36-2.42,2.46,2.46,0,0,0-2.41-2.35,2.39,2.39,0,0,0,.05,4.77Zm61-23.17a2.36,2.36,0,1,0-2.147-1.169A2.36,2.36,0,0,0,114.35,98.7Zm-40.16,2.49a2.37,2.37,0,1,0-2.42,2.32,2.41,2.41,0,0,0,2.38-2.32Z" transform="translate(1024.001 9020)" fill="#36d0bf"/>
    <path id="Trazado_191350" data-name="Trazado 191350" d="M104.33,51.53H90.17c-1.59,0-2.51-.65-2.78-1.91a2.25,2.25,0,0,1,1.47-2.67,4.88,4.88,0,0,1,1.53-.21h28c1.65,0,2.64.59,2.94,1.73.45,1.69-.71,3-2.68,3.06H104.33Z" transform="translate(1024.001 9020)" fill="#fff"/>
    <path id="Trazado_191351" data-name="Trazado 191351" d="M104.25,58.25h14.27c1.47,0,2.44.61,2.75,1.67a2.34,2.34,0,0,1-1.67,3,5.08,5.08,0,0,1-1.3.13H90.35a2.75,2.75,0,0,1-2.76-1.31c-.89-1.65.31-3.46,2.38-3.49h14.28Z" transform="translate(1024.001 9020)" fill="#fff"/>
    <path id="Trazado_191352" data-name="Trazado 191352" d="M96.09,69.78h5.87a2.464,2.464,0,0,1,2.77,2.35c.03,1.4-1.08,2.43-2.8,2.44H90.08a2.5,2.5,0,0,1-2.78-2.35c-.04-1.35,1.09-2.43,2.81-2.44C92.1,69.77,94.1,69.78,96.09,69.78Z" transform="translate(1024.001 9020)" fill="#fff"/>
    <path id="Trazado_191353" data-name="Trazado 191353" d="M110.94,72.15a2.294,2.294,0,1,1,2.31,2.42A2.39,2.39,0,0,1,110.94,72.15Z" transform="translate(1024.001 9020)" fill="#fff"/>
    <path id="Trazado_191354" data-name="Trazado 191354" d="M31.7,97.42a2.38,2.38,0,1,1-2.35,2.42,2.47,2.47,0,0,1,2.35-2.42Z" transform="translate(1024.001 9020)" fill="#fff"/>
  </g>
</svg>
