<?xml version="1.0" encoding="utf-8"?>
<!-- Generator: Adobe Illustrator 26.0.3, SVG Export Plug-In . SVG Version: 6.00 Build 0)  -->
<svg version="1.1" id="Layer_1" xmlns="http://www.w3.org/2000/svg" xmlns:xlink="http://www.w3.org/1999/xlink" x="0px" y="0px"
	 viewBox="0 0 443.3 397.6" style="enable-background:new 0 0 443.3 397.6;" xml:space="preserve">
<style type="text/css">
	.st0{fill:#35AFEA;}
	.st1{fill:none;stroke:#7395CB;stroke-width:5;stroke-linecap:round;stroke-miterlimit:10;}
	.st2{fill:#FFFFFF;}
</style>
<g id="Grupo_94266" transform="translate(-260 -1945)">
	<path id="Trazado_191459" class="st0" d="M566.9,1945c28.6,0,51.8,23.2,51.8,51.8c0,28.6-23.2,51.8-51.8,51.8s-51.8-23.2-51.8-51.8
		S538.3,1945,566.9,1945C566.9,1945,566.9,1945,566.9,1945z"/>
	<path id="Trazado_191460" class="st0" d="M481.5,2060.4c40.6,0,73.5,32.9,73.5,73.5s-32.9,73.5-73.5,73.5s-73.5-32.9-73.5-73.5
		c0,0,0,0,0,0C408,2093.3,440.9,2060.4,481.5,2060.4z"/>
	<path id="Trazado_191461" class="st0" d="M397.1,1945c28.6,0,51.8,23.2,51.8,51.8c0,28.6-23.2,51.8-51.8,51.8
		c-28.6,0-51.8-23.2-51.8-51.8S368.5,1945,397.1,1945C397.1,1945,397.1,1945,397.1,1945z"/>
	<path id="Trazado_191462" class="st0" d="M566.9,2239.1c28.6,0,51.8,23.2,51.8,51.8s-23.2,51.8-51.8,51.8s-51.8-23.2-51.8-51.8
		S538.3,2239.1,566.9,2239.1C566.9,2239.1,566.9,2239.1,566.9,2239.1z"/>
	<path id="Trazado_191463" class="st0" d="M651.5,2092.1c28.6,0,51.8,23.2,51.8,51.8s-23.2,51.8-51.8,51.8s-51.8-23.2-51.8-51.8
		S622.9,2092.1,651.5,2092.1C651.5,2092.1,651.5,2092.1,651.5,2092.1z"/>
	<path id="Trazado_191464" class="st0" d="M311.8,2092.1c28.6,0,51.8,23.2,51.8,51.8s-23.2,51.8-51.8,51.8
		c-28.6,0-51.8-23.2-51.8-51.8S283.2,2092.1,311.8,2092.1C311.8,2092.1,311.8,2092.1,311.8,2092.1z"/>
	<path id="Trazado_191465" class="st0" d="M397.1,2239.1c28.6,0,51.8,23.2,51.8,51.8s-23.2,51.8-51.8,51.8
		c-28.6,0-51.8-23.2-51.8-51.8S368.5,2239.1,397.1,2239.1C397.1,2239.1,397.1,2239.1,397.1,2239.1z"/>
	<path id="Trazado_185479" class="st1" d="M611.7,2034.8c12.7,15.2,22.7,32.5,29.5,51.1"/>
	<path id="Trazado_185480" class="st1" d="M641,2201.9c-6.8,18.6-16.8,35.9-29.6,51.1"/>
	<path id="Trazado_185481" class="st1" d="M511,2310.9c-19.5,3.4-39.5,3.4-59-0.1"/>
	<path id="Trazado_185482" class="st1" d="M351.6,2252.8c-12.7-15.2-22.7-32.5-29.5-51.1"/>
	<path id="Trazado_185483" class="st1" d="M322.3,2085.7c6.8-18.6,16.8-35.9,29.5-51.1"/>
	<path id="Trazado_185484" class="st1" d="M452.3,1976.8c19.5-3.4,39.5-3.4,59,0.1"/>
	<path id="Trazado_191466" class="st2" d="M551.2,1974.1h-1.4l-5-7.8c-0.1-0.2-0.2-0.4-0.3-0.6h0c0,0.4,0.1,0.9,0.1,1.3v7.1h-1.1
		v-9.8h1.5l4.9,7.7c0.2,0.3,0.3,0.5,0.4,0.7h0c-0.1-0.5-0.1-1-0.1-1.4v-6.9h1.1V1974.1z M554.2,1965.4c-0.2,0-0.4-0.1-0.5-0.2
		c-0.1-0.1-0.2-0.3-0.2-0.5c0-0.2,0.1-0.4,0.2-0.5c0.1-0.1,0.3-0.2,0.5-0.2c0.2,0,0.4,0.1,0.5,0.2c0.1,0.1,0.2,0.3,0.2,0.5
		c0,0.2-0.1,0.4-0.2,0.5C554.6,1965.3,554.4,1965.4,554.2,1965.4z M554.8,1974.1h-1.1v-7h1.1L554.8,1974.1z"/>
	<path id="Trazado_191467" class="st2" d="M562.1,1967.1l-2.8,7h-1.1l-2.6-7h1.2l1.8,5.1c0.1,0.3,0.2,0.6,0.2,1h0
		c0-0.3,0.1-0.6,0.2-0.9l1.9-5.1H562.1z"/>
	<path id="Trazado_191468" class="st2" d="M568.9,1970.9h-4.9c0,0.7,0.2,1.3,0.6,1.8c0.4,0.4,1,0.7,1.7,0.6c0.8,0,1.6-0.3,2.2-0.8
		v1.1c-0.7,0.5-1.6,0.7-2.4,0.7c-0.9,0-1.7-0.3-2.3-1c-0.6-0.8-0.9-1.7-0.8-2.7c0-1,0.3-1.9,0.9-2.7c0.6-0.7,1.4-1,2.3-1
		c0.8,0,1.6,0.3,2.1,0.9c0.5,0.7,0.8,1.6,0.8,2.5L568.9,1970.9z M567.7,1970c0-0.5-0.1-1.1-0.5-1.5c-0.3-0.4-0.8-0.6-1.3-0.5
		c-0.5,0-1,0.2-1.3,0.6c-0.4,0.4-0.6,0.9-0.7,1.5H567.7z M571.7,1974.1h-1.1v-10.4h1.1V1974.1z M583.8,1974.1h-1.1v-1.2h0
		c-0.5,0.9-1.4,1.4-2.4,1.4c-0.8,0-1.6-0.3-2.1-0.9c-0.6-0.7-0.8-1.6-0.8-2.6c0-1,0.3-2,0.9-2.8c0.6-0.7,1.4-1.1,2.3-1
		c0.9-0.1,1.7,0.4,2.1,1.1h0v-4.3h1.1L583.8,1974.1z M582.7,1971v-1c0-0.5-0.2-1.1-0.6-1.4c-0.4-0.4-0.9-0.6-1.4-0.6
		c-0.6,0-1.2,0.3-1.6,0.8c-0.4,0.6-0.6,1.3-0.6,2.1c0,0.7,0.2,1.4,0.6,1.9c0.4,0.5,0.9,0.7,1.5,0.7c0.6,0,1.1-0.2,1.5-0.7
		C582.5,1972.2,582.7,1971.6,582.7,1971z M591.7,1970.9h-4.9c0,0.7,0.2,1.3,0.6,1.8c0.4,0.4,1,0.7,1.7,0.6c0.8,0,1.6-0.3,2.2-0.8
		v1.1c-0.7,0.5-1.6,0.7-2.4,0.7c-0.9,0-1.7-0.3-2.3-1c-0.6-0.8-0.9-1.7-0.8-2.7c0-1,0.3-1.9,0.9-2.7c0.6-0.7,1.4-1,2.3-1
		c0.8,0,1.6,0.3,2.1,0.9c0.5,0.7,0.8,1.6,0.8,2.5L591.7,1970.9z M590.5,1970c0-0.5-0.1-1.1-0.5-1.5c-0.3-0.4-0.8-0.6-1.3-0.5
		c-0.5,0-1,0.2-1.3,0.6c-0.4,0.4-0.6,0.9-0.7,1.5L590.5,1970z"/>
	<path id="Trazado_191469" class="st2" d="M533.2,1990.6c-0.6,0.3-1.2,0.5-1.9,0.5c-0.9,0-1.8-0.3-2.4-1c-0.6-0.7-1-1.6-0.9-2.5
		c0-1,0.3-2,1-2.8c0.7-0.7,1.7-1.1,2.6-1c0.6,0,1.1,0.1,1.6,0.3v1.1c-0.5-0.4-1.1-0.5-1.7-0.5c-0.7,0-1.3,0.3-1.8,0.8
		c-0.5,0.6-0.7,1.3-0.7,2c0,0.7,0.2,1.4,0.7,1.9c0.4,0.5,1.1,0.7,1.7,0.7c0.6,0,1.2-0.2,1.7-0.6L533.2,1990.6z M539.9,1990.9h-1.1
		v-1.1h0c-0.4,0.8-1.3,1.3-2.2,1.3c-0.6,0-1.2-0.2-1.6-0.6c-0.4-0.4-0.6-0.9-0.6-1.5c0-1.3,0.8-2.1,2.3-2.3l2.1-0.3
		c0-1.2-0.5-1.8-1.4-1.8c-0.8,0-1.7,0.3-2.3,0.9v-1.1c0.7-0.4,1.5-0.7,2.4-0.7c1.6,0,2.5,0.9,2.5,2.6L539.9,1990.9z M538.7,1987.4
		l-1.7,0.2c-0.4,0-0.8,0.2-1.2,0.4c-0.3,0.2-0.4,0.6-0.4,1c0,0.3,0.1,0.6,0.4,0.8c0.3,0.2,0.6,0.3,1,0.3c0.5,0,1-0.2,1.4-0.6
		c0.4-0.4,0.6-0.9,0.5-1.5L538.7,1987.4z M543.1,1989.9L543.1,1989.9l0,4.2H542v-10.2h1.1v1.2h0c0.5-0.9,1.4-1.4,2.4-1.4
		c0.8,0,1.6,0.3,2.1,0.9c0.5,0.7,0.8,1.6,0.8,2.5c0.1,1-0.3,2-0.9,2.8c-0.6,0.7-1.4,1.1-2.3,1.1
		C544.4,1991.1,543.6,1990.7,543.1,1989.9z M543.1,1987.1v1c0,0.5,0.2,1.1,0.6,1.5c0.4,0.4,0.9,0.6,1.4,0.6c0.6,0,1.2-0.3,1.6-0.8
		c0.4-0.6,0.6-1.4,0.6-2.2c0-0.7-0.2-1.3-0.5-1.8c-0.4-0.4-0.9-0.7-1.5-0.7c-0.6,0-1.2,0.2-1.6,0.7
		C543.3,1985.9,543.1,1986.5,543.1,1987.1z M555.2,1990.9h-1.1v-1.1h0c-0.4,0.8-1.3,1.3-2.2,1.3c-0.6,0-1.2-0.2-1.6-0.6
		c-0.4-0.4-0.6-0.9-0.6-1.5c0-1.3,0.8-2.1,2.3-2.3l2.1-0.3c0-1.2-0.5-1.8-1.4-1.8c-0.8,0-1.7,0.3-2.3,0.9v-1.1
		c0.7-0.4,1.5-0.7,2.4-0.7c1.6,0,2.5,0.9,2.5,2.6L555.2,1990.9z M554.1,1987.4l-1.7,0.2c-0.4,0-0.8,0.2-1.2,0.4
		c-0.3,0.2-0.4,0.6-0.4,1c0,0.3,0.1,0.6,0.4,0.8c0.3,0.2,0.6,0.3,1,0.3c0.5,0,1-0.2,1.4-0.6c0.4-0.4,0.6-0.9,0.5-1.5L554.1,1987.4z
		 M562.1,1990.6c-0.6,0.3-1.2,0.5-1.9,0.5c-0.9,0-1.8-0.3-2.4-1c-0.6-0.7-1-1.6-0.9-2.5c0-1,0.3-2,1-2.8c0.7-0.7,1.7-1.1,2.6-1
		c0.6,0,1.1,0.1,1.6,0.3v1.1c-0.5-0.4-1.1-0.5-1.7-0.5c-0.7,0-1.3,0.3-1.8,0.8c-0.5,0.6-0.7,1.3-0.7,2c0,0.7,0.2,1.4,0.6,1.9
		c0.4,0.5,1.1,0.7,1.7,0.7c0.6,0,1.2-0.2,1.7-0.6L562.1,1990.6z M564.4,1982.2c-0.2,0-0.4-0.1-0.5-0.2c-0.1-0.1-0.2-0.3-0.2-0.5
		c0-0.2,0.1-0.4,0.2-0.5c0.1-0.1,0.3-0.2,0.5-0.2c0.2,0,0.4,0.1,0.5,0.2c0.1,0.1,0.2,0.3,0.2,0.5c0,0.2-0.1,0.4-0.2,0.5
		C564.8,1982.1,564.6,1982.2,564.4,1982.2L564.4,1982.2z M564.9,1990.9h-1.1v-7h1.1V1990.9z M573.2,1990.9H572v-1.2h0
		c-0.5,0.9-1.4,1.4-2.4,1.4c-0.8,0-1.6-0.3-2.1-0.9c-0.6-0.7-0.8-1.6-0.8-2.6c0-1,0.3-2,0.9-2.8c0.6-0.7,1.4-1.1,2.3-1
		c0.9-0.1,1.7,0.4,2.1,1.1h0v-4.3h1.1V1990.9z M572,1987.8v-1c0-0.5-0.2-1.1-0.6-1.4c-0.4-0.4-0.9-0.6-1.4-0.6
		c-0.6,0-1.2,0.3-1.6,0.8c-0.4,0.6-0.6,1.3-0.6,2.1c0,0.7,0.2,1.4,0.6,1.9c0.4,0.5,0.9,0.7,1.5,0.7c0.6,0,1.1-0.2,1.5-0.7
		C571.9,1989,572.1,1988.4,572,1987.8z M580.4,1990.9h-1.1v-1.1h0c-0.4,0.8-1.3,1.3-2.2,1.3c-0.6,0-1.2-0.2-1.6-0.6
		c-0.4-0.4-0.6-0.9-0.6-1.5c0-1.3,0.8-2.1,2.3-2.3l2.1-0.3c0-1.2-0.5-1.8-1.4-1.8c-0.8,0-1.7,0.3-2.3,0.9v-1.1
		c0.7-0.4,1.5-0.7,2.4-0.7c1.6,0,2.5,0.9,2.5,2.6L580.4,1990.9z M579.3,1987.4l-1.7,0.2c-0.4,0-0.8,0.2-1.2,0.4
		c-0.3,0.2-0.4,0.6-0.4,1c0,0.3,0.1,0.6,0.4,0.8c0.3,0.2,0.6,0.3,1,0.3c0.5,0,1-0.2,1.4-0.6c0.4-0.4,0.6-0.9,0.5-1.5L579.3,1987.4z
		 M588.5,1990.9h-1.1v-1.2h0c-0.5,0.9-1.4,1.4-2.4,1.4c-0.8,0-1.6-0.3-2.1-0.9c-0.6-0.7-0.8-1.6-0.8-2.6c0-1,0.3-2,0.9-2.8
		c0.6-0.7,1.4-1.1,2.3-1c0.9-0.1,1.7,0.4,2.1,1.1h0v-4.3h1.1L588.5,1990.9z M587.4,1987.8v-1c0-0.5-0.2-1-0.6-1.4
		c-0.4-0.4-0.9-0.6-1.4-0.6c-0.6,0-1.2,0.3-1.6,0.8c-0.4,0.6-0.6,1.3-0.6,2.1c0,0.7,0.2,1.4,0.6,1.9c0.4,0.5,0.9,0.7,1.5,0.7
		c0.6,0,1.1-0.2,1.5-0.7C587.2,1989,587.4,1988.4,587.4,1987.8z M600.5,1986c0,0.7-0.1,1.5-0.2,2.2c-0.1,0.6-0.3,1.1-0.6,1.6
		c-0.3,0.4-0.6,0.8-1,1c-0.4,0.2-0.9,0.3-1.4,0.3c-0.5,0-0.9-0.1-1.3-0.3c-0.4-0.2-0.7-0.6-1-0.9c-0.3-0.5-0.5-1-0.6-1.5
		c-0.1-0.7-0.2-1.4-0.2-2.1c0-0.8,0.1-1.5,0.2-2.3c0.1-0.6,0.3-1.1,0.6-1.7c0.3-0.4,0.6-0.8,1-1c0.4-0.2,0.9-0.3,1.4-0.3
		C599.4,1981,600.5,1982.6,600.5,1986z M599.3,1986.1c0-2.8-0.7-4.2-2-4.2c-1.4,0-2.1,1.4-2.1,4.3c0,2.6,0.7,4,2.1,4
		C598.6,1990.2,599.3,1988.8,599.3,1986.1L599.3,1986.1z M602.6,1985.3c-0.2,0-0.4-0.1-0.5-0.2c-0.1-0.1-0.2-0.3-0.2-0.5
		c0-0.2,0.1-0.4,0.2-0.5c0.1-0.1,0.3-0.2,0.5-0.2c0.2,0,0.4,0.1,0.5,0.2c0.1,0.1,0.2,0.3,0.2,0.5c0,0.2-0.1,0.4-0.2,0.5
		C603,1985.2,602.8,1985.3,602.6,1985.3L602.6,1985.3z M602.6,1991.1c-0.2,0-0.4-0.1-0.5-0.2c-0.1-0.1-0.2-0.3-0.2-0.5
		c0-0.2,0.1-0.4,0.2-0.5c0.1-0.1,0.3-0.2,0.5-0.2c0.2,0,0.4,0.1,0.5,0.2c0.1,0.1,0.2,0.3,0.2,0.5c0,0.2-0.1,0.4-0.2,0.5
		C603,1991,602.8,1991.1,602.6,1991.1L602.6,1991.1z"/>
	<path id="Trazado_191470" class="st2" d="M542.5,2007.7h-1.1v-4c0-1.5-0.5-2.2-1.6-2.2c-0.5,0-1,0.2-1.4,0.6
		c-0.4,0.4-0.6,1-0.5,1.6v4h-1.1v-7h1.1v1.2h0c0.5-0.8,1.3-1.4,2.3-1.3c0.7,0,1.3,0.2,1.8,0.7c0.4,0.6,0.7,1.4,0.6,2.1L542.5,2007.7
		z M549.3,2007.4c-0.6,0.3-1.2,0.5-1.9,0.5c-0.9,0-1.8-0.3-2.4-1c-0.6-0.7-1-1.6-0.9-2.5c0-1,0.3-2,1-2.8c0.7-0.7,1.7-1.1,2.6-1
		c0.6,0,1.1,0.1,1.6,0.3v1.1c-0.5-0.4-1.1-0.5-1.7-0.5c-0.7,0-1.3,0.3-1.8,0.8c-0.5,0.6-0.7,1.3-0.7,2c0,0.7,0.2,1.4,0.6,1.9
		c0.4,0.5,1.1,0.7,1.7,0.7c0.6,0,1.2-0.2,1.7-0.6L549.3,2007.4z M554,2007.9c-0.9,0-1.8-0.3-2.5-1c-0.6-0.7-1-1.6-0.9-2.6
		c-0.1-1,0.3-2,1-2.8c0.7-0.7,1.6-1,2.6-1c0.9-0.1,1.8,0.3,2.4,1c0.6,0.7,0.9,1.7,0.9,2.7c0,1-0.3,1.9-0.9,2.7
		C555.8,2007.6,554.9,2007.9,554,2007.9z M554,2001.5c-0.7,0-1.3,0.2-1.7,0.7c-0.4,0.6-0.7,1.3-0.6,2c0,0.7,0.2,1.4,0.6,2
		c0.4,0.5,1.1,0.7,1.7,0.7c0.6,0,1.3-0.2,1.7-0.7c0.4-0.6,0.6-1.3,0.6-2c0-0.7-0.2-1.4-0.6-2C555.3,2001.7,554.7,2001.5,554,2001.5z
		 M569.2,2007.7h-1.1v-4c0-0.6-0.1-1.2-0.4-1.7c-0.3-0.4-0.7-0.6-1.2-0.5c-0.5,0-0.9,0.3-1.2,0.7c-0.3,0.5-0.5,1-0.5,1.6v4h-1.1
		v-4.2c0-1.4-0.5-2.1-1.6-2.1c-0.5,0-0.9,0.2-1.2,0.6c-0.3,0.5-0.5,1-0.5,1.6v4h-1.1v-7h1.1v1.1h0c0.4-0.8,1.3-1.3,2.2-1.3
		c0.4,0,0.9,0.1,1.3,0.4c0.4,0.3,0.6,0.6,0.7,1c0.4-0.9,1.3-1.5,2.3-1.4c1.5,0,2.3,1,2.3,2.9L569.2,2007.7z M572.4,2006.7
		L572.4,2006.7l0,4.2h-1.1v-10.2h1.1v1.2h0c0.5-0.9,1.4-1.4,2.4-1.4c0.8,0,1.6,0.3,2.1,0.9c0.5,0.7,0.8,1.6,0.8,2.5
		c0.1,1-0.2,2-0.9,2.8c-0.6,0.7-1.4,1.1-2.3,1.1C573.7,2007.9,572.9,2007.5,572.4,2006.7z M572.4,2003.9v1c0,0.5,0.2,1.1,0.6,1.5
		c0.4,0.4,0.9,0.6,1.4,0.6c0.6,0,1.2-0.3,1.6-0.8c0.4-0.6,0.6-1.4,0.6-2.2c0-0.7-0.2-1.3-0.5-1.8c-0.4-0.4-0.9-0.7-1.5-0.7
		c-0.6,0-1.2,0.2-1.6,0.7C572.6,2002.7,572.4,2003.3,572.4,2003.9z M580.6,2007.7h-1.1v-10.4h1.1V2007.7z M588.5,2004.5h-4.9
		c0,0.7,0.2,1.3,0.6,1.8c0.4,0.4,1,0.7,1.7,0.6c0.8,0,1.6-0.3,2.2-0.8v1.1c-0.7,0.5-1.6,0.7-2.4,0.7c-0.9,0-1.7-0.3-2.3-1
		c-0.6-0.8-0.9-1.7-0.8-2.7c0-1,0.3-1.9,0.9-2.7c0.6-0.7,1.4-1,2.3-1c0.8,0,1.6,0.3,2.1,0.9c0.5,0.7,0.8,1.6,0.8,2.5L588.5,2004.5z
		 M587.4,2003.6c0-0.5-0.1-1.1-0.5-1.5c-0.3-0.4-0.8-0.6-1.3-0.5c-0.5,0-1,0.2-1.3,0.6c-0.4,0.4-0.6,0.9-0.7,1.5H587.4z
		 M534.1,1998.9c-0.2,0-0.4-0.1-0.5-0.2c-0.1-0.1-0.2-0.3-0.2-0.5c0-0.2,0.1-0.4,0.2-0.5c0.1-0.1,0.3-0.2,0.5-0.2
		c0.2,0,0.4,0.1,0.5,0.2c0.1,0.1,0.2,0.3,0.2,0.5c0,0.2-0.1,0.4-0.2,0.5C534.5,1998.9,534.3,1998.9,534.1,1998.9z M534.7,2007.7
		h-1.1v-7h1.1L534.7,2007.7z"/>
	<path id="Trazado_191471" class="st2" d="M593.9,2007.7c-0.3,0.2-0.7,0.2-1,0.2c-1.2,0-1.8-0.7-1.8-2.1v-4.1h-1.2v-1h1.2v-1.7
		l1.1-0.4v2.1h1.8v1h-1.8v3.9c0,0.4,0.1,0.7,0.2,1c0.2,0.2,0.5,0.3,0.8,0.3c0.3,0,0.5-0.1,0.7-0.2L593.9,2007.7z"/>
	<path id="Trazado_191472" class="st2" d="M598.1,2007.9c-0.9,0-1.8-0.3-2.5-1c-0.6-0.7-1-1.6-0.9-2.6c-0.1-1,0.3-2,1-2.8
		c0.7-0.7,1.6-1,2.6-1c0.9-0.1,1.8,0.3,2.4,1c0.6,0.7,0.9,1.7,0.9,2.7c0,1-0.3,1.9-0.9,2.7C599.9,2007.6,599,2007.9,598.1,2007.9z
		 M598.1,2001.5c-0.7,0-1.3,0.2-1.7,0.7c-0.4,0.6-0.7,1.3-0.6,2c0,0.7,0.2,1.4,0.6,2c0.4,0.5,1.1,0.7,1.7,0.7c0.6,0,1.3-0.2,1.7-0.7
		c0.4-0.6,0.6-1.3,0.6-2c0-0.7-0.2-1.4-0.6-2C599.4,2001.7,598.8,2001.5,598.1,2001.5z"/>
	<path id="Trazado_191473" class="st2" d="M453.4,2111.9h-2.7l-4.9-7.5c-0.2-0.3-0.4-0.6-0.6-1h0c0,0.4,0.1,1.1,0.1,1.9v6.5h-2.5
		V2100h2.9l4.7,7.2c0.2,0.3,0.4,0.7,0.6,1h0c-0.1-0.5-0.1-1.1-0.1-1.6v-6.6h2.5L453.4,2111.9z M457.2,2102.1c-0.4,0-0.8-0.1-1.1-0.4
		c-0.3-0.2-0.4-0.6-0.4-1c0-0.4,0.1-0.7,0.4-1c0.3-0.3,0.7-0.4,1.1-0.4c0.4,0,0.8,0.1,1.1,0.4c0.3,0.2,0.4,0.6,0.4,1
		c0,0.4-0.1,0.7-0.4,1C458,2102,457.6,2102.1,457.2,2102.1L457.2,2102.1z M458.5,2111.9h-2.6v-8.5h2.6V2111.9z"/>
	<path id="Trazado_191474" class="st2" d="M467.1,2103.4l-3.2,8.5h-3l-3-8.5h2.8l1.5,5.2c0.1,0.5,0.2,1,0.3,1.5h0
		c0.1-0.5,0.2-1,0.3-1.5l1.5-5.3H467.1z"/>
	<path id="Trazado_191475" class="st2" d="M475.1,2108.4h-5.5c0.1,1.2,0.9,1.9,2.3,1.9c0.9,0,1.7-0.2,2.5-0.7v1.9
		c-1,0.5-2,0.7-3.1,0.6c-1.2,0.1-2.3-0.3-3.2-1.1c-0.8-0.9-1.2-2-1.1-3.2c-0.1-1.2,0.4-2.4,1.2-3.4c0.8-0.8,1.9-1.3,3-1.2
		c1.1-0.1,2.1,0.3,2.9,1.1c0.7,0.8,1.1,1.9,1,3V2108.4z M472.7,2106.8c0-1.2-0.5-1.8-1.5-1.8c-0.4,0-0.8,0.2-1.1,0.5
		c-0.3,0.4-0.5,0.8-0.6,1.3L472.7,2106.8z M479.3,2111.9h-2.6v-12.6h2.6L479.3,2111.9z M489.1,2108.4h-5.5c0.1,1.2,0.9,1.9,2.3,1.9
		c0.9,0,1.7-0.2,2.5-0.7v1.9c-1,0.5-2,0.7-3.1,0.6c-1.2,0.1-2.3-0.3-3.2-1.1c-0.8-0.9-1.2-2-1.1-3.2c-0.1-1.2,0.4-2.5,1.2-3.4
		c0.8-0.8,1.9-1.3,3-1.2c1.1-0.1,2.1,0.3,2.9,1.1c0.7,0.8,1.1,1.9,1,3L489.1,2108.4z M486.7,2106.8c0-1.2-0.5-1.8-1.5-1.8
		c-0.4,0-0.8,0.2-1.1,0.5c-0.3,0.4-0.5,0.8-0.6,1.3L486.7,2106.8z M490.1,2111.7v-2.1c0.4,0.2,0.8,0.4,1.3,0.6
		c0.4,0.1,0.8,0.2,1.2,0.2c0.4,0,0.8,0,1.1-0.2c0.2-0.1,0.4-0.3,0.4-0.6c0-0.2-0.1-0.3-0.2-0.4c-0.1-0.1-0.3-0.2-0.5-0.3
		c-0.2-0.1-0.4-0.2-0.6-0.2c-0.2-0.1-0.4-0.1-0.7-0.2c-0.3-0.1-0.6-0.3-0.9-0.4c-0.2-0.1-0.5-0.3-0.6-0.5c-0.2-0.2-0.3-0.4-0.4-0.7
		c-0.1-0.3-0.1-0.6-0.1-0.9c0-0.4,0.1-0.9,0.3-1.2c0.2-0.3,0.5-0.6,0.8-0.8c0.4-0.2,0.8-0.4,1.2-0.5c0.5-0.1,0.9-0.2,1.4-0.2
		c0.4,0,0.8,0,1.1,0.1c0.4,0.1,0.8,0.1,1.1,0.3v2c-0.3-0.2-0.7-0.3-1.1-0.4c-0.4-0.1-0.7-0.1-1.1-0.1c-0.2,0-0.3,0-0.5,0
		c-0.1,0-0.3,0.1-0.4,0.1c-0.1,0.1-0.2,0.1-0.3,0.2c-0.1,0.1-0.1,0.2-0.1,0.3c0,0.1,0,0.3,0.1,0.4c0.1,0.1,0.2,0.2,0.4,0.3
		c0.2,0.1,0.4,0.2,0.5,0.2c0.2,0.1,0.4,0.1,0.6,0.2c0.3,0.1,0.6,0.2,0.9,0.4c0.3,0.1,0.5,0.3,0.7,0.5c0.2,0.2,0.4,0.4,0.5,0.7
		c0.1,0.3,0.2,0.6,0.2,0.9c0,0.5-0.1,0.9-0.3,1.3c-0.2,0.4-0.5,0.7-0.9,0.9c-0.4,0.2-0.8,0.4-1.3,0.5c-0.5,0.1-1,0.2-1.5,0.2
		C491.8,2112.2,491,2112,490.1,2111.7z M511.2,2111.9h-2.6v-1.2h0c-0.6,0.9-1.6,1.4-2.6,1.4c-1,0-1.9-0.4-2.6-1.1
		c-0.7-0.9-1-2-1-3.1c-0.1-1.2,0.3-2.4,1.1-3.4c0.7-0.8,1.7-1.3,2.8-1.3c0.9-0.1,1.8,0.4,2.3,1.2h0v-5.1h2.6V2111.9z M508.6,2107.8
		v-0.6c0-0.5-0.2-1-0.5-1.4c-0.3-0.4-0.8-0.6-1.3-0.5c-0.5,0-1.1,0.2-1.4,0.7c-0.4,0.6-0.5,1.2-0.5,1.9c0,0.6,0.1,1.2,0.5,1.7
		c0.3,0.4,0.8,0.6,1.3,0.6c0.5,0,1-0.2,1.3-0.6C508.5,2109,508.6,2108.4,508.6,2107.8z M521,2108.4h-5.5c0.1,1.2,0.9,1.9,2.3,1.9
		c0.9,0,1.7-0.2,2.5-0.7v1.9c-1,0.5-2,0.7-3.1,0.6c-1.2,0.1-2.3-0.3-3.2-1.1c-0.8-0.9-1.2-2-1.1-3.2c-0.1-1.2,0.4-2.5,1.2-3.4
		c0.8-0.8,1.9-1.3,3-1.2c1.1-0.1,2.1,0.3,2.9,1.1c0.7,0.8,1.1,1.9,1,3L521,2108.4z M518.6,2106.8c0-1.2-0.5-1.8-1.5-1.8
		c-0.4,0-0.8,0.2-1.1,0.5c-0.3,0.4-0.5,0.8-0.6,1.3L518.6,2106.8z"/>
	<path id="Trazado_191476" class="st2" d="M435.8,2132c-0.8,0.4-1.7,0.6-2.6,0.5c-1.2,0-2.3-0.4-3.2-1.2c-0.8-0.8-1.3-1.9-1.2-3.1
		c-0.1-1.3,0.4-2.5,1.3-3.4c0.9-0.9,2.2-1.3,3.5-1.2c0.7-0.1,1.5,0.1,2.2,0.4v2.2c-0.5-0.4-1.2-0.6-1.8-0.6c-0.7,0-1.3,0.2-1.8,0.7
		c-0.5,0.5-0.7,1.1-0.7,1.8c0,0.7,0.2,1.3,0.6,1.8c0.5,0.4,1.1,0.7,1.7,0.6c0.7,0,1.4-0.2,1.9-0.6V2132z M444.6,2132.3h-2.5v-1.2h0
		c-0.5,0.9-1.5,1.5-2.5,1.4c-0.7,0-1.4-0.2-1.9-0.7c-0.5-0.5-0.7-1.2-0.7-1.9c0-1.6,1-2.6,2.9-2.9l2.3-0.3c0-0.9-0.5-1.4-1.5-1.4
		c-1,0-2,0.3-2.9,0.9v-2c0.5-0.2,1-0.4,1.5-0.5c0.6-0.1,1.1-0.2,1.7-0.2c2.4,0,3.6,1.2,3.6,3.6V2132.3z M442.1,2128.9v-0.6l-1.5,0.2
		c-0.9,0.1-1.3,0.5-1.3,1.2c0,0.3,0.1,0.5,0.3,0.7c0.2,0.2,0.5,0.3,0.8,0.3c0.5,0,0.9-0.2,1.2-0.5
		C442,2129.8,442.2,2129.4,442.1,2128.9z M449.3,2131.4L449.3,2131.4l0,4.9h-2.6v-12.4h2.6v1.3h0c0.6-1,1.6-1.5,2.7-1.5
		c1-0.1,1.9,0.4,2.6,1.1c0.6,0.9,1,2,0.9,3.1c0.1,1.2-0.3,2.4-1.1,3.4c-0.7,0.8-1.7,1.3-2.8,1.3
		C450.7,2132.6,449.9,2132.1,449.3,2131.4L449.3,2131.4z M449.3,2127.9v0.7c0,0.5,0.1,1,0.5,1.4c0.3,0.4,0.7,0.6,1.2,0.6
		c0.6,0,1.1-0.2,1.4-0.7c0.4-0.6,0.5-1.3,0.5-2c0-1.5-0.6-2.2-1.7-2.2c-0.5,0-1,0.2-1.3,0.6C449.4,2126.7,449.2,2127.3,449.3,2127.9
		L449.3,2127.9z M464.1,2132.3h-2.5v-1.2h0c-0.5,0.9-1.5,1.5-2.5,1.4c-0.7,0-1.4-0.2-1.9-0.7c-0.5-0.5-0.7-1.2-0.7-1.9
		c0-1.6,1-2.6,2.9-2.9l2.3-0.3c0-0.9-0.5-1.4-1.5-1.4c-1,0-2,0.3-2.9,0.9v-2c0.5-0.2,1-0.4,1.5-0.5c0.6-0.1,1.1-0.2,1.7-0.2
		c2.4,0,3.6,1.2,3.6,3.6L464.1,2132.3z M461.7,2128.9v-0.6l-1.5,0.2c-0.9,0.1-1.3,0.5-1.3,1.2c0,0.3,0.1,0.5,0.3,0.7
		c0.2,0.2,0.5,0.3,0.8,0.3c0.5,0,0.9-0.2,1.2-0.5C461.5,2129.8,461.7,2129.4,461.7,2128.9z M472.6,2132c-0.8,0.4-1.7,0.6-2.6,0.5
		c-1.2,0.1-2.3-0.4-3.2-1.2c-0.8-0.8-1.3-1.9-1.2-3.1c-0.1-1.3,0.4-2.5,1.3-3.4c0.9-0.9,2.2-1.3,3.5-1.2c0.7-0.1,1.5,0.1,2.2,0.4
		v2.2c-0.5-0.4-1.2-0.6-1.8-0.6c-0.7,0-1.3,0.2-1.8,0.7c-0.5,0.5-0.7,1.1-0.7,1.8c0,0.7,0.2,1.3,0.6,1.8c0.5,0.4,1.1,0.7,1.7,0.6
		c0.7,0,1.4-0.2,1.9-0.6V2132z M475.7,2122.5c-0.4,0-0.8-0.1-1.1-0.4c-0.3-0.2-0.4-0.6-0.4-1c0-0.4,0.1-0.7,0.4-1
		c0.3-0.3,0.7-0.4,1.1-0.4c0.4,0,0.8,0.1,1.1,0.4c0.3,0.2,0.4,0.6,0.4,1c0,0.4-0.1,0.7-0.4,1
		C476.5,2122.4,476.1,2122.5,475.7,2122.5z M477,2132.3h-2.6v-8.5h2.6V2132.3z M487.5,2132.3h-2.6v-1.2h0c-0.6,0.9-1.6,1.4-2.6,1.4
		c-1,0-1.9-0.4-2.6-1.1c-0.7-0.9-1-2-1-3.1c-0.1-1.2,0.3-2.4,1.1-3.4c0.7-0.8,1.7-1.3,2.8-1.3c0.9-0.1,1.8,0.4,2.3,1.2h0v-5.1h2.6
		L487.5,2132.3z M484.9,2128.2v-0.6c0-0.5-0.2-1-0.5-1.4c-0.3-0.4-0.8-0.6-1.3-0.5c-0.5,0-1.1,0.2-1.4,0.7c-0.4,0.6-0.5,1.2-0.5,1.9
		c0,0.6,0.1,1.2,0.5,1.7c0.3,0.4,0.8,0.6,1.3,0.6c0.5,0,1-0.2,1.3-0.6C484.8,2129.4,485,2128.8,484.9,2128.2z M496.8,2132.3h-2.5
		v-1.2h0c-0.5,0.9-1.5,1.5-2.5,1.4c-0.7,0-1.4-0.2-1.9-0.7c-0.5-0.5-0.7-1.2-0.7-1.9c0-1.6,1-2.6,2.9-2.9l2.3-0.3
		c0-0.9-0.5-1.4-1.5-1.4c-1,0-2,0.3-2.9,0.9v-2c0.5-0.2,1-0.4,1.5-0.5c0.6-0.1,1.1-0.2,1.7-0.2c2.4,0,3.6,1.2,3.6,3.6L496.8,2132.3z
		 M494.3,2128.9v-0.6l-1.5,0.2c-0.9,0.1-1.3,0.5-1.3,1.2c0,0.3,0.1,0.5,0.3,0.7c0.2,0.2,0.5,0.3,0.8,0.3c0.5,0,0.9-0.2,1.2-0.5
		C494.2,2129.8,494.3,2129.4,494.3,2128.9z M507.2,2132.3h-2.6v-1.2h0c-0.6,0.9-1.6,1.4-2.6,1.4c-1,0-1.9-0.4-2.6-1.1
		c-0.7-0.9-1-2-1-3.1c-0.1-1.2,0.3-2.4,1.1-3.4c0.7-0.8,1.7-1.3,2.8-1.3c0.9-0.1,1.8,0.4,2.3,1.2h0v-5.1h2.6V2132.3z M504.6,2128.2
		v-0.6c0-0.5-0.2-1-0.5-1.4c-0.3-0.4-0.8-0.6-1.3-0.5c-0.5,0-1.1,0.2-1.4,0.7c-0.4,0.6-0.5,1.2-0.5,1.9c0,0.6,0.1,1.2,0.5,1.7
		c0.3,0.4,0.8,0.6,1.3,0.6c0.5,0,1-0.2,1.3-0.6C504.5,2129.4,504.6,2128.8,504.6,2128.2z M522.4,2132.3h-2.6v-1.2h0
		c-0.6,0.9-1.6,1.4-2.6,1.4c-1,0-1.9-0.4-2.6-1.1c-0.7-0.9-1-2-1-3.1c-0.1-1.2,0.3-2.4,1.1-3.4c0.7-0.8,1.7-1.3,2.8-1.3
		c0.9-0.1,1.8,0.4,2.3,1.2h0v-5.1h2.6V2132.3z M519.8,2128.2v-0.6c0-0.5-0.2-1-0.5-1.4c-0.3-0.4-0.8-0.6-1.3-0.5
		c-0.5,0-1.1,0.2-1.4,0.7c-0.4,0.6-0.5,1.2-0.5,1.9c0,0.6,0.1,1.2,0.5,1.7c0.3,0.4,0.8,0.6,1.3,0.6c0.5,0,1-0.2,1.3-0.6
		C519.7,2129.4,519.9,2128.8,519.8,2128.2z M532.2,2128.8h-5.5c0.1,1.2,0.9,1.9,2.3,1.9c0.9,0,1.7-0.2,2.5-0.7v1.9
		c-1,0.5-2,0.7-3.1,0.6c-1.2,0.1-2.3-0.3-3.2-1.1c-0.8-0.9-1.2-2-1.1-3.2c-0.1-1.2,0.4-2.5,1.2-3.4c0.8-0.8,1.9-1.3,3-1.2
		c1.1-0.1,2.1,0.3,2.9,1.1c0.7,0.8,1.1,1.9,1,3L532.2,2128.8z M529.8,2127.2c0-1.2-0.5-1.8-1.5-1.8c-0.4,0-0.8,0.2-1.1,0.5
		c-0.3,0.4-0.5,0.8-0.6,1.3L529.8,2127.2z M536.4,2132.3h-2.6v-12.6h2.6V2132.3z"/>
	<path id="Trazado_191477" class="st2" d="M442.1,2152.7h-2.6v-4.8c0-1.2-0.5-1.9-1.4-1.9c-0.4,0-0.8,0.2-1.1,0.6
		c-0.3,0.4-0.4,0.9-0.4,1.4v4.8h-2.6v-4.9c0-1.2-0.4-1.8-1.3-1.8c-0.4,0-0.8,0.2-1.1,0.5c-0.3,0.4-0.4,0.9-0.4,1.4v4.7h-2.6v-8.5
		h2.6v1.3h0c0.3-0.5,0.7-0.8,1.1-1.1c0.5-0.3,1-0.4,1.6-0.4c1.1-0.1,2.1,0.6,2.5,1.6c0.6-1,1.7-1.6,2.9-1.6c1.8,0,2.8,1.1,2.8,3.4
		V2152.7z M448.2,2152.9c-1.2,0.1-2.4-0.4-3.3-1.2c-0.8-0.9-1.3-2-1.2-3.2c-0.1-1.2,0.4-2.4,1.3-3.3c0.9-0.8,2.2-1.3,3.4-1.2
		c1.2-0.1,2.4,0.4,3.3,1.2c0.8,0.8,1.3,2,1.2,3.2c0.1,1.2-0.4,2.4-1.2,3.3C450.7,2152.6,449.5,2153,448.2,2152.9L448.2,2152.9z
		 M448.3,2146c-0.6,0-1.1,0.2-1.4,0.6c-0.4,0.5-0.6,1.2-0.5,1.8c0,1.6,0.7,2.4,2,2.4c1.3,0,1.9-0.8,1.9-2.5
		C450.2,2146.8,449.6,2146,448.3,2146z M462.9,2152.7h-2.6v-1.2h0c-0.6,0.9-1.6,1.4-2.6,1.4c-1,0-1.9-0.4-2.6-1.1
		c-0.7-0.9-1-2-1-3.1c-0.1-1.2,0.3-2.4,1.1-3.4c0.7-0.8,1.7-1.3,2.8-1.3c0.9-0.1,1.8,0.4,2.3,1.2h0v-5.1h2.6V2152.7z M460.3,2148.6
		v-0.6c0-0.5-0.2-1-0.5-1.4c-0.3-0.4-0.8-0.6-1.3-0.5c-0.5,0-1.1,0.2-1.4,0.7c-0.4,0.6-0.5,1.2-0.5,1.9c0,0.6,0.1,1.2,0.5,1.7
		c0.3,0.4,0.8,0.6,1.3,0.6c0.5,0,1-0.2,1.3-0.6C460.2,2149.8,460.4,2149.2,460.3,2148.6z M472.8,2149.2h-5.5
		c0.1,1.2,0.9,1.9,2.3,1.9c0.9,0,1.7-0.2,2.5-0.7v1.9c-1,0.5-2,0.7-3.1,0.6c-1.2,0.1-2.3-0.3-3.2-1.1c-0.8-0.9-1.2-2-1.1-3.2
		c-0.1-1.2,0.4-2.5,1.2-3.4c0.8-0.8,1.9-1.3,3-1.2c1.1-0.1,2.1,0.3,2.9,1.1c0.7,0.8,1.1,1.9,1,3L472.8,2149.2z M470.3,2147.6
		c0-1.2-0.5-1.8-1.5-1.8c-0.4,0-0.8,0.2-1.1,0.5c-0.3,0.4-0.5,0.8-0.6,1.3L470.3,2147.6z M476.9,2152.7h-2.6v-12.6h2.6V2152.7z
		 M483.2,2152.9c-1.2,0.1-2.4-0.4-3.3-1.2c-0.8-0.9-1.3-2-1.2-3.2c-0.1-1.2,0.4-2.4,1.3-3.3c0.9-0.8,2.2-1.3,3.4-1.2
		c1.2-0.1,2.4,0.4,3.3,1.2c0.8,0.8,1.3,2,1.2,3.2c0.1,1.2-0.4,2.4-1.2,3.3C485.7,2152.6,484.4,2153,483.2,2152.9L483.2,2152.9z
		 M483.3,2146c-0.6,0-1.1,0.2-1.4,0.6c-0.4,0.5-0.6,1.2-0.5,1.8c0,1.6,0.7,2.4,2,2.4c1.3,0,1.9-0.8,1.9-2.5
		C485.2,2146.8,484.5,2146,483.3,2146z M503,2152.3c-1.1,0.5-2.2,0.7-3.4,0.6c-1.6,0.1-3.2-0.5-4.3-1.6c-1.1-1.2-1.6-2.7-1.6-4.3
		c-0.1-1.7,0.6-3.4,1.8-4.6c1.2-1.2,2.9-1.8,4.6-1.8c1,0,2,0.1,2.9,0.4v2.6c-0.8-0.5-1.8-0.7-2.7-0.7c-1,0-2,0.3-2.7,1.1
		c-0.7,0.8-1.1,1.8-1,2.9c-0.1,1,0.3,2,1,2.8c0.7,0.7,1.6,1.1,2.6,1c1,0,2-0.3,2.9-0.8V2152.3z M518.7,2152.7H516v-7.1
		c0-0.8,0-1.6,0.1-2.5H516c-0.1,0.5-0.2,1.1-0.4,1.6l-2.8,8.1h-2.2l-2.8-8c-0.2-0.5-0.3-1.1-0.4-1.7h-0.1c0.1,1.2,0.1,2.2,0.1,3.1
		v6.6h-2.4v-11.9h3.9l2.4,7.1c0.2,0.6,0.3,1.1,0.4,1.7h0c0.1-0.6,0.3-1.2,0.5-1.7l2.4-7h3.8L518.7,2152.7z M534.9,2152.7h-2.6v-7.1
		c0-0.8,0-1.6,0.1-2.5h-0.1c-0.1,0.5-0.2,1.1-0.4,1.6l-2.8,8.1H527l-2.8-8c-0.2-0.5-0.3-1.1-0.4-1.7h-0.1c0.1,1.2,0.1,2.2,0.1,3.1
		v6.6h-2.4v-11.9h3.9l2.4,7.1c0.2,0.6,0.3,1.1,0.4,1.7h0c0.1-0.6,0.3-1.2,0.5-1.7l2.4-7h3.8V2152.7z M540.3,2152.7h-2.7v-11.9h2.7
		L540.3,2152.7z"/>
	<path id="Trazado_191478" class="st2" d="M635.9,2126.9h-1.4l-5-7.8c-0.1-0.2-0.2-0.4-0.3-0.6h0c0,0.4,0.1,0.9,0.1,1.3v7.1H628
		v-9.8h1.5l4.9,7.7c0.2,0.3,0.3,0.5,0.4,0.7h0c-0.1-0.5-0.1-1-0.1-1.4v-6.9h1.1V2126.9z M638.9,2118.2c-0.2,0-0.4-0.1-0.5-0.2
		c-0.1-0.1-0.2-0.3-0.2-0.5c0-0.2,0.1-0.4,0.2-0.5c0.1-0.1,0.3-0.2,0.5-0.2c0.2,0,0.4,0.1,0.5,0.2c0.1,0.1,0.2,0.3,0.2,0.5
		c0,0.2-0.1,0.4-0.2,0.5C639.3,2118.1,639.1,2118.2,638.9,2118.2z M639.4,2126.9h-1.1v-7h1.1L639.4,2126.9z"/>
	<path id="Trazado_191479" class="st2" d="M646.7,2119.9l-2.8,7h-1.1l-2.6-7h1.2l1.8,5.1c0.1,0.3,0.2,0.6,0.2,1h0
		c0-0.3,0.1-0.6,0.2-0.9l1.9-5.1H646.7z"/>
	<path id="Trazado_191480" class="st2" d="M653.5,2123.7h-4.9c0,0.7,0.2,1.3,0.6,1.8c0.4,0.4,1,0.7,1.7,0.6c0.8,0,1.6-0.3,2.2-0.8
		v1.1c-0.7,0.5-1.6,0.7-2.4,0.7c-0.9,0-1.7-0.3-2.3-1c-0.6-0.8-0.9-1.7-0.8-2.7c0-1,0.3-1.9,0.9-2.7c0.6-0.7,1.4-1,2.3-1
		c0.8,0,1.6,0.3,2.1,0.9c0.5,0.7,0.8,1.6,0.8,2.5L653.5,2123.7z M652.4,2122.8c0-0.5-0.1-1.1-0.5-1.5c-0.3-0.4-0.8-0.6-1.3-0.5
		c-0.5,0-1,0.2-1.3,0.6c-0.4,0.4-0.6,0.9-0.7,1.5H652.4z M656.3,2126.9h-1.1v-10.4h1.1V2126.9z M668.4,2126.9h-1.1v-1.2h0
		c-0.5,0.9-1.4,1.4-2.4,1.4c-0.8,0-1.6-0.3-2.1-0.9c-0.6-0.7-0.8-1.6-0.8-2.6c0-1,0.3-2,0.9-2.8c0.6-0.7,1.4-1.1,2.3-1
		c0.9-0.1,1.7,0.4,2.1,1.1h0v-4.3h1.1L668.4,2126.9z M667.3,2123.8v-1c0-0.5-0.2-1.1-0.6-1.4c-0.4-0.4-0.9-0.6-1.4-0.6
		c-0.6,0-1.2,0.3-1.6,0.8c-0.4,0.6-0.6,1.3-0.6,2.1c0,0.7,0.2,1.4,0.6,1.9c0.4,0.5,0.9,0.7,1.5,0.7c0.6,0,1.1-0.2,1.5-0.7
		C667.1,2125,667.3,2124.4,667.3,2123.8z M676.3,2123.7h-4.9c0,0.7,0.2,1.3,0.6,1.8c0.4,0.4,1,0.7,1.7,0.6c0.8,0,1.6-0.3,2.2-0.8
		v1.1c-0.7,0.5-1.6,0.7-2.4,0.7c-0.9,0-1.7-0.3-2.3-1c-0.6-0.8-0.9-1.7-0.8-2.7c0-1,0.3-1.9,0.9-2.7c0.6-0.7,1.4-1,2.3-1
		c0.8,0,1.6,0.3,2.1,0.9c0.5,0.7,0.8,1.6,0.8,2.5L676.3,2123.7z M675.2,2122.8c0-0.5-0.1-1.1-0.5-1.5c-0.3-0.4-0.8-0.6-1.3-0.5
		c-0.5,0-1,0.2-1.3,0.6c-0.4,0.4-0.6,0.9-0.7,1.5L675.2,2122.8z"/>
	<path id="Trazado_191481" class="st2" d="M617.8,2143.4c-0.6,0.3-1.2,0.5-1.9,0.5c-0.9,0-1.8-0.3-2.4-1c-0.6-0.7-1-1.6-0.9-2.5
		c0-1,0.3-2,1-2.8c0.7-0.7,1.7-1.1,2.6-1c0.6,0,1.1,0.1,1.6,0.3v1.1c-0.5-0.4-1.1-0.5-1.7-0.5c-0.7,0-1.3,0.3-1.8,0.8
		c-0.5,0.6-0.7,1.3-0.7,2c0,0.7,0.2,1.4,0.7,1.9c0.4,0.5,1.1,0.7,1.7,0.7c0.6,0,1.2-0.2,1.7-0.6L617.8,2143.4z M624.5,2143.7h-1.1
		v-1.1h0c-0.4,0.8-1.3,1.3-2.2,1.3c-0.6,0-1.2-0.2-1.6-0.6c-0.4-0.4-0.6-0.9-0.6-1.5c0-1.3,0.8-2.1,2.3-2.3l2.1-0.3
		c0-1.2-0.5-1.8-1.4-1.8c-0.8,0-1.7,0.3-2.3,0.9v-1.1c0.7-0.4,1.5-0.7,2.4-0.7c1.6,0,2.5,0.9,2.5,2.6L624.5,2143.7z M623.4,2140.2
		l-1.7,0.2c-0.4,0-0.8,0.2-1.2,0.4c-0.3,0.2-0.4,0.6-0.4,1c0,0.3,0.1,0.6,0.4,0.8c0.3,0.2,0.6,0.3,1,0.3c0.5,0,1-0.2,1.4-0.6
		c0.4-0.4,0.6-0.9,0.5-1.5L623.4,2140.2z M627.8,2142.7L627.8,2142.7l0,4.2h-1.1v-10.2h1.1v1.2h0c0.5-0.9,1.4-1.4,2.4-1.4
		c0.8,0,1.6,0.3,2.1,0.9c0.5,0.7,0.8,1.6,0.8,2.5c0.1,1-0.3,2-0.9,2.8c-0.6,0.7-1.4,1.1-2.3,1.1
		C629,2143.9,628.2,2143.5,627.8,2142.7z M627.7,2139.9v1c0,0.5,0.2,1.1,0.6,1.5c0.4,0.4,0.9,0.6,1.4,0.6c0.6,0,1.2-0.3,1.6-0.8
		c0.4-0.6,0.6-1.4,0.6-2.2c0-0.7-0.2-1.3-0.5-1.8c-0.4-0.4-0.9-0.7-1.5-0.7c-0.6,0-1.2,0.2-1.6,0.7
		C627.9,2138.7,627.7,2139.3,627.7,2139.9z M639.9,2143.7h-1.1v-1.1h0c-0.4,0.8-1.3,1.3-2.2,1.3c-0.6,0-1.2-0.2-1.6-0.6
		c-0.4-0.4-0.6-0.9-0.6-1.5c0-1.3,0.8-2.1,2.3-2.3l2.1-0.3c0-1.2-0.5-1.8-1.4-1.8c-0.8,0-1.7,0.3-2.3,0.9v-1.1
		c0.7-0.4,1.5-0.7,2.4-0.7c1.6,0,2.5,0.9,2.5,2.6L639.9,2143.7z M638.7,2140.2l-1.7,0.2c-0.4,0-0.8,0.2-1.2,0.4
		c-0.3,0.2-0.4,0.6-0.4,1c0,0.3,0.1,0.6,0.4,0.8c0.3,0.2,0.6,0.3,1,0.3c0.5,0,1-0.2,1.4-0.6c0.4-0.4,0.6-0.9,0.5-1.5L638.7,2140.2z
		 M646.7,2143.4c-0.6,0.3-1.2,0.5-1.9,0.5c-0.9,0-1.8-0.3-2.4-1c-0.6-0.7-1-1.6-0.9-2.5c0-1,0.3-2,1-2.8c0.7-0.7,1.7-1.1,2.6-1
		c0.6,0,1.1,0.1,1.6,0.3v1.1c-0.5-0.4-1.1-0.5-1.7-0.5c-0.7,0-1.3,0.3-1.8,0.8c-0.5,0.6-0.7,1.3-0.7,2c0,0.7,0.2,1.4,0.6,1.9
		c0.4,0.5,1.1,0.7,1.7,0.7c0.6,0,1.2-0.2,1.7-0.6L646.7,2143.4z M649,2135c-0.2,0-0.4-0.1-0.5-0.2c-0.1-0.1-0.2-0.3-0.2-0.5
		c0-0.2,0.1-0.4,0.2-0.5c0.1-0.1,0.3-0.2,0.5-0.2c0.2,0,0.4,0.1,0.5,0.2c0.1,0.1,0.2,0.3,0.2,0.5c0,0.2-0.1,0.4-0.2,0.5
		C649.4,2134.9,649.2,2135,649,2135L649,2135z M649.6,2143.7h-1.1v-7h1.1V2143.7z M657.8,2143.7h-1.1v-1.2h0
		c-0.5,0.9-1.4,1.4-2.4,1.4c-0.8,0-1.6-0.3-2.1-0.9c-0.6-0.7-0.8-1.6-0.8-2.6c0-1,0.3-2,0.9-2.8c0.6-0.7,1.4-1.1,2.3-1
		c0.9-0.1,1.7,0.4,2.1,1.1h0v-4.3h1.1V2143.7z M656.7,2140.6v-1c0-0.5-0.2-1.1-0.6-1.4c-0.4-0.4-0.9-0.6-1.4-0.6
		c-0.6,0-1.2,0.3-1.6,0.8c-0.4,0.6-0.6,1.3-0.6,2.1c0,0.7,0.2,1.4,0.6,1.9c0.4,0.5,0.9,0.7,1.5,0.7c0.6,0,1.1-0.2,1.5-0.7
		C656.5,2141.8,656.7,2141.2,656.7,2140.6z M665.1,2143.7H664v-1.1h0c-0.4,0.8-1.3,1.3-2.2,1.3c-0.6,0-1.2-0.2-1.6-0.6
		c-0.4-0.4-0.6-0.9-0.6-1.5c0-1.3,0.8-2.1,2.3-2.3l2.1-0.3c0-1.2-0.5-1.8-1.4-1.8c-0.8,0-1.7,0.3-2.3,0.9v-1.1
		c0.7-0.4,1.5-0.7,2.4-0.7c1.6,0,2.5,0.9,2.5,2.6L665.1,2143.7z M664,2140.2l-1.7,0.2c-0.4,0-0.8,0.2-1.2,0.4
		c-0.3,0.2-0.4,0.6-0.4,1c0,0.3,0.1,0.6,0.4,0.8c0.3,0.2,0.6,0.3,1,0.3c0.5,0,1-0.2,1.4-0.6c0.4-0.4,0.6-0.9,0.5-1.5L664,2140.2z
		 M673.2,2143.7h-1.1v-1.2h0c-0.5,0.9-1.4,1.4-2.4,1.4c-0.8,0-1.6-0.3-2.1-0.9c-0.6-0.7-0.8-1.6-0.8-2.6c0-1,0.3-2,0.9-2.8
		c0.6-0.7,1.4-1.1,2.3-1c0.9-0.1,1.7,0.4,2.1,1.1h0v-4.3h1.1L673.2,2143.7z M672.1,2140.6v-1c0-0.5-0.2-1-0.6-1.4
		c-0.4-0.4-0.9-0.6-1.4-0.6c-0.6,0-1.2,0.3-1.6,0.8c-0.4,0.6-0.6,1.3-0.6,2.1c0,0.7,0.2,1.4,0.6,1.9c0.4,0.5,0.9,0.7,1.5,0.7
		c0.6,0,1.1-0.2,1.5-0.7C671.9,2141.8,672.1,2141.2,672.1,2140.6z M683.1,2143.7H682v-8.5c-0.1,0.1-0.2,0.2-0.4,0.3
		c-0.2,0.1-0.4,0.2-0.6,0.3c-0.2,0.1-0.4,0.2-0.7,0.3c-0.2,0.1-0.4,0.2-0.7,0.2v-1.1c0.3-0.1,0.5-0.2,0.8-0.3
		c0.3-0.1,0.5-0.2,0.8-0.4c0.3-0.1,0.5-0.3,0.8-0.5c0.2-0.1,0.4-0.3,0.6-0.5h0.4V2143.7z M687.2,2138.1c-0.2,0-0.4-0.1-0.5-0.2
		c-0.1-0.1-0.2-0.3-0.2-0.5c0-0.2,0.1-0.4,0.2-0.5c0.1-0.1,0.3-0.2,0.5-0.2c0.2,0,0.4,0.1,0.5,0.2c0.1,0.1,0.2,0.3,0.2,0.5
		c0,0.2-0.1,0.4-0.2,0.5C687.6,2138,687.4,2138.1,687.2,2138.1L687.2,2138.1z M687.2,2143.9c-0.2,0-0.4-0.1-0.5-0.2
		c-0.1-0.1-0.2-0.3-0.2-0.5c0-0.2,0.1-0.4,0.2-0.5c0.1-0.1,0.3-0.2,0.5-0.2c0.2,0,0.4,0.1,0.5,0.2c0.1,0.1,0.2,0.3,0.2,0.5
		c0,0.2-0.1,0.4-0.2,0.5C687.6,2143.8,687.4,2143.9,687.2,2143.9L687.2,2143.9z"/>
	<path id="Trazado_191482" class="st2" d="M635.8,2157.3h-4.9c0,0.7,0.2,1.3,0.6,1.8c0.4,0.4,1,0.7,1.7,0.6c0.8,0,1.6-0.3,2.2-0.8
		v1.1c-0.7,0.5-1.6,0.7-2.4,0.7c-0.9,0-1.7-0.3-2.3-1c-0.6-0.8-0.9-1.7-0.8-2.7c0-1,0.3-1.9,0.9-2.7c0.6-0.7,1.4-1,2.3-1
		c0.8,0,1.6,0.3,2.1,0.9c0.5,0.7,0.8,1.6,0.8,2.5L635.8,2157.3z M634.7,2156.4c0-0.5-0.1-1.1-0.5-1.5c-0.3-0.4-0.8-0.6-1.3-0.5
		c-0.5,0-1,0.2-1.3,0.6c-0.4,0.4-0.6,0.9-0.7,1.5H634.7z M642.5,2160.5h-1.1v-1.1h0c-0.4,0.8-1.3,1.3-2.2,1.3
		c-0.6,0-1.2-0.2-1.6-0.6c-0.4-0.4-0.6-0.9-0.6-1.5c0-1.3,0.8-2.1,2.3-2.3l2.1-0.3c0-1.2-0.5-1.8-1.4-1.8c-0.8,0-1.7,0.3-2.3,0.9
		v-1.1c0.7-0.4,1.5-0.7,2.4-0.7c1.6,0,2.5,0.9,2.5,2.6L642.5,2160.5z M641.4,2157l-1.7,0.2c-0.4,0-0.8,0.2-1.2,0.4
		c-0.3,0.2-0.4,0.6-0.4,1c0,0.3,0.1,0.6,0.4,0.8c0.3,0.2,0.6,0.3,1,0.3c0.5,0,1-0.2,1.4-0.6c0.4-0.4,0.6-0.9,0.5-1.5L641.4,2157z
		 M645.8,2160.5h-1.1v-10.4h1.1V2160.5z M648.6,2151.8c-0.2,0-0.4-0.1-0.5-0.2c-0.1-0.1-0.2-0.3-0.2-0.5c0-0.2,0.1-0.4,0.2-0.5
		c0.1-0.1,0.3-0.2,0.5-0.2c0.2,0,0.4,0.1,0.5,0.2c0.1,0.1,0.2,0.3,0.2,0.5c0,0.2-0.1,0.4-0.2,0.5
		C649,2151.7,648.8,2151.8,648.6,2151.8z M649.1,2160.5H648v-7h1.1V2160.5z M656.3,2153.9l-4.1,5.7h4.1v1h-5.7v-0.3l4.1-5.7h-3.8v-1
		h5.4L656.3,2153.9z M662.8,2160.5h-1.1v-1.1h0c-0.4,0.8-1.3,1.3-2.2,1.3c-0.6,0-1.2-0.2-1.6-0.6c-0.4-0.4-0.6-0.9-0.6-1.5
		c0-1.3,0.8-2.1,2.3-2.3l2.1-0.3c0-1.2-0.5-1.8-1.4-1.8c-0.8,0-1.7,0.3-2.3,0.9v-1.1c0.7-0.4,1.5-0.7,2.4-0.7c1.6,0,2.5,0.9,2.5,2.6
		L662.8,2160.5z M661.6,2157l-1.7,0.2c-0.4,0-0.8,0.2-1.2,0.4c-0.3,0.2-0.4,0.6-0.4,1c0,0.3,0.1,0.6,0.4,0.8c0.3,0.2,0.6,0.3,1,0.3
		c0.5,0,1-0.2,1.4-0.6c0.4-0.4,0.6-0.9,0.5-1.5L661.6,2157z M670.8,2160.5h-1.1v-1.2h0c-0.5,0.9-1.4,1.4-2.4,1.4
		c-0.8,0-1.6-0.3-2.1-0.9c-0.6-0.7-0.8-1.6-0.8-2.6c0-1,0.3-2,0.9-2.8c0.6-0.7,1.4-1.1,2.3-1c0.9-0.1,1.7,0.4,2.1,1.1h0v-4.3h1.1
		L670.8,2160.5z M669.7,2157.4v-1c0-0.5-0.2-1.1-0.6-1.4c-0.4-0.4-0.9-0.6-1.4-0.6c-0.6,0-1.2,0.3-1.6,0.8c-0.4,0.6-0.6,1.3-0.6,2.1
		c0,0.7,0.2,1.4,0.6,1.9c0.4,0.5,0.9,0.7,1.5,0.7c0.6,0,1.1-0.2,1.5-0.7C669.5,2158.6,669.7,2158,669.7,2157.4z M676,2160.7
		c-0.9,0-1.8-0.3-2.5-1c-0.6-0.7-1-1.6-0.9-2.6c-0.1-1,0.3-2,1-2.8c0.7-0.7,1.6-1,2.6-1c0.9-0.1,1.8,0.3,2.4,1
		c0.6,0.7,0.9,1.7,0.9,2.7c0,1-0.3,1.9-0.9,2.7C677.9,2160.4,677,2160.7,676,2160.7z M676.1,2154.3c-0.7,0-1.3,0.2-1.7,0.7
		c-0.4,0.6-0.7,1.3-0.6,2c0,0.7,0.2,1.4,0.6,2c0.4,0.5,1.1,0.7,1.7,0.7c0.6,0,1.3-0.2,1.7-0.7c0.4-0.6,0.6-1.3,0.6-2
		c0-0.7-0.2-1.4-0.6-2C677.4,2154.5,676.8,2154.3,676.1,2154.3z M628.9,2154.8c-0.3-0.2-0.5-0.2-0.8-0.2c-0.5,0-0.9,0.3-1.2,0.7
		c-0.3,0.6-0.5,1.2-0.5,1.8v3.6h-1.1v-7h1.1v1.4h0c0.1-0.4,0.4-0.8,0.7-1.2c0.3-0.3,0.7-0.4,1.1-0.4c0.2,0,0.5,0,0.7,0.1
		L628.9,2154.8z"/>
	<path id="Trazado_191483" class="st2" d="M552.7,2274h-1.4l-5-7.8c-0.1-0.2-0.2-0.4-0.3-0.6h0c0,0.4,0.1,0.9,0.1,1.3v7.1h-1.1v-9.8
		h1.5l4.9,7.7c0.2,0.3,0.3,0.5,0.4,0.7h0c-0.1-0.5-0.1-1-0.1-1.4v-6.9h1.1V2274z M555.7,2265.2c-0.2,0-0.4-0.1-0.5-0.2
		c-0.1-0.1-0.2-0.3-0.2-0.5c0-0.2,0.1-0.4,0.2-0.5c0.1-0.1,0.3-0.2,0.5-0.2c0.2,0,0.4,0.1,0.5,0.2c0.1,0.1,0.2,0.3,0.2,0.5
		c0,0.2-0.1,0.4-0.2,0.5C556.1,2265.2,555.9,2265.2,555.7,2265.2z M556.2,2274h-1.1v-7h1.1L556.2,2274z"/>
	<path id="Trazado_191484" class="st2" d="M563.5,2267l-2.8,7h-1.1l-2.6-7h1.2l1.8,5.1c0.1,0.3,0.2,0.6,0.2,1h0
		c0-0.3,0.1-0.6,0.2-0.9l1.9-5.1H563.5z"/>
	<path id="Trazado_191485" class="st2" d="M570.4,2270.8h-4.9c0,0.7,0.2,1.3,0.6,1.8c0.4,0.4,1,0.7,1.7,0.6c0.8,0,1.6-0.3,2.2-0.8
		v1.1c-0.7,0.5-1.6,0.7-2.4,0.7c-0.9,0-1.7-0.3-2.3-1c-0.6-0.8-0.9-1.7-0.8-2.7c0-1,0.3-1.9,0.9-2.7c0.6-0.7,1.4-1,2.3-1
		c0.8,0,1.6,0.3,2.1,0.9c0.5,0.7,0.8,1.6,0.8,2.5L570.4,2270.8z M569.2,2269.8c0-0.5-0.1-1.1-0.5-1.5c-0.3-0.4-0.8-0.6-1.3-0.5
		c-0.5,0-1,0.2-1.3,0.6c-0.4,0.4-0.6,0.9-0.7,1.5H569.2z M573.2,2274H572v-10.4h1.1V2274z M585.2,2274h-1.1v-1.2h0
		c-0.5,0.9-1.4,1.4-2.4,1.4c-0.8,0-1.6-0.3-2.1-0.9c-0.6-0.7-0.8-1.6-0.8-2.6c0-1,0.3-2,0.9-2.8c0.6-0.7,1.4-1.1,2.3-1
		c0.9-0.1,1.7,0.4,2.1,1.1h0v-4.3h1.1L585.2,2274z M584.1,2270.8v-1c0-0.5-0.2-1.1-0.6-1.4c-0.4-0.4-0.9-0.6-1.4-0.6
		c-0.6,0-1.2,0.3-1.6,0.8c-0.4,0.6-0.6,1.3-0.6,2.1c0,0.7,0.2,1.4,0.6,1.9c0.4,0.5,0.9,0.7,1.5,0.7c0.6,0,1.1-0.2,1.5-0.7
		C583.9,2272.1,584.1,2271.5,584.1,2270.8z M593.1,2270.8h-4.9c0,0.7,0.2,1.3,0.6,1.8c0.4,0.4,1,0.7,1.7,0.6c0.8,0,1.6-0.3,2.2-0.8
		v1.1c-0.7,0.5-1.6,0.7-2.4,0.7c-0.9,0-1.7-0.3-2.3-1c-0.6-0.8-0.9-1.7-0.8-2.7c0-1,0.3-1.9,0.9-2.7c0.6-0.7,1.4-1,2.3-1
		c0.8,0,1.6,0.3,2.1,0.9c0.5,0.7,0.8,1.6,0.8,2.5L593.1,2270.8z M592,2269.8c0-0.5-0.1-1.1-0.5-1.5c-0.3-0.4-0.8-0.6-1.3-0.5
		c-0.5,0-1,0.2-1.3,0.6c-0.4,0.4-0.6,0.9-0.7,1.5L592,2269.8z"/>
	<path id="Trazado_191486" class="st2" d="M534.6,2290.5c-0.6,0.3-1.2,0.5-1.9,0.5c-0.9,0-1.8-0.3-2.4-1c-0.6-0.7-1-1.6-0.9-2.5
		c0-1,0.3-2,1-2.8c0.7-0.7,1.7-1.1,2.6-1c0.6,0,1.1,0.1,1.6,0.3v1.1c-0.5-0.4-1.1-0.5-1.7-0.5c-0.7,0-1.3,0.3-1.8,0.8
		c-0.5,0.6-0.7,1.3-0.7,2c0,0.7,0.2,1.4,0.7,1.9c0.4,0.5,1.1,0.7,1.7,0.7c0.6,0,1.2-0.2,1.7-0.6L534.6,2290.5z M541.3,2290.8h-1.1
		v-1.1h0c-0.4,0.8-1.3,1.3-2.2,1.3c-0.6,0-1.2-0.2-1.6-0.6c-0.4-0.4-0.6-0.9-0.6-1.5c0-1.3,0.8-2.1,2.3-2.3l2.1-0.3
		c0-1.2-0.5-1.8-1.4-1.8c-0.8,0-1.7,0.3-2.3,0.9v-1.1c0.7-0.4,1.5-0.7,2.4-0.7c1.6,0,2.5,0.9,2.5,2.6L541.3,2290.8z M540.2,2287.3
		l-1.7,0.2c-0.4,0-0.8,0.2-1.2,0.4c-0.3,0.2-0.4,0.6-0.4,1c0,0.3,0.1,0.6,0.4,0.8c0.3,0.2,0.6,0.3,1,0.3c0.5,0,1-0.2,1.4-0.6
		c0.4-0.4,0.6-0.9,0.5-1.5L540.2,2287.3z M544.6,2289.8L544.6,2289.8l0,4.2h-1.1v-10.2h1.1v1.2h0c0.5-0.9,1.4-1.4,2.4-1.4
		c0.8,0,1.6,0.3,2.1,0.9c0.5,0.7,0.8,1.6,0.8,2.5c0.1,1-0.3,2-0.9,2.8c-0.6,0.7-1.4,1.1-2.3,1.1C545.8,2291,545,2290.5,544.6,2289.8
		z M544.6,2287v1c0,0.5,0.2,1.1,0.6,1.5c0.4,0.4,0.9,0.6,1.4,0.6c0.6,0,1.2-0.3,1.6-0.8c0.4-0.6,0.6-1.4,0.6-2.2
		c0-0.7-0.2-1.3-0.5-1.8c-0.4-0.4-0.9-0.7-1.5-0.7c-0.6,0-1.2,0.2-1.6,0.7C544.8,2285.7,544.5,2286.3,544.6,2287z M556.7,2290.8
		h-1.1v-1.1h0c-0.4,0.8-1.3,1.3-2.2,1.3c-0.6,0-1.2-0.2-1.6-0.6c-0.4-0.4-0.6-0.9-0.6-1.5c0-1.3,0.8-2.1,2.3-2.3l2.1-0.3
		c0-1.2-0.5-1.8-1.4-1.8c-0.8,0-1.7,0.3-2.3,0.9v-1.1c0.7-0.4,1.5-0.7,2.4-0.7c1.6,0,2.5,0.9,2.5,2.6L556.7,2290.8z M555.6,2287.3
		l-1.7,0.2c-0.4,0-0.8,0.2-1.2,0.4c-0.3,0.2-0.4,0.6-0.4,1c0,0.3,0.1,0.6,0.4,0.8c0.3,0.2,0.6,0.3,1,0.3c0.5,0,1-0.2,1.4-0.6
		c0.4-0.4,0.6-0.9,0.5-1.5L555.6,2287.3z M563.6,2290.5c-0.6,0.3-1.2,0.5-1.9,0.5c-0.9,0-1.8-0.3-2.4-1c-0.6-0.7-1-1.6-0.9-2.5
		c0-1,0.3-2,1-2.8c0.7-0.7,1.7-1.1,2.6-1c0.6,0,1.1,0.1,1.6,0.3v1.1c-0.5-0.4-1.1-0.5-1.7-0.5c-0.7,0-1.3,0.3-1.8,0.8
		c-0.5,0.6-0.7,1.3-0.7,2c0,0.7,0.2,1.4,0.6,1.9c0.4,0.5,1.1,0.7,1.7,0.7c0.6,0,1.2-0.2,1.7-0.6L563.6,2290.5z M565.8,2282
		c-0.2,0-0.4-0.1-0.5-0.2c-0.1-0.1-0.2-0.3-0.2-0.5c0-0.2,0.1-0.4,0.2-0.5c0.1-0.1,0.3-0.2,0.5-0.2c0.2,0,0.4,0.1,0.5,0.2
		c0.1,0.1,0.2,0.3,0.2,0.5c0,0.2-0.1,0.4-0.2,0.5C566.2,2281.9,566,2282,565.8,2282L565.8,2282z M566.4,2290.8h-1.1v-7h1.1V2290.8z
		 M574.6,2290.8h-1.1v-1.2h0c-0.5,0.9-1.4,1.4-2.4,1.4c-0.8,0-1.6-0.3-2.1-0.9c-0.6-0.7-0.8-1.6-0.8-2.6c0-1,0.3-2,0.9-2.8
		c0.6-0.7,1.4-1.1,2.3-1c0.9-0.1,1.7,0.4,2.1,1.1h0v-4.3h1.1V2290.8z M573.5,2287.6v-1c0-0.5-0.2-1.1-0.6-1.4
		c-0.4-0.4-0.9-0.6-1.4-0.6c-0.6,0-1.2,0.3-1.6,0.8c-0.4,0.6-0.6,1.3-0.6,2.1c0,0.7,0.2,1.4,0.6,1.9c0.4,0.5,0.9,0.7,1.5,0.7
		c0.6,0,1.1-0.2,1.5-0.7C573.3,2288.9,573.5,2288.3,573.5,2287.6z M581.9,2290.8h-1.1v-1.1h0c-0.4,0.8-1.3,1.3-2.2,1.3
		c-0.6,0-1.2-0.2-1.6-0.6c-0.4-0.4-0.6-0.9-0.6-1.5c0-1.3,0.8-2.1,2.3-2.3l2.1-0.3c0-1.2-0.5-1.8-1.4-1.8c-0.8,0-1.7,0.3-2.3,0.9
		v-1.1c0.7-0.4,1.5-0.7,2.4-0.7c1.6,0,2.5,0.9,2.5,2.6L581.9,2290.8z M580.8,2287.3l-1.7,0.2c-0.4,0-0.8,0.2-1.2,0.4
		c-0.3,0.2-0.4,0.6-0.4,1c0,0.3,0.1,0.6,0.4,0.8c0.3,0.2,0.6,0.3,1,0.3c0.5,0,1-0.2,1.4-0.6c0.4-0.4,0.6-0.9,0.5-1.5L580.8,2287.3z
		 M590,2290.8h-1.1v-1.2h0c-0.5,0.9-1.4,1.4-2.4,1.4c-0.8,0-1.6-0.3-2.1-0.9c-0.6-0.7-0.8-1.6-0.8-2.6c0-1,0.3-2,0.9-2.8
		c0.6-0.7,1.4-1.1,2.3-1c0.9-0.1,1.7,0.4,2.1,1.1h0v-4.3h1.1L590,2290.8z M588.9,2287.6v-1c0-0.5-0.2-1-0.6-1.4
		c-0.4-0.4-0.9-0.6-1.4-0.6c-0.6,0-1.2,0.3-1.6,0.8c-0.4,0.6-0.6,1.3-0.6,2.1c0,0.7,0.2,1.4,0.6,1.9c0.4,0.5,0.9,0.7,1.5,0.7
		c0.6,0,1.1-0.2,1.5-0.7C588.7,2288.9,588.9,2288.3,588.9,2287.6z M600.2,2283.6c0-0.3,0-0.5-0.1-0.8c-0.1-0.2-0.2-0.4-0.4-0.6
		c-0.2-0.2-0.4-0.3-0.6-0.3c-0.2-0.1-0.5-0.1-0.7-0.1c-0.2,0-0.4,0-0.6,0.1c-0.2,0.1-0.4,0.1-0.6,0.2c-0.2,0.1-0.4,0.2-0.6,0.4
		c-0.2,0.1-0.4,0.3-0.5,0.5v-1.2c0.3-0.3,0.7-0.5,1.1-0.7c0.5-0.2,0.9-0.3,1.4-0.2c0.4,0,0.8,0.1,1.1,0.2c0.3,0.1,0.6,0.3,0.9,0.5
		c0.3,0.2,0.5,0.5,0.6,0.8c0.1,0.4,0.2,0.7,0.2,1.1c0,0.4,0,0.7-0.1,1.1c-0.1,0.3-0.2,0.6-0.4,0.9c-0.2,0.3-0.4,0.6-0.7,0.8
		c-0.3,0.3-0.6,0.5-1,0.8c-0.5,0.3-0.8,0.6-1.1,0.8c-0.3,0.2-0.5,0.4-0.7,0.7c-0.2,0.2-0.3,0.4-0.4,0.6c-0.1,0.2-0.1,0.5-0.1,0.7
		h4.9v1h-6v-0.5c0-0.4,0-0.7,0.1-1.1c0.1-0.3,0.2-0.6,0.5-0.9c0.2-0.3,0.5-0.6,0.8-0.9c0.3-0.3,0.8-0.6,1.2-1
		c0.3-0.2,0.6-0.5,0.9-0.7c0.2-0.2,0.4-0.4,0.6-0.7c0.1-0.2,0.2-0.5,0.3-0.7C600.2,2284.1,600.2,2283.8,600.2,2283.6z M604,2285.2
		c-0.2,0-0.4-0.1-0.5-0.2c-0.1-0.1-0.2-0.3-0.2-0.5c0-0.2,0.1-0.4,0.2-0.5c0.1-0.1,0.3-0.2,0.5-0.2c0.2,0,0.4,0.1,0.5,0.2
		c0.1,0.1,0.2,0.3,0.2,0.5c0,0.2-0.1,0.4-0.2,0.5C604.4,2285.1,604.2,2285.2,604,2285.2L604,2285.2z M604,2291
		c-0.2,0-0.4-0.1-0.5-0.2c-0.1-0.1-0.2-0.3-0.2-0.5c0-0.2,0.1-0.4,0.2-0.5c0.1-0.1,0.3-0.2,0.5-0.2c0.2,0,0.4,0.1,0.5,0.2
		c0.1,0.1,0.2,0.3,0.2,0.5c0,0.2-0.1,0.4-0.2,0.5C604.4,2290.9,604.2,2291,604,2291L604,2291z"/>
	<path id="Trazado_191488" class="st2" d="M382.9,2274h-1.4l-5-7.8c-0.1-0.2-0.2-0.4-0.3-0.6h0c0,0.4,0.1,0.9,0.1,1.3v7.1H375v-9.8
		h1.5l4.9,7.7c0.2,0.3,0.3,0.5,0.4,0.7h0c-0.1-0.5-0.1-1-0.1-1.4v-6.9h1.1V2274z M385.9,2265.2c-0.2,0-0.4-0.1-0.5-0.2
		c-0.1-0.1-0.2-0.3-0.2-0.5c0-0.2,0.1-0.4,0.2-0.5c0.1-0.1,0.3-0.2,0.5-0.2c0.2,0,0.4,0.1,0.5,0.2c0.1,0.1,0.2,0.3,0.2,0.5
		c0,0.2-0.1,0.4-0.2,0.5C386.3,2265.2,386.1,2265.2,385.9,2265.2z M386.5,2274h-1.1v-7h1.1L386.5,2274z"/>
	<path id="Trazado_191489" class="st2" d="M393.7,2267l-2.8,7h-1.1l-2.6-7h1.2l1.8,5.1c0.1,0.3,0.2,0.6,0.2,1h0
		c0-0.3,0.1-0.6,0.2-0.9l1.9-5.1H393.7z"/>
	<path id="Trazado_191490" class="st2" d="M400.6,2270.8h-4.9c0,0.7,0.2,1.3,0.6,1.8c0.4,0.4,1,0.7,1.7,0.6c0.8,0,1.6-0.3,2.2-0.8
		v1.1c-0.7,0.5-1.6,0.7-2.4,0.7c-0.9,0-1.7-0.3-2.3-1c-0.6-0.8-0.9-1.7-0.8-2.7c0-1,0.3-1.9,0.9-2.7c0.6-0.7,1.4-1,2.3-1
		c0.8,0,1.6,0.3,2.1,0.9c0.5,0.7,0.8,1.6,0.8,2.5L400.6,2270.8z M399.4,2269.8c0-0.5-0.1-1.1-0.5-1.5c-0.3-0.4-0.8-0.6-1.3-0.5
		c-0.5,0-1,0.2-1.3,0.6c-0.4,0.4-0.6,0.9-0.7,1.5H399.4z M403.4,2274h-1.1v-10.4h1.1V2274z M415.5,2274h-1.1v-1.2h0
		c-0.5,0.9-1.4,1.4-2.4,1.4c-0.8,0-1.6-0.3-2.1-0.9c-0.6-0.7-0.8-1.6-0.8-2.6c0-1,0.3-2,0.9-2.8c0.6-0.7,1.4-1.1,2.3-1
		c0.9-0.1,1.7,0.4,2.1,1.1h0v-4.3h1.1L415.5,2274z M414.3,2270.8v-1c0-0.5-0.2-1.1-0.6-1.4c-0.4-0.4-0.9-0.6-1.4-0.6
		c-0.6,0-1.2,0.3-1.6,0.8c-0.4,0.6-0.6,1.3-0.6,2.1c0,0.7,0.2,1.4,0.6,1.9c0.4,0.5,0.9,0.7,1.5,0.7c0.6,0,1.1-0.2,1.5-0.7
		C414.1,2272.1,414.4,2271.5,414.3,2270.8z M423.4,2270.8h-4.9c0,0.7,0.2,1.3,0.6,1.8c0.4,0.4,1,0.7,1.7,0.6c0.8,0,1.6-0.3,2.2-0.8
		v1.1c-0.7,0.5-1.6,0.7-2.4,0.7c-0.9,0-1.7-0.3-2.3-1c-0.6-0.8-0.9-1.7-0.8-2.7c0-1,0.3-1.9,0.9-2.7c0.6-0.7,1.4-1,2.3-1
		c0.8,0,1.6,0.3,2.1,0.9c0.5,0.7,0.8,1.6,0.8,2.5L423.4,2270.8z M422.2,2269.8c0-0.5-0.1-1.1-0.5-1.5c-0.3-0.4-0.8-0.6-1.3-0.5
		c-0.5,0-1,0.2-1.3,0.6c-0.4,0.4-0.6,0.9-0.7,1.5L422.2,2269.8z"/>
	<path id="Trazado_191491" class="st2" d="M364.8,2290.5c-0.6,0.3-1.2,0.5-1.9,0.5c-0.9,0-1.8-0.3-2.4-1c-0.6-0.7-1-1.6-0.9-2.5
		c0-1,0.3-2,1-2.8c0.7-0.7,1.7-1.1,2.6-1c0.6,0,1.1,0.1,1.6,0.3v1.1c-0.5-0.4-1.1-0.5-1.7-0.5c-0.7,0-1.3,0.3-1.8,0.8
		c-0.5,0.6-0.7,1.3-0.7,2c0,0.7,0.2,1.4,0.7,1.9c0.4,0.5,1.1,0.7,1.7,0.7c0.6,0,1.2-0.2,1.7-0.6L364.8,2290.5z M371.5,2290.8h-1.1
		v-1.1h0c-0.4,0.8-1.3,1.3-2.2,1.3c-0.6,0-1.2-0.2-1.6-0.6c-0.4-0.4-0.6-0.9-0.6-1.5c0-1.3,0.8-2.1,2.3-2.3l2.1-0.3
		c0-1.2-0.5-1.8-1.4-1.8c-0.8,0-1.7,0.3-2.3,0.9v-1.1c0.7-0.4,1.5-0.7,2.4-0.7c1.6,0,2.5,0.9,2.5,2.6L371.5,2290.8z M370.4,2287.3
		l-1.7,0.2c-0.4,0-0.8,0.2-1.2,0.4c-0.3,0.2-0.4,0.6-0.4,1c0,0.3,0.1,0.6,0.4,0.8c0.3,0.2,0.6,0.3,1,0.3c0.5,0,1-0.2,1.4-0.6
		c0.4-0.4,0.6-0.9,0.5-1.5L370.4,2287.3z M374.8,2289.8L374.8,2289.8l0,4.2h-1.1v-10.2h1.1v1.2h0c0.5-0.9,1.4-1.4,2.4-1.4
		c0.8,0,1.6,0.3,2.1,0.9c0.5,0.7,0.8,1.6,0.8,2.5c0.1,1-0.3,2-0.9,2.8c-0.6,0.7-1.4,1.1-2.3,1.1C376,2291,375.2,2290.5,374.8,2289.8
		z M374.8,2287v1c0,0.5,0.2,1.1,0.6,1.5c0.4,0.4,0.9,0.6,1.4,0.6c0.6,0,1.2-0.3,1.6-0.8c0.4-0.6,0.6-1.4,0.6-2.2
		c0-0.7-0.2-1.3-0.5-1.8c-0.4-0.4-0.9-0.7-1.5-0.7c-0.6,0-1.2,0.2-1.6,0.7C375,2285.7,374.8,2286.3,374.8,2287z M386.9,2290.8h-1.1
		v-1.1h0c-0.4,0.8-1.3,1.3-2.2,1.3c-0.6,0-1.2-0.2-1.6-0.6c-0.4-0.4-0.6-0.9-0.6-1.5c0-1.3,0.8-2.1,2.3-2.3l2.1-0.3
		c0-1.2-0.5-1.8-1.4-1.8c-0.8,0-1.7,0.3-2.3,0.9v-1.1c0.7-0.4,1.5-0.7,2.4-0.7c1.6,0,2.5,0.9,2.5,2.6L386.9,2290.8z M385.8,2287.3
		l-1.7,0.2c-0.4,0-0.8,0.2-1.2,0.4c-0.3,0.2-0.4,0.6-0.4,1c0,0.3,0.1,0.6,0.4,0.8c0.3,0.2,0.6,0.3,1,0.3c0.5,0,1-0.2,1.4-0.6
		c0.4-0.4,0.6-0.9,0.5-1.5L385.8,2287.3z M393.8,2290.5c-0.6,0.3-1.2,0.5-1.9,0.5c-0.9,0-1.8-0.3-2.4-1c-0.6-0.7-1-1.6-0.9-2.5
		c0-1,0.3-2,1-2.8c0.7-0.7,1.7-1.1,2.6-1c0.6,0,1.1,0.1,1.6,0.3v1.1c-0.5-0.4-1.1-0.5-1.7-0.5c-0.7,0-1.3,0.3-1.8,0.8
		c-0.5,0.6-0.7,1.3-0.7,2c0,0.7,0.2,1.4,0.6,1.9c0.4,0.5,1.1,0.7,1.7,0.7c0.6,0,1.2-0.2,1.7-0.6L393.8,2290.5z M396,2282
		c-0.2,0-0.4-0.1-0.5-0.2c-0.1-0.1-0.2-0.3-0.2-0.5c0-0.2,0.1-0.4,0.2-0.5c0.1-0.1,0.3-0.2,0.5-0.2c0.2,0,0.4,0.1,0.5,0.2
		c0.1,0.1,0.2,0.3,0.2,0.5c0,0.2-0.1,0.4-0.2,0.5C396.4,2281.9,396.2,2282,396,2282L396,2282z M396.6,2290.8h-1.1v-7h1.1
		L396.6,2290.8z M404.8,2290.8h-1.1v-1.2h0c-0.5,0.9-1.4,1.4-2.4,1.4c-0.8,0-1.6-0.3-2.1-0.9c-0.6-0.7-0.8-1.6-0.8-2.6
		c0-1,0.3-2,0.9-2.8c0.6-0.7,1.4-1.1,2.3-1c0.9-0.1,1.7,0.4,2.1,1.1h0v-4.3h1.1V2290.8z M403.7,2287.6v-1c0-0.5-0.2-1.1-0.6-1.4
		c-0.4-0.4-0.9-0.6-1.4-0.6c-0.6,0-1.2,0.3-1.6,0.8c-0.4,0.6-0.6,1.3-0.6,2.1c0,0.7,0.2,1.4,0.6,1.9c0.4,0.5,0.9,0.7,1.5,0.7
		c0.6,0,1.1-0.2,1.5-0.7C403.5,2288.9,403.7,2288.3,403.7,2287.6z M412.1,2290.8H411v-1.1h0c-0.4,0.8-1.3,1.3-2.2,1.3
		c-0.6,0-1.2-0.2-1.6-0.6c-0.4-0.4-0.6-0.9-0.6-1.5c0-1.3,0.8-2.1,2.3-2.3l2.1-0.3c0-1.2-0.5-1.8-1.4-1.8c-0.8,0-1.7,0.3-2.3,0.9
		v-1.1c0.7-0.4,1.5-0.7,2.4-0.7c1.6,0,2.5,0.9,2.5,2.6L412.1,2290.8z M411,2287.3l-1.7,0.2c-0.4,0-0.8,0.2-1.2,0.4
		c-0.3,0.2-0.4,0.6-0.4,1c0,0.3,0.1,0.6,0.4,0.8c0.3,0.2,0.6,0.3,1,0.3c0.5,0,1-0.2,1.4-0.6c0.4-0.4,0.6-0.9,0.5-1.5L411,2287.3z
		 M420.2,2290.8h-1.1v-1.2h0c-0.5,0.9-1.4,1.4-2.4,1.4c-0.8,0-1.6-0.3-2.1-0.9c-0.6-0.7-0.8-1.6-0.8-2.6c0-1,0.3-2,0.9-2.8
		c0.6-0.7,1.4-1.1,2.3-1c0.9-0.1,1.7,0.4,2.1,1.1h0v-4.3h1.1L420.2,2290.8z M419.1,2287.6v-1c0-0.5-0.2-1-0.6-1.4
		c-0.4-0.4-0.9-0.6-1.4-0.6c-0.6,0-1.2,0.3-1.6,0.8c-0.4,0.6-0.6,1.3-0.6,2.1c0,0.7,0.2,1.4,0.6,1.9c0.4,0.5,0.9,0.7,1.5,0.7
		c0.6,0,1.1-0.2,1.5-0.7C418.9,2288.9,419.1,2288.3,419.1,2287.6z M431.7,2288c0,0.4-0.1,0.8-0.2,1.2c-0.2,0.4-0.4,0.7-0.7,0.9
		c-0.3,0.3-0.7,0.5-1.1,0.6c-0.5,0.1-0.9,0.2-1.4,0.2c-0.8,0-1.6-0.1-2.2-0.5v-1.2c0.6,0.5,1.4,0.8,2.3,0.8c0.3,0,0.6,0,0.9-0.1
		c0.3-0.1,0.5-0.2,0.7-0.4c0.2-0.2,0.4-0.4,0.5-0.6c0.1-0.2,0.2-0.5,0.2-0.8c0-1.3-0.9-1.9-2.7-1.9H427v-1h0.8
		c1.6,0,2.4-0.6,2.4-1.8c0-1.1-0.6-1.7-1.8-1.7c-0.7,0-1.4,0.3-1.9,0.7v-1.1c0.7-0.4,1.4-0.6,2.2-0.6c0.4,0,0.8,0.1,1.1,0.2
		c0.3,0.1,0.6,0.3,0.9,0.5c0.2,0.2,0.4,0.5,0.5,0.7c0.1,0.3,0.2,0.6,0.2,1c0.1,1.2-0.8,2.3-2,2.5v0c0.3,0,0.6,0.1,0.9,0.2
		c0.3,0.1,0.5,0.3,0.7,0.5c0.2,0.2,0.4,0.4,0.5,0.7C431.6,2287.4,431.7,2287.7,431.7,2288L431.7,2288z M434.2,2285.2
		c-0.2,0-0.4-0.1-0.5-0.2c-0.1-0.1-0.2-0.3-0.2-0.5c0-0.2,0.1-0.4,0.2-0.5c0.1-0.1,0.3-0.2,0.5-0.2c0.2,0,0.4,0.1,0.5,0.2
		c0.1,0.1,0.2,0.3,0.2,0.5c0,0.2-0.1,0.4-0.2,0.5C434.7,2285.1,434.5,2285.2,434.2,2285.2L434.2,2285.2z M434.2,2291
		c-0.2,0-0.4-0.1-0.5-0.2c-0.1-0.1-0.2-0.3-0.2-0.5c0-0.2,0.1-0.4,0.2-0.5c0.1-0.1,0.3-0.2,0.5-0.2c0.2,0,0.4,0.1,0.5,0.2
		c0.1,0.1,0.2,0.3,0.2,0.5c0,0.2-0.1,0.4-0.2,0.5C434.7,2290.9,434.5,2291,434.2,2291L434.2,2291z"/>
	<path id="Trazado_191492" class="st2" d="M389.5,2304.4h-4.9c0,0.7,0.2,1.3,0.6,1.8c0.4,0.4,1,0.7,1.7,0.6c0.8,0,1.6-0.3,2.2-0.8
		v1.1c-0.7,0.5-1.6,0.7-2.4,0.7c-0.9,0-1.7-0.3-2.3-1c-0.6-0.8-0.9-1.7-0.8-2.7c0-1,0.3-1.9,0.9-2.7c0.6-0.7,1.4-1,2.3-1
		c0.8,0,1.6,0.3,2.1,0.9c0.5,0.7,0.8,1.6,0.8,2.5L389.5,2304.4z M388.3,2303.4c0-0.5-0.1-1.1-0.5-1.5c-0.3-0.4-0.8-0.6-1.3-0.5
		c-0.5,0-1,0.2-1.3,0.6c-0.4,0.4-0.6,0.9-0.7,1.5L388.3,2303.4z M394.6,2298.2c-0.2-0.1-0.5-0.2-0.7-0.2c-0.8,0-1.2,0.5-1.2,1.5v1.1
		h1.6v1h-1.6v6h-1.1v-6h-1.2v-1h1.2v-1.1c0-0.6,0.2-1.3,0.6-1.7c0.4-0.4,1-0.7,1.6-0.6c0.3,0,0.6,0,0.8,0.1L394.6,2298.2z
		 M396.1,2298.8c-0.2,0-0.4-0.1-0.5-0.2c-0.1-0.1-0.2-0.3-0.2-0.5c0-0.2,0.1-0.4,0.2-0.5c0.1-0.1,0.3-0.2,0.5-0.2
		c0.2,0,0.4,0.1,0.5,0.2c0.1,0.1,0.2,0.3,0.2,0.5c0,0.2-0.1,0.4-0.2,0.5C396.5,2298.8,396.3,2298.8,396.1,2298.8L396.1,2298.8z
		 M396.7,2307.6h-1.1v-7h1.1V2307.6z M404.8,2307.6h-1.1v-4c0-1.5-0.5-2.2-1.6-2.2c-0.5,0-1,0.2-1.4,0.6c-0.4,0.4-0.6,1-0.6,1.6v4
		H399v-7h1.1v1.2h0c0.5-0.8,1.3-1.4,2.3-1.3c0.7,0,1.3,0.2,1.8,0.7c0.4,0.6,0.7,1.4,0.6,2.1L404.8,2307.6z M407.5,2298.8
		c-0.2,0-0.4-0.1-0.5-0.2c-0.1-0.1-0.2-0.3-0.2-0.5c0-0.2,0.1-0.4,0.2-0.5c0.1-0.1,0.3-0.2,0.5-0.2c0.2,0,0.4,0.1,0.5,0.2
		c0.1,0.1,0.2,0.3,0.2,0.5c0,0.2-0.1,0.4-0.2,0.5C407.8,2298.8,407.7,2298.8,407.5,2298.8z M408,2307.6h-1.1v-7h1.1V2307.6z
		 M419.7,2307.8c-0.9,0-1.8-0.3-2.5-1c-0.6-0.7-1-1.6-0.9-2.6c-0.1-1,0.3-2,1-2.8c0.7-0.7,1.6-1,2.6-1c0.9-0.1,1.8,0.3,2.4,1
		c0.6,0.7,0.9,1.7,0.9,2.7c0,1-0.3,1.9-0.9,2.7C421.5,2307.4,420.6,2307.8,419.7,2307.8z M419.8,2301.4c-0.7,0-1.3,0.2-1.7,0.7
		c-0.4,0.6-0.7,1.3-0.6,2c0,0.7,0.2,1.4,0.6,2c0.4,0.5,1.1,0.7,1.7,0.7c0.6,0,1.3-0.2,1.7-0.7c0.4-0.6,0.6-1.3,0.6-2
		c0-0.7-0.2-1.4-0.6-2C421,2301.6,420.4,2301.3,419.8,2301.4z M382,2307.6h-1.1v-1.2h0c-0.5,0.9-1.4,1.4-2.4,1.4
		c-0.8,0-1.6-0.3-2.1-0.9c-0.6-0.7-0.8-1.6-0.8-2.6c0-1,0.3-2,0.9-2.8c0.6-0.7,1.4-1.1,2.3-1c0.9-0.1,1.7,0.4,2.1,1.1h0v-4.3h1.1
		V2307.6z M380.8,2304.4v-1c0-0.5-0.2-1.1-0.6-1.4c-0.4-0.4-0.9-0.6-1.4-0.6c-0.6,0-1.2,0.3-1.6,0.8c-0.4,0.6-0.6,1.3-0.6,2.1
		c0,0.7,0.2,1.4,0.6,1.9c0.4,0.5,0.9,0.7,1.5,0.7c0.6,0,1.1-0.2,1.5-0.7C380.6,2305.7,380.9,2305.1,380.8,2304.4z"/>
	<path id="Trazado_191493" class="st2" d="M296.1,2113.6h-1.4l-5-7.8c-0.1-0.2-0.2-0.4-0.3-0.6h0c0,0.4,0.1,0.9,0.1,1.3v7.1h-1.1
		v-9.8h1.5l4.9,7.7c0.2,0.3,0.3,0.5,0.4,0.7h0c-0.1-0.5-0.1-1-0.1-1.4v-6.9h1.1V2113.6z M299.1,2104.8c-0.2,0-0.4-0.1-0.5-0.2
		c-0.1-0.1-0.2-0.3-0.2-0.5c0-0.2,0.1-0.4,0.2-0.5c0.1-0.1,0.3-0.2,0.5-0.2c0.2,0,0.4,0.1,0.5,0.2c0.1,0.1,0.2,0.3,0.2,0.5
		c0,0.2-0.1,0.4-0.2,0.5C299.5,2104.7,299.3,2104.8,299.1,2104.8z M299.7,2113.6h-1.1v-7h1.1L299.7,2113.6z"/>
	<path id="Trazado_191494" class="st2" d="M306.9,2106.6l-2.8,7h-1.1l-2.6-7h1.2l1.8,5.1c0.1,0.3,0.2,0.6,0.2,1h0
		c0-0.3,0.1-0.6,0.2-0.9l1.9-5.1H306.9z"/>
	<path id="Trazado_191495" class="st2" d="M313.8,2110.3h-4.9c0,0.7,0.2,1.3,0.6,1.8c0.4,0.4,1,0.7,1.7,0.6c0.8,0,1.6-0.3,2.2-0.8
		v1.1c-0.7,0.5-1.6,0.7-2.4,0.7c-0.9,0-1.7-0.3-2.3-1c-0.6-0.8-0.9-1.7-0.8-2.7c0-1,0.3-1.9,0.9-2.7c0.6-0.7,1.4-1,2.3-1
		c0.8,0,1.6,0.3,2.1,0.9c0.5,0.7,0.8,1.6,0.8,2.5L313.8,2110.3z M312.6,2109.4c0-0.5-0.1-1.1-0.5-1.5c-0.3-0.4-0.8-0.6-1.3-0.5
		c-0.5,0-1,0.2-1.3,0.6c-0.4,0.4-0.6,0.9-0.7,1.5H312.6z M316.6,2113.6h-1.1v-10.4h1.1V2113.6z M328.7,2113.6h-1.1v-1.2h0
		c-0.5,0.9-1.4,1.4-2.4,1.4c-0.8,0-1.6-0.3-2.1-0.9c-0.6-0.7-0.8-1.6-0.8-2.6c0-1,0.3-2,0.9-2.8c0.6-0.7,1.4-1.1,2.3-1
		c0.9-0.1,1.7,0.4,2.1,1.1h0v-4.3h1.1L328.7,2113.6z M327.5,2110.4v-1c0-0.5-0.2-1.1-0.6-1.4c-0.4-0.4-0.9-0.6-1.4-0.6
		c-0.6,0-1.2,0.3-1.6,0.8c-0.4,0.6-0.6,1.3-0.6,2.1c0,0.7,0.2,1.4,0.6,1.9c0.4,0.5,0.9,0.7,1.5,0.7c0.6,0,1.1-0.2,1.5-0.7
		C327.3,2111.6,327.6,2111,327.5,2110.4z M336.6,2110.3h-4.9c0,0.7,0.2,1.3,0.6,1.8c0.4,0.4,1,0.7,1.7,0.6c0.8,0,1.6-0.3,2.2-0.8
		v1.1c-0.7,0.5-1.6,0.7-2.4,0.7c-0.9,0-1.7-0.3-2.3-1c-0.6-0.8-0.9-1.7-0.8-2.7c0-1,0.3-1.9,0.9-2.7c0.6-0.7,1.4-1,2.3-1
		c0.8,0,1.6,0.3,2.1,0.9c0.5,0.7,0.8,1.6,0.8,2.5L336.6,2110.3z M335.4,2109.4c0-0.5-0.1-1.1-0.5-1.5c-0.3-0.4-0.8-0.6-1.3-0.5
		c-0.5,0-1,0.2-1.3,0.6c-0.4,0.4-0.6,0.9-0.7,1.5L335.4,2109.4z"/>
	<path id="Trazado_191496" class="st2" d="M278,2130c-0.6,0.3-1.2,0.5-1.9,0.5c-0.9,0-1.8-0.3-2.4-1c-0.6-0.7-1-1.6-0.9-2.5
		c0-1,0.3-2,1-2.8c0.7-0.7,1.7-1.1,2.6-1c0.6,0,1.1,0.1,1.6,0.3v1.1c-0.5-0.4-1.1-0.5-1.7-0.5c-0.7,0-1.3,0.3-1.8,0.8
		c-0.5,0.6-0.7,1.3-0.7,2c0,0.7,0.2,1.4,0.7,1.9c0.4,0.5,1.1,0.7,1.7,0.7c0.6,0,1.2-0.2,1.7-0.6L278,2130z M284.7,2130.4h-1.1v-1.1
		h0c-0.4,0.8-1.3,1.3-2.2,1.3c-0.6,0-1.2-0.2-1.6-0.6c-0.4-0.4-0.6-0.9-0.6-1.5c0-1.3,0.8-2.1,2.3-2.3l2.1-0.3
		c0-1.2-0.5-1.8-1.4-1.8c-0.8,0-1.7,0.3-2.3,0.9v-1.1c0.7-0.4,1.5-0.7,2.4-0.7c1.6,0,2.5,0.9,2.5,2.6L284.7,2130.4z M283.6,2126.8
		l-1.7,0.2c-0.4,0-0.8,0.2-1.2,0.4c-0.3,0.2-0.4,0.6-0.4,1c0,0.3,0.1,0.6,0.4,0.8c0.3,0.2,0.6,0.3,1,0.3c0.5,0,1-0.2,1.4-0.6
		c0.4-0.4,0.6-0.9,0.5-1.5L283.6,2126.8z M288,2129.3L288,2129.3l0,4.2h-1.1v-10.2h1.1v1.2h0c0.5-0.9,1.4-1.4,2.4-1.4
		c0.8,0,1.6,0.3,2.1,0.9c0.5,0.7,0.8,1.6,0.8,2.5c0.1,1-0.3,2-0.9,2.8c-0.6,0.7-1.4,1.1-2.3,1.1
		C289.2,2130.5,288.4,2130.1,288,2129.3z M288,2126.5v1c0,0.5,0.2,1.1,0.6,1.5c0.4,0.4,0.9,0.6,1.4,0.6c0.6,0,1.2-0.3,1.6-0.8
		c0.4-0.6,0.6-1.4,0.6-2.2c0-0.7-0.2-1.3-0.5-1.8c-0.4-0.4-0.9-0.7-1.5-0.7c-0.6,0-1.2,0.2-1.6,0.7
		C288.2,2125.3,288,2125.9,288,2126.5z M300.1,2130.4H299v-1.1h0c-0.4,0.8-1.3,1.3-2.2,1.3c-0.6,0-1.2-0.2-1.6-0.6
		c-0.4-0.4-0.6-0.9-0.6-1.5c0-1.3,0.8-2.1,2.3-2.3l2.1-0.3c0-1.2-0.5-1.8-1.4-1.8c-0.8,0-1.7,0.3-2.3,0.9v-1.1
		c0.7-0.4,1.5-0.7,2.4-0.7c1.6,0,2.5,0.9,2.5,2.6L300.1,2130.4z M299,2126.8l-1.7,0.2c-0.4,0-0.8,0.2-1.2,0.4
		c-0.3,0.2-0.4,0.6-0.4,1c0,0.3,0.1,0.6,0.4,0.8c0.3,0.2,0.6,0.3,1,0.3c0.5,0,1-0.2,1.4-0.6c0.4-0.4,0.6-0.9,0.5-1.5L299,2126.8z
		 M307,2130c-0.6,0.3-1.2,0.5-1.9,0.5c-0.9,0-1.8-0.3-2.4-1c-0.6-0.7-1-1.6-0.9-2.5c0-1,0.3-2,1-2.8c0.7-0.7,1.7-1.1,2.6-1
		c0.6,0,1.1,0.1,1.6,0.3v1.1c-0.5-0.4-1.1-0.5-1.7-0.5c-0.7,0-1.3,0.3-1.8,0.8c-0.5,0.6-0.7,1.3-0.7,2c0,0.7,0.2,1.4,0.6,1.9
		c0.4,0.5,1.1,0.7,1.7,0.7c0.6,0,1.2-0.2,1.7-0.6L307,2130z M309.2,2121.6c-0.2,0-0.4-0.1-0.5-0.2c-0.1-0.1-0.2-0.3-0.2-0.5
		c0-0.2,0.1-0.4,0.2-0.5c0.1-0.1,0.3-0.2,0.5-0.2c0.2,0,0.4,0.1,0.5,0.2c0.1,0.1,0.2,0.3,0.2,0.5c0,0.2-0.1,0.4-0.2,0.5
		C309.6,2121.5,309.4,2121.6,309.2,2121.6L309.2,2121.6z M309.8,2130.4h-1.1v-7h1.1L309.8,2130.4z M318,2130.4h-1.1v-1.2h0
		c-0.5,0.9-1.4,1.4-2.4,1.4c-0.8,0-1.6-0.3-2.1-0.9c-0.6-0.7-0.8-1.6-0.8-2.6c0-1,0.3-2,0.9-2.8c0.6-0.7,1.4-1.1,2.3-1
		c0.9-0.1,1.7,0.4,2.1,1.1h0v-4.3h1.1V2130.4z M316.9,2127.2v-1c0-0.5-0.2-1.1-0.6-1.4c-0.4-0.4-0.9-0.6-1.4-0.6
		c-0.6,0-1.2,0.3-1.6,0.8c-0.4,0.6-0.6,1.3-0.6,2.1c0,0.7,0.2,1.4,0.6,1.9c0.4,0.5,0.9,0.7,1.5,0.7c0.6,0,1.1-0.2,1.5-0.7
		C316.7,2128.4,316.9,2127.8,316.9,2127.2z M325.3,2130.4h-1.1v-1.1h0c-0.4,0.8-1.3,1.3-2.2,1.3c-0.6,0-1.2-0.2-1.6-0.6
		c-0.4-0.4-0.6-0.9-0.6-1.5c0-1.3,0.8-2.1,2.3-2.3l2.1-0.3c0-1.2-0.5-1.8-1.4-1.8c-0.8,0-1.7,0.3-2.3,0.9v-1.1
		c0.7-0.4,1.5-0.7,2.4-0.7c1.6,0,2.5,0.9,2.5,2.6L325.3,2130.4z M324.2,2126.8l-1.7,0.2c-0.4,0-0.8,0.2-1.2,0.4
		c-0.3,0.2-0.4,0.6-0.4,1c0,0.3,0.1,0.6,0.4,0.8c0.3,0.2,0.6,0.3,1,0.3c0.5,0,1-0.2,1.4-0.6c0.4-0.4,0.6-0.9,0.5-1.5L324.2,2126.8z
		 M333.4,2130.4h-1.1v-1.2h0c-0.5,0.9-1.4,1.4-2.4,1.4c-0.8,0-1.6-0.3-2.1-0.9c-0.6-0.7-0.8-1.6-0.8-2.6c0-1,0.3-2,0.9-2.8
		c0.6-0.7,1.4-1.1,2.3-1c0.9-0.1,1.7,0.4,2.1,1.1h0v-4.3h1.1L333.4,2130.4z M332.3,2127.2v-1c0-0.5-0.2-1-0.6-1.4
		c-0.4-0.4-0.9-0.6-1.4-0.6c-0.6,0-1.2,0.3-1.6,0.8c-0.4,0.6-0.6,1.3-0.6,2.1c0,0.7,0.2,1.4,0.6,1.9c0.4,0.5,0.9,0.7,1.5,0.7
		c0.6,0,1.1-0.2,1.5-0.7C332.1,2128.4,332.3,2127.8,332.3,2127.2z M344.2,2120.6v6.5h1.3v1h-1.3v2.3h-1.1v-2.3h-4.6v-1
		c0.4-0.5,0.9-1,1.3-1.5c0.4-0.5,0.9-1.1,1.3-1.7c0.4-0.6,0.8-1.1,1.1-1.7c0.3-0.5,0.6-1.1,0.9-1.6H344.2z M339.7,2127h3.3v-4.8
		c-0.3,0.6-0.7,1.1-1,1.6c-0.3,0.5-0.6,0.9-0.9,1.3c-0.3,0.4-0.5,0.7-0.8,1S340,2126.8,339.7,2127L339.7,2127z M347.4,2124.7
		c-0.2,0-0.4-0.1-0.5-0.2c-0.1-0.1-0.2-0.3-0.2-0.5c0-0.2,0.1-0.4,0.2-0.5c0.1-0.1,0.3-0.2,0.5-0.2c0.2,0,0.4,0.1,0.5,0.2
		c0.1,0.1,0.2,0.3,0.2,0.5c0,0.2-0.1,0.4-0.2,0.5C347.9,2124.7,347.7,2124.7,347.4,2124.7L347.4,2124.7z M347.4,2130.5
		c-0.2,0-0.4-0.1-0.5-0.2c-0.1-0.1-0.2-0.3-0.2-0.5c0-0.2,0.1-0.4,0.2-0.5c0.1-0.1,0.3-0.2,0.5-0.2c0.2,0,0.4,0.1,0.5,0.2
		c0.1,0.1,0.2,0.3,0.2,0.5c0,0.2-0.1,0.4-0.2,0.5C347.9,2130.4,347.7,2130.5,347.4,2130.5L347.4,2130.5z"/>
	<path id="Trazado_191497" class="st2" d="M277.1,2147.2h-1.1v-1.1h0c-0.4,0.8-1.3,1.3-2.2,1.3c-0.6,0-1.2-0.2-1.6-0.6
		c-0.4-0.4-0.6-0.9-0.6-1.5c0-1.3,0.8-2.1,2.3-2.3l2.1-0.3c0-1.2-0.5-1.8-1.4-1.8c-0.8,0-1.7,0.3-2.3,0.9v-1.1
		c0.7-0.4,1.5-0.7,2.4-0.7c1.6,0,2.5,0.9,2.5,2.6L277.1,2147.2z M275.9,2143.6l-1.7,0.2c-0.4,0-0.8,0.2-1.2,0.4
		c-0.3,0.2-0.4,0.6-0.4,1c0,0.3,0.1,0.6,0.4,0.8c0.3,0.2,0.6,0.3,1,0.3c0.5,0,1-0.2,1.4-0.6c0.4-0.4,0.6-0.9,0.5-1.5L275.9,2143.6z
		 M285.2,2147.2H284v-1.2h0c-0.5,0.9-1.4,1.4-2.4,1.4c-0.8,0-1.6-0.3-2.1-0.9c-0.6-0.7-0.8-1.6-0.8-2.6c0-1,0.3-2,0.9-2.8
		c0.6-0.7,1.4-1.1,2.3-1c0.9-0.1,1.7,0.4,2.1,1.1h0v-4.3h1.1L285.2,2147.2z M284,2144v-1c0-0.5-0.2-1.1-0.6-1.4
		c-0.4-0.4-0.9-0.6-1.4-0.6c-0.6,0-1.2,0.3-1.6,0.8c-0.4,0.6-0.6,1.3-0.6,2.1c0,0.7,0.2,1.4,0.6,1.9c0.4,0.5,0.9,0.7,1.5,0.7
		c0.6,0,1.1-0.2,1.5-0.7C283.8,2145.2,284.1,2144.6,284,2144z M297.4,2147.2h-1.1v-4c0-0.6-0.1-1.2-0.4-1.7
		c-0.3-0.4-0.7-0.6-1.2-0.5c-0.5,0-0.9,0.3-1.2,0.7c-0.3,0.5-0.5,1-0.5,1.6v4h-1.1v-4.2c0-1.4-0.5-2.1-1.6-2.1
		c-0.5,0-0.9,0.2-1.2,0.6c-0.3,0.5-0.5,1-0.5,1.6v4h-1.1v-7h1.1v1.1h0c0.4-0.8,1.3-1.3,2.2-1.3c0.4,0,0.9,0.1,1.3,0.4
		c0.4,0.3,0.6,0.6,0.7,1c0.4-0.9,1.3-1.5,2.3-1.4c1.5,0,2.3,1,2.3,2.9L297.4,2147.2z M300.1,2138.4c-0.2,0-0.4-0.1-0.5-0.2
		c-0.1-0.1-0.2-0.3-0.2-0.5c0-0.2,0.1-0.4,0.2-0.5c0.1-0.1,0.3-0.2,0.5-0.2c0.2,0,0.4,0.1,0.5,0.2c0.1,0.1,0.2,0.3,0.2,0.5
		c0,0.2-0.1,0.4-0.2,0.5C300.4,2138.3,300.3,2138.4,300.1,2138.4L300.1,2138.4z M300.6,2147.2h-1.1v-7h1.1V2147.2z M308.7,2147.2
		h-1.1v-4c0-1.5-0.5-2.2-1.6-2.2c-0.5,0-1,0.2-1.4,0.6c-0.4,0.4-0.6,1-0.6,1.6v4h-1.1v-7h1.1v1.2h0c0.5-0.8,1.3-1.4,2.3-1.3
		c0.7,0,1.3,0.2,1.8,0.7c0.4,0.6,0.7,1.4,0.6,2.1L308.7,2147.2z M311.4,2138.4c-0.2,0-0.4-0.1-0.5-0.2c-0.1-0.1-0.2-0.3-0.2-0.5
		c0-0.2,0.1-0.4,0.2-0.5c0.1-0.1,0.3-0.2,0.5-0.2c0.2,0,0.4,0.1,0.5,0.2c0.1,0.1,0.2,0.3,0.2,0.5c0,0.2-0.1,0.4-0.2,0.5
		C311.8,2138.3,311.6,2138.4,311.4,2138.4L311.4,2138.4z M311.9,2147.2h-1.1v-7h1.1V2147.2z M313.8,2146.9v-1.2
		c0.6,0.4,1.3,0.7,2,0.7c1,0,1.5-0.3,1.5-1c0-0.2,0-0.3-0.1-0.5c-0.1-0.1-0.2-0.3-0.3-0.3c-0.2-0.1-0.3-0.2-0.5-0.3
		c-0.2-0.1-0.4-0.2-0.6-0.2c-0.3-0.1-0.6-0.2-0.8-0.4c-0.2-0.1-0.4-0.3-0.6-0.4c-0.2-0.2-0.3-0.3-0.4-0.5c-0.1-0.2-0.1-0.5-0.1-0.7
		c0-0.3,0.1-0.6,0.2-0.9c0.2-0.3,0.4-0.5,0.6-0.6c0.3-0.2,0.6-0.3,0.9-0.4c0.3-0.1,0.7-0.1,1-0.1c0.6,0,1.1,0.1,1.6,0.3v1.1
		c-0.5-0.3-1.1-0.5-1.8-0.5c-0.2,0-0.4,0-0.6,0.1c-0.2,0-0.3,0.1-0.4,0.2c-0.1,0.1-0.2,0.2-0.3,0.3c-0.1,0.1-0.1,0.3-0.1,0.4
		c0,0.2,0,0.3,0.1,0.5c0.1,0.1,0.2,0.2,0.3,0.3c0.1,0.1,0.3,0.2,0.5,0.3c0.2,0.1,0.4,0.2,0.6,0.3c0.3,0.1,0.6,0.2,0.8,0.4
		c0.2,0.1,0.4,0.3,0.6,0.4c0.2,0.2,0.3,0.3,0.4,0.5c0.1,0.2,0.1,0.5,0.1,0.7c0,0.3-0.1,0.6-0.2,0.9c-0.2,0.3-0.4,0.5-0.6,0.6
		c-0.3,0.2-0.6,0.3-0.9,0.4c-0.3,0.1-0.7,0.1-1,0.1C315,2147.3,314.3,2147.2,313.8,2146.9L313.8,2146.9z M323.4,2147.1
		c-0.3,0.2-0.7,0.2-1.1,0.2c-1.2,0-1.8-0.7-1.8-2v-4.1h-1.2v-1h1.2v-1.7l1.1-0.4v2.1h1.8v1h-1.8v3.9c0,0.4,0.1,0.7,0.2,1
		c0.2,0.2,0.5,0.3,0.8,0.3c0.3,0,0.5-0.1,0.7-0.2L323.4,2147.1z"/>
	<path id="Trazado_191498" class="st2" d="M329.8,2141.3c-0.3-0.2-0.5-0.2-0.8-0.2c-0.5,0-0.9,0.3-1.2,0.7c-0.3,0.6-0.5,1.2-0.5,1.8
		v3.6h-1.1v-7h1.1v1.4h0c0.1-0.4,0.4-0.8,0.7-1.2c0.3-0.3,0.7-0.4,1.1-0.4c0.2,0,0.5,0,0.7,0.1L329.8,2141.3z"/>
	<path id="Trazado_191499" class="st2" d="M335.6,2147.2h-1.1v-1.1h0c-0.4,0.8-1.3,1.3-2.2,1.3c-0.6,0-1.2-0.2-1.6-0.6
		c-0.4-0.4-0.6-0.9-0.6-1.5c0-1.3,0.8-2.1,2.3-2.3l2.1-0.3c0-1.2-0.5-1.8-1.4-1.8c-0.8,0-1.7,0.3-2.3,0.9v-1.1
		c0.7-0.4,1.5-0.7,2.4-0.7c1.6,0,2.5,0.9,2.5,2.6L335.6,2147.2z M334.5,2143.6l-1.7,0.2c-0.4,0-0.8,0.2-1.2,0.4
		c-0.3,0.2-0.4,0.6-0.4,1c0,0.3,0.1,0.6,0.4,0.8c0.3,0.2,0.6,0.3,1,0.3c0.5,0,1-0.2,1.4-0.6c0.4-0.4,0.6-0.9,0.5-1.5L334.5,2143.6z
		 M343.7,2147.2h-1.1v-1.2h0c-0.5,0.9-1.4,1.4-2.4,1.4c-0.8,0-1.6-0.3-2.1-0.9c-0.6-0.7-0.8-1.6-0.8-2.6c0-1,0.3-2,0.9-2.8
		c0.6-0.7,1.4-1.1,2.3-1c0.9-0.1,1.7,0.4,2.1,1.1h0v-4.3h1.1L343.7,2147.2z M342.6,2144v-1c0-0.5-0.2-1.1-0.6-1.4
		c-0.4-0.4-0.9-0.6-1.4-0.6c-0.6,0-1.2,0.3-1.6,0.8c-0.4,0.6-0.6,1.3-0.6,2.1c0,0.7,0.2,1.4,0.6,1.9c0.4,0.5,0.9,0.7,1.5,0.7
		c0.6,0,1.1-0.2,1.5-0.7C342.4,2145.2,342.6,2144.6,342.6,2144z M351,2147.2h-1.1v-1.1h0c-0.4,0.8-1.3,1.3-2.2,1.3
		c-0.6,0-1.2-0.2-1.6-0.6c-0.4-0.4-0.6-0.9-0.6-1.5c0-1.3,0.8-2.1,2.3-2.3l2.1-0.3c0-1.2-0.5-1.8-1.4-1.8c-0.8,0-1.7,0.3-2.3,0.9
		v-1.1c0.7-0.4,1.5-0.7,2.4-0.7c1.6,0,2.5,0.9,2.5,2.6L351,2147.2z M349.9,2143.6l-1.7,0.2c-0.4,0-0.8,0.2-1.2,0.4
		c-0.3,0.2-0.4,0.6-0.4,1c0,0.3,0.1,0.6,0.4,0.8c0.3,0.2,0.6,0.3,1,0.3c0.5,0,1-0.2,1.4-0.6c0.4-0.4,0.6-0.9,0.5-1.5L349.9,2143.6z"
		/>
	<path id="Trazado_191500" class="st2" d="M268.7,2161.3c-0.5,0.3-1.1,0.4-1.6,0.4c-0.8,0-1.5-0.3-2.1-0.8c-0.5-0.6-0.8-1.4-0.8-2.2
		c0-0.9,0.3-1.7,0.9-2.4c0.6-0.6,1.4-0.9,2.3-0.9c0.5,0,1,0.1,1.4,0.3v1c-0.4-0.3-0.9-0.5-1.4-0.5c-0.6,0-1.1,0.2-1.5,0.7
		c-0.4,0.5-0.6,1.1-0.6,1.7c0,0.6,0.2,1.2,0.6,1.7c0.4,0.4,0.9,0.6,1.5,0.6c0.5,0,1.1-0.2,1.5-0.5L268.7,2161.3z M275,2161.6h-1
		v-0.9h0c-0.3,0.7-1.1,1.1-1.8,1.1c-1.4,0-2.1-0.9-2.1-2.6v-3.6h1v3.4c0,1.3,0.5,1.9,1.5,1.9c0.4,0,0.9-0.2,1.2-0.5
		c0.3-0.4,0.5-0.9,0.5-1.4v-3.5h1L275,2161.6z M281.3,2161.6h-1v-0.9h0c-0.4,0.7-1.1,1.1-1.8,1.1c-0.5,0-1-0.1-1.4-0.5
		c-0.3-0.3-0.5-0.8-0.5-1.3c0-1.1,0.7-1.8,2-2l1.8-0.3c0-1-0.4-1.5-1.2-1.5c-0.7,0-1.4,0.3-2,0.7v-1c0.6-0.4,1.3-0.6,2-0.6
		c1.4,0,2.1,0.7,2.1,2.2V2161.6z M280.3,2158.5l-1.4,0.2c-0.4,0-0.7,0.1-1,0.3c-0.2,0.2-0.4,0.5-0.3,0.8c0,0.3,0.1,0.5,0.3,0.7
		c0.2,0.2,0.5,0.3,0.8,0.3c0.4,0,0.9-0.2,1.2-0.5c0.3-0.3,0.5-0.8,0.5-1.3V2158.5z M288.1,2161.6h-1v-3.4c0-1.3-0.5-1.9-1.4-1.9
		c-0.5,0-0.9,0.2-1.2,0.5c-0.3,0.4-0.5,0.9-0.5,1.4v3.4h-1v-6h1v1h0c0.4-0.7,1.2-1.2,2-1.1c0.6,0,1.1,0.2,1.5,0.6
		c0.4,0.5,0.6,1.2,0.5,1.8L288.1,2161.6z M292.7,2161.5c-0.3,0.1-0.6,0.2-0.9,0.2c-1.1,0-1.6-0.6-1.6-1.8v-3.6h-1v-0.8h1v-1.5l1-0.3
		v1.8h1.5v0.8h-1.5v3.4c0,0.3,0,0.6,0.2,0.9c0.2,0.2,0.4,0.3,0.7,0.3c0.2,0,0.4-0.1,0.6-0.2V2161.5z M294.4,2154
		c-0.2,0-0.3-0.1-0.4-0.2c-0.1-0.1-0.2-0.3-0.2-0.4c0-0.2,0.1-0.3,0.2-0.4c0.1-0.1,0.3-0.2,0.4-0.2c0.2,0,0.3,0.1,0.4,0.2
		c0.1,0.1,0.2,0.3,0.2,0.4c0,0.2-0.1,0.3-0.2,0.4C294.8,2154,294.6,2154,294.4,2154L294.4,2154z M294.9,2161.6h-1v-6h1L294.9,2161.6
		z M299.6,2161.5c-0.3,0.1-0.6,0.2-0.9,0.2c-1.1,0-1.6-0.6-1.6-1.8v-3.6h-1v-0.8h1v-1.5l1-0.3v1.8h1.5v0.8h-1.5v3.4
		c0,0.3,0,0.6,0.2,0.9c0.2,0.2,0.4,0.3,0.7,0.3c0.2,0,0.4-0.1,0.6-0.2V2161.5z M305.2,2161.6h-1v-0.9h0c-0.4,0.7-1.1,1.1-1.8,1.1
		c-0.5,0-1-0.1-1.4-0.5c-0.3-0.3-0.5-0.8-0.5-1.3c0-1.1,0.7-1.8,2-2l1.8-0.3c0-1-0.4-1.5-1.2-1.5c-0.7,0-1.4,0.3-2,0.7v-1
		c0.6-0.4,1.3-0.6,2-0.6c1.4,0,2.1,0.7,2.1,2.2L305.2,2161.6z M304.2,2158.5l-1.4,0.2c-0.4,0-0.7,0.1-1,0.3
		c-0.2,0.2-0.4,0.5-0.3,0.8c0,0.3,0.1,0.5,0.3,0.7c0.2,0.2,0.5,0.3,0.8,0.3c0.4,0,0.9-0.2,1.2-0.5c0.3-0.3,0.5-0.8,0.5-1.3V2158.5z
		 M309.8,2161.5c-0.3,0.1-0.6,0.2-0.9,0.2c-1.1,0-1.6-0.6-1.6-1.8v-3.6h-1v-0.8h1v-1.5l1-0.3v1.8h1.5v0.8h-1.5v3.4
		c0,0.3,0,0.6,0.2,0.9c0.2,0.2,0.4,0.3,0.7,0.3c0.2,0,0.4-0.1,0.6-0.2V2161.5z M311.6,2154c-0.2,0-0.3-0.1-0.4-0.2
		c-0.1-0.1-0.2-0.3-0.2-0.4c0-0.2,0.1-0.3,0.2-0.4c0.1-0.1,0.3-0.2,0.4-0.2c0.2,0,0.3,0.1,0.4,0.2c0.1,0.1,0.2,0.3,0.2,0.4
		c0,0.2-0.1,0.3-0.2,0.4C311.9,2154,311.7,2154,311.6,2154L311.6,2154z M312,2161.6h-1v-6h1V2161.6z"/>
	<path id="Trazado_191501" class="st2" d="M319.5,2155.6l-2.4,6h-0.9l-2.3-6h1.1l1.5,4.4c0.1,0.3,0.2,0.6,0.2,0.8h0
		c0-0.3,0.1-0.6,0.2-0.8l1.6-4.4H319.5z"/>
	<path id="Trazado_191502" class="st2" d="M324.8,2161.6h-1v-0.9h0c-0.4,0.7-1.1,1.1-1.8,1.1c-0.5,0-1-0.1-1.4-0.5
		c-0.3-0.3-0.5-0.8-0.5-1.3c0-1.1,0.7-1.8,2-2l1.8-0.3c0-1-0.4-1.5-1.2-1.5c-0.7,0-1.4,0.3-2,0.7v-1c0.6-0.4,1.3-0.6,2-0.6
		c1.4,0,2.1,0.7,2.1,2.2L324.8,2161.6z M323.9,2158.5l-1.4,0.2c-0.4,0-0.7,0.1-1,0.3c-0.2,0.2-0.4,0.5-0.3,0.8
		c0,0.3,0.1,0.5,0.3,0.7c0.2,0.2,0.5,0.3,0.8,0.3c0.4,0,0.9-0.2,1.2-0.5c0.3-0.3,0.5-0.8,0.5-1.3V2158.5z M335.1,2161.6h-1v-3.4
		c0-0.5-0.1-1-0.3-1.4c-0.2-0.3-0.6-0.5-1-0.4c-0.4,0-0.8,0.2-1,0.6c-0.3,0.4-0.4,0.9-0.4,1.3v3.4h-1v-3.6c0-1.2-0.5-1.8-1.4-1.8
		c-0.4,0-0.8,0.2-1,0.5c-0.3,0.4-0.4,0.9-0.4,1.4v3.4h-1v-6h1v0.9h0c0.4-0.7,1.1-1.1,1.9-1.1c0.4,0,0.8,0.1,1.1,0.3
		c0.3,0.2,0.5,0.5,0.6,0.9c0.4-0.8,1.1-1.3,2-1.2c1.3,0,2,0.8,2,2.4L335.1,2161.6z M341.8,2158.8h-4.2c0,0.6,0.2,1.1,0.5,1.5
		c0.4,0.4,0.9,0.6,1.4,0.5c0.7,0,1.3-0.2,1.9-0.7v0.9c-0.6,0.4-1.4,0.6-2.1,0.6c-0.8,0-1.5-0.3-2-0.8c-0.5-0.6-0.8-1.5-0.7-2.3
		c0-0.8,0.3-1.7,0.8-2.3c0.5-0.6,1.2-0.9,2-0.9c0.7,0,1.4,0.2,1.8,0.8c0.5,0.6,0.7,1.4,0.6,2.1V2158.8z M340.8,2158
		c0-0.5-0.1-0.9-0.4-1.3c-0.3-0.3-0.7-0.5-1.1-0.5c-0.4,0-0.9,0.2-1.2,0.5c-0.3,0.3-0.5,0.8-0.6,1.3L340.8,2158z M348.2,2161.6h-1
		v-3.4c0-1.3-0.5-1.9-1.4-1.9c-0.5,0-0.9,0.2-1.2,0.5c-0.3,0.4-0.5,0.9-0.5,1.4v3.4h-1v-6h1v1h0c0.4-0.7,1.2-1.2,2-1.1
		c0.6,0,1.1,0.2,1.5,0.6c0.4,0.5,0.6,1.2,0.5,1.8L348.2,2161.6z M352.8,2161.5c-0.3,0.1-0.6,0.2-0.9,0.2c-1.1,0-1.6-0.6-1.6-1.8
		v-3.6h-1v-0.8h1v-1.5l1-0.3v1.8h1.5v0.8h-1.5v3.4c0,0.3,0,0.6,0.2,0.9c0.2,0.2,0.4,0.3,0.7,0.3c0.2,0,0.4-0.1,0.6-0.2V2161.5z
		 M358.9,2158.8h-4.2c0,0.6,0.2,1.1,0.5,1.5c0.4,0.4,0.9,0.6,1.4,0.5c0.7,0,1.3-0.2,1.9-0.7v0.9c-0.6,0.4-1.4,0.6-2.1,0.6
		c-0.8,0-1.5-0.3-2-0.8c-0.5-0.6-0.8-1.5-0.7-2.3c0-0.8,0.2-1.6,0.8-2.3c0.5-0.6,1.2-0.9,2-0.9c0.7,0,1.4,0.2,1.8,0.8
		c0.5,0.6,0.7,1.4,0.6,2.1L358.9,2158.8z M357.9,2158c0-0.5-0.1-0.9-0.4-1.3c-0.3-0.3-0.7-0.5-1.1-0.5c-0.4,0-0.9,0.2-1.2,0.5
		c-0.3,0.3-0.5,0.8-0.6,1.3L357.9,2158z"/>
	<path id="Trazado_191503" class="st2" d="M383.4,1974.1H382l-5-7.8c-0.1-0.2-0.2-0.4-0.3-0.6h0c0,0.4,0.1,0.9,0.1,1.3v7.1h-1.1
		v-9.8h1.5l4.9,7.7c0.2,0.3,0.3,0.5,0.4,0.7h0c-0.1-0.5-0.1-1-0.1-1.4v-6.9h1.1V1974.1z M386.4,1965.4c-0.2,0-0.4-0.1-0.5-0.2
		c-0.1-0.1-0.2-0.3-0.2-0.5c0-0.2,0.1-0.4,0.2-0.5c0.1-0.1,0.3-0.2,0.5-0.2c0.2,0,0.4,0.1,0.5,0.2c0.1,0.1,0.2,0.3,0.2,0.5
		c0,0.2-0.1,0.4-0.2,0.5C386.8,1965.3,386.6,1965.4,386.4,1965.4z M387,1974.1h-1.1v-7h1.1L387,1974.1z"/>
	<path id="Trazado_191504" class="st2" d="M394.2,1967.1l-2.8,7h-1.1l-2.6-7h1.2l1.8,5.1c0.1,0.3,0.2,0.6,0.2,1h0
		c0-0.3,0.1-0.6,0.2-0.9l1.9-5.1H394.2z"/>
	<path id="Trazado_191505" class="st2" d="M401.1,1970.9h-4.9c0,0.7,0.2,1.3,0.6,1.8c0.4,0.4,1,0.7,1.7,0.6c0.8,0,1.6-0.3,2.2-0.8
		v1.1c-0.7,0.5-1.6,0.7-2.4,0.7c-0.9,0-1.7-0.3-2.3-1c-0.6-0.8-0.9-1.7-0.8-2.7c0-1,0.3-1.9,0.9-2.7c0.6-0.7,1.4-1,2.3-1
		c0.8,0,1.6,0.3,2.1,0.9c0.5,0.7,0.8,1.6,0.8,2.5L401.1,1970.9z M399.9,1970c0-0.5-0.1-1.1-0.5-1.5c-0.3-0.4-0.8-0.6-1.3-0.5
		c-0.5,0-1,0.2-1.3,0.6c-0.4,0.4-0.6,0.9-0.7,1.5H399.9z M403.9,1974.1h-1.1v-10.4h1.1V1974.1z M416,1974.1h-1.1v-1.2h0
		c-0.5,0.9-1.4,1.4-2.4,1.4c-0.8,0-1.6-0.3-2.1-0.9c-0.6-0.7-0.8-1.6-0.8-2.6c0-1,0.3-2,0.9-2.8c0.6-0.7,1.4-1.1,2.3-1
		c0.9-0.1,1.7,0.4,2.1,1.1h0v-4.3h1.1L416,1974.1z M414.8,1971v-1c0-0.5-0.2-1.1-0.6-1.4c-0.4-0.4-0.9-0.6-1.4-0.6
		c-0.6,0-1.2,0.3-1.6,0.8c-0.4,0.6-0.6,1.3-0.6,2.1c0,0.7,0.2,1.4,0.6,1.9c0.4,0.5,0.9,0.7,1.5,0.7c0.6,0,1.1-0.2,1.5-0.7
		C414.6,1972.2,414.9,1971.6,414.8,1971z M423.9,1970.9h-4.9c0,0.7,0.2,1.3,0.6,1.8c0.4,0.4,1,0.7,1.7,0.6c0.8,0,1.6-0.3,2.2-0.8
		v1.1c-0.7,0.5-1.6,0.7-2.4,0.7c-0.9,0-1.7-0.3-2.3-1c-0.6-0.8-0.9-1.7-0.8-2.7c0-1,0.3-1.9,0.9-2.7c0.6-0.7,1.4-1,2.3-1
		c0.8,0,1.6,0.3,2.1,0.9c0.5,0.7,0.8,1.6,0.8,2.5L423.9,1970.9z M422.7,1970c0-0.5-0.1-1.1-0.5-1.5c-0.3-0.4-0.8-0.6-1.3-0.5
		c-0.5,0-1,0.2-1.3,0.6c-0.4,0.4-0.6,0.9-0.7,1.5L422.7,1970z"/>
	<path id="Trazado_191506" class="st2" d="M365.3,1990.6c-0.6,0.3-1.2,0.5-1.9,0.5c-0.9,0-1.8-0.3-2.4-1c-0.6-0.7-1-1.6-0.9-2.5
		c0-1,0.3-2,1-2.8c0.7-0.7,1.7-1.1,2.6-1c0.6,0,1.1,0.1,1.6,0.3v1.1c-0.5-0.4-1.1-0.5-1.7-0.5c-0.7,0-1.3,0.3-1.8,0.8
		c-0.5,0.6-0.7,1.3-0.7,2c0,0.7,0.2,1.4,0.7,1.9c0.4,0.5,1.1,0.7,1.7,0.7c0.6,0,1.2-0.2,1.7-0.6L365.3,1990.6z M372,1990.9h-1.1
		v-1.1h0c-0.4,0.8-1.3,1.3-2.2,1.3c-0.6,0-1.2-0.2-1.6-0.6c-0.4-0.4-0.6-0.9-0.6-1.5c0-1.3,0.8-2.1,2.3-2.3l2.1-0.3
		c0-1.2-0.5-1.8-1.4-1.8c-0.8,0-1.7,0.3-2.3,0.9v-1.1c0.7-0.4,1.5-0.7,2.4-0.7c1.6,0,2.5,0.9,2.5,2.6L372,1990.9z M370.9,1987.4
		l-1.7,0.2c-0.4,0-0.8,0.2-1.2,0.4c-0.3,0.2-0.4,0.6-0.4,1c0,0.3,0.1,0.6,0.4,0.8c0.3,0.2,0.6,0.3,1,0.3c0.5,0,1-0.2,1.4-0.6
		c0.4-0.4,0.6-0.9,0.5-1.5L370.9,1987.4z M375.3,1989.9L375.3,1989.9l0,4.2h-1.1v-10.2h1.1v1.2h0c0.5-0.9,1.4-1.4,2.4-1.4
		c0.8,0,1.6,0.3,2.1,0.9c0.5,0.7,0.8,1.6,0.8,2.5c0.1,1-0.3,2-0.9,2.8c-0.6,0.7-1.4,1.1-2.3,1.1
		C376.5,1991.1,375.7,1990.7,375.3,1989.9z M375.3,1987.1v1c0,0.5,0.2,1.1,0.6,1.5c0.4,0.4,0.9,0.6,1.4,0.6c0.6,0,1.2-0.3,1.6-0.8
		c0.4-0.6,0.6-1.4,0.6-2.2c0-0.7-0.2-1.3-0.5-1.8c-0.4-0.4-0.9-0.7-1.5-0.7c-0.6,0-1.2,0.2-1.6,0.7
		C375.5,1985.9,375.3,1986.5,375.3,1987.1z M387.4,1990.9h-1.1v-1.1h0c-0.4,0.8-1.3,1.3-2.2,1.3c-0.6,0-1.2-0.2-1.6-0.6
		c-0.4-0.4-0.6-0.9-0.6-1.5c0-1.3,0.8-2.1,2.3-2.3l2.1-0.3c0-1.2-0.5-1.8-1.4-1.8c-0.8,0-1.7,0.3-2.3,0.9v-1.1
		c0.7-0.4,1.5-0.7,2.4-0.7c1.6,0,2.5,0.9,2.5,2.6L387.4,1990.9z M386.3,1987.4l-1.7,0.2c-0.4,0-0.8,0.2-1.2,0.4
		c-0.3,0.2-0.4,0.6-0.4,1c0,0.3,0.1,0.6,0.4,0.8c0.3,0.2,0.6,0.3,1,0.3c0.5,0,1-0.2,1.4-0.6c0.4-0.4,0.6-0.9,0.5-1.5L386.3,1987.4z
		 M394.3,1990.6c-0.6,0.3-1.2,0.5-1.9,0.5c-0.9,0-1.8-0.3-2.4-1c-0.6-0.7-1-1.6-0.9-2.5c0-1,0.3-2,1-2.8c0.7-0.7,1.7-1.1,2.6-1
		c0.6,0,1.1,0.1,1.6,0.3v1.1c-0.5-0.4-1.1-0.5-1.7-0.5c-0.7,0-1.3,0.3-1.8,0.8c-0.5,0.6-0.7,1.3-0.7,2c0,0.7,0.2,1.4,0.6,1.9
		c0.4,0.5,1.1,0.7,1.7,0.7c0.6,0,1.2-0.2,1.7-0.6L394.3,1990.6z M396.5,1982.2c-0.2,0-0.4-0.1-0.5-0.2c-0.1-0.1-0.2-0.3-0.2-0.5
		c0-0.2,0.1-0.4,0.2-0.5c0.1-0.1,0.3-0.2,0.5-0.2c0.2,0,0.4,0.1,0.5,0.2c0.1,0.1,0.2,0.3,0.2,0.5c0,0.2-0.1,0.4-0.2,0.5
		C396.9,1982.1,396.7,1982.2,396.5,1982.2L396.5,1982.2z M397.1,1990.9H396v-7h1.1L397.1,1990.9z M405.3,1990.9h-1.1v-1.2h0
		c-0.5,0.9-1.4,1.4-2.4,1.4c-0.8,0-1.6-0.3-2.1-0.9c-0.6-0.7-0.8-1.6-0.8-2.6c0-1,0.3-2,0.9-2.8c0.6-0.7,1.4-1.1,2.3-1
		c0.9-0.1,1.7,0.4,2.1,1.1h0v-4.3h1.1V1990.9z M404.2,1987.8v-1c0-0.5-0.2-1.1-0.6-1.4c-0.4-0.4-0.9-0.6-1.4-0.6
		c-0.6,0-1.2,0.3-1.6,0.8c-0.4,0.6-0.6,1.3-0.6,2.1c0,0.7,0.2,1.4,0.6,1.9c0.4,0.5,0.9,0.7,1.5,0.7c0.6,0,1.1-0.2,1.5-0.7
		C404,1989,404.2,1988.4,404.2,1987.8z M412.6,1990.9h-1.1v-1.1h0c-0.4,0.8-1.3,1.3-2.2,1.3c-0.6,0-1.2-0.2-1.6-0.6
		c-0.4-0.4-0.6-0.9-0.6-1.5c0-1.3,0.8-2.1,2.3-2.3l2.1-0.3c0-1.2-0.5-1.8-1.4-1.8c-0.8,0-1.7,0.3-2.3,0.9v-1.1
		c0.7-0.4,1.5-0.7,2.4-0.7c1.6,0,2.5,0.9,2.5,2.6L412.6,1990.9z M411.5,1987.4l-1.7,0.2c-0.4,0-0.8,0.2-1.2,0.4
		c-0.3,0.2-0.4,0.6-0.4,1c0,0.3,0.1,0.6,0.4,0.8c0.3,0.2,0.6,0.3,1,0.3c0.5,0,1-0.2,1.4-0.6c0.4-0.4,0.6-0.9,0.5-1.5L411.5,1987.4z
		 M420.7,1990.9h-1.1v-1.2h0c-0.5,0.9-1.4,1.4-2.4,1.4c-0.8,0-1.6-0.3-2.1-0.9c-0.6-0.7-0.8-1.6-0.8-2.6c0-1,0.3-2,0.9-2.8
		c0.6-0.7,1.4-1.1,2.3-1c0.9-0.1,1.7,0.4,2.1,1.1h0v-4.3h1.1L420.7,1990.9z M419.6,1987.8v-1c0-0.5-0.2-1-0.6-1.4
		c-0.4-0.4-0.9-0.6-1.4-0.6c-0.6,0-1.2,0.3-1.6,0.8c-0.4,0.6-0.6,1.3-0.6,2.1c0,0.7,0.2,1.4,0.6,1.9c0.4,0.5,0.9,0.7,1.5,0.7
		c0.6,0,1.1-0.2,1.5-0.7C419.4,1989,419.6,1988.4,419.6,1987.8z M432.3,1987.9c0,0.4-0.1,0.9-0.2,1.3c-0.2,0.4-0.4,0.7-0.7,1
		c-0.3,0.3-0.7,0.5-1.1,0.6c-0.5,0.2-0.9,0.2-1.4,0.2c-0.7,0-1.4-0.1-2-0.4v-1.2c0.6,0.4,1.3,0.6,2,0.6c0.3,0,0.7,0,1-0.2
		c0.3-0.1,0.5-0.2,0.7-0.4c0.2-0.2,0.4-0.4,0.5-0.7c0.1-0.3,0.2-0.6,0.2-0.9c0-0.6-0.2-1.1-0.6-1.5c-0.5-0.4-1.2-0.6-1.9-0.5
		c-0.1,0-0.3,0-0.4,0c-0.1,0-0.3,0-0.4,0c-0.1,0-0.3,0-0.4,0c-0.1,0-0.3,0-0.4,0l0.3-4.9h4.5v1h-3.6l-0.2,2.9c0.1,0,0.3,0,0.5,0
		c0.2,0,0.3,0,0.4,0c0.5,0,0.9,0.1,1.4,0.2c0.4,0.1,0.7,0.3,1,0.6c0.3,0.3,0.5,0.6,0.6,0.9C432.2,1987.1,432.3,1987.5,432.3,1987.9z
		 M434.7,1985.3c-0.2,0-0.4-0.1-0.5-0.2c-0.1-0.1-0.2-0.3-0.2-0.5c0-0.2,0.1-0.4,0.2-0.5c0.1-0.1,0.3-0.2,0.5-0.2
		c0.2,0,0.4,0.1,0.5,0.2c0.1,0.1,0.2,0.3,0.2,0.5c0,0.2-0.1,0.4-0.2,0.5C435.2,1985.2,435,1985.3,434.7,1985.3z M434.7,1991.1
		c-0.2,0-0.4-0.1-0.5-0.2c-0.1-0.1-0.2-0.3-0.2-0.5c0-0.2,0.1-0.4,0.2-0.5c0.1-0.1,0.3-0.2,0.5-0.2c0.2,0,0.4,0.1,0.5,0.2
		c0.1,0.1,0.2,0.3,0.2,0.5c0,0.2-0.1,0.4-0.2,0.5C435.2,1991,435,1991.1,434.7,1991.1z"/>
	<path id="Trazado_191507" class="st2" d="M362.9,2007.9c-0.9,0-1.8-0.3-2.5-1c-0.6-0.7-1-1.6-0.9-2.6c-0.1-1,0.3-2,1-2.8
		c0.7-0.7,1.6-1,2.6-1c0.9-0.1,1.8,0.3,2.4,1c0.6,0.7,0.9,1.7,0.9,2.7c0,1-0.3,1.9-0.9,2.7C364.8,2007.6,363.8,2007.9,362.9,2007.9z
		 M363,2001.5c-0.7,0-1.3,0.2-1.7,0.7c-0.4,0.6-0.7,1.3-0.6,2c0,0.7,0.2,1.4,0.6,2c0.4,0.5,1.1,0.7,1.7,0.7c0.6,0,1.3-0.2,1.7-0.7
		c0.4-0.6,0.6-1.3,0.6-2c0-0.7-0.2-1.4-0.6-2C364.2,2001.7,363.6,2001.5,363,2001.5z M369.3,2006.7L369.3,2006.7l0,4.2h-1.1v-10.2
		h1.1v1.2h0c0.5-0.9,1.4-1.4,2.4-1.4c0.8,0,1.6,0.3,2.1,0.9c0.5,0.7,0.8,1.6,0.8,2.5c0.1,1-0.3,2-0.9,2.8c-0.6,0.7-1.4,1.1-2.3,1.1
		C370.6,2007.9,369.7,2007.5,369.3,2006.7L369.3,2006.7z M369.3,2003.9v1c0,0.5,0.2,1.1,0.6,1.5c0.4,0.4,0.9,0.6,1.4,0.6
		c0.6,0,1.2-0.3,1.6-0.8c0.4-0.6,0.6-1.4,0.6-2.2c0-0.7-0.2-1.3-0.5-1.8c-0.4-0.4-0.9-0.7-1.5-0.7c-0.6,0-1.2,0.2-1.6,0.7
		C369.5,2002.7,369.3,2003.3,369.3,2003.9L369.3,2003.9z M379.6,2007.7c-0.3,0.2-0.7,0.2-1,0.2c-1.2,0-1.8-0.7-1.8-2.1v-4.1h-1.2v-1
		h1.2v-1.7l1.1-0.4v2.1h1.8v1h-1.8v3.9c0,0.4,0.1,0.7,0.2,1c0.2,0.2,0.5,0.3,0.8,0.3c0.3,0,0.5-0.1,0.7-0.2V2007.7z M381.7,1999
		c-0.2,0-0.4-0.1-0.5-0.2c-0.1-0.1-0.2-0.3-0.2-0.5c0-0.2,0.1-0.4,0.2-0.5c0.1-0.1,0.3-0.2,0.5-0.2c0.2,0,0.4,0.1,0.5,0.2
		c0.1,0.1,0.2,0.3,0.2,0.5c0,0.2-0.1,0.4-0.2,0.5C382.1,1998.9,381.9,1999,381.7,1999L381.7,1999z M382.3,2007.7h-1.1v-7h1.1V2007.7
		z M394.5,2007.7h-1.1v-4c0-0.6-0.1-1.2-0.4-1.7c-0.3-0.4-0.7-0.6-1.2-0.5c-0.5,0-0.9,0.3-1.2,0.7c-0.3,0.5-0.5,1-0.5,1.6v4h-1.1
		v-4.2c0-1.4-0.5-2.1-1.6-2.1c-0.5,0-0.9,0.2-1.2,0.6c-0.3,0.5-0.5,1-0.5,1.6v4h-1.1v-7h1.1v1.1h0c0.4-0.8,1.3-1.3,2.2-1.3
		c0.4,0,0.9,0.1,1.3,0.4c0.4,0.3,0.6,0.6,0.7,1c0.4-0.9,1.3-1.5,2.3-1.4c1.5,0,2.3,1,2.3,2.9L394.5,2007.7z M397.2,1999
		c-0.2,0-0.4-0.1-0.5-0.2c-0.1-0.1-0.2-0.3-0.2-0.5c0-0.2,0.1-0.4,0.2-0.5c0.1-0.1,0.3-0.2,0.5-0.2c0.2,0,0.4,0.1,0.5,0.2
		c0.1,0.1,0.2,0.3,0.2,0.5c0,0.2-0.1,0.4-0.2,0.5C397.6,1998.9,397.4,1999,397.2,1999z M397.7,2007.7h-1.1v-7h1.1V2007.7z
		 M404.9,2001.1l-4.1,5.7h4.1v1h-5.7v-0.3l4.1-5.7h-3.8v-1h5.4V2001.1z M411.3,2007.7h-1.1v-1.1h0c-0.4,0.8-1.3,1.3-2.2,1.3
		c-0.6,0-1.2-0.2-1.6-0.6c-0.4-0.4-0.6-0.9-0.6-1.5c0-1.3,0.8-2.1,2.3-2.3l2.1-0.3c0-1.2-0.5-1.8-1.4-1.8c-0.8,0-1.7,0.3-2.3,0.9
		v-1.1c0.7-0.4,1.5-0.7,2.4-0.7c1.6,0,2.5,0.9,2.5,2.6L411.3,2007.7z M410.2,2004.2l-1.7,0.2c-0.4,0-0.8,0.2-1.2,0.4
		c-0.3,0.2-0.4,0.6-0.4,1c0,0.3,0.1,0.6,0.4,0.8c0.3,0.2,0.6,0.3,1,0.3c0.5,0,1-0.2,1.4-0.6c0.4-0.4,0.6-0.9,0.5-1.5L410.2,2004.2z
		 M418.2,2007.4c-0.6,0.3-1.2,0.5-1.9,0.5c-0.9,0-1.8-0.3-2.4-1c-0.6-0.7-1-1.6-0.9-2.5c0-1,0.3-2,1-2.8c0.7-0.7,1.7-1.1,2.6-1
		c0.6,0,1.1,0.1,1.6,0.3v1.1c-0.5-0.4-1.1-0.5-1.7-0.5c-0.7,0-1.3,0.3-1.8,0.8c-0.5,0.6-0.7,1.3-0.7,2c0,0.7,0.2,1.4,0.6,1.9
		c0.4,0.5,1.1,0.7,1.7,0.7c0.6,0,1.2-0.2,1.7-0.6L418.2,2007.4z M420.5,1999c-0.2,0-0.4-0.1-0.5-0.2c-0.1-0.1-0.2-0.3-0.2-0.5
		c0-0.2,0.1-0.4,0.2-0.5c0.1-0.1,0.3-0.2,0.5-0.2c0.2,0,0.4,0.1,0.5,0.2c0.1,0.1,0.2,0.3,0.2,0.5c0,0.2-0.1,0.4-0.2,0.5
		C420.9,1998.9,420.7,1999,420.5,1999L420.5,1999z M421,2007.7h-1.1v-7h1.1V2007.7z M426.2,2007.9c-0.9,0-1.8-0.3-2.5-1
		c-0.6-0.7-1-1.6-0.9-2.6c-0.1-1,0.3-2,1-2.8c0.7-0.7,1.6-1,2.6-1c0.9-0.1,1.8,0.3,2.4,1c0.6,0.7,0.9,1.7,0.9,2.7
		c0,1-0.3,1.9-0.9,2.7C428.1,2007.6,427.2,2007.9,426.2,2007.9L426.2,2007.9z M426.3,2001.5c-0.7,0-1.3,0.2-1.7,0.7
		c-0.4,0.6-0.7,1.3-0.6,2c0,0.7,0.2,1.4,0.6,2c0.4,0.5,1.1,0.7,1.7,0.7c0.6,0,1.3-0.2,1.7-0.7c0.4-0.6,0.6-1.3,0.6-2
		c0-0.7-0.2-1.4-0.6-2C427.6,2001.7,426.9,2001.5,426.3,2001.5L426.3,2001.5z M427.9,1997.2l-1.8,2.2h-0.9l1.5-2.2L427.9,1997.2z
		 M437.3,2007.7h-1.1v-4c0-1.5-0.5-2.2-1.6-2.2c-0.5,0-1,0.2-1.4,0.6c-0.4,0.4-0.6,1-0.5,1.6v4h-1.1v-7h1.1v1.2h0
		c0.5-0.8,1.3-1.4,2.3-1.3c0.7,0,1.3,0.2,1.8,0.7c0.4,0.6,0.7,1.4,0.6,2.1L437.3,2007.7z"/>
	<path class="st2" d="M415.7,2307.6l0-10.4h-1.1v4.3h0c-0.4-0.8-1.2-1.2-2.1-1.1c-0.9,0-1.8,0.4-2.3,1c-0.6,0.8-0.9,1.8-0.9,2.8
		c-0.1,0.9,0.2,1.8,0.8,2.6c0.5,0.6,1.3,1,2.1,0.9c1,0.1,1.9-0.5,2.4-1.4h0v1.2H415.7z M414,2306.1c-0.4,0.4-0.9,0.7-1.5,0.7
		c-0.6,0-1.1-0.2-1.5-0.7c-0.4-0.6-0.6-1.2-0.6-1.9c0-0.7,0.2-1.5,0.6-2.1c0.4-0.5,1-0.8,1.6-0.8c0.5,0,1.1,0.2,1.4,0.6
		c0.4,0.4,0.6,0.9,0.6,1.4v1C414.6,2305.1,414.4,2305.7,414,2306.1z"/>
	<g>
		<path class="st2" d="M533.7,2303.4c0-1.1,0.3-2,0.8-2.7s1.2-1,2.1-1c0.9,0,1.6,0.3,2.1,0.9l0.1-0.8h1.1v7.1c0,0.9-0.3,1.7-0.8,2.2
			s-1.3,0.8-2.2,0.8c-0.5,0-1-0.1-1.5-0.3c-0.5-0.2-0.9-0.5-1.1-0.9l0.6-0.7c0.5,0.7,1.2,1,2,1c0.6,0,1.1-0.2,1.4-0.5
			c0.3-0.3,0.5-0.8,0.5-1.4v-0.6c-0.5,0.6-1.2,0.9-2,0.9c-0.9,0-1.5-0.3-2.1-1C534,2305.5,533.7,2304.6,533.7,2303.4z M535,2303.5
			c0,0.8,0.2,1.5,0.5,1.9c0.3,0.5,0.8,0.7,1.4,0.7c0.8,0,1.4-0.4,1.7-1.1v-3.3c-0.4-0.7-1-1-1.7-1c-0.6,0-1.1,0.2-1.4,0.7
			C535.1,2301.9,535,2302.6,535,2303.5z"/>
		<path class="st2" d="M544.7,2307.2c-1,0-1.8-0.3-2.4-1c-0.6-0.6-0.9-1.5-0.9-2.6v-0.2c0-0.7,0.1-1.4,0.4-1.9
			c0.3-0.6,0.7-1,1.2-1.3c0.5-0.3,1-0.5,1.6-0.5c0.9,0,1.7,0.3,2.2,0.9c0.5,0.6,0.8,1.5,0.8,2.7v0.5h-4.9c0,0.7,0.2,1.3,0.6,1.7
			c0.4,0.4,0.9,0.7,1.5,0.7c0.4,0,0.8-0.1,1.1-0.3s0.6-0.4,0.8-0.7l0.8,0.6C546.9,2306.7,546,2307.2,544.7,2307.2z M544.6,2300.7
			c-0.5,0-0.9,0.2-1.3,0.5s-0.6,0.9-0.6,1.5h3.6v-0.1c0-0.6-0.2-1.1-0.5-1.5C545.5,2300.9,545.1,2300.7,544.6,2300.7z"/>
		<path class="st2" d="M553.2,2305.1c0-0.3-0.1-0.6-0.4-0.8c-0.3-0.2-0.7-0.3-1.3-0.5c-0.6-0.1-1.1-0.3-1.5-0.5
			c-0.4-0.2-0.6-0.4-0.8-0.7c-0.2-0.3-0.3-0.6-0.3-0.9c0-0.6,0.3-1.1,0.8-1.5c0.5-0.4,1.1-0.6,1.9-0.6c0.8,0,1.5,0.2,2,0.6
			c0.5,0.4,0.8,1,0.8,1.6h-1.2c0-0.3-0.1-0.6-0.4-0.9s-0.7-0.4-1.1-0.4c-0.5,0-0.8,0.1-1.1,0.3c-0.3,0.2-0.4,0.5-0.4,0.8
			c0,0.3,0.1,0.5,0.4,0.7c0.2,0.2,0.7,0.3,1.3,0.4c0.6,0.1,1.1,0.3,1.5,0.5s0.7,0.4,0.9,0.7s0.3,0.6,0.3,1c0,0.6-0.3,1.2-0.8,1.6
			c-0.5,0.4-1.2,0.6-2,0.6c-0.6,0-1.1-0.1-1.5-0.3c-0.4-0.2-0.8-0.5-1.1-0.9c-0.3-0.4-0.4-0.8-0.4-1.2h1.2c0,0.4,0.2,0.7,0.5,1
			c0.3,0.2,0.7,0.4,1.2,0.4c0.5,0,0.8-0.1,1.1-0.3S553.2,2305.5,553.2,2305.1z"/>
		<path class="st2" d="M557.8,2298v1.8h1.4v1h-1.4v4.5c0,0.3,0.1,0.5,0.2,0.7s0.3,0.2,0.6,0.2c0.1,0,0.3,0,0.6-0.1v1
			c-0.3,0.1-0.6,0.1-1,0.1c-0.6,0-1-0.2-1.3-0.5c-0.3-0.3-0.4-0.8-0.4-1.4v-4.5h-1.3v-1h1.3v-1.8H557.8z"/>
		<path class="st2" d="M560.6,2297.9c0-0.2,0.1-0.4,0.2-0.5c0.1-0.1,0.3-0.2,0.5-0.2c0.2,0,0.4,0.1,0.6,0.2c0.1,0.1,0.2,0.3,0.2,0.5
			s-0.1,0.4-0.2,0.5c-0.1,0.1-0.3,0.2-0.6,0.2c-0.2,0-0.4-0.1-0.5-0.2S560.6,2298.1,560.6,2297.9z M561.9,2307.1h-1.2v-7.3h1.2
			V2307.1z"/>
		<path class="st2" d="M563.6,2303.4c0-0.7,0.1-1.4,0.4-1.9s0.7-1,1.2-1.3s1.1-0.5,1.7-0.5c1,0,1.8,0.3,2.4,1
			c0.6,0.7,0.9,1.6,0.9,2.7v0.1c0,0.7-0.1,1.3-0.4,1.9c-0.3,0.6-0.7,1-1.2,1.3s-1.1,0.5-1.7,0.5c-1,0-1.8-0.3-2.4-1
			C563.9,2305.5,563.6,2304.6,563.6,2303.4L563.6,2303.4z M564.9,2303.5c0,0.8,0.2,1.5,0.6,1.9s0.9,0.7,1.5,0.7
			c0.6,0,1.1-0.2,1.5-0.7c0.4-0.5,0.6-1.2,0.6-2.1c0-0.8-0.2-1.4-0.6-1.9c-0.4-0.5-0.9-0.7-1.5-0.7c-0.6,0-1.1,0.2-1.5,0.7
			S564.9,2302.6,564.9,2303.5z"/>
		<path class="st2" d="M572.9,2299.8l0,0.9c0.6-0.7,1.3-1,2.2-1c1.5,0,2.3,0.9,2.3,2.6v4.8h-1.2v-4.8c0-0.5-0.1-0.9-0.4-1.2
			c-0.2-0.3-0.6-0.4-1.1-0.4c-0.4,0-0.8,0.1-1.1,0.3c-0.3,0.2-0.5,0.5-0.7,0.8v5.2h-1.2v-7.3H572.9z"/>
		<path class="st2" d="M583.8,2307.1c-0.1-0.1-0.1-0.4-0.2-0.8c-0.6,0.6-1.3,0.9-2.1,0.9c-0.7,0-1.3-0.2-1.8-0.6s-0.7-0.9-0.7-1.5
			c0-0.8,0.3-1.3,0.9-1.8c0.6-0.4,1.4-0.6,2.4-0.6h1.2v-0.6c0-0.4-0.1-0.8-0.4-1s-0.6-0.4-1.1-0.4c-0.4,0-0.8,0.1-1.1,0.3
			c-0.3,0.2-0.4,0.5-0.4,0.8h-1.2c0-0.4,0.1-0.7,0.4-1.1c0.3-0.3,0.6-0.6,1-0.8c0.4-0.2,0.9-0.3,1.5-0.3c0.8,0,1.5,0.2,2,0.6
			c0.5,0.4,0.7,1,0.7,1.7v3.3c0,0.7,0.1,1.2,0.3,1.6v0.1H583.8z M581.8,2306.1c0.4,0,0.8-0.1,1.1-0.3c0.3-0.2,0.6-0.5,0.8-0.8v-1.5
			h-1c-1.5,0-2.3,0.4-2.3,1.3c0,0.4,0.1,0.7,0.4,0.9C581,2306,581.4,2306.1,581.8,2306.1z"/>
		<path class="st2" d="M586.5,2303.4c0-1.1,0.3-2,0.8-2.7c0.5-0.7,1.2-1,2.1-1c0.9,0,1.5,0.3,2,0.9v-3.8h1.2v10.3h-1.1l-0.1-0.8
			c-0.5,0.6-1.2,0.9-2.1,0.9c-0.8,0-1.5-0.3-2.1-1S586.5,2304.6,586.5,2303.4L586.5,2303.4z M587.8,2303.5c0,0.8,0.2,1.5,0.5,1.9
			c0.3,0.5,0.8,0.7,1.4,0.7c0.8,0,1.4-0.4,1.7-1.1v-3.3c-0.4-0.7-0.9-1-1.7-1c-0.6,0-1.1,0.2-1.4,0.7
			C587.9,2301.9,587.8,2302.6,587.8,2303.5z"/>
		<path class="st2" d="M594.3,2303.4c0-0.7,0.1-1.4,0.4-1.9s0.7-1,1.2-1.3s1.1-0.5,1.7-0.5c1,0,1.8,0.3,2.4,1
			c0.6,0.7,0.9,1.6,0.9,2.7v0.1c0,0.7-0.1,1.3-0.4,1.9c-0.3,0.6-0.7,1-1.2,1.3s-1.1,0.5-1.7,0.5c-1,0-1.8-0.3-2.4-1
			C594.6,2305.5,594.3,2304.6,594.3,2303.4L594.3,2303.4z M595.5,2303.5c0,0.8,0.2,1.5,0.6,1.9s0.9,0.7,1.5,0.7
			c0.6,0,1.1-0.2,1.5-0.7c0.4-0.5,0.6-1.2,0.6-2.1c0-0.8-0.2-1.4-0.6-1.9s-0.9-0.7-1.5-0.7c-0.6,0-1.1,0.2-1.5,0.7
			C595.7,2301.9,595.5,2302.6,595.5,2303.5z"/>
	</g>
</g>
</svg>
