<svg xmlns="http://www.w3.org/2000/svg" width="525" height="494.852" viewBox="0 0 525 494.852">
  <g id="Grupo_94368" data-name="Grupo 94368" transform="translate(-836.706 -9443)">
    <g id="Grupo_94151" data-name="Grupo 94151" transform="translate(836.706 9742.146)">
      <g id="Grupo_94150" data-name="Grupo 94150" transform="translate(31.538)">
        <rect id="Rectángulo_39780" data-name="Rectángulo 39780" width="19.051" height="43.892" transform="translate(0 107.876)" fill="#ececec"/>
        <rect id="Rectángulo_39781" data-name="Rectángulo 39781" width="19.051" height="43.892" transform="translate(64.646 107.876)" fill="#ececec"/>
        <rect id="Rectángulo_39782" data-name="Rectángulo 39782" width="19.051" height="83.849" transform="translate(32.332 67.938)" fill="#f5f5f5"/>
        <rect id="Rectángulo_39783" data-name="Rectángulo 39783" width="19.051" height="83.849" transform="translate(96.959 67.938)" fill="#f5f5f5"/>
        <rect id="Rectángulo_39784" data-name="Rectángulo 39784" width="19.051" height="81.446" transform="translate(129.273 70.322)" fill="#ececec"/>
        <rect id="Rectángulo_39785" data-name="Rectángulo 39785" width="19.051" height="81.446" transform="translate(193.9 70.322)" fill="#ececec"/>
        <rect id="Rectángulo_39786" data-name="Rectángulo 39786" width="19.051" height="81.446" transform="translate(258.527 70.322)" fill="#ececec"/>
        <rect id="Rectángulo_39787" data-name="Rectángulo 39787" width="19.051" height="124.203" transform="translate(161.587 27.584)" fill="#f5f5f5"/>
        <rect id="Rectángulo_39788" data-name="Rectángulo 39788" width="19.051" height="112.038" transform="translate(226.214 39.73)" fill="#f5f5f5"/>
        <rect id="Rectángulo_39789" data-name="Rectángulo 39789" width="19.051" height="81.446" transform="translate(353.992 70.322)" fill="#ececec"/>
        <rect id="Rectángulo_39790" data-name="Rectángulo 39790" width="19.051" height="65.819" transform="translate(321.678 85.968)" fill="#f5f5f5"/>
        <rect id="Rectángulo_39791" data-name="Rectángulo 39791" width="19.051" height="124.922" transform="translate(421.57 26.865)" fill="#ececec"/>
        <rect id="Rectángulo_39792" data-name="Rectángulo 39792" width="19.051" height="65.819" transform="translate(389.257 85.968)" fill="#f5f5f5"/>
        <rect id="Rectángulo_39793" data-name="Rectángulo 39793" width="19.051" height="65.819" transform="translate(453.922 85.968)" fill="#f5f5f5"/>
        <rect id="Rectángulo_39794" data-name="Rectángulo 39794" width="19.051" height="94.878" transform="translate(290.841 56.908)" fill="#ececec"/>
        <path id="Trazado_191077" data-name="Trazado 191077" d="M124.99,196.63a4.9,4.9,0,1,1-4.9-4.9A4.9,4.9,0,0,1,124.99,196.63Z" transform="translate(49.442 -169.046)" fill="#e1e1e1"/>
        <path id="Trazado_191078" data-name="Trazado 191078" d="M121.972,207.384a8.892,8.892,0,1,1,8.892-8.892,8.892,8.892,0,0,1-8.892,8.892Zm0-17.027a8.173,8.173,0,1,0,8.192,8.173A8.173,8.173,0,0,0,121.972,190.357Z" transform="translate(47.561 -170.946)" fill="#e1e1e1"/>
        <path id="Trazado_191079" data-name="Trazado 191079" d="M123.079,194.837l-.246-9.649,2.4.038-4.5-5.486-4.5,5.543,2.5.019.246,9.516Z" transform="translate(50.37 -179.74)" fill="#ececec"/>
        <path id="Trazado_191080" data-name="Trazado 191080" d="M40.69,228.47a4.881,4.881,0,1,1-1.423-3.464,4.9,4.9,0,0,1,1.423,3.464Z" transform="translate(-25.744 -140.648)" fill="#e1e1e1"/>
        <path id="Trazado_191081" data-name="Trazado 191081" d="M37.682,239.384a8.892,8.892,0,1,1,8.892-8.892,8.892,8.892,0,0,1-8.892,8.892Zm0-17.027a3.4,3.4,0,1,0,0-.114Z" transform="translate(-27.617 -142.405)" fill="#e1e1e1"/>
        <path id="Trazado_191082" data-name="Trazado 191082" d="M32.972,210.11l.265,10.027-2.5-.057,4.673,5.732,4.673-5.77-2.592-.019-.265-9.895Z" transform="translate(-25.878 -152.653)" fill="#ececec"/>
        <path id="Trazado_191083" data-name="Trazado 191083" d="M170,199.02l.265,10.027-2.516-.038,4.673,5.714,4.692-5.77h-2.592l-.265-9.895Z" transform="translate(96.32 -162.544)" fill="#ececec"/>
      </g>
      <path id="Trazado_191084" data-name="Trazado 191084" d="M368.349,293.012l-57.362-53.862c-36.343-17.538-92.476-43.4-99-43.041-7.341.416-146.451,55.281-199.443,76.395L11.5,269.893c7.795-3.1,191.081-76.054,200.314-76.6H212c10.2,0,91.132,38.954,100.4,43.514l.341.246,56.076,52.595c10.632-5.676,71.589-37.838,72.63-38.254.359-.151,1.324-.549,85.135-.549v2.819c-32.162,0-80.5,0-84.17.4-3.2,1.608-48.943,25.73-73.216,38.538Z" transform="translate(-11.5 -167.655)" fill="#e1e1e1"/>
    </g>
    <path id="Trazado_191085" data-name="Trazado 191085" d="M177.43,218.59a4.9,4.9,0,1,1-4.9-4.9,4.9,4.9,0,0,1,4.9,4.9Z" transform="translate(964.457 9592.686)" fill="#e1e1e1"/>
    <path id="Trazado_191086" data-name="Trazado 191086" d="M174.421,229.482a8.911,8.911,0,1,1,8.911-8.892,8.911,8.911,0,0,1-8.911,8.892Zm0-17.027a3.4,3.4,0,1,0,0-.057Z" transform="translate(962.566 9590.875)" fill="#e1e1e1"/>
    <path id="Trazado_191087" data-name="Trazado 191087" d="M246.27,226.31a4.9,4.9,0,1,1-4.9-4.9,4.9,4.9,0,0,1,4.9,4.9Z" transform="translate(1025.855 9599.57)" fill="#e1e1e1"/>
    <path id="Trazado_191088" data-name="Trazado 191088" d="M243.261,237.2a8.911,8.911,0,1,1,8.911-8.892,8.911,8.911,0,0,1-8.911,8.892Zm0-17.027a3.4,3.4,0,1,0,0-.057Z" transform="translate(1023.964 9597.76)" fill="#e1e1e1"/>
    <path id="Trazado_191089" data-name="Trazado 191089" d="M238.731,208.62,239,218.628l-2.516-.038,4.673,5.714,4.692-5.751-2.592-.019-.265-9.895Z" transform="translate(1025.864 9588.163)" fill="#ececec"/>
    <path id="Trazado_191090" data-name="Trazado 191090" d="M242.271,180.22A42.87,42.87,0,1,1,285.785,222.6a42.87,42.87,0,0,1-43.514-42.378Zm63.359-1.022a20.508,20.508,0,1,0-20.168,20.924A20.508,20.508,0,0,0,305.631,179.2Z" transform="translate(1031.027 9524.164)" fill="#f5f5f5"/>
    <path id="Trazado_191091" data-name="Trazado 191091" d="M242.273,180.4a43.022,43.022,0,0,1,42.17-43.741l.359,22.457a20.6,20.6,0,0,0,.662,41.186l.359,22.476A43.022,43.022,0,0,1,242.273,180.4Z" transform="translate(1031.025 9523.983)" fill="#e1e1e1"/>
    <path id="Trazado_191092" data-name="Trazado 191092" d="M262.53,134.836a49,49,0,0,1,50.078,48.792l-26.184.416c-.208-13.243-10.311-21.643-23.535-21.435Z" transform="translate(1049.098 9522.346)" fill="#ececec"/>
    <rect id="Rectángulo_39795" data-name="Rectángulo 39795" width="19.316" height="60.314" transform="translate(940.514 9453.046)" fill="#ececec"/>
    <rect id="Rectángulo_39796" data-name="Rectángulo 39796" width="19.316" height="46.522" transform="translate(969.346 9466.819)" fill="#ececec"/>
    <rect id="Rectángulo_39797" data-name="Rectángulo 39797" width="19.316" height="27.641" transform="translate(996.041 9485.719)" fill="#ececec"/>
    <path id="Trazado_191093" data-name="Trazado 191093" d="M209.568,62.178V28.37A33.808,33.808,0,1,1,175.76,62.954Z" transform="translate(971.709 9427.4)" fill="#ececec"/>
    <path id="Trazado_191094" data-name="Trazado 191094" d="M206.229,55.428l-33.789.757A35.662,35.662,0,0,1,182.013,31.8,34.811,34.811,0,0,1,205.662,21.62Z" transform="translate(968.748 9421.38)" fill="#f5f5f5"/>
    <path id="Trazado_191095" data-name="Trazado 191095" d="M47.384,158.538l23.668-18.768a30.27,30.27,0,1,1-42.416-4.862,30.9,30.9,0,0,1,6.754-4.049Z" transform="translate(830.226 9518.811)" fill="#f5f5f5"/>
    <path id="Trazado_191096" data-name="Trazado 191096" d="M29.73,129.443l8.324,21.889,17.614-14.965S46.341,126.757,29.73,129.443Z" transform="translate(841.466 9517.124)" fill="#e1e1e1"/>
    <path id="Trazado_191097" data-name="Trazado 191097" d="M491.415,274.7c0,.151-104.054.284-232.268.284S26.88,274.855,26.88,274.7s104.054-.284,232.268-.284S491.415,274.534,491.415,274.7Z" transform="translate(838.924 9646.851)" fill="#0b3360"/>
    <g id="Grupo_94157" data-name="Grupo 94157" transform="translate(856.952 9514.429)">
      <path id="Trazado_191098" data-name="Trazado 191098" d="M62.023,71.719a20.811,20.811,0,1,0-19.751,29.268l2.1,4.824,16.8-7.322s-1.1-2.762-2.1-5.2A20.924,20.924,0,0,0,62.023,71.719Z" transform="translate(-22.202 -59.375)" fill="#71d9e7"/>
      <path id="Trazado_191099" data-name="Trazado 191099" d="M48.943,91.706a2.1,2.1,0,0,1,0-.246l-.227-.738c-.189-.624-.473-1.57-.814-2.8a45.548,45.548,0,0,1-1.135-4.559,31.935,31.935,0,0,1-.586-6.073,21.417,21.417,0,0,1,.322-3.557,4.011,4.011,0,0,1,.795-1.722,2.119,2.119,0,0,1,1.892-.719,1.457,1.457,0,0,1,1.286,1.495,3.008,3.008,0,0,1-.927,1.892,5.676,5.676,0,0,1-4.105,1.457,5.77,5.77,0,0,1-4.105-2.024,4.408,4.408,0,0,1-1.041-2.1A1.892,1.892,0,0,1,41.47,69.93a1.343,1.343,0,0,1,1.268.246,1.892,1.892,0,0,1,.662,1.116,4.124,4.124,0,0,1-.511,2.5,6.3,6.3,0,0,1-3.9,3.235,5.487,5.487,0,0,1-4.919-1.135,3.216,3.216,0,0,1-1.135-2.27,1.608,1.608,0,0,1,.473-1.211,1.57,1.57,0,0,1,1.211-.4,2.176,2.176,0,0,1,1.173.492,3.576,3.576,0,0,1,.776.984,5.884,5.884,0,0,1,.605,2.308,6.224,6.224,0,0,1-5.032,6.659,3.254,3.254,0,0,1-2.119-.151,1.608,1.608,0,0,1-.908-1.892,1.362,1.362,0,0,1,.681-.795,1.892,1.892,0,0,1,.984-.227,3.1,3.1,0,0,1,1.741.795c.946.832,1.778,1.684,2.592,2.478,3.216,3.178,5.676,5.884,7.378,7.776l1.892,2.195.492.568.17.208a1.363,1.363,0,0,1-.189-.189l-.492-.4-1.892-2.176c-1.722-1.892-4.219-4.541-7.435-7.719-.814-.776-1.665-1.627-2.573-2.441a2.857,2.857,0,0,0-1.627-.738,1.249,1.249,0,0,0-.662,2.4,3.084,3.084,0,0,0,1.986.151,6.205,6.205,0,0,0,3.595-2.214A6,6,0,0,0,36.93,75.8a5.676,5.676,0,0,0-.643-2.214,2.232,2.232,0,0,0-1.741-1.324,1.286,1.286,0,0,0-1.041.322,1.381,1.381,0,0,0-.4,1.041A3.065,3.065,0,0,0,34.168,75.7a5.278,5.278,0,0,0,4.692,1.078,6.016,6.016,0,0,0,3.784-3.122,3.784,3.784,0,0,0,.492-2.308,1.684,1.684,0,0,0-.568-.965,1.116,1.116,0,0,0-1.041-.227,1.419,1.419,0,0,0-.814.738,1.684,1.684,0,0,0-.17,1.1,4.03,4.03,0,0,0,1,2.024,5.562,5.562,0,0,0,7.87.568,2.781,2.781,0,0,0,.851-1.778,1.211,1.211,0,0,0-1.1-1.286,1.892,1.892,0,0,0-1.646.662,3.367,3.367,0,0,0-.757,1.646,18.919,18.919,0,0,0-.341,3.519,30.592,30.592,0,0,0,.492,6.016c.322,1.759.7,3.273,1,4.5s.586,2.157.757,2.819l.208.719Z" transform="translate(-16.084 -50.019)" fill="#0b3360"/>
      <path id="Trazado_191100" data-name="Trazado 191100" d="M50.4,83.072,35.986,89.353a1.173,1.173,0,0,1-1.551-.605h0A1.192,1.192,0,0,1,35.04,87.2l14.416-6.3a1.173,1.173,0,0,1,1.551.624h0a1.173,1.173,0,0,1-.605,1.551Z" transform="translate(-11.376 -40.268)" fill="#0b3360"/>
      <path id="Trazado_191101" data-name="Trazado 191101" d="M50.135,82.544,35.719,88.825A1.192,1.192,0,0,0,36.665,91l1.589-.7,3.784,3.084a1.532,1.532,0,0,0,1.551.208l5.146-2.251a1.514,1.514,0,0,0,.908-1.305l.4-4.862,1.078-.473a1.192,1.192,0,0,0,.605-1.551,1.173,1.173,0,0,0-1.589-.605Z" transform="translate(-10.692 -38.814)" fill="#0b3360"/>
    </g>
    <g id="Grupo_94158" data-name="Grupo 94158" transform="translate(858.648 9521.517)" opacity="0.2">
      <path id="Trazado_191102" data-name="Trazado 191102" d="M24.426,69.91a15.93,15.93,0,0,1,2.724-4.219,10.406,10.406,0,0,1,2.592-2.138c.681-.4,1.135-.511,1.23-.378a41.623,41.623,0,0,1-2.384,3.632,17.141,17.141,0,0,0-.416,18.6c1.286,2.214,2.459,3.424,2.195,3.784s-.53,0-1.211-.416A11.522,11.522,0,0,1,26.7,86.445a15.419,15.419,0,0,1-2.516-4.351A16.062,16.062,0,0,1,23.1,75.983" transform="translate(-23.098 -63.122)" fill="#fff"/>
    </g>
    <g id="Grupo_94159" data-name="Grupo 94159" transform="translate(868.55 9517.635)" opacity="0.2">
      <path id="Trazado_191103" data-name="Trazado 191103" d="M31.261,63.832c-1.211.511-2.422.643-2.838,0a1.1,1.1,0,0,1,.208-1.192,3.916,3.916,0,0,1,1.627-1.23,4.011,4.011,0,0,1,2.005-.322.974.974,0,0,1,1,.662" transform="translate(-28.332 -61.07)" fill="#fff"/>
    </g>
    <path id="Trazado_191104" data-name="Trazado 191104" d="M45.944,86.744a7.862,7.862,0,0,0-1.135.114,9.668,9.668,0,0,0-2.573.757A9.289,9.289,0,0,0,40,89.128c-.511.473-.776.814-.814.795a3.576,3.576,0,0,1,.7-.927,7.567,7.567,0,0,1,4.9-2.308,2.724,2.724,0,0,1,1.154.057Z" transform="translate(849.902 9479.38)" fill="#375a64"/>
    <path id="Trazado_191105" data-name="Trazado 191105" d="M48.441,83.9s-2.554,1.249-5.676,2.649A62.4,62.4,0,0,1,36.9,88.972c-.019-.076,2.554-1.249,5.676-2.649S48.441,83.826,48.441,83.9Z" transform="translate(847.859 9476.925)" fill="#375a64"/>
    <path id="Trazado_191106" data-name="Trazado 191106" d="M47.488,85a9.762,9.762,0,0,1-1.362.757c-.851.435-2.043,1.022-3.386,1.627S40.185,88.5,39.3,88.859a7.568,7.568,0,0,1-1.476.511,13.014,13.014,0,0,1,1.4-.681l3.405-1.532,3.424-1.551A9.081,9.081,0,0,1,47.488,85Z" transform="translate(848.681 9477.907)" fill="#375a64"/>
    <g id="Grupo_94163" data-name="Grupo 94163" transform="translate(1052.457 9686.327)">
      <g id="Grupo_94161" data-name="Grupo 94161">
        <rect id="Rectángulo_39798" data-name="Rectángulo 39798" width="96.449" height="63.605" rx="3.1" transform="translate(0.208 0.273)" fill="#fff"/>
        <path id="Trazado_191107" data-name="Trazado 191107" d="M216.313,214.114l.795-.095a5.393,5.393,0,0,0,2.176-.776,5.9,5.9,0,0,0,2.4-2.838,14.947,14.947,0,0,0,.4-5.127V158.152a16.332,16.332,0,0,0-.114-2.895,5.676,5.676,0,0,0-3.689-4.219,8.362,8.362,0,0,0-3.008-.3h-83.66a5.827,5.827,0,0,0-3.538,1.249,5.676,5.676,0,0,0-1.892,3.178,9.1,9.1,0,0,0-.132,1.892v50.4a6.243,6.243,0,0,0,.605,3.235,5.524,5.524,0,0,0,2.195,2.365,5.789,5.789,0,0,0,3.1.776h-.076a6.187,6.187,0,0,1-5.676-3.368,6.906,6.906,0,0,1-.643-3.462c0-9.289,0-18.919,0-29.1V157.111a10.6,10.6,0,0,1,.132-2.024,6.243,6.243,0,0,1,2.138-3.462,6.092,6.092,0,0,1,3.784-1.362h83.546a8.456,8.456,0,0,1,3.141.341,6.149,6.149,0,0,1,3.973,4.522,17.854,17.854,0,0,1,.113,2.989v50.022a6.111,6.111,0,0,1-.454,2.4,6.035,6.035,0,0,1-2.478,2.876,5.505,5.505,0,0,1-2.232.738,4.994,4.994,0,0,1-.908-.038Z" transform="translate(-125.54 -150.236)" fill="#0b3360"/>
      </g>
      <g id="Grupo_94162" data-name="Grupo 94162" transform="translate(12.524 21.897)">
        <rect id="Rectángulo_39799" data-name="Rectángulo 39799" width="3.708" height="14.719" transform="translate(30.895 15.305)" fill="#71d9e7"/>
        <rect id="Rectángulo_39800" data-name="Rectángulo 39800" width="3.708" height="16.857" transform="translate(0 13.186)" fill="#71d9e7"/>
        <rect id="Rectángulo_39801" data-name="Rectángulo 39801" width="3.708" height="20.376" transform="translate(7.719 9.668)" fill="#71d9e7"/>
        <rect id="Rectángulo_39802" data-name="Rectángulo 39802" width="3.708" height="19.259" transform="translate(15.438 10.784)" fill="#71d9e7"/>
        <rect id="Rectángulo_39803" data-name="Rectángulo 39803" width="3.708" height="25.768" transform="translate(23.176 4.276)" fill="#71d9e7"/>
        <rect id="Rectángulo_39804" data-name="Rectángulo 39804" width="3.708" height="25.654" transform="translate(38.632 4.389)" fill="#71d9e7"/>
        <rect id="Rectángulo_39805" data-name="Rectángulo 39805" width="3.708" height="17.216" transform="translate(46.351 12.808)" fill="#71d9e7"/>
        <rect id="Rectángulo_39806" data-name="Rectángulo 39806" width="3.708" height="24.519" transform="translate(54.089 5.524)" fill="#71d9e7"/>
        <rect id="Rectángulo_39807" data-name="Rectángulo 39807" width="3.708" height="30.043" transform="translate(61.808)" fill="#71d9e7"/>
        <rect id="Rectángulo_39808" data-name="Rectángulo 39808" width="3.708" height="24.651" transform="translate(69.546 5.392)" fill="#71d9e7"/>
      </g>
    </g>
    <path id="Trazado_191108" data-name="Trazado 191108" d="M160.493,157.134c0,.151-6.565.284-14.681.284s-14.662-.132-14.662-.284,6.565-.284,14.662-.284S160.493,156.945,160.493,157.134Z" transform="translate(931.921 9541.99)" fill="#0b3360"/>
    <path id="Trazado_191109" data-name="Trazado 191109" d="M257.328,52.43h46.314a4.238,4.238,0,0,1,4.238,4.238v46.314a4.238,4.238,0,0,1-4.238,4.238H271.593l-12.884,10.614V107.219h-1.381a4.238,4.238,0,0,1-4.238-4.238V56.668A4.238,4.238,0,0,1,257.328,52.43Z" transform="translate(1040.678 9448.859)" fill="#fff"/>
    <g id="Grupo_94166" data-name="Grupo 94166" transform="translate(1293.692 9501.271)">
      <path id="Trazado_191110" data-name="Trazado 191110" d="M0,0H54.865V8.514a8.8,8.8,0,0,1-8.8,8.8H8.854A8.854,8.854,0,0,1,0,8.457Z" transform="translate(54.865 17.311) rotate(180)" fill="#71d9e7"/>
      <g id="Grupo_94165" data-name="Grupo 94165" transform="translate(15.74 24.33)">
        <path id="Trazado_191111" data-name="Trazado 191111" d="M269.467,65.28V83.915h-4.314V68.78H261.37v-3.5Z" transform="translate(-261.37 -65.28)" fill="#0b3360"/>
        <path id="Trazado_191112" data-name="Trazado 191112" d="M282.1,65.28v2.8l-6.924,15.835h-4.692l6.678-15.135h-6.168v3.027H267.21V65.28Z" transform="translate(-256.161 -65.28)" fill="#0b3360"/>
      </g>
      <path id="Trazado_191113" data-name="Trazado 191113" d="M263.52,57.709c0,.095,3.784.17,8.419.17s8.4,0,8.4-.17-3.784-.189-8.4-.189S263.52,57.6,263.52,57.709Z" transform="translate(-243.712 -47.871)" fill="#0b3360"/>
    </g>
    <path id="Trazado_191114" data-name="Trazado 191114" d="M257.357,52.51h-.284a3.594,3.594,0,0,0-.851.132,4.181,4.181,0,0,0-2.573,1.892,4.333,4.333,0,0,0-.586,2.327c0,.889,0,1.892,0,2.895v43.022a4.446,4.446,0,0,0,.227,1.646,4.351,4.351,0,0,0,2.176,2.535,4.2,4.2,0,0,0,1.665.454h1.7l-.151-.151v10.954l.265-.208,12.9-10.614H303.9a4.22,4.22,0,0,0,1.457-.265,4.314,4.314,0,0,0,2.251-1.892,4.049,4.049,0,0,0,.549-1.362,6.361,6.361,0,0,0,.095-1.457V58.243a13.772,13.772,0,0,0-.095-2.327,4.238,4.238,0,0,0-1.022-2.081,4.314,4.314,0,0,0-1.892-1.249,6.319,6.319,0,0,0-2.214-.227h-.284a6.186,6.186,0,0,1,2.138.208,4.03,4.03,0,0,1,1.778,1.173,4.124,4.124,0,0,1,.965,1.892,14.931,14.931,0,0,1,0,2.27v44.611a6.6,6.6,0,0,1,0,1.381,4.313,4.313,0,0,1-.492,1.268,4.011,4.011,0,0,1-2.081,1.7,7.568,7.568,0,0,1-2.8.265H271.565l-12.94,10.651.265.132V107.148h-1.835a4.105,4.105,0,0,1-3.576-2.781,4.219,4.219,0,0,1-.208-1.551v-43c0-2.081-.284-3.935.549-5.165a4.162,4.162,0,0,1,2.5-1.892,5.411,5.411,0,0,1,1.041-.246Z" transform="translate(1040.648 9448.779)" fill="#0b3360"/>
    <g id="Grupo_94167" data-name="Grupo 94167" transform="translate(1310.841 9495.507)">
      <rect id="Rectángulo_39809" data-name="Rectángulo 39809" width="3.557" height="12.373" rx="0.91" transform="translate(0.427 0.409)" fill="#e1e1e1"/>
      <path id="Trazado_191115" data-name="Trazado 191115" d="M264.263,62.156a2.119,2.119,0,0,1-1.022-.416,1.665,1.665,0,0,1-.587-1.078c0-.492,0-1.116,0-1.759V51.6a1.551,1.551,0,0,1,.454-1.192,1.608,1.608,0,0,1,1.211-.454,1.532,1.532,0,0,1,1.173.549,1.7,1.7,0,0,1,.378,1.211v8.305a3.784,3.784,0,0,1,0,.814,1.722,1.722,0,0,1-.662,1.041,2.422,2.422,0,0,1-1.04.341h.284a1.721,1.721,0,0,0,.832-.246,1.892,1.892,0,0,0,.776-1.116,6.443,6.443,0,0,0,0-.851V51.713a2.005,2.005,0,0,0-.454-1.457,1.892,1.892,0,0,0-3.462,1.343c0,.927,0,1.892,0,2.705V60.68a1.79,1.79,0,0,0,1.514,1.495.8.8,0,0,0,.605-.019Z" transform="translate(-262.114 -49.374)" fill="#0b3360"/>
    </g>
    <g id="Grupo_94168" data-name="Grupo 94168" transform="translate(1327.611 9495.742)">
      <rect id="Rectángulo_39810" data-name="Rectángulo 39810" width="3.557" height="12.373" rx="0.91" transform="translate(0.381 0.174)" fill="#e1e1e1"/>
      <path id="Trazado_191116" data-name="Trazado 191116" d="M273.081,62.045a2.195,2.195,0,0,1-1.022-.416,1.665,1.665,0,0,1-.587-1.078c0-.492,0-1.116,0-1.759v-7.3a1.551,1.551,0,0,1,.454-1.192,1.608,1.608,0,0,1,1.211-.454,1.532,1.532,0,0,1,1.173.549,1.608,1.608,0,0,1,.378,1.211v8.305a3.784,3.784,0,0,1,0,.814,1.722,1.722,0,0,1-.662,1.041,2.422,2.422,0,0,1-1.041.341h.284a1.684,1.684,0,0,0,.832-.246,1.892,1.892,0,0,0,.776-1.116,4.3,4.3,0,0,0,0-.851V51.6a2.005,2.005,0,0,0-.454-1.457,1.955,1.955,0,0,0-3.443,1.343v9.119a1.79,1.79,0,0,0,1.514,1.495.794.794,0,0,0,.586-.057Z" transform="translate(-270.978 -49.498)" fill="#0b3360"/>
    </g>
    <g id="Grupo_94170" data-name="Grupo 94170" transform="translate(1190.149 9643.199)">
      <path id="Trazado_191117" data-name="Trazado 191117" d="M213.134,132.6l3.992,4.976v-8.551H229.65s1.381,19.581,1.1,23.762a35.72,35.72,0,0,1-1.532,6.395,7.341,7.341,0,0,1-12.146,3.027,40.52,40.52,0,0,1-3.935-4.351c-5.562-7.151-14.814-24.595-14.814-24.595l9.649-5.827Z" transform="translate(-198.32 -127.44)" fill="#ffbf9d"/>
      <path id="Trazado_191118" data-name="Trazado 191118" d="M205.74,129.69a12.016,12.016,0,0,0,1.627,2.176c1.059,1.305,2.516,3.122,4.2,5.07s3.254,3.67,4.484,4.843a9.158,9.158,0,0,0,2.119,1.722,20.676,20.676,0,0,0-1.892-2.024c-1.135-1.23-2.649-2.989-4.332-4.919A62.976,62.976,0,0,0,205.74,129.69Z" transform="translate(-191.702 -125.433)" fill="#ff9a6c"/>
    </g>
    <g id="Grupo_94174" data-name="Grupo 94174" transform="translate(1217.49 9507.839)">
      <g id="Grupo_94171" data-name="Grupo 94171" transform="translate(15.233 6.843)">
        <path id="Trazado_191119" data-name="Trazado 191119" d="M260.489,81.419l.568,45.405c0,7.738-1.343,19.127-13.584,18.711h0c-10.595-1.135-13.414-11.181-13.489-18.389,0-3.424,0-6.281-.114-6.641,0,0-11.6-.946-12.581-12.392-.473-5.543-.511-17.027-.435-27.414a21.435,21.435,0,0,1,19.865-21.189h1.1C253.811,59.359,260.641,69.424,260.489,81.419Z" transform="translate(-220.824 -59.509)" fill="#ffbf9d"/>
        <path id="Trazado_191120" data-name="Trazado 191120" d="M227.72,94.4a27.64,27.64,0,0,0,14.605-5.505s-3.027,8.646-14.549,8.438Z" transform="translate(-214.673 -33.305)" fill="#ff9a6c"/>
      </g>
      <g id="Grupo_94173" data-name="Grupo 94173" transform="translate(17.435 23.124)">
        <g id="Grupo_94172" data-name="Grupo 94172" transform="translate(8.039 7.668)">
          <path id="Trazado_191121" data-name="Trazado 191121" d="M231.2,74.2c.227.227,1.551-.832,3.481-.889s3.349.889,3.557.643-.151-.53-.776-.965a4.786,4.786,0,0,0-2.857-.814,4.635,4.635,0,0,0-2.743,1C231.28,73.742,231.091,74.1,231.2,74.2Z" transform="translate(-221.834 -72.168)" fill="#0b3360"/>
          <path id="Trazado_191122" data-name="Trazado 191122" d="M230.64,76.4a1.551,1.551,0,0,0,1.608,1.457,1.495,1.495,0,0,0,1.495-1.514,1.57,1.57,0,0,0-1.608-1.457A1.476,1.476,0,0,0,230.64,76.4Z" transform="translate(-222.31 -69.741)" fill="#0b3360"/>
          <path id="Trazado_191123" data-name="Trazado 191123" d="M230.8,87.248a11.957,11.957,0,0,0-2.895-.3c-.454,0-.889,0-.984-.378a2.233,2.233,0,0,1,.208-1.362l1.078-3.519a57.419,57.419,0,0,0,2.327-9.176,58.919,58.919,0,0,0-3.065,8.968c-.36,1.23-.7,2.4-1.022,3.538a2.686,2.686,0,0,0-.114,1.778,1.1,1.1,0,0,0,.795.605,2.876,2.876,0,0,0,.776,0,11.957,11.957,0,0,0,2.895-.151Z" transform="translate(-226.237 -71.863)" fill="#0b3360"/>
        </g>
        <path id="Trazado_191124" data-name="Trazado 191124" d="M231.625,69.638c.189.435,1.722.113,3.576.208s3.349.492,3.557,0-.189-.586-.814-.965a6.055,6.055,0,0,0-5.43-.227C231.871,69.07,231.549,69.449,231.625,69.638Z" transform="translate(-213.402 -68.115)" fill="#0b3360"/>
        <path id="Trazado_191125" data-name="Trazado 191125" d="M222.011,71.094c.208.359,1.7,0,3.519,0s3.311.189,3.5-.17-.208-.492-.832-.776a6.7,6.7,0,0,0-2.686-.435,6.4,6.4,0,0,0-2.668.662C222.2,70.6,221.9,70.943,222.011,71.094Z" transform="translate(-221.988 -66.695)" fill="#0b3360"/>
      </g>
      <path id="Trazado_191126" data-name="Trazado 191126" d="M241.62,75.856c.189,0,7.719-2.895,8.041,4.957S242.093,87.377,242,87.15,241.62,75.856,241.62,75.856Z" transform="translate(-187.043 -38.552)" fill="#ffbf9d"/>
      <path id="Trazado_191127" data-name="Trazado 191127" d="M243,82.927a.673.673,0,0,1,.378.189,1.362,1.362,0,0,0,1.022,0,3.368,3.368,0,0,0,1.457-3.1,4.559,4.559,0,0,0-.473-1.892,1.551,1.551,0,0,0-1.078-1,.681.681,0,0,0-.776.4c-.113.227,0,.378-.095.4s-.17-.114-.114-.454a.832.832,0,0,1,.284-.492,1.021,1.021,0,0,1,.757-.246,1.892,1.892,0,0,1,1.476,1.173,4.673,4.673,0,0,1,.568,2.157,3.576,3.576,0,0,1-1.892,3.481,1.457,1.457,0,0,1-1.249-.151C243,83.022,243,82.927,243,82.927Z" transform="translate(-185.812 -37.318)" fill="#ff9a6c"/>
      <path id="Trazado_191128" data-name="Trazado 191128" d="M229.63,85.552a10.856,10.856,0,0,0,2.535-2.1,8.76,8.76,0,0,0,1.1-2.043c.227-.568.4-.927.473-.908s0,.416,0,1.041a5.676,5.676,0,0,1-1.022,2.289,4.483,4.483,0,0,1-2.005,1.532C230.065,85.608,229.649,85.627,229.63,85.552Z" transform="translate(-197.736 -33.945)" fill="#0b3360"/>
      <path id="Trazado_191129" data-name="Trazado 191129" d="M212.825,73.729a1.892,1.892,0,0,1,.87-1.078,5.675,5.675,0,0,1,2.932-.473,16.516,16.516,0,0,0,8.608-2.611,39.733,39.733,0,0,1,4.011-4.862,29.438,29.438,0,0,1,9.289-7.208,26.751,26.751,0,0,1,14.208-1.116,10.765,10.765,0,0,1,8.116,8.362,8.249,8.249,0,0,1,8.305-.776h0c3.027,1.078,4.749,4.295,5.676,7.378a39.917,39.917,0,0,0,2.913,9.176c.341.568.757,1.268.454,1.892a1.267,1.267,0,0,1-1.343.586,3.632,3.632,0,0,1-1.4-.643c.34.814.662,1.627,1,2.422a7.171,7.171,0,0,1-3.292-.208,71.9,71.9,0,0,1-2.157,8.154,4.749,4.749,0,0,0-3.216.776c-1.059.965-1.532,2.762-3.292,2.081-.908-.359-1.722-2.232-2.024-3.141A44.914,44.914,0,0,1,260.6,73.52a14.34,14.34,0,0,0-4.446-3.2l.151.114c-3.216-1.1-6.83-2.195-9.876-.7-2.346,1.173-3.784,3.614-5.486,5.562a17.954,17.954,0,0,1-12.827,5.922c-.17,3.235.095,7.795,0,11.011l-2.705-5.165h0a10.8,10.8,0,0,1-.586-1.135v-.113h0c-.284-.605-.549-1.23-.908-1.892h0a2.066,2.066,0,1,1-3.14-2.686,4.333,4.333,0,0,1,.965-.984,3.178,3.178,0,0,1-3.046.795,2.5,2.5,0,0,1-1.759-2.478,2.119,2.119,0,0,1,1.268-1.7,7,7,0,0,1-4.086-.908A2.09,2.09,0,0,1,212.825,73.729Z" transform="translate(-212.772 -55.892)" fill="#0b3360"/>
      <path id="Trazado_191130" data-name="Trazado 191130" d="M236.28,61.27a9.461,9.461,0,0,1,1.154,1.041,8.286,8.286,0,0,1,1.759,3.784,15.362,15.362,0,0,1,.284,2.914,26.364,26.364,0,0,1-.151,3.386,30.371,30.371,0,0,0,0,3.784,11.92,11.92,0,0,0,.265,1.892,4.314,4.314,0,0,0,.813,1.892,1.665,1.665,0,0,0,1.608.53,2.554,2.554,0,0,0,1.457-.814,5.827,5.827,0,0,0,1.1-2.913h-.227a9.461,9.461,0,0,0,1.381,2.4,3.273,3.273,0,0,0,2.232,1.211,2.308,2.308,0,0,0,1.192-.189,2.005,2.005,0,0,0,1.041-1.892,1.362,1.362,0,0,0-.378-.889l-.113.113a7.568,7.568,0,0,0,2.459,1.892,5.677,5.677,0,0,0,.776.3h.265l-.265-.114a7.9,7.9,0,0,1-.738-.341,7.416,7.416,0,0,1-2.365-1.892l-.132.114a1.438,1.438,0,0,1,0,1.7,1.7,1.7,0,0,1-.719.7,2.062,2.062,0,0,1-1.078.17,3.141,3.141,0,0,1-2.062-1.154,8.836,8.836,0,0,1-1.343-2.346l-.17-.378v.4a5.675,5.675,0,0,1-1.04,2.8,2.365,2.365,0,0,1-1.305.719,1.4,1.4,0,0,1-1.381-.454,3.784,3.784,0,0,1-.738-1.892,11.492,11.492,0,0,1-.265-1.892,30.272,30.272,0,0,1,0-3.784c0-1.192.151-2.327.132-3.386a14.247,14.247,0,0,0-.322-2.951,8.343,8.343,0,0,0-1.892-3.784A4.257,4.257,0,0,0,236.28,61.27Z" transform="translate(-191.805 -51.096)" fill="#375a64"/>
      <path id="Trazado_191131" data-name="Trazado 191131" d="M217.54,75.433h.095l.284.208a2.8,2.8,0,0,0,.492.3,4.672,4.672,0,0,0,.7.378,10.2,10.2,0,0,0,4.9.889,13.243,13.243,0,0,0,6.924-2.554,22.7,22.7,0,0,0,5.941-6.849c.832-1.4,1.513-2.819,2.251-4.124a15.362,15.362,0,0,1,2.573-3.5,7.946,7.946,0,0,1,3.292-2.005,5.525,5.525,0,0,1,1.8-.076,5.392,5.392,0,0,1,1.589.3,6.357,6.357,0,0,1,2.4,1.438,6.432,6.432,0,0,1,1.286,1.684,6.925,6.925,0,0,1,.586,1.7s0,0,0-.114v-.359a5.976,5.976,0,0,0-.435-1.286,6.507,6.507,0,0,0-1.286-1.741,6.792,6.792,0,0,0-2.422-1.514,6.508,6.508,0,0,0-1.646-.322,6,6,0,0,0-1.892.189,7.965,7.965,0,0,0-3.424,2.043,15.136,15.136,0,0,0-2.611,3.538c-.757,1.324-1.438,2.743-2.251,4.105a22.551,22.551,0,0,1-5.865,6.792,13.111,13.111,0,0,1-6.735,2.459,10.462,10.462,0,0,1-4.843-.795,15.574,15.574,0,0,1-1.7-.795Z" transform="translate(-208.52 -54.115)" fill="#375a64"/>
      <path id="Trazado_191132" data-name="Trazado 191132" d="M217,64.5a1.892,1.892,0,0,0,.416.284,8.856,8.856,0,0,0,1.211.605,11.5,11.5,0,0,0,1.892.643,14.057,14.057,0,0,0,2.459.322,12.753,12.753,0,0,0,2.478-.17,10.539,10.539,0,0,0,1.892-.511,7.889,7.889,0,0,0,1.249-.53c.3-.151.454-.246.435-.265s-.662.284-1.741.624a13.243,13.243,0,0,1-1.892.435,13.983,13.983,0,0,1-2.422.151,15.379,15.379,0,0,1-2.422-.3,13.811,13.811,0,0,1-1.892-.568C217.624,64.824,217,64.446,217,64.5Z" transform="translate(-209.001 -48.218)" fill="#375a64"/>
      <path id="Trazado_191133" data-name="Trazado 191133" d="M221.95,74.2c.227.227,1.551-.832,3.481-.889s3.349.889,3.557.643-.151-.53-.776-.965a4.768,4.768,0,0,0-2.838-.814,4.635,4.635,0,0,0-2.762,1C222.064,73.742,221.856,74.1,221.95,74.2Z" transform="translate(-204.606 -41.376)" fill="#0b3360"/>
      <path id="Trazado_191134" data-name="Trazado 191134" d="M222.16,76.4a1.551,1.551,0,0,0,1.608,1.457,1.495,1.495,0,0,0,1.495-1.514,1.57,1.57,0,0,0-1.608-1.457A1.495,1.495,0,0,0,222.16,76.4Z" transform="translate(-204.399 -38.949)" fill="#0b3360"/>
    </g>
    <g id="Grupo_94175" data-name="Grupo 94175" transform="translate(1274.281 9882.864)">
      <path id="Trazado_191135" data-name="Trazado 191135" d="M263.544,254.12l2.346,28.605,8.4,22.1a2.952,2.952,0,0,1-1.892,3.784h0a2.951,2.951,0,0,1-2.649-.492c-4.805-3.784-22.116-17.368-22.305-19.146-.246-2.308-4.654-30.441-4.654-30.441Z" transform="translate(-242.79 -254.12)" fill="#375a64"/>
      <path id="Trazado_191136" data-name="Trazado 191136" d="M270.465,293.836,245,270.85l.246,2.119c.17,1.173.189,1.8.965,2.516a241.117,241.117,0,0,0,21.341,18.351c.757.605,1.986.3,2.914,0Z" transform="translate(-240.819 -239.199)" fill="#0b3360"/>
      <path id="Trazado_191137" data-name="Trazado 191137" d="M248.819,266.224a1.778,1.778,0,0,1,.719,2.251,1.7,1.7,0,0,1-2.232.757,1.892,1.892,0,0,1-.757-2.4,1.759,1.759,0,0,1,2.4-.511" transform="translate(-239.587 -243.483)" fill="#fff"/>
      <path id="Trazado_191138" data-name="Trazado 191138" d="M254.331,278.5a9.27,9.27,0,0,1,2.27-2.5,8.739,8.739,0,0,1,3.216-.965,1.943,1.943,0,0,0-1.041-.284,4.71,4.71,0,0,0-2.516.719,4.6,4.6,0,0,0-1.741,1.892C254.255,278.061,254.255,278.477,254.331,278.5Z" transform="translate(-232.536 -235.72)" fill="#0b3360"/>
      <path id="Trazado_191139" data-name="Trazado 191139" d="M255.61,279.83a20.979,20.979,0,0,1,2.4-1.513,21.6,21.6,0,0,1,2.743-.643,3.216,3.216,0,0,0-2.989,0C256.139,278.411,255.458,279.755,255.61,279.83Z" transform="translate(-231.375 -233.441)" fill="#0b3360"/>
      <path id="Trazado_191140" data-name="Trazado 191140" d="M252,276.268a31.4,31.4,0,0,1,3.557-2.554,28.241,28.241,0,0,1,4.124-1.438,6.64,6.64,0,0,0-4.427.87A6.735,6.735,0,0,0,252,276.268Z" transform="translate(-234.576 -237.995)" fill="#0b3360"/>
      <path id="Trazado_191141" data-name="Trazado 191141" d="M251.27,270.6c0,.151,1.589-.662,3.651-.965s3.784,0,3.784-.151a5.676,5.676,0,0,0-3.784-.473,5.543,5.543,0,0,0-3.651,1.589Z" transform="translate(-235.227 -240.957)" fill="#0b3360"/>
      <path id="Trazado_191142" data-name="Trazado 191142" d="M250.793,266.188a14.02,14.02,0,0,1,3.784-1.1,13.848,13.848,0,0,1,3.878.549,2.626,2.626,0,0,0-1-.7,6.263,6.263,0,0,0-2.913-.492,6.6,6.6,0,0,0-2.838.889C251.039,265.753,250.736,266.131,250.793,266.188Z" transform="translate(-235.658 -244.923)" fill="#0b3360"/>
      <path id="Trazado_191143" data-name="Trazado 191143" d="M254.729,266.447a2.592,2.592,0,0,0,0-1.1,7.359,7.359,0,0,0-1.154-2.724,3.235,3.235,0,0,0-1.589-1.438,1.192,1.192,0,0,0-1.305.4,1.892,1.892,0,0,0-.322,1.343,4.2,4.2,0,0,0,4.03,3.443,4.824,4.824,0,0,0,4.446-3.008,1.646,1.646,0,0,0,0-1.4,1.154,1.154,0,0,0-1.268-.492,4.086,4.086,0,0,0-1.778,1.192,8.286,8.286,0,0,0-1.722,2.422,3.519,3.519,0,0,0-.34,1.022,14.192,14.192,0,0,1,2.365-3.121,3.633,3.633,0,0,1,1.57-.984.605.605,0,0,1,.7.246,1.135,1.135,0,0,1,0,.927,4.3,4.3,0,0,1-3.878,2.554,3.613,3.613,0,0,1-3.462-2.876,1.362,1.362,0,0,1,.189-.927.624.624,0,0,1,.7-.246,3.122,3.122,0,0,1,1.381,1.192,10.821,10.821,0,0,1,1.438,3.576Z" transform="translate(-236.056 -247.869)" fill="#0b3360"/>
    </g>
    <g id="Grupo_94176" data-name="Grupo 94176" transform="translate(1203.759 9884.075)">
      <path id="Trazado_191144" data-name="Trazado 191144" d="M229.1,255.025l1.059,24.216s-24.273,9.214-24.595,13.716l47.051-.359V254.76Z" transform="translate(-205.472 -254.76)" fill="#375a64"/>
      <path id="Trazado_191145" data-name="Trazado 191145" d="M227.251,266.59a1.815,1.815,0,0,1-.813,3.538,2.024,2.024,0,0,1-1.4-2.327,1.892,1.892,0,0,1,2.384-1.154" transform="translate(-188.134 -244.247)" fill="#e1e1e1"/>
      <path id="Trazado_191146" data-name="Trazado 191146" d="M252.634,276.544l-.151-3.784-45.065,1.778s-2.081.927-1.892,2.4Z" transform="translate(-205.514 -238.706)" fill="#0b3360"/>
      <path id="Trazado_191147" data-name="Trazado 191147" d="M218.1,267.679c0,.227,1.173.322,2.308,1.059s1.741,1.684,1.892,1.589-.151-1.419-1.532-2.27S218.063,267.471,218.1,267.679Z" transform="translate(-194.288 -243.425)" fill="#0b3360"/>
      <path id="Trazado_191148" data-name="Trazado 191148" d="M215.5,268.725c0,.227.946.605,1.741,1.57s1.022,1.986,1.249,1.986.359-1.324-.643-2.5S215.5,268.5,215.5,268.725Z" transform="translate(-196.607 -242.39)" fill="#0b3360"/>
      <path id="Trazado_191149" data-name="Trazado 191149" d="M214.928,273.666c.208,0,.511-1.1-.095-2.346s-1.665-1.741-1.759-1.551.568.851,1.041,1.892S214.682,273.647,214.928,273.666Z" transform="translate(-198.778 -241.409)" fill="#0b3360"/>
      <path id="Trazado_191150" data-name="Trazado 191150" d="M218.3,265.026c0,.208,1.154-.114,2.441,0s2.327.473,2.441.284-.87-1.022-2.4-1.078S218.19,264.837,218.3,265.026Z" transform="translate(-194.113 -246.315)" fill="#0b3360"/>
    </g>
    <g id="Grupo_94178" data-name="Grupo 94178" transform="translate(1219.095 9704.175)">
      <g id="Grupo_94177" data-name="Grupo 94177">
        <path id="Trazado_191151" data-name="Trazado 191151" d="M213.62,165.97c0,1.4,5.468,195.016,5.468,195.016h29.078l5.9-165.73s6.886,86.611,6.886,88.484,6.073,78.1,6.073,78.1l26.959-2.214-1.759-174.376-3.292-25.578Z" transform="translate(-213.62 -159.67)" fill="#0b3360"/>
        <path id="Trazado_191152" data-name="Trazado 191152" d="M239.265,185.051a4.578,4.578,0,0,1-1.173.511L234.8,186.7h-.265v-.208c-.151-2.327-.341-5.449-.511-8.854-.189-3.784-.322-7.057-.4-9.459V165.3a3.917,3.917,0,0,1,0-1.059,4.179,4.179,0,0,1,.17,1.041c0,.681.132,1.665.227,2.876.17,2.422.378,5.77.549,9.459.17,3.405.3,6.527.378,8.854l-.284-.17c1.4-.435,2.554-.757,3.349-.984a6.562,6.562,0,0,1,1.249-.265Z" transform="translate(-195.808 -155.594)" fill="#375a64"/>
        <path id="Trazado_191153" data-name="Trazado 191153" d="M236.063,164.858s0-.151.378-.246a1.76,1.76,0,0,1,1.286.114,1.589,1.589,0,0,1,.965,1.589,1.892,1.892,0,0,1-1.551,1.7,2.1,2.1,0,0,1-2.138-.965,1.722,1.722,0,0,1,0-1.892,2.024,2.024,0,0,1,.965-.813.776.776,0,0,1,.473,0,2.133,2.133,0,0,0-1.078,1.041,1.381,1.381,0,0,0,0,1.4,1.665,1.665,0,0,0,1.589.7,1.476,1.476,0,0,0,1.116-1.23,1.192,1.192,0,0,0-.643-1.211,2.384,2.384,0,0,0-1.362-.189Z" transform="translate(-194.801 -155.531)" fill="#375a64"/>
        <path id="Trazado_191154" data-name="Trazado 191154" d="M242.736,167.434c-.151,0-.378-.814-.492-1.892a8.622,8.622,0,0,1,0-1.892,6.594,6.594,0,0,1,.492,1.892C242.849,166.62,242.906,167.415,242.736,167.434Z" transform="translate(-188.136 -156.12)" fill="#375a64"/>
        <path id="Trazado_191155" data-name="Trazado 191155" d="M243.693,167.432c-.17,0-.3-.889-.3-2.005s.113-1.986.284-1.986.284.889.3,1.986S243.844,167.432,243.693,167.432Z" transform="translate(-187.068 -156.308)" fill="#375a64"/>
        <path id="Trazado_191156" data-name="Trazado 191156" d="M225.325,168.391c-.17,0-.416-.984-.549-2.232a4.825,4.825,0,0,1,0-2.308,4.958,4.958,0,0,1,.549,2.176,4.806,4.806,0,0,1,0,2.365Z" transform="translate(-203.795 -155.942)" fill="#375a64"/>
        <path id="Trazado_191157" data-name="Trazado 191157" d="M226.666,168.589a3.5,3.5,0,0,1-.719-2.346,3.557,3.557,0,0,1,.511-2.4c.17,0,0,1.078,0,2.384a13.242,13.242,0,0,1,.208,2.365Z" transform="translate(-202.658 -155.951)" fill="#375a64"/>
      </g>
      <path id="Trazado_191158" data-name="Trazado 191158" d="M227.461,165a2.725,2.725,0,0,1,0,.87,18.455,18.455,0,0,1-.586,2.27,24.085,24.085,0,0,1-3.614,6.887,24.955,24.955,0,0,1-5.676,5.505,18.187,18.187,0,0,1-2.062,1.268c-.511.265-.795.4-.814.359s1.059-.681,2.649-1.892a28.377,28.377,0,0,0,5.486-5.505,26.483,26.483,0,0,0,3.67-6.716A29.312,29.312,0,0,1,227.461,165Z" transform="translate(-212.648 -154.916)" fill="#375a64"/>
      <path id="Trazado_191159" data-name="Trazado 191159" d="M262.529,177.356a2.536,2.536,0,0,1-.889.132,13.526,13.526,0,0,1-2.441,0,15.873,15.873,0,0,1-7.435-2.762,14.757,14.757,0,0,1-4.976-5.941,11.789,11.789,0,0,1-.757-2.213c-.132-.53-.151-.832-.113-.832a21.453,21.453,0,0,0,1.211,2.895,15.646,15.646,0,0,0,4.938,5.676,17.16,17.16,0,0,0,7.189,2.8C261.224,177.394,262.51,177.262,262.529,177.356Z" transform="translate(-184.829 -154.256)" fill="#375a64"/>
      <path id="Trazado_191160" data-name="Trazado 191160" d="M239.727,226.275c0,.132-4.862-.984-10.765-2.478s-10.67-2.819-10.632-2.951,4.862.984,10.765,2.478S239.765,226.142,239.727,226.275Z" transform="translate(-209.419 -105.118)" fill="#375a64"/>
      <path id="Trazado_191161" data-name="Trazado 191161" d="M263.365,220c0,.114-4.124,2.441-9.365,5.2s-9.554,4.881-9.63,4.768,4.124-2.441,9.459-5.2q4.646-2.62,9.535-4.768Z" transform="translate(-186.195 -105.862)" fill="#375a64"/>
    </g>
    <g id="Grupo_94184" data-name="Grupo 94184" transform="translate(1204.187 9581.618)">
      <path id="Trazado_191162" data-name="Trazado 191162" d="M221.26,101.436l13.205-5.184,24.349-1.362,11.427,4.351-15.665,8.7-13.527-.511Z" transform="translate(-191.898 -94.89)" fill="#ffbf9d"/>
      <path id="Trazado_191163" data-name="Trazado 191163" d="M219.475,225.771c1.211.189,80.935,3.576,80.935,3.576l-2.8-71.684-.227-14.076-4.522-42.643s-11.919-4.105-18.011-6.054a26.127,26.127,0,0,1-18.56,6.489c-11.9-.189-14.4-2.857-14.4-2.857l-16.63,6.376s-11.824,4.238-13.849,9.459-5.676,34.186-5.676,34.186h17.235l-.322,51.4Z" transform="translate(-205.74 -94.89)" fill="#ffb951"/>
      <g id="Grupo_94179" data-name="Grupo 94179" transform="translate(63.908 34.281)" opacity="0.2">
        <path id="Trazado_191164" data-name="Trazado 191164" d="M239.52,113.918,242,131.986l11.957,5.335,8.835-7.53V113.01l-23.27.908" transform="translate(-239.52 -113.01)"/>
      </g>
      <path id="Trazado_191165" data-name="Trazado 191165" d="M262.131,116.35c0,.151-4.976.265-11.105.265s-11.105-.114-11.105-.265a110.84,110.84,0,0,1,11.105-.284A110.845,110.845,0,0,1,262.131,116.35Z" transform="translate(-175.255 -76.033)" fill="#0b3360"/>
      <g id="Grupo_94183" data-name="Grupo 94183" transform="translate(8.4 18.559)">
        <g id="Grupo_94182" data-name="Grupo 94182">
          <path id="Trazado_191166" data-name="Trazado 191166" d="M210.18,109.13a2.324,2.324,0,0,1,.132.473,8.657,8.657,0,0,0,.322,1.4,43.855,43.855,0,0,0,1.589,5.07c.795,2.157,1.892,4.654,3.292,7.568A92.22,92.22,0,0,1,219.2,133.4h0c0,4.295,0,9.005-.095,13.905-.113,10.973-.227,20.811-.3,28.132,0,3.557-.114,6.451-.151,8.532v2.308a4.6,4.6,0,0,1,0,.814,4.6,4.6,0,0,1,0-.813V175.441c0-7.246.095-17.178.151-28.132,0-4.919,0-9.611.113-13.905h0c-1.211-3.576-2.365-6.905-3.614-9.743a81.189,81.189,0,0,1-3.2-7.568,36.459,36.459,0,0,1-1.457-5.165c-.132-.605-.208-1.078-.246-1.4Z" transform="translate(-210.18 -100.749)" fill="#0b3360"/>
          <path id="Trazado_191167" data-name="Trazado 191167" d="M255.7,104.7a9.463,9.463,0,0,1,0,1.532c0,1.078-.095,2.478-.151,4.162-.151,3.595-.341,8.419-.549,13.735s-.454,10.122-.624,13.716c0,1.7-.17,3.1-.246,4.162a7.846,7.846,0,0,1-.151,1.531,9.726,9.726,0,0,1,0-1.531v-4.162c0-3.519.246-8.381.473-13.754s.454-10.216.681-13.716c.113-1.759.227-3.178.322-4.162a8.45,8.45,0,0,1,.246-1.514Z" transform="translate(-171.147 -104.7)" fill="#0b3360"/>
          <g id="Grupo_94180" data-name="Grupo 94180" transform="translate(0.034 10.992)" opacity="0.3">
            <path id="Trazado_191168" data-name="Trazado 191168" d="M210.221,110.51a29.873,29.873,0,0,0,7.832,21.359C216.426,124.472,212.378,117.586,210.221,110.51Z" transform="translate(-210.198 -110.51)"/>
          </g>
          <g id="Grupo_94181" data-name="Grupo 94181" transform="translate(35.076 52.651)" opacity="0.3">
            <path id="Trazado_191169" data-name="Trazado 191169" d="M228.72,161.8a14.965,14.965,0,0,0,9.573-5.335,44.781,44.781,0,0,0,6.414-9.308,36.571,36.571,0,0,0,3.784-14.624A69.167,69.167,0,0,1,228.72,161.8Z" transform="translate(-228.72 -132.53)"/>
          </g>
          <path id="Trazado_191170" data-name="Trazado 191170" d="M251.57,129.69a1.4,1.4,0,0,1,0,.454,6.27,6.27,0,0,1-.3,1.305,20.512,20.512,0,0,1-.53,2.024c-.227.776-.473,1.684-.832,2.649a59.084,59.084,0,0,1-2.762,6.7,71.128,71.128,0,0,1-4.37,7.7,69.852,69.852,0,0,1-5.411,7.038,55.841,55.841,0,0,1-5.146,5.089c-.757.7-1.495,1.268-2.138,1.778s-1.211.946-1.684,1.268l-1.1.738a1.249,1.249,0,0,1-.4.227s0-.114.341-.3l1.022-.832a18.729,18.729,0,0,0,1.627-1.324,21.955,21.955,0,0,0,2.081-1.892A62.852,62.852,0,0,0,237,157.16a74.262,74.262,0,0,0,5.335-7,77.713,77.713,0,0,0,4.389-7.568,71.5,71.5,0,0,0,2.838-6.622c.378-.946.643-1.892.889-2.611s.473-1.438.624-1.892.284-.927.378-1.268a1.741,1.741,0,0,1,.114-.511Z" transform="translate(-195.268 -82.412)" fill="#0b3360"/>
        </g>
        <path id="Trazado_191171" data-name="Trazado 191171" d="M256.13,117.83a2.763,2.763,0,0,1-.095.738,16.622,16.622,0,0,1-.36,2.081c-.151.87-.359,2.005-.681,3.273s-.624,2.724-1.116,4.276c-.246.795-.473,1.627-.738,2.478s-.586,1.741-.908,2.649A58.524,58.524,0,0,1,250.019,139a100.758,100.758,0,0,1-6.47,12.562,102.726,102.726,0,0,1-8.23,11.484c-1.438,1.646-2.762,3.216-4.124,4.6-.681.681-1.305,1.381-1.892,2.005l-1.892,1.778c-1.173,1.154-2.327,2.081-3.311,2.932s-1.892,1.57-2.592,2.119l-1.7,1.268a3.047,3.047,0,0,1-.605.416,4.959,4.959,0,0,1,.549-.492l1.627-1.362c.719-.568,1.57-1.286,2.535-2.157s2.1-1.892,3.254-2.989l1.892-1.8c.643-.624,1.249-1.324,1.892-2.024,1.343-1.362,2.668-2.951,4.068-4.6a109.009,109.009,0,0,0,8.173-11.446,106.9,106.9,0,0,0,6.47-12.487c.814-1.986,1.646-3.878,2.251-5.676.322-.908.662-1.759.927-2.611s.511-1.684.757-2.459c.511-1.551.851-3.008,1.192-4.257s.586-2.346.776-3.254l.454-2.043a4.87,4.87,0,0,1,.113-.681Z" transform="translate(-202.135 -92.989)" fill="#0b3360"/>
      </g>
    </g>
    <g id="Grupo_94188" data-name="Grupo 94188" transform="translate(1162.291 9598.04)">
      <g id="Grupo_94187" data-name="Grupo 94187">
        <g id="Grupo_94185" data-name="Grupo 94185">
          <path id="Trazado_191172" data-name="Trazado 191172" d="M224.731,108.125,255.437,154.8a1.381,1.381,0,0,1-1.324,2.138l-35.359-4.446a1.381,1.381,0,0,1-.946-.568l-33.77-46.105a1.381,1.381,0,0,1,1.23-2.195l36.362,2.686A4.03,4.03,0,0,1,224.731,108.125Z" transform="translate(-183.441 -103.528)" fill="#e1e1e1"/>
          <path id="Trazado_191173" data-name="Trazado 191173" d="M224.885,108.167a1.628,1.628,0,0,0-.284-.416,3.614,3.614,0,0,0-1.135-.965,4.862,4.862,0,0,0-2.346-.586l-3.292-.265-20.981-1.551-6.943-.53-3.784-.284h-.984a1.589,1.589,0,0,0-1.022.416,1.646,1.646,0,0,0-.265,2.081l9.97,13.451,22.532,30.819c.53.7.984,1.343,1.532,2.081a2.006,2.006,0,0,0,.624.416,2.517,2.517,0,0,0,.7.132l1.23.151,4.957.624,9.668,1.211,18.276,2.289,1.135.132a1.7,1.7,0,0,0,1.173-.492,1.684,1.684,0,0,0,.473-1.173,2.006,2.006,0,0,0-.416-1.135l-2.327-3.519-4.465-6.754-8.022-12.127-11.635-17.519-3.273-4.787-.851-1.211a2.325,2.325,0,0,0-.3-.416,4.607,4.607,0,0,0,.265.435l.795,1.268,3.084,4.805,11.484,17.632c2.441,3.784,5.089,7.776,7.946,12.146l4.446,6.773,2.308,3.538a1.362,1.362,0,0,1,.34.832,1.059,1.059,0,0,1-.34.795,1.078,1.078,0,0,1-.776.322l-1.059-.114-18.276-2.327-9.668-1.211-4.957-.624-1.249-.17a2.2,2.2,0,0,1-.549,0,.965.965,0,0,1-.4-.284l-1.476-2.005-22.589-30.8L184.3,105.821a1.1,1.1,0,0,1,.189-1.457.984.984,0,0,1,.7-.3h.927l3.689.265,6.962.492,20.981,1.457,3.292.227a4.919,4.919,0,0,1,2.308.492A4.75,4.75,0,0,1,224.885,108.167Z" transform="translate(-183.595 -103.57)" fill="#0b3360"/>
        </g>
        <path id="Trazado_191174" data-name="Trazado 191174" d="M183.91,104.82a4.181,4.181,0,0,0,.738.114l2.157.208,7.984.7,27.13,2.232-.208-.132q2.554,3.784,5.2,7.851c7.17,11.03,13.432,21.151,18.162,28.378,2.365,3.614,4.314,6.508,5.676,8.495l1.589,2.27a7.286,7.286,0,0,0,.586.776,4.827,4.827,0,0,0-.492-.832c-.359-.586-.87-1.362-1.495-2.346l-5.505-8.589c-4.635-7.246-10.841-17.405-18.03-28.378-1.759-2.705-3.519-5.335-5.222-7.851V107.6h-.265L194.751,105.6l-8-.549-2.157-.114Z" transform="translate(-183.314 -102.455)" fill="#0b3360"/>
        <g id="Grupo_94186" data-name="Grupo 94186" transform="translate(21.564 8.927)">
          <path id="Trazado_191175" data-name="Trazado 191175" d="M195.509,108.3Z" transform="translate(-194.55 -108.279)" fill="#fff"/>
          <path id="Trazado_191176" data-name="Trazado 191176" d="M195.006,108.84a.738.738,0,0,1,.889-.53,2.044,2.044,0,0,1,.946.53.946.946,0,0,1,.17,1.211c-.359.454-1.078.284-1.514,0A1.306,1.306,0,0,1,195.006,108.84Z" transform="translate(-194.993 -108.289)" fill="#fff"/>
        </g>
      </g>
      <path id="Trazado_191177" data-name="Trazado 191177" d="M213.59,124.271s1.4-3.33-2.138-3.784a126.608,126.608,0,0,0-12.846,0s-5.07.549-4.011,4.2c0,0-2.989,2.668-1.381,5.562s2.251,2.043,2.251,2.043-.435,3.538,2.251,4.086c0,0,2.913,3.424,5.581,3.216s14.057-5.676,14.814-6.754,1.892-1.684,1.173-2.895c0,0,1.4-3.141-1.608-3.614C217.676,126.352,217.468,123.741,213.59,124.271Z" transform="translate(-175.44 -88.627)" fill="#ffbf9d"/>
      <path id="Trazado_191178" data-name="Trazado 191178" d="M195.24,123.678a8.363,8.363,0,0,0,2.384.17h5.77a34.054,34.054,0,0,0,5.789-.341c1.532-.359,2.138-1.249,2.062-1.268a6.4,6.4,0,0,1-2.138.87c-1.419.227-3.481,0-5.676.151s-4.276.095-5.676.17a10.008,10.008,0,0,0-2.516.246Z" transform="translate(-173.209 -86.918)" fill="#ff9a6c"/>
      <path id="Trazado_191179" data-name="Trazado 191179" d="M196.58,128.451a2.675,2.675,0,0,0,.757.265,8.287,8.287,0,0,0,2.214.132,15.285,15.285,0,0,0,3.235-.586c1.192-.322,2.44-.776,3.784-1.192a16.385,16.385,0,0,1,3.784-.776,5.865,5.865,0,0,0,3.254-.662,1.892,1.892,0,0,0,.757-1.1,1.476,1.476,0,0,0-.132-1.022c-.265-.511-.643-.53-.643-.511a1.292,1.292,0,0,1,.435.605,1.4,1.4,0,0,1-.662,1.684,5.79,5.79,0,0,1-3.027.454,16.006,16.006,0,0,0-3.954.757l-3.784,1.249a18.067,18.067,0,0,1-3.122.681,18.917,18.917,0,0,1-2.895.019Z" transform="translate(-172.014 -86.243)" fill="#ff9a6c"/>
      <path id="Trazado_191180" data-name="Trazado 191180" d="M198.59,130.661a9.459,9.459,0,0,0,2.384-.473c1.457-.359,3.443-.927,5.676-1.646s4.124-1.419,5.505-1.892a9.025,9.025,0,0,0,2.195-1.041,80.624,80.624,0,0,0-7.889,2.478,79.689,79.689,0,0,0-7.87,2.573Z" transform="translate(-170.221 -83.913)" fill="#ff9a6c"/>
      <path id="Trazado_191181" data-name="Trazado 191181" d="M198.1,132.855a5.241,5.241,0,0,0,1.986-.227,23.951,23.951,0,0,0,4.541-1.589c1.7-.776,3.178-1.57,4.257-2.138s1.741-.946,1.7-1.041a37.838,37.838,0,0,0-6.205,2.649C201.032,132.1,198.081,132.7,198.1,132.855Z" transform="translate(-170.658 -81.906)" fill="#ff9a6c"/>
    </g>
    <g id="Grupo_94191" data-name="Grupo 94191" transform="translate(1232.783 9570.8)">
      <path id="Trazado_191182" data-name="Trazado 191182" d="M284.58,123.017s-7.227,28.965-16.251,39.73c-8.741,10.349-22.457,5.676-27.205-7.795s-13.243-43.986-13.243-43.986l10.386-7.946,17.954,34.773,8.078-23.705Z" transform="translate(-214.59 -76.82)" fill="#ffbf9d"/>
      <g id="Grupo_94190" data-name="Grupo 94190">
        <g id="Grupo_94189" data-name="Grupo 94189">
          <path id="Trazado_191183" data-name="Trazado 191183" d="M234.534,123.919l-7.568-11.049a20.145,20.145,0,0,1-3.254-1c-.851-.492-1.7-4.881-1.684-5.676s-1.476-2.857-.87-3.424,2.649-.605,2.535-1.438c0-.17-1.514-2.005-.341-3.349a6.641,6.641,0,0,1,2.157-.908l-.132-4.2s2.289-4.976,4.6-3.178c0,0,8.778,6.735,9.668,7.814s4.257,15.135,4.843,17.727" transform="translate(-220.714 -89.054)" fill="#ffbf9d"/>
          <path id="Trazado_191184" data-name="Trazado 191184" d="M244.57,115.334a3.784,3.784,0,0,0-.114-.757l-.454-2.1c-.416-1.892-1.022-4.465-1.892-7.719-.416-1.646-.889-3.424-1.457-5.316-.17-.473-.322-.965-.511-1.438a3.33,3.33,0,0,0-1.041-1.286c-.795-.7-1.627-1.381-2.5-2.081-1.741-1.419-3.576-2.857-5.505-4.351a5.941,5.941,0,0,0-1.608-1.059,2.157,2.157,0,0,0-1.892.473,9.024,9.024,0,0,0-2.346,3.159v1.4c0,.984,0,1.892.095,2.932l.189-.284a11.354,11.354,0,0,0-1.532.53,2.157,2.157,0,0,0-.757.492,2.195,2.195,0,0,0-.416.776,2.5,2.5,0,0,0,.132,1.665,4.387,4.387,0,0,0,.341.738l.189.322h0a1.513,1.513,0,0,1-.435.3,5.677,5.677,0,0,1-.681.227l-.719.246a1.419,1.419,0,0,0-.719.511,1.211,1.211,0,0,0,0,.889,4.008,4.008,0,0,0,.246.719c.189.435.416.87.568,1.286a1.741,1.741,0,0,1,.132.586,4.2,4.2,0,0,0,0,.719,7.968,7.968,0,0,0,.227,1.343,21.066,21.066,0,0,0,.719,2.554,3.274,3.274,0,0,0,.681,1.173,3.462,3.462,0,0,0,1.173.511c.776.246,1.532.435,2.27.605h-.132l5.676,8c.662.908,1.173,1.646,1.57,2.176a4.426,4.426,0,0,0,.586.738,7.326,7.326,0,0,0-.492-.795l-1.476-2.232c-1.324-1.892-3.2-4.749-5.486-8.135h0q-1.078-.265-2.214-.624a3.613,3.613,0,0,1-1.022-.435,2.649,2.649,0,0,1-.53-1,18.923,18.923,0,0,1-.681-2.478,11.421,11.421,0,0,0-.227-1.324,2.212,2.212,0,0,1,0-.643,2.44,2.44,0,0,0-.151-.757c-.17-.473-.378-.889-.568-1.324a4.348,4.348,0,0,1-.227-.643c0-.189-.095-.435,0-.511a1.891,1.891,0,0,1,.454-.284l.681-.227a3.784,3.784,0,0,0,.738-.246,1.173,1.173,0,0,0,.719-.587.757.757,0,0,0,0-.284.566.566,0,0,0,0-.208v-.095l-.189-.322a4.913,4.913,0,0,1-.3-.643,2.081,2.081,0,0,1-.113-1.343,1.5,1.5,0,0,1,.322-.586,1.7,1.7,0,0,1,.549-.341,9.457,9.457,0,0,1,1.457-.492h.208V93.142a9.006,9.006,0,0,1,2.176-2.951,1.665,1.665,0,0,1,1.495-.378,5.808,5.808,0,0,1,1.438.965q2.895,2.213,5.505,4.313c.87.7,1.722,1.381,2.516,2.062a2.951,2.951,0,0,1,.927,1.1c.189.454.341.927.492,1.4.605,1.892,1.078,3.651,1.532,5.278.832,3.2,1.532,5.808,2.005,7.681.246.851.416,1.551.549,2.081a4.265,4.265,0,0,0-.17.643Z" transform="translate(-220.855 -89.171)" fill="#ff9a6c"/>
        </g>
        <path id="Trazado_191185" data-name="Trazado 191185" d="M223.36,93.529c0,.095.889,0,2.27.151a18.089,18.089,0,0,1,2.4.549,10.614,10.614,0,0,0,3.1,0,5.846,5.846,0,0,1,4.881,1.57,6.357,6.357,0,0,1,1.173,1.892,2.894,2.894,0,0,0-.908-2.138,5.543,5.543,0,0,0-2.081-1.476,6.262,6.262,0,0,0-3.1-.4,12.108,12.108,0,0,1-2.97,0,13.244,13.244,0,0,0-2.459-.454,6,6,0,0,0-2.308.3Z" transform="translate(-218.621 -85.567)" fill="#ff9a6c"/>
        <path id="Trazado_191186" data-name="Trazado 191186" d="M225.086,94.343c.132,0,.473-.454.435-1.173s-.454-1.192-.568-1.116,0,.568,0,1.154S224.935,94.286,225.086,94.343Z" transform="translate(-217.245 -86.608)" fill="#ff9a6c"/>
        <path id="Trazado_191187" data-name="Trazado 191187" d="M222.26,96.352a19.221,19.221,0,0,0,6.6-.53,6.735,6.735,0,0,1,2.422-.3,2.705,2.705,0,0,1,1.57,1.041,13.9,13.9,0,0,1,.87,1.684,2.97,2.97,0,0,0-.568-1.892,2.932,2.932,0,0,0-1.778-1.305,6.546,6.546,0,0,0-2.63.265C225.192,96.068,222.241,96.181,222.26,96.352Z" transform="translate(-219.602 -83.963)" fill="#ff9a6c"/>
        <path id="Trazado_191188" data-name="Trazado 191188" d="M221.64,98.507a3.519,3.519,0,0,0,1.627,0c.984-.114,2.327-.454,3.784-.738a7.284,7.284,0,0,1,2.043-.208,2.422,2.422,0,0,1,1.476.53,2.289,2.289,0,0,1,.719,1.286.489.489,0,0,0,0-.454,1.892,1.892,0,0,0-.549-1.116,2.667,2.667,0,0,0-1.684-.738,7.946,7.946,0,0,0-2.195.151c-1.495.3-2.8.7-3.784.908A8.021,8.021,0,0,0,221.64,98.507Z" transform="translate(-220.155 -82.145)" fill="#ff9a6c"/>
        <path id="Trazado_191189" data-name="Trazado 191189" d="M223,99.49a2.366,2.366,0,0,0,2.024.851l-.284-.227.095.7a7.454,7.454,0,0,0,.624,2.781,7.814,7.814,0,0,0,0-2.838l-.095-.7v-.246h-.227A8.722,8.722,0,0,1,223,99.49Z" transform="translate(-218.946 -79.968)" fill="#ff9a6c"/>
      </g>
    </g>
    <path id="Trazado_191190" data-name="Trazado 191190" d="M259.819,98.09s14.795,3.576,14.757,23.214-4.465,29.324-4.465,29.324l-27.281-14.87,6.073-15.286Z" transform="translate(1031.527 9489.582)" fill="#ffb951"/>
    <path id="Trazado_191191" data-name="Trazado 191191" d="M270.316,148.63a2.006,2.006,0,0,1-.568-.246l-1.589-.795-5.884-3.065-19.468-10.481-.208-.132v-.227l1.476-3.784,4.919-12.789,2.157-5.562a36.265,36.265,0,0,1,2.157-4.768,14.737,14.737,0,0,1,4.938-5.676,6.053,6.053,0,0,1,1.892-.776h.719a7.36,7.36,0,0,0-2.516,1.022,14.965,14.965,0,0,0-4.692,5.676,33.746,33.746,0,0,0-2.062,4.749c-.662,1.741-1.381,3.614-2.119,5.676-1.495,3.935-3.141,8.268-4.881,12.789-.492,1.324-.984,2.611-1.457,3.784l-.132-.359,19.373,10.651,5.676,3.216,1.532.889a3.578,3.578,0,0,1,.738.208Z" transform="translate(1031.322 9491.58)" fill="#0b3360"/>
    <g id="Grupo_94197" data-name="Grupo 94197" transform="translate(914.085 9688.303)">
      <g id="Grupo_94193" data-name="Grupo 94193" transform="translate(0 175.549)">
        <path id="Trazado_191192" data-name="Trazado 191192" d="M78.016,244.07,52.4,267.529l29,32.03c2.895-2.951-5.978-25.087-5.978-25.087l15.949-15.4Z" transform="translate(-52.4 -244.07)" fill="#375a64"/>
        <path id="Trazado_191193" data-name="Trazado 191193" d="M61.776,254.329a1.892,1.892,0,0,0-2.308.454,1.684,1.684,0,0,0,.435,2.289,1.892,1.892,0,0,0,2.441-.473,1.759,1.759,0,0,0-.7-2.346" transform="translate(-46.339 -235.108)" fill="#fff"/>
        <path id="Trazado_191194" data-name="Trazado 191194" d="M52.4,257.638l2.668-2.478,26.714,31.859s.662,1.986-.492,2.724Z" transform="translate(-52.4 -234.179)" fill="#0b3360"/>
        <path id="Trazado_191195" data-name="Trazado 191195" d="M67.008,261.153c-.17.132-.946-.568-2.138-.889s-2.232-.132-2.308-.341,1.041-.776,2.5-.378S67.178,261.058,67.008,261.153Z" transform="translate(-43.34 -230.391)" fill="#fff"/>
        <path id="Trazado_191196" data-name="Trazado 191196" d="M67.794,263.2c-.114.189-1-.265-2.138-.189s-1.986.549-2.119.378.586-1.041,2.005-1.1S67.945,263.067,67.794,263.2Z" transform="translate(-42.481 -227.821)" fill="#fff"/>
        <path id="Trazado_191197" data-name="Trazado 191197" d="M64.592,266.463c-.208-.151.265-1,1.646-1.419s2.214,0,2.138.227-.927.151-1.892.473S64.743,266.6,64.592,266.463Z" transform="translate(-41.568 -225.522)" fill="#fff"/>
        <path id="Trazado_191198" data-name="Trazado 191198" d="M68.279,259.9c-.208,0-.643-.851-1.495-1.684s-1.778-1.268-1.7-1.476,1.211,0,2.214.946S68.469,259.866,68.279,259.9Z" transform="translate(-41.093 -232.831)" fill="#fff"/>
        <path id="Trazado_191199" data-name="Trazado 191199" d="M69.739,259.346a5.275,5.275,0,0,1-1.438-1.608,9.818,9.818,0,0,1-1-2.138,7.966,7.966,0,0,1-.341-1.362,2.308,2.308,0,0,1,0-.832.965.965,0,0,1,.776-.832,1.192,1.192,0,0,1,.984.359,3.783,3.783,0,0,1,.454.681,10.918,10.918,0,0,1,.568,1.305,8.174,8.174,0,0,1,.359,2.365,3.594,3.594,0,0,1-.454,2.119,10.326,10.326,0,0,1,0-2.1,8.684,8.684,0,0,0-.492-2.157,7.323,7.323,0,0,0-.549-1.173c-.227-.416-.492-.719-.719-.662s-.114,0-.132.189a1.7,1.7,0,0,0,0,.605,11.765,11.765,0,0,0,.284,1.286,12.507,12.507,0,0,0,.814,2.1C69.323,258.627,69.834,259.27,69.739,259.346Z" transform="translate(-39.45 -236.492)" fill="#fff"/>
        <path id="Trazado_191200" data-name="Trazado 191200" d="M68.2,257.965a4.6,4.6,0,0,1,1.154-1.892,7.076,7.076,0,0,1,1.892-1.381,6.583,6.583,0,0,1,1.343-.473,1.759,1.759,0,0,1,1.722.3.984.984,0,0,1,.17,1.059,3.425,3.425,0,0,1-.435.7,4.747,4.747,0,0,1-1.078.984,5.013,5.013,0,0,1-2.289.813,2.8,2.8,0,0,1-2.138-.416,14.848,14.848,0,0,0,2.062,0,4.805,4.805,0,0,0,2.876-1.722c.284-.359.454-.738.3-.832a1.229,1.229,0,0,0-1.041,0,7.791,7.791,0,0,0-1.23.4,7.928,7.928,0,0,0-1.892,1.135C68.73,257.341,68.295,258.041,68.2,257.965Z" transform="translate(-38.308 -235.111)" fill="#fff"/>
      </g>
      <g id="Grupo_94194" data-name="Grupo 94194" transform="translate(19.43 198.119)">
        <path id="Trazado_191201" data-name="Trazado 191201" d="M62.67,256l.341,34.735,43.211-.189c-.265-4.124-22.7-12.316-22.7-12.316L84.256,256Z" transform="translate(-62.67 -256)" fill="#375a64"/>
        <path id="Trazado_191202" data-name="Trazado 191202" d="M67.225,266.828a1.778,1.778,0,0,0-1.211,2.024,1.722,1.722,0,0,0,1.892,1.211,1.892,1.892,0,0,0,1.287-2.138,1.759,1.759,0,0,0-2.214-1.04" transform="translate(-59.715 -246.377)" fill="#fff"/>
        <path id="Trazado_191203" data-name="Trazado 191203" d="M62.84,276.2V272.42l41.622,1.4s1.892.851,1.7,2.214Z" transform="translate(-62.518 -241.355)" fill="#0b3360"/>
        <path id="Trazado_191204" data-name="Trazado 191204" d="M75.933,267.736c0,.208-1.059.3-2.1,1s-1.589,1.57-1.778,1.476.114-1.305,1.381-2.1S75.971,267.547,75.933,267.736Z" transform="translate(-54.346 -245.695)" fill="#fff"/>
        <path id="Trazado_191205" data-name="Trazado 191205" d="M77.827,268.666c0,.208-.87.568-1.57,1.457s-.927,1.892-1.135,1.892-.341-1.192.568-2.289S77.827,268.458,77.827,268.666Z" transform="translate(-51.7 -244.772)" fill="#fff"/>
        <path id="Trazado_191206" data-name="Trazado 191206" d="M77.976,273.209c-.189,0-.492-1,0-2.157s1.514-1.627,1.608-1.457-.511.795-.946,1.759S78.26,273.191,77.976,273.209Z" transform="translate(-49.257 -243.904)" fill="#fff"/>
        <path id="Trazado_191207" data-name="Trazado 191207" d="M75.988,265.342c-.095.189-1.059,0-2.251,0s-2.119.473-2.232.284.776-.927,2.176-1S76.083,265.1,75.988,265.342Z" transform="translate(-54.799 -248.315)" fill="#fff"/>
      </g>
      <g id="Grupo_94196" data-name="Grupo 94196" transform="translate(0.421)">
        <g id="Grupo_94195" data-name="Grupo 94195">
          <path id="Trazado_191208" data-name="Trazado 191208" d="M73.807,151.28a61.791,61.791,0,0,0-9.024,12.714c-2.97,6.224-7.568,19.449-7.568,19.449s-5.676,20.281-4.408,29.741,9.8,74.711,9.8,74.711-1.684,51.686,5.676,74.673l1.343,6.092,24.368-4.314h0L99.4,236.415l14.851-84.568Z" transform="translate(-52.622 -151.28)" fill="#0b3360"/>
          <path id="Trazado_191209" data-name="Trazado 191209" d="M82.295,155.2a2.819,2.819,0,0,0-.946-1.4,1.892,1.892,0,0,0-1.665-.17,1.741,1.741,0,0,0,0,3.235,1.892,1.892,0,0,0,1.665-.227,2.781,2.781,0,0,0,.889-1.438v.511a2.024,2.024,0,0,1-.681,1.249,2.214,2.214,0,0,1-2.1.416A2.27,2.27,0,0,1,78,155.28a2.232,2.232,0,0,1,1.476-2.157,2.195,2.195,0,0,1,2.119.341,1.892,1.892,0,0,1,.719,1.23C82.39,155.015,82.333,155.2,82.295,155.2Z" transform="translate(-29.989 -149.756)" fill="#375a64"/>
          <path id="Trazado_191210" data-name="Trazado 191210" d="M123.68,168.642s8.93,81.105,10.216,95.03-49.189,88.2-49.189,88.2l-21.4-25.2,32.541-60.541L84.9,205.874,99.313,151.52l22.438.265Z" transform="translate(-43.09 -151.066)" fill="#0b3360"/>
        </g>
        <path id="Trazado_191211" data-name="Trazado 191211" d="M58.9,321.244a13.62,13.62,0,0,0,.17,1.778c.17,1.154.435,2.876.851,5.07.795,4.427,2.119,10.822,3.784,18.824v.151h.17l24.5-4.332h.189v-.189c.662-16.724,1.476-36.7,2.346-58.138.908-23.062,1.741-44.459,2.422-62h0c1.892-14.095,3.33-25.749,4.389-33.9.511-4.049.908-7.227,1.192-9.459.114-1.078.227-1.892.284-2.478a7.259,7.259,0,0,0,0-.851,4,4,0,0,1-.132.832c-.132.549-.208,1.4-.359,2.478-.322,2.176-.757,5.354-1.324,9.459-1.1,8.154-2.668,19.789-4.578,33.884h0c-.719,17.538-1.589,38.935-2.516,62-.832,21.435-1.627,41.414-2.27,58.138l.189-.208-24.349,4.37.208.132c-1.892-7.965-3.178-14.359-4.049-18.768-.435-2.195-.757-3.9-.946-5.051-.095-.568-.151-1.022-.189-1.305a4.28,4.28,0,0,0,.019-.435Z" transform="translate(-47.041 -129.482)" fill="#375a64"/>
      </g>
      <path id="Trazado_191212" data-name="Trazado 191212" d="M78.4,182.285a11.5,11.5,0,0,1,1.324,0,6.149,6.149,0,0,0,3.424-.568,3.2,3.2,0,0,0,1.381-1.892,12.277,12.277,0,0,0,.416-2.781c.17-2.024.359-4.257.511-6.6.3-4.673.473-8.911.586-11.976a29.2,29.2,0,0,1,.132-3.632,6.355,6.355,0,0,1,.113-1.343,6.358,6.358,0,0,1,.114,1.343c0,.851,0,2.1,0,3.632,0,3.084-.095,7.341-.416,12.014-.151,2.346-.341,4.578-.549,6.6a12.846,12.846,0,0,1-.492,2.895,3.519,3.519,0,0,1-1.627,2.043,4.806,4.806,0,0,1-2.062.549,9.7,9.7,0,0,1-1.589,0,4.123,4.123,0,0,1-1.268-.284Z" transform="translate(-29.211 -149.309)" fill="#375a64"/>
      <path id="Trazado_191213" data-name="Trazado 191213" d="M100.149,166.808a8.742,8.742,0,0,1-2.327-1.23,24.139,24.139,0,0,1-4.786-4.181,23.762,23.762,0,0,1-3.538-5.3,8.1,8.1,0,0,1-.908-2.459,32.6,32.6,0,0,0,11.559,13.243Z" transform="translate(-20.122 -149.175)" fill="#375a64"/>
    </g>
    <g id="Grupo_94200" data-name="Grupo 94200" transform="translate(917.396 9601.844)">
      <g id="Grupo_94198" data-name="Grupo 94198">
        <path id="Trazado_191214" data-name="Trazado 191214" d="M54.15,118.937,63.874,154.2l4.276,18.768c0,16.176-4.276,23.535-4.276,23.535l66.084-3.292s1.1-44.743,0-53.2l-7.984-29.286-20.962-5.146-26.165.492Z" transform="translate(-54.15 -105.58)" fill="#71d9e7"/>
        <path id="Trazado_191215" data-name="Trazado 191215" d="M102.271,143.916a4.2,4.2,0,0,1-.246-1.741,12,12,0,0,1,2.895-7.851,4.483,4.483,0,0,1,1.324-1.154,20.941,20.941,0,0,0-2.989,5.013,20.7,20.7,0,0,0-.984,5.732Z" transform="translate(-11.46 -80.973)" fill="#0b3360"/>
        <path id="Trazado_191216" data-name="Trazado 191216" d="M138.352,143.02l-17.178,10.254L111.43,128.3a112.508,112.508,0,0,0-5.676-10.689c-5.676-10.008-12.941-9.459-12.941-9.459L84.13,121.112l9.214,19.865s5.676,36.854,16.592,39.73c16.705,4.37,28.378-37.668,28.378-37.668Z" transform="translate(-27.411 -103.29)" fill="#71d9e7"/>
      </g>
      <g id="Grupo_94199" data-name="Grupo 94199" transform="translate(3.727 44.819)" opacity="0.3">
        <path id="Trazado_191217" data-name="Trazado 191217" d="M56.12,197.435c7.776-.3,15.854-3.614,22.551-7.568s12.77-8.911,19.07-13.47c15.135-10.916,45.141-34.83,59.159-47.127l-4.068.908L58.447,191.192Z" transform="translate(-56.12 -129.27)"/>
      </g>
      <path id="Trazado_191218" data-name="Trazado 191218" d="M98.611,175.9a2.554,2.554,0,0,1,0-.662c0-.492,0-1.1,0-1.892v-6.868c0-5.884,0-13.849.114-22.7v-6.432a38.2,38.2,0,0,0-.814-5.922,30.63,30.63,0,0,0-4.068-9.195c-1.476-2.5-2.649-4.541-3.349-6-.359-.738-.605-1.324-.757-1.722a3.066,3.066,0,0,1-.208-.624,2.421,2.421,0,0,1,.3.568c.189.4.473.946.851,1.665.757,1.438,1.892,3.424,3.519,5.9a30.27,30.27,0,0,1,4.219,9.289,37.233,37.233,0,0,1,.851,6c.151,2.1,0,4.257,0,6.47-.114,8.816-.208,16.8-.284,22.7,0,2.838-.114,5.165-.151,6.868v1.892A2.309,2.309,0,0,1,98.611,175.9Z" transform="translate(-22.595 -98.177)" fill="#0b3360"/>
    </g>
    <g id="Grupo_94206" data-name="Grupo 94206" transform="translate(921.739 9527.82)">
      <path id="Trazado_191219" data-name="Trazado 191219" d="M106.824,110.8a4.484,4.484,0,0,1-4.162-1.892,5.392,5.392,0,0,0,3.2-.189c.965-.492,1.514-1.892.757-2.686s-1.57-.492-2.4-.568a5.184,5.184,0,0,1-4.427-3.387,14.341,14.341,0,0,1,.189-6.451A17.746,17.746,0,0,0,92.54,79.264L79.051,71.45a30.516,30.516,0,0,0-5.411,22.7,59.576,59.576,0,0,0,8.381,22.173A27,27,0,0,0,86.089,122a10.368,10.368,0,0,0,6.073,3.1,6.224,6.224,0,0,0-1-5.676,13.641,13.641,0,0,0,9.989-3.689l-2.895-2.232a10.576,10.576,0,0,0,8.57-2.705Z" transform="translate(-41.452 -61.997)" fill="#0b3360"/>
      <g id="Grupo_94202" data-name="Grupo 94202" transform="translate(13.25 9.943)">
        <g id="Grupo_94201" data-name="Grupo 94201">
          <path id="Trazado_191220" data-name="Trazado 191220" d="M63.488,88.53a12.657,12.657,0,0,1,9.195-11.9L89.6,71.787c7.341-1,12.524,7.908,13.243,15.305a117.543,117.543,0,0,1,.549,23.005C101.8,122.47,92.4,124.343,92.4,124.343s.17,5.676.265,9.214l-.17,27.622L67.518,134.106,63.45,88.7C63.45,88.473,63.488,88.814,63.488,88.53Z" transform="translate(-63.45 -71.709)" fill="#c17560"/>
          <path id="Trazado_191221" data-name="Trazado 191221" d="M84.62,85.475A1.551,1.551,0,0,1,83.144,87.1a1.513,1.513,0,0,1-1.684-1.362,1.589,1.589,0,0,1,1.476-1.646,1.532,1.532,0,0,1,1.684,1.381Z" transform="translate(-47.388 -60.67)" fill="#0b3360"/>
          <path id="Trazado_191222" data-name="Trazado 191222" d="M86.317,83.141c-.189.208-1.4-.643-3.1-.586s-2.932.946-3.122.738,0-.454.624-.87a4.332,4.332,0,0,1,4.938-.076C86.223,82.668,86.412,83.047,86.317,83.141Z" transform="translate(-48.669 -62.877)" fill="#0b3360"/>
          <path id="Trazado_191223" data-name="Trazado 191223" d="M76.731,85.485a1.551,1.551,0,0,1-1.476,1.627,1.495,1.495,0,0,1-1.665-1.362A1.589,1.589,0,0,1,75.066,84.1a1.514,1.514,0,0,1,1.665,1.381Z" transform="translate(-54.407 -60.661)" fill="#0b3360"/>
          <path id="Trazado_191224" data-name="Trazado 191224" d="M77.777,83.4c-.189.208-1.419-.643-3.122-.586s-2.914.946-3.1.757,0-.473.624-.889a4.522,4.522,0,0,1,2.478-.851,4.313,4.313,0,0,1,2.5.719C77.683,82.947,77.872,83.306,77.777,83.4Z" transform="translate(-56.285 -62.683)" fill="#0b3360"/>
          <path id="Trazado_191225" data-name="Trazado 191225" d="M78.41,96.321a9.838,9.838,0,0,1,2.743-.586c.435,0,.832-.17.908-.454a2.214,2.214,0,0,0-.341-1.286l-1.381-3.273A57.38,57.38,0,0,1,77.18,82.17a55.28,55.28,0,0,1,3.784,8.286c.473,1.135.908,2.232,1.324,3.292a2.384,2.384,0,0,1,.284,1.684,1.022,1.022,0,0,1-.7.662,2.78,2.78,0,0,1-.719.132A12.24,12.24,0,0,1,78.41,96.321Z" transform="translate(-51.204 -62.379)" fill="#0b3360"/>
          <path id="Trazado_191226" data-name="Trazado 191226" d="M70,97.47s4.257,8.343,16.573,6.811v-2.895A31.216,31.216,0,0,1,70,97.47Z" transform="translate(-57.608 -48.733)" fill="#7c4236"/>
          <path id="Trazado_191227" data-name="Trazado 191227" d="M78.035,80.317c-.151.473-1.892.3-3.784.605s-3.576.889-3.784.492.151-.643.776-1.116A6.679,6.679,0,0,1,74.1,79.2a6.792,6.792,0,0,1,3.027.265C77.714,79.749,78.092,80.09,78.035,80.317Z" transform="translate(-57.244 -65.085)" fill="#0b3360"/>
          <path id="Trazado_191228" data-name="Trazado 191228" d="M85.777,80.465c-.284.378-1.476,0-2.876,0s-2.592.341-2.895,0,0-.568.568-.965a4.219,4.219,0,0,1,4.654,0C85.777,79.878,85.871,80.257,85.777,80.465Z" transform="translate(-48.79 -65.384)" fill="#0b3360"/>
        </g>
        <path id="Trazado_191229" data-name="Trazado 191229" d="M74.46,92.221a2.213,2.213,0,0,1,2.251-1.741A2.289,2.289,0,0,1,78.6,91.692a2.9,2.9,0,0,1,.17,2.214v.17a2.554,2.554,0,0,1-2.819.681,2.384,2.384,0,0,1-1.495-2.535Z" transform="translate(-53.649 -54.968)" fill="#7c4236"/>
        <path id="Trazado_191230" data-name="Trazado 191230" d="M79.608,94.61c0-.265-1.722-.132-3.046-1.514S75.276,89.88,75.03,89.88s-.3.435-.265,1.211a4.351,4.351,0,0,0,1.173,2.8,3.784,3.784,0,0,0,2.573,1.135C79.23,94.95,79.646,94.723,79.608,94.61Z" transform="translate(-53.368 -55.502)" fill="#0b3360"/>
      </g>
      <path id="Trazado_191231" data-name="Trazado 191231" d="M66.48,73.579a17.027,17.027,0,0,1,9.932-6.792,9.308,9.308,0,0,1,9.062,2.4,10.16,10.16,0,0,0,3.973,2.346,17.027,17.027,0,0,1,5.846,1.23c3.141,1.608,4.5,5.808,5.959,9.024,1.892,3.973,4.389,7.568,5.562,11.862s.549,9.459-3.008,11.957c.681-3.595,1.249-7.568-.738-10.689-1.514-2.346-4.181-3.651-6.13-5.676-2.327-2.441-2.63-5.676-5.07-8.022-5.676-5.3-15.419,4.03-25.389-7.568" transform="translate(-47.497 -66.453)" fill="#0b3360"/>
      <path id="Trazado_191232" data-name="Trazado 191232" d="M100.418,87.008a36.268,36.268,0,0,0-5.505-9.951,19.392,19.392,0,0,0-25.749-3.311H68.18a16.384,16.384,0,0,0,12.714,6.205c2.895,0,6.035-.757,8.532.738s3.292,4.446,5.259,6.414c1.343,1.343,3.141,2.176,4.427,3.557a14.378,14.378,0,0,1,2.781,5.316C102.726,93,101.591,89.864,100.418,87.008Z" transform="translate(-45.981 -63.025)" fill="#0b3360"/>
      <path id="Trazado_191233" data-name="Trazado 191233" d="M84.945,76.688l-7.908-6.962c-6.168-.322-10.084,5.505-12.222,9.989a95.029,95.029,0,0,0-3.254,10.576C60.351,93.867,58.4,97.2,57.3,100.829a12.7,12.7,0,0,0,.908,11.049l1.381-2.535a15.324,15.324,0,0,0,4.143,9.459c.189-.87.359-1.759.53-2.649a14.889,14.889,0,0,0,5.959,6.414l3.784,9.895C79.4,115.661,65.307,114.45,84.945,76.688Z" transform="translate(-56.446 -63.546)" fill="#0b3360"/>
      <path id="Trazado_191234" data-name="Trazado 191234" d="M81.943,77.979A36.192,36.192,0,0,1,80.051,84.6a12.694,12.694,0,0,1-4.068,5.449c-2.705,1.892-6.186,2.365-9.459,3.141s-6.641,2.289-7.984,5.3A77.568,77.568,0,0,1,61.3,85.243c1.457-4.768,3.538-9.63,7.568-12.638a13.83,13.83,0,0,1,12.978-1.892" transform="translate(-54.579 -63.399)" fill="#0b3360"/>
      <g id="Grupo_94205" data-name="Grupo 94205" transform="translate(11.243 35.671)">
        <g id="Grupo_94203" data-name="Grupo 94203">
          <path id="Trazado_191235" data-name="Trazado 191235" d="M70.11,86.011c-.17-.416-7.851-2.951-7.719,5.127s8,6.073,8,5.846S70.11,86.011,70.11,86.011Z" transform="translate(-62.389 -85.308)" fill="#c17560"/>
          <path id="Trazado_191236" data-name="Trazado 191236" d="M66.953,92.879s-.132,0-.359.208a1.513,1.513,0,0,1-1.022,0,3.424,3.424,0,0,1-1.627-3.008,4.673,4.673,0,0,1,.359-1.892,1.57,1.57,0,0,1,1-1.059.681.681,0,0,1,.814.359.378.378,0,0,1,0,.378.676.676,0,0,0,.246-.549.776.776,0,0,0-.3-.492,1.1,1.1,0,0,0-.757-.17,1.892,1.892,0,0,0-1.419,1.23,4.843,4.843,0,0,0-.416,2.195,3.519,3.519,0,0,0,2.043,3.349,1.457,1.457,0,0,0,1.249-.227C66.953,92.993,66.991,92.879,66.953,92.879Z" transform="translate(-61.427 -84.117)" fill="#7c4236"/>
        </g>
        <g id="Grupo_94204" data-name="Grupo 94204" transform="translate(2.711 10.155)">
          <path id="Trazado_191237" data-name="Trazado 191237" d="M65.662,90.683A1.551,1.551,0,0,0,65,93.692a1.589,1.589,0,0,0,1.892-.965,1.608,1.608,0,0,0-.851-1.892" transform="translate(-63.698 -90.676)" fill="#fff"/>
          <path id="Trazado_191238" data-name="Trazado 191238" d="M66.164,90.794a2.005,2.005,0,0,1,.738,1.022,1.406,1.406,0,1,1-2.743.549,1.286,1.286,0,0,1,.416-1.192,2.081,2.081,0,0,1,1.173-.492h-.359a1.57,1.57,0,0,0-.965.378,1.514,1.514,0,0,0-.586,1.419,1.7,1.7,0,0,0,1.211,1.457,1.741,1.741,0,0,0,1.892-.587,1.608,1.608,0,0,0,.265-1.532A1.722,1.722,0,0,0,66.58,91C66.3,90.794,66.164,90.775,66.164,90.794Z" transform="translate(-63.822 -90.673)" fill="#0b3360"/>
        </g>
      </g>
      <path id="Trazado_191239" data-name="Trazado 191239" d="M74.8,78.614a23.724,23.724,0,0,0-3.065-5.07A23.289,23.289,0,0,0,67.12,69.76a4.276,4.276,0,0,1,1.665.662,12.922,12.922,0,0,1,5.676,6.395A4.446,4.446,0,0,1,74.8,78.614Z" transform="translate(-46.926 -63.504)" fill="#375a64"/>
    </g>
    <g id="Grupo_94213" data-name="Grupo 94213" transform="translate(888.081 9514.087)">
      <path id="Trazado_191240" data-name="Trazado 191240" d="M196.126,87.41a5.939,5.939,0,0,1,.227.946c.114.643.359,1.551.53,2.762a64.039,64.039,0,0,1,.814,10.33,69.81,69.81,0,0,1-1.589,15.287,63.74,63.74,0,0,1-2.478,8.741,59.594,59.594,0,0,1-4.011,8.892,56.755,56.755,0,0,1-5.468,8.1,67.618,67.618,0,0,1-6.224,6.622,63.683,63.683,0,0,1-12.524,8.892,50.819,50.819,0,0,1-9.573,3.954c-1.173.378-2.119.549-2.743.7a5.222,5.222,0,0,1-.946.189,6.2,6.2,0,0,1,.927-.3c.605-.189,1.551-.378,2.686-.795a54.618,54.618,0,0,0,9.459-4.105,64.459,64.459,0,0,0,12.373-8.93,68.914,68.914,0,0,0,6.149-6.584,60.028,60.028,0,0,0,5.411-8.022,59.419,59.419,0,0,0,3.973-8.8,64.931,64.931,0,0,0,2.5-8.665,71.784,71.784,0,0,0,1.7-15.135,72.647,72.647,0,0,0-.643-10.292c-.132-1.211-.341-2.138-.416-2.781a6.037,6.037,0,0,1-.132-1Z" transform="translate(62.561 -34.029)" fill="#0b3360"/>
      <g id="Grupo_94209" data-name="Grupo 94209" transform="translate(6.17)">
        <path id="Trazado_191241" data-name="Trazado 191241" d="M240.512,98.066a36.18,36.18,0,1,1-.076.019ZM196.317,71.22A63.246,63.246,0,0,1,234.723,101.3,63.908,63.908,0,1,1,196.317,71.22Z" transform="translate(17.776 -56.453)" fill="#0b3360"/>
        <path id="Trazado_191242" data-name="Trazado 191242" d="M119.953,137.236a5.248,5.248,0,0,1-.284-.511l-.719-1.532c-.3-.681-.662-1.495-1-2.5s-.776-2.081-1.1-3.349c-.189-.643-.378-1.305-.568-2.005s-.3-1.419-.473-2.176c-.359-1.514-.549-3.159-.795-4.881a56.984,56.984,0,0,1,1.892-22.4c.549-1.665,1.022-3.254,1.627-4.673.3-.719.549-1.419.851-2.062s.624-1.268.908-1.892a35.435,35.435,0,0,1,1.684-3.122,21.156,21.156,0,0,1,1.419-2.27l.965-1.381c.208-.3.341-.473.359-.454a2.592,2.592,0,0,1-.265.53L123.586,84a24.6,24.6,0,0,0-1.343,2.308,34.266,34.266,0,0,0-1.589,3.141l-.851,1.892c-.3.643-.53,1.362-.814,2.062-.586,1.419-1.041,2.989-1.57,4.635a65.894,65.894,0,0,0-2.043,11.011,64.588,64.588,0,0,0,.095,11.2c.227,1.722.4,3.349.738,4.843.151.757.265,1.476.435,2.176s.359,1.343.511,1.892c.3,1.268.719,2.365,1.022,3.368a23.228,23.228,0,0,0,.908,2.5l.605,1.57a3.046,3.046,0,0,1,.265.643Z" transform="translate(22.948 -38.828)" fill="#0b3360"/>
        <path id="Trazado_191243" data-name="Trazado 191243" d="M124.361,119.231a4.633,4.633,0,0,1-2.289-1.343c-1.1-1-1.665-2.1-1.532-2.176s.889.795,1.892,1.759S124.436,119.1,124.361,119.231Z" transform="translate(28.19 -8.791)" fill="#0b3360"/>
        <g id="Grupo_94208" data-name="Grupo 94208">
          <g id="Grupo_94207" data-name="Grupo 94207" transform="translate(125.577)">
            <path id="Trazado_191244" data-name="Trazado 191244" d="M115.342,99.832a69.395,69.395,0,1,1,97,89.713h0a69.376,69.376,0,0,1-97-89.714Zm121.573,56.605A64.722,64.722,0,1,0,210.069,185.5a64.722,64.722,0,0,0,26.846-29.059Z" transform="translate(-107.799 -58.748)" fill="#375a64"/>
            <path id="Trazado_191245" data-name="Trazado 191245" d="M178.836,200.094a71.1,71.1,0,0,1-19.014-2.611A70,70,0,0,1,117.331,164.2a70.425,70.425,0,1,1,61.505,35.946Zm-.208-138.865a68.505,68.505,0,1,0,18.427,2.535,68.505,68.505,0,0,0-18.427-2.535Zm.208,134.211a65.895,65.895,0,1,1,59.576-38.084h0a65.932,65.932,0,0,1-59.576,38.084Zm-.208-129.557a63.681,63.681,0,1,0,57.759,90.527h0a63.719,63.719,0,0,0-57.778-90.527Z" transform="translate(-108.293 -59.194)" fill="#375a64"/>
          </g>
          <path id="Trazado_191246" data-name="Trazado 191246" d="M44.194,211.383l-1.249-1.892c-2.668-4.238.359-10.954,3.33-12.827l130.938-82.638c.662-.416,1.684,0,2.27.946l8.778,13.905c.586.946.549,2.043-.114,2.459l-130.2,82.089C55,215.3,46.88,215.621,44.194,211.383Z" transform="translate(-41.916 -10.434)" fill="#375a64"/>
        </g>
      </g>
      <g id="Grupo_94210" data-name="Grupo 94210" transform="translate(129.982 106.513)">
        <path id="Trazado_191247" data-name="Trazado 191247" d="M107.61,144.186l3.973-4.2s-.473-9.573,1.154-11.919l.87-1.4s-.851-4.673,1.646-5.676c.7-1.778,1.627-2.478,2.857-1.514,0,0-.7-3.5,2.573-3.973s4.219,14.378,4.219,14.378,1.627,6.659-2.119,6.659a8.457,8.457,0,0,1-4.427,2.573s-.7,3.973-3.973,3.784Z" transform="translate(-107.137 -115.494)" fill="#c17560"/>
        <path id="Trazado_191248" data-name="Trazado 191248" d="M118.03,127a1.317,1.317,0,0,1,.359.473,2.573,2.573,0,0,1,.189,1.646,3.651,3.651,0,0,1-1.211,2.138,7.72,7.72,0,0,1-2.611,1.419,19.051,19.051,0,0,1-5.2,1.041,6.848,6.848,0,0,1-2.195-.114,34.187,34.187,0,0,0,7.227-1.419,7.568,7.568,0,0,0,2.459-1.286,3.368,3.368,0,0,0,1.173-1.892A3.424,3.424,0,0,0,118.03,127Z" transform="translate(-107.36 -105.232)" fill="#7c4236"/>
        <path id="Trazado_191249" data-name="Trazado 191249" d="M115.775,130.359c-.151,0-.17-2.989-.87-6.565s-1.892-6.338-1.684-6.395a5.676,5.676,0,0,1,.87,1.759,27.509,27.509,0,0,1,1.324,4.541,26.7,26.7,0,0,1,.492,4.692,5.884,5.884,0,0,1-.132,1.968Z" transform="translate(-102.154 -113.794)" fill="#7c4236"/>
        <path id="Trazado_191250" data-name="Trazado 191250" d="M114.344,131.121c-.151,0-.435-2.895-1.173-6.414s-1.665-6.3-1.514-6.338A30.781,30.781,0,0,1,114.344,131.121Z" transform="translate(-103.542 -112.929)" fill="#7c4236"/>
        <path id="Trazado_191251" data-name="Trazado 191251" d="M116.287,125.05a2.049,2.049,0,0,1,.3,2.005c-.3,1.173-1.211,1.7-1.268,1.57a14.551,14.551,0,0,0,.757-1.7C116.325,125.939,116.154,125.107,116.287,125.05Z" transform="translate(-100.262 -106.971)" fill="#7c4236"/>
        <path id="Trazado_191252" data-name="Trazado 191252" d="M111.221,128.834a22.438,22.438,0,0,1-.3-3.632,19.278,19.278,0,0,1-.132-3.651,10.255,10.255,0,0,1,.662,3.614A9.194,9.194,0,0,1,111.221,128.834Z" transform="translate(-104.334 -110.093)" fill="#7c4236"/>
      </g>
      <g id="Grupo_94211" data-name="Grupo 94211" transform="translate(40.609 151.668)">
        <path id="Trazado_191253" data-name="Trazado 191253" d="M69.05,147.494a12.089,12.089,0,0,1,3.784-3.519c2.611-1.532,7.814-2.138,8.8-3.9s2.592,0,1.722,2.308a24.463,24.463,0,0,1-4.314,4.749,9.459,9.459,0,0,0,6.054.624c2.649-.946,11.465-1.892,12.146-.549s-1.495,1.551-2.535,1.892-6.868,2.005-6.868,2.005,11.143,1.665,12.43,2.441-.378,1.892-1.078,1.8a18.294,18.294,0,0,0-4.162,2.251,5.127,5.127,0,0,1-3.595.738l-2.592-.435,7.568,2.251s1.116,1.476-.87,1.778c-.889.132-25.181-.795-27.054-1.022-3.2-.4-8.362-.549-8.362-.549l3.973-14.492Z" transform="translate(-60.12 -139.362)" fill="#c17560"/>
        <path id="Trazado_191254" data-name="Trazado 191254" d="M86.125,147.967a17.386,17.386,0,0,1-5.562.624,17.6,17.6,0,0,1-5.543-.681c0-.151,2.5.151,5.562.151S86.106,147.815,86.125,147.967Z" transform="translate(-46.831 -131.775)" fill="#7c4236"/>
      </g>
      <path id="Trazado_191255" data-name="Trazado 191255" d="M68.991,164.607l11.124-22.93L70.3,111.88a19.808,19.808,0,0,0-7.4,6.432c-3.519,4.749-7.3,14.851-7.3,14.851S43.47,160.918,41.483,165.08s-5.222,11.824,0,16.119,40.108,4.427,40.108,4.427l3.784-15.438Z" transform="translate(-38.655 -12.205)" fill="#71d9e7"/>
      <path id="Trazado_191256" data-name="Trazado 191256" d="M55.383,120.12c.151,0,2.762,7.7,5.808,17.311s5.411,17.462,5.259,17.5-2.743-7.7-5.808-17.33S55.232,120.158,55.383,120.12Z" transform="translate(-23.742 -4.855)" fill="#0b3360"/>
      <path id="Trazado_191257" data-name="Trazado 191257" d="M78.615,145.9a5.353,5.353,0,0,1-1.305-.284L73.847,144.6c-2.914-.832-6.943-2.043-11.351-3.216a46.238,46.238,0,0,0-11.6-1.892,15.59,15.59,0,0,0-4.749.946,4.578,4.578,0,0,1,1.173-.624,11.749,11.749,0,0,1,3.557-.719,40.751,40.751,0,0,1,11.768,1.8c4.5,1.173,8.495,2.441,11.351,3.386,1.457.454,2.611.851,3.424,1.135A6.843,6.843,0,0,1,78.615,145.9Z" transform="translate(-31.971 12.064)" fill="#0b3360"/>
      <g id="Grupo_94212" data-name="Grupo 94212" transform="translate(34.109 122.851)" opacity="0.3">
        <path id="Trazado_191258" data-name="Trazado 191258" d="M56.752,124.13a112.984,112.984,0,0,0,1,19.411l3.122-6.281a95.22,95.22,0,0,0-3.954-12.732" transform="translate(-56.684 -124.13)"/>
      </g>
    </g>
    <g id="Grupo_94215" data-name="Grupo 94215" transform="translate(1054.406 9543.705)">
      <rect id="Rectángulo_39811" data-name="Rectángulo 39811" width="14.454" height="52.084" transform="translate(48.376 17.897)" fill="#71d9e7"/>
      <g id="Grupo_94214" data-name="Grupo 94214" transform="translate(0)">
        <rect id="Rectángulo_39812" data-name="Rectángulo 39812" width="14.454" height="23.649" transform="translate(3.084 48.546)" fill="#71d9e7"/>
        <rect id="Rectángulo_39813" data-name="Rectángulo 39813" width="14.454" height="36.495" transform="translate(25.427 35.681)" fill="#71d9e7"/>
        <path id="Trazado_191259" data-name="Trazado 191259" d="M184.14,75.211a3.065,3.065,0,0,1-.341.454l-1.078,1.268c-1,1.135-2.365,2.724-4.086,4.673-3.538,4.011-8.476,9.573-14.17,15.986l-.151.17-.208-.132-8.949-5.789h.378l-.341.4-18.768,22-.113.151-.151-.114-7.057-5.241-1.892-1.457a3.214,3.214,0,0,1-.643-.53,5.05,5.05,0,0,1,.7.435l1.892,1.362,7.151,5.089h-.265l18.692-22.1.341-.4.17-.189.208.132,8.854,5.827h-.359l14.341-15.835,4.2-4.578,1.135-1.192C183.894,75.324,184.027,75.192,184.14,75.211Z" transform="translate(-126.57 -74.53)" fill="#0b3360"/>
        <path id="Trazado_191260" data-name="Trazado 191260" d="M162.711,86.485a18.918,18.918,0,0,1-.189-3.33c0-2.043-.095-4.9-.095-8.059l.341.284h-.3c-3.178.53-6.054.965-8.154,1.268a18.069,18.069,0,0,1-3.311.378,20.809,20.809,0,0,1,3.349-.757c2.062-.4,4.938-.889,8.135-1.419h.605v8.343A19.8,19.8,0,0,1,162.711,86.485Z" transform="translate(-104.781 -74.85)" fill="#0b3360"/>
      </g>
    </g>
  </g>
</svg>
