<?xml version="1.0" encoding="utf-8"?>
<!-- Generator: Adobe Illustrator 26.0.3, SVG Export Plug-In . SVG Version: 6.00 Build 0)  -->
<svg version="1.1" id="Layer_1" xmlns="http://www.w3.org/2000/svg" xmlns:xlink="http://www.w3.org/1999/xlink" x="0px" y="0px"
	 viewBox="0 0 1240 600" style="enable-background:new 0 0 1240 600;" xml:space="preserve">
<style type="text/css">
	.st0{fill:#EDFFFF;}
	.st1{fill:#12263F;}
	.st2{fill:#F2B997;}
	.st3{fill:#DF1C24;}
	.st4{opacity:0.5;fill:#12263F;enable-background:new    ;}
	.st5{fill:#EC777C;}
	.st6{fill:url(#Trazado_172214_00000162332698931366802420000011114683253742706345_);}
	.st7{fill:#D1DCEB;}
	.st8{opacity:0.7;fill:#F7D2AB;enable-background:new    ;}
	.st9{fill:#2E142D;}
	.st10{fill:#BA8A7E;}
	.st11{fill:#7395CB;}
	.st12{fill:#93B3D8;}
	.st13{fill:#674328;}
	.st14{fill:#FFFFFF;}
	.st15{fill:#C25257;}
	.st16{fill:#175186;}
	.st17{fill:#104C82;}
	.st18{fill:#235A8C;}
	.st19{fill:#1C5588;}
	.st20{fill:#2F6392;}
	.st21{fill:#285E8E;}
	.st22{fill:#36DAC9;}
</style>
<g id="Grupo_94267" transform="translate(-180 -2799)">
	<path id="Trazado_191508" class="st0" d="M180,2799h1240v600H180V2799z"/>
	<path id="Trazado_172205" class="st1" d="M401.7,2951.2c3.6-40.2-17.5-44.9-17.5-44.9l1.3,58.3l-2.8,9.7l-24.9,86.5
		c37.1,13.1,30.7-30.6,30.7-30.6l6.6-59.9c0.2-0.4,0.4-0.7,0.5-1.1c1.2-2.6,2.5-5.4,3.8-8c2.3-4.8,4.2-8.8,4.2-8.8L401.7,2951.2z"/>
	<path id="Trazado_172206" class="st2" d="M467.3,3156.2l-5.6,43.8c0,3.6,3.5,6.9,6.4,9c2,1.4,4.1,2.5,6.4,3.4l2.3,5.7h-6.3
		c0,0-24.8,3.2-20.1-12.9c1.4-4.7,1.8-49,1.8-49L467.3,3156.2z"/>
	<path id="Trazado_172207" class="st3" d="M450.4,3205.2c0,0-5.4,7.9-5,17.3h47.3c1,0,1.9-0.7,2.2-1.7c0.3-1-0.2-2.1-1.1-2.6
		c-1.6-0.9-3.9-1.4-7.3-0.7c-1,0.2-2.1,0.1-3.1-0.4l-9-4.6l-1.8,2.9L450.4,3205.2z"/>
	<path id="Trazado_172208" class="st1" d="M482.9,3066.7c-0.1,1.6-0.3,3.1-0.4,4.6c-1.4,11.3-2.3,22.5-3,33.5
		c-1.3,25.9-1.2,51.9,0.4,77.8c0.2,4.2,0.5,8.3,0.8,12.4c-14.4,4.8-30-6.8-35.9-9c1-31.7,9-89.1,11.7-108.2l-89.9-0.2l10.2-37.2
		l1.4-5.3l75.2,13.1l11.6,1.3c8.8-1.1,16.7,5.2,17.8,13.9C483,3064.5,483,3065.6,482.9,3066.7L482.9,3066.7z"/>
	<path id="Trazado_172209" class="st4" d="M480.7,3195c-14.4,4.8-30-6.8-35.9-9c1-31.7,9-89.1,11.7-108.2l-89.9-0.2l9.8-38.7l0.8-2
		l1,9.7c0.9,8.4,8.5,14.5,17,13.6c0.5-0.1,1-0.1,1.5-0.2l61.5,11.8l9-5.3l-6.1,10c0,0-23.7,104.4,18.8,106.2
		C480.1,3186.8,480.4,3190.9,480.7,3195z"/>
	<path id="Trazado_172210" class="st5" d="M352,2886c0.3,0.6,0.5,0.9,0.5,0.9c2.4-0.2,4.5-0.5,6.5-0.9c10.2-2,14-5.5,14-5.5l2.6-0.7
		l3.9-1.1l21.9-3.5c2.1,1.3,4.8,0.6,6.1-1.5c1.1-1.8,0.8-4.1-0.8-5.5c1-0.7,1.6-1.8,1.7-3c0.9-4.9-8.6-13.4-14.8-16.8l-0.9-0.5
		c-21.3-10.9-33.8,4.3-33.8,4.3l-0.5,0.2c-0.4,0-0.8,0-1.2,0c-4.6,0.5-8,4.7-7.4,9.4c0.2,1.7,0.9,3.3,2.1,4.6
		C345.6,2872.5,350.4,2882.9,352,2886z"/>
	<path id="Trazado_172211" class="st2" d="M348.4,3241.8l-5.7,43.8c0,3.6,3.6,6.9,6.4,9c2,1.4,4.1,2.5,6.3,3.4l2.3,5.7h-6.3
		c0,0-24.8,3.2-20.1-12.9c1.4-4.7,1.8-49,1.8-49L348.4,3241.8z"/>
	<path id="Trazado_172212" class="st3" d="M331.4,3290.8c0,0-5.3,7.9-5,17.3h47.3c1,0,1.9-0.7,2.2-1.7c0.3-1-0.2-2.1-1.1-2.6
		c-1.6-0.9-3.9-1.4-7.3-0.7c-1,0.2-2.1,0-3.1-0.4l-9-4.6l-1.8,2.9L331.4,3290.8z"/>
	<path id="Trazado_172213" class="st5" d="M382.8,2885.6l17.2-1.6c0,0,0.1,18.8,4.2,36c0.5,2.3,1.5,4.5,2.9,6.5
		c2.3,3.3,4.9,6.4,7.6,9.4c5.3,5.8,4.8,14.8-1,20c-3.4,3.1-8.1,4.3-12.6,3.3C386.4,2956.3,365.1,2921.4,382.8,2885.6z"/>
	
		<linearGradient id="Trazado_172214_00000117638616034284732130000010769522417995040180_" gradientUnits="userSpaceOnUse" x1="119.2716" y1="3496.1936" x2="119.2716" y2="3496.9746" gradientTransform="matrix(80.3505 0 0 -139.8823 -9216.5869 490162.4688)">
		<stop  offset="1.000000e-02" style="stop-color:#DFF2F8"/>
		<stop  offset="9.000000e-02" style="stop-color:#E9F6FA"/>
		<stop  offset="0.27" style="stop-color:#F5FBFD"/>
		<stop  offset="0.5" style="stop-color:#FDFEFF"/>
		<stop  offset="1" style="stop-color:#FFFFFF"/>
	</linearGradient>
	<path id="Trazado_172214" style="fill:url(#Trazado_172214_00000117638616034284732130000010769522417995040180_);" d="M400,2933.7
		c-3.6-6.6-5.4-10.1-7.2-15.8c-2.6-8.2-8.6-13.3-15.6-16.9c-5.5-2.8-10.8-5.8-11.8-5.5c-0.1,0-42.1,10.5-34.2,70.8
		c2.6,7.7,3.3,19.9,3.8,27.6c0.4,5.4-0.6,9.7-1,15.1c-0.3,3.2-3.9,11.2-7.2,13l0,0c10.5,7.9,27.7,15.1,51.5,13.1
		c2.6-21.6,1.6-22.7,9.8-41.6c3.6-8.4,5.5-17.4,5.9-26.5c1.1-0.5,2.2-1.1,3.3-1.7l0.2-0.1c4.4-3.1,8.3-7.2,9.3-10.6
		C408.7,2947.2,402.4,2938.2,400,2933.7z"/>
	<path id="Trazado_172215" class="st2" d="M365.3,2895.5c0,0,20.8,22.7,23.3,52.1c0,0,6.4-14.2-4.4-41.3L365.3,2895.5z"/>
	<path id="Trazado_172216" class="st1" d="M322.7,3035.3c0-4.7,1.4-9.4,4-13.3C324,3025.9,322.6,3030.5,322.7,3035.3z"/>
	<path id="Trazado_172217" class="st7" d="M359.4,3030.1c6.9-10,12.2-22,15.8-33.5c1.2-4,2.2-8,2.9-12.1c0.1-0.7,0.1-3.7,0.7-4.2
		l-52.2,41.7l32.6,8.1L359.4,3030.1z"/>
	<path id="Trazado_172218" class="st1" d="M364.1,3162.4c-4.7,38.7-4.6,76-2.6,111.3c0.2,4.2,0.5,8.3,0.8,12.4
		c-14.4,4.8-30-6.8-35.9-9c1.2-38.4,12.6-114.6,12.6-114.6c1.2-8.1-0.5-54-2.6-78.4c-0.4-4.6-0.8-8.4-1.2-11.1
		c-0.1-0.7-0.2-1.4-0.4-2.1c-0.1-0.3-0.1-0.5-0.2-0.8c-0.1-0.6-0.4-1.3-0.5-1.9c-0.2-0.6-0.3-1.1-0.5-1.6c-0.1-0.2-0.1-0.4-0.2-0.5
		c-0.1-0.4-0.3-0.8-0.4-1.2c-2.4-6.4-5.9-12.7-8.1-19c-0.3-0.9-0.6-1.7-0.8-2.6l-0.4-1.3c-0.1-0.4-0.2-0.9-0.3-1.3
		c-0.1-0.4-0.2-0.9-0.2-1.3s-0.1-0.9-0.2-1.3c-0.1-0.4-0.1-0.9-0.1-1.3c-0.1-0.4-0.1-0.9-0.1-1.3v0c0-4.7,1.4-9.3,4-13.3l32.6,8.1
		h0.2l18.8,4.9C378.2,3035.1,368.9,3106,364.1,3162.4z"/>
	<path id="Trazado_172219" class="st4" d="M362.3,3286.1c-14.4,4.8-30-6.8-35.9-9c1.2-38.4,12.6-114.6,12.6-114.6
		c1.2-8.1-0.5-54-2.6-78.4c-0.4-4.6-0.8-8.4-1.2-11.1c-0.1-0.7-0.2-1.4-0.4-2.1c-0.1-0.3-0.1-0.5-0.2-0.8c-0.1-0.6-0.4-1.3-0.5-1.9
		c-0.2-0.6-0.3-1.1-0.5-1.6c-0.1-0.2-0.1-0.4-0.2-0.5c-0.1-0.4-0.3-0.8-0.4-1.2c-2.4-6.4-5.9-12.7-8.1-19c-0.3-0.9-0.6-1.7-0.8-2.6
		l-0.4-1.3c-0.1-0.4-0.2-0.9-0.3-1.3c-0.1-0.4-0.2-0.9-0.2-1.3s-0.1-0.9-0.2-1.3c-0.1-0.4-0.1-0.9-0.1-1.3c-0.1-0.4-0.1-0.9-0.1-1.3
		v0c0-4.7,1.4-9.3,4-13.3l32.6,8.1h0.2c0,0.1-0.1,0.2-0.2,0.3c-0.4,0.5-0.7,1-1.1,1.5c-2.9,4.2-6.3,8.1-10.1,11.6
		c-6.9,5.9-10.1,15.1-8.2,23.9c3.7,17.4,8,48.8,5.3,93.3h9.2l-9.2,5.5c0,0-22.5,98,16.4,107.4C361.7,3277.9,362,3282,362.3,3286.1z"
		/>
	<path id="Trazado_172220" class="st1" d="M350.4,3032.2c-0.9,1.2-1.9,2.3-2.9,3.4c-6.9,6.4-15.7,8.7-24.4,9.2H303v-10.3l0,0
		c0.1-2.8,1-5.6,2.5-7.9c2.3-3.5,5.9-6,9.9-8.3c3.6-2.1,7.5-4.1,10.8-6.5l0,0c0.6-0.4,1.1-0.8,1.6-1.2c0.4-0.3,0.7-0.6,1.1-1
		c0.6-0.5,1.1-1.1,1.6-1.7c0.4-0.5,0.7-1,1.1-1.5c0.3-0.5,0.6-0.9,0.8-1.4c0.1-0.2,0.2-0.5,0.3-0.8c0-0.1,0.1-0.2,0.1-0.3
		c0.1-0.3,0.2-0.6,0.3-0.9c0.2-0.6,0.3-1.3,0.5-1.9c0-0.3,0.1-0.5,0.1-0.8c0.1-0.5,0.1-0.9,0.1-1.4c0.4-10.2-0.9-17.9-2.6-27.8
		c-0.4-2.2-0.7-4.4-0.9-6.5c-4.6-37.8,8.4-63.7,35.1-69.4c-2.2,0.5-5,7-5.5,8.8c-2.3,8.5,9,12.2,14.6,15.7c2.5,1.5,4.3,3.9,5.1,6.7
		C391.4,2965.3,374.5,3001.9,350.4,3032.2z"/>
	<path id="Trazado_172221" class="st2" d="M393.3,2886.6l-1.5,5.3l-2.5,8.9l-4.3,15.5l-18.8-19.9l4.5-16.2l7.7-3.2L393.3,2886.6z"/>
	<path id="Trazado_172222" class="st8" d="M391.8,2891.9l-2.5,8.9l-0.3-6.2c-3.2-2.8-3.5-5.5-3.5-5.5L391.8,2891.9z"/>
	<path id="Trazado_172223" class="st2" d="M388.2,2855.1c0.6-0.4,1.3-0.4,1.9,0.1l4.6,3.7c2,1.8,3.1,4.3,3.2,6.9v0.2
		c0,0.8,0.4,1.6,1,2.1l6.8,5.3c0.3,0.3,0.6,0.7,0.6,1.1c0,0.4-0.1,0.9-0.5,1.1l-2.3,2.1l-0.3,1.4c0.2,0,0.5,0,0.7,0.1
		c0.7,0.4,1,1.3,0.6,2c-0.2,0.4-0.6,0.7-1,0.7c0.5,0.5,0.6,1.2,0.3,1.8c-0.3,0.6-1.1,0.9-1.7,0.6c0,0-0.1,0-0.1-0.1l-0.5,2.2
		c0,0,0.2,0.9,0.4,2.2c0.2,1.1,0,2.3-0.7,3.3c0,0-1.9,4-9.8,1.3l-7.3-1.9c-3.4-1.3-5.7-4.3-6.1-7.9c-0.1-0.8-0.6-1.6-1.2-2.1
		c-2.2-1.7-3.6-5.9-3.6-5.9l7.6-1.6c0.7,1.2,1.3,2.6,1.8,3.9l2.4-1.4C384.9,2876.2,380.2,2860.7,388.2,2855.1z"/>
	<path id="Trazado_172224" class="st9" d="M393.2,2872.6l3.5-0.9c1-0.5,0.8-1.5,0.2-1.8c-0.2-0.1-0.4-0.1-0.5,0L393.2,2872.6z"/>
	<path id="Trazado_172225" class="st4" d="M355.8,2956.7l-12.9,21.1c-0.4,0.7,0.7,4.2,0.7,5c0.4,4.1,0.2,8.3-0.5,12.3
		c-3.7,19.5-32.5,25.9-23.2,49.7H303v-10.3c0.1-2.8,1-5.6,2.5-7.9c2.3-3.5,5.9-6,9.9-8.3c3.6-2.1,7.5-4.1,10.8-6.5
		c0.5-0.4,1.1-0.8,1.5-1.2c0.4-0.3,0.7-0.6,1.1-1c0.6-0.5,1.1-1.1,1.6-1.7c0.4-0.5,0.7-1,1.1-1.5c0.3-0.5,0.6-0.9,0.8-1.4
		c0.1-0.2,0.2-0.5,0.3-0.8c0-0.1,0.1-0.2,0.2-0.3c0.1-0.3,0.2-0.6,0.3-0.9c0.2-0.6,0.3-1.3,0.5-1.9c0.1-0.2,0.1-0.5,0.1-0.8
		c0.1-0.5,0.1-0.9,0.1-1.4c0.4-10.2-0.9-17.9-2.5-27.8c-0.4-2.2-0.7-4.4-0.9-6.5l32.2-46.9C362.4,2917.9,376,2928.6,355.8,2956.7z"
		/>
	<path id="Trazado_172226" class="st10" d="M333.3,3088l0.9-9c0.4-3.8-2.4-7.2-6.2-7.6c0,0,0,0,0,0l-15.7-1.6
		c-3.8-0.4-7.2,2.4-7.6,6.2l-0.9,9l3.7,0.4l0.9-9c0.2-1.7,1.7-3,3.5-2.8c0,0,0,0,0,0l15.7,1.6c0.8,0.1,1.6,0.5,2.1,1.2
		c0.5,0.7,0.8,1.5,0.7,2.3l-0.9,9L333.3,3088z"/>
	<path id="Trazado_172227" class="st11" d="M369.9,3118.1l-4.2,41.9c-0.4,4.2-4.2,7.3-8.4,6.9l-88.8-9.1c-4.2-0.4-7.2-4.1-6.8-8.3
		l4.3-42L369.9,3118.1z"/>
	<path id="Trazado_172228" class="st12" d="M268.1,3084.8c0.4-4.2,4.1-7.3,8.3-6.9l88.9,9.1c4.2,0.4,7.3,4.1,6.9,8.3l-2.3,22.7
		l-104-10.6L268.1,3084.8z"/>
	<path id="Trazado_172229" class="st13" d="M310.7,3113.8c-0.3,3.1,1.9,5.9,5.1,6.2s5.9-1.9,6.2-5.1l0,0l0.6-6.1
		c0.3-3.1-1.9-5.9-5-6.3s-5.9,1.9-6.3,5c0,0,0,0.1,0,0.1L310.7,3113.8z"/>
	<path id="Trazado_172230" class="st13" d="M312,3113.9c-0.3,3.1,1.9,5.9,5,6.3c3.1,0.3,5.9-1.9,6.3-5c0,0,0-0.1,0-0.1l0.6-6.1
		c0.3-3.1-2-5.9-5.1-6.2c-3.1-0.3-5.8,2-6.2,5L312,3113.9z"/>
	<path id="Trazado_172231" class="st14" d="M316,3109.4c-0.1,1.2,0.7,2.2,1.9,2.3s2.2-0.7,2.3-1.9c0.1-1.2-0.7-2.2-1.9-2.3
		c-0.6-0.1-1.1,0.1-1.5,0.5C316.3,3108.3,316.1,3108.8,316,3109.4z"/>
	<path id="Trazado_172232" class="st14" d="M317.1,3110.8l1.7,0.2l-0.4,3.6c0,0.5-0.5,0.8-0.9,0.8c0,0,0,0-0.1,0
		c-0.2,0-0.4-0.1-0.6-0.3c-0.2-0.2-0.2-0.4-0.2-0.6L317.1,3110.8z"/>
	<path id="Trazado_172233" class="st2" d="M381.3,2882.4c-0.8,0.8-2.1,0.9-3,0.1c-3.2-2.9-6.9-5.8-4.7-9.8c0.7-1.2,1.9-2,3.3-2.1
		c0.6,0,1.1,0.1,1.6,0.3c1.2,0.5,2.2,1.4,2.7,2.6l1.1,2.8c0.8,2,0.5,4.3-0.9,6l0,0L381.3,2882.4z"/>
	<path id="Trazado_172234" class="st2" d="M327.3,3072.1c0.3,0.9,0.6,1.8,0.7,2.7c0.3,1-0.4,2.1-1.4,2.3c-0.2,0.1-0.4,0.1-0.6,0.1
		c-0.6,0-1.1-0.3-1.4-0.8c-0.5,0.7-1.3,1.2-2.1,1.2c-0.7,0-1.3-0.8-2-2c-0.1,0.4-0.4,0.7-0.7,1c-0.8,0.6-2.3,0.1-2.9-1.2
		c-0.6,1-1.8,1.3-2.8,0.8c-0.8-0.5-1.1-2.5-1.6-3.9c-0.5-1.4-0.9-2.9-1.2-4.3c-0.3-1.8,0.6-6.1,0.8-9.1l0,0
		c-0.4-2.7-2.7-23.2-4.4-39.8c-0.7-6.4-1.3-12.2-1.7-16.1c3.8-2.4,9.4-4.4,15.2-0.3v3.2c0,15.1-0.1,43.6,0,53.1
		c0.8,0.8,1.7,1.5,2.7,2.1c0.8,0.5,1.8,1.2,2.7,1.8c0.8,0.4,1.4,1.1,1.8,1.9c0.3,1.1,1.3,5.1,1.2,6.5
		C329.7,3071.8,328.1,3073.9,327.3,3072.1z"/>
	<path id="Trazado_172235" class="st1" d="M361.9,2931.3c3-4.4,3.7-9.9,1.8-14.9c-1.9-5-4.2-7-9.4-8.2c-7.4-1.7-15,2.2-17.9,9.2
		l-30.4,73.2c-0.6,2.2-0.8,4.5-0.4,6.8c0,0,0.2,2.1,0.6,5.5c3.8-2.4,9.4-4.4,15.2-0.3v-6.4L361.9,2931.3z"/>
	<path id="Trazado_172236" class="st5" d="M362.5,2959.9c4.1-0.5,7.9-2.1,11-4.8c4.2,2.3,9.6,0.8,11.9-3.5c0.9-1.6,1.2-3.4,1-5.3
		l-1.5-13.2c5-14.7,6.5-33.1-9.2-53.4c-1.5-1.9-3.2-3.9-5-5.9l-12.3,5.3l-7.8,3.4c0.6,1.1,1.1,2.2,1.5,3.4c2.8,7,7.3,23.3-4.8,34.4
		c-3.7,3.2-6.3,7.5-7.4,12.2c-0.9,2.3-1.2,4.8-0.9,7.2c0.1,1.2,0.4,2.4,0.9,3.6C342,2954,351.8,2961.1,362.5,2959.9L362.5,2959.9z"
		/>
	<path id="Trazado_172237" class="st15" d="M362.5,2959.9c1.8-0.2,3.7-0.7,5.4-1.4c-22.8-8.4-10.3-31.4-10.3-31.4
		c14.6-24.3,4.3-23.7,1.5-41.1c-0.4-2.3-0.6-4.5-0.6-6.8c0-1.3-0.1-2.7,0-4.2c0.8-29.6,25.9-28.5,34.6-27.2
		c-21.3-10.9-33.8,4.3-33.8,4.3l-0.5,0.2c-0.4,0-0.8,0-1.2,0c-4.6,0.5-8,4.7-7.4,9.4c0.2,1.7,0.9,3.3,2.1,4.6
		c-6.4,6.2-1.6,16.6,0.1,19.7c2.8,7,7.3,23.3-4.8,34.4c-3.7,3.2-6.3,7.5-7.4,12.2c-0.9,2.3-1.2,4.8-0.9,7.2c0.1,1.2,0.4,2.4,0.9,3.6
		C342,2954,351.8,2961.1,362.5,2959.9L362.5,2959.9z"/>
	<path id="Trazado_172238" class="st8" d="M321.4,3002.5v3.2c-4.2-0.4-12,0.7-13.5,13.3c-0.7-6.4-1.3-12.2-1.7-16.1
		C309.9,3000.5,315.6,2998.4,321.4,3002.5z"/>
	<path id="Trazado_191509" class="st16" d="M428.2,3222.1h175.4V3394H428.2V3222.1z"/>
	<path id="Trazado_191510" class="st17" d="M252.8,3308.1h175.4v85.8H252.8V3308.1z"/>
	<path id="Trazado_191511" class="st18" d="M778.9,3049.4h175.4V3394H778.9V3049.4z"/>
	<path id="Trazado_191512" class="st19" d="M603.5,3135.4h175.4V3394H603.5V3135.4z"/>
	<path id="Trazado_191513" class="st20" d="M1129.6,2877.9h217.6v516h-217.6V2877.9z"/>
	<path id="Trazado_191514" class="st21" d="M954.3,2963.9h175.4v430H954.3V2963.9z"/>
	<path id="Trazado_191515" class="st14" d="M324.9,3335.5h-1.8l-6.5-10c-0.2-0.2-0.3-0.5-0.4-0.8h-0.1c0.1,0.6,0.1,1.2,0.1,1.7v9.1
		h-1.5v-12.6h1.9l6.3,9.9c0.3,0.4,0.4,0.7,0.5,0.8h0c-0.1-0.6-0.1-1.2-0.1-1.9v-8.9h1.5V3335.5z M328.8,3324.2
		c-0.2,0-0.5-0.1-0.7-0.3c-0.2-0.2-0.3-0.4-0.3-0.7c0-0.3,0.1-0.5,0.3-0.7c0.2-0.2,0.4-0.3,0.7-0.3c0.3,0,0.5,0.1,0.7,0.3
		c0.2,0.2,0.3,0.4,0.3,0.7c0,0.2-0.1,0.5-0.3,0.7C329.3,3324.1,329,3324.2,328.8,3324.2L328.8,3324.2z M329.5,3335.5h-1.4v-9h1.4
		V3335.5z M339.5,3326.5l-3.6,9h-1.4l-3.4-9h1.6l2.3,6.5c0.2,0.4,0.3,0.8,0.3,1.3h0c0.1-0.4,0.1-0.8,0.3-1.2l2.4-6.6H339.5z
		 M348.1,3331.3h-6.4c0,0.8,0.3,1.7,0.8,2.3c0.6,0.6,1.3,0.9,2.1,0.8c1,0,2-0.4,2.8-1v1.4c-0.9,0.6-2,0.9-3.1,0.9
		c-1.1,0.1-2.2-0.4-3-1.2c-0.8-1-1.2-2.2-1.1-3.5c-0.1-1.3,0.4-2.5,1.2-3.4c0.7-0.9,1.8-1.3,3-1.3c1-0.1,2,0.4,2.7,1.1
		c0.7,0.9,1,2,1,3.2L348.1,3331.3z M346.6,3330.1c0-0.7-0.2-1.4-0.6-1.9c-0.4-0.5-1-0.7-1.6-0.7c-0.7,0-1.3,0.3-1.7,0.7
		c-0.5,0.5-0.8,1.2-0.9,1.9L346.6,3330.1z M351.7,3335.5h-1.4v-13.3h1.4V3335.5z M367.2,3335.5h-1.4v-1.5h0
		c-0.6,1.1-1.8,1.8-3.1,1.7c-1,0-2-0.4-2.7-1.2c-0.7-0.9-1.1-2.1-1-3.3c-0.1-1.3,0.3-2.6,1.1-3.6c0.7-0.9,1.8-1.4,3-1.3
		c1.1-0.1,2.2,0.5,2.7,1.5h0v-5.6h1.4V3335.5z M365.8,3331.4v-1.3c0-0.7-0.2-1.4-0.7-1.8c-0.5-0.5-1.1-0.8-1.8-0.8
		c-0.8,0-1.6,0.3-2.1,1c-0.5,0.8-0.8,1.7-0.8,2.7c-0.1,0.9,0.2,1.7,0.7,2.5c0.5,0.6,1.2,0.9,1.9,0.9c0.8,0,1.5-0.3,2-0.9
		C365.6,3333,365.8,3332.2,365.8,3331.4z M377.4,3331.3H371c0,0.8,0.3,1.7,0.8,2.3c0.6,0.6,1.3,0.9,2.1,0.8c1,0,2-0.4,2.8-1v1.4
		c-0.9,0.6-2,0.9-3.1,0.9c-1.1,0.1-2.2-0.4-3-1.2c-0.8-1-1.2-2.2-1.1-3.5c-0.1-1.3,0.4-2.5,1.2-3.4c0.7-0.9,1.8-1.3,3-1.3
		c1-0.1,2,0.4,2.7,1.1c0.7,0.9,1,2,1,3.2L377.4,3331.3z M375.9,3330.1c0-0.7-0.2-1.4-0.6-1.9c-0.4-0.5-1-0.7-1.6-0.7
		c-0.7,0-1.3,0.3-1.7,0.7c-0.5,0.5-0.8,1.2-0.9,1.9L375.9,3330.1z M320.7,3356.7c-0.7,0.4-1.6,0.6-2.5,0.6c-1.2,0-2.3-0.4-3.1-1.3
		c-0.8-0.9-1.2-2.1-1.2-3.2c-0.1-1.3,0.4-2.6,1.3-3.6c0.9-0.9,2.1-1.4,3.4-1.3c0.7,0,1.4,0.1,2.1,0.4v1.5c-0.6-0.5-1.4-0.7-2.1-0.7
		c-0.9,0-1.7,0.3-2.3,1c-0.6,0.7-0.9,1.7-0.9,2.6c-0.1,0.9,0.2,1.8,0.8,2.5c0.6,0.6,1.4,1,2.2,0.9c0.8,0,1.6-0.3,2.2-0.8
		L320.7,3356.7z M329.3,3357.1h-1.4v-1.4h0c-0.5,1-1.6,1.7-2.8,1.6c-0.8,0-1.5-0.2-2.1-0.7c-0.5-0.5-0.8-1.2-0.8-1.9
		c0-1.7,1-2.7,3-2.9l2.7-0.4c0-1.5-0.6-2.3-1.9-2.3c-1.1,0-2.1,0.4-2.9,1.1v-1.5c0.9-0.6,2-0.9,3.1-0.8c2.1,0,3.2,1.1,3.2,3.4
		L329.3,3357.1z M327.9,3352.5l-2.2,0.3c-0.5,0-1.1,0.2-1.5,0.5c-0.4,0.3-0.6,0.8-0.5,1.3c0,0.4,0.2,0.8,0.5,1.1
		c0.3,0.3,0.8,0.4,1.2,0.4c0.7,0,1.3-0.3,1.8-0.8c0.5-0.5,0.7-1.2,0.7-1.9L327.9,3352.5z M333.5,3355.8L333.5,3355.8l0,5.4h-1.4
		v-13.1h1.4v1.6h0c0.6-1.1,1.8-1.8,3.1-1.8c1-0.1,2.1,0.4,2.7,1.2c0.7,0.9,1,2.1,1,3.2c0.1,1.3-0.3,2.6-1.1,3.6
		c-0.7,0.9-1.8,1.4-3,1.4C335.1,3357.3,334.1,3356.7,333.5,3355.8z M333.5,3352.1v1.3c0,0.7,0.2,1.4,0.7,1.9c1,1,2.6,1,3.7,0
		c0.1-0.1,0.2-0.2,0.2-0.3c0.5-0.8,0.8-1.8,0.7-2.8c0-0.8-0.2-1.7-0.7-2.4c-0.5-0.6-1.2-0.9-1.9-0.9c-0.8,0-1.5,0.3-2,0.9
		C333.8,3350.6,333.5,3351.3,333.5,3352.1L333.5,3352.1z M349.1,3357.1h-1.4v-1.4h0c-0.5,1-1.6,1.7-2.8,1.6c-0.8,0-1.5-0.2-2.1-0.7
		c-0.5-0.5-0.8-1.2-0.8-1.9c0-1.7,1-2.7,3-2.9l2.7-0.4c0-1.5-0.6-2.3-1.9-2.3c-1.1,0-2.1,0.4-2.9,1.1v-1.5c0.9-0.6,2-0.9,3.1-0.8
		c2.1,0,3.2,1.1,3.2,3.4L349.1,3357.1z M347.6,3352.5l-2.2,0.3c-0.5,0-1.1,0.2-1.5,0.5c-0.4,0.3-0.6,0.8-0.5,1.3
		c0,0.4,0.2,0.8,0.5,1.1c0.4,0.3,0.8,0.4,1.3,0.4c0.7,0,1.3-0.3,1.8-0.8c0.5-0.5,0.7-1.2,0.7-1.9V3352.5z M357.9,3356.7
		c-0.7,0.4-1.6,0.6-2.5,0.6c-1.2,0-2.3-0.4-3.1-1.3c-0.8-0.9-1.2-2.1-1.2-3.2c-0.1-1.3,0.4-2.6,1.3-3.6c0.9-0.9,2.1-1.4,3.4-1.3
		c0.7,0,1.4,0.1,2.1,0.4v1.5c-0.6-0.5-1.4-0.7-2.1-0.7c-0.9,0-1.7,0.3-2.3,1c-0.6,0.7-0.9,1.7-0.9,2.6c-0.1,0.9,0.2,1.8,0.8,2.5
		c0.6,0.6,1.4,1,2.2,0.9c0.8,0,1.6-0.3,2.2-0.8L357.9,3356.7z M360.9,3345.8c-0.2,0-0.5-0.1-0.7-0.3c-0.2-0.2-0.3-0.4-0.3-0.7
		c0-0.5,0.4-0.9,0.9-0.9c0,0,0,0,0,0c0.3,0,0.5,0.1,0.7,0.3c0.4,0.4,0.4,1,0,1.3c0,0,0,0,0,0
		C361.4,3345.7,361.1,3345.8,360.9,3345.8z M361.6,3357.1h-1.4v-9h1.4L361.6,3357.1z M372.2,3357.1h-1.4v-1.5h0
		c-0.6,1.1-1.8,1.8-3.1,1.7c-1,0-2-0.4-2.7-1.2c-0.7-0.9-1.1-2.1-1-3.3c-0.1-1.3,0.3-2.6,1.1-3.6c0.7-0.9,1.8-1.4,3-1.3
		c1.1-0.1,2.2,0.5,2.7,1.5h0v-5.6h1.4L372.2,3357.1z M370.7,3353v-1.3c0-0.7-0.2-1.4-0.7-1.8c-0.5-0.5-1.1-0.8-1.8-0.8
		c-0.8,0-1.6,0.3-2.1,1c-0.5,0.8-0.8,1.7-0.8,2.7c0,0.9,0.2,1.7,0.7,2.5c0.5,0.6,1.2,0.9,1.9,0.9c0.8,0,1.5-0.3,2-0.9
		C370.5,3354.6,370.7,3353.8,370.7,3353L370.7,3353z M381.5,3357.1h-1.4v-1.4h0c-0.5,1-1.6,1.7-2.8,1.6c-0.8,0-1.5-0.2-2.1-0.7
		c-0.5-0.5-0.8-1.2-0.8-1.9c0-1.7,1-2.7,3-2.9l2.7-0.4c0-1.5-0.6-2.3-1.9-2.3c-1.1,0-2.1,0.4-2.9,1.1v-1.5c0.9-0.6,2-0.9,3.1-0.8
		c2.1,0,3.2,1.1,3.2,3.4L381.5,3357.1z M380.1,3352.5l-2.2,0.3c-0.5,0-1.1,0.2-1.5,0.5c-0.4,0.3-0.6,0.8-0.5,1.3
		c0,0.4,0.2,0.8,0.5,1.1c0.4,0.3,0.8,0.4,1.3,0.4c0.7,0,1.3-0.3,1.8-0.8c0.5-0.5,0.7-1.2,0.7-1.9V3352.5z M391.9,3357.1h-1.4v-1.5h0
		c-0.6,1.1-1.8,1.8-3.1,1.7c-1,0-2-0.4-2.7-1.2c-0.7-0.9-1.1-2.1-1-3.3c-0.1-1.3,0.3-2.6,1.1-3.6c0.7-0.9,1.8-1.4,3-1.3
		c1.1-0.1,2.2,0.5,2.7,1.5h0v-5.6h1.4L391.9,3357.1z M390.5,3353v-1.3c0-0.7-0.2-1.4-0.7-1.8c-0.5-0.5-1.1-0.8-1.8-0.8
		c-0.8,0-1.6,0.3-2.1,1c-0.5,0.8-0.8,1.7-0.8,2.7c-0.1,0.9,0.2,1.8,0.7,2.5c0.5,0.6,1.2,0.9,1.9,0.9c0.8,0,1.5-0.3,2-0.9
		C390.2,3354.6,390.5,3353.8,390.5,3353z M407.3,3350.7c0,0.9-0.1,1.9-0.3,2.8c-0.2,0.7-0.4,1.4-0.8,2.1c-0.3,0.5-0.8,1-1.3,1.3
		c-0.5,0.3-1.2,0.4-1.8,0.4c-0.6,0-1.2-0.1-1.7-0.4c-0.5-0.3-0.9-0.7-1.3-1.2c-0.4-0.6-0.6-1.3-0.8-2c-0.2-0.9-0.3-1.8-0.3-2.7
		c0-1,0.1-2,0.3-2.9c0.1-0.7,0.4-1.5,0.8-2.1c0.3-0.5,0.8-1,1.3-1.3c0.6-0.3,1.2-0.4,1.8-0.4
		C405.9,3344.3,407.3,3346.4,407.3,3350.7L407.3,3350.7z M405.8,3350.9c0-3.6-0.9-5.4-2.6-5.4c-1.8,0-2.7,1.8-2.7,5.5
		c0,3.4,0.9,5.1,2.6,5.1C404.9,3356.1,405.8,3354.3,405.8,3350.9L405.8,3350.9z M410,3349.8c-0.3,0-0.5-0.1-0.7-0.3
		c-0.2-0.2-0.3-0.4-0.3-0.7c0-0.3,0.1-0.5,0.3-0.7c0.2-0.2,0.4-0.3,0.7-0.3c0.3,0,0.5,0.1,0.7,0.3c0.2,0.2,0.3,0.4,0.3,0.7
		c0,0.3-0.1,0.5-0.3,0.7C410.5,3349.7,410.2,3349.8,410,3349.8L410,3349.8z M410,3357.3c-0.3,0-0.5-0.1-0.7-0.3
		c-0.2-0.2-0.3-0.4-0.3-0.7c0-0.3,0.1-0.5,0.3-0.7c0.2-0.2,0.4-0.3,0.7-0.3c0.3,0,0.5,0.1,0.7,0.3c0.2,0.2,0.3,0.4,0.3,0.7
		c0,0.3-0.1,0.5-0.3,0.7C410.5,3357.2,410.2,3357.3,410,3357.3L410,3357.3z M326.9,3378.7h-1.4v-5.1c0-1.9-0.7-2.9-2.1-2.9
		c-0.7,0-1.3,0.3-1.8,0.8c-0.5,0.6-0.7,1.3-0.7,2.1v5.1h-1.4v-9h1.4v1.5h0c0.6-1.1,1.7-1.7,3-1.7c0.9-0.1,1.7,0.3,2.3,1
		c0.6,0.8,0.8,1.8,0.8,2.8V3378.7z M335.7,3378.3c-0.7,0.4-1.6,0.6-2.5,0.6c-1.2,0-2.3-0.4-3.1-1.3c-0.8-0.9-1.2-2.1-1.2-3.2
		c-0.1-1.3,0.4-2.6,1.3-3.6c0.9-0.9,2.1-1.4,3.4-1.3c0.7,0,1.4,0.1,2.1,0.4v1.5c-0.6-0.5-1.4-0.7-2.1-0.7c-0.9,0-1.7,0.3-2.3,1
		c-0.6,0.7-0.9,1.7-0.9,2.6c-0.1,0.9,0.2,1.8,0.8,2.5c0.6,0.6,1.4,1,2.2,0.9c0.8,0,1.6-0.3,2.2-0.8L335.7,3378.3z M341.6,3378.9
		c-1.2,0.1-2.4-0.4-3.2-1.3c-0.8-0.9-1.2-2.1-1.2-3.3c-0.1-1.3,0.4-2.6,1.2-3.5c0.9-0.9,2.1-1.3,3.3-1.3c1.2-0.1,2.3,0.4,3.1,1.2
		c0.8,1,1.2,2.2,1.1,3.4c0.1,1.3-0.4,2.5-1.2,3.4C344.1,3378.5,342.9,3378.9,341.6,3378.9z M341.7,3370.7c-0.8,0-1.7,0.3-2.2,0.9
		c-0.6,0.7-0.9,1.7-0.8,2.6c-0.1,0.9,0.2,1.8,0.8,2.5c0.6,0.6,1.4,1,2.2,0.9c0.8,0,1.6-0.3,2.1-0.9c0.5-0.7,0.8-1.7,0.8-2.6
		c0.1-0.9-0.2-1.8-0.8-2.6C343.4,3371,342.6,3370.6,341.7,3370.7L341.7,3370.7z M361.2,3378.7h-1.4v-5.2c0.1-0.8-0.1-1.5-0.5-2.2
		c-0.4-0.5-1-0.7-1.6-0.7c-0.6,0-1.2,0.3-1.6,0.8c-0.4,0.6-0.7,1.3-0.6,2v5.1h-1.4v-5.3c0-1.8-0.7-2.7-2-2.7c-0.6,0-1.2,0.3-1.6,0.8
		c-0.4,0.6-0.6,1.3-0.6,2.1v5.1h-1.4v-9h1.4v1.4h0c0.5-1,1.6-1.7,2.8-1.6c1.2,0,2.2,0.7,2.5,1.9c0.5-1.2,1.7-1.9,3-1.9
		c2,0,3,1.2,3,3.7L361.2,3378.7z M365.4,3377.4L365.4,3377.4l0,5.4h-1.4v-13.1h1.4v1.6h0c0.6-1.1,1.8-1.8,3.1-1.8
		c1,0,2.1,0.4,2.7,1.2c0.7,0.9,1,2.1,1,3.2c0.1,1.3-0.3,2.6-1.1,3.6c-0.7,0.9-1.8,1.4-3,1.4C367,3378.9,366,3378.3,365.4,3377.4
		L365.4,3377.4z M365.4,3373.7v1.3c0,0.7,0.2,1.4,0.7,1.9c1,1,2.6,1,3.7,0c0.1-0.1,0.2-0.2,0.2-0.3c0.5-0.8,0.8-1.8,0.7-2.8
		c0-0.8-0.2-1.7-0.7-2.4c-0.5-0.6-1.2-0.9-1.9-0.9c-0.8,0-1.5,0.3-2,0.9C365.6,3372.2,365.3,3372.9,365.4,3373.7L365.4,3373.7z
		 M376,3378.7h-1.4v-13.3h1.4V3378.7z M386.1,3374.5h-6.4c0,0.8,0.3,1.7,0.8,2.3c0.6,0.6,1.3,0.9,2.1,0.8c1,0,2-0.4,2.8-1v1.4
		c-0.9,0.6-2,0.9-3.1,0.9c-1.1,0.1-2.2-0.4-3-1.2c-0.8-1-1.2-2.2-1.1-3.4c-0.1-1.3,0.4-2.5,1.2-3.4c0.7-0.9,1.8-1.3,3-1.3
		c1-0.1,2,0.4,2.7,1.1c0.7,0.9,1,2,1,3.2L386.1,3374.5z M384.6,3373.3c0-0.7-0.2-1.4-0.6-1.9c-0.4-0.5-1-0.7-1.6-0.7
		c-0.7,0-1.3,0.3-1.7,0.7c-0.5,0.5-0.8,1.2-0.9,1.9H384.6z M392.5,3378.6c-0.4,0.2-0.9,0.3-1.3,0.3c-1.6,0-2.4-0.9-2.4-2.6v-5.3
		h-1.5v-1.2h1.5v-2.2l1.4-0.5v2.7h2.3v1.2h-2.3v5.1c0,0.5,0.1,0.9,0.3,1.3c0.3,0.3,0.6,0.4,1,0.4c0.3,0,0.7-0.1,0.9-0.3V3378.6z
		 M400.8,3378.7h-1.4v-1.4h0c-0.5,1-1.6,1.7-2.8,1.6c-0.8,0-1.5-0.2-2.1-0.7c-0.5-0.5-0.8-1.2-0.8-1.9c0-1.7,1-2.7,3-2.9l2.7-0.4
		c0-1.5-0.6-2.3-1.9-2.3c-1.1,0-2.1,0.4-2.9,1.1v-1.5c0.9-0.6,2-0.9,3.1-0.8c2.1,0,3.2,1.1,3.2,3.4L400.8,3378.7z M399.4,3374.1
		l-2.2,0.3c-0.5,0-1.1,0.2-1.5,0.5c-0.4,0.3-0.6,0.8-0.5,1.3c0,0.4,0.2,0.8,0.5,1.1c0.4,0.3,0.8,0.4,1.3,0.4c0.7,0,1.3-0.3,1.8-0.8
		c0.5-0.5,0.7-1.2,0.7-1.9V3374.1z M316.4,3367.3c-0.2,0-0.5-0.1-0.7-0.3c-0.2-0.2-0.3-0.4-0.3-0.7c0-0.5,0.4-0.9,0.9-0.9
		c0,0,0,0,0,0c0.3,0,0.5,0.1,0.7,0.3c0.4,0.4,0.4,1,0,1.3c0,0,0,0,0,0C316.9,3367.2,316.7,3367.3,316.4,3367.3z M317.1,3378.6h-1.4
		v-9h1.4L317.1,3378.6z"/>
	<path id="Trazado_191516" class="st14" d="M499.6,3253.3h-1.8l-6.5-10c-0.2-0.2-0.3-0.5-0.4-0.8h-0.1c0.1,0.6,0.1,1.2,0.1,1.7v9.1
		h-1.5v-12.6h1.9l6.3,9.9c0.3,0.4,0.4,0.7,0.5,0.8h0c-0.1-0.6-0.1-1.2-0.1-1.9v-8.9h1.5V3253.3z M503.5,3242c-0.2,0-0.5-0.1-0.7-0.3
		c-0.2-0.2-0.3-0.4-0.3-0.7c0-0.3,0.1-0.5,0.3-0.7c0.2-0.2,0.4-0.3,0.7-0.3c0.3,0,0.5,0.1,0.7,0.3c0.2,0.2,0.3,0.4,0.3,0.7
		c0,0.2-0.1,0.5-0.3,0.7C504,3242,503.7,3242,503.5,3242L503.5,3242z M504.2,3253.3h-1.4v-9h1.4V3253.3z M514.2,3244.3l-3.6,9h-1.4
		l-3.4-9h1.6l2.3,6.5c0.2,0.4,0.3,0.8,0.3,1.3h0c0.1-0.4,0.1-0.8,0.3-1.2l2.4-6.6H514.2z M522.8,3249.2h-6.4c0,0.8,0.3,1.7,0.8,2.3
		c0.6,0.6,1.3,0.9,2.1,0.8c1,0,2-0.4,2.8-1v1.4c-0.9,0.6-2,0.9-3.1,0.9c-1.1,0.1-2.2-0.4-3-1.2c-0.8-1-1.2-2.2-1.1-3.5
		c-0.1-1.3,0.4-2.5,1.2-3.4c0.7-0.9,1.8-1.3,3-1.3c1-0.1,2,0.4,2.7,1.1c0.7,0.9,1,2,1,3.2L522.8,3249.2z M521.3,3248
		c0-0.7-0.2-1.4-0.6-1.9c-0.4-0.5-1-0.7-1.7-0.7c-0.7,0-1.3,0.3-1.7,0.7c-0.5,0.5-0.8,1.2-0.9,1.9L521.3,3248z M526.4,3253.3h-1.4
		V3240h1.4V3253.3z M541.9,3253.3h-1.4v-1.5h0c-0.6,1.1-1.8,1.8-3.1,1.7c-1,0-2-0.4-2.7-1.2c-0.7-0.9-1.1-2.1-1-3.3
		c-0.1-1.3,0.3-2.6,1.1-3.6c0.7-0.9,1.8-1.4,3-1.3c1.1-0.1,2.2,0.5,2.7,1.5h0v-5.6h1.4V3253.3z M540.5,3249.3v-1.3
		c0-0.7-0.2-1.4-0.7-1.8c-0.5-0.5-1.1-0.8-1.8-0.8c-0.8,0-1.6,0.3-2.1,1c-0.5,0.8-0.8,1.7-0.8,2.7c-0.1,0.9,0.2,1.7,0.7,2.5
		c0.5,0.6,1.2,0.9,1.9,0.9c0.8,0,1.5-0.3,2-0.9C540.2,3250.8,540.5,3250.1,540.5,3249.3z M552.1,3249.2h-6.4c0,0.8,0.3,1.7,0.8,2.3
		c0.6,0.6,1.3,0.9,2.1,0.8c1,0,2-0.4,2.8-1v1.4c-0.9,0.6-2,0.9-3.1,0.9c-1.1,0.1-2.2-0.4-3-1.2c-0.8-1-1.2-2.2-1.1-3.5
		c-0.1-1.3,0.4-2.5,1.2-3.4c0.7-0.9,1.8-1.3,3-1.3c1-0.1,2,0.4,2.7,1.1c0.7,0.9,1,2,1,3.2L552.1,3249.2z M550.6,3248
		c0-0.7-0.2-1.4-0.6-1.9c-0.4-0.5-1-0.7-1.7-0.7c-0.7,0-1.3,0.3-1.7,0.7c-0.5,0.5-0.8,1.2-0.9,1.9L550.6,3248z M495.4,3274.5
		c-0.7,0.4-1.6,0.6-2.5,0.6c-1.2,0-2.3-0.4-3.1-1.3c-0.8-0.9-1.2-2.1-1.2-3.2c-0.1-1.3,0.4-2.6,1.3-3.6c0.9-0.9,2.1-1.4,3.4-1.3
		c0.7,0,1.4,0.1,2.1,0.4v1.5c-0.6-0.5-1.4-0.7-2.1-0.7c-0.9,0-1.7,0.3-2.3,1c-0.6,0.7-0.9,1.7-0.9,2.6c-0.1,0.9,0.2,1.8,0.8,2.5
		c0.6,0.6,1.4,1,2.2,0.9c0.8,0,1.6-0.3,2.2-0.8L495.4,3274.5z M504,3274.9h-1.4v-1.4h0c-0.5,1-1.6,1.7-2.8,1.6
		c-0.8,0-1.5-0.2-2.1-0.7c-0.5-0.5-0.8-1.2-0.8-1.9c0-1.7,1-2.7,3-2.9l2.7-0.4c0-1.5-0.6-2.3-1.9-2.3c-1.1,0-2.1,0.4-2.9,1.1v-1.5
		c0.9-0.6,2-0.9,3.1-0.8c2.1,0,3.2,1.1,3.2,3.4L504,3274.9z M502.6,3270.4l-2.2,0.3c-0.5,0-1.1,0.2-1.5,0.5
		c-0.4,0.3-0.6,0.8-0.5,1.3c0,0.4,0.2,0.8,0.5,1.1c0.3,0.3,0.8,0.4,1.2,0.4c0.7,0,1.3-0.3,1.8-0.8c0.5-0.5,0.7-1.2,0.7-1.9
		L502.6,3270.4z M508.2,3273.6L508.2,3273.6l0,5.4h-1.4v-13.1h1.4v1.6h0c0.6-1.1,1.8-1.8,3.1-1.8c1-0.1,2.1,0.4,2.7,1.2
		c0.7,0.9,1,2.1,1,3.2c0.1,1.3-0.3,2.6-1.1,3.6c-0.7,0.9-1.8,1.4-3,1.4C509.8,3275.2,508.8,3274.6,508.2,3273.6z M508.2,3270v1.3
		c0,0.7,0.2,1.4,0.7,1.9c1,1,2.6,1,3.7,0c0.1-0.1,0.2-0.2,0.2-0.3c0.5-0.8,0.8-1.8,0.7-2.8c0-0.8-0.2-1.7-0.7-2.4
		c-0.5-0.6-1.2-0.9-1.9-0.9c-0.8,0-1.5,0.3-2,0.9C508.4,3268.4,508.2,3269.2,508.2,3270L508.2,3270z M523.8,3274.9h-1.4v-1.4h0
		c-0.5,1-1.6,1.7-2.8,1.6c-0.8,0-1.5-0.2-2.1-0.7c-0.5-0.5-0.8-1.2-0.8-1.9c0-1.7,1-2.7,3-2.9l2.7-0.4c0-1.5-0.6-2.3-1.9-2.3
		c-1.1,0-2.1,0.4-2.9,1.1v-1.5c0.9-0.6,2-0.9,3.1-0.8c2.1,0,3.2,1.1,3.2,3.4L523.8,3274.9z M522.3,3270.4l-2.2,0.3
		c-0.5,0-1.1,0.2-1.5,0.5c-0.4,0.3-0.6,0.8-0.5,1.3c0,0.4,0.2,0.8,0.5,1.1c0.4,0.3,0.8,0.4,1.3,0.4c0.7,0,1.3-0.3,1.8-0.8
		c0.5-0.5,0.7-1.2,0.7-1.9V3270.4z M532.6,3274.5c-0.7,0.4-1.6,0.6-2.5,0.6c-1.2,0-2.3-0.4-3.1-1.3c-0.8-0.9-1.2-2.1-1.2-3.2
		c-0.1-1.3,0.4-2.6,1.3-3.6c0.9-0.9,2.1-1.4,3.4-1.3c0.7,0,1.4,0.1,2.1,0.4v1.5c-0.6-0.5-1.4-0.7-2.1-0.7c-0.9,0-1.7,0.3-2.3,1
		c-0.6,0.7-0.9,1.7-0.9,2.6c-0.1,0.9,0.2,1.8,0.8,2.5c0.6,0.6,1.4,1,2.2,0.9c0.8,0,1.6-0.3,2.2-0.8L532.6,3274.5z M535.5,3263.6
		c-0.2,0-0.5-0.1-0.7-0.3c-0.2-0.2-0.3-0.4-0.3-0.7c0-0.5,0.4-0.9,0.9-0.9c0,0,0,0,0,0c0.3,0,0.5,0.1,0.7,0.3c0.4,0.4,0.4,1,0,1.3
		c0,0,0,0,0,0C536,3263.6,535.8,3263.7,535.5,3263.6z M536.2,3274.9h-1.4v-9h1.4L536.2,3274.9z M546.8,3274.9h-1.4v-1.5h0
		c-0.6,1.1-1.8,1.8-3.1,1.7c-1,0-2-0.4-2.7-1.2c-0.7-0.9-1.1-2.1-1-3.3c-0.1-1.3,0.3-2.6,1.1-3.6c0.7-0.9,1.8-1.4,3-1.3
		c1.1-0.1,2.2,0.5,2.7,1.5h0v-5.6h1.4L546.8,3274.9z M545.4,3270.9v-1.3c0-0.7-0.2-1.4-0.7-1.8c-0.5-0.5-1.1-0.8-1.8-0.8
		c-0.8,0-1.6,0.3-2.1,1c-0.5,0.8-0.8,1.7-0.8,2.7c0,0.9,0.2,1.7,0.7,2.5c0.5,0.6,1.2,0.9,1.9,0.9c0.8,0,1.5-0.3,2-0.9
		C545.2,3272.4,545.4,3271.7,545.4,3270.9L545.4,3270.9z M556.2,3274.9h-1.4v-1.4h0c-0.5,1-1.6,1.7-2.8,1.6c-0.8,0-1.5-0.2-2.1-0.7
		c-0.5-0.5-0.8-1.2-0.8-1.9c0-1.7,1-2.7,3-2.9l2.7-0.4c0-1.5-0.6-2.3-1.9-2.3c-1.1,0-2.1,0.4-2.9,1.1v-1.5c0.9-0.6,2-0.9,3.1-0.8
		c2.1,0,3.2,1.1,3.2,3.4L556.2,3274.9z M554.8,3270.4l-2.2,0.3c-0.5,0-1.1,0.2-1.5,0.5c-0.4,0.3-0.6,0.8-0.5,1.3
		c0,0.4,0.2,0.8,0.5,1.1c0.4,0.3,0.8,0.4,1.3,0.4c0.7,0,1.3-0.3,1.8-0.8c0.5-0.5,0.7-1.2,0.7-1.9V3270.4z M566.6,3274.9h-1.4v-1.5h0
		c-0.6,1.1-1.8,1.8-3.1,1.7c-1,0-2-0.4-2.7-1.2c-0.7-0.9-1.1-2.1-1-3.3c-0.1-1.3,0.3-2.6,1.1-3.6c0.7-0.9,1.8-1.4,3-1.3
		c1.1-0.1,2.2,0.5,2.7,1.5h0v-5.6h1.4L566.6,3274.9z M565.2,3270.9v-1.3c0-0.7-0.2-1.4-0.7-1.8c-0.5-0.5-1.1-0.8-1.8-0.8
		c-0.8,0-1.6,0.3-2.1,1c-0.5,0.8-0.8,1.7-0.8,2.7c-0.1,0.9,0.2,1.8,0.7,2.5c0.5,0.6,1.2,0.9,1.9,0.9c0.8,0,1.5-0.3,2-0.9
		C564.9,3272.4,565.2,3271.7,565.2,3270.9z M579.3,3274.9h-1.4V3264c-0.2,0.1-0.3,0.3-0.5,0.4c-0.2,0.2-0.5,0.3-0.7,0.4
		c-0.3,0.1-0.5,0.3-0.8,0.4c-0.3,0.1-0.6,0.2-0.9,0.3v-1.5c0.3-0.1,0.7-0.2,1-0.4c0.4-0.1,0.7-0.3,1-0.5c0.3-0.2,0.7-0.4,1-0.6
		c0.3-0.2,0.5-0.4,0.8-0.6h0.5L579.3,3274.9z M584.6,3267.7c-0.3,0-0.5-0.1-0.7-0.3c-0.2-0.2-0.3-0.4-0.3-0.7c0-0.3,0.1-0.5,0.3-0.7
		c0.2-0.2,0.4-0.3,0.7-0.3c0.3,0,0.5,0.1,0.7,0.3c0.2,0.2,0.3,0.4,0.3,0.7c0,0.3-0.1,0.5-0.3,0.7
		C585.2,3267.6,584.9,3267.7,584.6,3267.7z M584.6,3275.1c-0.3,0-0.5-0.1-0.7-0.3c-0.2-0.2-0.3-0.4-0.3-0.7c0-0.3,0.1-0.5,0.3-0.7
		c0.2-0.2,0.4-0.3,0.7-0.3c0.3,0,0.5,0.1,0.7,0.3c0.2,0.2,0.3,0.4,0.3,0.7c0,0.3-0.1,0.5-0.3,0.7
		C585.2,3275,584.9,3275.1,584.6,3275.1L584.6,3275.1z M494,3289c-0.3-0.2-0.7-0.3-1.1-0.3c-0.6,0-1.2,0.3-1.5,0.9
		c-0.4,0.7-0.7,1.5-0.6,2.4v4.6h-1.4v-9h1.4v1.9h0c0.2-0.6,0.5-1.1,0.9-1.5c0.4-0.3,0.9-0.5,1.4-0.5c0.3,0,0.6,0,0.9,0.1L494,3289z
		 M502.6,3292.4h-6.4c0,0.8,0.3,1.7,0.8,2.3c0.6,0.6,1.3,0.9,2.1,0.8c1,0,2-0.4,2.8-1v1.4c-0.9,0.6-2,0.9-3.1,0.9
		c-1.1,0.1-2.2-0.4-3-1.2c-0.8-1-1.2-2.2-1.1-3.4c-0.1-1.3,0.4-2.5,1.2-3.4c0.7-0.9,1.8-1.3,3-1.3c1-0.1,2,0.4,2.7,1.1
		c0.7,0.9,1,2,1,3.2V3292.4z M501.1,3291.2c0-0.7-0.2-1.4-0.6-1.9c-0.4-0.5-1-0.7-1.6-0.7c-0.7,0-1.3,0.3-1.7,0.7
		c-0.5,0.5-0.8,1.2-0.9,1.9H501.1z M511.2,3296.5h-1.4v-1.4h0c-0.5,1-1.6,1.7-2.8,1.6c-0.8,0-1.5-0.2-2.1-0.7
		c-0.5-0.5-0.8-1.2-0.8-1.9c0-1.7,1-2.7,3-2.9l2.7-0.4c0-1.5-0.6-2.3-1.9-2.3c-1.1,0-2.1,0.4-2.9,1.1v-1.5c0.9-0.6,2-0.9,3.1-0.8
		c2.1,0,3.2,1.1,3.2,3.4L511.2,3296.5z M509.8,3292l-2.2,0.3c-0.5,0-1.1,0.2-1.5,0.5c-0.4,0.3-0.6,0.8-0.5,1.3
		c0,0.4,0.2,0.8,0.5,1.1c0.4,0.3,0.8,0.4,1.3,0.4c0.7,0,1.3-0.3,1.8-0.8c0.5-0.5,0.7-1.2,0.7-1.9V3292z M515.4,3296.5h-1.4v-13.3
		h1.4L515.4,3296.5z M519,3285.2c-0.2,0-0.5-0.1-0.7-0.3c-0.2-0.2-0.3-0.4-0.3-0.7c0-0.5,0.4-0.9,0.9-0.9c0,0,0,0,0,0
		c0.3,0,0.5,0.1,0.7,0.3c0.4,0.4,0.4,1,0,1.3c0,0,0,0,0,0C519.5,3285.2,519.3,3285.3,519,3285.2L519,3285.2z M519.7,3296.5h-1.4v-9
		h1.4V3296.5z M528.9,3287.9l-5.3,7.4h5.3v1.2h-7.4v-0.4l5.3-7.3H522v-1.2h6.9V3287.9z M537.2,3296.5h-1.4v-1.4h0
		c-0.5,1-1.6,1.7-2.8,1.6c-0.8,0-1.5-0.2-2.1-0.7c-0.5-0.5-0.8-1.2-0.8-1.9c0-1.7,1-2.7,3-2.9l2.7-0.4c0-1.5-0.6-2.3-1.9-2.3
		c-1.1,0-2.1,0.4-2.9,1.1v-1.5c0.9-0.6,2-0.9,3.1-0.8c2.1,0,3.2,1.1,3.2,3.4L537.2,3296.5z M535.8,3292l-2.2,0.3
		c-0.5,0-1.1,0.2-1.5,0.5c-0.4,0.3-0.6,0.8-0.5,1.3c0,0.4,0.2,0.8,0.5,1.1c0.4,0.3,0.8,0.4,1.3,0.4c0.7,0,1.3-0.3,1.8-0.8
		c0.5-0.5,0.7-1.2,0.7-1.9L535.8,3292z M544.6,3289c-0.3-0.2-0.7-0.3-1.1-0.3c-0.6,0-1.2,0.3-1.5,0.9c-0.4,0.7-0.7,1.5-0.6,2.4v4.6
		h-1.4v-9h1.4v1.9h0c0.2-0.6,0.5-1.1,0.9-1.5c0.4-0.3,0.9-0.5,1.4-0.5c0.3,0,0.6,0,0.9,0.1L544.6,3289z"/>
	<path id="Trazado_191517" class="st14" d="M668.5,3160.5h-1.8l-6.5-10c-0.2-0.2-0.3-0.5-0.4-0.8h-0.1c0.1,0.6,0.1,1.2,0.1,1.7v9.1
		h-1.5v-12.6h1.9l6.3,9.9c0.3,0.4,0.4,0.7,0.5,0.8h0c-0.1-0.6-0.1-1.2-0.1-1.9v-8.9h1.5V3160.5z M672.3,3149.2
		c-0.2,0-0.5-0.1-0.7-0.3c-0.2-0.2-0.3-0.4-0.3-0.7c0-0.3,0.1-0.5,0.3-0.7c0.2-0.2,0.4-0.3,0.7-0.3c0.3,0,0.5,0.1,0.7,0.3
		c0.2,0.2,0.3,0.4,0.3,0.7c0,0.2-0.1,0.5-0.3,0.7C672.8,3149.1,672.6,3149.2,672.3,3149.2L672.3,3149.2z M673,3160.5h-1.4v-9h1.4
		V3160.5z M683,3151.5l-3.6,9H678l-3.4-9h1.6l2.3,6.5c0.2,0.4,0.3,0.8,0.3,1.3h0c0.1-0.4,0.1-0.8,0.3-1.2l2.4-6.6H683z
		 M691.6,3156.3h-6.4c0,0.8,0.3,1.7,0.8,2.3c0.6,0.6,1.3,0.9,2.1,0.8c1,0,2-0.4,2.8-1v1.4c-0.9,0.6-2,0.9-3.1,0.9
		c-1.1,0.1-2.2-0.4-3-1.2c-0.8-1-1.2-2.2-1.1-3.5c-0.1-1.3,0.4-2.5,1.2-3.4c0.7-0.9,1.8-1.3,3-1.3c1-0.1,2,0.4,2.7,1.1
		c0.7,0.9,1,2,1,3.2L691.6,3156.3z M690.2,3155.1c0-0.7-0.2-1.4-0.6-1.9c-0.4-0.5-1-0.7-1.7-0.7c-0.7,0-1.3,0.3-1.7,0.7
		c-0.5,0.5-0.8,1.2-0.9,1.9L690.2,3155.1z M695.2,3160.5h-1.4v-13.3h1.4V3160.5z M710.8,3160.5h-1.4v-1.5h0
		c-0.6,1.1-1.8,1.8-3.1,1.7c-1,0-2-0.4-2.7-1.2c-0.7-0.9-1.1-2.1-1-3.3c-0.1-1.3,0.3-2.6,1.1-3.6c0.7-0.9,1.8-1.4,3-1.3
		c1.1-0.1,2.2,0.5,2.7,1.5h0v-5.6h1.4V3160.5z M709.3,3156.4v-1.3c0-0.7-0.2-1.4-0.7-1.8c-0.5-0.5-1.1-0.8-1.8-0.8
		c-0.8,0-1.6,0.3-2.1,1c-0.5,0.8-0.8,1.7-0.8,2.7c-0.1,0.9,0.2,1.7,0.7,2.5c0.5,0.6,1.2,0.9,1.9,0.9c0.8,0,1.5-0.3,2-0.9
		C709.1,3158,709.4,3157.2,709.3,3156.4z M720.9,3156.3h-6.4c0,0.8,0.3,1.7,0.8,2.3c0.6,0.6,1.3,0.9,2.1,0.8c1,0,2-0.4,2.8-1v1.4
		c-0.9,0.6-2,0.9-3.1,0.9c-1.1,0.1-2.2-0.4-3-1.2c-0.8-1-1.2-2.2-1.1-3.5c-0.1-1.3,0.4-2.5,1.2-3.4c0.7-0.9,1.8-1.3,3-1.3
		c1-0.1,2,0.4,2.7,1.1c0.7,0.9,1,2,1,3.2L720.9,3156.3z M719.5,3155.1c0-0.7-0.2-1.4-0.6-1.9c-0.4-0.5-1-0.7-1.7-0.7
		c-0.7,0-1.3,0.3-1.7,0.7c-0.5,0.5-0.8,1.2-0.9,1.9L719.5,3155.1z M664.3,3181.7c-0.7,0.4-1.6,0.6-2.5,0.6c-1.2,0-2.3-0.4-3.1-1.3
		c-0.8-0.9-1.2-2.1-1.2-3.2c-0.1-1.3,0.4-2.6,1.3-3.6c0.9-0.9,2.1-1.4,3.4-1.3c0.7,0,1.4,0.1,2.1,0.4v1.5c-0.6-0.5-1.4-0.7-2.1-0.7
		c-0.9,0-1.7,0.3-2.3,1c-0.6,0.7-0.9,1.7-0.9,2.6c-0.1,0.9,0.2,1.8,0.8,2.5c0.6,0.6,1.4,1,2.2,0.9c0.8,0,1.6-0.3,2.2-0.8
		L664.3,3181.7z M672.9,3182.1h-1.4v-1.4h0c-0.5,1-1.6,1.7-2.8,1.6c-0.8,0-1.5-0.2-2.1-0.7c-0.5-0.5-0.8-1.2-0.8-1.9
		c0-1.7,1-2.7,3-2.9l2.7-0.4c0-1.5-0.6-2.3-1.9-2.3c-1.1,0-2.1,0.4-2.9,1.1v-1.5c0.9-0.6,2-0.9,3.1-0.8c2.1,0,3.2,1.1,3.2,3.4
		L672.9,3182.1z M671.4,3177.5l-2.2,0.3c-0.5,0-1.1,0.2-1.5,0.5c-0.4,0.3-0.6,0.8-0.5,1.3c0,0.4,0.2,0.8,0.5,1.1
		c0.3,0.3,0.8,0.4,1.2,0.4c0.7,0,1.3-0.3,1.8-0.8c0.5-0.5,0.7-1.2,0.7-1.9L671.4,3177.5z M677.1,3180.8L677.1,3180.8l0,5.4h-1.4
		v-13.1h1.4v1.6h0c0.6-1.1,1.8-1.8,3.1-1.8c1-0.1,2.1,0.4,2.7,1.2c0.7,0.9,1,2.1,1,3.2c0.1,1.3-0.3,2.6-1.1,3.6
		c-0.7,0.9-1.8,1.4-3,1.4C678.7,3182.3,677.6,3181.7,677.1,3180.8z M677,3177.1v1.3c0,0.7,0.2,1.4,0.7,1.9c1,1,2.6,1,3.7,0
		c0.1-0.1,0.2-0.2,0.2-0.3c0.5-0.8,0.8-1.8,0.7-2.8c0-0.8-0.2-1.7-0.7-2.4c-0.5-0.6-1.2-0.9-1.9-0.9c-0.8,0-1.5,0.3-2,0.9
		C677.3,3175.6,677,3176.3,677,3177.1L677,3177.1z M692.6,3182.1h-1.4v-1.4h0c-0.5,1-1.6,1.7-2.8,1.6c-0.8,0-1.5-0.2-2.1-0.7
		c-0.5-0.5-0.8-1.2-0.8-1.9c0-1.7,1-2.7,3-2.9l2.7-0.4c0-1.5-0.6-2.3-1.9-2.3c-1.1,0-2.1,0.4-2.9,1.1v-1.5c0.9-0.6,2-0.9,3.1-0.8
		c2.1,0,3.2,1.1,3.2,3.4L692.6,3182.1z M691.2,3177.5l-2.2,0.3c-0.5,0-1.1,0.2-1.5,0.5c-0.4,0.3-0.6,0.8-0.5,1.3
		c0,0.4,0.2,0.8,0.5,1.1c0.4,0.3,0.8,0.4,1.3,0.4c0.7,0,1.3-0.3,1.8-0.8c0.5-0.5,0.7-1.2,0.7-1.9V3177.5z M701.5,3181.7
		c-0.7,0.4-1.6,0.6-2.5,0.6c-1.2,0-2.3-0.4-3.1-1.3c-0.8-0.9-1.2-2.1-1.2-3.2c-0.1-1.3,0.4-2.6,1.3-3.6c0.9-0.9,2.1-1.4,3.4-1.3
		c0.7,0,1.4,0.1,2.1,0.4v1.5c-0.6-0.5-1.4-0.7-2.1-0.7c-0.9,0-1.7,0.3-2.3,1c-0.6,0.7-0.9,1.7-0.9,2.6c-0.1,0.9,0.2,1.8,0.8,2.5
		c0.6,0.6,1.4,1,2.2,0.9c0.8,0,1.6-0.3,2.2-0.8L701.5,3181.7z M704.4,3170.8c-0.2,0-0.5-0.1-0.7-0.3c-0.2-0.2-0.3-0.4-0.3-0.7
		c0-0.5,0.4-0.9,0.9-0.9c0,0,0,0,0,0c0.3,0,0.5,0.1,0.7,0.3c0.4,0.4,0.4,1,0,1.3c0,0,0,0,0,0
		C704.9,3170.7,704.6,3170.8,704.4,3170.8z M705.1,3182.1h-1.4v-9h1.4L705.1,3182.1z M715.7,3182.1h-1.4v-1.5h0
		c-0.6,1.1-1.8,1.8-3.1,1.7c-1,0-2-0.4-2.7-1.2c-0.7-0.9-1.1-2.1-1-3.3c-0.1-1.3,0.3-2.6,1.1-3.6c0.7-0.9,1.8-1.4,3-1.3
		c1.1-0.1,2.2,0.5,2.7,1.5h0v-5.6h1.4L715.7,3182.1z M714.3,3178v-1.3c0-0.7-0.2-1.4-0.7-1.8c-0.5-0.5-1.1-0.8-1.8-0.8
		c-0.8,0-1.6,0.3-2.1,1c-0.5,0.8-0.8,1.7-0.8,2.7c0,0.9,0.2,1.7,0.7,2.5c0.5,0.6,1.2,0.9,1.9,0.9c0.8,0,1.5-0.3,2-0.9
		C714,3179.6,714.3,3178.8,714.3,3178L714.3,3178z M725.1,3182.1h-1.4v-1.4h0c-0.5,1-1.6,1.7-2.8,1.6c-0.8,0-1.5-0.2-2.1-0.7
		c-0.5-0.5-0.8-1.2-0.8-1.9c0-1.7,1-2.7,3-2.9l2.7-0.4c0-1.5-0.6-2.3-1.9-2.3c-1.1,0-2.1,0.4-2.9,1.1v-1.5c0.9-0.6,2-0.9,3.1-0.8
		c2.1,0,3.2,1.1,3.2,3.4L725.1,3182.1z M723.6,3177.5l-2.2,0.3c-0.5,0-1.1,0.2-1.5,0.5c-0.4,0.3-0.6,0.8-0.5,1.3
		c0,0.4,0.2,0.8,0.5,1.1c0.4,0.3,0.8,0.4,1.3,0.4c0.7,0,1.3-0.3,1.8-0.8c0.5-0.5,0.7-1.2,0.7-1.9V3177.5z M735.5,3182.1H734v-1.5h0
		c-0.6,1.1-1.8,1.8-3.1,1.7c-1,0-2-0.4-2.7-1.2c-0.7-0.9-1.1-2.1-1-3.3c-0.1-1.3,0.3-2.6,1.1-3.6c0.7-0.9,1.8-1.4,3-1.3
		c1.1-0.1,2.2,0.5,2.7,1.5h0v-5.6h1.4L735.5,3182.1z M734,3178v-1.3c0-0.7-0.2-1.4-0.7-1.8c-0.5-0.5-1.1-0.8-1.8-0.8
		c-0.8,0-1.6,0.3-2.1,1c-0.5,0.8-0.8,1.7-0.8,2.7c-0.1,0.9,0.2,1.8,0.7,2.5c0.5,0.6,1.2,0.9,1.9,0.9c0.8,0,1.5-0.3,2-0.9
		C733.8,3179.6,734,3178.8,734,3178z M748.6,3172.8c0-0.3-0.1-0.7-0.2-1c-0.2-0.5-0.7-1-1.2-1.1c-0.3-0.1-0.6-0.1-0.9-0.1
		c-0.3,0-0.6,0-0.8,0.1c-0.3,0.1-0.5,0.2-0.8,0.3c-0.3,0.1-0.5,0.3-0.7,0.5c-0.2,0.2-0.5,0.4-0.7,0.6v-1.5c0.4-0.4,0.9-0.7,1.4-0.9
		c0.6-0.2,1.2-0.3,1.8-0.3c0.5,0,1,0.1,1.4,0.2c0.4,0.1,0.8,0.4,1.1,0.7c0.3,0.3,0.6,0.7,0.8,1.1c0.2,0.5,0.3,1,0.3,1.4
		c0,0.5-0.1,0.9-0.2,1.4c-0.1,0.4-0.3,0.8-0.5,1.1c-0.2,0.4-0.5,0.7-0.9,1c-0.4,0.4-0.8,0.7-1.2,1c-0.6,0.4-1.1,0.8-1.5,1.1
		c-0.3,0.2-0.6,0.5-0.9,0.8c-0.2,0.2-0.4,0.5-0.5,0.8c-0.1,0.3-0.1,0.6-0.1,0.9h6.3v1.3h-7.8v-0.6c0-0.5,0.1-1,0.2-1.4
		c0.1-0.4,0.3-0.8,0.6-1.2c0.3-0.4,0.7-0.8,1.1-1.1c0.4-0.4,1-0.8,1.6-1.2c0.4-0.3,0.8-0.6,1.1-0.9c0.3-0.3,0.5-0.6,0.7-0.9
		c0.2-0.3,0.3-0.6,0.4-0.9C748.6,3173.4,748.6,3173.1,748.6,3172.8z M753.5,3174.8c-0.3,0-0.5-0.1-0.7-0.3c-0.2-0.2-0.3-0.4-0.3-0.7
		c0-0.3,0.1-0.5,0.3-0.7c0.2-0.2,0.4-0.3,0.7-0.3c0.3,0,0.5,0.1,0.7,0.3c0.2,0.2,0.3,0.4,0.3,0.7c0,0.3-0.1,0.5-0.3,0.7
		C754,3174.7,753.8,3174.8,753.5,3174.8L753.5,3174.8z M753.5,3182.3c-0.3,0-0.5-0.1-0.7-0.3c-0.2-0.2-0.3-0.4-0.3-0.7
		c0-0.3,0.1-0.5,0.3-0.7c0.2-0.2,0.4-0.3,0.7-0.3c0.3,0,0.5,0.1,0.7,0.3c0.2,0.2,0.3,0.4,0.3,0.7c0,0.3-0.1,0.5-0.3,0.7
		C754,3182.2,753.8,3182.3,753.5,3182.3z M664.6,3203.7h-1.4v-1.4h0c-0.5,1-1.6,1.7-2.8,1.6c-0.8,0-1.5-0.2-2.1-0.7
		c-0.5-0.5-0.8-1.2-0.8-1.9c0-1.7,1-2.7,3-2.9l2.7-0.4c0-1.5-0.6-2.3-1.9-2.3c-1.1,0-2.1,0.4-2.9,1.1v-1.5c0.9-0.6,2-0.9,3.1-0.8
		c2.1,0,3.2,1.1,3.2,3.4L664.6,3203.7z M663.1,3199.1l-2.2,0.3c-0.5,0-1.1,0.2-1.5,0.5c-0.4,0.3-0.6,0.8-0.5,1.3
		c0,0.4,0.2,0.8,0.5,1.1c0.4,0.3,0.8,0.4,1.3,0.4c0.7,0,1.3-0.3,1.8-0.8c0.5-0.5,0.7-1.2,0.7-1.9L663.1,3199.1z M675,3203.7h-1.4
		v-1.5h0c-0.6,1.1-1.8,1.8-3.1,1.7c-1,0-2-0.4-2.7-1.2c-0.7-0.9-1.1-2.1-1-3.3c-0.1-1.3,0.3-2.6,1.1-3.6c0.7-0.9,1.8-1.4,3-1.3
		c1.1-0.1,2.2,0.5,2.7,1.5h0v-5.6h1.4V3203.7z M673.5,3199.6v-1.3c0-0.7-0.2-1.4-0.7-1.8c-0.5-0.5-1.1-0.8-1.8-0.8
		c-0.8,0-1.6,0.3-2.1,1c-0.5,0.8-0.8,1.7-0.8,2.7c-0.1,0.9,0.2,1.8,0.7,2.5c0.5,0.6,1.2,0.9,1.9,0.9c0.8,0,1.5-0.3,2-0.9
		C673.3,3201.2,673.6,3200.4,673.5,3199.6L673.5,3199.6z M690.7,3203.7h-1.4v-5.2c0.1-0.8-0.1-1.5-0.5-2.2c-0.4-0.5-1-0.7-1.6-0.7
		c-0.6,0-1.2,0.3-1.6,0.8c-0.4,0.6-0.7,1.3-0.6,2v5.1h-1.4v-5.3c0-1.8-0.7-2.7-2-2.7c-0.6,0-1.2,0.3-1.6,0.8
		c-0.4,0.6-0.6,1.3-0.6,2.1v5.1h-1.4v-9h1.4v1.4h0c0.5-1,1.6-1.7,2.8-1.6c1.2,0,2.2,0.7,2.5,1.9c0.5-1.2,1.7-1.9,3-1.9
		c2,0,3,1.2,3,3.7V3203.7z M694.1,3192.4c-0.2,0-0.5-0.1-0.7-0.3c-0.2-0.2-0.3-0.4-0.3-0.7c0-0.5,0.4-0.9,0.9-0.9c0,0,0,0,0,0
		c0.3,0,0.5,0.1,0.7,0.3c0.4,0.4,0.4,1,0,1.3c0,0,0,0,0,0C694.6,3192.3,694.4,3192.4,694.1,3192.4L694.1,3192.4z M694.8,3203.7h-1.4
		v-9h1.4L694.8,3203.7z M705.2,3203.7h-1.4v-5.1c0-1.9-0.7-2.9-2.1-2.9c-0.7,0-1.3,0.3-1.8,0.8c-0.5,0.6-0.7,1.3-0.7,2.1v5.1h-1.4
		v-9h1.4v1.5h0c0.6-1.1,1.7-1.7,3-1.7c0.9-0.1,1.7,0.3,2.3,1c0.6,0.8,0.8,1.8,0.8,2.8L705.2,3203.7z M708.7,3192.4
		c-0.2,0-0.5-0.1-0.7-0.3c-0.2-0.2-0.3-0.4-0.3-0.7c0-0.5,0.4-0.9,0.9-0.9c0,0,0,0,0,0c0.3,0,0.5,0.1,0.7,0.3c0.4,0.4,0.4,1,0,1.3
		c0,0,0,0,0,0C709.2,3192.3,708.9,3192.4,708.7,3192.4z M709.4,3203.7h-1.4v-9h1.4L709.4,3203.7z M711.7,3203.3v-1.5
		c0.7,0.6,1.7,0.9,2.6,0.9c1.3,0,1.9-0.4,1.9-1.3c0-0.2,0-0.4-0.2-0.6c-0.1-0.2-0.3-0.3-0.4-0.4c-0.2-0.1-0.4-0.3-0.6-0.3
		c-0.2-0.1-0.5-0.2-0.8-0.3c-0.4-0.1-0.7-0.3-1-0.5c-0.3-0.1-0.5-0.3-0.8-0.5c-0.2-0.2-0.4-0.4-0.5-0.7c-0.1-0.3-0.2-0.6-0.2-0.9
		c0-0.4,0.1-0.8,0.3-1.1c0.2-0.3,0.5-0.6,0.8-0.8c0.3-0.2,0.7-0.4,1.1-0.5c0.4-0.1,0.8-0.2,1.3-0.2c0.7,0,1.4,0.1,2.1,0.4v1.5
		c-0.7-0.4-1.5-0.7-2.3-0.6c-0.2,0-0.5,0-0.7,0.1c-0.2,0.1-0.4,0.1-0.6,0.3c-0.1,0.1-0.3,0.2-0.4,0.4c-0.1,0.2-0.1,0.3-0.1,0.5
		c0,0.2,0,0.4,0.1,0.6c0.1,0.2,0.2,0.3,0.4,0.4c0.2,0.1,0.4,0.2,0.6,0.3c0.2,0.1,0.5,0.2,0.8,0.3c0.4,0.1,0.7,0.3,1.1,0.5
		c0.3,0.1,0.6,0.3,0.8,0.5c0.2,0.2,0.4,0.4,0.5,0.7c0.1,0.3,0.2,0.6,0.2,0.9c0,0.4-0.1,0.8-0.3,1.2c-0.2,0.3-0.5,0.6-0.8,0.8
		c-0.3,0.2-0.7,0.4-1.1,0.5c-0.4,0.1-0.9,0.2-1.3,0.2C713.3,3203.9,712.5,3203.7,711.7,3203.3L711.7,3203.3z M724.1,3203.6
		c-0.4,0.2-0.9,0.3-1.3,0.3c-1.6,0-2.4-0.9-2.4-2.6v-5.3h-1.5v-1.2h1.5v-2.2l1.4-0.5v2.7h2.3v1.2h-2.3v5.1c0,0.5,0.1,0.9,0.3,1.3
		c0.3,0.3,0.6,0.4,1,0.4c0.3,0,0.7-0.1,0.9-0.3L724.1,3203.6z M730.7,3196.1c-0.3-0.2-0.7-0.3-1.1-0.3c-0.6,0-1.2,0.3-1.5,0.9
		c-0.4,0.7-0.7,1.5-0.6,2.4v4.6H726v-9h1.4v1.9h0c0.2-0.6,0.5-1.1,0.9-1.5c0.4-0.3,0.9-0.5,1.4-0.5c0.3,0,0.6,0,0.9,0.1
		L730.7,3196.1z M738.4,3203.7h-1.4v-1.4h0c-0.5,1-1.6,1.7-2.8,1.6c-0.8,0-1.5-0.2-2.1-0.7c-0.5-0.5-0.8-1.2-0.8-1.9
		c0-1.7,1-2.7,3-2.9l2.7-0.4c0-1.5-0.6-2.3-1.9-2.3c-1.1,0-2.1,0.4-2.9,1.1v-1.5c0.9-0.6,2-0.9,3.1-0.8c2.1,0,3.2,1.1,3.2,3.4
		L738.4,3203.7z M736.9,3199.1l-2.2,0.3c-0.5,0-1.1,0.2-1.5,0.5c-0.4,0.3-0.6,0.8-0.5,1.3c0,0.4,0.2,0.8,0.5,1.1
		c0.4,0.3,0.8,0.4,1.3,0.4c0.7,0,1.3-0.3,1.8-0.8c0.5-0.5,0.7-1.2,0.7-1.9V3199.1z M747.2,3203.3c-0.7,0.4-1.6,0.6-2.5,0.6
		c-1.2,0-2.3-0.4-3.1-1.3c-0.8-0.9-1.2-2.1-1.2-3.2c-0.1-1.3,0.4-2.6,1.3-3.6c0.9-0.9,2.1-1.4,3.4-1.3c0.7,0,1.4,0.1,2.1,0.4v1.5
		c-0.6-0.5-1.4-0.7-2.1-0.7c-0.9,0-1.7,0.3-2.3,1c-0.6,0.7-0.9,1.7-0.9,2.6c-0.1,0.9,0.2,1.8,0.8,2.5c0.6,0.6,1.4,1,2.2,0.9
		c0.8,0,1.6-0.3,2.2-0.8L747.2,3203.3z M750.1,3192.4c-0.2,0-0.5-0.1-0.7-0.3c-0.2-0.2-0.3-0.4-0.3-0.7c0-0.5,0.4-0.9,0.9-0.9
		c0,0,0,0,0,0c0.3,0,0.5,0.1,0.7,0.3c0.4,0.4,0.4,1,0,1.3c0,0,0,0,0,0C750.6,3192.3,750.4,3192.4,750.1,3192.4L750.1,3192.4z
		 M750.8,3203.7h-1.4v-9h1.4L750.8,3203.7z M757.5,3203.9c-1.2,0.1-2.4-0.4-3.2-1.3c-0.8-0.9-1.2-2.1-1.2-3.3
		c-0.1-1.3,0.4-2.6,1.2-3.5c0.9-0.9,2.1-1.3,3.3-1.3c1.2-0.1,2.3,0.4,3.1,1.2c0.8,1,1.2,2.2,1.1,3.4c0.1,1.3-0.4,2.5-1.2,3.4
		C759.9,3203.5,758.7,3203.9,757.5,3203.9L757.5,3203.9z M757.6,3195.7c-0.8,0-1.7,0.3-2.2,0.9c-0.6,0.7-0.9,1.7-0.8,2.6
		c-0.1,0.9,0.2,1.8,0.8,2.5c0.6,0.6,1.4,1,2.2,0.9c0.8,0,1.6-0.3,2.1-0.9c0.5-0.7,0.8-1.7,0.8-2.6c0.1-0.9-0.2-1.8-0.8-2.6
		C759.2,3196,758.4,3195.6,757.6,3195.7L757.6,3195.7z M759.7,3190.1l-2.3,2.9h-1.1l2-2.9H759.7z M771.8,3203.7h-1.4v-5.1
		c0-1.9-0.7-2.9-2.1-2.9c-0.7,0-1.3,0.3-1.8,0.8c-0.5,0.6-0.7,1.3-0.7,2.1v5.1h-1.4v-9h1.4v1.5h0c0.6-1.1,1.7-1.7,3-1.7
		c0.9-0.1,1.7,0.3,2.3,1c0.6,0.8,0.8,1.8,0.8,2.8L771.8,3203.7z"/>
	<path id="Trazado_191518" class="st14" d="M847.5,3079.2h-1.8l-6.5-10c-0.2-0.2-0.3-0.5-0.4-0.8h-0.1c0.1,0.6,0.1,1.2,0.1,1.7v9.1
		h-1.5v-12.6h1.9l6.3,9.9c0.3,0.4,0.4,0.7,0.5,0.8h0c-0.1-0.6-0.1-1.2-0.1-1.9v-8.9h1.5V3079.2z M851.4,3067.9
		c-0.2,0-0.5-0.1-0.7-0.3c-0.2-0.2-0.3-0.4-0.3-0.7c0-0.3,0.1-0.5,0.3-0.7c0.2-0.2,0.4-0.3,0.7-0.3c0.3,0,0.5,0.1,0.7,0.3
		c0.2,0.2,0.3,0.4,0.3,0.7c0,0.2-0.1,0.5-0.3,0.7C851.9,3067.8,851.6,3067.9,851.4,3067.9L851.4,3067.9z M852.1,3079.2h-1.4v-9h1.4
		V3079.2z M862.1,3070.2l-3.6,9h-1.4l-3.4-9h1.6l2.3,6.5c0.2,0.4,0.3,0.8,0.3,1.3h0c0.1-0.4,0.1-0.8,0.3-1.2l2.4-6.6H862.1z
		 M870.7,3075.1h-6.4c0,0.8,0.3,1.7,0.8,2.3c0.6,0.6,1.3,0.9,2.1,0.8c1,0,2-0.4,2.8-1v1.4c-0.9,0.6-2,0.9-3.1,0.9
		c-1.1,0.1-2.2-0.4-3-1.2c-0.8-1-1.2-2.2-1.1-3.5c-0.1-1.3,0.4-2.5,1.2-3.4c0.7-0.9,1.8-1.3,3-1.3c1-0.1,2,0.4,2.7,1.1
		c0.7,0.9,1,2,1,3.2L870.7,3075.1z M869.2,3073.9c0-0.7-0.2-1.4-0.6-1.9c-0.4-0.5-1-0.7-1.7-0.7c-0.7,0-1.3,0.3-1.7,0.7
		c-0.5,0.5-0.8,1.2-0.9,1.9L869.2,3073.9z M874.3,3079.2h-1.4v-13.3h1.4V3079.2z M889.8,3079.2h-1.4v-1.5h0
		c-0.6,1.1-1.8,1.8-3.1,1.7c-1,0-2-0.4-2.7-1.2c-0.7-0.9-1.1-2.1-1-3.3c-0.1-1.3,0.3-2.6,1.1-3.6c0.7-0.9,1.8-1.4,3-1.3
		c1.1-0.1,2.2,0.5,2.7,1.5h0v-5.6h1.4V3079.2z M888.4,3075.2v-1.3c0-0.7-0.2-1.4-0.7-1.8c-0.5-0.5-1.1-0.8-1.8-0.8
		c-0.8,0-1.6,0.3-2.1,1c-0.5,0.8-0.8,1.7-0.8,2.7c-0.1,0.9,0.2,1.7,0.7,2.5c0.5,0.6,1.2,0.9,1.9,0.9c0.8,0,1.5-0.3,2-0.9
		C888.2,3076.7,888.4,3076,888.4,3075.2z M900,3075.1h-6.4c0,0.8,0.3,1.7,0.8,2.3c0.6,0.6,1.3,0.9,2.1,0.8c1,0,2-0.4,2.8-1v1.4
		c-0.9,0.6-2,0.9-3.1,0.9c-1.1,0.1-2.2-0.4-3-1.2c-0.8-1-1.2-2.2-1.1-3.5c-0.1-1.3,0.4-2.5,1.2-3.4c0.7-0.9,1.8-1.3,3-1.3
		c1-0.1,2,0.4,2.7,1.1c0.7,0.9,1,2,1,3.2L900,3075.1z M898.5,3073.9c0-0.7-0.2-1.4-0.6-1.9c-0.4-0.5-1-0.7-1.7-0.7
		c-0.7,0-1.3,0.3-1.7,0.7c-0.5,0.5-0.8,1.2-0.9,1.9L898.5,3073.9z M843.3,3100.4c-0.7,0.4-1.6,0.6-2.5,0.6c-1.2,0-2.3-0.4-3.1-1.3
		c-0.8-0.9-1.2-2.1-1.2-3.2c-0.1-1.3,0.4-2.6,1.3-3.6c0.9-0.9,2.1-1.4,3.4-1.3c0.7,0,1.4,0.1,2.1,0.4v1.5c-0.6-0.5-1.4-0.7-2.1-0.7
		c-0.9,0-1.7,0.3-2.3,1c-0.6,0.7-0.9,1.7-0.9,2.6c-0.1,0.9,0.2,1.8,0.8,2.5c0.6,0.6,1.4,1,2.2,0.9c0.8,0,1.6-0.3,2.2-0.8
		L843.3,3100.4z M851.9,3100.8h-1.4v-1.4h0c-0.5,1-1.6,1.7-2.8,1.6c-0.8,0-1.5-0.2-2.1-0.7c-0.5-0.5-0.8-1.2-0.8-1.9
		c0-1.7,1-2.7,3-2.9l2.7-0.4c0-1.5-0.6-2.3-1.9-2.3c-1.1,0-2.1,0.4-2.9,1.1v-1.5c0.9-0.6,2-0.9,3.1-0.8c2.1,0,3.2,1.1,3.2,3.4
		L851.9,3100.8z M850.5,3096.3l-2.2,0.3c-0.5,0-1.1,0.2-1.5,0.5c-0.4,0.3-0.6,0.8-0.5,1.3c0,0.4,0.2,0.8,0.5,1.1
		c0.3,0.3,0.8,0.4,1.2,0.4c0.7,0,1.3-0.3,1.8-0.8c0.5-0.5,0.7-1.2,0.7-1.9L850.5,3096.3z M856.1,3099.5L856.1,3099.5l0,5.4h-1.4
		v-13.1h1.4v1.6h0c0.6-1.1,1.8-1.8,3.1-1.8c1-0.1,2.1,0.4,2.7,1.2c0.7,0.9,1,2.1,1,3.2c0.1,1.3-0.3,2.6-1.1,3.6
		c-0.7,0.9-1.8,1.4-3,1.4C857.7,3101.1,856.7,3100.5,856.1,3099.5z M856.1,3095.9v1.3c0,0.7,0.2,1.4,0.7,1.9c1,1,2.6,1,3.7,0
		c0.1-0.1,0.2-0.2,0.2-0.3c0.5-0.8,0.8-1.8,0.7-2.8c0-0.8-0.2-1.7-0.7-2.4c-0.5-0.6-1.2-0.9-1.9-0.9c-0.8,0-1.5,0.3-2,0.9
		C856.3,3094.3,856.1,3095.1,856.1,3095.9L856.1,3095.9z M871.7,3100.8h-1.4v-1.4h0c-0.5,1-1.6,1.7-2.8,1.6c-0.8,0-1.5-0.2-2.1-0.7
		c-0.5-0.5-0.8-1.2-0.8-1.9c0-1.7,1-2.7,3-2.9l2.7-0.4c0-1.5-0.6-2.3-1.9-2.3c-1.1,0-2.1,0.4-2.9,1.1v-1.5c0.9-0.6,2-0.9,3.1-0.8
		c2.1,0,3.2,1.1,3.2,3.4L871.7,3100.8z M870.2,3096.3l-2.2,0.3c-0.5,0-1.1,0.2-1.5,0.5c-0.4,0.3-0.6,0.8-0.5,1.3
		c0,0.4,0.2,0.8,0.5,1.1c0.4,0.3,0.8,0.4,1.3,0.4c0.7,0,1.3-0.3,1.8-0.8c0.5-0.5,0.7-1.2,0.7-1.9V3096.3z M880.5,3100.4
		c-0.7,0.4-1.6,0.6-2.5,0.6c-1.2,0-2.3-0.4-3.1-1.3c-0.8-0.9-1.2-2.1-1.2-3.2c-0.1-1.3,0.4-2.6,1.3-3.6c0.9-0.9,2.1-1.4,3.4-1.3
		c0.7,0,1.4,0.1,2.1,0.4v1.5c-0.6-0.5-1.4-0.7-2.1-0.7c-0.9,0-1.7,0.3-2.3,1c-0.6,0.7-0.9,1.7-0.9,2.6c-0.1,0.9,0.2,1.8,0.8,2.5
		c0.6,0.6,1.4,1,2.2,0.9c0.8,0,1.6-0.3,2.2-0.8L880.5,3100.4z M883.4,3089.5c-0.2,0-0.5-0.1-0.7-0.3c-0.2-0.2-0.3-0.4-0.3-0.7
		c0-0.5,0.4-0.9,0.9-0.9c0,0,0,0,0,0c0.3,0,0.5,0.1,0.7,0.3c0.4,0.4,0.4,1,0,1.3c0,0,0,0,0,0
		C883.9,3089.4,883.7,3089.5,883.4,3089.5z M884.1,3100.8h-1.4v-9h1.4L884.1,3100.8z M894.7,3100.8h-1.4v-1.5h0
		c-0.6,1.1-1.8,1.8-3.1,1.7c-1,0-2-0.4-2.7-1.2c-0.7-0.9-1.1-2.1-1-3.3c-0.1-1.3,0.3-2.6,1.1-3.6c0.7-0.9,1.8-1.4,3-1.3
		c1.1-0.1,2.2,0.5,2.7,1.5h0v-5.6h1.4L894.7,3100.8z M893.3,3096.8v-1.3c0-0.7-0.2-1.4-0.7-1.8c-0.5-0.5-1.1-0.8-1.8-0.8
		c-0.8,0-1.6,0.3-2.1,1c-0.5,0.8-0.8,1.7-0.8,2.7c0,0.9,0.2,1.7,0.7,2.5c0.5,0.6,1.2,0.9,1.9,0.9c0.8,0,1.5-0.3,2-0.9
		C893.1,3098.3,893.3,3097.5,893.3,3096.8L893.3,3096.8z M904.1,3100.8h-1.4v-1.4h0c-0.5,1-1.6,1.7-2.8,1.6c-0.8,0-1.5-0.2-2.1-0.7
		c-0.5-0.5-0.8-1.2-0.8-1.9c0-1.7,1-2.7,3-2.9l2.7-0.4c0-1.5-0.6-2.3-1.9-2.3c-1.1,0-2.1,0.4-2.9,1.1v-1.5c0.9-0.6,2-0.9,3.1-0.8
		c2.1,0,3.2,1.1,3.2,3.4L904.1,3100.8z M902.7,3096.3l-2.2,0.3c-0.5,0-1.1,0.2-1.5,0.5c-0.4,0.3-0.6,0.8-0.5,1.3
		c0,0.4,0.2,0.8,0.5,1.1c0.4,0.3,0.8,0.4,1.3,0.4c0.7,0,1.3-0.3,1.8-0.8c0.5-0.5,0.7-1.2,0.7-1.9V3096.3z M914.5,3100.8h-1.4v-1.5h0
		c-0.6,1.1-1.8,1.8-3.1,1.7c-1,0-2-0.4-2.7-1.2c-0.7-0.9-1.1-2.1-1-3.3c-0.1-1.3,0.3-2.6,1.1-3.6c0.7-0.9,1.8-1.4,3-1.3
		c1.1-0.1,2.2,0.5,2.7,1.5h0v-5.6h1.4L914.5,3100.8z M913.1,3096.8v-1.3c0-0.7-0.2-1.4-0.7-1.8c-0.5-0.5-1.1-0.8-1.8-0.8
		c-0.8,0-1.6,0.3-2.1,1c-0.5,0.8-0.8,1.7-0.8,2.7c-0.1,0.9,0.2,1.8,0.7,2.5c0.5,0.6,1.2,0.9,1.9,0.9c0.8,0,1.5-0.3,2-0.9
		C912.8,3098.3,913.1,3097.6,913.1,3096.8z M929.3,3097.3c0,0.5-0.1,1.1-0.3,1.6c-0.2,0.5-0.5,0.9-0.9,1.2c-0.4,0.3-0.9,0.6-1.4,0.8
		c-0.6,0.2-1.2,0.3-1.8,0.3c-1,0.1-2-0.2-2.9-0.7v-1.6c0.8,0.7,1.9,1,2.9,1c0.4,0,0.8-0.1,1.2-0.2c0.3-0.1,0.6-0.3,0.9-0.5
		c0.3-0.2,0.5-0.5,0.6-0.8c0.1-0.3,0.2-0.7,0.2-1c0-1.6-1.2-2.5-3.5-2.5h-1v-1.2h1c2.1,0,3.1-0.8,3.1-2.3c0-1.4-0.8-2.1-2.4-2.1
		c-0.9,0-1.8,0.3-2.5,0.9v-1.4c0.9-0.5,1.9-0.7,2.9-0.7c0.5,0,1,0.1,1.4,0.2c0.4,0.1,0.8,0.3,1.1,0.6c0.3,0.3,0.5,0.6,0.7,0.9
		c0.2,0.4,0.3,0.8,0.2,1.2c0.1,1.5-1,2.9-2.5,3.2v0c0.4,0,0.8,0.1,1.2,0.3c0.3,0.2,0.7,0.4,0.9,0.6c0.3,0.3,0.5,0.6,0.6,0.9
		C929.2,3096.5,929.3,3096.9,929.3,3097.3L929.3,3097.3z M932.6,3093.6c-0.3,0-0.5-0.1-0.7-0.3c-0.2-0.2-0.3-0.4-0.3-0.7
		c0-0.3,0.1-0.5,0.3-0.7c0.2-0.2,0.4-0.3,0.7-0.3c0.3,0,0.5,0.1,0.7,0.3c0.2,0.2,0.3,0.4,0.3,0.7c0,0.3-0.1,0.5-0.3,0.7
		C933.1,3093.5,932.8,3093.6,932.6,3093.6L932.6,3093.6z M932.6,3101c-0.3,0-0.5-0.1-0.7-0.3c-0.2-0.2-0.3-0.4-0.3-0.7
		c0-0.3,0.1-0.5,0.3-0.7c0.2-0.2,0.4-0.3,0.7-0.3c0.3,0,0.5,0.1,0.7,0.3c0.2,0.2,0.3,0.4,0.3,0.7c0,0.3-0.1,0.5-0.3,0.7
		C933.1,3100.9,932.8,3101,932.6,3101z M844.9,3122.4h-1.4v-1.5h0c-0.6,1.1-1.8,1.8-3.1,1.7c-1,0-2-0.4-2.7-1.2
		c-0.7-0.9-1.1-2.1-1-3.3c-0.1-1.3,0.3-2.6,1.1-3.6c0.7-0.9,1.8-1.4,3-1.3c1.1-0.1,2.2,0.5,2.7,1.5h0v-5.6h1.4V3122.4z
		 M843.4,3118.4v-1.3c0-0.7-0.2-1.4-0.7-1.8c-0.5-0.5-1.1-0.8-1.8-0.8c-0.8,0-1.6,0.3-2.1,1c-0.5,0.8-0.8,1.7-0.8,2.7
		c-0.1,0.9,0.2,1.7,0.7,2.5c0.5,0.6,1.2,0.9,1.9,0.9c0.8,0,1.5-0.3,2-0.9C843.2,3119.9,843.4,3119.2,843.4,3118.4z M855,3118.3h-6.4
		c0,0.8,0.3,1.7,0.8,2.3c0.6,0.6,1.3,0.9,2.1,0.8c1,0,2-0.4,2.8-1v1.4c-0.9,0.6-2,0.9-3.1,0.9c-1.1,0.1-2.2-0.4-3-1.2
		c-0.8-1-1.2-2.2-1.1-3.4c-0.1-1.3,0.4-2.5,1.2-3.4c0.7-0.9,1.8-1.3,3-1.3c1-0.1,2,0.4,2.7,1.1c0.7,0.9,1,2,1,3.2L855,3118.3z
		 M853.5,3117.1c0-0.7-0.2-1.4-0.6-1.9c-0.4-0.5-1-0.7-1.6-0.7c-0.7,0-1.3,0.3-1.7,0.7c-0.5,0.5-0.8,1.2-0.9,1.9H853.5z
		 M861.6,3110.4c-0.3-0.2-0.6-0.2-1-0.2c-1,0-1.5,0.6-1.5,1.9v1.4h2.1v1.2h-2.1v7.8h-1.4v-7.8h-1.5v-1.2h1.5v-1.5
		c0-0.8,0.3-1.6,0.8-2.2c0.5-0.5,1.3-0.8,2-0.8c0.4,0,0.7,0,1,0.2L861.6,3110.4z M863.6,3111.1c-0.2,0-0.5-0.1-0.7-0.3
		c-0.2-0.2-0.3-0.4-0.3-0.7c0-0.5,0.4-0.9,0.9-0.9c0,0,0,0,0,0c0.3,0,0.5,0.1,0.7,0.3c0.4,0.4,0.4,1,0,1.3c0,0,0,0,0,0
		C864.1,3111,863.8,3111.1,863.6,3111.1L863.6,3111.1z M864.3,3122.4h-1.4v-9h1.4L864.3,3122.4z M874.6,3122.4h-1.4v-5.1
		c0-1.9-0.7-2.9-2.1-2.9c-0.7,0-1.3,0.3-1.8,0.8c-0.5,0.6-0.7,1.3-0.7,2.1v5.1h-1.4v-9h1.4v1.5h0c0.6-1.1,1.7-1.7,3-1.7
		c0.9-0.1,1.7,0.3,2.3,1c0.6,0.8,0.8,1.8,0.8,2.8L874.6,3122.4z M878.1,3111.1c-0.2,0-0.5-0.1-0.7-0.3c-0.2-0.2-0.3-0.4-0.3-0.7
		c0-0.5,0.4-0.9,0.9-0.9c0,0,0,0,0,0c0.3,0,0.5,0.1,0.7,0.3c0.4,0.4,0.4,1,0,1.3c0,0,0,0,0,0C878.6,3111,878.4,3111.1,878.1,3111.1z
		 M878.8,3122.4h-1.4v-9h1.4L878.8,3122.4z M886.4,3114.9c-0.3-0.2-0.7-0.3-1.1-0.3c-0.6,0-1.2,0.3-1.5,0.9
		c-0.4,0.7-0.7,1.5-0.6,2.4v4.6h-1.4v-9h1.4v1.9h0c0.2-0.6,0.5-1.1,0.9-1.5c0.4-0.3,0.9-0.5,1.4-0.5c0.3,0,0.6,0,0.9,0.1
		L886.4,3114.9z"/>
	<path id="Trazado_191519" class="st14" d="M1201.5,2908.6h-1.8l-6.5-10c-0.2-0.2-0.3-0.5-0.4-0.8h-0.1c0.1,0.6,0.1,1.2,0.1,1.7v9.1
		h-1.5V2896h1.9l6.3,9.9c0.3,0.4,0.4,0.7,0.5,0.8h0c-0.1-0.6-0.1-1.2-0.1-1.9v-8.9h1.5V2908.6z M1205.3,2897.3
		c-0.2,0-0.5-0.1-0.7-0.3c-0.2-0.2-0.3-0.4-0.3-0.7c0-0.3,0.1-0.5,0.3-0.7c0.2-0.2,0.4-0.3,0.7-0.3c0.3,0,0.5,0.1,0.7,0.3
		c0.2,0.2,0.3,0.4,0.3,0.7c0,0.2-0.1,0.5-0.3,0.7C1205.8,2897.2,1205.6,2897.3,1205.3,2897.3L1205.3,2897.3z M1206,2908.6h-1.4v-9
		h1.4V2908.6z M1216,2899.6l-3.6,9h-1.4l-3.4-9h1.6l2.3,6.5c0.2,0.4,0.3,0.8,0.3,1.3h0c0.1-0.4,0.1-0.8,0.3-1.2l2.4-6.6H1216z
		 M1224.6,2904.4h-6.4c0,0.8,0.3,1.7,0.8,2.3c0.6,0.6,1.3,0.9,2.1,0.8c1,0,2-0.4,2.8-1v1.4c-0.9,0.6-2,0.9-3.1,0.9
		c-1.1,0.1-2.2-0.4-3-1.2c-0.8-1-1.2-2.2-1.1-3.5c-0.1-1.3,0.4-2.5,1.2-3.4c0.7-0.9,1.8-1.3,3-1.3c1-0.1,2,0.4,2.7,1.1
		c0.7,0.9,1,2,1,3.2L1224.6,2904.4z M1223.1,2903.2c0-0.7-0.2-1.4-0.6-1.9c-0.4-0.5-1-0.7-1.6-0.7c-0.7,0-1.3,0.3-1.7,0.7
		c-0.5,0.5-0.8,1.2-0.9,1.9L1223.1,2903.2z M1228.2,2908.6h-1.4v-13.3h1.4V2908.6z M1243.8,2908.6h-1.4v-1.5h0
		c-0.6,1.1-1.8,1.8-3.1,1.7c-1,0-2-0.4-2.7-1.2c-0.7-0.9-1.1-2.1-1-3.3c-0.1-1.3,0.3-2.6,1.1-3.6c0.7-0.9,1.8-1.4,3-1.3
		c1.1-0.1,2.2,0.5,2.7,1.5h0v-5.6h1.4V2908.6z M1242.3,2904.5v-1.3c0-0.7-0.2-1.4-0.7-1.8c-0.5-0.5-1.1-0.8-1.8-0.8
		c-0.8,0-1.6,0.3-2.1,1c-0.5,0.8-0.8,1.7-0.8,2.7c-0.1,0.9,0.2,1.7,0.7,2.5c0.5,0.6,1.2,0.9,1.9,0.9c0.8,0,1.5-0.3,2-0.9
		C1242.1,2906.1,1242.3,2905.3,1242.3,2904.5z M1253.9,2904.4h-6.4c0,0.8,0.3,1.7,0.8,2.3c0.6,0.6,1.3,0.9,2.1,0.8c1,0,2-0.4,2.8-1
		v1.4c-0.9,0.6-2,0.9-3.1,0.9c-1.1,0.1-2.2-0.4-3-1.2c-0.8-1-1.2-2.2-1.1-3.5c-0.1-1.3,0.4-2.5,1.2-3.4c0.7-0.9,1.8-1.3,3-1.3
		c1-0.1,2,0.4,2.7,1.1c0.7,0.9,1,2,1,3.2L1253.9,2904.4z M1252.4,2903.2c0-0.7-0.2-1.4-0.6-1.9c-0.4-0.5-1-0.7-1.7-0.7
		c-0.7,0-1.3,0.3-1.7,0.7c-0.5,0.5-0.8,1.2-0.9,1.9L1252.4,2903.2z M1197.2,2929.8c-0.7,0.4-1.6,0.6-2.5,0.6c-1.2,0-2.3-0.4-3.1-1.3
		c-0.8-0.9-1.2-2.1-1.2-3.2c-0.1-1.3,0.4-2.6,1.3-3.6c0.9-0.9,2.1-1.4,3.4-1.3c0.7,0,1.4,0.1,2.1,0.4v1.5c-0.6-0.5-1.4-0.7-2.1-0.7
		c-0.9,0-1.7,0.3-2.3,1c-0.6,0.7-0.9,1.7-0.9,2.6c-0.1,0.9,0.2,1.8,0.8,2.5c0.6,0.6,1.4,1,2.2,0.9c0.8,0,1.6-0.3,2.2-0.8
		L1197.2,2929.8z M1205.9,2930.2h-1.4v-1.4h0c-0.5,1-1.6,1.7-2.8,1.6c-0.8,0-1.5-0.2-2.1-0.7c-0.5-0.5-0.8-1.2-0.8-1.9
		c0-1.7,1-2.7,3-2.9l2.7-0.4c0-1.5-0.6-2.3-1.9-2.3c-1.1,0-2.1,0.4-2.9,1.1v-1.5c0.9-0.6,2-0.9,3.1-0.8c2.1,0,3.2,1.1,3.2,3.4
		L1205.9,2930.2z M1204.4,2925.6l-2.2,0.3c-0.5,0-1.1,0.2-1.5,0.5c-0.4,0.3-0.6,0.8-0.5,1.3c0,0.4,0.2,0.8,0.5,1.1
		c0.3,0.3,0.8,0.4,1.2,0.4c0.7,0,1.3-0.3,1.8-0.8c0.5-0.5,0.7-1.2,0.7-1.9L1204.4,2925.6z M1210,2928.9L1210,2928.9l0,5.4h-1.4
		v-13.1h1.4v1.6h0c0.6-1.1,1.8-1.8,3.1-1.8c1-0.1,2.1,0.4,2.7,1.2c0.7,0.9,1,2.1,1,3.2c0.1,1.3-0.3,2.6-1.1,3.6
		c-0.7,0.9-1.8,1.4-3,1.4C1211.6,2930.4,1210.6,2929.8,1210,2928.9z M1210,2925.2v1.3c0,0.7,0.2,1.4,0.7,1.9c1,1,2.6,1,3.7,0
		c0.1-0.1,0.2-0.2,0.2-0.3c0.5-0.8,0.8-1.8,0.7-2.8c0-0.8-0.2-1.7-0.7-2.4c-0.5-0.6-1.2-0.9-1.9-0.9c-0.8,0-1.5,0.3-2,0.9
		C1210.3,2923.7,1210,2924.4,1210,2925.2L1210,2925.2z M1225.6,2930.2h-1.4v-1.4h0c-0.5,1-1.6,1.7-2.8,1.6c-0.8,0-1.5-0.2-2.1-0.7
		c-0.5-0.5-0.8-1.2-0.8-1.9c0-1.7,1-2.7,3-2.9l2.7-0.4c0-1.5-0.6-2.3-1.9-2.3c-1.1,0-2.1,0.4-2.9,1.1v-1.5c0.9-0.6,2-0.9,3.1-0.8
		c2.1,0,3.2,1.1,3.2,3.4L1225.6,2930.2z M1224.2,2925.6l-2.2,0.3c-0.5,0-1.1,0.2-1.5,0.5c-0.4,0.3-0.6,0.8-0.5,1.3
		c0,0.4,0.2,0.8,0.5,1.1c0.4,0.3,0.8,0.4,1.3,0.4c0.7,0,1.3-0.3,1.8-0.8c0.5-0.5,0.7-1.2,0.7-1.9V2925.6z M1234.4,2929.8
		c-0.7,0.4-1.6,0.6-2.5,0.6c-1.2,0-2.3-0.4-3.1-1.3c-0.8-0.9-1.2-2.1-1.2-3.2c-0.1-1.3,0.4-2.6,1.3-3.6c0.9-0.9,2.1-1.4,3.4-1.3
		c0.7,0,1.4,0.1,2.1,0.4v1.5c-0.6-0.5-1.4-0.7-2.1-0.7c-0.9,0-1.7,0.3-2.3,1c-0.6,0.7-0.9,1.7-0.9,2.6c-0.1,0.9,0.2,1.8,0.8,2.5
		c0.6,0.6,1.4,1,2.2,0.9c0.8,0,1.6-0.3,2.2-0.8L1234.4,2929.8z M1237.4,2918.9c-0.2,0-0.5-0.1-0.7-0.3c-0.2-0.2-0.3-0.4-0.3-0.7
		c0-0.5,0.4-0.9,0.9-0.9c0,0,0,0,0,0c0.3,0,0.5,0.1,0.7,0.3c0.4,0.4,0.4,1,0,1.3c0,0,0,0,0,0
		C1237.9,2918.8,1237.6,2918.9,1237.4,2918.9z M1238.1,2930.2h-1.4v-9h1.4L1238.1,2930.2z M1248.7,2930.2h-1.4v-1.5h0
		c-0.6,1.1-1.8,1.8-3.1,1.7c-1,0-2-0.4-2.7-1.2c-0.7-0.9-1.1-2.1-1-3.3c-0.1-1.3,0.3-2.6,1.1-3.6c0.7-0.9,1.8-1.4,3-1.3
		c1.1-0.1,2.2,0.5,2.7,1.5h0v-5.6h1.4L1248.7,2930.2z M1247.2,2926.1v-1.3c0-0.7-0.2-1.4-0.7-1.8c-0.5-0.5-1.1-0.8-1.8-0.8
		c-0.8,0-1.6,0.3-2.1,1c-0.5,0.8-0.8,1.7-0.8,2.7c0,0.9,0.2,1.7,0.7,2.5c0.5,0.6,1.2,0.9,1.9,0.9c0.8,0,1.5-0.3,2-0.9
		C1247,2927.7,1247.3,2926.9,1247.2,2926.1L1247.2,2926.1z M1258,2930.2h-1.4v-1.4h0c-0.5,1-1.6,1.7-2.8,1.6c-0.8,0-1.5-0.2-2.1-0.7
		c-0.5-0.5-0.8-1.2-0.8-1.9c0-1.7,1-2.7,3-2.9l2.7-0.4c0-1.5-0.6-2.3-1.9-2.3c-1.1,0-2.1,0.4-2.9,1.1v-1.5c0.9-0.6,2-0.9,3.1-0.8
		c2.1,0,3.2,1.1,3.2,3.4L1258,2930.2z M1256.6,2925.6l-2.2,0.3c-0.5,0-1.1,0.2-1.5,0.5c-0.4,0.3-0.6,0.8-0.5,1.3
		c0,0.4,0.2,0.8,0.5,1.1c0.4,0.3,0.8,0.4,1.3,0.4c0.7,0,1.3-0.3,1.8-0.8c0.5-0.5,0.7-1.2,0.7-1.9V2925.6z M1268.4,2930.2h-1.4v-1.5
		h0c-0.6,1.1-1.8,1.8-3.1,1.7c-1,0-2-0.4-2.7-1.2c-0.7-0.9-1.1-2.1-1-3.3c-0.1-1.3,0.3-2.6,1.1-3.6c0.7-0.9,1.8-1.4,3-1.3
		c1.1-0.1,2.2,0.5,2.7,1.5h0v-5.6h1.4L1268.4,2930.2z M1267,2926.1v-1.3c0-0.7-0.2-1.4-0.7-1.8c-0.5-0.5-1.1-0.8-1.8-0.8
		c-0.8,0-1.6,0.3-2.1,1c-0.5,0.8-0.8,1.7-0.8,2.7c-0.1,0.9,0.2,1.8,0.7,2.5c0.5,0.6,1.2,0.9,1.9,0.9c0.8,0,1.5-0.3,2-0.9
		C1266.7,2927.7,1267,2926.9,1267,2926.1z M1283.3,2926.3c0,0.6-0.1,1.1-0.3,1.7c-0.2,0.5-0.5,0.9-0.9,1.3c-0.4,0.4-0.9,0.6-1.4,0.8
		c-0.6,0.2-1.2,0.3-1.8,0.3c-0.9,0.1-1.8-0.1-2.6-0.5v-1.5c0.8,0.5,1.7,0.8,2.6,0.8c0.4,0,0.8-0.1,1.2-0.2c0.3-0.1,0.7-0.3,0.9-0.6
		c0.3-0.2,0.5-0.5,0.6-0.9c0.1-0.4,0.2-0.7,0.2-1.1c0-0.7-0.3-1.4-0.8-1.9c-0.7-0.5-1.5-0.8-2.4-0.7c-0.2,0-0.3,0-0.5,0
		c-0.2,0-0.4,0-0.6,0c-0.2,0-0.4,0-0.5,0s-0.3,0-0.5,0l0.4-6.3h5.8v1.3h-4.6l-0.3,3.7c0.2,0,0.4,0,0.6,0c0.2,0,0.4,0,0.6,0
		c0.6,0,1.2,0.1,1.8,0.3c0.5,0.2,0.9,0.4,1.3,0.8c0.4,0.3,0.7,0.7,0.8,1.2C1283.2,2925.3,1283.3,2925.8,1283.3,2926.3L1283.3,2926.3
		z M1286.5,2922.9c-0.3,0-0.5-0.1-0.7-0.3c-0.2-0.2-0.3-0.4-0.3-0.7c0-0.3,0.1-0.5,0.3-0.7c0.2-0.2,0.4-0.3,0.7-0.3
		c0.3,0,0.5,0.1,0.7,0.3c0.2,0.2,0.3,0.4,0.3,0.7c0,0.3-0.1,0.5-0.3,0.7C1287,2922.8,1286.7,2922.9,1286.5,2922.9z M1286.5,2930.4
		c-0.3,0-0.5-0.1-0.7-0.3c-0.2-0.2-0.3-0.4-0.3-0.7c0-0.3,0.1-0.5,0.3-0.7c0.2-0.2,0.4-0.3,0.7-0.3c0.3,0,0.5,0.1,0.7,0.3
		c0.2,0.2,0.3,0.4,0.3,0.7c0,0.3-0.1,0.5-0.3,0.7C1287,2930.3,1286.7,2930.4,1286.5,2930.4L1286.5,2930.4z M1194.9,2952
		c-1.2,0.1-2.4-0.4-3.2-1.3c-0.8-0.9-1.2-2.1-1.2-3.3c-0.1-1.3,0.4-2.6,1.2-3.5c0.9-0.9,2.1-1.3,3.3-1.3c1.2-0.1,2.3,0.4,3.1,1.2
		c0.8,1,1.2,2.2,1.1,3.4c0.1,1.3-0.4,2.5-1.2,3.4C1197.3,2951.6,1196.1,2952,1194.9,2952z M1195,2943.8c-0.8,0-1.7,0.3-2.2,0.9
		c-0.6,0.7-0.9,1.7-0.8,2.6c-0.1,0.9,0.2,1.8,0.8,2.5c0.6,0.6,1.4,1,2.2,0.9c0.8,0,1.6-0.3,2.1-0.9c0.5-0.7,0.8-1.7,0.8-2.6
		c0.1-0.9-0.2-1.8-0.8-2.6C1196.6,2944.1,1195.8,2943.7,1195,2943.8z M1203.1,2950.5L1203.1,2950.5l0,5.4h-1.4v-13.1h1.4v1.6h0
		c0.6-1.1,1.8-1.8,3.1-1.8c1-0.1,2.1,0.4,2.7,1.2c0.7,0.9,1,2.1,1,3.2c0.1,1.3-0.3,2.6-1.1,3.6c-0.7,0.9-1.8,1.4-3,1.4
		C1204.7,2952,1203.7,2951.4,1203.1,2950.5z M1203.1,2946.9v1.3c0,0.7,0.2,1.4,0.7,1.9c0.5,0.5,1.1,0.8,1.8,0.8c0.8,0,1.6-0.3,2.1-1
		c0.5-0.8,0.8-1.8,0.7-2.8c0-0.8-0.2-1.7-0.7-2.4c-0.5-0.6-1.2-0.9-1.9-0.9c-0.8,0-1.5,0.3-2,0.9
		C1203.3,2945.3,1203.1,2946,1203.1,2946.9L1203.1,2946.9z M1216.4,2951.7c-0.4,0.2-0.9,0.3-1.3,0.3c-1.6,0-2.4-0.9-2.4-2.6v-5.3
		h-1.5v-1.2h1.5v-2.2l1.4-0.5v2.7h2.3v1.2h-2.3v5.1c0,0.5,0.1,0.9,0.3,1.3c0.3,0.3,0.6,0.4,1,0.4c0.3,0,0.7-0.1,0.9-0.3
		L1216.4,2951.7z M1219.1,2940.5c-0.2,0-0.5-0.1-0.7-0.3c-0.2-0.2-0.3-0.4-0.3-0.7c0-0.5,0.4-0.9,0.9-0.9c0,0,0,0,0,0
		c0.3,0,0.5,0.1,0.7,0.3c0.4,0.4,0.4,1,0,1.3c0,0,0,0,0,0C1219.6,2940.4,1219.3,2940.5,1219.1,2940.5L1219.1,2940.5z M1219.8,2951.8
		h-1.4v-9h1.4L1219.8,2951.8z M1235.5,2951.8h-1.4v-5.2c0.1-0.8-0.1-1.5-0.5-2.2c-0.4-0.5-1-0.7-1.6-0.7c-0.6,0-1.2,0.3-1.6,0.8
		c-0.4,0.6-0.7,1.3-0.6,2v5.1h-1.4v-5.3c0-1.8-0.7-2.7-2-2.7c-0.6,0-1.2,0.3-1.6,0.8c-0.4,0.6-0.6,1.3-0.6,2.1v5.1h-1.4v-9h1.4v1.4
		h0c0.5-1,1.6-1.7,2.8-1.6c1.2,0,2.2,0.7,2.5,1.9c0.5-1.2,1.7-1.9,3-1.9c2,0,3,1.2,3,3.7L1235.5,2951.8z M1238.9,2940.5
		c-0.2,0-0.5-0.1-0.7-0.3c-0.2-0.2-0.3-0.4-0.3-0.7c0-0.5,0.4-0.9,0.9-0.9c0,0,0,0,0,0c0.3,0,0.5,0.1,0.7,0.3c0.4,0.4,0.4,1,0,1.3
		c0,0,0,0,0,0C1239.4,2940.4,1239.2,2940.5,1238.9,2940.5L1238.9,2940.5z M1239.6,2951.8h-1.4v-9h1.4L1239.6,2951.8z M1248.8,2943.2
		l-5.3,7.4h5.3v1.2h-7.4v-0.4l5.3-7.3h-4.8v-1.2h6.9L1248.8,2943.2z M1257.1,2951.8h-1.4v-1.4h0c-0.5,1-1.6,1.7-2.8,1.6
		c-0.8,0-1.5-0.2-2.1-0.7c-0.5-0.5-0.8-1.2-0.8-1.9c0-1.7,1-2.7,3-2.9l2.7-0.4c0-1.5-0.6-2.3-1.9-2.3c-1.1,0-2.1,0.4-2.9,1.1v-1.5
		c0.9-0.6,2-0.9,3.1-0.8c2.1,0,3.2,1.1,3.2,3.4L1257.1,2951.8z M1255.7,2947.2l-2.2,0.3c-0.5,0-1.1,0.2-1.5,0.5
		c-0.4,0.3-0.6,0.8-0.5,1.3c0,0.4,0.2,0.8,0.5,1.1c0.4,0.3,0.8,0.4,1.3,0.4c0.7,0,1.3-0.3,1.8-0.8c0.5-0.5,0.7-1.2,0.7-1.9V2947.2z
		 M1266,2951.4c-0.7,0.4-1.6,0.6-2.5,0.6c-1.2,0-2.3-0.4-3.1-1.3c-0.8-0.9-1.2-2.1-1.2-3.2c-0.1-1.3,0.4-2.6,1.3-3.6
		c0.9-0.9,2.1-1.4,3.4-1.3c0.7,0,1.4,0.1,2.1,0.4v1.5c-0.6-0.5-1.4-0.7-2.1-0.7c-0.9,0-1.7,0.3-2.3,1c-0.6,0.7-0.9,1.7-0.9,2.6
		c-0.1,0.9,0.2,1.8,0.8,2.5c0.6,0.6,1.4,1,2.2,0.9c0.8,0,1.6-0.3,2.2-0.8L1266,2951.4z M1268.9,2940.5c-0.2,0-0.5-0.1-0.7-0.3
		c-0.2-0.2-0.3-0.4-0.3-0.7c0-0.5,0.4-0.9,0.9-0.9c0,0,0,0,0,0c0.3,0,0.5,0.1,0.7,0.3c0.4,0.4,0.4,1,0,1.3c0,0,0,0,0,0
		C1269.4,2940.4,1269.2,2940.5,1268.9,2940.5z M1269.6,2951.8h-1.4v-9h1.4L1269.6,2951.8z M1276.3,2952c-1.2,0.1-2.4-0.4-3.2-1.3
		c-0.8-0.9-1.2-2.1-1.2-3.3c-0.1-1.3,0.4-2.6,1.2-3.5c0.9-0.9,2.1-1.3,3.3-1.3c1.2-0.1,2.3,0.4,3.2,1.2c0.8,1,1.2,2.2,1.1,3.4
		c0.1,1.3-0.4,2.5-1.2,3.4C1278.7,2951.6,1277.5,2952,1276.3,2952L1276.3,2952z M1276.4,2943.8c-0.8,0-1.7,0.3-2.2,0.9
		c-0.6,0.7-0.9,1.7-0.8,2.6c-0.1,0.9,0.2,1.8,0.8,2.5c0.6,0.6,1.4,1,2.2,0.9c0.8,0,1.6-0.3,2.1-0.9c0.5-0.7,0.8-1.7,0.8-2.6
		c0.1-0.9-0.2-1.8-0.8-2.6C1278,2944.1,1277.2,2943.7,1276.4,2943.8L1276.4,2943.8z M1278.5,2938.2l-2.3,2.9h-1.1l2-2.9H1278.5z
		 M1290.5,2951.8h-1.4v-5.1c0-1.9-0.7-2.9-2.1-2.9c-0.7,0-1.3,0.3-1.8,0.8c-0.5,0.6-0.7,1.3-0.7,2.1v5.1h-1.4v-9h1.4v1.5h0
		c0.6-1.1,1.7-1.7,3-1.7c0.9-0.1,1.7,0.3,2.3,1c0.6,0.8,0.9,1.8,0.8,2.8V2951.8z"/>
	<path id="Trazado_191520" class="st14" d="M1025.6,2990.6h-1.8l-6.5-10c-0.2-0.2-0.3-0.5-0.4-0.8h-0.1c0.1,0.6,0.1,1.2,0.1,1.7v9.1
		h-1.5V2978h1.9l6.3,9.9c0.3,0.4,0.4,0.7,0.5,0.8h0c-0.1-0.6-0.1-1.2-0.1-1.9v-8.9h1.5V2990.6z M1029.5,2979.3
		c-0.2,0-0.5-0.1-0.7-0.3c-0.2-0.2-0.3-0.4-0.3-0.7c0-0.3,0.1-0.5,0.3-0.7c0.2-0.2,0.4-0.3,0.7-0.3c0.3,0,0.5,0.1,0.7,0.3
		c0.2,0.2,0.3,0.4,0.3,0.7c0,0.2-0.1,0.5-0.3,0.7C1030,2979.2,1029.7,2979.3,1029.5,2979.3L1029.5,2979.3z M1030.2,2990.6h-1.4v-9
		h1.4V2990.6z M1040.2,2981.6l-3.6,9h-1.4l-3.4-9h1.6l2.3,6.5c0.2,0.4,0.3,0.8,0.3,1.3h0c0.1-0.4,0.1-0.8,0.3-1.2l2.4-6.6H1040.2z
		 M1048.8,2986.4h-6.4c0,0.8,0.3,1.7,0.8,2.3c0.6,0.6,1.3,0.9,2.1,0.8c1,0,2-0.4,2.8-1v1.4c-0.9,0.6-2,0.9-3.1,0.9
		c-1.1,0.1-2.2-0.4-3-1.2c-0.8-1-1.2-2.2-1.1-3.5c-0.1-1.3,0.4-2.5,1.2-3.4c0.7-0.9,1.8-1.3,3-1.3c1-0.1,2,0.4,2.7,1.1
		c0.7,0.9,1,2,1,3.2L1048.8,2986.4z M1047.3,2985.2c0-0.7-0.2-1.4-0.6-1.9c-0.4-0.5-1-0.7-1.7-0.7c-0.7,0-1.3,0.3-1.7,0.7
		c-0.5,0.5-0.8,1.2-0.9,1.9L1047.3,2985.2z M1052.4,2990.6h-1.4v-13.3h1.4V2990.6z M1067.9,2990.6h-1.4v-1.5h0
		c-0.6,1.1-1.8,1.8-3.1,1.7c-1,0-2-0.4-2.7-1.2c-0.7-0.9-1.1-2.1-1-3.3c-0.1-1.3,0.3-2.6,1.1-3.6c0.7-0.9,1.8-1.4,3-1.3
		c1.1-0.1,2.2,0.5,2.7,1.5h0v-5.6h1.4V2990.6z M1066.5,2986.5v-1.3c0-0.7-0.2-1.4-0.7-1.8c-0.5-0.5-1.1-0.8-1.8-0.8
		c-0.8,0-1.6,0.3-2.1,1c-0.5,0.8-0.8,1.7-0.8,2.7c-0.1,0.9,0.2,1.7,0.7,2.5c0.5,0.6,1.2,0.9,1.9,0.9c0.8,0,1.5-0.3,2-0.9
		C1066.3,2988.1,1066.5,2987.3,1066.5,2986.5z M1078.1,2986.4h-6.4c0,0.8,0.3,1.7,0.8,2.3c0.6,0.6,1.3,0.9,2.1,0.8c1,0,2-0.4,2.8-1
		v1.4c-0.9,0.6-2,0.9-3.1,0.9c-1.1,0.1-2.2-0.4-3-1.2c-0.8-1-1.2-2.2-1.1-3.5c-0.1-1.3,0.4-2.5,1.2-3.4c0.7-0.9,1.8-1.3,3-1.3
		c1-0.1,2,0.4,2.7,1.1c0.7,0.9,1,2,1,3.2L1078.1,2986.4z M1076.6,2985.2c0-0.7-0.2-1.4-0.6-1.9c-0.4-0.5-1-0.7-1.7-0.7
		c-0.7,0-1.3,0.3-1.7,0.7c-0.5,0.5-0.8,1.2-0.9,1.9L1076.6,2985.2z M1091.3,2990.1c-0.7,0.4-1.6,0.6-2.5,0.6c-1.2,0-2.3-0.4-3.1-1.3
		c-0.8-0.9-1.2-2.1-1.2-3.2c-0.1-1.3,0.4-2.6,1.3-3.6c0.9-0.9,2.1-1.4,3.4-1.3c0.7,0,1.4,0.1,2.1,0.4v1.5c-0.6-0.5-1.4-0.7-2.1-0.7
		c-0.9,0-1.7,0.3-2.3,1c-0.6,0.7-0.9,1.7-0.9,2.6c-0.1,0.9,0.2,1.8,0.8,2.5c0.6,0.6,1.4,0.9,2.2,0.9c0.8,0,1.6-0.3,2.2-0.8V2990.1z
		 M1100,2990.6h-1.4v-1.4h0c-0.5,1-1.6,1.7-2.8,1.6c-0.8,0-1.5-0.2-2.1-0.7c-0.5-0.5-0.8-1.2-0.8-1.9c0-1.7,1-2.7,3-2.9l2.7-0.4
		c0-1.5-0.6-2.3-1.9-2.3c-1.1,0-2.1,0.4-2.9,1.1v-1.5c0.9-0.6,2-0.9,3.1-0.8c2.1,0,3.2,1.1,3.2,3.4L1100,2990.6z M1098.5,2986
		l-2.2,0.3c-0.5,0-1.1,0.2-1.5,0.5c-0.4,0.3-0.6,0.8-0.5,1.3c0,0.4,0.2,0.8,0.5,1.1c0.4,0.3,0.8,0.4,1.3,0.4c0.7,0,1.3-0.3,1.8-0.8
		c0.5-0.5,0.7-1.2,0.7-1.9L1098.5,2986z M1104.2,2989.3L1104.2,2989.3l0,5.4h-1.4v-13.1h1.4v1.6h0c0.6-1.1,1.8-1.8,3.1-1.8
		c1-0.1,2.1,0.4,2.7,1.2c0.7,0.9,1,2.1,1,3.2c0.1,1.3-0.3,2.6-1.1,3.6c-0.7,0.9-1.8,1.4-3,1.4
		C1105.7,2990.8,1104.7,2990.2,1104.2,2989.3z M1104.1,2985.6v1.3c0,0.7,0.2,1.4,0.7,1.9c0.5,0.5,1.1,0.8,1.8,0.8c0.8,0,1.6-0.3,2-1
		c0.5-0.8,0.8-1.8,0.7-2.8c0-0.8-0.2-1.7-0.7-2.4c-0.5-0.6-1.2-0.9-1.9-0.9c-0.8,0-1.5,0.3-2,0.9
		C1104.4,2984,1104.1,2984.8,1104.1,2985.6L1104.1,2985.6z M1119.7,2990.6h-1.4v-1.4h0c-0.5,1-1.6,1.7-2.8,1.6
		c-0.8,0-1.5-0.2-2.1-0.7c-0.5-0.5-0.8-1.2-0.8-1.9c0-1.7,1-2.7,3-2.9l2.7-0.4c0-1.5-0.6-2.3-1.9-2.3c-1.1,0-2.1,0.4-2.9,1.1v-1.5
		c0.9-0.6,2-0.9,3.1-0.8c2.1,0,3.2,1.1,3.2,3.4V2990.6z M1118.3,2986l-2.2,0.3c-0.5,0-1.1,0.2-1.5,0.5c-0.4,0.3-0.6,0.8-0.5,1.3
		c0,0.4,0.2,0.8,0.5,1.1c0.4,0.3,0.8,0.4,1.3,0.4c0.7,0,1.3-0.3,1.8-0.8c0.5-0.5,0.7-1.2,0.7-1.9L1118.3,2986z M1128.6,2990.1
		c-0.7,0.4-1.6,0.6-2.5,0.6c-1.2,0-2.3-0.4-3.1-1.3c-0.8-0.9-1.2-2.1-1.2-3.2c-0.1-1.3,0.4-2.6,1.3-3.6c0.9-0.9,2.1-1.4,3.4-1.3
		c0.7,0,1.4,0.1,2.1,0.4v1.5c-0.6-0.5-1.4-0.7-2.1-0.7c-0.9,0-1.7,0.3-2.3,1c-0.6,0.7-0.9,1.7-0.9,2.6c-0.1,0.9,0.2,1.8,0.8,2.5
		c0.6,0.6,1.4,0.9,2.2,0.9c0.8,0,1.6-0.3,2.2-0.8L1128.6,2990.1z M1131.5,2979.3c-0.2,0-0.5-0.1-0.7-0.3c-0.2-0.2-0.3-0.4-0.3-0.7
		c0-0.3,0.1-0.5,0.3-0.7c0.2-0.2,0.4-0.3,0.7-0.3c0.3,0,0.5,0.1,0.7,0.3c0.2,0.2,0.3,0.4,0.3,0.7c0,0.2-0.1,0.5-0.3,0.7
		C1132,2979.2,1131.7,2979.3,1131.5,2979.3L1131.5,2979.3z M1132.2,2990.6h-1.4v-9h1.4V2990.6z M1142.8,2990.6h-1.4v-1.5h0
		c-0.6,1.1-1.8,1.8-3.1,1.7c-1,0-2-0.4-2.7-1.2c-0.7-0.9-1.1-2.1-1-3.3c-0.1-1.3,0.3-2.6,1.1-3.6c0.7-0.9,1.8-1.4,3-1.3
		c1.1-0.1,2.2,0.5,2.7,1.5h0v-5.6h1.4L1142.8,2990.6z M1141.3,2986.5v-1.3c0-0.7-0.2-1.4-0.7-1.8c-0.5-0.5-1.1-0.8-1.8-0.8
		c-0.8,0-1.6,0.3-2.1,1c-0.5,0.8-0.8,1.7-0.8,2.7c0,0.9,0.2,1.7,0.7,2.5c0.5,0.6,1.2,0.9,1.9,0.9c0.8,0,1.5-0.3,2-0.9
		C1141.1,2988.1,1141.4,2987.3,1141.3,2986.5z M1152.1,2990.6h-1.4v-1.4h0c-0.5,1-1.6,1.7-2.8,1.6c-0.8,0-1.5-0.2-2.1-0.7
		c-0.5-0.5-0.8-1.2-0.8-1.9c0-1.7,1-2.7,3-2.9l2.7-0.4c0-1.5-0.6-2.3-1.9-2.3c-1.1,0-2.1,0.4-2.9,1.1v-1.5c0.9-0.6,2-0.9,3.1-0.8
		c2.1,0,3.2,1.1,3.2,3.4L1152.1,2990.6z M1150.7,2986l-2.2,0.3c-0.5,0-1.1,0.2-1.5,0.5c-0.4,0.3-0.6,0.8-0.5,1.3
		c0,0.4,0.2,0.8,0.5,1.1c0.4,0.3,0.8,0.4,1.3,0.4c0.7,0,1.3-0.3,1.8-0.8c0.5-0.5,0.7-1.2,0.7-1.9L1150.7,2986z M1162.5,2990.6h-1.4
		v-1.5h0c-0.6,1.1-1.8,1.8-3.1,1.7c-1,0-2-0.4-2.7-1.2c-0.7-0.9-1.1-2.1-1-3.3c-0.1-1.3,0.3-2.6,1.1-3.6c0.7-0.9,1.8-1.4,3-1.3
		c1.1-0.1,2.2,0.5,2.7,1.5h0v-5.6h1.4V2990.6z M1161.1,2986.5v-1.3c0-0.7-0.2-1.4-0.7-1.8c-0.5-0.5-1.1-0.8-1.8-0.8
		c-0.8,0-1.6,0.3-2.1,1c-0.5,0.8-0.8,1.7-0.8,2.7c-0.1,0.9,0.2,1.7,0.7,2.5c0.5,0.6,1.2,0.9,1.9,0.9c0.8,0,1.5-0.3,2-0.9
		C1160.8,2988.1,1161.1,2987.3,1161.1,2986.5L1161.1,2986.5z M1176.4,2978v8.3h1.6v1.3h-1.6v3h-1.4v-3h-5.9v-1.2
		c0.6-0.6,1.1-1.3,1.7-2c0.6-0.7,1.1-1.4,1.6-2.1c0.5-0.7,1-1.5,1.4-2.2c0.4-0.7,0.8-1.4,1.1-2.1L1176.4,2978z M1170.7,2986.3h4.3
		v-6.2c-0.4,0.8-0.9,1.5-1.2,2.1c-0.4,0.6-0.8,1.2-1.1,1.6c-0.4,0.5-0.7,0.9-1,1.3S1171,2985.9,1170.7,2986.3z M1180.6,2983.3
		c-0.3,0-0.5-0.1-0.7-0.3c-0.2-0.2-0.3-0.4-0.3-0.7c0-0.3,0.1-0.5,0.3-0.7c0.2-0.2,0.4-0.3,0.7-0.3c0.3,0,0.5,0.1,0.7,0.3
		c0.2,0.2,0.3,0.4,0.3,0.7c0,0.3-0.1,0.5-0.3,0.7C1181.1,2983.2,1180.8,2983.3,1180.6,2983.3z M1180.6,2990.8
		c-0.3,0-0.5-0.1-0.7-0.3c-0.2-0.2-0.3-0.4-0.3-0.7c0-0.3,0.1-0.5,0.3-0.7c0.2-0.2,0.4-0.3,0.7-0.3c0.3,0,0.5,0.1,0.7,0.3
		c0.2,0.2,0.3,0.4,0.3,0.7c0,0.3-0.1,0.5-0.3,0.7C1181.1,2990.7,1180.8,2990.8,1180.6,2990.8L1180.6,2990.8z M1021.7,3012.2h-1.4
		v-1.4h0c-0.5,1-1.6,1.7-2.8,1.6c-0.8,0-1.5-0.2-2.1-0.7c-0.5-0.5-0.8-1.2-0.8-1.9c0-1.7,1-2.7,3-2.9l2.7-0.4c0-1.5-0.6-2.3-1.9-2.3
		c-1.1,0-2.1,0.4-2.9,1.1v-1.5c0.9-0.6,2-0.9,3.1-0.8c2.1,0,3.2,1.1,3.2,3.4L1021.7,3012.2z M1020.3,3007.6l-2.2,0.3
		c-0.5,0-1.1,0.2-1.5,0.5c-0.4,0.3-0.6,0.8-0.5,1.3c0,0.4,0.2,0.8,0.5,1.1c0.4,0.3,0.8,0.4,1.3,0.4c0.7,0,1.3-0.3,1.8-0.8
		c0.5-0.5,0.7-1.2,0.7-1.9L1020.3,3007.6z M1032.1,3012.2h-1.4v-1.5h0c-0.6,1.1-1.8,1.8-3.1,1.7c-1,0-2-0.4-2.7-1.2
		c-0.7-0.9-1.1-2.1-1-3.3c-0.1-1.3,0.3-2.6,1.1-3.6c0.7-0.9,1.8-1.4,3-1.3c1.1-0.1,2.2,0.5,2.7,1.5h0v-5.6h1.4V3012.2z
		 M1030.7,3008.1v-1.3c0-0.7-0.2-1.4-0.7-1.8c-0.5-0.5-1.1-0.8-1.8-0.8c-0.8,0-1.6,0.3-2.1,1c-0.5,0.8-0.8,1.7-0.8,2.7
		c-0.1,0.9,0.2,1.8,0.7,2.5c0.5,0.6,1.2,0.9,1.9,0.9c0.8,0,1.5-0.3,2-0.9C1030.4,3009.7,1030.7,3008.9,1030.7,3008.1L1030.7,3008.1z
		 M1047.8,3012.2h-1.4v-5.2c0.1-0.8-0.1-1.5-0.5-2.2c-0.4-0.5-1-0.7-1.6-0.7c-0.6,0-1.2,0.3-1.6,0.8c-0.4,0.6-0.7,1.3-0.6,2v5.1
		h-1.4v-5.3c0-1.8-0.7-2.7-2-2.7c-0.6,0-1.2,0.3-1.6,0.8c-0.4,0.6-0.6,1.3-0.6,2.1v5.1h-1.4v-9h1.4v1.4h0c0.5-1,1.6-1.7,2.8-1.6
		c1.2,0,2.2,0.7,2.5,1.9c0.5-1.2,1.7-1.9,3-1.9c2,0,3,1.2,3,3.7V3012.2z M1051.3,3000.9c-0.2,0-0.5-0.1-0.7-0.3
		c-0.2-0.2-0.3-0.4-0.3-0.7c0-0.5,0.4-0.9,0.9-0.9c0,0,0,0,0,0c0.3,0,0.5,0.1,0.7,0.3c0.4,0.4,0.4,1,0,1.3c0,0,0,0,0,0
		C1051.8,3000.8,1051.5,3000.9,1051.3,3000.9L1051.3,3000.9z M1052,3012.2h-1.4v-9h1.4L1052,3012.2z M1062.4,3012.2h-1.4v-5.1
		c0-1.9-0.7-2.9-2.1-2.9c-0.7,0-1.3,0.3-1.8,0.8c-0.5,0.6-0.7,1.3-0.7,2.1v5.1h-1.4v-9h1.4v1.5h0c0.6-1.1,1.7-1.7,3-1.7
		c0.9-0.1,1.7,0.3,2.3,1c0.6,0.8,0.8,1.8,0.8,2.8L1062.4,3012.2z M1065.8,3000.9c-0.2,0-0.5-0.1-0.7-0.3c-0.2-0.2-0.3-0.4-0.3-0.7
		c0-0.5,0.4-0.9,0.9-0.9c0,0,0,0,0,0c0.3,0,0.5,0.1,0.7,0.3c0.4,0.4,0.4,1,0,1.3c0,0,0,0,0,0
		C1066.3,3000.8,1066.1,3000.9,1065.8,3000.9z M1066.5,3012.2h-1.4v-9h1.4L1066.5,3012.2z M1068.9,3011.8v-1.5
		c0.7,0.6,1.7,0.9,2.6,0.9c1.3,0,1.9-0.4,1.9-1.3c0-0.2-0.1-0.4-0.2-0.6c-0.1-0.2-0.3-0.3-0.4-0.4c-0.2-0.1-0.4-0.3-0.7-0.3
		c-0.2-0.1-0.5-0.2-0.8-0.3c-0.4-0.1-0.7-0.3-1-0.5c-0.3-0.1-0.5-0.3-0.8-0.5c-0.2-0.2-0.4-0.4-0.5-0.7c-0.1-0.3-0.2-0.6-0.2-0.9
		c0-0.4,0.1-0.8,0.3-1.1c0.2-0.3,0.5-0.6,0.8-0.8c0.3-0.2,0.7-0.4,1.1-0.5c0.4-0.1,0.8-0.2,1.3-0.2c0.7,0,1.4,0.1,2.1,0.4v1.5
		c-0.7-0.4-1.5-0.7-2.3-0.6c-0.2,0-0.5,0-0.7,0.1c-0.2,0.1-0.4,0.1-0.6,0.3c-0.1,0.1-0.3,0.2-0.4,0.4c-0.1,0.2-0.1,0.3-0.1,0.5
		c0,0.2,0,0.4,0.1,0.6c0.1,0.2,0.2,0.3,0.4,0.4c0.2,0.1,0.4,0.2,0.6,0.3c0.2,0.1,0.5,0.2,0.8,0.3c0.4,0.1,0.7,0.3,1.1,0.5
		c0.3,0.1,0.6,0.3,0.8,0.5c0.2,0.2,0.4,0.4,0.5,0.7c0.1,0.3,0.2,0.6,0.2,0.9c0,0.4-0.1,0.8-0.3,1.2c-0.2,0.3-0.5,0.6-0.8,0.8
		c-0.3,0.2-0.7,0.4-1.1,0.5c-0.4,0.1-0.9,0.2-1.3,0.2C1070.5,3012.4,1069.7,3012.2,1068.9,3011.8L1068.9,3011.8z M1081.3,3012.1
		c-0.4,0.2-0.9,0.3-1.3,0.3c-1.6,0-2.4-0.9-2.4-2.6v-5.3h-1.5v-1.2h1.5v-2.2l1.4-0.5v2.7h2.3v1.2h-2.3v5.1c0,0.5,0.1,0.9,0.3,1.3
		c0.3,0.3,0.6,0.4,1,0.4c0.3,0,0.7-0.1,0.9-0.3L1081.3,3012.1z M1087.9,3004.6c-0.3-0.2-0.7-0.3-1.1-0.3c-0.6,0-1.2,0.3-1.5,0.9
		c-0.4,0.7-0.7,1.5-0.6,2.4v4.6h-1.4v-9h1.4v1.9h0c0.2-0.6,0.5-1.1,0.9-1.5c0.4-0.3,0.9-0.5,1.4-0.5c0.3,0,0.6,0,0.9,0.1
		L1087.9,3004.6z M1095.5,3012.2h-1.4v-1.4h0c-0.5,1-1.6,1.7-2.8,1.6c-0.8,0-1.5-0.2-2.1-0.7c-0.5-0.5-0.8-1.2-0.8-1.9
		c0-1.7,1-2.7,3-2.9l2.7-0.4c0-1.5-0.6-2.3-1.9-2.3c-1.1,0-2.1,0.4-2.9,1.1v-1.5c0.9-0.6,2-0.9,3.1-0.8c2.1,0,3.2,1.1,3.2,3.4
		L1095.5,3012.2z M1094.1,3007.6l-2.2,0.3c-0.5,0-1.1,0.2-1.5,0.5c-0.4,0.3-0.6,0.8-0.5,1.3c0,0.4,0.2,0.8,0.5,1.1
		c0.4,0.3,0.8,0.4,1.3,0.4c0.7,0,1.3-0.3,1.8-0.8c0.5-0.5,0.7-1.2,0.7-1.9V3007.6z M1105.9,3012.2h-1.4v-1.5h0
		c-0.6,1.1-1.8,1.8-3.1,1.7c-1,0-2-0.4-2.7-1.2c-0.7-0.9-1.1-2.1-1-3.3c-0.1-1.3,0.3-2.6,1.1-3.6c0.7-0.9,1.8-1.4,3-1.3
		c1.1-0.1,2.2,0.5,2.7,1.5h0v-5.6h1.4V3012.2z M1104.5,3008.1v-1.3c0-0.7-0.2-1.4-0.7-1.8c-0.5-0.5-1.1-0.8-1.8-0.8
		c-0.8,0-1.6,0.3-2.1,1c-0.5,0.8-0.8,1.7-0.8,2.7c0,0.9,0.2,1.7,0.7,2.5c0.5,0.6,1.2,0.9,1.9,0.9c0.8,0,1.5-0.3,2-0.9
		C1104.3,3009.7,1104.5,3008.9,1104.5,3008.1z M1115.3,3012.2h-1.4v-1.4h0c-0.5,1-1.6,1.7-2.8,1.6c-0.8,0-1.5-0.2-2.1-0.7
		c-0.5-0.5-0.8-1.2-0.8-1.9c0-1.7,1-2.7,3-2.9l2.7-0.4c0-1.5-0.6-2.3-1.9-2.3c-1.1,0-2.1,0.4-2.9,1.1v-1.5c0.9-0.6,2-0.9,3.1-0.8
		c2.1,0,3.2,1.1,3.2,3.4L1115.3,3012.2z M1113.8,3007.6l-2.2,0.3c-0.5,0-1.1,0.2-1.5,0.5c-0.4,0.3-0.6,0.8-0.5,1.3
		c0,0.4,0.2,0.8,0.5,1.1c0.4,0.3,0.8,0.4,1.3,0.4c0.7,0,1.3-0.3,1.8-0.8c0.5-0.5,0.7-1.2,0.7-1.9V3007.6z M1021.4,3033.3
		c-0.7,0.4-1.6,0.6-2.5,0.6c-1.2,0-2.3-0.4-3.1-1.3c-0.8-0.9-1.2-2.1-1.2-3.2c-0.1-1.3,0.4-2.6,1.3-3.6c0.9-0.9,2.1-1.4,3.4-1.3
		c0.7,0,1.4,0.1,2.1,0.4v1.5c-0.6-0.5-1.4-0.7-2.1-0.7c-0.9,0-1.7,0.3-2.3,1c-0.6,0.7-0.9,1.7-0.9,2.6c-0.1,0.9,0.2,1.8,0.8,2.5
		c0.6,0.6,1.4,1,2.2,0.9c0.8,0,1.6-0.3,2.2-0.8L1021.4,3033.3z M1030.9,3033.8h-1.4v-1.4h0c-0.5,1-1.6,1.7-2.8,1.6
		c-2.1,0-3.2-1.3-3.2-3.8v-5.4h1.4v5.2c0,1.9,0.7,2.8,2.2,2.8c0.7,0,1.3-0.3,1.7-0.8c0.5-0.6,0.7-1.3,0.7-2v-5.2h1.4L1030.9,3033.8z
		 M1040.2,3033.8h-1.4v-1.4h0c-0.5,1-1.6,1.7-2.8,1.6c-0.8,0-1.5-0.2-2.1-0.7c-0.5-0.5-0.8-1.2-0.8-1.9c0-1.7,1-2.7,3-2.9l2.7-0.4
		c0-1.5-0.6-2.3-1.9-2.3c-1.1,0-2.1,0.4-2.9,1.1v-1.5c0.9-0.6,2-0.9,3.1-0.8c2.1,0,3.2,1.1,3.2,3.4L1040.2,3033.8z M1038.8,3029.2
		l-2.2,0.3c-0.5,0-1.1,0.2-1.5,0.5c-0.4,0.3-0.6,0.8-0.5,1.3c0,0.4,0.2,0.8,0.5,1.1c0.4,0.3,0.8,0.4,1.3,0.4c0.7,0,1.3-0.3,1.8-0.8
		c0.5-0.5,0.7-1.2,0.7-1.9V3029.2z M1050.4,3033.8h-1.4v-5.1c0-1.9-0.7-2.9-2.1-2.9c-0.7,0-1.3,0.3-1.8,0.8
		c-0.5,0.6-0.7,1.3-0.7,2.1v5.1h-1.4v-9h1.4v1.5h0c0.6-1.1,1.7-1.7,3-1.7c0.9-0.1,1.7,0.3,2.3,1c0.6,0.8,0.8,1.8,0.8,2.8V3033.8z
		 M1057.3,3033.7c-0.4,0.2-0.9,0.3-1.3,0.3c-1.6,0-2.4-0.9-2.4-2.6v-5.3h-1.5v-1.2h1.5v-2.2l1.4-0.5v2.7h2.3v1.2h-2.3v5.1
		c0,0.5,0.1,0.9,0.3,1.3c0.3,0.3,0.6,0.4,1,0.4c0.3,0,0.7-0.1,0.9-0.3V3033.7z M1060,3022.5c-0.2,0-0.5-0.1-0.7-0.3
		c-0.2-0.2-0.3-0.4-0.3-0.7c0-0.5,0.4-0.9,0.9-0.9c0,0,0,0,0,0c0.3,0,0.5,0.1,0.7,0.3c0.4,0.4,0.4,1,0,1.3c0,0,0,0,0,0
		C1060.5,3022.4,1060.2,3022.5,1060,3022.5L1060,3022.5z M1060.7,3033.8h-1.4v-9h1.4L1060.7,3033.8z M1067.8,3033.7
		c-0.4,0.2-0.9,0.3-1.3,0.3c-1.6,0-2.4-0.9-2.4-2.6v-5.3h-1.5v-1.2h1.5v-2.2l1.4-0.5v2.7h2.3v1.2h-2.3v5.1c0,0.5,0.1,0.9,0.3,1.3
		c0.3,0.3,0.6,0.4,1,0.4c0.3,0,0.7-0.1,0.9-0.3L1067.8,3033.7z M1076.1,3033.8h-1.4v-1.4h0c-0.5,1-1.6,1.7-2.8,1.6
		c-0.8,0-1.5-0.2-2.1-0.7c-0.5-0.5-0.8-1.2-0.8-1.9c0-1.7,1-2.7,3-2.9l2.7-0.4c0-1.5-0.6-2.3-1.9-2.3c-1.1,0-2.1,0.4-2.9,1.1v-1.5
		c0.9-0.6,2-0.9,3.1-0.8c2.1,0,3.2,1.1,3.2,3.4L1076.1,3033.8z M1074.7,3029.2l-2.2,0.3c-0.5,0-1.1,0.2-1.5,0.5
		c-0.4,0.3-0.6,0.8-0.5,1.3c0,0.4,0.2,0.8,0.5,1.1c0.4,0.3,0.8,0.4,1.3,0.4c0.7,0,1.3-0.3,1.8-0.8c0.5-0.5,0.7-1.2,0.7-1.9V3029.2z
		 M1083,3033.7c-0.4,0.2-0.9,0.3-1.3,0.3c-1.6,0-2.4-0.9-2.4-2.6v-5.3h-1.6v-1.2h1.5v-2.2l1.4-0.5v2.7h2.3v1.2h-2.3v5.1
		c0,0.5,0.1,0.9,0.3,1.3c0.3,0.3,0.6,0.4,1,0.4c0.3,0,0.7-0.1,0.9-0.3L1083,3033.7z M1085.7,3022.5c-0.2,0-0.5-0.1-0.7-0.3
		c-0.2-0.2-0.3-0.4-0.3-0.7c0-0.5,0.4-0.9,0.9-0.9c0,0,0,0,0,0c0.3,0,0.5,0.1,0.7,0.3c0.4,0.4,0.4,1,0,1.3c0,0,0,0,0,0
		C1086.2,3022.4,1085.9,3022.5,1085.7,3022.5L1085.7,3022.5z M1086.4,3033.8h-1.4v-9h1.4L1086.4,3033.8z M1096.4,3024.8l-3.6,9h-1.4
		l-3.4-9h1.6l2.3,6.5c0.2,0.4,0.3,0.8,0.3,1.3h0c0.1-0.4,0.1-0.8,0.3-1.2l2.4-6.6L1096.4,3024.8z M1104.2,3033.8h-1.4v-1.4h0
		c-0.5,1-1.6,1.7-2.8,1.6c-0.8,0-1.5-0.2-2.1-0.7c-0.5-0.5-0.8-1.2-0.8-1.9c0-1.7,1-2.7,3-2.9l2.7-0.4c0-1.5-0.6-2.3-1.9-2.3
		c-1.1,0-2.1,0.4-2.9,1.1v-1.5c0.9-0.6,2-0.9,3.1-0.8c2.1,0,3.2,1.1,3.2,3.4L1104.2,3033.8z M1102.8,3029.2l-2.2,0.3
		c-0.5,0-1.1,0.2-1.5,0.5c-0.4,0.3-0.6,0.8-0.5,1.3c0,0.4,0.2,0.8,0.5,1.1c0.4,0.3,0.8,0.4,1.3,0.4c0.7,0,1.3-0.3,1.8-0.8
		c0.5-0.5,0.7-1.2,0.7-1.9V3029.2z M1119.7,3033.8h-1.4v-5.2c0.1-0.8-0.1-1.5-0.5-2.2c-0.4-0.5-1-0.7-1.6-0.7
		c-0.6,0-1.2,0.3-1.6,0.8c-0.4,0.6-0.7,1.3-0.6,2v5.1h-1.4v-5.3c0-1.8-0.7-2.7-2-2.7c-0.6,0-1.2,0.3-1.6,0.8
		c-0.4,0.6-0.6,1.3-0.6,2.1v5.1h-1.4v-9h1.4v1.4h0c0.5-1,1.6-1.7,2.8-1.6c1.2,0,2.2,0.7,2.5,1.9c0.5-1.2,1.7-1.9,3-1.9
		c2,0,3,1.2,3,3.7L1119.7,3033.8z M1129.6,3029.6h-6.4c0,0.8,0.3,1.7,0.8,2.3c0.6,0.6,1.3,0.9,2.1,0.8c1,0,2-0.4,2.8-1v1.4
		c-0.9,0.6-2,0.9-3.1,0.9c-1.1,0.1-2.2-0.4-3-1.2c-0.8-1-1.2-2.2-1.1-3.4c-0.1-1.3,0.4-2.5,1.2-3.4c0.7-0.9,1.8-1.3,3-1.3
		c1-0.1,2,0.4,2.7,1.1c0.7,0.9,1,2,1,3.2L1129.6,3029.6z M1128.2,3028.4c0-0.7-0.2-1.4-0.6-1.9c-0.4-0.5-1-0.7-1.6-0.7
		c-0.7,0-1.3,0.3-1.7,0.7c-0.5,0.5-0.8,1.2-0.9,1.9H1128.2z M1139.3,3033.8h-1.4v-5.1c0-1.9-0.7-2.9-2.1-2.9c-0.7,0-1.3,0.3-1.8,0.8
		c-0.5,0.6-0.7,1.3-0.7,2.1v5.1h-1.4v-9h1.4v1.5h0c0.6-1.1,1.7-1.7,3-1.7c0.9-0.1,1.7,0.3,2.3,1c0.6,0.8,0.8,1.8,0.8,2.8
		L1139.3,3033.8z M1146.2,3033.7c-0.4,0.2-0.9,0.3-1.3,0.3c-1.6,0-2.4-0.9-2.4-2.6v-5.3h-1.5v-1.2h1.5v-2.2l1.4-0.5v2.7h2.3v1.2
		h-2.3v5.1c0,0.5,0.1,0.9,0.3,1.3c0.3,0.3,0.6,0.4,1,0.4c0.3,0,0.7-0.1,0.9-0.3L1146.2,3033.7z M1155.3,3029.6h-6.4
		c0,0.8,0.3,1.7,0.8,2.3c0.6,0.6,1.3,0.9,2.1,0.8c1,0,2-0.4,2.8-1v1.4c-0.9,0.6-2,0.9-3.1,0.9c-1.1,0.1-2.2-0.4-3-1.2
		c-0.8-1-1.2-2.2-1.1-3.4c-0.1-1.3,0.4-2.5,1.2-3.4c0.7-0.9,1.8-1.3,3-1.3c1-0.1,2,0.4,2.7,1.1c0.7,0.9,1,2,1,3.2L1155.3,3029.6z
		 M1153.9,3028.4c0-0.7-0.2-1.4-0.6-1.9c-0.4-0.5-1-0.7-1.6-0.7c-0.7,0-1.3,0.3-1.7,0.7c-0.5,0.5-0.8,1.2-0.9,1.9H1153.9z"/>
	<path id="Elipse_7265" class="st22" d="M280.2,3330.5c11.4,0,20.6,9.2,20.6,20.6c0,11.4-9.2,20.6-20.6,20.6
		c-11.4,0-20.6-9.2-20.6-20.6c0,0,0,0,0,0C259.6,3339.7,268.8,3330.5,280.2,3330.5z"/>
	<path id="Elipse_7266" class="st22" d="M280.2,3335c8.8,0,16,7.2,16,16s-7.2,16-16,16s-16-7.2-16-16S271.4,3335,280.2,3335z"/>
	<path id="Elipse_7265-2" class="st22" d="M459.7,3244.1c11.4,0,20.6,9.2,20.6,20.6c0,11.4-9.2,20.6-20.6,20.6
		c-11.4,0-20.6-9.2-20.6-20.6c0,0,0,0,0,0C439.1,3253.3,448.4,3244.1,459.7,3244.1z"/>
	<path id="Elipse_7266-2" class="st22" d="M459.7,3248.7c8.8,0,16,7.2,16,16s-7.2,16-16,16s-16-7.2-16-16S450.9,3248.7,459.7,3248.7
		z"/>
	<path id="Elipse_7265-3" class="st22" d="M633.2,3158.4c11.4,0,20.6,9.2,20.6,20.6c0,11.4-9.2,20.6-20.6,20.6s-20.6-9.2-20.6-20.6
		c0,0,0,0,0,0C612.7,3167.6,621.9,3158.4,633.2,3158.4z"/>
	<path id="Elipse_7266-3" class="st22" d="M633.2,3162.9c8.8,0,16,7.2,16,16s-7.2,16-16,16s-16-7.2-16-16S624.4,3162.9,633.2,3162.9
		z"/>
	<path id="Elipse_7265-4" class="st22" d="M809,3074c11.4,0,20.6,9.2,20.6,20.6c0,11.4-9.2,20.6-20.6,20.6s-20.6-9.2-20.6-20.6
		c0,0,0,0,0,0C788.4,3083.2,797.6,3074,809,3074z"/>
	<path id="Elipse_7266-4" class="st22" d="M809,3078.6c8.8,0,16,7.2,16,16s-7.2,16-16,16s-16-7.2-16-16S800.1,3078.6,809,3078.6z"/>
	<path id="Elipse_7265-5" class="st22" d="M981.5,2979.8c11.4,0,20.6,9.2,20.6,20.6c0,11.4-9.2,20.6-20.6,20.6s-20.6-9.2-20.6-20.6
		c0,0,0,0,0,0C960.9,2989,970.1,2979.8,981.5,2979.8z"/>
	<path id="Elipse_7266-5" class="st22" d="M981.5,2984.4c8.8,0,16,7.2,16,16s-7.2,16-16,16s-16-7.2-16-16S972.7,2984.4,981.5,2984.4
		z"/>
	<path id="Elipse_7265-6" class="st22" d="M1160.1,2899.7c11.4,0,20.6,9.2,20.6,20.6c0,11.4-9.2,20.6-20.6,20.6
		c-11.4,0-20.6-9.2-20.6-20.6c0,0,0,0,0,0C1139.6,2908.9,1148.8,2899.7,1160.1,2899.7z"/>
	<path id="Elipse_7266-6" class="st22" d="M1160.2,2904.3c8.8,0,16,7.2,16,16s-7.2,16-16,16s-16-7.2-16-16
		S1151.3,2904.3,1160.2,2904.3z"/>
</g>
</svg>
