<svg xmlns="http://www.w3.org/2000/svg" xmlns:xlink="http://www.w3.org/1999/xlink" width="647.806" height="647.803" viewBox="0 0 647.806 647.803">
  <defs>
    <linearGradient id="linear-gradient" x1="0.462" y1="0.657" x2="0.398" y2="0.606" gradientUnits="objectBoundingBox">
      <stop offset="0" stop-color="#4480bf"/>
      <stop offset="1" stop-color="#0b3359"/>
    </linearGradient>
    <linearGradient id="linear-gradient-2" x1="0.463" y1="0.298" x2="0.352" y2="0.382" gradientUnits="objectBoundingBox">
      <stop offset="0" stop-color="#4480bf"/>
      <stop offset="1" stop-color="#356598"/>
    </linearGradient>
    <linearGradient id="linear-gradient-3" x1="0.539" y1="0.845" x2="0.547" y2="0.335" gradientUnits="objectBoundingBox">
      <stop offset="0" stop-color="#35afea"/>
      <stop offset="1" stop-color="#1b5875"/>
    </linearGradient>
    <linearGradient id="linear-gradient-4" x1="0.607" y1="0.465" x2="0.07" y2="0.379" xlink:href="#linear-gradient-3"/>
    <linearGradient id="linear-gradient-5" x1="0.243" y1="0.488" x2="0.671" y2="0.403" gradientUnits="objectBoundingBox">
      <stop offset="0" stop-color="#2daea0"/>
      <stop offset="0.263" stop-color="#2cab9d"/>
      <stop offset="1" stop-color="#23887d"/>
    </linearGradient>
    <linearGradient id="linear-gradient-6" x1="0.485" y1="0.804" x2="0.476" y2="0.432" gradientUnits="objectBoundingBox">
      <stop offset="0" stop-color="#2daea0"/>
      <stop offset="1" stop-color="#23887d"/>
    </linearGradient>
    <linearGradient id="linear-gradient-7" x1="0.5" y1="0.315" x2="0.654" y2="0.427" gradientUnits="objectBoundingBox">
      <stop offset="0" stop-color="#3a8e9b"/>
      <stop offset="1" stop-color="#327d89"/>
    </linearGradient>
    <linearGradient id="linear-gradient-8" x1="0.382" y1="0.537" x2="0.5" y2="0.455" xlink:href="#linear-gradient-7"/>
    <linearGradient id="linear-gradient-9" x1="0.472" y1="0.178" x2="0.478" y2="0.598" gradientUnits="objectBoundingBox">
      <stop offset="0" stop-color="#0b3360"/>
      <stop offset="1" stop-color="#09284b"/>
    </linearGradient>
    <linearGradient id="linear-gradient-10" x1="0.122" y1="0.806" x2="0.401" y2="0.845" xlink:href="#linear-gradient-9"/>
    <linearGradient id="linear-gradient-11" x1="0.841" y1="0.747" x2="0.5" y2="0.809" gradientUnits="objectBoundingBox">
      <stop offset="0" stop-color="#104c82"/>
      <stop offset="1" stop-color="#082641"/>
    </linearGradient>
    <linearGradient id="linear-gradient-12" x1="0.481" y1="0.245" x2="0.5" y2="0.809" xlink:href="#linear-gradient-11"/>
    <linearGradient id="linear-gradient-13" x1="5.16" y1="1.732" x2="6.16" y2="1.732" gradientUnits="objectBoundingBox">
      <stop offset="0" stop-color="#fff"/>
      <stop offset="0.25" stop-color="#f4f4f4"/>
      <stop offset="0.69" stop-color="#d7d7d7"/>
      <stop offset="1" stop-color="#bfbfbf"/>
    </linearGradient>
    <linearGradient id="linear-gradient-14" x1="0.188" y1="0.104" x2="0.91" y2="0.877" gradientUnits="objectBoundingBox">
      <stop offset="0" stop-color="#fff"/>
      <stop offset="1" stop-color="#e9e9e9"/>
    </linearGradient>
  </defs>
  <g id="Grupo_94369" data-name="Grupo 94369" transform="translate(-510 -10316)">
    <path id="Trazado_176162" data-name="Trazado 176162" d="M908.3,322,876.38,441.14,769.56,412.52A158.9,158.9,0,0,1,800,568.78l28.59,106.68,119.27-32A324.72,324.72,0,0,0,908.3,322Z" transform="translate(184.353 10123.021)" fill="#35afea"/>
    <path id="Trazado_176163" data-name="Trazado 176163" d="M619.28,360.66a159,159,0,0,1,150.28,51.86l106.82,28.62L908.3,322a330,330,0,0,0-29.73-34.16,321.78,321.78,0,0,0-229-94.86,329.928,329.928,0,0,0-39.387,2.36L697.4,282.56Z" transform="translate(184.353 10123.021)" fill="#4480bf"/>
    <path id="Trazado_176164" data-name="Trazado 176164" d="M679.59,673.1A159,159,0,0,1,529.3,621.24L422.49,592.62,390.56,711.76a328.846,328.846,0,0,0,29.73,34.15,321.78,321.78,0,0,0,229,94.87,327.919,327.919,0,0,0,39.436-2.376L601.5,751.2Z" transform="translate(184.353 10123.021)" fill="#3a8e9b"/>
    <path id="Trazado_176165" data-name="Trazado 176165" d="M800,568.78A159.68,159.68,0,0,1,679.81,673.1l-78.09,78.1,87.21,87.21A324.77,324.77,0,0,0,947.83,643.5l-119.27,32Z" transform="translate(184.353 10123.021)" fill="#2daea0"/>
    <path id="Trazado_176166" data-name="Trazado 176166" d="M499.12,465A159.69,159.69,0,0,1,619.28,360.66l78.09-78.09-87.22-87.22A324.81,324.81,0,0,0,351.26,390.27l119.27-32Z" transform="translate(184.353 10123.021)" fill="#104c82"/>
    <path id="Trazado_176167" data-name="Trazado 176167" d="M529.53,621.24A158.88,158.88,0,0,1,499.12,465L470.53,358.31l-119.27,32A324.72,324.72,0,0,0,390.79,711.8l31.92-119.14Z" transform="translate(184.353 10123.021)" fill="#0b3360"/>
    <path id="Trazado_176168" data-name="Trazado 176168" d="M696.09,283.8l-76.78,76.8a169.9,169.9,0,0,1,28.09-2.82Z" transform="translate(184.353 10123.021)" fill="url(#linear-gradient)"/>
    <path id="Trazado_176169" data-name="Trazado 176169" d="M635.61,193.31q-12.83.57-25.46,2.12l87.22,87.14Z" transform="translate(184.353 10123.021)" fill="url(#linear-gradient-2)"/>
    <path id="Trazado_176170" data-name="Trazado 176170" d="M874.54,440.47l-105-27.82a168.612,168.612,0,0,1,16.55,22.87Z" transform="translate(184.353 10123.021)" fill="url(#linear-gradient-3)"/>
    <path id="Trazado_176171" data-name="Trazado 176171" d="M922.74,342.89q-6.88-10.83-14.54-21L876.24,441Z" transform="translate(184.353 10123.021)" fill="url(#linear-gradient-4)"/>
    <path id="Trazado_176172" data-name="Trazado 176172" d="M828.56,675.46l-28.65-106.7a169.468,169.468,0,0,1-11.54,25.76Z" transform="translate(184.353 10123.021)" fill="url(#linear-gradient-5)"/>
    <path id="Trazado_176173" data-name="Trazado 176173" d="M936.73,666.46q5.94-11.38,10.93-23.1L828.55,675.21Z" transform="translate(184.353 10123.021)" fill="url(#linear-gradient-6)"/>
    <path id="Trazado_176174" data-name="Trazado 176174" d="M601.56,751.25l78.13-78.1A170.3,170.3,0,0,1,651.61,676Z" transform="translate(184.353 10123.021)" fill="url(#linear-gradient-7)"/>
    <path id="Trazado_176175" data-name="Trazado 176175" d="M663.39,840.47q12.83-.54,25.46-2.07l-87.08-87.28Z" transform="translate(184.353 10123.021)" fill="url(#linear-gradient-8)"/>
    <path id="Trazado_176176" data-name="Trazado 176176" d="M422.42,592.56,529.14,621.1a170.555,170.555,0,0,1-16.54-22.88Z" transform="translate(184.353 10123.021)" fill="url(#linear-gradient-9)"/>
    <path id="Trazado_176177" data-name="Trazado 176177" d="M376.13,690.75q6.89,10.83,14.54,21l32-119.07Z" transform="translate(184.353 10123.021)" fill="url(#linear-gradient-10)"/>
    <path id="Trazado_176178" data-name="Trazado 176178" d="M470.45,358.05l28.72,106.67A171.071,171.071,0,0,1,510.69,439Z" transform="translate(184.353 10123.021)" fill="url(#linear-gradient-11)"/>
    <path id="Trazado_176179" data-name="Trazado 176179" d="M362.28,367.13q-5.92,11.39-10.91,23.1L470.45,358.3Z" transform="translate(184.353 10123.021)" fill="url(#linear-gradient-12)"/>
    <path id="Trazado_192458" data-name="Trazado 192458" d="M164.01,0A164.01,164.01,0,1,1,0,164.01,164.01,164.01,0,0,1,164.01,0Z" transform="translate(670.322 10476.212)" fill="url(#linear-gradient-13)"/>
    <path id="Trazado_192459" data-name="Trazado 192459" d="M155.23,0A155.23,155.23,0,1,1,0,155.23,155.23,155.23,0,0,1,155.23,0Z" transform="translate(679.103 10484.991)" fill="url(#linear-gradient-14)"/>
    <path id="Trazado_192460" data-name="Trazado 192460" d="M4.28,0H1.441V-12.6H4.28ZM21.164,0H18.4V-5.133q0-1.96-1.441-1.96a1.324,1.324,0,0,0-1.116.589,2.42,2.42,0,0,0-.431,1.468V0H12.63V-5.186q0-1.907-1.415-1.907a1.356,1.356,0,0,0-1.138.563A2.475,2.475,0,0,0,9.65-5V0H6.873V-9H9.65v1.406h.035a3.321,3.321,0,0,1,1.208-1.173,3.321,3.321,0,0,1,1.7-.453,2.592,2.592,0,0,1,2.61,1.679A3.329,3.329,0,0,1,18.229-9.22q2.936,0,2.936,3.621Zm5.01-1.046h-.035V4.14H23.361V-9h2.777v1.354h.035A3.265,3.265,0,0,1,29.065-9.22a3.253,3.253,0,0,1,2.7,1.2,5.108,5.108,0,0,1,.954,3.265A5.537,5.537,0,0,1,31.61-1.143,3.625,3.625,0,0,1,28.652.22,2.8,2.8,0,0,1,26.174-1.046Zm-.079-3.691v.721A2.291,2.291,0,0,0,26.587-2.5a1.6,1.6,0,0,0,1.292.589,1.7,1.7,0,0,0,1.472-.734,3.543,3.543,0,0,0,.523-2.079q0-2.373-1.846-2.373a1.733,1.733,0,0,0-1.393.646A2.576,2.576,0,0,0,26.095-4.737ZM41.836,0H39.208V-1.292h-.035A2.933,2.933,0,0,1,36.492.22a2.8,2.8,0,0,1-2.061-.743A2.661,2.661,0,0,1,33.68-2.5q0-2.619,3.1-3.023l2.443-.325q0-1.477-1.6-1.477a5.46,5.46,0,0,0-3.059.958V-8.464a6.881,6.881,0,0,1,1.586-.527,8.339,8.339,0,0,1,1.833-.229q3.85,0,3.85,3.841Zm-2.61-3.656v-.606l-1.635.211q-1.354.176-1.354,1.222a1.01,1.01,0,0,0,.33.778,1.266,1.266,0,0,0,.892.3,1.644,1.644,0,0,0,1.274-.541A1.952,1.952,0,0,0,39.226-3.656ZM50.854-.325A5.492,5.492,0,0,1,48.138.22,4.593,4.593,0,0,1,44.78-1.037,4.341,4.341,0,0,1,43.5-4.28,4.782,4.782,0,0,1,44.873-7.9,5.083,5.083,0,0,1,48.551-9.22a4.72,4.72,0,0,1,2.3.422v2.355a3.166,3.166,0,0,0-1.942-.65,2.559,2.559,0,0,0-1.894.7,2.607,2.607,0,0,0-.7,1.929,2.565,2.565,0,0,0,.668,1.876,2.455,2.455,0,0,0,1.837.681,3.666,3.666,0,0,0,2.03-.65Zm7.26.22A4.105,4.105,0,0,1,56.259.22q-2.936,0-2.936-3.05V-6.952H51.864V-9h1.459v-1.942l2.769-.791V-9h2.021v2.048H56.092v3.639q0,1.406,1.116,1.406a1.882,1.882,0,0,0,.905-.255Zm5.6.325a4.838,4.838,0,0,1-3.538-1.261,4.573,4.573,0,0,1-1.288-3.423,4.573,4.573,0,0,1,1.336-3.494A5.048,5.048,0,0,1,63.84-9.22a4.78,4.78,0,0,1,3.516,1.261A4.483,4.483,0,0,1,68.63-4.623a4.759,4.759,0,0,1-1.314,3.542A4.892,4.892,0,0,1,63.716.22Zm.07-7.312a1.852,1.852,0,0,0-1.529.677A2.984,2.984,0,0,0,61.713-4.5q0,2.593,2.092,2.593,2,0,2-2.663Q65.8-7.093,63.787-7.093Z" transform="translate(949.742 10465.271)" fill="#fff"/>
    <path id="Trazado_192461" data-name="Trazado 192461" d="M10.477-.448a8.311,8.311,0,0,1-3.6.668A6.074,6.074,0,0,1,2.312-1.485,6.233,6.233,0,0,1,.65-6.029a6.659,6.659,0,0,1,1.868-4.9,6.533,6.533,0,0,1,4.847-1.881,9.065,9.065,0,0,1,3.111.466v2.733a5.513,5.513,0,0,0-2.883-.756A3.824,3.824,0,0,0,4.729-9.255a4.142,4.142,0,0,0-1.09,3.023A4.062,4.062,0,0,0,4.667-3.318,3.633,3.633,0,0,0,7.436-2.232a5.905,5.905,0,0,0,3.041-.809ZM16.69.22a4.838,4.838,0,0,1-3.538-1.261,4.573,4.573,0,0,1-1.288-3.423A4.573,4.573,0,0,1,13.2-7.958,5.048,5.048,0,0,1,16.813-9.22a4.78,4.78,0,0,1,3.516,1.261A4.483,4.483,0,0,1,21.6-4.623,4.759,4.759,0,0,1,20.29-1.081,4.892,4.892,0,0,1,16.69.22Zm.07-7.312a1.852,1.852,0,0,0-1.529.677A2.984,2.984,0,0,0,14.687-4.5q0,2.593,2.092,2.593,2,0,2-2.663Q18.773-7.093,16.761-7.093ZM32.1,0H29.329V-5q0-2.092-1.494-2.092a1.483,1.483,0,0,0-1.187.554,2.109,2.109,0,0,0-.466,1.406V0H23.405V-9h2.777v1.424h.035A3.183,3.183,0,0,1,29.109-9.22q2.988,0,2.988,3.709Zm11,0H40.324V-1.239h-.035A3.114,3.114,0,0,1,37.5.22,3.412,3.412,0,0,1,34.787-.971,4.93,4.93,0,0,1,33.759-4.3a5.366,5.366,0,0,1,1.134-3.577A3.7,3.7,0,0,1,37.863-9.22a2.527,2.527,0,0,1,2.426,1.248h.035v-5.353H43.1ZM40.377-4.377v-.677a2.13,2.13,0,0,0-.51-1.459,1.683,1.683,0,0,0-1.327-.58,1.673,1.673,0,0,0-1.441.725,3.367,3.367,0,0,0-.519,1.991,2.914,2.914,0,0,0,.5,1.828,1.663,1.663,0,0,0,1.389.642,1.67,1.67,0,0,0,1.375-.677A2.821,2.821,0,0,0,40.377-4.377Zm6.469-6.047a1.622,1.622,0,0,1-1.151-.417,1.345,1.345,0,0,1-.448-1.024,1.3,1.3,0,0,1,.448-1.02,1.676,1.676,0,0,1,1.151-.4,1.672,1.672,0,0,1,1.156.4,1.3,1.3,0,0,1,.444,1.02A1.34,1.34,0,0,1,48-10.828,1.65,1.65,0,0,1,46.846-10.424ZM48.217,0H45.439V-9h2.777Zm9.158-.325A5.492,5.492,0,0,1,54.659.22,4.593,4.593,0,0,1,51.3-1.037,4.341,4.341,0,0,1,50.019-4.28,4.782,4.782,0,0,1,51.394-7.9,5.083,5.083,0,0,1,55.072-9.22a4.72,4.72,0,0,1,2.3.422v2.355a3.166,3.166,0,0,0-1.942-.65,2.559,2.559,0,0,0-1.894.7,2.607,2.607,0,0,0-.7,1.929,2.565,2.565,0,0,0,.668,1.876,2.455,2.455,0,0,0,1.837.681,3.666,3.666,0,0,0,2.03-.65Zm3.226-10.1a1.622,1.622,0,0,1-1.151-.417A1.345,1.345,0,0,1,59-11.865a1.3,1.3,0,0,1,.448-1.02,1.676,1.676,0,0,1,1.151-.4,1.672,1.672,0,0,1,1.156.4,1.3,1.3,0,0,1,.444,1.02,1.34,1.34,0,0,1-.444,1.037A1.65,1.65,0,0,1,60.6-10.424ZM61.972,0H59.194V-9h2.777ZM68.6.22a4.838,4.838,0,0,1-3.538-1.261,4.573,4.573,0,0,1-1.288-3.423,4.573,4.573,0,0,1,1.336-3.494A5.048,5.048,0,0,1,68.722-9.22a4.78,4.78,0,0,1,3.516,1.261,4.483,4.483,0,0,1,1.274,3.335A4.759,4.759,0,0,1,72.2-1.081,4.892,4.892,0,0,1,68.6.22Zm.07-7.312a1.852,1.852,0,0,0-1.529.677A2.984,2.984,0,0,0,66.595-4.5q0,2.593,2.092,2.593,2,0,2-2.663Q70.682-7.093,68.669-7.093ZM84.006,0H81.237V-5q0-2.092-1.494-2.092a1.483,1.483,0,0,0-1.187.554,2.109,2.109,0,0,0-.466,1.406V0H75.313V-9h2.777v1.424h.035A3.183,3.183,0,0,1,81.018-9.22q2.988,0,2.988,3.709ZM94.289-3.709H88.418q.141,1.96,2.47,1.96a4.822,4.822,0,0,0,2.61-.7v2A6.858,6.858,0,0,1,90.255.22,4.565,4.565,0,0,1,86.871-.989a4.566,4.566,0,0,1-1.2-3.371,4.816,4.816,0,0,1,1.3-3.551,4.334,4.334,0,0,1,3.2-1.31,3.933,3.933,0,0,1,3.045,1.169,4.5,4.5,0,0,1,1.077,3.173ZM91.714-5.414q0-1.934-1.564-1.934a1.494,1.494,0,0,0-1.156.554,2.513,2.513,0,0,0-.593,1.38ZM95.353-.237v-2.25a5.913,5.913,0,0,0,1.367.615,4.531,4.531,0,0,0,1.288.2,2.762,2.762,0,0,0,1.165-.2.653.653,0,0,0,.426-.615.569.569,0,0,0-.193-.439,1.8,1.8,0,0,0-.5-.308,5.635,5.635,0,0,0-.664-.237q-.36-.105-.694-.237a6.653,6.653,0,0,1-.945-.435,2.731,2.731,0,0,1-.686-.541A2.125,2.125,0,0,1,95.5-5.4a2.841,2.841,0,0,1-.145-.958,2.466,2.466,0,0,1,.33-1.3,2.692,2.692,0,0,1,.879-.892,4.016,4.016,0,0,1,1.257-.51A6.553,6.553,0,0,1,99.29-9.22a8.168,8.168,0,0,1,1.213.092,9.053,9.053,0,0,1,1.213.268v2.145a4.383,4.383,0,0,0-1.129-.461A4.764,4.764,0,0,0,99.4-7.33a2.619,2.619,0,0,0-.514.048,1.693,1.693,0,0,0-.426.141.783.783,0,0,0-.29.237.546.546,0,0,0-.105.33.609.609,0,0,0,.158.422,1.374,1.374,0,0,0,.413.3,4.078,4.078,0,0,0,.567.229q.312.1.62.207a8.056,8.056,0,0,1,1,.422,3.2,3.2,0,0,1,.769.536,2.105,2.105,0,0,1,.492.721,2.562,2.562,0,0,1,.171.984,2.568,2.568,0,0,1-.347,1.367,2.78,2.78,0,0,1-.923.923,4.185,4.185,0,0,1-1.327.519A7.357,7.357,0,0,1,98.1.22,8.042,8.042,0,0,1,95.353-.237Z" transform="translate(663.702 10465.271)" fill="#fff"/>
    <path id="Trazado_192462" data-name="Trazado 192462" d="M4.28-4.342V0H1.441V-12.6H5.889q4.764,0,4.764,4.017A3.854,3.854,0,0,1,9.286-5.515,5.414,5.414,0,0,1,5.634-4.342Zm0-6.082V-6.5H5.4q2.268,0,2.268-1.986,0-1.942-2.268-1.942ZM18.1-6.5a2.409,2.409,0,0,0-1.169-.272,1.684,1.684,0,0,0-1.415.664A2.9,2.9,0,0,0,15-4.3V0H12.226V-9H15v1.67h.035a2.4,2.4,0,0,1,2.373-1.828,1.788,1.788,0,0,1,.686.105ZM23.247.22A4.838,4.838,0,0,1,19.71-1.042a4.573,4.573,0,0,1-1.288-3.423,4.573,4.573,0,0,1,1.336-3.494A5.048,5.048,0,0,1,23.37-9.22a4.78,4.78,0,0,1,3.516,1.261,4.483,4.483,0,0,1,1.274,3.335,4.759,4.759,0,0,1-1.314,3.542A4.892,4.892,0,0,1,23.247.22Zm.07-7.312a1.852,1.852,0,0,0-1.529.677A2.984,2.984,0,0,0,21.244-4.5q0,2.593,2.092,2.593,2,0,2-2.663Q25.33-7.093,23.318-7.093Zm9.457,6.047H32.74V0H29.962V-13.324H32.74v5.678h.035A3.3,3.3,0,0,1,35.7-9.22a3.211,3.211,0,0,1,2.681,1.2,5.155,5.155,0,0,1,.94,3.27,5.582,5.582,0,0,1-1.1,3.612A3.579,3.579,0,0,1,35.288.22,2.836,2.836,0,0,1,32.775-1.046Zm-.079-3.8v.923a2.107,2.107,0,0,0,.5,1.441,1.63,1.63,0,0,0,1.283.571,1.7,1.7,0,0,0,1.472-.734,3.543,3.543,0,0,0,.523-2.079A2.819,2.819,0,0,0,36-6.464a1.616,1.616,0,0,0-1.367-.628,1.766,1.766,0,0,0-1.384.624A2.37,2.37,0,0,0,32.7-4.843ZM43.9,0H41.124V-13.324H43.9ZM54.326-3.709H48.454q.141,1.96,2.47,1.96a4.822,4.822,0,0,0,2.61-.7v2A6.858,6.858,0,0,1,50.291.22,4.565,4.565,0,0,1,46.908-.989a4.566,4.566,0,0,1-1.2-3.371A4.816,4.816,0,0,1,47-7.91a4.334,4.334,0,0,1,3.2-1.31,3.933,3.933,0,0,1,3.045,1.169,4.5,4.5,0,0,1,1.077,3.173ZM51.75-5.414q0-1.934-1.564-1.934a1.494,1.494,0,0,0-1.156.554,2.513,2.513,0,0,0-.593,1.38ZM70.269,0H67.5V-5.133q0-1.96-1.441-1.96a1.324,1.324,0,0,0-1.116.589,2.42,2.42,0,0,0-.431,1.468V0H61.735V-5.186q0-1.907-1.415-1.907a1.356,1.356,0,0,0-1.138.563A2.475,2.475,0,0,0,58.755-5V0H55.978V-9h2.777v1.406h.035A3.321,3.321,0,0,1,60-8.767a3.321,3.321,0,0,1,1.7-.453,2.592,2.592,0,0,1,2.61,1.679A3.329,3.329,0,0,1,67.333-9.22q2.936,0,2.936,3.621Zm9.686,0H77.327V-1.292h-.035A2.933,2.933,0,0,1,74.611.22,2.8,2.8,0,0,1,72.55-.523,2.661,2.661,0,0,1,71.8-2.5q0-2.619,3.1-3.023l2.443-.325q0-1.477-1.6-1.477a5.46,5.46,0,0,0-3.059.958V-8.464a6.881,6.881,0,0,1,1.586-.527A8.339,8.339,0,0,1,76.1-9.22q3.85,0,3.85,3.841Zm-2.61-3.656v-.606l-1.635.211q-1.354.176-1.354,1.222a1.01,1.01,0,0,0,.33.778,1.266,1.266,0,0,0,.892.3,1.644,1.644,0,0,0,1.274-.541A1.952,1.952,0,0,0,77.344-3.656Z" transform="translate(1036.123 10677.451)" fill="#fff"/>
    <path id="Trazado_192463" data-name="Trazado 192463" d="M10.477-.448a8.311,8.311,0,0,1-3.6.668A6.074,6.074,0,0,1,2.312-1.485,6.233,6.233,0,0,1,.65-6.029a6.659,6.659,0,0,1,1.868-4.9,6.533,6.533,0,0,1,4.847-1.881,9.065,9.065,0,0,1,3.111.466v2.733a5.513,5.513,0,0,0-2.883-.756A3.824,3.824,0,0,0,4.729-9.255a4.142,4.142,0,0,0-1.09,3.023A4.062,4.062,0,0,0,4.667-3.318,3.633,3.633,0,0,0,7.436-2.232a5.905,5.905,0,0,0,3.041-.809ZM16.69.22a4.838,4.838,0,0,1-3.538-1.261,4.573,4.573,0,0,1-1.288-3.423A4.573,4.573,0,0,1,13.2-7.958,5.048,5.048,0,0,1,16.813-9.22a4.78,4.78,0,0,1,3.516,1.261A4.483,4.483,0,0,1,21.6-4.623,4.759,4.759,0,0,1,20.29-1.081,4.892,4.892,0,0,1,16.69.22Zm.07-7.312a1.852,1.852,0,0,0-1.529.677A2.984,2.984,0,0,0,14.687-4.5q0,2.593,2.092,2.593,2,0,2-2.663Q18.773-7.093,16.761-7.093ZM32.1,0H29.329V-5q0-2.092-1.494-2.092a1.483,1.483,0,0,0-1.187.554,2.109,2.109,0,0,0-.466,1.406V0H23.405V-9h2.777v1.424h.035A3.183,3.183,0,0,1,29.109-9.22q2.988,0,2.988,3.709Zm8.068-11.2a2.806,2.806,0,0,0-1.028-.211q-1.336,0-1.336,1.45V-9h2.057v2.048H37.8V0H35.033V-6.952H33.521V-9h1.512v-1.116a3.24,3.24,0,0,1,1-2.479,3.821,3.821,0,0,1,2.725-.94,4.785,4.785,0,0,1,1.406.176Zm2.435.773a1.622,1.622,0,0,1-1.151-.417A1.345,1.345,0,0,1,41-11.865a1.3,1.3,0,0,1,.448-1.02,1.676,1.676,0,0,1,1.151-.4,1.672,1.672,0,0,1,1.156.4,1.3,1.3,0,0,1,.444,1.02,1.34,1.34,0,0,1-.444,1.037A1.65,1.65,0,0,1,42.6-10.424ZM43.972,0H41.194V-9h2.777ZM55.134-1.028a5.092,5.092,0,0,1-1.45,3.88,5.877,5.877,0,0,1-4.2,1.375A6.659,6.659,0,0,1,46.6,3.709V1.371a5.521,5.521,0,0,0,2.8.809,3.02,3.02,0,0,0,2.18-.743A2.665,2.665,0,0,0,52.356-.58v-.712h-.035A3.1,3.1,0,0,1,49.518.22,3.372,3.372,0,0,1,46.784-.993a4.919,4.919,0,0,1-1.011-3.252A5.478,5.478,0,0,1,46.9-7.875,3.673,3.673,0,0,1,49.86-9.22a2.733,2.733,0,0,1,2.461,1.266h.035V-9h2.777Zm-2.742-3.3v-.712a2.188,2.188,0,0,0-.505-1.455,1.635,1.635,0,0,0-1.314-.6,1.7,1.7,0,0,0-1.45.721,3.389,3.389,0,0,0-.527,2.03,2.86,2.86,0,0,0,.5,1.78,1.633,1.633,0,0,0,1.371.655,1.7,1.7,0,0,0,1.393-.664A2.721,2.721,0,0,0,52.392-4.324ZM66.006,0H63.237V-1.371h-.044A3.141,3.141,0,0,1,60.442.22q-3.129,0-3.129-3.788V-9h2.769v5.186q0,1.907,1.512,1.907a1.5,1.5,0,0,0,1.2-.523,2.109,2.109,0,0,0,.448-1.419V-9h2.769Zm8.209-6.5a2.409,2.409,0,0,0-1.169-.272,1.684,1.684,0,0,0-1.415.664,2.9,2.9,0,0,0-.51,1.806V0H68.344V-9h2.777v1.67h.035a2.4,2.4,0,0,1,2.373-1.828,1.788,1.788,0,0,1,.686.105Zm8.6,6.5H80.187V-1.292h-.035A2.933,2.933,0,0,1,77.471.22,2.8,2.8,0,0,1,75.41-.523,2.661,2.661,0,0,1,74.659-2.5q0-2.619,3.1-3.023L80.2-5.854q0-1.477-1.6-1.477a5.46,5.46,0,0,0-3.059.958V-8.464a6.881,6.881,0,0,1,1.586-.527,8.339,8.339,0,0,1,1.833-.229q3.85,0,3.85,3.841ZM80.2-3.656v-.606l-1.635.211q-1.354.176-1.354,1.222a1.01,1.01,0,0,0,.33.778,1.266,1.266,0,0,0,.892.3,1.644,1.644,0,0,0,1.274-.541A1.952,1.952,0,0,0,80.2-3.656ZM91.833-.325A5.492,5.492,0,0,1,89.117.22a4.593,4.593,0,0,1-3.357-1.257A4.341,4.341,0,0,1,84.476-4.28,4.782,4.782,0,0,1,85.852-7.9,5.083,5.083,0,0,1,89.53-9.22a4.72,4.72,0,0,1,2.3.422v2.355a3.166,3.166,0,0,0-1.942-.65,2.559,2.559,0,0,0-1.894.7,2.607,2.607,0,0,0-.7,1.929,2.565,2.565,0,0,0,.668,1.876,2.455,2.455,0,0,0,1.837.681,3.666,3.666,0,0,0,2.03-.65Zm3.226-10.1a1.622,1.622,0,0,1-1.151-.417,1.345,1.345,0,0,1-.448-1.024,1.3,1.3,0,0,1,.448-1.02,1.676,1.676,0,0,1,1.151-.4,1.672,1.672,0,0,1,1.156.4,1.3,1.3,0,0,1,.444,1.02,1.34,1.34,0,0,1-.444,1.037A1.65,1.65,0,0,1,95.058-10.424ZM96.429,0H93.652V-9h2.777Zm6.627.22a4.838,4.838,0,0,1-3.538-1.261,4.573,4.573,0,0,1-1.288-3.423,4.573,4.573,0,0,1,1.336-3.494,5.048,5.048,0,0,1,3.612-1.261,4.78,4.78,0,0,1,3.516,1.261,4.483,4.483,0,0,1,1.274,3.335,4.759,4.759,0,0,1-1.314,3.542A4.892,4.892,0,0,1,103.056.22Zm.07-7.312a1.852,1.852,0,0,0-1.529.677,2.984,2.984,0,0,0-.545,1.916q0,2.593,2.092,2.593,2,0,2-2.663Q105.139-7.093,103.127-7.093Zm2.979-6.17-2.751,2.839h-2l2.285-2.839ZM118.455,0h-2.769V-5q0-2.092-1.494-2.092a1.483,1.483,0,0,0-1.187.554,2.109,2.109,0,0,0-.466,1.406V0h-2.777V-9h2.777v1.424h.035a3.183,3.183,0,0,1,2.892-1.644q2.988,0,2.988,3.709Z" transform="translate(538.282 10677.451)" fill="#fff"/>
    <path id="Trazado_192464" data-name="Trazado 192464" d="M.861-.483V-3.3a5.4,5.4,0,0,0,1.661.962,5.34,5.34,0,0,0,1.811.321,4.015,4.015,0,0,0,.936-.1,2.193,2.193,0,0,0,.668-.268,1.169,1.169,0,0,0,.4-.4,1.009,1.009,0,0,0,.132-.505,1.092,1.092,0,0,0-.211-.659,2.27,2.27,0,0,0-.576-.536,6.015,6.015,0,0,0-.866-.475q-.5-.229-1.081-.466a5.517,5.517,0,0,1-2.2-1.5A3.281,3.281,0,0,1,.809-9.07a3.416,3.416,0,0,1,.4-1.692,3.359,3.359,0,0,1,1.077-1.165A4.828,4.828,0,0,1,3.858-12.6a8.106,8.106,0,0,1,1.9-.215A11.418,11.418,0,0,1,7.5-12.7a6.861,6.861,0,0,1,1.4.365V-9.7a4.239,4.239,0,0,0-.69-.387,5.466,5.466,0,0,0-.769-.277,5.866,5.866,0,0,0-.787-.163,5.567,5.567,0,0,0-.743-.053,3.873,3.873,0,0,0-.879.092,2.254,2.254,0,0,0-.668.259,1.29,1.29,0,0,0-.422.4.948.948,0,0,0-.149.523,1,1,0,0,0,.167.567,1.916,1.916,0,0,0,.475.475,5.037,5.037,0,0,0,.747.439q.439.215.993.444a11.067,11.067,0,0,1,1.358.672,4.827,4.827,0,0,1,1.033.8,3.133,3.133,0,0,1,.659,1.024,3.618,3.618,0,0,1,.229,1.34,3.59,3.59,0,0,1-.4,1.771A3.247,3.247,0,0,1,7.972-.611a4.707,4.707,0,0,1-1.6.637A9.219,9.219,0,0,1,4.456.22,10.678,10.678,0,0,1,2.483.044,5.956,5.956,0,0,1,.861-.483ZM19.345-3.709H13.474q.141,1.96,2.47,1.96a4.822,4.822,0,0,0,2.61-.7v2A6.858,6.858,0,0,1,15.311.22,4.565,4.565,0,0,1,11.927-.989a4.566,4.566,0,0,1-1.2-3.371,4.816,4.816,0,0,1,1.3-3.551,4.334,4.334,0,0,1,3.2-1.31,3.933,3.933,0,0,1,3.045,1.169,4.5,4.5,0,0,1,1.077,3.173ZM16.77-5.414q0-1.934-1.564-1.934a1.494,1.494,0,0,0-1.156.554,2.513,2.513,0,0,0-.593,1.38ZM29.386-9,26.038,0H22.874l-3.19-9h2.971l1.564,5.546a8.1,8.1,0,0,1,.308,1.6h.035A9.078,9.078,0,0,1,24.886-3.4l1.6-5.6ZM38.3-3.709H32.432q.141,1.96,2.47,1.96a4.822,4.822,0,0,0,2.61-.7v2A6.858,6.858,0,0,1,34.269.22,4.565,4.565,0,0,1,30.885-.989a4.566,4.566,0,0,1-1.2-3.371,4.816,4.816,0,0,1,1.3-3.551,4.334,4.334,0,0,1,3.2-1.31,3.933,3.933,0,0,1,3.045,1.169A4.5,4.5,0,0,1,38.3-4.878ZM35.728-5.414q0-1.934-1.564-1.934a1.494,1.494,0,0,0-1.156.554,2.513,2.513,0,0,0-.593,1.38ZM45.827-6.5a2.409,2.409,0,0,0-1.169-.272,1.684,1.684,0,0,0-1.415.664,2.9,2.9,0,0,0-.51,1.806V0H39.955V-9h2.777v1.67h.035a2.4,2.4,0,0,1,2.373-1.828,1.788,1.788,0,0,1,.686.105ZM48.6-10.424a1.622,1.622,0,0,1-1.151-.417A1.345,1.345,0,0,1,47-11.865a1.3,1.3,0,0,1,.448-1.02,1.676,1.676,0,0,1,1.151-.4,1.672,1.672,0,0,1,1.156.4,1.3,1.3,0,0,1,.444,1.02,1.34,1.34,0,0,1-.444,1.037A1.65,1.65,0,0,1,48.6-10.424ZM49.966,0H47.189V-9h2.777ZM61.111,0H58.333V-1.239H58.3A3.114,3.114,0,0,1,55.512.22,3.412,3.412,0,0,1,52.8-.971,4.93,4.93,0,0,1,51.768-4.3,5.366,5.366,0,0,1,52.9-7.875,3.7,3.7,0,0,1,55.872-9.22,2.527,2.527,0,0,1,58.3-7.972h.035v-5.353h2.777ZM58.386-4.377v-.677a2.13,2.13,0,0,0-.51-1.459,1.683,1.683,0,0,0-1.327-.58,1.673,1.673,0,0,0-1.441.725,3.367,3.367,0,0,0-.519,1.991,2.914,2.914,0,0,0,.5,1.828,1.663,1.663,0,0,0,1.389.642,1.67,1.67,0,0,0,1.375-.677A2.821,2.821,0,0,0,58.386-4.377ZM70.937,0H68.309V-1.292h-.035A2.933,2.933,0,0,1,65.593.22a2.8,2.8,0,0,1-2.061-.743A2.661,2.661,0,0,1,62.781-2.5q0-2.619,3.1-3.023l2.443-.325q0-1.477-1.6-1.477a5.46,5.46,0,0,0-3.059.958V-8.464a6.881,6.881,0,0,1,1.586-.527,8.339,8.339,0,0,1,1.833-.229q3.85,0,3.85,3.841Zm-2.61-3.656v-.606l-1.635.211q-1.354.176-1.354,1.222a1.01,1.01,0,0,0,.33.778,1.266,1.266,0,0,0,.892.3,1.644,1.644,0,0,0,1.274-.541A1.952,1.952,0,0,0,68.327-3.656ZM81.941,0H79.163V-1.239h-.035A3.114,3.114,0,0,1,76.342.22,3.412,3.412,0,0,1,73.626-.971,4.93,4.93,0,0,1,72.6-4.3a5.366,5.366,0,0,1,1.134-3.577A3.7,3.7,0,0,1,76.7-9.22a2.527,2.527,0,0,1,2.426,1.248h.035v-5.353h2.777ZM79.216-4.377v-.677a2.13,2.13,0,0,0-.51-1.459,1.683,1.683,0,0,0-1.327-.58,1.673,1.673,0,0,0-1.441.725,3.367,3.367,0,0,0-.519,1.991,2.914,2.914,0,0,0,.5,1.828,1.663,1.663,0,0,0,1.389.642,1.67,1.67,0,0,0,1.375-.677A2.821,2.821,0,0,0,79.216-4.377Z" transform="translate(889.313 10893.031)" fill="#fff"/>
    <path id="Trazado_192465" data-name="Trazado 192465" d="M4.28-4.342V0H1.441V-12.6H5.889q4.764,0,4.764,4.017A3.854,3.854,0,0,1,9.286-5.515,5.414,5.414,0,0,1,5.634-4.342Zm0-6.082V-6.5H5.4q2.268,0,2.268-1.986,0-1.942-2.268-1.942ZM19.086,0H16.458V-1.292h-.035A2.933,2.933,0,0,1,13.742.22a2.8,2.8,0,0,1-2.061-.743A2.661,2.661,0,0,1,10.929-2.5q0-2.619,3.1-3.023l2.443-.325q0-1.477-1.6-1.477a5.46,5.46,0,0,0-3.059.958V-8.464A6.881,6.881,0,0,1,13.4-8.991a8.339,8.339,0,0,1,1.833-.229q3.85,0,3.85,3.841Zm-2.61-3.656v-.606l-1.635.211q-1.354.176-1.354,1.222a1.01,1.01,0,0,0,.33.778,1.266,1.266,0,0,0,.892.3,1.644,1.644,0,0,0,1.274-.541A1.952,1.952,0,0,0,16.475-3.656ZM20.694-.237v-2.25a5.913,5.913,0,0,0,1.367.615,4.531,4.531,0,0,0,1.288.2,2.762,2.762,0,0,0,1.165-.2.653.653,0,0,0,.426-.615.569.569,0,0,0-.193-.439,1.8,1.8,0,0,0-.5-.308,5.635,5.635,0,0,0-.664-.237q-.36-.105-.694-.237a6.653,6.653,0,0,1-.945-.435,2.731,2.731,0,0,1-.686-.541,2.125,2.125,0,0,1-.422-.712,2.841,2.841,0,0,1-.145-.958,2.466,2.466,0,0,1,.33-1.3,2.692,2.692,0,0,1,.879-.892,4.016,4.016,0,0,1,1.257-.51,6.553,6.553,0,0,1,1.472-.163,8.168,8.168,0,0,1,1.213.092,9.053,9.053,0,0,1,1.213.268v2.145a4.383,4.383,0,0,0-1.129-.461,4.764,4.764,0,0,0-1.182-.154,2.619,2.619,0,0,0-.514.048,1.693,1.693,0,0,0-.426.141.783.783,0,0,0-.29.237.546.546,0,0,0-.105.33.609.609,0,0,0,.158.422,1.374,1.374,0,0,0,.413.3,4.078,4.078,0,0,0,.567.229q.312.1.62.207a8.056,8.056,0,0,1,1,.422,3.2,3.2,0,0,1,.769.536,2.105,2.105,0,0,1,.492.721,2.562,2.562,0,0,1,.171.984,2.568,2.568,0,0,1-.347,1.367,2.78,2.78,0,0,1-.923.923,4.185,4.185,0,0,1-1.327.519,7.357,7.357,0,0,1-1.56.163A8.042,8.042,0,0,1,20.694-.237Zm12.8.457a4.838,4.838,0,0,1-3.538-1.261,4.573,4.573,0,0,1-1.288-3.423A4.573,4.573,0,0,1,30-7.958,5.048,5.048,0,0,1,33.614-9.22,4.78,4.78,0,0,1,37.13-7.958,4.483,4.483,0,0,1,38.4-4.623,4.759,4.759,0,0,1,37.09-1.081,4.892,4.892,0,0,1,33.491.22Zm.07-7.312a1.852,1.852,0,0,0-1.529.677A2.984,2.984,0,0,0,31.487-4.5q0,2.593,2.092,2.593,2,0,2-2.663Q35.574-7.093,33.561-7.093ZM39.617-.237v-2.25a5.913,5.913,0,0,0,1.367.615,4.531,4.531,0,0,0,1.288.2,2.762,2.762,0,0,0,1.165-.2.653.653,0,0,0,.426-.615.569.569,0,0,0-.193-.439,1.8,1.8,0,0,0-.5-.308,5.635,5.635,0,0,0-.664-.237q-.36-.105-.694-.237a6.653,6.653,0,0,1-.945-.435,2.731,2.731,0,0,1-.686-.541,2.125,2.125,0,0,1-.422-.712,2.841,2.841,0,0,1-.145-.958,2.466,2.466,0,0,1,.33-1.3,2.692,2.692,0,0,1,.879-.892,4.016,4.016,0,0,1,1.257-.51,6.553,6.553,0,0,1,1.472-.163,8.168,8.168,0,0,1,1.213.092,9.053,9.053,0,0,1,1.213.268v2.145a4.383,4.383,0,0,0-1.129-.461,4.764,4.764,0,0,0-1.182-.154,2.619,2.619,0,0,0-.514.048,1.693,1.693,0,0,0-.426.141.783.783,0,0,0-.29.237.546.546,0,0,0-.105.33.609.609,0,0,0,.158.422,1.374,1.374,0,0,0,.413.3,4.078,4.078,0,0,0,.567.229q.312.1.62.207a8.056,8.056,0,0,1,1,.422,3.2,3.2,0,0,1,.769.536,2.105,2.105,0,0,1,.492.721,2.562,2.562,0,0,1,.171.984,2.568,2.568,0,0,1-.347,1.367,2.78,2.78,0,0,1-.923.923,4.185,4.185,0,0,1-1.327.519,7.357,7.357,0,0,1-1.56.163A8.042,8.042,0,0,1,39.617-.237Z" transform="translate(678.603 10893.031)" fill="#fff"/>
    <path id="Trazado_192466" data-name="Trazado 192466" d="M23.1,0A23.1,23.1,0,1,1,0,23.1,23.1,23.1,0,0,1,23.1,0Z" transform="translate(959.643 10391.502)" fill="#36dac9"/>
    <path id="Trazado_192467" data-name="Trazado 192467" d="M17.96,0A17.96,17.96,0,1,1,0,17.96,17.96,17.96,0,0,1,17.96,0Z" transform="translate(964.782 10396.642)" fill="#36dac9"/>
    <path id="Trazado_192468" data-name="Trazado 192468" d="M7.313-12.885V0H4.544V-9.756A3.315,3.315,0,0,1,4-9.374a5.58,5.58,0,0,1-.664.325A5.925,5.925,0,0,1,2.61-8.8a5.328,5.328,0,0,1-.747.145V-11A11.549,11.549,0,0,0,3.9-11.8a11.6,11.6,0,0,0,1.731-1.081Z" transform="translate(977.582 10418.791)"/>
    <path id="Trazado_192469" data-name="Trazado 192469" d="M23.1,0A23.1,23.1,0,1,1,0,23.1,23.1,23.1,0,0,1,23.1,0Z" transform="translate(1051.973 10591.031)" fill="#36dac9"/>
    <path id="Trazado_192470" data-name="Trazado 192470" d="M17.96,0A17.96,17.96,0,1,1,0,17.96,17.96,17.96,0,0,1,17.96,0Z" transform="translate(1057.112 10596.172)" fill="#36dac9"/>
    <path id="Trazado_192471" data-name="Trazado 192471" d="M3.771-2.3H9.114V0H.729V-.949a4.418,4.418,0,0,1,.325-1.736,5.76,5.76,0,0,1,.817-1.38A7.09,7.09,0,0,1,2.949-5.146q.584-.47,1.112-.848.554-.4.971-.756a5.534,5.534,0,0,0,.7-.716,2.723,2.723,0,0,0,.426-.721A2.143,2.143,0,0,0,6.3-8.965a1.563,1.563,0,0,0-.457-1.222,2.032,2.032,0,0,0-1.4-.413A4.694,4.694,0,0,0,1.336-9.308v-2.443a6.679,6.679,0,0,1,3.709-1.063,5.478,5.478,0,0,1,1.718.25,3.635,3.635,0,0,1,1.288.716,3.055,3.055,0,0,1,.8,1.129,3.811,3.811,0,0,1,.277,1.481A4.176,4.176,0,0,1,8.864-7.69a4.753,4.753,0,0,1-.712,1.23A6.458,6.458,0,0,1,7.128-5.445q-.58.461-1.2.892-.422.3-.813.593a7.707,7.707,0,0,0-.69.58,3.149,3.149,0,0,0-.475.558A.963.963,0,0,0,3.771-2.3Z" transform="translate(1069.912 10618.271)"/>
    <path id="Trazado_192472" data-name="Trazado 192472" d="M23.1,0A23.1,23.1,0,1,1,0,23.1,23.1,23.1,0,0,1,23.1,0Z" transform="translate(906.543 10830.972)" fill="#36dac9"/>
    <path id="Trazado_192473" data-name="Trazado 192473" d="M17.96,0A17.96,17.96,0,1,1,0,17.96,17.96,17.96,0,0,1,17.96,0Z" transform="translate(911.683 10836.111)" fill="#36dac9"/>
    <path id="Trazado_192474" data-name="Trazado 192474" d="M1.028-.413V-2.83a4.878,4.878,0,0,0,2.953.923,2.659,2.659,0,0,0,1.657-.457,1.517,1.517,0,0,0,.593-1.274,1.449,1.449,0,0,0-.734-1.3A3.8,3.8,0,0,0,3.48-5.4H2.312V-7.523H3.393q2.461,0,2.461-1.635,0-1.538-1.89-1.538A4.308,4.308,0,0,0,1.5-9.879v-2.268A6.8,6.8,0,0,1,4.6-12.814a4.669,4.669,0,0,1,3.01.87A2.769,2.769,0,0,1,8.684-9.686a2.937,2.937,0,0,1-2.5,3.094v.044a3.405,3.405,0,0,1,2.109.971A2.738,2.738,0,0,1,9.062-3.6,3.382,3.382,0,0,1,7.77-.809,5.586,5.586,0,0,1,4.2.22,6.9,6.9,0,0,1,1.028-.413Z" transform="translate(924.473 10858.262)"/>
    <path id="Trazado_192475" data-name="Trazado 192475" d="M23.1,0A23.1,23.1,0,1,1,0,23.1,23.1,23.1,0,0,1,23.1,0Z" transform="translate(680.423 10807.871)" fill="#36dac9"/>
    <path id="Trazado_192476" data-name="Trazado 192476" d="M17.96,0A17.96,17.96,0,1,1,0,17.96,17.96,17.96,0,0,1,17.96,0Z" transform="translate(685.563 10813.012)" fill="#36dac9"/>
    <path id="Trazado_192477" data-name="Trazado 192477" d="M8.367-12.6v7.945H9.879v2.074H8.367V0H5.836V-2.584H.343V-4.755q.729-.817,1.512-1.789t1.512-2q.729-1.028,1.358-2.07A20.749,20.749,0,0,0,5.792-12.6ZM2.83-4.658H5.836v-4.4q-.308.571-.668,1.156T4.412-6.754q-.4.567-.8,1.1T2.83-4.658Z" transform="translate(698.362 10835.151)"/>
    <path id="Trazado_192478" data-name="Trazado 192478" d="M23.1,0A23.1,23.1,0,1,1,0,23.1,23.1,23.1,0,0,1,23.1,0Z" transform="translate(572.162 10582.231)" fill="#36dac9"/>
    <path id="Trazado_192479" data-name="Trazado 192479" d="M17.96,0A17.96,17.96,0,1,1,0,17.96,17.96,17.96,0,0,1,17.96,0Z" transform="translate(577.303 10587.371)" fill="#36dac9"/>
    <path id="Trazado_192480" data-name="Trazado 192480" d="M1.248-.325V-2.7A5.181,5.181,0,0,0,4-1.907,2.584,2.584,0,0,0,5.717-2.43a1.76,1.76,0,0,0,.62-1.419q0-1.872-2.646-1.872a19.59,19.59,0,0,0-2.25.149L1.916-12.6H8.587v2.268H4.034L3.858-7.813q.677-.053,1.169-.053a4.3,4.3,0,0,1,3.041,1.02A3.56,3.56,0,0,1,9.167-4.1,4.048,4.048,0,0,1,7.857-.989,5.032,5.032,0,0,1,4.307.22,7.6,7.6,0,0,1,1.248-.325Z" transform="translate(590.103 10609.491)"/>
    <path id="Trazado_192481" data-name="Trazado 192481" d="M23.1,0A23.1,23.1,0,1,1,0,23.1,23.1,23.1,0,0,1,23.1,0Z" transform="translate(698.383 10386.361)" fill="#36dac9"/>
    <path id="Trazado_192482" data-name="Trazado 192482" d="M17.96,0A17.96,17.96,0,1,1,0,17.96,17.96,17.96,0,0,1,17.96,0Z" transform="translate(703.522 10391.502)" fill="#36dac9"/>
    <path id="Trazado_192483" data-name="Trazado 192483" d="M9.756-4.192a4.62,4.62,0,0,1-.325,1.74,4.248,4.248,0,0,1-.905,1.4,4.189,4.189,0,0,1-1.38.932A4.443,4.443,0,0,1,5.4.22a4.412,4.412,0,0,1-1.9-.4A3.841,3.841,0,0,1,2.074-1.323a5.363,5.363,0,0,1-.888-1.841,9.1,9.1,0,0,1-.308-2.47,10.168,10.168,0,0,1,.4-2.949,6.77,6.77,0,0,1,1.143-2.263,5.132,5.132,0,0,1,1.8-1.455,5.345,5.345,0,0,1,2.373-.514,5.986,5.986,0,0,1,2.268.343v2.32A4.158,4.158,0,0,0,6.768-10.7a2.923,2.923,0,0,0-1.274.272,2.817,2.817,0,0,0-.98.773,3.74,3.74,0,0,0-.642,1.208,5.378,5.378,0,0,0-.25,1.578h.053A3.057,3.057,0,0,1,6.319-8.1a3.447,3.447,0,0,1,1.415.281,3.07,3.07,0,0,1,1.081.8A3.649,3.649,0,0,1,9.51-5.792,4.927,4.927,0,0,1,9.756-4.192ZM7.04-4.017q0-2.03-1.661-2.03a1.63,1.63,0,0,0-.686.141,1.525,1.525,0,0,0-.527.4,1.8,1.8,0,0,0-.338.6,2.366,2.366,0,0,0-.119.769,2.974,2.974,0,0,0,.123.87,2.311,2.311,0,0,0,.347.708,1.719,1.719,0,0,0,.532.479,1.357,1.357,0,0,0,.686.176,1.484,1.484,0,0,0,.681-.154A1.525,1.525,0,0,0,6.6-2.492a1.979,1.979,0,0,0,.33-.668A3.047,3.047,0,0,0,7.04-4.017Z" transform="translate(716.322 10413.621)"/>
    <path id="Trazado_192484" data-name="Trazado 192484" d="M13.916,0H10.479l-1-3.115H4.5L3.516,0H.1L5.2-14h3.74ZM8.76-5.537l-1.5-4.707a6.134,6.134,0,0,1-.234-1.26H6.943A5.341,5.341,0,0,1,6.7-10.283L5.176-5.537Z" transform="translate(753.793 10620.111)" fill="#12263f"/>
    <path id="Trazado_192485" data-name="Trazado 192485" d="M10.957,0H7.881V-5.557q0-2.324-1.66-2.324A1.647,1.647,0,0,0,4.9-7.266,2.344,2.344,0,0,0,4.385-5.7V0H1.3V-10H4.385v1.582h.039a3.536,3.536,0,0,1,3.213-1.826q3.32,0,3.32,4.121ZM21.719,0H18.8V-1.436H18.76A3.259,3.259,0,0,1,15.781.244a3.116,3.116,0,0,1-2.29-.825,2.957,2.957,0,0,1-.835-2.2q0-2.91,3.447-3.359L18.818-6.5q0-1.641-1.777-1.641a6.067,6.067,0,0,0-3.4,1.064V-9.4a7.646,7.646,0,0,1,1.763-.586,9.266,9.266,0,0,1,2.036-.254q4.277,0,4.277,4.268Zm-2.9-4.062v-.674L17-4.5q-1.5.2-1.5,1.357a1.122,1.122,0,0,0,.366.864,1.407,1.407,0,0,0,.991.337,1.827,1.827,0,0,0,1.416-.6A2.169,2.169,0,0,0,18.818-4.062ZM20.8-14.736l-3.057,3.154H15.518l2.539-3.154ZM27.246,0H24.16V-14.8h3.086Zm4.16-11.582a1.8,1.8,0,0,1-1.279-.464,1.5,1.5,0,0,1-.5-1.138,1.441,1.441,0,0,1,.5-1.133,1.862,1.862,0,0,1,1.279-.439,1.858,1.858,0,0,1,1.284.439,1.448,1.448,0,0,1,.493,1.133,1.489,1.489,0,0,1-.493,1.152A1.833,1.833,0,0,1,31.406-11.582ZM32.93,0H29.844V-10H32.93Zm1.943-.264v-2.5a6.57,6.57,0,0,0,1.519.684,5.035,5.035,0,0,0,1.431.225,3.068,3.068,0,0,0,1.294-.225.726.726,0,0,0,.474-.684.632.632,0,0,0-.215-.488,2,2,0,0,0-.552-.342,6.261,6.261,0,0,0-.737-.264q-.4-.117-.771-.264a7.392,7.392,0,0,1-1.05-.483,3.034,3.034,0,0,1-.762-.6A2.361,2.361,0,0,1,35.034-6a3.157,3.157,0,0,1-.161-1.064,2.74,2.74,0,0,1,.366-1.445,2.991,2.991,0,0,1,.977-.991,4.462,4.462,0,0,1,1.4-.566,7.281,7.281,0,0,1,1.636-.181,9.076,9.076,0,0,1,1.348.1,10.058,10.058,0,0,1,1.348.3v2.383a4.87,4.87,0,0,0-1.255-.513,5.294,5.294,0,0,0-1.313-.171,2.91,2.91,0,0,0-.571.054,1.882,1.882,0,0,0-.474.156.87.87,0,0,0-.322.264.607.607,0,0,0-.117.366.677.677,0,0,0,.176.469,1.527,1.527,0,0,0,.459.337,4.531,4.531,0,0,0,.63.254q.347.112.688.229a8.951,8.951,0,0,1,1.113.469,3.56,3.56,0,0,1,.854.6,2.339,2.339,0,0,1,.547.8,2.846,2.846,0,0,1,.19,1.094,2.853,2.853,0,0,1-.386,1.519A3.088,3.088,0,0,1,41.138-.513a4.65,4.65,0,0,1-1.475.576A8.175,8.175,0,0,1,37.93.244,8.936,8.936,0,0,1,34.873-.264ZM45.889-11.582a1.8,1.8,0,0,1-1.279-.464,1.5,1.5,0,0,1-.5-1.138,1.441,1.441,0,0,1,.5-1.133,1.862,1.862,0,0,1,1.279-.439,1.858,1.858,0,0,1,1.284.439,1.448,1.448,0,0,1,.493,1.133,1.489,1.489,0,0,1-.493,1.152A1.833,1.833,0,0,1,45.889-11.582ZM47.412,0H44.326V-10h3.086Zm1.943-.264v-2.5a6.57,6.57,0,0,0,1.519.684,5.035,5.035,0,0,0,1.431.225A3.068,3.068,0,0,0,53.6-2.08a.726.726,0,0,0,.474-.684.632.632,0,0,0-.215-.488,2,2,0,0,0-.552-.342,6.261,6.261,0,0,0-.737-.264q-.4-.117-.771-.264a7.392,7.392,0,0,1-1.05-.483,3.034,3.034,0,0,1-.762-.6A2.361,2.361,0,0,1,49.517-6a3.157,3.157,0,0,1-.161-1.064,2.74,2.74,0,0,1,.366-1.445A2.991,2.991,0,0,1,50.7-9.5a4.462,4.462,0,0,1,1.4-.566,7.281,7.281,0,0,1,1.636-.181,9.076,9.076,0,0,1,1.348.1,10.058,10.058,0,0,1,1.348.3v2.383a4.87,4.87,0,0,0-1.255-.513,5.294,5.294,0,0,0-1.313-.171,2.91,2.91,0,0,0-.571.054,1.882,1.882,0,0,0-.474.156.87.87,0,0,0-.322.264.607.607,0,0,0-.117.366.677.677,0,0,0,.176.469,1.527,1.527,0,0,0,.459.337,4.531,4.531,0,0,0,.63.254q.347.112.688.229a8.951,8.951,0,0,1,1.113.469,3.56,3.56,0,0,1,.854.6,2.339,2.339,0,0,1,.547.8,2.846,2.846,0,0,1,.19,1.094,2.853,2.853,0,0,1-.386,1.519A3.088,3.088,0,0,1,55.62-.513a4.65,4.65,0,0,1-1.475.576,8.175,8.175,0,0,1-1.733.181A8.936,8.936,0,0,1,49.355-.264ZM73.848-10,69.785.8Q68.32,4.7,65.371,4.7a5.655,5.655,0,0,1-1.846-.254V1.982a2.6,2.6,0,0,0,1.338.361,1.671,1.671,0,0,0,1.66-1.123l.527-1.24L62.988-10h3.418l1.865,6.084a7.906,7.906,0,0,1,.273,1.338h.039A9.329,9.329,0,0,1,68.906-3.9L70.791-10ZM89.59-4.121H83.066q.156,2.178,2.744,2.178a5.357,5.357,0,0,0,2.9-.781V-.5a7.619,7.619,0,0,1-3.6.742A5.073,5.073,0,0,1,81.348-1.1,5.073,5.073,0,0,1,80.01-4.844a5.352,5.352,0,0,1,1.445-3.945,4.815,4.815,0,0,1,3.555-1.455,4.37,4.37,0,0,1,3.384,1.3,5,5,0,0,1,1.2,3.525ZM86.729-6.016q0-2.148-1.738-2.148a1.66,1.66,0,0,0-1.284.615,2.792,2.792,0,0,0-.659,1.533ZM101.084,0H98.008V-5.557q0-2.324-1.66-2.324a1.647,1.647,0,0,0-1.318.615A2.344,2.344,0,0,0,94.512-5.7V0H91.426V-10h3.086v1.582h.039a3.536,3.536,0,0,1,3.213-1.826q3.32,0,3.32,4.121Zm8.486-.117a4.561,4.561,0,0,1-2.061.361q-3.262,0-3.262-3.389v-4.58h-1.621V-10h1.621v-2.158l3.076-.879V-10h2.246v2.275h-2.246v4.043q0,1.563,1.24,1.563A2.091,2.091,0,0,0,109.57-2.4Z" transform="translate(766.782 10620.111)" fill="#12263f"/>
    <path id="Trazado_192486" data-name="Trazado 192486" d="M7.822-7.217a2.677,2.677,0,0,0-1.3-.3,1.871,1.871,0,0,0-1.572.737,3.217,3.217,0,0,0-.566,2.007V0H1.3V-10H4.385v1.855h.039a2.67,2.67,0,0,1,2.637-2.031,1.987,1.987,0,0,1,.762.117Z" transform="translate(873.952 10620.111)" fill="#12263f"/>
    <path id="Trazado_192487" data-name="Trazado 192487" d="M10.283-4.121H3.76Q3.916-1.943,6.5-1.943a5.357,5.357,0,0,0,2.9-.781V-.5A7.619,7.619,0,0,1,5.8.244,5.073,5.073,0,0,1,2.041-1.1,5.073,5.073,0,0,1,.7-4.844,5.352,5.352,0,0,1,2.148-8.789,4.815,4.815,0,0,1,5.7-10.244a4.37,4.37,0,0,1,3.384,1.3,5,5,0,0,1,1.2,3.525ZM7.422-6.016q0-2.148-1.738-2.148A1.66,1.66,0,0,0,4.4-7.549,2.792,2.792,0,0,0,3.74-6.016Zm14.5,4.873a5.658,5.658,0,0,1-1.611,4.312A6.53,6.53,0,0,1,15.645,4.7a7.4,7.4,0,0,1-3.2-.576v-2.6a6.134,6.134,0,0,0,3.115.9A3.355,3.355,0,0,0,17.979,1.6a2.961,2.961,0,0,0,.859-2.241v-.791H18.8A3.446,3.446,0,0,1,15.684.244,3.747,3.747,0,0,1,12.646-1.1a5.465,5.465,0,0,1-1.123-3.613,6.087,6.087,0,0,1,1.25-4.033,4.081,4.081,0,0,1,3.291-1.494A3.037,3.037,0,0,1,18.8-8.838h.039V-10h3.086ZM18.877-4.8V-5.6a2.431,2.431,0,0,0-.562-1.616,1.816,1.816,0,0,0-1.46-.669,1.888,1.888,0,0,0-1.611.8,3.766,3.766,0,0,0-.586,2.256,3.178,3.178,0,0,0,.557,1.978,1.814,1.814,0,0,0,1.523.728,1.888,1.888,0,0,0,1.548-.737A3.023,3.023,0,0,0,18.877-4.8ZM32.822,0H29.9V-1.436h-.039A3.259,3.259,0,0,1,26.885.244a3.116,3.116,0,0,1-2.29-.825,2.957,2.957,0,0,1-.835-2.2q0-2.91,3.447-3.359L29.922-6.5q0-1.641-1.777-1.641a6.067,6.067,0,0,0-3.4,1.064V-9.4a7.646,7.646,0,0,1,1.763-.586,9.266,9.266,0,0,1,2.036-.254q4.277,0,4.277,4.268Zm-2.9-4.062v-.674L28.105-4.5q-1.5.2-1.5,1.357a1.122,1.122,0,0,0,.366.864,1.407,1.407,0,0,0,.991.337,1.827,1.827,0,0,0,1.416-.6A2.169,2.169,0,0,0,29.922-4.062Z" transform="translate(881.063 10620.111)" fill="#12263f"/>
    <path id="Trazado_192488" data-name="Trazado 192488" d="M11.084,0H8V-1.377H7.959A3.46,3.46,0,0,1,4.863.244,3.791,3.791,0,0,1,1.846-1.079,5.478,5.478,0,0,1,.7-4.775,5.962,5.962,0,0,1,1.963-8.75a4.109,4.109,0,0,1,3.3-1.494,2.808,2.808,0,0,1,2.7,1.387H8V-14.8h3.086ZM8.057-4.863v-.752A2.366,2.366,0,0,0,7.49-7.236a1.871,1.871,0,0,0-1.475-.645,1.859,1.859,0,0,0-1.6.806,3.741,3.741,0,0,0-.576,2.212,3.237,3.237,0,0,0,.557,2.031,1.848,1.848,0,0,0,1.543.713,1.856,1.856,0,0,0,1.528-.752A3.134,3.134,0,0,0,8.057-4.863Zm14.609.742H16.143q.156,2.178,2.744,2.178a5.357,5.357,0,0,0,2.9-.781V-.5a7.619,7.619,0,0,1-3.6.742A5.073,5.073,0,0,1,14.424-1.1a5.073,5.073,0,0,1-1.338-3.745,5.352,5.352,0,0,1,1.445-3.945,4.815,4.815,0,0,1,3.555-1.455,4.37,4.37,0,0,1,3.384,1.3,5,5,0,0,1,1.2,3.525ZM19.8-6.016q0-2.148-1.738-2.148a1.66,1.66,0,0,0-1.284.615,2.792,2.792,0,0,0-.659,1.533Z" transform="translate(772.853 10644.111)" fill="#12263f"/>
    <path id="Trazado_192489" data-name="Trazado 192489" d="M7.822-7.217a2.677,2.677,0,0,0-1.3-.3,1.871,1.871,0,0,0-1.572.737,3.217,3.217,0,0,0-.566,2.007V0H1.3V-10H4.385v1.855h.039a2.67,2.67,0,0,1,2.637-2.031,1.987,1.987,0,0,1,.762.117Z" transform="translate(799.912 10644.111)" fill="#12263f"/>
    <path id="Trazado_192490" data-name="Trazado 192490" d="M10.283-4.121H3.76Q3.916-1.943,6.5-1.943a5.357,5.357,0,0,0,2.9-.781V-.5A7.619,7.619,0,0,1,5.8.244,5.073,5.073,0,0,1,2.041-1.1,5.073,5.073,0,0,1,.7-4.844,5.352,5.352,0,0,1,2.148-8.789,4.815,4.815,0,0,1,5.7-10.244a4.37,4.37,0,0,1,3.384,1.3,5,5,0,0,1,1.2,3.525ZM7.422-6.016q0-2.148-1.738-2.148A1.66,1.66,0,0,0,4.4-7.549,2.792,2.792,0,0,0,3.74-6.016ZM11.465-.264v-2.5a6.57,6.57,0,0,0,1.519.684,5.035,5.035,0,0,0,1.431.225,3.068,3.068,0,0,0,1.294-.225.726.726,0,0,0,.474-.684.632.632,0,0,0-.215-.488,2,2,0,0,0-.552-.342,6.261,6.261,0,0,0-.737-.264q-.4-.117-.771-.264a7.392,7.392,0,0,1-1.05-.483,3.034,3.034,0,0,1-.762-.6A2.361,2.361,0,0,1,11.626-6a3.157,3.157,0,0,1-.161-1.064,2.74,2.74,0,0,1,.366-1.445,2.991,2.991,0,0,1,.977-.991,4.462,4.462,0,0,1,1.4-.566,7.281,7.281,0,0,1,1.636-.181,9.076,9.076,0,0,1,1.348.1,10.059,10.059,0,0,1,1.348.3v2.383a4.87,4.87,0,0,0-1.255-.513,5.294,5.294,0,0,0-1.313-.171,2.91,2.91,0,0,0-.571.054,1.882,1.882,0,0,0-.474.156.87.87,0,0,0-.322.264.607.607,0,0,0-.117.366.677.677,0,0,0,.176.469,1.527,1.527,0,0,0,.459.337,4.531,4.531,0,0,0,.63.254q.347.112.688.229a8.951,8.951,0,0,1,1.113.469,3.56,3.56,0,0,1,.854.6,2.339,2.339,0,0,1,.547.8,2.846,2.846,0,0,1,.19,1.094,2.853,2.853,0,0,1-.386,1.519A3.088,3.088,0,0,1,17.729-.513a4.65,4.65,0,0,1-1.475.576,8.175,8.175,0,0,1-1.733.181A8.936,8.936,0,0,1,11.465-.264ZM30.42,0H27.344V-1.523h-.049A3.49,3.49,0,0,1,24.238.244q-3.477,0-3.477-4.209V-10h3.076v5.762q0,2.119,1.68,2.119A1.661,1.661,0,0,0,26.846-2.7a2.343,2.343,0,0,0,.5-1.577V-10H30.42ZM36.1,0H33.018V-14.8H36.1Zm8.643-.117a4.561,4.561,0,0,1-2.061.361q-3.262,0-3.262-3.389v-4.58H37.8V-10h1.621v-2.158l3.076-.879V-10h2.246v2.275H42.5v4.043q0,1.563,1.24,1.563A2.091,2.091,0,0,0,44.746-2.4ZM54.8,0h-2.92V-1.436h-.039A3.259,3.259,0,0,1,48.867.244a3.116,3.116,0,0,1-2.29-.825,2.957,2.957,0,0,1-.835-2.2q0-2.91,3.447-3.359L51.9-6.5q0-1.641-1.777-1.641a6.067,6.067,0,0,0-3.4,1.064V-9.4a7.646,7.646,0,0,1,1.763-.586,9.266,9.266,0,0,1,2.036-.254q4.277,0,4.277,4.268ZM51.9-4.062v-.674L50.088-4.5q-1.5.2-1.5,1.357a1.122,1.122,0,0,0,.366.864,1.407,1.407,0,0,0,.991.337,1.827,1.827,0,0,0,1.416-.6A2.169,2.169,0,0,0,51.9-4.062ZM67.031,0H63.945V-1.377h-.039a3.46,3.46,0,0,1-3.1,1.621,3.791,3.791,0,0,1-3.018-1.323,5.478,5.478,0,0,1-1.143-3.7A5.962,5.962,0,0,1,57.91-8.75a4.109,4.109,0,0,1,3.3-1.494,2.808,2.808,0,0,1,2.7,1.387h.039V-14.8h3.086ZM64-4.863v-.752a2.366,2.366,0,0,0-.566-1.621,1.871,1.871,0,0,0-1.475-.645,1.859,1.859,0,0,0-1.6.806,3.741,3.741,0,0,0-.576,2.212,3.237,3.237,0,0,0,.557,2.031,1.848,1.848,0,0,0,1.543.713,1.856,1.856,0,0,0,1.528-.752A3.134,3.134,0,0,0,64-4.863ZM74.395.244a5.376,5.376,0,0,1-3.931-1.4,5.081,5.081,0,0,1-1.431-3.8,5.081,5.081,0,0,1,1.484-3.882,5.609,5.609,0,0,1,4.014-1.4,5.311,5.311,0,0,1,3.906,1.4,4.981,4.981,0,0,1,1.416,3.706A5.288,5.288,0,0,1,78.394-1.2,5.435,5.435,0,0,1,74.395.244Zm.078-8.125a2.058,2.058,0,0,0-1.7.752A3.316,3.316,0,0,0,72.168-5q0,2.881,2.324,2.881,2.217,0,2.217-2.959Q76.709-7.881,74.473-7.881ZM81.2-.264v-2.5a6.57,6.57,0,0,0,1.519.684,5.035,5.035,0,0,0,1.431.225,3.068,3.068,0,0,0,1.294-.225.726.726,0,0,0,.474-.684.632.632,0,0,0-.215-.488,2,2,0,0,0-.552-.342,6.261,6.261,0,0,0-.737-.264q-.4-.117-.771-.264a7.392,7.392,0,0,1-1.05-.483,3.034,3.034,0,0,1-.762-.6A2.361,2.361,0,0,1,81.362-6,3.157,3.157,0,0,1,81.2-7.061a2.74,2.74,0,0,1,.366-1.445,2.991,2.991,0,0,1,.977-.991,4.462,4.462,0,0,1,1.4-.566,7.281,7.281,0,0,1,1.636-.181,9.076,9.076,0,0,1,1.348.1,10.059,10.059,0,0,1,1.348.3v2.383a4.87,4.87,0,0,0-1.255-.513A5.294,5.294,0,0,0,85.7-8.145a2.91,2.91,0,0,0-.571.054,1.882,1.882,0,0,0-.474.156.87.87,0,0,0-.322.264.607.607,0,0,0-.117.366.677.677,0,0,0,.176.469,1.527,1.527,0,0,0,.459.337,4.531,4.531,0,0,0,.63.254q.347.112.688.229a8.951,8.951,0,0,1,1.113.469,3.56,3.56,0,0,1,.854.6,2.339,2.339,0,0,1,.547.8,2.846,2.846,0,0,1,.19,1.094,2.853,2.853,0,0,1-.386,1.519A3.088,3.088,0,0,1,87.466-.513a4.65,4.65,0,0,1-1.475.576,8.175,8.175,0,0,1-1.733.181A8.936,8.936,0,0,1,81.2-.264Z" transform="translate(807.022 10644.111)" fill="#12263f"/>
  </g>
</svg>
