<svg xmlns="http://www.w3.org/2000/svg" width="150.721" height="157.327" viewBox="0 0 150.721 157.327">
  <g id="Grupo_94270" data-name="Grupo 94270" transform="translate(-954.279 -5937.288)">
    <path id="Trazado_185604" data-name="Trazado 185604" d="M143.938,376.23c-1.343-.682-2.833-.534-4.258-.743a78.3,78.3,0,0,1-20.06-5.827c.411-.333.879-.218,1.33-.218h37.475c-.386.858-1.232,1.33-1.778,2.053a2.749,2.749,0,0,0,0,3.848c.218.275.53.472.526.875Z" transform="translate(879.297 5718.384)" fill="#1565b2"/>
    <path id="Trazado_185605" data-name="Trazado 185605" d="M209.141,358.623c0-.411-.308-.6-.526-.875a2.789,2.789,0,0,1,0-3.848c.563-.706,1.392-1.179,1.778-2.053,3.47-3.339,3.495-2.18,0-5.54-.275-.76-.965-1.166-1.474-1.729-1.31-1.454-1.421-3.08-.259-4.234s2.8-1.064,4.2.324c1.56,1.552,3.047,3.182,4.648,4.694,3.285,3.092,3.285,4.283-.021,7.47a28.358,28.358,0,0,0-4.673,5.018c-.411.242-.973.246-1.232.756Z" transform="translate(827.3 5735.991)" fill="#fe7085"/>
    <path id="Trazado_185606" data-name="Trazado 185606" d="M137.966,240.791a28.054,28.054,0,0,1,4.673-5.018c3.285-3.187,3.306-4.377.021-7.47-1.6-1.511-3.088-3.141-4.648-4.694-1.4-1.388-3.014-1.495-4.2-.324s-1.051,2.78.259,4.234c.509.563,1.2.969,1.474,1.729H93.5a12.475,12.475,0,0,1-12.66-12.175c-.066-12.787,0-25.575,0-38.362.821-.041,1.643-.062,2.435-.127,7.663-.612,12.676-9.5,9.243-16.368a8.123,8.123,0,0,0-4.086-4.837c-.049-.324-.279-.374-.55-.361h.041c-2.082-1.692-4.57-1.815-7.112-1.893v-1.987A12.457,12.457,0,0,1,91.486,141.15a60.927,60.927,0,0,1,6.878-.082,10.328,10.328,0,0,0,5.806,6.739q6.891,3.158,13.8,6.275a17.347,17.347,0,0,0,10.13,1.54c4.825-.793,8.931-3.338,13.268-5.338a44.5,44.5,0,0,0,7.157-3.338,9.206,9.206,0,0,0,4.291-5.872,31.353,31.353,0,0,1,7.5.148c6.5,1.3,10.344,6.64,10.143,13.888q-5.371,0-10.742.053c-3.651.029-5.815,2.176-5.843,5.823-.029,3.835,0,7.671,0,11.5,0,4.065,2.053,6.127,6.123,6.16l10.41.09.053,9.034-10.57.074c-3.815.029-6.02,2.189-6.04,5.971q-.037,5.823,0,11.646c.021,3.778,2.234,5.946,6.036,5.967l10.574.057-.053,9.075c-3.733,0-7.47,0-11.2.053a5.188,5.188,0,0,0-5.31,5.063c-.094,3.675,0,7.359,0,11.038a66.277,66.277,0,0,1-15.933,4.082Zm7.071-48.55a25.772,25.772,0,1,0-51.543-.172c.025,14.664,11.33,25.3,25.049,25.8C133.293,218.407,145.317,206.092,145.037,192.242Z" transform="translate(902.17 5853.055)" fill="#1565b2"/>
    <path id="Trazado_185607" data-name="Trazado 185607" d="M34.4,157.8a69.759,69.759,0,0,1-17.814-26.149c-9.831-25.7-6.895-49.987,8.9-72.523a72.428,72.428,0,0,1,30.831-24.8,2.743,2.743,0,0,1,.448-.111V46.786a7.909,7.909,0,0,0,.854,3.839c1.733,3.285,4.636,4.41,8.135,4.435q7.966.057,15.933.09v2.718a31.909,31.909,0,0,0-8.246,3.145c-3.244,1.462-6.463,2.965-9.732,4.369a11,11,0,0,0-6.6,7.153c-1.889.025-3.782.025-5.671.078a17.144,17.144,0,0,0-11.26,4.542c-4.509,4.02-6.373,9.124-6.123,15.083-.411.021-.821.045-1.232.057a11.755,11.755,0,0,0-11.58,10.915c-.575,5.531,3.458,10.972,9.182,12.286a33.529,33.529,0,0,0,3.642.439C34.267,129.891,33.66,143.852,34.4,157.8Z" transform="translate(943.362 5915.939)" fill="#1565b2"/>
    <path id="Trazado_185608" data-name="Trazado 185608" d="M221.741,30.56a65.645,65.645,0,0,1,12.578,5.93,2.744,2.744,0,0,1-.374,1.31,28.009,28.009,0,0,0-2.053,8.734,21.353,21.353,0,0,0,5.071,15.153A31.619,31.619,0,0,0,252.157,71.8c4.443,1.392,8.981,1.121,13.514,1.162a68.9,68.9,0,0,1,5.162,20.729,74.691,74.691,0,0,1-8.5,42.994c-.382.715-.821,1.388-1.252,2.082l-.062-9.781c-.029-3.905-2.275-6.16-6.16-6.16h-10.4v-.033q-.025-4.464-.053-8.923c3.7-.411,7.367-.066,11.05-.2a5.421,5.421,0,0,0,5.568-5.531q.119-6.221,0-12.442a5.4,5.4,0,0,0-5.593-5.5c-3.634-.041-7.272,0-10.907,0l-.025-.057c-.025-.608-.062-1.232-.078-1.831A18.117,18.117,0,0,0,226.492,70.49l-5.2-.09a10.337,10.337,0,0,0-6.16-6.952c-2.5-1.133-4.981-2.328-7.506-3.408-3.544-1.519-6.891-3.556-10.767-4.225V53l6.192-.115c3.421,0,6.849.16,10.266,0,5.478-.222,8.451-3.466,8.459-8.956Z" transform="translate(833.774 5918.097)" fill="#1565b2"/>
    <path id="Trazado_185609" data-name="Trazado 185609" d="M315.823,81.473c-4.517-.041-9.071.23-13.514-1.162A31.619,31.619,0,0,1,287.115,70.2a21.353,21.353,0,0,1-5.071-15.153A28.715,28.715,0,0,1,284.1,46.31a2.68,2.68,0,0,0,.374-1.31,70.388,70.388,0,0,1,17.411,14.146,74.548,74.548,0,0,1,13.506,21.037A13.45,13.45,0,0,1,315.823,81.473Z" transform="translate(783.593 5909.586)" fill="#4480bf"/>
    <path id="Trazado_185610" data-name="Trazado 185610" d="M67.563,274.706c-.743-13.962-.136-27.923-.324-41.885a21.3,21.3,0,0,1,5.552-.119c0,12.787-.062,25.575,0,38.362a12.494,12.494,0,0,0,12.66,12.175q21.021.037,42.049,0c3.511,3.359,3.486,2.2,0,5.539H90.025c-.452,0-.928-.115-1.33.218-1.942-.563-3.942-.082-5.926-.411-7.445-1.3-12.295-5.523-14.754-12.6C67.888,275.56,67.723,275.133,67.563,274.706Z" transform="translate(910.201 5799.035)" fill="#f79fb0"/>
    <path id="Trazado_185611" data-name="Trazado 185611" d="M203.949,14.274V27.607c0,5.49-2.981,8.734-8.459,8.956-3.417.14-6.845,0-10.266,0-2.538-3.536-2.328-4.813.287-8.139,2.509,0,5.018,0,7.527-.033,1.8-.025,2.608-.858,2.612-2.628V14.085c0-2.341-.53-2.874-2.874-2.874l-24.458-.041c-.949-1.454-1.9-2.874-1.585-4.784.205-1.232.986-2.238,1.232-3.437,9.412,0,18.828-.049,28.24,0a8.041,8.041,0,0,1,7.72,7.675C203.962,11.818,203.945,13.046,203.949,14.274Z" transform="translate(851.566 5934.383)" fill="#9ad7f8"/>
    <path id="Trazado_185612" data-name="Trazado 185612" d="M141.947,2.9c-.25,1.2-1.031,2.2-1.232,3.437-.312,1.909.636,3.33,1.585,4.784l-9.059.045c-1.823,0-2.341.534-2.345,2.394V25.383c0,2.316,0,2.287,2.332,2.809a8.312,8.312,0,0,0,1.807.193h12.438l-.029,8.307q-7.966-.041-15.933-.09c-3.5-.025-6.4-1.154-8.135-4.435a7.909,7.909,0,0,1-.854-3.839V10.72a7.864,7.864,0,0,1,7.769-7.8C134.215,2.835,138.071,2.893,141.947,2.9Z" transform="translate(877.587 5934.414)" fill="#72c2f7"/>
    <path id="Trazado_185613" data-name="Trazado 185613" d="M306.533,255.12h10.4c3.9.021,6.16,2.275,6.16,6.16l.062,9.781a44.513,44.513,0,0,1-4.993,7.638H306.5v-.033c-3.17-1.232-4.406-3.6-4.287-6.944.127-3.474.029-6.956.033-10.43a8.022,8.022,0,0,1,.193-1.815C302.973,257.247,304.636,256.089,306.533,255.12Z" transform="translate(771.69 5785.75)" fill="#fddb40"/>
    <path id="Trazado_185614" data-name="Trazado 185614" d="M258.767,351c0-3.7-.115-7.363,0-11.038a5.188,5.188,0,0,1,5.31-5.063c3.729-.07,7.465-.041,11.2-.053H280.3c-2.645,1.569-3.655,3.31-3.646,6.57A68.471,68.471,0,0,1,258.767,351Z" transform="translate(797.319 5738.76)" fill="#fddb40"/>
    <path id="Trazado_185615" data-name="Trazado 185615" d="M312.583,312.65h11.662a58.66,58.66,0,0,1-8.254,9.223,11.544,11.544,0,0,0-1.68-.074c-1.355.123-1.881-.341-1.8-1.795C312.657,317.557,312.575,315.1,312.583,312.65Z" transform="translate(765.619 5751.844)" fill="#1565b2"/>
    <path id="Trazado_185616" data-name="Trazado 185616" d="M304.626,312.585c0,2.464.074,4.928-.062,7.355-.078,1.454.448,1.918,1.8,1.794a11.553,11.553,0,0,1,1.68.074,53.324,53.324,0,0,1-7.671,6.451c0-3.248,1-4.989,3.646-6.57H299l.062-9.083,5.568-.066Z" transform="translate(773.577 5751.909)" fill="#f3e08d"/>
    <path id="Trazado_185617" data-name="Trazado 185617" d="M163.232,228.65c.279,13.851-11.744,26.166-26.5,25.632a25.8,25.8,0,1,1,26.5-25.632Z" transform="translate(883.976 5816.646)" fill="#4480bf"/>
    <path id="Trazado_185618" data-name="Trazado 185618" d="M280.842,278.629l-5.568.066-10.574-.058c-3.8,0-6.016-2.189-6.036-5.967q-.037-5.823,0-11.646c.021-3.782,2.226-5.942,6.04-5.971l10.57-.074,5.572.025v.033c-1.9.969-3.56,2.127-4.082,4.4a8.025,8.025,0,0,0-.193,1.815c0,3.474.094,6.956-.033,10.43C276.448,275.027,277.68,277.384,280.842,278.629Z" transform="translate(797.361 5785.832)" fill="#fdb232"/>
    <path id="Trazado_185619" data-name="Trazado 185619" d="M275.221,199.147l-10.434-.053c-4.053-.029-6.11-2.09-6.123-6.16,0-3.839-.025-7.675,0-11.5.029-3.646,2.193-5.794,5.843-5.823,3.581-.033,7.162-.037,10.742-.053h5.634l.025.057c-3.445,1.232-4.554,3.823-4.361,7.313a73.436,73.436,0,0,1,0,8.558c-.209,3.285.78,5.876,3.733,7.548Z" transform="translate(797.356 5832.639)" fill="#fe8e33"/>
    <path id="Trazado_185620" data-name="Trazado 185620" d="M54.388,199.089a21.131,21.131,0,0,0-5.552.119,33.529,33.529,0,0,1-3.642-.439,11.739,11.739,0,0,1,2.4-23.2c.411,0,.821-.037,1.232-.057h5.552c2.521.078,5.03.189,7.112,1.9a15.308,15.308,0,0,1-2.735-.16,15.231,15.231,0,0,0-6.517.411,6.822,6.822,0,0,0-4.928,7.092,6.7,6.7,0,0,0,5.227,6.529,22.757,22.757,0,0,0,8.053.119,6.213,6.213,0,0,0,3.31-1.774c2.242-1.889,2.279-4.423,2.176-7.018,3.433,6.866-1.581,15.756-9.243,16.368C56.014,199.027,55.2,199.048,54.388,199.089Z" transform="translate(928.604 5832.668)" fill="#fd4155"/>
    <path id="Trazado_185621" data-name="Trazado 185621" d="M166.526,150.505c-4.336,1.983-8.443,4.517-13.268,5.338a17.347,17.347,0,0,1-10.13-1.54q-6.911-3.117-13.8-6.275a10.328,10.328,0,0,1-5.806-6.739l10.648-.021a84.334,84.334,0,0,1,10.574,4.7c3.852,1.9,7.519,2.431,11.465.255a12.3,12.3,0,0,1,4.468-1.864c.029,3.979,1.17,5.392,4.747,5.835C165.812,150.23,166.247,150.1,166.526,150.505Z" transform="translate(876.998 5852.849)" fill="#9080f0"/>
    <path id="Trazado_185622" data-name="Trazado 185622" d="M82.344,184.825c.1,2.6.066,5.129-2.176,7.018a6.241,6.241,0,0,1-3.31,1.774,23.249,23.249,0,0,1-8.053-.119,6.7,6.7,0,0,1-5.227-6.521,6.84,6.84,0,0,1,4.928-7.092,15.231,15.231,0,0,1,6.517-.411,15.305,15.305,0,0,0,2.735.16h-.045c.082.275.312.324.55.361A8.122,8.122,0,0,1,82.344,184.825Z" transform="translate(912.326 5830.438)" fill="#fe7085"/>
    <path id="Trazado_185623" data-name="Trazado 185623" d="M264.37,147.179h-5.634c.2-7.248-3.646-12.59-10.143-13.888a31.353,31.353,0,0,0-7.5-.148c-1.474-.021-2.952,0-4.427-.066-2.016-.082-4.045.259-6.049-.2,1.232-.472,2.546-.94,2.628-2.538s-1.232-2.053-2.324-2.636a.53.53,0,0,1-.1-.111l10.34-.152,5.195.09a18.117,18.117,0,0,1,17.937,17.818C264.309,145.96,264.346,146.559,264.37,147.179Z" transform="translate(813.877 5861)" fill="#f3e08d"/>
    <path id="Trazado_185624" data-name="Trazado 185624" d="M100.99,133.156l-10.648.021a58.164,58.164,0,0,0-6.878.082,12.48,12.48,0,0,0-10.677,11.987v1.987h-5.54a18.2,18.2,0,0,1,6.1-15.083,17.144,17.144,0,0,1,11.26-4.542c1.889-.053,3.782-.053,5.671-.078l10.484.119a8.622,8.622,0,0,1-.793.411,2.4,2.4,0,0,0-1.68,2.308,2.224,2.224,0,0,0,1.544,2.053C100.235,132.651,100.6,132.918,100.99,133.156Z" transform="translate(910.176 5860.946)" fill="#f79fb0"/>
    <path id="Trazado_185625" data-name="Trazado 185625" d="M220.825,140.68c2,.46,4.032.119,6.049.2,1.474.062,2.952.045,4.427.066a9.207,9.207,0,0,1-4.291,5.872,44.5,44.5,0,0,1-7.157,3.338c-.279-.411-.715-.275-1.1-.324-3.577-.443-4.718-1.856-4.747-5.835C216.123,142.577,218.575,141.838,220.825,140.68Z" transform="translate(823.673 5853.196)" fill="#a59cfa"/>
    <path id="Trazado_185626" data-name="Trazado 185626" d="M299,232.829l5.059-.119.513.259q.029,4.46.053,8.923l-5.568-.029Q299.033,237.346,299,232.829Z" transform="translate(773.577 5798.957)" fill="#f3e08d"/>
    <path id="Trazado_185627" data-name="Trazado 185627" d="M98.58,180.48c-.238-.037-.468-.086-.55-.361C98.3,180.111,98.531,180.16,98.58,180.48Z" transform="translate(892.021 5829.953)" fill="#fd4155"/>
    <path id="Trazado_185628" data-name="Trazado 185628" d="M133.854,111.112l-10.484-.119a10.993,10.993,0,0,1,6.6-7.153c3.281-1.4,6.488-2.907,9.732-4.369-1.137,4.106.431,6.57,4.316,6.755-.057.14-.078.361-.181.411Q138.851,108.886,133.854,111.112Z" transform="translate(877.086 5877.484)" fill="#9080f0"/>
    <path id="Trazado_185629" data-name="Trazado 185629" d="M183.2,73.267q0-4.152.029-8.307l5.523.049V84.35a15.642,15.642,0,0,0-5.548.029q0-4.193-.033-8.389Z" transform="translate(841.843 5897.823)" fill="#fefefe"/>
    <path id="Trazado_185630" data-name="Trazado 185630" d="M170.866,91.81q0,4.2.033,8.389c-1.285.6-2.464,1.445-3.963,1.511-3.885-.193-5.453-2.649-4.316-6.755A31.684,31.684,0,0,1,170.866,91.81Z" transform="translate(854.167 5881.998)" fill="#a59cfa"/>
    <path id="Trazado_185631" data-name="Trazado 185631" d="M306.447,199.3l-.513-.259c-2.952-1.671-3.942-4.242-3.733-7.548a73.449,73.449,0,0,0,0-8.558c-.193-3.49.916-6.061,4.361-7.313,3.634,0,7.272-.037,10.907,0a5.4,5.4,0,0,1,5.593,5.5q.123,6.221,0,12.442a5.421,5.421,0,0,1-5.568,5.531C313.814,199.238,310.127,198.9,306.447,199.3Z" transform="translate(771.706 5832.61)" fill="#fdb232"/>
    <path id="Trazado_185632" data-name="Trazado 185632" d="M196.81,100.235V91.92c3.876.669,7.223,2.706,10.767,4.225,2.525,1.08,5.006,2.275,7.506,3.408a10.357,10.357,0,0,1,6.16,6.952l-10.336.152a38.9,38.9,0,0,1-5.7-2.5C202.382,102.884,199.5,101.763,196.81,100.235Z" transform="translate(833.804 5881.934)" fill="#a59cfa"/>
    <path id="Trazado_185633" data-name="Trazado 185633" d="M196.74,72.7V64.485a13.551,13.551,0,0,1,6.48-.029c-2.616,3.326-2.825,4.6-.287,8.139Z" transform="translate(833.845 5898.343)" fill="#72c2f7"/>
    <path id="Trazado_185634" data-name="Trazado 185634" d="M171.477,40.247a13.551,13.551,0,0,0-6.472.045l-5.523-.045H147.036a8.312,8.312,0,0,1-1.823-.172c-2.324-.522-2.332-.493-2.332-2.809V25.443c0-1.86.522-2.382,2.345-2.394L154.3,23l24.433.045c2.357,0,2.874.526,2.874,2.874V37.6c0,1.77-.821,2.6-2.612,2.628C176.495,40.247,173.986,40.247,171.477,40.247Z" transform="translate(865.588 5922.552)" fill="#49b0f6"/>
    <path id="Trazado_185635" data-name="Trazado 185635" d="M165.026,111.851c2.69,1.528,5.572,2.649,8.381,3.926a39.232,39.232,0,0,0,5.7,2.5.53.53,0,0,0,.1.111c1.1.591,2.4,1.072,2.324,2.636s-1.388,2.053-2.628,2.538c-2.25,1.158-4.7,1.9-6.825,3.318a12.3,12.3,0,0,0-4.468,1.864c-3.946,2.176-7.613,1.643-11.465-.255a82.206,82.206,0,0,0-10.574-4.7c-.386-.238-.756-.5-1.154-.706-.85-.443-1.552-.977-1.544-2.053a2.385,2.385,0,0,1,1.68-2.308,8.625,8.625,0,0,0,.793-.411q4.993-2.23,9.983-4.48c.1-.045.123-.267.181-.411,1.487-.066,2.677-.916,3.963-1.511a15.641,15.641,0,0,1,5.548-.053Z" transform="translate(865.588 5870.317)" fill="#816ae1"/>
  </g>
</svg>
