<svg xmlns="http://www.w3.org/2000/svg" width="151" height="156.2" viewBox="0 0 151 156.2">
  <g id="Grupo_94271" data-name="Grupo 94271" transform="translate(-472 -6146.89)">
    <circle id="Elipse_7654" data-name="Elipse 7654" cx="75.5" cy="75.5" r="75.5" transform="translate(472 6152.09)" fill="#1565b2"/>
    <path id="Trazado_185583" data-name="Trazado 185583" d="M276.759,38.1c-.033.908-.094,1.815-.094,2.723v91.737c0,3.1.226,2.608-2.727,2.645-2.587.037-5.178.053-7.765.078-.764-.71-1.552-1.4-2.3-2.139q-13.551-13.465-27.073-26.946a10.186,10.186,0,0,1,1.585-3.868c7.055.029,14.114.082,21.173.082,4.217,0,3.7.505,3.864-3.8.082-2.086-.686-2.591-2.649-2.558-6.71.1-13.42.037-20.121.033l1.6-8.816c5.667,0,11.334.045,17,.021,4.607-.025,4.024.657,4.168-4.131.053-1.831-.7-2.222-2.349-2.2-6.229.07-12.455.029-18.68.033q-.489-4.217-.965-8.435h17.657c4.722,0,4.213.37,4.361-4.279.066-2.008-.678-2.464-2.542-2.464-7.141.09-14.282.037-21.423.041q-1.93-4.213-3.852-8.418c7.827,0,15.658.025,23.484,0,4.887-.025,4.18.7,4.316-4.382.045-1.675-.411-2.353-2.217-2.337-10.065.078-20.121.049-30.2.057l-3.388-3.749V9.179q9.855-.033,19.711-.049a3.766,3.766,0,0,1,.973.275c-.025,8.664,0,17.329-.115,25.993-.025,1.918.686,2.345,2.464,2.328,8.595-.078,17.189-.041,25.788-.045A3,3,0,0,0,276.759,38.1Z" transform="translate(333.398 6137.83)" fill="#f0f4fb"/>
    <path id="Trazado_185584" data-name="Trazado 185584" d="M140.882,120.857l-1.6,8.816q-1.125,3.121-2.259,6.242a10.132,10.132,0,0,0-1.585,3.868,109.329,109.329,0,0,1-9.149,12.2h-.411c-.1-1.01-.92-1.519-1.536-2.164-3.807-3.967-7.925-7.634-11.543-11.789l1.441-2a18.479,18.479,0,0,0,4.106-6.316,22.476,22.476,0,0,0,2.833-8.841,18.606,18.606,0,0,0,.329-6.324,22.577,22.577,0,0,0-1.926-8.816,18.868,18.868,0,0,0-3.322-6.689,25.731,25.731,0,0,0-8.024-8.069A27.458,27.458,0,0,0,91.4,85.6a26.469,26.469,0,0,0-13.387,2.681c-3.564,1.33-6.3,3.909-9.239,6.16-3.61-4.135-7.712-7.8-11.5-11.744-.661-.612-1.482-1.125-1.626-2.115A48.248,48.248,0,0,1,77.381,67.909a5.681,5.681,0,0,0,.743-.329c.616-.107,1.232-.193,1.844-.32a50.753,50.753,0,0,1,30.7,2.936,56.47,56.47,0,0,1,15.571,10.41l3.388,3.749,4.6,6.677q1.922,4.209,3.852,8.418l1.963,6.693q.48,4.221.965,8.435Q140.948,117.715,140.882,120.857Z" transform="translate(434.756 6104.239)" fill="#feb001"/>
    <path id="Trazado_185585" data-name="Trazado 185585" d="M34.2,101.34c.144.99.965,1.5,1.581,2.127,3.79,3.954,7.892,7.609,11.5,11.744-6.812,7.6-10.13,16.376-8.418,26.6,1.807,10.726,7.663,18.553,17.616,23.181a25.915,25.915,0,0,0,13.428,2.735,24.092,24.092,0,0,0,11.568-2.464c3.848-1.306,6.862-3.876,9.855-6.48,3.618,4.156,7.736,7.823,11.543,11.789.616.645,1.433,1.154,1.536,2.164a67.345,67.345,0,0,1-7.576,6.16c-1.306.891-2.874,1.4-3.905,2.7-2.012.148-3.6,1.413-5.4,2.1a51.246,51.246,0,0,1-30.847,1.823,55.437,55.437,0,0,1-17.313-8.25v.045l-.554-.431.057.049-.526-.411a55.313,55.313,0,0,1-14.853-19.238c-7.88-17.308-4.542-39.273,8.278-53.383C32.564,103.04,33.39,102.2,34.2,101.34Z" transform="translate(456.204 6083.484)" fill="#fdd301"/>
    <path id="Trazado_185586" data-name="Trazado 185586" d="M158.495,46.915a57.358,57.358,0,0,0-15.571-10.426,50.753,50.753,0,0,0-30.7-2.936c-.612.127-1.232.214-1.844.32V10.763c0-1.084.041-1.811,1.523-1.8,15.543.07,31.089.074,46.632.094Q158.5,27.993,158.495,46.915Z" transform="translate(402.5 6137.93)" fill="#fdfdfe"/>
    <path id="Trazado_185587" data-name="Trazado 185587" d="M305.872,38.057c-8.6,0-17.193-.033-25.788.045-1.766,0-2.464-.411-2.464-2.328.115-8.664.09-17.329.115-25.993,6.739,6.661,13.5,13.317,20.162,20.035C300.6,32.521,303.531,35.01,305.872,38.057Z" transform="translate(303.936 6137.446)" fill="#dbe0ea"/>
    <path id="Trazado_185588" data-name="Trazado 185588" d="M65.76,284.43l.526.411Z" transform="translate(428.798 5975.578)" fill="#2864ef"/>
    <path id="Trazado_185589" data-name="Trazado 185589" d="M66.9,285.32l.554.431Z" transform="translate(428.126 5975.054)" fill="#2864ef"/>
    <path id="Trazado_185590" data-name="Trazado 185590" d="M227.67,257.7a109.327,109.327,0,0,0,9.149-12.2q13.551,13.477,27.073,26.946c.743.739,1.532,1.429,2.3,2.139,2.094,2.144,4.164,4.308,6.291,6.414.653.653.875,1.1.094,1.848-3.363,3.232-6.681,6.513-10.011,9.773-.411-.476-.772-.99-1.211-1.429q-16.2-16.22-32.412-32.416C228.545,258.386,228.093,258.057,227.67,257.7Z" transform="translate(333.374 5998.522)" fill="#e78815"/>
    <path id="Trazado_185591" data-name="Trazado 185591" d="M210.579,275.2c.411.361.875.69,1.269,1.08q16.212,16.2,32.412,32.416c.439.439.821.953,1.211,1.429-3.182,3.228-6.414,6.414-9.523,9.707-1.113,1.174-1.519.144-2.078-.411q-11.794-11.761-23.567-23.546c-1.33-1.33-2.7-2.62-4.057-3.926l-7.576-7.88c1.018-1.306,2.6-1.811,3.905-2.7a67.343,67.343,0,0,0,7.576-6.16Z" transform="translate(350.466 5981.018)" fill="#fe9812"/>
    <path id="Trazado_185592" data-name="Trazado 185592" d="M146.587,296.8l7.576,7.884q-21.144.025-42.3.078c-1.17,0-1.643-.324-1.56-1.523.074-.821,0-1.675,0-2.513a51.246,51.246,0,0,0,30.847-1.823C142.99,298.213,144.575,296.948,146.587,296.8Z" transform="translate(402.549 5968.288)" fill="#fcfbfa"/>
    <path id="Trazado_185593" data-name="Trazado 185593" d="M240.4,117.114l-4.6-6.677c10.069,0,20.121,0,30.2-.057,1.8,0,2.263.661,2.217,2.337-.136,5.084.571,4.357-4.316,4.382C256.073,117.139,248.242,117.114,240.4,117.114Z" transform="translate(328.583 6078.157)" fill="#ced2e1"/>
    <path id="Trazado_185594" data-name="Trazado 185594" d="M258.383,153.913l-1.963-6.693c7.141,0,14.282.049,21.423-.041,1.864-.025,2.608.443,2.542,2.464-.148,4.648.361,4.275-4.361,4.279Z" transform="translate(316.43 6056.47)" fill="#ced2e1"/>
    <path id="Trazado_185595" data-name="Trazado 185595" d="M253.81,227.072q1.125-3.125,2.259-6.242c6.71,0,13.42.066,20.121-.033,1.963-.033,2.731.472,2.649,2.558-.172,4.3.353,3.8-3.864,3.8C267.924,227.155,260.869,227.1,253.81,227.072Z" transform="translate(317.969 6013.082)" fill="#ccd1e0"/>
    <path id="Trazado_185596" data-name="Trazado 185596" d="M263.21,190.352q.07-3.141.14-6.279c6.225,0,12.451.037,18.68-.033,1.643,0,2.4.37,2.349,2.2-.144,4.788.439,4.106-4.168,4.131C274.544,190.4,268.873,190.36,263.21,190.352Z" transform="translate(312.428 6034.744)" fill="#ccd1e0"/>
    <path id="Trazado_185597" data-name="Trazado 185597" d="M144.773,165.933c-3,2.6-6.012,5.174-9.855,6.48-3-.029-6,.049-8.993-.119-2-.111-2.874.534-2.575,2.566a25.915,25.915,0,0,1-13.42-2.727,18.722,18.722,0,0,0,.181-1.864V117.855c0-.554-.094-1.109-.144-1.643a26.468,26.468,0,0,1,13.387-2.681c0,1.047.082,2.1,0,3.137-.156,1.7.46,2.345,2.23,2.3,4.878-.107,9.757-.057,14.639-.07a25.673,25.673,0,0,1,8.02,8.069,3.68,3.68,0,0,1-2.427.411H127.382c-4.455,0-3.917-.6-4.041,4.032-.045,1.7.489,2.316,2.254,2.3,8.656-.078,17.317-.041,25.973-.049a22.577,22.577,0,0,1,1.926,8.816q-13.108,0-26.211.021c-4.34,0-3.807-.53-3.946,3.926-.057,1.811.485,2.427,2.361,2.41,9.153-.082,18.31-.033,27.468-.033a22.61,22.61,0,0,1-2.833,8.841c-7.683,0-15.366-.037-23.049-.025-4.328,0-3.811-.522-3.946,3.93-.053,1.811.485,2.435,2.361,2.41,6.841-.086,13.691,0,20.532,0Z" transform="translate(402.766 6076.34)" fill="#fcfdfd"/>
    <path id="Trazado_185598" data-name="Trazado 185598" d="M84.019,120.11c.049.554.144,1.109.144,1.643v52.414c0,.62-.119,1.232-.181,1.864-9.95-4.607-15.805-12.438-17.62-23.16-1.712-10.221,1.606-19,8.418-26.6C77.728,124.019,80.458,121.44,84.019,120.11Z" transform="translate(428.706 6072.422)" fill="#2964ee"/>
    <path id="Trazado_185599" data-name="Trazado 185599" d="M172.353,190.394c-9.157,0-18.314-.049-27.468.033-1.877,0-2.419-.6-2.361-2.41.14-4.455-.411-3.913,3.946-3.926,8.738-.025,17.473,0,26.211-.021A18.3,18.3,0,0,1,172.353,190.394Z" transform="translate(383.558 6034.727)" fill="#dbe0ea"/>
    <path id="Trazado_185600" data-name="Trazado 185600" d="M170.764,152.993c-8.656,0-17.317-.029-25.973.049-1.766,0-2.3-.6-2.254-2.3.123-4.628-.411-4.012,4.041-4.032,6.16-.029,12.29,0,18.434,0a3.587,3.587,0,0,0,2.427-.411A18.861,18.861,0,0,1,170.764,152.993Z" transform="translate(383.55 6056.987)" fill="#dbe0ea"/>
    <path id="Trazado_185601" data-name="Trazado 185601" d="M165.428,227.258c-6.845,0-13.695-.086-20.532,0-1.877.025-2.415-.6-2.361-2.41.135-4.451-.382-3.922,3.946-3.93q11.525,0,23.049.025a18.479,18.479,0,0,1-4.1,6.316Z" transform="translate(383.552 6013.02)" fill="#dbe0ea"/>
    <path id="Trazado_185602" data-name="Trazado 185602" d="M159.406,118.945c-4.882,0-9.761-.037-14.639.07-1.77.041-2.386-.6-2.23-2.3.1-1.039,0-2.09,0-3.137A27.486,27.486,0,0,1,159.406,118.945Z" transform="translate(383.563 6076.277)" fill="#dbe0ea"/>
    <path id="Trazado_185603" data-name="Trazado 185603" d="M142.512,259.3c-.312-2.053.575-2.677,2.575-2.566,2.989.168,6,.09,8.993.119a24.092,24.092,0,0,1-11.568,2.447Z" transform="translate(383.599 5991.91)" fill="#dbe0ea"/>
  </g>
</svg>
