<svg xmlns="http://www.w3.org/2000/svg" width="150.704" height="150.917" viewBox="0 0 150.704 150.917">
  <g id="Grupo_94272" data-name="Grupo 94272" transform="translate(-964 -6393.212)">
    <circle id="Elipse_7649" data-name="Elipse 7649" cx="75.352" cy="75.352" r="75.352" transform="translate(964 6393.425)" fill="#1565b2"/>
    <path id="Trazado_185485" data-name="Trazado 185485" d="M165.846,96.8v88.6c-.645.485-.567,1.306-.9,1.938-2.012,3.848-5.24,5.437-9.494,5.437q-63.238-.037-126.477,0c-1.421,0-2.846.025-4.267,0A9.043,9.043,0,0,1,18.09,190.1c.14-.735.735-1.137,1.211-1.614l29.04-29.057c.513-.509,1.142-.949,1.273-1.745a1.565,1.565,0,0,1,.279.082,18.767,18.767,0,0,0,25.328-8.41c.382-.784.957-.821,1.671-.821h26.782a1.782,1.782,0,0,1,1.831,1.072c5.338,9.909,16.9,13.14,26.568,7.355a17.723,17.723,0,0,0,7.281-8.455h-1.807c-4.267,0-8.533-.033-12.8.025-1.039,0-1.326-.308-1.306-1.326.062-3.285,0-6.57.033-9.855,0-1.261-.542-2.874.242-3.7s2.427-.238,3.7-.246c3.913-.033,7.831,0,11.843,0a4.518,4.518,0,0,0-.193-.686,18.011,18.011,0,0,0-12.106-9.929c-8.9-2.217-17.074,1.511-21.448,9.584a1.688,1.688,0,0,1-1.7,1.047c-8.977-.033-17.953,0-26.93-.033-.534,0-1.232.267-1.421-.616a3.509,3.509,0,0,1,1.285-1.745q20.2-20.22,40.411-40.44c.452-.448.871-.928,1.306-1.392.875,0,1.749-.045,2.624-.049l16.508-.074c.534.025,1.072.07,1.606.07h16.717a9.693,9.693,0,0,1,8.213,4.02C164.963,94.265,165.173,95.632,165.846,96.8Z" transform="translate(948.858 6332.324)" fill="#c25159"/>
    <path id="Trazado_185486" data-name="Trazado 185486" d="M13.874,190.058a8.482,8.482,0,0,1-2.944-6.743V99c0-5.876,3.979-9.855,9.855-9.855q9.2-.025,18.388-.07l21.209.025q16.479.025,32.958.045c6.275,0,12.553-.029,18.828-.045l2.053.1c-.435.464-.854.944-1.306,1.392q-20.187,20.22-40.4,40.436a3.509,3.509,0,0,0-1.285,1.745,5.124,5.124,0,0,1-.329-.472c-5.946-10.841-19.255-13.477-28.851-5.667a16.528,16.528,0,0,0-4.977,6.763h1.811c4.361,0,8.726.037,13.087-.025,1.121,0,1.4.32,1.38,1.408-.066,4.168-.057,8.336,0,12.5,0,.99-.3,1.232-1.232,1.232-4.46-.037-8.923,0-13.383,0-.505,0-1.01.053-1.643.086.185.411.275.632.378.846a19.69,19.69,0,0,0,7.946,8.213c-.131.8-.76,1.232-1.273,1.745L15.086,188.457C14.609,188.933,14.014,189.336,13.874,190.058Z" transform="translate(953.078 6332.324)" fill="#d17c82"/>
    <path id="Trazado_185487" data-name="Trazado 185487" d="M82.918,205.092a19.738,19.738,0,0,1-7.946-8.213c-.1-.214-.193-.431-.378-.846.62-.033,1.125-.086,1.643-.086,4.46,0,8.923-.025,13.383,0,.944,0,1.257-.246,1.232-1.232-.053-4.164-.062-8.332,0-12.5,0-1.088-.259-1.425-1.38-1.409-4.361.062-8.726.025-13.087.025H74.59a16.528,16.528,0,0,1,4.977-6.771c9.6-7.8,22.905-5.174,28.851,5.667a5.128,5.128,0,0,0,.329.472c.177.883.887.616,1.421.616q13.465,0,26.93.033a1.688,1.688,0,0,0,1.7-1.047c4.373-8.073,12.545-11.8,21.448-9.584a18.019,18.019,0,0,1,12.106,9.929,4.516,4.516,0,0,1,.193.686c-4.012,0-7.929-.021-11.843,0-1.261,0-2.895-.546-3.7.246s-.23,2.423-.242,3.7c-.033,3.285.029,6.57-.033,9.855-.021,1.018.267,1.339,1.306,1.326,4.267-.057,8.533-.025,12.8-.025h1.811a17.723,17.723,0,0,1-7.277,8.414A18.64,18.64,0,0,1,138.8,196.99a1.782,1.782,0,0,0-1.831-1.072q-13.391.041-26.782,0c-.715,0-1.289.041-1.671.821a18.767,18.767,0,0,1-25.328,8.41,1.563,1.563,0,0,0-.271-.058Z" transform="translate(915.56 6284.887)" fill="#fdfdfe"/>
    <path id="Trazado_185488" data-name="Trazado 185488" d="M259.573,75.779l-2.053-.1V66.31h13.21c1.61,1.08,2.562,2.751,3.782,4.18a51.9,51.9,0,0,1,4.2,5.178l-16.508.074C261.323,75.734,260.448,75.763,259.573,75.779Z" transform="translate(807.748 6345.738)" fill="#e7e9f5"/>
    <path id="Trazado_185489" data-name="Trazado 185489" d="M177.393,39.264h-13.21c-1.762-2.349-3.548-4.677-5.277-7.051a5.453,5.453,0,0,0-4.759-2.382q-15.867.041-31.73,0a5.47,5.47,0,0,0-4.759,2.382c-1.733,2.369-3.515,4.7-5.277,7.051H99.17q6.053-7.663,12.5-15a11.619,11.619,0,0,1,9.194-3.819h34.847a11.614,11.614,0,0,1,9.194,3.819Q171.336,31.609,177.393,39.264Z" transform="translate(901.073 6372.772)" fill="#12263f"/>
    <path id="Trazado_185490" data-name="Trazado 185490" d="M87.689,66.28H100.9v9.371L79.69,75.626A85.784,85.784,0,0,1,87.689,66.28Z" transform="translate(912.554 6345.755)" fill="#e7e9f5"/>
  </g>
</svg>
