<svg xmlns="http://www.w3.org/2000/svg" width="157.487" height="156.33" viewBox="0 0 157.487 156.33">
  <g id="Grupo_94273" data-name="Grupo 94273" transform="translate(-469 -6615.8)">
    <circle id="Elipse_7650" data-name="Elipse 7650" cx="75.352" cy="75.352" r="75.352" transform="translate(472.39 6621.426)" fill="#1565b2"/>
    <path id="Trazado_185491" data-name="Trazado 185491" d="M299.609,267.66c.678-.616,1.343-1.232,2.033-1.84,1.359-1.183,2.694-1.232,3.95,0,3.975,3.959,7.9,7.962,11.847,11.95v1.844c-.608.682-1.191,1.392-1.836,2.053q-14.812,14.84-29.652,29.66c-2.012,2.016-3.129,2.012-5.162,0l-9.777-9.794c-1.942-1.951-1.942-3.117-.037-5.071.411-.431.977-.772,1.1-1.437.575-.057.854-.538,1.207-.887q12.783-12.767,25.546-25.546C299.113,268.3,299.351,267.972,299.609,267.66Zm7.051,10.582a2.77,2.77,0,0,0-2.406-2.566,2.848,2.848,0,0,0-2.464,2.365,2.685,2.685,0,0,0,2.464,2.488A2.4,2.4,0,0,0,306.66,278.242Z" transform="translate(309.047 6456.688)" fill="#ffa726"/>
    <path id="Trazado_185492" data-name="Trazado 185492" d="M117.749,117.5a14.245,14.245,0,0,1-3.86-4.657,11.259,11.259,0,0,1-1.059-4.583c.025-5.125,0-10.245,0-15.37a10.935,10.935,0,0,1,3.109-7.605c2.172-2.369,4.784-4.328,6.57-7.067.6-.92.821-1.979,1.4-2.874h12.73a24.761,24.761,0,0,1,12.779,3.088c5.971,3.474,9.855,8.656,10.607,15.448.624,5.638.127,11.4.127,17.345-.953-1.133-1.971-1.868-3.182-1.294a3,3,0,0,0-1.745,2.994q.057,21.657.041,43.314c-2.431,1.61-4.078,1.61-6.509,0q0-21.731.033-43.462a4.517,4.517,0,0,0-.329-1.643,2.387,2.387,0,0,0-4.267-.053,5.285,5.285,0,0,0-.337,2.1v46.993c0,.538-.2,1.142.312,1.589a3.806,3.806,0,0,1-2.76,1.211,5.778,5.778,0,0,1-4.02-.924V113.78a5.135,5.135,0,0,0-.345-2.406c-.513-1-1.232-1.815-2.521-1.569a2.308,2.308,0,0,0-2.053,2.324c-.041.719,0,1.437,0,2.152q0,20.832.041,41.659a.961.961,0,0,1-.554.682,5.285,5.285,0,0,1-5.4.14,5.134,5.134,0,0,1-3.018-4.776q-.025-16.475-.021-32.95c0-3.634.041-7.272.021-10.911,0-2.053-.94-3.01-2.69-2.957-1.462.041-2.213,1.072-2.217,3.055v9.531l-.333.029h0a.575.575,0,0,0-.624-.316Z" transform="translate(401.413 6568.416)" fill="#fddec4"/>
    <path id="Trazado_185493" data-name="Trazado 185493" d="M261.023,214.981c-.259.312-.5.645-.784.932q-12.767,12.783-25.546,25.546c-.353.349-.632.821-1.207.887a5,5,0,0,1-1.819-1.6,13.669,13.669,0,0,0-9.716-4.85,9.186,9.186,0,0,1-5.749-2.616c-4.106-3.979-8.09-8.09-12.122-12.147.513,0,1.027-.045,1.536,0A9.759,9.759,0,0,0,213.295,218a11.036,11.036,0,0,0,3.109-8.352c0-.842,0-1.413,1.17-1.466a10.48,10.48,0,0,0,10.221-10.812V181.843c0-.357-.23-.821.378-1.17,1.922,1.951,3.835,3.946,5.815,5.872a2.773,2.773,0,0,0,3.753.115,2.641,2.641,0,0,0-.448-3.548c-2.23-2.32-4.665-4.447-6.751-6.915a9.362,9.362,0,0,1,10.069,2.024c4.049,3.737,7.892,7.7,11.716,11.683a9.81,9.81,0,0,1,2.854,7.051c-.021,2.246.033,4.492.053,6.739a7.958,7.958,0,0,0,.821,4.193,9.753,9.753,0,0,0,2.809,4.776A14.121,14.121,0,0,1,261.023,214.981Z" transform="translate(347.633 6509.367)" fill="#fdcaa9"/>
    <path id="Trazado_185494" data-name="Trazado 185494" d="M46.19,215.176c.973-1.047,1.983-2.053,2.911-3.15a13.431,13.431,0,0,0,2.916-8.529c.115-2.907-.349-5.839.3-8.722a10.093,10.093,0,0,1,2.718-4.891q5.618-5.679,11.3-11.3a10.9,10.9,0,0,1,5.4-2.71,2.915,2.915,0,0,0,1.318,2.3c.932.821.747,1.339-.066,2.053-1.142,1.022-2.185,2.156-3.285,3.244a1.955,1.955,0,0,0-.784,1.425c0,.965.078,1.885,1.088,2.332a2.682,2.682,0,0,0,3.137-.46c1.4-1.343,2.743-2.755,4.147-4.106.411-.386.657-1.064,1.495-.76.953.345.579,1.1.583,1.688q.037,13.514,0,27.032a10.319,10.319,0,0,0,.908,4.46,10.02,10.02,0,0,0,9.822,6.238c.76,0,1.643-.353,2.2.616a11.235,11.235,0,0,0,5.556,4.624c-2.378,2.4-4.7,4.858-7.149,7.182a10.361,10.361,0,0,1-6.447,2.562,12.208,12.208,0,0,0-7.95,3.852,12.585,12.585,0,0,1-2.579,2.382c-.632-.057-.932-.587-1.318-.973Q59.753,228.9,47.085,216.211C46.761,215.891,46.486,215.521,46.19,215.176Z" transform="translate(440.688 6509.167)" fill="#fdcaa9"/>
    <path id="Trazado_185495" data-name="Trazado 185495" d="M171.24,146.539q0-21.657-.041-43.314a3.053,3.053,0,0,1,1.745-2.994c1.15-.53,2.23.16,3.182,1.294,0-5.942.5-11.707-.127-17.345-.756-6.771-4.636-11.974-10.611-15.448a24.78,24.78,0,0,0-12.779-3.088H139.88c.517-2.234.23-4.517.349-6.763h39.29c.115,2.792-.324,5.626.76,8.344a12.508,12.508,0,0,0,2.053,3.564,12.319,12.319,0,0,1,3.01,8.159v25.665a4.659,4.659,0,0,0,.316,2.554c-.505.452-.292,1.055-.3,1.593V127.8a9.715,9.715,0,0,1-.575,3.285,5.707,5.707,0,0,1-6.5,3.511c-2.217-.46-3.458-1.942-4.517-3.794-.107,3.917-.053,7.8-.127,11.65A4.168,4.168,0,0,1,171.24,146.539Z" transform="translate(385.47 6578.117)" fill="#fdcbaa"/>
    <path id="Trazado_185496" data-name="Trazado 185496" d="M172.389,28.449H133.1c-.821,0-1.643,0-2.464-.049a2.759,2.759,0,0,1-2.809-2.994q-.033-7.605,0-15.194a2.707,2.707,0,0,1,2.981-2.952H174.6a2.678,2.678,0,0,1,2.961,2.825q.1,7.753,0,15.518a2.827,2.827,0,0,1-2.874,2.817C173.925,28.457,173.157,28.437,172.389,28.449ZM137.932,15.522a2.332,2.332,0,0,0-2.361,2.267,2.427,2.427,0,0,0,2.488,2.365,2.4,2.4,0,0,0,2.353-2.324,2.357,2.357,0,0,0-2.48-2.308Z" transform="translate(392.584 6608.54)" fill="#68c3ef"/>
    <path id="Trazado_185497" data-name="Trazado 185497" d="M20.531,267.665c.3.345.571.715.9,1.035q12.668,12.685,25.361,25.357c.386.386.686.916,1.318.973.164.821.9,1.232,1.4,1.774,1.388,1.528,1.47,2.874.049,4.312Q44.27,306.5,38.907,311.772c-1.528,1.5-2.85,1.421-4.394-.123Q19.176,296.328,3.859,280.974c-1.614-1.614-1.6-2.874,0-4.484q5.1-5.1,10.233-10.2c1.8-1.8,3.026-1.8,4.846-.053C19.451,266.733,20,267.189,20.531,267.665Zm19.078,32a2.364,2.364,0,0,0-2.156-2.464,2.854,2.854,0,0,0-2.464,2.542,2.311,2.311,0,1,0,4.62-.078Z" transform="translate(466.346 6456.678)" fill="#36dac9"/>
    <path id="Trazado_185498" data-name="Trazado 185498" d="M130.564,226.418a11.182,11.182,0,0,1-5.556-4.624c-.538-.969-1.437-.62-2.2-.616a10.02,10.02,0,0,1-9.822-6.238,10.319,10.319,0,0,1-.908-4.46q0-13.518,0-27.032c0-.587.37-1.343-.583-1.688-.821-.3-1.1.374-1.495.76-1.4,1.351-2.743,2.764-4.147,4.106a2.676,2.676,0,0,1-3.137.46c-1.01-.448-1.084-1.367-1.088-2.332a1.973,1.973,0,0,1,.784-1.425c1.088-1.088,2.131-2.222,3.285-3.244.821-.731,1-1.269.066-2.053a2.915,2.915,0,0,1-1.318-2.3,14.612,14.612,0,0,1,6.726.9V176.6a.468.468,0,0,0,.624.316h0c0,.214.136.287.32.308h0c.661.558,1.08,2,2.279.628a7.956,7.956,0,0,1,2.62.32q0,16.479.021,32.95a5.134,5.134,0,0,0,3.018,4.776,5.285,5.285,0,0,0,5.4-.14.961.961,0,0,0,.554-.682c1.314-.3,1.614-1.6,2.41-2.7,0,1.486.082,2.714,0,3.926a5.082,5.082,0,0,0,2.464,4.887,5.778,5.778,0,0,0,4.02.924A34.281,34.281,0,0,1,130.564,226.418Z" transform="translate(408.013 6509.313)" fill="#feae85"/>
    <path id="Trazado_185499" data-name="Trazado 185499" d="M203.461,215.813a4.191,4.191,0,0,0,2.415-4.106c.074-3.864.021-7.732.127-11.65,1.051,1.852,2.291,3.334,4.517,3.794a5.707,5.707,0,0,0,6.5-3.511,9.715,9.715,0,0,0,.575-3.285q-.037-9.523,0-19.041c0-.538-.209-1.142.3-1.593,1.643,2.267,3.441,2.874,5.659.727a1.942,1.942,0,0,1,1.408-.456c2.086,2.464,4.517,4.6,6.751,6.915a2.641,2.641,0,0,1,.448,3.548,2.773,2.773,0,0,1-3.753-.115c-1.979-1.926-3.893-3.922-5.815-5.872-.608.357-.374.821-.378,1.17v15.522a10.478,10.478,0,0,1-10.221,10.812c-1.162.053-1.17.624-1.17,1.466a11.051,11.051,0,0,1-3.109,8.352,9.772,9.772,0,0,1-7.679,3.137c-.509-.029-1.022,0-1.536,0l-3.95-3.667v-4.952c.875,1.187,1.092,2.513,2.427,2.8C199.383,217.422,201.03,217.422,203.461,215.813Z" transform="translate(353.25 6508.843)" fill="#feae85"/>
    <path id="Trazado_185500" data-name="Trazado 185500" d="M193.337,205.68c-1.335-.292-1.552-1.618-2.427-2.8v4.981a5.365,5.365,0,0,1-2.144,3.351c-.513-.448-.312-1.051-.312-1.589V162.625a5.285,5.285,0,0,1,.337-2.1,2.387,2.387,0,0,1,4.267.053,4.517,4.517,0,0,1,.329,1.643Q193.341,183.949,193.337,205.68Z" transform="translate(356.865 6518.976)" fill="#fdcbaa"/>
    <path id="Trazado_185501" data-name="Trazado 185501" d="M123.8,59.968a2.431,2.431,0,1,1-4.862-.082,2.772,2.772,0,0,1,2.415-2.386A2.608,2.608,0,0,1,123.8,59.968Z" transform="translate(397.812 6578.93)" fill="#a9c8d4"/>
    <path id="Trazado_185502" data-name="Trazado 185502" d="M278.8,77.538a2.437,2.437,0,1,1-4.87-.033,2.435,2.435,0,1,1,4.87,0Z" transform="translate(306.467 6568.575)" fill="#a9c8d4"/>
    <path id="Trazado_185503" data-name="Trazado 185503" d="M141.309,346.634a2.4,2.4,0,0,1,2.4-2.464,2.464,2.464,0,0,1,2.464,2.423,2.793,2.793,0,0,1-2.374,2.431,2.5,2.5,0,0,1-2.488-2.39Z" transform="translate(384.629 6409.978)" fill="#a9c8d4"/>
    <path id="Trazado_185504" data-name="Trazado 185504" d="M35.208,231.858a2.4,2.4,0,0,1,2.488,2.357,2.6,2.6,0,0,1-2.4,2.5,2.835,2.835,0,0,1-2.464-2.349,2.509,2.509,0,0,1,2.378-2.513Z" transform="translate(448.562 6476.171)" fill="#a9c8d4"/>
    <path id="Trazado_185505" data-name="Trazado 185505" d="M35.332,162.24a2.406,2.406,0,0,1,2.361,2.464,2.607,2.607,0,0,1-2.53,2.378,2.77,2.77,0,0,1-2.324-2.464A2.464,2.464,0,0,1,35.332,162.24Z" transform="translate(448.557 6517.201)" fill="#a9c8d4"/>
    <path id="Trazado_185506" data-name="Trazado 185506" d="M254.408,65.128a2.406,2.406,0,0,1,2.345-2.488A2.464,2.464,0,0,1,259.266,65a2.43,2.43,0,1,1-4.858.123Z" transform="translate(317.973 6575.902)" fill="#a9c8d4"/>
    <path id="Trazado_185507" data-name="Trazado 185507" d="M82.272,87.779a2.406,2.406,0,0,1-2.332-2.369,2.464,2.464,0,0,1,2.378-2.5,2.694,2.694,0,0,1,2.464,2.464A2.727,2.727,0,0,1,82.272,87.779Z" transform="translate(420.797 6563.956)" fill="#a9c8d4"/>
    <path id="Trazado_185508" data-name="Trazado 185508" d="M329.559,155.206a2.4,2.4,0,0,1-2.439-2.415,2.818,2.818,0,0,1,2.345-2.464,2.742,2.742,0,0,1,2.513,2.6A2.406,2.406,0,0,1,329.559,155.206Z" transform="translate(275.118 6524.222)" fill="#a9c8d4"/>
    <path id="Trazado_185509" data-name="Trazado 185509" d="M256.885,335.726a2.4,2.4,0,0,1-2.386-2.464,2.431,2.431,0,0,1,4.862.09,2.4,2.4,0,0,1-2.476,2.373Z" transform="translate(317.919 6417.807)" fill="#a9c8d4"/>
    <path id="Trazado_185510" data-name="Trazado 185510" d="M235.79,345.384a2.427,2.427,0,0,1,.033-4.854,2.427,2.427,0,1,1-.033,4.854Z" transform="translate(330.365 6412.124)" fill="#a9c8d4"/>
    <path id="Trazado_185511" data-name="Trazado 185511" d="M192.594,351.92a2.659,2.659,0,0,1-2.365,2.39,2.427,2.427,0,0,1-.082-4.85A2.612,2.612,0,0,1,192.594,351.92Z" transform="translate(357.198 6406.86)" fill="#a9c8d4"/>
    <path id="Trazado_185512" data-name="Trazado 185512" d="M100.914,73.562a2.435,2.435,0,0,1,.094-4.862,2.432,2.432,0,1,1-.094,4.862Z" transform="translate(409.764 6572.33)" fill="#a9c8d4"/>
    <path id="Trazado_185513" data-name="Trazado 185513" d="M52.65,123.732a2.612,2.612,0,0,1-2.39-2.509,2.649,2.649,0,0,1,2.558-2.353,2.435,2.435,0,0,1-.168,4.862Z" transform="translate(438.289 6542.761)" fill="#a9c8d4"/>
    <path id="Trazado_185514" data-name="Trazado 185514" d="M40.18,142.624a2.32,2.32,0,1,1,2.39,2.4,2.386,2.386,0,0,1-2.39-2.4Z" transform="translate(444.23 6530.083)" fill="#a9c8d4"/>
    <path id="Trazado_185515" data-name="Trazado 185515" d="M339.142,199.047a2.32,2.32,0,1,1-2.23-2.39A2.274,2.274,0,0,1,339.142,199.047Z" transform="translate(270.767 6496.917)" fill="#a8c7d3"/>
    <path id="Trazado_185516" data-name="Trazado 185516" d="M29.67,211.086a2.328,2.328,0,1,1,1.116,2.17,2.32,2.32,0,0,1-1.116-2.17Z" transform="translate(450.428 6489.79)" fill="#a9c8d4"/>
    <path id="Trazado_185517" data-name="Trazado 185517" d="M334.866,178.074a2.332,2.332,0,0,1-2.406-2.246,2.423,2.423,0,0,1,2.464-2.4,2.361,2.361,0,0,1,2.373,2.439,2.291,2.291,0,0,1-2.431,2.205Z" transform="translate(271.971 6510.606)" fill="#a8c7d3"/>
    <path id="Trazado_185518" data-name="Trazado 185518" d="M337.347,222.57a2.4,2.4,0,1,1-4.792-.086,2.53,2.53,0,0,1,2.435-2.3,2.608,2.608,0,0,1,2.357,2.39Z" transform="translate(271.917 6483.053)" fill="#a8c7d3"/>
    <path id="Trazado_185519" data-name="Trazado 185519" d="M308.762,109a2.324,2.324,0,0,1,0,4.644,2.464,2.464,0,0,1-2.542-2.332A2.388,2.388,0,0,1,308.762,109Z" transform="translate(287.436 6548.578)" fill="#a8c7d3"/>
    <path id="Trazado_185520" data-name="Trazado 185520" d="M68.473,102.29a2.287,2.287,0,0,1-2.246,2.382,2.36,2.36,0,0,1-2.587-2.246,2.435,2.435,0,0,1,2.464-2.4,2.283,2.283,0,0,1,2.369,2.263Z" transform="translate(430.403 6553.867)" fill="#a8c7d3"/>
    <path id="Trazado_185521" data-name="Trazado 185521" d="M318.7,131.24a2.275,2.275,0,0,1,2.189-2.423,2.373,2.373,0,0,1,2.464,2.39,2.332,2.332,0,0,1-2.39,2.4,2.271,2.271,0,0,1-2.263-2.369Z" transform="translate(280.082 6536.899)" fill="#a8c7d3"/>
    <path id="Trazado_185522" data-name="Trazado 185522" d="M34.344,187.808a2.431,2.431,0,0,1-2.394,2.464,2.364,2.364,0,0,1-2.242-2.587,2.275,2.275,0,0,1,2.213-2.246,2.345,2.345,0,0,1,2.423,2.369Z" transform="translate(450.402 6503.529)" fill="#a8c7d3"/>
    <path id="Trazado_185523" data-name="Trazado 185523" d="M164.457,351.039a2.275,2.275,0,0,1,2.25-2.369,2.353,2.353,0,0,1,2.394,2.254,2.41,2.41,0,0,1-2.275,2.575A2.338,2.338,0,0,1,164.457,351.039Z" transform="translate(370.987 6407.327)" fill="#a8c7d3"/>
    <path id="Trazado_185524" data-name="Trazado 185524" d="M121.74,341.026a2.405,2.405,0,0,1,.021-4.8,2.4,2.4,0,1,1,0,4.8Z" transform="translate(397.468 6414.658)" fill="#a8c7d3"/>
    <path id="Trazado_185525" data-name="Trazado 185525" d="M42.645,254.28a2.322,2.322,0,1,1-.037,4.644,2.324,2.324,0,0,1,.037-4.644Z" transform="translate(444.101 6462.956)" fill="#a8c7d3"/>
    <path id="Trazado_185526" data-name="Trazado 185526" d="M294.137,91a2.32,2.32,0,0,1-.07,4.64,2.32,2.32,0,1,1,.07-4.64Z" transform="translate(295.955 6559.187)" fill="#a8c7d3"/>
    <path id="Trazado_185527" data-name="Trazado 185527" d="M213.212,351.737a2.267,2.267,0,0,1-2.275-2.357A2.131,2.131,0,0,1,213.4,347.1a2.1,2.1,0,0,1,2.193,2.378,2.267,2.267,0,0,1-2.382,2.263Z" transform="translate(343.593 6408.254)" fill="#a8c7d3"/>
    <path id="Trazado_185528" data-name="Trazado 185528" d="M329.446,247.653a7.959,7.959,0,0,1-.821-4.193,3.494,3.494,0,0,0,.6-.14,2.416,2.416,0,0,1,3.15.723,2.053,2.053,0,0,1,.205,2.439A2.483,2.483,0,0,1,329.446,247.653Z" transform="translate(274.246 6469.583)" fill="#a9c8d4"/>
    <path id="Trazado_185529" data-name="Trazado 185529" d="M352.93,293.686a2.4,2.4,0,0,1-2.406,2.287,2.706,2.706,0,0,1-2.464-2.488,2.806,2.806,0,0,1,2.464-2.365A2.77,2.77,0,0,1,352.93,293.686Z" transform="translate(262.778 6441.244)" fill="#fe8a14"/>
    <path id="Trazado_185530" data-name="Trazado 185530" d="M165.684,211.462a5.009,5.009,0,0,1-2.464-4.887c.1-1.211,0-2.439,0-3.926-.8,1.1-1.1,2.4-2.41,2.7q0-20.823-.041-41.659c0-.715-.033-1.433,0-2.152a2.308,2.308,0,0,1,2.053-2.324c1.289-.246,2.008.567,2.521,1.569a5.128,5.128,0,0,1,.345,2.406Q165.68,187.324,165.684,211.462Z" transform="translate(373.168 6519.009)" fill="#fdcbaa"/>
    <path id="Trazado_185531" data-name="Trazado 185531" d="M131.969,161.848a7.957,7.957,0,0,0-2.62-.32,4.583,4.583,0,0,0-2.279-.628h0v-9.868c0-1.983.756-3.014,2.217-3.055,1.749-.053,2.677.92,2.69,2.957C132,154.576,131.969,158.214,131.969,161.848Z" transform="translate(393.02 6525.608)" fill="#fdcaa9"/>
    <path id="Trazado_185532" data-name="Trazado 185532" d="M125.424,178.262a.468.468,0,0,1-.624-.316A.575.575,0,0,1,125.424,178.262Z" transform="translate(394.358 6507.95)" fill="#fefefe"/>
    <path id="Trazado_185533" data-name="Trazado 185533" d="M126.64,178.64v.337c-.185-.021-.32-.094-.32-.308Z" transform="translate(393.462 6507.535)" fill="#fefefe"/>
    <path id="Trazado_185534" data-name="Trazado 185534" d="M149.048,27.376a2.357,2.357,0,0,1,2.464,2.308,2.4,2.4,0,0,1-2.353,2.324,2.427,2.427,0,0,1-2.488-2.365,2.332,2.332,0,0,1,2.378-2.267Z" transform="translate(381.469 6596.686)" fill="#5288fe"/>
    <path id="Trazado_185535" data-name="Trazado 185535" d="M86.026,345.96a2.348,2.348,0,0,1-2.242,2.394,2.4,2.4,0,0,1-2.373-2.332,2.9,2.9,0,0,1,2.464-2.542A2.41,2.41,0,0,1,86.026,345.96Z" transform="translate(419.93 6410.385)" fill="#ef6186"/>
    <path id="Trazado_185536" data-name="Trazado 185536" d="M127.05,179.45a4.583,4.583,0,0,1,2.279.636C128.13,181.454,127.711,180.008,127.05,179.45Z" transform="translate(393.032 6507.058)" fill="#fefefe"/>
  </g>
</svg>
