<svg xmlns="http://www.w3.org/2000/svg" width="150.704" height="154.746" viewBox="0 0 150.704 154.746">
  <g id="Grupo_94274" data-name="Grupo 94274" transform="translate(-964 -6858.713)">
    <circle id="Elipse_7651" data-name="Elipse 7651" cx="75.352" cy="75.352" r="75.352" transform="translate(964 6862.754)" fill="#1565b2"/>
    <path id="Trazado_185537" data-name="Trazado 185537" d="M135.014,152.976c1.643.214,2.788,1.367,4.168,2.053,1.3.665,2.55,1.437,3.819,2.16-.55,1.367.821,1.643,1.4,2.312.99,1.232,2.743,2.148,3.08,3.478.361,1.421-1.064,2.969-1.573,4.517a1.248,1.248,0,0,1-1.45.986c-1.733-.053-3.474,0-5.207-.033-.821-.025-1.174.144-1.15,1.068.062,2.554.074,5.112,0,7.663-.033,1.027.374,1.158,1.232,1.137,2.053-.049,4.106,0,6.127,0,.624,1.5,1.207,3.022,1.881,4.517a1.283,1.283,0,0,1-.324,1.725c-1.232,1.146-2.353,2.427-3.61,3.548-.85.751-.706,1.232.045,1.909,1.425,1.322,2.764,2.735,4.139,4.106,1.93,1.93,1.922,1.922,3.831.033,1.088-1.08,2.053-2.706,3.343-3.035,1.363-.353,2.874,1.051,4.353,1.511.994.3,1.183.866,1.142,1.8-.066,1.684,0,3.375-.033,5.059,0,.727.2.986.944.961,1.33-.037,2.657.021,3.987.037v26.067c-4.4.234-8.057-1.885-11.794-3.757-.55-.275-.411-.7-.316-1.174.513-2.5.953-5.006,1.5-7.494.411-1.946.246-3.675-1.482-4.928-1.593-1.15-3.178-1-5.211.431q-5.811,4.106-11.6,8.213c-3.178-.3-6.316-.862-9.445-1.425q-13.342-2.39-26.712-4.665a7.791,7.791,0,0,1-6.246-7.605c.168-3.371.037-6.755.037-10.13,0-3.49,0-3.445-3.466-3.462-1.15,0-1.491.337-1.474,1.482.062,4.2-.033,8.393.037,12.59a12.1,12.1,0,0,0,5.338,9.987c2.686,1.946,5.913,2.1,8.989,2.673,6.188,1.158,12.4,2.189,18.6,3.285l11.251,1.967.041,14.709H91.1c-.131-.078-.255-.214-.411-.222A24.519,24.519,0,0,1,79.923,233.4,27.035,27.035,0,0,1,68.9,220.674a47.3,47.3,0,0,1-2-7.334q-.025-17.037-.037-34.083a26.585,26.585,0,0,1,.181-5.2,9.276,9.276,0,0,1,4.427-6.521c8.053-4.755,16.146-9.445,24.228-14.163a3.031,3.031,0,0,1,1.3-.411,24.323,24.323,0,0,0,11.662,9.379c-.439,3.043.673,5.794,1.614,8.574-.973.7-1.827,1.482-1.589,2.833a2.51,2.51,0,0,0,2.111,2.086c-.673,6.866-1.326,13.736-2.053,20.6a2.612,2.612,0,0,0,.776,2.464c1.979,1.856,3.876,3.794,5.749,5.749.563.587.9.583,1.458,0,2-2.053,4.028-4.078,6.077-6.086a1.642,1.642,0,0,0,.513-1.5c-.16-1.269-.287-2.542-.411-3.815q-.85-8.7-1.688-17.395a2.514,2.514,0,0,0,2.111-2.09c.234-1.347-.624-2.131-1.589-2.829.94-2.784,2.053-5.535,1.614-8.578a26.552,26.552,0,0,0,6.229-3.453A29.765,29.765,0,0,0,135.014,152.976Z" transform="translate(920.14 6763.999)" fill="#6de0d4"/>
    <path id="Trazado_185538" data-name="Trazado 185538" d="M147.385,99.839a24.342,24.342,0,0,1-11.662-9.379c-2.731-4.825-3.265-10.057-3.137-15.5.16-6.981.057-13.962.07-20.963,1.918-1.536,3.5-3.417,5.268-5.108a6.1,6.1,0,0,1,9.009-.041c1.289,1.232,2.517,2.546,3.807,3.786a5.691,5.691,0,0,0,8,0c1.257-1.2,2.464-2.464,3.7-3.7a6.34,6.34,0,0,1,4.62-2.053,6.5,6.5,0,0,1,4.575,2.033c1.745,1.68,3.314,3.54,5.215,5.059,0,8.706.074,17.411,0,26.113-.033,3.7-1.4,7.084-3.067,10.336a31.029,31.029,0,0,1-5.429,5.926,26.552,26.552,0,0,1-6.229,3.453A23.382,23.382,0,0,1,147.385,99.839Zm12.278-19.53V78.416c0-1.955,0-1.955-2.012-1.959-2.9,0-2.977,0-2.874,2.9.1,3.121-.135,4.8-3.926,4.476a1.548,1.548,0,0,0-.308,0c-.981.1-.756.891-.673,1.408.193,1.158-.821,3.006.636,3.359a6.944,6.944,0,0,0,6.431-1.556,7.6,7.6,0,0,0,2.727-6.739Zm-14.75-13.666H148.9c1.6,0,1-1.326.862-1.9-.246-1,1.142-2.768-.866-2.948-2.632-.242-5.305-.066-7.962-.057-1.6,0-1,1.326-.862,1.9.246,1-1.137,2.64.866,2.969A27.926,27.926,0,0,0,144.913,66.643Zm19.813-4.928a23.088,23.088,0,0,0-4.131.049c-2.053.374-.575,2.053-.875,3.121-.156.563-.6,1.758.879,1.749a75.659,75.659,0,0,0,7.962-.074c2.053-.214.575-2.053.875-3.1.156-.563.6-1.77-.879-1.749C167.28,61.716,166.007,61.716,164.726,61.716ZM144.97,74a2.464,2.464,0,1,0-2.513-2.361A2.464,2.464,0,0,0,144.97,74ZM164.5,74a2.464,2.464,0,1,0-2.382-2.488A2.464,2.464,0,0,0,164.5,74Z" transform="translate(881.389 6826.515)" fill="#f4c89c"/>
    <path id="Trazado_185539" data-name="Trazado 185539" d="M247.765,168.73c-2.053,0-4.086-.045-6.127,0-.866.021-1.273-.111-1.232-1.137.078-2.55.066-5.108,0-7.663-.025-.924.333-1.092,1.15-1.068,1.733.053,3.474-.021,5.207.033a1.248,1.248,0,0,0,1.45-.986c.509-1.536,1.934-3.084,1.573-4.517-.337-1.33-2.09-2.259-3.08-3.478-.554-.686-1.946-.944-1.4-2.312,1.893-1.856,3.815-3.7,5.659-5.589.645-.665,1.031-.747,1.688-.021,1.129,1.232,2.394,2.369,3.548,3.6a1.348,1.348,0,0,0,1.848.411c1.437-.747,3.523-.821,4.3-2.086.686-1.121.2-2.973.2-4.517,0-2.673,0-2.673,2.739-2.673,1.889,0,3.778.066,5.663-.025,1.1-.053,1.532.193,1.466,1.4-.111,1.983-.025,3.979-.021,5.971,0,.563.025,1.129,0,1.688-.2,2.493.875,4.147,2.957,5.576,5.338,3.7,7.72,8.775,6.57,15.325-1.113,6.4-7.5,11.814-13.962,11.855a14.617,14.617,0,0,1-13-7.01,5.493,5.493,0,0,0-5.338-2.833A15.626,15.626,0,0,1,247.765,168.73Zm19.711,2.378a7.285,7.285,0,0,0,6.981-4.981,7.359,7.359,0,1,0-13.99.008,7.281,7.281,0,0,0,7,4.973Z" transform="translate(817.836 6773.585)" fill="#f5ba01"/>
    <path id="Trazado_185540" data-name="Trazado 185540" d="M228.3,316.884q0-7.355-.041-14.709a3.57,3.57,0,0,1,2.275-4.045,4.923,4.923,0,0,0,.821-.645l11.6-8.213c2.033-1.433,3.618-1.581,5.211-.431,1.729,1.232,1.909,2.977,1.482,4.928-.55,2.488-.99,5-1.5,7.494-.1.472-.234.9.316,1.174,3.737,1.873,7.391,3.991,11.794,3.757,3.252.259,6.381-.6,9.547-1.1a3.374,3.374,0,0,1,3.831,1.766,3.132,3.132,0,0,1-1.581,4.164,132.008,132.008,0,0,1-12.319,5.815,2.562,2.562,0,0,1-.908.1Z" transform="translate(825.028 6684.366)" fill="#f4c89d"/>
    <path id="Trazado_185541" data-name="Trazado 185541" d="M254.545,175.649c.616,0,1.232,0,1.844-.021a5.521,5.521,0,0,1,5.338,2.833,14.626,14.626,0,0,0,13,7.01,15,15,0,0,0,13.962-11.855c1.142-6.55-1.232-11.646-6.57-15.325-2.082-1.429-3.154-3.084-2.957-5.576.041-.558,0-1.125,0-1.688a2.422,2.422,0,0,1,.3.082c1.749.665,3.593,2.275,5.182,1.848s2.825-2.382,4.106-3.778c.821-.92,1.351-1.047,2.254-.053,1.61,1.782,3.339,3.462,5.092,5.108.706.669.665,1.064-.021,1.7-1.277,1.179-2.464,2.464-3.7,3.667a1.17,1.17,0,0,0-.32,1.593c.7,1.47.936,3.437,2.053,4.353s3.043.23,4.616.251c2.579.033,2.579,0,2.579,2.542,0,2.053-.058,4.106.025,6.139.037.977-.287,1.232-1.232,1.179-1.684-.07-3.375,0-5.063-.033a1.256,1.256,0,0,0-1.47.949c-.526,1.536-1.811,3.141-1.573,4.517.222,1.289,1.979,2.332,3.088,3.453,1.811,1.84,1.823,1.827.025,3.626-1.445,1.445-2.944,2.846-4.32,4.357-.727.8-1.154.665-1.807-.037-1.146-1.232-2.406-2.374-3.556-3.61a1.269,1.269,0,0,0-1.725-.329c-1.466.7-3.511.944-4.3,2.082s-.218,3.059-.226,4.644c0,2.493,0,2.488-2.464,2.493-.821,0-1.643.033-2.464.049-1.33,0-2.657-.074-3.987-.037-.743.025-.961-.234-.944-.961.045-1.684-.033-3.375.033-5.059.041-.932-.148-1.495-1.142-1.8-1.495-.46-2.989-1.864-4.353-1.511-1.289.328-2.254,1.955-3.343,3.035-1.909,1.889-1.9,1.9-3.831-.033-1.376-1.372-2.714-2.784-4.139-4.106-.751-.694-.9-1.158-.045-1.909,1.257-1.121,2.369-2.4,3.609-3.548a1.283,1.283,0,0,0,.324-1.725C255.752,178.672,255.169,177.152,254.545,175.649Z" transform="translate(811.055 6766.667)" fill="#eca600"/>
    <path id="Trazado_185542" data-name="Trazado 185542" d="M167.116,25.852a6.232,6.232,0,0,0-4.62,2.053c-1.277,1.281-2.435,2.464-3.7,3.7a5.691,5.691,0,0,1-8,0c-1.289-1.232-2.517-2.546-3.807-3.786a6.1,6.1,0,0,0-9.009.041c-1.77,1.692-3.351,3.573-5.268,5.108,0-2.957-.242-5.913.517-8.837a17.165,17.165,0,0,1,16.319-12.976c3.285-.062,6.541-.025,9.814,0,3.786,0,6.32,1.909,7.49,5.568.1.32.09.735.53.854C166.813,20.3,167.219,23.077,167.116,25.852Z" transform="translate(881.323 6847.595)" fill="#b1712d"/>
    <path id="Trazado_185543" data-name="Trazado 185543" d="M66.941,300a47.026,47.026,0,0,0,2.024,7.309,26.959,26.959,0,0,0,11.026,12.73,24.467,24.467,0,0,0,10.763,3.626c.136,0,.259.144.411.222q-11.654.025-23.3.062c-.731,0-.965-.234-.961-.965Q66.941,311.5,66.941,300Z" transform="translate(920.092 6677.339)" fill="#32c4b4"/>
    <path id="Trazado_185544" data-name="Trazado 185544" d="M216.476,32.961c.1-2.759-.3-5.531.271-8.274.493-1.38,1.606-1.585,2.874-1.487a7.35,7.35,0,0,1,6.677,7.186c.057,3.219,0,6.443,0,9.666-1.9-1.519-3.47-3.38-5.215-5.059A6.378,6.378,0,0,0,216.476,32.961Z" transform="translate(831.964 6840.487)" fill="#915a1d"/>
    <path id="Trazado_185545" data-name="Trazado 185545" d="M181.347,208.682q.842,8.7,1.688,17.395c.123,1.273.25,2.546.411,3.815a1.643,1.643,0,0,1-.513,1.5c-2.053,2.008-4.082,4.024-6.077,6.086-.563.579-.9.583-1.458,0-1.885-1.951-3.782-3.889-5.749-5.749a2.585,2.585,0,0,1-.776-2.464c.71-6.862,1.363-13.732,2.053-20.6Z" transform="translate(860.013 6731.166)" fill="#ed5e3c"/>
    <path id="Trazado_185546" data-name="Trazado 185546" d="M168.017,271.819a4.926,4.926,0,0,1-.821.645,3.57,3.57,0,0,0-2.275,4.045l-11.235-1.971c-6.2-1.088-12.414-2.119-18.6-3.285-3.076-.575-6.3-.727-8.989-2.673a12.084,12.084,0,0,1-5.338-9.987c-.074-4.209.025-8.393-.037-12.59,0-1.146.324-1.491,1.474-1.482,3.466,0,3.466-.029,3.466,3.462,0,3.375.131,6.759-.037,10.13a7.791,7.791,0,0,0,6.246,7.605q13.366,2.291,26.712,4.665C161.7,270.953,164.839,271.515,168.017,271.819Z" transform="translate(888.372 6710.037)" fill="#32c4b4"/>
    <path id="Trazado_185547" data-name="Trazado 185547" d="M168.508,175.84a23.382,23.382,0,0,0,14.721,0c.439,3.043-.673,5.794-1.614,8.578h-11.5C169.182,181.655,168.069,178.883,168.508,175.84Z" transform="translate(860.266 6750.514)" fill="#ed5e3c"/>
    <path id="Trazado_185548" data-name="Trazado 185548" d="M170.241,196.72h11.5c.965.7,1.823,1.482,1.589,2.829a2.514,2.514,0,0,1-2.111,2.09H170.763a2.51,2.51,0,0,1-2.111-2.086C168.414,198.2,169.268,197.418,170.241,196.72Z" transform="translate(860.147 6738.208)" fill="#e05432"/>
    <path id="Trazado_185549" data-name="Trazado 185549" d="M184.248,122.769a7.616,7.616,0,0,1-2.739,6.751,6.944,6.944,0,0,1-6.431,1.556c-1.441-.353-.443-2.2-.636-3.359-.082-.517-.308-1.31.673-1.408a1.55,1.55,0,0,1,.308,0c3.79.32,4.028-1.355,3.926-4.476-.09-2.9,0-2.9,2.874-2.9,2.008,0,2.008,0,2.012,1.959Z" transform="translate(856.804 6784.055)" fill="#ddad7e"/>
    <path id="Trazado_185550" data-name="Trazado 185550" d="M155.333,87.854a25.2,25.2,0,0,1-3.979-.041c-2-.329-.62-1.971-.866-2.969-.14-.575-.739-1.9.862-1.9,2.657,0,5.338-.185,7.962.057,2.008.181.62,1.951.866,2.948.14.575.739,1.893-.862,1.9C157.99,87.854,156.659,87.854,155.333,87.854Z" transform="translate(870.969 6805.304)" fill="#b0712c"/>
    <path id="Trazado_185551" data-name="Trazado 185551" d="M203.365,82.892H207.2c1.478,0,1.035,1.187.879,1.749-.3,1.051,1.166,2.874-.875,3.1-2.624.279-5.305.057-7.962.074-1.478,0-1.035-1.187-.879-1.749.3-1.051-1.162-2.747.875-3.121A22.344,22.344,0,0,1,203.365,82.892Z" transform="translate(842.75 6805.339)" fill="#b0712c"/>
    <path id="Trazado_185552" data-name="Trazado 185552" d="M159.139,105.839a2.464,2.464,0,1,1,2.4-2.464A2.464,2.464,0,0,1,159.139,105.839Z" transform="translate(867.22 6794.674)" fill="#955e22"/>
    <path id="Trazado_185553" data-name="Trazado 185553" d="M206.9,105.839a2.464,2.464,0,1,1,2.53-2.345A2.464,2.464,0,0,1,206.9,105.839Z" transform="translate(838.992 6794.674)" fill="#955e22"/>
    <path id="Trazado_185554" data-name="Trazado 185554" d="M291.324,188.54a10.569,10.569,0,0,1,4.4,9.593c-.062,1.174,0,2.353,0,3.531a7.281,7.281,0,0,1-6.981-4.973A7.129,7.129,0,0,1,291.324,188.54Z" transform="translate(789.581 6743.029)" fill="#568afc"/>
  </g>
</svg>
