<svg xmlns="http://www.w3.org/2000/svg" width="445" height="380.597" viewBox="0 0 445 380.597">
  <g id="Grupo_94344" data-name="Grupo 94344" transform="translate(-890 -1394.297)">
    <rect id="Rectángulo_39758" data-name="Rectángulo 39758" width="445" height="323.126" transform="translate(890 1417.671)" fill="none"/>
    <g id="Grupo_94127" data-name="Grupo 94127" transform="translate(920.631 1395)">
      <ellipse id="Elipse_7783" data-name="Elipse 7783" cx="154.637" cy="119.31" rx="154.637" ry="119.31" transform="translate(0 192.316) rotate(-38.45)" fill="#e1f0fa" stroke="#bacadc" stroke-miterlimit="10" stroke-width="1"/>
      <g id="Grupo_94114" data-name="Grupo 94114" transform="translate(50.803 100.016)">
        <path id="Trazado_190930" data-name="Trazado 190930" d="M293.091,336.755c-2.21,0-4.524-.052-6.8-.155l.081-1.864q5,.221,9.887.118l.037,1.864C295.234,336.74,294.166,336.755,293.091,336.755Zm13.2-.6-.169-1.857c3.323-.309,6.631-.737,9.791-1.3l.317,1.842C313.012,335.4,309.667,335.841,306.293,336.151Zm-29.986-.287c-3.271-.332-6.631-.774-9.917-1.3l.295-1.842c3.279.523,6.579.958,9.814,1.289Zm-19.745-3.146c-3.227-.693-6.5-1.474-9.725-2.343l.486-1.8c3.2.847,6.439,1.628,9.629,2.313Zm69.469,0-.479-1.805a96.143,96.143,0,0,0,9.372-3.028l.67,1.746c-3.05,1.127-6.262,2.166-9.585,3.058Zm-88.786-5.12c-3.146-1-6.329-2.1-9.445-3.256l.641-1.753c3.094,1.149,6.248,2.21,9.372,3.234ZM344.759,325.5l-.869-1.65a73.83,73.83,0,0,0,8.377-5.157l1.083,1.518a74.413,74.413,0,0,1-8.591,5.26Zm-126.25-4.885c-3.058-1.3-6.13-2.667-9.121-4.089l.8-1.687c2.947,1.407,6,2.77,9.04,4.052Zm142.584-6.874-1.3-1.334a57.751,57.751,0,0,0,6.41-7.368l1.51,1.105a60.3,60.3,0,0,1-6.623,7.611ZM200.48,312.051c-2.947-1.555-5.894-3.19-8.738-4.863l.914-1.6c2.829,1.658,5.747,3.286,8.657,4.826Zm-17.24-10.108c-2.8-1.805-5.577-3.684-8.266-5.621l1.083-1.518c2.667,1.9,5.423,3.78,8.2,5.577Zm-16.282-11.6c-2.63-2.07-5.216-4.214-7.7-6.38l1.223-1.407c2.461,2.144,5.032,4.273,7.625,6.321ZM151.891,277.2c-2.409-2.328-4.767-4.737-7-7.147l1.363-1.267c2.21,2.387,4.546,4.767,6.933,7.073ZM138.3,262.527c-2.144-2.608-4.207-5.275-6.115-7.928l1.51-1.09c1.893,2.623,3.927,5.253,6.049,7.832Zm-11.7-16.209c-1.783-2.873-3.455-5.806-4.966-8.708l1.658-.862c1.474,2.866,3.131,5.754,4.892,8.583Zm-9.2-17.793c-1.3-3.146-2.431-6.329-3.374-9.453l1.79-.538a97.322,97.322,0,0,0,3.315,9.254ZM111.672,209.3a76.132,76.132,0,0,1-1.142-10l1.864-.088a74.936,74.936,0,0,0,1.112,9.755Z" transform="translate(-110.53 -129.786)" fill="#7fb8db"/>
        <path id="Trazado_190931" data-name="Trazado 190931" d="M381.426,229.853c-.56-2.593-1.267-5.238-2.092-7.854l1.783-.56c.84,2.674,1.562,5.364,2.137,8.016Zm-5.511-17.093c-1.26-2.947-2.7-5.946-4.266-8.9l1.672-.877c1.591,3,3.05,6.041,4.332,9.047Zm-9.224-17.432c-1.724-2.719-3.6-5.467-5.585-8.163l1.474-1.105c2.011,2.733,3.912,5.511,5.658,8.266Zm-11.678-15.921c-2.092-2.5-4.3-5-6.572-7.4l1.363-1.282c2.291,2.446,4.524,4.958,6.631,7.485Zm-13.549-14.426c-2.358-2.254-4.826-4.487-7.368-6.631l1.216-1.415c2.534,2.21,5.032,4.421,7.412,6.712Zm-15.008-12.923c-2.586-2.019-5.26-4-7.957-5.894l1.076-1.525c2.719,1.916,5.423,3.92,8.031,5.953Zm-16.209-11.427c-2.755-1.768-5.607-3.5-8.465-5.157l.936-1.621c2.881,1.672,5.754,3.419,8.539,5.157ZM293.1,130.7l-2.21-1.149c-2.21-1.113-4.421-2.21-6.631-3.242l.788-1.687c2.21,1.046,4.487,2.144,6.7,3.271l2.254,1.157Zm-158.24-.582-1.334-1.3a64.1,64.1,0,0,1,7.625-6.631l1.113,1.474a63.618,63.618,0,0,0-7.382,6.439ZM275.149,122.3c-3.043-1.267-6.152-2.475-9.232-3.6l.641-1.753c3.109,1.127,6.24,2.35,9.313,3.625Zm-124.6-3.861-.877-1.658a84.157,84.157,0,0,1,9.114-4.258l.693,1.731a81.777,81.777,0,0,0-8.907,4.163Zm105.982-2.947c-3.161-.987-6.366-1.908-9.526-2.726l.472-1.805c3.19.825,6.424,1.753,9.578,2.748Zm-87.74-4.421-.508-1.8c3.139-.884,6.424-1.643,9.777-2.262l.339,1.835c-3.264.648-6.506,1.392-9.585,2.262Zm68.57-.589c-3.249-.67-6.528-1.267-9.747-1.753l.287-1.849c3.249.5,6.557,1.1,9.843,1.776Zm-19.568-2.947c-3.308-.317-6.631-.538-9.872-.656l.066-1.864c3.279.118,6.631.339,9.99.663Zm-29.618-.044-.192-1.857c3.249-.332,6.631-.553,10-.656l.052,1.864c-3.308.1-6.631.317-9.836.648Z" transform="translate(-116.585 -104.98)" fill="#7fb8db"/>
      </g>
      <g id="Grupo_94116" data-name="Grupo 94116" transform="translate(89.851 210.595)">
        <rect id="Rectángulo_39759" data-name="Rectángulo 39759" width="170.323" height="49.127" rx="12.83" fill="#b5d6ea"/>
        <g id="Grupo_94115" data-name="Grupo 94115" transform="translate(125.595 15.855)">
          <path id="Trazado_190932" data-name="Trazado 190932" d="M368.377,285.556h0a8.959,8.959,0,0,0-8.959-8.966h-16.5A8.966,8.966,0,0,0,334,285.556h0a8.966,8.966,0,0,0,8.959,8.959h16.459A8.959,8.959,0,0,0,368.377,285.556Z" transform="translate(-334 -276.59)" fill="#7fb8db"/>
          <circle id="Elipse_7784" data-name="Elipse 7784" cx="5.518" cy="5.518" r="5.518" transform="translate(17.083 8.967) rotate(-45)" fill="#fff"/>
        </g>
        <rect id="Rectángulo_39760" data-name="Rectángulo 39760" width="97.141" height="14.949" transform="translate(15.28 17.343)" fill="#7fb8db"/>
      </g>
      <g id="Grupo_94118" data-name="Grupo 94118" transform="translate(194.124 97.452)">
        <rect id="Rectángulo_39761" data-name="Rectángulo 39761" width="112.62" height="89.906" rx="17.05" fill="#fff"/>
        <g id="Grupo_94117" data-name="Grupo 94117" transform="translate(15.391 12.149)">
          <rect id="Rectángulo_39762" data-name="Rectángulo 39762" width="15.884" height="15.884" rx="6.85" fill="#e1f0fa"/>
          <rect id="Rectángulo_39763" data-name="Rectángulo 39763" width="15.884" height="15.884" rx="6.85" transform="translate(0 24.865)" fill="#e1f0fa"/>
          <rect id="Rectángulo_39764" data-name="Rectángulo 39764" width="15.884" height="15.884" rx="6.85" transform="translate(0 49.731)" fill="#e1f0fa"/>
          <rect id="Rectángulo_39765" data-name="Rectángulo 39765" width="56.553" height="10.956" transform="translate(27.341 2.461)" fill="#e1f0fa"/>
          <rect id="Rectángulo_39766" data-name="Rectángulo 39766" width="56.553" height="10.956" transform="translate(27.341 27.326)" fill="#e1f0fa"/>
          <rect id="Rectángulo_39767" data-name="Rectángulo 39767" width="56.553" height="10.956" transform="translate(27.341 52.192)" fill="#e1f0fa"/>
        </g>
      </g>
      <g id="Grupo_94120" data-name="Grupo 94120" transform="translate(117.096 26.657)">
        <rect id="Rectángulo_39768" data-name="Rectángulo 39768" width="120.629" height="96.301" rx="18.26" fill="#b5d6ea"/>
        <g id="Grupo_94119" data-name="Grupo 94119" transform="translate(24.129 13.674)">
          <rect id="Rectángulo_39769" data-name="Rectángulo 39769" width="27.533" height="27.533" rx="12.17" fill="#5aa5d1"/>
          <rect id="Rectángulo_39770" data-name="Rectángulo 39770" width="27.533" height="27.533" rx="12.17" transform="translate(44.832)" fill="#ed9d22" stroke="#ffa726" stroke-miterlimit="10" stroke-width="1"/>
          <rect id="Rectángulo_39771" data-name="Rectángulo 39771" width="27.533" height="27.533" rx="12.17" transform="translate(0 41.42)" fill="#eb5654"/>
          <rect id="Rectángulo_39772" data-name="Rectángulo 39772" width="27.533" height="27.533" rx="12.17" transform="translate(44.832 41.42)" fill="#5aa5d1"/>
        </g>
      </g>
      <g id="Grupo_94123" data-name="Grupo 94123" transform="translate(145.433 88.497)">
        <g id="Grupo_94121" data-name="Grupo 94121" transform="translate(70.773 57.902)">
          <path id="Trazado_190933" data-name="Trazado 190933" d="M338.906,197.83l12.053,7.147-6.741,12.046C333.638,211.114,332.666,207.3,338.906,197.83Z" transform="translate(-335.032 -175.805)" fill="#35afea"/>
          <path id="Trazado_190934" data-name="Trazado 190934" d="M354.241,200.312l10.9,7.132s7.684-13.394,10.889-27.334c8.465,2.807,3.558,35.585-6.852,39.851-5.946,2.431-16.319-4.6-21.675-7.6Z" transform="translate(-338.314 -171.141)" fill="#f79885"/>
          <path id="Trazado_190935" data-name="Trazado 190935" d="M385.661,181.539s-4.421-8.944-4.155-9.313,2.336,2.144,2.336,2.144-.177-6.594.958-6.432c.663.1.545,3.684.545,3.684s.936-3.477,1.783-3.146a6.4,6.4,0,0,1,3.1,3.92C390.575,174.223,385.661,181.539,385.661,181.539Z" transform="translate(-347.263 -167.936)" fill="#f79885"/>
        </g>
        <path id="Trazado_190936" data-name="Trazado 190936" d="M243.929,104.091s4.833-9.7,4.5-10.086-2.534,2.313-2.534,2.313.2-7.147-1.031-6.97c-.737.111-.6,3.971-.6,3.971s-1.009-3.765-1.93-3.411a6.933,6.933,0,0,0-3.345,4.251C238.6,96.164,243.929,104.091,243.929,104.091Z" transform="translate(-238.972 -89.346)" fill="#f79885"/>
        <g id="Grupo_94122" data-name="Grupo 94122" transform="translate(49.627 43.019)">
          <path id="Trazado_190937" data-name="Trazado 190937" d="M318.988,171.446c1.695-.906,6.277-4.074,7.264-8.274s-7.751-8.841-10.536-8.355c-5.054.818-10.734,14.661-9.1,16.5C307.038,171.792,311.51,175.439,318.988,171.446Z" transform="translate(-306.331 -149.59)" fill="#f79885"/>
          <path id="Trazado_190938" data-name="Trazado 190938" d="M306.72,176.7a7.4,7.4,0,0,0,3.419,1.7l1.157-3.183C308.5,177.43,306.72,176.7,306.72,176.7Z" transform="translate(-306.434 -154.97)" fill="#f0786a"/>
          <path id="Trazado_190939" data-name="Trazado 190939" d="M320.465,173.988c-1.164,4.421-.472,13.593-.472,13.593-2.137,4.671-6.041,0-9.578-.737,0,0-.39-8.605,1.26-13.262C314.939,164.337,322.579,165.987,320.465,173.988Z" transform="translate(-307.396 -152.884)" fill="#f79885"/>
          <path id="Trazado_190940" data-name="Trazado 190940" d="M316.348,157.766a9.5,9.5,0,0,1,.958-8.3c2.056-3.087,7.883-2.262,6.727,4.155,9.7,5.842,5.157,7.581,5.157,7.581s3.08,1.415-4.207,6.461c-2.7,1.864-2.35,4.612-6.808,1.628C311.6,164.92,316.348,157.766,316.348,157.766Z" transform="translate(-308.532 -147.735)" fill="#22365b"/>
        </g>
        <path id="Trazado_190941" data-name="Trazado 190941" d="M288.057,409.83h2.689l.3,8.428H279.12l.553-1.658S285.9,415.356,288.057,409.83Z" transform="translate(-249.541 -173.712)" fill="#22365b"/>
        <path id="Trazado_190942" data-name="Trazado 190942" d="M286.742,258.07s-1.068,88.853,1.253,113.239h7.124s4.148-7.581,8.915-27.157c3.116-12.8,5.216-48.707,6.034-84.661Z" transform="translate(-251.483 -133.761)" fill="#22365b"/>
        <path id="Trazado_190943" data-name="Trazado 190943" d="M342.355,409.83h2.564l.737,8.428h-9l.553-1.658S340.521,416.122,342.355,409.83Z" transform="translate(-264.688 -173.712)" fill="#22365b"/>
        <path id="Trazado_190944" data-name="Trazado 190944" d="M345.884,346.354c-1.223,16.533-5.784,24.939-5.784,24.939h-7.124C331.827,354.93,309.4,257.98,309.4,257.98l26.007,1.474h0C341.685,290.8,346.68,335.678,345.884,346.354Z" transform="translate(-257.512 -133.738)" fill="#22365b"/>
        <path id="Trazado_190945" data-name="Trazado 190945" d="M285.7,243.756c15.369,10,44.809,1.105,44.809,1.105-2.8-22.1-5.157-51.654-5.157-51.654-24.976-11.567-33.891-12.937-33.891-12.937C277.974,194.629,285.7,243.756,285.7,243.756Z" transform="translate(-250.694 -113.281)" fill="#039be5"/>
        <path id="Trazado_190946" data-name="Trazado 190946" d="M292.4,190.394c2.947-3.315,2.571-8.23-.295-12.378-3.352-1.967-9.7-9.806-9.7-9.806l-10.484,8.937C282.765,195.19,286.6,196.929,292.4,190.394Z" transform="translate(-247.646 -110.106)" fill="#35afea"/>
        <path id="Trazado_190947" data-name="Trazado 190947" d="M274.909,150.723c-13.947-15.413-28.733-48.943-28.733-48.943-8.664,5.673,4.922,41.045,18.22,57.879Z" transform="translate(-240.15 -92.619)" fill="#f79885"/>
      </g>
      <g id="Grupo_94124" data-name="Grupo 94124" transform="translate(39.642 130.716)">
        <path id="Trazado_190948" data-name="Trazado 190948" d="M115.6,180.459a4.59,4.59,0,0,1-.545,0L100.044,178.9a5.209,5.209,0,0,1-4.634-5.717l1.569-15.008a5.157,5.157,0,0,1,5.71-4.634l3.853.4-.228,2.166-3.846-.4a3.021,3.021,0,0,0-2.21.656,2.947,2.947,0,0,0-1.105,2.033l-1.569,15.015a2.947,2.947,0,0,0,.656,2.21,3.058,3.058,0,0,0,2.019,1.09l15.008,1.562a3.043,3.043,0,0,0,3.323-2.689l.435-4.141,2.166.228-.435,4.133A5.209,5.209,0,0,1,115.6,180.459Z" transform="translate(-95.382 -148.455)" fill="#7fb8db"/>
        <path id="Trazado_190949" data-name="Trazado 190949" d="M128.213,148.234,113.2,146.672a4.111,4.111,0,0,0-4.516,3.684l-1.569,14.971a4.118,4.118,0,0,0,3.684,4.524l15.008,1.562a4.118,4.118,0,0,0,4.524-3.684l1.562-15.008a4.111,4.111,0,0,0-3.676-4.487Zm-2.107,13-5.3-.553-.523,5.386-2.947-.309.56-5.378-5.253-.553.3-2.947,5.26.545.56-5.371,2.947.309-.56,5.378,5.3.553Z" transform="translate(-98.464 -146.65)" fill="#7fb8db"/>
      </g>
      <g id="Grupo_94125" data-name="Grupo 94125" transform="translate(109.242 142.21)">
        <rect id="Rectángulo_39773" data-name="Rectángulo 39773" width="28.424" height="2.954" transform="translate(10.838 13.777)" fill="#fff"/>
        <path id="Trazado_190950" data-name="Trazado 190950" d="M234.983,181.492a4.222,4.222,0,1,1-4.222-4.222A4.222,4.222,0,0,1,234.983,181.492Z" transform="translate(-199.508 -166.204)" fill="#fff"/>
        <rect id="Rectángulo_39774" data-name="Rectángulo 39774" width="28.424" height="2.954" transform="translate(10.838 23.584)" fill="#fff"/>
        <path id="Trazado_190951" data-name="Trazado 190951" d="M216.223,194.762A4.222,4.222,0,1,1,212,190.54a4.222,4.222,0,0,1,4.222,4.222Z" transform="translate(-194.57 -169.697)" fill="#fff"/>
        <rect id="Rectángulo_39775" data-name="Rectángulo 39775" width="28.424" height="2.954" transform="translate(10.838 33.39)" fill="#fff"/>
        <path id="Trazado_190952" data-name="Trazado 190952" d="M230.573,208.072a4.214,4.214,0,1,1-1.234-2.987,4.222,4.222,0,0,1,1.234,2.987Z" transform="translate(-198.348 -173.201)" fill="#fff"/>
        <path id="Trazado_190953" data-name="Trazado 190953" d="M214.9,212.349a25.05,25.05,0,1,1,25.05-25.05A25.05,25.05,0,0,1,214.9,212.349Zm0-48.537a23.5,23.5,0,1,0,23.5,23.5,23.5,23.5,0,0,0-23.5-23.5Z" transform="translate(-189.85 -162.25)" fill="#fff"/>
      </g>
      <g id="Grupo_94126" data-name="Grupo 94126" transform="translate(303.716 239.977)">
        <path id="Trazado_190954" data-name="Trazado 190954" d="M471.264,312.381v6.1h-2.092v-6.1H463.13V310.3h6.041V304.21h2.092V310.3h6.041v2.078Z" transform="translate(-456.263 -297.388)" fill="#f79885"/>
        <path id="Trazado_190955" data-name="Trazado 190955" d="M467.764,322.858A13.954,13.954,0,1,1,481.718,308.9,13.954,13.954,0,0,1,467.764,322.858Zm0-26.007A12.053,12.053,0,1,0,479.817,308.9,12.053,12.053,0,0,0,467.764,296.851Z" transform="translate(-453.81 -294.95)" fill="#f79885"/>
      </g>
    </g>
  </g>
</svg>
