<svg xmlns="http://www.w3.org/2000/svg" width="150.704" height="154.747" viewBox="0 0 150.704 154.747">
  <g id="Grupo_94275" data-name="Grupo 94275" transform="translate(-472 -7101.49)">
    <circle id="Elipse_7652" data-name="Elipse 7652" cx="75.352" cy="75.352" r="75.352" transform="translate(472 7105.533)" fill="#1565b2"/>
    <path id="Trazado_185555" data-name="Trazado 185555" d="M210.36,25.772c3.207-4.64,6.312-9.034,9.309-13.518.854-1.277,1.536-1.5,2.833-.567,4,2.874,8.077,5.638,12.106,8.471.891.628,1.388,1,1.885-.485a8.643,8.643,0,0,1,8.533-6.242,8.853,8.853,0,0,1,8.18,5.679,8.949,8.949,0,0,1-2.924,10.233c-.292.246-.6.468-1.092.854,2.632,1.844,5.121,3.593,7.621,5.338,1.914,1.33,3.794,2.71,5.774,3.938,1.326.821,1.643,1.491.612,2.9-2.874,3.922-5.535,7.991-8.361,11.945-.7.986-.862,1.376.48,1.9a8.264,8.264,0,0,1,5.609,8.336,8.471,8.471,0,0,1-5.445,8.11,8.361,8.361,0,0,1-9.675-2.119c-1.187-1.3-1.643-.9-2.419.25-2.653,3.913-5.408,7.757-8.028,11.687-.821,1.232-1.413,1.606-2.788.6-4.517-3.285-9.12-6.4-13.74-9.613,5.121-4.2,6.431-7.568,4.7-11.835a8.866,8.866,0,0,0-9.116-5.433c-4.078.234-6.763,2.973-8.213,8.529-2.566-1.774-5.071-3.495-7.568-5.223-2.242-1.556-4.443-3.178-6.73-4.661-.981-.636-1.018-1.084-.361-2.008,2.895-4.065,5.671-8.213,8.586-12.274.9-1.232.871-1.7-.678-2.287a8.6,8.6,0,0,1-5.8-9.412,8.7,8.7,0,0,1,7.56-7.658C205.132,20.631,208.04,22.438,210.36,25.772Z" transform="translate(354.892 7090.376)" fill="#fe8888"/>
    <path id="Trazado_185556" data-name="Trazado 185556" d="M24.124,136.121c-.025-5.462-.086-10.919-.049-16.376,0-1.5-.111-2.107-1.938-1.622-5.014,1.318-10.118-1.942-10.845-6.71-.883-5.778,2.759-10.443,8.459-10.738a6.9,6.9,0,0,1,2.735.411c1.376.526,1.589-.021,1.581-1.232-.037-4.726,0-9.445,0-14.183,0-2.628,0-2.628,2.534-2.628H38.964c2.681,0,2.681,0,2.665,2.628a8.807,8.807,0,1,0,17.477-1.244c-.189-1.162.078-1.4,1.125-1.4,5.059.025,10.118.037,15.194,0,1.174,0,1.458.468,1.45,1.544-.037,5.129-.049,10.266,0,15.378,0,1.4-.448,1.445-1.643,1.133-5.338-1.367-9.371,1.6-10.644,5.088-1.207,3.314-.924,6.6,1.585,9.326a8.386,8.386,0,0,0,8.274,2.723c2.415-.489,2.423-.456,2.423,1.975v15.777H58.6c.152.706.214,1.092.312,1.466a8.847,8.847,0,0,1-13.325,9.892,8.685,8.685,0,0,1-3.729-9.556c.374-1.507-.119-1.675-1.384-1.667C35.026,136.15,29.573,136.125,24.124,136.121Z" transform="translate(460.943 7047.992)" fill="#36dac9"/>
    <path id="Trazado_185557" data-name="Trazado 185557" d="M46.78,212.126c5.449,0,10.9.029,16.352,0,1.265,0,1.758.16,1.384,1.667a8.685,8.685,0,0,0,3.729,9.556,8.847,8.847,0,0,0,13.325-9.892c-.1-.374-.164-.76-.312-1.466H99.5V230.8a9.194,9.194,0,0,1,7.433-.793c5.129,1.675,7.2,6.106,5.884,10.89a8.7,8.7,0,0,1-11.679,5.831c-1.38-.55-1.68-.374-1.663,1.084.062,5.659.037,11.317.045,16.972-5.457.037-10.911.1-16.364.086-1.339,0-1.9.144-1.495,1.753a8.5,8.5,0,0,1-3.556,9.256,8.618,8.618,0,0,1-9.777.205,8.447,8.447,0,0,1-3.868-9.321c.468-1.909-.25-1.909-1.667-1.9-4.722.049-9.445-.033-14.175.049-1.421.025-1.975-.275-1.951-1.848.1-5.581.041-11.165.041-16.943,2.357.821,4.517,1.552,6.915.912a8.922,8.922,0,0,0,6.447-10.952,8.7,8.7,0,0,0-11.309-6.012c-2.053.764-2.115.111-2.082-1.581C46.767,223.036,46.751,217.579,46.78,212.126Z" transform="translate(440.016 6971.988)" fill="#ffa726"/>
    <path id="Trazado_185558" data-name="Trazado 185558" d="M171.085,244.927c0-5.654,0-11.313-.045-16.972,0-1.458.283-1.643,1.663-1.084a8.7,8.7,0,0,0,11.679-5.831c1.314-4.784-.756-9.215-5.884-10.89a9.194,9.194,0,0,0-7.433.793V192.308c5.724-.033,11.444-.094,17.165-.082,1.322,0,1.762-.1,1.121-1.6a8.706,8.706,0,0,1,2.755-10.541,8.919,8.919,0,0,1,10.775.066,8.7,8.7,0,0,1,2.706,10.393c-.673,1.569-.234,1.7,1.183,1.684,4.862-.062,9.724.066,14.578-.07,1.922-.049,2.632.316,2.554,2.464-.185,5.178-.057,10.369-.057,15.686,4.562-1.306,8.344-.411,11.022,3.5a8.779,8.779,0,0,1-.148,9.781c-2.267,3.285-5.568,4.349-10.874,3.306v9.909c0,2.263-.029,4.517,0,6.792,0,.94-.135,1.466-1.281,1.454q-8.188-.074-16.376,0c-1.741,0-.986-.821-.678-1.585a8.538,8.538,0,0,0-1.758-9.777,8.39,8.39,0,0,0-9.363-2.123,8.694,8.694,0,0,0-5.051,11.748c.6,1.4.522,1.778-1.1,1.749C182.521,244.944,176.805,244.96,171.085,244.927Z" transform="translate(366.716 6991.838)" fill="#f3584c"/>
  </g>
</svg>
