<svg xmlns="http://www.w3.org/2000/svg" width="150.704" height="152.386" viewBox="0 0 150.704 152.386">
  <g id="Grupo_94276" data-name="Grupo 94276" transform="translate(-964 -7348.444)">
    <circle id="Elipse_7653" data-name="Elipse 7653" cx="75.352" cy="75.352" r="75.352" transform="translate(964 7350.048)" fill="#1565b2"/>
    <path id="Trazado_185559" data-name="Trazado 185559" d="M266.352,329.679c-1.2,1.322-2.874,1.778-4.451,2.423h-3.876a11.9,11.9,0,0,1-6.016-4.324,32.609,32.609,0,0,0-2.053-2.538,38.006,38.006,0,0,0-3.815-4.8,3.584,3.584,0,0,0-.324-.653c-2.846-3.7-5.687-7.355-8.562-11.013a10.372,10.372,0,0,1-2.509-5.9,9.978,9.978,0,0,1,.871-4.7,26.051,26.051,0,0,1,2.139-3.133c1.441-.756,2.706-1.926,4.46-1.987-3.4,4.928-3.285,8.648.431,13.391,4.558,5.835,9.19,11.613,13.592,17.563,1.979,2.673,4.209,4.644,7.519,5.318C264.627,329.5,265.559,329.084,266.352,329.679Z" transform="translate(821.18 7168.729)" fill="#32c4b4"/>
    <path id="Trazado_185560" data-name="Trazado 185560" d="M139.73,194.964l-27.767-.049c-3.067,0-6.135.033-9.2.049a63.5,63.5,0,0,1-13.732-4.8A72.117,72.117,0,0,1,69.93,177.4c0-.694,0-1.392,0-2.086q0-46.813.033-93.589c0-5.568,2.558-10.065,6.878-13.551a20.824,20.824,0,0,1,8.574-3.794l11.042-.037c.041,3.31-.3,6.669,1.183,9.806H83.333c-6.706,0-10.73,4.049-10.73,10.775v64.836c0,.944.025,1.885.037,2.829a11.026,11.026,0,0,0,3.166,8.96q10.373,10.562,20.943,20.943a10.677,10.677,0,0,0,8.664,3.146l43.585.025a38,38,0,0,1,3.815,4.8A62.689,62.689,0,0,1,139.73,194.964Z" transform="translate(918.306 7303.522)" fill="#f3584c"/>
    <path id="Trazado_185561" data-name="Trazado 185561" d="M76.436,64.329a20.973,20.973,0,0,0-8.574,3.794c-4.32,3.5-6.866,8-6.878,13.551q-.1,46.813-.033,93.589v2.086A42.8,42.8,0,0,1,54.66,171c0-.6.037-1.191.037-1.786V81.744C54.7,72.4,62.91,64.3,72.268,64.288,73.656,64.28,75.048,64.313,76.436,64.329Z" transform="translate(927.306 7303.553)" fill="#a62d23"/>
    <path id="Trazado_185562" data-name="Trazado 185562" d="M273.585,309.849c-.793-.6-1.725-.181-2.591-.357-3.31-.673-5.539-2.645-7.519-5.318-4.4-5.95-9.034-11.728-13.592-17.563-3.7-4.743-3.835-8.467-.431-13.391a6.981,6.981,0,0,1,3.33-.222,14.793,14.793,0,0,1,5.084,2.164c2,2.69,4,5.375,6.209,7.9a11.774,11.774,0,0,0,2.053,2.579,6.215,6.215,0,0,0,1.478,1.643c1.372,1.4,1.425,1.4,2.374-.279q6.073-10.738,12.1-21.5c1.6-2.874,3.573-5.305,6.981-5.938a12,12,0,0,1,6.689.776c.743.53.788,1.511,1.384,2.135,1.047,3.815-.111,7.112-2.029,10.434-6.509,11.28-12.857,22.655-19.263,34a11.337,11.337,0,0,1-2.254,2.932Z" transform="translate(813.947 7188.559)" fill="#36dac9"/>
    <path id="Trazado_185563" data-name="Trazado 185563" d="M253.41,64.279c5.014,0,10.032-.033,15.046,0a18,18,0,0,1,17.781,17.764q.058,29.27,0,58.541c0,.7,0,1.392.025,2.086a15.41,15.41,0,0,0-4.238,5.092,88.614,88.614,0,0,1-4.685,8.09c0-.645-.041-1.289-.041-1.934V84.388c0-6.1-4.184-10.266-10.295-10.266-4.928,0-9.827,0-14.742-.029C253.521,70.911,253.5,67.6,253.41,64.279Z" transform="translate(810.848 7303.566)" fill="#f3584c"/>
    <path id="Trazado_185564" data-name="Trazado 185564" d="M189.39,36.83c.09,3.322.111,6.632-1.137,9.794-.25.411-.5.85-.76,1.273-2.464,4.045-6.016,6.6-10.759,6.751-7.092.226-14.2.049-21.3.045a3.124,3.124,0,0,0-.657-.271,12.685,12.685,0,0,1-8.455-5.581c-2.977-4.279-3.265-9.219-1.9-14.085,1.725-6.16,6.082-9.5,12.459-10.147a1.232,1.232,0,0,0,1.158-.731c1.684-3.474,4.624-5.289,8.25-6.188a11.233,11.233,0,0,1,8.771,5.864,1.746,1.746,0,0,0,1.54,1.092A13.569,13.569,0,0,1,189.168,36.3a2.62,2.62,0,0,0,.222.534Zm-14.582-3.322c-1.762-1.1-3.326-2.32-3.33-4.689a2.02,2.02,0,0,0-.517-1.043c-1.068-1.417-2.127-1.593-4.464-.8-2.731-1.1-4.316-.267-4.846,2.55a4.575,4.575,0,0,1-4.776,4.012c-.9,0-1.79.025-2.686,0a4.7,4.7,0,0,0-4.961,3.248,8.639,8.639,0,0,0-.32,3.531c0,3.544,1.889,5.453,5.388,5.457h20.417a11.411,11.411,0,0,0,2.8-.287c3.585,1,5.811-.53,6.546-3.232a8.855,8.855,0,0,0-.308-6.094,4.41,4.41,0,0,0-1.909-1.992c-1.643-.969-3.371-.567-5.08-.6Z" transform="translate(874.868 7331.016)" fill="#f4dd58"/>
    <path id="Trazado_185565" data-name="Trazado 185565" d="M301.7,266.576a91.571,91.571,0,0,0,4.685-8.09,15.409,15.409,0,0,1,4.238-5.092c4.6-2.148,8.936-1.523,11.933,1.708a2.053,2.053,0,0,1,.624.981,12,12,0,0,0-6.689-.776c-3.417.632-5.392,3.076-6.981,5.938q-6.016,10.767-12.1,21.5c-.949,1.684-1,1.675-2.373.279a6.769,6.769,0,0,1-1.478-1.643l1.852-3.371C297.469,274.169,299.826,270.506,301.7,266.576Z" transform="translate(786.507 7192.841)" fill="#32c4b4"/>
    <path id="Trazado_185566" data-name="Trazado 185566" d="M160.938,17.315c-3.626.9-6.57,2.714-8.25,6.188a1.232,1.232,0,0,1-1.158.731c-6.377.645-10.734,3.975-12.459,10.147-1.363,4.866-1.076,9.806,1.9,14.085a12.728,12.728,0,0,0,8.455,5.581,3.125,3.125,0,0,1,.657.271c-6.57.505-11.338-2.2-14.331-8.057-1.478-3.137-1.142-6.5-1.183-9.806a15.618,15.618,0,0,1,3.77-7.929,13.485,13.485,0,0,1,8.751-4.267,2.053,2.053,0,0,0,1.836-1.137A11.832,11.832,0,0,1,159.8,17.073,1.643,1.643,0,0,1,160.938,17.315Z" transform="translate(880.213 7331.391)" fill="#edbd57"/>
    <path id="Trazado_185567" data-name="Trazado 185567" d="M101.462,88.162c2.994,5.86,7.761,8.562,14.331,8.057,7.1,0,14.212.181,21.3-.045,4.743-.148,8.3-2.706,10.759-6.751.259-.411.509-.846.76-1.273,4.928,0,9.827,0,14.742.029,6.11.029,10.295,4.184,10.295,10.266v69.529c0,.645.025,1.289.041,1.934-1.872,3.93-4.23,7.593-6.3,11.416-.608,1.129-1.232,2.25-1.852,3.371a11.774,11.774,0,0,1-2.053-2.579c2.587-.579,4.028-2.226,3.79-4.332-.255-2.242-1.868-3.523-4.517-3.552-1.831,0-3.663,0-5.494-.021-1.643-.887-3.191-1.918-5.084-2.164a6.981,6.981,0,0,0-3.33.222c-1.753.062-3.018,1.232-4.46,1.987l-23.521-.021c-1.987,0-3.975-.053-5.954.049a3.79,3.79,0,0,0-3.634,4.217c.168,2.139,1.868,3.573,4.349,3.577q12.874.025,25.751,0a10.373,10.373,0,0,0,2.509,5.9c2.874,3.659,5.716,7.338,8.562,11.013a3.584,3.584,0,0,1,.324.653l-43.585-.025c-3.872-1.445-5.65-4.176-5.4-8.348.156-2.616.062-5.252,0-7.88a12.681,12.681,0,0,0-1.667-6.517c-.324-.542-.977-.887-.994-1.614,1.536-2.723,3.084-5.433,4.591-8.172a4.151,4.151,0,0,0-1.408-5.827,4.06,4.06,0,0,0-5.749,1.643c-1.8,3.08-3.482,6.225-5.215,9.346H91.4c-.608-.821-1.211-1.671-1.831-2.5a4.043,4.043,0,0,0-4.583-1.61,3.987,3.987,0,0,0-3.006,3.8,3.043,3.043,0,0,1-1.692-.411c-2.139-.99-3.178-2.825-3.872-4.928,0-.944-.037-1.885-.037-2.829V98.937c0-6.726,4.024-10.763,10.73-10.775Zm37.779,57H116.467a13.766,13.766,0,0,0-1.487.033,3.909,3.909,0,0,0-3.659,3.819A3.865,3.865,0,0,0,114.771,153a9.972,9.972,0,0,0,1.487.086H162.3a9.15,9.15,0,0,0,2.053-.189,3.63,3.63,0,0,0,2.723-2.5c.932-2.706-1.018-5.207-4.131-5.219-7.88-.029-15.789,0-23.69,0Zm.111-21.168h23.682a3.934,3.934,0,0,0,3.991-2.517c1.014-2.71-.887-5.273-3.975-5.281-8.291-.021-16.582,0-24.876,0H115.534a3.95,3.95,0,0,0-4.18,3.076c-.542,2.546,1.343,4.718,4.164,4.722q11.937.016,23.85,0ZM86.133,109.922a4.106,4.106,0,0,0-3.318,6.546c2.291,3.059,4.6,6.106,7.014,9.067,2.024,2.493,5.31,2.16,6.981-.6.69-1.15,1.326-2.328,1.987-3.495,2.316-4.106,4.665-8.188,6.94-12.319,1.643-2.952.074-6.16-3.117-6.447a4.058,4.058,0,0,0-4.106,2.369c-1.782,3.154-3.585,6.3-5.338,9.445-.411.768-.694.994-1.281.127-.727-1.064-1.552-2.053-2.369-3.063a4.078,4.078,0,0,0-3.375-1.626Zm6.981,46.271a4.139,4.139,0,0,0,3.72-2.3q4.48-7.9,8.956-15.8a4.176,4.176,0,0,0,.645-2.69,4.258,4.258,0,0,0-3.285-3.634,4.068,4.068,0,0,0-4.517,2.123q-2.772,4.755-5.412,9.58c-.485.883-.821.965-1.421.123-.743-1.051-1.536-2.053-2.361-3.063a4.062,4.062,0,0,0-5.716-.76,4,4,0,0,0-.916,5.675c2.324,3.154,4.763,6.221,7.19,9.3a3.778,3.778,0,0,0,3.133,1.454Zm34.74-13.469h12.36a3.937,3.937,0,0,0,4.275-3.495c.3-2.464-1.466-4.406-4.238-4.418-8.188-.041-16.38,0-24.569,0a6.333,6.333,0,0,0-1.618.226,3.844,3.844,0,0,0-2.768,3.646,3.921,3.921,0,0,0,4.2,4.045c4.135.025,8.258-.025,12.377,0Zm.1-29.106h11.929a5.658,5.658,0,0,0,2.2-.267,3.928,3.928,0,0,0-1.7-7.556q-12.319-.037-24.6,0c-2.731,0-4.472,1.544-4.484,3.905s1.7,3.913,4.431,3.926c4.09,0,8.168-.008,12.237-.008Zm.041,58.085h12.225c2.612,0,4.283-1.581,4.279-3.926s-1.688-3.881-4.312-3.885h-24.6a5.43,5.43,0,0,0-1.61.2,3.885,3.885,0,0,0,1.195,7.589c4.291.053,8.566.021,12.837.021Z" transform="translate(914.505 7289.489)" fill="#f8f4f7"/>
    <path id="Trazado_185568" data-name="Trazado 185568" d="M191.543,305.712H165.792c-2.464,0-4.18-1.437-4.349-3.577a3.79,3.79,0,0,1,3.634-4.225c1.979-.1,3.967-.049,5.954-.049l23.521.021a24.808,24.808,0,0,0-2.139,3.133A9.979,9.979,0,0,0,191.543,305.712Z" transform="translate(864.386 7165.902)" fill="#4480bf"/>
    <path id="Trazado_185569" data-name="Trazado 185569" d="M76.5,279.23c.694,2.115,1.733,3.95,3.872,4.928a3.051,3.051,0,0,0,1.7.411c.382.439.912.329,1.388.329h9.983a11.946,11.946,0,0,1,6.008,1.77c.6.411,1,1.109,1.782,1.232,0,.727.669,1.072.994,1.614a12.6,12.6,0,0,1,1.667,6.517c.045,2.628.14,5.264,0,7.88-.25,4.172,1.528,6.9,5.4,8.348a10.676,10.676,0,0,1-8.664-3.146q-10.574-10.36-20.943-20.943A11.026,11.026,0,0,1,76.5,279.23Z" transform="translate(914.47 7176.874)" fill="#dcd9eb"/>
    <path id="Trazado_185570" data-name="Trazado 185570" d="M273.46,297.78c1.831,0,3.663,0,5.494.021,2.636.029,4.25,1.31,4.517,3.552.238,2.107-1.2,3.753-3.79,4.332C277.464,303.155,275.46,300.47,273.46,297.78Z" transform="translate(798.353 7165.941)" fill="#696169"/>
    <path id="Trazado_185571" data-name="Trazado 185571" d="M185.041,72.921a11.412,11.412,0,0,1-2.8.287H161.827c-3.5,0-5.392-1.914-5.388-5.457a8.639,8.639,0,0,1,.32-3.531h30.72C188.589,67.981,187.78,70.868,185.041,72.921Z" transform="translate(867.337 7303.593)" fill="#b56a54"/>
    <path id="Trazado_185572" data-name="Trazado 185572" d="M227.491,59.538c-.283-1.848-1.811-2.464-3.191-3.228,1.708.033,3.449-.37,5.08.6a4.41,4.41,0,0,1,1.909,1.992A8.858,8.858,0,0,1,231.6,65c-.735,2.7-2.961,4.234-6.546,3.232C227.79,66.174,228.6,63.287,227.491,59.538Z" transform="translate(827.326 7308.287)" fill="#edbd57"/>
    <path id="Trazado_185573" data-name="Trazado 185573" d="M207.621,46.161c-.936,0-1.877.057-2.817.029a4.3,4.3,0,0,1-4.242-3.634,5.536,5.536,0,0,0-1.252-2.924c2.337-.8,3.4-.62,4.464.8a2.02,2.02,0,0,1,.517,1.043C204.3,43.841,205.86,45.061,207.621,46.161Z" transform="translate(842.054 7318.362)" fill="#edbd57"/>
    <path id="Trazado_185574" data-name="Trazado 185574" d="M189.41,226.984H213.1c3.113,0,5.063,2.513,4.131,5.219a3.63,3.63,0,0,1-2.723,2.5,9.149,9.149,0,0,1-2.053.189H166.414a9.969,9.969,0,0,1-1.487-.086,3.86,3.86,0,0,1-3.449-3.987A3.909,3.909,0,0,1,165.137,227a13.774,13.774,0,0,1,1.482-.021Z" transform="translate(864.352 7207.672)" fill="#4480bf"/>
    <path id="Trazado_185575" data-name="Trazado 185575" d="M189.477,164.238H165.66c-2.821,0-4.706-2.176-4.164-4.722a3.96,3.96,0,0,1,4.18-3.076h47.515c3.088,0,4.989,2.571,3.975,5.281a3.939,3.939,0,0,1-3.991,2.517Q201.32,164.246,189.477,164.238Z" transform="translate(864.395 7249.242)" fill="#4480bf"/>
    <path id="Trazado_185576" data-name="Trazado 185576" d="M94.2,130.755a4.078,4.078,0,0,1,3.355,1.643c.821,1,1.643,2,2.369,3.063.587.866.858.641,1.281-.127,1.758-3.166,3.56-6.307,5.338-9.445a4.078,4.078,0,0,1,4.106-2.369c3.191.3,4.747,3.495,3.117,6.447-2.275,4.127-4.624,8.213-6.94,12.319-.661,1.166-1.3,2.345-1.987,3.495a4.093,4.093,0,0,1-6.981.6c-2.41-2.961-4.722-6.008-7.014-9.067a4.106,4.106,0,0,1,3.318-6.546Z" transform="translate(906.451 7268.656)" fill="#dc646f"/>
    <path id="Trazado_185577" data-name="Trazado 185577" d="M101.191,218.653a3.778,3.778,0,0,1-3.133-1.454c-2.427-3.076-4.866-6.16-7.19-9.3a3.98,3.98,0,0,1,.916-5.675,4.046,4.046,0,0,1,5.716.76c.821.99,1.618,2.012,2.361,3.063.6.842.936.76,1.421-.123q2.649-4.817,5.412-9.58a4.068,4.068,0,0,1,4.517-2.123,4.258,4.258,0,0,1,3.285,3.634,4.176,4.176,0,0,1-.645,2.69q-4.468,7.9-8.94,15.8A4.139,4.139,0,0,1,101.191,218.653Z" transform="translate(906.443 7227.029)" fill="#dc646f"/>
    <path id="Trazado_185578" data-name="Trazado 185578" d="M178.006,209.666c-4.106,0-8.242.029-12.36,0a3.93,3.93,0,0,1-4.2-4.045,3.844,3.844,0,0,1,2.768-3.646,6.333,6.333,0,0,1,1.618-.226c8.188,0,16.38-.033,24.569,0,2.772,0,4.517,1.942,4.238,4.418-.259,2.131-1.868,3.478-4.275,3.495C186.247,209.683,182.125,209.666,178.006,209.666Z" transform="translate(864.369 7222.547)" fill="#4480bf"/>
    <path id="Trazado_185579" data-name="Trazado 185579" d="M178,138.931H165.771c-2.727,0-4.443-1.552-4.431-3.926s1.753-3.9,4.484-3.905h24.6a3.928,3.928,0,0,1,1.7,7.556,5.658,5.658,0,0,1-2.2.267Q183.962,138.939,178,138.931Z" transform="translate(864.433 7264.176)" fill="#4480bf"/>
    <path id="Trazado_185580" data-name="Trazado 185580" d="M178.053,280.42c-4.271,0-8.545.033-12.82,0a3.885,3.885,0,0,1-1.187-7.6,5.429,5.429,0,0,1,1.61-.2h24.6c2.624,0,4.3,1.548,4.312,3.885s-1.667,3.913-4.279,3.926c-4.074.025-8.147,0-12.225,0Z" transform="translate(864.462 7180.772)" fill="#4480bf"/>
    <path id="Trazado_185581" data-name="Trazado 185581" d="M125.62,279.42c-.784-.136-1.179-.842-1.782-1.232a11.865,11.865,0,0,0-6.008-1.77c1.733-3.121,3.417-6.266,5.215-9.346a4.05,4.05,0,0,1,5.749-1.643,4.14,4.14,0,0,1,1.408,5.827C128.7,273.988,127.156,276.7,125.62,279.42Z" transform="translate(890.076 7185.365)" fill="#dc646f"/>
    <path id="Trazado_185582" data-name="Trazado 185582" d="M99.556,286.813c-2.673,0-5.338.025-8.028,0-.476,0-1.006.111-1.388-.329a3.959,3.959,0,0,1,3-3.8,4.02,4.02,0,0,1,4.583,1.61C98.345,285.171,98.948,285.992,99.556,286.813Z" transform="translate(906.395 7174.945)" fill="#dc646f"/>
  </g>
</svg>
