<svg xmlns="http://www.w3.org/2000/svg" width="200" height="200" viewBox="0 0 200 200">
  <g id="Grupo_94278" data-name="Grupo 94278" transform="translate(-985 -9341)">
    <path id="Trazado_185801" data-name="Trazado 185801" d="M67.569,260.059a5.209,5.209,0,1,1,5.19-5.209A5.209,5.209,0,0,1,67.569,260.059Zm0-7.565a2.355,2.355,0,1,0,2.355,2.355A2.355,2.355,0,0,0,67.569,252.494Z" transform="translate(964.138 9257.855)" fill="#4480bf"/>
    <path id="Trazado_185802" data-name="Trazado 185802" d="M90.529,260.059a5.21,5.21,0,1,1,5.209-5.21,5.21,5.21,0,0,1-5.209,5.21Zm0-7.565a2.355,2.355,0,1,0,2.355,2.355A2.355,2.355,0,0,0,90.529,252.494Z" transform="translate(956.447 9257.855)" fill="#4480bf"/>
    <path id="Trazado_185803" data-name="Trazado 185803" d="M113.469,260.059a5.21,5.21,0,1,1,5.209-5.21A5.21,5.21,0,0,1,113.469,260.059Zm0-7.565a2.355,2.355,0,1,0,2.355,2.355A2.355,2.355,0,0,0,113.469,252.494Z" transform="translate(948.77 9257.855)" fill="#4480bf"/>
    <path id="Trazado_185804" data-name="Trazado 185804" d="M136.379,260.059a5.21,5.21,0,1,1,5.209-5.21A5.21,5.21,0,0,1,136.379,260.059Zm0-7.565a2.355,2.355,0,1,0,2.355,2.355A2.355,2.355,0,0,0,136.379,252.494Z" transform="translate(941.102 9257.855)" fill="#4480bf"/>
    <g id="Grupo_92704" data-name="Grupo 92704" transform="translate(1091.061 9448.044)">
      <path id="Trazado_185805" data-name="Trazado 185805" d="M237.231,175.667c-6.148,0-11.31-5.675-12.575-13.267-5.01,3.566-12.335,6.766-22.428,9.634a67.2,67.2,0,0,1-40.678-.845V203a39.035,39.035,0,0,0,39.035,39.035h0A39.035,39.035,0,0,0,239.619,203V175.367a10.165,10.165,0,0,1-2.389.3Z" transform="translate(-160.126 -160.992)" fill="#fff"/>
      <path id="Trazado_185806" data-name="Trazado 185806" d="M199.868,242.755A40.512,40.512,0,0,1,159.41,202.29V170.481a1.424,1.424,0,0,1,1.883-1.331,66.153,66.153,0,0,0,39.833.825c9.8-2.788,16.992-5.875,21.956-9.428a1.424,1.424,0,0,1,2.229.925c1.191,7,5.888,12.082,11.171,12.082a8.3,8.3,0,0,0,2.049-.266,1.4,1.4,0,0,1,1.218.266,1.424,1.424,0,0,1,.552,1.124V202.31A40.512,40.512,0,0,1,199.868,242.755Zm-37.6-70.311V202.29a37.609,37.609,0,1,0,75.218,0l0-25.948c-6.653.619-12.422-4.557-14.491-12.3-5.123,3.24-12.056,6.081-21.084,8.649A69.054,69.054,0,0,1,162.264,172.444Z" transform="translate(-159.41 -160.284)" fill="#4480bf"/>
    </g>
    <g id="Grupo_92705" data-name="Grupo 92705" transform="translate(1102.777 9470.915)">
      <rect id="Rectángulo_38959" data-name="Rectángulo 38959" width="25.921" height="14.058" rx="2.38" fill="#6de0d4"/>
      <rect id="Rectángulo_38960" data-name="Rectángulo 38960" width="25.921" height="14.058" rx="2.38" transform="translate(38.043)" fill="#6de0d4"/>
    </g>
    <path id="Trazado_185807" data-name="Trazado 185807" d="M216.924,235.326h-7.445a1.43,1.43,0,0,1,0-2.854h5.988V218.5a1.43,1.43,0,0,1,2.854,0v15.382a1.424,1.424,0,0,1-1.4,1.444Z" transform="translate(915.34 9268.723)" fill="#4480bf"/>
    <g id="Grupo_92706" data-name="Grupo 92706" transform="translate(1104.733 9473.403)">
      <path id="Trazado_185808" data-name="Trazado 185808" d="M193.892,201.261h-12.5a1.43,1.43,0,0,1,0-2.861h12.5a1.43,1.43,0,0,1,0,2.861Z" transform="translate(-179.96 -198.4)" fill="#4480bf"/>
      <path id="Trazado_185809" data-name="Trazado 185809" d="M251.322,201.261h-12.5a1.43,1.43,0,1,1,0-2.861h12.5a1.43,1.43,0,1,1,0,2.861Z" transform="translate(-199.18 -198.4)" fill="#4480bf"/>
    </g>
    <g id="Grupo_92707" data-name="Grupo 92707" transform="translate(1068.4 9412.24)">
      <path id="Trazado_185810" data-name="Trazado 185810" d="M225.835,123.72a10.146,10.146,0,0,0-4.484,1.078c-4.125-13.007-33.579-30.1-60.584,3.027C147.007,144.7,127.5,140.246,127.5,140.246s25.389,24.617,63.339,13.792c10.093-2.868,17.418-6.068,22.428-9.634,1.284,7.591,6.427,13.267,12.575,13.267,7.126,0,12.9-7.6,12.9-16.979S232.954,123.72,225.835,123.72Z" transform="translate(-126.069 -107.193)" fill="#fff"/>
      <path id="Trazado_185811" data-name="Trazado 185811" d="M225.115,158.379c-6.214,0-11.557-4.977-13.526-12.342-5.123,3.24-12.056,6.081-21.084,8.649a71.815,71.815,0,0,1-19.587,2.794c-27.331,0-44.417-16.247-45.136-16.939a1.427,1.427,0,0,1,1.311-2.415,28.529,28.529,0,0,0,5.629.492,32.867,32.867,0,0,0,26.22-12.428c13.306-16.294,26.4-19.72,35.063-19.72,13.114,0,24.025,7.9,27.438,15.715a11.31,11.31,0,0,1,3.673-.625c7.9,0,14.331,8.257,14.331,18.4S233.019,158.379,225.115,158.379ZM212.54,142.251a1.457,1.457,0,0,1,.546.113,1.41,1.41,0,0,1,.858,1.078c1.191,7,5.888,12.082,11.171,12.082,6.327,0,11.477-6.979,11.477-15.555s-5.15-15.549-11.477-15.549a8.729,8.729,0,0,0-3.859.931,1.41,1.41,0,0,1-1.191.033,1.45,1.45,0,0,1-.8-.878c-2.315-7.319-12.641-15.169-25.282-15.169-8.044,0-20.272,3.233-32.854,18.662A36.147,36.147,0,0,1,132.7,141.479h-1.331a67.56,67.56,0,0,0,39.514,13.173,68.782,68.782,0,0,0,18.809-2.661c9.8-2.788,16.992-5.875,21.956-9.428a1.417,1.417,0,0,1,.892-.313Z" transform="translate(-125.349 -106.47)" fill="#4480bf"/>
    </g>
    <path id="Trazado_185812" data-name="Trazado 185812" d="M223,264.844H209.029a1.43,1.43,0,0,1,0-2.854H223a1.43,1.43,0,0,1,0,2.854Z" transform="translate(915.491 9253.722)" fill="#4480bf"/>
    <g id="Grupo_92708" data-name="Grupo 92708" transform="translate(1098.107 9467.502)">
      <path id="Trazado_185813" data-name="Trazado 185813" d="M192.827,206.476H175.988A5.988,5.988,0,0,1,170,200.488v-5.01a5.988,5.988,0,0,1,5.948-5.948h16.873a5.988,5.988,0,0,1,5.955,5.948v5.01a5.988,5.988,0,0,1-5.948,5.988Zm-16.839-14.092a3.094,3.094,0,0,0-3.094,3.094v5.01a3.1,3.1,0,0,0,3.094,3.1h16.873a3.1,3.1,0,0,0,3.087-3.1v-5.01a3.1,3.1,0,0,0-3.1-3.094Z" transform="translate(-170 -189.53)" fill="#4480bf"/>
      <path id="Trazado_185814" data-name="Trazado 185814" d="M250.011,206.493H233.138a5.988,5.988,0,0,1-5.948-5.955v-5.01a5.988,5.988,0,0,1,5.948-5.948h16.873a5.988,5.988,0,0,1,5.955,5.948V200.5a5.988,5.988,0,0,1-5.955,5.988Zm-16.873-14.058a3.094,3.094,0,0,0-3.094,3.094V200.5a3.1,3.1,0,0,0,3.094,3.1h16.873a3.1,3.1,0,0,0,3.094-3.1v-5.01a3.094,3.094,0,0,0-3.094-3.094Z" transform="translate(-189.14 -189.547)" fill="#4480bf"/>
    </g>
    <path id="Trazado_185815" data-name="Trazado 185815" d="M210.4,202.292a1.43,1.43,0,0,1-.6-2.721c.279-.133,6.933-3.147,13.353,0a1.43,1.43,0,1,1-1.264,2.562c-5.2-2.562-10.831,0-10.891,0A1.377,1.377,0,0,1,210.4,202.292Z" transform="translate(915.059 9275.09)" fill="#4480bf"/>
    <path id="Trazado_185816" data-name="Trazado 185816" d="M267.555,201.137a1.424,1.424,0,0,1-.665-2.7l7.052-3.553a1.43,1.43,0,1,1,1.291,2.548l-7.052,3.553a1.4,1.4,0,0,1-.625.153Z" transform="translate(895.947 9276.245)" fill="#4480bf"/>
    <path id="Trazado_185817" data-name="Trazado 185817" d="M167.873,201.157a1.39,1.39,0,0,1-.665-.153l-7.052-3.553a1.427,1.427,0,0,1,1.284-2.548l7.052,3.553a1.424,1.424,0,0,1-.665,2.7Z" transform="translate(931.664 9276.225)" fill="#4480bf"/>
    <path id="Trazado_185818" data-name="Trazado 185818" d="M188.044,133.637a1.43,1.43,0,0,1-1.111-2.322c.386-.479,9.614-11.716,23.18-13.42,15.921-2,24.976,9.727,25.355,10.226a1.43,1.43,0,0,1-2.275,1.73c-.08-.113-8.5-10.911-22.727-9.128-12.4,1.564-21.224,12.275-21.29,12.388A1.417,1.417,0,0,1,188.044,133.637Z" transform="translate(922.544 9302.023)" fill="#4480bf"/>
    <path id="Trazado_185819" data-name="Trazado 185819" d="M135.871,66.826l-16.287-8.609V26.66H16V91.516H119.584V75.435Z" transform="translate(979.647 9332.48)" fill="#fff"/>
    <path id="Trazado_185820" data-name="Trazado 185820" d="M141.641,72.6l-16.28-8.609V32.43H21.77V97.286H125.361V81.2Z" transform="translate(977.716 9330.55)" fill="#039be5"/>
    <path id="Trazado_185821" data-name="Trazado 185821" d="M118.868,92.22H15.284A1.424,1.424,0,0,1,13.86,90.8V25.94a1.424,1.424,0,0,1,1.424-1.43H118.868a1.43,1.43,0,0,1,1.43,1.43v30.7l15.522,8.2a1.424,1.424,0,0,1,0,2.528l-15.522,8.2V90.8a1.424,1.424,0,0,1-1.43,1.424ZM16.714,89.372h100.73V74.735a1.43,1.43,0,0,1,.758-1.264l13.9-7.319-13.9-7.385a1.424,1.424,0,0,1-.758-1.257V27.364H16.714Z" transform="translate(980.363 9333.2)" fill="#4480bf"/>
    <circle id="Elipse_7659" data-name="Elipse 7659" cx="5.589" cy="5.589" r="5.589" transform="translate(1018.148 9391.096)" fill="#fff"/>
    <path id="Trazado_185822" data-name="Trazado 185822" d="M92,80.279a5.589,5.589,0,1,1-5.589-5.589A5.589,5.589,0,0,1,92,80.279Z" transform="translate(957.953 9316.405)" fill="#fff"/>
    <circle id="Elipse_7660" data-name="Elipse 7660" cx="5.589" cy="5.589" r="5.589" transform="translate(1059.405 9391.096)" fill="#fff"/>
    <path id="Trazado_185823" data-name="Trazado 185823" d="M58.536,90.418a7.019,7.019,0,1,1,7.013-7.013,7.019,7.019,0,0,1-7.013,7.013Zm0-11.177a4.165,4.165,0,1,0,4.158,4.165,4.165,4.165,0,0,0-4.158-4.165Z" transform="translate(967.763 9315.841)" fill="#4480bf"/>
    <path id="Trazado_185824" data-name="Trazado 185824" d="M89.539,90.418a7.019,7.019,0,1,1,7.019-7.013A7.019,7.019,0,0,1,89.539,90.418Zm0-11.177A4.165,4.165,0,1,0,93.7,83.406a4.165,4.165,0,0,0-4.165-4.165Z" transform="translate(957.384 9315.841)" fill="#4480bf"/>
    <path id="Trazado_185825" data-name="Trazado 185825" d="M120.539,90.418a7.019,7.019,0,1,1,7.019-7.013,7.019,7.019,0,0,1-7.019,7.013Zm0-11.177a4.165,4.165,0,1,0,4.165,4.165,4.165,4.165,0,0,0-4.165-4.165Z" transform="translate(947.009 9315.841)" fill="#4480bf"/>
    <path id="Trazado_185826" data-name="Trazado 185826" d="M63.656,20.236A13.453,13.453,0,1,1,50.223,6.79,13.453,13.453,0,0,1,63.656,20.236Z" transform="translate(972.702 9339.131)" fill="#fff"/>
    <path id="Trazado_185827" data-name="Trazado 185827" d="M49.51,34.393A14.877,14.877,0,1,1,64.373,19.517,14.877,14.877,0,0,1,49.51,34.393Zm0-26.9A12.022,12.022,0,1,0,61.519,19.517,12.022,12.022,0,0,0,49.51,7.494Z" transform="translate(973.415 9339.851)" fill="#4480bf"/>
    <path id="Trazado_185828" data-name="Trazado 185828" d="M59.994,27.713H44.771a1.43,1.43,0,1,1,0-2.854H59.994a1.43,1.43,0,1,1,0,2.854Z" transform="translate(970.529 9333.085)" fill="#4480bf"/>
    <path id="Trazado_185829" data-name="Trazado 185829" d="M56.28,31.543a1.424,1.424,0,0,1-1.43-1.424V14.889a1.43,1.43,0,0,1,2.854,0V30.119A1.424,1.424,0,0,1,56.28,31.543Z" transform="translate(966.645 9336.866)" fill="#4480bf"/>
    <path id="Trazado_185830" data-name="Trazado 185830" d="M227.489,56.564H212.259a1.43,1.43,0,0,1,0-2.854h15.229a1.43,1.43,0,0,1,0,2.854Z" transform="translate(914.41 9323.429)" fill="#4480bf"/>
    <path id="Trazado_185831" data-name="Trazado 185831" d="M223.654,60.373a1.424,1.424,0,0,1-1.424-1.424V43.72a1.43,1.43,0,0,1,2.854,0V58.949a1.424,1.424,0,0,1-1.43,1.424Z" transform="translate(910.627 9327.218)" fill="#4480bf"/>
    <rect id="Rectángulo_38961" data-name="Rectángulo 38961" width="200" height="200" transform="translate(985 9341)" fill="none"/>
  </g>
</svg>
