<svg xmlns="http://www.w3.org/2000/svg" width="200" height="200" viewBox="0 0 200 200">
  <g id="Grupo_94279" data-name="Grupo 94279" transform="translate(-985 -9606)">
    <rect id="Rect치ngulo_38957" data-name="Rect치ngulo 38957" width="120.637" height="106.093" transform="translate(1016.39 9622.957)" fill="#fff"/>
    <path id="Trazado_185777" data-name="Trazado 185777" d="M166.687,131.687H46.05a1.43,1.43,0,0,1-1.43-1.43V24.164a1.43,1.43,0,0,1,1.43-1.424H166.687a1.424,1.424,0,0,1,1.424,1.424V130.256a1.424,1.424,0,0,1-1.424,1.43ZM47.481,128.833H165.243V25.574H47.481Z" transform="translate(970.34 9598.793)" fill="#4480bf"/>
    <path id="Trazado_185778" data-name="Trazado 185778" d="M179.235,114.493H108.511a1.43,1.43,0,1,1,0-2.854h70.724a1.43,1.43,0,1,1,0,2.854Z" transform="translate(949.468 9569.043)" fill="#4480bf"/>
    <path id="Trazado_185779" data-name="Trazado 185779" d="M179.235,101.853H108.511a1.43,1.43,0,1,1,0-2.854h70.724a1.43,1.43,0,1,1,0,2.854Z" transform="translate(949.468 9573.272)" fill="#4480bf"/>
    <path id="Trazado_185780" data-name="Trazado 185780" d="M179.235,89.213H108.511a1.43,1.43,0,1,1,0-2.854h70.724a1.43,1.43,0,1,1,0,2.854Z" transform="translate(949.468 9577.503)" fill="#4480bf"/>
    <path id="Trazado_185781" data-name="Trazado 185781" d="M179.284,76.561H108.56a1.43,1.43,0,1,1,0-2.861h70.724a1.43,1.43,0,1,1,0,2.861Z" transform="translate(949.419 9581.738)" fill="#4480bf"/>
    <path id="Trazado_185782" data-name="Trazado 185782" d="M179.235,165.053H108.511a1.43,1.43,0,1,1,0-2.854h70.724a1.43,1.43,0,1,1,0,2.854Z" transform="translate(949.468 9552.121)" fill="#4480bf"/>
    <path id="Trazado_185783" data-name="Trazado 185783" d="M179.235,152.413H108.511a1.43,1.43,0,1,1,0-2.854h70.724a1.43,1.43,0,1,1,0,2.854Z" transform="translate(949.468 9556.352)" fill="#4480bf"/>
    <path id="Trazado_185784" data-name="Trazado 185784" d="M179.235,139.773H108.511a1.43,1.43,0,1,1,0-2.854h70.724a1.43,1.43,0,1,1,0,2.854Z" transform="translate(949.468 9560.582)" fill="#4480bf"/>
    <path id="Trazado_185785" data-name="Trazado 185785" d="M179.235,127.133H108.511a1.43,1.43,0,1,1,0-2.854h70.724a1.43,1.43,0,1,1,0,2.854Z" transform="translate(949.468 9564.813)" fill="#4480bf"/>
    <path id="Trazado_185786" data-name="Trazado 185786" d="M179.284,51.713H108.56a1.424,1.424,0,0,1-1.43-1.41V36.4a1.424,1.424,0,0,1,1.43-1.4h70.724a1.424,1.424,0,0,1,1.43,1.424V50.3A1.424,1.424,0,0,1,179.284,51.713Zm-69.3-2.854h67.863V37.834H109.984Z" transform="translate(949.419 9594.69)" fill="#4480bf"/>
    <path id="Trazado_185787" data-name="Trazado 185787" d="M176.618,81.864a6.2,6.2,0,0,0-6.181,6.188V85.836a6.188,6.188,0,1,0-12.375,0V83.494a6.188,6.188,0,0,0-12.368,0V50.508a6.188,6.188,0,0,0-12.375,0V100.66s-3.08-5.622-4.8-6.979c-2.495-2-7.571-2.888-7.571.512v26.766L135.228,143H179l3.806-5.708V88.058a6.2,6.2,0,0,0-6.188-6.194Z" transform="translate(944.794 9591.571)" fill="#fff"/>
    <path id="Trazado_185788" data-name="Trazado 185788" d="M182.338,84.622a6.2,6.2,0,0,0-6.181,6.188V88.594a6.188,6.188,0,0,0-12.375,0V86.252a6.188,6.188,0,0,0-12.368,0V53.265a6.188,6.188,0,1,0-12.368,0v50.119s-3.087-5.622-4.8-6.979c-2.5-2-7.578-2.888-7.578.512v26.766l14.278,22.049h43.772l3.806-5.715V90.783a6.2,6.2,0,0,0-6.188-6.161Z" transform="translate(942.88 9590.716)" fill="#6de0d4"/>
    <path id="Trazado_185789" data-name="Trazado 185789" d="M188.3,214.539H135.964a1.424,1.424,0,0,1-1.424-1.43V192.484a1.424,1.424,0,0,1,1.424-1.424H188.3a1.43,1.43,0,0,1,1.43,1.424v20.625A1.43,1.43,0,0,1,188.3,214.539Zm-50.911-2.854h49.48V193.921h-49.48Z" transform="translate(940.246 9542.461)" fill="#4480bf"/>
    <path id="Trazado_185790" data-name="Trazado 185790" d="M178.281,144.3H134.509a1.424,1.424,0,0,1-1.2-.665l-14.278-22.049a1.43,1.43,0,0,1-.226-.772V94.063a3.42,3.42,0,0,1,1.943-3.26c2.269-1.091,5.888,0,7.944,1.63a14.351,14.351,0,0,1,2.482,2.994V50.411a7.611,7.611,0,1,1,15.223,0V77.463a7.6,7.6,0,0,1,11.743,2.907A7.6,7.6,0,0,1,170.47,82.62a7.6,7.6,0,0,1,13.04,5.323v49.234a1.384,1.384,0,0,1-.24.792l-3.792,5.7a1.411,1.411,0,0,1-1.2.639Zm-43-2.854h42.235l3.14-4.717V87.956a4.757,4.757,0,1,0-9.514,0,1.43,1.43,0,0,1-2.854,0V85.74a4.757,4.757,0,0,0-9.514,0,1.43,1.43,0,1,1-2.854,0V83.4a4.764,4.764,0,0,0-9.521,0,1.43,1.43,0,1,1-2.854,0V50.411a4.757,4.757,0,1,0-9.514,0V100.53a1.43,1.43,0,0,1-2.661.665c-1.138-2.076-3.327-5.689-4.431-6.547-1.544-1.231-3.992-1.743-4.923-1.331-.14.073-.333.166-.333.665v26.34Zm46.806-4.285Z" transform="translate(945.512 9592.08)" fill="#4480bf"/>
    <path id="Trazado_185791" data-name="Trazado 185791" d="M138.822,151a1.424,1.424,0,0,1-1.424-1.43V128.8a1.43,1.43,0,1,1,2.854,0v20.771a1.43,1.43,0,0,1-1.43,1.43Z" transform="translate(939.29 9563.809)" fill="#4480bf"/>
    <path id="Trazado_185792" data-name="Trazado 185792" d="M148.739,211.3a5.209,5.209,0,1,1,5.209-5.209A5.209,5.209,0,0,1,148.739,211.3Zm0-7.565a2.355,2.355,0,1,0,2.349,2.355A2.355,2.355,0,0,0,148.739,203.734Z" transform="translate(937.237 9539.174)" fill="#4480bf"/>
    <path id="Trazado_185793" data-name="Trazado 185793" d="M36.651,264.536a26.779,26.779,0,0,1-6.294-.745,1.424,1.424,0,0,1-1.051-1.723,1.444,1.444,0,0,1,1.723-1.051,23.746,23.746,0,0,0,7.126.612,1.44,1.44,0,1,1,.186,2.874C37.8,264.5,37.23,264.536,36.651,264.536Zm7.232-1.058a1.43,1.43,0,0,1-.413-2.794,24.019,24.019,0,0,0,6.474-3.054A1.43,1.43,0,0,1,51.535,260a27.032,27.032,0,0,1-7.245,3.413,1.43,1.43,0,0,1-.406.06Zm-18.516-1.6a1.33,1.33,0,0,1-.665-.153,27.358,27.358,0,0,1-6.527-4.544,1.426,1.426,0,1,1,1.956-2.076,24.617,24.617,0,0,0,5.875,4.072,1.43,1.43,0,0,1-.665,2.708ZM55.1,256.558a1.43,1.43,0,0,1-1.025-2.415,25.694,25.694,0,0,0,4.225-5.808,1.429,1.429,0,0,1,2.528,1.331,28.443,28.443,0,0,1-4.657,6.487,1.417,1.417,0,0,1-1.071.432Zm-39.653-3.367a1.4,1.4,0,0,1-1.178-.619,28.5,28.5,0,0,1-3.566-7.146,1.43,1.43,0,0,1,2.708-.885,25.741,25.741,0,0,0,3.207,6.434,1.424,1.424,0,0,1-.366,2A1.391,1.391,0,0,1,15.447,253.192Zm46.18-8.064a1.328,1.328,0,0,1-.386-.06,1.424,1.424,0,0,1-.991-1.756,26.174,26.174,0,0,0,.978-7.132,26.653,26.653,0,0,0-.719-6.128,1.43,1.43,0,0,1,2.781-.665A29.407,29.407,0,0,1,63,244.077,1.417,1.417,0,0,1,61.628,245.128ZM10.81,240.863A1.424,1.424,0,0,1,9.4,239.6a29.129,29.129,0,0,1-.2-3.42,29.76,29.76,0,0,1,.353-4.551,1.43,1.43,0,1,1,2.821.439,26.613,26.613,0,0,0-.14,7.2,1.43,1.43,0,0,1-1.251,1.583Zm1.61-13.1a1.331,1.331,0,0,1-.506-.093,1.417,1.417,0,0,1-.852-1.836,28.476,28.476,0,0,1,3.852-7,1.426,1.426,0,1,1,2.282,1.71,25.7,25.7,0,0,0-3.46,6.3,1.424,1.424,0,0,1-1.311.918Zm47.591-2a1.43,1.43,0,0,1-1.291-.812,25.615,25.615,0,0,0-3.952-5.988,1.43,1.43,0,1,1,2.142-1.889,28.774,28.774,0,0,1,4.391,6.653,1.417,1.417,0,0,1-1.291,2.036Zm-40.052-8.822a1.43,1.43,0,0,1-.931-2.508,27.131,27.131,0,0,1,6.746-4.3,1.427,1.427,0,0,1,1.158,2.608A24.342,24.342,0,0,0,20.9,216.6a1.437,1.437,0,0,1-.938.346Zm31.669-1.331a1.4,1.4,0,0,1-.838-.273,24.078,24.078,0,0,0-6.341-3.327,1.447,1.447,0,1,1,.945-2.734A27.238,27.238,0,0,1,52.479,213a1.43,1.43,0,0,1-.832,2.595ZM31.781,211.17a1.424,1.424,0,0,1-.273-2.828,33.339,33.339,0,0,1,5.136-.492,27.23,27.23,0,0,1,2.868.146,1.43,1.43,0,0,1-.313,2.841,24.908,24.908,0,0,0-2.561-.133h0a23.777,23.777,0,0,0-4.557.439,1.332,1.332,0,0,1-.293.007Z" transform="translate(982.194 9536.841)" fill="#4480bf"/>
    <path id="Trazado_185794" data-name="Trazado 185794" d="M40.07,236.14q.938-.4,1.956-.918,1-.519,2-1.138c.665-.413,1.264-.845,1.856-1.3a12.992,12.992,0,0,0,1.6-1.457H50.8v23.16h-4.79V237.81a14.55,14.55,0,0,1-2.162,1.224c-.8.366-1.577.665-2.329.951Z" transform="translate(971.863 9528.982)" fill="#4480bf"/>
    <path id="Trazado_185795" data-name="Trazado 185795" d="M76.013,83.726a5,5,0,1,1,5-5,5,5,0,0,1-5,5Zm0-7.152a.891.891,0,1,0,0-.007Z" transform="translate(961.508 9581.731)" fill="#4480bf"/>
    <path id="Trazado_185796" data-name="Trazado 185796" d="M76.013,105.416a5,5,0,1,1,5-5A5,5,0,0,1,76.013,105.416Zm0-7.146a2.149,2.149,0,1,0,2.149,2.142,2.149,2.149,0,0,0-2.149-2.142Z" transform="translate(961.508 9574.472)" fill="#4480bf"/>
    <path id="Trazado_185797" data-name="Trazado 185797" d="M76.013,127.116a5,5,0,1,1,5-5,5,5,0,0,1-5,5Zm0-7.152a2.149,2.149,0,1,0,2.149,2.149,2.149,2.149,0,0,0-2.149-2.149Z" transform="translate(961.508 9567.21)" fill="#4480bf"/>
    <path id="Trazado_185798" data-name="Trazado 185798" d="M76.013,148.816a5,5,0,1,1,5-5,5,5,0,0,1-5,5Zm0-7.152a2.149,2.149,0,1,0,2.149,2.149A2.149,2.149,0,0,0,76.013,141.664Z" transform="translate(961.508 9559.947)" fill="#4480bf"/>
    <path id="Trazado_185799" data-name="Trazado 185799" d="M274.329,142.614H259.1a1.43,1.43,0,0,1,0-2.854h15.229a1.43,1.43,0,0,1,0,2.854Z" transform="translate(899.005 9559.629)" fill="#4480bf"/>
    <path id="Trazado_185800" data-name="Trazado 185800" d="M270.5,146.443a1.424,1.424,0,0,1-1.43-1.424V129.789a1.43,1.43,0,0,1,2.854,0v15.229A1.424,1.424,0,0,1,270.5,146.443Z" transform="translate(895.222 9563.412)" fill="#4480bf"/>
    <rect id="Rect치ngulo_38958" data-name="Rect치ngulo 38958" width="200" height="200" transform="translate(985 9606)" fill="none"/>
  </g>
</svg>
