<svg xmlns="http://www.w3.org/2000/svg" width="200" height="200" viewBox="0 0 200 200">
  <g id="Grupo_94280" data-name="Grupo 94280" transform="translate(-985 -9876)">
    <rect id="Rectángulo_38948" data-name="Rectángulo 38948" width="15.469" height="122.652" transform="translate(1137.678 9938.585) rotate(90)" fill="#fff"/>
    <path id="Trazado_185636" data-name="Trazado 185636" d="M167.063,109.643H44.41A1.424,1.424,0,0,1,43,108.219V92.744a1.424,1.424,0,0,1,1.424-1.424H167.063a1.424,1.424,0,0,1,1.43,1.424v15.475a1.424,1.424,0,0,1-1.43,1.424ZM45.841,106.789h119.8V94.148H45.841Z" transform="translate(970.609 9845.841)" fill="#4480bf"/>
    <path id="Trazado_185637" data-name="Trazado 185637" d="M167.1,105.793H44.449a1.43,1.43,0,0,1,0-2.854H167.1a1.43,1.43,0,1,1,0,2.854Z" transform="translate(970.57 9841.953)" fill="#4480bf"/>
    <path id="Trazado_185638" data-name="Trazado 185638" d="M0,0H8.649V11.676a1.118,1.118,0,0,1-1.118,1.118h-6.4A1.118,1.118,0,0,1,.013,11.676V0Z" transform="translate(1012.551 9944.473) rotate(90)" fill="#ffd54f"/>
    <path id="Trazado_185639" data-name="Trazado 185639" d="M37.968,107.947h-9.6a4.617,4.617,0,0,1-4.617-4.617v-2.262a4.617,4.617,0,0,1,4.617-4.617h9.6a1.424,1.424,0,0,1,1.43,1.424v8.649a1.424,1.424,0,0,1-1.43,1.424Zm-9.6-8.649a1.763,1.763,0,0,0-1.79,1.77v2.262a1.763,1.763,0,0,0,1.763,1.763h8.217V99.3Z" transform="translate(977.051 9844.124)" fill="#4480bf"/>
    <path id="Trazado_185640" data-name="Trazado 185640" d="M229.47,93.46l18.163,7.738-18.163,7.738Z" transform="translate(908.202 9845.125)" fill="#fff"/>
    <path id="Trazado_185641" data-name="Trazado 185641" d="M228.74,109.629a1.464,1.464,0,0,1-.785-.233,1.43,1.43,0,0,1-.665-1.191V92.73a1.424,1.424,0,0,1,2-1.331l18.163,7.731a1.452,1.452,0,0,1,0,2.661l-18.163,7.738A1.47,1.47,0,0,1,228.74,109.629Zm1.43-14.737v11.151l13.094-5.575Z" transform="translate(908.932 9845.854)" fill="#4480bf"/>
    <path id="Trazado_185642" data-name="Trazado 185642" d="M13.73,278.619a5.216,5.216,0,1,1,3.689-1.535,5.209,5.209,0,0,1-3.689,1.535Zm0-7.565a2.355,2.355,0,1,0,2.355,2.335,2.355,2.355,0,0,0-2.355-2.335Z" transform="translate(982.148 9786.643)" fill="#4480bf"/>
    <path id="Trazado_185643" data-name="Trazado 185643" d="M36.68,278.619a5.216,5.216,0,1,1,3.689-1.535A5.209,5.209,0,0,1,36.68,278.619Zm0-7.565a2.355,2.355,0,1,0,2.355,2.335A2.355,2.355,0,0,0,36.68,271.054Z" transform="translate(974.468 9786.643)" fill="#4480bf"/>
    <path id="Trazado_185644" data-name="Trazado 185644" d="M59.62,278.619a5.209,5.209,0,1,1,3.691-1.533A5.209,5.209,0,0,1,59.62,278.619Zm0-7.565a2.355,2.355,0,1,0,2.355,2.335,2.355,2.355,0,0,0-2.355-2.335Z" transform="translate(966.79 9786.643)" fill="#4480bf"/>
    <path id="Trazado_185645" data-name="Trazado 185645" d="M82.563,278.619a5.209,5.209,0,1,1,5.2-5.229A5.21,5.21,0,0,1,82.563,278.619Zm0-7.565a2.355,2.355,0,1,0,2.355,2.335,2.355,2.355,0,0,0-2.355-2.335Z" transform="translate(959.116 9786.643)" fill="#4480bf"/>
    <path id="Trazado_185646" data-name="Trazado 185646" d="M238.5,264.563H126.231a1.43,1.43,0,1,1,0-2.854H238.5a1.43,1.43,0,1,1,0,2.854Z" transform="translate(943.265 9788.817)" fill="#4480bf"/>
    <rect id="Rectángulo_38949" data-name="Rectángulo 38949" width="13.712" height="22.069" transform="translate(1084.16 10028.21)" fill="#6de0d4"/>
    <path id="Trazado_185647" data-name="Trazado 185647" d="M158.512,253.545H144.8a1.657,1.657,0,0,1-1.65-1.657V229.827a1.657,1.657,0,0,1,1.65-1.657h13.712a1.657,1.657,0,0,1,1.65,1.657v22.062A1.657,1.657,0,0,1,158.512,253.545Zm-12.062-3.327h10.412V231.457H146.45Z" transform="translate(937.091 9800.04)" fill="#4480bf"/>
    <rect id="Rectángulo_38950" data-name="Rectángulo 38950" width="13.712" height="70.378" transform="translate(1157.938 9979.901)" fill="#039be5"/>
    <path id="Trazado_185648" data-name="Trazado 185648" d="M269.4,229.231H255.69a1.657,1.657,0,0,1-1.65-1.657v-70.4a1.65,1.65,0,0,1,1.65-1.65H269.4a1.65,1.65,0,0,1,1.65,1.65v70.4a1.657,1.657,0,0,1-1.65,1.657ZM257.34,225.9h10.412V158.847H257.34Z" transform="translate(899.979 9824.354)" fill="#4480bf"/>
    <rect id="Rectángulo_38951" data-name="Rectángulo 38951" width="13.712" height="48.176" transform="translate(1108.757 10002.097)" fill="#039be5"/>
    <path id="Trazado_185649" data-name="Trazado 185649" d="M195.472,240.409H181.76a1.657,1.657,0,0,1-1.65-1.657V190.577a1.657,1.657,0,0,1,1.65-1.657h13.712a1.657,1.657,0,0,1,1.65,1.657v48.176a1.657,1.657,0,0,1-1.65,1.657Zm-12.056-3.327h10.406V192.227H183.417Z" transform="translate(924.722 9813.176)" fill="#4480bf"/>
    <rect id="Rectángulo_38952" data-name="Rectángulo 38952" width="13.712" height="39.959" transform="translate(1133.347 10010.319)" fill="#6de0d4"/>
    <path id="Trazado_185650" data-name="Trazado 185650" d="M232.432,244.546H218.727a1.663,1.663,0,0,1-1.657-1.657V202.93a1.657,1.657,0,0,1,1.657-1.65h13.706a1.657,1.657,0,0,1,1.657,1.65v39.959A1.663,1.663,0,0,1,232.432,244.546Zm-12.056-3.327h10.406V204.56H220.35Z" transform="translate(912.352 9809.04)" fill="#4480bf"/>
    <path id="Trazado_185651" data-name="Trazado 185651" d="M115.058,180.351a1.424,1.424,0,0,1-.792-2.615l108.807-72.208a1.424,1.424,0,0,1,2.216,1.184v16.493a1.43,1.43,0,1,1-2.854,0V109.375L115.87,180.112A1.39,1.39,0,0,1,115.058,180.351Z" transform="translate(946.973 9841.166)" fill="#4480bf"/>
    <path id="Trazado_185652" data-name="Trazado 185652" d="M269.776,106.584a1.617,1.617,0,0,1-.253,0l-17.545-3.127a1.426,1.426,0,1,1,.5-2.808l17.545,3.12a1.43,1.43,0,0,1-.246,2.834Z" transform="translate(901.063 9842.726)" fill="#4480bf"/>
    <path id="Trazado_185653" data-name="Trazado 185653" d="M93.662,37.958H88.339a.5.5,0,1,1,0-1h5.323a.5.5,0,0,1,0,1Z" transform="translate(955.602 9864.033)" fill="#4480bf"/>
    <path id="Trazado_185654" data-name="Trazado 185654" d="M92.339,39.281a.5.5,0,0,1-.5-.5V33.459a.5.5,0,0,1,1,0v5.323a.492.492,0,0,1-.5.5Z" transform="translate(954.263 9865.372)" fill="#4480bf"/>
    <circle id="Elipse_7655" data-name="Elipse 7655" cx="13.446" cy="13.446" r="13.446" transform="translate(1015.119 9898.679)" fill="#fff"/>
    <path id="Trazado_185655" data-name="Trazado 185655" d="M58,61.083A14.877,14.877,0,1,1,72.873,46.207,14.877,14.877,0,0,1,58,61.083Zm0-26.9A12.022,12.022,0,1,0,70.019,46.207,12.022,12.022,0,0,0,58,34.184Z" transform="translate(970.569 9865.918)" fill="#4480bf"/>
    <path id="Trazado_185656" data-name="Trazado 185656" d="M68.579,54.394H53.329a1.43,1.43,0,0,1,0-2.854H68.579a1.43,1.43,0,0,1,0,2.854Z" transform="translate(967.598 9859.154)" fill="#4480bf"/>
    <path id="Trazado_185657" data-name="Trazado 185657" d="M64.752,58.134a1.424,1.424,0,0,1-1.424-1.43V41.481a1.43,1.43,0,1,1,2.854,0V56.7a1.43,1.43,0,0,1-1.43,1.43Z" transform="translate(963.807 9863.032)" fill="#4480bf"/>
    <rect id="Rectángulo_38953" data-name="Rectángulo 38953" width="200" height="200" transform="translate(985 9876)" fill="none"/>
  </g>
</svg>
