<svg xmlns="http://www.w3.org/2000/svg" width="198.913" height="200" viewBox="0 0 198.913 200">
  <g id="Grupo_94281" data-name="Grupo 94281" transform="translate(-985 -10142)">
    <path id="Trazado_185658" data-name="Trazado 185658" d="M182.65,223.176a30.089,30.089,0,1,1,0,.007Zm8.829,0a21.25,21.25,0,1,1,6.236,15.045,21.29,21.29,0,0,1-6.236-15.045Z" transform="translate(923.6 10077.781)" fill="#fff"/>
    <g id="Grupo_92644" data-name="Grupo 92644" transform="translate(1098.891 10300.917)">
      <path id="Trazado_185659" data-name="Trazado 185659" d="M184.166,253.08l-.16-.279c-.093-.166-.233-.386-.346-.619l-.472-.925h-1.171c-.7,0-1.657,0-2.621-.073-1.9-.113-3.859-.412-3.859-.412s-.126-.386-.319-.951-.419-1.331-.665-2.116-.379-1.564-.512-2.156-.18-.985-.18-.985.386-.313.958-.752,1.384-1,2.176-1.53c.4-.266.8-.519,1.178-.752s.745-.446,1.051-.619c.619-.353,1.038-.572,1.038-.572s-.053-.512-.06-1.031V238.27Z" transform="translate(-172.35 -238.257)" fill="#fff"/>
      <path id="Trazado_185660" data-name="Trazado 185660" d="M182.169,253.785l-.16-.273c-.18-.319-.293-.519-.393-.719l-.047-.093h-.393c-.712,0-1.65,0-2.608-.073-1.943-.113-3.905-.419-3.992-.432l-.858-.126-.6-1.77c-.193-.526-.4-1.264-.612-2l-.053-.186c-.166-.605-.306-1.218-.419-1.736l-.446-2.355.665-.532s.393-.319.985-.772,1.43-1.045,2.255-1.59c.406-.273.825-.539,1.211-.778s.778-.459,1.1-.665l.259-.146V238.33l2.854-.08v1.038c0,.472.047.9.047.925l.1.958-.852.446-1,.552-1.018.6c-.353.22-.739.466-1.118.719-.778.512-1.55,1.058-2.109,1.484l-.266.206.126.559c.106.486.233,1.051.386,1.61.233.845.419,1.51.6,2l.053.146c.725.093,1.816.22,2.868.279.938.06,1.883.073,2.535.073h1.111l.918-.04.892,1.736c.08.166.16.293.22.406l.253.439Z" transform="translate(-171.59 -238.25)" fill="#4480bf"/>
    </g>
    <g id="Grupo_92645" data-name="Grupo 92645" transform="translate(1106.769 10315.021)">
      <path id="Trazado_185661" data-name="Trazado 185661" d="M199.02,271.385l-.279-.16c-.173-.093-.393-.233-.612-.373l-.872-.559s-.393.246-1,.6-1.45.818-2.315,1.277-1.736.818-2.408,1.111-1.131.452-1.131.452-1.231-1.031-2.375-2.162-2.162-2.369-2.162-2.369.166-.452.459-1.131.665-1.564,1.1-2.415.892-1.7,1.244-2.309.6-1,.6-1l-.559-.872c-.14-.22-.273-.439-.366-.605l-.166-.286Z" transform="translate(-184.243 -259.828)" fill="#fff"/>
      <path id="Trazado_185662" data-name="Trazado 185662" d="M189.3,274.952l-.632-.532c-.053-.047-1.291-1.091-2.462-2.249s-2.209-2.409-2.249-2.462l-.532-.665.286-.778s.173-.479.479-1.2.705-1.6,1.144-2.482.925-1.756,1.284-2.388l.16-.266-.08-.133c-.153-.226-.313-.486-.419-.665l-.146-.246,2.468-1.437.166.286a5.845,5.845,0,0,0,.319.526l1.058,1.65-.479.765s-.24.386-.572.971-.792,1.4-1.2,2.222-.792,1.683-1.071,2.335c-.04.107-.086.206-.12.3.386.446.951,1.058,1.524,1.643s1.2,1.131,1.643,1.524l.286-.126c.665-.279,1.517-.665,2.342-1.071s1.637-.858,2.222-1.2.958-.565.965-.572l.772-.479,1.63,1.045c.2.133.379.246.519.319l.306.173-1.41,2.482-.286-.16a6.838,6.838,0,0,1-.665-.419l-.106-.073-.273.16c-.625.359-1.5.845-2.389,1.291s-1.79.838-2.482,1.138-1.2.479-1.2.479Z" transform="translate(-183.43 -259.45)" fill="#4480bf"/>
    </g>
    <g id="Grupo_92646" data-name="Grupo 92646" transform="translate(1120.827 10325.348)">
      <path id="Trazado_185663" data-name="Trazado 185663" d="M220.42,280.785h-1.038c-.519,0-1.038-.053-1.038-.053s-.22.412-.572,1.031c-.173.306-.386.665-.619,1.051s-.486.778-.752,1.178c-.526.792-1.091,1.6-1.53,2.176s-.752.958-.752.958l-.985-.18c-.586-.133-1.377-.3-2.149-.512a20.184,20.184,0,0,1-2.116-.665l-.951-.319s-.306-1.956-.419-3.852c-.053-.971-.073-1.923-.067-2.621s0-1.178,0-1.178l-.925-.472c-.233-.113-.452-.253-.619-.346l-.279-.16Z" transform="translate(-204.911 -275.589)" fill="#fff"/>
      <path id="Trazado_185664" data-name="Trazado 185664" d="M214.347,288.03l-2.3-.432c-.539-.12-1.171-.259-1.8-.432-.878-.246-1.657-.466-2.229-.665l-1.736-.592-.133-.852c0-.086-.313-2.049-.432-3.992-.053-1-.073-2-.073-2.708v-.306l-.12-.067c-.166-.08-.366-.193-.532-.293l-.439-.253L206,274.97l.446.259c.106.06.226.133.353.193l1.776.911-.047.918v1.1c0,.645,0,1.61.073,2.548.06,1.051.186,2.136.279,2.861l.113.04c.552.2,1.257.393,1.963.592s1.244.313,1.743.419l.506.113.2-.266c.426-.559.971-1.331,1.484-2.1.253-.386.5-.772.719-1.138s.432-.719.6-1.018c.333-.579.539-.978.546-.985l.452-.858.958.1s.459.047.892.047h1.071l-.073,2.854h-1.224l-.146.259c-.186.319-.4.665-.665,1.091s-.5.805-.778,1.218c-.546.825-1.131,1.657-1.59,2.255s-.772.991-.772.991Z" transform="translate(-204.56 -274.97)" fill="#4480bf"/>
    </g>
    <g id="Grupo_92647" data-name="Grupo 92647" transform="translate(1136.276 10325.368)">
      <path id="Trazado_185665" data-name="Trazado 185665" d="M242.643,276.82l-.279.16c-.166.093-.386.233-.619.346l-.925.472v1.178c0,.705,0,1.65-.067,2.621-.113,1.9-.419,3.852-.419,3.852l-.951.319c-.566.206-1.331.426-2.116.665s-1.557.379-2.149.512l-.985.18s-.313-.379-.752-.958-1-1.384-1.53-2.176c-.266-.4-.519-.8-.752-1.178s-.446-.745-.619-1.051c-.353-.619-.572-1.031-.572-1.031s-.512.053-1.038.053H227.84Z" transform="translate(-227.8 -275.609)" fill="#fff"/>
      <path id="Trazado_185666" data-name="Trazado 185666" d="M233.555,288.04l-.532-.665s-.319-.393-.772-.991-1.045-1.43-1.59-2.249c-.273-.419-.539-.832-.778-1.218s-.466-.778-.665-1.1l-.146-.253h-1.218l-.073-2.854h1.038c.466,0,.9-.047.925-.047l.958-.1.452.858s.213.406.546.985c.173.306.373.665.6,1.025s.466.745.725,1.131c.506.765,1.051,1.544,1.477,2.1l.2.266.519-.113c.492-.106,1.078-.24,1.657-.4.8-.22,1.49-.413,2-.6l.146-.053c.093-.725.22-1.816.279-2.868.06-.931.073-1.85.073-2.528v-1.124l-.04-.911,1.73-.892c.166-.08.293-.153.393-.213l.446-.22,1.437,2.468-.286.166c-.319.186-.519.3-.719.4l-.086.04v.313c0,.725,0,1.71-.073,2.708-.12,1.943-.419,3.905-.432,3.992l-.126.858-1.776.592c-.539.2-1.331.419-2.076.632s-1.377.346-1.909.466Z" transform="translate(-227.78 -275)" fill="#4480bf"/>
    </g>
    <g id="Grupo_92648" data-name="Grupo 92648" transform="translate(1150.454 10315.028)">
      <path id="Trazado_185667" data-name="Trazado 185667" d="M260.928,260.53l-.166.286c-.087.166-.226.386-.366.605l-.559.872s.246.393.6,1,.818,1.45,1.244,2.309.818,1.736,1.1,2.415.459,1.131.459,1.131-1.031,1.231-2.162,2.369-2.369,2.162-2.369,2.162-.452-.166-1.131-.452-1.564-.665-2.415-1.111-1.7-.892-2.309-1.244-1-.6-1-.6l-.872.559c-.22.14-.439.279-.605.373l-.286.16Z" transform="translate(-249.425 -259.818)" fill="#fff"/>
      <path id="Trazado_185668" data-name="Trazado 185668" d="M258.657,274.955l-.778-.286s-.479-.18-1.2-.486-1.6-.705-2.482-1.138-1.763-.931-2.4-1.291l-.266-.16-.126.087c-.233.153-.492.313-.665.419l-.266.153-1.391-2.495.259-.146a5.708,5.708,0,0,0,.532-.326l1.65-1.058.772.479s.386.24.958.572,1.4.792,2.229,1.2,1.683.792,2.342,1.071l.293.126c.446-.393,1.058-.951,1.643-1.53s1.131-1.191,1.517-1.637c-.033-.093-.073-.186-.12-.293-.279-.665-.665-1.517-1.071-2.342s-.858-1.637-1.2-2.222-.572-.958-.572-.971l-.479-.765,1.045-1.63a5.1,5.1,0,0,0,.313-.512l.186-.319,2.468,1.437-.153.266a6.835,6.835,0,0,1-.419.665l-.073.106.153.259c.366.632.852,1.5,1.3,2.389s.845,1.8,1.138,2.495.479,1.191.479,1.191l.293.778-.532.665c-.047.053-1.091,1.291-2.249,2.455s-2.415,2.209-2.462,2.255Z" transform="translate(-249.09 -259.46)" fill="#4480bf"/>
    </g>
    <g id="Grupo_92649" data-name="Grupo 92649" transform="translate(1160.72 10300.897)">
      <path id="Trazado_185669" data-name="Trazado 185669" d="M270.345,238.31v1.038c0,.519-.053,1.031-.053,1.031s.413.22,1.031.572c.306.173.665.386,1.051.619s.778.486,1.178.752c.792.526,1.6,1.091,2.176,1.53s.958.752.958.752-.073.393-.18.985-.3,1.377-.512,2.156a20.19,20.19,0,0,1-.665,2.116,6.843,6.843,0,0,0-.319.951s-2,.3-3.859.413c-.965.053-1.916.073-2.621.073h-1.171l-.472.925c-.113.233-.253.452-.346.619l-.16.279Z" transform="translate(-265.142 -238.25)" fill="#fff"/>
      <path id="Trazado_185670" data-name="Trazado 185670" d="M266.995,253.775l-2.475-1.417.16-.286c.153-.266.233-.393.293-.526l.911-1.77.918.04H268c.732,0,1.557,0,2.448-.073,1.058-.06,2.142-.186,2.868-.279l.04-.113c.2-.546.393-1.238.585-1.936s.306-1.2.413-1.69l.126-.579-.266-.206c-.559-.426-1.331-.971-2.1-1.477-.386-.259-.772-.506-1.131-.725s-.719-.426-1.018-.6c-.585-.333-.978-.546-.991-.546l-.852-.452.1-.958s.047-.452.047-.885V238.22l2.854.08v1.211l.26.146,1.084.665c.4.246.818.512,1.231.785.818.546,1.65,1.131,2.249,1.59s.991.772.991.772l.665.532-.446,2.375c-.12.519-.253,1.124-.419,1.717-.246.892-.466,1.657-.665,2.229l-.585,1.723-.858.126c-.08,0-2.043.319-3.992.432-1,.06-2,.08-2.708.073h-.313l-.06.126c-.087.166-.2.366-.293.532Z" transform="translate(-264.52 -238.22)" fill="#4480bf"/>
    </g>
    <g id="Grupo_92650" data-name="Grupo 92650" transform="translate(1160.747 10285.441)">
      <path id="Trazado_185671" data-name="Trazado 185671" d="M266.38,216.08s.06.113.16.279a7.11,7.11,0,0,1,.346.625l.472.918h1.171c.7,0,1.657,0,2.621.073,1.9.106,3.859.412,3.859.412l.319.951c.206.566.426,1.331.665,2.116s.379,1.564.512,2.149l.18.991-.985.745c-.579.439-1.384,1-2.176,1.537-.4.259-.8.519-1.178.752s-.745.439-1.051.619c-.619.353-1.031.566-1.031.566s.053.519.053,1.038v1.038Z" transform="translate(-265.169 -215.355)" fill="#fff"/>
      <path id="Trazado_185672" data-name="Trazado 185672" d="M268.306,230.545V229.5c0-.466-.047-.9-.047-.925l-.1-.951.852-.452,1-.552c.293-.166.665-.373,1.018-.6l1.124-.719c.765-.512,1.544-1.058,2.1-1.477.093-.073.18-.146.266-.206l-.126-.586c-.106-.479-.233-1.038-.386-1.583-.22-.8-.412-1.49-.6-2l-.053-.146c-.725-.093-1.81-.22-2.868-.279-.931-.053-1.876-.067-2.535-.073s-1.1,0-1.111,0l-.918.047-.892-1.743c-.08-.166-.16-.293-.22-.4l-.253-.432,2.468-1.437.166.286c.18.319.293.512.393.719l.047.086h.412c.719,0,1.657,0,2.608.073,1.943.12,3.905.419,3.992.432l.858.133.6,1.77c.2.539.419,1.331.632,2.082s.333,1.331.452,1.836l.446,2.369-.665.532s-.393.319-.991.778-1.43,1.038-2.255,1.583c-.413.279-.825.539-1.211.778s-.778.466-1.1.665l-.259.146v1.218Z" transform="translate(-264.56 -214.99)" fill="#4480bf"/>
    </g>
    <g id="Grupo_92651" data-name="Grupo 92651" transform="translate(1150.427 10271.39)">
      <path id="Trazado_185673" data-name="Trazado 185673" d="M250.09,198.632l.286.16c.166.093.386.226.605.373l.872.559s.393-.246,1-.605,1.45-.818,2.309-1.244,1.736-.818,2.415-1.1,1.131-.459,1.131-.459,1.224,1.031,2.369,2.162,2.162,2.375,2.162,2.375-.166.452-.459,1.131-.665,1.557-1.1,2.408-.892,1.7-1.244,2.309-.6,1-.6,1l.559.872c.14.22.279.439.366.612l.166.279Z" transform="translate(-249.398 -194.687)" fill="#fff"/>
      <path id="Trazado_185674" data-name="Trazado 185674" d="M259.343,209.359l-.16-.279c-.1-.18-.213-.359-.326-.532L257.8,206.9l.479-.765s.24-.386.572-.965.792-1.4,1.2-2.229.792-1.677,1.071-2.335c.04-.106.087-.2.12-.293-.386-.446-.951-1.065-1.524-1.643s-1.2-1.131-1.637-1.524l-.293.12c-.665.279-1.517.665-2.342,1.071s-1.637.865-2.222,1.2-.958.572-.971.579l-.765.479-1.63-1.051c-.193-.133-.379-.24-.519-.319l-.293-.166,1.391-2.495.3.173c.166.093.426.253.665.419l.1.067.266-.153c.665-.366,1.5-.852,2.4-1.291s1.79-.845,2.482-1.144,1.2-.479,1.2-.479l.778-.286.665.532c.047.047,1.284,1.085,2.455,2.242s2.209,2.415,2.255,2.468l.532.632-.293.778s-.173.479-.479,1.2-.705,1.6-1.138,2.482-.931,1.763-1.291,2.4c-.06.093-.113.18-.16.266l.08.126c.16.24.319.5.432.705l.14.24Z" transform="translate(-249.05 -193.87)" fill="#4480bf"/>
    </g>
    <g id="Grupo_92652" data-name="Grupo 92652" transform="translate(1136.269 10263.492)">
      <path id="Trazado_185675" data-name="Trazado 185675" d="M227.87,190.651H228.9c.526,0,1.038.053,1.038.053s.22-.413.572-1.031c.173-.313.386-.665.619-1.058s.486-.778.752-1.178c.526-.792,1.091-1.6,1.53-2.176s.752-.951.752-.951l.985.173c.592.14,1.377.3,2.149.512a20.2,20.2,0,0,1,2.116.665l.951.326s.306,1.956.419,3.852c.053.965.073,1.916.067,2.621s0,1.178,0,1.178l.925.466c.233.113.452.253.619.346l.279.166Z" transform="translate(-227.803 -182.773)" fill="#fff"/>
      <path id="Trazado_185676" data-name="Trazado 185676" d="M241.895,195.074l-.439-.253c-.106-.067-.233-.14-.366-.206l-1.763-.9.04-.918v-1.111c0-.652,0-1.61-.073-2.542-.06-1.058-.186-2.142-.279-2.868l-.113-.04c-.546-.193-1.238-.393-1.936-.585s-1.264-.313-1.756-.426l-.519-.113c-.06.086-.133.173-.206.273-.419.552-.965,1.331-1.477,2.1-.253.386-.5.772-.725,1.138s-.419.712-.592,1c-.333.592-.539.985-.546,1l-.452.852-.958-.1s-.459-.047-.892-.047H227.77l.073-2.854h1.218c.047-.08.1-.166.146-.259.18-.313.4-.665.665-1.091s.506-.805.778-1.218c.546-.825,1.131-1.657,1.583-2.249s.778-.991.778-.991l.532-.665,2.3.432c.532.12,1.164.259,1.79.432.892.253,1.657.466,2.229.665l1.743.592.126.858c0,.08.313,2.049.432,3.992.06,1,.073,2,.073,2.715v.293l.126.067c.166.08.359.193.526.286l.439.253Z" transform="translate(-227.77 -182)" fill="#4480bf"/>
    </g>
    <g id="Grupo_92653" data-name="Grupo 92653" transform="translate(1120.827 10263.473)">
      <path id="Trazado_185677" data-name="Trazado 185677" d="M205.64,194.616l.279-.166c.166-.093.386-.233.619-.346l.925-.466V192.46c0-.7,0-1.657.067-2.621.113-1.9.419-3.852.419-3.852l.951-.326c.566-.206,1.331-.419,2.116-.665s1.564-.373,2.149-.512l.985-.173s.313.379.752.951,1,1.384,1.53,2.176c.266.4.519.8.752,1.178s.446.745.619,1.058c.353.619.572,1.031.572,1.031s.519-.053,1.038-.053h1.038Z" transform="translate(-204.921 -182.753)" fill="#fff"/>
      <path id="Trazado_185678" data-name="Trazado 185678" d="M206,195.064,204.56,192.6l.286-.166c.319-.18.512-.293.712-.393l.093-.047v-.313c0-.725,0-1.7.073-2.7.12-1.949.419-3.912.432-3.992l.133-.858,1.77-.6c.539-.2,1.331-.419,2.1-.665a17.23,17.23,0,0,1,1.89-.459l2.3-.432.532.665s.319.4.778,1,1.038,1.424,1.583,2.249c.279.413.539.825.778,1.218s.459.772.665,1.091l.146.259h1.218l.073,2.854h-1.038c-.466,0-.9.047-.925.047l-.958.1-.452-.852s-.213-.406-.546-1c-.166-.293-.373-.665-.6-1.018s-.466-.738-.725-1.131c-.506-.758-1.051-1.537-1.47-2.089l-.206-.266-.506.106c-.5.113-1.084.24-1.663.4-.785.22-1.49.412-2,.605l-.146.047c-.093.725-.22,1.816-.279,2.874-.053.925-.073,1.85-.073,2.528v1.111l.047.918-1.737.945a4.048,4.048,0,0,0-.393.213Z" transform="translate(-204.56 -181.97)" fill="#4480bf"/>
    </g>
    <g id="Grupo_92654" data-name="Grupo 92654" transform="translate(1106.769 10271.403)">
      <path id="Trazado_185679" data-name="Trazado 185679" d="M188.185,209.463l.166-.279c.093-.173.226-.393.366-.612l.559-.872s-.24-.393-.6-1-.818-1.45-1.244-2.309-.818-1.736-1.1-2.408-.459-1.131-.459-1.131,1.031-1.231,2.162-2.375,2.375-2.162,2.375-2.162.452.166,1.131.459,1.557.665,2.408,1.1,1.7.892,2.309,1.244,1,.605,1,.605l.872-.559c.22-.146.439-.279.612-.373l.279-.16Z" transform="translate(-184.247 -194.7)" fill="#fff"/>
      <path id="Trazado_185680" data-name="Trazado 185680" d="M188.606,209.365l-2.475-1.43.166-.279a6.825,6.825,0,0,1,.419-.665l.067-.106-.153-.266c-.366-.632-.852-1.5-1.291-2.389s-.845-1.8-1.144-2.495-.479-1.191-.479-1.191l-.286-.778.532-.632c.04-.053,1.084-1.291,2.242-2.462s2.415-2.209,2.468-2.249l.632-.532.778.286s.479.173,1.2.486,1.6.7,2.482,1.138,1.763.925,2.4,1.291l.266.153.126-.08c.233-.153.492-.313.665-.426l.259-.146,1.41,2.482-.279.16c-.166.093-.346.2-.526.319l-1.63,1.065-.765-.479s-.386-.24-.971-.579-1.4-.792-2.222-1.2-1.683-.792-2.342-1.071l-.286-.12c-.446.393-1.065.951-1.65,1.53s-1.131,1.191-1.517,1.637c.033.086.08.186.12.293.279.665.665,1.51,1.071,2.335s.865,1.643,1.2,2.229.572.958.572.965l.479.765-1.011,1.617c-.133.2-.24.379-.319.519Z" transform="translate(-183.43 -193.89)" fill="#4480bf"/>
    </g>
    <g id="Grupo_92655" data-name="Grupo 92655" transform="translate(1098.845 10285.422)">
      <path id="Trazado_185681" data-name="Trazado 185681" d="M180.2,230.86v-1.038a10.378,10.378,0,0,1,.06-1.038s-.419-.213-1.038-.566l-1.051-.619c-.379-.233-.778-.492-1.178-.752-.792-.532-1.6-1.1-2.176-1.537l-.958-.745.18-.991c.133-.585.3-1.377.512-2.149a20.2,20.2,0,0,1,.665-2.116l.319-.951s2-.306,3.859-.413c.965-.06,1.916-.08,2.621-.073s1.171,0,1.171,0l.472-.918c.113-.24.253-.459.346-.625l.16-.279Z" transform="translate(-172.303 -215.325)" fill="#fff"/>
      <path id="Trazado_185682" data-name="Trazado 185682" d="M180.848,230.535l-2.854-.08v-1.218l-.253-.146c-.326-.18-.665-.4-1.091-.665s-.818-.506-1.224-.785c-.825-.546-1.657-1.131-2.255-1.583s-.985-.778-.985-.778l-.665-.526.446-2.355c.113-.526.253-1.138.419-1.743l.053-.186c.213-.752.419-1.49.619-2.043l.592-1.736.858-.133c.08,0,2.043-.313,3.992-.432,1-.053,1.963-.067,2.708-.073h.313l.06-.12c.086-.173.2-.366.293-.539l.253-.432,2.468,1.437-.16.273c-.153.266-.233.393-.293.526l-.885,1.783-.918-.047h-1.2c-.665,0-1.557,0-2.448.073-1.051.06-2.142.186-2.868.279l-.04.12c-.193.526-.379,1.191-.566,1.863s-.326,1.3-.432,1.783l-.126.559c.086.06.173.133.266.206.559.419,1.331.965,2.1,1.477.386.253.772.5,1.138.725s.705.419,1.011.592c.585.339.985.546.991.552l.852.452-.1.951s-.047.459-.047.892Z" transform="translate(-171.52 -214.96)" fill="#4480bf"/>
    </g>
    <path id="Trazado_185683" data-name="Trazado 185683" d="M216.156,249.863a23.286,23.286,0,1,1,23.286-23.286,23.286,23.286,0,0,1-23.286,23.286Zm0-43.7a20.425,20.425,0,1,0,20.419,20.423,20.425,20.425,0,0,0-20.419-20.423Z" transform="translate(920.179 10074.367)" fill="#4480bf"/>
    <path id="Trazado_185684" data-name="Trazado 185684" d="M221.744,246.5a1.424,1.424,0,0,1-.213-2.834A14.051,14.051,0,0,0,227.826,241a1.424,1.424,0,0,1,1.723,2.269,16.806,16.806,0,0,1-7.585,3.213A1.221,1.221,0,0,1,221.744,246.5Zm-5.669-.173a1.6,1.6,0,0,1-.306-.033,16.953,16.953,0,0,1-7.372-3.673,1.418,1.418,0,0,1,1.843-2.156,14.019,14.019,0,0,0,6.114,3.054,1.424,1.424,0,0,1-.3,2.821Zm16.433-6.953a1.4,1.4,0,0,1-.752-.213,1.424,1.424,0,0,1-.459-2,14.018,14.018,0,0,0,2.069-6.507,1.457,1.457,0,0,1,1.517-1.331,1.437,1.437,0,0,1,1.331,1.517,16.933,16.933,0,0,1-2.5,7.844,1.417,1.417,0,0,1-1.2.685Zm-26.739-.825a1.43,1.43,0,0,1-1.257-.752,16.986,16.986,0,0,1-1.5-12.116,1.43,1.43,0,1,1,2.768.7,14.112,14.112,0,0,0,1.244,10.06,1.43,1.43,0,0,1-.579,1.936,1.49,1.49,0,0,1-.679.173Zm28.336-11.976a1.43,1.43,0,0,1-1.364-1,14.1,14.1,0,0,0-3.6-5.815,1.43,1.43,0,1,1,2-2.049,16.859,16.859,0,0,1,4.3,6.993,1.424,1.424,0,0,1-.931,1.79,1.363,1.363,0,0,1-.4.073Zm-27.332-4.285a1.43,1.43,0,0,1-1.158-2.255,16.919,16.919,0,0,1,6.247-5.323,1.43,1.43,0,1,1,1.271,2.561,14.079,14.079,0,0,0-5.2,4.444,1.411,1.411,0,0,1-1.164.572ZM225.4,217a1.41,1.41,0,0,1-.559-.12,14.078,14.078,0,0,0-6.76-1.045,1.45,1.45,0,0,1-1.55-1.291,1.43,1.43,0,0,1,1.291-1.557,17.066,17.066,0,0,1,8.137,1.264,1.43,1.43,0,0,1,.752,1.876,1.41,1.41,0,0,1-1.3.892Z" transform="translate(916.953 10071.146)" fill="#4480bf"/>
    <circle id="Elipse_7656" data-name="Elipse 7656" cx="39.46" cy="39.46" r="39.46" transform="translate(1007.194 10239.837) rotate(-45)" fill="#6de0d4"/>
    <g id="Grupo_92658" data-name="Grupo 92658" transform="translate(1016.578 10193.441)">
      <path id="Trazado_185685" data-name="Trazado 185685" d="M89.219,197.665l-.326-.12c-.193-.073-.452-.166-.705-.286l-1.018-.439-.925.738c-.552.446-1.331,1.025-2.1,1.6s-1.6,1.131-2.209,1.517l-1.031.665-.9-.452c-.532-.306-1.218-.752-1.916-1.184s-1.331-.931-1.856-1.277c-.253-.173-.459-.326-.6-.439l-.22-.173.18-1.211c.12-.732.279-1.677.486-2.628.406-1.909.931-3.719.931-3.719s-.106-.086-.259-.233l-.552-.526-.805-.765Z" transform="translate(-57.084 -114.201)" fill="#6de0d4"/>
      <path id="Trazado_185686" data-name="Trazado 185686" d="M112.444,204.688a2.7,2.7,0,0,1-.346,0h-1.53a3.424,3.424,0,0,1-.346,0s-.818,1.7-1.8,3.386-2.076,3.327-2.076,3.327a6.929,6.929,0,0,1-1.018-.1l-1.045-.126c-.379-.04-.785-.1-1.191-.173-.805-.14-1.617-.259-2.216-.406l-1-.22-.333-1.171c-.193-.712-.426-1.67-.625-2.608s-.379-1.876-.492-2.595-.173-1.184-.173-1.184l-1.058-.346-1.031-.393Z" transform="translate(-64.035 -118.669)" fill="#6de0d4"/>
      <path id="Trazado_185687" data-name="Trazado 185687" d="M136.538,199.63l-.991.492q-.324.176-.665.319l-.319.14s0,.479-.053,1.191-.1,1.69-.206,2.661-.24,1.923-.353,2.661-.206,1.211-.206,1.211l-.978.313-1,.319-1.158.313c-.792.226-1.59.4-2.2.532l-1,.213s-1.284-1.524-2.408-3.074c-.572-.772-1.111-1.59-1.5-2.182l-.665-1s-.552.073-1.1.1l-1.1.08Z" transform="translate(-72.221 -117.849)" fill="#6de0d4"/>
      <path id="Trazado_185688" data-name="Trazado 185688" d="M157.358,184s-.086.113-.22.266l-.5.579c-.18.213-.359.426-.5.579s-.226.266-.226.266.705,1.743,1.331,3.6c.306.931.559,1.85.752,2.562s.306,1.184.306,1.184l-.206.2c-.133.12-.306.306-.546.5-.466.4-1.078.938-1.71,1.464l-1.783,1.377-.838.585-1.1-.539c-.665-.326-1.51-.778-2.355-1.277s-1.657-.985-2.255-1.371-.991-.665-.991-.665l-.971.546c-.472.279-.978.512-.978.512Z" transform="translate(-80.233 -112.618)" fill="#6de0d4"/>
      <path id="Trazado_185689" data-name="Trazado 185689" d="M171.245,162l-.293,1.071c-.173.526-.339,1.058-.339,1.058s1.4,1.331,2.661,2.748c.665.719,1.284,1.47,1.75,2.043l.752.958s-.166.373-.406.938-.619,1.3-.978,2.036-.785,1.437-1.071,2a7.2,7.2,0,0,1-.519.878s-2-.06-3.885-.259-3.806-.546-3.806-.546l-.2.286-.466.605-.665.872Z" transform="translate(-86.662 -105.255)" fill="#6de0d4"/>
      <path id="Trazado_185690" data-name="Trazado 185690" d="M175.872,137.26s.1.546.16,1.1l.133,1.1s.452.16,1.111.419,1.55.625,2.442,1.018,1.756.818,2.408,1.151l1.091.572v1.025c0,.619,0,1.43-.067,2.249s-.106,1.637-.173,2.249-.12,1.011-.12,1.011-1.8.758-3.659,1.331c-.925.3-1.836.572-2.522.758l-1.164.3-.24,1.084c-.047.273-.133.539-.186.739l-.086.333Z" transform="translate(-90.417 -96.975)" fill="#6de0d4"/>
      <path id="Trazado_185691" data-name="Trazado 185691" d="M167.45,114.15s.3.466.592.938.566.951.566.951l1.184-.073c.712,0,1.69-.073,2.661-.067,1.916,0,3.9.146,3.9.146l.12.253c.067.166.173.4.293.665.246.566.585,1.331.858,2.082.146.386.293.765.426,1.124s.233.705.333,1l.313.978-.233.24c-.146.153-.359.373-.625.665-.526.526-1.231,1.2-1.949,1.843s-1.444,1.264-2,1.723l-.951.739.073.339c.04.2.106.472.146.745l.186,1.1Z" transform="translate(-87.891 -89.241)" fill="#6de0d4"/>
      <path id="Trazado_185692" data-name="Trazado 185692" d="M149.94,95.71s.12.067.293.186l.619.439.911.665s1.663-.885,3.446-1.677c.892-.406,1.783-.752,2.468-1.018l1.151-.426.772.665,1.63,1.55,1.55,1.63c.413.459.665.772.665.772s-.166.459-.426,1.151-.612,1.577-1.018,2.475c-.785,1.783-1.67,3.44-1.67,3.44l.665.911c.16.226.319.452.432.625s.186.293.186.293Z" transform="translate(-82.03 -82.457)" fill="#6de0d4"/>
      <path id="Trazado_185693" data-name="Trazado 185693" d="M126.83,85.1l1.091.186c.273.04.546.106.752.153l.333.073.745-.925c.452-.566,1.071-1.331,1.717-2s1.331-1.424,1.843-1.949l.665-.625.246-.233.971.319c.293.093.665.193,1,.326l1.124.426c.772.279,1.524.612,2.089.858l.665.3a2.713,2.713,0,0,1,.253.113s.146,2,.153,3.905c0,.958-.04,1.936-.073,2.661s-.073,1.191-.073,1.191.492.259.951.566l.945.585Z" transform="translate(-74.296 -77.738)" fill="#6de0d4"/>
      <path id="Trazado_185694" data-name="Trazado 185694" d="M102.09,84.934l.339-.093c.2-.053.466-.133.739-.186l1.084-.24s.113-.466.293-1.158.459-1.6.758-2.528c.592-1.856,1.331-3.659,1.331-3.659l1.018-.12c.612-.067,1.43-.113,2.242-.173s1.637-.047,2.255-.06,1.018,0,1.018,0,.233.432.572,1.084.758,1.517,1.151,2.415.758,1.776,1.018,2.435.419,1.118.419,1.118l1.1.133c.552.053,1.1.153,1.1.153Z" transform="translate(-66.016 -76.711)" fill="#6de0d4"/>
      <path id="Trazado_185695" data-name="Trazado 185695" d="M80,94.256l.878-.665.6-.466.286-.2s-.339-1.856-.546-3.8-.259-3.892-.259-3.892.346-.22.885-.512,1.238-.725,2-1.078,1.457-.745,2-.971l.945-.412.958.758c.566.459,1.331,1.1,2.036,1.743,1.437,1.277,2.754,2.661,2.754,2.661l1.051-.346,1.071-.286Z" transform="translate(-58.623 -78.568)" fill="#6de0d4"/>
      <path id="Trazado_185696" data-name="Trazado 185696" d="M63.051,112.632s.24-.5.519-.978l.539-.971s-.279-.393-.665-.991-.878-1.41-1.357-2.255-.945-1.7-1.271-2.355l-.546-1.1.585-.838,1.384-1.783c.519-.625,1.058-1.244,1.457-1.71.2-.24.386-.412.506-.546L64.4,98.9l1.191.306c.712.193,1.623.446,2.555.758,1.863.6,3.606,1.331,3.606,1.331s.1-.1.259-.233l.579-.492.579-.5c.153-.14.266-.226.266-.226Z" transform="translate(-52.02 -84.137)" fill="#6de0d4"/>
      <path id="Trazado_185697" data-name="Trazado 185697" d="M54.991,135.455l.08-1.111a7.119,7.119,0,0,1,.1-1.1l-1-.665c-.592-.386-1.41-.931-2.182-1.5-1.55-1.131-3.074-2.415-3.074-2.415l.22-1c.126-.6.3-1.4.526-2.189l.313-1.164c.12-.366.226-.705.319-1l.319-.978s.472-.093,1.211-.2,1.7-.253,2.661-.353,1.916-.173,2.661-.213l1.191-.053s.06-.126.14-.319a5.951,5.951,0,0,1,.319-.665l.492-.991Z" transform="translate(-48.218 -91.045)" fill="#6de0d4"/>
      <path id="Trazado_185698" data-name="Trazado 185698" d="M57.218,159.734s-.193-.519-.393-1.038-.339-1.058-.339-1.058l-1.211-.173c-.725-.106-1.65-.286-2.595-.492s-1.9-.432-2.615-.619l-1.171-.339-.22-1c-.146-.6-.266-1.41-.406-2.216-.073-.406-.133-.805-.173-1.191s-.086-.739-.12-1.045c-.086-.605-.106-1.018-.106-1.018s1.637-1.111,3.327-2.076,3.393-1.8,3.393-1.8V143.46Z" transform="translate(-47.87 -99.05)" fill="#6de0d4"/>
      <path id="Trazado_185699" data-name="Trazado 185699" d="M69.034,181.732l-.765-.805-.526-.552a2.919,2.919,0,0,1-.233-.259s-1.81.526-3.719.938c-.951.206-1.9.366-2.621.486l-1.218.18-.173-.226c-.113-.14-.266-.339-.439-.6-.346-.506-.832-1.164-1.277-1.856s-.878-1.384-1.184-1.916l-.5-.892.665-1.038c.386-.612.951-1.424,1.517-2.209s1.158-1.544,1.6-2.1l.758-.918-.446-1.018c-.113-.253-.213-.512-.286-.712l-.12-.319Z" transform="translate(-50.718 -107.237)" fill="#6de0d4"/>
    </g>
    <path id="Trazado_185700" data-name="Trazado 185700" d="M83.386,198.864a1.457,1.457,0,0,1-.665-.18l-.892-.5c-.386-.22-.825-.5-1.331-.8l-.665-.419c-.506-.326-.978-.665-1.4-.945l-.519-.366a8.118,8.118,0,0,1-.665-.5l-.213-.16a1.437,1.437,0,0,1-.532-1.331l.18-1.2c.126-.772.286-1.743.506-2.721.24-1.144.526-2.235.719-2.961l-.991-.945a1.437,1.437,0,1,1,2-2.069l1.331,1.291a1.239,1.239,0,0,0,.16.153,1.437,1.437,0,0,1,.479,1.517s-.512,1.783-.9,3.619c-.206.931-.359,1.843-.472,2.555l-.053.353.08.06.559.393c.393.273.825.579,1.277.865l.665.419c.432.273.838.532,1.184.725l.146.08.313-.2c.585-.373,1.377-.918,2.129-1.464s1.5-1.124,2.049-1.557l.9-.745a1.417,1.417,0,0,1,1.484-.213l1.018.439a5.876,5.876,0,0,0,.665.259l.339.126a1.426,1.426,0,0,1-1.025,2.661l-.313-.113c-.22-.08-.512-.193-.8-.326l-.186-.08-.246.206c-.592.472-1.371,1.071-2.176,1.65s-1.65,1.171-2.282,1.57l-1.031.665A1.437,1.437,0,0,1,83.386,198.864Z" transform="translate(959.133 10081.036)" fill="#4480bf"/>
    <path id="Trazado_185701" data-name="Trazado 185701" d="M108.863,209.041H108.8a7.663,7.663,0,0,1-1.138-.113l-1.018-.12c-.406-.047-.845-.106-1.284-.186l-.579-.1c-.665-.106-1.244-.206-1.717-.326l-.965-.206a1.43,1.43,0,0,1-1.071-1l-.333-1.171c-.2-.765-.439-1.743-.665-2.708s-.386-1.929-.5-2.661l-.047-.313-1.331-.486a1.43,1.43,0,0,1,1.011-2.661l2,.712a1.45,1.45,0,0,1,.971,1.151l.173,1.184c.106.665.273,1.59.472,2.5s.426,1.85.612,2.555l.086.319.166.033c.459.113.991.2,1.544.293l.612.1c.386.073.752.126,1.1.16l1.058.133h.133c.406-.619,1.011-1.564,1.557-2.508.938-1.63,1.743-3.287,1.75-3.327a1.437,1.437,0,0,1,1.331-.805l2-.047a1.427,1.427,0,0,1,.333,2.834,4.481,4.481,0,0,1-.519,0h-.985c-.339.665-.865,1.67-1.444,2.661-.985,1.69-2.1,3.327-2.142,3.386A1.43,1.43,0,0,1,108.863,209.041Z" transform="translate(952.145 10076.494)" fill="#4480bf"/>
    <path id="Trazado_185702" data-name="Trazado 185702" d="M129.885,207.509A1.41,1.41,0,0,1,128.8,207c-.06-.06-1.331-1.577-2.475-3.154-.585-.785-1.144-1.63-1.544-2.242l-.173-.279H124.3l-1.071.106a1.45,1.45,0,0,1-1.524-1.331,1.43,1.43,0,0,1,1.331-1.524l1.1-.08a6.653,6.653,0,0,0,1.018-.093,1.4,1.4,0,0,1,1.391.665l.665,1c.373.566.9,1.331,1.45,2.109.665.885,1.331,1.763,1.81,2.342l.146-.033c.579-.126,1.331-.286,2.1-.506l2.269-.665a.757.757,0,0,1,.053-.333c.113-.719.24-1.663.346-2.595s.166-1.863.206-2.555l.047-1.184a1.444,1.444,0,0,1,.872-1.251l.306-.133c.18-.073.393-.166.6-.273l1.018-.506a1.425,1.425,0,0,1,1.264,2.555l-.985.492-.259.126v.306c-.04.752-.106,1.756-.22,2.741s-.246,2-.359,2.708-.213,1.264-.213,1.264a1.444,1.444,0,0,1-.958,1.091l-3.207.965c-.8.233-1.637.413-2.269.546l-1,.22A1.518,1.518,0,0,1,129.885,207.509Z" transform="translate(943.997 10077.36)" fill="#4480bf"/>
    <path id="Trazado_185703" data-name="Trazado 185703" d="M155.659,194.746a1.491,1.491,0,0,1-.632-.146l-1.1-.546c-.665-.339-1.564-.812-2.435-1.331s-1.7-1-2.309-1.4l-.293-.193-.206.12c-.506.293-1.065.559-1.065.559a1.427,1.427,0,0,1-1.218-2.581s.446-.213.865-.459l1-.552a1.424,1.424,0,0,1,1.51.073s.386.266.945.625,1.384.865,2.2,1.331,1.65.918,2.275,1.238l.339.16,1.87-1.437c.406-.339.845-.719,1.231-1.051l.426-.366.087-.073-.093-.373c-.193-.705-.432-1.577-.732-2.468-.579-1.79-1.271-3.5-1.277-3.513a1.424,1.424,0,0,1,.306-1.537l1.331-1.564a1.43,1.43,0,0,1,2.255,1.756s-.106.14-.279.333l-.665.758c.266.7.665,1.763,1.025,2.874.313.931.566,1.863.765,2.588l.319,1.251a1.424,1.424,0,0,1-.413,1.4l-.186.173-1.124-.838.991,1.025c-.133.126-.286.273-.472.432l-.4.339c-.393.339-.845.732-1.331,1.111L156.5,194.48a1.431,1.431,0,0,1-.845.266Z" transform="translate(936.007 10082.578)" fill="#4480bf"/>
    <path id="Trazado_185704" data-name="Trazado 185704" d="M166.285,174.2a1.437,1.437,0,0,1-1.131-2.3l1.331-1.71a1.444,1.444,0,0,1,1.424-.585s1.83.333,3.7.532c1.084.113,2.209.18,2.941.213l.06-.1c.1-.193.226-.413.359-.665a14.127,14.127,0,0,0,.665-1.271l.346-.712c.233-.452.446-.878.592-1.244l.087-.193-.226-.286c-.439-.539-1.065-1.271-1.69-2-1.224-1.377-2.575-2.661-2.588-2.661a1.437,1.437,0,0,1-.379-1.477l.612-2.063a1.43,1.43,0,0,1,2.754.752l-.379,1.331c.539.532,1.331,1.331,2.109,2.216.665.725,1.331,1.5,1.79,2.089l.765.971a1.417,1.417,0,0,1,.186,1.45l-.406.945c-.16.379-.406.878-.665,1.41l-.333.665c-.24.506-.519,1-.772,1.437l-.326.592c-.333.612-.585.991-.585.991a1.457,1.457,0,0,1-1.238.665c-.086,0-2.056-.067-3.992-.266-1.164-.126-2.289-.293-3.034-.412l-.832,1.078A1.437,1.437,0,0,1,166.285,174.2Z" transform="translate(929.552 10089.955)" fill="#4480bf"/>
    <path id="Trazado_185705" data-name="Trazado 185705" d="M177.483,151.289a1.424,1.424,0,0,1-1.377-1.79l.146-.546c.033-.133.08-.286.106-.439l.246-1.111a1.41,1.41,0,0,1,1.038-1.078l1.164-.3c.665-.18,1.537-.439,2.435-.732,1.058-.339,2.109-.739,2.788-1v-.18c.033-.366.067-.832.106-1.331l.06-.858c0-.486.033-1.011.04-1.477v-.818l-.339-.173c-.619-.319-1.45-.732-2.322-1.111s-1.736-.745-2.389-.991-1.045-.4-1.058-.4a1.417,1.417,0,0,1-.951-1.184l-.133-1.1c-.053-.512-.14-.985-.14-1a1.425,1.425,0,1,1,2.8-.526s.113.605.173,1.224v.2l.326.126c.665.266,1.583.665,2.495,1.045s1.81.838,2.482,1.184l1.1.572a1.43,1.43,0,0,1,.765,1.211v1.8c0,.492,0,1.045-.047,1.6l-.067.878c-.033.532-.067,1.038-.113,1.45l-.12,1.031a1.444,1.444,0,0,1-.865,1.151c-.08,0-1.883.785-3.786,1.391-.931.306-1.87.585-2.575.778l-.333.086-.047.22c-.047.2-.1.426-.16.619,0,0-.047.18-.047.186l-.087.333A1.43,1.43,0,0,1,177.483,151.289Z" transform="translate(925.806 10098.232)" fill="#4480bf"/>
    <path id="Trazado_185706" data-name="Trazado 185706" d="M175.85,127.05a1.424,1.424,0,0,1-1.4-1.191l-.186-1.1a2.127,2.127,0,0,0-.1-.506l-.106-.506a1.424,1.424,0,0,1,.506-1.424l.965-.745c.532-.432,1.244-1.031,1.929-1.657s1.391-1.291,1.9-1.8c.086-.08.173-.16.246-.24l-.166-.492c-.06-.193-.126-.393-.2-.605l-.419-1.111c-.226-.665-.486-1.224-.665-1.717l-.193-.439c-.778-.047-1.949-.08-3.134-.093-.872,0-1.743.033-2.4.067l-1.164.073a1.384,1.384,0,0,1-1.331-.752s-.239-.439-.5-.838l-.605-.971a1.427,1.427,0,0,1,2.422-1.51l.585.945a2.659,2.659,0,0,1,.146.226h.306c.752-.04,1.783-.08,2.748-.073,1.943,0,3.912.146,3.992.153a1.45,1.45,0,0,1,1.158.752,3.939,3.939,0,0,1,.173.379l.419.965c.24.539.526,1.2.765,1.87l.412,1.1c.1.259.173.5.246.725l.426,1.331a1.43,1.43,0,0,1-.339,1.437l-.22.233c-.16.166-.386.393-.665.665-.532.532-1.257,1.224-2,1.883s-1.49,1.331-2.069,1.77l-.253.2a2.258,2.258,0,0,0,.053.306l.18,1.071a1.43,1.43,0,0,1-1.171,1.643A1.458,1.458,0,0,1,175.85,127.05Z" transform="translate(928.297 10105.984)" fill="#4480bf"/>
    <path id="Trazado_185707" data-name="Trazado 185707" d="M164.044,104.865a1.424,1.424,0,0,1-1.231-.705l-1.2-1.73a1.417,1.417,0,0,1-.086-1.49s.872-1.637,1.63-3.327c.4-.878.732-1.736.985-2.4l.126-.339-.1-.12-1.524-1.6-1.577-1.5-.113-.106-.359.133c-.665.246-1.51.585-2.382.978-1.717.765-3.327,1.623-3.327,1.637a1.45,1.45,0,0,1-1.49-.086l-1.756-1.2a1.426,1.426,0,1,1,1.43-2.468s.16.086.393.246l.832.579c.665-.339,1.683-.838,2.754-1.331.911-.413,1.83-.772,2.535-1.045l1.171-.439a1.45,1.45,0,0,1,1.4.246s.333.273.818.712l3.3,3.3c.459.512.732.838.732.838a1.41,1.41,0,0,1,.246,1.41l-.426,1.151c-.279.725-.665,1.643-1.058,2.568-.472,1.065-.971,2.076-1.331,2.741l.579.832a4.289,4.289,0,0,1,.246.386,1.43,1.43,0,0,1-1.231,2.149Z" transform="translate(934.216 10112.793)" fill="#4480bf"/>
    <path id="Trazado_185708" data-name="Trazado 185708" d="M144.641,88.492a1.45,1.45,0,0,1-.758-.22l-.938-.585c-.426-.279-.852-.506-.865-.512a1.43,1.43,0,0,1-.758-1.331l.073-1.184c0-.665.073-1.623.067-2.555,0-1.091-.047-2.216-.086-2.961l-.393-.166c-.492-.22-1.1-.492-1.736-.712l-1.158-.432a5.9,5.9,0,0,0-.579-.193L137,77.474l-.24.233c-.506.519-1.164,1.2-1.8,1.9s-1.231,1.4-1.663,1.949l-.719.9a1.43,1.43,0,0,1-1.424.512l-.339-.073c-.293-.067-.466-.106-.665-.133l-1.124-.186a1.43,1.43,0,1,1,.466-2.821l1.1.186.286.047.186-.24c.479-.585,1.118-1.331,1.79-2.082s1.331-1.45,1.876-2c.273-.279.5-.5.665-.665l.24-.233a1.4,1.4,0,0,1,1.424-.326l1.331.426c.22.067.459.146.705.24l1.138.426c.665.24,1.331.539,1.909.778l.918.4a3.7,3.7,0,0,1,.359.173,1.437,1.437,0,0,1,.758,1.151c0,.086.146,2.063.153,3.992,0,.985-.04,2-.073,2.721v.326c.08.053.173.106.253.166l.918.572a1.424,1.424,0,0,1-.758,2.661Z" transform="translate(941.962 10117.51)" fill="#4480bf"/>
    <path id="Trazado_185709" data-name="Trazado 185709" d="M104.571,82.438a1.43,1.43,0,0,1-.366-2.808l.313-.087c.386-.106.619-.166.852-.213l.193-.04.08-.313c.2-.725.472-1.663.785-2.615a38.816,38.816,0,0,1,1.391-3.766,1.437,1.437,0,0,1,1.138-.865l1.025-.126c.446-.047.965-.08,1.524-.12l.785-.053c.625,0,1.211-.047,1.723-.053h1.723a1.444,1.444,0,0,1,1.2.765l.566,1.084c.353.665.792,1.577,1.2,2.5s.772,1.81,1.045,2.488c.04.12.087.226.12.326h.24c.579.053,1.191.166,1.191.166a1.43,1.43,0,0,1-.526,2.808s-.5-.093-.978-.14l-1.131-.14a1.424,1.424,0,0,1-1.178-.945s-.16-.446-.4-1.065-.605-1.51-.991-2.375-.8-1.717-1.124-2.342l-.166-.326h-.725c-.492,0-1.051,0-1.61.047l-.758.053c-.519.033-1,.067-1.4.113h-.16c-.266.665-.665,1.723-1,2.774-.293.9-.559,1.8-.745,2.468l-.286,1.131a1.424,1.424,0,0,1-1.065,1.138l-1.078.233c-.193.04-.353.08-.486.12l-.2.053-.333.093A1.331,1.331,0,0,1,104.571,82.438Z" transform="translate(950.203 10118.515)" fill="#4480bf"/>
    <path id="Trazado_185710" data-name="Trazado 185710" d="M83.66,91.492,81.91,89.23l1.084-.838c-.12-.739-.286-1.863-.412-3.027-.206-1.936-.266-3.912-.266-3.992a1.444,1.444,0,0,1,.665-1.237s.379-.246.985-.572l.559-.319c.452-.253.965-.539,1.49-.792l.665-.333c.526-.266,1.011-.506,1.43-.665l.9-.393a1.444,1.444,0,0,1,1.457.186l.951.758c.605.486,1.377,1.144,2.109,1.81.865.758,1.677,1.557,2.209,2.1l1.331-.379a1.435,1.435,0,1,1,.758,2.768l-2.062.612a1.41,1.41,0,0,1-1.477-.379S93,83.2,91.63,81.958c-.705-.665-1.437-1.257-2-1.71l-.273-.213L89.2,80.1c-.386.16-.805.373-1.251.592l-.725.359c-.472.226-.918.479-1.331.705l-.612.339-.1.053c.04.739.106,1.863.22,2.947.2,1.87.526,3.679.532,3.693a1.444,1.444,0,0,1-.585,1.424Z" transform="translate(957.315 10116.652)" fill="#4480bf"/>
    <path id="Trazado_185711" data-name="Trazado 185711" d="M65.508,110.163a1.331,1.331,0,0,1-.612-.14,1.41,1.41,0,0,1-.665-1.9s.259-.559.572-1.091l.1-.18-.186-.293c-.393-.605-.911-1.444-1.4-2.309s-.978-1.756-1.331-2.428l-.546-1.1a1.437,1.437,0,0,1,.106-1.45l.592-.845,1.424-1.836L64.7,95.26l.366-.419c.146-.173.3-.339.432-.472l.313-.333a1.417,1.417,0,0,1,1.391-.4l1.211.293c.752.206,1.7.466,2.661.785,1.1.359,2.169.752,2.868,1.018l.772-.665c.18-.166.326-.279.326-.279a1.43,1.43,0,0,1,1.73,2.275l-1.564,1.331a1.43,1.43,0,0,1-1.524.293s-1.717-.665-3.5-1.271c-.918-.306-1.8-.552-2.495-.738l-.353-.093-.06.067-.386.452c-.326.379-.705.818-1.078,1.264L64.4,100.2l.166.339c.313.619.752,1.45,1.231,2.262s.965,1.623,1.331,2.209.612.931.625.945a1.437,1.437,0,0,1,.08,1.517l-.539.965c-.266.446-.472.878-.479.9a1.43,1.43,0,0,1-1.311.825Z" transform="translate(964.217 10111.081)" fill="#4480bf"/>
    <path id="Trazado_185712" data-name="Trazado 185712" d="M57.438,133h-.106A1.43,1.43,0,0,1,56,131.474l.08-1.1V130.1l-.259-.166c-.665-.412-1.47-.971-2.269-1.557-1.564-1.138-3.08-2.415-3.147-2.468a1.424,1.424,0,0,1-.472-1.4l.213-1c.133-.619.319-1.457.552-2.282l.991-3.147a1.45,1.45,0,0,1,1.091-.971s.5-.093,1.264-.213,1.743-.253,2.721-.359,2-.18,2.715-.22H59.8l.14-.279.479-.965a1.425,1.425,0,1,1,2.555,1.264l-.486.991c-.126.24-.22.459-.286.619l-.146.333a1.417,1.417,0,0,1-1.244.852l-1.191.053c-.665,0-1.617.1-2.535.2s-1.89.233-2.6.346l-.339.053-.665,2.249c-.226.778-.393,1.544-.512,2.116l-.033.16c.572.466,1.457,1.164,2.335,1.8.752.559,1.544,1.084,2.122,1.457l.985.632a1.417,1.417,0,0,1,.665,1.391s-.067.5-.093,1l-.08,1.131A1.424,1.424,0,0,1,57.438,133Z" transform="translate(968.028 10104.154)" fill="#4480bf"/>
    <path id="Trazado_185713" data-name="Trazado 185713" d="M59.714,157.236a1.424,1.424,0,0,1-1.331-.925l-.486-1.331-.306-.047c-.752-.113-1.717-.3-2.661-.506s-1.943-.446-2.661-.665l-1.2-.339a1.437,1.437,0,0,1-1-1.071l-.22-1c-.106-.446-.206-1.045-.313-1.67l-.106-.612c-.073-.426-.14-.865-.186-1.277l-.12-1.031c-.086-.665-.113-1.111-.113-1.111a1.437,1.437,0,0,1,.625-1.251c.067-.047,1.7-1.158,3.386-2.136,1.018-.585,2-1.111,2.695-1.45v-1a3.825,3.825,0,0,1,0-.472,1.41,1.41,0,0,1,1.577-1.264,1.43,1.43,0,0,1,1.264,1.564l-.053,2a1.437,1.437,0,0,1-.805,1.331s-1.67.812-3.293,1.75c-.945.546-1.9,1.151-2.515,1.557v.113l.126,1.058c.04.366.093.732.16,1.1l.106.665c.093.552.18,1.084.279,1.5l.04.2.353.1c.665.18,1.6.406,2.522.6s1.816.373,2.508.479l1.184.173a1.424,1.424,0,0,1,1.144,1.018l.712,2a1.424,1.424,0,0,1-.832,1.836A1.477,1.477,0,0,1,59.714,157.236Z" transform="translate(968.327 10096.197)" fill="#4480bf"/>
    <path id="Trazado_185714" data-name="Trazado 185714" d="M71.495,179.193a1.411,1.411,0,0,1-1.058-.426l-.938-.985c-.725.193-1.823.472-2.974.719-.971.213-1.943.379-2.695.5l-1.231.186a1.45,1.45,0,0,1-1.331-.532l-.193-.246c-.1-.126-.279-.359-.479-.665l-.359-.512c-.293-.413-.625-.885-.938-1.371l-.432-.665c-.293-.472-.572-.918-.785-1.291l-.512-.9a1.43,1.43,0,0,1,.04-1.457l.665-1.038c.4-.665.985-1.477,1.57-2.282s1.184-1.583,1.637-2.149l.226-.266-.093-.213c-.126-.266-.24-.566-.319-.792l-.12-.313a1.43,1.43,0,1,1,2.661-.991l.113.313c.067.186.153.406.253.619l.452,1.038a1.43,1.43,0,0,1-.213,1.484l-.772.925c-.412.519-.978,1.257-1.537,2S61.042,171.416,60.67,172l-.2.319.086.153c.193.333.446.739.719,1.171l.432.665c.279.432.585.865.858,1.251l.386.552.06.087.373-.053c.665-.113,1.61-.266,2.535-.466,1.856-.379,3.633-.9,3.653-.9a1.424,1.424,0,0,1,1.517.486l.126.14.133.14,1.178,1.231a1.424,1.424,0,0,1-1.031,2.408Z" transform="translate(965.522 10088.052)" fill="#4480bf"/>
    <g id="Grupo_92661" data-name="Grupo 92661" transform="translate(1045.305 10205.147)">
      <path id="Trazado_185715" data-name="Trazado 185715" d="M111.58,121.433,93.19,103.016a29.021,29.021,0,0,1,36.772,0Z" transform="translate(-91.765 -95.023)" fill="#fff"/>
      <path id="Trazado_185716" data-name="Trazado 185716" d="M110.863,122.113a1.424,1.424,0,0,1-1.011-.419L91.462,103.3a1.43,1.43,0,0,1,.106-2.109,30.465,30.465,0,0,1,38.589,0,1.417,1.417,0,0,1,.519,1.031,1.377,1.377,0,0,1-.413,1.078l-18.39,18.39a1.411,1.411,0,0,1-1.011.419Zm-16.234-19.68,16.234,16.234,16.227-16.234a27.631,27.631,0,0,0-32.461,0Z" transform="translate(-91.049 -94.306)" fill="#4480bf"/>
    </g>
    <g id="Grupo_92662" data-name="Grupo 92662" transform="translate(1045.305 10242.492)">
      <path id="Trazado_185717" data-name="Trazado 185717" d="M111.58,152.56l18.383,18.39a29.021,29.021,0,0,1-36.772,0Z" transform="translate(-91.765 -151.147)" fill="#fff"/>
      <path id="Trazado_185718" data-name="Trazado 185718" d="M110.863,178.229a30.452,30.452,0,0,1-19.294-6.886,1.43,1.43,0,0,1-.519-1.031,1.45,1.45,0,0,1,.412-1.084l18.39-18.383a1.424,1.424,0,0,1,2,0l18.423,18.383a1.4,1.4,0,0,1,.412,1.084,1.43,1.43,0,0,1-.519,1.031,30.452,30.452,0,0,1-19.3,6.886Zm-16.234-8.124a27.6,27.6,0,0,0,32.461,0l-16.227-16.234Z" transform="translate(-91.047 -150.436)" fill="#4480bf"/>
    </g>
    <g id="Grupo_92663" data-name="Grupo 92663" transform="translate(1032.557 10217.873)">
      <path id="Trazado_185719" data-name="Trazado 185719" d="M98.969,134.01l-18.39,18.383a29.041,29.041,0,0,1,0-36.772Z" transform="translate(-72.601 -114.165)" fill="#fff"/>
      <path id="Trazado_185720" data-name="Trazado 185720" d="M79.867,153.065H79.8a1.43,1.43,0,0,1-1.031-.519,30.492,30.492,0,0,1,0-38.589,1.4,1.4,0,0,1,1.031-.519,1.331,1.331,0,0,1,1.078.419l18.363,18.41a1.43,1.43,0,0,1,0,2l-18.363,18.41a1.437,1.437,0,0,1-1.011.393Zm.14-36.047a27.631,27.631,0,0,0,0,32.461l16.227-16.227Z" transform="translate(-71.888 -113.434)" fill="#4480bf"/>
    </g>
    <g id="Grupo_92664" data-name="Grupo 92664" transform="translate(1069.895 10217.903)">
      <path id="Trazado_185721" data-name="Trazado 185721" d="M130.13,134.01l18.39-18.39a29.041,29.041,0,0,1,0,36.772Z" transform="translate(-128.718 -114.195)" fill="#fff"/>
      <path id="Trazado_185722" data-name="Trazado 185722" d="M147.809,153.08a1.437,1.437,0,0,1-1.011-.419l-18.39-18.383a1.444,1.444,0,0,1,0-2L146.8,113.9a1.43,1.43,0,0,1,2.116.1,30.505,30.505,0,0,1,0,38.589,1.457,1.457,0,0,1-1.038.519Zm-16.374-19.813,16.234,16.227a27.631,27.631,0,0,0,0-32.461Z" transform="translate(-128.008 -113.479)" fill="#4480bf"/>
    </g>
    <path id="Trazado_185723" data-name="Trazado 185723" d="M116.05,141.66a3.174,3.174,0,1,0,.93-2.251,3.18,3.18,0,0,0-.93,2.251Z" transform="translate(945.889 10096.058)" fill="#fff"/>
    <path id="Trazado_185724" data-name="Trazado 185724" d="M118.514,145.548a4.6,4.6,0,1,1,4.6-4.6A4.6,4.6,0,0,1,118.514,145.548Zm0-6.354a1.75,1.75,0,1,0,1.743,1.75,1.75,1.75,0,0,0-1.743-1.75Z" transform="translate(946.605 10096.774)" fill="#4480bf"/>
    <path id="Trazado_185725" data-name="Trazado 185725" d="M83.95,211.282a59.213,59.213,0,0,1-7.771-.506,1.426,1.426,0,1,1,.373-2.828,57.1,57.1,0,0,0,7.4.479,1.43,1.43,0,1,1,0,2.854Zm-13.2-1.517a1.365,1.365,0,0,1-.326-.04,57.5,57.5,0,0,1-7.472-2.289,1.43,1.43,0,1,1,1.018-2.661,55.3,55.3,0,0,0,7.092,2.176,1.43,1.43,0,0,1-.326,2.821Zm-12.5-4.531a1.444,1.444,0,0,1-.665-.146,59.1,59.1,0,0,1-6.7-3.932,1.43,1.43,0,1,1,1.6-2.362,56.483,56.483,0,0,0,6.4,3.752,1.424,1.424,0,0,1-.665,2.7Zm-11.118-7.285a1.45,1.45,0,0,1-.918-.326,60.665,60.665,0,0,1-5.642-5.376,1.43,1.43,0,0,1,2.1-1.936,56.5,56.5,0,0,0,5.369,5.116,1.424,1.424,0,0,1-.911,2.522Zm-9.155-9.627a1.424,1.424,0,0,1-1.144-.572,59.337,59.337,0,0,1-4.265-6.52,1.427,1.427,0,1,1,2.488-1.4,56.744,56.744,0,0,0,4.058,6.2,1.43,1.43,0,0,1-.286,2A1.411,1.411,0,0,1,37.977,188.322Zm-6.713-11.47A1.424,1.424,0,0,1,29.933,176a58.009,58.009,0,0,1-2.661-7.319,1.446,1.446,0,0,1,2.781-.792,55.459,55.459,0,0,0,2.522,6.973,1.43,1.43,0,0,1-.732,1.883,1.5,1.5,0,0,1-.579.106Zm-3.885-12.708a1.43,1.43,0,0,1-1.4-1.171,60.545,60.545,0,0,1-.885-7.724,1.43,1.43,0,0,1,1.331-1.49,1.411,1.411,0,0,1,1.5,1.331,55.842,55.842,0,0,0,.845,7.365,1.437,1.437,0,0,1-1.151,1.663A1.7,1.7,0,0,1,27.378,164.144Z" transform="translate(976.332 10090.945)" fill="#4480bf"/>
    <path id="Trazado_185726" data-name="Trazado 185726" d="M33.3,273.914a1.424,1.424,0,0,1-1.218-.665l-5.063-8.33a1.43,1.43,0,0,1,2.442-1.484l3.839,6.321,6.034-9.933a1.43,1.43,0,1,1,2.442,1.484l-7.259,11.976A1.417,1.417,0,0,1,33.3,273.914Z" transform="translate(975.742 10055.698)" fill="#4480bf"/>
    <path id="Trazado_185727" data-name="Trazado 185727" d="M30.717,277.653a14.877,14.877,0,1,1,14.877-14.877A14.877,14.877,0,0,1,30.717,277.653Zm0-26.9a12.022,12.022,0,1,0,12.022,12.022,12.022,12.022,0,0,0-12.022-12.022Z" transform="translate(979.427 10059.437)" fill="#4480bf"/>
    <path id="Trazado_185728" data-name="Trazado 185728" d="M191.488,57.486a23.466,23.466,0,1,0,25.894-20.758,23.466,23.466,0,0,0-25.894,20.758Zm6.84.752a18.758,18.758,0,1,0,0-.007Z" transform="translate(920.69 10130.159)" fill="#fff"/>
    <path id="Trazado_185729" data-name="Trazado 185729" d="M191.225,79.86l-.1-.233c-.06-.14-.146-.319-.213-.512l-.259-.758a6.969,6.969,0,0,1-.911-.08c-.546-.08-1.284-.153-2.029-.279-1.457-.253-2.947-.665-2.947-.665s-.067-.306-.173-.765-.213-1.078-.313-1.7-.16-1.244-.213-1.71L184,72.395l.805-.5c.486-.293,1.158-.665,1.816-1,.333-.173.665-.333.978-.479s.619-.286.872-.393l.845-.353s0-.406.047-.812.073-.805.073-.805Z" transform="translate(923.148 10119.628)" fill="#fff"/>
    <path id="Trazado_185730" data-name="Trazado 185730" d="M189.165,80.408l-.106-.233c-.1-.22-.16-.366-.213-.5H188.8c-.572-.06-1.331-.16-2.109-.293-1.51-.253-3.021-.665-3.087-.665l-.838-.226-.353-1.6c-.106-.439-.213-1.058-.319-1.69s-.146-1.1-.193-1.53l-.16-2,.712-.459.845-.519c.5-.306,1.2-.665,1.9-1.051.346-.18.665-.346,1.018-.5s.665-.3.918-.413h.04l.067-.752,2.841.233-.067.805q-.036.332-.04.665v.971l-.9.353s-.326.126-.8.333l-.832.373c-.293.14-.612.293-.925.459a18.6,18.6,0,0,0-1.736.951l-.053.04v.213c.047.386.093.838.166,1.3.1.592.18,1.111.273,1.51.539.133,1.277.293,2,.419s1.41.206,1.936.266.838.073.852.073l.918.06.612,1.617c.04.12.087.206.12.286l.166.386Z" transform="translate(923.905 10119.651)" fill="#4480bf"/>
    <path id="Trazado_185731" data-name="Trazado 185731" d="M201.04,95.141l-.2-.146c-.126-.086-.286-.213-.439-.339l-.632-.512s-.326.16-.832.379-1.191.512-1.9.772-1.41.486-2,.665-.918.259-.918.259-.865-.911-1.65-1.883-1.477-2-1.477-2,.166-.339.452-.838.665-1.151,1.065-1.776.838-1.238,1.164-1.683.546-.725.546-.725-.173-.366-.353-.725c-.093-.18-.18-.366-.24-.506l-.1-.226Z" transform="translate(920.805 10113.668)" fill="#fff"/>
    <path id="Trazado_185732" data-name="Trazado 185732" d="M192.891,97.491l-.572-.6s-.9-.951-1.73-2-1.55-2.129-1.55-2.129l-.459-.665.366-.745s.18-.359.486-.9.665-1.184,1.1-1.836.878-1.331,1.218-1.77c-.093-.18-.18-.379-.246-.532l-.08-.193,2.608-1.151.106.24a3.915,3.915,0,0,0,.193.419l.765,1.55-.552.705-.526.665c-.313.426-.725,1.011-1.111,1.61s-.745,1.218-1.011,1.7l-.033.053c.253.353.579.792.925,1.224s.725.838,1.018,1.171h.047c.532-.153,1.224-.379,1.89-.625s1.331-.519,1.81-.732.778-.353.785-.359l.812-.393,1.331,1.078.359.279.226.166-1.683,2.309-.213-.16c-.106-.073-.266-.193-.426-.326H198.7c-.526.226-1.244.532-2,.8s-1.477.512-2.043.665-.985.279-.985.279Z" transform="translate(921.615 10113.966)" fill="#4480bf"/>
    <path id="Trazado_185733" data-name="Trazado 185733" d="M217.231,104.145l-.805-.106c-.4-.047-.8-.133-.8-.133s-.2.3-.526.752l-.572.765c-.213.273-.446.559-.665.845-.472.572-.985,1.151-1.371,1.557s-.665.665-.665.665l-.752-.22c-.439-.16-1.038-.353-1.623-.585s-1.164-.466-1.583-.665l-.712-.333s-.067-1.544,0-3.021c.04-.758.106-1.5.173-2.043s.113-.911.113-.911l-.665-.439a5.083,5.083,0,0,1-.452-.326l-.206-.146Z" transform="translate(915.745 10109.003)" fill="#fff"/>
    <path id="Trazado_185734" data-name="Trazado 185734" d="M211.793,109.544l-1.949-.6c-.406-.133-.885-.3-1.331-.486-.665-.259-1.251-.506-1.69-.725l-1.47-.665-.033-.872c0-.06-.067-1.63,0-3.16.04-.785.113-1.55.18-2.122v-.047c-.106-.067-.22-.16-.333-.24l-.306-.22,1.683-2.309.2.146.359.259,1.484.978-.146.9s-.053.346-.106.838-.126,1.238-.16,2-.04,1.477-.033,2c.4.193.9.393,1.4.585s.878.326,1.244.452l.213.073.04-.047c.373-.393.858-.938,1.331-1.484.233-.279.459-.559.665-.818l.526-.712c.313-.426.5-.705.506-.719l.539-.8.945.2s.339.073.665.113l.838.113-.393,2.828-.745-.106-.033.04c-.166.233-.366.506-.592.8l-.719.892c-.492.592-1.031,1.2-1.437,1.623s-.665.712-.665.712Z" transform="translate(916.167 10109.572)" fill="#4480bf"/>
    <path id="Trazado_185735" data-name="Trazado 185735" d="M234.613,103.61l-.233.1c-.14.06-.319.146-.512.213l-.752.286a6.492,6.492,0,0,1-.086.918c-.087.546-.153,1.277-.279,2-.246,1.464-.665,2.954-.665,2.954l-.765.166c-.459.113-1.078.213-1.7.319s-1.244.153-1.71.213l-.785.047s-.206-.319-.5-.805-.665-1.151-1-1.816c-.173-.333-.339-.665-.486-.971l-.393-.872c-.22-.512-.353-.852-.353-.852a8.056,8.056,0,0,1-.805-.047l-.805-.067Z" transform="translate(910.166 10107.728)" fill="#fff"/>
    <path id="Trazado_185736" data-name="Trazado 185736" d="M226.363,111.67l-.452-.712s-.22-.333-.519-.838-.665-1.211-1.051-1.9c-.18-.346-.346-.665-.506-1.011s-.293-.665-.406-.918v-.047l-.758-.06.233-2.848.812.073a5.916,5.916,0,0,1,.665.04h.965l.359.9s.126.333.339.812c.1.246.226.532.373.838s.293.6.452.918a19.4,19.4,0,0,0,.958,1.736v.053l.279-.033c.379-.04.805-.086,1.231-.153.592-.1,1.118-.18,1.51-.279.133-.539.293-1.271.419-2s.213-1.417.266-1.943.08-.838.08-.852l.06-.911,1.61-.612.306-.126.373-.166,1.144,2.615-.246.106c-.2.093-.346.153-.486.206v.053c-.067.566-.16,1.331-.293,2.109-.259,1.51-.665,3.021-.665,3.087l-.226.838-1.617.353c-.426.106-1.051.213-1.683.313s-1.038.146-1.45.193Z" transform="translate(910.206 10108.391)" fill="#4480bf"/>
    <path id="Trazado_185737" data-name="Trazado 185737" d="M249.908,92.37l-.153.206a4.965,4.965,0,0,1-.339.439l-.506.625s.153.326.379.832.512,1.2.765,1.9.492,1.417.665,2,.259.911.259.911-.9.865-1.883,1.657-2,1.477-2,1.477-.333-.173-.832-.452-1.158-.665-1.776-1.065-1.244-.838-1.683-1.164-.732-.552-.732-.552l-.725.359c-.18.093-.359.18-.5.24l-.233.1Z" transform="translate(904.199 10111.489)" fill="#fff"/>
    <path id="Trazado_185738" data-name="Trazado 185738" d="M246.859,103.608l-.745-.366s-.366-.18-.9-.492-1.191-.665-1.843-1.1-1.3-.878-1.756-1.218l-.04-.033c-.186.093-.379.186-.532.246l-.186.086-1.171-2.608.259-.113c.126-.053.273-.12.412-.193l1.537-.792.712.559.665.519c.393.306,1,.725,1.6,1.111s1.224.752,1.71,1.018h.04c.353-.253.8-.579,1.231-.918s.838-.705,1.158-.991a.409.409,0,0,0,0-.047c-.16-.532-.386-1.224-.625-1.89s-.526-1.331-.732-1.81-.359-.785-.366-.792l-.366-.752,1.071-1.331c.113-.14.213-.259.286-.359l.16-.226,2.309,1.677L250.6,93c-.08.113-.206.279-.339.439v.04c.233.532.532,1.251.805,2s.506,1.477.665,2.049.273.985.273.985l.2.805-.6.572s-.951.9-2,1.723-2.122,1.557-2.122,1.557Z" transform="translate(904.513 10111.907)" fill="#4480bf"/>
    <path id="Trazado_185739" data-name="Trazado 185739" d="M258.921,75.65s-.06.4-.113.8-.133.8-.133.8.306.206.752.532c.226.16.492.359.765.572s.566.439.852.665c.572.479,1.144.985,1.557,1.377l.665.665s-.086.306-.22.752-.346,1.045-.579,1.623S262,84.6,261.8,85.024l-.326.705s-1.55.067-3.027,0c-.752-.04-1.49-.106-2.036-.166s-.911-.12-.911-.12l-.446.665c-.106.166-.233.326-.319.452l-.146.2Z" transform="translate(899.523 10117.085)" fill="#fff"/>
    <path id="Trazado_185740" data-name="Trazado 185740" d="M255.149,87.482l-2.289-1.7.14-.186c.14-.2.206-.279.259-.366l.965-1.5.911.14s.353.06.845.113,1.237.12,1.956.16,1.477,0,2.036,0c.173-.373.353-.818.539-1.277s.366-.978.486-1.331l.08-.233a.308.308,0,0,0-.047-.047c-.386-.373-.938-.858-1.484-1.331-.273-.226-.546-.452-.812-.665s-.506-.386-.725-.546c-.412-.3-.7-.492-.712-.5l-.8-.539.206-.945s.067-.333.106-.665l.113-.838,2.828.379-.1.758h.033c.24.173.512.373.8.6s.592.466.892.719c.6.492,1.2,1.025,1.63,1.437s.705.665.705.665l.592.6-.6,2c-.14.406-.3.872-.479,1.331-.3.725-.526,1.284-.725,1.7l-.665,1.464-.9.186c-.067,0-1.63.067-3.16,0-.785-.04-1.557-.106-2.129-.173h-.033c-.066.106-.153.226-.233.333Z" transform="translate(900.102 10117.229)" fill="#4480bf"/>
    <path id="Trazado_185741" data-name="Trazado 185741" d="M258.37,57.91l.1.226c.06.14.153.326.22.512.14.379.286.758.286.758a6.97,6.97,0,0,1,.911.08c.546.08,1.284.153,2.029.279,1.457.253,2.947.665,2.947.665s.073.306.173.765.213,1.078.313,1.7.16,1.244.213,1.71a7.585,7.585,0,0,1,.053.778s-.319.213-.805.5-1.158.665-1.816,1c-.333.173-.665.333-.978.486s-.612.279-.872.386c-.506.22-.845.353-.845.353s0,.406-.047.812l-.067.805Z" transform="translate(898.258 10123.022)" fill="#fff"/>
    <path id="Trazado_185742" data-name="Trazado 185742" d="M260.948,69.558l-2.814-.246.067-.8a6.98,6.98,0,0,0,.04-.705V66.85l.892-.353.812-.339c.24-.106.526-.226.825-.373s.612-.293.931-.459c.665-.326,1.271-.665,1.73-.951l.027-.027v-.273c-.04-.373-.093-.805-.16-1.238-.106-.665-.186-1.131-.273-1.51-.539-.126-1.277-.293-2-.413s-1.417-.213-1.943-.266-.838-.08-.852-.08l-.918-.06L256.7,58.9c-.047-.14-.093-.233-.126-.319l-.166-.379,2.661-1.111.093.213c.093.206.16.359.213.5h.047c.565.06,1.331.16,2.109.293,1.51.253,3.021.665,3.087.665l.832.226.359,1.61c.1.412.2,1,.306,1.6s.153,1.131.2,1.544l.16,2.1-.705.452s-.333.213-.838.519-1.211.7-1.9,1.051c-.346.18-.665.346-1.025.506l-.911.406h-.04Z" transform="translate(898.914 10123.297)" fill="#4480bf"/>
    <path id="Trazado_185743" data-name="Trazado 185743" d="M247.14,43.351l.2.146a5.163,5.163,0,0,1,.439.346l.665.506s.326-.16.832-.379,1.191-.512,1.9-.772,1.417-.486,2-.665.918-.253.918-.253.865.9,1.65,1.876,1.477,2,1.477,2-.166.339-.452.838-.665,1.151-1.064,1.776-.838,1.244-1.158,1.683l-.552.732.359.719c.086.18.173.366.233.506l.1.233Z" transform="translate(902.017 10128.253)" fill="#fff"/>
    <path id="Trazado_185744" data-name="Trazado 185744" d="M252.869,52.481l-.1-.226c-.067-.16-.133-.293-.2-.426l-.772-1.557.559-.705s.22-.279.526-.665.725-1,1.111-1.61.752-1.224,1.018-1.7v-.04c-.253-.359-.579-.8-.925-1.231s-.705-.838-.991-1.158h-.047c-.532.153-1.218.379-1.89.625s-1.331.519-1.81.732-.785.359-.792.359l-.812.393-1.331-1.078a3.905,3.905,0,0,0-.359-.279l-.226-.16,1.683-2.309.206.146c.113.08.273.2.439.339h.04c.526-.233,1.251-.539,2-.805s1.477-.512,2.043-.665.985-.279.985-.279l.805-.2.572.605s.9.945,1.73,2,1.59,2.069,1.59,2.069l.466.665-.373.745s-.18.359-.486.9-.665,1.191-1.1,1.843-.872,1.331-1.218,1.756v.04c.093.186.186.386.246.546l.087.18Z" transform="translate(902.455 10129.022)" fill="#4480bf"/>
    <path id="Trazado_185745" data-name="Trazado 185745" d="M230.41,35.185l.805.113c.4.04.8.126.8.126s.2-.3.526-.752l.572-.765c.213-.273.446-.559.665-.845.472-.572.985-1.144,1.371-1.557l.665-.665.752.226c.446.153,1.038.346,1.623.579s1.164.466,1.583.665l.712.333s.066,1.544,0,3.027c-.04.752-.106,1.49-.173,2.036s-.113.911-.113.911l.665.446a5.132,5.132,0,0,1,.452.319l.206.146Z" transform="translate(907.616 10132.082)" fill="#fff"/>
    <path id="Trazado_185746" data-name="Trazado 185746" d="M240.582,39.884l-.206-.16c-.206-.153-.286-.206-.366-.259l-1.47-.965.146-.911s.053-.346.106-.838.126-1.238.16-2,.04-1.477.033-2c-.406-.193-.918-.4-1.424-.6s-.838-.306-1.2-.432l-.233-.08-.04.047c-.373.393-.858.938-1.331,1.484-.233.279-.452.552-.665.812l-.539.732c-.306.419-.5.7-.506.712l-.539.792-.938-.2a6.127,6.127,0,0,0-.665-.106l-.838-.113.393-2.834.752.106c.166-.24.373-.512.592-.8s.466-.592.719-.892c.492-.6,1.031-1.2,1.437-1.63s.665-.705.665-.705l.6-.592,2,.6c.406.14.872.3,1.331.479.625.253,1.244.506,1.69.725l1.47.665.033.872c0,.067.067,1.63,0,3.154-.04.792-.113,1.564-.18,2.136v.04l.313.22.326.246Z" transform="translate(907.73 10132.879)" fill="#4480bf"/>
    <path id="Trazado_185747" data-name="Trazado 185747" d="M212.67,36.465l.233-.1c.14-.06.319-.146.512-.213l.752-.286a6.369,6.369,0,0,1,.086-.911c.087-.539.153-1.284.279-2,.246-1.457.665-2.954.665-2.954l.765-.166c.452-.113,1.071-.213,1.69-.319s1.244-.153,1.71-.206l.785-.053s.206.319.5.805.665,1.158,1,1.816c.166.333.333.665.479.971l.393.872c.22.512.353.852.353.852a7.986,7.986,0,0,1,.805.047l.805.067Z" transform="translate(913.553 10132.61)" fill="#fff"/>
    <path id="Trazado_185748" data-name="Trazado 185748" d="M212.954,37.02l-1.144-2.615.239-.106.492-.206v-.053c.06-.566.16-1.331.286-2.1.259-1.517.665-3.027.665-3.087l.226-.845,1.61-.353c.439-.106,1.058-.206,1.683-.313s1.045-.146,1.464-.193L220.586,27l.459.705s.22.339.519.845.7,1.211,1.058,1.9c.173.346.346.665.5,1.018s.3.665.412.911a.165.165,0,0,1,0,.047l.758.06-.233,2.848-.812-.067q-.331-.036-.665-.04h-.971l-.359-.911s-.133-.333-.333-.812l-.373-.832c-.14-.293-.3-.612-.459-.925a19.387,19.387,0,0,0-.958-1.736.373.373,0,0,1-.033-.053h-.279c-.373.04-.805.086-1.231.153-.6.1-1.111.186-1.51.279-.133.539-.293,1.271-.419,2s-.213,1.41-.266,1.936-.073.845-.08.858l-.047.938-1.61.612a2.544,2.544,0,0,0-.306.126Z" transform="translate(913.841 10133.367)" fill="#4480bf"/>
    <path id="Trazado_185749" data-name="Trazado 185749" d="M198.118,46.28l.146-.206c.087-.126.213-.279.339-.439l.506-.625s-.153-.326-.379-.832-.512-1.2-.765-1.9-.486-1.417-.665-2-.259-.918-.259-.918.9-.865,1.883-1.657,2-1.47,2-1.47.333.166.838.452,1.151.665,1.776,1.058,1.238.838,1.683,1.164.725.552.725.552l.725-.359a5.216,5.216,0,0,1,.5-.233l.233-.106Z" transform="translate(918.784 10130.275)" fill="#fff"/>
    <path id="Trazado_185750" data-name="Trazado 185750" d="M198.489,46.315l-2.289-1.7.133-.193c.073-.106.2-.273.339-.439v-.04c-.233-.532-.532-1.251-.805-2s-.506-1.47-.665-2.043l-.273-.978-.2-.805.6-.572s.951-.9,2-1.73,2.122-1.557,2.122-1.557l.665-.459.739.366s.366.186.911.492,1.184.665,1.836,1.1,1.331.872,1.763,1.211l.04.033c.186-.093.373-.186.519-.246l.206-.086,1.144,2.615-.246.106c-.126.053-.273.12-.419.2l-1.537.758-.705-.552s-.279-.22-.665-.526-1.071-.685-1.67-1.1a18.7,18.7,0,0,0-1.7-1.018h-.047c-.353.253-.8.579-1.231.918s-.838.705-1.158,1v.04c.16.539.386,1.224.625,1.89s.526,1.331.738,1.816.353.778.359.785l.386.818-1.071,1.331c-.113.14-.213.259-.273.353Z" transform="translate(919.557 10131.092)" fill="#4480bf"/>
    <path id="Trazado_185751" data-name="Trazado 185751" d="M189.955,62.458l.106-.8c.047-.406.133-.8.133-.8s-.306-.206-.752-.532c-.226-.16-.492-.353-.765-.572s-.559-.439-.852-.665c-.566-.479-1.144-.985-1.55-1.377s-.665-.665-.665-.665l.22-.752c.153-.446.353-1.045.579-1.623s.466-1.164.665-1.59l.333-.705s1.544-.067,3.021,0c.752.04,1.49.106,2.036.166s.911.12.911.12L193.82,52c.106-.173.233-.333.319-.459l.153-.2Z" transform="translate(922.609 10125.221)" fill="#fff"/>
    <path id="Trazado_185752" data-name="Trazado 185752" d="M190.562,62.235l-2.834-.393.1-.752h0l-.8-.592c-.293-.226-.592-.472-.892-.719-.6-.5-1.2-1.031-1.623-1.437s-.719-.7-.719-.7l-.585-.605.612-2c.133-.393.293-.852.472-1.331.273-.665.512-1.264.725-1.7l.665-1.464h.865c.067,0,1.63-.073,3.16,0,.785.04,1.557.106,2.129.173h.047l.253-.359.206-.286,2.309,1.683-.146.206a3.649,3.649,0,0,0-.266.373L193.27,53.8l-.9-.133-.852-.113c-.526-.053-1.238-.12-1.956-.16s-1.477,0-2.029,0c-.193.393-.379.872-.572,1.331s-.333.885-.452,1.244l-.086.253a.153.153,0,0,0,.047.047c.386.373.938.858,1.484,1.331l.812.665.725.539.712.506.8.539-.206.938s-.067.333-.106.665Z" transform="translate(923.413 10125.643)" fill="#4480bf"/>
    <path id="Trazado_185753" data-name="Trazado 185753" d="M201.1,61.414a17.046,17.046,0,1,0,18.809-15.076A17.046,17.046,0,0,0,201.1,61.414Z" transform="translate(917.461 10126.93)" fill="#fff"/>
    <path id="Trazado_185754" data-name="Trazado 185754" d="M217.368,81.059h0a19.2,19.2,0,0,1-2.043-.113,18.449,18.449,0,1,1,2.043.113Zm-.04-34.091a15.609,15.609,0,1,0,1.73.093A15.237,15.237,0,0,0,217.328,46.967Z" transform="translate(918.157 10127.624)" fill="#4480bf"/>
    <rect id="Rectngulo_38954" data-name="Rectngulo 38954" width="198.913" height="200" transform="translate(985 10142)" fill="none"/>
  </g>
</svg>
