<svg xmlns="http://www.w3.org/2000/svg" width="198.913" height="200" viewBox="0 0 198.913 200">
  <g id="Grupo_94282" data-name="Grupo 94282" transform="translate(-985 -10408)">
    <circle id="Elipse_7657" data-name="Elipse 7657" cx="13.446" cy="13.446" r="13.446" transform="translate(1003.685 10432.103)" fill="#fff"/>
    <path id="Trazado_185755" data-name="Trazado 185755" d="M41.627,63.223A14.877,14.877,0,1,1,56.5,48.347,14.877,14.877,0,0,1,41.627,63.223Zm0-26.9a12.022,12.022,0,1,0,12.016,12.02,12.022,12.022,0,0,0-12.016-12.02Z" transform="translate(975.505 10397.202)" fill="#4480bf"/>
    <path id="Trazado_185756" data-name="Trazado 185756" d="M52.219,56.564H36.989a1.43,1.43,0,0,1,0-2.854H52.219a1.43,1.43,0,0,1,0,2.854Z" transform="translate(972.524 10390.428)" fill="#4480bf"/>
    <path id="Trazado_185757" data-name="Trazado 185757" d="M48.4,60.274a1.43,1.43,0,0,1-1.4-1.43V43.621a1.43,1.43,0,1,1,2.854,0V58.844a1.424,1.424,0,0,1-1.45,1.43Z" transform="translate(968.729 10394.315)" fill="#4480bf"/>
    <g id="Grupo_92688" data-name="Grupo 92688" transform="translate(1052.354 10480.73)">
      <rect id="Rect치ngulo_38955" data-name="Rect치ngulo 38955" width="87.37" height="106.093" transform="translate(1.43 1.424)" fill="#fff"/>
      <path id="Trazado_185758" data-name="Trazado 185758" d="M190.844,217.657H103.48a1.43,1.43,0,0,1-1.43-1.43V110.134a1.424,1.424,0,0,1,1.43-1.424h87.364a1.424,1.424,0,0,1,1.43,1.424V216.226A1.43,1.43,0,0,1,190.844,217.657ZM104.9,214.8h84.5V111.564H104.9Z" transform="translate(-102.05 -108.71)" fill="#4480bf"/>
    </g>
    <g id="Grupo_92689" data-name="Grupo 92689" transform="translate(1060.768 10495.624)">
      <path id="Trazado_185759" data-name="Trazado 185759" d="M119.835,133.953h-3.806a1.43,1.43,0,0,1,0-2.854h3.806a1.43,1.43,0,1,1,0,2.854Z" transform="translate(-114.697 -131.095)" fill="#4480bf"/>
      <path id="Trazado_185760" data-name="Trazado 185760" d="M181.833,133.953H173.69a1.43,1.43,0,1,1,0-2.854h8.144a1.43,1.43,0,0,1,0,2.854Zm-14.251,0h-8.144a1.43,1.43,0,1,1,0-2.854h8.144a1.43,1.43,0,0,1,0,2.854Zm-14.258,0h-8.157a1.43,1.43,0,0,1,0-2.854h8.144a1.43,1.43,0,1,1,0,2.854Zm-14.251,0H130.93a1.43,1.43,0,0,1,0-2.854h8.144a1.43,1.43,0,1,1,0,2.854Z" transform="translate(-119.683 -131.095)" fill="#4480bf"/>
      <path id="Trazado_185761" data-name="Trazado 185761" d="M220.317,133.953h-3.806a1.43,1.43,0,1,1,0-2.854h3.806a1.43,1.43,0,0,1,0,2.854Z" transform="translate(-148.26 -131.095)" fill="#4480bf"/>
    </g>
    <path id="Trazado_185762" data-name="Trazado 185762" d="M186.753,180.774H116.029a1.43,1.43,0,0,1,0-2.854h70.724a1.43,1.43,0,0,1,0,2.854Z" transform="translate(946.071 10348.857)" fill="#4480bf"/>
    <path id="Trazado_185763" data-name="Trazado 185763" d="M186.753,195.364H116.029a1.43,1.43,0,0,1,0-2.854h70.724a1.43,1.43,0,0,1,0,2.854Z" transform="translate(946.071 10343.975)" fill="#4480bf"/>
    <path id="Trazado_185764" data-name="Trazado 185764" d="M186.753,209.954H116.03a1.43,1.43,0,0,1,0-2.854h70.724a1.43,1.43,0,0,1,0,2.854Z" transform="translate(946.071 10339.092)" fill="#4480bf"/>
    <path id="Trazado_185765" data-name="Trazado 185765" d="M186.753,224.564H116.029a1.43,1.43,0,0,1,0-2.854h70.724a1.43,1.43,0,0,1,0,2.854Z" transform="translate(946.071 10334.202)" fill="#4480bf"/>
    <path id="Trazado_185766" data-name="Trazado 185766" d="M186.753,239.134H116.029a1.43,1.43,0,0,1,0-2.854h70.724a1.43,1.43,0,0,1,0,2.854Z" transform="translate(946.071 10329.326)" fill="#4480bf"/>
    <circle id="Elipse_7658" data-name="Elipse 7658" cx="26.373" cy="26.373" r="26.373" transform="translate(1035.967 10511.402)" fill="#6de0d4"/>
    <path id="Trazado_185767" data-name="Trazado 185767" d="M103.11,201.548a27.725,27.725,0,1,1,1.6-.04C104.195,201.535,103.656,201.548,103.11,201.548Zm.047-52.747c-.472,0-.958,0-1.437.04a24.956,24.956,0,1,0,1.437-.04Z" transform="translate(959.19 10359.508)" fill="#4480bf"/>
    <path id="Trazado_185768" data-name="Trazado 185768" d="M105.929,198.619a22.069,22.069,0,0,1-22-20.811,1.43,1.43,0,1,1,2.854-.166,19.215,19.215,0,1,0,18.09-20.272,1.426,1.426,0,0,1-.16-2.848,22.068,22.068,0,1,1,2.5,44.066C106.794,198.613,106.362,198.619,105.929,198.619Z" transform="translate(956.371 10356.701)" fill="#4480bf"/>
    <path id="Trazado_185769" data-name="Trazado 185769" d="M67.924,230.249a1.43,1.43,0,0,1-1.011-2.435L79.727,215a1.43,1.43,0,1,1,2,2L68.935,229.83A1.424,1.424,0,0,1,67.924,230.249Z" transform="translate(962.201 10336.648)" fill="#4480bf"/>
    <g id="Grupo_92691" data-name="Grupo 92691" transform="translate(1001.461 10563.601)">
      <path id="Trazado_185770" data-name="Trazado 185770" d="M28.75,262.012h0a3.593,3.593,0,0,1,0-5.083L49.289,236.39a3.593,3.593,0,0,1,5.083,0h0a3.6,3.6,0,0,1,0,5.09L33.84,262.012a3.6,3.6,0,0,1-5.09,0Z" transform="translate(-26.273 -233.958)" fill="#fff"/>
      <path id="Trazado_185771" data-name="Trazado 185771" d="M30.576,263.8a5.023,5.023,0,0,1-3.546-8.576l20.532-20.532a5.136,5.136,0,0,1,7.106,0,5.017,5.017,0,0,1,0,7.1L34.128,262.363A5,5,0,0,1,30.576,263.8Zm20.559-27.731a2.162,2.162,0,0,0-1.537.665L29.045,257.24a2.182,2.182,0,0,0,0,3.074,2.229,2.229,0,0,0,3.067,0l20.532-20.539a2.176,2.176,0,0,0-1.53-3.706Z" transform="translate(-25.557 -233.265)" fill="#4480bf"/>
    </g>
    <path id="Trazado_185772" data-name="Trazado 185772" d="M29.709,151.519a5.209,5.209,0,1,1,5.209-5.209A5.209,5.209,0,0,1,29.709,151.519Zm0-7.558a2.349,2.349,0,1,0,1.665.686,2.355,2.355,0,0,0-1.665-.686Z" transform="translate(976.258 10361.181)" fill="#4480bf"/>
    <path id="Trazado_185773" data-name="Trazado 185773" d="M29.709,174.469a5.209,5.209,0,1,1,5.209-5.209A5.209,5.209,0,0,1,29.709,174.469Zm0-7.565a2.355,2.355,0,1,0,2.355,2.355A2.355,2.355,0,0,0,29.709,166.9Z" transform="translate(976.258 10353.499)" fill="#4480bf"/>
    <path id="Trazado_185774" data-name="Trazado 185774" d="M29.709,197.409a5.209,5.209,0,1,1,5.209-5.209A5.209,5.209,0,0,1,29.709,197.409Zm0-7.565a2.355,2.355,0,1,0,2.355,2.355,2.355,2.355,0,0,0-2.355-2.355Z" transform="translate(976.258 10345.822)" fill="#4480bf"/>
    <path id="Trazado_185775" data-name="Trazado 185775" d="M29.709,220.349a5.209,5.209,0,1,1,5.209-5.2A5.209,5.209,0,0,1,29.709,220.349Zm0-7.558a2.349,2.349,0,1,0,1.667.688A2.355,2.355,0,0,0,29.709,212.791Z" transform="translate(976.258 10338.145)" fill="#4480bf"/>
    <path id="Trazado_185776" data-name="Trazado 185776" d="M240.757,128.049a1.43,1.43,0,0,1-1.43-1.424V53.838a4.544,4.544,0,0,0-4.544-4.544H184.577a7.4,7.4,0,0,1,0-14.8h50.205a4.551,4.551,0,0,0,4.544-4.544v-.818a4.544,4.544,0,0,0-4.544-4.571H155.109a1.43,1.43,0,0,1,0-2.854h79.673a7.405,7.405,0,0,1,7.405,7.4v.785a7.412,7.412,0,0,1-7.405,7.4H184.577a4.544,4.544,0,0,0,0,9.088h50.205a7.412,7.412,0,0,1,7.405,7.458v72.786A1.43,1.43,0,0,1,240.757,128.049Z" transform="translate(932.992 10401.138)" fill="#4480bf"/>
    <rect id="Rect치ngulo_38956" data-name="Rect치ngulo 38956" width="198.913" height="200" transform="translate(985 10408)" fill="none"/>
  </g>
</svg>
