<svg xmlns="http://www.w3.org/2000/svg" width="125.64" height="128.539" viewBox="0 0 125.64 128.539">
  <g id="Grupo_94283" data-name="Grupo 94283" transform="translate(-412.68 -501)">
    <rect id="Rectángulo_38964" data-name="Rectángulo 38964" width="115.15" height="115.15" transform="translate(414.71 501)" fill="none"/>
    <circle id="Elipse_7663" data-name="Elipse 7663" cx="62.82" cy="62.82" r="62.82" transform="translate(412.68 503.899)" fill="#104c82"/>
    <path id="Trazado_185871" data-name="Trazado 185871" d="M21.42,78.5a3,3,0,0,1,3.4-1.78c.57.06.94,0,1-.77a14.15,14.15,0,0,1,13.74-13.1c2.95-.06,5.89,0,8.84,0a11.12,11.12,0,0,0,0,8.2c-3,0-6.09-.17-9.12.09A5.87,5.87,0,0,0,34,76.06c-.1.54,0,.72.57.69a9.449,9.449,0,0,1,1.19,0,2.43,2.43,0,0,1,2.13,3.79c-1.63,2.87-3.31,5.71-5,8.57-.28.48-.56,1-.85,1.45-1.21,2-3.32,2-4.48,0-2-3.43-3.95-6.88-5.92-10.31a3.73,3.73,0,0,0-.28-.38Z" transform="translate(398.94 491.72)" fill="#039be5"/>
    <path id="Trazado_185872" data-name="Trazado 185872" d="M34.92,117c-5.19,2-11.58-1.39-13.1-6.85a3,3,0,0,0-.4-1.28v-3.38a14.76,14.76,0,0,1,2.19-4.79c2.57-3.34,7.62-4.87,11.34-3.38a3.721,3.721,0,0,1-.47.34c-4.23,2.11-6.36,5.46-6.12,10.25a10,10,0,0,0,3.76,7.31C33,116,34.05,116.32,34.92,117Z" transform="translate(398.94 491.72)" fill="#97cf92"/>
    <path id="Trazado_185873" data-name="Trazado 185873" d="M83.76,22.72c7.25,0,14.5-.16,21.74,0a14,14,0,0,1,13.21,13c.05.7.25.93.92.85a6.73,6.73,0,0,1,1.1,0,2.36,2.36,0,0,1,2.1,3.46q-3,5.43-6.18,10.75a2.32,2.32,0,0,1-4,0c-2.1-3.51-4.17-7.06-6.17-10.64a2.38,2.38,0,0,1,2.05-3.51h.69c1.55,0,1.56,0,1.07-1.54a6.05,6.05,0,0,0-6.09-4.19H83.75a11.93,11.93,0,0,0,.01-8.18Z" transform="translate(398.94 491.72)" fill="#039be5"/>
    <path id="Trazado_185874" data-name="Trazado 185874" d="M96.12,103.11h8.24a6.07,6.07,0,0,0,6.14-5c.12-.62-.06-.76-.62-.73a8.23,8.23,0,0,1-1.49,0,2.35,2.35,0,0,1-1.91-3.45q3-5.41,6.22-10.73a2.34,2.34,0,0,1,4.09.21c1.54,2.58,3,5.2,4.52,7.81.48.83,1,1.66,1.42,2.5a2.41,2.41,0,0,1-2.15,3.7c-1.66,0-1.66,0-1.94,1.68a14.17,14.17,0,0,1-14.48,12.22h-8A11.08,11.08,0,0,0,96.12,103.11Z" transform="translate(398.94 491.72)" fill="#039be5"/>
    <path id="Trazado_185875" data-name="Trazado 185875" d="M41.44,103.11H53.95c.91,0,1.17-.28,1-1.12a4.69,4.69,0,0,1,0-1,2.38,2.38,0,0,1,3.53-2q5.37,3,10.63,6.18a2.33,2.33,0,0,1,0,4q-5.25,3.11-10.59,6.06A2.37,2.37,0,0,1,55,113.11c0-1.84,0-1.84-1.87-1.84H41.32a11.2,11.2,0,0,0,.81-4.4,24.61,24.61,0,0,0-.69-3.76Z" transform="translate(398.94 491.72)" fill="#039be5"/>
    <path id="Trazado_185876" data-name="Trazado 185876" d="M103.06,71H90.46c-.74,0-1,.18-.94.94a5.45,5.45,0,0,1,0,1,2.4,2.4,0,0,1-3.65,2.14c-3.49-2-6.94-4-10.38-6a2.36,2.36,0,0,1,0-4.21q5.13-3,10.32-5.93a2.4,2.4,0,0,1,3.72,2.19c0,1.73,0,1.73,1.8,1.73h11.71a1.859,1.859,0,0,1-.06.48,11.41,11.41,0,0,0-.57,4.53C102.45,69,102.94,70,103.06,71Z" transform="translate(398.94 491.72)" fill="#039be5"/>
    <path id="Trazado_185877" data-name="Trazado 185877" d="M115.94,57.08a10.38,10.38,0,0,1,1.7,19,6.38,6.38,0,0,1-1.89.82c-.06-.51-.54-.53-.87-.7a10.05,10.05,0,0,1-5.64-9.27,9.89,9.89,0,0,1,4.06-8.17C114.13,58.09,115.14,57.75,115.94,57.08Z" transform="translate(398.94 491.72)" fill="#9dc5fa"/>
    <path id="Trazado_185878" data-name="Trazado 185878" d="M83.76,22.72a11.93,11.93,0,0,1,0,8.1,11,11,0,0,1-5.42,5.42c-.3.13-.61.22-.92.33a11.6,11.6,0,0,1-5.18-4.25A10.38,10.38,0,0,1,74.53,18.7c.9-.71,2-1.1,2.88-1.73a10.22,10.22,0,0,1,5.9,5Z" transform="translate(398.94 491.72)" fill="#e18086"/>
    <path id="Trazado_185879" data-name="Trazado 185879" d="M61.37,57.23A9.83,9.83,0,0,1,68,64.48a10.28,10.28,0,0,1-6.69,12.23,10.56,10.56,0,0,1-6.79-10.86,10.38,10.38,0,0,1,6.85-8.62Z" transform="translate(398.94 491.72)" fill="#ffdca8"/>
    <path id="Trazado_185880" data-name="Trazado 185880" d="M96.12,103.11a11.08,11.08,0,0,1,0,8.15A10.57,10.57,0,0,1,89.73,117c-.11-.11-.21-.27-.35-.33a10.22,10.22,0,0,1-4.86-4.18,10.4,10.4,0,0,1,1.31-12.36,19.43,19.43,0,0,1,3.92-2.79,10.3,10.3,0,0,1,6.37,5.77Z" transform="translate(398.94 491.72)" fill="#e18086"/>
    <path id="Trazado_185881" data-name="Trazado 185881" d="M41.44,103.11a24.61,24.61,0,0,1,.67,3.74,11.2,11.2,0,0,1-.81,4.4A10.23,10.23,0,0,1,34.92,117c-.87-.7-2-1-2.8-1.78a10,10,0,0,1-3.76-7.31c-.24-4.79,1.89-8.14,6.12-10.25a3.721,3.721,0,0,0,.47-.34,10.08,10.08,0,0,1,6.1,5.21,1.38,1.38,0,0,0,.39.58Z" transform="translate(398.94 491.72)" fill="#a1e09f"/>
    <path id="Trazado_185882" data-name="Trazado 185882" d="M77.41,17c-.93.63-2,1-2.88,1.73a10.38,10.38,0,0,0-2.29,13.62,11.6,11.6,0,0,0,5.18,4.25c-4,1.72-9.48-.16-12-4.16a10.41,10.41,0,0,1,8.42-16,8.31,8.31,0,0,1,3.57.56Z" transform="translate(398.94 491.72)" fill="#dc646f"/>
    <path id="Trazado_185883" data-name="Trazado 185883" d="M89.75,97.35a19.43,19.43,0,0,0-3.92,2.79,10.4,10.4,0,0,0-1.31,12.36,10.22,10.22,0,0,0,4.86,4.18c.14.06.24.22.35.33-5.43,2-11.9-1.55-13.28-7.4A10.42,10.42,0,0,1,87.37,96.8a6,6,0,0,1,2.38.55Z" transform="translate(398.94 491.72)" fill="#dc646f"/>
    <path id="Trazado_185884" data-name="Trazado 185884" d="M61.37,57.23a10.38,10.38,0,0,0-6.83,8.62,10.56,10.56,0,0,0,6.79,10.86A9.91,9.91,0,0,1,51.2,74.8a10.16,10.16,0,0,1-2.8-12A10.35,10.35,0,0,1,56,56.77a8,8,0,0,1,5.37.46Z" transform="translate(398.94 491.72)" fill="#ffa726"/>
    <path id="Trazado_185885" data-name="Trazado 185885" d="M115.94,57.08c-.8.67-1.81,1-2.64,1.66a9.89,9.89,0,0,0-4.06,8.17,10.05,10.05,0,0,0,5.64,9.27c.33.17.81.19.87.7a10.39,10.39,0,0,1-12.16-5c-.15-.28-.35-.55-.53-.82-.12-1.07-.61-2.06-.64-3.16a11.41,11.41,0,0,1,.57-4.53,1.859,1.859,0,0,0,.06-.48c.48-.74.93-1.5,1.45-2.2A10.3,10.3,0,0,1,115.94,57.08Z" transform="translate(398.94 491.72)" fill="#81b4f9"/>
  </g>
</svg>
