<svg xmlns="http://www.w3.org/2000/svg" width="136.256" height="136.229" viewBox="0 0 136.256 136.229">
  <g id="Grupo_94345" data-name="Grupo 94345" transform="translate(-413 -1840.366)">
    <rect id="Rectángulo_39776" data-name="Rectángulo 39776" width="115.15" height="115.15" transform="translate(421.899 1842.776)" fill="none"/>
    <path id="Trazado_190956" data-name="Trazado 190956" d="M69.39,6.87H80.3c.11.35.42.24.66.27a67.22,67.22,0,0,1,34,12.72c-1.45,1.48-2.88,3-4.35,4.45Q103.82,31,97,37.76H80.4c-.92,0-1.29.37-1.23,1.27a6.25,6.25,0,0,1,0,1.06c-.16,1.25.32,1.71,1.62,1.69,4.07-.06,8.15,0,12.22,0a45.64,45.64,0,0,1-4,4H81.72c-2.62,0-2.57,0-2.58,2.58,0,1.14.45,1.46,1.5,1.42,1.46-.05,2.92,0,4.38,0a47,47,0,0,1-4,4c-1.88-.07-1.9,0-1.83,1.82-.33.36-.64.73-1,1.07Q68.12,66.8,57.94,77c-1.09,1.09-2.15,2.21-3.23,3.32L52.89,81.9A18.69,18.69,0,0,0,47.8,81C35.87,80.34,25.94,91.48,28,103.24c1.77,10.11,10.09,16.69,20.48,16.2A19.115,19.115,0,0,0,66.2,98.9l3.47-3.63c.39-.36.8-.7,1.17-1.07l35.49-35.49c.38-.37.78-.71,1.17-1.07h10.21c2.54,0,2.5,0,2.51-2.52,0-1.08-.34-1.51-1.45-1.49-2.43.06-4.86,0-7.29,0,.26-.29.5-.61.78-.88q7.27-7.29,14.55-14.55c1.1-1.09,2.22-2.15,3.33-3.23.17.26.34.52.52.78,11.26,16.41,15,34.43,10.78,53.85A68.07,68.07,0,0,1,7.58,84.78a15.94,15.94,0,0,0-.71-4.22V69.39c.41-.15.25-.52.28-.8a76.872,76.872,0,0,1,1.33-8.38A68.15,68.15,0,0,1,65.17,7.58a15.94,15.94,0,0,0,4.22-.71ZM61.75,37.1c-.32-.3-.65-.6-1-.91a18.56,18.56,0,0,0-16.37-5.55C36.54,31.81,31.09,36.34,28.71,44s-.59,14.38,5.22,19.79,12.78,6.7,20.22,3.82a19.06,19.06,0,0,0,10.69-25.1c3.3-3.33,6.58-6.68,9.91-10,.72-.71.83-1.24,0-1.94a23.889,23.889,0,0,1-2.25-2.25c-.7-.8-1.22-.73-2,0C67.67,31.25,64.7,34.17,61.75,37.1Zm38,51.18H81.93c-2.92,0-3,.08-2.73,3,.07.72.36,1,1.07,1H118.4c.52,0,1.2.22,1.51-.25a4.6,4.6,0,0,0,.21-3.1c-.1-.86-.94-.62-1.52-.63q-9.43-.04-18.87-.02Zm0,16H81.93c-2.92,0-3,.08-2.73,3,.07.72.36,1,1.07,1H118.4c.51,0,1.2.23,1.51-.25.6-.94.33-2.07.21-3.09-.1-.86-.94-.63-1.52-.63-6.29-.08-12.6-.07-18.87-.07Zm-4-8H80.88c-.47,0-1.12-.19-1.36.29a4.87,4.87,0,0,0-.14,3.11c.16.9,1.08.57,1.69.57h29c2.28,0,2.28,0,2.27-2.23,0-1.74,0-1.76-1.8-1.76-5.03-.01-9.94,0-14.86,0Z" transform="translate(406.13 1833.496)" fill="#104c82"/>
    <path id="Trazado_190957" data-name="Trazado 190957" d="M134.85,30.07c-1.39,1.82-3.23,3.21-4.71,4.94-1.11,1.08-2.23,2.14-3.33,3.23q-7.29,7.26-14.55,14.55c-.28.27-.52.59-.78.88a46.6,46.6,0,0,0-4,4c-.39.36-.79.7-1.17,1.07L70.84,94.2c-.37.37-.78.71-1.17,1.07L59.25,84.74c.46-.48.92-1,1.39-1.43L123,21c.44-.44.86-.9,1.28-1.35.36.31.73.62,1.07.95Z" transform="translate(406.13 1833.496)" fill="#fcbe43"/>
    <path id="Trazado_190958" data-name="Trazado 190958" d="M124.23,19.64c-.42.45-.84.91-1.28,1.35L60.64,83.31c-.47.47-.93,1-1.39,1.43l-4.54-4.45c1.08-1.11,2.14-2.23,3.23-3.32Q68.1,66.79,78.27,56.62c.34-.34.65-.71,1-1.07a9.56,9.56,0,0,0,1.83-1.82,47,47,0,0,0,4-4,47,47,0,0,0,4-4,45.641,45.641,0,0,0,4-4,44.191,44.191,0,0,0,4-4q6.78-6.72,13.55-13.45c1.47-1.47,2.9-3,4.35-4.45l4.91-4.74Z" transform="translate(406.13 1833.496)" fill="#fa9303"/>
    <path id="Trazado_190959" data-name="Trazado 190959" d="M64.84,42.46a19.06,19.06,0,0,1-10.69,25.1c-7.44,2.88-14.39,1.62-20.22-3.82S26.35,51.49,28.71,44s7.83-12.14,15.71-13.31a18.56,18.56,0,0,1,16.37,5.55c.31.31.64.61,1,.91L58.83,40c-3.79-4.35-8.61-6.28-14.27-5.31-6.4,1.1-10.68,5-12.28,11.27a14.37,14.37,0,0,0,5.29,15.69c5,4,10.71,4.48,16.47,1.62a14.94,14.94,0,0,0,7.63-17.63A31.42,31.42,0,0,1,64.84,42.46Z" transform="translate(406.13 1833.496)" fill="#85b7d1"/>
    <path id="Trazado_190960" data-name="Trazado 190960" d="M66.2,98.9c1,10.29-7.39,20-17.72,20.54A19.2,19.2,0,0,1,28,103.24C25.94,91.48,35.87,80.34,47.8,81a18.689,18.689,0,0,1,5.09.89c-1,1.1-2.11,2.2-3.16,3.31C40.17,83.77,32,90.52,31.8,100a15.23,15.23,0,1,0,30.441,1.07A7.9,7.9,0,0,0,66.2,98.9Z" transform="translate(406.13 1833.496)" fill="#85b7d1"/>
    <path id="Trazado_190961" data-name="Trazado 190961" d="M64.84,42.46a31.42,31.42,0,0,0-3.17,3.15c-.35.33-.72.65-1.07,1q-5.88,5.88-11.74,11.76c-.83.83-1.57,1-2.48.12q-5.48-5.53-11-11c-.61-.61-.62-1.07,0-1.65a23.171,23.171,0,0,0,2.15-2.17c.81-1,1.42-1,2.33,0,2.19,2.31,4.5,4.53,6.75,6.79.51.51,1,.93,1.65.22Q53.54,45.29,58.83,40l2.92-2.87c3-2.93,5.92-5.85,8.83-8.81.73-.74,1.25-.81,2,0a23.89,23.89,0,0,0,2.25,2.25c.8.7.69,1.23,0,1.94C71.42,35.78,68.14,39.13,64.84,42.46Z" transform="translate(406.13 1833.496)" fill="#faeb33"/>
    <path id="Trazado_190962" data-name="Trazado 190962" d="M66.2,98.9a7.9,7.9,0,0,1-4,2.16,5.38,5.38,0,0,1-3.35-1c-.68-.55-1.1-.34-1.66.2a13.66,13.66,0,0,1-3,2.73Q50.42,99.53,47,95.72c.67-1.28,1.87-2.07,2.81-3.1.38-.42.71-.74.26-1.33-1.48-2-1.32-4-.3-6.08,1.05-1.11,2.11-2.21,3.16-3.31l1.82-1.61,4.54,4.45L69.67,95.27Z" transform="translate(406.13 1833.496)" fill="#034c67"/>
    <path id="Trazado_190963" data-name="Trazado 190963" d="M99.73,88.28H118.6c.58,0,1.42-.23,1.52.63a4.594,4.594,0,0,1-.21,3.1c-.31.47-1,.25-1.51.25H80.27c-.71,0-1-.3-1.07-1-.25-2.88-.19-3,2.73-3Z" transform="translate(406.13 1833.496)" fill="#6ca9c8"/>
    <path id="Trazado_190964" data-name="Trazado 190964" d="M99.73,104.24H118.6c.58,0,1.42-.23,1.52.63.12,1,.39,2.15-.21,3.09-.31.48-1,.25-1.51.25H80.27c-.71,0-1-.31-1.07-1-.24-2.88-.19-3,2.73-3Z" transform="translate(406.13 1833.496)" fill="#6ca9c8"/>
    <path id="Trazado_190965" data-name="Trazado 190965" d="M95.68,96.26h14.74c1.78,0,1.79,0,1.8,1.76,0,2.23,0,2.23-2.27,2.23H81c-.61,0-1.53.33-1.69-.57a4.87,4.87,0,0,1,.14-3.11c.24-.48.89-.29,1.36-.29C85.77,96.25,90.73,96.26,95.68,96.26Z" transform="translate(406.13 1833.496)" fill="#6ca9c8"/>
    <path id="Trazado_190966" data-name="Trazado 190966" d="M97,37.76a44.19,44.19,0,0,1-4,4c-4.07,0-8.15-.07-12.22,0-1.3,0-1.78-.44-1.62-1.69a6.25,6.25,0,0,0,0-1.06c-.06-.9.31-1.28,1.23-1.27C86,37.75,91.51,37.75,97,37.76Z" transform="translate(406.13 1833.496)" fill="#6ca9c8"/>
    <path id="Trazado_190967" data-name="Trazado 190967" d="M107.5,57.64a46.6,46.6,0,0,1,4-4c2.43,0,4.86.06,7.29,0,1.11,0,1.46.41,1.45,1.49,0,2.52,0,2.52-2.51,2.52Z" transform="translate(406.13 1833.496)" fill="#6ca9c7"/>
    <path id="Trazado_190968" data-name="Trazado 190968" d="M89.06,45.75a47,47,0,0,1-4,4c-1.46,0-2.92-.08-4.38,0-1,0-1.5-.28-1.5-1.42,0-2.58,0-2.58,2.58-2.58Z" transform="translate(406.13 1833.496)" fill="#6ca9c7"/>
    <path id="Trazado_190969" data-name="Trazado 190969" d="M81.08,53.73a9.56,9.56,0,0,1-1.83,1.82C79.18,53.68,79.2,53.66,81.08,53.73Z" transform="translate(406.13 1833.496)" fill="#6ca9c7"/>
    <path id="Trazado_190970" data-name="Trazado 190970" d="M124.23,19.64l-4.38-4.52c3.12-3.5,3.93-3.53,7.17-.29l8.91,8.91c2.08,2.09,2.08,3.24,0,5.34-.34.34-.71.66-1.06,1l-9.55-9.48C125,20.26,124.59,20,124.23,19.64Z" transform="translate(406.13 1833.496)" fill="#054d67"/>
    <path id="Trazado_190971" data-name="Trazado 190971" d="M58.83,40q-5.28,5.3-10.57,10.63c-.69.71-1.14.29-1.65-.22-2.25-2.26-4.56-4.48-6.75-6.79-.91-1-1.52-.93-2.33,0a23.17,23.17,0,0,1-2.15,2.17c-.63.58-.62,1,0,1.65q5.54,5.48,11,11c.91.92,1.65.71,2.48-.12Q54.71,52.47,60.6,46.6c.35-.34.72-.66,1.07-1A14.94,14.94,0,0,1,54,63.24c-5.76,2.86-11.42,2.38-16.47-1.62a14.37,14.37,0,0,1-5.29-15.69c1.6-6.29,5.88-10.17,12.28-11.27C50.22,33.69,55,35.62,58.83,40Z" transform="translate(406.13 1833.496)" fill="#037295"/>
    <path id="Trazado_190972" data-name="Trazado 190972" d="M49.73,85.21c-1,2.08-1.18,4.13.3,6.08.45.59.12.91-.26,1.33a15.108,15.108,0,0,0-2.81,3.1c-1.87,1.38-3.67,2.85-3.89,5.37-.14,1.62,0,3.27-.06,4.9,0,.68.26,1,.94,1,1.2,0,2.39-.07,3.58,0,3.16.21,5-1.67,6.7-4a13.66,13.66,0,0,0,3-2.73c.56-.54,1-.75,1.66-.2a5.38,5.38,0,0,0,3.35,1A15.23,15.23,0,1,1,31.8,100C32,90.52,40.17,83.77,49.73,85.21Z" transform="translate(406.13 1833.496)" fill="#027295"/>
    <path id="Trazado_190973" data-name="Trazado 190973" d="M54.23,103c-1.66,2.29-3.54,4.17-6.7,4-1.19-.08-2.38,0-3.58,0-.68,0-1-.27-.94-1,0-1.63-.08-3.28.06-4.9.22-2.52,2-4,3.89-5.37Q50.43,99.53,54.23,103Z" transform="translate(406.13 1833.496)" fill="#f8ea33"/>
  </g>
</svg>
