<svg xmlns="http://www.w3.org/2000/svg" width="287.406" height="282.241" viewBox="0 0 287.406 282.241">
  <g id="Grupo_94247" data-name="Grupo 94247" transform="translate(-932 -2732)">
    <g id="Grupo_91955" data-name="Grupo 91955" transform="translate(925.706 2720)">
      <path id="Trazado_181522" data-name="Trazado 181522" d="M18.94,32.59a12.57,12.57,0,0,1,8.93,3.71h0a12.63,12.63,0,0,1,0,17.86h0a12.63,12.63,0,0,1-17.86,0h0A12.6,12.6,0,0,1,10,36.3h0a12.6,12.6,0,0,1,8.93-3.71Zm6.11,6.54h0a8.66,8.66,0,1,0,2.52,6.1,8.66,8.66,0,0,0-2.52-6.1Z" fill="#4dd0e1" fill-rule="evenodd"/>
      <path id="Trazado_181523" data-name="Trazado 181523" d="M63.59,32.59a12.57,12.57,0,0,1,8.93,3.71h0a12.63,12.63,0,0,1,0,17.86h0a12.63,12.63,0,0,1-17.86,0h0a12.61,12.61,0,0,1,0-17.87h0a12.58,12.58,0,0,1,8.93-3.71Zm6.11,6.54h0a8.63,8.63,0,0,0-12.2,0h0a8.62,8.62,0,0,0,0,12.19h0A8.63,8.63,0,0,0,69.7,39.13Z" fill="#4dd0e1" fill-rule="evenodd"/>
      <path id="Trazado_181524" data-name="Trazado 181524" d="M108.25,32.59a12.62,12.62,0,0,1,8.93,3.71h0a12.61,12.61,0,0,1,0,17.86l-.12.12a12.63,12.63,0,0,1-17.74-.12h0a12.63,12.63,0,0,1,0-17.86h0A12.57,12.57,0,0,1,108.25,32.59Zm6.09,6.54h0a8.633,8.633,0,1,0-.09,12.3l.09-.1a8.62,8.62,0,0,0,0-12.19Z" fill="#4dd0e1" fill-rule="evenodd"/>
      <path id="Trazado_181525" data-name="Trazado 181525" d="M152.9,32.59a12.6,12.6,0,0,1,8.931,3.711h0a12.6,12.6,0,0,1,0,17.86h0a12.63,12.63,0,0,1-17.86,0h0a12.63,12.63,0,0,1,0-17.86h0a12.57,12.57,0,0,1,8.93-3.71Zm6.1,6.54h0a8.66,8.66,0,1,0,2.52,6.1,8.66,8.66,0,0,0-2.52-6.1Z" fill="#4dd0e1" fill-rule="evenodd"/>
      <path id="Trazado_181526" data-name="Trazado 181526" d="M18.94,75.12a12.6,12.6,0,0,1,8.94,3.7l.12.12a12.64,12.64,0,0,1-.12,17.75h0A12.63,12.63,0,0,1,10,96.7h0a12.64,12.64,0,0,1,8.93-21.57ZM25,81.66h0a7.53,7.53,0,1,0,.1.09Z" fill="#4dd0e1" fill-rule="evenodd"/>
      <path id="Trazado_181527" data-name="Trazado 181527" d="M18.94,117.64a12.57,12.57,0,0,1,8.93,3.71h0a12.63,12.63,0,0,1,0,17.86h0a12.63,12.63,0,0,1-17.86,0h0a12.61,12.61,0,0,1,0-17.87h0a12.6,12.6,0,0,1,8.93-3.71Zm6.11,6.54h0a8.63,8.63,0,1,0-12.2,12.2h0a8.634,8.634,0,0,0,12.21-12.21Z" fill="#4dd0e1" fill-rule="evenodd"/>
      <path id="Trazado_181528" data-name="Trazado 181528" d="M63.59,75.12a12.64,12.64,0,0,1,8.94,21.57h0A12.632,12.632,0,1,1,54.66,78.83h0a12.59,12.59,0,0,1,8.93-3.7Zm6.1,6.54h0a8.63,8.63,0,1,0,2.53,6.1,8.63,8.63,0,0,0-2.53-6.1Z" fill="#4dd0e1" fill-rule="evenodd"/>
      <path id="Trazado_181529" data-name="Trazado 181529" d="M63.59,117.64a12.57,12.57,0,0,1,8.93,3.71h0a12.64,12.64,0,0,1,0,17.87l-.12.12a12.64,12.64,0,0,1-17.75-.12h0a12.6,12.6,0,0,1,0-17.86h0a12.58,12.58,0,0,1,8.93-3.71Zm6.11,6.54h0a8.63,8.63,0,0,0-12.2,0h0a8.638,8.638,0,0,0,12.13,12.3l.09-.1a8.63,8.63,0,0,0,0-12.2Z" fill="#4dd0e1" fill-rule="evenodd"/>
      <path id="Trazado_181530" data-name="Trazado 181530" d="M63.59,160.17a12.64,12.64,0,0,1,8.94,21.57h0a12.632,12.632,0,0,1-17.86-17.87h0a12.59,12.59,0,0,1,8.93-3.7Zm6.1,6.54h0a8.63,8.63,0,1,0,2.53,6.1,8.63,8.63,0,0,0-2.53-6.1Z" fill="#4dd0e1" fill-rule="evenodd"/>
      <path id="Trazado_181531" data-name="Trazado 181531" d="M108.25,75.12a12.59,12.59,0,0,1,8.93,3.7h0a12.61,12.61,0,0,1,0,17.87l-.12.11a12.62,12.62,0,0,1-17.74-.11h0a12.63,12.63,0,0,1,0-17.86h0a12.58,12.58,0,0,1,8.94-3.7Zm6.1,6.54h0a8.64,8.64,0,0,0-12.2,0h0A8.641,8.641,0,1,0,114.25,94l.09-.09a8.63,8.63,0,0,0,0-12.2Z" fill="#4dd0e1" fill-rule="evenodd"/>
      <path id="Trazado_181532" data-name="Trazado 181532" d="M108.25,117.64a12.62,12.62,0,0,1,8.93,3.71h0a12.6,12.6,0,0,1,0,17.85h0a12.63,12.63,0,0,1-17.86,0h0a12.63,12.63,0,0,1,0-17.86h0a12.57,12.57,0,0,1,8.93-3.71Zm6.09,6.54h0a8.613,8.613,0,1,0,.01.01Z" fill="#4dd0e1" fill-rule="evenodd"/>
      <path id="Trazado_181533" data-name="Trazado 181533" d="M108.25,160.17a12.59,12.59,0,0,1,8.93,3.7h0a12.61,12.61,0,0,1,0,17.87l-.12.11a12.62,12.62,0,0,1-17.74-.11h0a12.63,12.63,0,0,1,0-17.86h0a12.58,12.58,0,0,1,8.94-3.7Zm6.1,6.54h0a8.64,8.64,0,0,0-12.2,0h0A8.63,8.63,0,0,0,114.25,179l.09-.09a8.63,8.63,0,0,0,0-12.2Z" fill="#4dd0e1" fill-rule="evenodd"/>
      <path id="Trazado_181534" data-name="Trazado 181534" d="M152.9,75.12a12.63,12.63,0,0,1,8.93,21.57h0a12.63,12.63,0,0,1-17.86,0h0a12.63,12.63,0,0,1,0-17.86h0a12.6,12.6,0,0,1,8.94-3.7Zm6.1,6.54h0a8.63,8.63,0,0,0-12.19,0h0a8.63,8.63,0,1,0,12.19,0Z" fill="#4dd0e1" fill-rule="evenodd"/>
      <path id="Trazado_181535" data-name="Trazado 181535" d="M152.9,117.64a12.6,12.6,0,0,1,8.931,3.711h0a12.61,12.61,0,0,1,0,17.87l-.12.12a12.63,12.63,0,0,1-17.74-.12h0a12.63,12.63,0,0,1,0-17.86h0a12.57,12.57,0,0,1,8.93-3.71Zm6.1,6.54h0a8.63,8.63,0,1,0-.1,12.3l.09-.1a8.63,8.63,0,0,0,0-12.2Z" fill="#4dd0e1" fill-rule="evenodd"/>
      <path id="Trazado_181536" data-name="Trazado 181536" d="M152.9,160.17a12.63,12.63,0,0,1,8.93,21.57h0a12.63,12.63,0,0,1-17.86,0h0a12.63,12.63,0,0,1,0-17.86h0a12.6,12.6,0,0,1,8.94-3.7Zm6.09,6.54h0a8.63,8.63,0,0,0-12.19,0h0a8.63,8.63,0,1,0,12.19,0Z" fill="#4dd0e1" fill-rule="evenodd"/>
      <rect id="Rectángulo_38340" data-name="Rectángulo 38340" width="24.1" height="4.22" transform="translate(28.54 43.52)" fill="#4dd0e1"/>
      <rect id="Rectángulo_38341" data-name="Rectángulo 38341" width="24.1" height="4.22" transform="translate(73.94 86.1)" fill="#4dd0e1"/>
      <rect id="Rectángulo_38342" data-name="Rectángulo 38342" width="4.22" height="23.4" transform="translate(105.68 54.97)" fill="#4dd0e1"/>
      <rect id="Rectángulo_38343" data-name="Rectángulo 38343" width="38.2" height="4.4" transform="translate(115.445 121.197) rotate(-45)" fill="#4dd0e1"/>
    </g>
    <g id="Grupo_91971" data-name="Grupo 91971" transform="translate(925.706 2720)">
      <g id="Grupo_91956" data-name="Grupo 91956">
        <path id="Trazado_181537" data-name="Trazado 181537" d="M182.9,142.65c-.39,0-.57.48-.68,1l-.54,2.29a14.721,14.721,0,0,0-1.49.12l-.79-1.34c-.26-.44-.56-.83-.94-.73h-4.83l-2.19.62c-.37.11-.43.61-.42,1.12l.06,2.43c-.77.28-1.52.58-2.26.91l-.07-.07a1.59,1.59,0,0,0-.86-.5c-1.58,0-3.45.07-5.09.07l-1.91,1.23c-.33.21-.24.7-.08,1.19l.75,2.29a38.831,38.831,0,0,0-3.12,2.58h-4.37a.44.44,0,0,0-.34.16l-1.49,1.72c-.26.3,0,.74.26,1.17l1.36,2a37.121,37.121,0,0,0-3,4.53h-3.18a.61.61,0,0,0-.62.3l-.94,2.07c-.16.35.18.72.59,1l1.86,1.51A37.5,37.5,0,0,0,146.9,176l-2.43.32c-.51.06-1,.19-1,.58l-.29,2.25c-.05.39.39.64.87.83l2.19.88c-.07,1-.11,2-.11,3a27.348,27.348,0,0,0,.11,3l-2.19.88c-.48.19-.92.44-.87.82l.29,2.26c.05.38.53.51,1,.58l2.43.31a37.281,37.281,0,0,0,1.67,5.69l-1.86,1.51c-.41.32-.75.68-.59,1,.33.71.62,1.35.94,2.07a.61.61,0,0,0,.61.3h3.19a37.12,37.12,0,0,0,3,4.53l-1.36,2c-.29.43-.52.87-.26,1.17l1.49,1.71a.45.45,0,0,0,.41.16h4.3a36.705,36.705,0,0,0,3.12,2.57l-.75,2.3c-.16.49-.25,1,.08,1.19l1.91,1.22a.46.46,0,0,0,.25.08h4.84a1.53,1.53,0,0,0,.86-.5l.07-.07c.74.33,1.49.63,2.26.91l-.06,2.42c0,.52,0,1,.42,1.12l2.19.62h4.83a.55.55,0,0,0,.18,0c.3,0,.55-.38.77-.75l.78-1.34,1.45.13.69,2.38c.14.5.34.95.73.94h4.84l2.27-.06c.39,0,.56-.47.68-1l.54-2.29,1.49-.12.78,1.33c.26.45.57.84,1,.73h4.83l2.18-.62c.38-.1.44-.6.43-1.11l-.06-2.43c.76-.28,1.52-.58,2.25-.91l.08.07a1.6,1.6,0,0,0,.82.49c.49.05,4.22,0,4.88,0a.49.49,0,0,0,.25-.08l1.91-1.22c.33-.21.24-.7.08-1.19l-.75-2.3A37.629,37.629,0,0,0,216,210.5l2.16,1.07c.46.23.94.39,1.19.09l1.49-1.71c.25-.3,0-.74-.26-1.17l-1.37-2a37.261,37.261,0,0,0,3.22-5l2.38.41c.51.09,1,.1,1.17-.25l.93-2.07c.17-.36-.18-.72-.58-1l-1.86-1.51a37.281,37.281,0,0,0,1.67-5.69l2.43-.31c.51-.07,1-.2,1-.58.1-.78.19-1.48.28-2.25.05-.39-.38-.64-.86-.83l-2.2-.88q.12-1.5.12-3a25.083,25.083,0,0,0-.12-3L229,180c.48-.19.91-.44.86-.83-.09-.77-.18-1.47-.28-2.25,0-.39-.53-.52-1-.58l-2.43-.32a38,38,0,0,0-1.67-5.69l1.86-1.5c.4-.32.75-.68.59-1-.33-.71-.62-1.36-.94-2.07-.16-.36-.66-.34-1.17-.25l-2.38.41a39,39,0,0,0-3.21-5l1.36-2c.29-.43.51-.87.26-1.17-.51-.59-1-1.12-1.49-1.72-.25-.29-.73-.13-1.19.1L216,157.15a38.56,38.56,0,0,0-4.48-3.89l.75-2.29c.16-.49.24-1-.08-1.19-.66-.42-1.26-.8-1.91-1.23a.58.58,0,0,0-.28-.07h-4.78a1.48,1.48,0,0,0-.89.5l-.08.07c-.74-.33-1.49-.63-2.25-.91l.06-2.43c0-.51-.05-1-.43-1.11a22.882,22.882,0,0,0-2.31-.64c-.21,0-4.48-.11-4.94,0-.27.07-.5.39-.71.73l-.79,1.34c-.48,0-1-.09-1.45-.12l-.68-2.38c-.14-.5-.34-.95-.74-.94l-7.1.05ZM186.53,157a27,27,0,0,1,0,53.71,27,27,0,0,1,0-53.71Z" fill="#467cdd" fill-rule="evenodd"/>
        <path id="Trazado_181538" data-name="Trazado 181538" d="M190,142.6l-2.27.05c-.39,0-.56.48-.68,1l-.54,2.29a38.279,38.279,0,0,0-5.9.84l-1.21-2.06c-.26-.44-.56-.83-.94-.73l-2.18.62c-.38.11-.44.61-.42,1.12v2.43a38.75,38.75,0,0,0-5.4,2.47L168.75,149c-.38-.35-.79-.64-1.11-.43l-1.92,1.23c-.32.21-.24.7-.08,1.19l.75,2.29a38.561,38.561,0,0,0-4.48,3.89l-2.16-1.06c-.46-.23-.94-.39-1.19-.1-.51.6-1,1.13-1.49,1.72-.25.3,0,.74.26,1.17l1.36,2a38.2,38.2,0,0,0-3.21,5l-2.38-.41c-.51-.09-1-.11-1.17.25l-.93,2.07c-.16.35.18.72.58,1l1.86,1.51a38.68,38.68,0,0,0-1.67,5.68l-2.42.32c-.52.06-1,.19-1,.58-.1.78-.18,1.48-.28,2.25-.05.39.38.64.86.83l2.2.88q-.12,1.5-.12,3a25.083,25.083,0,0,0,.12,3l-2.2.88c-.48.19-.91.44-.86.82.1.78.19,1.48.28,2.26,0,.38.53.51,1,.58l2.42.31a37.279,37.279,0,0,0,1.67,5.69l-1.86,1.51c-.4.32-.74.68-.58,1l.93,2.07c.16.35.66.34,1.17.25l2.38-.41a38.2,38.2,0,0,0,3.21,5l-1.36,2c-.29.43-.51.87-.26,1.17l1.49,1.71c.25.3.73.14,1.19-.09l2.16-1.06a38.47,38.47,0,0,0,4.48,3.88l-.75,2.3c-.15.49-.24,1,.08,1.19l1.92,1.22c.32.21.73-.07,1.11-.42l1.76-1.63a39.941,39.941,0,0,0,5.4,2.47v2.42c0,.52,0,1,.42,1.12l2.18.62c.38.11.69-.28.95-.73l1.21-2a38.827,38.827,0,0,0,5.86.84l.68,2.38c.15.5.35.95.74.94l2.27-.06c.39,0,.56-.47.68-1l.54-2.29a38.282,38.282,0,0,0,5.9-.84l1.21,2c.26.45.57.84.94.73l2.18-.62c.38-.1.44-.6.43-1.11l-.06-2.43a37.13,37.13,0,0,0,5.4-2.47l1.76,1.63c.38.35.79.63,1.12.42l1.91-1.22c.33-.21.24-.7.08-1.19l-.75-2.3a37.631,37.631,0,0,0,4.44-3.9l2.16,1.07c.46.23.94.39,1.19.09l1.49-1.71c.25-.3,0-.74-.26-1.17l-1.37-2a37.261,37.261,0,0,0,3.22-5l2.38.41c.51.09,1,.1,1.17-.25l.93-2.07c.17-.36-.18-.72-.58-1l-1.86-1.51a37.281,37.281,0,0,0,1.67-5.69l2.43-.31c.51-.07,1-.2,1-.58.1-.78.19-1.48.28-2.25.05-.39-.38-.64-.86-.83l-2.2-.88q.12-1.5.12-3a25.083,25.083,0,0,0-.12-3L229,180c.48-.19.91-.44.86-.83-.09-.77-.18-1.47-.28-2.25,0-.39-.53-.52-1-.58l-2.43-.32a38,38,0,0,0-1.67-5.69l1.86-1.5c.4-.32.75-.68.59-1-.33-.71-.62-1.36-.94-2.07-.16-.36-.66-.34-1.17-.25l-2.38.41a39,39,0,0,0-3.21-5l1.36-2c.29-.43.51-.87.26-1.17-.51-.59-1-1.12-1.49-1.72-.25-.29-.73-.13-1.19.1L216,157.15a38.56,38.56,0,0,0-4.48-3.89l.75-2.29c.16-.49.24-1-.08-1.19-.66-.42-1.26-.8-1.91-1.23-.33-.21-.74.08-1.12.43l-1.76,1.63a38.231,38.231,0,0,0-5.4-2.47l.06-2.43c0-.51-.05-1-.43-1.11l-2.18-.63c-.37-.1-.68.29-.94.73l-1.21,2.06a37.9,37.9,0,0,0-5.87-.84l-.68-2.38c-.14-.5-.34-.95-.74-.94Zm-1,14.26a27,27,0,1,1-27,27A27,27,0,0,1,189,156.86Z" fill="#039be5" fill-rule="evenodd"/>
      </g>
      <g id="Grupo_91957" data-name="Grupo 91957">
        <path id="Trazado_181539" data-name="Trazado 181539" d="M11.31,183.83h0a52.238,52.238,0,0,0,52.22,52.23h.01a52.6,52.6,0,0,0,9.87-.93c1-.2,2.08-.43,3.1-.69.41-.11.81-.23,1.23-.33,1.14-.27,2.34-4.38-1.44-3.41-1,.25-1.94.49-2.92.69a49.089,49.089,0,0,1-9.84,1h0A48.57,48.57,0,0,1,15,183.83h0a48.6,48.6,0,0,1,62-46.69c3.38.13,3-2.82.91-3.56a52.25,52.25,0,0,0-66.53,50.25Z" fill="#4b7995" fill-rule="evenodd"/>
        <path id="Trazado_181540" data-name="Trazado 181540" d="M76.31,136.97l115.18,30,.91-3.54-115.18-30Z" fill="#4b7995" fill-rule="evenodd"/>
        <path id="Trazado_181541" data-name="Trazado 181541" d="M77.23,234.24l115.17-30-.91-3.55L76.31,230.7Z" fill="#46647e" fill-rule="evenodd"/>
        <path id="Trazado_181542" data-name="Trazado 181542" d="M168.37,183.83a20.52,20.52,0,0,0,6,14.55h0a20.59,20.59,0,0,0,29.12,0h0a20.59,20.59,0,0,0,0-29.12h0a20.59,20.59,0,0,0-29.12,0h0a20.53,20.53,0,0,0-6,14.56Zm11.49,0a9.09,9.09,0,1,1,9.09,9.08A9.09,9.09,0,0,1,179.86,183.83Z" fill="#c25257" fill-rule="evenodd"/>
      </g>
      <g id="Grupo_91958" data-name="Grupo 91958">
        <path id="Trazado_181543" data-name="Trazado 181543" d="M14.74,183.83a48.815,48.815,0,1,0,0-.02Zm27.24,0a21.534,21.534,0,1,0,.02,0Z" fill="#ffa726" fill-rule="evenodd"/>
        <path id="Trazado_181544" data-name="Trazado 181544" d="M28.09,183.83a35.46,35.46,0,1,0,35.457-35.46A35.46,35.46,0,0,0,28.09,183.83Zm13.89,0a21.534,21.534,0,1,0,.02,0Z" fill="#fca60f" fill-rule="evenodd"/>
      </g>
      <g id="Grupo_91959" data-name="Grupo 91959">
        <path id="Trazado_181545" data-name="Trazado 181545" d="M168.37,183.83a20.52,20.52,0,0,0,6,14.55h0a20.59,20.59,0,0,0,29.12,0h0a20.59,20.59,0,0,0,0-29.12h0a20.59,20.59,0,0,0-29.12,0h0a20.53,20.53,0,0,0-6,14.56Zm11.49,0a9.09,9.09,0,1,1,9.09,9.08A9.09,9.09,0,0,1,179.86,183.83Z" fill="#c25257" fill-rule="evenodd"/>
        <path id="Trazado_181546" data-name="Trazado 181546" d="M174.75,183.83a14.16,14.16,0,0,0,4.16,10h0a14.2,14.2,0,0,0,20.08,0h0a14.2,14.2,0,0,0,0-20.08h0a14.2,14.2,0,0,0-20.08,0h0a14.16,14.16,0,0,0-4.16,10Zm5.11,0a9.09,9.09,0,1,1,9.09,9.08A9.09,9.09,0,0,1,179.86,183.83Z" fill="#d03ea8" fill-rule="evenodd"/>
      </g>
      <g id="Grupo_91970" data-name="Grupo 91970">
        <path id="Trazado_181547" data-name="Trazado 181547" d="M164.39,140.71a.474.474,0,1,1-.54-.78l20.57-23.06a.47.47,0,0,1,.66.12.48.48,0,0,1-.12.66Z" fill="#46647e" fill-rule="evenodd"/>
        <g id="Grupo_91969" data-name="Grupo 91969">
          <g id="Grupo_91962" data-name="Grupo 91962">
            <rect id="Rectángulo_38344" data-name="Rectángulo 38344" width="1.13" height="26.48" transform="translate(185.72 60.18)" fill="#46647e"/>
            <path id="Trazado_181548" data-name="Trazado 181548" d="M165.22,46.75h1.57a3.57,3.57,0,0,1,3.56,3.55v2.9H202V50.3a3.56,3.56,0,0,1,3.55-3.55h1.58a3.57,3.57,0,0,1,3.55,3.55v4.06c0,2-1.62,3.27-3.55,3.55l-21,3.11-21-3.11c-1.93-.28-3.55-1.6-3.55-3.55V50.3a3.56,3.56,0,0,1,3.64-3.55Z" fill="#4480bf" fill-rule="evenodd"/>
            <g id="Grupo_91961" data-name="Grupo 91961">
              <g id="Grupo_91960" data-name="Grupo 91960">
                <path id="Trazado_181549" data-name="Trazado 181549" d="M192.06,104c11.27,5.51,7.36,22.63-5.23,22.63a11.92,11.92,0,0,1-11.92-11.92c0-1.66-.26-3.25-.26-4.21a1.77,1.77,0,0,1,1.77-1.77c3.63,0,3,9.61,8.54,9.61a5,5,0,0,0,5-5c0-4.71-3.47-4-5.19-6.15S183.75,100,183.75,97a.45.45,0,0,1,.45-.45h4.44a.45.45,0,0,1,.45.45C189.09,100.14,188.87,102,192.06,104Z" fill="#ffd34b" fill-rule="evenodd"/>
                <path id="Trazado_181550" data-name="Trazado 181550" d="M179.72,81.66h13.42V95.28l-5.22,5.22a2.11,2.11,0,0,1-3,0l-5.22-5.22Z" fill="#b0bec5" fill-rule="evenodd"/>
              </g>
              <path id="Trazado_181551" data-name="Trazado 181551" d="M186.68,97.77a1.66,1.66,0,1,0-1.187-.479,1.66,1.66,0,0,0,1.187.479Z" fill="#ffd34b" fill-rule="evenodd"/>
            </g>
          </g>
          <g id="Grupo_91968" data-name="Grupo 91968">
            <g id="Grupo_91967" data-name="Grupo 91967">
              <g id="Grupo_91963" data-name="Grupo 91963">
                <path id="Trazado_181552" data-name="Trazado 181552" d="M207.66,49V12h-43V49.61h43Zm-1.21-35.74V48.4H165.86V13.26Z" fill="#4480bf" fill-rule="evenodd"/>
                <path id="Trazado_181553" data-name="Trazado 181553" d="M207.3,48.4,165.8,12.35l-.8.91,41.51,36.05Z" fill="#4480bf" fill-rule="evenodd"/>
                <path id="Trazado_181554" data-name="Trazado 181554" d="M165.8,49.31l41.5-36.05-.79-.91L165,48.4Z" fill="#4480bf" fill-rule="evenodd"/>
              </g>
              <g id="Grupo_91965" data-name="Grupo 91965">
                <path id="Trazado_181555" data-name="Trazado 181555" d="M293.7,48.71,251.46,12h-.78V49.61h43v-.9Zm-40.82-.31,19.31-16.77,19.3,16.77Zm18.39-17.57L251.89,47.66V14Z" fill="#4480bf" fill-rule="evenodd"/>
                <g id="Grupo_91964" data-name="Grupo 91964">
                  <path id="Trazado_181556" data-name="Trazado 181556" d="M207.66,49V12h43V49.61h-43Zm1.21-35.74V48.4h40.6V13.26Z" fill="#4480bf" fill-rule="evenodd"/>
                  <path id="Trazado_181557" data-name="Trazado 181557" d="M208.02,48.4l41.51-36.05.79.91L208.81,49.31Z" fill="#4480bf" fill-rule="evenodd"/>
                  <path id="Trazado_181558" data-name="Trazado 181558" d="M249.53,49.31,208.02,13.26l.79-.91L250.32,48.4Z" fill="#4480bf" fill-rule="evenodd"/>
                </g>
              </g>
              <g id="Grupo_91966" data-name="Grupo 91966">
                <path id="Trazado_181559" data-name="Trazado 181559" d="M121.63,49V12h43V49.61h-43V49Zm1.21-35.74V48.4h40.59V13.26Z" fill="#4480bf" fill-rule="evenodd"/>
                <path id="Trazado_181560" data-name="Trazado 181560" d="M121.99,48.4l41.5-36.05.79.91-41.5,36.05Z" fill="#4480bf" fill-rule="evenodd"/>
                <path id="Trazado_181561" data-name="Trazado 181561" d="M163.49,49.31l-41.5-36.05.79-.91,41.5,36.05Z" fill="#4480bf" fill-rule="evenodd"/>
              </g>
            </g>
            <path id="Trazado_181562" data-name="Trazado 181562" d="M78.61,48.71,120.84,12h.79V49.61h-43v-.9Zm40.81-.31-19.3-16.77L80.81,48.4ZM101,30.83l19.37,16.83V14Z" fill="#4480bf" fill-rule="evenodd"/>
          </g>
        </g>
        <path id="Trazado_181563" data-name="Trazado 181563" d="M206.78,138.21a.474.474,0,1,1-.54.78l-21.82-21.34a.474.474,0,0,1,.54-.78Z" fill="#46647e" fill-rule="evenodd"/>
      </g>
      <path id="Trazado_181564" data-name="Trazado 181564" d="M237.27,214l-13.53,6.56,1.7-14.93,3.15,2.23a47.15,47.15,0,0,0-70-60.15l.09-4.62-4.62-1.29a54.58,54.58,0,0,1,80.59,70.37Z" fill="#c25257" fill-rule="evenodd"/>
    </g>
    <g id="Grupo_91972" data-name="Grupo 91972" transform="translate(925.706 2720)">
      <path id="Trazado_181565" data-name="Trazado 181565" d="M63.54,201.24a17.41,17.41,0,1,0-17-17.41,17.2,17.2,0,0,0,17,17.41Zm0-8.38a9,9,0,1,1,8.8-9,9,9,0,0,1-8.8,9Z" fill="#467cdd" fill-rule="evenodd"/>
      <path id="Trazado_181566" data-name="Trazado 181566" d="M63.54,189.37a5.54,5.54,0,1,0-5.39-5.54,5.48,5.48,0,0,0,5.39,5.54Z" fill="#863672" fill-rule="evenodd"/>
      <path id="Trazado_181567" data-name="Trazado 181567" d="M63.54,190.26A6.16,6.16,0,0,0,68,188.37h0a6.53,6.53,0,0,0,0-9.09h0a6.15,6.15,0,0,0-8.85,0h0a6.53,6.53,0,0,0,0,9.09h0a6.13,6.13,0,0,0,4.42,1.89Zm3.21-3.13a4.48,4.48,0,0,1-6.41,0h0a4.72,4.72,0,0,1,0-6.57h0a4.46,4.46,0,0,1,6.41,0h0A4.72,4.72,0,0,1,66.75,187.13Z" fill="#863672" fill-rule="evenodd"/>
      <path id="Trazado_181568" data-name="Trazado 181568" d="M47.45,184.09v-.55h0V90H45.72v95.14h0a18.41,18.41,0,0,0,5.18,11.62h0a17.52,17.52,0,0,0,25.21,0,18.52,18.52,0,0,0,5.18-11.62h0V90H79.64v93.53h0v.55a16.72,16.72,0,0,1-4.71,11.42,15.81,15.81,0,0,1-22.77,0h0a16.63,16.63,0,0,1-4.71-11.41Z" fill="#46647e" fill-rule="evenodd"/>
      <path id="Trazado_181569" data-name="Trazado 181569" d="M61.9,107.26l3.45-.09a1.6,1.6,0,0,0,1.4-.9,4.84,4.84,0,0,0,.47-1.31l.8-3.51.38-.14.4-.15,3,2.15a4.66,4.66,0,0,0,1.2.64h0a1.61,1.61,0,0,0,1.62-.3l2.6-2.31a1.67,1.67,0,0,0,.52-1.6,4.53,4.53,0,0,0-.45-1.31l-1.57-3.26.23-.38.21-.4,3.58-.29a4.24,4.24,0,0,0,1.31-.28h0a1.66,1.66,0,0,0,1.07-1.28h0l.6-3.46a1.69,1.69,0,0,0-.59-1.58h0a4.28,4.28,0,0,0-1.14-.73h0l-3.27-1.54-.08-.46a.936.936,0,0,0-.08-.46l2.54-2.56a4.59,4.59,0,0,0,.9-1.06A1.68,1.68,0,0,0,81,79l-1.7-3a1.58,1.58,0,0,0-1.43-.82,4.11,4.11,0,0,0-1.32.2l-3.46,1L72.78,76h0l-.35-.3.25-3.7a4.7,4.7,0,0,0-.06-1.36,1.62,1.62,0,0,0-1.07-1.28l-3.21-1.12h0a1.57,1.57,0,0,0-1.6.35h0a4.79,4.79,0,0,0-.86,1l-1.89,3H63l-1.87-2.93a4.5,4.5,0,0,0-.86-1,1.58,1.58,0,0,0-1.59-.36h0l-3.2,1.11a1.64,1.64,0,0,0-1.05,1.28A4.71,4.71,0,0,0,54.3,72l.26,3.74-.39.32-.37.33-3.39-1a4,4,0,0,0-1.3-.2,1.6,1.6,0,0,0-1.43.82L46,79h0a1.7,1.7,0,0,0,0,1.68,4.78,4.78,0,0,0,.83,1.06l2.49,2.51a3.414,3.414,0,0,1-.1.54h0a5.24,5.24,0,0,1-.08.53L46,86.84a4.47,4.47,0,0,0-1.12.71h0a1.64,1.64,0,0,0-.58,1.55h0l.58,3.38A1.65,1.65,0,0,0,46,93.75a4.42,4.42,0,0,0,1.29.27l3.46.28c.09.17.18.34.28.51s.19.32.29.48l-1.5,3.12a4.47,4.47,0,0,0-.44,1.27,1.63,1.63,0,0,0,.51,1.57l2.52,2.24a1.57,1.57,0,0,0,1.6.29,4.69,4.69,0,0,0,1.16-.62L58,101.1l.42.17h0l.44.16,1,3.72a4.66,4.66,0,0,0,.53,1.27h0a1.6,1.6,0,0,0,1.44.83Zm7.23-13.84a7.74,7.74,0,0,1-11.17,0A8.24,8.24,0,0,1,58,82a7.77,7.77,0,0,1,11.17,0,8.26,8.26,0,0,1,0,11.46Z" fill="#863672" fill-rule="evenodd"/>
    </g>
    <g id="Grupo_91983" data-name="Grupo 91983" transform="translate(925.706 2720)">
      <g id="Grupo_91981" data-name="Grupo 91981">
        <g id="Grupo_91973" data-name="Grupo 91973">
          <circle id="Elipse_7609" data-name="Elipse 7609" cx="42.67" cy="42.67" r="42.67" transform="translate(57.689 210.004) rotate(-9.22)" fill="#77b2ec"/>
          <circle id="Elipse_7610" data-name="Elipse 7610" cx="37.76" cy="37.76" r="37.76" transform="translate(63.323 214.064) rotate(-9.22)" fill="#5687e2"/>
          <circle id="Elipse_7611" data-name="Elipse 7611" cx="36.26" cy="36.26" r="36.26" transform="translate(59.248 264.908) rotate(-67.5)" fill="#f7f7fb"/>
        </g>
        <g id="Grupo_91980" data-name="Grupo 91980">
          <g id="Grupo_91974" data-name="Grupo 91974">
            <path id="Trazado_181570" data-name="Trazado 181570" d="M106.63,212.07h0a1.62,1.62,0,0,1,1.61,1.61V219a1.62,1.62,0,0,1-1.61,1.61h0A1.61,1.61,0,0,1,105,219v-5.34a1.62,1.62,0,0,1,1.63-1.59Z" fill="#b0bec5" fill-rule="evenodd"/>
            <path id="Trazado_181571" data-name="Trazado 181571" d="M106.63,270h0a1.62,1.62,0,0,1,1.61,1.61v5.34a1.62,1.62,0,0,1-1.61,1.61h0A1.61,1.61,0,0,1,105,276.9v-5.34a1.62,1.62,0,0,1,1.63-1.56Z" fill="#b0bec5" fill-rule="evenodd"/>
          </g>
          <g id="Grupo_91975" data-name="Grupo 91975">
            <path id="Trazado_181572" data-name="Trazado 181572" d="M123.23,216.52h0a1.61,1.61,0,0,1,.59,2.2l-2.66,4.62a1.61,1.61,0,0,1-2.2.59h0a1.61,1.61,0,0,1-.59-2.2l2.66-4.62a1.63,1.63,0,0,1,2.2-.59Z" fill="#b0bec5" fill-rule="evenodd"/>
            <path id="Trazado_181573" data-name="Trazado 181573" d="M94.3,266.65h0a1.62,1.62,0,0,1,.59,2.2l-2.67,4.62a1.62,1.62,0,0,1-2.2.59h0a1.61,1.61,0,0,1-.59-2.2l2.66-4.62a1.63,1.63,0,0,1,2.21-.59Z" fill="#b0bec5" fill-rule="evenodd"/>
          </g>
          <g id="Grupo_91976" data-name="Grupo 91976">
            <path id="Trazado_181574" data-name="Trazado 181574" d="M135.39,228.68h0a1.61,1.61,0,0,1-.59,2.2l-4.62,2.67A1.62,1.62,0,0,1,128,233h0a1.61,1.61,0,0,1,.59-2.2l4.62-2.67a1.61,1.61,0,0,1,2.18.55Z" fill="#b0bec5" fill-rule="evenodd"/>
            <path id="Trazado_181575" data-name="Trazado 181575" d="M85.27,257.62h0a1.61,1.61,0,0,1-.59,2.2l-4.62,2.67a1.61,1.61,0,0,1-2.2-.59h0a1.61,1.61,0,0,1,.59-2.2l4.62-2.7a1.61,1.61,0,0,1,2.2.62Z" fill="#b0bec5" fill-rule="evenodd"/>
          </g>
          <g id="Grupo_91977" data-name="Grupo 91977">
            <path id="Trazado_181576" data-name="Trazado 181576" d="M139.84,245.29h0a1.61,1.61,0,0,1-1.61,1.61H132.9a1.61,1.61,0,0,1-1.61-1.61h0a1.61,1.61,0,0,1,1.61-1.61h5.33A1.61,1.61,0,0,1,139.84,245.29Z" fill="#b0bec5" fill-rule="evenodd"/>
            <path id="Trazado_181577" data-name="Trazado 181577" d="M82,245.29h0a1.61,1.61,0,0,1-1.61,1.61H75a1.61,1.61,0,0,1-1.61-1.61h0A1.61,1.61,0,0,1,75,243.68h5.33A1.61,1.61,0,0,1,82,245.29Z" fill="#b0bec5" fill-rule="evenodd"/>
          </g>
          <g id="Grupo_91978" data-name="Grupo 91978">
            <path id="Trazado_181578" data-name="Trazado 181578" d="M135.39,261.9h0a1.61,1.61,0,0,1-2.2.59l-4.62-2.67a1.61,1.61,0,0,1-.59-2.2h0a1.62,1.62,0,0,1,2.2-.59l4.62,2.67a1.61,1.61,0,0,1,.59,2.2Z" fill="#b0bec5" fill-rule="evenodd"/>
            <path id="Trazado_181579" data-name="Trazado 181579" d="M85.27,233h0a1.61,1.61,0,0,1-2.2.59l-4.62-2.67a1.61,1.61,0,0,1-.59-2.2h0a1.61,1.61,0,0,1,2.2-.59l4.62,2.67a1.61,1.61,0,0,1,.59,2.2Z" fill="#b0bec5" fill-rule="evenodd"/>
          </g>
          <g id="Grupo_91979" data-name="Grupo 91979">
            <path id="Trazado_181580" data-name="Trazado 181580" d="M123.23,274.06h0a1.62,1.62,0,0,1-2.2-.59l-2.66-4.62a1.61,1.61,0,0,1,.59-2.2h0a1.61,1.61,0,0,1,2.2.59l2.66,4.62a1.61,1.61,0,0,1-.59,2.2Z" fill="#b0bec5" fill-rule="evenodd"/>
            <path id="Trazado_181581" data-name="Trazado 181581" d="M94.3,223.93h0a1.62,1.62,0,0,1-2.21-.59l-2.66-4.62a1.61,1.61,0,0,1,.59-2.2h0a1.63,1.63,0,0,1,2.2.59l2.67,4.62a1.62,1.62,0,0,1-.59,2.2Z" fill="#b0bec5" fill-rule="evenodd"/>
          </g>
        </g>
      </g>
      <g id="Grupo_91982" data-name="Grupo 91982">
        <path id="Trazado_181582" data-name="Trazado 181582" d="M113,215.65h0a1.43,1.43,0,0,1,1.09,1.7l-7.86,35.89a1.43,1.43,0,0,1-1.7,1.09h0a1.44,1.44,0,0,1-1.1-1.7l7.87-35.89a1.42,1.42,0,0,1,1.7-1.09Z" fill="#02749e" fill-rule="evenodd"/>
        <path id="Trazado_181583" data-name="Trazado 181583" d="M124.19,231.3h0a1.43,1.43,0,0,1-.25,2L101.07,251a1.44,1.44,0,0,1-2-.26h0a1.43,1.43,0,0,1,.26-2L122.19,231a1.43,1.43,0,0,1,2,.3Z" fill="#f774d1" fill-rule="evenodd"/>
      </g>
      <path id="Trazado_181584" data-name="Trazado 181584" d="M106.63,250.79a5.5,5.5,0,1,0-5.5-5.5,5.5,5.5,0,0,0,5.5,5.5Z" fill="#863672" fill-rule="evenodd"/>
    </g>
  </g>
</svg>
