<svg xmlns="http://www.w3.org/2000/svg" xmlns:xlink="http://www.w3.org/1999/xlink" width="484.95" height="500" viewBox="0 0 484.95 500">
  <defs>
    <linearGradient id="linear-gradient" x1="-2.611" y1="6.139" x2="-2.597" y2="4.782" gradientUnits="objectBoundingBox">
      <stop offset="0" stop-color="#2daea0"/>
      <stop offset="0.9" stop-color="#33b2a5"/>
      <stop offset="0.98" stop-color="#6de0d4"/>
    </linearGradient>
    <linearGradient id="linear-gradient-2" x1="-6.865" y1="27.766" x2="-6.851" y2="26.407" gradientUnits="objectBoundingBox">
      <stop offset="0" stop-color="#35afea"/>
      <stop offset="0.9" stop-color="#68c3ef"/>
      <stop offset="0.98" stop-color="#cdebfa"/>
    </linearGradient>
    <linearGradient id="linear-gradient-3" x1="-11.488" y1="20.318" x2="-11.474" y2="18.962" xlink:href="#linear-gradient-2"/>
    <linearGradient id="linear-gradient-4" x1="-16.203" y1="12.805" x2="-16.188" y2="11.445" xlink:href="#linear-gradient-2"/>
    <linearGradient id="linear-gradient-5" x1="-1.32" y1="4.071" x2="-1.306" y2="2.711" xlink:href="#linear-gradient"/>
    <linearGradient id="linear-gradient-6" x1="-0.144" y1="2.188" x2="-0.129" y2="0.828" xlink:href="#linear-gradient"/>
    <linearGradient id="linear-gradient-7" x1="1.423" y1="-0.324" x2="1.437" y2="-1.684" xlink:href="#linear-gradient"/>
  </defs>
  <g id="Grupo_94252" data-name="Grupo 94252" transform="translate(-293.05 -2015)">
    <path id="Trazado_191373" data-name="Trazado 191373" d="M0,0H9.38V71.25H0Z" transform="translate(305.66 2082.229)" fill="#276871"/>
    <path id="Trazado_191374" data-name="Trazado 191374" d="M0,0H383V500H0Z" transform="translate(395 2015)" fill="none"/>
    <path id="Trazado_191375" data-name="Trazado 191375" d="M6.72,0H207.5a6.72,6.72,0,0,1,6.72,6.72V30.86a6.72,6.72,0,0,1-6.72,6.72H6.72A6.72,6.72,0,0,1,0,30.86V6.72A6.72,6.72,0,0,1,6.72,0Z" transform="translate(293.05 2044.649)" fill="#3a8e9b"/>
    <path id="Trazado_191376" data-name="Trazado 191376" d="M6.72,0H207.5a6.72,6.72,0,0,1,6.72,6.72V30.86a6.72,6.72,0,0,1-6.72,6.72H6.72A6.72,6.72,0,0,1,0,30.86V6.72A6.72,6.72,0,0,1,6.72,0Z" transform="translate(293.9 2043.79)" fill="#c0ebe7"/>
    <path id="Trazado_185175" data-name="Trazado 185175" d="M52.09,152.13H34.4A4.11,4.11,0,0,1,30.28,148V136a3.55,3.55,0,0,0,3.56,3.55H52.07v-3.86L62,145.61l-9.88,9.87Z" transform="translate(275.38 2013.01)" fill="url(#linear-gradient)"/>
    <path id="Trazado_191377" data-name="Trazado 191377" d="M0,0H9.38V71.25H0Z" transform="translate(541.23 2139.06) rotate(180)" fill="#039be5"/>
    <path id="Trazado_185176" data-name="Trazado 185176" d="M244,43.13h17.69a4.12,4.12,0,0,1,4.13,4.12v12a3.56,3.56,0,0,0-3.56-3.56H244v3.85l-9.88-9.87L244,39.78Z" transform="translate(275.38 2013.01)" fill="url(#linear-gradient-2)"/>
    <path id="Trazado_191378" data-name="Trazado 191378" d="M0,0H9.38V71.25H0Z" transform="translate(592.17 2234.47) rotate(180)" fill="#039be5"/>
    <path id="Trazado_185177" data-name="Trazado 185177" d="M295,138.55h17.69a4.12,4.12,0,0,1,4.12,4.12v12a3.55,3.55,0,0,0-3.55-3.56H295V155l-9.88-9.87L295,135.2Z" transform="translate(275.38 2013.01)" fill="url(#linear-gradient-3)"/>
    <path id="Trazado_191379" data-name="Trazado 191379" d="M0,0H9.38V71.25H0Z" transform="translate(644.52 2331.39) rotate(180)" fill="#039be5"/>
    <path id="Trazado_185178" data-name="Trazado 185178" d="M347.32,235.47H365a4.12,4.12,0,0,1,4.13,4.12v12a3.56,3.56,0,0,0-3.56-3.56H347.34v3.86L337.45,242l9.87-9.87Z" transform="translate(275.38 2013.01)" fill="url(#linear-gradient-4)"/>
    <path id="Trazado_191380" data-name="Trazado 191380" d="M0,0H9.38V71.25H0Z" transform="translate(359.22 2176.859)" fill="#276871"/>
    <path id="Trazado_185179" data-name="Trazado 185179" d="M105.66,246.76H88a4.12,4.12,0,0,1-4.12-4.12v-12a3.56,3.56,0,0,0,3.56,3.56h18.23v-3.86l9.87,9.88-9.87,9.87Z" transform="translate(275.38 2013.01)" fill="url(#linear-gradient-5)"/>
    <path id="Trazado_191381" data-name="Trazado 191381" d="M0,0H9.38V71.25H0Z" transform="translate(413.2 2268.04)" fill="#276871"/>
    <path id="Trazado_185180" data-name="Trazado 185180" d="M159.64,337.94h-17.7a4.12,4.12,0,0,1-4.12-4.12v-12a3.57,3.57,0,0,0,3.56,3.56h18.26v-3.86l9.87,9.88-9.87,9.87Z" transform="translate(275.38 2013.01)" fill="url(#linear-gradient-6)"/>
    <path id="Trazado_191382" data-name="Trazado 191382" d="M0,0H9.38V71.25H0Z" transform="translate(464.22 2368.68)" fill="#276871"/>
    <path id="Trazado_185181" data-name="Trazado 185181" d="M210.66,438.58H193a4.12,4.12,0,0,1-4.12-4.12v-12A3.56,3.56,0,0,0,192.4,426h18.26v-3.86l9.87,9.88-9.87,9.87Z" transform="translate(275.38 2013.01)" fill="url(#linear-gradient-7)"/>
    <path id="Trazado_191383" data-name="Trazado 191383" d="M12.524,0H9.431l-.9-2.8H4.052L3.164,0H.088L4.676-12.6H8.042ZM7.884-4.983,6.53-9.22a5.52,5.52,0,0,1-.211-1.134h-.07a4.807,4.807,0,0,1-.22,1.1L4.658-4.983ZM22.158,0H19.389V-5q0-2.092-1.494-2.092a1.483,1.483,0,0,0-1.187.554,2.109,2.109,0,0,0-.466,1.406V0H13.465V-9h2.777v1.424h.035A3.183,3.183,0,0,1,19.169-9.22q2.988,0,2.988,3.709Zm9.686,0H29.215V-1.292H29.18A2.933,2.933,0,0,1,26.5.22a2.8,2.8,0,0,1-2.061-.743A2.661,2.661,0,0,1,23.687-2.5q0-2.619,3.1-3.023l2.443-.325q0-1.477-1.6-1.477a5.46,5.46,0,0,0-3.059.958V-8.464a6.881,6.881,0,0,1,1.586-.527,8.339,8.339,0,0,1,1.833-.229q3.85,0,3.85,3.841Zm-2.61-3.656v-.606L27.6-4.052q-1.354.176-1.354,1.222a1.01,1.01,0,0,0,.33.778,1.266,1.266,0,0,0,.892.3,1.644,1.644,0,0,0,1.274-.541A1.952,1.952,0,0,0,29.233-3.656Zm1.784-9.606-2.751,2.839h-2l2.285-2.839ZM36.818,0H34.04V-13.324h2.777Zm3.744-10.424a1.622,1.622,0,0,1-1.151-.417,1.345,1.345,0,0,1-.448-1.024,1.3,1.3,0,0,1,.448-1.02,1.676,1.676,0,0,1,1.151-.4,1.672,1.672,0,0,1,1.156.4,1.3,1.3,0,0,1,.444,1.02,1.34,1.34,0,0,1-.444,1.037A1.65,1.65,0,0,1,40.562-10.424ZM41.933,0H39.156V-9h2.777Zm1.749-.237v-2.25a5.913,5.913,0,0,0,1.367.615,4.531,4.531,0,0,0,1.288.2,2.762,2.762,0,0,0,1.165-.2.653.653,0,0,0,.426-.615.569.569,0,0,0-.193-.439,1.8,1.8,0,0,0-.5-.308,5.635,5.635,0,0,0-.664-.237q-.36-.105-.694-.237a6.653,6.653,0,0,1-.945-.435,2.731,2.731,0,0,1-.686-.541,2.125,2.125,0,0,1-.422-.712,2.841,2.841,0,0,1-.145-.958,2.466,2.466,0,0,1,.33-1.3,2.692,2.692,0,0,1,.879-.892,4.016,4.016,0,0,1,1.257-.51,6.553,6.553,0,0,1,1.472-.163,8.168,8.168,0,0,1,1.213.092,9.053,9.053,0,0,1,1.213.268v2.145a4.383,4.383,0,0,0-1.129-.461,4.764,4.764,0,0,0-1.182-.154,2.619,2.619,0,0,0-.514.048,1.693,1.693,0,0,0-.426.141.783.783,0,0,0-.29.237.546.546,0,0,0-.105.33.609.609,0,0,0,.158.422,1.374,1.374,0,0,0,.413.3,4.078,4.078,0,0,0,.567.229q.312.1.62.207a8.056,8.056,0,0,1,1,.422,3.2,3.2,0,0,1,.769.536,2.105,2.105,0,0,1,.492.721,2.562,2.562,0,0,1,.171.984,2.568,2.568,0,0,1-.347,1.367,2.78,2.78,0,0,1-.923.923,4.185,4.185,0,0,1-1.327.519,7.357,7.357,0,0,1-1.56.163A8.042,8.042,0,0,1,43.682-.237ZM53.6-10.424a1.622,1.622,0,0,1-1.151-.417A1.345,1.345,0,0,1,52-11.865a1.3,1.3,0,0,1,.448-1.02,1.676,1.676,0,0,1,1.151-.4,1.672,1.672,0,0,1,1.156.4,1.3,1.3,0,0,1,.444,1.02,1.34,1.34,0,0,1-.444,1.037A1.65,1.65,0,0,1,53.6-10.424ZM54.967,0H52.19V-9h2.777Zm1.749-.237v-2.25a5.913,5.913,0,0,0,1.367.615,4.531,4.531,0,0,0,1.288.2,2.762,2.762,0,0,0,1.165-.2.653.653,0,0,0,.426-.615.569.569,0,0,0-.193-.439,1.8,1.8,0,0,0-.5-.308,5.635,5.635,0,0,0-.664-.237q-.36-.105-.694-.237a6.653,6.653,0,0,1-.945-.435,2.731,2.731,0,0,1-.686-.541,2.125,2.125,0,0,1-.422-.712,2.841,2.841,0,0,1-.145-.958,2.466,2.466,0,0,1,.33-1.3,2.692,2.692,0,0,1,.879-.892,4.016,4.016,0,0,1,1.257-.51,6.553,6.553,0,0,1,1.472-.163,8.168,8.168,0,0,1,1.213.092,9.053,9.053,0,0,1,1.213.268v2.145a4.383,4.383,0,0,0-1.129-.461,4.764,4.764,0,0,0-1.182-.154,2.619,2.619,0,0,0-.514.048,1.693,1.693,0,0,0-.426.141.783.783,0,0,0-.29.237.546.546,0,0,0-.105.33.609.609,0,0,0,.158.422,1.374,1.374,0,0,0,.413.3,4.078,4.078,0,0,0,.567.229q.312.1.62.207a8.056,8.056,0,0,1,1,.422,3.2,3.2,0,0,1,.769.536,2.105,2.105,0,0,1,.492.721,2.562,2.562,0,0,1,.171.984,2.568,2.568,0,0,1-.347,1.367,2.78,2.78,0,0,1-.923.923,4.185,4.185,0,0,1-1.327.519,7.357,7.357,0,0,1-1.56.163A8.042,8.042,0,0,1,56.716-.237Z" transform="translate(320.36 2069.359)" fill="#012739"/>
    <path id="Trazado_191384" data-name="Trazado 191384" d="M1.285,0V-9.8H3.992q5.182,0,5.182,4.778A4.815,4.815,0,0,1,7.735-1.377,5.338,5.338,0,0,1,3.883,0ZM2.434-8.764v7.725H3.9a4.152,4.152,0,0,0,3-1.032A3.869,3.869,0,0,0,7.971-5q0-3.767-4.006-3.767ZM13.877.164A3.247,3.247,0,0,1,11.4-.817a3.634,3.634,0,0,1-.926-2.6,3.785,3.785,0,0,1,.964-2.755,3.465,3.465,0,0,1,2.6-.991,3.14,3.14,0,0,1,2.444.964,3.822,3.822,0,0,1,.878,2.673,3.761,3.761,0,0,1-.947,2.683A3.317,3.317,0,0,1,13.877.164Zm.082-6.385a2.132,2.132,0,0,0-1.709.735,3.018,3.018,0,0,0-.629,2.027A2.854,2.854,0,0,0,12.257-1.5a2.161,2.161,0,0,0,1.7.718,2.049,2.049,0,0,0,1.671-.7,3.055,3.055,0,0,0,.584-2A3.108,3.108,0,0,0,15.63-5.51,2.04,2.04,0,0,0,13.959-6.221Zm9.967,5.9a3.643,3.643,0,0,1-1.914.485A3.169,3.169,0,0,1,19.6-.81a3.53,3.53,0,0,1-.919-2.526,3.881,3.881,0,0,1,.991-2.779,3.467,3.467,0,0,1,2.646-1.049,3.682,3.682,0,0,1,1.627.342v1.148a2.85,2.85,0,0,0-1.668-.547,2.254,2.254,0,0,0-1.76.769,2.918,2.918,0,0,0-.687,2.02A2.779,2.779,0,0,0,20.47-1.49,2.227,2.227,0,0,0,22.2-.779a2.81,2.81,0,0,0,1.723-.608ZM31.281,0H30.16V-1.107h-.027A2.3,2.3,0,0,1,27.973.164q-2.5,0-2.5-2.98V-7h1.114v4.006q0,2.215,1.7,2.215a1.715,1.715,0,0,0,1.35-.6,2.315,2.315,0,0,0,.53-1.583V-7h1.121Zm12.2,0H42.362V-4.02A3.032,3.032,0,0,0,42-5.7a1.361,1.361,0,0,0-1.207-.52,1.494,1.494,0,0,0-1.22.656,2.511,2.511,0,0,0-.5,1.572V0H37.953V-4.156q0-2.064-1.593-2.064a1.475,1.475,0,0,0-1.217.619,2.557,2.557,0,0,0-.479,1.61V0H33.544V-7h1.121v1.107h.027a2.378,2.378,0,0,1,2.174-1.271,2.027,2.027,0,0,1,1.251.4,2.012,2.012,0,0,1,.731,1.049,2.5,2.5,0,0,1,2.324-1.449q2.311,0,2.311,2.851Zm7.745-3.22H46.286a2.618,2.618,0,0,0,.629,1.8,2.168,2.168,0,0,0,1.654.636,3.439,3.439,0,0,0,2.174-.779V-.506a4.063,4.063,0,0,1-2.44.67A2.959,2.959,0,0,1,45.972-.79a3.9,3.9,0,0,1-.848-2.683,3.828,3.828,0,0,1,.926-2.663,2.97,2.97,0,0,1,2.3-1.029,2.632,2.632,0,0,1,2.126.889,3.705,3.705,0,0,1,.752,2.468ZM50.08-4.17a2.281,2.281,0,0,0-.468-1.511,1.6,1.6,0,0,0-1.282-.54,1.811,1.811,0,0,0-1.347.567A2.575,2.575,0,0,0,46.3-4.17ZM58.734,0H57.613V-3.992q0-2.229-1.627-2.229a1.765,1.765,0,0,0-1.391.632,2.344,2.344,0,0,0-.55,1.6V0H52.924V-7h1.121v1.162h.027a2.526,2.526,0,0,1,2.3-1.326,2.142,2.142,0,0,1,1.757.742,3.3,3.3,0,0,1,.608,2.143Zm5.359-.068A2.161,2.161,0,0,1,63.048.15Q61.209.15,61.209-1.9V-6.043h-1.2V-7h1.2V-8.709l1.121-.362V-7h1.764v.957H62.33V-2.1a1.635,1.635,0,0,0,.239,1,.955.955,0,0,0,.793.3,1.179,1.179,0,0,0,.731-.232Zm4.283.232A3.247,3.247,0,0,1,65.9-.817a3.633,3.633,0,0,1-.926-2.6,3.785,3.785,0,0,1,.964-2.755,3.465,3.465,0,0,1,2.6-.991,3.14,3.14,0,0,1,2.444.964,3.822,3.822,0,0,1,.878,2.673,3.761,3.761,0,0,1-.947,2.683A3.317,3.317,0,0,1,68.377.164Zm.082-6.385a2.132,2.132,0,0,0-1.709.735,3.018,3.018,0,0,0-.629,2.027A2.854,2.854,0,0,0,66.756-1.5a2.161,2.161,0,0,0,1.7.718,2.049,2.049,0,0,0,1.671-.7,3.055,3.055,0,0,0,.584-2A3.108,3.108,0,0,0,70.13-5.51,2.04,2.04,0,0,0,68.459-6.221ZM83.464,0H82.342V-1.189h-.027A2.588,2.588,0,0,1,79.909.164,2.615,2.615,0,0,1,77.8-.776a3.856,3.856,0,0,1-.79-2.56,4.2,4.2,0,0,1,.875-2.782,2.886,2.886,0,0,1,2.331-1.046,2.244,2.244,0,0,1,2.1,1.135h.027v-4.334h1.121ZM82.342-3.165V-4.2a2,2,0,0,0-.561-1.436,1.88,1.88,0,0,0-1.422-.588,1.936,1.936,0,0,0-1.613.752,3.3,3.3,0,0,0-.588,2.078,2.964,2.964,0,0,0,.564,1.911,1.843,1.843,0,0,0,1.514.7,1.915,1.915,0,0,0,1.521-.677A2.521,2.521,0,0,0,82.342-3.165Zm9.017-.055H86.417a2.618,2.618,0,0,0,.629,1.8A2.168,2.168,0,0,0,88.7-.779a3.439,3.439,0,0,0,2.174-.779V-.506a4.063,4.063,0,0,1-2.44.67A2.959,2.959,0,0,1,86.1-.79a3.9,3.9,0,0,1-.848-2.683,3.828,3.828,0,0,1,.926-2.663,2.97,2.97,0,0,1,2.3-1.029,2.632,2.632,0,0,1,2.126.889,3.705,3.705,0,0,1,.752,2.468Zm-1.148-.95a2.281,2.281,0,0,0-.468-1.511,1.6,1.6,0,0,0-1.282-.54,1.811,1.811,0,0,0-1.347.567A2.575,2.575,0,0,0,86.43-4.17ZM7.109,16.8H5.988V15.611H5.961a2.588,2.588,0,0,1-2.406,1.354,2.615,2.615,0,0,1-2.109-.94,3.856,3.856,0,0,1-.79-2.56,4.2,4.2,0,0,1,.875-2.782A2.886,2.886,0,0,1,3.862,9.636a2.244,2.244,0,0,1,2.1,1.135h.027V6.437H7.109ZM5.988,13.635V12.6a2,2,0,0,0-.561-1.436,1.88,1.88,0,0,0-1.422-.588,1.936,1.936,0,0,0-1.613.752A3.3,3.3,0,0,0,1.8,13.409a2.964,2.964,0,0,0,.564,1.911,1.843,1.843,0,0,0,1.514.7A1.915,1.915,0,0,0,5.4,15.344,2.521,2.521,0,0,0,5.988,13.635ZM9.953,8.023a.71.71,0,0,1-.513-.205.692.692,0,0,1-.212-.52.718.718,0,0,1,.725-.731.724.724,0,0,1,.523.208.73.73,0,0,1,0,1.036A.718.718,0,0,1,9.953,8.023ZM10.5,16.8H9.379v-7H10.5Zm1.846-.253v-1.2a3.318,3.318,0,0,0,2.017.677q1.477,0,1.477-.984a.854.854,0,0,0-.126-.475,1.26,1.26,0,0,0-.342-.345,2.631,2.631,0,0,0-.506-.27q-.291-.12-.625-.25a8.056,8.056,0,0,1-.817-.373,2.468,2.468,0,0,1-.588-.424,1.577,1.577,0,0,1-.355-.537,1.9,1.9,0,0,1-.12-.7,1.673,1.673,0,0,1,.226-.872,2,2,0,0,1,.6-.636,2.805,2.805,0,0,1,.858-.386,3.805,3.805,0,0,1,.995-.13,4.016,4.016,0,0,1,1.627.314v1.135a3.171,3.171,0,0,0-1.777-.506,2.078,2.078,0,0,0-.567.072,1.389,1.389,0,0,0-.434.2.932.932,0,0,0-.28.311.819.819,0,0,0-.1.4.959.959,0,0,0,.1.458,1.008,1.008,0,0,0,.291.328,2.221,2.221,0,0,0,.465.26q.273.116.622.253a8.658,8.658,0,0,1,.834.366,2.86,2.86,0,0,1,.629.424,1.656,1.656,0,0,1,.4.543,1.753,1.753,0,0,1,.14.731,1.725,1.725,0,0,1-.229.9,1.963,1.963,0,0,1-.612.636,2.8,2.8,0,0,1-.882.376,4.354,4.354,0,0,1-1.046.123A3.971,3.971,0,0,1,12.346,16.547Zm11.99-2.967H19.394a2.618,2.618,0,0,0,.629,1.8,2.168,2.168,0,0,0,1.654.636,3.439,3.439,0,0,0,2.174-.779v1.053a4.063,4.063,0,0,1-2.44.67,2.959,2.959,0,0,1-2.331-.954,3.9,3.9,0,0,1-.848-2.683,3.828,3.828,0,0,1,.926-2.663,2.97,2.97,0,0,1,2.3-1.029,2.632,2.632,0,0,1,2.126.889,3.705,3.705,0,0,1,.752,2.468Zm-1.148-.95a2.281,2.281,0,0,0-.468-1.511,1.6,1.6,0,0,0-1.282-.54,1.811,1.811,0,0,0-1.347.567,2.575,2.575,0,0,0-.684,1.483Zm8.654,4.17H30.721V12.808q0-2.229-1.627-2.229a1.765,1.765,0,0,0-1.391.632,2.344,2.344,0,0,0-.55,1.6V16.8H26.031v-7h1.121v1.162h.027a2.526,2.526,0,0,1,2.3-1.326,2.142,2.142,0,0,1,1.757.742,3.3,3.3,0,0,1,.608,2.143ZM31.1,6.833a1.955,1.955,0,0,1-.328,1.172,1.04,1.04,0,0,1-.889.455A2.294,2.294,0,0,1,28.779,8.1a1.875,1.875,0,0,0-.813-.294q-.6,0-.6.772h-.643a1.918,1.918,0,0,1,.328-1.172,1.077,1.077,0,0,1,.916-.441,2,2,0,0,1,1.019.355,1.788,1.788,0,0,0,.875.3q.574,0,.574-.793ZM36.88,16.964a3.247,3.247,0,0,1-2.478-.981,3.634,3.634,0,0,1-.926-2.6,3.785,3.785,0,0,1,.964-2.755,3.465,3.465,0,0,1,2.6-.991,3.14,3.14,0,0,1,2.444.964,3.822,3.822,0,0,1,.878,2.673,3.761,3.761,0,0,1-.947,2.683A3.317,3.317,0,0,1,36.88,16.964Zm.082-6.385a2.132,2.132,0,0,0-1.709.735,3.018,3.018,0,0,0-.629,2.027A2.854,2.854,0,0,0,35.26,15.3a2.161,2.161,0,0,0,1.7.718,2.049,2.049,0,0,0,1.671-.7,3.055,3.055,0,0,0,.584-2,3.108,3.108,0,0,0-.584-2.023A2.04,2.04,0,0,0,36.962,10.579Z" transform="translate(325.76 2109.75)" fill="#012739"/>
    <path id="Trazado_191385" data-name="Trazado 191385" d="M8.873,0H7.6L6.563-2.748H2.406L1.429,0H.15L3.91-9.8H5.1ZM6.187-3.78,4.648-7.957a4,4,0,0,1-.15-.656H4.471a3.661,3.661,0,0,1-.157.656L2.789-3.78Zm7.629-2.085a1.371,1.371,0,0,0-.848-.226,1.431,1.431,0,0,0-1.2.677,3.129,3.129,0,0,0-.482,1.846V0H10.165V-7h1.121v1.442h.027a2.444,2.444,0,0,1,.731-1.152,1.668,1.668,0,0,1,1.1-.414,1.83,1.83,0,0,1,.67.1ZM20.867,3.22H19.746V-1.2h-.027A2.508,2.508,0,0,1,17.326.164a2.634,2.634,0,0,1-2.116-.94,3.834,3.834,0,0,1-.8-2.56,4.192,4.192,0,0,1,.875-2.786A2.912,2.912,0,0,1,17.64-7.164a2.207,2.207,0,0,1,2.078,1.135h.027V-7h1.121ZM19.746-3.151V-4.17a2.037,2.037,0,0,0-.564-1.456,1.888,1.888,0,0,0-1.432-.595,1.925,1.925,0,0,0-1.6.749,3.341,3.341,0,0,0-.588,2.109,2.894,2.894,0,0,0,.567,1.9,1.811,1.811,0,0,0,1.463.687,1.972,1.972,0,0,0,1.569-.673A2.5,2.5,0,0,0,19.746-3.151ZM28.8,0H27.675V-1.107h-.027A2.3,2.3,0,0,1,25.488.164q-2.5,0-2.5-2.98V-7H24.1v4.006q0,2.215,1.7,2.215a1.715,1.715,0,0,0,1.35-.6,2.315,2.315,0,0,0,.53-1.583V-7H28.8Zm2.837-8.777a.71.71,0,0,1-.513-.205.692.692,0,0,1-.212-.52.7.7,0,0,1,.212-.523.7.7,0,0,1,.513-.208.724.724,0,0,1,.523.208.7.7,0,0,1,.215.523.693.693,0,0,1-.215.513A.718.718,0,0,1,31.633-8.777ZM32.18,0H31.059V-7H32.18ZM37.7-.068A2.161,2.161,0,0,1,36.651.15Q34.812.15,34.812-1.9V-6.043h-1.2V-7h1.2V-8.709l1.121-.362V-7H37.7v.957H35.933V-2.1a1.635,1.635,0,0,0,.239,1,.955.955,0,0,0,.793.3,1.179,1.179,0,0,0,.731-.232ZM44.82-3.22H39.878a2.618,2.618,0,0,0,.629,1.8,2.168,2.168,0,0,0,1.654.636,3.439,3.439,0,0,0,2.174-.779V-.506a4.063,4.063,0,0,1-2.44.67A2.959,2.959,0,0,1,39.563-.79a3.9,3.9,0,0,1-.848-2.683,3.828,3.828,0,0,1,.926-2.663,2.97,2.97,0,0,1,2.3-1.029,2.632,2.632,0,0,1,2.126.889,3.705,3.705,0,0,1,.752,2.468Zm-1.148-.95A2.281,2.281,0,0,0,43.2-5.681a1.6,1.6,0,0,0-1.282-.54,1.811,1.811,0,0,0-1.347.567,2.575,2.575,0,0,0-.684,1.483ZM51.287-.321a3.643,3.643,0,0,1-1.914.485A3.169,3.169,0,0,1,46.956-.81a3.53,3.53,0,0,1-.919-2.526,3.881,3.881,0,0,1,.991-2.779,3.468,3.468,0,0,1,2.646-1.049,3.682,3.682,0,0,1,1.627.342v1.148a2.85,2.85,0,0,0-1.668-.547,2.254,2.254,0,0,0-1.76.769,2.918,2.918,0,0,0-.687,2.02,2.779,2.779,0,0,0,.646,1.941,2.227,2.227,0,0,0,1.733.711,2.81,2.81,0,0,0,1.723-.608Zm4.942.253A2.161,2.161,0,0,1,55.183.15Q53.344.15,53.344-1.9V-6.043h-1.2V-7h1.2V-8.709l1.121-.362V-7h1.764v.957H54.465V-2.1a1.635,1.635,0,0,0,.239,1,.955.955,0,0,0,.793.3,1.179,1.179,0,0,0,.731-.232ZM63.386,0H62.265V-1.107h-.027A2.3,2.3,0,0,1,60.078.164q-2.5,0-2.5-2.98V-7H58.69v4.006q0,2.215,1.7,2.215a1.715,1.715,0,0,0,1.35-.6,2.315,2.315,0,0,0,.53-1.583V-7h1.121ZM69.3-5.865a1.371,1.371,0,0,0-.848-.226,1.431,1.431,0,0,0-1.2.677,3.129,3.129,0,0,0-.482,1.846V0H65.649V-7H66.77v1.442H66.8a2.444,2.444,0,0,1,.731-1.152,1.668,1.668,0,0,1,1.1-.414,1.83,1.83,0,0,1,.67.1ZM75.247,0H74.126V-1.094H74.1A2.347,2.347,0,0,1,71.945.164,2.3,2.3,0,0,1,70.308-.39a1.918,1.918,0,0,1-.591-1.47q0-1.962,2.311-2.283l2.1-.294q0-1.784-1.442-1.784a3.446,3.446,0,0,0-2.283.861V-6.508a4.338,4.338,0,0,1,2.379-.656q2.468,0,2.468,2.611ZM74.126-3.541l-1.688.232a2.741,2.741,0,0,0-1.176.386,1.114,1.114,0,0,0-.4.981,1.068,1.068,0,0,0,.366.837,1.413,1.413,0,0,0,.974.325,1.8,1.8,0,0,0,1.377-.584,2.088,2.088,0,0,0,.543-1.48ZM87.169,0H86.048V-1.189H86.02A2.588,2.588,0,0,1,83.614.164a2.615,2.615,0,0,1-2.109-.94,3.856,3.856,0,0,1-.79-2.56,4.2,4.2,0,0,1,.875-2.782,2.886,2.886,0,0,1,2.331-1.046,2.244,2.244,0,0,1,2.1,1.135h.027v-4.334h1.121ZM86.048-3.165V-4.2a2,2,0,0,0-.561-1.436,1.88,1.88,0,0,0-1.422-.588,1.936,1.936,0,0,0-1.613.752,3.3,3.3,0,0,0-.588,2.078,2.964,2.964,0,0,0,.564,1.911,1.843,1.843,0,0,0,1.514.7,1.915,1.915,0,0,0,1.521-.677A2.521,2.521,0,0,0,86.048-3.165Zm9.017-.055H90.122a2.618,2.618,0,0,0,.629,1.8,2.168,2.168,0,0,0,1.654.636,3.439,3.439,0,0,0,2.174-.779V-.506a4.063,4.063,0,0,1-2.44.67A2.959,2.959,0,0,1,89.808-.79a3.9,3.9,0,0,1-.848-2.683,3.828,3.828,0,0,1,.926-2.663,2.97,2.97,0,0,1,2.3-1.029,2.632,2.632,0,0,1,2.126.889,3.705,3.705,0,0,1,.752,2.468Zm-1.148-.95a2.281,2.281,0,0,0-.468-1.511,1.6,1.6,0,0,0-1.282-.54,1.811,1.811,0,0,0-1.347.567,2.575,2.575,0,0,0-.684,1.483ZM.711,16.547v-1.2a3.318,3.318,0,0,0,2.017.677q1.477,0,1.477-.984a.854.854,0,0,0-.126-.475,1.26,1.26,0,0,0-.342-.345,2.631,2.631,0,0,0-.506-.27q-.291-.12-.625-.25a8.056,8.056,0,0,1-.817-.373A2.468,2.468,0,0,1,1.2,12.9a1.577,1.577,0,0,1-.355-.537,1.9,1.9,0,0,1-.12-.7,1.673,1.673,0,0,1,.226-.872,2,2,0,0,1,.6-.636,2.805,2.805,0,0,1,.858-.386,3.805,3.805,0,0,1,.995-.13,4.016,4.016,0,0,1,1.627.314v1.135a3.171,3.171,0,0,0-1.777-.506,2.078,2.078,0,0,0-.567.072,1.389,1.389,0,0,0-.434.2.932.932,0,0,0-.28.311.819.819,0,0,0-.1.4.959.959,0,0,0,.1.458,1.008,1.008,0,0,0,.291.328,2.221,2.221,0,0,0,.465.26q.273.116.622.253a8.658,8.658,0,0,1,.834.366,2.86,2.86,0,0,1,.629.424,1.656,1.656,0,0,1,.4.543,1.753,1.753,0,0,1,.14.731,1.725,1.725,0,0,1-.229.9,1.963,1.963,0,0,1-.612.636,2.8,2.8,0,0,1-.882.376,4.354,4.354,0,0,1-1.046.123A3.971,3.971,0,0,1,.711,16.547Zm9.29.417a3.247,3.247,0,0,1-2.478-.981,3.633,3.633,0,0,1-.926-2.6,3.785,3.785,0,0,1,.964-2.755,3.465,3.465,0,0,1,2.6-.991,3.14,3.14,0,0,1,2.444.964,3.822,3.822,0,0,1,.878,2.673,3.761,3.761,0,0,1-.947,2.683A3.317,3.317,0,0,1,10,16.964Zm.082-6.385a2.132,2.132,0,0,0-1.709.735,3.018,3.018,0,0,0-.629,2.027A2.854,2.854,0,0,0,8.381,15.3a2.161,2.161,0,0,0,1.7.718,2.049,2.049,0,0,0,1.671-.7,3.055,3.055,0,0,0,.584-2,3.108,3.108,0,0,0-.584-2.023A2.04,2.04,0,0,0,10.083,10.579Zm8.654-3.158a1.493,1.493,0,0,0-.745-.185q-1.176,0-1.176,1.483V9.8h1.641v.957H16.816V16.8H15.7V10.757h-1.2V9.8h1.2V8.665a2.358,2.358,0,0,1,.636-1.74,2.146,2.146,0,0,1,1.586-.639,2.2,2.2,0,0,1,.813.123Zm4.17,9.311a2.161,2.161,0,0,1-1.046.219q-1.839,0-1.839-2.051V10.757h-1.2V9.8h1.2V8.091l1.121-.362V9.8h1.764v.957H21.144V14.7a1.635,1.635,0,0,0,.239,1,.955.955,0,0,0,.793.3,1.179,1.179,0,0,0,.731-.232ZM33.223,9.8l-2.1,7H29.962L28.52,11.789a3.265,3.265,0,0,1-.109-.649h-.027a3.065,3.065,0,0,1-.144.636L26.674,16.8H25.553l-2.119-7h1.176l1.449,5.264a3.171,3.171,0,0,1,.1.629h.055a2.942,2.942,0,0,1,.123-.643L27.945,9.8h1.025l1.449,5.277a3.768,3.768,0,0,1,.1.629h.055a2.909,2.909,0,0,1,.116-.629L32.115,9.8Zm6.31,7H38.411V15.706h-.027a2.347,2.347,0,0,1-2.153,1.258,2.3,2.3,0,0,1-1.637-.554A1.918,1.918,0,0,1,34,14.941q0-1.962,2.311-2.283l2.1-.294q0-1.784-1.442-1.784a3.446,3.446,0,0,0-2.283.861V10.292a4.338,4.338,0,0,1,2.379-.656q2.468,0,2.468,2.611Zm-1.121-3.541-1.688.232a2.741,2.741,0,0,0-1.176.386,1.114,1.114,0,0,0-.4.981,1.068,1.068,0,0,0,.366.837,1.413,1.413,0,0,0,.974.325,1.8,1.8,0,0,0,1.377-.584,2.088,2.088,0,0,0,.543-1.48Zm6.884-2.324a1.371,1.371,0,0,0-.848-.226,1.431,1.431,0,0,0-1.2.677,3.129,3.129,0,0,0-.482,1.846V16.8H41.645v-7h1.121v1.442h.027a2.444,2.444,0,0,1,.731-1.152,1.668,1.668,0,0,1,1.1-.414,1.83,1.83,0,0,1,.67.1ZM52,13.58H47.055a2.618,2.618,0,0,0,.629,1.8,2.168,2.168,0,0,0,1.654.636,3.439,3.439,0,0,0,2.174-.779v1.053a4.063,4.063,0,0,1-2.44.67,2.959,2.959,0,0,1-2.331-.954,3.9,3.9,0,0,1-.848-2.683,3.828,3.828,0,0,1,.926-2.663,2.97,2.97,0,0,1,2.3-1.029,2.632,2.632,0,0,1,2.126.889A3.705,3.705,0,0,1,52,12.992Zm-1.148-.95a2.281,2.281,0,0,0-.468-1.511,1.6,1.6,0,0,0-1.282-.54,1.811,1.811,0,0,0-1.347.567,2.575,2.575,0,0,0-.684,1.483Z" transform="translate(378.71 2200.57)" fill="#012739"/>
    <path id="Trazado_191386" data-name="Trazado 191386" d="M.827-.4V-1.75a2.629,2.629,0,0,0,.557.369,4.514,4.514,0,0,0,.684.277,5.442,5.442,0,0,0,.721.174,4.021,4.021,0,0,0,.67.062,2.624,2.624,0,0,0,1.583-.393,1.33,1.33,0,0,0,.523-1.131,1.328,1.328,0,0,0-.174-.69,1.964,1.964,0,0,0-.482-.537,4.782,4.782,0,0,0-.728-.465q-.42-.222-.906-.468-.513-.26-.957-.526a4.147,4.147,0,0,1-.772-.588A2.452,2.452,0,0,1,1.029-6.4a2.253,2.253,0,0,1-.188-.954,2.242,2.242,0,0,1,.294-1.166,2.521,2.521,0,0,1,.772-.817A3.5,3.5,0,0,1,3-9.81a4.992,4.992,0,0,1,1.248-.157,4.781,4.781,0,0,1,2.112.349v1.292a3.829,3.829,0,0,0-2.229-.6,3.665,3.665,0,0,0-.752.079,2.124,2.124,0,0,0-.67.256,1.484,1.484,0,0,0-.479.458,1.216,1.216,0,0,0-.185.684,1.407,1.407,0,0,0,.14.649,1.592,1.592,0,0,0,.414.5,4.119,4.119,0,0,0,.667.438q.393.212.906.465t1,.547A4.562,4.562,0,0,1,6-4.218a2.825,2.825,0,0,1,.564.772,2.171,2.171,0,0,1,.208.971,2.462,2.462,0,0,1-.284,1.227,2.328,2.328,0,0,1-.766.817A3.344,3.344,0,0,1,4.607.024a6.084,6.084,0,0,1-1.326.14A5.4,5.4,0,0,1,2.707.126Q2.365.089,2.01.017a5.689,5.689,0,0,1-.673-.178A2.1,2.1,0,0,1,.827-.4ZM11.5.164A3.247,3.247,0,0,1,9.02-.817a3.634,3.634,0,0,1-.926-2.6,3.785,3.785,0,0,1,.964-2.755,3.465,3.465,0,0,1,2.6-.991,3.14,3.14,0,0,1,2.444.964,3.822,3.822,0,0,1,.878,2.673,3.761,3.761,0,0,1-.947,2.683A3.317,3.317,0,0,1,11.5.164Zm.082-6.385a2.132,2.132,0,0,0-1.709.735,3.018,3.018,0,0,0-.629,2.027A2.854,2.854,0,0,0,9.878-1.5a2.161,2.161,0,0,0,1.7.718,2.049,2.049,0,0,0,1.671-.7,3.055,3.055,0,0,0,.584-2,3.108,3.108,0,0,0-.584-2.023A2.04,2.04,0,0,0,11.58-6.221Zm8.654-3.158a1.493,1.493,0,0,0-.745-.185q-1.176,0-1.176,1.483V-7h1.641v.957H18.313V0H17.2V-6.043H16V-7h1.2V-8.135a2.358,2.358,0,0,1,.636-1.74,2.146,2.146,0,0,1,1.586-.639,2.2,2.2,0,0,1,.813.123ZM24.4-.068A2.161,2.161,0,0,1,23.358.15Q21.52.15,21.52-1.9V-6.043h-1.2V-7h1.2V-8.709l1.121-.362V-7H24.4v.957H22.641V-2.1a1.635,1.635,0,0,0,.239,1,.955.955,0,0,0,.793.3,1.179,1.179,0,0,0,.731-.232ZM34.72-7l-2.1,7H31.459L30.017-5.011a3.265,3.265,0,0,1-.109-.649H29.88a3.066,3.066,0,0,1-.144.636L28.171,0H27.05L24.931-7h1.176l1.449,5.264a3.171,3.171,0,0,1,.1.629h.055a2.942,2.942,0,0,1,.123-.643L29.442-7h1.025l1.449,5.277a3.768,3.768,0,0,1,.1.629h.055a2.909,2.909,0,0,1,.116-.629L33.612-7Zm6.31,7H39.908V-1.094h-.027A2.347,2.347,0,0,1,37.728.164,2.3,2.3,0,0,1,36.09-.39a1.918,1.918,0,0,1-.591-1.47q0-1.962,2.311-2.283l2.1-.294q0-1.784-1.442-1.784a3.446,3.446,0,0,0-2.283.861V-6.508a4.338,4.338,0,0,1,2.379-.656q2.468,0,2.468,2.611ZM39.908-3.541l-1.688.232a2.741,2.741,0,0,0-1.176.386,1.114,1.114,0,0,0-.4.981,1.068,1.068,0,0,0,.366.837,1.413,1.413,0,0,0,.974.325,1.8,1.8,0,0,0,1.377-.584,2.088,2.088,0,0,0,.543-1.48Zm6.884-2.324a1.371,1.371,0,0,0-.848-.226,1.431,1.431,0,0,0-1.2.677,3.129,3.129,0,0,0-.482,1.846V0H43.142V-7h1.121v1.442h.027a2.444,2.444,0,0,1,.731-1.152,1.668,1.668,0,0,1,1.1-.414,1.83,1.83,0,0,1,.67.1Zm6.7,2.646H48.552a2.618,2.618,0,0,0,.629,1.8,2.168,2.168,0,0,0,1.654.636,3.439,3.439,0,0,0,2.174-.779V-.506a4.063,4.063,0,0,1-2.44.67A2.959,2.959,0,0,1,48.238-.79a3.9,3.9,0,0,1-.848-2.683,3.828,3.828,0,0,1,.926-2.663,2.97,2.97,0,0,1,2.3-1.029,2.632,2.632,0,0,1,2.126.889,3.705,3.705,0,0,1,.752,2.468Zm-1.148-.95a2.281,2.281,0,0,0-.468-1.511,1.6,1.6,0,0,0-1.282-.54,1.811,1.811,0,0,0-1.347.567,2.575,2.575,0,0,0-.684,1.483Z" transform="translate(436.4 2307.02)" fill="#012739"/>
    <path id="Trazado_191387" data-name="Trazado 191387" d="M7.957-.41A5.749,5.749,0,0,1,5.25.164,4.366,4.366,0,0,1,1.9-1.183,4.969,4.969,0,0,1,.643-4.717a5.208,5.208,0,0,1,1.415-3.8A4.8,4.8,0,0,1,5.646-9.967a5.754,5.754,0,0,1,2.311.4V-8.34a4.686,4.686,0,0,0-2.324-.588A3.566,3.566,0,0,0,2.9-7.8,4.249,4.249,0,0,0,1.846-4.785a4.043,4.043,0,0,0,.981,2.854A3.338,3.338,0,0,0,5.4-.868a4.828,4.828,0,0,0,2.557-.656Zm4.771.574A3.247,3.247,0,0,1,10.25-.817a3.634,3.634,0,0,1-.926-2.6,3.785,3.785,0,0,1,.964-2.755,3.465,3.465,0,0,1,2.6-.991,3.14,3.14,0,0,1,2.444.964,3.822,3.822,0,0,1,.878,2.673,3.761,3.761,0,0,1-.947,2.683A3.317,3.317,0,0,1,12.729.164Zm.082-6.385a2.132,2.132,0,0,0-1.709.735,3.018,3.018,0,0,0-.629,2.027A2.854,2.854,0,0,0,11.108-1.5a2.161,2.161,0,0,0,1.7.718,2.049,2.049,0,0,0,1.671-.7,3.055,3.055,0,0,0,.584-2,3.108,3.108,0,0,0-.584-2.023A2.04,2.04,0,0,0,12.811-6.221ZM27.945,0H26.824V-4.02A3.032,3.032,0,0,0,26.465-5.7a1.361,1.361,0,0,0-1.207-.52,1.494,1.494,0,0,0-1.22.656,2.511,2.511,0,0,0-.5,1.572V0H22.415V-4.156q0-2.064-1.593-2.064a1.475,1.475,0,0,0-1.217.619,2.557,2.557,0,0,0-.479,1.61V0H18.006V-7h1.121v1.107h.027a2.378,2.378,0,0,1,2.174-1.271,2.027,2.027,0,0,1,1.251.4,2.012,2.012,0,0,1,.731,1.049,2.5,2.5,0,0,1,2.324-1.449q2.311,0,2.311,2.851Zm3.268-1.012h-.027V3.22H30.064V-7h1.121v1.23h.027a2.651,2.651,0,0,1,2.42-1.395,2.563,2.563,0,0,1,2.112.94A3.893,3.893,0,0,1,36.5-3.705a4.339,4.339,0,0,1-.854,2.813A2.845,2.845,0,0,1,33.312.164,2.342,2.342,0,0,1,31.213-1.012Zm-.027-2.823v.978a2.081,2.081,0,0,0,.564,1.473,1.873,1.873,0,0,0,1.432.6,1.876,1.876,0,0,0,1.6-.779,3.575,3.575,0,0,0,.578-2.167,2.822,2.822,0,0,0-.54-1.832,1.787,1.787,0,0,0-1.463-.663,1.986,1.986,0,0,0-1.572.68A2.5,2.5,0,0,0,31.186-3.835Zm10.76-2.03a1.371,1.371,0,0,0-.848-.226,1.431,1.431,0,0,0-1.2.677,3.129,3.129,0,0,0-.482,1.846V0H38.295V-7h1.121v1.442h.027a2.444,2.444,0,0,1,.731-1.152,1.668,1.668,0,0,1,1.1-.414,1.83,1.83,0,0,1,.67.1Zm4,6.029A3.247,3.247,0,0,1,43.47-.817a3.634,3.634,0,0,1-.926-2.6,3.785,3.785,0,0,1,.964-2.755,3.465,3.465,0,0,1,2.6-.991,3.14,3.14,0,0,1,2.444.964,3.822,3.822,0,0,1,.878,2.673,3.761,3.761,0,0,1-.947,2.683A3.317,3.317,0,0,1,45.948.164Zm.082-6.385a2.132,2.132,0,0,0-1.709.735,3.018,3.018,0,0,0-.629,2.027A2.854,2.854,0,0,0,44.328-1.5a2.161,2.161,0,0,0,1.7.718,2.049,2.049,0,0,0,1.671-.7,3.055,3.055,0,0,0,.584-2A3.108,3.108,0,0,0,47.7-5.51,2.04,2.04,0,0,0,46.03-6.221Zm6.344,5.209h-.027V0H51.225V-10.363h1.121V-5.77h.027a2.651,2.651,0,0,1,2.42-1.395,2.566,2.566,0,0,1,2.109.94,3.881,3.881,0,0,1,.762,2.519A4.339,4.339,0,0,1,56.81-.892,2.845,2.845,0,0,1,54.472.164,2.3,2.3,0,0,1,52.374-1.012Zm-.027-2.823v.978a2.081,2.081,0,0,0,.564,1.473,1.873,1.873,0,0,0,1.432.6,1.876,1.876,0,0,0,1.6-.779,3.575,3.575,0,0,0,.578-2.167,2.822,2.822,0,0,0-.54-1.832,1.787,1.787,0,0,0-1.463-.663,1.986,1.986,0,0,0-1.572.68A2.5,2.5,0,0,0,52.346-3.835ZM64.466,0H63.345V-1.094h-.027A2.347,2.347,0,0,1,61.165.164,2.3,2.3,0,0,1,59.527-.39a1.918,1.918,0,0,1-.591-1.47q0-1.962,2.311-2.283l2.1-.294q0-1.784-1.442-1.784a3.446,3.446,0,0,0-2.283.861V-6.508A4.338,4.338,0,0,1,62-7.164q2.468,0,2.468,2.611ZM63.345-3.541l-1.688.232a2.741,2.741,0,0,0-1.176.386,1.114,1.114,0,0,0-.4.981,1.068,1.068,0,0,0,.366.837,1.413,1.413,0,0,0,.974.325A1.8,1.8,0,0,0,62.8-1.364a2.088,2.088,0,0,0,.543-1.48Zm8,3.22a3.643,3.643,0,0,1-1.914.485A3.169,3.169,0,0,1,67.02-.81,3.53,3.53,0,0,1,66.1-3.336a3.881,3.881,0,0,1,.991-2.779,3.467,3.467,0,0,1,2.646-1.049,3.682,3.682,0,0,1,1.627.342v1.148A2.85,2.85,0,0,0,69.7-6.221a2.254,2.254,0,0,0-1.76.769,2.918,2.918,0,0,0-.687,2.02,2.779,2.779,0,0,0,.646,1.941,2.227,2.227,0,0,0,1.733.711,2.81,2.81,0,0,0,1.723-.608Zm2.27-8.456a.71.71,0,0,1-.513-.205A.692.692,0,0,1,72.9-9.5a.7.7,0,0,1,.212-.523.7.7,0,0,1,.513-.208.724.724,0,0,1,.523.208.7.7,0,0,1,.215.523.693.693,0,0,1-.215.513A.718.718,0,0,1,73.62-8.777ZM74.167,0H73.046V-7h1.121Zm5.2.164a3.247,3.247,0,0,1-2.478-.981,3.633,3.633,0,0,1-.926-2.6,3.785,3.785,0,0,1,.964-2.755,3.465,3.465,0,0,1,2.6-.991A3.14,3.14,0,0,1,81.97-6.2a3.822,3.822,0,0,1,.878,2.673A3.761,3.761,0,0,1,81.9-.844,3.317,3.317,0,0,1,79.362.164Zm.082-6.385a2.132,2.132,0,0,0-1.709.735,3.018,3.018,0,0,0-.629,2.027A2.854,2.854,0,0,0,77.742-1.5a2.161,2.161,0,0,0,1.7.718,2.049,2.049,0,0,0,1.671-.7,3.055,3.055,0,0,0,.584-2,3.108,3.108,0,0,0-.584-2.023A2.04,2.04,0,0,0,79.444-6.221Zm1.641-4.348L79.294-8.326h-.868l1.524-2.242ZM90.45,0H89.329V-3.992q0-2.229-1.627-2.229a1.765,1.765,0,0,0-1.391.632,2.344,2.344,0,0,0-.55,1.6V0H84.639V-7H85.76v1.162h.027a2.526,2.526,0,0,1,2.3-1.326,2.142,2.142,0,0,1,1.757.742,3.3,3.3,0,0,1,.608,2.143Z" transform="translate(653.98 2302.979)" fill="#012739"/>
    <path id="Trazado_191388" data-name="Trazado 191388" d="M7.957-.41A5.749,5.749,0,0,1,5.25.164,4.366,4.366,0,0,1,1.9-1.183,4.969,4.969,0,0,1,.643-4.717a5.208,5.208,0,0,1,1.415-3.8A4.8,4.8,0,0,1,5.646-9.967a5.754,5.754,0,0,1,2.311.4V-8.34a4.686,4.686,0,0,0-2.324-.588A3.566,3.566,0,0,0,2.9-7.8,4.249,4.249,0,0,0,1.846-4.785a4.043,4.043,0,0,0,.981,2.854A3.338,3.338,0,0,0,5.4-.868a4.828,4.828,0,0,0,2.557-.656Zm4.771.574A3.247,3.247,0,0,1,10.25-.817a3.634,3.634,0,0,1-.926-2.6,3.785,3.785,0,0,1,.964-2.755,3.465,3.465,0,0,1,2.6-.991,3.14,3.14,0,0,1,2.444.964,3.822,3.822,0,0,1,.878,2.673,3.761,3.761,0,0,1-.947,2.683A3.317,3.317,0,0,1,12.729.164Zm.082-6.385a2.132,2.132,0,0,0-1.709.735,3.018,3.018,0,0,0-.629,2.027A2.854,2.854,0,0,0,11.108-1.5a2.161,2.161,0,0,0,1.7.718,2.049,2.049,0,0,0,1.671-.7,3.055,3.055,0,0,0,.584-2,3.108,3.108,0,0,0-.584-2.023A2.04,2.04,0,0,0,12.811-6.221ZM27.945,0H26.824V-4.02A3.032,3.032,0,0,0,26.465-5.7a1.361,1.361,0,0,0-1.207-.52,1.494,1.494,0,0,0-1.22.656,2.511,2.511,0,0,0-.5,1.572V0H22.415V-4.156q0-2.064-1.593-2.064a1.475,1.475,0,0,0-1.217.619,2.557,2.557,0,0,0-.479,1.61V0H18.006V-7h1.121v1.107h.027a2.378,2.378,0,0,1,2.174-1.271,2.027,2.027,0,0,1,1.251.4,2.012,2.012,0,0,1,.731,1.049,2.5,2.5,0,0,1,2.324-1.449q2.311,0,2.311,2.851Zm3.268-1.012h-.027V3.22H30.064V-7h1.121v1.23h.027a2.651,2.651,0,0,1,2.42-1.395,2.563,2.563,0,0,1,2.112.94A3.893,3.893,0,0,1,36.5-3.705a4.339,4.339,0,0,1-.854,2.813A2.845,2.845,0,0,1,33.312.164,2.342,2.342,0,0,1,31.213-1.012Zm-.027-2.823v.978a2.081,2.081,0,0,0,.564,1.473,1.873,1.873,0,0,0,1.432.6,1.876,1.876,0,0,0,1.6-.779,3.575,3.575,0,0,0,.578-2.167,2.822,2.822,0,0,0-.54-1.832,1.787,1.787,0,0,0-1.463-.663,1.986,1.986,0,0,0-1.572.68A2.5,2.5,0,0,0,31.186-3.835Zm10.76-2.03a1.371,1.371,0,0,0-.848-.226,1.431,1.431,0,0,0-1.2.677,3.129,3.129,0,0,0-.482,1.846V0H38.295V-7h1.121v1.442h.027a2.444,2.444,0,0,1,.731-1.152,1.668,1.668,0,0,1,1.1-.414,1.83,1.83,0,0,1,.67.1Zm4,6.029A3.247,3.247,0,0,1,43.47-.817a3.634,3.634,0,0,1-.926-2.6,3.785,3.785,0,0,1,.964-2.755,3.465,3.465,0,0,1,2.6-.991,3.14,3.14,0,0,1,2.444.964,3.822,3.822,0,0,1,.878,2.673,3.761,3.761,0,0,1-.947,2.683A3.317,3.317,0,0,1,45.948.164Zm.082-6.385a2.132,2.132,0,0,0-1.709.735,3.018,3.018,0,0,0-.629,2.027A2.854,2.854,0,0,0,44.328-1.5a2.161,2.161,0,0,0,1.7.718,2.049,2.049,0,0,0,1.671-.7,3.055,3.055,0,0,0,.584-2A3.108,3.108,0,0,0,47.7-5.51,2.04,2.04,0,0,0,46.03-6.221Zm6.344,5.209h-.027V0H51.225V-10.363h1.121V-5.77h.027a2.651,2.651,0,0,1,2.42-1.395,2.566,2.566,0,0,1,2.109.94,3.881,3.881,0,0,1,.762,2.519A4.339,4.339,0,0,1,56.81-.892,2.845,2.845,0,0,1,54.472.164,2.3,2.3,0,0,1,52.374-1.012Zm-.027-2.823v.978a2.081,2.081,0,0,0,.564,1.473,1.873,1.873,0,0,0,1.432.6,1.876,1.876,0,0,0,1.6-.779,3.575,3.575,0,0,0,.578-2.167,2.822,2.822,0,0,0-.54-1.832,1.787,1.787,0,0,0-1.463-.663,1.986,1.986,0,0,0-1.572.68A2.5,2.5,0,0,0,52.346-3.835ZM64.466,0H63.345V-1.094h-.027A2.347,2.347,0,0,1,61.165.164,2.3,2.3,0,0,1,59.527-.39a1.918,1.918,0,0,1-.591-1.47q0-1.962,2.311-2.283l2.1-.294q0-1.784-1.442-1.784a3.446,3.446,0,0,0-2.283.861V-6.508A4.338,4.338,0,0,1,62-7.164q2.468,0,2.468,2.611ZM63.345-3.541l-1.688.232a2.741,2.741,0,0,0-1.176.386,1.114,1.114,0,0,0-.4.981,1.068,1.068,0,0,0,.366.837,1.413,1.413,0,0,0,.974.325A1.8,1.8,0,0,0,62.8-1.364a2.088,2.088,0,0,0,.543-1.48Zm8,3.22a3.643,3.643,0,0,1-1.914.485A3.169,3.169,0,0,1,67.02-.81,3.53,3.53,0,0,1,66.1-3.336a3.881,3.881,0,0,1,.991-2.779,3.467,3.467,0,0,1,2.646-1.049,3.682,3.682,0,0,1,1.627.342v1.148A2.85,2.85,0,0,0,69.7-6.221a2.254,2.254,0,0,0-1.76.769,2.918,2.918,0,0,0-.687,2.02,2.779,2.779,0,0,0,.646,1.941,2.227,2.227,0,0,0,1.733.711,2.81,2.81,0,0,0,1.723-.608Zm2.27-8.456a.71.71,0,0,1-.513-.205A.692.692,0,0,1,72.9-9.5a.7.7,0,0,1,.212-.523.7.7,0,0,1,.513-.208.724.724,0,0,1,.523.208.7.7,0,0,1,.215.523.693.693,0,0,1-.215.513A.718.718,0,0,1,73.62-8.777ZM74.167,0H73.046V-7h1.121Zm5.2.164a3.247,3.247,0,0,1-2.478-.981,3.633,3.633,0,0,1-.926-2.6,3.785,3.785,0,0,1,.964-2.755,3.465,3.465,0,0,1,2.6-.991A3.14,3.14,0,0,1,81.97-6.2a3.822,3.822,0,0,1,.878,2.673A3.761,3.761,0,0,1,81.9-.844,3.317,3.317,0,0,1,79.362.164Zm.082-6.385a2.132,2.132,0,0,0-1.709.735,3.018,3.018,0,0,0-.629,2.027A2.854,2.854,0,0,0,77.742-1.5a2.161,2.161,0,0,0,1.7.718,2.049,2.049,0,0,0,1.671-.7,3.055,3.055,0,0,0,.584-2,3.108,3.108,0,0,0-.584-2.023A2.04,2.04,0,0,0,79.444-6.221Zm1.641-4.348L79.294-8.326h-.868l1.524-2.242ZM90.45,0H89.329V-3.992q0-2.229-1.627-2.229a1.765,1.765,0,0,0-1.391.632,2.344,2.344,0,0,0-.55,1.6V0H84.639V-7H85.76v1.162h.027a2.526,2.526,0,0,1,2.3-1.326,2.142,2.142,0,0,1,1.757.742,3.3,3.3,0,0,1,.608,2.143Z" transform="translate(598.64 2205.27)" fill="#012739"/>
    <path id="Trazado_191389" data-name="Trazado 191389" d="M7.957-.41A5.749,5.749,0,0,1,5.25.164,4.366,4.366,0,0,1,1.9-1.183,4.969,4.969,0,0,1,.643-4.717a5.208,5.208,0,0,1,1.415-3.8A4.8,4.8,0,0,1,5.646-9.967a5.754,5.754,0,0,1,2.311.4V-8.34a4.686,4.686,0,0,0-2.324-.588A3.566,3.566,0,0,0,2.9-7.8,4.249,4.249,0,0,0,1.846-4.785a4.043,4.043,0,0,0,.981,2.854A3.338,3.338,0,0,0,5.4-.868a4.828,4.828,0,0,0,2.557-.656Zm4.771.574A3.247,3.247,0,0,1,10.25-.817a3.634,3.634,0,0,1-.926-2.6,3.785,3.785,0,0,1,.964-2.755,3.465,3.465,0,0,1,2.6-.991,3.14,3.14,0,0,1,2.444.964,3.822,3.822,0,0,1,.878,2.673,3.761,3.761,0,0,1-.947,2.683A3.317,3.317,0,0,1,12.729.164Zm.082-6.385a2.132,2.132,0,0,0-1.709.735,3.018,3.018,0,0,0-.629,2.027A2.854,2.854,0,0,0,11.108-1.5a2.161,2.161,0,0,0,1.7.718,2.049,2.049,0,0,0,1.671-.7,3.055,3.055,0,0,0,.584-2,3.108,3.108,0,0,0-.584-2.023A2.04,2.04,0,0,0,12.811-6.221ZM27.945,0H26.824V-4.02A3.032,3.032,0,0,0,26.465-5.7a1.361,1.361,0,0,0-1.207-.52,1.494,1.494,0,0,0-1.22.656,2.511,2.511,0,0,0-.5,1.572V0H22.415V-4.156q0-2.064-1.593-2.064a1.475,1.475,0,0,0-1.217.619,2.557,2.557,0,0,0-.479,1.61V0H18.006V-7h1.121v1.107h.027a2.378,2.378,0,0,1,2.174-1.271,2.027,2.027,0,0,1,1.251.4,2.012,2.012,0,0,1,.731,1.049,2.5,2.5,0,0,1,2.324-1.449q2.311,0,2.311,2.851Zm3.268-1.012h-.027V3.22H30.064V-7h1.121v1.23h.027a2.651,2.651,0,0,1,2.42-1.395,2.563,2.563,0,0,1,2.112.94A3.893,3.893,0,0,1,36.5-3.705a4.339,4.339,0,0,1-.854,2.813A2.845,2.845,0,0,1,33.312.164,2.342,2.342,0,0,1,31.213-1.012Zm-.027-2.823v.978a2.081,2.081,0,0,0,.564,1.473,1.873,1.873,0,0,0,1.432.6,1.876,1.876,0,0,0,1.6-.779,3.575,3.575,0,0,0,.578-2.167,2.822,2.822,0,0,0-.54-1.832,1.787,1.787,0,0,0-1.463-.663,1.986,1.986,0,0,0-1.572.68A2.5,2.5,0,0,0,31.186-3.835Zm10.76-2.03a1.371,1.371,0,0,0-.848-.226,1.431,1.431,0,0,0-1.2.677,3.129,3.129,0,0,0-.482,1.846V0H38.295V-7h1.121v1.442h.027a2.444,2.444,0,0,1,.731-1.152,1.668,1.668,0,0,1,1.1-.414,1.83,1.83,0,0,1,.67.1Zm4,6.029A3.247,3.247,0,0,1,43.47-.817a3.634,3.634,0,0,1-.926-2.6,3.785,3.785,0,0,1,.964-2.755,3.465,3.465,0,0,1,2.6-.991,3.14,3.14,0,0,1,2.444.964,3.822,3.822,0,0,1,.878,2.673,3.761,3.761,0,0,1-.947,2.683A3.317,3.317,0,0,1,45.948.164Zm.082-6.385a2.132,2.132,0,0,0-1.709.735,3.018,3.018,0,0,0-.629,2.027A2.854,2.854,0,0,0,44.328-1.5a2.161,2.161,0,0,0,1.7.718,2.049,2.049,0,0,0,1.671-.7,3.055,3.055,0,0,0,.584-2A3.108,3.108,0,0,0,47.7-5.51,2.04,2.04,0,0,0,46.03-6.221Zm6.344,5.209h-.027V0H51.225V-10.363h1.121V-5.77h.027a2.651,2.651,0,0,1,2.42-1.395,2.566,2.566,0,0,1,2.109.94,3.881,3.881,0,0,1,.762,2.519A4.339,4.339,0,0,1,56.81-.892,2.845,2.845,0,0,1,54.472.164,2.3,2.3,0,0,1,52.374-1.012Zm-.027-2.823v.978a2.081,2.081,0,0,0,.564,1.473,1.873,1.873,0,0,0,1.432.6,1.876,1.876,0,0,0,1.6-.779,3.575,3.575,0,0,0,.578-2.167,2.822,2.822,0,0,0-.54-1.832,1.787,1.787,0,0,0-1.463-.663,1.986,1.986,0,0,0-1.572.68A2.5,2.5,0,0,0,52.346-3.835ZM64.466,0H63.345V-1.094h-.027A2.347,2.347,0,0,1,61.165.164,2.3,2.3,0,0,1,59.527-.39a1.918,1.918,0,0,1-.591-1.47q0-1.962,2.311-2.283l2.1-.294q0-1.784-1.442-1.784a3.446,3.446,0,0,0-2.283.861V-6.508A4.338,4.338,0,0,1,62-7.164q2.468,0,2.468,2.611ZM63.345-3.541l-1.688.232a2.741,2.741,0,0,0-1.176.386,1.114,1.114,0,0,0-.4.981,1.068,1.068,0,0,0,.366.837,1.413,1.413,0,0,0,.974.325A1.8,1.8,0,0,0,62.8-1.364a2.088,2.088,0,0,0,.543-1.48Zm8,3.22a3.643,3.643,0,0,1-1.914.485A3.169,3.169,0,0,1,67.02-.81,3.53,3.53,0,0,1,66.1-3.336a3.881,3.881,0,0,1,.991-2.779,3.467,3.467,0,0,1,2.646-1.049,3.682,3.682,0,0,1,1.627.342v1.148A2.85,2.85,0,0,0,69.7-6.221a2.254,2.254,0,0,0-1.76.769,2.918,2.918,0,0,0-.687,2.02,2.779,2.779,0,0,0,.646,1.941,2.227,2.227,0,0,0,1.733.711,2.81,2.81,0,0,0,1.723-.608Zm2.27-8.456a.71.71,0,0,1-.513-.205A.692.692,0,0,1,72.9-9.5a.7.7,0,0,1,.212-.523.7.7,0,0,1,.513-.208.724.724,0,0,1,.523.208.7.7,0,0,1,.215.523.693.693,0,0,1-.215.513A.718.718,0,0,1,73.62-8.777ZM74.167,0H73.046V-7h1.121Zm5.2.164a3.247,3.247,0,0,1-2.478-.981,3.633,3.633,0,0,1-.926-2.6,3.785,3.785,0,0,1,.964-2.755,3.465,3.465,0,0,1,2.6-.991A3.14,3.14,0,0,1,81.97-6.2a3.822,3.822,0,0,1,.878,2.673A3.761,3.761,0,0,1,81.9-.844,3.317,3.317,0,0,1,79.362.164Zm.082-6.385a2.132,2.132,0,0,0-1.709.735,3.018,3.018,0,0,0-.629,2.027A2.854,2.854,0,0,0,77.742-1.5a2.161,2.161,0,0,0,1.7.718,2.049,2.049,0,0,0,1.671-.7,3.055,3.055,0,0,0,.584-2,3.108,3.108,0,0,0-.584-2.023A2.04,2.04,0,0,0,79.444-6.221Zm1.641-4.348L79.294-8.326h-.868l1.524-2.242ZM90.45,0H89.329V-3.992q0-2.229-1.627-2.229a1.765,1.765,0,0,0-1.391.632,2.344,2.344,0,0,0-.55,1.6V0H84.639V-7H85.76v1.162h.027a2.526,2.526,0,0,1,2.3-1.326,2.142,2.142,0,0,1,1.757.742,3.3,3.3,0,0,1,.608,2.143Z" transform="translate(556.08 2107.56)" fill="#012739"/>
    <path id="Trazado_191390" data-name="Trazado 191390" d="M6.72,0H207.5a6.72,6.72,0,0,1,6.72,6.72V30.86a6.72,6.72,0,0,1-6.72,6.72H6.72A6.72,6.72,0,0,1,0,30.86V6.72A6.72,6.72,0,0,1,6.72,0Z" transform="translate(345.4 2140.13)" fill="#3a8e9b"/>
    <path id="Trazado_191391" data-name="Trazado 191391" d="M6.72,0H207.5a6.72,6.72,0,0,1,6.72,6.72V30.86a6.72,6.72,0,0,1-6.72,6.72H6.72A6.72,6.72,0,0,1,0,30.86V6.72A6.72,6.72,0,0,1,6.72,0Z" transform="translate(346.25 2139.279)" fill="#6de0d4"/>
    <path id="Trazado_191392" data-name="Trazado 191392" d="M1.441,0V-12.6H5.906q6.715,0,6.715,6.144a6.212,6.212,0,0,1-1.833,4.7A6.757,6.757,0,0,1,5.906,0ZM4.28-10.292V-2.3H5.687a3.8,3.8,0,0,0,2.9-1.107,4.2,4.2,0,0,0,1.05-3.015A3.812,3.812,0,0,0,8.591-9.259a3.971,3.971,0,0,0-2.922-1.033Zm11.566-.132a1.622,1.622,0,0,1-1.151-.417,1.345,1.345,0,0,1-.448-1.024,1.3,1.3,0,0,1,.448-1.02,1.676,1.676,0,0,1,1.151-.4,1.672,1.672,0,0,1,1.156.4,1.3,1.3,0,0,1,.444,1.02A1.34,1.34,0,0,1,17-10.828,1.65,1.65,0,0,1,15.847-10.424ZM17.218,0H14.44V-9h2.777Zm1.749-.237v-2.25a5.913,5.913,0,0,0,1.367.615,4.531,4.531,0,0,0,1.288.2,2.762,2.762,0,0,0,1.165-.2.653.653,0,0,0,.426-.615.569.569,0,0,0-.193-.439,1.8,1.8,0,0,0-.5-.308,5.635,5.635,0,0,0-.664-.237q-.36-.105-.694-.237a6.653,6.653,0,0,1-.945-.435,2.731,2.731,0,0,1-.686-.541,2.125,2.125,0,0,1-.422-.712,2.841,2.841,0,0,1-.145-.958,2.466,2.466,0,0,1,.33-1.3,2.692,2.692,0,0,1,.879-.892,4.016,4.016,0,0,1,1.257-.51A6.553,6.553,0,0,1,22.9-9.22a8.168,8.168,0,0,1,1.213.092,9.053,9.053,0,0,1,1.213.268v2.145A4.383,4.383,0,0,0,24.2-7.176a4.764,4.764,0,0,0-1.182-.154,2.619,2.619,0,0,0-.514.048,1.693,1.693,0,0,0-.426.141.783.783,0,0,0-.29.237.546.546,0,0,0-.105.33.609.609,0,0,0,.158.422,1.374,1.374,0,0,0,.413.3,4.078,4.078,0,0,0,.567.229q.312.1.62.207a8.056,8.056,0,0,1,1,.422,3.2,3.2,0,0,1,.769.536,2.105,2.105,0,0,1,.492.721,2.562,2.562,0,0,1,.171.984,2.568,2.568,0,0,1-.347,1.367,2.78,2.78,0,0,1-.923.923,4.185,4.185,0,0,1-1.327.519,7.357,7.357,0,0,1-1.56.163A8.042,8.042,0,0,1,18.967-.237ZM35.561-3.709H29.689q.141,1.96,2.47,1.96a4.822,4.822,0,0,0,2.61-.7v2A6.858,6.858,0,0,1,31.526.22,4.565,4.565,0,0,1,28.143-.989a4.566,4.566,0,0,1-1.2-3.371,4.816,4.816,0,0,1,1.3-3.551,4.334,4.334,0,0,1,3.2-1.31,3.933,3.933,0,0,1,3.045,1.169,4.5,4.5,0,0,1,1.077,3.173ZM32.985-5.414q0-1.934-1.564-1.934a1.494,1.494,0,0,0-1.156.554,2.513,2.513,0,0,0-.593,1.38ZM45.905,0H43.137V-5q0-2.092-1.494-2.092a1.483,1.483,0,0,0-1.187.554,2.109,2.109,0,0,0-.466,1.406V0H37.213V-9H39.99v1.424h.035A3.183,3.183,0,0,1,42.917-9.22q2.988,0,2.988,3.709Zm-1.23-13.157a3.2,3.2,0,0,1-.488,1.9,1.558,1.558,0,0,1-1.332.672,3.144,3.144,0,0,1-1.477-.378,2.959,2.959,0,0,0-1.081-.413q-.7,0-.7.949H38.355a3.225,3.225,0,0,1,.483-1.9A1.568,1.568,0,0,1,40.192-13a3.008,3.008,0,0,1,1.477.431,2.476,2.476,0,0,0,1.055.387q.686,0,.686-.976ZM52.392.22a4.838,4.838,0,0,1-3.538-1.261,4.573,4.573,0,0,1-1.288-3.423A4.573,4.573,0,0,1,48.9-7.958,5.048,5.048,0,0,1,52.515-9.22,4.78,4.78,0,0,1,56.03-7.958,4.483,4.483,0,0,1,57.3-4.623a4.759,4.759,0,0,1-1.314,3.542A4.892,4.892,0,0,1,52.392.22Zm.07-7.312a1.852,1.852,0,0,0-1.529.677A2.984,2.984,0,0,0,50.388-4.5q0,2.593,2.092,2.593,2,0,2-2.663Q54.475-7.093,52.462-7.093Z" transform="translate(373.93 2164.55)" fill="#012739"/>
    <path id="Trazado_191393" data-name="Trazado 191393" d="M6.72,0H207.5a6.72,6.72,0,0,1,6.72,6.72V30.86a6.72,6.72,0,0,1-6.72,6.72H6.72A6.72,6.72,0,0,1,0,30.86V6.72A6.72,6.72,0,0,1,6.72,0Z" transform="translate(397.75 2235.62)" fill="#3a8e9b"/>
    <path id="Trazado_191394" data-name="Trazado 191394" d="M6.72,0H207.5a6.72,6.72,0,0,1,6.72,6.72V30.86a6.72,6.72,0,0,1-6.72,6.72H6.72A6.72,6.72,0,0,1,0,30.86V6.72A6.72,6.72,0,0,1,6.72,0Z" transform="translate(398.6 2234.76)" fill="#6ec7df"/>
    <path id="Trazado_191395" data-name="Trazado 191395" d="M4.28,0H1.441V-12.6H4.28ZM21.164,0H18.4V-5.133q0-1.96-1.441-1.96a1.324,1.324,0,0,0-1.116.589,2.42,2.42,0,0,0-.431,1.468V0H12.63V-5.186q0-1.907-1.415-1.907a1.356,1.356,0,0,0-1.138.563A2.475,2.475,0,0,0,9.65-5V0H6.873V-9H9.65v1.406h.035a3.321,3.321,0,0,1,1.208-1.173,3.321,3.321,0,0,1,1.7-.453,2.592,2.592,0,0,1,2.61,1.679A3.329,3.329,0,0,1,18.229-9.22q2.936,0,2.936,3.621Zm5.01-1.046h-.035V4.14H23.361V-9h2.777v1.354h.035A3.265,3.265,0,0,1,29.065-9.22a3.253,3.253,0,0,1,2.7,1.2,5.108,5.108,0,0,1,.954,3.265A5.537,5.537,0,0,1,31.61-1.143,3.625,3.625,0,0,1,28.652.22,2.8,2.8,0,0,1,26.174-1.046Zm-.079-3.691v.721A2.291,2.291,0,0,0,26.587-2.5a1.6,1.6,0,0,0,1.292.589,1.7,1.7,0,0,0,1.472-.734,3.543,3.543,0,0,0,.523-2.079q0-2.373-1.846-2.373a1.733,1.733,0,0,0-1.393.646A2.576,2.576,0,0,0,26.095-4.737ZM37.3,0H34.523V-13.324H37.3ZM47.725-3.709H41.854q.141,1.96,2.47,1.96a4.822,4.822,0,0,0,2.61-.7v2A6.858,6.858,0,0,1,43.69.22,4.565,4.565,0,0,1,40.307-.989a4.566,4.566,0,0,1-1.2-3.371A4.816,4.816,0,0,1,40.4-7.91a4.334,4.334,0,0,1,3.2-1.31,3.933,3.933,0,0,1,3.045,1.169,4.5,4.5,0,0,1,1.077,3.173ZM45.149-5.414q0-1.934-1.564-1.934a1.494,1.494,0,0,0-1.156.554,2.513,2.513,0,0,0-.593,1.38ZM63.668,0H60.9V-5.133q0-1.96-1.441-1.96a1.324,1.324,0,0,0-1.116.589,2.42,2.42,0,0,0-.431,1.468V0H55.134V-5.186q0-1.907-1.415-1.907a1.356,1.356,0,0,0-1.138.563A2.475,2.475,0,0,0,52.154-5V0H49.377V-9h2.777v1.406h.035A3.321,3.321,0,0,1,53.4-8.767a3.321,3.321,0,0,1,1.7-.453,2.592,2.592,0,0,1,2.61,1.679A3.329,3.329,0,0,1,60.732-9.22q2.936,0,2.936,3.621ZM73.951-3.709H68.08q.141,1.96,2.47,1.96a4.822,4.822,0,0,0,2.61-.7v2A6.858,6.858,0,0,1,69.917.22,4.565,4.565,0,0,1,66.533-.989a4.566,4.566,0,0,1-1.2-3.371,4.816,4.816,0,0,1,1.3-3.551,4.334,4.334,0,0,1,3.2-1.31,3.933,3.933,0,0,1,3.045,1.169,4.5,4.5,0,0,1,1.077,3.173ZM71.376-5.414q0-1.934-1.564-1.934a1.494,1.494,0,0,0-1.156.554,2.513,2.513,0,0,0-.593,1.38ZM84.3,0H81.527V-5q0-2.092-1.494-2.092a1.483,1.483,0,0,0-1.187.554,2.109,2.109,0,0,0-.466,1.406V0H75.6V-9h2.777v1.424h.035A3.183,3.183,0,0,1,81.308-9.22q2.988,0,2.988,3.709Zm7.638-.105A4.105,4.105,0,0,1,90.079.22q-2.936,0-2.936-3.05V-6.952H85.685V-9h1.459v-1.942l2.769-.791V-9h2.021v2.048H89.912v3.639q0,1.406,1.116,1.406a1.882,1.882,0,0,0,.905-.255ZM100.986,0H98.358V-1.292h-.035A2.933,2.933,0,0,1,95.643.22a2.8,2.8,0,0,1-2.061-.743A2.661,2.661,0,0,1,92.83-2.5q0-2.619,3.1-3.023l2.443-.325q0-1.477-1.6-1.477a5.46,5.46,0,0,0-3.059.958V-8.464A6.881,6.881,0,0,1,95.3-8.991a8.339,8.339,0,0,1,1.833-.229q3.85,0,3.85,3.841Zm-2.61-3.656v-.606l-1.635.211q-1.354.176-1.354,1.222a1.01,1.01,0,0,0,.33.778,1.266,1.266,0,0,0,.892.3,1.644,1.644,0,0,0,1.274-.541A1.952,1.952,0,0,0,98.376-3.656ZM110-.325a5.492,5.492,0,0,1-2.716.545,4.593,4.593,0,0,1-3.357-1.257,4.341,4.341,0,0,1-1.283-3.243A4.782,4.782,0,0,1,104.023-7.9,5.083,5.083,0,0,1,107.7-9.22,4.72,4.72,0,0,1,110-8.8v2.355a3.166,3.166,0,0,0-1.942-.65,2.559,2.559,0,0,0-1.894.7,2.607,2.607,0,0,0-.7,1.929,2.565,2.565,0,0,0,.668,1.876,2.455,2.455,0,0,0,1.837.681,3.666,3.666,0,0,0,2.03-.65Zm3.226-10.1a1.622,1.622,0,0,1-1.151-.417,1.345,1.345,0,0,1-.448-1.024,1.3,1.3,0,0,1,.448-1.02,1.676,1.676,0,0,1,1.151-.4,1.672,1.672,0,0,1,1.156.4,1.3,1.3,0,0,1,.444,1.02,1.34,1.34,0,0,1-.444,1.037A1.65,1.65,0,0,1,113.229-10.424ZM114.6,0h-2.777V-9H114.6Zm6.627.22a4.838,4.838,0,0,1-3.538-1.261A4.573,4.573,0,0,1,116.4-4.465a4.573,4.573,0,0,1,1.336-3.494,5.048,5.048,0,0,1,3.612-1.261,4.78,4.78,0,0,1,3.516,1.261,4.483,4.483,0,0,1,1.274,3.335,4.759,4.759,0,0,1-1.314,3.542A4.892,4.892,0,0,1,121.228.22Zm.07-7.312a1.852,1.852,0,0,0-1.529.677,2.984,2.984,0,0,0-.545,1.916q0,2.593,2.092,2.593,2,0,2-2.663Q123.311-7.093,121.3-7.093Zm2.979-6.17-2.751,2.839h-2l2.285-2.839ZM136.626,0h-2.769V-5q0-2.092-1.494-2.092a1.483,1.483,0,0,0-1.187.554,2.109,2.109,0,0,0-.466,1.406V0h-2.777V-9h2.777v1.424h.035a3.183,3.183,0,0,1,2.892-1.644q2.988,0,2.988,3.709Z" transform="translate(433.52 2261.54)" fill="#012739"/>
    <path id="Trazado_191396" data-name="Trazado 191396" d="M6.72,0H207.5a6.72,6.72,0,0,1,6.72,6.72V30.86a6.72,6.72,0,0,1-6.72,6.72H6.72A6.72,6.72,0,0,1,0,30.86V6.72A6.72,6.72,0,0,1,6.72,0Z" transform="translate(450.1 2331.1)" fill="#3a8e9b"/>
    <path id="Trazado_191397" data-name="Trazado 191397" d="M6.72,0H207.5a6.72,6.72,0,0,1,6.72,6.72V30.86a6.72,6.72,0,0,1-6.72,6.72H6.72A6.72,6.72,0,0,1,0,30.86V6.72A6.72,6.72,0,0,1,6.72,0Z" transform="translate(450.95 2330.25)" fill="#35afea"/>
    <path id="Trazado_191398" data-name="Trazado 191398" d="M11.936-12.6,7.594,0H4.377L.088-12.6H3.146L5.774-3.832a6.282,6.282,0,0,1,.255,1.257h.053a7.1,7.1,0,0,1,.272-1.292L8.965-12.6Zm7.8,8.895H13.861q.141,1.96,2.47,1.96a4.822,4.822,0,0,0,2.61-.7v2A6.858,6.858,0,0,1,15.7.22,4.565,4.565,0,0,1,12.314-.989a4.566,4.566,0,0,1-1.2-3.371,4.816,4.816,0,0,1,1.3-3.551,4.334,4.334,0,0,1,3.2-1.31,3.933,3.933,0,0,1,3.045,1.169,4.5,4.5,0,0,1,1.077,3.173ZM17.157-5.414q0-1.934-1.564-1.934a1.494,1.494,0,0,0-1.156.554,2.513,2.513,0,0,0-.593,1.38ZM27.255-6.5a2.409,2.409,0,0,0-1.169-.272,1.684,1.684,0,0,0-1.415.664,2.9,2.9,0,0,0-.51,1.806V0H21.384V-9h2.777v1.67H24.2A2.4,2.4,0,0,1,26.57-9.158a1.788,1.788,0,0,1,.686.105Zm2.769-3.929a1.622,1.622,0,0,1-1.151-.417,1.345,1.345,0,0,1-.448-1.024,1.3,1.3,0,0,1,.448-1.02,1.676,1.676,0,0,1,1.151-.4,1.672,1.672,0,0,1,1.156.4,1.3,1.3,0,0,1,.444,1.02,1.34,1.34,0,0,1-.444,1.037A1.65,1.65,0,0,1,30.024-10.424ZM31.395,0H28.618V-9h2.777ZM39.6-11.2a2.806,2.806,0,0,0-1.028-.211q-1.336,0-1.336,1.45V-9H39.3v2.048H37.24V0H34.471V-6.952H32.959V-9h1.512v-1.116a3.24,3.24,0,0,1,1-2.479,3.821,3.821,0,0,1,2.725-.94,4.785,4.785,0,0,1,1.406.176Zm2.435.773a1.622,1.622,0,0,1-1.151-.417,1.345,1.345,0,0,1-.448-1.024,1.3,1.3,0,0,1,.448-1.02,1.676,1.676,0,0,1,1.151-.4,1.672,1.672,0,0,1,1.156.4,1.3,1.3,0,0,1,.444,1.02,1.34,1.34,0,0,1-.444,1.037A1.65,1.65,0,0,1,42.038-10.424ZM43.41,0H40.632V-9H43.41Zm9.158-.325A5.492,5.492,0,0,1,49.852.22a4.593,4.593,0,0,1-3.357-1.257A4.341,4.341,0,0,1,45.211-4.28,4.782,4.782,0,0,1,46.587-7.9,5.083,5.083,0,0,1,50.265-9.22a4.72,4.72,0,0,1,2.3.422v2.355a3.166,3.166,0,0,0-1.942-.65,2.559,2.559,0,0,0-1.894.7,2.607,2.607,0,0,0-.7,1.929A2.565,2.565,0,0,0,48.7-2.588a2.455,2.455,0,0,0,1.837.681,3.666,3.666,0,0,0,2.03-.65ZM61.875,0H59.247V-1.292h-.035A2.933,2.933,0,0,1,56.532.22a2.8,2.8,0,0,1-2.061-.743A2.661,2.661,0,0,1,53.719-2.5q0-2.619,3.1-3.023l2.443-.325q0-1.477-1.6-1.477a5.46,5.46,0,0,0-3.059.958V-8.464a6.881,6.881,0,0,1,1.586-.527,8.339,8.339,0,0,1,1.833-.229q3.85,0,3.85,3.841Zm-2.61-3.656v-.606l-1.635.211q-1.354.176-1.354,1.222a1.01,1.01,0,0,0,.33.778,1.266,1.266,0,0,0,.892.3,1.644,1.644,0,0,0,1.274-.541A1.952,1.952,0,0,0,59.265-3.656ZM70.893-.325A5.492,5.492,0,0,1,68.177.22,4.593,4.593,0,0,1,64.82-1.037,4.341,4.341,0,0,1,63.536-4.28,4.782,4.782,0,0,1,64.912-7.9,5.083,5.083,0,0,1,68.59-9.22a4.72,4.72,0,0,1,2.3.422v2.355a3.166,3.166,0,0,0-1.942-.65,2.559,2.559,0,0,0-1.894.7,2.607,2.607,0,0,0-.7,1.929,2.565,2.565,0,0,0,.668,1.876,2.455,2.455,0,0,0,1.837.681,3.666,3.666,0,0,0,2.03-.65Zm3.226-10.1a1.622,1.622,0,0,1-1.151-.417,1.345,1.345,0,0,1-.448-1.024,1.3,1.3,0,0,1,.448-1.02,1.676,1.676,0,0,1,1.151-.4,1.672,1.672,0,0,1,1.156.4,1.3,1.3,0,0,1,.444,1.02,1.34,1.34,0,0,1-.444,1.037A1.65,1.65,0,0,1,74.119-10.424ZM75.49,0H72.712V-9H75.49Zm6.627.22a4.838,4.838,0,0,1-3.538-1.261,4.573,4.573,0,0,1-1.288-3.423,4.573,4.573,0,0,1,1.336-3.494A5.048,5.048,0,0,1,82.24-9.22a4.78,4.78,0,0,1,3.516,1.261A4.483,4.483,0,0,1,87.03-4.623a4.759,4.759,0,0,1-1.314,3.542A4.892,4.892,0,0,1,82.117.22Zm.07-7.312a1.852,1.852,0,0,0-1.529.677A2.984,2.984,0,0,0,80.113-4.5q0,2.593,2.092,2.593,2,0,2-2.663Q84.2-7.093,82.187-7.093Zm2.979-6.17-2.751,2.839h-2L82.7-13.263ZM97.515,0H94.746V-5q0-2.092-1.494-2.092a1.483,1.483,0,0,0-1.187.554A2.109,2.109,0,0,0,91.6-5.133V0H88.823V-9H91.6v1.424h.035A3.183,3.183,0,0,1,94.527-9.22q2.988,0,2.988,3.709Z" transform="translate(485.64 2355.39)" fill="#012739"/>
    <path id="Trazado_191399" data-name="Trazado 191399" d="M6.72,0H207.5a6.72,6.72,0,0,1,6.72,6.72V30.86a6.72,6.72,0,0,1-6.72,6.72H6.72A6.72,6.72,0,0,1,0,30.86V6.72A6.72,6.72,0,0,1,6.72,0Z" transform="translate(502.45 2426.59)" fill="#3a8e9b"/>
    <path id="Trazado_191400" data-name="Trazado 191400" d="M6.72,0H207.5a6.72,6.72,0,0,1,6.72,6.72V30.86a6.72,6.72,0,0,1-6.72,6.72H6.72A6.72,6.72,0,0,1,0,30.86V6.72A6.72,6.72,0,0,1,6.72,0Z" transform="translate(503.3 2425.729)" fill="#039be5"/>
    <path id="Trazado_191401" data-name="Trazado 191401" d="M15.8,0H13V-7.541q0-1.222.105-2.7h-.07a13.277,13.277,0,0,1-.4,1.67L9.686,0H7.365L4.359-8.481a16.5,16.5,0,0,1-.4-1.758H3.885Q4-8.376,4-6.97V0H1.441V-12.6H5.6L8.174-5.133a10.519,10.519,0,0,1,.448,1.8h.053a18.142,18.142,0,0,1,.5-1.819L11.751-12.6H15.8ZM25.884,0H23.256V-1.292h-.035A2.933,2.933,0,0,1,20.54.22a2.8,2.8,0,0,1-2.061-.743A2.661,2.661,0,0,1,17.728-2.5q0-2.619,3.1-3.023l2.443-.325q0-1.477-1.6-1.477a5.46,5.46,0,0,0-3.059.958V-8.464A6.881,6.881,0,0,1,20.2-8.991a8.339,8.339,0,0,1,1.833-.229q3.85,0,3.85,3.841Zm-2.61-3.656v-.606l-1.635.211q-1.354.176-1.354,1.222a1.01,1.01,0,0,0,.33.778,1.266,1.266,0,0,0,.892.3,1.644,1.644,0,0,0,1.274-.541A1.952,1.952,0,0,0,23.273-3.656ZM36.773,0H34V-5q0-2.092-1.494-2.092a1.483,1.483,0,0,0-1.187.554,2.109,2.109,0,0,0-.466,1.406V0H28.081V-9h2.777v1.424h.035A3.183,3.183,0,0,1,33.785-9.22q2.988,0,2.988,3.709Zm7.638-.105A4.105,4.105,0,0,1,42.557.22q-2.936,0-2.936-3.05V-6.952H38.162V-9h1.459v-1.942l2.769-.791V-9h2.021v2.048H42.39v3.639q0,1.406,1.116,1.406a1.882,1.882,0,0,0,.905-.255Zm9.58-3.6H48.12q.141,1.96,2.47,1.96a4.822,4.822,0,0,0,2.61-.7v2A6.858,6.858,0,0,1,49.957.22,4.565,4.565,0,0,1,46.573-.989a4.566,4.566,0,0,1-1.2-3.371,4.816,4.816,0,0,1,1.3-3.551,4.334,4.334,0,0,1,3.2-1.31,3.933,3.933,0,0,1,3.045,1.169,4.5,4.5,0,0,1,1.077,3.173ZM51.416-5.414q0-1.934-1.564-1.934a1.494,1.494,0,0,0-1.156.554,2.513,2.513,0,0,0-.593,1.38ZM64.336,0H61.567V-5q0-2.092-1.494-2.092a1.483,1.483,0,0,0-1.187.554,2.109,2.109,0,0,0-.466,1.406V0H55.644V-9h2.777v1.424h.035A3.183,3.183,0,0,1,61.348-9.22q2.988,0,2.988,3.709Zm3.6-10.424a1.622,1.622,0,0,1-1.151-.417,1.345,1.345,0,0,1-.448-1.024,1.3,1.3,0,0,1,.448-1.02,1.676,1.676,0,0,1,1.151-.4,1.672,1.672,0,0,1,1.156.4,1.3,1.3,0,0,1,.444,1.02,1.34,1.34,0,0,1-.444,1.037A1.65,1.65,0,0,1,67.939-10.424ZM69.311,0H66.533V-9h2.777ZM85.939,0H83.171V-5.133q0-1.96-1.441-1.96a1.324,1.324,0,0,0-1.116.589,2.42,2.42,0,0,0-.431,1.468V0H77.405V-5.186q0-1.907-1.415-1.907a1.356,1.356,0,0,0-1.138.563A2.475,2.475,0,0,0,74.426-5V0H71.648V-9h2.777v1.406h.035a3.321,3.321,0,0,1,1.208-1.173,3.321,3.321,0,0,1,1.7-.453,2.592,2.592,0,0,1,2.61,1.679A3.329,3.329,0,0,1,83-9.22q2.936,0,2.936,3.621Zm3.6-10.424a1.622,1.622,0,0,1-1.151-.417,1.345,1.345,0,0,1-.448-1.024,1.3,1.3,0,0,1,.448-1.02,1.676,1.676,0,0,1,1.151-.4,1.672,1.672,0,0,1,1.156.4,1.3,1.3,0,0,1,.444,1.02,1.34,1.34,0,0,1-.444,1.037A1.65,1.65,0,0,1,89.543-10.424ZM90.914,0H88.137V-9h2.777Zm10.424-3.709H95.467q.141,1.96,2.47,1.96a4.822,4.822,0,0,0,2.61-.7v2A6.858,6.858,0,0,1,97.3.22,4.565,4.565,0,0,1,93.92-.989a4.566,4.566,0,0,1-1.2-3.371,4.816,4.816,0,0,1,1.3-3.551,4.334,4.334,0,0,1,3.2-1.31,3.933,3.933,0,0,1,3.045,1.169,4.5,4.5,0,0,1,1.077,3.173ZM98.763-5.414q0-1.934-1.564-1.934a1.494,1.494,0,0,0-1.156.554,2.513,2.513,0,0,0-.593,1.38ZM111.683,0h-2.769V-5q0-2.092-1.494-2.092a1.483,1.483,0,0,0-1.187.554,2.109,2.109,0,0,0-.466,1.406V0H102.99V-9h2.777v1.424h.035a3.183,3.183,0,0,1,2.892-1.644q2.988,0,2.988,3.709Zm7.638-.105a4.105,4.105,0,0,1-1.854.325q-2.936,0-2.936-3.05V-6.952h-1.459V-9h1.459v-1.942l2.769-.791V-9h2.021v2.048H117.3v3.639q0,1.406,1.116,1.406a1.882,1.882,0,0,0,.905-.255Zm5.6.325a4.838,4.838,0,0,1-3.538-1.261A4.573,4.573,0,0,1,120.1-4.465a4.573,4.573,0,0,1,1.336-3.494,5.048,5.048,0,0,1,3.612-1.261,4.78,4.78,0,0,1,3.516,1.261,4.483,4.483,0,0,1,1.274,3.335,4.759,4.759,0,0,1-1.314,3.542A4.892,4.892,0,0,1,124.924.22Zm.07-7.312a1.852,1.852,0,0,0-1.529.677A2.984,2.984,0,0,0,122.92-4.5q0,2.593,2.092,2.593,2,0,2-2.663Q127.007-7.093,124.994-7.093ZM132.878.22A1.62,1.62,0,0,1,131.735-.2a1.356,1.356,0,0,1-.457-1.037,1.306,1.306,0,0,1,.47-1.037,1.736,1.736,0,0,1,1.173-.4,1.671,1.671,0,0,1,1.165.409,1.331,1.331,0,0,1,.453,1.033,1.339,1.339,0,0,1-.461,1.05A1.742,1.742,0,0,1,132.878.22Z" transform="translate(538 2450.99)" fill="#012739"/>
  </g>
</svg>
