<svg xmlns="http://www.w3.org/2000/svg" width="125.64" height="128.539" viewBox="0 0 125.64 128.539">
  <g id="Grupo_94285" data-name="Grupo 94285" transform="translate(-1042.68 -501)">
    <rect id="Rectángulo_38963" data-name="Rectángulo 38963" width="115.15" height="115.15" transform="translate(1044.71 501)" fill="none"/>
    <circle id="Elipse_7662" data-name="Elipse 7662" cx="62.82" cy="62.82" r="62.82" transform="translate(1042.68 503.899)" fill="#104c82"/>
    <path id="Trazado_185855" data-name="Trazado 185855" d="M92.81,27.14c.88.18,1.59.88,2.55.8a5.12,5.12,0,0,0,4.78-.82c1.46-1.17,1.89-2.28.9-4.05a4.3,4.3,0,0,1,.65-5.06,14,14,0,0,1,1.43-1.34A5,5,0,0,1,106,19.74c.74,1.86.76,1.88,2.75,1.84.69,0,1.44.33,2.08-.21.79.52,1.68.09,2.5.25,1.11.21,1.61-.34,1.93-1.33a4.87,4.87,0,0,1,2.83-3.47,4.5,4.5,0,0,1,2.39,6.11c-.87,1.78-.68,2.86.81,4.14.88.76,1.45,1,2.43.45a5.46,5.46,0,0,1,3.92-.64,5.28,5.28,0,0,1,3.68,3.67v2.19a6.27,6.27,0,0,1-3.52,3.48c-1.79.65-1.76.72-1.76,2.67A4.86,4.86,0,0,1,126,40c-.14.69.14,1,.78,1.21a6.24,6.24,0,0,1,4.55,4.07v2c-.27.19-.24.52-.34.79a4.8,4.8,0,0,1-4.37,3,6.44,6.44,0,0,1-3-.82c-.86-.44-1.55-.54-2.15.42a4.45,4.45,0,0,1-1.19,1.18,1,1,0,0,0-.32,1.57,5.79,5.79,0,0,1-.12,6.51c-.59.33-1,.91-1.74,1.05a3.53,3.53,0,0,1-.46-.15c-1.49-.79-2-2.29-2.56-3.7-.14-.33-.2-.84-.57-.86a8.34,8.34,0,0,0-3.65.16c-.66-.47-1.4-.19-2.1-.21-2,0-1.94,0-2.68,1.79a4.72,4.72,0,0,1-2.69,3A4.45,4.45,0,0,1,101,54.84c.73-1.66.81-2.8-.73-4.05a5.05,5.05,0,0,0-4.92-.94c-1-.06-1.76.76-2.74.78a2.83,2.83,0,0,0-.32-.36,4.85,4.85,0,0,1-1.22-6.82A4.77,4.77,0,0,1,94,41.51c1.18-.33,1.37-1,1.47-2.14a2.81,2.81,0,0,0-2.25-3.43,4.29,4.29,0,0,1-3-4.45,4.92,4.92,0,0,1,2.59-4.35Zm19.67,18.79a2.62,2.62,0,0,0,1.19-.67,8,8,0,1,0-9.42.34c2.54,1.67,6.09,1.81,8.23.33Z" transform="translate(1028.94 491.72)" fill="#039be5"/>
    <path id="Trazado_185856" data-name="Trazado 185856" d="M131.32,105.83a12.41,12.41,0,0,0-2,2.66c-2,2.85-4,5.73-6,8.6a1.58,1.58,0,0,1-1.42.86H78.95a1.13,1.13,0,0,1,.86-.13,24.28,24.28,0,0,0,4.81-.47,43.94,43.94,0,0,0,14.75-5.18A45.56,45.56,0,0,0,114,98.78c1.24-1.75,2.22-3.66,3.36-5.47h4.56a1.26,1.26,0,0,1,1.22.61q1.98,2.91,4,5.75a70.673,70.673,0,0,0,4.16,5.76Z" transform="translate(1028.94 491.72)" fill="#9dc6fa"/>
    <path id="Trazado_185857" data-name="Trazado 185857" d="M103.12,16.67A14,14,0,0,0,101.69,18a4.3,4.3,0,0,0-.65,5.06c1,1.77.56,2.88-.9,4.05a5.12,5.12,0,0,1-4.78.82,7.88,7.88,0,0,1,2-2.08.88.88,0,0,0,.29-1.25,9.9,9.9,0,0,1-1-2.88A4.86,4.86,0,0,1,100,16.47c.18,0,.41,0,.52-.22h1.59Z" transform="translate(1028.94 491.72)" fill="#427194"/>
    <path id="Trazado_185858" data-name="Trazado 185858" d="M110.83,21.37c.68-2.39,1.82-4.37,4.4-5.12h1.59c.35.35,1,.13,1.27.57a4.87,4.87,0,0,0-2.83,3.47c-.32,1-.82,1.54-1.93,1.33C112.51,21.46,111.62,21.89,110.83,21.37Z" transform="translate(1028.94 491.72)" fill="#427194"/>
    <path id="Trazado_185859" data-name="Trazado 185859" d="M119.81,59.91a23.4,23.4,0,0,1,1.54,6,41.44,41.44,0,0,1,.63,8.17,45,45,0,0,1-4.24,18.24c-.15.33-.26.67-.39,1-1.14,1.81-2.12,3.72-3.36,5.47a45.56,45.56,0,0,1-14.66,13.34,43.94,43.94,0,0,1-14.75,5.18,24.279,24.279,0,0,1-4.81.47,1.13,1.13,0,0,0-.86.13H59a2.6,2.6,0,0,1-.39,0q3.57-5.1,7.13-10.21c1.47-2.13,1.42-2.11-.11-4.27-2.37-3.32-4.68-6.69-7-10H75.32a30.361,30.361,0,0,0,4.57-.15,43.62,43.62,0,0,0,8.08.06,15.93,15.93,0,0,0,4.79-1.08,20.53,20.53,0,0,0,8.55-6,20,20,0,0,0,.8-24.58c.39-.25.92-.18,1.24-.57a4.72,4.72,0,0,0,2.69-3c.74-1.8.73-1.83,2.68-1.79.7,0,1.44-.26,2.1.21a11.4,11.4,0,0,0,1.23,2.9c1.25,2.06,4.19,2.85,6,1.65A10.981,10.981,0,0,0,119.81,59.91Z" transform="translate(1028.94 491.72)" fill="#a1e09f"/>
    <path id="Trazado_185860" data-name="Trazado 185860" d="M58.64,93.34c2.33,3.35,4.64,6.72,7,10,1.53,2.16,1.58,2.14.11,4.27q-3.56,5.11-7.13,10.21H37.19c-.06-.11-.08-.28-.17-.33-2-.9-2.36-2.65-2.38-4.51q-.07-7.43,0-14.84c0-1.47.11-3,1.52-4,.46-.32.93-.61,1.4-.91h8.38Z" transform="translate(1028.94 491.72)" fill="#e18086"/>
    <path id="Trazado_185861" data-name="Trazado 185861" d="M45.93,93.29H37.55a.42.42,0,0,1-.16,0c-.61-1.49-1.24-3-1.8-4.49A43.8,43.8,0,0,1,33,77a43.28,43.28,0,0,1,4.74-24,44.09,44.09,0,0,1,24-21.41,40.44,40.44,0,0,1,15.77-2.77c.2.82-.61.81-1,1.17-.14-.2-.32-.19-.53-.13-1.2.34-2.41.65-3.61,1A44.55,44.55,0,0,0,43.21,60.58,48.44,48.44,0,0,0,41.36,72a47.46,47.46,0,0,0,3.09,17.59,26.94,26.94,0,0,1,1.48,3.7Z" transform="translate(1028.94 491.72)" fill="#f0ca86"/>
    <path id="Trazado_185862" data-name="Trazado 185862" d="M76.5,30c.37-.36,1.18-.35,1-1.17a43.81,43.81,0,0,1,9,.84,5,5,0,0,0,3.3,6.63,12.389,12.389,0,0,1,1.19.49c.21.09.42.18.42.48a13,13,0,0,1-.13,3.43c-.21.69-1.4.71-2.12,1.09l-.44.22a4.72,4.72,0,0,0-2.61,4.54,4.78,4.78,0,0,0,3.59,4.36,3.14,3.14,0,0,0,2.91-.28c1,0,1.74-.84,2.74-.78a7.3,7.3,0,0,0,2,2.08.89.89,0,0,1,.29,1.26,12.57,12.57,0,0,0-1,3c-1.16-.53-2.31-1.12-3.5-1.59C89,53,84.71,53.19,80.47,53.21c-.14,0-.28.14-.42.22h-.37c-.06-.1-.11-.12-.18,0a8.45,8.45,0,0,1-2.19-.15c-2.62-3.77-5.22-7.56-7.89-11.29a1.31,1.31,0,0,1,0-1.82C71.79,36.73,74.14,33.33,76.5,30Z" transform="translate(1028.94 491.72)" fill="#a1e09e"/>
    <path id="Trazado_185863" data-name="Trazado 185863" d="M37.39,93.3a.42.42,0,0,0,.16,0c-.47.3-.94.59-1.4.91-1.41,1-1.51,2.5-1.52,4q-.09,7.41,0,14.84c0,1.86.42,3.61,2.38,4.51.09.05.11.22.17.33a21.541,21.541,0,0,1-4.54-.13,3.73,3.73,0,0,1-3-3.69v-17a3.82,3.82,0,0,1,3.78-3.79C34.74,93.3,36.06,93.31,37.39,93.3Z" transform="translate(1028.94 491.72)" fill="#dc636e"/>
    <path id="Trazado_185864" data-name="Trazado 185864" d="M92.61,50.63a3.14,3.14,0,0,1-2.91.28,4.78,4.78,0,0,1-3.59-4.36A4.72,4.72,0,0,1,88.72,42l.44-.22c.72-.38,1.91-.4,2.12-1.09a13,13,0,0,0,.13-3.43c0-.3-.21-.39-.42-.48a12.389,12.389,0,0,0-1.19-.49,5,5,0,0,1-3.33-6.68c1.62-2.66,3.9-3.55,6.34-2.48a4.92,4.92,0,0,0-2.61,4.35,4.29,4.29,0,0,0,3,4.45,2.81,2.81,0,0,1,2.25,3.43c-.1,1.13-.29,1.81-1.47,2.14a4.77,4.77,0,0,0-2.89,1.94,4.85,4.85,0,0,0,1.22,6.82,2.83,2.83,0,0,1,.3.37Z" transform="translate(1028.94 491.72)" fill="#417193"/>
    <path id="Trazado_185865" data-name="Trazado 185865" d="M101.38,35.7A46.5,46.5,0,0,1,111.82,45a11.182,11.182,0,0,1,.66,1c-2.14,1.48-5.69,1.34-8.23-.33a8.05,8.05,0,0,1-2.87-9.97Z" transform="translate(1028.94 491.72)" fill="#a1e09f"/>
    <path id="Trazado_185866" data-name="Trazado 185866" d="M96.54,56.17a12.571,12.571,0,0,1,1-3,.89.89,0,0,0-.29-1.26,7.3,7.3,0,0,1-2-2.08,5.05,5.05,0,0,1,4.92.94c1.54,1.25,1.46,2.39.73,4.05A4.45,4.45,0,0,0,103.36,61c-.32.39-.85.32-1.24.57a5,5,0,0,1-5.58-5.4Z" transform="translate(1028.94 491.72)" fill="#417193"/>
    <path id="Trazado_185867" data-name="Trazado 185867" d="M118.07,61c-1.82,1.2-4.76.41-6-1.65a11.4,11.4,0,0,1-1.23-2.9,8.34,8.34,0,0,1,3.65-.16c.37,0,.43.53.57.86.6,1.41,1.07,2.91,2.56,3.7a3.53,3.53,0,0,0,.45.15Z" transform="translate(1028.94 491.72)" fill="#417193"/>
    <path id="Trazado_185868" data-name="Trazado 185868" d="M77.31,53.21c-1.66.27-3.34.29-5,.72A20,20,0,0,0,57.62,70.5a19.46,19.46,0,0,0,5.71,17,19.07,19.07,0,0,0,11.54,5.63,1.68,1.68,0,0,1,.46.16H45.93a26.94,26.94,0,0,0-1.48-3.66A47.46,47.46,0,0,1,41.36,72a48.44,48.44,0,0,1,1.85-11.46,44.79,44.79,0,0,1,29.15-29.7c1.2-.37,2.41-.68,3.61-1,.21-.06.39-.07.53.13-2.36,3.38-4.71,6.78-7.09,10.15a1.31,1.31,0,0,0,0,1.82C72.09,45.65,74.69,49.44,77.31,53.21Z" transform="translate(1028.94 491.72)" fill="#ffdca8"/>
    <path id="Trazado_185869" data-name="Trazado 185869" d="M79.9,93.15a20,20,0,0,0,.42-39.6,1.07,1.07,0,0,1-.27-.12c.14-.08.28-.22.42-.22C84.71,53.19,89,53,93,54.58c1.19.47,2.34,1.06,3.5,1.59a5,5,0,0,0,5.58,5.36,20,20,0,0,1-.8,24.58,20.53,20.53,0,0,1-8.55,6A15.93,15.93,0,0,1,88,93.21a43.621,43.621,0,0,1-8.1-.06Z" transform="translate(1028.94 491.72)" fill="#97ce92"/>
    <path id="Trazado_185870" data-name="Trazado 185870" d="M79.68,53.38H79.5C79.57,53.26,79.62,53.28,79.68,53.38Z" transform="translate(1028.94 491.72)" fill="#97ce92"/>
  </g>
</svg>
