<?xml version="1.0" encoding="utf-8"?>
<!-- Generator: Adobe Illustrator 26.0.3, SVG Export Plug-In . SVG Version: 6.00 Build 0)  -->
<svg version="1.1" id="Layer_1" xmlns="http://www.w3.org/2000/svg" xmlns:xlink="http://www.w3.org/1999/xlink" x="0px" y="0px"
	 viewBox="0 0 574.9 306.4" style="enable-background:new 0 0 574.9 306.4;" xml:space="preserve">
<style type="text/css">
	.st0{fill:#35AFEA;}
	.st1{fill:url(#Trazado_191564_00000085966455843896019500000004494083383901458083_);}
	.st2{fill:#FFFFFF;}
	.st3{fill:#4D78EB;}
	.st4{fill:none;stroke:#36DAC9;}
	.st5{fill:none;stroke:#36DAC9;stroke-miterlimit:10;}
	.st6{fill:none;stroke:#36DAC9;stroke-dasharray:2.000000e-02,1.99;}
	.st7{fill:none;stroke:#36DAC9;stroke-dasharray:2.01,2.01;}
	.st8{fill:none;stroke:#36DAC9;stroke-dasharray:2,2;}
	.st9{fill:#0B3360;stroke:#36DAC9;}
	.st10{fill:#7395CB;}
</style>
<g id="Grupo_94286" transform="translate(-810 -1095.814)">
	<path id="Trazado_185886" class="st0" d="M995.7,1289.6H828.3v-116.3c0-4.3,3.5-7.7,7.7-7.7c0,0,0,0,0,0h152c4.3,0,7.7,3.5,7.7,7.7
		l0,0L995.7,1289.6L995.7,1289.6z"/>
	
		<linearGradient id="Trazado_191564_00000018204950487175700420000011574631609622946961_" gradientUnits="userSpaceOnUse" x1="412.4568" y1="1635.7244" x2="413.4568" y2="1635.7244" gradientTransform="matrix(-155.32 0 0 95.42 65052.3047 -154861.4531)">
		<stop  offset="0" style="stop-color:#404B61"/>
		<stop  offset="0.49" style="stop-color:#3C4860"/>
		<stop  offset="1" style="stop-color:#2F3E5C"/>
	</linearGradient>
	<path id="Trazado_191564" style="fill:url(#Trazado_191564_00000018204950487175700420000011574631609622946961_);" d="
		M989.5,1267.1H834.2v-95.4h155.3V1267.1z"/>
	<path id="Trazado_185887" class="st0" d="M995.7,1271.7H828.3l-18.3,68.5h204L995.7,1271.7z"/>
	<path id="Trazado_185888" class="st2" d="M834.7,1283.7h10.3c0.3,0,0.6,0.2,0.7,0.6c0,0,0,0.1,0,0.1l-1,4.5
		c-0.1,0.3-0.4,0.5-0.7,0.5h-10.5c-0.3,0-0.6-0.2-0.7-0.6c0-0.1,0-0.1,0-0.2l1.2-4.5C834.1,1283.9,834.3,1283.7,834.7,1283.7
		L834.7,1283.7z"/>
	<path id="Trazado_185889" class="st2" d="M849.7,1283.7h7.8l-1,5.6h-7.9L849.7,1283.7z"/>
	<path id="Trazado_185890" class="st2" d="M861.3,1283.7h7.8l-0.8,5.6l-7.9,0L861.3,1283.7z"/>
	<path id="Trazado_185891" class="st2" d="M873,1283.7h7.8l-0.6,5.6h-7.9L873,1283.7z"/>
	<path id="Trazado_185892" class="st2" d="M884.6,1283.7h7.8l-0.4,5.6h-7.9L884.6,1283.7z"/>
	<path id="Trazado_185893" class="st2" d="M896.3,1283.7h7.8l-0.1,5.6l-7.9,0L896.3,1283.7z"/>
	<path id="Trazado_185894" class="st2" d="M989.6,1283.7H978l1.3,5.6h11.9L989.6,1283.7z"/>
	<path id="Trazado_185895" class="st2" d="M974.1,1283.7h-7.8l1,5.6h7.9L974.1,1283.7z"/>
	<path id="Trazado_185896" class="st2" d="M962.4,1283.7h-7.8l0.8,5.6l7.9,0L962.4,1283.7z"/>
	<path id="Trazado_185897" class="st2" d="M950.8,1283.7H943l0.6,5.6h7.9L950.8,1283.7z"/>
	<path id="Trazado_185898" class="st2" d="M939.1,1283.7h-7.8l0.4,5.6h7.9L939.1,1283.7z"/>
	<path id="Trazado_185899" class="st2" d="M927.4,1283.7h-7.8l0.1,5.6l7.9,0L927.4,1283.7z"/>
	<path id="Trazado_185900" class="st2" d="M908,1283.7h7.8l0.1,5.6H908V1283.7z"/>
	<path id="Trazado_185901" class="st2" d="M831.2,1293.6h16.2l-0.9,5.8H830L831.2,1293.6z"/>
	<path id="Trazado_185902" class="st2" d="M992.2,1293.6h-20.1l1.1,5.8h20.5L992.2,1293.6z"/>
	<path id="Trazado_185903" class="st2" d="M968.1,1293.6h-8l0.9,5.8h8.2L968.1,1293.6z"/>
	<path id="Trazado_185904" class="st2" d="M956,1293.6h-8l0.7,5.8h8.2L956,1293.6z"/>
	<path id="Trazado_185905" class="st2" d="M944,1293.6h-8l0.5,5.8h8.2L944,1293.6z"/>
	<path id="Trazado_185906" class="st2" d="M931.9,1293.6h-8l0.2,5.8h8.2L931.9,1293.6z"/>
	<path id="Trazado_185907" class="st2" d="M828.8,1304h16.6l-1.2,5.8h-16.9L828.8,1304z"/>
	<path id="Trazado_185908" class="st2" d="M849.6,1304h8.3l-1,5.8h-8.5L849.6,1304z"/>
	<path id="Trazado_185909" class="st2" d="M862,1304h62.3l0.2,5.8h-63.4L862,1304z"/>
	<path id="Trazado_185910" class="st2" d="M928.5,1304h8.3l0.5,5.8h-8.5L928.5,1304z"/>
	<path id="Trazado_185911" class="st2" d="M940.9,1304h8.3l0.7,5.8h-8.5L940.9,1304z"/>
	<path id="Trazado_185912" class="st2" d="M953.4,1304h8.3l0.9,5.8h-8.5L953.4,1304z"/>
	<path id="Trazado_185913" class="st2" d="M965.8,1304h8.3l1.1,5.8h-8.5L965.8,1304z"/>
	<path id="Trazado_185914" class="st2" d="M978.3,1304h16.6l1.5,5.8h-16.9L978.3,1304z"/>
	<path id="Trazado_185915" class="st2" d="M919.9,1293.6h-8v5.8h8.1L919.9,1293.6z"/>
	<path id="Trazado_185916" class="st2" d="M907.8,1293.6h-8l-0.2,5.8h8.2L907.8,1293.6z"/>
	<path id="Trazado_185917" class="st2" d="M895.8,1293.6h-8l-0.5,5.8h8.2L895.8,1293.6z"/>
	<path id="Trazado_185918" class="st2" d="M883.7,1293.6h-8l-0.7,5.8h8.2L883.7,1293.6z"/>
	<path id="Trazado_185919" class="st2" d="M871.7,1293.6h-8l-0.9,5.8h8.2L871.7,1293.6z"/>
	<path id="Trazado_185920" class="st2" d="M859.6,1293.6h-8l-1.1,5.8h8.2L859.6,1293.6z"/>
	<path id="Trazado_185921" class="st2" d="M835,1280.2l1.3-5h3.8l-1.2,5H835z"/>
	<path id="Trazado_185922" class="st2" d="M843.9,1275.1h7.5l-1.1,5h-7.7L843.9,1275.1z"/>
	<path id="Trazado_185923" class="st2" d="M855.2,1275.1h7.5l-0.9,5h-7.7L855.2,1275.1z"/>
	<path id="Trazado_185924" class="st2" d="M866.5,1275.1h7.6l-0.7,5h-7.7L866.5,1275.1z"/>
	<path id="Trazado_185925" class="st2" d="M877.9,1275.1h7.5l-0.5,5h-7.7L877.9,1275.1z"/>
	<path id="Trazado_185926" class="st2" d="M889.2,1275.1h7.5l-0.3,5h-7.7L889.2,1275.1z"/>
	<path id="Trazado_185927" class="st2" d="M900.5,1275.1h7.5l-0.1,5h-7.7L900.5,1275.1z"/>
	<path id="Trazado_185928" class="st2" d="M911.8,1275.1h7.6l0.1,5h-7.7V1275.1z"/>
	<path id="Trazado_185929" class="st2" d="M923.2,1275.1h7.5l0.3,5h-7.7L923.2,1275.1z"/>
	<path id="Trazado_185930" class="st2" d="M934.5,1275.1h7.5l0.5,5h-7.7L934.5,1275.1z"/>
	<path id="Trazado_185931" class="st2" d="M945.8,1275.1h7.6l0.7,5h-7.7L945.8,1275.1z"/>
	<path id="Trazado_185932" class="st2" d="M957.2,1275.1h7.5l0.9,5h-7.7L957.2,1275.1z"/>
	<path id="Trazado_185933" class="st2" d="M968.5,1275.1h7.6l1.1,5h-7.7L968.5,1275.1z"/>
	<path id="Trazado_185934" class="st2" d="M979.8,1275.1h7.5l1.3,5H981L979.8,1275.1z"/>
	<path id="Trazado_185935" class="st0" d="M1008.7,1345.5H815.3c-2.9,0-5.3-2.4-5.3-5.3h204.1
		C1014.1,1343.1,1011.7,1345.5,1008.7,1345.5C1008.7,1345.5,1008.7,1345.5,1008.7,1345.5z"/>
	<path id="Trazado_185936" class="st3" d="M935.7,1318.1c-0.2-1.2-1.2-2.1-2.5-2.1h-42.5c-1.2,0-2.3,0.9-2.5,2.1l-2.7,16.1
		c-0.2,1.4,0.7,2.6,2.1,2.9c0.1,0,0.2,0,0.4,0h47.8c1.4,0,2.5-1.1,2.5-2.5c0-0.1,0-0.3,0-0.4L935.7,1318.1z"/>
	<path id="Trazado_191580" class="st4" d="M1117.8,1262.9l-26.2-45.3"/>
	<path id="Trazado_191581" class="st4" d="M1091.7,1308.2l26.2-45.3"/>
	<path id="Trazado_191582" class="st4" d="M1039.3,1308.2h52.3"/>
	<path id="Trazado_191583" class="st4" d="M1013.2,1262.9l26.2,45.3"/>
	<path id="Trazado_191584" class="st4" d="M1091.7,1217.6h-52.3"/>
	<path id="Trazado_191585" class="st4" d="M1248.4,1308.2l26.2-45.3"/>
	<path id="Trazado_191586" class="st4" d="M1196,1308.2h52.3"/>
	<path id="Trazado_191587" class="st4" d="M1169.9,1262.9l26.2,45.3"/>
	<path id="Trazado_191588" class="st4" d="M1196,1217.6l-26.2,45.3"/>
	<path id="Trazado_191589" class="st4" d="M1248.4,1217.6H1196"/>
	<path id="Trazado_191590" class="st4" d="M1274.5,1172.3l-26.2-45.3"/>
	<path id="Trazado_191591" class="st4" d="M1248.4,1217.6l26.2-45.3"/>
	<path id="Trazado_191592" class="st4" d="M1196,1217.6h52.3"/>
	<path id="Trazado_191593" class="st4" d="M1169.9,1172.3l26.2,45.3"/>
	<path id="Trazado_191594" class="st4" d="M1196,1126.9l-26.2,45.3"/>
	<path id="Trazado_191595" class="st4" d="M1248.4,1126.9H1196"/>
	<path id="Trazado_191596" class="st4" d="M1352.1,1308.2l-26.2-45.3"/>
	<path id="Trazado_185937" class="st5" d="M1247.5,1308.2l26.2,45.3h52.3l26.2-45.3"/>
	<path id="Trazado_191597" class="st4" d="M1273.6,1262.9l-26.2,45.3"/>
	<path id="Trazado_191598" class="st4" d="M1325.9,1262.9h-52.3"/>
	<path id="Trazado_191599" class="st4" d="M1196.1,1308.2L1196.1,1308.2"/>
	<path id="Trazado_191600" class="st6" d="M1195.1,1306.5l-24.7-42.7"/>
	<path id="Trazado_191601" class="st4" d="M1170,1262.9L1170,1262.9"/>
	<path id="Trazado_191602" class="st4" d="M1091.5,1308.2l0.5,0.9"/>
	<path id="Trazado_191603" class="st7" d="M1093,1310.8l23.7,41"/>
	<path id="Trazado_185938" class="st5" d="M1117.1,1352.7l0.5,0.9h1"/>
	<path id="Trazado_191604" class="st7" d="M1120.6,1353.5h47.3"/>
	<path id="Trazado_185939" class="st5" d="M1168.9,1353.5h1l0.5-0.9"/>
	<path id="Trazado_191605" class="st7" d="M1171.5,1350.9l23.7-41"/>
	<path id="Trazado_191606" class="st4" d="M1195.6,1309.1l0.5-0.9"/>
	<path id="Trazado_191607" class="st4" d="M1117.6,1262.9l-26.2,45.3"/>
	<path id="Trazado_191608" class="st4" d="M1169.9,1262.9h-52.3"/>
	<path id="Trazado_191609" class="st4" d="M1196.1,1217.6l-26.2-45.3"/>
	<path id="Trazado_191610" class="st4" d="M1169.9,1262.9l26.2-45.3"/>
	<path id="Trazado_191611" class="st4" d="M1117.6,1262.9L1117.6,1262.9"/>
	<path id="Trazado_191612" class="st6" d="M1119.6,1262.9h49.3"/>
	<path id="Trazado_191613" class="st4" d="M1169.9,1262.9L1169.9,1262.9"/>
	<path id="Trazado_191614" class="st4" d="M1091.5,1217.6l26.2,45.3"/>
	<path id="Trazado_191615" class="st4" d="M1117.6,1172.3l-26.2,45.3"/>
	<path id="Trazado_191616" class="st4" d="M1169.9,1172.3h-52.3"/>
	<path id="Trazado_191617" class="st4" d="M1352.1,1217.6l-26.2-45.3"/>
	<path id="Trazado_191618" class="st8" d="M1325.9,1262.9l26.2-45.3"/>
	<path id="Trazado_191619" class="st4" d="M1273.6,1262.9h52.3"/>
	<path id="Trazado_191620" class="st4" d="M1247.5,1217.6l26.2,45.3"/>
	<path id="Trazado_191621" class="st4" d="M1325.9,1172.3h-52.3"/>
	<path id="Trazado_191622" class="st9" d="M1117.6,1141.6c16.9,0,30.6,13.7,30.6,30.6s-13.7,30.6-30.6,30.6s-30.6-13.7-30.6-30.6
		S1100.7,1141.6,1117.6,1141.6C1117.6,1141.6,1117.6,1141.6,1117.6,1141.6z"/>
	<path id="Trazado_191623" class="st9" d="M1196.1,1183.7c16.9,0,30.6,13.7,30.6,30.6s-13.7,30.6-30.6,30.6s-30.6-13.7-30.6-30.6
		S1179.2,1183.7,1196.1,1183.7C1196.1,1183.7,1196.1,1183.7,1196.1,1183.7z"/>
	<path id="Trazado_191624" class="st9" d="M1096.1,1260.5c28.8,0,52.1,23.3,52.1,52.1s-23.3,52.1-52.1,52.1s-52.1-23.3-52.1-52.1
		c0,0,0,0,0,0C1044,1283.8,1067.3,1260.5,1096.1,1260.5z"/>
	<path id="Trazado_191625" class="st9" d="M1248.4,1096.3c16.9,0,30.6,13.7,30.6,30.6s-13.7,30.6-30.6,30.6s-30.6-13.7-30.6-30.6
		S1231.4,1096.3,1248.4,1096.3C1248.4,1096.3,1248.4,1096.3,1248.4,1096.3z"/>
	<path id="Trazado_191626" class="st9" d="M1325.9,1142.4c16.9,0,30.6,13.7,30.6,30.6s-13.7,30.6-30.6,30.6s-30.6-13.7-30.6-30.6
		S1309,1142.4,1325.9,1142.4C1325.9,1142.4,1325.9,1142.4,1325.9,1142.4z"/>
	<path id="Trazado_191627" class="st9" d="M1273.6,1228.2c16.9,0,30.6,13.7,30.6,30.6s-13.7,30.6-30.6,30.6s-30.6-13.7-30.6-30.6
		S1256.7,1228.2,1273.6,1228.2C1273.6,1228.2,1273.6,1228.2,1273.6,1228.2z"/>
	<path id="Trazado_191628" class="st9" d="M1269.2,1305.4c26.6,0,48.2,21.6,48.2,48.2s-21.6,48.2-48.2,48.2s-48.2-21.6-48.2-48.2
		S1242.6,1305.4,1269.2,1305.4C1269.2,1305.4,1269.2,1305.4,1269.2,1305.4z"/>
	<path id="Trazado_191629" class="st9" d="M1347.9,1271.7c20.2,0,36.5,16.3,36.5,36.5s-16.3,36.5-36.5,36.5s-36.5-16.3-36.5-36.5
		c0,0,0,0,0,0C1311.5,1288.1,1327.8,1271.7,1347.9,1271.7z"/>
	<path id="Trazado_191630" class="st2" d="M1102.4,1173.5h-1.7v-4.7c0-0.5,0-1.1,0.1-1.7h0c-0.1,0.3-0.1,0.7-0.2,1l-1.8,5.3h-1.4
		l-1.9-5.2c-0.1-0.4-0.2-0.7-0.2-1.1h0c0,0.8,0.1,1.4,0.1,2v4.3h-1.6v-7.8h2.6l1.6,4.6c0.1,0.4,0.2,0.7,0.3,1.1h0
		c0.1-0.4,0.2-0.8,0.3-1.1l1.6-4.6h2.5L1102.4,1173.5z M1107.5,1173.7c-1,0-2-0.4-2.7-1.1c-0.7-0.8-1.1-1.8-1.1-2.8
		c0-1.1,0.3-2.2,1.1-3c0.7-0.8,1.8-1.2,2.8-1.1c1,0,2,0.4,2.7,1.1c0.7,0.8,1.1,1.8,1,2.9c0,1.1-0.3,2.2-1.1,3
		C1109.5,1173.3,1108.5,1173.7,1107.5,1173.7z M1107.5,1167.1c-0.6,0-1.1,0.2-1.5,0.7c-0.4,0.5-0.6,1.2-0.5,1.8
		c0,0.7,0.2,1.3,0.5,1.8c0.3,0.4,0.9,0.7,1.4,0.7c0.6,0,1.1-0.2,1.4-0.7c0.4-0.5,0.6-1.2,0.5-1.8c0-0.7-0.1-1.3-0.5-1.9
		C1108.6,1167.4,1108.1,1167.1,1107.5,1167.1L1107.5,1167.1z M1112.6,1173.5v-7.8h2.8c2.8,0,4.1,1.3,4.1,3.8
		c0.1,1.1-0.4,2.1-1.1,2.9c-0.8,0.7-1.9,1.1-3,1.1H1112.6z M1114.3,1167.2v4.9h0.9c0.7,0,1.3-0.2,1.8-0.7c0.5-0.5,0.7-1.2,0.6-1.9
		c0-0.6-0.2-1.3-0.6-1.7c-0.5-0.4-1.1-0.7-1.8-0.6H1114.3z M1125.5,1173.5h-4.7v-7.8h4.5v1.4h-2.7v1.7h2.5v1.4h-2.5v1.8h2.9V1173.5z
		"/>
	<path id="Trazado_191631" class="st2" d="M1131.9,1173.5h-4.6v-7.8h1.8v6.4h2.9V1173.5z"/>
	<path id="Trazado_191632" class="st2" d="M1136.3,1173.7c-1,0-2-0.4-2.7-1.1c-0.7-0.8-1.1-1.8-1.1-2.8c0-1.1,0.3-2.2,1.1-3
		c0.7-0.8,1.8-1.2,2.8-1.1c1,0,2,0.4,2.7,1.1c0.7,0.8,1.1,1.8,1,2.9c0,1.1-0.3,2.2-1.1,3C1138.3,1173.3,1137.3,1173.7,1136.3,1173.7
		z M1136.3,1167.1c-0.6,0-1.1,0.2-1.5,0.7c-0.4,0.5-0.6,1.2-0.5,1.8c0,0.7,0.2,1.3,0.5,1.8c0.3,0.4,0.9,0.7,1.4,0.7
		c0.6,0,1.1-0.2,1.4-0.7c0.4-0.5,0.6-1.2,0.5-1.8c0-0.7-0.1-1.3-0.5-1.9C1137.4,1167.4,1136.9,1167.1,1136.3,1167.1L1136.3,1167.1z"
		/>
	<path id="Trazado_191633" class="st2" d="M1112.9,1186.4c-0.9,0.5-1.8,0.7-2.8,0.7c-1.1,0.1-2.2-0.3-3-1c-0.7-0.8-1.1-1.8-1.1-2.9
		c0-1.1,0.4-2.2,1.2-3c0.8-0.8,2-1.2,3.1-1.2c0.7,0,1.5,0.1,2.2,0.3v1.6c-0.7-0.4-1.4-0.5-2.2-0.5c-0.7,0-1.3,0.2-1.8,0.7
		c-0.5,0.5-0.7,1.2-0.7,1.9c0,0.7,0.2,1.3,0.6,1.9c0.4,0.4,1,0.7,1.7,0.7c0.3,0,0.7,0,1-0.2v-1.5h-1.6v-1.4h3.3L1112.9,1186.4z
		 M1116.2,1186.9h-1.8v-7.8h1.8V1186.9z M1122.6,1186.9h-4.6v-7.8h1.8v6.4h2.9L1122.6,1186.9z M1123.7,1186.9v-7.8h2.8
		c0.7,0,1.4,0.1,2,0.5c0.5,0.3,0.7,0.8,0.7,1.4c0,0.4-0.2,0.8-0.4,1.1c-0.3,0.3-0.7,0.5-1.1,0.7v0c0.5,0,1,0.3,1.3,0.6
		c0.3,0.3,0.5,0.8,0.5,1.2c0,0.7-0.3,1.3-0.8,1.7c-0.6,0.4-1.3,0.7-2.1,0.6H1123.7z M1125.4,1180.4v1.8h0.8c0.3,0,0.6-0.1,0.9-0.3
		c0.2-0.2,0.3-0.4,0.3-0.7c0-0.6-0.4-0.9-1.3-0.9L1125.4,1180.4z M1125.4,1183.5v2.1h1c0.3,0,0.7-0.1,1-0.3c0.2-0.2,0.4-0.5,0.3-0.8
		c0-0.3-0.1-0.6-0.3-0.7c-0.3-0.2-0.6-0.3-0.9-0.3H1125.4z"/>
	<path id="Trazado_191634" class="st2" d="M1181.2,1212.7h-1.8v-4.9c0-0.5,0-1.1,0.1-1.8h0c-0.1,0.4-0.1,0.7-0.3,1.1l-1.9,5.6h-1.5
		l-2-5.5c-0.1-0.4-0.2-0.8-0.3-1.1h-0.1c0,0.8,0.1,1.5,0.1,2.1v4.5h-1.7v-8.2h2.7l1.7,4.9c0.1,0.4,0.2,0.8,0.3,1.2h0
		c0.1-0.4,0.2-0.8,0.3-1.2l1.7-4.8h2.6L1181.2,1212.7z M1186.5,1212.9c-1.1,0-2.1-0.4-2.9-1.1c-0.8-0.8-1.2-1.9-1.1-3
		c-0.1-1.2,0.4-2.3,1.1-3.1c0.8-0.8,1.9-1.2,3-1.2c1.1,0,2.1,0.4,2.8,1.1c0.7,0.8,1.1,1.9,1.1,3c0.1,1.1-0.4,2.3-1.1,3.1
		C1188.7,1212.5,1187.6,1212.9,1186.5,1212.9z M1186.6,1206c-0.6,0-1.2,0.3-1.5,0.7c-0.4,0.6-0.6,1.2-0.6,1.9c0,0.7,0.2,1.4,0.6,1.9
		c0.4,0.5,0.9,0.7,1.5,0.7c0.6,0,1.1-0.2,1.5-0.7c0.4-0.6,0.6-1.2,0.6-1.9c0-0.7-0.1-1.4-0.5-2
		C1187.7,1206.2,1187.2,1206,1186.6,1206L1186.6,1206z M1191.9,1212.7v-8.2h2.9c2.9,0,4.4,1.3,4.4,4c0.1,1.1-0.4,2.3-1.2,3.1
		c-0.9,0.8-2,1.2-3.2,1.1H1191.9z M1193.7,1206v5.2h0.9c0.7,0,1.4-0.2,1.9-0.7c0.5-0.5,0.7-1.2,0.7-2c0-0.7-0.2-1.3-0.7-1.8
		c-0.5-0.5-1.2-0.7-1.9-0.7H1193.7z M1205.4,1212.7h-4.9v-8.2h4.7v1.5h-2.9v1.8h2.7v1.5h-2.7v1.9h3.1V1212.7z"/>
	<path id="Trazado_191635" class="st2" d="M1211.7,1212.7h-4.9v-8.2h1.8v6.7h3V1212.7z"/>
	<path id="Trazado_191636" class="st2" d="M1216.2,1212.9c-1.1,0-2.1-0.4-2.9-1.1c-0.8-0.8-1.2-1.9-1.1-3c-0.1-1.2,0.4-2.3,1.1-3.1
		c0.8-0.8,1.9-1.2,3-1.2c1.1,0,2.1,0.4,2.8,1.1c0.7,0.8,1.1,1.9,1.1,3c0.1,1.1-0.4,2.3-1.1,3.1
		C1218.4,1212.5,1217.3,1212.9,1216.2,1212.9z M1216.3,1206c-0.6,0-1.2,0.3-1.5,0.7c-0.4,0.6-0.6,1.2-0.6,1.9c0,0.7,0.2,1.4,0.6,1.9
		c0.4,0.5,0.9,0.7,1.5,0.7c0.6,0,1.2-0.2,1.5-0.7c0.4-0.6,0.6-1.2,0.6-1.9c0-0.7-0.1-1.4-0.5-2
		C1217.4,1206.2,1216.9,1206,1216.3,1206L1216.3,1206z"/>
	<path id="Trazado_191637" class="st2" d="M1188.6,1226.8h-1.8v-4.9c0-0.5,0-1.1,0.1-1.8h0c-0.1,0.4-0.1,0.7-0.3,1.1l-1.9,5.6h-1.5
		l-2-5.5c-0.1-0.4-0.2-0.8-0.3-1.1h-0.1c0,0.8,0.1,1.5,0.1,2.1v4.5h-1.7v-8.2h2.7l1.7,4.9c0.1,0.4,0.2,0.8,0.3,1.2h0
		c0.1-0.4,0.2-0.8,0.3-1.2l1.7-4.8h2.6L1188.6,1226.8z M1194.8,1226.6c-0.5,0.3-1.2,0.4-1.8,0.4c-0.8,0-1.6-0.3-2.2-0.8
		c-0.6-0.6-0.9-1.3-0.8-2.1c0-0.9,0.3-1.7,0.9-2.4c0.7-0.6,1.5-0.9,2.4-0.9c0.5,0,1,0.1,1.5,0.3v1.5c-0.4-0.3-0.8-0.4-1.3-0.4
		c-0.5,0-0.9,0.1-1.2,0.5c-0.3,0.3-0.5,0.8-0.5,1.3c0,0.4,0.1,0.9,0.4,1.2c0.3,0.3,0.8,0.5,1.2,0.4c0.5,0,0.9-0.2,1.3-0.4V1226.6z
		 M1202,1226.5c-0.7,0.3-1.5,0.5-2.3,0.4c-1.1,0.1-2.2-0.3-3-1.1c-0.7-0.8-1.1-1.9-1.1-3c0-1.2,0.4-2.3,1.2-3.2
		c0.8-0.8,2-1.3,3.2-1.2c0.7,0,1.4,0.1,2,0.3v1.8c-0.6-0.3-1.2-0.5-1.9-0.5c-0.7,0-1.4,0.2-1.9,0.7c-0.5,0.5-0.7,1.2-0.7,2
		c0,0.7,0.2,1.4,0.7,1.9c0.5,0.5,1.1,0.7,1.8,0.7c0.7,0,1.4-0.2,2-0.5L1202,1226.5z M1208.1,1226.8h-1.7v-0.8h0c-0.3,0.6-1,1-1.7,1
		c-0.5,0-1-0.1-1.3-0.5c-0.3-0.3-0.5-0.8-0.5-1.3c0-1.1,0.7-1.8,2-2l1.6-0.2c0-0.6-0.3-1-1-1c-0.7,0-1.4,0.2-2,0.6v-1.4
		c0.3-0.2,0.7-0.3,1-0.3c0.4-0.1,0.8-0.1,1.2-0.1c1.2-0.2,2.3,0.7,2.5,1.9c0,0.2,0,0.4,0,0.6L1208.1,1226.8z M1206.4,1224.4v-0.4
		l-1.1,0.1c-0.6,0.1-0.9,0.3-0.9,0.8c0,0.2,0.1,0.4,0.2,0.5c0.2,0.1,0.4,0.2,0.6,0.2c0.3,0,0.6-0.1,0.8-0.4
		C1206.3,1225,1206.4,1224.7,1206.4,1224.4z M1211.3,1226.8h-1.8v-8.7h1.8L1211.3,1226.8z M1214.7,1226.8h-1.8v-8.7h1.8V1226.8z"/>
	<path id="Trazado_191638" class="st2" d="M1259.7,1258.1h-1.8v-4.9c0-0.5,0-1.1,0.1-1.8h0c-0.1,0.4-0.1,0.7-0.3,1.1l-1.9,5.6h-1.5
		l-2-5.5c-0.1-0.4-0.2-0.8-0.3-1.1h-0.1c0,0.8,0.1,1.5,0.1,2.1v4.5h-1.7v-8.2h2.7l1.7,4.9c0.1,0.4,0.2,0.8,0.3,1.2h0
		c0.1-0.4,0.2-0.8,0.3-1.2l1.7-4.8h2.6L1259.7,1258.1z M1265,1258.2c-1.1,0-2.1-0.4-2.9-1.1c-0.8-0.8-1.2-1.9-1.1-3
		c-0.1-1.2,0.4-2.3,1.1-3.1c0.8-0.8,1.9-1.2,3-1.2c1.1,0,2.1,0.4,2.8,1.1c0.7,0.8,1.1,1.9,1.1,3c0.1,1.1-0.4,2.3-1.1,3.1
		C1267.2,1257.9,1266.1,1258.3,1265,1258.2z M1265.1,1251.4c-0.6,0-1.2,0.3-1.5,0.7c-0.4,0.6-0.6,1.2-0.6,1.9c0,0.7,0.2,1.4,0.6,1.9
		c0.4,0.5,0.9,0.7,1.5,0.7c0.6,0,1.1-0.2,1.5-0.7c0.4-0.6,0.6-1.2,0.6-1.9c0-0.7-0.1-1.4-0.5-2
		C1266.3,1251.6,1265.7,1251.3,1265.1,1251.4L1265.1,1251.4z M1270.4,1258.1v-8.2h2.9c2.9,0,4.4,1.3,4.4,4c0.1,1.1-0.4,2.3-1.2,3.1
		c-0.9,0.8-2,1.2-3.2,1.1H1270.4z M1272.3,1251.4v5.2h0.9c0.7,0,1.4-0.2,1.9-0.7c0.5-0.5,0.7-1.2,0.7-2c0-0.7-0.2-1.3-0.7-1.8
		c-0.5-0.5-1.2-0.7-1.9-0.7H1272.3z M1284,1258.1h-4.9v-8.2h4.7v1.5h-2.9v1.8h2.7v1.5h-2.7v1.9h3.1V1258.1z"/>
	<path id="Trazado_191639" class="st2" d="M1290.1,1258.1h-4.9v-8.2h1.8v6.7h3V1258.1z"/>
	<path id="Trazado_191640" class="st2" d="M1294.6,1258.2c-1.1,0-2.1-0.4-2.9-1.1c-0.8-0.8-1.2-1.9-1.1-3c-0.1-1.2,0.4-2.3,1.1-3.1
		c0.8-0.8,1.9-1.2,3-1.2c1.1,0,2.1,0.4,2.8,1.1c0.7,0.8,1.1,1.9,1.1,3c0.1,1.1-0.4,2.3-1.1,3.1
		C1296.8,1257.9,1295.7,1258.3,1294.6,1258.2z M1294.7,1251.4c-0.6,0-1.2,0.3-1.5,0.7c-0.4,0.6-0.6,1.2-0.6,1.9
		c0,0.7,0.2,1.4,0.6,1.9c0.4,0.5,0.9,0.7,1.5,0.7c0.6,0,1.1-0.2,1.5-0.7c0.4-0.6,0.6-1.2,0.6-1.9c0-0.7-0.1-1.4-0.5-2
		C1295.8,1251.6,1295.3,1251.3,1294.7,1251.4L1294.7,1251.4z"/>
	<path id="Trazado_191641" class="st2" d="M1262.5,1265.4h-2.9v2h2.7v1.5h-2.7v3.2h-1.8v-8.2h4.7V1265.4z M1270.6,1268.6
		c0,2.5-1.1,3.7-3.4,3.7c-2.2,0-3.3-1.2-3.3-3.6v-4.7h1.9v4.8c0,1.3,0.5,2,1.6,2c1,0,1.5-0.6,1.5-1.9v-4.8h1.8L1270.6,1268.6z
		 M1279.2,1272.1h-2.1l-1.3-2.1c-0.1-0.2-0.2-0.3-0.3-0.4c-0.1-0.1-0.2-0.2-0.3-0.3c-0.1-0.1-0.2-0.2-0.3-0.2
		c-0.1,0-0.2-0.1-0.3-0.1h-0.5v3.1h-1.8v-8.2h2.9c2,0,3,0.7,3,2.2c0,0.3,0,0.5-0.1,0.8c-0.1,0.2-0.2,0.5-0.4,0.7
		c-0.2,0.2-0.4,0.4-0.6,0.5c-0.2,0.1-0.5,0.3-0.8,0.3v0c0.1,0,0.2,0.1,0.4,0.2c0.1,0.1,0.2,0.2,0.3,0.3c0.1,0.1,0.2,0.2,0.3,0.4
		c0.1,0.1,0.2,0.3,0.3,0.4L1279.2,1272.1z M1274.2,1265.3v2.3h0.8c0.4,0,0.7-0.1,1-0.3c0.2-0.2,0.4-0.5,0.4-0.9
		c0-0.7-0.4-1.1-1.3-1.1L1274.2,1265.3z M1281.8,1269.3v2.8h-1.8v-8.2h2.9c2.1,0,3.1,0.9,3.1,2.6c0,0.8-0.3,1.5-0.9,2
		c-0.7,0.5-1.5,0.8-2.4,0.8H1281.8z M1281.8,1265.4v2.6h0.7c1,0,1.5-0.4,1.5-1.3c0-0.8-0.5-1.3-1.5-1.3L1281.8,1265.4z
		 M1286.8,1271.8v-1.8c0.3,0.3,0.7,0.5,1.1,0.6c0.4,0.1,0.8,0.2,1.2,0.2c0.2,0,0.4,0,0.6-0.1c0.2,0,0.3-0.1,0.4-0.2
		c0.1-0.1,0.2-0.2,0.3-0.3c0.1-0.1,0.1-0.2,0.1-0.3c0-0.2,0-0.3-0.1-0.4c-0.1-0.1-0.2-0.3-0.4-0.3c-0.2-0.1-0.4-0.2-0.6-0.3
		c-0.2-0.1-0.5-0.2-0.7-0.3c-0.5-0.2-1-0.5-1.4-1c-0.3-0.4-0.5-0.9-0.5-1.4c0-0.4,0.1-0.8,0.3-1.1c0.2-0.3,0.4-0.6,0.7-0.8
		c0.3-0.2,0.7-0.4,1-0.4c0.4-0.1,0.8-0.1,1.2-0.1c0.4,0,0.8,0,1.1,0.1c0.3,0,0.6,0.1,0.9,0.2v1.7c-0.1-0.1-0.3-0.2-0.4-0.3
		c-0.2-0.1-0.3-0.1-0.5-0.2c-0.2,0-0.3-0.1-0.5-0.1c-0.2,0-0.3,0-0.5,0c-0.2,0-0.4,0-0.6,0.1c-0.2,0-0.3,0.1-0.4,0.2
		c-0.1,0.1-0.2,0.2-0.3,0.3c-0.1,0.1-0.1,0.2-0.1,0.3c0,0.1,0,0.3,0.1,0.4c0.1,0.1,0.2,0.2,0.3,0.3c0.2,0.1,0.3,0.2,0.5,0.3
		c0.2,0.1,0.4,0.2,0.6,0.3c0.3,0.1,0.6,0.3,0.9,0.4c0.2,0.1,0.5,0.3,0.7,0.5c0.2,0.2,0.3,0.4,0.4,0.7c0.1,0.3,0.2,0.6,0.2,0.9
		c0,0.4-0.1,0.8-0.3,1.2c-0.2,0.3-0.4,0.6-0.7,0.8c-0.3,0.2-0.7,0.3-1,0.4c-0.4,0.1-0.8,0.1-1.2,0.1c-0.4,0-0.9,0-1.3-0.1
		C1287.5,1272.1,1287.1,1272,1286.8,1271.8z"/>
	<path id="Trazado_191642" class="st2" d="M1332,1298.8h-1.9v-5c0-0.5,0-1.1,0.1-1.8h0c-0.1,0.4-0.2,0.7-0.3,1.1l-2,5.7h-1.5l-2-5.6
		c-0.1-0.4-0.2-0.8-0.3-1.2h-0.1c0.1,0.8,0.1,1.6,0.1,2.2v4.6h-1.7v-8.4h2.8l1.7,5c0.1,0.4,0.2,0.8,0.3,1.2h0
		c0.1-0.4,0.2-0.8,0.3-1.2l1.7-5h2.7L1332,1298.8z M1337.4,1298.9c-1.1,0-2.2-0.4-2.9-1.2c-0.8-0.8-1.2-1.9-1.1-3.1
		c-0.1-1.2,0.4-2.3,1.2-3.2c0.8-0.8,1.9-1.3,3.1-1.2c1.1,0,2.2,0.4,2.9,1.2c0.8,0.8,1.2,2,1.1,3.1c0.1,1.2-0.4,2.3-1.1,3.2
		C1339.7,1298.5,1338.6,1298.9,1337.4,1298.9z M1337.5,1291.9c-0.6,0-1.2,0.3-1.6,0.7c-0.4,0.6-0.6,1.3-0.6,2c0,0.7,0.2,1.4,0.6,2
		c0.4,0.5,0.9,0.7,1.5,0.7c0.6,0,1.2-0.2,1.6-0.7c0.4-0.6,0.6-1.3,0.6-2c0-0.7-0.2-1.4-0.6-2
		C1338.7,1292.1,1338.1,1291.8,1337.5,1291.9L1337.5,1291.9z M1343,1298.8v-8.4h3c3,0,4.5,1.4,4.5,4.1c0.1,1.2-0.4,2.3-1.2,3.1
		c-0.9,0.8-2.1,1.2-3.3,1.2H1343z M1344.9,1291.9v5.3h0.9c0.7,0,1.4-0.2,1.9-0.7c0.5-0.6,0.7-1.3,0.7-2c0-0.7-0.2-1.4-0.7-1.9
		c-0.5-0.5-1.2-0.7-1.9-0.7H1344.9z M1356.8,1298.8h-5v-8.4h4.8v1.5h-2.9v1.9h2.7v1.5h-2.7v1.9h3.1V1298.8z"/>
	<path id="Trazado_191643" class="st2" d="M1363.5,1298.8h-5v-8.4h1.9v6.9h3.1V1298.8z"/>
	<path id="Trazado_191644" class="st2" d="M1368.2,1298.9c-1.1,0-2.2-0.4-2.9-1.2c-0.8-0.8-1.2-1.9-1.1-3.1
		c-0.1-1.2,0.4-2.3,1.2-3.2c0.8-0.8,1.9-1.3,3.1-1.2c1.1,0,2.2,0.4,2.9,1.2c0.8,0.8,1.2,2,1.1,3.1c0.1,1.2-0.4,2.3-1.2,3.2
		C1370.4,1298.5,1369.3,1298.9,1368.2,1298.9z M1368.3,1291.9c-0.6,0-1.2,0.3-1.6,0.7c-0.4,0.6-0.6,1.3-0.6,2c0,0.7,0.2,1.4,0.6,2
		c0.4,0.5,0.9,0.7,1.5,0.7c0.6,0,1.2-0.2,1.6-0.7c0.4-0.6,0.6-1.3,0.6-2c0-0.7-0.2-1.4-0.6-2
		C1369.4,1292.1,1368.8,1291.8,1368.3,1291.9L1368.3,1291.9z"/>
	<path id="Trazado_191645" class="st2" d="M1322.4,1313.1h-1.9v-8.4h1.9V1313.1z M1323.9,1312.8v-1.9c0.3,0.3,0.7,0.5,1.1,0.6
		c0.4,0.1,0.8,0.2,1.2,0.2c0.2,0,0.4,0,0.6-0.1c0.2,0,0.3-0.1,0.4-0.2c0.1-0.1,0.2-0.2,0.3-0.3c0.1-0.1,0.1-0.2,0.1-0.3
		c0-0.2,0-0.3-0.1-0.4c-0.1-0.1-0.2-0.3-0.4-0.4c-0.2-0.1-0.4-0.2-0.6-0.3c-0.2-0.1-0.5-0.2-0.7-0.3c-0.6-0.2-1.1-0.6-1.5-1
		c-0.3-0.4-0.5-0.9-0.5-1.4c0-0.4,0.1-0.8,0.3-1.1c0.2-0.3,0.4-0.6,0.7-0.8c0.3-0.2,0.7-0.4,1.1-0.4c0.4-0.1,0.8-0.1,1.3-0.1
		c0.4,0,0.8,0,1.2,0.1c0.3,0,0.6,0.1,0.9,0.2v1.7c-0.1-0.1-0.3-0.2-0.5-0.3c-0.2-0.1-0.3-0.1-0.5-0.2c-0.2,0-0.3-0.1-0.5-0.1
		c-0.2,0-0.3,0-0.5,0c-0.2,0-0.4,0-0.6,0.1c-0.2,0-0.3,0.1-0.4,0.2c-0.1,0.1-0.2,0.2-0.3,0.3c-0.1,0.1-0.1,0.2-0.1,0.3
		c0,0.1,0,0.3,0.1,0.4c0.1,0.1,0.2,0.2,0.3,0.3c0.2,0.1,0.3,0.2,0.5,0.3c0.2,0.1,0.4,0.2,0.7,0.3c0.3,0.1,0.6,0.3,0.9,0.4
		c0.3,0.1,0.5,0.3,0.7,0.5c0.2,0.2,0.3,0.4,0.4,0.7c0.1,0.3,0.2,0.6,0.2,0.9c0,0.4-0.1,0.8-0.3,1.2c-0.2,0.3-0.4,0.6-0.7,0.8
		c-0.3,0.2-0.7,0.3-1.1,0.4c-0.4,0.1-0.9,0.1-1.3,0.1c-0.4,0-0.9,0-1.3-0.1C1324.6,1313.1,1324.3,1313,1323.9,1312.8z
		 M1334.6,1313.3c-1.1,0-2.2-0.4-2.9-1.2c-0.8-0.8-1.2-1.9-1.1-3.1c-0.1-1.2,0.4-2.3,1.2-3.2c0.8-0.8,1.9-1.3,3.1-1.2
		c1.1,0,2.2,0.4,2.9,1.2c0.8,0.8,1.2,2,1.1,3.1c0.1,1.2-0.4,2.3-1.1,3.2C1336.8,1312.9,1335.7,1313.3,1334.6,1313.3z M1334.7,1306.2
		c-0.6,0-1.2,0.3-1.6,0.7c-0.4,0.6-0.6,1.3-0.6,2c0,0.7,0.2,1.4,0.6,2c0.4,0.5,0.9,0.7,1.5,0.7c0.6,0,1.2-0.2,1.5-0.7
		c0.4-0.6,0.6-1.3,0.6-2c0-0.7-0.2-1.4-0.6-2C1335.8,1306.5,1335.3,1306.2,1334.7,1306.2L1334.7,1306.2z M1348.8,1308.5
		c0,0.7-0.1,1.3-0.2,2c-0.1,0.5-0.4,1-0.7,1.5c-0.3,0.4-0.7,0.7-1.1,0.9c-0.5,0.2-1,0.3-1.5,0.3c-0.6,0-1.2-0.1-1.8-0.3v-1.5
		c0.5,0.3,1,0.4,1.6,0.4c0.6,0,1.1-0.2,1.5-0.6c0.4-0.5,0.6-1.2,0.5-1.9l0,0c-0.4,0.6-1,0.9-1.7,0.8c-0.3,0-0.7-0.1-1-0.2
		c-0.3-0.1-0.5-0.3-0.8-0.5c-0.2-0.2-0.4-0.5-0.5-0.8c-0.1-0.3-0.2-0.7-0.2-1c0-0.4,0.1-0.8,0.2-1.2c0.1-0.4,0.3-0.7,0.6-0.9
		c0.3-0.3,0.6-0.5,0.9-0.6c0.4-0.1,0.8-0.2,1.2-0.2c0.4,0,0.8,0.1,1.2,0.3c0.4,0.2,0.7,0.4,0.9,0.8c0.3,0.4,0.5,0.8,0.6,1.2
		C1348.8,1307.4,1348.8,1308,1348.8,1308.5L1348.8,1308.5z M1347,1307.6c0-0.2,0-0.4-0.1-0.6c0-0.2-0.1-0.3-0.2-0.5
		c-0.1-0.1-0.2-0.2-0.4-0.3c-0.1-0.1-0.3-0.1-0.5-0.1c-0.2,0-0.3,0-0.4,0.1c-0.1,0.1-0.3,0.2-0.3,0.3c-0.1,0.1-0.2,0.3-0.2,0.4
		c-0.1,0.2-0.1,0.4-0.1,0.6c0,0.2,0,0.4,0.1,0.6c0,0.2,0.1,0.3,0.2,0.4c0.1,0.1,0.2,0.2,0.4,0.3c0.1,0.1,0.3,0.1,0.5,0.1
		c0.2,0,0.3,0,0.4-0.1c0.1-0.1,0.2-0.1,0.3-0.3c0.1-0.1,0.2-0.2,0.2-0.4C1346.9,1307.9,1347,1307.7,1347,1307.6z M1354.2,1304.6v8.6
		h-1.8v-6.5c-0.1,0.1-0.2,0.2-0.4,0.3c-0.1,0.1-0.3,0.2-0.4,0.2c-0.2,0.1-0.3,0.1-0.5,0.2c-0.2,0-0.3,0.1-0.5,0.1v-1.6
		c0.5-0.1,0.9-0.3,1.4-0.5c0.4-0.2,0.8-0.4,1.2-0.7L1354.2,1304.6z M1358.8,1311.6h3.6v1.5h-5.6v-0.6c0-0.4,0.1-0.8,0.2-1.2
		c0.1-0.3,0.3-0.6,0.5-0.9c0.2-0.3,0.5-0.5,0.7-0.7c0.3-0.2,0.5-0.4,0.7-0.6c0.2-0.2,0.5-0.3,0.6-0.5c0.2-0.1,0.3-0.3,0.5-0.5
		c0.1-0.1,0.2-0.3,0.3-0.5c0.1-0.2,0.1-0.3,0.1-0.5c0-0.3-0.1-0.6-0.3-0.8c-0.3-0.2-0.6-0.3-0.9-0.3c-0.8,0-1.5,0.3-2.1,0.9v-1.6
		c0.7-0.5,1.6-0.7,2.5-0.7c0.4,0,0.8,0.1,1.1,0.2c0.3,0.1,0.6,0.3,0.9,0.5c0.2,0.2,0.4,0.5,0.5,0.8c0.1,0.3,0.2,0.6,0.2,1
		c0,0.4-0.1,0.7-0.2,1c-0.1,0.3-0.3,0.6-0.5,0.8c-0.2,0.3-0.4,0.5-0.7,0.7c-0.3,0.2-0.5,0.4-0.8,0.6c-0.2,0.1-0.4,0.3-0.5,0.4
		c-0.2,0.1-0.3,0.2-0.5,0.4c-0.1,0.1-0.2,0.2-0.3,0.4C1358.8,1311.4,1358.8,1311.5,1358.8,1311.6L1358.8,1311.6z M1369.7,1310.3
		c0,0.4-0.1,0.8-0.2,1.2c-0.1,0.3-0.3,0.7-0.6,0.9c-0.3,0.3-0.6,0.5-0.9,0.6c-0.4,0.2-0.8,0.2-1.2,0.2c-0.4,0-0.9-0.1-1.3-0.3
		c-0.4-0.2-0.7-0.4-0.9-0.8c-0.3-0.4-0.5-0.8-0.6-1.2c-0.1-0.5-0.2-1.1-0.2-1.6c0-0.7,0.1-1.3,0.3-2c0.2-0.5,0.4-1.1,0.8-1.5
		c0.3-0.4,0.7-0.7,1.2-1c0.5-0.2,1-0.4,1.6-0.3c0.5,0,1,0.1,1.5,0.2v1.5c-0.4-0.2-0.9-0.4-1.4-0.4c-0.3,0-0.6,0.1-0.8,0.2
		c-0.3,0.1-0.5,0.3-0.7,0.5c-0.2,0.2-0.3,0.5-0.4,0.8c-0.1,0.3-0.2,0.7-0.2,1.1h0c0.4-0.6,1.1-0.9,1.8-0.8c0.3,0,0.6,0.1,0.9,0.2
		c0.3,0.1,0.5,0.3,0.7,0.5c0.2,0.2,0.4,0.5,0.5,0.8C1369.6,1309.6,1369.7,1310,1369.7,1310.3L1369.7,1310.3z M1367.8,1310.5
		c0-0.9-0.4-1.3-1.1-1.3c-0.2,0-0.3,0-0.5,0.1c-0.1,0.1-0.3,0.2-0.4,0.3c-0.1,0.1-0.2,0.3-0.2,0.4c-0.1,0.2-0.1,0.3-0.1,0.5
		c0,0.2,0,0.4,0.1,0.6c0,0.2,0.1,0.3,0.2,0.5c0.1,0.1,0.2,0.2,0.4,0.3c0.1,0.1,0.3,0.1,0.5,0.1c0.2,0,0.3,0,0.5-0.1
		c0.1-0.1,0.3-0.2,0.3-0.3c0.1-0.1,0.2-0.3,0.2-0.4C1367.8,1310.9,1367.8,1310.7,1367.8,1310.5z M1377.3,1304.8l-2.7,5.4v3h-1.9
		v-2.9l-2.7-5.4h2.2l1.4,3.1c0,0.1,0.1,0.3,0.2,0.7h0c0-0.2,0.1-0.4,0.2-0.7l1.4-3.2H1377.3z"/>
	<path id="Trazado_191646" class="st2" d="M1333.4,1326h3.6v1.5h-5.6v-0.6c0-0.4,0.1-0.8,0.2-1.2c0.1-0.3,0.3-0.6,0.5-0.9
		c0.2-0.3,0.5-0.5,0.7-0.7c0.3-0.2,0.5-0.4,0.7-0.6c0.2-0.2,0.5-0.3,0.6-0.5c0.2-0.1,0.3-0.3,0.5-0.5c0.1-0.1,0.2-0.3,0.3-0.5
		c0.1-0.2,0.1-0.3,0.1-0.5c0-0.3-0.1-0.6-0.3-0.8c-0.3-0.2-0.6-0.3-0.9-0.3c-0.8,0-1.5,0.3-2.1,0.9v-1.6c0.7-0.5,1.6-0.7,2.5-0.7
		c0.4,0,0.8,0.1,1.1,0.2c0.3,0.1,0.6,0.3,0.9,0.5c0.2,0.2,0.4,0.5,0.5,0.8c0.1,0.3,0.2,0.6,0.2,1c0,0.4-0.1,0.7-0.2,1
		c-0.1,0.3-0.3,0.6-0.5,0.8c-0.2,0.3-0.4,0.5-0.7,0.7c-0.3,0.2-0.5,0.4-0.8,0.6c-0.2,0.1-0.4,0.3-0.5,0.4c-0.2,0.1-0.3,0.2-0.5,0.4
		c-0.1,0.1-0.2,0.2-0.3,0.4C1333.5,1325.7,1333.4,1325.9,1333.4,1326z M1338.6,1327.3v-1.6c0.5,0.3,1.2,0.5,1.8,0.5
		c0.4,0,0.8-0.1,1.1-0.3c0.3-0.2,0.4-0.6,0.4-0.9c0-0.8-0.6-1.2-1.8-1.2c-0.5,0-1,0-1.5,0.1l0.3-4.7h4.4v1.5h-3l-0.1,1.7
		c0.3,0,0.6,0,0.8,0c0.7,0,1.5,0.2,2,0.7c0.5,0.5,0.8,1.1,0.7,1.8c0,0.8-0.3,1.5-0.9,2.1c-0.7,0.6-1.5,0.9-2.4,0.8
		C1340,1327.7,1339.3,1327.6,1338.6,1327.3z M1348.1,1327.7c-2,0-3-1.4-3-4.2c-0.1-1.2,0.2-2.3,0.8-3.3c0.5-0.8,1.4-1.2,2.3-1.1
		c2,0,2.9,1.4,2.9,4.3c0.1,1.1-0.2,2.3-0.8,3.3C1349.9,1327.3,1349,1327.7,1348.1,1327.7z M1348.2,1320.4c-0.8,0-1.2,1-1.2,3
		c0,1.9,0.4,2.8,1.2,2.8c0.8,0,1.1-1,1.1-2.9C1349.3,1321.4,1348.9,1320.4,1348.2,1320.4L1348.2,1320.4z M1355,1327.7
		c-2,0-3-1.4-3-4.2c-0.1-1.2,0.2-2.3,0.8-3.3c0.5-0.8,1.4-1.2,2.3-1.1c2,0,2.9,1.4,2.9,4.3c0.1,1.1-0.2,2.3-0.8,3.3
		C1356.8,1327.3,1355.9,1327.7,1355,1327.7z M1355.1,1320.4c-0.8,0-1.2,1-1.2,3c0,1.9,0.4,2.8,1.2,2.8c0.8,0,1.1-1,1.1-2.9
		C1356.2,1321.4,1355.8,1320.4,1355.1,1320.4L1355.1,1320.4z M1361.9,1327.7c-2,0-3-1.4-3-4.2c-0.1-1.2,0.2-2.3,0.8-3.3
		c0.5-0.8,1.4-1.2,2.3-1.1c2,0,2.9,1.4,2.9,4.3c0.1,1.1-0.2,2.3-0.8,3.3C1363.6,1327.3,1362.8,1327.7,1361.9,1327.7z M1362,1320.4
		c-0.8,0-1.2,1-1.2,3c0,1.9,0.4,2.8,1.2,2.8c0.8,0,1.1-1,1.1-2.9C1363.1,1321.4,1362.7,1320.4,1362,1320.4L1362,1320.4z"/>
	<path id="Trazado_191647" class="st2" d="M1310.8,1173.4h-1.8v-4.9c0-0.5,0-1.1,0.1-1.8h0c-0.1,0.4-0.1,0.7-0.3,1.1l-1.9,5.6h-1.5
		l-2-5.5c-0.1-0.4-0.2-0.8-0.3-1.1h-0.1c0,0.8,0.1,1.5,0.1,2.1v4.5h-1.7v-8.2h2.7l1.7,4.9c0.1,0.4,0.2,0.8,0.3,1.2h0
		c0.1-0.4,0.2-0.8,0.3-1.2l1.7-4.8h2.6L1310.8,1173.4z M1316.1,1173.5c-1.1,0-2.1-0.4-2.9-1.1c-0.8-0.8-1.2-1.9-1.1-3
		c-0.1-1.2,0.4-2.3,1.1-3.1c0.8-0.8,1.9-1.2,3-1.2c1.1,0,2.1,0.4,2.8,1.1c0.7,0.8,1.1,1.9,1.1,3c0.1,1.1-0.4,2.3-1.1,3.1
		C1318.3,1173.1,1317.2,1173.6,1316.1,1173.5z M1316.2,1166.7c-0.6,0-1.2,0.2-1.5,0.7c-0.4,0.6-0.6,1.2-0.6,1.9
		c0,0.7,0.2,1.4,0.6,1.9c0.4,0.5,0.9,0.7,1.5,0.7c0.6,0,1.1-0.2,1.5-0.7c0.4-0.6,0.6-1.2,0.6-1.9c0-0.7-0.1-1.4-0.5-2
		C1317.3,1166.9,1316.8,1166.6,1316.2,1166.7L1316.2,1166.7z M1321.5,1173.4v-8.2h2.9c2.9,0,4.4,1.3,4.4,4c0.1,1.1-0.4,2.2-1.2,3.1
		c-0.9,0.8-2,1.2-3.2,1.1H1321.5z M1323.3,1166.7v5.2h0.9c0.7,0,1.4-0.2,1.9-0.7c0.5-0.5,0.7-1.2,0.7-2c0-0.7-0.2-1.3-0.7-1.8
		c-0.5-0.5-1.2-0.7-1.9-0.7H1323.3z M1335,1173.4h-4.9v-8.2h4.7v1.5h-2.9v1.8h2.7v1.5h-2.7v1.9h3.1V1173.4z"/>
	<path id="Trazado_191648" class="st2" d="M1340.9,1173.4h-4.9v-8.2h1.8v6.7h3V1173.4z"/>
	<path id="Trazado_191649" class="st2" d="M1345.5,1173.5c-1.1,0-2.1-0.4-2.9-1.1c-0.8-0.8-1.2-1.9-1.1-3c-0.1-1.2,0.4-2.3,1.1-3.1
		c0.8-0.8,1.9-1.2,3-1.2c1.1,0,2.1,0.4,2.8,1.1c0.7,0.8,1.1,1.9,1.1,3c0.1,1.1-0.4,2.3-1.1,3.1
		C1347.6,1173.1,1346.6,1173.6,1345.5,1173.5z M1345.5,1166.7c-0.6,0-1.2,0.2-1.5,0.7c-0.4,0.6-0.6,1.2-0.6,1.9
		c0,0.7,0.2,1.4,0.6,1.9c0.4,0.5,0.9,0.7,1.5,0.7c0.6,0,1.1-0.2,1.5-0.7c0.4-0.6,0.6-1.2,0.6-1.9c0-0.7-0.1-1.4-0.5-2
		C1346.7,1166.9,1346.1,1166.6,1345.5,1166.7L1345.5,1166.7z"/>
	<path id="Trazado_191650" class="st2" d="M1306.5,1187.4v-8.2h3c0.7,0,1.5,0.1,2.1,0.5c0.5,0.3,0.8,0.8,0.7,1.4
		c0,0.4-0.2,0.8-0.4,1.2c-0.3,0.3-0.7,0.6-1.1,0.7v0c0.5,0,1,0.3,1.4,0.6c0.3,0.3,0.5,0.8,0.5,1.3c0,0.7-0.3,1.3-0.8,1.8
		c-0.6,0.5-1.4,0.7-2.2,0.7H1306.5z M1308.4,1180.6v1.9h0.8c0.3,0,0.6-0.1,0.9-0.3c0.2-0.2,0.3-0.5,0.3-0.8c0-0.6-0.4-0.9-1.3-0.9
		L1308.4,1180.6z M1308.4,1183.9v2.2h1c0.4,0,0.7-0.1,1-0.3c0.2-0.2,0.4-0.5,0.4-0.8c0-0.3-0.1-0.6-0.4-0.8c-0.3-0.2-0.6-0.3-1-0.3
		H1308.4z M1317.5,1187.6c-1.1,0-2.1-0.4-2.9-1.1c-0.8-0.8-1.2-1.9-1.1-3c-0.1-1.2,0.4-2.3,1.1-3.1c0.8-0.8,1.9-1.2,3-1.2
		c1.1,0,2.1,0.4,2.8,1.1c0.7,0.8,1.1,1.9,1.1,3c0.1,1.1-0.4,2.3-1.1,3.1C1319.6,1187.2,1318.6,1187.6,1317.5,1187.6z M1317.5,1180.7
		c-0.6,0-1.2,0.2-1.5,0.7c-0.4,0.6-0.6,1.2-0.6,1.9c0,0.7,0.2,1.4,0.6,1.9c0.4,0.5,0.9,0.7,1.5,0.7c0.6,0,1.1-0.2,1.5-0.7
		c0.4-0.6,0.6-1.2,0.6-1.9c0-0.7-0.1-1.4-0.5-2C1318.7,1180.9,1318.1,1180.7,1317.5,1180.7L1317.5,1180.7z M1327.8,1187.4h-4.9v-8.2
		h4.7v1.5h-2.9v1.8h2.7v1.5h-2.7v1.9h3.1V1187.4z M1336.2,1187.4h-1.8v-3.3h-3.4v3.3h-1.8v-8.2h1.8v3.3h3.4v-3.3h1.8L1336.2,1187.4z
		 M1347.4,1187.4h-1.8v-4.9c0-0.5,0-1.1,0.1-1.8h0c-0.1,0.4-0.1,0.7-0.3,1.1l-1.9,5.6h-1.5l-2-5.5c-0.1-0.4-0.2-0.8-0.3-1.1h-0.1
		c0,0.8,0.1,1.5,0.1,2.1v4.5h-1.7v-8.2h2.7l1.7,4.9c0.1,0.4,0.2,0.8,0.3,1.2h0c0.1-0.4,0.2-0.8,0.3-1.2l1.7-4.8h2.6V1187.4z"/>
	<path id="Trazado_191651" class="st2" d="M1232.6,1127.9h-1.9v-5.2c0-0.6,0-1.2,0.1-1.9h0c-0.1,0.4-0.2,0.8-0.3,1.1l-2,5.9h-1.6
		l-2.1-5.8c-0.1-0.4-0.2-0.8-0.3-1.2h-0.1c0.1,0.9,0.1,1.6,0.1,2.2v4.8h-1.8v-8.7h2.9l1.8,5.1c0.1,0.4,0.2,0.8,0.3,1.2h0
		c0.1-0.4,0.2-0.8,0.3-1.3l1.8-5.1h2.8L1232.6,1127.9z M1238.3,1128.1c-1.1,0-2.2-0.4-3-1.2c-0.8-0.9-1.2-2-1.2-3.2
		c-0.1-1.2,0.4-2.4,1.2-3.3c0.8-0.9,2-1.3,3.2-1.3c1.1,0,2.2,0.4,3,1.2c0.8,0.9,1.2,2,1.1,3.2c0.1,1.2-0.4,2.4-1.2,3.3
		C1240.6,1127.6,1239.4,1128.1,1238.3,1128.1z M1238.4,1120.8c-0.6,0-1.2,0.3-1.6,0.8c-0.4,0.6-0.6,1.3-0.6,2c0,0.7,0.2,1.4,0.6,2
		c0.4,0.5,1,0.8,1.6,0.7c0.6,0,1.2-0.2,1.6-0.7c0.4-0.6,0.6-1.3,0.6-2c0-0.7-0.2-1.5-0.6-2.1C1239.6,1121,1239,1120.7,1238.4,1120.8
		L1238.4,1120.8z M1244,1127.9v-8.7h3.1c3.1,0,4.6,1.4,4.6,4.2c0.1,1.2-0.4,2.4-1.3,3.2c-0.9,0.8-2.1,1.3-3.4,1.2H1244z
		 M1245.9,1120.8v5.5h1c0.7,0,1.5-0.2,2-0.8c0.5-0.6,0.8-1.3,0.7-2.1c0-0.7-0.2-1.4-0.7-1.9c-0.5-0.5-1.3-0.8-2-0.7H1245.9z
		 M1258.3,1127.9h-5.2v-8.7h5v1.6h-3v1.9h2.8v1.6h-2.8v2h3.2V1127.9z"/>
	<path id="Trazado_191652" class="st2" d="M1264.9,1127.9h-5.2v-8.7h2v7.1h3.2V1127.9z"/>
	<path id="Trazado_191653" class="st2" d="M1269.7,1128.1c-1.1,0-2.2-0.4-3-1.2c-0.8-0.9-1.2-2-1.2-3.2c-0.1-1.2,0.4-2.4,1.2-3.3
		c0.8-0.9,2-1.3,3.2-1.3c1.1,0,2.2,0.4,3,1.2c0.8,0.9,1.2,2,1.1,3.2c0.1,1.2-0.4,2.4-1.2,3.3
		C1272,1127.6,1270.9,1128.1,1269.7,1128.1z M1269.8,1120.8c-0.6,0-1.2,0.3-1.6,0.8c-0.4,0.6-0.6,1.3-0.6,2c0,0.7,0.2,1.4,0.6,2
		c0.4,0.5,1,0.8,1.6,0.8c0.6,0,1.2-0.2,1.6-0.7c0.4-0.6,0.6-1.3,0.6-2c0-0.7-0.2-1.5-0.6-2.1C1271,1121,1270.4,1120.8,1269.8,1120.8
		L1269.8,1120.8z"/>
	<path id="Trazado_191654" class="st2" d="M1243.2,1142.2c-1,0.5-2.1,0.8-3.2,0.7c-1.2,0.1-2.4-0.3-3.3-1.2c-0.8-0.8-1.3-2-1.2-3.2
		c0-1.2,0.4-2.5,1.3-3.3c0.9-0.9,2.2-1.3,3.5-1.3c0.8,0,1.6,0.1,2.4,0.4v1.8c-0.8-0.4-1.6-0.6-2.5-0.6c-0.7,0-1.5,0.3-2,0.8
		c-0.5,0.6-0.8,1.3-0.8,2.1c0,0.8,0.2,1.5,0.7,2.1c0.5,0.5,1.2,0.8,1.9,0.7c0.4,0,0.8-0.1,1.1-0.2v-1.7h-1.7v-1.6h3.7L1243.2,1142.2
		z M1248.5,1142.9c-1.1,0-2.2-0.4-3-1.2c-0.8-0.9-1.2-2-1.2-3.2c-0.1-1.2,0.4-2.4,1.2-3.3c0.8-0.9,2-1.3,3.2-1.3
		c1.1,0,2.2,0.4,3,1.2c0.8,0.9,1.2,2,1.1,3.2c0.1,1.2-0.4,2.4-1.2,3.3C1250.8,1142.5,1249.7,1142.9,1248.5,1142.9z M1248.6,1135.6
		c-0.6,0-1.2,0.3-1.6,0.8c-0.4,0.6-0.6,1.3-0.6,2c0,0.7,0.2,1.4,0.6,2c0.4,0.5,1,0.8,1.6,0.7c0.6,0,1.2-0.2,1.6-0.7
		c0.4-0.6,0.6-1.3,0.6-2c0-0.7-0.2-1.5-0.6-2.1C1249.8,1135.9,1249.2,1135.6,1248.6,1135.6L1248.6,1135.6z M1264.1,1142.7h-1.9v-5.2
		c0-0.6,0-1.2,0.1-1.9h0c-0.1,0.4-0.2,0.8-0.3,1.1l-2,5.9h-1.6l-2.1-5.8c-0.1-0.4-0.2-0.8-0.3-1.2h-0.1c0.1,0.9,0.1,1.6,0.1,2.2v4.8
		h-1.8v-8.7h2.9l1.8,5.1c0.1,0.4,0.2,0.8,0.3,1.2h0c0.1-0.4,0.2-0.8,0.3-1.3l1.8-5.1h2.8V1142.7z"/>
	<path id="Trazado_191655" class="st2" d="M1053,1316.8v3.1h-2v-8.9h3.1c2.2,0,3.4,0.9,3.4,2.8c0,0.8-0.3,1.6-1,2.2
		c-0.7,0.6-1.6,0.9-2.6,0.8H1053z M1053,1312.6v2.8h0.8c1.1,0,1.6-0.5,1.6-1.4c0-0.9-0.5-1.4-1.6-1.4L1053,1312.6z M1066.2,1319.9
		h-2.3l-1.4-2.3c-0.1-0.2-0.2-0.3-0.3-0.5c-0.1-0.1-0.2-0.2-0.3-0.4c-0.1-0.1-0.2-0.2-0.3-0.2c-0.1-0.1-0.2-0.1-0.3-0.1h-0.5v3.4h-2
		v-8.9h3.2c2.2,0,3.2,0.8,3.2,2.4c0,0.3,0,0.6-0.1,0.9c-0.1,0.3-0.2,0.5-0.4,0.7c-0.2,0.2-0.4,0.4-0.6,0.5c-0.3,0.2-0.5,0.3-0.8,0.4
		v0c0.1,0,0.3,0.1,0.4,0.2c0.1,0.1,0.2,0.2,0.4,0.3c0.1,0.1,0.2,0.3,0.3,0.4c0.1,0.1,0.2,0.3,0.3,0.4L1066.2,1319.9z M1060.8,1312.5
		v2.5h0.9c0.4,0,0.8-0.1,1-0.4c0.3-0.2,0.4-0.6,0.4-0.9c0-0.8-0.5-1.2-1.4-1.2L1060.8,1312.5z M1072.4,1319.9h-5.3v-8.9h5.1v1.6
		h-3.1v2h2.9v1.6h-2.9v2h3.3V1319.9z M1073.4,1319.6v-2c0.3,0.3,0.7,0.5,1.2,0.7c0.4,0.1,0.8,0.2,1.3,0.2c0.2,0,0.4,0,0.7-0.1
		c0.2,0,0.3-0.1,0.5-0.2c0.1-0.1,0.2-0.2,0.3-0.3c0.1-0.1,0.1-0.2,0.1-0.4c0-0.2,0-0.3-0.1-0.5c-0.1-0.1-0.2-0.3-0.4-0.4
		c-0.2-0.1-0.4-0.2-0.6-0.3c-0.2-0.1-0.5-0.2-0.8-0.3c-0.6-0.2-1.1-0.6-1.5-1.1c-0.3-0.4-0.5-1-0.5-1.5c0-0.4,0.1-0.8,0.3-1.2
		c0.2-0.3,0.4-0.6,0.8-0.8c0.3-0.2,0.7-0.4,1.1-0.5c0.4-0.1,0.9-0.2,1.3-0.2c0.4,0,0.8,0,1.2,0.1c0.3,0.1,0.7,0.1,1,0.3v1.9
		c-0.2-0.1-0.3-0.2-0.5-0.3c-0.2-0.1-0.4-0.1-0.5-0.2c-0.2-0.1-0.4-0.1-0.6-0.1c-0.2,0-0.3,0-0.5,0c-0.2,0-0.4,0-0.6,0.1
		c-0.2,0-0.3,0.1-0.5,0.2c-0.1,0.1-0.2,0.2-0.3,0.3c-0.1,0.1-0.1,0.2-0.1,0.4c0,0.1,0,0.3,0.1,0.4c0.1,0.1,0.2,0.2,0.3,0.3
		c0.2,0.1,0.3,0.2,0.5,0.3c0.2,0.1,0.4,0.2,0.7,0.3c0.3,0.1,0.6,0.3,1,0.5c0.3,0.2,0.5,0.3,0.7,0.6c0.2,0.2,0.4,0.5,0.5,0.7
		c0.1,0.3,0.2,0.6,0.2,0.9c0,0.4-0.1,0.9-0.3,1.2c-0.2,0.3-0.4,0.6-0.8,0.8c-0.3,0.2-0.7,0.4-1.1,0.4c-0.4,0.1-0.9,0.1-1.4,0.1
		c-0.5,0-0.9,0-1.4-0.1C1074.1,1319.9,1073.8,1319.7,1073.4,1319.6L1073.4,1319.6z M1086.2,1319.9h-5.3v-8.9h5.1v1.6h-3.1v2h2.9v1.6
		h-2.9v2h3.3V1319.9z M1095.7,1319.9h-2l-3.7-5.6c-0.2-0.2-0.3-0.5-0.4-0.7h0c0,0.3,0,0.8,0,1.4v4.9h-1.9v-8.9h2.2l3.5,5.4
		c0.2,0.2,0.3,0.5,0.4,0.7h0c0-0.4-0.1-0.8,0-1.2v-4.9h1.9L1095.7,1319.9z M1103.8,1312.7h-2.5v7.3h-2v-7.3h-2.5v-1.6h7.1
		L1103.8,1312.7z M1111.2,1319.9h-2.2l-0.6-2h-3.2l-0.6,2h-2.2l3.2-8.9h2.4L1111.2,1319.9z M1107.9,1316.4l-1-3
		c-0.1-0.3-0.1-0.5-0.1-0.8h0c0,0.3-0.1,0.5-0.2,0.8l-1,3L1107.9,1316.4z M1118.4,1319.6c-0.8,0.3-1.7,0.5-2.5,0.5
		c-1.2,0.1-2.4-0.4-3.2-1.2c-0.8-0.9-1.2-2-1.2-3.2c-0.1-1.3,0.4-2.5,1.3-3.5c0.9-0.9,2.1-1.4,3.4-1.3c0.7,0,1.5,0.1,2.2,0.3v1.9
		c-0.6-0.4-1.3-0.5-2-0.5c-0.8,0-1.5,0.3-2,0.8c-0.5,0.6-0.8,1.3-0.8,2.1c0,0.8,0.2,1.5,0.7,2.1c0.5,0.5,1.2,0.8,2,0.8
		c0.8,0,1.5-0.2,2.1-0.6L1118.4,1319.6z M1121.9,1319.9h-2v-8.9h2V1319.9z M1127.7,1320.1c-1.2,0-2.3-0.4-3.1-1.2
		c-0.8-0.9-1.3-2-1.2-3.2c-0.1-1.3,0.4-2.5,1.2-3.4c0.8-0.9,2-1.4,3.2-1.3c1.2,0,2.3,0.4,3.1,1.2c0.8,0.9,1.2,2.1,1.2,3.3
		c0.1,1.2-0.4,2.5-1.2,3.4C1130,1319.6,1128.9,1320.1,1127.7,1320.1z M1127.8,1312.6c-0.7,0-1.3,0.3-1.7,0.8
		c-0.4,0.6-0.7,1.3-0.6,2.1c0,0.7,0.2,1.5,0.6,2.1c0.4,0.5,1,0.8,1.6,0.8c0.6,0,1.2-0.3,1.6-0.7c0.4-0.6,0.7-1.3,0.6-2.1
		c0-0.8-0.2-1.5-0.6-2.2C1129,1312.9,1128.4,1312.6,1127.8,1312.6L1127.8,1312.6z M1129.8,1308.2l-1.9,2h-1.4l1.6-2H1129.8z
		 M1141.5,1319.9h-2l-3.7-5.6c-0.2-0.2-0.3-0.5-0.4-0.7h0c0,0.3,0,0.8,0,1.4v4.9h-1.9v-8.9h2.2l3.5,5.4c0.2,0.2,0.3,0.5,0.4,0.7h0
		c0-0.4-0.1-0.8,0-1.2v-4.9h1.9V1319.9z"/>
	<path id="Trazado_191656" class="st2" d="M1239.6,1351.8h-2l-1.2-2c-0.1-0.2-0.2-0.3-0.3-0.4c-0.1-0.1-0.2-0.2-0.2-0.3
		c-0.1-0.1-0.2-0.1-0.3-0.2c-0.1,0-0.2-0.1-0.3-0.1h-0.5v2.9h-1.7v-7.7h2.8c1.9,0,2.8,0.7,2.8,2.1c0,0.3,0,0.5-0.1,0.7
		c-0.1,0.2-0.2,0.4-0.3,0.6c-0.2,0.2-0.3,0.3-0.5,0.5c-0.2,0.1-0.5,0.2-0.7,0.3v0c0.1,0,0.2,0.1,0.3,0.2c0.1,0.1,0.2,0.2,0.3,0.3
		c0.1,0.1,0.2,0.2,0.3,0.3c0.1,0.1,0.2,0.2,0.2,0.4L1239.6,1351.8z M1234.9,1345.4v2.1h0.8c0.3,0,0.7-0.1,0.9-0.3
		c0.2-0.2,0.4-0.5,0.3-0.8c0-0.7-0.4-1-1.2-1H1234.9z M1244.9,1351.8h-4.6v-7.7h4.4v1.4h-2.7v1.7h2.5v1.4h-2.5v1.8h2.9
		L1244.9,1351.8z M1250.6,1345.5h-2.7v1.9h2.5v1.4h-2.5v3h-1.7v-7.7h4.5L1250.6,1345.5z M1256.5,1351.8h-4.6v-7.7h4.4v1.4h-2.7v1.7
		h2.5v1.4h-2.5v1.8h2.9V1351.8z M1264.2,1351.8h-2l-1.2-2c-0.1-0.2-0.2-0.3-0.3-0.4c-0.1-0.1-0.2-0.2-0.2-0.3
		c-0.1-0.1-0.2-0.1-0.3-0.2c-0.1,0-0.2-0.1-0.3-0.1h-0.5v2.9h-1.7v-7.7h2.8c1.9,0,2.8,0.7,2.8,2.1c0,0.3,0,0.5-0.1,0.7
		c-0.1,0.2-0.2,0.4-0.3,0.6c-0.2,0.2-0.3,0.3-0.5,0.5c-0.2,0.1-0.5,0.2-0.7,0.3v0c0.1,0,0.2,0.1,0.3,0.2c0.1,0.1,0.2,0.2,0.3,0.3
		c0.1,0.1,0.2,0.2,0.3,0.3c0.1,0.1,0.2,0.2,0.2,0.4L1264.2,1351.8z M1259.5,1345.4v2.1h0.8c0.3,0,0.7-0.1,0.9-0.3
		c0.2-0.2,0.4-0.5,0.3-0.8c0-0.7-0.4-1-1.2-1H1259.5z M1269.6,1351.8h-4.6v-7.7h4.4v1.4h-2.7v1.7h2.5v1.4h-2.5v1.8h2.9
		L1269.6,1351.8z M1277.7,1351.8h-1.8l-3.2-4.8c-0.1-0.2-0.3-0.4-0.4-0.6h0c0,0.3,0,0.7,0,1.2v4.2h-1.6v-7.7h1.9l3.1,4.7
		c0.1,0.2,0.3,0.4,0.4,0.6h0c0-0.4-0.1-0.7,0-1.1v-4.3h1.6L1277.7,1351.8z M1285,1351.5c-0.7,0.3-1.4,0.4-2.2,0.4
		c-1,0.1-2-0.3-2.8-1c-0.7-0.8-1.1-1.8-1-2.8c0-1.1,0.4-2.2,1.1-3c0.8-0.8,1.9-1.2,3-1.1c0.6,0,1.3,0.1,1.9,0.3v1.7
		c-0.5-0.3-1.1-0.5-1.8-0.5c-0.7,0-1.3,0.2-1.8,0.7c-0.5,0.5-0.7,1.2-0.7,1.8c0,0.7,0.2,1.3,0.6,1.8c0.4,0.5,1.1,0.7,1.7,0.7
		c0.7,0,1.3-0.2,1.9-0.5L1285,1351.5z"/>
	<path id="Trazado_191657" class="st2" d="M1288.5,1351.8h-1.7v-7.7h1.7V1351.8z"/>
	<path id="Trazado_191658" class="st2" d="M1296.8,1351.8h-1.9l-0.5-1.7h-2.7l-0.5,1.7h-1.9l2.8-7.7h2.1L1296.8,1351.8z
		 M1294,1348.7l-0.8-2.6c-0.1-0.2-0.1-0.5-0.1-0.7h0c0,0.2-0.1,0.5-0.1,0.7l-0.8,2.6L1294,1348.7z M1297.4,1351.5v-1.7
		c0.3,0.3,0.6,0.5,1,0.6c0.4,0.1,0.7,0.2,1.1,0.2c0.2,0,0.4,0,0.6-0.1c0.1,0,0.3-0.1,0.4-0.2c0.1-0.1,0.2-0.1,0.2-0.2
		c0.1-0.1,0.1-0.2,0.1-0.3c0-0.1,0-0.3-0.1-0.4c-0.1-0.1-0.2-0.2-0.4-0.3c-0.2-0.1-0.3-0.2-0.5-0.3c-0.2-0.1-0.4-0.2-0.7-0.3
		c-0.5-0.2-1-0.5-1.3-0.9c-0.3-0.4-0.5-0.8-0.4-1.3c0-0.4,0.1-0.7,0.2-1c0.2-0.3,0.4-0.5,0.7-0.7c0.3-0.2,0.6-0.3,1-0.4
		c0.4-0.1,0.8-0.1,1.2-0.1c0.4,0,0.7,0,1.1,0.1c0.3,0,0.6,0.1,0.9,0.2v1.6c-0.1-0.1-0.3-0.2-0.4-0.2c-0.2-0.1-0.3-0.1-0.5-0.2
		c-0.2,0-0.3-0.1-0.5-0.1c-0.2,0-0.3,0-0.5,0c-0.2,0-0.4,0-0.5,0.1c-0.1,0-0.3,0.1-0.4,0.2c-0.1,0.1-0.2,0.1-0.3,0.2
		c-0.1,0.1-0.1,0.2-0.1,0.3c0,0.1,0,0.2,0.1,0.3c0.1,0.1,0.2,0.2,0.3,0.3c0.1,0.1,0.3,0.2,0.5,0.3c0.2,0.1,0.4,0.2,0.6,0.3
		c0.3,0.1,0.6,0.3,0.8,0.4c0.2,0.1,0.4,0.3,0.6,0.5c0.2,0.2,0.3,0.4,0.4,0.6c0.1,0.3,0.1,0.5,0.1,0.8c0,0.4-0.1,0.7-0.2,1.1
		c-0.2,0.3-0.4,0.5-0.7,0.7c-0.3,0.2-0.6,0.3-1,0.4c-0.4,0.1-0.8,0.1-1.2,0.1c-0.4,0-0.8,0-1.2-0.1
		C1298.1,1351.7,1297.7,1351.6,1297.4,1351.5z"/>
	<path id="Trazado_191659" class="st2" d="M1226.8,1365v-7.7h2.8c0.7,0,1.4,0.1,2,0.5c0.4,0.3,0.7,0.8,0.7,1.3
		c0,0.4-0.1,0.8-0.4,1.1c-0.3,0.3-0.7,0.5-1.1,0.7v0c0.5,0,1,0.3,1.3,0.6c0.3,0.3,0.5,0.8,0.5,1.2c0,0.6-0.3,1.3-0.8,1.7
		c-0.6,0.4-1.3,0.7-2.1,0.6H1226.8z M1228.5,1358.5v1.8h0.8c0.3,0,0.6-0.1,0.8-0.3c0.2-0.2,0.3-0.4,0.3-0.7c0-0.6-0.4-0.8-1.3-0.8
		L1228.5,1358.5z M1228.5,1361.6v2h0.9c0.3,0,0.7-0.1,0.9-0.3c0.2-0.2,0.4-0.5,0.3-0.8c0-0.3-0.1-0.6-0.3-0.7
		c-0.3-0.2-0.6-0.3-0.9-0.3L1228.5,1361.6z M1235.6,1365h-1.7v-7.7h1.7V1365z M1237.3,1365v-7.7h2.8c0.7,0,1.4,0.1,2,0.5
		c0.5,0.3,0.7,0.8,0.7,1.3c0,0.4-0.1,0.8-0.4,1.1c-0.3,0.3-0.7,0.5-1.1,0.7v0c0.5,0,1,0.3,1.3,0.6c0.3,0.3,0.5,0.8,0.5,1.2
		c0,0.6-0.3,1.3-0.8,1.7c-0.6,0.4-1.3,0.7-2.1,0.6H1237.3z M1239.1,1358.5v1.8h0.8c0.3,0,0.6-0.1,0.8-0.3c0.2-0.2,0.3-0.4,0.3-0.7
		c0-0.6-0.4-0.8-1.3-0.8L1239.1,1358.5z M1239.1,1361.6v2h0.9c0.3,0,0.7-0.1,0.9-0.3c0.2-0.2,0.4-0.5,0.3-0.8c0-0.3-0.1-0.6-0.3-0.7
		c-0.3-0.2-0.6-0.3-0.9-0.3H1239.1z M1249,1365h-4.6v-7.7h1.7v6.3h2.9V1365z M1251.7,1365h-1.7v-7.7h1.7V1365z M1256.7,1365.1
		c-1,0-2-0.4-2.7-1.1c-0.7-0.8-1.1-1.8-1-2.8c0-1.1,0.3-2.1,1.1-3c0.7-0.8,1.7-1.2,2.8-1.1c1,0,2,0.4,2.7,1.1c0.7,0.8,1.1,1.8,1,2.8
		c0,1.1-0.3,2.1-1.1,2.9C1258.8,1364.7,1257.8,1365.1,1256.7,1365.1L1256.7,1365.1z M1256.8,1358.6c-0.6,0-1.1,0.2-1.4,0.7
		c-0.4,0.5-0.6,1.2-0.5,1.8c0,0.6,0.2,1.3,0.5,1.8c0.3,0.4,0.9,0.7,1.4,0.7c0.5,0,1.1-0.2,1.4-0.6c0.4-0.5,0.6-1.2,0.5-1.8
		c0-0.7-0.1-1.3-0.5-1.9C1257.9,1358.8,1257.4,1358.6,1256.8,1358.6z M1268.1,1364.4c-0.9,0.5-1.8,0.7-2.8,0.7
		c-1.1,0.1-2.1-0.3-2.9-1c-0.7-0.8-1.1-1.8-1.1-2.8c0-1.1,0.4-2.2,1.2-3c0.8-0.8,2-1.2,3.1-1.1c0.7,0,1.5,0.1,2.2,0.3v1.6
		c-0.7-0.4-1.4-0.5-2.2-0.5c-0.7,0-1.3,0.2-1.8,0.7c-0.5,0.5-0.7,1.2-0.7,1.9c0,0.7,0.2,1.3,0.6,1.8c0.4,0.4,1,0.7,1.6,0.7
		c0.3,0,0.7,0,1-0.2v-1.5h-1.5v-1.4h3.3L1268.1,1364.4z M1276.1,1365h-2l-1.2-2c-0.1-0.2-0.2-0.3-0.3-0.4c-0.1-0.1-0.2-0.2-0.2-0.3
		c-0.1-0.1-0.2-0.1-0.3-0.2c-0.1,0-0.2-0.1-0.3-0.1h-0.5v2.9h-1.7v-7.7h2.8c1.9,0,2.8,0.7,2.8,2.1c0,0.3,0,0.5-0.1,0.7
		c-0.1,0.2-0.2,0.4-0.3,0.6c-0.2,0.2-0.3,0.3-0.5,0.5c-0.2,0.1-0.5,0.2-0.7,0.3v0c0.1,0,0.2,0.1,0.3,0.2c0.1,0.1,0.2,0.2,0.3,0.3
		c0.1,0.1,0.2,0.2,0.3,0.3c0.1,0.1,0.2,0.2,0.2,0.4L1276.1,1365z M1271.4,1358.6v2.1h0.8c0.3,0,0.7-0.1,0.9-0.3
		c0.2-0.2,0.4-0.5,0.3-0.8c0-0.7-0.4-1-1.2-1H1271.4z M1283.6,1365h-1.9l-0.5-1.7h-2.7l-0.5,1.7h-1.9l2.8-7.7h2.1L1283.6,1365z
		 M1280.8,1361.9l-0.8-2.6c-0.1-0.2-0.1-0.5-0.1-0.7h0c0,0.2-0.1,0.5-0.1,0.7l-0.8,2.6L1280.8,1361.9z M1289,1358.7h-2.7v1.9h2.5
		v1.4h-2.5v3h-1.7v-7.7h4.5V1358.7z M1292,1365h-1.7v-7.7h1.7L1292,1365z M1299.3,1364.7c-0.7,0.3-1.4,0.4-2.2,0.4
		c-1,0.1-2-0.3-2.8-1c-0.7-0.8-1.1-1.8-1-2.8c0-1.1,0.4-2.2,1.1-3c0.8-0.8,1.9-1.2,3-1.1c0.6,0,1.3,0.1,1.9,0.3v1.7
		c-0.5-0.3-1.1-0.5-1.8-0.5c-0.7,0-1.3,0.2-1.8,0.7c-0.5,0.5-0.7,1.2-0.7,1.8c0,0.7,0.2,1.3,0.6,1.8c0.4,0.5,1.1,0.7,1.7,0.7
		c0.7,0,1.3-0.2,1.9-0.5V1364.7z M1307.4,1365h-1.9l-0.5-1.7h-2.7l-0.5,1.7h-1.9l2.8-7.7h2.1L1307.4,1365z M1304.6,1361.9l-0.8-2.6
		c-0.1-0.2-0.1-0.5-0.1-0.7h0c0,0.2-0.1,0.5-0.1,0.7l-0.8,2.6L1304.6,1361.9z M1308,1364.7v-1.7c0.3,0.3,0.6,0.5,1,0.6
		c0.4,0.1,0.7,0.2,1.1,0.2c0.2,0,0.4,0,0.6-0.1c0.1,0,0.3-0.1,0.4-0.2c0.1-0.1,0.2-0.1,0.2-0.2c0.1-0.1,0.1-0.2,0.1-0.3
		c0-0.1,0-0.3-0.1-0.4c-0.1-0.1-0.2-0.2-0.4-0.3c-0.2-0.1-0.3-0.2-0.5-0.3c-0.2-0.1-0.4-0.2-0.7-0.3c-0.5-0.2-1-0.5-1.3-0.9
		c-0.3-0.4-0.5-0.8-0.4-1.3c0-0.4,0.1-0.7,0.2-1c0.2-0.3,0.4-0.5,0.7-0.7c0.3-0.2,0.6-0.3,1-0.4c0.4-0.1,0.8-0.1,1.2-0.1
		c0.4,0,0.7,0,1.1,0.1c0.3,0,0.6,0.1,0.9,0.2v1.6c-0.1-0.1-0.3-0.2-0.4-0.2c-0.2-0.1-0.3-0.1-0.5-0.2c-0.2,0-0.3-0.1-0.5-0.1
		c-0.2,0-0.3,0-0.5,0c-0.2,0-0.4,0-0.5,0.1c-0.1,0-0.3,0.1-0.4,0.2c-0.1,0.1-0.2,0.1-0.3,0.2c-0.1,0.1-0.1,0.2-0.1,0.3
		c0,0.1,0,0.2,0.1,0.3c0.1,0.1,0.2,0.2,0.3,0.3c0.1,0.1,0.3,0.2,0.5,0.3c0.2,0.1,0.4,0.2,0.6,0.3c0.3,0.1,0.6,0.3,0.8,0.4
		c0.2,0.1,0.4,0.3,0.6,0.5c0.2,0.2,0.3,0.4,0.4,0.6c0.1,0.3,0.1,0.5,0.1,0.8c0,0.4-0.1,0.7-0.2,1.1c-0.2,0.3-0.4,0.5-0.7,0.7
		c-0.3,0.2-0.6,0.3-1,0.4c-0.4,0.1-0.8,0.1-1.2,0.1c-0.4,0-0.8,0-1.2-0.1C1308.7,1364.9,1308.3,1364.8,1308,1364.7z"/>
	<path id="Trazado_191660" class="st10" d="M1091.7,1214.4c2.8,0,5,2.2,5,5s-2.2,5-5,5s-5-2.2-5-5S1088.9,1214.4,1091.7,1214.4z"/>
	<path id="Trazado_191661" class="st10" d="M1036.5,1214.4c2.8,0,5,2.2,5,5s-2.2,5-5,5s-5-2.2-5-5S1033.7,1214.4,1036.5,1214.4z"/>
	<path id="Trazado_191662" class="st10" d="M1117.6,1256.6c2.8,0,5,2.2,5,5s-2.2,5-5,5s-5-2.2-5-5S1114.9,1256.6,1117.6,1256.6z"/>
	<path id="Trazado_191663" class="st10" d="M1168.7,1257.9c2.8,0,5,2.2,5,5s-2.2,5-5,5s-5-2.2-5-5S1165.9,1257.9,1168.7,1257.9z"/>
	<path id="Trazado_191664" class="st10" d="M1014,1257.9c2.8,0,5,2.2,5,5s-2.2,5-5,5s-5-2.2-5-5S1011.3,1257.9,1014,1257.9z"/>
	<path id="Trazado_191665" class="st10" d="M1170,1167.3c2.8,0,5,2.2,5,5s-2.2,5-5,5s-5-2.2-5-5S1167.2,1167.3,1170,1167.3z"/>
	<path id="Trazado_191666" class="st10" d="M1195.6,1121.9c2.8,0,5,2.2,5,5s-2.2,5-5,5s-5-2.2-5-5S1192.9,1121.9,1195.6,1121.9z"/>
	<path id="Trazado_191667" class="st10" d="M1248.4,1212.6c2.8,0,5,2.2,5,5s-2.2,5-5,5s-5-2.2-5-5S1245.6,1212.6,1248.4,1212.6z"/>
	<path id="Trazado_191668" class="st10" d="M1325.9,1257.9c2.8,0,5,2.2,5,5s-2.2,5-5,5s-5-2.2-5-5S1323.2,1257.9,1325.9,1257.9z"/>
	<path id="Trazado_191669" class="st10" d="M1352.1,1212.6c2.8,0,5,2.2,5,5s-2.2,5-5,5s-5-2.2-5-5S1349.4,1212.6,1352.1,1212.6z"/>
	<path id="Trazado_191670" class="st10" d="M1325.9,1348.5c2.8,0,5,2.2,5,5s-2.2,5-5,5s-5-2.2-5-5S1323.2,1348.5,1325.9,1348.5z"/>
	<path id="Trazado_191671" class="st10" d="M1249.7,1305.2c2.8,0,5,2.2,5,5s-2.2,5-5,5s-5-2.2-5-5S1246.9,1305.2,1249.7,1305.2z"/>
	<path id="Trazado_191672" class="st10" d="M1196,1303.2c2.8,0,5,2.2,5,5s-2.2,5-5,5s-5-2.2-5-5S1193.3,1303.2,1196,1303.2z"/>
	<path id="Trazado_191673" class="st10" d="M1276,1166.7c2.8,0,5,2.2,5,5s-2.2,5-5,5s-5-2.2-5-5S1273.2,1166.7,1276,1166.7z"/>
</g>
<polygon class="st2" points="472.3,258.5 470.6,260.2 469.4,260.2 470.8,258.5 "/>
<g>
	<path class="st2" d="M63.2,110.6h-3.4v2.3h4v1.4h-5.8v-8.6h5.7v1.4h-4v2.1h3.4V110.6z"/>
	<path class="st2" d="M69.3,112.1c0-0.3-0.1-0.6-0.4-0.8c-0.2-0.2-0.7-0.4-1.3-0.6s-1.1-0.4-1.5-0.6c-1-0.5-1.5-1.2-1.5-2.1
		c0-0.5,0.1-0.9,0.4-1.2c0.3-0.4,0.6-0.7,1.1-0.9c0.5-0.2,1-0.3,1.6-0.3c0.6,0,1.2,0.1,1.6,0.3c0.5,0.2,0.9,0.5,1.1,0.9
		c0.3,0.4,0.4,0.9,0.4,1.4h-1.8c0-0.4-0.1-0.7-0.4-0.9c-0.2-0.2-0.6-0.3-1-0.3c-0.4,0-0.8,0.1-1,0.3c-0.2,0.2-0.4,0.4-0.4,0.7
		c0,0.3,0.1,0.5,0.4,0.7c0.3,0.2,0.7,0.4,1.2,0.5c1,0.3,1.7,0.7,2.2,1.1c0.5,0.5,0.7,1,0.7,1.7c0,0.7-0.3,1.3-0.8,1.8
		c-0.6,0.4-1.3,0.6-2.3,0.6c-0.7,0-1.3-0.1-1.8-0.4s-1-0.6-1.2-1s-0.4-0.9-0.4-1.5h1.8c0,1,0.6,1.4,1.7,1.4c0.4,0,0.7-0.1,1-0.3
		C69.2,112.7,69.3,112.4,69.3,112.1z"/>
	<path class="st2" d="M78.7,107.2h-2.6v7.2h-1.8v-7.2h-2.6v-1.4h7V107.2z"/>
	<path class="st2" d="M83.9,112.6h-3.1l-0.6,1.8h-1.9l3.2-8.6h1.6l3.2,8.6h-1.9L83.9,112.6z M81.3,111.2h2.1l-1.1-3.2L81.3,111.2z
		 M82.7,103.4h1.9l-1.6,1.8h-1.4L82.7,103.4z"/>
	<path class="st2" d="M94.1,114.4h-1.8l-3.4-5.7v5.7h-1.8v-8.6h1.8l3.4,5.7v-5.7h1.8V114.4z"/>
	<path class="st2" d="M95.7,114.4v-8.6h2.6c0.8,0,1.4,0.2,2,0.5c0.6,0.3,1.1,0.8,1.4,1.5c0.3,0.6,0.5,1.3,0.5,2.2v0.4
		c0,0.8-0.2,1.5-0.5,2.1c-0.3,0.6-0.8,1.1-1.4,1.5c-0.6,0.3-1.3,0.5-2,0.5H95.7z M97.4,107.2v5.8h0.9c0.7,0,1.2-0.2,1.6-0.7
		c0.4-0.5,0.6-1.1,0.6-2v-0.5c0-0.9-0.2-1.5-0.5-2c-0.4-0.5-0.9-0.7-1.6-0.7H97.4z"/>
	<path class="st2" d="M108.2,112.6h-3.1l-0.6,1.8h-1.9l3.2-8.6h1.6l3.2,8.6h-1.9L108.2,112.6z M105.6,111.2h2.1l-1.1-3.2
		L105.6,111.2z"/>
	<path class="st2" d="M114.7,111.2h-1.4v3.2h-1.8v-8.6h3.2c1,0,1.8,0.2,2.3,0.7c0.6,0.5,0.8,1.1,0.8,1.9c0,0.6-0.1,1.1-0.4,1.5
		c-0.3,0.4-0.6,0.7-1.2,0.9l1.9,3.5v0.1h-1.9L114.7,111.2z M113.3,109.8h1.4c0.4,0,0.8-0.1,1-0.3c0.2-0.2,0.4-0.5,0.4-0.9
		c0-0.4-0.1-0.7-0.3-1s-0.6-0.4-1.1-0.4h-1.4V109.8z"/>
	<path class="st2" d="M124.4,110.6H121v2.3h4v1.4h-5.8v-8.6h5.7v1.4h-4v2.1h3.4V110.6z"/>
	<path class="st2" d="M130.4,112.1c0-0.3-0.1-0.6-0.4-0.8c-0.2-0.2-0.7-0.4-1.3-0.6s-1.1-0.4-1.5-0.6c-1-0.5-1.5-1.2-1.5-2.1
		c0-0.5,0.1-0.9,0.4-1.2c0.3-0.4,0.6-0.7,1.1-0.9c0.5-0.2,1-0.3,1.6-0.3c0.6,0,1.2,0.1,1.6,0.3c0.5,0.2,0.9,0.5,1.1,0.9
		c0.3,0.4,0.4,0.9,0.4,1.4h-1.8c0-0.4-0.1-0.7-0.4-0.9c-0.2-0.2-0.6-0.3-1-0.3c-0.4,0-0.8,0.1-1,0.3c-0.2,0.2-0.4,0.4-0.4,0.7
		c0,0.3,0.1,0.5,0.4,0.7c0.3,0.2,0.7,0.4,1.2,0.5c1,0.3,1.7,0.7,2.2,1.1c0.5,0.5,0.7,1,0.7,1.7c0,0.7-0.3,1.3-0.8,1.8
		c-0.6,0.4-1.3,0.6-2.3,0.6c-0.7,0-1.3-0.1-1.8-0.4s-1-0.6-1.2-1s-0.4-0.9-0.4-1.5h1.8c0,1,0.6,1.4,1.7,1.4c0.4,0,0.7-0.1,1-0.3
		C130.3,112.7,130.4,112.4,130.4,112.1z"/>
	<path class="st2" d="M139.4,109.6l1.8-3.9h1.9l-2.8,5.5v3.1h-1.8v-3.1l-2.8-5.5h1.9L139.4,109.6z"/>
	<path class="st2" d="M41.9,120.3l2.2,6.3l2.2-6.3h2.3v8.6h-1.8v-2.4l0.2-4.1l-2.3,6.4h-1.2l-2.3-6.4l0.2,4.1v2.4h-1.8v-8.6H41.9z"
		/>
	<path class="st2" d="M57.2,124.8c0,0.9-0.1,1.6-0.4,2.2c-0.3,0.6-0.7,1.1-1.3,1.5s-1.2,0.5-1.9,0.5c-0.7,0-1.3-0.2-1.9-0.5
		s-1-0.8-1.3-1.5c-0.3-0.6-0.5-1.4-0.5-2.2v-0.4c0-0.9,0.2-1.6,0.5-2.2c0.3-0.6,0.7-1.1,1.3-1.5s1.2-0.5,1.9-0.5
		c0.7,0,1.3,0.2,1.9,0.5c0.6,0.3,1,0.8,1.3,1.5c0.3,0.6,0.5,1.4,0.5,2.2V124.8z M55.4,124.5c0-0.9-0.2-1.6-0.5-2.1
		c-0.3-0.5-0.8-0.7-1.4-0.7c-0.6,0-1.1,0.2-1.4,0.7c-0.3,0.5-0.5,1.1-0.5,2v0.4c0,0.9,0.2,1.6,0.5,2.1c0.3,0.5,0.8,0.7,1.4,0.7
		c0.6,0,1-0.2,1.4-0.7s0.5-1.2,0.5-2V124.5z"/>
	<path class="st2" d="M58.5,129v-8.6h2.6c0.8,0,1.4,0.2,2,0.5c0.6,0.3,1.1,0.8,1.4,1.5c0.3,0.6,0.5,1.3,0.5,2.2v0.4
		c0,0.8-0.2,1.5-0.5,2.1c-0.3,0.6-0.8,1.1-1.4,1.5c-0.6,0.3-1.3,0.5-2,0.5H58.5z M60.2,121.8v5.8h0.9c0.7,0,1.2-0.2,1.6-0.7
		c0.4-0.5,0.6-1.1,0.6-2v-0.5c0-0.9-0.2-1.5-0.5-2c-0.4-0.5-0.9-0.7-1.6-0.7H60.2z"/>
	<path class="st2" d="M71.5,125.2h-3.4v2.3h4v1.4h-5.8v-8.6h5.7v1.4h-4v2.1h3.4V125.2z"/>
	<path class="st2" d="M74.9,127.5h3.8v1.4h-5.5v-8.6h1.8V127.5z"/>
	<path class="st2" d="M86.3,124.8c0,0.9-0.1,1.6-0.4,2.2c-0.3,0.6-0.7,1.1-1.3,1.5s-1.2,0.5-1.9,0.5c-0.7,0-1.3-0.2-1.9-0.5
		s-1-0.8-1.3-1.5c-0.3-0.6-0.5-1.4-0.5-2.2v-0.4c0-0.9,0.2-1.6,0.5-2.2c0.3-0.6,0.7-1.1,1.3-1.5s1.2-0.5,1.9-0.5
		c0.7,0,1.3,0.2,1.9,0.5c0.6,0.3,1,0.8,1.3,1.5c0.3,0.6,0.5,1.4,0.5,2.2V124.8z M84.5,124.5c0-0.9-0.2-1.6-0.5-2.1
		c-0.3-0.5-0.8-0.7-1.4-0.7c-0.6,0-1.1,0.2-1.4,0.7c-0.3,0.5-0.5,1.1-0.5,2v0.4c0,0.9,0.2,1.6,0.5,2.1c0.3,0.5,0.8,0.7,1.4,0.7
		c0.6,0,1-0.2,1.4-0.7s0.5-1.2,0.5-2V124.5z"/>
	<path class="st2" d="M92,126.7c0-0.3-0.1-0.6-0.4-0.8c-0.2-0.2-0.7-0.4-1.3-0.6s-1.1-0.4-1.5-0.6c-1-0.5-1.5-1.2-1.5-2.1
		c0-0.5,0.1-0.9,0.4-1.2c0.3-0.4,0.6-0.7,1.1-0.9c0.5-0.2,1-0.3,1.6-0.3c0.6,0,1.2,0.1,1.6,0.3c0.5,0.2,0.9,0.5,1.1,0.9
		c0.3,0.4,0.4,0.9,0.4,1.4H92c0-0.4-0.1-0.7-0.4-0.9c-0.2-0.2-0.6-0.3-1-0.3c-0.4,0-0.8,0.1-1,0.3c-0.2,0.2-0.4,0.4-0.4,0.7
		c0,0.3,0.1,0.5,0.4,0.7c0.3,0.2,0.7,0.4,1.2,0.5c1,0.3,1.7,0.7,2.2,1.1c0.5,0.5,0.7,1,0.7,1.7c0,0.7-0.3,1.3-0.8,1.8
		c-0.6,0.4-1.3,0.6-2.3,0.6c-0.7,0-1.3-0.1-1.8-0.4s-1-0.6-1.2-1c-0.3-0.4-0.4-0.9-0.4-1.5H89c0,1,0.6,1.4,1.7,1.4
		c0.4,0,0.7-0.1,1-0.3C91.9,127.3,92,127,92,126.7z"/>
	<path class="st2" d="M98,129v-8.6h2.6c0.8,0,1.4,0.2,2,0.5c0.6,0.3,1.1,0.8,1.4,1.5c0.3,0.6,0.5,1.3,0.5,2.2v0.4
		c0,0.8-0.2,1.5-0.5,2.1c-0.3,0.6-0.8,1.1-1.4,1.5c-0.6,0.3-1.3,0.5-2,0.5H98z M99.8,121.8v5.8h0.9c0.7,0,1.2-0.2,1.6-0.7
		c0.4-0.5,0.6-1.1,0.6-2v-0.5c0-0.9-0.2-1.5-0.5-2c-0.4-0.5-0.9-0.7-1.6-0.7H99.8z"/>
	<path class="st2" d="M111,125.2h-3.4v2.3h4v1.4h-5.8v-8.6h5.7v1.4h-4v2.1h3.4V125.2z"/>
	<path class="st2" d="M122.4,126.1c-0.1,0.9-0.4,1.7-1,2.2c-0.6,0.5-1.4,0.8-2.4,0.8c-1.1,0-2-0.4-2.6-1.1c-0.6-0.7-0.9-1.8-0.9-3.1
		v-0.5c0-0.8,0.1-1.6,0.4-2.2c0.3-0.6,0.7-1.1,1.2-1.5c0.5-0.3,1.2-0.5,1.9-0.5c1,0,1.8,0.3,2.4,0.8s1,1.3,1,2.2h-1.8
		c0-0.6-0.2-1-0.5-1.2c-0.3-0.3-0.7-0.4-1.2-0.4c-0.6,0-1,0.2-1.3,0.6c-0.3,0.4-0.4,1.1-0.5,2v0.7c0,0.9,0.1,1.6,0.4,2
		c0.3,0.4,0.7,0.6,1.3,0.6c0.5,0,1-0.1,1.2-0.4c0.3-0.3,0.4-0.6,0.5-1.2H122.4z"/>
	<path class="st2" d="M128.4,127.2h-3.1l-0.6,1.8h-1.9l3.2-8.6h1.6l3.2,8.6H129L128.4,127.2z M125.8,125.7h2.1l-1.1-3.2L125.8,125.7
		z"/>
	<path class="st2" d="M133.4,127.5h3.8v1.4h-5.5v-8.6h1.8V127.5z"/>
	<path class="st2" d="M140.1,129h-1.8v-8.6h1.8V129z"/>
	<path class="st2" d="M141.7,129v-8.6h2.6c0.8,0,1.4,0.2,2,0.5c0.6,0.3,1.1,0.8,1.4,1.5c0.3,0.6,0.5,1.3,0.5,2.2v0.4
		c0,0.8-0.2,1.5-0.5,2.1c-0.3,0.6-0.8,1.1-1.4,1.5c-0.6,0.3-1.3,0.5-2,0.5H141.7z M143.5,121.8v5.8h0.9c0.7,0,1.2-0.2,1.6-0.7
		c0.4-0.5,0.6-1.1,0.6-2v-0.5c0-0.9-0.2-1.5-0.5-2c-0.4-0.5-0.9-0.7-1.6-0.7H143.5z"/>
	<path class="st2" d="M154.3,127.2h-3.1l-0.6,1.8h-1.9l3.2-8.6h1.6l3.2,8.6h-1.9L154.3,127.2z M151.7,125.7h2.1l-1.1-3.2
		L151.7,125.7z"/>
	<path class="st2" d="M157.5,129v-8.6h2.6c0.8,0,1.4,0.2,2,0.5c0.6,0.3,1.1,0.8,1.4,1.5c0.3,0.6,0.5,1.3,0.5,2.2v0.4
		c0,0.8-0.2,1.5-0.5,2.1c-0.3,0.6-0.8,1.1-1.4,1.5c-0.6,0.3-1.3,0.5-2,0.5H157.5z M159.3,121.8v5.8h0.9c0.7,0,1.2-0.2,1.6-0.7
		c0.4-0.5,0.6-1.1,0.6-2v-0.5c0-0.9-0.2-1.5-0.5-2c-0.4-0.5-0.9-0.7-1.6-0.7H159.3z"/>
	<path class="st2" d="M58.9,143.5v-8.6h2.6c0.8,0,1.4,0.2,2,0.5c0.6,0.3,1.1,0.8,1.4,1.5c0.3,0.6,0.5,1.3,0.5,2.2v0.4
		c0,0.8-0.2,1.5-0.5,2.1c-0.3,0.6-0.8,1.1-1.4,1.5c-0.6,0.3-1.3,0.5-2,0.5H58.9z M60.7,136.4v5.8h0.9c0.7,0,1.2-0.2,1.6-0.7
		c0.4-0.5,0.6-1.1,0.6-2V139c0-0.9-0.2-1.5-0.5-2c-0.4-0.5-0.9-0.7-1.6-0.7H60.7z"/>
	<path class="st2" d="M71.9,139.8h-3.4v2.3h4v1.4h-5.8v-8.6h5.7v1.4h-4v2.1h3.4V139.8z"/>
	<path class="st2" d="M75.3,142.1h3.8v1.4h-5.5v-8.6h1.8V142.1z"/>
	<path class="st2" d="M87.5,141.3c0-0.3-0.1-0.6-0.4-0.8c-0.2-0.2-0.7-0.4-1.3-0.6s-1.1-0.4-1.5-0.6c-1-0.5-1.5-1.2-1.5-2.1
		c0-0.5,0.1-0.9,0.4-1.2c0.3-0.4,0.6-0.7,1.1-0.9c0.5-0.2,1-0.3,1.6-0.3c0.6,0,1.2,0.1,1.6,0.3c0.5,0.2,0.9,0.5,1.1,0.9
		c0.3,0.4,0.4,0.9,0.4,1.4h-1.8c0-0.4-0.1-0.7-0.4-0.9c-0.2-0.2-0.6-0.3-1-0.3c-0.4,0-0.8,0.1-1,0.3c-0.2,0.2-0.4,0.4-0.4,0.7
		c0,0.3,0.1,0.5,0.4,0.7c0.3,0.2,0.7,0.4,1.2,0.5c1,0.3,1.7,0.7,2.2,1.1c0.5,0.5,0.7,1,0.7,1.7c0,0.7-0.3,1.3-0.8,1.8
		c-0.6,0.4-1.3,0.6-2.3,0.6c-0.7,0-1.3-0.1-1.8-0.4s-1-0.6-1.2-1s-0.4-0.9-0.4-1.5h1.8c0,1,0.6,1.4,1.7,1.4c0.4,0,0.7-0.1,1-0.3
		C87.4,141.8,87.5,141.6,87.5,141.3z"/>
	<path class="st2" d="M97.6,139.4c0,0.9-0.1,1.6-0.4,2.2c-0.3,0.6-0.7,1.1-1.3,1.5s-1.2,0.5-1.9,0.5c-0.7,0-1.3-0.2-1.9-0.5
		s-1-0.8-1.3-1.5c-0.3-0.6-0.5-1.4-0.5-2.2V139c0-0.9,0.2-1.6,0.5-2.2c0.3-0.6,0.7-1.1,1.3-1.5s1.2-0.5,1.9-0.5
		c0.7,0,1.3,0.2,1.9,0.5c0.6,0.3,1,0.8,1.3,1.5c0.3,0.6,0.5,1.4,0.5,2.2V139.4z M95.8,139c0-0.9-0.2-1.6-0.5-2.1
		c-0.3-0.5-0.8-0.7-1.4-0.7c-0.6,0-1.1,0.2-1.4,0.7c-0.3,0.5-0.5,1.1-0.5,2v0.4c0,0.9,0.2,1.6,0.5,2.1c0.3,0.5,0.8,0.7,1.4,0.7
		c0.6,0,1-0.2,1.4-0.7s0.5-1.2,0.5-2V139z"/>
	<path class="st2" d="M104,140h-3.4v3.5h-1.8v-8.6h5.6v1.4h-3.8v2.2h3.4V140z"/>
	<path class="st2" d="M112,136.4h-2.6v7.2h-1.8v-7.2H105v-1.4h7V136.4z"/>
	<path class="st2" d="M119.8,141.1l1.2-6.1h1.8l-1.9,8.6H119l-1.4-5.8l-1.4,5.8h-1.8l-1.9-8.6h1.8l1.2,6.1l1.4-6.1h1.5L119.8,141.1z
		"/>
	<path class="st2" d="M128.3,141.8h-3.1l-0.6,1.8h-1.9l3.2-8.6h1.6l3.2,8.6h-1.9L128.3,141.8z M125.6,140.3h2.1l-1.1-3.2
		L125.6,140.3z"/>
	<path class="st2" d="M134.7,140.4h-1.4v3.2h-1.8v-8.6h3.2c1,0,1.8,0.2,2.3,0.7c0.6,0.5,0.8,1.1,0.8,1.9c0,0.6-0.1,1.1-0.4,1.5
		c-0.3,0.4-0.6,0.7-1.2,0.9l1.9,3.5v0.1h-1.9L134.7,140.4z M133.3,138.9h1.4c0.4,0,0.8-0.1,1-0.3c0.2-0.2,0.4-0.5,0.4-0.9
		c0-0.4-0.1-0.7-0.3-1s-0.6-0.4-1.1-0.4h-1.4V138.9z"/>
	<path class="st2" d="M144.4,139.8H141v2.3h4v1.4h-5.8v-8.6h5.7v1.4h-4v2.1h3.4V139.8z"/>
</g>
</svg>
