<svg xmlns="http://www.w3.org/2000/svg" width="604" height="604" viewBox="0 0 604 604">
  <g id="Grupo_94292" data-name="Grupo 94292" transform="translate(-180 -6834)">
    <rect id="Rectángulo_38993" data-name="Rectángulo 38993" width="604" height="604" transform="translate(180 6834)" fill="none"/>
    <path id="Trazado_186346" data-name="Trazado 186346" d="M526.18,69.66v89.07H398.25l-4.61-88.44Z" transform="translate(180 6834)" fill="#e1e1e1"/>
    <g id="Grupo_92825" data-name="Grupo 92825" transform="translate(180 6834)">
      <rect id="Rectángulo_38994" data-name="Rectángulo 38994" width="88.26" height="127.93" transform="translate(393.64 158.55) rotate(-90)" fill="#fff"/>
      <path id="Trazado_186347" data-name="Trazado 186347" d="M522.18,159.15H393V69.68H522.18Zm-127.93-1.21H521v-87H394.25Z" fill="#e1e1e1"/>
    </g>
    <g id="Grupo_92826" data-name="Grupo 92826" transform="translate(180 6834)">
      <rect id="Rectángulo_38995" data-name="Rectángulo 38995" width="100.22" height="66.33" transform="translate(407.49 81.25)" fill="#fff"/>
      <path id="Trazado_186348" data-name="Trazado 186348" d="M507.71,81.25h-7.42l-20.65.08-72.15.14.29-.29V147.5h0l-.32-.31,100.22.06-.25.25c.06-20.18.1-36.73.13-48.26,0-5.76.05-10.26.07-13.34v-.1c0,3.07,0,7.55.06,13.28,0,11.57.08,28.17.13,48.42v.25h-.26l-100.22.07h-.31v-.32h0V81h.29l72.34.15,20.58.07h6.84Z" fill="#e1e1e1"/>
    </g>
    <path id="Trazado_186349" data-name="Trazado 186349" d="M393.64,70a11,11,0,0,1,2.2,1.42c1.31,1,3.09,2.29,5,3.83s3.62,3,4.81,4.09a10.43,10.43,0,0,1,1.83,1.87c-.11.14-3.19-2.4-7-5.47S393.53,70.18,393.64,70Z" transform="translate(180 6834)" fill="#e1e1e1"/>
    <path id="Trazado_186350" data-name="Trazado 186350" d="M521.57,70.29c.11.13-2.91,2.7-6.73,5.73s-7,5.37-7.13,5.23,2.91-2.7,6.73-5.73S521.46,70.15,521.57,70.29Z" transform="translate(180 6834)" fill="#e1e1e1"/>
    <g id="Grupo_92827" data-name="Grupo 92827" transform="translate(180 6834)">
      <path id="Trazado_186351" data-name="Trazado 186351" d="M521.47,158.56,507.2,147" fill="#fff"/>
      <path id="Trazado_186352" data-name="Trazado 186352" d="M507.2,147c.11-.14,3.4,2.34,7.33,5.53a74.48,74.48,0,0,1,6.94,6,70.584,70.584,0,0,1-7.33-5.54C510.2,149.79,507.09,147.13,507.2,147Z" fill="#e1e1e1"/>
    </g>
    <path id="Trazado_186353" data-name="Trazado 186353" d="M393.64,158.55c-.11-.14,2.87-2.68,6.66-5.67s6.94-5.32,7.05-5.18-2.87,2.68-6.66,5.67S393.75,158.68,393.64,158.55Z" transform="translate(180 6834)" fill="#e1e1e1"/>
    <rect id="Rectángulo_38996" data-name="Rectángulo 38996" width="22.21" height="63.06" transform="translate(607.84 6958.12) rotate(-90)" fill="#e1e1e1"/>
    <rect id="Rectángulo_38997" data-name="Rectángulo 38997" width="113.42" height="329.22" transform="translate(726.76 7381.01) rotate(180)" fill="#e1e1e1"/>
    <rect id="Rectángulo_38998" data-name="Rectángulo 38998" width="124.18" height="329.22" transform="translate(676.64 7381.01) rotate(180)" fill="#f5f5f5"/>
    <g id="Grupo_92829" data-name="Grupo 92829" transform="translate(180 6834)">
      <path id="Trazado_186354" data-name="Trazado 186354" d="M415.3,465.86h33.61a2.15,2.15,0,0,1,2.15,2.15v2.19H413.15V468A2.15,2.15,0,0,1,415.3,465.86Z" transform="translate(864.21 936.05) rotate(180)" fill="#e1e1e1"/>
      <path id="Trazado_186355" data-name="Trazado 186355" d="M377.94,465.86v4.71c0,3.14,0,7.72-.06,13.59,0,11.82-.08,28.84-.13,49.67v.24H378l110.66.07H489V465.66h-.3l-79.84.07-22.79.06h-7.54a4.662,4.662,0,0,0-.51,0h8.22L409,466l79.65.22-.29-.29V533.8l.31-.32h-.06l-110.66.07.24.25c-.05-20.77-.1-37.73-.13-49.52,0-5.89-.05-10.49-.06-13.64v-3.58A8.52,8.52,0,0,0,377.94,465.86Z" fill="#e1e1e1"/>
      <rect id="Rectángulo_38999" data-name="Rectángulo 38999" width="32.95" height="8.9" transform="translate(447.59 491.36) rotate(180)" fill="#e1e1e1"/>
    </g>
    <g id="Grupo_92830" data-name="Grupo 92830" transform="translate(180 6834)">
      <path id="Trazado_186356" data-name="Trazado 186356" d="M416.8,386.64h33.61a2.15,2.15,0,0,1,2.15,2.15V391H414.65v-2.18a2.15,2.15,0,0,1,2.15-2.18Z" transform="translate(867.21 777.61) rotate(180)" fill="#e1e1e1"/>
      <path id="Trazado_186357" data-name="Trazado 186357" d="M378.24,386.64v4.72c0,3.13,0,7.71-.06,13.58,0,11.83-.08,28.84-.14,49.67v.25h.25l110.67.06h.38V386.44H489l-79.84.07-22.79.06h.16l22.86.1L489,387l-.29-.29v67.87l.32-.32h-.06l-110.67.07.25.25c-.05-20.77-.1-37.73-.13-49.52,0-5.89-.05-10.49-.06-13.64v-3.57A4.572,4.572,0,0,0,378.24,386.64Z" fill="#e1e1e1"/>
      <rect id="Rectángulo_39000" data-name="Rectángulo 39000" width="32.95" height="8.9" transform="translate(450.08 411.61) rotate(180)" fill="#e1e1e1"/>
    </g>
    <g id="Grupo_92831" data-name="Grupo 92831" transform="translate(180 6834)">
      <path id="Trazado_186358" data-name="Trazado 186358" d="M415.36,226.77H449a2.15,2.15,0,0,1,2.15,2.15v2.19H413.21v-2.19A2.15,2.15,0,0,1,415.36,226.77Z" transform="translate(864.32 457.88) rotate(180)" fill="#e1e1e1"/>
      <path id="Trazado_186359" data-name="Trazado 186359" d="M378,226.77v4.72c0,3.14,0,7.72-.06,13.59,0,11.82-.08,28.83-.13,49.67V295H378l110.67.07H489V226.59h-.29l-79.84.07-22.79.06h.15l22.85.1,79.65.22-.29-.29v67.87l.32-.32h-.06l-110.7.2.25.25c-.05-20.77-.1-37.73-.13-49.52,0-5.89-.05-10.49-.06-13.64v-3.58A9.607,9.607,0,0,0,378,226.77Z" fill="#e1e1e1"/>
      <rect id="Rectángulo_39001" data-name="Rectángulo 39001" width="32.95" height="8.9" transform="translate(449.22 250.15) rotate(180)" fill="#e1e1e1"/>
    </g>
    <g id="Grupo_92832" data-name="Grupo 92832" transform="translate(180 6834)">
      <path id="Trazado_186360" data-name="Trazado 186360" d="M415.36,306.66H449a2.15,2.15,0,0,1,2.15,2.15V311H413.21v-2.19A2.15,2.15,0,0,1,415.36,306.66Z" transform="translate(864.32 617.66) rotate(180)" fill="#e1e1e1"/>
      <path id="Trazado_186361" data-name="Trazado 186361" d="M378,306.66v4.72c0,3.14,0,7.71-.06,13.58,0,11.83-.08,28.84-.13,49.67v.25H378l110.67.07H489V306.47h-.29l-79.84.07-22.79.06h.15l22.85.1,79.65.22-.29-.3v67.87l.32-.31h-.06l-110.7.21.25.24c-.05-20.76-.1-37.72-.13-49.51,0-5.9-.05-10.49-.06-13.64V307.9A9.607,9.607,0,0,0,378,306.66Z" fill="#e1e1e1"/>
      <rect id="Rectángulo_39002" data-name="Rectángulo 39002" width="32.95" height="8.9" transform="translate(449.22 330.04) rotate(180)" fill="#e1e1e1"/>
    </g>
    <g id="Grupo_92834" data-name="Grupo 92834" transform="translate(180 6834)">
      <rect id="Rectángulo_39003" data-name="Rectángulo 39003" width="118.91" height="106.39" transform="translate(78.93 67.44)" fill="#fafafa"/>
      <path id="Trazado_186362" data-name="Trazado 186362" d="M197.84,173.83v-7.7c0-5,0-12.29-.07-21.59,0-18.59-.08-45.15-.14-77.12l.27.27L79,67.74h0l.32-.32V173.81l-.28-.28,86,.14,24.25.07h.12l-24.19.08-86.19.14h-.28V66.97h119.5v.27c-.05,32-.1,58.66-.14,77.29,0,9.27-.05,16.55-.07,21.53v5.65A9.956,9.956,0,0,1,197.84,173.83Z" fill="#e1e1e1"/>
    </g>
    <path id="Trazado_186363" data-name="Trazado 186363" d="M124.53,86.34c0,.18-6.26.32-14,.32s-14-.14-14-.32,6.26-.31,14-.31S124.53,86.17,124.53,86.34Z" transform="translate(180 6834)" fill="#e1e1e1"/>
    <path id="Trazado_186364" data-name="Trazado 186364" d="M174.91,94.33c0,.18-17.19.32-38.4.32s-38.41-.14-38.41-.32S115.3,94,136.51,94,174.91,94.16,174.91,94.33Z" transform="translate(180 6834)" fill="#e1e1e1"/>
    <rect id="Rectángulo_39004" data-name="Rectángulo 39004" width="5.01" height="5.01" transform="translate(276.77 6941.86)" fill="#e1e1e1"/>
    <rect id="Rectángulo_39005" data-name="Rectángulo 39005" width="5.01" height="5.01" transform="translate(289.1 6941.86)" fill="#e1e1e1"/>
    <rect id="Rectángulo_39006" data-name="Rectángulo 39006" width="5.01" height="5.01" transform="translate(301.66 6941.64)" fill="#e1e1e1"/>
    <rect id="Rectángulo_39007" data-name="Rectángulo 39007" width="5.01" height="5.01" transform="translate(313.77 6941.86)" fill="#e1e1e1"/>
    <rect id="Rectángulo_39008" data-name="Rectángulo 39008" width="5.01" height="5.01" transform="translate(326.1 6941.86)" fill="#e1e1e1"/>
    <rect id="Rectángulo_39009" data-name="Rectángulo 39009" width="5.01" height="5.01" transform="translate(338.43 6941.86)" fill="#e1e1e1"/>
    <rect id="Rectángulo_39010" data-name="Rectángulo 39010" width="5.01" height="5.01" transform="translate(350.76 6941.86)" fill="#ececec"/>
    <rect id="Rectángulo_39011" data-name="Rectángulo 39011" width="5.01" height="5.01" transform="translate(276.77 6952.51)" fill="#ececec"/>
    <rect id="Rectángulo_39012" data-name="Rectángulo 39012" width="5.01" height="5.01" transform="translate(289.1 6952.51)" fill="#e1e1e1"/>
    <rect id="Rectángulo_39013" data-name="Rectángulo 39013" width="5.01" height="5.01" transform="translate(301.44 6952.51)" fill="#ececec"/>
    <rect id="Rectángulo_39014" data-name="Rectángulo 39014" width="5.01" height="5.01" transform="translate(313.77 6952.51)" fill="#e1e1e1"/>
    <rect id="Rectángulo_39015" data-name="Rectángulo 39015" width="5.01" height="5.01" transform="translate(326.1 6952.51)" fill="#e1e1e1"/>
    <rect id="Rectángulo_39016" data-name="Rectángulo 39016" width="5.01" height="5.01" transform="translate(338.66 6952.29)" fill="#e1e1e1"/>
    <rect id="Rectángulo_39017" data-name="Rectángulo 39017" width="5.01" height="5.01" transform="translate(350.76 6952.51)" fill="#e1e1e1"/>
    <rect id="Rectángulo_39018" data-name="Rectángulo 39018" width="5.01" height="5.01" transform="translate(276.77 6963.16)" fill="#e1e1e1"/>
    <rect id="Rectángulo_39019" data-name="Rectángulo 39019" width="5.01" height="5.01" transform="translate(289.33 6962.94)" fill="#e1e1e1"/>
    <rect id="Rectángulo_39020" data-name="Rectángulo 39020" width="5.01" height="5.01" transform="translate(301.44 6963.16)" fill="#e1e1e1"/>
    <rect id="Rectángulo_39021" data-name="Rectángulo 39021" width="5.01" height="5.01" transform="translate(313.77 6963.16)" fill="#ececec"/>
    <rect id="Rectángulo_39022" data-name="Rectángulo 39022" width="5.01" height="5.01" transform="translate(326.1 6963.16)" fill="#e1e1e1"/>
    <rect id="Rectángulo_39023" data-name="Rectángulo 39023" width="5.01" height="5.01" transform="translate(338.43 6963.16)" fill="#e1e1e1"/>
    <rect id="Rectángulo_39024" data-name="Rectángulo 39024" width="5.01" height="5.01" transform="translate(350.76 6963.16)" fill="#e1e1e1"/>
    <rect id="Rectángulo_39025" data-name="Rectángulo 39025" width="5.01" height="5.01" transform="translate(276.77 6973.81)" fill="#e1e1e1"/>
    <rect id="Rectángulo_39026" data-name="Rectángulo 39026" width="5.01" height="5.01" transform="translate(289.1 6973.81)" fill="#e1e1e1"/>
    <rect id="Rectángulo_39027" data-name="Rectángulo 39027" width="5.01" height="5.01" transform="translate(301.44 6973.81)" fill="#e1e1e1"/>
    <rect id="Rectángulo_39028" data-name="Rectángulo 39028" width="5.01" height="5.01" transform="translate(314 6973.59)" fill="#e1e1e1"/>
    <rect id="Rectángulo_39029" data-name="Rectángulo 39029" width="5.01" height="5.01" transform="translate(326.1 6973.81)" fill="#e1e1e1"/>
    <rect id="Rectángulo_39030" data-name="Rectángulo 39030" width="5.01" height="5.01" transform="translate(338.43 6973.81)" fill="#ececec"/>
    <rect id="Rectángulo_39031" data-name="Rectángulo 39031" width="5.01" height="5.01" transform="translate(350.76 6973.81)" fill="#e1e1e1"/>
    <rect id="Rectángulo_39032" data-name="Rectángulo 39032" width="5.01" height="5.01" transform="translate(276.77 6984.47)" fill="#e1e1e1"/>
    <rect id="Rectángulo_39033" data-name="Rectángulo 39033" width="5.01" height="5.01" transform="translate(289.1 6984.47)" fill="#ececec"/>
    <rect id="Rectángulo_39034" data-name="Rectángulo 39034" width="5.01" height="5.01" transform="translate(301.44 6984.47)" fill="#e1e1e1"/>
    <rect id="Rectángulo_39035" data-name="Rectángulo 39035" width="5.01" height="5.01" transform="translate(313.77 6984.47)" fill="#e1e1e1"/>
    <rect id="Rectángulo_39036" data-name="Rectángulo 39036" width="5.01" height="5.01" transform="translate(326.1 6984.47)" fill="#e1e1e1"/>
    <rect id="Rectángulo_39037" data-name="Rectángulo 39037" width="5.01" height="5.01" transform="translate(338.66 6984.24)" fill="#e1e1e1"/>
    <rect id="Rectángulo_39038" data-name="Rectángulo 39038" width="5.01" height="5.01" transform="translate(350.76 6984.47)" fill="#e1e1e1"/>
    <rect id="Rectángulo_39039" data-name="Rectángulo 39039" width="43.82" height="29.54" transform="translate(436.797 7075.279) rotate(-20.63)" fill="#ececec"/>
    <path id="Trazado_186365" data-name="Trazado 186365" d="M298.06,226.16a3.18,3.18,0,0,1-.25.51l-.76,1.43-2.88,5.23-9.66,17.22-.08.14-.16-.05-.37-.12-19-6.24-5.74-1.93-1.56-.54a2.3,2.3,0,0,1-.53-.22l.55.14,1.58.48L265,244l19,6.12.38.12-.24.09,9.76-17.16,3-5.17c.34-.58.62-1,.83-1.39a2.529,2.529,0,0,1,.33-.45Z" transform="translate(180 6834)" fill="#e1e1e1"/>
    <path id="Trazado_186366" data-name="Trazado 186366" d="M267.45,269.24c-.1,0,1.55-5,3.7-11.06s4-11,4.08-10.92-1.55,5-3.7,11.05S267.55,269.27,267.45,269.24Z" transform="translate(180 6834)" fill="#e1e1e1"/>
    <path id="Trazado_186367" data-name="Trazado 186367" d="M288.73,241.78c.06-.09,4.52,2.52,10,5.84s9.82,6.09,9.76,6.18-4.52-2.52-10-5.84S288.68,241.88,288.73,241.78Z" transform="translate(180 6834)" fill="#e1e1e1"/>
    <path id="Trazado_186368" data-name="Trazado 186368" d="M350.91,138.59a13.69,13.69,0,0,1,3.36-1.46l.69-3.32,5.61-.1.81,3.3a13.52,13.52,0,0,1,3.4,1.34l2.84-1.86,4,3.9-1.76,2.89a14,14,0,0,1,1.46,3.36l3.32.69.1,5.61-3.3.81a13.592,13.592,0,0,1-1.34,3.41L372,160l-3.9,4-2.9-1.76a13.42,13.42,0,0,1-3.35,1.46l-.69,3.32-5.62.1-.8-3.29a13.821,13.821,0,0,1-3.41-1.34l-2.84,1.86-4-3.9,1.75-2.9a13.66,13.66,0,0,1-1.45-3.36l-3.33-.69-.09-5.61,3.29-.81a13.758,13.758,0,0,1,1.34-3.4l-1.86-2.84,3.9-4,2.9,1.76Zm3,7.48a5.787,5.787,0,1,0-.01,0Z" transform="translate(180 6834)" fill="#e1e1e1"/>
    <path id="Trazado_186369" data-name="Trazado 186369" d="M353.9,146.07a4.609,4.609,0,0,1,1.12-1,6.08,6.08,0,0,1,6.6,0,6.165,6.165,0,0,1-2.34,11.24,5.48,5.48,0,0,1-1.85,0,5.63,5.63,0,0,1-1.71-.48,6.16,6.16,0,0,1-2.51-2.08,6.08,6.08,0,0,1-.25-6.59,4.579,4.579,0,0,1,.94-1.15,13.183,13.183,0,0,0-.83,1.22,6,6,0,0,0-.66,3.85,5.93,5.93,0,0,0,1,2.51,6,6,0,0,0,2.41,1.95,5.48,5.48,0,0,0,1.62.45,5.42,5.42,0,0,0,1.75,0,5.85,5.85,0,0,0,4.81-5,5.7,5.7,0,0,0,0-1.75,5.509,5.509,0,0,0-.51-1.61,5.86,5.86,0,0,0-4.57-3.27,6,6,0,0,0-3.83.8,13.81,13.81,0,0,0-1.19.91Z" transform="translate(180 6834)" fill="#e1e1e1"/>
    <path id="Trazado_186370" data-name="Trazado 186370" d="M350.91,138.59l-.19-.1-.55-.32L348,136.88h.07l-3.88,4.06v-.11l1.88,2.83h0v.06a13.451,13.451,0,0,0-1.32,3.38v.06h-.06l-3.3.82.1-.12c0,1.76.07,3.64.11,5.61l-.11-.13,3.32.68h.09v.08a13.52,13.52,0,0,0,1.45,3.32l.05.08-.05.08-1.75,2.9v-.19l4.05,3.89h-.2l2.83-1.86h.17a13.461,13.461,0,0,0,3.37,1.33h.09v.1c.25,1,.53,2.16.81,3.29l-.17-.13,5.61-.1L361,167c.22-1.05.45-2.18.69-3.32v-.1h.1a13.91,13.91,0,0,0,3.31-1.44h0l.09-.06.09.06,2.9,1.76h-.21l3.9-4v.21L370,157.25l-.06-.09.05-.08a13.67,13.67,0,0,0,1.33-3.37v-.1h.1l3.3-.8-.13.16q0-2.88-.09-5.61l.13.15-3.32-.7h-.1v-.09a13.9,13.9,0,0,0-1.44-3.32v-.15l1.76-2.9v.18l-4-3.91h.16l-2.84,1.85h-.13a13.41,13.41,0,0,0-3.37-1.33h-.07V137c-.29-1.2-.55-2.28-.8-3.29l.1.07-5.61.08.07-.07c-.28,1.33-.51,2.42-.71,3.32h0a14.942,14.942,0,0,0-2.57,1l-.6.32-.2.1.19-.13c.13-.08.32-.2.59-.34a13.782,13.782,0,0,1,2.56-1h0c.18-.91.4-2,.67-3.33v-.06H355l5.61-.12h.08v.08l.82,3.29-.09-.08a13.51,13.51,0,0,1,3.44,1.34h-.13l2.84-1.86.08-.06.08.07,4.05,3.89.08.08-.06.1-1.75,2.9v-.15a14.16,14.16,0,0,1,1.48,3.39l-.12-.11,3.32.69h.13v.13c0,1.82.07,3.7.1,5.61v.13h-.12l-3.3.81.12-.12a13.89,13.89,0,0,1-1.35,3.45v-.18l1.86,2.84.08.11-.1.1-3.89,4-.1.1-.12-.07-2.9-1.76h.18a13.88,13.88,0,0,1-3.4,1.48l.13-.13-.7,3.32v.13h-.14l-5.61.09h-.14v-.13c-.28-1.13-.55-2.26-.81-3.29l.13.12a14,14,0,0,1-3.45-1.36h.17l-2.84,1.86-.11.07-.09-.09-4-3.9-.09-.09.06-.1,1.77-2.9v.16a13.889,13.889,0,0,1-1.47-3.4l.11.1-3.32-.7h-.11v-.11q0-3-.09-5.61v-.1h.1l3.29-.8-.08.08a14.361,14.361,0,0,1,1.36-3.42v.1L344,140.92v-.06l.05-.05,3.92-4h0l2.13,1.33.55.35Z" transform="translate(180 6834)" fill="#e1e1e1"/>
    <path id="Trazado_186371" data-name="Trazado 186371" d="M78.88,535.83c-2-1.73-6.49-7.18-3-13.53,1.26-2.33,4-3.48,6.39-4.51s5-1.91,7-3.63c3.8-3.23,4.85-8.6,7.37-12.92,2.9-4.95,8.3-8.66,14-8.4,6.54.3,12,5.64,14.47,11.73s2.56,12.85,2.61,19.43c0,3.64-.13,7.74-2.8,10.19-2.46,2.27-6.17,2.3-9.51,2.19l-35.74-1.09" transform="translate(180 6834)" fill="#f5f5f5"/>
    <path id="Trazado_186372" data-name="Trazado 186372" d="M147.24,437.54h-94l16.94,101a11.28,11.28,0,0,0,8,9l.33.09c.28.07.55.17.84.22a13.282,13.282,0,0,0,1.91.22v.09l.46-.07h41.9a11.727,11.727,0,0,0,2.3-.23,11.3,11.3,0,0,0,9.51-9.87l8.16-69.56.37-2.76h-.05l3.24-27.55Zm-17.73,64.4h-9.65l1-29.3H132Zm3.44-29.3h9.23l-3.44,29.3h-8.3Zm-27.56,61.78L104.8,509h13.89l-.84,25.45ZM90.37,509h13.5l.58,25.45H92.35Zm1,25.45H80.1c-1.08-6.87-2.48-15.8-4-25.45H89.44Zm-1.58-32.48-2.28-29.3H103l.68,29.3Zm14.81,0-.67-29.3H119.9l-1,29.3Zm-.84-36.32-.62-27.14H121l-.9,27.14Zm-.93,0H87l-2.11-27.14h17.36Zm-16.8,0H69.28c-.6-3.75-1.16-7.3-1.67-10.49-1.75-11-2.41-15.1-2.77-16.65H84Zm.54,7,2.28,29.3H75q-.705-4.5-1.42-9l-3.2-20.31Zm-12.55,29.3H65l-4.91-29.3h9.36c1.43,9.05,3.01,19.13,4.61,29.29Zm1.1,7c1.39,8.81,2.75,17.49,4,25.45H70.44L66.17,509Zm43.62,25.45.85-25.45h9.28l-2.18,25.45Zm2.29-68.8.9-27.14h13l-2.32,27.14ZM64,438.48c.37,2,2.08,12.64,4.38,27.14H58.9l-4.55-27.14Zm71,95.94h-7.26l2.1-25.42h8.08Zm8.08-68.8h-9.46l2.32-27.14h10.32Z" transform="translate(180 6834)" fill="#e1e1e1"/>
    <path id="Trazado_186373" data-name="Trazado 186373" d="M530,547c0,.16-100.74.29-225,.29S80,547.17,80,547s100.71-.28,225-.28S530,546.86,530,547Z" transform="translate(180 6834)" fill="#12263f"/>
    <g id="Grupo_92840" data-name="Grupo 92840" transform="translate(180 6834)">
      <path id="Trazado_186374" data-name="Trazado 186374" d="M434.11,296.55s13-14.95,17.9-29.91,2.58-13.24,2.58-13.24S448,267.93,442.94,275s-14,17.31-14,17.31Z" fill="#375a64"/>
      <path id="Trazado_186375" data-name="Trazado 186375" d="M431.52,255.73a.76.76,0,0,1,1.41.48c-.79,5.25-2.5,17.58-2.43,25.58.08,10.39,0,14.4,0,14.4h-5.41s1-21.47,2.19-28a44.84,44.84,0,0,1,4.24-12.46Z" fill="#375a64"/>
      <path id="Trazado_186376" data-name="Trazado 186376" d="M428.57,294.45a57.441,57.441,0,0,1-4.45-16.15c-.44-3.83.35-9,1.53-15.89a42.067,42.067,0,0,0,.69-7.64,1.29,1.29,0,0,0-2.42-.61,34.171,34.171,0,0,0-3,7.64c-1.31,6.81-2.79,10.21-1.66,16.67s5.33,16.41,5.33,16.41Z" fill="#375a64"/>
      <path id="Trazado_186377" data-name="Trazado 186377" d="M423.7,294.88s-14.26-30.66-15.25-35.21-4.36-15-4.75-14.44-1,6.13,1.58,12.46,13.55,38.13,13.55,38.13h4.87" fill="#375a64"/>
      <path id="Trazado_186378" data-name="Trazado 186378" d="M430.14,293.51l.4-.27c.25-.2.63-.47,1.1-.85a51.106,51.106,0,0,0,3.84-3.38,64.589,64.589,0,0,0,10.35-13.29,86.707,86.707,0,0,0,7.06-15.3c.72-2,1.24-3.71,1.58-4.87.18-.57.3-1,.38-1.33a2.05,2.05,0,0,0,.11-.48s-.06.16-.17.46-.25.77-.43,1.32c-.37,1.15-.93,2.8-1.67,4.82a92.719,92.719,0,0,1-7.12,15.23,67.37,67.37,0,0,1-10.24,13.28c-1.53,1.52-2.84,2.68-3.76,3.45-.46.4-.83.68-1.07.89A2.459,2.459,0,0,0,430.14,293.51Z" fill="#12263f"/>
      <path id="Trazado_186379" data-name="Trazado 186379" d="M428.58,278.8a5.726,5.726,0,0,0,.12-.9l.27-2.46c.22-2.07.58-4.93,1.08-8.07s1.07-6,1.5-8c.21-1,.39-1.79.52-2.41a4.359,4.359,0,0,0,.16-.9,6.653,6.653,0,0,0-.27.87c-.16.56-.37,1.38-.62,2.4-.49,2-1.08,4.86-1.59,8s-.83,6-1,8.1c-.08,1-.14,1.89-.16,2.47a4.85,4.85,0,0,0-.01.9Z" fill="#12263f"/>
      <path id="Trazado_186380" data-name="Trazado 186380" d="M425.23,253.92a2.928,2.928,0,0,0-.16.39l-.43,1.14a18.534,18.534,0,0,0-.61,1.83c-.22.72-.49,1.53-.7,2.45l-.35,1.44c-.12.5-.21,1-.32,1.58-.23,1.09-.37,2.27-.55,3.51a58.483,58.483,0,0,0-.34,8.12,57.123,57.123,0,0,0,.93,8.09c.26,1.22.48,2.39.8,3.46.14.53.27,1.06.42,1.55l.46,1.41c.27.91.6,1.7.86,2.4s.52,1.3.75,1.78.38.82.5,1.1a2.5,2.5,0,0,0,.2.38,2.169,2.169,0,0,0-.14-.4c-.12-.29-.27-.66-.45-1.13s-.45-1.08-.7-1.79-.56-1.5-.82-2.41l-.43-1.41c-.15-.49-.27-1-.41-1.55-.3-1.06-.52-2.23-.77-3.45a58.275,58.275,0,0,1-.89-8,59.762,59.762,0,0,1,.31-8.08c.17-1.23.3-2.41.52-3.49.11-.55.19-1.08.3-1.58s.22-1,.33-1.44c.19-.92.45-1.73.65-2.46s.39-1.33.56-1.83l.37-1.16a1.571,1.571,0,0,0,.11-.45Z" fill="#12263f"/>
      <path id="Trazado_186381" data-name="Trazado 186381" d="M403.86,245.85v.14a.956.956,0,0,0,.07.4c.06.34.14.86.28,1.52.27,1.32.73,3.22,1.45,5.52s1.68,5,2.84,8,2.49,6.21,3.75,9.65,2.28,6.79,3.21,9.83,1.8,5.79,2.65,8a50.508,50.508,0,0,0,2.25,5.25c.29.6.55,1.06.72,1.37.08.14.15.25.2.35s.08.12.08.11a.927.927,0,0,0-.05-.13c-.05-.09-.1-.21-.17-.36-.15-.32-.4-.78-.67-1.39-.58-1.22-1.35-3-2.16-5.27s-1.67-5-2.58-8.05-1.9-6.41-3.19-9.86-2.62-6.68-3.78-9.64-2.16-5.64-2.9-7.93-1.22-4.18-1.54-5.48c-.15-.66-.25-1.17-.33-1.52l-.1-.39Q403.875,245.85,403.86,245.85Z" fill="#12263f"/>
      <g id="Grupo_92839" data-name="Grupo 92839">
        <path id="Trazado_186382" data-name="Trazado 186382" d="M447.86,239.08a1.23,1.23,0,0,1,2,1.25,35.694,35.694,0,0,1-1.79,4.61c-2,4.17-7.72,19.12-10.42,27.34s-6.5,23.54-6.5,23.54l-5.76-.94s5.27-25.18,10.42-34.25C440,253.34,444.1,242.81,447.86,239.08Z" fill="#375a64"/>
        <path id="Trazado_186383" data-name="Trazado 186383" d="M436.09,277.42a3.236,3.236,0,0,0-.29.69c-.18.45-.41,1.11-.67,1.93-.53,1.64-1.18,3.94-1.83,6.49s-1.2,4.87-1.58,6.55c-.17.8-.31,1.46-.43,2a3.259,3.259,0,0,0-.12.74,4.269,4.269,0,0,0,.24-.72c.14-.52.31-1.18.52-2l1.66-6.53c.66-2.54,1.27-4.84,1.75-6.5.22-.78.42-1.43.57-2a3.213,3.213,0,0,0,.18-.65Z" fill="#12263f"/>
        <path id="Trazado_186384" data-name="Trazado 186384" d="M428.28,295.35v-.15l.07-.46c.06-.4.11-1,.23-1.74.21-1.51.59-3.7,1.21-6.35a90.728,90.728,0,0,1,2.69-9.21c1.19-3.41,2.67-7.1,4.35-10.91,3.39-7.62,6.77-14.38,9-19.38,1.13-2.5,2-4.53,2.57-6,.29-.71.5-1.26.65-1.64l.16-.43v-.15l-.07.14-.19.42c-.17.39-.4.93-.7,1.61-.6,1.41-1.5,3.43-2.65,5.91-2.27,5-5.69,11.71-9.08,19.35-1.68,3.82-3.16,7.52-4.33,10.94a87.3,87.3,0,0,0-2.64,9.25c-.59,2.67-.94,4.86-1.12,6.38-.1.76-.13,1.36-.18,1.76v.45C428.27,295.3,428.27,295.35,428.28,295.35Z" fill="#12263f"/>
        <path id="Trazado_186385" data-name="Trazado 186385" d="M425.41,294.88a6.067,6.067,0,0,0,.2-1l.44-2.64c.4-2.23,1-5.31,1.88-8.65s1.83-6.33,2.58-8.47c.37-1,.67-1.88.9-2.53a5.825,5.825,0,0,0,.31-.94,5.572,5.572,0,0,0-.42.9c-.25.58-.59,1.43-1,2.5a84.492,84.492,0,0,0-2.68,8.46,88.637,88.637,0,0,0-1.79,8.69c-.16,1.13-.29,2-.35,2.67a6.433,6.433,0,0,0-.07,1.01Z" fill="#12263f"/>
      </g>
    </g>
    <g id="Grupo_92842" data-name="Grupo 92842" transform="translate(180 6834)">
      <rect id="Rectángulo_39040" data-name="Rectángulo 39040" width="22.48" height="27.39" transform="translate(436.07 321.44) rotate(180)" fill="#36d8c7"/>
      <g id="Grupo_92841" data-name="Grupo 92841" opacity="0.3">
        <rect id="Rectángulo_39041" data-name="Rectángulo 39041" width="22.48" height="27.39" transform="translate(436.07 321.44) rotate(180)"/>
      </g>
      <rect id="Rectángulo_39042" data-name="Rectángulo 39042" width="19.95" height="27.39" transform="translate(440.71 321.44) rotate(180)" fill="#36d8c7"/>
    </g>
    <rect id="Rectángulo_39043" data-name="Rectángulo 39043" width="43.82" height="29.54" transform="matrix(0.952, -0.305, 0.305, 0.952, 372.335, 6915.81)" fill="#36d8c7"/>
    <path id="Trazado_186386" data-name="Trazado 186386" d="M234.31,68.72a2.879,2.879,0,0,1-.27.5l-.84,1.39c-.76,1.24-1.83,3-3.13,5.08-2.71,4.3-6.41,10.19-10.51,16.72l-.09.13-.15-.05-.37-.14-18.68-7.18L194.63,83l-1.53-.62-.53-.24a2.27,2.27,0,0,1,.56.16l1.55.56,5.69,2.1L219.09,92l.37.14-.24.08,10.61-16.65,3.25-5,.89-1.35A3.58,3.58,0,0,1,234.31,68.72Z" transform="translate(180 6834)" fill="#12263f"/>
    <path id="Trazado_186387" data-name="Trazado 186387" d="M201.58,110.22c-.1,0,1.8-4.91,4.25-10.86s4.52-10.75,4.62-10.7-1.8,4.9-4.25,10.85S201.68,110.26,201.58,110.22Z" transform="translate(180 6834)" fill="#12263f"/>
    <path id="Trazado_186388" data-name="Trazado 186388" d="M224.21,83.86c.07-.09,4.39,2.75,9.67,6.33s9.5,6.57,9.44,6.67-4.39-2.75-9.67-6.34S224.15,84,224.21,83.86Z" transform="translate(180 6834)" fill="#12263f"/>
    <g id="Grupo_92846" data-name="Grupo 92846" transform="translate(180 6834)">
      <path id="Trazado_186389" data-name="Trazado 186389" d="M418.46,129.43,387.4,116.27a4.21,4.21,0,0,1-2.24-5.53l18.21-43a4.23,4.23,0,0,1,5.53-2.25l19.7,8.35L437.2,96,424,127.19a4.21,4.21,0,0,1-5.54,2.24Z" fill="#7393c9"/>
      <path id="Trazado_186390" data-name="Trazado 186390" d="M428.6,73.85,423.48,86a3.92,3.92,0,0,0,2.08,5.15L437.2,96Z" fill="#91b1d6"/>
      <g id="Grupo_92845" data-name="Grupo 92845" opacity="0.2">
        <path id="Trazado_186391" data-name="Trazado 186391" d="M423.19,87.08a4.36,4.36,0,0,0,1.53,5.25c.11.09.23.17.35.25,1.4.91,10.65,6.93,10.75,6.7S437.2,96,437.2,96l-11.64-4.9S422.7,89.77,423.19,87.08Z"/>
      </g>
    </g>
    <path id="Trazado_186392" data-name="Trazado 186392" d="M421.08,84.35c-.06.16-3.33-1.08-7.3-2.76a51.51,51.51,0,0,1-7.07-3.32c.07-.16,3.34,1.08,7.31,2.76S421.15,84.2,421.08,84.35Z" transform="translate(180 6834)" fill="#fafafa"/>
    <path id="Trazado_186393" data-name="Trazado 186393" d="M427.47,95.13c-.07.15-5.42-2-12-4.73a119.212,119.212,0,0,1-11.71-5.29c.06-.15,5.42,2,11.95,4.73S427.53,95,427.47,95.13Z" transform="translate(180 6834)" fill="#fafafa"/>
    <path id="Trazado_186394" data-name="Trazado 186394" d="M427.18,101.74c-.07.16-5.9-2.16-13-5.18S401.33,91,401.39,90.82s5.89,2.16,13,5.18S427.24,101.59,427.18,101.74Z" transform="translate(180 6834)" fill="#fafafa"/>
    <path id="Trazado_186395" data-name="Trazado 186395" d="M424.89,107.13c-.06.16-5.89-2.16-13-5.18S399,96.37,399.11,96.21s5.89,2.16,13,5.18S425,107,424.89,107.13Z" transform="translate(180 6834)" fill="#fafafa"/>
    <path id="Trazado_186396" data-name="Trazado 186396" d="M422.61,112.52c-.07.16-5.89-2.16-13-5.18s-12.84-5.58-12.77-5.74,5.89,2.16,13,5.18S422.67,112.37,422.61,112.52Z" transform="translate(180 6834)" fill="#fafafa"/>
    <path id="Trazado_186397" data-name="Trazado 186397" d="M420.32,117.91c-.06.16-5.89-2.16-13-5.18s-12.83-5.58-12.77-5.74,5.89,2.16,13,5.18S420.39,117.76,420.32,117.91Z" transform="translate(180 6834)" fill="#fafafa"/>
    <g id="Grupo_92848" data-name="Grupo 92848" transform="translate(180 6834)">
      <circle id="Elipse_7707" data-name="Elipse 7707" cx="41.09" cy="41.09" r="41.09" transform="translate(272.92 56.38)" fill="#fff"/>
      <path id="Trazado_186398" data-name="Trazado 186398" d="M355.09,97.47a5.56,5.56,0,0,0-.06-.67c-.06-.44-.07-1.1-.13-2a9.192,9.192,0,0,0-.08-1.43c-.08-.53-.17-1.1-.26-1.72a31.247,31.247,0,0,0-.86-4.24,39.07,39.07,0,0,0-4.55-10.89,41.09,41.09,0,0,0-27.6-19.23,39.689,39.689,0,0,0-5.17-.59c-.88,0-1.77-.12-2.66-.1l-2.7.14a7.875,7.875,0,0,0-1.37.08l-1.36.21c-.91.16-1.83.26-2.75.45a43.7,43.7,0,0,0-5.44,1.6,43,43,0,0,0-5.32,2.34c-.86.47-1.69,1-2.54,1.52-.42.26-.87.49-1.27.79l-1.2.9a37.22,37.22,0,0,0-8.62,8.67l-.94,1.26L279.39,76l-.82,1.35a9.859,9.859,0,0,0-.77,1.39l-1.38,2.88-1.11,3a43.68,43.68,0,0,0-2.1,12.87,43.69,43.69,0,0,0,2.1,12.88l1.11,3q.69,1.45,1.38,2.88a10.932,10.932,0,0,0,.76,1.39l.82,1.36.82,1.34.94,1.26a48,48,0,0,0,4,4.73,46.28,46.28,0,0,0,4.63,3.93l1.2.9c.4.31.85.53,1.26.8.86.51,1.68,1.05,2.55,1.52a43,43,0,0,0,5.32,2.34,43.7,43.7,0,0,0,5.44,1.6c.92.19,1.84.29,2.75.44l1.36.21c.46.06.91.06,1.37.09l2.7.14c.89,0,1.78-.07,2.66-.1a38,38,0,0,0,5.17-.6,41.13,41.13,0,0,0,27.6-19.22,39.241,39.241,0,0,0,4.55-10.9,31,31,0,0,0,.86-4.24c.09-.62.2-1.18.26-1.71s.06-1,.08-1.44c.06-.84.1-1.49.13-2a5.99,5.99,0,0,1,.06-.66v.67c0,.45,0,1.11-.07,2q0,.64-.06,1.44a13.469,13.469,0,0,1-.24,1.73,28,28,0,0,1-.8,4.27,39,39,0,0,1-4.5,11,41.25,41.25,0,0,1-27.78,19.53,38.919,38.919,0,0,1-5.23.62c-.89,0-1.79.12-2.69.11l-2.74-.13a7.115,7.115,0,0,1-1.38-.09l-1.38-.21c-.92-.15-1.86-.26-2.78-.45a44.321,44.321,0,0,1-10.92-4c-.87-.47-1.71-1-2.58-1.53-.42-.27-.87-.5-1.27-.81l-1.22-.91a45.188,45.188,0,0,1-4.7-4,46.683,46.683,0,0,1-4.06-4.79l-.95-1.27-.84-1.37-.83-1.37a10.091,10.091,0,0,1-.77-1.41l-1.41-2.91c-.37-1-.75-2-1.12-3.07a44.21,44.21,0,0,1-2.14-13.06,44.2,44.2,0,0,1,2.14-13c.38-1,.75-2,1.13-3.06a31.5,31.5,0,0,1,1.4-2.92,10.689,10.689,0,0,1,.77-1.41l.84-1.37.83-1.36.95-1.27a47.054,47.054,0,0,1,4.06-4.79,47.689,47.689,0,0,1,4.7-4l1.22-.91c.4-.3.85-.53,1.28-.8.86-.51,1.7-1.06,2.57-1.54a44.839,44.839,0,0,1,10.92-4c.92-.19,1.86-.3,2.78-.45l1.38-.21c.46-.06.92-.06,1.38-.09l2.74-.13c.9,0,1.8.08,2.69.11a37,37,0,0,1,5.22.62,41.24,41.24,0,0,1,27.79,19.53,38.931,38.931,0,0,1,4.5,11,28,28,0,0,1,.8,4.27c.09.62.19,1.2.24,1.72l.06,1.45c0,.84.05,1.49.07,2A4.808,4.808,0,0,1,355.09,97.47Z" fill="#12263f"/>
    </g>
    <path id="Trazado_186399" data-name="Trazado 186399" d="M333.49,96.31a10.111,10.111,0,0,1-1.65.47l-4.59,1.1c-3.88.9-9.28,2.12-15.3,3.44l-.34.08V99.84c0-6.44,0-12.26.08-16.48,0-2,.07-3.72.09-5a10.682,10.682,0,0,1,.11-1.83,10.675,10.675,0,0,1,.11,1.83c0,1.28.06,3,.09,5,.06,4.22.09,10,.09,16.48V101l-.35-.28c6-1.31,11.43-2.46,15.34-3.27l4.62-.92a10.42,10.42,0,0,1,1.7-.22Z" transform="translate(180 6834)" fill="#12263f"/>
    <path id="Trazado_186400" data-name="Trazado 186400" d="M358,114.41a2.712,2.712,0,0,1,.18-.67c.13-.43.37-1,.6-1.88a49.486,49.486,0,0,0,1.6-7,47.53,47.53,0,0,0-15.35-43,49.4,49.4,0,0,0-5.71-4.44c-.7-.49-1.28-.81-1.65-1.07a3,3,0,0,1-.56-.4,3.24,3.24,0,0,1,.62.3c.39.22,1,.52,1.71,1a42,42,0,0,1,5.85,4.32,46.74,46.74,0,0,1,15.49,43.38,42.227,42.227,0,0,1-1.79,7.05c-.26.82-.54,1.43-.7,1.85A2.812,2.812,0,0,1,358,114.41Z" transform="translate(180 6834)" fill="#12263f"/>
    <path id="Trazado_186401" data-name="Trazado 186401" d="M365.92,94.19c-.1,0-.15-1.64-.49-4.26a49.43,49.43,0,0,0-6.62-19.33c-1.34-2.27-2.3-3.6-2.23-3.65s.31.28.77.86,1.09,1.46,1.81,2.58a43.23,43.23,0,0,1,4.51,9.35,44.292,44.292,0,0,1,2.17,10.15c.11,1.32.15,2.4.15,3.14A5.512,5.512,0,0,1,365.92,94.19Z" transform="translate(180 6834)" fill="#12263f"/>
    <path id="Trazado_186402" data-name="Trazado 186402" d="M273,73.67a4.483,4.483,0,0,1-.29.63c-.19.41-.53,1-.89,1.76a49.489,49.489,0,0,0-2.7,6.7,47.52,47.52,0,0,0,8.32,44.91,50,50,0,0,0,4.93,5.29c.61.6,1.13,1,1.46,1.32a2.939,2.939,0,0,1,.49.49,3.161,3.161,0,0,1-.56-.4c-.36-.28-.9-.67-1.54-1.24a43.813,43.813,0,0,1-5.09-5.2,46.81,46.81,0,0,1-8.4-45.3A43.738,43.738,0,0,1,271.61,76c.39-.77.76-1.33,1-1.72a3.159,3.159,0,0,1,.39-.61Z" transform="translate(180 6834)" fill="#12263f"/>
    <path id="Trazado_186403" data-name="Trazado 186403" d="M262,92.38c.09,0-.12,1.64-.21,4.28a52.182,52.182,0,0,0,.69,10.25,51.478,51.478,0,0,0,2.78,9.89c1,2.46,1.7,3.92,1.62,4a4.37,4.37,0,0,1-.62-1c-.36-.65-.84-1.61-1.38-2.83a43.64,43.64,0,0,1-3.49-20.31c.09-1.33.23-2.39.35-3.13A4.09,4.09,0,0,1,262,92.38Z" transform="translate(180 6834)" fill="#12263f"/>
    <g id="Grupo_92849" data-name="Grupo 92849" transform="translate(180 6834)">
      <path id="Trazado_186404" data-name="Trazado 186404" d="M348,104.25c-1.55-.31-2.8-.58-2.8-.6s1.26.23,2.81.55,2.8.58,2.8.6S349.57,104.57,348,104.25Z" fill="#12263f"/>
      <path id="Trazado_186405" data-name="Trazado 186405" d="M344,114.61c-1.37-.8-2.47-1.47-2.46-1.48s1.12.63,2.48,1.43,2.47,1.47,2.46,1.48S345.4,115.41,344,114.61Z" fill="#12263f"/>
      <path id="Trazado_186406" data-name="Trazado 186406" d="M336.9,123.1c-1-1.2-1.86-2.19-1.84-2.2s.85,1,1.88,2.16,1.85,2.19,1.84,2.2S337.92,124.3,336.9,123.1Z" fill="#12263f"/>
      <path id="Trazado_186407" data-name="Trazado 186407" d="M327.39,128.82c-.58-1.47-1-2.67-1-2.67s.5,1.18,1.09,2.65,1,2.66,1,2.67S328,130.29,327.39,128.82Z" fill="#12263f"/>
      <path id="Trazado_186408" data-name="Trazado 186408" d="M316.55,131.15c-.07-1.59-.12-2.87-.1-2.87s.08,1.28.16,2.86.12,2.87.1,2.87S316.62,132.73,316.55,131.15Z" fill="#12263f"/>
      <path id="Trazado_186409" data-name="Trazado 186409" d="M305.53,129.82c.44-1.52.81-2.75.83-2.75s-.33,1.24-.77,2.76-.82,2.75-.83,2.74S305.09,131.33,305.53,129.82Z" fill="#12263f"/>
      <path id="Trazado_186410" data-name="Trazado 186410" d="M295.54,125c.91-1.29,1.66-2.33,1.67-2.32s-.71,1.06-1.63,2.35-1.66,2.34-1.67,2.33S294.62,126.28,295.54,125Z" fill="#12263f"/>
      <path id="Trazado_186411" data-name="Trazado 186411" d="M287.66,117.18c1.29-.93,2.34-1.67,2.34-1.66s-1,.78-2.3,1.7-2.33,1.67-2.34,1.66S286.38,118.1,287.66,117.18Z" fill="#12263f"/>
      <path id="Trazado_186412" data-name="Trazado 186412" d="M282.74,107.24c1.52-.46,2.75-.83,2.75-.81s-1.22.4-2.73.86-2.75.82-2.75.81S281.23,107.7,282.74,107.24Z" fill="#12263f"/>
      <path id="Trazado_186413" data-name="Trazado 186413" d="M281.32,96.23c1.58.06,2.86.12,2.86.14s-1.28,0-2.86-.08-2.86-.12-2.86-.14S279.74,96.17,281.32,96.23Z" fill="#12263f"/>
      <path id="Trazado_186414" data-name="Trazado 186414" d="M283.55,85.36c1.48.56,2.67,1,2.66,1s-1.21-.43-2.68-1-2.67-1-2.67-1S282.07,84.79,283.55,85.36Z" fill="#12263f"/>
      <path id="Trazado_186415" data-name="Trazado 186415" d="M289.18,75.8c1.21,1,2.19,1.85,2.18,1.86s-1-.8-2.21-1.82S287,74,287,74,288,74.78,289.18,75.8Z" fill="#12263f"/>
      <path id="Trazado_186416" data-name="Trazado 186416" d="M297.62,68.6c.81,1.35,1.47,2.46,1.45,2.46s-.68-1.08-1.5-2.43-1.47-2.46-1.46-2.47S296.8,67.24,297.62,68.6Z" fill="#12263f"/>
      <path id="Trazado_186417" data-name="Trazado 186417" d="M307.92,64.51c.34,1.55.6,2.8.58,2.81s-.3-1.25-.63-2.8-.59-2.8-.58-2.8S307.59,63,307.92,64.51Z" fill="#12263f"/>
      <path id="Trazado_186418" data-name="Trazado 186418" d="M319,64c-.19,1.57-.36,2.85-.37,2.84s.12-1.27.31-2.84.36-2.85.37-2.85S319.19,62.43,319,64Z" fill="#12263f"/>
      <path id="Trazado_186419" data-name="Trazado 186419" d="M329.66,67.11c-.68,1.43-1.25,2.58-1.26,2.57s.53-1.17,1.21-2.59,1.25-2.58,1.27-2.57S330.35,65.69,329.66,67.11Z" fill="#12263f"/>
      <path id="Trazado_186420" data-name="Trazado 186420" d="M338.72,73.52c-1.11,1.12-2,2-2,2s.88-.93,2-2,2-2,2-2S339.83,72.39,338.72,73.52Z" fill="#12263f"/>
      <path id="Trazado_186421" data-name="Trazado 186421" d="M345.21,82.51c-1.42.7-2.57,1.26-2.58,1.25s1.14-.6,2.55-1.3,2.57-1.26,2.58-1.25S346.62,81.8,345.21,82.51Z" fill="#12263f"/>
      <path id="Trazado_186422" data-name="Trazado 186422" d="M348.44,93.12c-1.57.2-2.85.36-2.85.34s1.27-.19,2.84-.4,2.84-.36,2.84-.34S350,92.91,348.44,93.12Z" fill="#12263f"/>
    </g>
    <path id="Trazado_186423" data-name="Trazado 186423" d="M368.82,89.32a30.2,30.2,0,0,1-2.35,5.36l-.07.13-.22.44-.27-.41a29.481,29.481,0,0,1-2.9-4.92,28.61,28.61,0,0,1,3.37,4.6h-.49l.06-.13a30.307,30.307,0,0,1,2.87-5.07Z" transform="translate(180 6834)" fill="#12263f"/>
    <g id="Grupo_92851" data-name="Grupo 92851" transform="translate(180 6834)">
      <path id="Trazado_186424" data-name="Trazado 186424" d="M387.47,182.24H258.17a11.46,11.46,0,0,0,0,22.91h60.47l13.55,12.9v-12.9h55.28a11.46,11.46,0,0,0,0-22.91Z" fill="#fafafa"/>
      <path id="Trazado_186425" data-name="Trazado 186425" d="M387.47,182.24h.42a8.478,8.478,0,0,1,1.26.09,11.18,11.18,0,0,1,4.58,1.69,11.5,11.5,0,0,1,3.14,16.45,11.7,11.7,0,0,1-4.93,3.95,13,13,0,0,1-3.32.84c-1.18.09-2.35.05-3.55.06H369.49l-37.3.05.25-.25v13.51l-.45-.42-13.55-12.9.19.08h-60.4a11.74,11.74,0,0,1-9-19.36,11.61,11.61,0,0,1,7.43-4c1.43-.16,2.81-.08,4.19-.1H281l55.41.06,37.35.1,10.16.05h0l-10.16.06-37.35.09L281,182.5H260.88c-1.38,0-2.78,0-4.12.1a11.17,11.17,0,0,0,1.48,22.25h60.51l.08.08,13.54,12.91-.45.19V204.87h.26l37.3.05h15.58c1.2,0,2.39,0,3.51-.05a12.341,12.341,0,0,0,3.23-.81,11.33,11.33,0,0,0,1.84-20,11.56,11.56,0,0,0-4.51-1.74C388.05,182.24,387.47,182.27,387.47,182.24Z" fill="#12263f"/>
    </g>
    <g id="Grupo_92859" data-name="Grupo 92859" transform="translate(180 6834)">
      <path id="Trazado_186426" data-name="Trazado 186426" d="M314.73,201.78H258.09a8.09,8.09,0,0,1-8.09-8.09h0a8.09,8.09,0,0,1,8.09-8.09h56.64a8.09,8.09,0,0,1,8.09,8.09h0a8.09,8.09,0,0,1-8.09,8.09Z" fill="#e44950"/>
      <g id="Grupo_92852" data-name="Grupo 92852">
        <path id="Trazado_186427" data-name="Trazado 186427" d="M319.47,170.43l-1.92,5.85H316.1l-1.29-4-1.33,4H312l-1.92-5.85h1.41l1.32,4.11,1.38-4.11h1.25l1.34,4.15,1.36-4.15Z" fill="#12263f"/>
        <path id="Trazado_186428" data-name="Trazado 186428" d="M319.78,173.36a3.21,3.21,0,1,1,3.2,3,3,3,0,0,1-3.2-3Zm5,0a1.84,1.84,0,1,0-1.84,1.87,1.79,1.79,0,0,0,1.88-1.87Z" fill="#12263f"/>
        <path id="Trazado_186429" data-name="Trazado 186429" d="M330.93,176.28l-1.13-1.63h-1.24v1.63H327.2v-5.85h2.54c1.56,0,2.54.81,2.54,2.12a1.9,1.9,0,0,1-1.2,1.85l1.31,1.88Zm-1.27-4.75h-1.1v2h1.1c.83,0,1.25-.38,1.25-1S330.49,171.53,329.66,171.53Z" fill="#12263f"/>
        <path id="Trazado_186430" data-name="Trazado 186430" d="M335.48,174l-.79.82v1.48h-1.34v-5.85h1.34v2.73l2.6-2.73h1.5L336.37,173l2.56,3.24h-1.58Z" fill="#12263f"/>
      </g>
      <g id="Grupo_92853" data-name="Grupo 92853">
        <path id="Trazado_186431" data-name="Trazado 186431" d="M372.65,195.84H371l-.42,2.1H369.4l.43-2.1h-4.76l.16-.86,5.44-5.59h1.38l-5.21,5.4h3.23l.38-1.86h1.14l-.37,1.86h1.62Z" fill="#12263f"/>
        <path id="Trazado_186432" data-name="Trazado 186432" d="M376.17,190.45l-.71,2.35h.83c2.19,0,3.18.9,3.18,2.28,0,1.77-1.46,3-3.64,3a4,4,0,0,1-3-1.08l.65-.94a3.19,3.19,0,0,0,2.43.93c1.48,0,2.34-.65,2.34-1.73,0-.85-.61-1.36-2.18-1.36H374l1.34-4.47h4.82l-.2,1.06Z" fill="#12263f"/>
        <path id="Trazado_186433" data-name="Trazado 186433" d="M380.9,192.11a2.52,2.52,0,0,1,2.33-2.79,1.66,1.66,0,0,1,1.73,1.86,2.52,2.52,0,0,1-2.34,2.79,1.66,1.66,0,0,1-1.72-1.86Zm7.59-2.72h1L382,197.94h-1Zm-4.33,1.85c0-.8-.37-1.23-1-1.23-1,0-1.47,1.11-1.47,2s.37,1.23,1,1.23C383.68,193.28,384.16,192.17,384.16,191.24Zm1.36,4.92a2.51,2.51,0,0,1,2.33-2.79,1.66,1.66,0,0,1,1.72,1.86,2.5,2.5,0,0,1-2.34,2.78,1.64,1.64,0,0,1-1.71-1.85Zm3.25-.87c0-.81-.38-1.24-1-1.24-1,0-1.48,1.12-1.48,2s.39,1.23,1,1.23c.99.05,1.48-1.06,1.48-1.99Z" fill="#12263f"/>
      </g>
      <g id="Grupo_92854" data-name="Grupo 92854" opacity="0.3">
        <path id="Trazado_186434" data-name="Trazado 186434" d="M260.28,185.6l-5.24,16.18h5.24l4.94-16.18Z" fill="#fff"/>
      </g>
      <g id="Grupo_92855" data-name="Grupo 92855" opacity="0.3">
        <path id="Trazado_186435" data-name="Trazado 186435" d="M273.24,185.6,268,201.78h5.24l4.94-16.18Z" fill="#fff"/>
      </g>
      <g id="Grupo_92856" data-name="Grupo 92856" opacity="0.3">
        <path id="Trazado_186436" data-name="Trazado 186436" d="M286.2,185.6l-5.25,16.18h5.25l4.93-16.18Z" fill="#fff"/>
      </g>
      <g id="Grupo_92857" data-name="Grupo 92857" opacity="0.3">
        <path id="Trazado_186437" data-name="Trazado 186437" d="M299.16,185.6l-5.25,16.18h5.25l4.93-16.18Z" fill="#fff"/>
      </g>
      <g id="Grupo_92858" data-name="Grupo 92858" opacity="0.3">
        <path id="Trazado_186438" data-name="Trazado 186438" d="M312.12,185.6l-5.25,16.18h5.25l4.93-16.18Z" fill="#fff"/>
      </g>
    </g>
    <g id="Grupo_92861" data-name="Grupo 92861" transform="translate(180 6834)">
      <path id="Trazado_186439" data-name="Trazado 186439" d="M115.73,414.66s27.86,12.55,56.88,12.55c26.87,0,55.31-13.53,55.31-13.53Z" fill="#e1e1e1"/>
      <rect id="Rectángulo_39044" data-name="Rectángulo 39044" width="11.51" height="120.55" transform="translate(164.14 414.89)" fill="#e1e1e1"/>
      <rect id="Rectángulo_39045" data-name="Rectángulo 39045" width="102.14" height="7.07" transform="translate(118.82 528.37)" fill="#e1e1e1"/>
      <path id="Trazado_186440" data-name="Trazado 186440" d="M131.32,537.75a7.79,7.79,0,1,1-2.278-5.515A7.8,7.8,0,0,1,131.32,537.75Z" fill="#12263f"/>
      <path id="Trazado_186441" data-name="Trazado 186441" d="M176.71,537.75a7.8,7.8,0,1,1-7.8-7.8,7.8,7.8,0,0,1,7.8,7.8Z" fill="#12263f"/>
      <path id="Trazado_186442" data-name="Trazado 186442" d="M229.28,537.75A7.79,7.79,0,1,1,227,532.235,7.8,7.8,0,0,1,229.28,537.75Z" fill="#12263f"/>
      <rect id="Rectángulo_39046" data-name="Rectángulo 39046" width="15.65" height="6.48" transform="translate(156.96 458.28)" fill="#e1e1e1"/>
      <rect id="Rectángulo_39047" data-name="Rectángulo 39047" width="5.7" height="15.55" transform="translate(154.11 453.74)" fill="#e1e1e1"/>
    </g>
    <g id="Grupo_92862" data-name="Grupo 92862" transform="translate(180 6834)">
      <path id="Trazado_186443" data-name="Trazado 186443" d="M111.85,231.18h47.86V399.32H100.24V242.78a11.61,11.61,0,0,1,11.61-11.6Z" fill="#375a64"/>
      <path id="Trazado_186444" data-name="Trazado 186444" d="M113.41,396.77c-.16,0-.29-36.49-.29-81.48s.13-81.49.29-81.49.28,36.48.28,81.49S113.57,396.77,113.41,396.77Z" fill="#12263f"/>
    </g>
    <path id="Trazado_186445" data-name="Trazado 186445" d="M100.24,399H247.45v18.28H108.2a8,8,0,0,1-8-8V399Z" transform="translate(180 6834)" fill="#375a64"/>
    <g id="Grupo_92863" data-name="Grupo 92863" transform="translate(180 6834)">
      <path id="Trazado_186446" data-name="Trazado 186446" d="M183.57,164.69l-6.37,60.83c-1.09,10.34-.57,25.76,15.87,26.73h0c14.32-.24,19.32-13.31,20.32-23,.48-4.58.88-8.39,1-8.86,0,0,15.64.16,18.37-15,1.31-7.35,2.79-22.71,4-36.62a28.79,28.79,0,0,0-24-30.8l-1.47-.24C195.24,136,184.84,148.63,183.57,164.69Z" fill="#ffbf9d"/>
      <path id="Trazado_186447" data-name="Trazado 186447" d="M214.35,220.42a37.38,37.38,0,0,1-18.87-9.17s3,11.94,18.43,13.1Z" fill="#ff9a6c"/>
      <path id="Trazado_186448" data-name="Trazado 186448" d="M209.9,172.62c-.34.28-2-1.31-4.54-1.62s-4.59.78-4.83.43c-.12-.16.25-.7,1.14-1.21a6.47,6.47,0,0,1,3.92-.73,6.23,6.23,0,0,1,3.56,1.68C209.86,171.88,210.06,172.49,209.9,172.62Z" fill="#12263f"/>
      <path id="Trazado_186449" data-name="Trazado 186449" d="M209.64,178.51a2.08,2.08,0,0,1-2.33,1.74A2,2,0,0,1,205.5,178a2.08,2.08,0,0,1,2.33-1.74,2,2,0,0,1,1.81,2.25Z" fill="#12263f"/>
      <path id="Trazado_186450" data-name="Trazado 186450" d="M214.68,191.08c0-.14,1.51-.15,3.92-.05.61,0,1.2,0,1.36-.38a3.06,3.06,0,0,0-.1-1.84l-1-4.85c-1.38-6.89-2.27-12.52-2-12.57s1.62,5.49,3,12.38q.48,2.55.93,4.86a3.56,3.56,0,0,1-.08,2.4,1.53,1.53,0,0,1-1.13.71,3.51,3.51,0,0,1-1,0,15.54,15.54,0,0,1-3.9-.66Z" fill="#12263f"/>
      <path id="Trazado_186451" data-name="Trazado 186451" d="M209.7,162.86c-.3.55-2.32-.07-4.8-.17s-4.54.25-4.78-.32c-.1-.28.33-.77,1.21-1.2a7.9,7.9,0,0,1,3.7-.68,7.71,7.71,0,0,1,3.6,1.06C209.46,162.07,209.83,162.6,209.7,162.86Z" fill="#12263f"/>
      <path id="Trazado_186452" data-name="Trazado 186452" d="M233.65,169.87c-.31.44-2.27-.26-4.69-.56s-4.47-.17-4.68-.68c-.09-.25.35-.62,1.23-.92a8.58,8.58,0,0,1,3.65-.26,8.929,8.929,0,0,1,3.49,1.21C233.44,169.17,233.79,169.66,233.65,169.87Z" fill="#12263f"/>
      <path id="Trazado_186453" data-name="Trazado 186453" d="M182.94,176.18c-.24-.16-10-4.84-11.36,5.63s9.41,9.73,9.46,9.43S182.94,176.18,182.94,176.18Z" fill="#ffbf9d"/>
      <path id="Trazado_186454" data-name="Trazado 186454" d="M178.38,186.84a4.447,4.447,0,0,1-.53.21,1.88,1.88,0,0,1-1.37-.16c-1-.55-1.75-2.44-1.55-4.33a6.12,6.12,0,0,1,.86-2.54,2.12,2.12,0,0,1,1.56-1.22.93.93,0,0,1,1,.64c.1.31,0,.51.06.54s.25-.15.22-.59a1.13,1.13,0,0,0-.32-.71,1.37,1.37,0,0,0-1-.4,2.6,2.6,0,0,0-2.13,1.37,6.27,6.27,0,0,0-1,2.83c-.21,2.12.6,4.24,2.06,4.88a2,2,0,0,0,1.7-.05C178.32,187.09,178.41,186.87,178.38,186.84Z" fill="#ff9a6c"/>
      <path id="Trazado_186455" data-name="Trazado 186455" d="M211.53,198.13c.14-.25-1.86-1.06-3.13-3.13a12,12,0,0,1-1.21-2.88c-.23-.79-.42-1.29-.54-1.27s-.13.55,0,1.39a7.75,7.75,0,0,0,1.07,3.2,6.34,6.34,0,0,0,2.5,2.31C211,198.15,211.49,198.22,211.53,198.13Z" fill="#12263f"/>
      <path id="Trazado_186456" data-name="Trazado 186456" d="M170.53,157.87c2.53-3.51,3.45-7.89,5-11.92s4.28-8.1,8.47-9.17l.09.05c3.78-1.13,8.27-.74,11,2.07,1.24-5.4,6.43-9.28,11.9-10.19s13.94.72,18.87,3.25c3.8,1.95,7.33,5.57,11.53,10.79a52,52,0,0,1,4.77,7l3.31,14.75-4.66,7.14a17.039,17.039,0,0,1-.92,1.46h0l-5,15.5c.17-4.34,1.87-19.32,2-23.66a24.17,24.17,0,0,1-16.43-9.51c-2.12-2.83-3.67-6.27-6.68-8.12-3.88-2.39-8.86-1.37-13.28-.28l.2-.14a19.33,19.33,0,0,0-6.34,3.73,60.08,60.08,0,0,1-4.93,25.09c-.51,1.19-1.84,3.61-3.09,4-2.44.7-2.86-1.76-4.16-3.17-1-1-2.5-1.3-4.2-1.46a96.527,96.527,0,0,1-1.88-11.17,9.66,9.66,0,0,1-4.44-.12c.56-1,1.11-2.08,1.66-3.12a5,5,0,0,1-2,.68,1.74,1.74,0,0,1-1.72-1C169.37,159.48,170,158.6,170.53,157.87Z" fill="#12263f"/>
      <path id="Trazado_186457" data-name="Trazado 186457" d="M199.81,141.1a15.091,15.091,0,0,0-1.67,1.27,11,11,0,0,0-2.82,4.87,19.531,19.531,0,0,0-.75,3.87c-.14,1.41-.16,2.93-.2,4.53a42.447,42.447,0,0,1-.35,5,17.629,17.629,0,0,1-.59,2.62,5.6,5.6,0,0,1-1.32,2.48,2.35,2.35,0,0,1-2.23.53A3.49,3.49,0,0,1,188,165a8.06,8.06,0,0,1-1.12-4l.32.07a12.941,12.941,0,0,1-2.16,3,4.59,4.59,0,0,1-3.14,1.35,3,3,0,0,1-1.55-.42,2.6,2.6,0,0,1-1-1.16,2.7,2.7,0,0,1-.2-1.39,2,2,0,0,1,.6-1.15l.15.16a9.83,9.83,0,0,1-3.52,2.17,7.7,7.7,0,0,1-1.06.3,1.71,1.71,0,0,1-.37.06,1.928,1.928,0,0,1,.36-.12,9.686,9.686,0,0,0,1-.35,10.23,10.23,0,0,0,3.41-2.21l.15.16a2,2,0,0,0-.31,2.27,2.34,2.34,0,0,0,.88,1,2.74,2.74,0,0,0,1.42.37,4.35,4.35,0,0,0,2.91-1.29,12.65,12.65,0,0,0,2.08-3l.27-.47.05.54a7.67,7.67,0,0,0,1.07,3.85A3.12,3.12,0,0,0,190,166a1.93,1.93,0,0,0,1.89-.45,5.22,5.22,0,0,0,1.23-2.31,18,18,0,0,0,.58-2.57,43.648,43.648,0,0,0,.37-5,43.876,43.876,0,0,1,.23-4.56,19.729,19.729,0,0,1,.81-3.9,10.78,10.78,0,0,1,3-4.9A6.14,6.14,0,0,1,199.81,141.1Z" fill="#375a64"/>
      <path id="Trazado_186458" data-name="Trazado 186458" d="M245.88,160.4l-.13.1-.41.24a5.362,5.362,0,0,1-.69.36,7.926,7.926,0,0,1-1,.4,13.61,13.61,0,0,1-6.67.58,17.46,17.46,0,0,1-8.94-4.27,30.35,30.35,0,0,1-7.11-9.9c-.94-2-1.68-3.95-2.52-5.8a20.52,20.52,0,0,0-3-5,10.65,10.65,0,0,0-4.17-3.09,7.689,7.689,0,0,0-2.31-.48,8.51,8.51,0,0,0-2.17.21,9.19,9.19,0,0,0-3.38,1.63,8.88,8.88,0,0,0-1.93,2.09,11,11,0,0,0-1,2.23.56.56,0,0,1,0-.16,3.045,3.045,0,0,1,.11-.47,8,8,0,0,1,.75-1.67,8.49,8.49,0,0,1,1.93-2.17,8.9,8.9,0,0,1,3.44-1.72,8.55,8.55,0,0,1,2.24-.25,8,8,0,0,1,2.4.49,10.69,10.69,0,0,1,4.32,3.15,20.369,20.369,0,0,1,3.06,5.05c.86,1.87,1.59,3.85,2.53,5.79a30.14,30.14,0,0,0,7,9.81,17.36,17.36,0,0,0,8.76,4.27,13.88,13.88,0,0,0,6.58-.46,20.941,20.941,0,0,0,2.31-.96Z" fill="#375a64"/>
      <path id="Trazado_186459" data-name="Trazado 186459" d="M233.22,175.75c-.33.28-2-1.31-4.53-1.62s-4.6.78-4.84.42c-.11-.15.25-.69,1.15-1.2a6.4,6.4,0,0,1,3.92-.73,6.23,6.23,0,0,1,3.56,1.68C233.19,175,233.39,175.62,233.22,175.75Z" fill="#12263f"/>
      <path id="Trazado_186460" data-name="Trazado 186460" d="M231.05,180.5a2.1,2.1,0,0,1-2.33,1.75A2,2,0,0,1,226.9,180a2.09,2.09,0,0,1,2.33-1.75,2,2,0,0,1,1.82,2.25Z" fill="#12263f"/>
      <path id="Trazado_186461" data-name="Trazado 186461" d="M241.1,147.86c1.12,1.86,3,3.64,5.13,3.63a16.1,16.1,0,0,0,2.36-.43c.7.54.25,3.08-.34,3.74a13.851,13.851,0,0,1-1.78,1.49c2.37,1.62,4.74,1.2,7.52.5a13.22,13.22,0,0,1-8.92,9.73c-1.42.43-3.09.57-4.24-.36a5.33,5.33,0,0,1-1.51-3.49,57.851,57.851,0,0,1-.41-14.28Z" fill="#12263f"/>
    </g>
    <g id="Grupo_92867" data-name="Grupo 92867" transform="translate(180 6834)">
      <path id="Trazado_186462" data-name="Trazado 186462" d="M212.73,234.69s9.68,3.93,15.2,17.33c3.88,9.42,25.41,39.14,25.41,39.14l57.28,12.72,2,18.27L221,321.39l-12.74-40.54Z" fill="#36d8c7"/>
      <path id="Trazado_186463" data-name="Trazado 186463" d="M174.17,217.8,164,222.07c-9.41,3.94-21.45,13-25.48,22.39C128.83,267,120.05,296,116.68,321.72c-3.39,25.88,3.37,64.19,3.37,64.19l86-49.12-5-3.52,16.29-88.62-3-10.73,2-9.07s-22.8-9.16-39.42-15.72Z" fill="#36d8c7"/>
      <g id="Grupo_92864" data-name="Grupo 92864" opacity="0.3">
        <path id="Trazado_186464" data-name="Trazado 186464" d="M166,360.3l1-13.28a5.82,5.82,0,0,1-3.72,1.59,39.56,39.56,0,0,0,5.68-6.83L165,343.46a11.57,11.57,0,0,0,3.33-4c-2.1-1.65-5.06-1.38-7.72-1.11-13.59,1.38-27.3.47-40.93-.45a9.25,9.25,0,0,1-3.91-1.15s-.28-3.74.33-5.13,1.55-1,3-1.5a15.7,15.7,0,0,1,4.48-.7c16.6-.87,33.23.5,49.8,1.87a5.11,5.11,0,0,1,2.91.84c1.35,1.1,1.24,3.16,1,4.89q-1.28,9.3-2.53,18.6"/>
      </g>
      <path id="Trazado_186465" data-name="Trazado 186465" d="M216.27,241.08a4.6,4.6,0,0,1-.08.83c-.09.6-.2,1.39-.35,2.37-.31,2.05-.8,5-1.45,8.67-1.3,7.32-3.25,17.39-5.56,28.48s-4.54,21.11-6.18,28.35c-.82,3.57-1.49,6.48-2,8.57-.23,1-.42,1.73-.56,2.32a4.761,4.761,0,0,1-.24.8,4.289,4.289,0,0,1,.12-.83c.12-.59.27-1.37.47-2.34.43-2.09,1-5,1.8-8.61,1.55-7.31,3.66-17.32,6-28.38s4.32-21.14,5.72-28.43c.68-3.6,1.23-6.54,1.63-8.64.19-1,.34-1.75.46-2.34a5.28,5.28,0,0,1,.22-.82Z" fill="#12263f"/>
      <path id="Trazado_186466" data-name="Trazado 186466" d="M138.52,366.91a3.761,3.761,0,0,1,.51-.53l1.54-1.41c.67-.62,1.5-1.36,2.5-2.18s2.11-1.79,3.4-2.77c2.54-2,5.68-4.31,9.25-6.7s7.65-4.81,12-7.14,8.71-4.27,12.68-5.91,7.65-2.9,10.76-3.85c1.54-.52,3-.89,4.21-1.24s2.32-.63,3.2-.83l2-.47a3,3,0,0,1,.72-.13,3.28,3.28,0,0,1-.69.24l-2,.57c-.88.24-1.94.54-3.17.93s-2.65.78-4.18,1.31c-3.08,1-6.71,2.34-10.68,4s-8.23,3.63-12.62,5.93-8.41,4.74-12,7.07-6.72,4.59-9.29,6.58c-1.31,1-2.43,1.9-3.44,2.7s-1.87,1.51-2.56,2.1l-1.61,1.33a3.57,3.57,0,0,1-.53.4Z" fill="#12263f"/>
      <path id="Trazado_186467" data-name="Trazado 186467" d="M182.65,334.47c.07.14-8.29,4.83-18.67,10.49S145.11,355.09,145,355s8.28-4.84,18.67-10.49S182.57,334.33,182.65,334.47Z" fill="#12263f"/>
      <g id="Grupo_92865" data-name="Grupo 92865" opacity="0.3">
        <path id="Trazado_186468" data-name="Trazado 186468" d="M152.44,266.56c5.34,23.06,21.65,43.73,43.37,53.13a514.306,514.306,0,0,1-43.37-53.13Z"/>
      </g>
      <g id="Grupo_92866" data-name="Grupo 92866" opacity="0.3">
        <path id="Trazado_186469" data-name="Trazado 186469" d="M214.9,249c2.11,9.77.54,22-4.36,30.67l-1.22-2.54c1.73-7.33,4.21-20.35,5.58-28.13"/>
      </g>
    </g>
    <g id="Grupo_92873" data-name="Grupo 92873" transform="translate(180 6834)">
      <g id="Grupo_92870" data-name="Grupo 92870">
        <path id="Trazado_186470" data-name="Trazado 186470" d="M260.6,482.12l-10.3,31S278.36,534,277,539.93l-60.84-17.81,14.07-49Z" fill="#375a64"/>
        <g id="Grupo_92868" data-name="Grupo 92868" opacity="0.3">
          <path id="Trazado_186471" data-name="Trazado 186471" d="M260.6,482.12l-10.3,31S278.36,534,277,539.93l-60.84-17.81,14.07-49Z"/>
        </g>
        <path id="Trazado_186472" data-name="Trazado 186472" d="M232.26,505a2.6,2.6,0,0,0-2.55,2.34,2.48,2.48,0,0,0,2.29,2.54,2.72,2.72,0,0,0,2.68-2.48c-.06-1.27-1.43-2.65-2.67-2.39" fill="#e1e1e1"/>
        <g id="Grupo_92869" data-name="Grupo 92869" opacity="0.6">
          <path id="Trazado_186473" data-name="Trazado 186473" d="M216.17,522.12l1.61-4.88,57.73,18.9s2.37,2,1.5,3.79Z" fill="#fff"/>
        </g>
        <path id="Trazado_186474" data-name="Trazado 186474" d="M251.38,513.11c-.1.29-1.63,0-3.37.52s-2.88,1.55-3.12,1.35.7-1.78,2.82-2.38S251.52,512.86,251.38,513.11Z" fill="#12263f"/>
        <path id="Trazado_186475" data-name="Trazado 186475" d="M257,517.62c0,.31-1.45.43-2.82,1.4s-2.06,2.2-2.35,2.1,0-1.83,1.74-3S257.06,517.33,257,517.62Z" fill="#12263f"/>
        <path id="Trazado_186476" data-name="Trazado 186476" d="M258.37,526.32c-.29,0-.27-1.62,1-3s2.82-1.64,2.88-1.36-1.07.9-2.07,2.07S258.68,526.37,258.37,526.32Z" fill="#12263f"/>
        <path id="Trazado_186477" data-name="Trazado 186477" d="M252.94,505.78c-.2.24-1.45-.57-3.16-.95s-3.18-.23-3.26-.53,1.49-1,3.5-.52S253.15,505.59,252.94,505.78Z" fill="#12263f"/>
      </g>
      <g id="Grupo_92872" data-name="Grupo 92872">
        <path id="Trazado_186478" data-name="Trazado 186478" d="M278.35,496l-1.29,32.65s32.76,12.27,33.11,18.33l-63.4-.21-.08-51Z" fill="#375a64"/>
        <path id="Trazado_186479" data-name="Trazado 186479" d="M257.47,525.8a2.59,2.59,0,0,0-1.8,3,2.49,2.49,0,0,0,2.91,1.81,2.74,2.74,0,0,0,1.89-3.13c-.42-1.2-2.11-2.15-3.24-1.55" fill="#e1e1e1"/>
        <g id="Grupo_92871" data-name="Grupo 92871" opacity="0.6">
          <path id="Trazado_186480" data-name="Trazado 186480" d="M246.77,546.73l.2-5.14,60.71,2.13s2.82,1.23,2.49,3.22Z" fill="#fff"/>
        </g>
        <path id="Trazado_186481" data-name="Trazado 186481" d="M278.09,528.29c0,.31-1.56.45-3.08,1.44s-2.35,2.29-2.63,2.16.18-1.91,2.05-3.07S278.16,528,278.09,528.29Z" fill="#12263f"/>
        <path id="Trazado_186482" data-name="Trazado 186482" d="M284.73,531.07c.07.3-1.27.82-2.33,2.13s-1.36,2.68-1.67,2.67-.5-1.77.85-3.36S284.73,530.77,284.73,531.07Z" fill="#12263f"/>
        <path id="Trazado_186483" data-name="Trazado 186483" d="M288.48,539c-.28.06-.7-1.48.1-3.18s2.25-2.36,2.38-2.1-.77,1.16-1.41,2.56S288.79,539,288.48,539Z" fill="#12263f"/>
        <path id="Trazado_186484" data-name="Trazado 186484" d="M277.56,520.82c-.13.28-1.55-.15-3.3,0s-3.12.66-3.28.4,1.16-1.37,3.22-1.47S277.71,520.58,277.56,520.82Z" fill="#12263f"/>
      </g>
      <path id="Trazado_186485" data-name="Trazado 186485" d="M202.41,336.07s76,19.76,85.42,32.91C295.8,380.1,254,493.71,254,493.71l-33-2.85,14.23-95-85.14-27.07,12.86-32.69Z" fill="#12263f"/>
      <path id="Trazado_186486" data-name="Trazado 186486" d="M207.85,353.87s77.68,18.87,85.53,32.28c3.67,6.26,1.27,26.81-.1,36.51-.92,6.53-14.66,98-14.66,98H245l.74-103.28h0L165.02,401.1s-43.32,3.3-45-15.17l18.09-24.51,42.68-21.1Z" fill="#12263f"/>
      <path id="Trazado_186487" data-name="Trazado 186487" d="M201.94,351.49s.38.09,1.12.3l3.3.92L219,356.25c5.5,1.54,12.23,3.42,20,5.73s16.59,5.1,26.15,8.72c4.79,1.79,9.74,3.84,14.83,6.11l3.85,1.75a37.049,37.049,0,0,1,3.79,2.1,25.7,25.7,0,0,1,3.53,2.66,12.8,12.8,0,0,1,2.82,3.53c2.63,11.91,1,24.92-.9,38.22-.85,6.7-1.94,13.53-3,20.52s-2.11,14.13-3.2,21.4c-2.17,14.53-4.43,29.58-6.73,45-.44,2.91-.87,5.81-1.31,8.7v.24H244.76v-.28c.3-39.15.58-74.6.8-103.29l.17.22-57.34-11.66-15.65-3.21-4.08-.86c-.91-.19-1.38-.31-1.38-.31s.47.07,1.4.25l4.08.79,15.68,3.1,57.38,11.47h.17v.18c-.18,28.68-.41,64.13-.67,103.28l-.28-.28h33.58l-.28.25q.65-4.33,1.3-8.71c2.31-15.41,4.57-30.45,6.75-45l3.21-21.39c1-7,2.13-13.83,3-20.52.46-3.35.9-6.65,1.34-9.91a86.3,86.3,0,0,0,.85-9.67c.12-3.19.11-6.33,0-9.43-.06-1.54-.15-3.08-.28-4.59a11.58,11.58,0,0,0-.89-4.33,12.11,12.11,0,0,0-2.72-3.4,23.659,23.659,0,0,0-3.46-2.62,36,36,0,0,0-3.73-2.08l-3.84-1.75q-7.62-3.44-14.79-6.14c-9.54-3.64-18.35-6.42-26.11-8.79s-14.48-4.25-20-5.83l-12.64-3.64-3.28-1A10.287,10.287,0,0,1,201.94,351.49Z" fill="#375a64"/>
    </g>
    <g id="Grupo_92874" data-name="Grupo 92874" transform="translate(180 6834)">
      <path id="Trazado_186488" data-name="Trazado 186488" d="M309.52,304.78c.49-.74,6.91-8.15,8.64-8.15s3.7,2,3.7,2,2.22-1,3.7-.5,8.39,6.42,8.39,8.64v3.7a9.59,9.59,0,0,1,0,3c-.24,1.72-4.44,4.69-4.44,4.69H305.82s-4.52-3.05-4-5.93S309.52,304.78,309.52,304.78Z" fill="#ffbf9d"/>
      <path id="Trazado_186489" data-name="Trazado 186489" d="M321.86,298.61a8.24,8.24,0,0,1,1.48.84l3.91,2.47a11.054,11.054,0,0,1,1.3.88,3.43,3.43,0,0,1,1,1.48,7.59,7.59,0,0,1,.21,1.82c0,.62.07,1.25.1,1.89.12,2.59.26,5.42.41,8.4l.06,1.34V318h-.23l-1.45.36h-.07a3.07,3.07,0,0,1-1.86-.7,5.23,5.23,0,0,1-1.2-1.43,12.371,12.371,0,0,1-1.24-3.19,28.839,28.839,0,0,1-.82-5.69l.13.18-4.14-1.64a8,8,0,0,1-1.48-.67,9.52,9.52,0,0,1,1.56.47l4.2,1.46h.12v.14a30.647,30.647,0,0,0,.91,5.58,12.639,12.639,0,0,0,1.22,3,3.26,3.26,0,0,0,2.6,1.84h-.08l1.45-.36-.21.29c0-.45-.05-.89-.07-1.35-.12-3-.25-5.8-.36-8.4,0-.64-.05-1.27-.07-1.88a7,7,0,0,0-.17-1.71,2.86,2.86,0,0,0-.8-1.29c-.36-.33-.83-.59-1.22-.88l-3.81-2.62a10.271,10.271,0,0,1-1.38-.9Z" fill="#ff9a6c"/>
      <path id="Trazado_186490" data-name="Trazado 186490" d="M305.82,317.26a7.917,7.917,0,0,1,1.59-.21l4.32-.35h.06c1.41.32,3.06.65,4.88.88.91.11,1.86.2,2.85.23a3.17,3.17,0,0,0,2.6-.75,2.19,2.19,0,0,0,.41-1.44c0-.54-.08-1.08-.09-1.67a2,2,0,0,0-.65-1.21,4.73,4.73,0,0,0-1.17-.88,9,9,0,0,0-5.08-.9,4,4,0,0,1-3.36-1.35c-.52-.74-.47-1.27-.44-1.26a4.079,4.079,0,0,0,.62,1.12,3.79,3.79,0,0,0,3.17,1.08,9.11,9.11,0,0,1,5.34.84,5.729,5.729,0,0,1,1.31,1A2.53,2.53,0,0,1,323,314c0,.5.11,1.08.1,1.67a2.83,2.83,0,0,1-.53,1.8,2.55,2.55,0,0,1-1.49.85,6.59,6.59,0,0,1-1.58.1,26.259,26.259,0,0,1-2.9-.26,43.906,43.906,0,0,1-4.92-1h.07l-4.33.15a7.48,7.48,0,0,1-1.6-.05Z" fill="#ff9a6c"/>
      <path id="Trazado_186491" data-name="Trazado 186491" d="M330,317.16a39.274,39.274,0,0,1,1.91-4.3,19.539,19.539,0,0,1,2.18-4.18,19.531,19.531,0,0,1-1.66,4.42A14.832,14.832,0,0,1,330,317.16Z" fill="#ff9a6c"/>
    </g>
    <path id="Trazado_186492" data-name="Trazado 186492" d="M278.57,322.16,364,323.3l27.52-77.17a3.23,3.23,0,0,0-1.71-4.1h0a3.24,3.24,0,0,0-4.35,1.83l-27.11,73.07-79.83.79a2.22,2.22,0,0,0-2.2,2.22h0a2.21,2.21,0,0,0,2.25,2.22Z" transform="translate(180 6834)" fill="#12263f"/>
    <g id="Grupo_92876" data-name="Grupo 92876" transform="translate(180 6834)">
      <path id="Trazado_186493" data-name="Trazado 186493" d="M151.2,264.88s41.75,56.84,48.28,56.84h61V298.61l-46.14-10.89s-22.72-47-27.74-53-18.47-14.13-28.51-5.09S151.2,264.88,151.2,264.88Z" fill="#36d8c7"/>
      <g id="Grupo_92875" data-name="Grupo 92875">
        <path id="Trazado_186494" data-name="Trazado 186494" d="M260.44,300.84l10-.8s.21-3.71,2.4-5,2-4.15,3.27-3.93a5.649,5.649,0,0,0,2.18,0l8.29-7,7-4.58,5.46-1.09s3.27.87,0,3.93l-3.49,2-3.06,3.05,7-3.42a2.36,2.36,0,0,1,2.06,0,29,29,0,0,1,5.36,3,1.51,1.51,0,0,1,0,2.18l3.06,2.62s.65,3.49-2.84,2.62l-2.84-.66-3.7,3.71s12.65-2.62,13.52-2.18,2,2.4,0,4.14-9.6,1.31-11.34,3.06-13.29,12.28-16.12,12.94-26.12,6.34-26.12,6.34Z" fill="#ffbf9d"/>
        <path id="Trazado_186495" data-name="Trazado 186495" d="M309.93,291.75a15.909,15.909,0,0,1-1.72-1.22c-.52-.38-1.15-.84-1.85-1.32-.35-.24-.73-.48-1.12-.72a2.49,2.49,0,0,0-1.17-.48,7.521,7.521,0,0,0-2.44,1c-.75.41-1.41.8-2,1.13a9.859,9.859,0,0,1-1.85,1,6.87,6.87,0,0,1,1.63-1.36c.54-.37,1.19-.8,1.94-1.23.37-.22.76-.45,1.18-.67a3.67,3.67,0,0,1,1.49-.46,1.54,1.54,0,0,1,.46.05l.38.16c.23.11.44.24.64.36.41.26.79.52,1.13.77.7.52,1.31,1,1.8,1.43C309.46,291.06,310,291.69,309.93,291.75Z" fill="#ff9a6c"/>
        <path id="Trazado_186496" data-name="Trazado 186496" d="M279.28,290.25c.1.13-.94,1-2.15,2.2s-2.2,2.13-2.33,2a7.67,7.67,0,0,1,1.93-2.44,6.51,6.51,0,0,1,2.55-1.76Z" fill="#ff9a6c"/>
      </g>
      <path id="Trazado_186497" data-name="Trazado 186497" d="M186.61,234.69A26.461,26.461,0,0,1,189,238.2c1.45,2.39,3.48,6,5.93,10.56,4.92,9.23,11.68,22.59,19.62,38.86l-.16-.13,46.14,10.84.22.05V322H200a4.118,4.118,0,0,1-.77,0,2.8,2.8,0,0,1-.74-.25,8.473,8.473,0,0,1-1.28-.76,24.912,24.912,0,0,1-2.22-1.84,104.375,104.375,0,0,1-7.61-7.95c-4.68-5.33-8.83-10.46-12.59-15.17-7.5-9.44-13.36-17.24-17.39-22.64l-4.61-6.24-1.18-1.64c-.26-.37-.38-.57-.38-.57s.15.17.43.53l1.22,1.61,4.69,6.18c4.09,5.36,10,13.11,17.54,22.51,3.77,4.7,7.94,9.81,12.63,15.12a105.48,105.48,0,0,0,7.59,7.89,23.586,23.586,0,0,0,2.18,1.79,7.634,7.634,0,0,0,1.19.71,2.35,2.35,0,0,0,1.3.24h60.52l-.29.29V298.7l.21.27L214.3,288h-.11l-.05-.1c-7.89-16.29-14.59-29.68-19.43-38.94-2.42-4.63-4.41-8.21-5.81-10.61-.72-1.19-1.25-2.12-1.69-2.69A4.561,4.561,0,0,1,186.61,234.69Z" fill="#12263f"/>
      <path id="Trazado_186498" data-name="Trazado 186498" d="M180.54,231c0,.1-1.43-.47-3.77-1a30.787,30.787,0,0,0-4.15-.63,32.858,32.858,0,0,0-5.14,0,31.34,31.34,0,0,0-5,.93,29.567,29.567,0,0,0-4,1.39c-2.2,1-3.46,1.77-3.51,1.68a3.81,3.81,0,0,1,.84-.63,19.842,19.842,0,0,1,2.5-1.42,25.738,25.738,0,0,1,4-1.53,27.34,27.34,0,0,1,10.38-1,25.81,25.81,0,0,1,4.21.76,19.512,19.512,0,0,1,2.72.92,3.74,3.74,0,0,1,.92.53Z" fill="#12263f"/>
      <path id="Trazado_186499" data-name="Trazado 186499" d="M206,298.24a16.08,16.08,0,0,1,3.11-5.38,16.46,16.46,0,0,1,4.54-4.23c.11.14-2,1.93-4.09,4.59S206.11,298.31,206,298.24Z" fill="#12263f"/>
      <path id="Trazado_186500" data-name="Trazado 186500" d="M204.55,291.15a12.1,12.1,0,0,1,8.51-3c0,.18-2,.39-4.36,1.24S204.65,291.29,204.55,291.15Z" fill="#12263f"/>
    </g>
    <g id="Grupo_92877" data-name="Grupo 92877" transform="translate(180 6834)">
      <path id="Trazado_186501" data-name="Trazado 186501" d="M243.76,409.8c-.89-1.84-3-2.65-5-3.28-38.43-12.39-79.66-18.33-119.38-11.11-4.78.87-9.72,2-13.51,5s-6.08,8.49-4.05,12.9L110,416a519.533,519.533,0,0,1,122.36.87c2.73.34,5.62.69,8.15-.4S245,412.28,243.76,409.8Z" fill="#375a64"/>
      <path id="Trazado_186502" data-name="Trazado 186502" d="M199.16,397.09a1,1,0,0,1-.26,0l-.74-.09-2.85-.43c-2.47-.39-6-1-10.48-1.47A248.709,248.709,0,0,0,150,393.42c-3.41.07-6.73.23-9.93.49s-6.29.42-9.25.69a7.359,7.359,0,0,1-1.15,0,5.217,5.217,0,0,0-1-.05,13.262,13.262,0,0,0-2.07.31l-4,.83c-2.56.58-4.92,1.21-7,1.9A41.18,41.18,0,0,0,106,402c-1.05.68-1.83,1.25-2.34,1.66l-.6.46a1.459,1.459,0,0,1-.21.14s0-.07.18-.19l.56-.5a22.642,22.642,0,0,1,2.29-1.75,38.212,38.212,0,0,1,9.52-4.64c2.13-.73,4.5-1.38,7.06-2l4-.86a13.281,13.281,0,0,1,2.14-.34,6.115,6.115,0,0,1,1.13.05,5.256,5.256,0,0,0,1.05,0c2.93-.28,6-.47,9.25-.72s6.54-.44,10-.5a231.94,231.94,0,0,1,34.89,1.83c4.44.56,8,1.19,10.47,1.65l2.83.53.73.16a.65.65,0,0,1,.21.11Z" fill="#12263f"/>
      <path id="Trazado_186503" data-name="Trazado 186503" d="M102.86,334.47l65.49,2.28a1.63,1.63,0,0,1,1.56,1.86l-9.43,78.55h14.76l7.62-86.47A5.06,5.06,0,0,0,178,325l-76.91-2.76Z" fill="#375a64"/>
    </g>
    <path id="Trazado_186504" data-name="Trazado 186504" d="M450.97,328.74H440.71v2.28l22.6,215.99h10.54Z" transform="translate(180 6834)" fill="#375a64"/>
    <g id="Grupo_92879" data-name="Grupo 92879" transform="translate(180 6834)">
      <path id="Trazado_186505" data-name="Trazado 186505" d="M221.81,328.74h10.27v2.32L211.01,546.94H200.47Z" fill="#375a64"/>
      <path id="Trazado_186506" data-name="Trazado 186506" d="M221.81,328.74a10.732,10.732,0,0,1-.09,1.14c-.09.75-.17,1.85-.3,3.29-.27,2.9-.67,7.16-1.19,12.65-1.06,11-2.58,26.88-4.47,46.56-3.82,39.35-9.11,93.86-15,154.59l-.28-.31H211l-.29.26c10-101.41,18.46-187.32,21.27-215.85h0v-2.32l.08.08h.08v2.4h0L211.29,547v.26H200.15v-.32c6-60.79,11.37-115.37,15.26-154.76,2-19.65,3.54-35.52,4.63-46.48.55-5.46,1-9.69,1.28-12.58.14-1.42.26-2.51.33-3.25A9.619,9.619,0,0,1,221.81,328.74Z" fill="#12263f"/>
    </g>
    <rect id="Rectángulo_39048" data-name="Rectángulo 39048" width="293.76" height="9.3" transform="translate(377.12 7155.72)" fill="#375a64"/>
    <path id="Trazado_186507" data-name="Trazado 186507" d="M459.6,331c0,.15-58.54.28-130.75.28s-130.77-.13-130.77-.28,58.53-.29,130.77-.29S459.6,330.86,459.6,331Z" transform="translate(180 6834)" fill="#12263f"/>
    <g id="Grupo_92886" data-name="Grupo 92886" transform="translate(180 6834)">
      <g id="Grupo_92883" data-name="Grupo 92883">
        <path id="Trazado_186508" data-name="Trazado 186508" d="M508.52,218.9l-49.78-22.53a6.74,6.74,0,0,1-3.48-8.88l30.33-67a6.74,6.74,0,0,1,9-3.24l31.57,14.29L539.5,167.1l-22,48.57a6.75,6.75,0,0,1-8.98,3.23Z" fill="#375a64"/>
        <g id="Grupo_92881" data-name="Grupo 92881" opacity="0.2">
          <path id="Trazado_186509" data-name="Trazado 186509" d="M526.13,131.54l-8.54,18.86a6.26,6.26,0,0,0,3.24,8.25l18.64,8.45Z" fill="#fff"/>
        </g>
        <g id="Grupo_92882" data-name="Grupo 92882" opacity="0.2">
          <path id="Trazado_186510" data-name="Trazado 186510" d="M517.1,152.17s-2.32,4.46,2.35,8.39c.18.15.37.28.56.41,2.24,1.53,17,11.55,17.17,11.2l2.29-5.07-18.64-8.44S516.25,156.4,517.1,152.17Z"/>
        </g>
      </g>
      <g id="Grupo_92884" data-name="Grupo 92884" opacity="0.3">
        <path id="Trazado_186511" data-name="Trazado 186511" d="M455.12,181.48h68.31v23.39a4,4,0,0,1-4,4H459.1a4,4,0,0,1-4-4V181.48Z" transform="matrix(0.911, 0.412, -0.412, 0.911, 124.05, -184.43)"/>
      </g>
      <g id="Grupo_92885" data-name="Grupo 92885">
        <path id="Trazado_186512" data-name="Trazado 186512" d="M482.24,186l-3.79,8.37-1.93-.88,1.55-3.43-3.8-1.72-1.55,3.43-1.94-.88,3.79-8.36,1.93.88-1.5,3.27,3.8,1.72,1.49-3.29Z" fill="#fafafa"/>
        <path id="Trazado_186513" data-name="Trazado 186513" d="M485.24,189.24,482.56,188l.72-1.58,7.28,3.3-.71,1.58-2.68-1.21-3.07,6.78-1.93-.87Z" fill="#fafafa"/>
        <path id="Trazado_186514" data-name="Trazado 186514" d="M495.43,202l2.26-5-4.34,3-.87-.4-.62-5.13-2.23,4.91-1.81-.82,3.78-8.37,1.6.73.78,6.61,5.44-3.8,1.59.72-3.77,8.37Z" fill="#fafafa"/>
        <path id="Trazado_186515" data-name="Trazado 186515" d="M503,195.39l1.94.87-3.08,6.79,4.2,1.9-.72,1.58-6.13-2.78Z" fill="#fafafa"/>
      </g>
    </g>
    <g id="Grupo_92887" data-name="Grupo 92887" transform="translate(180 6834)">
      <path id="Trazado_186516" data-name="Trazado 186516" d="M499,157.92l-9,.06,5.93,6.8-1.6,3.52-8.37-9.94,1.66-3.67,13-.27Z" fill="#fff"/>
      <path id="Trazado_186517" data-name="Trazado 186517" d="M507.89,170.25l9-.06-5.92-6.8,1.59-3.52,8.37,9.94-1.66,3.67-13,.27Z" fill="#fff"/>
      <path id="Trazado_186518" data-name="Trazado 186518" d="M507.57,153.41l3.33,1.42L498.77,175l-3.25-1.56Z" fill="#fff"/>
    </g>
  </g>
</svg>
