<svg xmlns="http://www.w3.org/2000/svg" width="604" height="604" viewBox="0 0 604 604">
  <g id="Grupo_94293" data-name="Grupo 94293" transform="translate(-833 -7822)">
    <rect id="Rectángulo_39049" data-name="Rectángulo 39049" width="604" height="604" transform="translate(833 7822)" fill="none"/>
    <path id="Trazado_186519" data-name="Trazado 186519" d="M48.27,532.56v29.48h90.65V532.56Z" transform="translate(833 7822)" fill="#f5f5f5"/>
    <path id="Trazado_186520" data-name="Trazado 186520" d="M44.47,524.32v8.24h97.62v-8.24H44.47Z" transform="translate(833 7822)" fill="#e1e1e1"/>
    <path id="Trazado_186521" data-name="Trazado 186521" d="M93.28,562.04h45.64V532.56h3.17v-8.24H91.38v7.48Z" transform="translate(833 7822)" fill="#e1e1e1"/>
    <rect id="Rectángulo_39050" data-name="Rectángulo 39050" width="18.38" height="4.44" transform="translate(893.95 8359.32)" fill="#e1e1e1"/>
    <rect id="Rectángulo_39051" data-name="Rectángulo 39051" width="23.6" height="9.37" transform="translate(891.59 8369.3)" fill="#fff"/>
    <path id="Trazado_186522" data-name="Trazado 186522" d="M56.6,494.88v29.47h90.64V494.88Z" transform="translate(833 7822)" fill="#f5f5f5"/>
    <path id="Trazado_186523" data-name="Trazado 186523" d="M52.8,486.63v8.25h97.61v-8.25H52.8Z" transform="translate(833 7822)" fill="#e1e1e1"/>
    <path id="Trazado_186524" data-name="Trazado 186524" d="M101.61,524.35h45.63V494.88h3.17v-8.25H99.7v7.48Z" transform="translate(833 7822)" fill="#e1e1e1"/>
    <rect id="Rectángulo_39052" data-name="Rectángulo 39052" width="18.38" height="4.44" transform="translate(902.28 8321.63)" fill="#e1e1e1"/>
    <rect id="Rectángulo_39053" data-name="Rectángulo 39053" width="23.6" height="9.37" transform="translate(899.91 8331.61)" fill="#fff"/>
    <g id="Grupo_92891" data-name="Grupo 92891" transform="translate(833 7822)">
      <rect id="Rectángulo_39054" data-name="Rectángulo 39054" width="94.4" height="84.46" transform="translate(122 187.74)" fill="#fafafa"/>
      <path id="Trazado_186525" data-name="Trazado 186525" d="M216.4,272.2V248.96c0-14.75-.07-35.84-.11-61.22l.21.22L122,188h0l.25-.25v84.46L122,272l68.28.11,19.26.06h.09l-19.21.06-68.42.11h-.22V187.41h94.83v.21c-.05,25.44-.09,46.57-.11,61.36,0,7.36,0,13.14-.06,17.09v4.49C216.44,271.59,216.4,272.2,216.4,272.2Z" fill="#e1e1e1"/>
    </g>
    <path id="Trazado_186526" data-name="Trazado 186526" d="M158.2,202.75c0,.14-5,.25-11.1.25s-11.1-.11-11.1-.25,5-.25,11.1-.25S158.2,202.61,158.2,202.75Z" transform="translate(833 7822)" fill="#e1e1e1"/>
    <path id="Trazado_186527" data-name="Trazado 186527" d="M198.2,209.09c0,.14-13.65.25-30.49.25s-30.49-.11-30.49-.25,13.65-.25,30.49-.25S198.2,209,198.2,209.09Z" transform="translate(833 7822)" fill="#e1e1e1"/>
    <rect id="Rectángulo_39055" data-name="Rectángulo 39055" width="3.98" height="3.98" transform="translate(969.17 8041.83)" fill="#e1e1e1"/>
    <rect id="Rectángulo_39056" data-name="Rectángulo 39056" width="3.98" height="3.98" transform="translate(978.96 8041.83)" fill="#e1e1e1"/>
    <rect id="Rectángulo_39057" data-name="Rectángulo 39057" width="3.98" height="3.98" transform="translate(988.93 8041.65)" fill="#e1e1e1"/>
    <rect id="Rectángulo_39058" data-name="Rectángulo 39058" width="3.98" height="3.98" transform="translate(998.54 8041.83)" fill="#e1e1e1"/>
    <rect id="Rectángulo_39059" data-name="Rectángulo 39059" width="3.98" height="3.98" transform="translate(1008.33 8041.83)" fill="#e1e1e1"/>
    <rect id="Rectángulo_39060" data-name="Rectángulo 39060" width="3.98" height="3.98" transform="translate(1018.12 8041.83)" fill="#e1e1e1"/>
    <rect id="Rectángulo_39061" data-name="Rectángulo 39061" width="3.98" height="3.98" transform="translate(1027.91 8041.83)" fill="#ececec"/>
    <rect id="Rectángulo_39062" data-name="Rectángulo 39062" width="3.98" height="3.98" transform="translate(969.17 8050.29)" fill="#ececec"/>
    <rect id="Rectángulo_39063" data-name="Rectángulo 39063" width="3.98" height="3.98" transform="translate(978.96 8050.29)" fill="#e1e1e1"/>
    <rect id="Rectángulo_39064" data-name="Rectángulo 39064" width="3.98" height="3.98" transform="translate(988.75 8050.29)" fill="#ececec"/>
    <rect id="Rectángulo_39065" data-name="Rectángulo 39065" width="3.98" height="3.98" transform="translate(998.54 8050.29)" fill="#e1e1e1"/>
    <rect id="Rectángulo_39066" data-name="Rectángulo 39066" width="3.98" height="3.98" transform="translate(1008.33 8050.29)" fill="#e1e1e1"/>
    <rect id="Rectángulo_39067" data-name="Rectángulo 39067" width="3.98" height="3.98" transform="translate(1018.3 8050.11)" fill="#e1e1e1"/>
    <rect id="Rectángulo_39068" data-name="Rectángulo 39068" width="3.98" height="3.98" transform="translate(1027.91 8050.29)" fill="#e1e1e1"/>
    <rect id="Rectángulo_39069" data-name="Rectángulo 39069" width="3.98" height="3.98" transform="translate(969.17 8058.74)" fill="#e1e1e1"/>
    <rect id="Rectángulo_39070" data-name="Rectángulo 39070" width="3.98" height="3.98" transform="translate(979.14 8058.56)" fill="#e1e1e1"/>
    <rect id="Rectángulo_39071" data-name="Rectángulo 39071" width="3.98" height="3.98" transform="translate(988.75 8058.74)" fill="#e1e1e1"/>
    <rect id="Rectángulo_39072" data-name="Rectángulo 39072" width="3.98" height="3.98" transform="translate(998.54 8058.74)" fill="#ececec"/>
    <rect id="Rectángulo_39073" data-name="Rectángulo 39073" width="3.98" height="3.98" transform="translate(1008.33 8058.74)" fill="#e1e1e1"/>
    <rect id="Rectángulo_39074" data-name="Rectángulo 39074" width="3.98" height="3.98" transform="translate(1018.12 8058.74)" fill="#e1e1e1"/>
    <rect id="Rectángulo_39075" data-name="Rectángulo 39075" width="3.98" height="3.98" transform="translate(1027.91 8058.74)" fill="#e1e1e1"/>
    <rect id="Rectángulo_39076" data-name="Rectángulo 39076" width="3.98" height="3.98" transform="translate(969.17 8067.2)" fill="#e1e1e1"/>
    <rect id="Rectángulo_39077" data-name="Rectángulo 39077" width="3.98" height="3.98" transform="translate(978.96 8067.2)" fill="#e1e1e1"/>
    <rect id="Rectángulo_39078" data-name="Rectángulo 39078" width="3.98" height="3.98" transform="translate(988.75 8067.2)" fill="#e1e1e1"/>
    <rect id="Rectángulo_39079" data-name="Rectángulo 39079" width="3.98" height="3.98" transform="translate(998.72 8067.02)" fill="#e1e1e1"/>
    <rect id="Rectángulo_39080" data-name="Rectángulo 39080" width="3.98" height="3.98" transform="translate(1008.33 8067.2)" fill="#e1e1e1"/>
    <rect id="Rectángulo_39081" data-name="Rectángulo 39081" width="3.98" height="3.98" transform="translate(1018.12 8067.2)" fill="#ececec"/>
    <rect id="Rectángulo_39082" data-name="Rectángulo 39082" width="3.98" height="3.98" transform="translate(1027.91 8067.2)" fill="#e1e1e1"/>
    <rect id="Rectángulo_39083" data-name="Rectángulo 39083" width="3.98" height="3.98" transform="translate(969.17 8075.65)" fill="#e1e1e1"/>
    <rect id="Rectángulo_39084" data-name="Rectángulo 39084" width="3.98" height="3.98" transform="translate(978.96 8075.65)" fill="#ececec"/>
    <rect id="Rectángulo_39085" data-name="Rectángulo 39085" width="3.98" height="3.98" transform="translate(988.75 8075.65)" fill="#e1e1e1"/>
    <rect id="Rectángulo_39086" data-name="Rectángulo 39086" width="3.98" height="3.98" transform="translate(998.54 8075.65)" fill="#e1e1e1"/>
    <rect id="Rectángulo_39087" data-name="Rectángulo 39087" width="3.98" height="3.98" transform="translate(1008.33 8075.65)" fill="#e1e1e1"/>
    <rect id="Rectángulo_39088" data-name="Rectángulo 39088" width="3.98" height="3.98" transform="translate(1018.3 8075.47)" fill="#e1e1e1"/>
    <rect id="Rectángulo_39089" data-name="Rectángulo 39089" width="3.98" height="3.98" transform="translate(1027.91 8075.65)" fill="#e1e1e1"/>
    <path id="Trazado_186528" data-name="Trazado 186528" d="M495,251.31V240.85c0-6.81,0-16.78-.07-29.51,0-25.42-.08-61.81-.14-105.7l.27.26L312,106h0l.31-.31V251.36L312,251l132.26.14,37.46.07h.12l-37.4.07L312,251.59h-.29V105.32H312l183.08.05h.26v.27c-.06,44-.11,80.4-.14,105.87,0,12.7-.05,22.65-.07,29.45v7.72A20.727,20.727,0,0,1,495,251.31Z" transform="translate(833 7822)" fill="#e1e1e1"/>
    <g id="Grupo_92893" data-name="Grupo 92893" transform="translate(833 7822)">
      <rect id="Rectángulo_39090" data-name="Rectángulo 39090" width="6.62" height="73.94" transform="translate(335.61 132.63)" fill="#e1e1e1"/>
      <rect id="Rectángulo_39091" data-name="Rectángulo 39091" width="6.62" height="48.82" transform="translate(348.4 157.75)" fill="#ececec"/>
      <rect id="Rectángulo_39092" data-name="Rectángulo 39092" width="6.62" height="65.12" transform="translate(361.18 141.82)" fill="#e1e1e1"/>
      <rect id="Rectángulo_39093" data-name="Rectángulo 39093" width="6.62" height="71.08" transform="translate(373.96 135.49)" fill="#ececec"/>
      <rect id="Rectángulo_39094" data-name="Rectángulo 39094" width="6.62" height="47.32" transform="translate(386.74 159.25)" fill="#e1e1e1"/>
      <rect id="Rectángulo_39095" data-name="Rectángulo 39095" width="6.62" height="38.04" transform="translate(399.52 168.53)" fill="#ececec"/>
      <rect id="Rectángulo_39096" data-name="Rectángulo 39096" width="6.62" height="66.35" transform="translate(412.3 140.22)" fill="#e1e1e1"/>
      <rect id="Rectángulo_39097" data-name="Rectángulo 39097" width="6.62" height="54.39" transform="translate(425.08 152.18)" fill="#ececec"/>
      <rect id="Rectángulo_39098" data-name="Rectángulo 39098" width="6.62" height="63.94" transform="translate(437.86 142.63)" fill="#e1e1e1"/>
      <rect id="Rectángulo_39099" data-name="Rectángulo 39099" width="6.62" height="43.56" transform="translate(450.65 163.01)" fill="#ececec"/>
      <rect id="Rectángulo_39100" data-name="Rectángulo 39100" width="6.62" height="51.85" transform="translate(463.43 154.72)" fill="#e1e1e1"/>
      <path id="Trazado_186529" data-name="Trazado 186529" d="M472.75,211.72c0,.15-31.4.27-70.13.27s-70.14-.12-70.14-.27,31.4-.27,70.14-.27S472.75,211.57,472.75,211.72Z" fill="#e1e1e1"/>
      <path id="Trazado_186530" data-name="Trazado 186530" d="M345.06,217.54a44.871,44.871,0,0,1-9.83,0,44.87,44.87,0,0,1,9.83,0Z" fill="#e1e1e1"/>
      <path id="Trazado_186531" data-name="Trazado 186531" d="M361.35,217.84a63.939,63.939,0,0,1-11.74,0,61.668,61.668,0,0,1,11.74,0Z" fill="#e1e1e1"/>
      <path id="Trazado_186532" data-name="Trazado 186532" d="M375.25,217.84a63.939,63.939,0,0,1-11.74,0,61.668,61.668,0,0,1,11.74,0Z" fill="#e1e1e1"/>
      <path id="Trazado_186533" data-name="Trazado 186533" d="M389.15,217.84a63.94,63.94,0,0,1-11.74,0,61.668,61.668,0,0,1,11.74,0Z" fill="#e1e1e1"/>
      <path id="Trazado_186534" data-name="Trazado 186534" d="M403.06,217.84a64.05,64.05,0,0,1-11.75,0,61.779,61.779,0,0,1,11.75,0Z" fill="#e1e1e1"/>
      <path id="Trazado_186535" data-name="Trazado 186535" d="M417,217.84a64.05,64.05,0,0,1-11.75,0,61.78,61.78,0,0,1,11.75,0Z" fill="#e1e1e1"/>
      <path id="Trazado_186536" data-name="Trazado 186536" d="M430.86,217.84a64.05,64.05,0,0,1-11.75,0,61.779,61.779,0,0,1,11.75,0Z" fill="#e1e1e1"/>
      <path id="Trazado_186537" data-name="Trazado 186537" d="M444.76,217.84a64.05,64.05,0,0,1-11.75,0,61.779,61.779,0,0,1,11.75,0Z" fill="#e1e1e1"/>
      <path id="Trazado_186538" data-name="Trazado 186538" d="M458.66,217.84a64.05,64.05,0,0,1-11.75,0,61.779,61.779,0,0,1,11.75,0Z" fill="#e1e1e1"/>
      <path id="Trazado_186539" data-name="Trazado 186539" d="M472.56,217.84a64.051,64.051,0,0,1-11.75,0,61.778,61.778,0,0,1,11.75,0Z" fill="#e1e1e1"/>
    </g>
    <rect id="Rectángulo_39101" data-name="Rectángulo 39101" width="194.15" height="5.48" transform="translate(1139.08 7926.77)" fill="#ececec"/>
    <g id="Grupo_92895" data-name="Grupo 92895" transform="translate(833 7822)">
      <path id="Trazado_186540" data-name="Trazado 186540" d="M143.16,257.83l-1.28-4.48,2.57.13.23,4.13Z" fill="#e1e1e1"/>
      <path id="Trazado_186541" data-name="Trazado 186541" d="M139.43,257.7l-2.93,15.87-7.39,20.97,41.67-6.01-16.82-18.3-7.02-13.62-7.51,1.09" fill="#e1e1e1"/>
    </g>
    <g id="Grupo_92896" data-name="Grupo 92896" transform="translate(833 7822)">
      <path id="Trazado_186542" data-name="Trazado 186542" d="M57.47,369.05v-.66a13.23,13.23,0,1,1,26.45,0v.66Z" fill="#e1e1e1"/>
      <path id="Trazado_186543" data-name="Trazado 186543" d="M70.66,355.69a.52.52,0,0,1-.5-.39L52.63,288.51a.53.53,0,0,1,1-.27L71.17,355a.52.52,0,0,1-.37.64Z" fill="#e1e1e1"/>
      <path id="Trazado_186544" data-name="Trazado 186544" d="M66,357.34a.51.51,0,0,1-.5-.39L48,290.16a.53.53,0,1,1,1-.26l17.52,66.78a.53.53,0,0,1-.37.65Z" fill="#e1e1e1"/>
      <path id="Trazado_186545" data-name="Trazado 186545" d="M47.19,289a3.31,3.31,0,1,0,3.31-3.31A3.31,3.31,0,0,0,47.19,289Z" fill="#e1e1e1"/>
      <path id="Trazado_186546" data-name="Trazado 186546" d="M50.79,289.47l-.59-.86,62.1-42.84,36.32,20.66-.52.91-35.75-20.33Z" fill="#e1e1e1"/>
      <rect id="Rectángulo_39102" data-name="Rectángulo 39102" width="74.38" height="1.05" transform="translate(53.523 290.916) rotate(-34.7)" fill="#e1e1e1"/>
      <path id="Trazado_186547" data-name="Trazado 186547" d="M110.34,248a3,3,0,1,0,3-3,3,3,0,0,0-3,3Z" fill="#e1e1e1"/>
    </g>
    <path id="Trazado_186548" data-name="Trazado 186548" d="M143.68,91.37,90.47,109.24H210.69L160.73,91.37Z" transform="translate(833 7822)" fill="#e1e1e1"/>
    <path id="Trazado_186549" data-name="Trazado 186549" d="M158.61,108a29.193,29.193,0,0,0-.4,3.14,15.62,15.62,0,0,0,2,8.26c.82,1.62,1.9,3.34,2.74,5.36a11.77,11.77,0,0,1,.7,6.91,12.45,12.45,0,0,1-3.74,6.7,11.51,11.51,0,0,1-7.68,2.93A11.753,11.753,0,0,1,141,125.16a22.771,22.771,0,0,1,3.2-5.14,20.6,20.6,0,0,0,2.61-4.14,9.35,9.35,0,0,0,.83-3.56,6.67,6.67,0,0,0-.71-3,3,3,0,0,1,.44.71,5.89,5.89,0,0,1,.52,2.32,9.29,9.29,0,0,1-.76,3.7,20.16,20.16,0,0,1-2.57,4.27,22.559,22.559,0,0,0-3.07,5.06,11.631,11.631,0,0,0,3.37,12.84,11.44,11.44,0,0,0,7.38,2.5,10.86,10.86,0,0,0,7.26-2.75,11.93,11.93,0,0,0,3.59-6.36,11.32,11.32,0,0,0-.62-6.59c-.79-2-1.84-3.7-2.65-5.36a15.35,15.35,0,0,1-1.83-8.47,13.3,13.3,0,0,1,.38-2.35,3.191,3.191,0,0,1,.24-.84Z" transform="translate(833 7822)" fill="#e1e1e1"/>
    <path id="Trazado_186550" data-name="Trazado 186550" d="M154.22,109.16a19.139,19.139,0,0,1-.33,2.24,60,60,0,0,0-.61,6.1,49,49,0,0,0,.4,9,2,2,0,0,0,.49,1,1,1,0,0,0,.93.33c.65-.14,1-1.14.87-1.92a3.89,3.89,0,0,0-3.71-3.24,3.85,3.85,0,0,0-3.78,3.13,1.7,1.7,0,0,0,1,1.91,1.49,1.49,0,0,0,1.73-1,7.37,7.37,0,0,0,.41-2.37c.06-.8.08-1.59.1-2.35,0-1.52-.06-2.93-.18-4.22a41.861,41.861,0,0,0-1-6,21.8,21.8,0,0,1-.53-2.19,2,2,0,0,1,.24.53c.14.36.32.9.53,1.6a35.761,35.761,0,0,1,1.23,6,37.208,37.208,0,0,1,.25,4.27c0,.77,0,1.57-.07,2.39a7.44,7.44,0,0,1-.43,2.56,2.52,2.52,0,0,1-.92,1.13,1.81,1.81,0,0,1-1.54.22,2.32,2.32,0,0,1-1.42-2.56,4.418,4.418,0,0,1,8.73.09,3,3,0,0,1-.19,1.53,1.74,1.74,0,0,1-1.17,1.08,1.64,1.64,0,0,1-1.49-.51,2.62,2.62,0,0,1-.63-1.31,46.48,46.48,0,0,1-.28-9.18,47.131,47.131,0,0,1,.82-6.13c.15-.71.28-1.26.38-1.63a2.1,2.1,0,0,1,.17-.5Z" transform="translate(833 7822)" fill="#e1e1e1"/>
    <path id="Trazado_186551" data-name="Trazado 186551" d="M152.22,0a5.552,5.552,0,0,1,.06.92c0,.66,0,1.54.06,2.63,0,2.35.06,5.64.1,9.67,0,8.24.06,19.49.1,31.93s-.07,23.7-.1,31.93c0,4-.07,7.32-.1,9.67,0,1.1,0,2-.06,2.63a5.4,5.4,0,0,1-.06.92,4.65,4.65,0,0,1-.07-.92c0-.66,0-1.53-.06-2.63,0-2.35-.05-5.64-.1-9.67,0-8.23-.05-19.49-.09-31.93s.07-23.69.09-31.93c0-4,.08-7.32.1-9.67,0-1.1,0-2,.06-2.63a4.77,4.77,0,0,1,.07-.92Z" transform="translate(833 7822)" fill="#e1e1e1"/>
    <path id="Trazado_186552" data-name="Trazado 186552" d="M143.68,91.37l3.29-14.77h10.97l2.79,14.77Z" transform="translate(833 7822)" fill="#e1e1e1"/>
    <g id="Grupo_92899" data-name="Grupo 92899" transform="translate(833 7822)">
      <path id="Trazado_186553" data-name="Trazado 186553" d="M321.89,217.54h0c2.58-3.72,4-6.52,5.81-8.87,2.24-2.89,3-4.24,2.39-4.63-.76-.51-.44-.35-5.26,4.33,0,0,6.82-6.74,4.2-6.44-1.17.13-6.9,5.68-6.9,5.68,5-4,6.26-6.35,5.61-7.07-.94-1-7.84,5.73-7.84,5.73s5.37-5.07,6-6.25-.95-.89-2.21-.27c-1.42.7-9.08,5.92-11.36,7.31a1.58,1.58,0,0,1-2.36-.48c-1.37-3.64-4.38-5.74-5.46-5.92a1.19,1.19,0,0,0-.84,2.1,14.52,14.52,0,0,1,2.05,3.36,9.39,9.39,0,0,1,.88,3c.13,1.21.2,2.25.23,3.13l-3.47,19.37,12.2,8.59Z" fill="#c78976"/>
      <path id="Trazado_186554" data-name="Trazado 186554" d="M322,211.26a34.55,34.55,0,0,0,6.44-6.57,17.449,17.449,0,0,0-3.44,3.07C323.22,209.57,321.87,211.14,322,211.26Z" fill="#bf654e"/>
      <path id="Trazado_186555" data-name="Trazado 186555" d="M320,209.6c.12.12,1.84-1.25,3.85-3.07a20.54,20.54,0,0,0,3.44-3.52c-.11-.13-1.84,1.25-3.85,3.07S319.88,209.47,320,209.6Z" fill="#bf654e"/>
      <path id="Trazado_186556" data-name="Trazado 186556" d="M317.93,207.86c.11.13,1.77-1.15,3.69-2.84a18.349,18.349,0,0,0,3.29-3.3c-.11-.13-1.77,1.14-3.69,2.84S317.82,207.73,317.93,207.86Z" fill="#bf654e"/>
    </g>
    <g id="Grupo_92907" data-name="Grupo 92907" transform="translate(833 7822)">
      <g id="Grupo_92906" data-name="Grupo 92906">
        <g id="Grupo_92900" data-name="Grupo 92900">
          <path id="Trazado_186557" data-name="Trazado 186557" d="M238.06,157.92a18,18,0,0,1,19.33,16.82c.5,8.34,1,17.37.9,21.92-.12,9.76-9.88,11.27-9.88,11.27s1.4,17,1.25,19.7l-25.82,1.18-2.34-52.17a18,18,0,0,1,16.56-18.72Z" fill="#c78976"/>
          <path id="Trazado_186558" data-name="Trazado 186558" d="M248.43,207.79a22.72,22.72,0,0,1-12.72-3.61s3,7,12.74,6.14Z" fill="#bf654e"/>
        </g>
        <g id="Grupo_92901" data-name="Grupo 92901">
          <path id="Trazado_186559" data-name="Trazado 186559" d="M222.4,180c-.17-.07-6.71-2-6.5,4.69s6.87,5.08,6.88,4.89S222.4,180,222.4,180Z" fill="#c78976"/>
          <path id="Trazado_186560" data-name="Trazado 186560" d="M220.66,187.11a2.4,2.4,0,0,1-.31.18,1.18,1.18,0,0,1-.87.05,2.89,2.89,0,0,1-1.41-2.54,3.81,3.81,0,0,1,.27-1.68,1.38,1.38,0,0,1,.85-.92.59.59,0,0,1,.69.3c.1.18.06.32.1.33s.14-.12.07-.39a.72.72,0,0,0-.27-.41.88.88,0,0,0-.65-.15A1.64,1.64,0,0,0,218,183a3.83,3.83,0,0,0-.34,1.88,3,3,0,0,0,1.78,2.82,1.22,1.22,0,0,0,1.06-.21C220.65,187.27,220.68,187.12,220.66,187.11Z" fill="#bf654e"/>
        </g>
        <g id="Grupo_92905" data-name="Grupo 92905">
          <g id="Grupo_92904" data-name="Grupo 92904">
            <g id="Grupo_92902" data-name="Grupo 92902">
              <path id="Trazado_186561" data-name="Trazado 186561" d="M254.91,181a1.38,1.38,0,0,1-1.34,1.4,1.34,1.34,0,0,1-1.44-1.25,1.4,1.4,0,0,1,1.35-1.41,1.33,1.33,0,0,1,1.43,1.26Z" fill="#12263f"/>
              <path id="Trazado_186562" data-name="Trazado 186562" d="M254.88,178.22c-.18.18-1.23-.6-2.73-.6s-2.6.75-2.76.57.09-.41.57-.76a3.84,3.84,0,0,1,2.21-.68,3.7,3.7,0,0,1,2.17.7C254.8,177.81,255,178.13,254.88,178.22Z" fill="#12263f"/>
            </g>
            <g id="Grupo_92903" data-name="Grupo 92903">
              <path id="Trazado_186563" data-name="Trazado 186563" d="M240.17,181a1.38,1.38,0,0,1-1.34,1.4,1.34,1.34,0,0,1-1.44-1.25,1.39,1.39,0,0,1,1.34-1.41,1.33,1.33,0,0,1,1.44,1.26Z" fill="#12263f"/>
              <path id="Trazado_186564" data-name="Trazado 186564" d="M240.13,178.5c-.17.18-1.23-.6-2.73-.6s-2.59.75-2.76.57.1-.41.58-.76a3.81,3.81,0,0,1,2.21-.68,3.72,3.72,0,0,1,2.17.7C240.06,178.09,240.22,178.41,240.13,178.5Z" fill="#12263f"/>
            </g>
            <path id="Trazado_186565" data-name="Trazado 186565" d="M245.58,189.62a9.35,9.35,0,0,1,2.43-.44c.39,0,.75-.12.81-.38a2,2,0,0,0-.25-1.13l-1.14-2.92c-1.57-4.15-2.71-7.57-2.54-7.63s1.58,3.26,3.15,7.41c.38,1,.74,2,1.09,2.93a2.28,2.28,0,0,1,.2,1.5,1,1,0,0,1-.63.56,2.389,2.389,0,0,1-.65.09A9.81,9.81,0,0,1,245.58,189.62Z" fill="#12263f"/>
            <path id="Trazado_186566" data-name="Trazado 186566" d="M241.16,190.66c.25,0,.25,1.61,1.64,2.76s3.13,1,3.14,1.21-.38.32-1.12.33a4,4,0,0,1-2.62-.91,3.54,3.54,0,0,1-1.27-2.32C240.87,191.05,241.05,190.65,241.16,190.66Z" fill="#12263f"/>
          </g>
          <path id="Trazado_186567" data-name="Trazado 186567" d="M240.52,172.62c-.15.41-1.64.21-3.4.43s-3.19.69-3.42.32c-.1-.17.14-.56.72-1a5.64,5.64,0,0,1,2.53-.89,5.76,5.76,0,0,1,2.66.31C240.26,172.1,240.58,172.42,240.52,172.62Z" fill="#12263f"/>
          <path id="Trazado_186568" data-name="Trazado 186568" d="M254.32,173.88c-.26.34-1.29,0-2.54,0s-2.29.22-2.53-.13c-.11-.17.06-.52.52-.84a3.609,3.609,0,0,1,4.06.13C254.3,173.36,254.44,173.71,254.32,173.88Z" fill="#12263f"/>
        </g>
      </g>
      <path id="Trazado_186569" data-name="Trazado 186569" d="M221.76,179.83a10.119,10.119,0,0,0,0,3.06,3.49,3.49,0,0,0,1.7,2.43c1.68.84,3.78-.44,4.53-2.16s.55-3.67.38-5.54a26.781,26.781,0,0,1,.11-7.64,11,11,0,0,1,3.66-6.54,7,7,0,0,1,7.19-1c1.42.7,2.48,1.94,3.8,2.8a5.83,5.83,0,0,0,4,1,3.78,3.78,0,0,0,3.09-2.58,4.1,4.1,0,0,0-1.57-4.09,9.39,9.39,0,0,0-4.26-1.71,22.83,22.83,0,0,0-12.66,1,16.48,16.48,0,0,0-9.19,8.54c-1.94,4.57-.63,8.19-.92,13.26" fill="#12263f"/>
    </g>
    <g id="Grupo_92909" data-name="Grupo 92909" transform="translate(833 7822)">
      <g id="Grupo_92908" data-name="Grupo 92908">
        <path id="Trazado_186570" data-name="Trazado 186570" d="M320.9,223.15l-16-3.85-10.5,28.58-29.11-26h0c-3.1-2.27-8.44-2.55-12.5-3.05h-.31c-1.57-.19-2.35-.41-3.29-.53-7,5.28-19,5.62-25.92.17,0,0-5.23,1.19-8.35,1.78-9.83,1.89-16.9,9.05-18.87,15.66l12.31,28.38,2.35,26.95-6.81,24.14a4.19,4.19,0,0,0,3.5,5.29l61,.93,1-.49c1.28-2.37,2.24-5.1,1.64-7.72-2.64-11.55-.8-46-1.35-56.57,12,11.61,25.14,21.25,34.79,15.28C312.45,267.05,320.9,223.15,320.9,223.15Z" fill="#e1e1e1"/>
        <path id="Trazado_186571" data-name="Trazado 186571" d="M223.73,217.71Z" fill="#2dac9e"/>
      </g>
      <path id="Trazado_186572" data-name="Trazado 186572" d="M221.3,220.15l1.41-9.75L236,215.27l3.75,6.61,2.33-7.25,7.29-2.51,3.11,6.49-5.34,7.56L237.1,228.2Z" fill="#e1e1e1"/>
      <path id="Trazado_186573" data-name="Trazado 186573" d="M240,223.39a3.153,3.153,0,0,1-.5-.4,14.666,14.666,0,0,1-1.21-1.31,19.629,19.629,0,0,1-3.21-5.53h.49c-.91,2.29-2,4.92-3.07,7.73l-1.55,3.82-.16.4-.31-.3c-2.68-2.59-5-4.86-6.63-6.49l-1.89-1.94c-.44-.46-.67-.72-.64-.75a3.81,3.81,0,0,1,.77.61l2,1.81c1.7,1.56,4.07,3.77,6.78,6.34l-.48.1c.49-1.21,1-2.5,1.53-3.82l3.14-7.71.26-.63.23.64a21.939,21.939,0,0,0,3,5.52C239.41,222.71,240,223.35,240,223.39Z" fill="#12263f"/>
      <path id="Trazado_186574" data-name="Trazado 186574" d="M252.48,218.61a10.3,10.3,0,0,1-1.56,2.14,21.34,21.34,0,0,1-5.08,4.48l-.3.18-.12-.33c-.43-1.19-.93-2.47-1.47-3.79-.8-2-1.54-3.88-2.12-5.56h.51c-.44,2.2-1,4-1.31,5.27a11.62,11.62,0,0,1-.58,2,8.67,8.67,0,0,1,.27-2.07c.24-1.3.71-3.12,1.09-5.3l.18-1,.34.93c.61,1.65,1.38,3.52,2.18,5.51.53,1.33,1,2.62,1.45,3.82l-.41-.15a24.2,24.2,0,0,0,5.11-4.21,22.523,22.523,0,0,1,1.82-1.92Z" fill="#12263f"/>
      <path id="Trazado_186575" data-name="Trazado 186575" d="M244.8,322.72a5.929,5.929,0,0,1,.07-1c.07-.72.18-1.69.31-2.9s.26-2.81.39-4.6c.06-.9.13-1.86.2-2.87s.09-2.1.13-3.23c.21-4.53.2-9.92.09-15.91s-.49-12.56-1-19.46c-1-13.79-2.35-26.24-3.38-35.25-.51-4.46-.92-8.09-1.22-10.66-.13-1.22-.23-2.19-.31-2.9a7.768,7.768,0,0,1-.07-1,5.909,5.909,0,0,1,.19,1c.11.71.25,1.67.43,2.89.35,2.51.84,6.14,1.4,10.64,1.14,9,2.56,21.45,3.56,35.26.47,6.91.79,13.49.91,19.49s0,11.41-.22,15.94c-.06,1.13-.11,2.21-.17,3.23s-.17,2-.25,2.88c-.16,1.79-.29,3.34-.49,4.59s-.32,2.18-.42,2.89A8,8,0,0,1,244.8,322.72Z" fill="#12263f"/>
      <path id="Trazado_186576" data-name="Trazado 186576" d="M294.06,258.91a28.809,28.809,0,0,1-.3-5.8,28.75,28.75,0,0,1,.3-5.79c.17,0,.3,2.6.3,5.79S294.23,258.91,294.06,258.91Z" fill="#12263f"/>
      <path id="Trazado_186577" data-name="Trazado 186577" d="M298.13,259.65c0,.54-.81-1-2.6-6a26.4,26.4,0,0,1-1.61-6.31,64.3,64.3,0,0,1,2.18,6.12C297.28,256.84,298.29,259.58,298.13,259.65Z" fill="#12263f"/>
    </g>
    <g id="Grupo_92912" data-name="Grupo 92912" transform="translate(833 7822)">
      <g id="Grupo_92911" data-name="Grupo 92911">
        <path id="Trazado_186578" data-name="Trazado 186578" d="M258.79,526.77l-.93,22.13s22.19,8.37,22.42,12.48l-43-.25V526.59Z" fill="#051930"/>
        <path id="Trazado_186579" data-name="Trazado 186579" d="M244.59,547a1.75,1.75,0,0,0-1.23,2,1.69,1.69,0,0,0,2,1.23,1.84,1.84,0,0,0,1.28-2.12,1.74,1.74,0,0,0-2.18-1.06" fill="#e1e1e1"/>
        <g id="Grupo_92910" data-name="Grupo 92910" opacity="0.6">
          <path id="Trazado_186580" data-name="Trazado 186580" d="M237.3,561.13l.14-3.48,41.15,1.54s1.91.84,1.69,2.19Z" fill="#fff"/>
        </g>
        <path id="Trazado_186581" data-name="Trazado 186581" d="M258.56,548.69c0,.21-1.06.3-2.09,1s-1.59,1.55-1.79,1.47.13-1.3,1.4-2.08S258.61,548.49,258.56,548.69Z" fill="#12263f"/>
        <path id="Trazado_186582" data-name="Trazado 186582" d="M263.06,550.58c.05.2-.87.55-1.58,1.44s-.93,1.82-1.14,1.81-.34-1.2.58-2.28S263.06,550.38,263.06,550.58Z" fill="#12263f"/>
        <path id="Trazado_186583" data-name="Trazado 186583" d="M265.59,556c-.19,0-.48-1,.07-2.16s1.53-1.59,1.61-1.42-.52.79-.95,1.74S265.8,556,265.59,556Z" fill="#12263f"/>
        <path id="Trazado_186584" data-name="Trazado 186584" d="M258.21,543.62c-.09.19-1-.1-2.23,0s-2.12.44-2.23.26.79-.92,2.19-1S258.32,543.46,258.21,543.62Z" fill="#12263f"/>
      </g>
      <path id="Trazado_186585" data-name="Trazado 186585" d="M258.32,539.15a4.059,4.059,0,0,1-2.16,0,9.672,9.672,0,0,1-2.24-.71,9.223,9.223,0,0,1-1.23-.66,2.58,2.58,0,0,1-.65-.51.92.92,0,0,1-.09-1.12,1.12,1.12,0,0,1,.92-.47,3.169,3.169,0,0,1,.81.11,7.441,7.441,0,0,1,1.33.47,7.569,7.569,0,0,1,2,1.32c1,.92,1.33,1.71,1.26,1.75s-.58-.59-1.59-1.36a8.588,8.588,0,0,0-1.92-1.09,7.378,7.378,0,0,0-1.23-.39c-.45-.12-.84-.13-1,.07s-.05.11,0,.25a2.478,2.478,0,0,0,.47.37,9.444,9.444,0,0,0,1.14.65,11.089,11.089,0,0,0,2.07.81,17.645,17.645,0,0,1,2.11.51Z" fill="#12263f"/>
      <path id="Trazado_186586" data-name="Trazado 186586" d="M258,539.45a3.491,3.491,0,0,1-.55-2.08,6.909,6.909,0,0,1,.3-2.36,7.3,7.3,0,0,1,.56-1.3,1.77,1.77,0,0,1,1.38-1.08,1,1,0,0,1,.89.61,2.629,2.629,0,0,1,.22.79,4.69,4.69,0,0,1,0,1.45,4.93,4.93,0,0,1-.93,2.21c-.84,1.11-1.72,1.36-1.74,1.29a8.778,8.778,0,0,0,1.31-1.58,4.919,4.919,0,0,0,.7-2,4.4,4.4,0,0,0,0-1.25c-.06-.45-.23-.82-.4-.78a1.561,1.561,0,0,0-.76.7,7.633,7.633,0,0,0-.54,1.17,8,8,0,0,0-.43,2.14C257.94,538.63,258.16,539.42,258,539.45Z" fill="#12263f"/>
    </g>
    <g id="Grupo_92915" data-name="Grupo 92915" transform="translate(833 7822)">
      <path id="Trazado_186587" data-name="Trazado 186587" d="M184.66,520.16l-7,27.7-11.84,20.32a2.92,2.92,0,0,0,1.23,4.1h0a2.92,2.92,0,0,0,2.68,0c5.31-2.86,24.82-13.51,25.21-15.57.46-2.38,9.3-28.73,9.3-28.73Z" fill="#051930"/>
      <g id="Grupo_92913" data-name="Grupo 92913" opacity="0.6">
        <path id="Trazado_186588" data-name="Trazado 186588" d="M167.07,572.38l28.41-17.48-.33,1.17a4.44,4.44,0,0,1-1.76,2.48c-2.32,1.57-8.81,5.77-23.56,13.81a2.93,2.93,0,0,1-2.76,0Z" fill="#fff"/>
      </g>
      <g id="Grupo_92914" data-name="Grupo 92914" opacity="0.6">
        <path id="Trazado_186589" data-name="Trazado 186589" d="M192.28,544.46a1.78,1.78,0,0,0-1.08,2.1,1.7,1.7,0,0,0,2.07,1.09,1.87,1.87,0,0,0,1.14-2.23,1.77,1.77,0,0,0-2.29-.89" fill="#fff"/>
      </g>
      <path id="Trazado_186590" data-name="Trazado 186590" d="M176.69,562.09a8.666,8.666,0,0,0-1.82-2.81,10.356,10.356,0,0,0-3-1.49c0-.18.41-.19,1.08-.1a4.69,4.69,0,0,1,3.73,3.32C176.83,561.66,176.76,562.08,176.69,562.09Z" fill="#12263f"/>
      <path id="Trazado_186591" data-name="Trazado 186591" d="M173.71,565.23c-.17.08-.8-1.06-2.11-1.86s-2.6-.9-2.6-1.09,1.45-.38,2.93.56S173.87,565.2,173.71,565.23Z" fill="#12263f"/>
      <path id="Trazado_186592" data-name="Trazado 186592" d="M181.64,558.37c-.16.09-1.13-1.66-3.06-3.09s-3.87-1.89-3.82-2.08,2.15,0,4.2,1.58S181.8,558.33,181.64,558.37Z" fill="#12263f"/>
      <path id="Trazado_186593" data-name="Trazado 186593" d="M184.47,550.13c-.12.14-1.46-.91-3.42-1.53s-3.66-.58-3.68-.77a5.73,5.73,0,0,1,3.87.17C183.34,548.67,184.59,550,184.47,550.13Z" fill="#12263f"/>
      <path id="Trazado_186594" data-name="Trazado 186594" d="M186.72,542.05a13.639,13.639,0,0,0-3.52-1.69c-2.1-.53-3.85.09-3.9-.09s.37-.33,1.1-.53a6.4,6.4,0,0,1,5.58,1.34C186.55,541.59,186.78,542,186.72,542.05Z" fill="#12263f"/>
      <path id="Trazado_186595" data-name="Trazado 186595" d="M183.68,538.84a2.32,2.32,0,0,1,.25-1.06,7.41,7.41,0,0,1,1.58-2.49,3.34,3.34,0,0,1,1.8-1.16,1.19,1.19,0,0,1,1.21.61,1.94,1.94,0,0,1,.09,1.36,4.15,4.15,0,0,1-4.52,2.73,4.79,4.79,0,0,1-3.87-3.68,1.66,1.66,0,0,1,.29-1.35,1.14,1.14,0,0,1,1.33-.27,4.109,4.109,0,0,1,1.55,1.44,8.289,8.289,0,0,1,1.29,2.66,2.55,2.55,0,0,1,.16,1.07,13.23,13.23,0,0,0-1.8-3.46,3.82,3.82,0,0,0-1.39-1.23.62.62,0,0,0-.72.15,1.13,1.13,0,0,0-.14.9,4.29,4.29,0,0,0,3.4,3.15,3.59,3.59,0,0,0,3.86-2.26,1.42,1.42,0,0,0,0-1,.65.65,0,0,0-.66-.34,3,3,0,0,0-1.55,1,11,11,0,0,0-2.16,3.23Z" fill="#12263f"/>
    </g>
    <path id="Trazado_186596" data-name="Trazado 186596" d="M234.15,219.71l3.01,1.58-.56,5.08-4.7-.99Z" transform="translate(833 7822)" fill="#2dac9e"/>
    <g id="Grupo_92917" data-name="Grupo 92917" transform="translate(833 7822)">
      <g id="Grupo_92916" data-name="Grupo 92916" opacity="0.4">
        <path id="Trazado_186597" data-name="Trazado 186597" d="M234.15,219.71l3.01,1.58-.56,5.08-4.7-.99Z"/>
      </g>
      <path id="Trazado_186598" data-name="Trazado 186598" d="M241.06,220.97l2.29-2.01,2.08,5.32-2.99,1.43Z" fill="#2dac9e"/>
      <path id="Trazado_186599" data-name="Trazado 186599" d="M237.72,227.6l-1.4,60.06,10.15,10.04,4.91-13.33-9.75-57.08Z" fill="#2dac9e"/>
      <path id="Trazado_186600" data-name="Trazado 186600" d="M237.79,219.43c.69-.08,1.65-.27,2.4-.43a1.68,1.68,0,0,1,1.82.84l1.28,2.36a1.71,1.71,0,0,1,.17,1.11l-.52,2.66a1.68,1.68,0,0,1-1.31,1.32l-2.89.58a1.66,1.66,0,0,1-1.82-.88l-1.45-2.86a1.67,1.67,0,0,1,0-1.43l1-2.28a1.68,1.68,0,0,1,1.32-.99Z" fill="#2dac9e"/>
      <path id="Trazado_186601" data-name="Trazado 186601" d="M242,220.07a7.46,7.46,0,0,1-.77,1c-.5.57-1.2,1.35-2,2.2s-1.5,1.61-2,2.15a6.619,6.619,0,0,1-.89.85,5.739,5.739,0,0,1,.77-1c.5-.57,1.2-1.35,2-2.2s1.5-1.62,2-2.16a6.07,6.07,0,0,1,.89-.84Z" fill="#12263f"/>
      <path id="Trazado_186602" data-name="Trazado 186602" d="M239,222.84a7.33,7.33,0,0,1-1.4-1.18,7.07,7.07,0,0,1-1.23-1.35,6.9,6.9,0,0,1,1.4,1.18,6.75,6.75,0,0,1,1.23,1.35Z" fill="#12263f"/>
      <path id="Trazado_186603" data-name="Trazado 186603" d="M242.43,226.68a35.006,35.006,0,0,1,.72-3.47,3.43,3.43,0,0,0-.72-2.25,2.05,2.05,0,0,1-.36-1,5.743,5.743,0,0,0,.5.9,9.457,9.457,0,0,1,.59,1,2.28,2.28,0,0,1,.23,1.41c-.2,1-.46,1.81-.62,2.44a4.6,4.6,0,0,1-.34.97Z" fill="#12263f"/>
    </g>
    <g id="Grupo_92918" data-name="Grupo 92918" transform="translate(833 7822)">
      <path id="Trazado_186604" data-name="Trazado 186604" d="M268.36,321.38l-4.26,220.5a2.7,2.7,0,0,1-2.73,2.65l-25.68-.23a2.7,2.7,0,0,1-2.68-2.76l4-189.78L203.58,540.14a4.86,4.86,0,0,1-4.94,4l-21.54-.75a4.85,4.85,0,0,1-4.63-5.59L206.3,320.47Z" fill="#12263f"/>
      <path id="Trazado_186605" data-name="Trazado 186605" d="M187.54,532.46a4.159,4.159,0,0,1,.05-.52l.24-1.51c.22-1.36.54-3.32.94-5.83.85-5.08,2.07-12.38,3.57-21.39,3-18.09,7.17-43,11.76-70.59s8.59-52.56,11.44-70.65c1.41-9,2.55-16.35,3.35-21.44.39-2.5.7-4.46.91-5.82.11-.64.2-1.15.26-1.51s.1-.52.1-.52a5.239,5.239,0,0,1,0,.53c-.05.36-.11.87-.2,1.52-.19,1.36-.46,3.32-.8,5.84-.7,5.07-1.8,12.4-3.16,21.46-2.74,18.11-6.71,43.1-11.27,70.69s-8.8,52.51-11.93,70.56c-1.58,9-2.86,16.29-3.76,21.36-.45,2.5-.81,4.45-1.05,5.81-.13.64-.22,1.14-.29,1.5A1.73,1.73,0,0,1,187.54,532.46Z" fill="#375a64"/>
      <path id="Trazado_186606" data-name="Trazado 186606" d="M253.37,533.27c-.17,0,.12-44.87.64-100.21s1.08-100.21,1.25-100.21-.12,44.86-.65,100.22S253.53,533.27,253.37,533.27Z" fill="#375a64"/>
      <path id="Trazado_186607" data-name="Trazado 186607" d="M264.88,534c0,.17-7,.3-15.64.3s-15.64-.13-15.64-.3,7-.3,15.64-.3S264.88,533.88,264.88,534Z" fill="#375a64"/>
      <path id="Trazado_186608" data-name="Trazado 186608" d="M205.11,532.85a5.343,5.343,0,0,1-1.25.12l-3.42.11-11.29.28c-4.41.09-8.4.13-11.29.1-1.45,0-2.62,0-3.43-.08a5,5,0,0,1-1.25-.11,5.236,5.236,0,0,1,1.25-.12l3.42-.12,11.29-.27c4.41-.09,8.4-.13,11.29-.1,1.45,0,2.62,0,3.43.07a4.744,4.744,0,0,1,1.25.12Z" fill="#375a64"/>
      <path id="Trazado_186609" data-name="Trazado 186609" d="M241.47,324a23.319,23.319,0,0,1-.09,3.82c-.13,2.35-.35,5.59-.64,9.17-.16,1.79-.26,3.49-.48,5.06a9.69,9.69,0,0,1-1.36,4,5.54,5.54,0,0,1-2.08,1.94,1.9,1.9,0,0,1-1,.29,6.26,6.26,0,0,0,2.7-2.47,9.72,9.72,0,0,0,1.16-3.82c.19-1.52.27-3.24.43-5,.29-3.58.58-6.82.83-9.16a21.562,21.562,0,0,1,.53-3.83Z" fill="#375a64"/>
    </g>
    <g id="Grupo_92922" data-name="Grupo 92922" transform="translate(833 7822)">
      <g id="Grupo_92919" data-name="Grupo 92919" opacity="0.3">
        <path id="Trazado_186610" data-name="Trazado 186610" d="M208.32,303a11.48,11.48,0,0,0,10,2.88c2.52-.51,4.92-1.88,7.49-1.72,2.81.19,5.14,2.16,7.7,3.32,4.8,2.17,10.39,1.48,15.47.12,2.34-.62,4.79-1.47,6.29-3.36a11.15,11.15,0,0,0,1.94-5.22,54.471,54.471,0,0,0,.76-10.36c-.05-2.17-.29-4.49-1.67-6.17a7.16,7.16,0,0,0-4.64-2.34,18.1,18.1,0,0,0-5.29.3A87.52,87.52,0,0,0,208,296.85"/>
      </g>
      <path id="Trazado_186611" data-name="Trazado 186611" d="M233,291.52s-32.26,14.42-35.54,15.14c-10.89,2.39-23.33-7.89-19.88-19.62,1.29-4.36,18.64-52.59,18.64-52.59l16.52,22.82-7,23.36,18.3-1.22Z" fill="#e1e1e1"/>
      <path id="Trazado_186612" data-name="Trazado 186612" d="M222.6,279.61a7.17,7.17,0,0,1-1.28.17l-3.53.3c-3,.23-7.2.53-12,.83h-.4l.11-.39,1.08-3.62c1.63-5.45,3.14-10.38,4.26-13.93.54-1.7,1-3.12,1.35-4.21a8.52,8.52,0,0,1,.57-1.52,8.22,8.22,0,0,1-.36,1.58c-.3,1.11-.7,2.54-1.18,4.26-1,3.59-2.46,8.53-4.09,14-.38,1.23-.74,2.44-1.09,3.61l-.29-.36c4.79-.28,9-.5,12-.64l3.54-.13a5.461,5.461,0,0,1,1.31.05Z" fill="#12263f"/>
      <path id="Trazado_186613" data-name="Trazado 186613" d="M229.44,293.4c.06.15-7,3.2-15.82,6.83s-16,6.44-16,6.29,7-3.2,15.82-6.82S229.38,293.25,229.44,293.4Z" fill="#12263f"/>
      <g id="Grupo_92921" data-name="Grupo 92921">
        <g id="Grupo_92920" data-name="Grupo 92920">
          <path id="Trazado_186614" data-name="Trazado 186614" d="M225.54,278.54,223,266.15a1.59,1.59,0,0,1,1.57-1.91l32.06.15a1.59,1.59,0,0,1,1.57,1.77l-3.31,28.38a2.21,2.21,0,0,1-2.21,1.95l-20.91-.16a2.22,2.22,0,0,1-2.13-1.67Z" fill="#375a64"/>
          <path id="Trazado_186615" data-name="Trazado 186615" d="M222.71,272h0a3.36,3.36,0,0,1,3.15,2.15c.53,1.37,1.3,3,2.15,3.43,1.57.86,4.29,1.55,5.72.85s7.16-5.85,8.16-5.28,1.86,1.86.86,3-6.3,4.58-5.3,5.73,12.17-3.9,13.88-3.45,2.72,1.5,1.72,2.19-8.59,3.55-9,4.55c0,0,11.45-3,11.88-2.29s1.15,1.86,0,2.29-11,3-11.88,3.43a20.539,20.539,0,0,1-4.41,1.29,48.01,48.01,0,0,0-4.61,1.46,10,10,0,0,1-7.12-.19l-1.16-.47a4.54,4.54,0,0,1-2.82-4.48l.23-3.9-1.24-3.22Z" fill="#c78976"/>
        </g>
        <path id="Trazado_186616" data-name="Trazado 186616" d="M242,269a1.17,1.17,0,1,1-1.16-1.16A1.17,1.17,0,0,1,242,269Z" fill="#fafafa"/>
      </g>
    </g>
    <path id="Trazado_186617" data-name="Trazado 186617" d="M379.84,369.25H283.78v-3.57h92.49a3.57,3.57,0,0,1,3.57,3.57Z" transform="translate(833 7822)" fill="#375a64"/>
    <rect id="Rectángulo_39103" data-name="Rectángulo 39103" width="73.6" height="55.67" rx="3.34" transform="translate(1116.78 8134.83)" fill="#375a64"/>
    <g id="Grupo_92926" data-name="Grupo 92926" transform="translate(833 7822)">
      <g id="Grupo_92924" data-name="Grupo 92924">
        <rect id="Rectángulo_39104" data-name="Rectángulo 39104" width="67.45" height="49.57" transform="translate(286.85 315.47)" fill="#fafafa"/>
        <path id="Trazado_186618" data-name="Trazado 186618" d="M354.3,365.05V315.43l.08.07H286.94l.1-.09v49.58l-.09-.08h-.12V315.18h67.64v.07c0,14.94,0,27.34-.05,36v12.64A5.746,5.746,0,0,1,354.3,365.05Z" fill="#12263f"/>
      </g>
      <path id="Trazado_186619" data-name="Trazado 186619" d="M344.21,328.82H297.62l.08-.08V351.7l-.08-.08h-.08V328.74h46.67Z" fill="#e1e1e1"/>
      <path id="Trazado_186620" data-name="Trazado 186620" d="M344.21,332.67c0,.05-10.43.08-23.29.08s-23.3,0-23.3-.08,10.43-.08,23.3-.08S344.21,332.62,344.21,332.67Z" fill="#e1e1e1"/>
      <path id="Trazado_186621" data-name="Trazado 186621" d="M343.87,335.74c0,.05-10.43.08-23.29.08s-23.3,0-23.3-.08,10.43-.08,23.3-.08S343.87,335.69,343.87,335.74Z" fill="#e1e1e1"/>
      <path id="Trazado_186622" data-name="Trazado 186622" d="M344.21,339s-10.43.08-23.29.08-23.3,0-23.3-.08,10.43-.09,23.3-.09S344.21,338.93,344.21,339Z" fill="#e1e1e1"/>
      <path id="Trazado_186623" data-name="Trazado 186623" d="M344.21,342.13s-10.43.08-23.29.08-23.3,0-23.3-.08,10.43-.09,23.3-.09S344.21,342.08,344.21,342.13Z" fill="#e1e1e1"/>
      <path id="Trazado_186624" data-name="Trazado 186624" d="M344.21,345.28c0,.05-10.43.08-23.29.08s-23.3,0-23.3-.08,10.43-.08,23.3-.08S344.21,345.23,344.21,345.28Z" fill="#e1e1e1"/>
      <path id="Trazado_186625" data-name="Trazado 186625" d="M297.62,348.43s10.43-.08,23.29-.08,23.3,0,23.3.08-10.43.09-23.3.09S297.62,348.48,297.62,348.43Z" fill="#e1e1e1"/>
      <path id="Trazado_186626" data-name="Trazado 186626" d="M306.85,352.05c-.05,0-.09-5.2-.09-11.61s0-11.62.09-11.62.08,5.2.08,11.62S306.89,352.05,306.85,352.05Z" fill="#e1e1e1"/>
      <path id="Trazado_186627" data-name="Trazado 186627" d="M316.19,352.05c-.05,0-.09-5.2-.09-11.61s0-11.62.09-11.62.08,5.2.08,11.62S316.23,352.05,316.19,352.05Z" fill="#e1e1e1"/>
      <path id="Trazado_186628" data-name="Trazado 186628" d="M325.53,352.05s-.09-5.2-.09-11.61,0-11.62.09-11.62.08,5.2.08,11.62S325.57,352.05,325.53,352.05Z" fill="#e1e1e1"/>
      <path id="Trazado_186629" data-name="Trazado 186629" d="M334.87,352.05c-.05,0-.08-5.2-.08-11.61s0-11.62.08-11.62.08,5.2.08,11.62S334.91,352.05,334.87,352.05Z" fill="#e1e1e1"/>
      <path id="Trazado_186630" data-name="Trazado 186630" d="M344.21,352.05s-.08-5.2-.08-11.61,0-11.62.08-11.62.08,5.2.08,11.62S344.26,352.05,344.21,352.05Z" fill="#e1e1e1"/>
      <path id="Trazado_186631" data-name="Trazado 186631" d="M344.21,332.67a2.5,2.5,0,0,1-.35.27l-1.05.74-3.91,2.7c-3.33,2.29-8,5.45-13.28,9h-.14l-4-1.34-5.37-1.82h.14l-9.36,6.28h0l-6.76,2.34-1.85.62-.49.15h-.17l.16-.07.47-.19,1.84-.69,6.71-2.44h0l9.3-6.22h.14l5.37,1.81,4,1.34h-.14c5.3-3.57,10-6.7,13.34-8.94l4-2.61,1.07-.7a2.408,2.408,0,0,1,.33-.23Z" fill="#2dac9e"/>
      <circle id="Elipse_7708" data-name="Elipse 7708" cx="0.57" cy="0.57" r="0.57" transform="translate(306.28 347.86)" fill="#2dac9e"/>
      <circle id="Elipse_7709" data-name="Elipse 7709" cx="0.57" cy="0.57" r="0.57" transform="translate(315.62 341.56)" fill="#2dac9e"/>
      <circle id="Elipse_7710" data-name="Elipse 7710" cx="0.57" cy="0.57" r="0.57" transform="translate(324.96 344.66)" fill="#2dac9e"/>
      <circle id="Elipse_7711" data-name="Elipse 7711" cx="0.57" cy="0.57" r="0.57" transform="translate(334.39 338.43)" fill="#2dac9e"/>
      <path id="Trazado_186632" data-name="Trazado 186632" d="M344.21,348.43a.36.36,0,0,1-.18-.09l-.5-.31c-.43-.29-1.07-.7-1.88-1.22l-6.85-4.52h.14l-9.32,6.28-.13.08-.09-.12-4.91-6.62-4.43-6h.24l-9.37,9.43h0l-6.94,2.25-1.89.6-.5.14c-.11,0-.17.05-.17,0l.16-.07.48-.18,1.88-.66,6.91-2.36h-.05l9.31-9.48.13-.13.12.15,4.43,6,4.91,6.63h-.22l9.36-6.22.07-.05.07.05,6.79,4.61,1.85,1.27.47.35A1,1,0,0,1,344.21,348.43Z" fill="#375a64"/>
      <circle id="Elipse_7712" data-name="Elipse 7712" cx="0.57" cy="0.57" r="0.57" transform="translate(315.62 335.25)" fill="#375a64"/>
      <circle id="Elipse_7713" data-name="Elipse 7713" cx="0.57" cy="0.57" r="0.57" transform="translate(306.28 344.71)" fill="#375a64"/>
      <circle id="Elipse_7714" data-name="Elipse 7714" cx="0.57" cy="0.57" r="0.57" transform="translate(324.96 347.86)" fill="#375a64"/>
      <circle id="Elipse_7715" data-name="Elipse 7715" cx="0.57" cy="0.57" r="0.57" transform="translate(334.3 342.13)" fill="#375a64"/>
      <path id="Trazado_186633" data-name="Trazado 186633" d="M303,354.31a2.35,2.35,0,0,1-.9.09,2.312,2.312,0,0,1-.9-.09,2.71,2.71,0,0,1,.9-.08A2.76,2.76,0,0,1,303,354.31Z" fill="#e1e1e1"/>
      <path id="Trazado_186634" data-name="Trazado 186634" d="M312.49,354.31a2.311,2.311,0,0,1-.9.09,2.349,2.349,0,0,1-.9-.09,2.76,2.76,0,0,1,.9-.08,2.709,2.709,0,0,1,.9.08Z" fill="#e1e1e1"/>
      <path id="Trazado_186635" data-name="Trazado 186635" d="M322,354.31a4.551,4.551,0,0,1-1.8,0A5.1,5.1,0,0,1,322,354.31Z" fill="#e1e1e1"/>
      <path id="Trazado_186636" data-name="Trazado 186636" d="M331.59,354.31a2.35,2.35,0,0,1-.9.09,2.312,2.312,0,0,1-.9-.09,2.71,2.71,0,0,1,.9-.08A2.76,2.76,0,0,1,331.59,354.31Z" fill="#e1e1e1"/>
      <path id="Trazado_186637" data-name="Trazado 186637" d="M341.13,354.31a2.28,2.28,0,0,1-.89.09,2.311,2.311,0,0,1-.9-.09,2.71,2.71,0,0,1,.9-.08,2.679,2.679,0,0,1,.89.08Z" fill="#e1e1e1"/>
      <g id="Grupo_92925" data-name="Grupo 92925">
        <path id="Trazado_186638" data-name="Trazado 186638" d="M296.3,351.58a1.761,1.761,0,0,1-.72.08,1.831,1.831,0,0,1-.73-.08,1.56,1.56,0,0,1,.73-.09A1.51,1.51,0,0,1,296.3,351.58Z" fill="#e1e1e1"/>
        <path id="Trazado_186639" data-name="Trazado 186639" d="M296.3,347.91a3.3,3.3,0,0,1-.72.08.37.37,0,1,1,0-.16C296,347.83,296.3,347.86,296.3,347.91Z" fill="#e1e1e1"/>
        <path id="Trazado_186640" data-name="Trazado 186640" d="M296.3,344.24a1.51,1.51,0,0,1-.72.09,1.56,1.56,0,0,1-.73-.09,1.829,1.829,0,0,1,.73-.08,1.76,1.76,0,0,1,.72.08Z" fill="#e1e1e1"/>
        <path id="Trazado_186641" data-name="Trazado 186641" d="M296.3,340.58a1.761,1.761,0,0,1-.72.08,1.831,1.831,0,0,1-.73-.08,1.56,1.56,0,0,1,.73-.09,1.51,1.51,0,0,1,.72.09Z" fill="#e1e1e1"/>
        <path id="Trazado_186642" data-name="Trazado 186642" d="M296.3,336.91a3.3,3.3,0,0,1-.72.08.37.37,0,1,1,0-.16C296,336.83,296.3,336.86,296.3,336.91Z" fill="#e1e1e1"/>
        <path id="Trazado_186643" data-name="Trazado 186643" d="M296.3,333.24a1.51,1.51,0,0,1-.72.09,1.56,1.56,0,0,1-.73-.09,1.829,1.829,0,0,1,.73-.08,1.76,1.76,0,0,1,.72.08Z" fill="#e1e1e1"/>
        <path id="Trazado_186644" data-name="Trazado 186644" d="M296.3,329.58a1.761,1.761,0,0,1-.72.08,1.83,1.83,0,0,1-.73-.08,1.56,1.56,0,0,1,.73-.09A1.51,1.51,0,0,1,296.3,329.58Z" fill="#e1e1e1"/>
      </g>
      <rect id="Rectángulo_39105" data-name="Rectángulo 39105" width="13.38" height="0.95" transform="translate(297.38 320.89)" fill="#2dac9e"/>
      <path id="Trazado_186645" data-name="Trazado 186645" d="M334.67,323.66s-8.37.08-18.69.08-18.69,0-18.69-.08,8.36-.08,18.69-.08S334.67,323.61,334.67,323.66Z" fill="#12263f"/>
      <path id="Trazado_186646" data-name="Trazado 186646" d="M321,358.89c0,.05-5.11.08-11.4.08s-11.4,0-11.4-.08,5.11-.08,11.4-.08S321,358.84,321,358.89Z" fill="#12263f"/>
      <path id="Trazado_186647" data-name="Trazado 186647" d="M303.68,360.61a36.948,36.948,0,0,1-4.86,0,36.953,36.953,0,0,1,4.86,0Z" fill="#12263f"/>
      <path id="Trazado_186648" data-name="Trazado 186648" d="M341.67,358.59s-3.63.08-8.1.08-8.11,0-8.11-.08,3.63-.09,8.11-.09S341.67,358.54,341.67,358.59Z" fill="#12263f"/>
      <path id="Trazado_186649" data-name="Trazado 186649" d="M332.86,359.7a40.2,40.2,0,0,1-5.07,0A40.2,40.2,0,0,1,332.86,359.7Z" fill="#12263f"/>
    </g>
    <path id="Trazado_186650" data-name="Trazado 186650" d="M32.14,561.32,52.27,383.31l17.07,6.02L41.45,561.32Z" transform="translate(833 7822)" fill="#835749"/>
    <rect id="Rectángulo_39106" data-name="Rectángulo 39106" width="417.49" height="22.52" transform="translate(856.56 8191.05)" fill="#ae7461"/>
    <path id="Trazado_186651" data-name="Trazado 186651" d="M76.31,369.73a12.079,12.079,0,0,1-1.56,1.32,35.184,35.184,0,0,1-4.69,3,40,40,0,0,1-17.73,4.7,38.49,38.49,0,0,1-17.95-3.71,11.48,11.48,0,0,1-4.33-3.54,5.861,5.861,0,0,1-.7-1.36,1.85,1.85,0,0,1-.14-.51,14.837,14.837,0,0,0,1,1.73,11.75,11.75,0,0,0,4.34,3.28,39.75,39.75,0,0,0,17.72,3.47,42.377,42.377,0,0,0,9.9-1.5,43.451,43.451,0,0,0,7.64-3,42.534,42.534,0,0,0,4.76-2.83,12.168,12.168,0,0,1,1.74-1.05Z" transform="translate(833 7822)" fill="#12263f"/>
    <path id="Trazado_186652" data-name="Trazado 186652" d="M99.69,384a5.566,5.566,0,0,1,.8.29,17,17,0,0,0,2.38.63,14.06,14.06,0,0,0,9-1.41v.28a21.45,21.45,0,0,0-11.17-4.35,21.71,21.71,0,0,0-14.53,3.78A2.28,2.28,0,0,0,85,384.68a1.57,1.57,0,0,0,1,1.45,6.44,6.44,0,0,0,2,.7l2.19.5c3,.65,6,1.31,9.15,1.77a54.568,54.568,0,0,0,9.72.66,36.634,36.634,0,0,0,5-.48c.83-.14,1.66-.3,2.48-.52a12.561,12.561,0,0,0,2.41-.78,8.09,8.09,0,0,0,3.12-2.25,3.59,3.59,0,0,0,.6-3.46,6,6,0,0,0-2.45-2.74,20.054,20.054,0,0,0-3.42-1.67,46.641,46.641,0,0,0-14.3-3,59.08,59.08,0,0,0-24.42,3.78,60.058,60.058,0,0,0-14.69,8c-1.57,1.21-2.78,2.17-3.56,2.88l-.9.77a1.931,1.931,0,0,1-.33.25,2.7,2.7,0,0,1,.28-.3c.22-.2.51-.47.87-.82.75-.74,1.93-1.73,3.49-3a58.589,58.589,0,0,1,14.68-8.25,59.2,59.2,0,0,1,24.61-3.95,47.25,47.25,0,0,1,14.5,3,19.152,19.152,0,0,1,3.53,1.72,6.52,6.52,0,0,1,2.7,3,4.2,4.2,0,0,1-.69,4.06,8.42,8.42,0,0,1-3.37,2.45,12.789,12.789,0,0,1-2.5.81,24.909,24.909,0,0,1-2.54.53,36.389,36.389,0,0,1-5.07.49,54,54,0,0,1-9.84-.69c-3.17-.47-6.22-1.13-9.18-1.8l-2.19-.5a7.288,7.288,0,0,1-2.16-.78,2.691,2.691,0,0,1-.9-.79,1.73,1.73,0,0,1-.33-1.21,2.81,2.81,0,0,1,1.36-1.85A22.13,22.13,0,0,1,100.73,379a21.73,21.73,0,0,1,11.34,4.54l.21.17-.24.12a14,14,0,0,1-9.2,1.29A10.351,10.351,0,0,1,99.69,384Z" transform="translate(833 7822)" fill="#12263f"/>
    <path id="Trazado_186653" data-name="Trazado 186653" d="M166,370a3.58,3.58,0,0,1,.5,1.13,8.54,8.54,0,0,1,.34,3.38c-.17,2.9-1.94,6.71-5,9.83a25.321,25.321,0,0,1-4.69,4,20.46,20.46,0,0,1-7.79,3,4.44,4.44,0,0,1-1.24.11c0-.12,1.73-.36,4.36-1.35a22,22,0,0,0,4.35-2.26,26.928,26.928,0,0,0,4.55-3.92c3-3.06,4.75-6.67,5-9.44A12.61,12.61,0,0,0,166,370Z" transform="translate(833 7822)" fill="#12263f"/>
    <path id="Trazado_186654" data-name="Trazado 186654" d="M258.43,390.38c-.06.06-.73-.94-2.37-2.3a16.84,16.84,0,0,0-8.05-3.63,18,18,0,0,0-6.13.18,26.271,26.271,0,0,1-7.19.66c-2.64-.24-5-1.84-7.15-3.51a24.481,24.481,0,0,0-7.19-4.26,26.44,26.44,0,0,0-16-.25,37.729,37.729,0,0,0-11.81,6,64.187,64.187,0,0,0-6.85,5.84L184,390.83a5.1,5.1,0,0,1-.63.58,3.6,3.6,0,0,1,.54-.67c.36-.43.92-1,1.66-1.81a57.1,57.1,0,0,1,6.76-6,37.34,37.34,0,0,1,11.92-6.19,26.71,26.71,0,0,1,16.34.21,24.62,24.62,0,0,1,7.35,4.37c2.14,1.67,4.38,3.18,6.85,3.42a26.52,26.52,0,0,0,7-.6,18.309,18.309,0,0,1,6.29-.1,16.55,16.55,0,0,1,8.14,3.89,11,11,0,0,1,2.21,2.45Z" transform="translate(833 7822)" fill="#12263f"/>
    <path id="Trazado_186655" data-name="Trazado 186655" d="M341,369.27a7.725,7.725,0,0,1-.57.77c-.4.47-.93,1.24-1.76,2.09a47.926,47.926,0,0,1-7.51,6.68,60.641,60.641,0,0,1-13,7.23,52.744,52.744,0,0,1-8.41,2.68,42.89,42.89,0,0,1-9.41,1.21,46.61,46.61,0,0,1-17.85-3.71,59.669,59.669,0,0,1-13-7.36,50,50,0,0,1-7.46-6.74c-.83-.85-1.37-1.61-1.77-2.09a4.932,4.932,0,0,1-.56-.76,5.623,5.623,0,0,1,.66.68c.43.45,1,1.18,1.85,2a54.721,54.721,0,0,0,7.55,6.55,61.279,61.279,0,0,0,12.92,7.18,46.679,46.679,0,0,0,17.63,3.62,43.708,43.708,0,0,0,9.27-1.18,55,55,0,0,0,8.34-2.62,61.769,61.769,0,0,0,13-7.06,51.111,51.111,0,0,0,7.6-6.48c.86-.82,1.41-1.56,1.84-2A4.46,4.46,0,0,1,341,369.27Z" transform="translate(833 7822)" fill="#12263f"/>
    <path id="Trazado_186656" data-name="Trazado 186656" d="M329.19,369.05a4.16,4.16,0,0,1-.44.36c-.3.22-.74.53-1.33.9a53.811,53.811,0,0,1-5.16,2.92,54.609,54.609,0,0,1-8.15,3.32,35.919,35.919,0,0,1-10.63,1.81,43.58,43.58,0,0,1-18.88-4.77,40.891,40.891,0,0,1-5.11-3c-.59-.38-1-.73-1.3-.95a2.83,2.83,0,0,1-.43-.37,14.134,14.134,0,0,1,1.86,1.11,51.6,51.6,0,0,0,5.18,2.81,45.329,45.329,0,0,0,18.68,4.54A36.462,36.462,0,0,0,313.94,376a60.107,60.107,0,0,0,8.12-3.16c2.25-1.07,4-2,5.23-2.73a17.783,17.783,0,0,1,1.9-1.06Z" transform="translate(833 7822)" fill="#12263f"/>
    <path id="Trazado_186657" data-name="Trazado 186657" d="M381.55,371.36a2.332,2.332,0,0,1-.6,0l-1.68-.11-1.22-.09H376.6c-1,0-2.22,0-3.53.06l-2.05.11-2.21.26c-1.53.13-3.14.49-4.84.78a72.541,72.541,0,0,0-10.77,3.21,74.527,74.527,0,0,0-10.08,5c-1.45.94-2.87,1.76-4.1,2.7l-1.81,1.29-1.59,1.3c-1,.79-1.9,1.61-2.67,2.31l-1.07,1L331,390l-1.19,1.2a2.6,2.6,0,0,1-.45.39,3.531,3.531,0,0,1,.35-.48l1.11-1.28.81-.92,1-1a34.167,34.167,0,0,1,2.62-2.41l1.58-1.33,1.8-1.34c1.23-1,2.65-1.81,4.11-2.77A71.109,71.109,0,0,1,353,375a70.171,70.171,0,0,1,10.88-3.2c1.73-.27,3.35-.61,4.9-.72l2.23-.23,2.07-.07a31.652,31.652,0,0,1,3.56,0l1.46.06,1.22.15,1.68.22a1.71,1.71,0,0,1,.55.15Z" transform="translate(833 7822)" fill="#12263f"/>
    <path id="Trazado_186658" data-name="Trazado 186658" d="M403.6,367v.42a9.889,9.889,0,0,1-.1,1.22,16.589,16.589,0,0,1-1.2,4.32,25.31,25.31,0,0,1-9.61,11,50.121,50.121,0,0,1-13.54,5.78c-1.82.51-3.29.88-4.32,1.12a8.261,8.261,0,0,1-1.61.31,7.268,7.268,0,0,1,1.55-.55L379,389.3a55.171,55.171,0,0,0,13.32-5.88,26,26,0,0,0,9.55-10.69A26.4,26.4,0,0,0,403.6,367Z" transform="translate(833 7822)" fill="#12263f"/>
    <path id="Trazado_186659" data-name="Trazado 186659" d="M267.68,389.93a25,25,0,0,0-2.84-3.37,26.089,26.089,0,0,0-10.37-5.79,56.3,56.3,0,0,0-8.1-1.79c-3-.47-6.14-.84-9.47-1.41A80.508,80.508,0,0,1,226.62,375a67.576,67.576,0,0,0-11-2.65c-7.69-1-15.1.65-21.37,3a77.934,77.934,0,0,0-8.69,3.9c-2.66,1.37-5.1,2.71-7.32,4-4.43,2.51-8,4.64-10.39,6.12l-2.8,1.72-.73.44-.26.13s.07-.07.22-.19l.7-.49c.62-.42,1.54-1,2.74-1.81,2.39-1.55,5.89-3.75,10.3-6.31,2.2-1.28,4.64-2.65,7.3-4a75.452,75.452,0,0,1,8.73-4c6.31-2.35,13.82-4,21.65-3a67.838,67.838,0,0,1,11.07,2.68A79.2,79.2,0,0,0,237,377c3.31.59,6.49,1,9.45,1.47a55.35,55.35,0,0,1,8.15,1.88,25.83,25.83,0,0,1,10.4,6.04A13.18,13.18,0,0,1,267.68,389.93Z" transform="translate(833 7822)" fill="#12263f"/>
    <path id="Trazado_186660" data-name="Trazado 186660" d="M151.69,369.38a4.66,4.66,0,0,1-.07,1.44,16.649,16.649,0,0,1-1,3.8,21.82,21.82,0,0,1-7.91,10.13,53,53,0,0,1-11.73,5.4c-1.57.52-2.85.89-3.75,1.13a6,6,0,0,1-1.41.29,6.56,6.56,0,0,1,1.34-.53l3.67-1.31a61.429,61.429,0,0,0,11.53-5.51,22.64,22.64,0,0,0,7.85-9.76A29.808,29.808,0,0,0,151.69,369.38Z" transform="translate(833 7822)" fill="#12263f"/>
    <path id="Trazado_186661" data-name="Trazado 186661" d="M32.15,391.57a10.27,10.27,0,0,1,1.26-1.21c.83-.75,2.08-1.78,3.66-3a107.391,107.391,0,0,1,13.14-8.46c5.35-2.94,10.35-5.29,14-7,1.82-.83,3.3-1.49,4.32-1.93a10.8,10.8,0,0,1,1.62-.63,9,9,0,0,1-1.51.85l-4.23,2.12c-3.58,1.77-8.54,4.18-13.87,7.11a129.571,129.571,0,0,0-13.17,8.26c-1.61,1.17-2.9,2.14-3.78,2.83a9.162,9.162,0,0,1-1.44,1.06Z" transform="translate(833 7822)" fill="#12263f"/>
    <path id="Trazado_186662" data-name="Trazado 186662" d="M377.57,369c0,.18-21.52.32-48.07.32s-48.06-.14-48.06-.32,21.51-.32,48.06-.32S377.57,368.79,377.57,369Z" transform="translate(833 7822)" fill="#12263f"/>
    <g id="Grupo_92929" data-name="Grupo 92929" transform="translate(833 7822)">
      <rect id="Rectángulo_39107" data-name="Rectángulo 39107" width="69.39" height="10.37" transform="translate(106.86 358.94)" fill="#12263f"/>
      <rect id="Rectángulo_39108" data-name="Rectángulo 39108" width="18.35" height="5.58" transform="translate(106.86 361.33)" fill="#e1e1e1"/>
    </g>
    <g id="Grupo_92930" data-name="Grupo 92930" transform="translate(833 7822)">
      <rect id="Rectángulo_39109" data-name="Rectángulo 39109" width="69.39" height="10.37" transform="translate(113.05 348.57)" fill="#2dac9e"/>
      <rect id="Rectángulo_39110" data-name="Rectángulo 39110" width="47.06" height="5.18" transform="translate(135.38 351.06)" fill="#e1e1e1"/>
    </g>
    <g id="Grupo_92931" data-name="Grupo 92931" transform="translate(833 7822)">
      <rect id="Rectángulo_39111" data-name="Rectángulo 39111" width="69.39" height="10.37" transform="translate(172.08 348.57) rotate(180)" fill="#12263f"/>
      <rect id="Rectángulo_39112" data-name="Rectángulo 39112" width="18.35" height="5.58" transform="translate(172.08 346.18) rotate(180)" fill="#e1e1e1"/>
    </g>
    <g id="Grupo_92935" data-name="Grupo 92935" transform="translate(833 7822)">
      <g id="Grupo_92934" data-name="Grupo 92934">
        <path id="Trazado_186663" data-name="Trazado 186663" d="M346.54,522.39l8.27,20.55s-18.1,15.31-16.95,19.26l40.42-14.62L366.7,515Z" fill="#ae7461"/>
        <path id="Trazado_186664" data-name="Trazado 186664" d="M366.67,536.67a1.76,1.76,0,0,1,1.83,1.47,1.7,1.7,0,0,1-1.45,1.82,1.86,1.86,0,0,1-1.92-1.57c0-.86.86-1.85,1.71-1.72" fill="#e1e1e1"/>
        <g id="Grupo_92933" data-name="Grupo 92933" opacity="0.6">
          <path id="Trazado_186665" data-name="Trazado 186665" d="M378.28,547.58l-1.3-3.23-38.26,15.22s-1.52,1.43-.86,2.63Z" fill="#fff"/>
        </g>
        <path id="Trazado_186666" data-name="Trazado 186666" d="M354.08,543c.08.2,1.1-.07,2.3.21s2,.93,2.17.78-.55-1.17-2-1.49S354,542.8,354.08,543Z" fill="#12263f"/>
        <path id="Trazado_186667" data-name="Trazado 186667" d="M350.48,546.26c0,.2,1,.23,2,.82s1.48,1.41,1.68,1.33-.09-1.24-1.31-2S350.41,546.07,350.48,546.26Z" fill="#12263f"/>
        <path id="Trazado_186668" data-name="Trazado 186668" d="M349.9,552.2c.2,0,.12-1.11-.78-2s-2-1-2-.79.75.56,1.48,1.31S349.7,552.25,349.9,552.2Z" fill="#12263f"/>
        <path id="Trazado_186669" data-name="Trazado 186669" d="M352.71,538.08c.15.15,1-.45,2.1-.78s2.14-.29,2.18-.5-1.05-.6-2.39-.2S352.56,538,352.71,538.08Z" fill="#12263f"/>
      </g>
      <path id="Trazado_186670" data-name="Trazado 186670" d="M351.12,533.9a4.1,4.1,0,0,0,2-.74,9.473,9.473,0,0,0,1.88-1.42,9.361,9.361,0,0,0,.94-1,2.549,2.549,0,0,0,.44-.7.9.9,0,0,0-.29-1.08,1.12,1.12,0,0,0-1-.14,2.62,2.62,0,0,0-.73.38,8.164,8.164,0,0,0-1.1.88,8,8,0,0,0-1.42,1.9,3.69,3.69,0,0,0-.6,2.08c.12,0,.35-.75,1-1.81a8.821,8.821,0,0,1,1.44-1.67,8.189,8.189,0,0,1,1-.78c.39-.27.75-.4.93-.25s.08.08,0,.24a2.188,2.188,0,0,1-.32.51,11.541,11.541,0,0,1-2.54,2.46,16.392,16.392,0,0,0-1.63,1.14Z" fill="#12263f"/>
      <path id="Trazado_186671" data-name="Trazado 186671" d="M351.48,534.09a3.42,3.42,0,0,0-.17-2.15,7,7,0,0,0-1.08-2.11,6.65,6.65,0,0,0-1-1,1.76,1.76,0,0,0-1.66-.56,1,1,0,0,0-.64.87,2.66,2.66,0,0,0,.06.82,4.771,4.771,0,0,0,.49,1.36,5,5,0,0,0,1.62,1.78,2.81,2.81,0,0,0,2.07.63,16.39,16.39,0,0,1-1.76-1.05,4.791,4.791,0,0,1-1.33-1.67,4.55,4.55,0,0,1-.39-1.18c-.09-.45-.05-.86.12-.87a1.568,1.568,0,0,1,.95.41,6.438,6.438,0,0,1,.9.91,7.61,7.61,0,0,1,1.12,1.88C351.31,533.29,351.36,534.1,351.48,534.09Z" fill="#12263f"/>
    </g>
    <g id="Grupo_92938" data-name="Grupo 92938" transform="translate(833 7822)">
      <g id="Grupo_92937" data-name="Grupo 92937">
        <path id="Trazado_186672" data-name="Trazado 186672" d="M384.58,518.63l8.27,20.55s-18.1,15.31-16.94,19.26l40.41-14.62-11.58-32.54Z" fill="#ae7461"/>
        <path id="Trazado_186673" data-name="Trazado 186673" d="M404.72,532.91a1.75,1.75,0,0,1,1.82,1.47,1.69,1.69,0,0,1-1.44,1.82,1.87,1.87,0,0,1-1.93-1.57c0-.86.86-1.85,1.71-1.72" fill="#e1e1e1"/>
        <g id="Grupo_92936" data-name="Grupo 92936" opacity="0.6">
          <path id="Trazado_186674" data-name="Trazado 186674" d="M416.32,543.82,415,540.59l-38.27,15.22s-1.52,1.43-.85,2.63Z" fill="#fff"/>
        </g>
        <path id="Trazado_186675" data-name="Trazado 186675" d="M392.12,539.21c.08.2,1.1-.07,2.3.21s2,.93,2.17.78-.55-1.17-2-1.49S392,539,392.12,539.21Z" fill="#12263f"/>
        <path id="Trazado_186676" data-name="Trazado 186676" d="M388.52,542.5c0,.2,1,.23,2,.82s1.48,1.41,1.68,1.33-.09-1.24-1.31-2S388.45,542.31,388.52,542.5Z" fill="#12263f"/>
        <path id="Trazado_186677" data-name="Trazado 186677" d="M388,548.44c.19,0,.11-1.11-.79-2s-2-1-2-.8.76.56,1.48,1.31S387.74,548.49,388,548.44Z" fill="#12263f"/>
        <path id="Trazado_186678" data-name="Trazado 186678" d="M390.76,534.32c.14.15.95-.45,2.09-.78s2.14-.29,2.19-.5-1.05-.6-2.39-.2S390.6,534.2,390.76,534.32Z" fill="#12263f"/>
      </g>
      <path id="Trazado_186679" data-name="Trazado 186679" d="M389.16,530.14a3.847,3.847,0,0,0,2-.74A10.079,10.079,0,0,0,394,527a2.549,2.549,0,0,0,.43-.7.91.91,0,0,0-.28-1.08,1.14,1.14,0,0,0-1-.14,2.7,2.7,0,0,0-.72.38,7.52,7.52,0,0,0-2.53,2.79,3.65,3.65,0,0,0-.6,2.07c.12,0,.35-.75,1.05-1.81a8.391,8.391,0,0,1,1.43-1.67,7.618,7.618,0,0,1,1-.78c.38-.27.75-.4.92-.25s.09.08,0,.24a2,2,0,0,1-.32.51,10.626,10.626,0,0,1-.85,1A12.3,12.3,0,0,1,390.9,529a16.392,16.392,0,0,0-1.74,1.14Z" fill="#12263f"/>
      <path id="Trazado_186680" data-name="Trazado 186680" d="M389.52,530.33a3.42,3.42,0,0,0-.17-2.15,7,7,0,0,0-1.08-2.11,6.652,6.652,0,0,0-1-1,1.76,1.76,0,0,0-1.66-.56,1,1,0,0,0-.64.87,3,3,0,0,0,.06.82,4.771,4.771,0,0,0,.49,1.36,5,5,0,0,0,1.62,1.78,2.81,2.81,0,0,0,2.07.63c0-.13-.79-.26-1.76-1a4.789,4.789,0,0,1-1.33-1.67,4.409,4.409,0,0,1-.38-1.18c-.1-.45-.06-.86.12-.87a1.524,1.524,0,0,1,.94.41,6.441,6.441,0,0,1,.9.91,7.611,7.611,0,0,1,1.12,1.88C389.35,529.53,389.4,530.34,389.52,530.33Z" fill="#12263f"/>
    </g>
    <g id="Grupo_92939" data-name="Grupo 92939" transform="translate(833 7822)">
      <path id="Trazado_186681" data-name="Trazado 186681" d="M412.45,252.41,408.59,284l6,14.58-23.75.84L385.91,288s-11.76-1.33-12.23-8.86c-.3-4.82,7.46-39.87,7.46-39.87Z" fill="#ffbf9d"/>
      <path id="Trazado_186682" data-name="Trazado 186682" d="M404.83,290c2.8-1.9,4.22-3.17,5.45-6.32s2-6.47,3.43-9.55c1.47-3.24,3.59-6.15,5-9.4s2.19-7.06.77-10.32c0,0-.5-4.18-6.13-5.7,0,0-3.18-8.86-10.47-9.69-9.91-1.13-9.57-4-16-6.52-6.05-2.31-8.39,3-8.39,3s-4,1.82-4.92,5.47v.09a8.68,8.68,0,0,0,4,9.52l1.2.7a8.4,8.4,0,0,1,3,2.44c1.07,1.63.84,3.78.37,5.67s-1.17,3.81-.9,5.75c.09.66.47,1.44,1.14,1.41s1-1.1,1.21-1.85c.69-2.21,3.95-3.3,5.63-1.23a3.51,3.51,0,0,1,.15,4.41c-1.09,1.42-3,2.31-3.69,4-1.17,2.84,1.75,6.16,2.73,8.05a13.451,13.451,0,0,0,1.18,1.91,28.3,28.3,0,0,0,8.29,7.21c2.34,1.41,5.46,1.84,7.77.39" fill="#12263f"/>
    </g>
    <g id="Grupo_92940" data-name="Grupo 92940" transform="translate(833 7822)">
      <path id="Trazado_186683" data-name="Trazado 186683" d="M307.11,328.24h0c-4.16-1.78-6.85-3.39-9.64-4.4-3.45-1.25-4.78-2-4.5-2.64.37-.84.19-.53,6.77.85,0,0-9.38-2.05-7-3.2,1.06-.51,8.86,1.12,8.86,1.12-6.39-.74-8.68-2-8.52-3,.24-1.39,9.7.67,9.7.67s-7.25-1.43-8.44-2.07.33-1.26,1.73-1.41c1.57-.17,10.83.16,13.51.11a1.58,1.58,0,0,0,1.73-1.66c-.78-3.8.64-7.19,1.46-7.92s2.1.14,1.83,1.32a14.588,14.588,0,0,0,.06,3.94,9.23,9.23,0,0,0,.87,3c.53,1.1,1,2,1.47,2.77l13.28,14.52L324.55,344Z" fill="#ffbf9d"/>
      <path id="Trazado_186684" data-name="Trazado 186684" d="M303.68,323a18.131,18.131,0,0,1-4.55-.76,17.862,17.862,0,0,1-4.41-1.36,17.88,17.88,0,0,1,4.55.76C301.74,322.2,303.71,322.81,303.68,323Z" fill="#ff9a6c"/>
      <path id="Trazado_186685" data-name="Trazado 186685" d="M304.48,320.51a39.6,39.6,0,0,1-9.68-1.68c0-.17,2.22.07,4.89.54S304.5,320.34,304.48,320.51Z" fill="#ff9a6c"/>
      <path id="Trazado_186686" data-name="Trazado 186686" d="M305.29,317.94a18.3,18.3,0,0,1-4.64-.44,20.4,20.4,0,0,1-4.54-1,18,18,0,0,1,4.64.43C303.28,317.36,305.32,317.77,305.29,317.94Z" fill="#ff9a6c"/>
    </g>
    <g id="Grupo_92941" data-name="Grupo 92941" transform="translate(833 7822)">
      <path id="Trazado_186687" data-name="Trazado 186687" d="M394.07,390.14l-56.78,8.57a27.64,27.64,0,0,0-19,12.22h0a27.69,27.69,0,0,0-3.4,22.84l30,95.6,27.08-10.25L355.3,434.6l87.83-5.89V390.14l-49.06-1.77" fill="#12263f"/>
      <path id="Trazado_186688" data-name="Trazado 186688" d="M434.06,390.14l-56.78,8.57a27.62,27.62,0,0,0-19,12.22h0a27.65,27.65,0,0,0-3.4,22.84L381,523.69l30.24-8-16-81.1L454,430.66V392.09l-19.9-3.72" fill="#12263f"/>
    </g>
    <g id="Grupo_92944" data-name="Grupo 92944" transform="translate(833 7822)">
      <path id="Trazado_186689" data-name="Trazado 186689" d="M321.23,319.32c1.17-.17,39.74,29.9,39.74,29.9L336.35,359l-25-24.76S309.82,320.89,321.23,319.32Z" fill="#2dac9e"/>
      <g id="Grupo_92943" data-name="Grupo 92943">
        <path id="Trazado_186690" data-name="Trazado 186690" d="M446,307.51c-6.43-9.32-17.37-12.54-21.16-13.41a11.308,11.308,0,0,0-2.46-.27H389.53a23,23,0,0,0-15.95,6.34A78.792,78.792,0,0,0,361,316.41l-16.53,23-10.16,17,2.07,2.61c4.87,6.12,13.33,8.5,20.41,5.19,3.35-1.56,5.8-4.48,8.08-7.82,4.15-6.1,8.48-12.69,11.35-17.73L392.76,386l-8.87,5.64,37.35,15.09,38.88-16.63-10.73-38.26h0s17,1.66,18.6-5S453.83,318.92,446,307.51Z" fill="#2dac9e"/>
        <path id="Trazado_186691" data-name="Trazado 186691" d="M442.11,324.86a158.838,158.838,0,0,1,7.76,14.36c.31.63,1.24.08.95-.56a123.149,123.149,0,0,0-8.09-14.16c-.25-.38-.86,0-.62.36Z" fill="#fafafa"/>
        <path id="Trazado_186692" data-name="Trazado 186692" d="M449.83,322.1a156.221,156.221,0,0,1,7.76,14.35c.32.64,1.24.08,1-.55a121.48,121.48,0,0,0-8.09-14.16c-.25-.39-.86,0-.62.36Z" fill="#fafafa"/>
        <path id="Trazado_186693" data-name="Trazado 186693" d="M434.64,326c1.64,6.36,2.94,12.82,4,19.3.15.91,1.54.53,1.38-.38a127.673,127.673,0,0,0-4.77-19.08.31.31,0,0,0-.59.16Z" fill="#fafafa"/>
        <path id="Trazado_186694" data-name="Trazado 186694" d="M417.05,327.78a77.521,77.521,0,0,1,3.21,19.13.7.7,0,0,0,1.4,0,63.9,63.9,0,0,0-3.92-19.32c-.15-.43-.83-.26-.69.19Z" fill="#fafafa"/>
        <path id="Trazado_186695" data-name="Trazado 186695" d="M431.44,343.29c-1.95-6.11-3.6-11.59-4.25-18-.08-.84-1.34-.88-1.33,0,.06,6.16,1.57,13.07,4.89,18.32.22.36.83.14.69-.29Z" fill="#fafafa"/>
        <path id="Trazado_186696" data-name="Trazado 186696" d="M409.2,328.29a81.533,81.533,0,0,0,2.65,18.19.66.66,0,0,0,1.27-.35c-1.15-6-2.25-11.92-3.23-17.94-.06-.39-.7-.29-.69.1Z" fill="#fafafa"/>
        <path id="Trazado_186697" data-name="Trazado 186697" d="M399.76,329.36c1.65,6.67,2.85,13.38,4.06,20.14.11.64,1.23.5,1.14-.16a109.193,109.193,0,0,0-4.7-20.11.26.26,0,0,0-.5.13Z" fill="#fafafa"/>
        <path id="Trazado_186698" data-name="Trazado 186698" d="M391.14,330.92c.12,6.18.47,12.59,2,18.6.17.66,1.09.37,1-.27-.9-6.12-2-12.12-2.22-18.33a.41.41,0,0,0-.81,0Z" fill="#fafafa"/>
        <path id="Trazado_186699" data-name="Trazado 186699" d="M363.59,347.94c5.17-4.83,9.69-11,14-16.59.38-.5-.46-1.15-.88-.67-4.64,5.31-9.76,11-13.46,17a.221.221,0,0,0,.35.27Z" fill="#fafafa"/>
        <path id="Trazado_186700" data-name="Trazado 186700" d="M357.55,342.52a58.751,58.751,0,0,0,12-14.73c.38-.64-.57-1.17-1-.58-3.57,5.21-7.55,9.93-11.44,14.88a.3.3,0,0,0,.43.43Z" fill="#fafafa"/>
        <path id="Trazado_186701" data-name="Trazado 186701" d="M361.19,324.81c-3.43,3.85-7,7.62-10.23,11.63-.43.54.29,1.31.77.78,3.45-3.86,6.62-8,9.88-12,.23-.29-.16-.7-.42-.41Z" fill="#fafafa"/>
        <path id="Trazado_186702" data-name="Trazado 186702" d="M382.38,331.84c1.47,6.18,2.34,12.46,3.69,18.66.13.58,1.13.47,1.06-.15-.69-6.3-2.37-12.59-3.92-18.73a.43.43,0,0,0-.83.22Z" fill="#fafafa"/>
        <g id="Grupo_92942" data-name="Grupo 92942" opacity="0.3">
          <path id="Trazado_186703" data-name="Trazado 186703" d="M432.21,345.12a9.09,9.09,0,0,0-7,3.49,21.7,21.7,0,0,0-3.62,7.16,74.7,74.7,0,0,0-3.88,25.34c.06,2.62.1,5.65-1.89,7.36-1.71,1.48-4.24,1.36-6.33,2.18-3.35,1.32-6.23,5.8-5.25,9.26L423,407Z"/>
        </g>
      </g>
    </g>
    <path id="Trazado_186704" data-name="Trazado 186704" d="M411.11,384.8a6.691,6.691,0,0,1-2.13.83,24.768,24.768,0,0,1-5.47.85,24,24,0,0,1-5.52-.37,6.42,6.42,0,0,1-2.21-.64c0-.19,3.45.59,7.7.38S411.06,384.61,411.11,384.8Z" transform="translate(833 7822)" fill="#12263f"/>
    <g id="Grupo_92945" data-name="Grupo 92945" transform="translate(833 7822)">
      <path id="Trazado_186705" data-name="Trazado 186705" d="M343.52,436.17,328.58,561.48h6.46L350.9,436.17Z" fill="#375a64"/>
      <path id="Trazado_186706" data-name="Trazado 186706" d="M403.05,436.17l13.71,125.31h7.04L410.43,436.17Z" fill="#375a64"/>
      <path id="Trazado_186707" data-name="Trazado 186707" d="M476.88,436.17l11.43,125.31h7.84L483.11,436.17h-9.46" fill="#375a64"/>
      <path id="Trazado_186708" data-name="Trazado 186708" d="M438.73,328.52h55.36a8.61,8.61,0,0,1,8.52,9.84L489.5,429.82a7.4,7.4,0,0,1-7.33,6.35H410.43Z" fill="#375a64"/>
      <path id="Trazado_186709" data-name="Trazado 186709" d="M336.14,436.17c.14-1.38,0-8.31,0-8.31l68.66,1.29a10.53,10.53,0,0,0,10.59-8.83l13.69-83.6a9.78,9.78,0,0,1,9.65-8.2h0L423.8,422.64A16,16,0,0,1,408,436.17Z" fill="#375a64"/>
      <path id="Trazado_186710" data-name="Trazado 186710" d="M438.73,328.52a1.271,1.271,0,0,1,0,.29l-.1.85-.45,3.24-1.79,11.9c-1.58,10.09-3.75,23.93-6.14,39.22-1.23,7.66-2.4,15-3.46,21.59-.54,3.31-1,6.47-1.53,9.42a67,67,0,0,1-1.66,8.16,22.74,22.74,0,0,1-2.83,6.29,15.761,15.761,0,0,1-3.55,3.81,11.382,11.382,0,0,1-2.86,1.6,6.1,6.1,0,0,1-1.1.33,14.609,14.609,0,0,0,3.81-2.13,18.79,18.79,0,0,0,6.09-10,64.283,64.283,0,0,0,1.58-8.12c.46-3,.95-6.11,1.47-9.43l3.41-21.59c2.46-15.29,4.7-29.12,6.32-39.2.84-5,1.51-9,2-11.87.24-1.36.44-2.43.58-3.22.06-.34.12-.61.16-.84A.92.92,0,0,1,438.73,328.52Z" fill="#12263f"/>
    </g>
    <path id="Trazado_186711" data-name="Trazado 186711" d="M441.79,329.13c-.14.09-1.64-2-3.33-4.73a29.074,29.074,0,0,1-2.8-5.06,27.154,27.154,0,0,1,3.34,4.73C440.7,326.8,441.94,329,441.79,329.13Z" transform="translate(833 7822)" fill="#12263f"/>
    <path id="Trazado_186712" data-name="Trazado 186712" d="M337.31,349.38c-.14-.1,1.78-3.09,4.3-6.68s4.67-6.42,4.81-6.32-1.78,3.09-4.29,6.68S337.46,349.48,337.31,349.38Z" transform="translate(833 7822)" fill="#12263f"/>
    <path id="Trazado_186713" data-name="Trazado 186713" d="M383.63,327.23a10.662,10.662,0,0,1-.75,1.4l-2.18,3.75c-1.87,3.14-4.5,7.46-7.53,12.14s-5.9,8.85-8,11.82c-1.06,1.49-1.95,2.67-2.57,3.48a7.209,7.209,0,0,1-1,1.22,8.18,8.18,0,0,1,.83-1.36l2.41-3.6c2-3,4.84-7.23,7.87-11.91l7.68-12c1-1.54,1.78-2.79,2.35-3.64A6.441,6.441,0,0,1,383.63,327.23Z" transform="translate(833 7822)" fill="#12263f"/>
    <g id="Grupo_92947" data-name="Grupo 92947" transform="translate(833 7822)">
      <rect id="Rectángulo_39113" data-name="Rectángulo 39113" width="70.47" height="9.68" transform="translate(478.44 502.41)" fill="#12263f"/>
      <path id="Trazado_186714" data-name="Trazado 186714" d="M549,512.22H478.31v-9.93H549ZM478.56,512h70.23v-9.45H478.56Z" fill="#12263f"/>
    </g>
    <path id="Trazado_186715" data-name="Trazado 186715" d="M484.97,508.87l10.14,50.05h37.53l9.81-46.82Z" transform="translate(833 7822)" fill="#12263f"/>
    <path id="Trazado_186716" data-name="Trazado 186716" d="M484.97,554.18l5.41,7.44H536l6.45-7.44Z" transform="translate(833 7822)" fill="#12263f"/>
    <path id="Trazado_186717" data-name="Trazado 186717" d="M511,510.34c-.13,0-.31-23.19-.39-51.78s0-51.78.1-51.78.32,23.18.4,51.78S511.16,510.33,511,510.34Z" transform="translate(833 7822)" fill="#12263f"/>
    <path id="Trazado_186718" data-name="Trazado 186718" d="M526.72,452.32a2.191,2.191,0,0,1-.19.54l-.63,1.5-.46,1.08c-.14.41-.3.85-.46,1.31s-.36,1-.55,1.51-.33,1.12-.52,1.73a69.883,69.883,0,0,0-2,8.62,105.146,105.146,0,0,0-1.09,10.79,145,145,0,0,0,.56,19.71c.22,2.52.45,4.55.62,6q.11,1,.18,1.62a2.15,2.15,0,0,1,0,.56,2.438,2.438,0,0,1-.12-.55c-.08-.42-.16-.95-.28-1.61-.22-1.39-.5-3.42-.78-5.94a129.9,129.9,0,0,1-.7-19.77,97.674,97.674,0,0,1,1.13-10.84,65.359,65.359,0,0,1,2.09-8.66c.2-.6.36-1.18.56-1.72s.4-1,.58-1.5l.51-1.31c.18-.4.35-.75.51-1.07l.71-1.47A2.687,2.687,0,0,1,526.72,452.32Z" transform="translate(833 7822)" fill="#12263f"/>
    <path id="Trazado_186719" data-name="Trazado 186719" d="M524.92,433.57a4.318,4.318,0,0,1-.22.76c-.19.54-.43,1.26-.74,2.16-.16.47-.34,1-.54,1.55s-.36,1.2-.56,1.87c-.41,1.35-.89,2.87-1.32,4.58-.22.86-.46,1.75-.7,2.68s-.44,1.92-.66,2.94c-.5,2-.85,4.21-1.31,6.5-.77,4.6-1.46,9.69-1.93,15.06s-.64,10.51-.71,15.18,0,8.88.24,12.41c.06,1.77.18,3.36.27,4.76s.17,2.61.26,3.59.13,1.71.17,2.27a4.411,4.411,0,0,1,0,.8,5.638,5.638,0,0,1-.12-.78c-.07-.57-.16-1.32-.27-2.27s-.24-2.19-.34-3.59-.26-3-.34-4.76c-.24-3.53-.34-7.75-.35-12.43s.22-9.83.67-15.22,1.17-10.49,2-15.1c.47-2.3.84-4.5,1.35-6.52l.69-2.93c.26-.93.5-1.82.74-2.68.45-1.71.95-3.23,1.39-4.57l.61-1.87.58-1.54c.34-.89.62-1.59.82-2.12a4.436,4.436,0,0,1,.32-.73Z" transform="translate(833 7822)" fill="#12263f"/>
    <path id="Trazado_186720" data-name="Trazado 186720" d="M506.57,514.44a1.3,1.3,0,0,1,0-.27,3.543,3.543,0,0,0-.07-.8c0-.74-.12-1.77-.21-3.07-.17-2.71-.41-6.56-.7-11.3-.61-9.53-1.5-22.7-3.1-37.18-.82-7.24-1.77-14.12-2.76-20.36-.53-3.11-1-6.07-1.54-8.83s-1-5.32-1.53-7.66-1-4.44-1.39-6.29-.8-3.43-1.13-4.73-.56-2.27-.74-3c-.07-.32-.13-.57-.17-.78a1,1,0,0,1-.05-.27,1.4,1.4,0,0,1,.1.26c.05.2.13.45.22.77.2.71.48,1.7.83,3s.78,2.87,1.21,4.72,1,3.94,1.47,6.28,1.07,4.89,1.58,7.66,1.06,5.71,1.59,8.83c1,6.24,2,13.12,2.81,20.37,1.6,14.5,2.43,27.68,2.95,37.22.26,4.77.44,8.64.55,11.31.05,1.3.08,2.33.11,3.07v.8a1.233,1.233,0,0,1-.03.25Z" transform="translate(833 7822)" fill="#12263f"/>
    <path id="Trazado_186721" data-name="Trazado 186721" d="M510.45,417.92c-.31-3.28-3.63-5.76-6.92-5.79a10.909,10.909,0,0,0-8.39,4.55,26.21,26.21,0,0,0-4,9c-2.23,7.74-3.44,15.87-2.49,23.86s4.19,15.86,9.93,21.51c.93.92,2.14,1.84,3.42,1.57a4.21,4.21,0,0,0,1.81-1.12,53.46,53.46,0,0,0,17.33-40.61c-.09-3-.49-6.2-2.18-8.73s-5.6-5.22-8.47-4.21" transform="translate(833 7822)" fill="#2dac9e"/>
    <g id="Grupo_92949" data-name="Grupo 92949" transform="translate(833 7822)">
      <path id="Trazado_186722" data-name="Trazado 186722" d="M485.82,391.62,481.17,400c-.1.2-.25.42-.47.43s-.43-.21-.56-.41q-6.15-9.42-12.28-18.85l2.83-1.6Z" fill="#2dac9e"/>
      <g id="Grupo_92948" data-name="Grupo 92948" opacity="0.2">
        <path id="Trazado_186723" data-name="Trazado 186723" d="M485.82,391.62,481.17,400c-.1.2-.25.42-.47.43s-.43-.21-.56-.41q-6.15-9.42-12.28-18.85l2.83-1.6Z"/>
      </g>
      <path id="Trazado_186724" data-name="Trazado 186724" d="M510.73,406.78l-41.89-24.73c-.43-.25-.9-.55-1-1a2.325,2.325,0,0,1,.74-1.68,28.87,28.87,0,0,1,22.39-8.8,25.55,25.55,0,0,1,20.24,12.59c4.05,7.22,4.18,16.78-.46,23.64" fill="#2dac9e"/>
      <path id="Trazado_186725" data-name="Trazado 186725" d="M474.87,374.16a3.062,3.062,0,0,1,.55-.07c.36,0,.9-.08,1.59-.07a30.541,30.541,0,0,1,5.81.46A34.269,34.269,0,0,1,491.1,377a33.25,33.25,0,0,1,15.51,14,34.3,34.3,0,0,1,3.33,8,32.481,32.481,0,0,1,1,5.74c.07.68.06,1.22.08,1.58a2.9,2.9,0,0,1,0,.55c-.05,0-.1-.75-.27-2.11a34.38,34.38,0,0,0-28-29.95,35.882,35.882,0,0,0-5.75-.62A19.871,19.871,0,0,1,474.87,374.16Z" fill="#12263f"/>
      <path id="Trazado_186726" data-name="Trazado 186726" d="M505.06,389.71a9.428,9.428,0,0,1-2.12,1c-1.33.52-3.2,1.19-5.28,1.86s-4,1.19-5.4,1.53a9.542,9.542,0,0,1-2.28.43,11.676,11.676,0,0,1,2.19-.77l5.34-1.67,5.31-1.72A12.281,12.281,0,0,1,505.06,389.71Z" fill="#12263f"/>
      <path id="Trazado_186727" data-name="Trazado 186727" d="M498.46,372a17.241,17.241,0,0,1,.5,4.67,17.449,17.449,0,0,1-.26,4.7,91.517,91.517,0,0,1-.24-9.37Z" fill="#12263f"/>
      <path id="Trazado_186728" data-name="Trazado 186728" d="M468.47,381.59a17.929,17.929,0,0,1,3-1.08c1.91-.58,4.56-1.33,7.51-2s5.66-1.26,7.62-1.6a18.569,18.569,0,0,1,3.2-.43,22.407,22.407,0,0,1-3.13.78c-1.94.43-4.62,1-7.57,1.74s-5.61,1.4-7.53,1.9a25.942,25.942,0,0,1-3.1.69Z" fill="#12263f"/>
    </g>
    <g id="Grupo_92950" data-name="Grupo 92950" transform="translate(833 7822)">
      <path id="Trazado_186729" data-name="Trazado 186729" d="M491.41,410.15c-3.6-2.73-7.41-3.27-11.93-3.09a36.351,36.351,0,0,0-13.06,3.37c-7.06,3.09-13.7,7.65-17.92,14.11s-5.69,15-2.53,22a3.08,3.08,0,0,0,1.43,1.74,3.4,3.4,0,0,0,2.36-.18c8-2.62,16.13-5.27,23.52-9.37s14.11-9.81,18.07-17.28a14.78,14.78,0,0,0,1.91-5.73,7.16,7.16,0,0,0-1.85-5.6" fill="#2dac9e"/>
      <path id="Trazado_186730" data-name="Trazado 186730" d="M491.49,409.3a3,3,0,0,1-.58.24l-1.69.58-1.22.4c-.44.16-.91.36-1.42.56-1,.41-2.2.82-3.44,1.42l-2,.9c-.68.32-1.36.7-2.09,1.07-1.45.72-2.93,1.63-4.5,2.56a70.92,70.92,0,0,0-17.72,15.59c-1.12,1.44-2.22,2.79-3.11,4.14-.46.67-.93,1.3-1.33,1.93l-1.14,1.84c-.76,1.16-1.32,2.28-1.85,3.23-.26.49-.52.93-.73,1.35s-.39.8-.56,1.15l-.79,1.6a2.689,2.689,0,0,1-.31.54,4,4,0,0,1,.22-.58l.7-1.64.52-1.18c.2-.43.45-.88.7-1.37.51-1,1.05-2.1,1.79-3.28.36-.59.74-1.22,1.12-1.87s.86-1.28,1.32-2c.88-1.37,2-2.73,3.09-4.19a69.23,69.23,0,0,1,17.84-15.7c1.59-.92,3.08-1.82,4.55-2.53.73-.36,1.42-.74,2.11-1.05l2-.87c1.26-.59,2.45-1,3.48-1.37.52-.18,1-.37,1.45-.51l1.23-.37,1.72-.49a3.168,3.168,0,0,1,.64-.1Z" fill="#12263f"/>
      <path id="Trazado_186731" data-name="Trazado 186731" d="M463.33,424.54a82.23,82.23,0,0,1-8.76,2.83,84.009,84.009,0,0,1-8.91,2.34,84.437,84.437,0,0,1,8.77-2.82,86.68,86.68,0,0,1,8.9-2.35Z" fill="#12263f"/>
      <path id="Trazado_186732" data-name="Trazado 186732" d="M463,443.89a15.457,15.457,0,0,1-.19-2.73v-6.6c0-2.6.21-4.91.35-6.59a15.173,15.173,0,0,1,.34-2.72,14.546,14.546,0,0,1,0,2.74c-.05,1.85-.12,4.1-.2,6.58s-.12,4.74-.16,6.59a15.863,15.863,0,0,1-.14,2.73Z" fill="#12263f"/>
      <path id="Trazado_186733" data-name="Trazado 186733" d="M479.54,435.45c-.14,0-.58-4.74-1-10.6a105.782,105.782,0,0,1-.48-10.62c.14-.01.57,4.73,1,10.59A102.477,102.477,0,0,1,479.54,435.45Z" fill="#12263f"/>
      <path id="Trazado_186734" data-name="Trazado 186734" d="M458.92,413.77a15.381,15.381,0,0,1,2.81-.09c1.73,0,4.12.06,6.76.15s5,.2,6.76.3a15.31,15.31,0,0,1,2.8.27,14.865,14.865,0,0,1-2.81.08c-1.73,0-4.12-.06-6.77-.15s-5-.19-6.76-.29A16.109,16.109,0,0,1,458.92,413.77Z" fill="#12263f"/>
    </g>
    <path id="Trazado_186735" data-name="Trazado 186735" d="M500.34,473.28a2.181,2.181,0,0,1-.06-.57,13.028,13.028,0,0,0-.08-1.65c-.06-1.43-.07-3.5,0-6.06s.21-5.6.52-9,.79-7.06,1.47-10.91,1.53-7.48,2.39-10.75,1.77-6.19,2.61-8.6,1.56-4.36,2.11-5.68l.64-1.52a1.93,1.93,0,0,1,.26-.52,2.853,2.853,0,0,1-.16.55c-.15.41-.33.92-.55,1.56-.5,1.34-1.18,3.29-2,5.72s-1.65,5.34-2.51,8.61-1.64,6.89-2.33,10.72-1.16,7.51-1.51,10.87-.54,6.39-.63,8.94-.13,4.62-.13,6.05v1.64a3.288,3.288,0,0,1-.04.6Z" transform="translate(833 7822)" fill="#12263f"/>
    <path id="Trazado_186736" data-name="Trazado 186736" d="M502.55,444.69a11.912,11.912,0,0,1-1.67,1.84c-1.09,1.08-2.63,2.53-4.38,4.07s-3.4,2.87-4.61,3.81a11.258,11.258,0,0,1-2,1.41,12.94,12.94,0,0,1,1.81-1.69l4.51-3.91,4.46-4a13.636,13.636,0,0,1,1.88-1.53Z" transform="translate(833 7822)" fill="#12263f"/>
    <path id="Trazado_186737" data-name="Trazado 186737" d="M515.81,455.37a18.635,18.635,0,0,1-1.78-2.46l-4.14-6-4.23-6a18.485,18.485,0,0,1-1.69-2.52,18.368,18.368,0,0,1,2,2.31c1.16,1.48,2.71,3.56,4.35,5.91s3.05,4.53,4,6.14A17,17,0,0,1,515.81,455.37Z" transform="translate(833 7822)" fill="#12263f"/>
    <path id="Trazado_186738" data-name="Trazado 186738" d="M508.86,421.78c.08.11-4.33,3.08-9.84,6.62s-10,6.32-10.11,6.2,4.33-3.08,9.84-6.62S508.79,421.66,508.86,421.78Z" transform="translate(833 7822)" fill="#12263f"/>
    <path id="Trazado_186739" data-name="Trazado 186739" d="M521.28,435.19a85.674,85.674,0,0,1-6.66-6.16,81.367,81.367,0,0,1-6.31-6.52,83.319,83.319,0,0,1,6.66,6.16,81.363,81.363,0,0,1,6.31,6.52Z" transform="translate(833 7822)" fill="#12263f"/>
    <g id="Grupo_92951" data-name="Grupo 92951" transform="translate(833 7822)">
      <path id="Trazado_186740" data-name="Trazado 186740" d="M524.41,434.92l3.78-.32a18.73,18.73,0,0,0,7.64-2.33,28.092,28.092,0,0,1,3.55-1.79c4.68-1.88,9.9-1.54,14.93-1.8a61.61,61.61,0,0,0,23.74-6.07,2.19,2.19,0,0,0,1-.94c.78-1.41-.66-2.67-1.9-3.44-6.38-3.92-12.86-7.9-20.09-9.85s-15.42-1.62-21.59,2.63c-7.23,5-9.87,15.21-11.09,23.91" fill="#2dac9e"/>
      <path id="Trazado_186741" data-name="Trazado 186741" d="M579.17,421.21a3.312,3.312,0,0,1-.64-.3l-1.79-.94c-1.56-.81-3.8-2-6.62-3.38a62.569,62.569,0,0,0-10.25-3.95,33.869,33.869,0,0,0-13.29-1.07,22.66,22.66,0,0,0-12.1,5.2,26.88,26.88,0,0,0-6.31,8.85,72.506,72.506,0,0,0-2.74,6.9c-.28.79-.5,1.42-.68,1.9a2.9,2.9,0,0,1-.26.66,3.336,3.336,0,0,1,.17-.69l.58-1.93a62.321,62.321,0,0,1,2.61-7,26.781,26.781,0,0,1,6.32-9.05,22.94,22.94,0,0,1,12.35-5.35A33.75,33.75,0,0,1,560,412.2a60,60,0,0,1,10.28,4.07c2.82,1.41,5,2.66,6.56,3.53.72.43,1.31.76,1.75,1A3.463,3.463,0,0,1,579.17,421.21Z" fill="#12263f"/>
      <path id="Trazado_186742" data-name="Trazado 186742" d="M570.09,426.09c-.08.11-5-3.09-11.05-7.15s-10.84-7.44-10.77-7.56,5,3.09,11.05,7.15S570.16,426,570.09,426.09Z" fill="#12263f"/>
      <path id="Trazado_186743" data-name="Trazado 186743" d="M565.34,410.91a11.7,11.7,0,0,1-3.86.77,12.08,12.08,0,0,1-3.94-.05,21.757,21.757,0,0,1,3.89-.45,23.276,23.276,0,0,1,3.91-.27Z" fill="#12263f"/>
      <path id="Trazado_186744" data-name="Trazado 186744" d="M543.16,406.93a13.179,13.179,0,0,1-1.62,3.25,13.392,13.392,0,0,1-2.06,3,13.39,13.39,0,0,1,1.63-3.25A13.183,13.183,0,0,1,543.16,406.93Z" fill="#12263f"/>
      <path id="Trazado_186745" data-name="Trazado 186745" d="M547.59,429a12.776,12.776,0,0,1-2.38-1.29c-1.43-.86-3.36-2.14-5.42-3.63s-3.88-2.92-5.19-4a12.808,12.808,0,0,1-2.05-1.76,14.736,14.736,0,0,1,2.26,1.48l5.27,3.83c2.06,1.49,3.95,2.8,5.32,3.74a15.768,15.768,0,0,1,2.19,1.63Z" fill="#12263f"/>
    </g>
    <g id="Grupo_92952" data-name="Grupo 92952" transform="translate(833 7822)">
      <path id="Trazado_186746" data-name="Trazado 186746" d="M530,451c-3.6-1-7.9,2.56-8.65,6.21s.63,7.4,2.24,10.77a54.8,54.8,0,0,0,14.91,19.51c6.46,5.15,14.55,8.44,22.81,8.4-1.52-7.08.41-14.48-.45-21.68a28.17,28.17,0,0,0-25-24.72c-2.3-.25-5-.61-5.89,1.51" fill="#2dac9e"/>
      <path id="Trazado_186747" data-name="Trazado 186747" d="M561.28,495.87a2.262,2.262,0,0,1-.51-.24,9.112,9.112,0,0,1-1.35-.9,14.089,14.089,0,0,1-3.56-4.77c-.58-1.11-1.22-2.33-1.85-3.67L552.07,482a41.771,41.771,0,0,0-2.38-4.58A35.564,35.564,0,0,0,546.4,473c-2.47-2.9-5.11-5.41-7.41-7.8a51.37,51.37,0,0,1-5.66-6.79,25.389,25.389,0,0,1-2.76-5.28,15.711,15.711,0,0,1-.48-1.54A3.478,3.478,0,0,1,530,451s.26.74.78,2a27.22,27.22,0,0,0,2.88,5.15,52.8,52.8,0,0,0,5.69,6.66c2.31,2.38,5,4.88,7.47,7.81a36.672,36.672,0,0,1,3.32,4.53,41.008,41.008,0,0,1,2.38,4.65l1.9,4.31c.6,1.33,1.23,2.56,1.78,3.68a14.811,14.811,0,0,0,3.37,4.78C560.6,495.49,561.31,495.82,561.28,495.87Z" fill="#12263f"/>
      <path id="Trazado_186748" data-name="Trazado 186748" d="M542.63,490a10.6,10.6,0,0,1,.33-2.42c.28-1.49.75-3.53,1.37-5.75s1.3-4.2,1.83-5.62a10.09,10.09,0,0,1,1-2.24,15.005,15.005,0,0,1-.65,2.36c-.45,1.44-1.06,3.43-1.69,5.64s-1.13,4.22-1.5,5.68A12.782,12.782,0,0,1,542.63,490Z" fill="#12263f"/>
      <path id="Trazado_186749" data-name="Trazado 186749" d="M560.6,472.6a14.76,14.76,0,0,1-2.54-.59c-1.56-.4-3.7-1-6.09-1.5s-4.57-.95-6.15-1.25a15.424,15.424,0,0,1-2.54-.56,11.85,11.85,0,0,1,2.6.21c1.6.21,3.8.58,6.2,1.11s4.54,1.16,6.08,1.65a12.74,12.74,0,0,1,2.44.93Z" fill="#12263f"/>
      <path id="Trazado_186750" data-name="Trazado 186750" d="M529.24,477.65a16.108,16.108,0,0,1,.39-2.81c.32-1.72.83-4.09,1.5-6.68s1.39-4.89,2-6.55a14.575,14.575,0,0,1,1-2.64,17.727,17.727,0,0,1-.69,2.74c-.48,1.68-1.14,4-1.81,6.58s-1.23,4.92-1.64,6.62A16.693,16.693,0,0,1,529.24,477.65Z" fill="#12263f"/>
      <path id="Trazado_186751" data-name="Trazado 186751" d="M552.32,457.45c0,.14-4.52-.23-10.05-.82a99.306,99.306,0,0,1-10-1.31c0-.14,4.52.23,10.06.81a99.877,99.877,0,0,1,9.99,1.32Z" fill="#12263f"/>
    </g>
    <path id="Trazado_186752" data-name="Trazado 186752" d="M549,512.06c0,.13-15.83.25-35.35.25s-35.35-.12-35.35-.25,15.82-.26,35.35-.26S549,511.92,549,512.06Z" transform="translate(833 7822)" fill="#375a64"/>
    <path id="Trazado_186753" data-name="Trazado 186753" d="M538,532.43c0,.13-10.66.25-23.82.25s-23.82-.12-23.82-.25,10.66-.26,23.82-.26S538,532.29,538,532.43Z" transform="translate(833 7822)" fill="#375a64"/>
    <path id="Trazado_186754" data-name="Trazado 186754" d="M538.43,535.34c0,.14-10.67.25-23.82.25s-23.82-.11-23.82-.25,10.66-.25,23.82-.25S538.43,535.2,538.43,535.34Z" transform="translate(833 7822)" fill="#375a64"/>
    <path id="Trazado_186755" data-name="Trazado 186755" d="M538.43,530c0,.14-11,.26-24.64.26s-24.64-.12-24.64-.26,11-.25,24.64-.25S538.43,529.89,538.43,530Z" transform="translate(833 7822)" fill="#375a64"/>
  </g>
</svg>
