<svg xmlns="http://www.w3.org/2000/svg" width="604" height="604" viewBox="0 0 604 604">
  <g id="Grupo_94294" data-name="Grupo 94294" transform="translate(-180 -8715)">
    <rect id="Rectángulo_39114" data-name="Rectángulo 39114" width="604" height="604" transform="translate(180 8715)" fill="none"/>
    <g id="Grupo_92957" data-name="Grupo 92957" transform="translate(180 8715)">
      <rect id="Rectángulo_39115" data-name="Rectángulo 39115" width="145.02" height="210.2" transform="translate(86.33 62.1)" fill="#e1e1e1"/>
      <rect id="Rectángulo_39116" data-name="Rectángulo 39116" width="145.02" height="210.2" transform="translate(79.06 62.1)" fill="#f5f5f5"/>
      <g id="Grupo_92954" data-name="Grupo 92954">
        <rect id="Rectángulo_39117" data-name="Rectángulo 39117" width="108.99" height="164.67" transform="translate(97.08 84.87)" fill="#fff"/>
        <path id="Trazado_186756" data-name="Trazado 186756" d="M206.07,249.54V237.4c0-7.89-.06-19.39-.1-33.92,0-29-.1-70.15-.18-118.57l.37.36h-109l.39-.39c0,62.12-.06,119.39-.08,164.67l-.31-.32,79.33.17,21.91.08h.14l-21.85.08-79.52.16h-.32v-.31c0-45.28-.05-102.55-.08-164.67v-.4H206.54v.37c-.08,48.51-.14,89.71-.18,118.81,0,14.49-.08,26-.1,33.84v11.29A2.07,2.07,0,0,1,206.07,249.54Z" fill="#e1e1e1"/>
      </g>
      <path id="Trazado_186757" data-name="Trazado 186757" d="M224.49,62.1a25.089,25.089,0,0,1-2.58,3.75c-1.69,2.26-4.08,5.32-6.81,8.64s-5.28,6.24-7.17,8.33a26.069,26.069,0,0,1-3.19,3.26,26.841,26.841,0,0,1,2.77-3.63l7-8.47,7-8.47a26.542,26.542,0,0,1,2.98-3.41Z" fill="#e1e1e1"/>
      <g id="Grupo_92955" data-name="Grupo 92955">
        <path id="Trazado_186758" data-name="Trazado 186758" d="M206.62,249a134.761,134.761,0,0,0,19,23.77" fill="#fff"/>
        <path id="Trazado_186759" data-name="Trazado 186759" d="M225.63,272.78a21.428,21.428,0,0,1-3.31-3,101.2,101.2,0,0,1-7.17-8.08,105.362,105.362,0,0,1-6.32-8.78,21.239,21.239,0,0,1-2.21-3.89,28.117,28.117,0,0,1,2.67,3.58c1.6,2.24,3.85,5.31,6.47,8.59s5.12,6.15,7,8.2a30.745,30.745,0,0,1,2.87,3.38Z" fill="#e1e1e1"/>
      </g>
      <g id="Grupo_92956" data-name="Grupo 92956">
        <path id="Trazado_186760" data-name="Trazado 186760" d="M79,272.14q9.49-11.73,19-23.44" fill="#fff"/>
        <path id="Trazado_186761" data-name="Trazado 186761" d="M98,248.7c.16.14-4,5.5-9.2,12s-9.63,11.6-9.8,11.47,3.95-5.5,9.19-12S97.87,248.56,98,248.7Z" fill="#e1e1e1"/>
      </g>
      <path id="Trazado_186762" data-name="Trazado 186762" d="M79.06,62.1c.17-.14,4.3,4.8,9.22,11s8.77,11.38,8.6,11.51-4.3-4.8-9.22-11S78.89,62.23,79.06,62.1Z" fill="#e1e1e1"/>
    </g>
    <g id="Grupo_92958" data-name="Grupo 92958" transform="translate(180 8715)">
      <path id="Trazado_186763" data-name="Trazado 186763" d="M168.72,167.42a9,9,0,1,1-9-9,9,9,0,0,1,9,9Z" fill="#e1e1e1"/>
      <path id="Trazado_186764" data-name="Trazado 186764" d="M173.53,135.86a6.7,6.7,0,1,1-6.7-6.69,6.7,6.7,0,0,1,6.7,6.69Z" fill="#e1e1e1"/>
      <path id="Trazado_186765" data-name="Trazado 186765" d="M147.46,146.17a4.84,4.84,0,1,1-1.418-3.432A4.85,4.85,0,0,1,147.46,146.17Z" fill="#e1e1e1"/>
      <path id="Trazado_186766" data-name="Trazado 186766" d="M174.18,197a3,3,0,1,1,.887-2.13,3,3,0,0,1-.887,2.13Z" fill="#e1e1e1"/>
      <path id="Trazado_186767" data-name="Trazado 186767" d="M133.37,173.12a4.85,4.85,0,1,1-4.85-4.85,4.85,4.85,0,0,1,4.85,4.85Z" fill="#e1e1e1"/>
      <path id="Trazado_186768" data-name="Trazado 186768" d="M159.76,167.42c.3-.14,3.3,5.62,6.69,12.88s5.9,13.25,5.6,13.39-3.3-5.62-6.69-12.88S159.46,167.56,159.76,167.42Z" fill="#e1e1e1"/>
      <path id="Trazado_186769" data-name="Trazado 186769" d="M159,168.33c.05.32-6.49,1.56-14.6,2.77s-14.73,1.9-14.78,1.57,6.49-1.57,14.6-2.77S159,168,159,168.33Z" fill="#e1e1e1"/>
      <path id="Trazado_186770" data-name="Trazado 186770" d="M158.43,164c-.21.24-4.37-3.15-8.55-8.25s-6.72-9.83-6.45-10,3.25,4.21,7.38,9.22S158.67,163.76,158.43,164Z" fill="#e1e1e1"/>
      <path id="Trazado_186771" data-name="Trazado 186771" d="M166.83,135.86h0v.22l-.15.87c-.22,1-.45,2.06-.69,3.15-.61,2.66-1.5,6.32-2.53,10.35-2.07,8.06-3.8,14.58-4.1,14.51s.86-6.73,2.93-14.8c1-4,2.06-7.67,2.88-10.28.41-1.3.78-2.35,1.06-3.06a7,7,0,0,1,.37-.82,1.331,1.331,0,0,1,.14-.2h.08C166.78,135.8,166.83,135.86,166.83,135.86Z" fill="#e1e1e1"/>
    </g>
    <path id="Trazado_186772" data-name="Trazado 186772" d="M118.73,338.91a23.189,23.189,0,0,1,5.7-2.48l1.18-5.65,9.54-.17,1.37,5.61a23.469,23.469,0,0,1,5.79,2.27l4.82-3.16L154,342l-3,4.93a23.19,23.19,0,0,1,2.48,5.7l5.65,1.18.17,9.54-5.6,1.37a23.9,23.9,0,0,1-2.28,5.79l3.16,4.82L148,382.16l-4.93-3a23.579,23.579,0,0,1-5.7,2.48l-1.18,5.64-9.54.17-1.37-5.6a23.109,23.109,0,0,1-5.79-2.28l-4.82,3.16-6.86-6.63,3-4.93a23.58,23.58,0,0,1-2.48-5.7l-5.64-1.18-.17-9.53,5.6-1.38a23.5,23.5,0,0,1,2.28-5.79l-3.16-4.82,6.63-6.86,4.93,3Zm5.08,12.71a10.23,10.23,0,1,0,14.47-.26,10.23,10.23,0,0,0-14.47.26Z" transform="translate(180 8715)" fill="#f5f5f5"/>
    <path id="Trazado_186773" data-name="Trazado 186773" d="M123.81,351.62a7.8,7.8,0,0,1,1.91-1.68,10.24,10.24,0,0,1,6.68-1.58,10.43,10.43,0,0,1,8.2,5.75,9.66,9.66,0,0,1,.93,2.87,9.83,9.83,0,0,1,.06,3.16,10.44,10.44,0,0,1-8.64,8.95,9.81,9.81,0,0,1-3.15.05,9.7,9.7,0,0,1-2.9-.83,10.52,10.52,0,0,1-4.27-3.52,10.37,10.37,0,0,1-1.77-4.48,10.16,10.16,0,0,1,1.35-6.73,7.789,7.789,0,0,1,1.6-2,24.267,24.267,0,0,0-1.4,2.07,10.17,10.17,0,0,0-1.14,6.55,10,10,0,0,0,5.85,7.58,10.12,10.12,0,0,0,5.74.7,9.91,9.91,0,0,0,8.16-8.46,9.29,9.29,0,0,0,0-3,9.17,9.17,0,0,0-.86-2.73,10.17,10.17,0,0,0-3.45-4,10,10,0,0,0-4.32-1.6,10.16,10.16,0,0,0-6.51,1.36,22.5,22.5,0,0,0-2.07,1.57Z" transform="translate(180 8715)" fill="#f5f5f5"/>
    <path id="Trazado_186774" data-name="Trazado 186774" d="M118.73,338.91l-.32-.17-1-.55L113.75,336h.11l-6.58,6.91v-.19l3.18,4.81.06.09v.09a23.27,23.27,0,0,0-2.24,5.75v.11h-.11L102.5,355l.16-.21q.09,4.51.19,9.54l-.18-.22,5.64,1.16h.15v.14a22.87,22.87,0,0,0,2.46,5.64l.08.13-.08.14-3,4.93v-.32l6.87,6.61h-.34l4.82-3.16.14-.09.15.08a22.878,22.878,0,0,0,5.72,2.24h.16v.17c.44,1.75.91,3.67,1.38,5.6l-.28-.22,9.54-.17-.28.23,1.17-5.64v-.18l.17-.05a23.261,23.261,0,0,0,5.63-2.44h0l.15-.1.15.1,4.93,3h-.36l6.63-6.86v.36q-1.6-2.43-3.16-4.82l-.1-.15.09-.15a23.469,23.469,0,0,0,2.25-5.72v-.16h.17l5.6-1.37-.21.27q-.09-4.87-.16-9.54l.21.26-5.64-1.18h-.16v-.15a23.26,23.26,0,0,0-2.44-5.65l-.08-.13.08-.13,3-4.93v.3L147,335.49h.28l-4.83,3.15-.1.07-.12-.06a22.9,22.9,0,0,0-5.73-2.28h-.11v-.11c-.49-2-.93-3.87-1.35-5.6l.17.13-9.54.12.12-.1c-.48,2.25-.88,4.1-1.21,5.64v.05h-.05a23.9,23.9,0,0,0-4.37,1.68l-1,.53-.34.18a1.581,1.581,0,0,1,.31-.22c.22-.13.55-.34,1-.58a22.623,22.623,0,0,1,4.35-1.77l-.06.07c.31-1.54.68-3.4,1.14-5.66v-.1h.1l9.54-.21h.14v.13c.43,1.73.89,3.57,1.4,5.6l-.14-.14a23.5,23.5,0,0,1,5.84,2.28h-.22l4.82-3.18.14-.09.13.12,6.88,6.61.14.14-.1.17-3,4.93v-.26a23.629,23.629,0,0,1,2.52,5.76l-.2-.18,5.64,1.16.22.05v.21q.09,4.67.18,9.54v.23l-.22.05-5.6,1.38.21-.21a23.261,23.261,0,0,1-2.3,5.86v-.3l3.16,4.82.13.2-.16.16-6.63,6.87-.16.17-.2-.12-4.93-3h.3a24.059,24.059,0,0,1-5.77,2.51l.2-.22-1.17,5.64-.05.23h-.23l-9.54.17h-.23l-.06-.22c-.47-1.94-.94-3.85-1.37-5.6l.21.2a23.412,23.412,0,0,1-5.85-2.31h.28L114.77,383l-.18.12-.16-.15-6.86-6.64-.15-.14.11-.18c1-1.72,2.07-3.4,3-4.93v.27a23.8,23.8,0,0,1-2.5-5.77l.19.17-5.65-1.19h-.18v-.18c0-3.35-.1-6.54-.15-9.54v-.17h.16l5.6-1.47-.14.15a23.419,23.419,0,0,1,2.31-5.83v.18c-1.14-1.74-2.19-3.37-3.15-4.84l-.06-.1.08-.08,6.67-6.83v-.05h.06l3.64,2.26.93.59a3.281,3.281,0,0,1,.39.26Z" transform="translate(180 8715)" fill="#f5f5f5"/>
    <path id="Trazado_186775" data-name="Trazado 186775" d="M513.22,246.91a16.33,16.33,0,0,1,3.89-1.69l.81-3.85,6.51-.12.94,3.83a15.822,15.822,0,0,1,4,1.55l3.29-2.16L537.3,249l-2,3.36a16.39,16.39,0,0,1,1.69,3.9l3.85.8.12,6.51-3.83.94a15.526,15.526,0,0,1-1.55,3.95l2.16,3.29-4.53,4.69-3.36-2a15.778,15.778,0,0,1-3.9,1.69l-.8,3.86-6.51.11-.94-3.82a15.941,15.941,0,0,1-3.95-1.56l-3.3,2.16-4.68-4.52,2-3.37a15.559,15.559,0,0,1-1.69-3.89l-3.86-.81-.11-6.51,3.82-.94a16.249,16.249,0,0,1,1.56-4l-2.16-3.29,4.52-4.69,3.37,2Zm3.47,8.68a7,7,0,1,0,9.88-.17,7,7,0,0,0-9.88.17Z" transform="translate(180 8715)" fill="#f5f5f5"/>
    <path id="Trazado_186776" data-name="Trazado 186776" d="M516.69,255.59a5.521,5.521,0,0,1,1.3-1.14,7.045,7.045,0,0,1,10.16,2.82,6.8,6.8,0,0,1,.64,2,6.72,6.72,0,0,1,0,2.15,7.13,7.13,0,0,1-5.9,6.11,6.47,6.47,0,0,1-2.15,0,6.85,6.85,0,0,1-2-.56,7.091,7.091,0,0,1-3.21-10.06,5.31,5.31,0,0,1,1.1-1.34,9.84,9.84,0,0,0-1,1.42,6.939,6.939,0,0,0-.77,4.47,6.74,6.74,0,0,0,1.2,2.91,6.83,6.83,0,0,0,2.79,2.26,6.561,6.561,0,0,0,1.88.53,6.3,6.3,0,0,0,2-.05,6.76,6.76,0,0,0,5.58-5.78,6.282,6.282,0,0,0,0-2,6.13,6.13,0,0,0-.59-1.86,6.8,6.8,0,0,0-2.35-2.71,6.93,6.93,0,0,0-7.4-.17Q517.306,255.058,516.69,255.59Z" transform="translate(180 8715)" fill="#f5f5f5"/>
    <path id="Trazado_186777" data-name="Trazado 186777" d="M513.22,246.91l-.22-.11-.64-.37-2.54-1.5h.08l-4.5,4.71v-.13l2.17,3.29v.12a15.93,15.93,0,0,0-1.53,3.92v.08h-.08l-3.82.95.11-.14c0,2.05.08,4.23.13,6.51l-.13-.15,3.86.79h.1v.1a15.589,15.589,0,0,0,1.69,3.85l.05.09-.05.09-2,3.37v-.22l4.69,4.52h-.23l3.29-2.17.1-.06.1.06a16.09,16.09,0,0,0,3.9,1.53h.12v.11c.29,1.2.61,2.51.94,3.83l-.2-.15,6.52-.12-.2.16c.26-1.22.53-2.53.81-3.86v-.12h.12a15.541,15.541,0,0,0,3.84-1.67h0l.11-.06.1.06,3.37,2h-.25l4.52-4.68v.24c-.73-1.1-1.44-2.2-2.16-3.29l-.06-.1.06-.1a15.731,15.731,0,0,0,1.53-3.91v-.11h.12l3.82-.93-.14.19q-.06-3.34-.11-6.52l.15.18-3.86-.81h-.11v-.1a15.869,15.869,0,0,0-1.67-3.86l-.06-.09.06-.09,2-3.36v.21l-4.68-4.54h.19l-3.29,2.15-.08.05h-.07a15.942,15.942,0,0,0-3.92-1.56h-.07v-.07c-.34-1.39-.64-2.65-.93-3.83l.12.09-6.51.09.08-.08c-.33,1.54-.6,2.8-.82,3.85h0a16.941,16.941,0,0,0-3,1.15l-.7.36-.23.12.22-.14a7.807,7.807,0,0,1,.68-.4,15.851,15.851,0,0,1,3-1.21l-.05.05c.21-1.06.47-2.32.78-3.86v-.07h.07l6.52-.15h.09v.09c.3,1.19.61,2.44,1,3.82l-.09-.09a15.76,15.76,0,0,1,4,1.56h-.15l3.29-2.17.1-.06.09.08,4.69,4.52.1.09-.07.11-2,3.37v-.18a16,16,0,0,1,1.72,3.94l-.14-.13,3.86.8h.14v.15q.06,3.18.12,6.51v.15h-.15l-3.82.94.14-.14a16.072,16.072,0,0,1-1.57,4v-.2c.72,1.08,1.43,2.18,2.16,3.29l.09.13-.11.11-4.52,4.69-.12.12-.13-.09-3.37-2h.21a16.559,16.559,0,0,1-3.94,1.72l.14-.16c-.28,1.33-.55,2.64-.81,3.86v.15h-.16l-6.51.11h-.16v-.15l-.93-3.83.14.15a16.361,16.361,0,0,1-4-1.58h.2L510.52,277l-.13.08-.11-.1-4.68-4.54-.1-.09.08-.13,2-3.36V269a16,16,0,0,1-1.7-3.94l.12.12-3.85-.81h-.12v-.12c0-2.29-.06-4.47-.1-6.52v-.11h.11l3.83-.92-.1.09a16.7,16.7,0,0,1,1.58-4v.13l-2.15-3.3v-.07l.06-.06,4.55-4.66h.05l2.47,1.54.64.41Z" transform="translate(180 8715)" fill="#f5f5f5"/>
    <path id="Trazado_186778" data-name="Trazado 186778" d="M482.17,150.17a37.38,37.38,0,0,1,9.17-4l1.88-9.07,15.33-.27,2.2,9a37.549,37.549,0,0,1,9.3,3.65l7.75-5.07,11,10.64L534,163a37.408,37.408,0,0,1,4,9.17l9.07,1.88.27,15.33-9,2.21a37.43,37.43,0,0,1-3.66,9.29l5.08,7.75-10.65,11-7.92-4.81a37.51,37.51,0,0,1-9.16,4l-1.89,9.07-15.33.27-2.2-9a37.5,37.5,0,0,1-9.3-3.66l-7.74,5.08-11-10.65,4.8-7.92a37.471,37.471,0,0,1-4-9.16L456.3,191l-.3-15.36,9-2.2a37.861,37.861,0,0,1,3.65-9.3l-5.07-7.75,10.64-11,7.92,4.8Zm8.17,20.41a16.45,16.45,0,1,0,23.25-.4,16.45,16.45,0,0,0-23.25.4Z" transform="translate(180 8715)" fill="#ececec"/>
    <path id="Trazado_186779" data-name="Trazado 186779" d="M490.34,170.58a12.4,12.4,0,0,1,3.06-2.68,16.4,16.4,0,0,1,10.73-2.54,16.7,16.7,0,0,1,7.29,2.59,16.92,16.92,0,0,1,5.9,6.64,15.93,15.93,0,0,1,1.49,4.62,15.591,15.591,0,0,1,.09,5.06A16.77,16.77,0,0,1,505,198.65a16,16,0,0,1-5.07.09,15.761,15.761,0,0,1-4.66-1.34,16.88,16.88,0,0,1-6.85-5.66,16.63,16.63,0,0,1-.69-18,12.658,12.658,0,0,1,2.58-3.16c.09.08-1,1.08-2.26,3.34a16.4,16.4,0,0,0-1.82,10.53,16.076,16.076,0,0,0,18.61,13.29A15.93,15.93,0,0,0,518,184.15a14.782,14.782,0,0,0-.07-4.79,14.939,14.939,0,0,0-1.38-4.38,16.22,16.22,0,0,0-22.94-6.77C491.38,169.56,490.42,170.67,490.34,170.58Z" transform="translate(180 8715)" fill="#ececec"/>
    <path id="Trazado_186780" data-name="Trazado 186780" d="M482.17,150.17a4.64,4.64,0,0,1-.51-.27l-1.52-.88-6-3.52h.19l-10.58,11.09v-.3l5.1,7.73.1.14-.08.15a37.291,37.291,0,0,0-3.6,9.23l-.05.18-.18.05-9,2.23.25-.33c.1,4.82.2,10,.31,15.32l-.3-.35,9.08,1.87h.23l.06.23a37.18,37.18,0,0,0,4,9.06l.12.21-.12.21-4.79,7.93-.07-.52,11,10.63-.55-.05c2.42-1.58,5.06-3.32,7.74-5.09l.23-.14.24.13a37.781,37.781,0,0,0,9.19,3.61l.27.06.06.27c.69,2.82,1.45,5.89,2.21,9l-.45-.36,15.32-.27-.45.37c.6-2.86,1.24-6,1.89-9.07l.05-.28.28-.08a37.2,37.2,0,0,0,9-3.92h0l.24-.14.25.14,7.91,4.8-.58.08,10.65-11v.58l-5.08-7.74-.15-.24.14-.24a37.462,37.462,0,0,0,3.61-9.18l.07-.27.27-.07,9-2.2-.34.45c-.09-5.23-.17-10.35-.26-15.33l.35.42-9.07-1.9h-.25l-.07-.25a37.582,37.582,0,0,0-3.92-9.07l-.13-.21.13-.21,4.81-7.91.06.49-11-10.67h.45l-7.76,5.06-.17.11-.18-.1a36.929,36.929,0,0,0-9.21-3.65l-.18-.05-.05-.18c-.79-3.27-1.5-6.22-2.17-9l.27.22-15.32.2.2-.17c-.78,3.62-1.41,6.59-1.94,9.06v.09h-.09a39.089,39.089,0,0,0-7,2.7l-1.65.86a4.833,4.833,0,0,1-.55.28l.51-.35c.35-.21.88-.54,1.62-.93a36.313,36.313,0,0,1,7-2.85l-.1.12,1.83-9.09v-.16h.17l15.32-.33h.23l.05.22c.69,2.78,1.42,5.72,2.24,9l-.23-.23a38.31,38.31,0,0,1,9.39,3.67h-.35l7.73-5.1.24-.15.21.2,11.05,10.62.22.22-.16.27-4.79,7.92v-.42a37.362,37.362,0,0,1,4,9.26l-.32-.3,9.08,1.88.33.07V174q.13,7.47.29,15.32v.36l-.35.09-9,2.21.33-.34a37.9,37.9,0,0,1-3.7,9.42v-.48l5.08,7.74.2.31-.26.27q-5.25,5.44-10.64,11l-.26.27-.32-.19-7.92-4.8h.48a38.351,38.351,0,0,1-9.27,4l.33-.36c-.65,3.12-1.3,6.21-1.89,9.07l-.08.37h-.37l-15.33.26h-.37l-.08-.35c-.76-3.11-1.51-6.19-2.2-9l.33.33a38.239,38.239,0,0,1-9.41-3.71h.47L475.82,221l-.3.2-.25-.25-11-10.66L464,210l.18-.29,4.81-7.91v.42a37.941,37.941,0,0,1-4-9.27l.3.28-9.07-1.91-.29-.06V191c-.09-5.38-.16-10.5-.24-15.33v-.27l.26-.06,9-2.18-.22.22a37.63,37.63,0,0,1,3.71-9.35v.28l-5-7.76-.11-.17.14-.13,10.7-11,.09-.08.1.06,5.83,3.63,1.5.95a5.086,5.086,0,0,1,.48.36Z" transform="translate(180 8715)" fill="#ececec"/>
    <path id="Trazado_186781" data-name="Trazado 186781" d="M137.09,290.59l1.32,2.2a15.08,15.08,0,0,0,6.22,5.73l2.3,1.13-2.2,1.32A15.17,15.17,0,0,0,139,307.2l-1.14,2.29-1.32-2.19a15,15,0,0,0-6.22-5.73l-2.3-1.14,2.2-1.32a15.08,15.08,0,0,0,5.73-6.22Z" transform="translate(180 8715)" fill="#e1e1e1"/>
    <path id="Trazado_186782" data-name="Trazado 186782" d="M439.37,114.18l.66,1.1a7.53,7.53,0,0,0,3.11,2.86l1.15.57-1.1.66a7.46,7.46,0,0,0-2.86,3.11l-.57,1.15-.66-1.1a7.58,7.58,0,0,0-3.11-2.86l-1.15-.57,1.09-.66a7.49,7.49,0,0,0,2.87-3.11Z" transform="translate(180 8715)" fill="#e1e1e1"/>
    <path id="Trazado_186783" data-name="Trazado 186783" d="M419.69,80.22l2,3.38a23.07,23.07,0,0,0,9.57,8.82l3.54,1.75-3.38,2a23.09,23.09,0,0,0-8.82,9.58l-1.75,3.53-2-3.38a23.28,23.28,0,0,0-9.58-8.82l-3.53-1.74,3.38-2a23.11,23.11,0,0,0,8.81-9.57Z" transform="translate(180 8715)" fill="#e1e1e1"/>
    <path id="Trazado_186784" data-name="Trazado 186784" d="M477.65,508.88l.66,1.1a7.55,7.55,0,0,0,3.11,2.87l1.15.56-1.1.66a7.64,7.64,0,0,0-2.87,3.12l-.56,1.15-.67-1.1a7.49,7.49,0,0,0-3.11-2.87l-1.15-.57,1.1-.66a7.49,7.49,0,0,0,2.87-3.11Z" transform="translate(180 8715)" fill="#e1e1e1"/>
    <path id="Trazado_186785" data-name="Trazado 186785" d="M546.55,315l2,3.38a23.07,23.07,0,0,0,9.57,8.82l3.58,1.8-3.38,2a23.15,23.15,0,0,0-8.82,9.58l-1.75,3.53-2-3.38a23.13,23.13,0,0,0-9.58-8.81l-3.53-1.75,3.38-2a23.11,23.11,0,0,0,8.81-9.57Z" transform="translate(180 8715)" fill="#e1e1e1"/>
    <path id="Trazado_186786" data-name="Trazado 186786" d="M560.48,559.59c0,.17-103.38.31-230.88.31s-230.91-.14-230.91-.31,103.36-.31,230.91-.31S560.48,559.42,560.48,559.59Z" transform="translate(180 8715)" fill="#12263f"/>
    <g id="Grupo_92973" data-name="Grupo 92973" transform="translate(180 8715)">
      <path id="Trazado_186787" data-name="Trazado 186787" d="M237.76,303.45c-11.26,4.47-18.33,11.76-25.68,21.39-13.32,17.42-91,102.76-91.25,104.58-10,32.15,36.29,61.66,65.81,37.61,15.28-12.45,62.46-76,62.46-76l-2.27-91.14Z" fill="#e1e1e1"/>
      <path id="Trazado_186788" data-name="Trazado 186788" d="M460.79,301.27c-9.18-7.87-38.14-12.63-38.14-12.63L418,290.09c2.47,12.6,17.89,91.37,17.89,93.18,0,2,126.62,83.32,126.62,83.32l14.45-56.67S470,309.14,460.79,301.27Z" fill="#e1e1e1"/>
      <path id="Trazado_186789" data-name="Trazado 186789" d="M245.83,300.65l51.01-13.54,16.53-21.26,76.83,2.41,12.89,14.56,45.04,12.41-3.37,220.96,13.54,43.06H222.91l18.8-60.54-8.93-104Z" fill="#e1e1e1"/>
      <g id="Grupo_92967" data-name="Grupo 92967">
        <g id="Grupo_92966" data-name="Grupo 92966">
          <path id="Trazado_186790" data-name="Trazado 186790" d="M407.92,125.07c-16.19-19.79-37.93-31.18-63.49-31.6C330,93.23,324,96.23,313.65,99s-19.75,8.4-25.95,17.2c-7.36,10.44-13.54,22.14-14.93,34.84-1.43,13-2.86,26.18-1.88,39.27s4.54,26.26,12.25,36.89l33.3,5.78c18.39.63,37,1.23,54.95-3s35.33-13.84,44.92-29.54C429.64,178.66,424.11,144.86,407.92,125.07Z" fill="#12263f"/>
          <path id="Trazado_186791" data-name="Trazado 186791" d="M293.22,246c.06.07-.55.82-2,1.74a16.23,16.23,0,0,1-6.86,2.32,17.292,17.292,0,0,1-8.93-33.03,16.3,16.3,0,0,1,7.09-1.46,5.13,5.13,0,0,1,2.6.51c0,.4-3.88-.43-9.09,2.21a17.25,17.25,0,0,0-7.07,6.82,16.36,16.36,0,0,0,5.74,21.23,17.16,17.16,0,0,0,9.55,2.32C290.08,248.27,293,245.59,293.22,246Z" fill="#e1e1e1"/>
          <path id="Trazado_186792" data-name="Trazado 186792" d="M440.2,221.74c-.83-7.51-4.77-14.89-11.28-18.74s-15.6-3.45-21,1.82l-5.23,6.24c-8.2,3.49-13.36,12.82-12.36,21.68s7.8,16.66,16.33,19.27a26.07,26.07,0,0,0,24.82-6A29.26,29.26,0,0,0,440.2,221.74Z" fill="#12263f"/>
          <path id="Trazado_186793" data-name="Trazado 186793" d="M433.6,244.2c-.25-.12,2.06-2.25,1.79-6.63s-3.38-9.85-7.62-15a45.339,45.339,0,0,0-13.35-10.7c-3.9-2.09-6.58-2.86-6.5-3.13s2.86.21,7,2.1A39.86,39.86,0,0,1,429,221.55a39.209,39.209,0,0,1,5.39,8.18,18,18,0,0,1,2.14,7.8,9.36,9.36,0,0,1-1.49,5.29C434.3,243.89,433.66,244.27,433.6,244.2Z" fill="#375a64"/>
          <path id="Trazado_186794" data-name="Trazado 186794" d="M417.49,254c-.55,0,1.72-10.1-1.49-22-3-11.94-9.94-19.61-9.48-19.9.14-.13,2,1.58,4.4,4.94a46.38,46.38,0,0,1,8,30.49C418.48,251.66,417.66,254.08,417.49,254Z" fill="#375a64"/>
          <g id="Grupo_92965" data-name="Grupo 92965">
            <path id="Trazado_186795" data-name="Trazado 186795" d="M390,136.77a12.37,12.37,0,0,0-11.74-11.92L333.9,107.2l-11.6,1.35c-26.1.09-44.09,28.87-44.26,50-.19,23.48.5,52.15,4.23,69.46,7.5,34.8,34.66,37.79,34.66,37.79a97.471,97.471,0,0,0,1.6,19.05l33.22,102.81,39.61-102.25Z" fill="#a26760"/>
            <path id="Trazado_186796" data-name="Trazado 186796" d="M334.47,219.88a7.38,7.38,0,0,0-2.56-4.57,7.56,7.56,0,0,0-9.18-.53,10.14,10.14,0,0,0-3.86,9.52h0a9.24,9.24,0,0,0,6.6,3.83,10.256,10.256,0,0,0,1.24,0,8.25,8.25,0,0,0,5.58-2.21,7.37,7.37,0,0,0,2.18-6.04Z" fill="#7b4b45"/>
            <g id="Grupo_92963" data-name="Grupo 92963">
              <path id="Trazado_186797" data-name="Trazado 186797" d="M295.29,182.6a4.52,4.52,0,0,0,4.59,4.31,4.3,4.3,0,0,0,4.42-4.31,4.5,4.5,0,0,0-4.58-4.31,4.32,4.32,0,0,0-4.43,4.31Z" fill="#12263f"/>
              <path id="Trazado_186798" data-name="Trazado 186798" d="M286.68,171.59c.59.56,3.86-2.15,8.71-2.41s8.53,2,9,1.36c.24-.28-.39-1.31-2-2.35a12.38,12.38,0,0,0-7.27-1.81,11.87,11.87,0,0,0-6.89,2.65C286.83,170.25,286.39,171.34,286.68,171.59Z" fill="#12263f"/>
              <path id="Trazado_186799" data-name="Trazado 186799" d="M317.13,208.3c0-.28-3-.64-7.95-1-1.25-.06-2.43-.24-2.69-1.08a7.084,7.084,0,0,1,.63-3.71q1.5-4.59,3.14-9.62c4.35-13.69,7.42-24.92,6.87-25.09s-4.53,10.79-8.87,24.48l-3,9.67c-.39,1.43-1.11,3.07-.37,4.89a3.13,3.13,0,0,0,2.13,1.7,8.64,8.64,0,0,0,2.12.17C314.07,208.72,317.12,208.57,317.13,208.3Z" fill="#12263f"/>
              <path id="Trazado_186800" data-name="Trazado 186800" d="M316.93,265.81a89.43,89.43,0,0,0,46.33-15.12s-10.76,25.08-46.08,23.72Z" fill="#7b4b45"/>
              <path id="Trazado_186801" data-name="Trazado 186801" d="M331.57,210.86c-.79,0-.51,5.26-4.81,9.24s-9.93,3.71-9.93,4.45c-.05.33,1.31.95,3.68.88a13.1,13.1,0,0,0,8.3-3.41,11.41,11.41,0,0,0,3.69-7.73C332.58,212.09,331.93,210.81,331.57,210.86Z" fill="#12263f"/>
              <path id="Trazado_186802" data-name="Trazado 186802" d="M287.64,153.33c.88,1.14,4.55.14,8.9.27s8,1.06,8.9-.06c.4-.54-.14-1.67-1.71-2.77a13.8,13.8,0,0,0-14.34-.18C287.81,151.66,287.25,152.77,287.64,153.33Z" fill="#12263f"/>
              <path id="Trazado_186803" data-name="Trazado 186803" d="M351.67,181.32A4.51,4.51,0,0,1,347.4,186a4.31,4.31,0,0,1-4.71-4,4.49,4.49,0,0,1,4.26-4.62,4.3,4.3,0,0,1,4.72,3.94Z" fill="#12263f"/>
              <path id="Trazado_186804" data-name="Trazado 186804" d="M353.07,169.85c-.55.6-4-1.87-8.86-1.77s-8.36,2.59-8.9,2c-.26-.26.29-1.33,1.82-2.48a12.38,12.38,0,0,1,7.11-2.33,11.9,11.9,0,0,1,7.07,2.14C352.82,168.53,353.34,169.59,353.07,169.85Z" fill="#12263f"/>
              <path id="Trazado_186805" data-name="Trazado 186805" d="M355.86,159.44c-.94,1.12-4.7,0-9.2.06s-8.3.89-9.2-.25c-.39-.55.19-1.66,1.83-2.74a14,14,0,0,1,7.45-1.93,13.71,13.71,0,0,1,7.38,2.08C355.73,157.77,356.27,158.9,355.86,159.44Z" fill="#12263f"/>
            </g>
            <g id="Grupo_92964" data-name="Grupo 92964">
              <path id="Trazado_186806" data-name="Trazado 186806" d="M384,195.77c-.14-2.62,2.54-9,5.1-9.49,6.84-1.46,19.3-1.59,20.37,15.92,1.47,23.93-22.85,20.47-22.94,19.78C386.47,221.45,384.47,204.79,384,195.77Z" fill="#a26760"/>
              <path id="Trazado_186807" data-name="Trazado 186807" d="M392.6,212.84c.1-.09.43.26,1.15.54a4.22,4.22,0,0,0,3.13-.12c2.47-1.09,4.35-5.23,4.2-9.55a13.74,13.74,0,0,0-1.54-5.9c-.83-1.7-2-2.86-3.33-3a2.12,2.12,0,0,0-2.39,1.29c-.28.69-.1,1.16-.22,1.2s-.54-.36-.41-1.36a2.66,2.66,0,0,1,.85-1.56,3.19,3.19,0,0,1,2.27-.75c1.86,0,3.62,1.61,4.58,3.44a14.09,14.09,0,0,1,1.86,6.58c.14,4.83-2.05,9.49-5.45,10.71a4.48,4.48,0,0,1-3.85-.4C392.67,213.41,392.52,212.89,392.6,212.84Z" fill="#7b4b45"/>
            </g>
          </g>
          <path id="Trazado_186808" data-name="Trazado 186808" d="M390.92,185.68l-6.92,7c-26.26-25.13-77.56-88.05-74.7-84.3,0,0,18-7.4,37.51-4.07s56.55,13.1,56,36.12S390.92,185.68,390.92,185.68Z" fill="#12263f"/>
          <path id="Trazado_186809" data-name="Trazado 186809" d="M389.52,246c-.07.07.54.82,2,1.74a16.18,16.18,0,0,0,6.86,2.32A17.3,17.3,0,0,0,407.3,217a16.34,16.34,0,0,0-7.1-1.46c-1.71.07-2.61.41-2.59.51,0,.4,3.88-.43,9.08,2.21a17.2,17.2,0,0,1,7.07,6.82A16.37,16.37,0,0,1,408,246.29a17.17,17.17,0,0,1-9.55,2.32C392.65,248.27,389.7,245.59,389.52,246Z" fill="#e1e1e1"/>
        </g>
        <path id="Trazado_186810" data-name="Trazado 186810" d="M424.85,181.06a6.4,6.4,0,0,0-.37-1.38,24.811,24.811,0,0,0-1.63-3.78,35,35,0,0,0-10-11.25c-5.08-3.94-12.12-7.16-20.14-9.68s-17-4.63-25.88-8.44a117.46,117.46,0,0,1-23.64-13.24,122,122,0,0,1-16.68-14.58,128.347,128.347,0,0,1-9.65-11.46c-1-1.34-1.78-2.43-2.4-3.29a7,7,0,0,0-.9-1.12,5.408,5.408,0,0,0,.69,1.25c.5.79,1.21,2,2.22,3.44a109.666,109.666,0,0,0,9.4,11.77,116.869,116.869,0,0,0,16.66,14.91,115,115,0,0,0,23.83,13.45c9,3.85,18.06,5.85,26,8.38s14.91,5.53,20,9.31a35.92,35.92,0,0,1,10.1,10.79C424.19,179.19,424.72,181.11,424.85,181.06Z" fill="#375a64"/>
        <path id="Trazado_186811" data-name="Trazado 186811" d="M417.88,184.83a12.61,12.61,0,0,0-.93-5.23,24.37,24.37,0,0,0-9-11.27c-5-3.73-12.13-6-20-7.82a118,118,0,0,1-24.81-7.88A105.321,105.321,0,0,1,341.06,139a108.1,108.1,0,0,1-15.16-14.91,115.786,115.786,0,0,1-8.46-11.62c-.82-1.36-1.49-2.47-2-3.35a5.421,5.421,0,0,0-.78-1.13,6.278,6.278,0,0,0,.57,1.25c.48.91,1.09,2.06,1.83,3.48a97.693,97.693,0,0,0,8.2,11.92,103.14,103.14,0,0,0,37.44,29.13,115.631,115.631,0,0,0,25.07,7.86c7.83,1.72,14.81,3.9,19.72,7.43a24.78,24.78,0,0,1,9.05,10.73A27.76,27.76,0,0,1,417.88,184.83Z" fill="#375a64"/>
      </g>
      <g id="Grupo_92968" data-name="Grupo 92968" opacity="0.3">
        <path id="Trazado_186812" data-name="Trazado 186812" d="M439.22,417.62c-.62-2-1.5-4-3.25-5.08-2.59-1.62-6.13-.47-8.37,1.61s-3.59,4.92-5.33,7.44a28.2,28.2,0,0,1-24.95,11.84c-6.72-.54-13.07-3.52-19.79-4.08-8-.67-17.23,1.43-24.78,4.17l.49,15.8c-.31,3.09,3.34,4.34,6.44,4.09s6.34-1.46,9.21-.25c1.95.83,3.29,2.62,4.75,4.16a24.31,24.31,0,0,0,28,4.68c3.49-1.81,6.64-4.53,10.52-5.19,3.56-.6,7.23.65,10.81.18,4.67-.62,8.5-4.07,11.24-7.9a36.44,36.44,0,0,0,5.01-31.47Z"/>
      </g>
      <g id="Grupo_92969" data-name="Grupo 92969" opacity="0.3">
        <path id="Trazado_186813" data-name="Trazado 186813" d="M222,323.55c2.11-2.94,2.94-7.35.48-10-5.74,5.22-15.1,6.05-19.27,12.6-2.07,3.26-2.38,7.3-2.61,11.16q-2.17,35-3.32,70.11l1.1,6,20-52.08c1.77-4.63,3.42-10.27.35-14.16-1.77-2.24-4.79-3.34-6.23-5.81-1.82-3.13-.34-7.21,2-10S219.85,326.49,222,323.55Z"/>
      </g>
      <path id="Trazado_186814" data-name="Trazado 186814" d="M169.11,320.85,120.83,429.42l61.41,29.2L216.9,352.24Z" fill="#e1e1e1"/>
      <path id="Trazado_186815" data-name="Trazado 186815" d="M169.11,320.85a.829.829,0,0,1,.25.13l.71.43,2.71,1.72,10.05,6.5L217.07,352l.17.11v.14c-.35,1.44-.78,2.66-1.18,4s-.84,2.64-1.26,4q-1.29,4-2.64,8.18c-6.31,19.44-12.13,37-16.36,49.72-2.13,6.32-3.85,11.45-5.06,15l-1.4,4.08-.39,1.05a1.76,1.76,0,0,1-.14.36,1.409,1.409,0,0,1,.08-.38c.08-.25.19-.62.33-1.07.31-1,.74-2.36,1.29-4.12,1.16-3.6,2.82-8.75,4.87-15.09,4.15-12.78,9.87-30.36,16.19-49.79.89-2.76,1.78-5.49,2.64-8.17l1.27-4c.2-.65.41-1.3.61-1.95l.29-1,.13-.45.06-.23v-.21h.23l-.09.25L182.62,330l-10-6.64L170,321.5l-.68-.48Z" fill="#12263f"/>
      <path id="Trazado_186816" data-name="Trazado 186816" d="M193.71,436.67a34.16,34.16,0,0,1,.65-4.25c.48-2.78,1.09-6.3,1.76-10.2s1.19-7.44,1.63-10.22a31.1,31.1,0,0,1,.77-4.23,4.52,4.52,0,0,1,0,1.16c-.06.74-.16,1.81-.31,3.13-.3,2.63-.79,6.27-1.45,10.26s-1.38,7.59-2,10.19c-.29,1.29-.53,2.34-.72,3.06A3.849,3.849,0,0,1,193.71,436.67Z" fill="#12263f"/>
      <path id="Trazado_186817" data-name="Trazado 186817" d="M228.47,353.45a1.52,1.52,0,0,1,.08.36,7.651,7.651,0,0,0,.19,1.07c.15.95.38,2.34.63,4.14s.5,4,.81,6.57.58,5.49.92,8.71c1.28,12.93,2.74,30.8,4.3,50.55s2.95,37.64,4.12,50.56c.31,3.23.58,6.15.82,8.72s.51,4.76.71,6.58.39,3.15.51,4.14c.05.45.09.81.13,1.08a2.159,2.159,0,0,1,0,.38,2.091,2.091,0,0,1-.09-.37,7.874,7.874,0,0,0-.18-1.07c-.15-.94-.38-2.33-.63-4.13s-.5-4-.81-6.57-.58-5.49-.92-8.72c-1.28-12.92-2.75-30.8-4.3-50.55s-2.95-37.63-4.12-50.56c-.31-3.22-.58-6.14-.83-8.72s-.5-4.75-.7-6.57-.39-3.16-.52-4.15q-.08-.66-.12-1.08A2.061,2.061,0,0,1,228.47,353.45Z" fill="#12263f"/>
      <path id="Trazado_186818" data-name="Trazado 186818" d="M352.59,431.29a2.23,2.23,0,0,1-.26-.39l-.69-1.21C351,428.6,350.14,427,349,425l-9.52-17.15-31.21-56.71L291.76,321l-.16-.3.31-.11,11.95-4.53-.05.47-19.69-13-.18-.12.13-.16c4-5.16,7.16-9.25,9.36-12.08l2.51-3.2.66-.81a2.272,2.272,0,0,1,.24-.27,2,2,0,0,1-.2.3c-.15.21-.36.49-.61.85-.57.77-1.39,1.85-2.43,3.26l-9.22,12.18-.05-.28,19.77,12.87.44.29-.49.18-11.94,4.58.15-.41,16.58,30.17,31,56.8,9.35,17.25,2.52,4.7.64,1.24a2.813,2.813,0,0,1,.24.42Z" fill="#12263f"/>
      <path id="Trazado_186819" data-name="Trazado 186819" d="M352.59,431.29a3.308,3.308,0,0,1,.17-.44c.14-.32.33-.74.58-1.28l2.26-4.89c2-4.26,4.87-10.38,8.42-17.92l28-59.05,15.18-31.85.16.39-11.94-4.57-.49-.19.43-.28,19.78-12.87-.05.28-9.22-12.19-2.43-3.26-.61-.84-.2-.3a2.652,2.652,0,0,1,.24.26l.66.82L406,286.3c2.19,2.83,5.36,6.93,9.36,12.08l.13.17-.18.11-19.69,13-.06-.47,12,4.53.29.11-.13.28L392.56,348l-28.15,59c-3.62,7.51-6.55,13.59-8.59,17.84l-2.37,4.84c-.27.52-.47.94-.63,1.25A1.933,1.933,0,0,1,352.59,431.29Z" fill="#12263f"/>
      <path id="Trazado_186820" data-name="Trazado 186820" d="M318.31,285.48s29.87,55.8,73.05-.06L352.1,405.31Z" fill="#375a64"/>
      <path id="Trazado_186821" data-name="Trazado 186821" d="M361.82,551.61a2.091,2.091,0,0,1-.07-.37c0-.28-.09-.65-.15-1.1-.13-1-.3-2.43-.52-4.24-.42-3.74-1-9.06-1.76-15.63-1.42-13.19-3.27-31.44-4.71-51.65s-2.09-38.55-2.36-51.82c-.13-6.64-.19-12-.19-15.72v-5.39a1.589,1.589,0,0,1,0-.38,1.421,1.421,0,0,1,0,.38,9.616,9.616,0,0,0,.05,1.11c0,1,.06,2.45.11,4.28.09,3.75.23,9.1.39,15.71.38,13.26,1.11,31.58,2.54,51.79s3.22,38.44,4.52,51.65c.66,6.57,1.19,11.9,1.57,15.64.17,1.81.31,3.24.4,4.25q.06.69.09,1.11A1.559,1.559,0,0,1,361.82,551.61Z" fill="#12263f"/>
      <g id="Grupo_92970" data-name="Grupo 92970" opacity="0.3">
        <path id="Trazado_186822" data-name="Trazado 186822" d="M412.87,300.04l2.36,2.87-12.03,8.05,11.68,4.26-53.24,97.05,45.8-96.29-11.95-4.55Z"/>
      </g>
      <path id="Trazado_186823" data-name="Trazado 186823" d="M447.86,340.71a1.722,1.722,0,0,1,0,.45v6.31c0,4.41,0,10.73-.07,18.53-.1,15.65-.31,37.26-.69,61.13s-.85,45.5-1.35,61.14c-.25,7.82-.47,14.14-.68,18.51-.11,2.16-.19,3.85-.25,5,0,.55-.06,1-.08,1.3a2.232,2.232,0,0,1-.05.45,1.91,1.91,0,0,1,0-.45v-1.31c0-1.19.08-2.88.13-5,.12-4.4.29-10.72.49-18.52.39-15.64.8-37.25,1.17-61.13s.65-45.45.87-61.12c.11-7.8.21-14.12.27-18.53,0-2.16.08-3.85.1-5v-1.31a2.558,2.558,0,0,1,.14-.45Z" fill="#12263f"/>
      <g id="Grupo_92972" data-name="Grupo 92972">
        <path id="Trazado_186824" data-name="Trazado 186824" d="M313.8,413.84v-3.85c0-2.5-.06-6.08-.1-10.6l.18.18-59.15.13c.13-.14-.32.31.3-.31h0v14.43l-.31-.31,42.13.14,12.46.09h4.26a1.15,1.15,0,0,1,.31,0h-4.43L297,414l-42.34.14h-.3V399.41h0l.32-.31,59.15.12H314v.19c-.05,4.56-.08,8.18-.11,10.71v3.51A1,1,0,0,1,313.8,413.84Z" fill="#12263f"/>
        <g id="Grupo_92971" data-name="Grupo 92971" opacity="0.3">
          <path id="Trazado_186825" data-name="Trazado 186825" d="M257.89,413.84s27.62,10.86,53,0Z"/>
        </g>
        <path id="Trazado_186826" data-name="Trazado 186826" d="M299.74,377.57h1.8a3.69,3.69,0,0,1,3.69,3.69v18.12H296V381.27a3.69,3.69,0,0,1,3.74-3.7Z" fill="#375a64"/>
        <path id="Trazado_186827" data-name="Trazado 186827" d="M300.64,394.49h4.59v24.89a1.85,1.85,0,0,1-1.85,1.85h-.9a1.85,1.85,0,0,1-1.85-1.85V394.49Z" fill="#375a64"/>
        <path id="Trazado_186828" data-name="Trazado 186828" d="M305.5,424.58a7.228,7.228,0,0,1,.15,1.55c.06,1,.11,2.45.14,4.24.06,3.58,0,8.54-.34,14-.17,2.73-.39,5.33-.63,7.69a21.638,21.638,0,0,1-1.14,6.23,5.29,5.29,0,0,1-3,3,3.3,3.3,0,0,1-1.16.21c-.27,0-.41-.05-.41-.07a5.621,5.621,0,0,0,1.48-.36,5.2,5.2,0,0,0,2.66-3,24.589,24.589,0,0,0,1-6.12c.21-2.35.41-4.94.58-7.67.34-5.44.47-10.38.52-14,0-1.69,0-3.11.06-4.24A7.941,7.941,0,0,1,305.5,424.58Z" fill="#12263f"/>
        <path id="Trazado_186829" data-name="Trazado 186829" d="M293.62,449.59c-.17,0-.28-4.8-.26-10.72s.2-10.72.37-10.71.28,4.79.26,10.71S293.8,449.59,293.62,449.59Z" fill="#12263f"/>
      </g>
    </g>
    <g id="Grupo_92978" data-name="Grupo 92978" transform="translate(180 8715)">
      <g id="Grupo_92976" data-name="Grupo 92976">
        <g id="Grupo_92975" data-name="Grupo 92975">
          <path id="Trazado_186830" data-name="Trazado 186830" d="M364.87,354.44a44.83,44.83,0,0,1,10.87-4.72L378,339l18.18-.32,2.62,10.67a44.81,44.81,0,0,1,11,4.34l4.55-6.07,4.64.05,13.08,12.63-5.69,9.39a44.349,44.349,0,0,1,4.72,10.88l10.76,2.24.32,18.18-10.67,2.61a44.66,44.66,0,0,1-4.34,11l6,9.19-12.63,13.09-4.95-.24-4.44-5.46a44.35,44.35,0,0,1-10.88,4.72l-2.24,10.77-18.18.31-2.61-10.67a44.88,44.88,0,0,1-11-4.34l-9.18,6-4.65-.05L344,425.35l5.7-9.39a44.77,44.77,0,0,1-4.73-10.88l-10.76-2.23-.31-18.19,10.67-2.61a44.811,44.811,0,0,1,4.34-11l-6-9.19,8-13.13,4.64.05,9.39,5.69Zm9.69,24.22a19.51,19.51,0,1,0,27.59-.48,19.51,19.51,0,0,0-27.59.48Z" fill="#36d8c7"/>
          <g id="Grupo_92974" data-name="Grupo 92974" opacity="0.3">
            <path id="Trazado_186831" data-name="Trazado 186831" d="M364.87,354.44a44.83,44.83,0,0,1,10.87-4.72L378,339l18.18-.32,2.62,10.67a44.81,44.81,0,0,1,11,4.34l4.55-6.07,4.64.05,13.08,12.63-5.69,9.39a44.349,44.349,0,0,1,4.72,10.88l10.76,2.24.32,18.18-10.67,2.61a44.66,44.66,0,0,1-4.34,11l6,9.19-12.63,13.09-4.95-.24-4.44-5.46a44.35,44.35,0,0,1-10.88,4.72l-2.24,10.77-18.18.31-2.61-10.67a44.88,44.88,0,0,1-11-4.34l-9.18,6-4.65-.05L344,425.35l5.7-9.39a44.77,44.77,0,0,1-4.73-10.88l-10.76-2.23-.31-18.19,10.67-2.61a44.811,44.811,0,0,1,4.34-11l-6-9.19,8-13.13,4.64.05,9.39,5.69Zm9.69,24.22a19.51,19.51,0,1,0,27.59-.48,19.51,19.51,0,0,0-27.59.48Z"/>
          </g>
        </g>
        <path id="Trazado_186832" data-name="Trazado 186832" d="M360.23,354.39a44.829,44.829,0,0,1,10.87-4.72l2.24-10.76,18.18-.32,2.62,10.67a44.81,44.81,0,0,1,11,4.34l9.19-6,13.08,12.63-5.69,9.39a44.731,44.731,0,0,1,4.72,10.88l10.76,2.24.32,18.18-10.67,2.62a45,45,0,0,1-4.34,11l6,9.19-12.63,13.08-9.4-5.7a44.53,44.53,0,0,1-10.87,4.73l-2.24,10.76-18.18.32-2.62-10.68a44.422,44.422,0,0,1-11-4.34l-9.19,6-13.06-12.6,5.7-9.39A44.478,44.478,0,0,1,340.29,405l-10.76-2.24-.32-18.18L339.89,382a44.419,44.419,0,0,1,4.34-11l-6-9.19,12.63-13.08,9.39,5.69Zm9.69,24.22a19.51,19.51,0,1,0,27.59-.48,19.51,19.51,0,0,0-27.59.48Z" fill="#36d8c7"/>
        <path id="Trazado_186833" data-name="Trazado 186833" d="M432.08,360.28c0,.17-1,.31-2.32.31s-2.32-.14-2.32-.31,1-.31,2.32-.31S432.08,360.11,432.08,360.28Z" fill="#12263f"/>
        <path id="Trazado_186834" data-name="Trazado 186834" d="M426.53,369.53c0,.18-1,.31-2.24.29s-2.24-.16-2.23-.33,1-.3,2.24-.29S426.53,369.36,426.53,369.53Z" fill="#12263f"/>
        <path id="Trazado_186835" data-name="Trazado 186835" d="M441.34,382.78c0,.17-.91.36-2,.43s-2.07,0-2.08-.2.91-.36,2.05-.43S441.33,382.61,441.34,382.78Z" fill="#12263f"/>
        <path id="Trazado_186836" data-name="Trazado 186836" d="M441.22,401c0,.17-.85.29-1.9.26s-1.89-.2-1.88-.37.85-.29,1.9-.26S441.23,400.81,441.22,401Z" fill="#12263f"/>
        <path id="Trazado_186837" data-name="Trazado 186837" d="M427.22,414.82c0,.17-1,.21-2.22.09s-2.16-.36-2.15-.53,1-.21,2.22-.09S427.23,414.65,427.22,414.82Z" fill="#12263f"/>
        <path id="Trazado_186838" data-name="Trazado 186838" d="M433,423.71c0,.17-1,.33-2.23.37s-2.24-.09-2.25-.26,1-.33,2.23-.37S433,423.54,433,423.71Z" fill="#12263f"/>
        <path id="Trazado_186839" data-name="Trazado 186839" d="M400.24,436.16c0,.17-1.08.13-2.36,0s-2.33-.18-2.34-.35,1.06-.35,2.38-.27A3.9,3.9,0,0,1,400.24,436.16Z" fill="#12263f"/>
        <path id="Trazado_186840" data-name="Trazado 186840" d="M399,349.47c0,.17-1,.29-2.25.25s-2.23-.19-2.23-.36,1-.29,2.25-.26S399,349.3,399,349.47Z" fill="#12263f"/>
        <path id="Trazado_186841" data-name="Trazado 186841" d="M350.3,351.72c.12.13-2,2.42-4.84,5.14s-5.15,4.81-5.27,4.69,2.05-2.43,4.84-5.14S350.18,351.6,350.3,351.72Z" fill="#fff"/>
        <path id="Trazado_186842" data-name="Trazado 186842" d="M375.92,371.22a36.55,36.55,0,0,0-5,2.73,21.62,21.62,0,0,0-8.55,24.18,35.715,35.715,0,0,0,2.18,5.28,6,6,0,0,1-.88-1.28,19.31,19.31,0,0,1-1.72-3.87,21.35,21.35,0,0,1,8.72-24.67,19,19,0,0,1,3.78-1.93,6,6,0,0,1,1.47-.44Z" fill="#fff"/>
        <path id="Trazado_186843" data-name="Trazado 186843" d="M383.84,370.26c0,.18-.62.35-1.39.4s-1.42-.05-1.44-.22.62-.35,1.4-.4S383.83,370.09,383.84,370.26Z" fill="#fff"/>
        <path id="Trazado_186844" data-name="Trazado 186844" d="M373.72,342a8.5,8.5,0,0,1-.05,3.22c-.19,1.76-.49,3.17-.66,3.15a8.62,8.62,0,0,1,0-3.22A9.2,9.2,0,0,1,373.72,342Z" fill="#fff"/>
        <path id="Trazado_186845" data-name="Trazado 186845" d="M412,350c.11.13-.71,1-1.83,1.92s-2.12,1.57-2.22,1.44.7-1,1.82-1.92S411.93,349.82,412,350Z" fill="#fff"/>
        <path id="Trazado_186846" data-name="Trazado 186846" d="M434.84,384.81c0,.17-1.5,0-3.26-.44s-3.15-.89-3.11-1.06a17.6,17.6,0,0,1,6.37,1.5Z" fill="#fff"/>
        <path id="Trazado_186847" data-name="Trazado 186847" d="M337.1,384.39c.1.13-1.1,1.09-2.93,1.45a4.78,4.78,0,0,1-3.26-.19c0-.19,1.45-.06,3.14-.41S337,384.24,337.1,384.39Z" fill="#fff"/>
        <path id="Trazado_186848" data-name="Trazado 186848" d="M344.5,418.6a8.69,8.69,0,0,1-1.21,3,19,19,0,0,1-1.41,2.37l-.26-.17c.22-.21.37-.3.41-.26s0,.19-.17.46l-.74,1.29.48-1.47a18.24,18.24,0,0,1,1.14-2.51A8.57,8.57,0,0,1,344.5,418.6Z" fill="#fff"/>
        <path id="Trazado_186849" data-name="Trazado 186849" d="M377.23,444.73a20.931,20.931,0,0,1-2-6.91c.17-.05.75,1.46,1.31,3.37S377.4,444.68,377.23,444.73Z" fill="#fff"/>
      </g>
      <g id="Grupo_92977" data-name="Grupo 92977">
        <path id="Trazado_186850" data-name="Trazado 186850" d="M438.61,379.14s-3.67-7.12-8.84-7.61-53.48,12.63-53.48,12.63,1.12,7,6.51,6.77,17.69-3.28,17.69-3.28l-22.68,9.64s3.62,8.75,13.09,6.09,25.92-5.89,25.92-5.89l-29.69,13s2.19,7.93,10.06,5.38A104.457,104.457,0,0,1,415,412.32l-18.5,8.26s.61,6.64,8.91,5.47,23.4-3.78,23.4-3.78a98.88,98.88,0,0,0,10.31,14.59c12.89,14.61,20.46,6,20.46,6L471.3,447c.46-2.43,6.54-39.77,6.54-39.77l-23.13-2.94s-9-20-10.64-22a9.22,9.22,0,0,0-5.46-3.15Z" fill="#a26760"/>
        <path id="Trazado_186851" data-name="Trazado 186851" d="M427,379.78c.05.16-6.25,2.21-14.06,4.57s-14.2,4.15-14.25,4,6.24-2.21,14.07-4.58S426.91,379.61,427,379.78Z" fill="#7b4b45"/>
        <path id="Trazado_186852" data-name="Trazado 186852" d="M428.18,392.78a8.9,8.9,0,0,1-1.55.82l-4.35,2c-3.68,1.68-8.79,4-14.45,6.43s-10.81,4.65-14.56,6.18c-1.87.77-3.4,1.36-4.46,1.76a9.09,9.09,0,0,1-1.68.54,9.516,9.516,0,0,1,1.59-.77l4.38-1.93,14.48-6.35,14.52-6.26,4.43-1.84a10.253,10.253,0,0,1,1.65-.58Z" fill="#7b4b45"/>
        <path id="Trazado_186853" data-name="Trazado 186853" d="M436.37,405.08c.06.17-4.9,2-11.07,4.16S414.08,413,414,412.8s4.9-2,11.08-4.15S436.32,404.92,436.37,405.08Z" fill="#7b4b45"/>
        <path id="Trazado_186854" data-name="Trazado 186854" d="M439.81,419.79a19.161,19.161,0,0,1-5.83,2.1c-3.35.79-6.15.87-6.16.71s2.72-.53,6-1.32S439.75,419.62,439.81,419.79Z" fill="#7b4b45"/>
      </g>
      <path id="Trazado_186855" data-name="Trazado 186855" d="M462.21,420.45l-7.93-16.57c-3.91-8.21-6.56-13.79-7.89-16.57.29-.23,4.08,7.15,8.45,16.3S462.56,420.33,462.21,420.45Z" fill="#7b4b45"/>
    </g>
    <g id="Grupo_92981" data-name="Grupo 92981" transform="translate(180 8715)">
      <path id="Trazado_186856" data-name="Trazado 186856" d="M249.56,226.09,211.1,303.88l8.07,3.54,37.37-78.71Z" fill="#375a64"/>
      <g id="Grupo_92980" data-name="Grupo 92980">
        <g id="Grupo_92979" data-name="Grupo 92979">
          <circle id="Elipse_7716" data-name="Elipse 7716" cx="40.19" cy="40.19" r="40.19" transform="translate(228.3 151.68)" fill="#a26760"/>
          <path id="Trazado_186857" data-name="Trazado 186857" d="M308.64,193.74a8.87,8.87,0,0,1-.32-2.56c0-.42-.05-.89-.08-1.4s-.16-1.06-.24-1.67a30.771,30.771,0,0,0-.75-4.11,38.929,38.929,0,0,0-4.1-10.62,39.64,39.64,0,0,0-9.59-11.45,39.06,39.06,0,0,0-16.12-7.9,37.18,37.18,0,0,0-4.89-.76c-.84-.06-1.68-.18-2.53-.2h-3.87l-1.31.15c-.86.11-1.75.17-2.62.31a43.43,43.43,0,0,0-10.37,3.31c-.84.41-1.64.89-2.47,1.34a18.9,18.9,0,0,0-2.4,1.51,44.726,44.726,0,0,0-4.55,3.53,44.19,44.19,0,0,0-4,4.32,37.211,37.211,0,0,0-6,10.39,38.5,38.5,0,0,0-1.14,24.36,37.77,37.77,0,0,0,5,10.91,35.88,35.88,0,0,0,7.77,8.61,20.61,20.61,0,0,0,2.25,1.72c.79.52,1.55,1.08,2.34,1.56a39.932,39.932,0,0,0,4.94,2.47,40.39,40.39,0,0,0,5.08,1.79c.86.22,1.73.36,2.59.55l1.28.27c.43.08.86.1,1.29.15l2.56.27c.85.06,1.7,0,2.53,0a35.1,35.1,0,0,0,4.95-.3A38.93,38.93,0,0,0,290.68,224a39.72,39.72,0,0,0,10.61-10.51,39,39,0,0,0,5.06-10.19,29.369,29.369,0,0,0,1.13-4c.14-.6.3-1.14.39-1.64s.15-1,.21-1.38a8.44,8.44,0,0,1,.56-2.52,7.89,7.89,0,0,1,.07,2.58,10.415,10.415,0,0,1-.07,1.43c-.07.52-.16,1.08-.25,1.7a27,27,0,0,1-.88,4.21,37.531,37.531,0,0,1-4.77,10.79,40.88,40.88,0,0,1-28.49,18.48,38,38,0,0,1-5.27.41h-2.7l-2.75-.24a8.2,8.2,0,0,1-1.38-.15l-1.38-.27c-.91-.18-1.85-.33-2.77-.56a44.848,44.848,0,0,1-5.49-1.85,43.617,43.617,0,0,1-5.32-2.61c-.86-.51-1.69-1.1-2.53-1.66a20.7,20.7,0,0,1-2.44-1.83,37.74,37.74,0,0,1-8.43-9.23,40.19,40.19,0,0,1-5.45-11.75,41.18,41.18,0,0,1,1.22-26.31,40.409,40.409,0,0,1,6.52-11.2,38.28,38.28,0,0,1,9.24-8.4,21.88,21.88,0,0,1,2.6-1.6c.9-.47,1.77-1,2.67-1.41a42.639,42.639,0,0,1,5.55-2.11,43.734,43.734,0,0,1,5.63-1.33c.94-.14,1.89-.2,2.82-.31l1.39-.13h4.15c.9,0,1.8.17,2.69.25a38.279,38.279,0,0,1,5.21.89,41,41,0,0,1,26.66,21,37.65,37.65,0,0,1,3.74,11.2,26.64,26.64,0,0,1,.49,4.27c0,.62.09,1.19.09,1.71a9.188,9.188,0,0,1-.07,1.43A8,8,0,0,1,308.64,193.74Z" fill="#12263f"/>
        </g>
        <path id="Trazado_186858" data-name="Trazado 186858" d="M280.65,198.75a8.19,8.19,0,0,1-8.13,8,7.82,7.82,0,0,1-8.21-7.62,8.18,8.18,0,0,1,8.11-8,7.83,7.83,0,0,1,8.23,7.62Z" fill="#12263f"/>
        <path id="Trazado_186859" data-name="Trazado 186859" d="M284.14,178.09c-1,1-7.1-3.72-15.9-4s-15.37,4-16.29,2.88c-.46-.49.63-2.39,3.5-4.35A22.44,22.44,0,0,1,268.53,169a21.57,21.57,0,0,1,12.62,4.48C283.8,175.67,284.66,177.63,284.14,178.09Z" fill="#12263f"/>
        <path id="Trazado_186860" data-name="Trazado 186860" d="M245.82,216.67c-.21.3-2.92-1.1-6.13-4.75a32.17,32.17,0,0,1-4.28-35.66c2.25-4.31,4.55-6.31,4.83-6.07s-1.22,2.71-2.83,7a35.47,35.47,0,0,0,4,33.43C244,214.33,246.13,216.3,245.82,216.67Z" fill="#fff"/>
        <path id="Trazado_186861" data-name="Trazado 186861" d="M256.39,223.4c-.07.41-.47.75-1.12.87a3.77,3.77,0,0,1-2.36-.48,3.73,3.73,0,0,1-1.64-1.76,1.24,1.24,0,0,1,.16-1.42c.69-.53,1.88-.14,3,.47S256.49,222.53,256.39,223.4Z" fill="#fff"/>
      </g>
      <path id="Trazado_186862" data-name="Trazado 186862" d="M187.56,299s17.41-38.9,19.8-40.85,26.83-19.41,26.83-19.41,4.38-.49,7.29,1.26c2.29,1.37,7.71,9.94,9.86,13.45a3.89,3.89,0,0,1,.42,3.17l-2.84,7.74s3,4.67,2.11,7.91a21,21,0,0,1-2.76,6s2.6,4.73.79,9.24-6.77,6.34-6.77,6.34-2.08,8-2.38,9.63-9.18,4.85-10.08,4.58-7.21-3.09-7.21-3.09-3.36,13.16-7.16,16a19.61,19.61,0,0,1-8.64,3.27l-2.64,18.93L173.86,324Z" fill="#a26760"/>
      <path id="Trazado_186863" data-name="Trazado 186863" d="M227,288.8c.07-.16,3.47,1.06,7.64,2.62s7.57,2.75,7.52,2.91-3.56-.76-7.74-2.33S227,289,227,288.8Z" fill="#7b4b45"/>
      <path id="Trazado_186864" data-name="Trazado 186864" d="M227.79,272.34a13.89,13.89,0,0,1,3.15.55c1.93.43,4.58,1.11,7.47,2s5.47,1.78,7.32,2.49a14.491,14.491,0,0,1,2.93,1.3,18.564,18.564,0,0,1-3.08-.88c-1.88-.61-4.47-1.44-7.35-2.32s-5.5-1.62-7.39-2.16A18.764,18.764,0,0,1,227.79,272.34Z" fill="#7b4b45"/>
      <path id="Trazado_186865" data-name="Trazado 186865" d="M225.12,259.32a17.209,17.209,0,0,1,3.53.08,63.61,63.61,0,0,1,8.41,1.25,62.573,62.573,0,0,1,8.17,2.34,15.32,15.32,0,0,1,3.24,1.39,25.871,25.871,0,0,1-3.38-1c-2.07-.63-4.94-1.44-8.17-2.14s-6.17-1.15-8.32-1.43a22.721,22.721,0,0,1-3.48-.49Z" fill="#7b4b45"/>
      <path id="Trazado_186866" data-name="Trazado 186866" d="M242.8,262.16a10.9,10.9,0,0,1-.51-5.85,6.7,6.7,0,0,1-5.13-2c-1.54,1.69-3.62,4-5.17,5.69Z" fill="#375a64"/>
    </g>
    <g id="Grupo_92982" data-name="Grupo 92982" transform="translate(180 8715)">
      <path id="Trazado_186867" data-name="Trazado 186867" d="M474.66,397.74l65.07-22.82,41.4,38.91c28.92,39.26-4.2,73.05-35.51,67.85-23.07-3.83-85.47-28.59-85.47-28.59Z" fill="#e1e1e1"/>
      <path id="Trazado_186868" data-name="Trazado 186868" d="M460.15,453.09a.74.74,0,0,1,0-.26l.18-.78c.17-.72.42-1.72.73-3,.67-2.63,1.63-6.41,2.83-11.11l9.88-38,.07-.26h.27l16.72,2.72L541,410.73l15.16,2.57,4.12.73,1.07.21.36.09h-.37l-1.08-.14-4.13-.62-15.2-2.38-50.12-8.08-16.72-2.73.34-.22c-4,15.2-7.56,28.44-10.09,37.92-1.27,4.68-2.29,8.44-3,11.07-.35,1.26-.63,2.24-.83,3-.09.31-.17.56-.23.76S460.16,453.1,460.15,453.09Z" fill="#12263f"/>
      <path id="Trazado_186869" data-name="Trazado 186869" d="M552.78,404.31c0,.17-5.79,1.33-13,2.61s-13.08,2.16-13.11,2,5.79-1.33,13-2.61S552.75,404.14,552.78,404.31Z" fill="#12263f"/>
    </g>
    <path id="Trazado_186870" data-name="Trazado 186870" d="M331.31,559.63H152.14a8.73,8.73,0,0,1-8.6-7.18L121.36,430a8.74,8.74,0,0,1,8.6-10.3H309.12a8.74,8.74,0,0,1,8.6,7.18l22.19,122.48a8.74,8.74,0,0,1-8.6,10.27Z" transform="translate(180 8715)" fill="#12263f"/>
    <path id="Trazado_186871" data-name="Trazado 186871" d="M322.14,547.93H427.79a9.41,9.41,0,0,1,9.41,9.41v2.29H322.14v-11.7Z" transform="translate(180 8715)" fill="#12263f"/>
    <path id="Trazado_186872" data-name="Trazado 186872" d="M307.24,419.67c.17,0,6.53,31.27,14.21,69.9s13.77,70,13.6,70-6.53-31.26-14.21-69.9S307.07,419.7,307.24,419.67Z" transform="translate(180 8715)" fill="#375a64"/>
    <path id="Trazado_186873" data-name="Trazado 186873" d="M224.69,491.64a6.28,6.28,0,0,0-5.35-4.58h.53a6.14,6.14,0,1,0,4.82,4.59Z" transform="translate(180 8715)" fill="#375a64"/>
    <g id="Grupo_92987" data-name="Grupo 92987" transform="translate(180 8715)">
      <path id="Trazado_186874" data-name="Trazado 186874" d="M159.09,297.66H73.68A10.55,10.55,0,0,1,63,287.26v-115A10.54,10.54,0,0,1,73.68,161.9L136,163l33.78,41v83.33a10.54,10.54,0,0,1-10.69,10.33Z" fill="#375a64"/>
      <g id="Grupo_92985" data-name="Grupo 92985" opacity="0.3">
        <path id="Trazado_186875" data-name="Trazado 186875" d="M63,254.87H169.77v38.81a4,4,0,0,1-4,4H67a4,4,0,0,1-4-4Z"/>
      </g>
      <g id="Grupo_92986" data-name="Grupo 92986">
        <path id="Trazado_186876" data-name="Trazado 186876" d="M100.44,267.72v14.35H97.12v-5.88H90.6v5.88H87.28V267.72H90.6v5.66h6.52v-5.66Z" fill="#fafafa"/>
        <path id="Trazado_186877" data-name="Trazado 186877" d="M106.82,270.43h-4.59v-2.71h12.5v2.71h-4.59v11.64h-3.32Z" fill="#fafafa"/>
        <path id="Trazado_186878" data-name="Trazado 186878" d="M129.57,282.07v-8.61l-4.22,7.09h-1.5l-4.2-6.91v8.43h-3.12V267.72h2.75l5.37,8.92,5.29-8.92h2.73v14.35Z" fill="#fafafa"/>
        <path id="Trazado_186879" data-name="Trazado 186879" d="M136.09,267.72h3.32v11.64h7.2v2.71H136.09Z" fill="#fafafa"/>
      </g>
    </g>
    <g id="Grupo_92988" data-name="Grupo 92988" transform="translate(180 8715)">
      <path id="Trazado_186880" data-name="Trazado 186880" d="M106.19,217l-12.81,5.9,12.81,5.86v6.05L87.87,226v-6.29L106.19,211Z" fill="#fff"/>
      <path id="Trazado_186881" data-name="Trazado 186881" d="M126.83,228.78l12.82-5.91L126.83,217v-6l18.33,8.77V226l-18.33,8.76Z" fill="#fff"/>
      <path id="Trazado_186882" data-name="Trazado 186882" d="M115.51,205l5.67-.13-4.31,36.48-5.63-.13Z" fill="#fff"/>
    </g>
    <g id="Grupo_92990" data-name="Grupo 92990" transform="translate(180 8715)">
      <g id="Grupo_92989" data-name="Grupo 92989">
        <circle id="Elipse_7717" data-name="Elipse 7717" cx="31.53" cy="31.53" r="31.53" transform="translate(129.97 148.84)" fill="#fff"/>
        <path id="Trazado_186883" data-name="Trazado 186883" d="M193,180.37a51.811,51.811,0,0,0-1.18-7.65,30.3,30.3,0,0,0-3.53-8.3,31.16,31.16,0,0,0-37.39-13.2,29.43,29.43,0,0,0-7.84,4.23,29.06,29.06,0,0,0-6.55,6.59,31.036,31.036,0,0,0,14.39,47.48,31.22,31.22,0,0,0,37.39-13.2,30.3,30.3,0,0,0,3.53-8.3,51.607,51.607,0,0,0,1.18-7.65,1.65,1.65,0,0,1,0,.51c0,.4,0,.9,0,1.51a14.691,14.691,0,0,1-.2,2.44,23.094,23.094,0,0,1-.59,3.29,29.74,29.74,0,0,1-3.42,8.5,31.9,31.9,0,1,1-53.13-35.19,36.268,36.268,0,0,1,3.15-3.71,35.3,35.3,0,0,1,3.64-3.08,30,30,0,0,1,8.11-4.34A32.05,32.05,0,0,1,167.4,149a31.7,31.7,0,0,1,13.4,6,31.33,31.33,0,0,1,8,9.1,29.85,29.85,0,0,1,3.42,8.5,23.194,23.194,0,0,1,.59,3.3,14.541,14.541,0,0,1,.2,2.44q0,.9,0,1.5a1.649,1.649,0,0,1-.01.53Z" fill="#12263f"/>
      </g>
      <path id="Trazado_186884" data-name="Trazado 186884" d="M145.95,183.09l4.28-4.27,8.24,7.32,16.18-15.57,3.96,4.28-20.75,19.53Z" fill="#36d8c7"/>
    </g>
  </g>
</svg>
