<svg xmlns="http://www.w3.org/2000/svg" width="236.817" height="224.87" viewBox="0 0 236.817 224.87">
  <g id="Grupo_94248" data-name="Grupo 94248" transform="translate(-956.999 -3105.066)">
    <g id="Grupo_91913" data-name="Grupo 91913" transform="translate(914.859 3067.006)">
      <g id="Grupo_91910" data-name="Grupo 91910">
        <g id="Grupo_91894" data-name="Grupo 91894">
          <path id="Trazado_181407" data-name="Trazado 181407" d="M175.47,201.88V182.04l-56.14,8.11,36.88,14.51Z" fill="#4f74ba" fill-rule="evenodd"/>
          <path id="Trazado_181408" data-name="Trazado 181408" d="M175.47,201.88V182.04l36.88,14.51h0Z" fill="#4b6aa6" fill-rule="evenodd"/>
        </g>
        <g id="Grupo_91905" data-name="Grupo 91905">
          <g id="Grupo_91895" data-name="Grupo 91895">
            <path id="Trazado_181409" data-name="Trazado 181409" d="M165.73,171h-3.17c-4.51,4.36-7.08,22.57-5,29.2a14.56,14.56,0,0,0,4.12-2.73,15.62,15.62,0,0,0,4.07,9.91,15.62,15.62,0,0,0,4.07-9.91,14.61,14.61,0,0,0,4.13,2.73c2-6.63-.51-24.84-5-29.2Z" fill="#fec106" fill-rule="evenodd"/>
            <path id="Trazado_181410" data-name="Trazado 181410" d="M165.73,204.41a13.19,13.19,0,0,0,2.29-7l.13-4,2.88,2.77a11.509,11.509,0,0,0,1.65,1.3,48.141,48.141,0,0,0-.42-11.57c-.47-3.21-1.86-10.26-4.15-13.14h-4.76c-2.29,2.88-3.68,9.93-4.14,13.14a47.129,47.129,0,0,0-.42,11.57,12,12,0,0,0,1.64-1.3l2.88-2.77.13,4a13.36,13.36,0,0,0,2.29,7Z" fill="#faa908" fill-rule="evenodd"/>
          </g>
          <g id="Grupo_91899" data-name="Grupo 91899">
            <g id="Grupo_91896" data-name="Grupo 91896">
              <path id="Trazado_181411" data-name="Trazado 181411" d="M127,151.1,151.65,128c.47-.44.86-.08.86.82v31.83a3.82,3.82,0,0,1-.86,2.43L127,186.18c-.48.44-.87.08-.87-.82V153.53A3.77,3.77,0,0,1,127,151.1Z" fill="#d17d81" fill-rule="evenodd"/>
              <path id="Trazado_181412" data-name="Trazado 181412" d="M204.68,151.1,180,128c-.48-.44-.87-.08-.87.82v31.83a3.77,3.77,0,0,0,.87,2.43l24.65,23.09c.48.44.87.08.87-.82V153.53a3.77,3.77,0,0,0-.84-2.43Z" fill="#d17d81" fill-rule="evenodd"/>
            </g>
            <g id="Grupo_91897" data-name="Grupo 91897">
              <path id="Trazado_181413" data-name="Trazado 181413" d="M127,151.1l3.81-3.58v35.09L127,186.18c-.48.44-.87.08-.87-.82V153.53A3.77,3.77,0,0,1,127,151.1Z" fill="#c25257" fill-rule="evenodd"/>
              <path id="Trazado_181414" data-name="Trazado 181414" d="M204.68,151.1l-3.81-3.58v35.09l3.81,3.57c.48.44.87.08.87-.82V153.53a3.77,3.77,0,0,0-.87-2.43Z" fill="#c25257" fill-rule="evenodd"/>
            </g>
            <g id="Grupo_91898" data-name="Grupo 91898">
              <path id="Trazado_181415" data-name="Trazado 181415" d="M141.69,137.34l10-9.33c.47-.44.86-.08.86.82v31.83a3.82,3.82,0,0,1-.86,2.43l-2.37,2.22C147.83,155.65,144.74,146.53,141.69,137.34Z" fill="#c25257" fill-rule="evenodd"/>
              <path id="Trazado_181416" data-name="Trazado 181416" d="M190.2,137.54,180,128c-.48-.44-.87-.08-.87.82v31.83a3.77,3.77,0,0,0,.87,2.43l2.61,2.45C184.08,155.87,187.15,146.74,190.2,137.54Z" fill="#c25257" fill-rule="evenodd"/>
            </g>
          </g>
          <g id="Grupo_91901" data-name="Grupo 91901">
            <path id="Trazado_181417" data-name="Trazado 181417" d="M178.49,172.11a2.35,2.35,0,0,1-2.22,1.58H155.69a2.36,2.36,0,0,1-2.22-1.58,2.66,2.66,0,0,0,.85.14h23.32a2.66,2.66,0,0,0,.85-.14Z" fill="#c25257" fill-rule="evenodd"/>
            <g id="Grupo_91900" data-name="Grupo 91900">
              <path id="Trazado_181418" data-name="Trazado 181418" d="M168.05,39.53c52.84,62,12.25,89.18,12.25,130.06a2.67,2.67,0,0,1-2.66,2.66H154.32a2.66,2.66,0,0,1-2.65-2.66c0-40.89-40.62-68.09,12.28-130.11.58-.68,1-1.42,2-1.42S167.47,38.84,168.05,39.53Z" fill="#36dac9" fill-rule="evenodd"/>
              <path id="Trazado_181419" data-name="Trazado 181419" d="M170.93,43c44.83,55.11,14.71,82.29,10,117.84a17.59,17.59,0,0,1-2.52.18c-17.62,0-31.91-26.79-31.91-59.83C146.47,73,156.9,49.29,170.93,43Z" fill="#36dac9" fill-rule="evenodd"/>
            </g>
          </g>
          <g id="Grupo_91902" data-name="Grupo 91902">
            <path id="Trazado_181420" data-name="Trazado 181420" d="M168.05,39.53a162.061,162.061,0,0,1,12.78,17A91.349,91.349,0,0,1,166,57.68a91.44,91.44,0,0,1-14.85-1.17,161.657,161.657,0,0,1,12.82-17c.58-.68,1-1.42,2-1.42S167.47,38.84,168.05,39.53Z" fill="#c25257" fill-rule="evenodd"/>
            <path id="Trazado_181421" data-name="Trazado 181421" d="M174.45,57.31c-2.73.24-5.56.37-8.47.37s-5.74-.13-8.47-.37q3-8.13,6.7-16.77c.51-1.19.88-2.48,1.77-2.48s1.3,1.36,1.81,2.56Q171.47,49.22,174.45,57.31Z" fill="#d17d81" fill-rule="evenodd"/>
          </g>
          <circle id="Elipse_7604" data-name="Elipse 7604" cx="15.3" cy="15.3" r="15.3" transform="translate(147.561 103.028) rotate(-76.72)" fill="#7cabef"/>
          <g id="Grupo_91904" data-name="Grupo 91904">
            <circle id="Elipse_7605" data-name="Elipse 7605" cx="15.3" cy="15.3" r="15.3" transform="translate(144.35 89.445) rotate(-45)" fill="#c25257"/>
            <path id="Trazado_181422" data-name="Trazado 181422" d="M166,74.52a14.92,14.92,0,1,1-10.56,4.37A14.93,14.93,0,0,1,166,74.52Z" fill="#d17d81" fill-rule="evenodd"/>
            <path id="Trazado_181423" data-name="Trazado 181423" d="M166,79.06a10.39,10.39,0,1,1-10.4,10.39A10.39,10.39,0,0,1,166,79.06Z" fill="#e3eefd" fill-rule="evenodd"/>
            <g id="Grupo_91903" data-name="Grupo 91903">
              <path id="Trazado_181424" data-name="Trazado 181424" d="M175.2,84.66,157.74,95.77a10.14,10.14,0,0,1-1.39-2.44l17.23-11a10.6,10.6,0,0,1,1.62,2.33Z" fill="#fff" fill-rule="evenodd"/>
              <path id="Trazado_181425" data-name="Trazado 181425" d="M175.6,85.51l-17.25,11a11.071,11.071,0,0,0,1.23,1.14L176.1,87.11A9.891,9.891,0,0,0,175.6,85.51Z" fill="#fff" fill-rule="evenodd"/>
              <path id="Trazado_181426" data-name="Trazado 181426" d="M171.57,80.69,155.68,90.8c.06.42.14.84.24,1.25l16.67-10.61a10.7,10.7,0,0,0-1.02-.75Z" fill="#fff" fill-rule="evenodd"/>
            </g>
            <path id="Trazado_181427" data-name="Trazado 181427" d="M166,78.63a10.82,10.82,0,1,1-7.65,3.17A10.82,10.82,0,0,1,166,78.63Zm7,3.83a9.89,9.89,0,1,0,2.89,7,9.89,9.89,0,0,0-2.89-7Z" fill="#c25257" fill-rule="evenodd"/>
          </g>
        </g>
        <g id="Grupo_91909" data-name="Grupo 91909">
          <g id="Grupo_91907" data-name="Grupo 91907">
            <path id="Trazado_181428" data-name="Trazado 181428" d="M156.21,204.66v58.27l56.14-8.11V196.55Z" fill="#7cabef" fill-rule="evenodd"/>
            <path id="Trazado_181429" data-name="Trazado 181429" d="M212.35,220.27V196.55l-28.07,4.06-28.07,4.07v5.46l4.11,17.48Z" fill="#6594e7" fill-rule="evenodd"/>
            <g id="Grupo_91906" data-name="Grupo 91906">
              <path id="Trazado_181430" data-name="Trazado 181430" d="M156.21,204.66l9.35,18.85,56.15-8.12-9.36-18.84Z" fill="#5789e3" fill-rule="evenodd"/>
              <path id="Trazado_181431" data-name="Trazado 181431" d="M156.21,204.66l.17.36,56.14-8.12-.17-.35Z" fill="#7eb0ef" fill-rule="evenodd"/>
            </g>
          </g>
          <g id="Grupo_91908" data-name="Grupo 91908">
            <path id="Trazado_181432" data-name="Trazado 181432" d="M156.21,204.66v58.27l-36.88-14.51V190.15Z" fill="#95c3f5" fill-rule="evenodd"/>
            <path id="Trazado_181433" data-name="Trazado 181433" d="M119.33,190.16l18.43,7.25,18.45,7.26h0l-6.47,20.38-30.41-12Z" fill="#95c3f5" fill-rule="evenodd"/>
            <path id="Trazado_181434" data-name="Trazado 181434" d="M156.21,204.66l-14.31,16.1-36.88-14.51,14.31-16.1Z" fill="#6594e7" fill-rule="evenodd"/>
            <path id="Trazado_181435" data-name="Trazado 181435" d="M156.21,204.66l-.31.35L119.02,190.5l.31-.35Z" fill="#95c3f5" fill-rule="evenodd"/>
          </g>
        </g>
      </g>
      <g id="Grupo_91911" data-name="Grupo 91911">
        <path id="Trazado_181436" data-name="Trazado 181436" d="M81.82,222.61v-31q-18.52-4.73-27.13-14.3A33.59,33.59,0,0,1,46,154a31,31,0,0,1,9.79-23.29q9.78-9.45,26-10.87v-8.32h20.53v8.32q15.16,1.6,24.15,9.19t11.44,20.29l-24.12,2.77H107.1a18.64,18.64,0,0,0-4.75-9.2V171.6h0c15.25,3.64,25.64,8.41,31.15,14.21s8.3,13.33,8.3,22.46a35.08,35.08,0,0,1-10.44,25.78q-10.42,10.47-29,13h-.06v15.78H81.82v-15.6c-10.89-1.19-19.74-4.77-26.58-10.81s-11.19-14.6-13.1-25.61l31.42-2.6a29,29,0,0,0,1.59,5,27.19,27.19,0,0,0,6.67,9.31Zm0-80.7c-7,6.08-7.24,15.91,0,21.9Zm20.53,55.71v28.47a19.73,19.73,0,0,0,4.91-3.73,15.35,15.35,0,0,0,4.51-11.05,13.8,13.8,0,0,0-3.79-9.73A17.71,17.71,0,0,0,102.35,197.62Z" fill="#f2790c" fill-rule="evenodd"/>
        <path id="Trazado_181437" data-name="Trazado 181437" d="M88.54,227V191.63Q70,186.9,61.41,177.33A33.59,33.59,0,0,1,52.75,154a31.07,31.07,0,0,1,9.79-23.29q9.78-9.45,26-10.87v-8.32h13.81v8.32q15.16,1.6,24.15,9.19t11.44,20.29l-24.12,2.77q-2.23-10-11.47-13.52v33q22.89,5.48,31.18,14.22t8.3,22.46a35.08,35.08,0,0,1-10.44,25.78q-10.45,10.49-29,13.06v15.78H88.54v-15.6Q72.205,245.575,62,236.52c-6.8-6.04-11.18-14.6-13.1-25.61l24.7-2.6A26.56,26.56,0,0,0,79.27,220a25.71,25.71,0,0,0,9.27,7Zm0-88.79a17.84,17.84,0,0,0-8.82,5.84,14,14,0,0,0-3.24,9,13.34,13.34,0,0,0,3,8.32,20.48,20.48,0,0,0,9.11,6.19V138.25Zm13.81,90.17A21.23,21.23,0,0,0,114,222.36a15.38,15.38,0,0,0,4.5-11.05,13.8,13.8,0,0,0-3.79-9.73c-2.5-2.75-6.61-4.83-12.35-6.31Z" fill="#ffa726" fill-rule="evenodd"/>
        <path id="Trazado_181438" data-name="Trazado 181438" d="M116,151.88l-.06-.5,21.43-2.47a36.939,36.939,0,0,0-3.94-10.73,31.94,31.94,0,0,0-7.23-8.74,34.64,34.64,0,0,0-8-5,46.511,46.511,0,0,0-9.9-3.16l.1-.49q11,2.27,18.08,8.26,8.94,7.59,11.44,20.29l-22,2.53ZM88.54,219.45V191.63Q70,186.9,61.41,177.33A33.59,33.59,0,0,1,52.75,154a31.07,31.07,0,0,1,9.79-23.29,37.76,37.76,0,0,1,16.95-9.32l.13.48a40.59,40.59,0,0,0-9.16,3.62,35,35,0,0,0-7.57,5.58,30.83,30.83,0,0,0-7.22,10.37A32,32,0,0,0,53.26,154a35.56,35.56,0,0,0,2.13,12.49A32.52,32.52,0,0,0,61.78,177a39,39,0,0,0,11,8.26,73,73,0,0,0,15.93,5.9l.38.09v28.21Zm24.57-69.84.47-.17a18.36,18.36,0,0,0-4.17-6.9,19.22,19.22,0,0,0-6.88-4.41l-.18.47a17.49,17.49,0,0,1,10.76,11Zm-10.76-11v.53l-.18-.06Zm0,33a115.268,115.268,0,0,1,16.38,5.07l-.21.45a64.078,64.078,0,0,0-7.48-2.7c-2.73-.82-5.67-1.58-8.81-2.33Zm24.17,8.84a31.72,31.72,0,0,1,7,5.38q8.31,8.76,8.3,22.46a35.08,35.08,0,0,1-10.44,25.78l-.35-.35a34.69,34.69,0,0,0,7.72-11.53,36.74,36.74,0,0,0,2.57-13.9,35.92,35.92,0,0,0-2.05-12.53,26.14,26.14,0,0,0-6.1-9.57,27.39,27.39,0,0,0-3.14-2.66,44.192,44.192,0,0,0-3.85-2.52l.33-.56Zm-2.93,59.69a56.118,56.118,0,0,1-21.24,7v15.78h-.5v-16.2l.43-.06a65.661,65.661,0,0,0,11.45-2.6,47.85,47.85,0,0,0,9.6-4.33l.26.43Zm-35,7.17v-.5a54.662,54.662,0,0,1-14.67-3.55,40.44,40.44,0,0,1-11.63-7.14A36,36,0,0,1,54,225.35a50.71,50.71,0,0,1-4.56-14l12.11-1.27-.05-.5-12.65,1.33c1.92,11,6.26,19.57,13.1,25.61s15.69,9.62,26.58,10.81ZM79.27,220a26.88,26.88,0,0,0,6.81,5.83l-.26.43a26.458,26.458,0,0,1-3.6-2.58,29.4,29.4,0,0,1-3.33-3.36l.38-.32Zm5.54-80.12-.24-.44a16.9,16.9,0,0,0-2.86,1.94,17.17,17.17,0,0,0-2.38,2.44,15.3,15.3,0,0,0-2.51,4.41,14.19,14.19,0,0,0-.84,4.86,13.34,13.34,0,0,0,.76,4.48,14.85,14.85,0,0,0,2.3,4.15l.39-.31a13.34,13.34,0,0,1-3-8.32,14,14,0,0,1,3.24-9,16.8,16.8,0,0,1,5.09-4.25Zm17.54,88.58.5-.1v.1Zm11.65-6.1a15.38,15.38,0,0,0,4.5-11.05,13.8,13.8,0,0,0-3.79-9.73h0l.36-.35a14.55,14.55,0,0,1,3,4.64,15,15,0,0,1,1,5.44,16,16,0,0,1-1.16,6.14,16.46,16.46,0,0,1-3.48,5.25l-.36-.34Zm-11.64-23.31h-.5v29.37h.5Z" fill="#fed049" fill-rule="evenodd"/>
      </g>
      <g id="Grupo_91912" data-name="Grupo 91912">
        <path id="Trazado_181439" data-name="Trazado 181439" d="M223.71,231.78a.27.27,0,0,0,.29-.18l12.17-25.33a.41.41,0,0,0-.29-.57l-3.14-.28a.39.39,0,0,0-.15,0l-26.73,8.7c-.32.11-.26.43-.05.68l5.06,5.77L174.11,249.9,149,221.79l-2-2.29-3.11-.27-2.41,1.89L95,257.52l4,5.14,3.11.27,42.31-33.19,27.19,30.47,3.11.27,41.8-33.35,3.64,4.15a.58.58,0,0,0,.41.23Z" fill="#c25257" fill-rule="evenodd"/>
        <path id="Trazado_181440" data-name="Trazado 181440" d="M220.22,231.28c.21.24.53.35.67.05L233.06,206a.39.39,0,0,0-.47-.55l-26.73,8.7c-.32.11-.26.43-.05.68l5.06,5.77-38.44,30.67L145.9,221.52l-2.05-2.29-2.41,1.89L95,257.52l4,5.14,44-34.51,26.55,29.75,2.06,2.31,2.42-1.93L215.1,225.5Z" fill="#d17d81" fill-rule="evenodd"/>
      </g>
    </g>
    <g id="Grupo_91923" data-name="Grupo 91923" transform="translate(914.859 3067.006)">
      <g id="Grupo_91916" data-name="Grupo 91916">
        <g id="Grupo_91914" data-name="Grupo 91914">
          <path id="Trazado_181441" data-name="Trazado 181441" d="M241,97.77a26.84,26.84,0,1,1-27.85,45.89l-3.89-2.36A26.839,26.839,0,1,1,237.1,95.408Z" fill="#faa908" fill-rule="evenodd"/>
          <path id="Trazado_181442" data-name="Trazado 181442" d="M251.22,109a26.85,26.85,0,0,1-23.39,38.54L199,130.06a26.85,26.85,0,0,1,23.39-38.54Z" fill="#fdcb2b" fill-rule="evenodd"/>
          <path id="Trazado_181443" data-name="Trazado 181443" d="M253.79,123.21a26.88,26.88,0,0,1-12.18,20.07l-45.16-27.42a26.88,26.88,0,0,1,12.18-20.07Z" fill="#faa908" fill-rule="evenodd"/>
        </g>
        <g id="Grupo_91915" data-name="Grupo 91915">
          <path id="Trazado_181444" data-name="Trazado 181444" d="M204.83,107.22a26.84,26.84,0,1,1,9,36.87A26.84,26.84,0,0,1,204.83,107.22Z" fill="#fcb408" fill-rule="evenodd"/>
          <path id="Trazado_181445" data-name="Trazado 181445" d="M248.43,133.69a23.84,23.84,0,1,0-32.74,8A23.84,23.84,0,0,0,248.43,133.69Z" fill="#fdd833" fill-rule="evenodd"/>
          <path id="Trazado_181446" data-name="Trazado 181446" d="M228.13,125.29c.87,1.24,1.42,2,1.32,3.57s-.87,2-1.85,3a5.07,5.07,0,0,1-4,.21l4.3-7.07.23.33Zm-6.62,5.49h0a5.11,5.11,0,0,1-1.34-2.18,4.21,4.21,0,0,1,.37-3.48,2.41,2.41,0,0,0-4.09-2.47,8.21,8.21,0,0,0-.72,6.76,10.39,10.39,0,0,0,3.54,5.05l-1.78,2.94a1.223,1.223,0,0,0,2.09,1.27l1.77-2.93a10.49,10.49,0,0,0,4.46,1c4.47,0,8-2.92,8.25-7.17.25-3.64-1.51-5.1-2.48-6.95-.29-.51-.69-1.16-1.14-1.88l5.08-8.36a5.2,5.2,0,0,1,1.34,2.18,4.22,4.22,0,0,1-.37,3.47,2.41,2.41,0,0,0,4.09,2.48,8.25,8.25,0,0,0,.72-6.76,10.32,10.32,0,0,0-3.55-5l1.79-2.94a1.223,1.223,0,0,0-2.09-1.27l-1.77,2.93a10.35,10.35,0,0,0-4.46-1c-4.48,0-8,2.92-8.25,7.16-.13,1.83,1.83,6,3.51,9l-5,8.18Zm7.53-12.4h0a9,9,0,0,1-1.46-4c.1-1.55.87-2,1.85-3a5,5,0,0,1,4-.21Z" fill="#f8a008" fill-rule="evenodd"/>
        </g>
      </g>
      <g id="Grupo_91919" data-name="Grupo 91919">
        <g id="Grupo_91917" data-name="Grupo 91917">
          <path id="Trazado_181447" data-name="Trazado 181447" d="M226.54,65.27A12.931,12.931,0,1,1,234.11,90l-2.11.6a12.912,12.912,0,0,1-7.57-24.69Z" fill="#faa908" fill-rule="evenodd"/>
          <path id="Trazado_181448" data-name="Trazado 181448" d="M233.85,65.19a12.92,12.92,0,0,1,6.36,20.74L224.7,90.68a12.91,12.91,0,0,1-6.35-20.74Z" fill="#fdcb2b" fill-rule="evenodd"/>
          <path id="Trazado_181449" data-name="Trazado 181449" d="M239.77,68.81a13,13,0,0,1,3.32,10.8l-24.31,7.45a13,13,0,0,1-2.9-5,12.84,12.84,0,0,1-.41-5.78Z" fill="#faa908" fill-rule="evenodd"/>
        </g>
        <g id="Grupo_91918" data-name="Grupo 91918">
          <path id="Trazado_181450" data-name="Trazado 181450" d="M218.36,81.28a12.91,12.91,0,1,1,16.13,8.56A12.91,12.91,0,0,1,218.36,81.28Z" fill="#fcb408" fill-rule="evenodd"/>
          <path id="Trazado_181451" data-name="Trazado 181451" d="M241.82,74.09a11.47,11.47,0,1,0-7.6,14.33,11.47,11.47,0,0,0,7.6-14.33Z" fill="#fdd833" fill-rule="evenodd"/>
          <path id="Trazado_181452" data-name="Trazado 181452" d="M232.31,78.7a2.35,2.35,0,0,1,1.7.66,2.007,2.007,0,0,1,.49,1.63,2.44,2.44,0,0,1-1.21,1.51l-1.18-3.83h.2Zm-.15,4.13h0a2.55,2.55,0,0,1-1.21-.21,2,2,0,0,1-1.13-1.25,1.16,1.16,0,0,0-2.2.67,4,4,0,0,0,2.2,2.43,5,5,0,0,0,3,.34l.48,1.58a.59.59,0,0,0,1.13-.34l-.49-1.57a5.07,5.07,0,0,0,1.8-1.28,3.74,3.74,0,0,0,.07-5.25c-1.23-1.26-2.32-1.1-3.3-1.34-.27-.06-.63-.12-1-.19L230,71.92a2.59,2.59,0,0,1,1.22.21,2.08,2.08,0,0,1,1.13,1.25,1.16,1.16,0,0,0,2.2-.68,4,4,0,0,0-2.2-2.42,5,5,0,0,0-2.95-.34l-.4-1.59a.59.59,0,0,0-1.12.35l.48,1.57a5.23,5.23,0,0,0-1.79,1.27,3.74,3.74,0,0,0-.07,5.26c.62.63,2.75,1.27,4.36,1.63l1.35,4.4Zm-2-6.67h0a4.35,4.35,0,0,1-1.92-.77,2.007,2.007,0,0,1-.49-1.63,2.36,2.36,0,0,1,1.21-1.51Z" fill="#f8a008" fill-rule="evenodd"/>
        </g>
      </g>
      <g id="Grupo_91922" data-name="Grupo 91922">
        <g id="Grupo_91920" data-name="Grupo 91920">
          <path id="Trazado_181453" data-name="Trazado 181453" d="M277.91,120.29a10.6,10.6,0,1,1-19.44,8.46l-.72-1.65a10.6,10.6,0,1,1,19.44-8.46Z" fill="#faa908" fill-rule="evenodd"/>
          <path id="Trazado_181454" data-name="Trazado 181454" d="M278.65,126.24a10.6,10.6,0,0,1-16.33,7.11L257,121.14a10.61,10.61,0,0,1,16.33-7.1Z" fill="#fdcb2b" fill-rule="evenodd"/>
          <path id="Trazado_181455" data-name="Trazado 181455" d="M276.25,131.41a10.7,10.7,0,0,1-3.83,2.83,10.58,10.58,0,0,1-4.68.87L259.42,116a10.66,10.66,0,0,1,8.5-3.7Z" fill="#faa908" fill-rule="evenodd"/>
        </g>
        <g id="Grupo_91921" data-name="Grupo 91921">
          <path id="Trazado_181456" data-name="Trazado 181456" d="M264.09,115.09A10.61,10.61,0,1,1,258.6,129,10.61,10.61,0,0,1,264.09,115.09Z" fill="#fcb408" fill-rule="evenodd"/>
          <path id="Trazado_181457" data-name="Trazado 181457" d="M272.13,133.57a9.42,9.42,0,1,0-12.39-4.88A9.42,9.42,0,0,0,272.13,133.57Z" fill="#fdd833" fill-rule="evenodd"/>
          <path id="Trazado_181458" data-name="Trazado 181458" d="M267.49,126.24a1.93,1.93,0,0,1-.39,1.45c-.38.47-.74.45-1.28.55a2,2,0,0,1-1.34-.85l3-1.32v.17Zm-3.39.26h0a2,2,0,0,1,.07-1,1.65,1.65,0,0,1,.91-1,.95.95,0,0,0-.75-1.73,3.25,3.25,0,0,0-1.78,2,4.14,4.14,0,0,0,0,2.44l-1.24.54a.48.48,0,0,0,.38.88l1.24-.54a4.22,4.22,0,0,0,1.21,1.35,3.07,3.07,0,0,0,4.29-.43,4.19,4.19,0,0,0,.79-2.81,4.812,4.812,0,0,1,.06-.87l3.54-1.54a2,2,0,0,1-.06,1,1.71,1.71,0,0,1-.91,1,.89.89,0,0,0-.39,1.2.9.9,0,0,0,1.14.53,3.23,3.23,0,0,0,1.77-2,4.06,4.06,0,0,0,0-2.44l1.25-.54a.49.49,0,0,0,.25-.63.48.48,0,0,0-.64-.25l-1.24.54a4.08,4.08,0,0,0-1.2-1.35,3.08,3.08,0,0,0-4.3.43,9.83,9.83,0,0,0-.92,3.71l-3.47,1.51Zm5.26-2.29h0a3.62,3.62,0,0,1,.45-1.64c.39-.47.74-.46,1.28-.55a2,2,0,0,1,1.35.85Z" fill="#f8a008" fill-rule="evenodd"/>
        </g>
      </g>
    </g>
  </g>
</svg>
