<svg xmlns="http://www.w3.org/2000/svg" width="604" height="438.58" viewBox="0 0 604 438.58">
  <g id="Grupo_94346" data-name="Grupo 94346" transform="translate(-810 -2142.71)">
    <rect id="Rectángulo_39687" data-name="Rectángulo 39687" width="604" height="438.58" transform="translate(810 2142.71)" fill="none"/>
    <path id="Trazado_190732" data-name="Trazado 190732" d="M223.39,403.42v-2.17c3.78,0,7.64-.19,11.5-.47L235,403C231.13,403.23,227.21,403.39,223.39,403.42Zm-11.65-.34c-3.91-.26-7.81-.66-11.59-1.21l.31-2.15c3.73.54,7.57.94,11.43,1.19Zm34.86-1.35-.29-2.15c3.75-.51,7.57-1.14,11.36-1.88l.41,2.13C254.25,400.58,250.39,401.22,246.6,401.73Zm-57.91-2c-3.82-.89-7.6-1.95-11.24-3.16l.69-2.06c3.58,1.19,7.29,2.23,11,3.11Zm80.75-2.41-.53-2.11c3.65-.92,7.38-2,11.09-3.09l.64,2.07c-3.74,1.13-7.51,2.18-11.2,3.11Zm-102.87-5A109.183,109.183,0,0,1,156.18,387l1.09-1.88a108.529,108.529,0,0,0,10.19,5.23Zm125.1-1.81-.74-2c3.58-1.29,7.2-2.68,10.76-4.14l.82,2c-3.59,1.43-7.23,2.84-10.84,4.13Zm21.49-8.84-.92-2c3.46-1.6,6.95-3.31,10.36-5.07l1,1.93c-3.44,1.79-6.96,3.47-10.44,5.13Zm-166.74-1.11a104.065,104.065,0,0,1-9-7.48l1.48-1.59a101.288,101.288,0,0,0,8.79,7.33ZM333.81,371l-1.08-1.89c3.32-1.88,6.65-3.87,9.91-5.9l1.14,1.85C340.5,367.11,337.14,369.11,333.81,371Zm-204.45-6.39a103.131,103.131,0,0,1-7.07-9.31l1.8-1.21a100.152,100.152,0,0,0,6.92,9.11Zm224.17-5.88-1.22-1.8c3.17-2.14,6.34-4.38,9.42-6.65L363,352c-3.09,2.33-6.29,4.58-9.47,6.74ZM116.31,345.27a109.848,109.848,0,0,1-4.85-10.62l2-.8a106.758,106.758,0,0,0,4.75,10.42ZM372.25,345l-1.34-1.7c3-2.38,6-4.85,8.9-7.33l1.41,1.66C378.3,340.12,375.28,342.6,372.25,345Zm17.67-15.07-1.46-1.6c1.44-1.32,2.88-2.67,4.32-4s2.7-2.6,4-3.91l1.52,1.55q-2,2-4.07,3.93C392.83,327.24,391.38,328.6,389.92,329.93Zm-282.19-6.35c-1-3.68-1.94-7.5-2.65-11.36l2.13-.4c.71,3.8,1.58,7.56,2.61,11.17Zm298.74-9.93-1.57-1.5c2.64-2.79,5.26-5.66,7.77-8.52l1.63,1.43C411.77,308,409.13,310.83,406.47,313.65Zm-303-13c-.37-3.79-.59-7.71-.67-11.64h2.17c.07,3.88.29,7.74.66,11.47Zm318.35-4.47-1.69-1.37c2.43-3,4.83-6,7.13-9.07l1.73,1.31c-2.33,3.09-4.74,6.16-7.18,9.15Zm14-18.53L434,276.43c2.2-3.16,4.36-6.39,6.41-9.59l1.82,1.17c-2.04,3.22-4.23,6.47-6.43,9.66Zm-330.63-.17-2.17-.12c.21-3.8.55-7.7,1-11.6l2.16.27c-.47,3.86-.81,7.71-1.01,11.47Zm343.14-19.41L446.44,257c1.93-3.31,3.81-6.7,5.6-10.08l1.92,1c-1.8,3.42-3.7,6.84-5.65,10.17Zm-340.39-3.42-2.13-.39c.69-3.76,1.52-7.59,2.44-11.38l2.11.52c-.94,3.77-1.75,7.6-2.44,11.27Zm351.24-17.13-2-.93c1.65-3.47,3.23-7,4.69-10.52l2,.84c-1.45,3.56-3.05,7.09-4.71,10.63ZM113.41,232.3l-2.08-.63c1.11-3.67,2.34-7.38,3.65-11l2.05.73c-1.32,3.6-2.54,7.29-3.64,10.92Zm354.72-16.2-2-.74c1.32-3.63,2.56-7.3,3.67-10.92l2.07.64C470.71,208.73,469.47,212.44,468.13,216.1Zm-347-5.46-2-.83c1.47-3.55,3-7.12,4.7-10.64l2,.93c-1.64,3.48-3.21,7.03-4.66,10.54ZM475,193.87l-2.11-.52c.93-3.74,1.77-7.53,2.47-11.25l2.13.41C476.73,186.27,475.89,190.09,475,193.87Zm-344-4.1-1.93-1c1.79-3.4,3.67-6.83,5.62-10.18l1.87,1.09c-1.96,3.32-3.84,6.72-5.56,10.09ZM479.26,171l-2.15-.27c.48-3.83.84-7.68,1.06-11.45l2.17.13C480.11,163.23,479.75,167.13,479.26,171Zm-336.75-1.18-1.83-1.17c2.07-3.27,4.24-6.53,6.42-9.68l1.78,1.24c-2.16,3.14-4.31,6.37-6.37,9.62Zm13.12-19-1.74-1.3c2.31-3.07,4.71-6.15,7.15-9.16l1.69,1.37c-2.42,3.03-4.81,6.09-7.1,9.13Zm322.81-3.06c-.05-3.86-.25-7.72-.59-11.47l2.16-.2c.35,3.81.55,7.73.6,11.64ZM170.16,133l-1.63-1.43c2.54-2.9,5.17-5.79,7.8-8.6l1.58,1.49C175.3,127.19,172.69,130.07,170.16,133Zm306.16-8c-.67-3.8-1.52-7.56-2.52-11.18l2.09-.58c1,3.69,1.88,7.52,2.57,11.38ZM186,116.15l-1.53-1.54q2.31-2.28,4.68-4.54,1.84-1.75,3.72-3.48l1.47,1.6q-1.86,1.71-3.7,3.45Q188.27,113.89,186,116.15Zm284.25-13.27a106.828,106.828,0,0,0-4.68-10.45l1.93-1a108.911,108.911,0,0,1,4.77,10.67Zm-267.29-2.36-1.41-1.65c2.93-2.51,5.94-5,8.95-7.4l1.35,1.7c-3.02,2.38-6.01,4.83-8.92,7.35Zm18-14.36-1.29-1.75c3.1-2.29,6.29-4.55,9.48-6.72l1.22,1.79c-3.16,2.16-6.32,4.41-9.37,6.68Zm19.06-13-1.15-1.84c3.28-2,6.63-4.06,10-6l1.08,1.88q-5.01,2.91-9.95,5.97Zm20-11.46-1-1.92c3.46-1.8,7-3.53,10.42-5.15l.92,2c-3.36,1.58-6.89,3.3-10.36,5.08Zm20.9-9.7-.83-2c3.59-1.5,7.24-2.92,10.83-4.22l.74,2C288.1,49.06,284.49,50.47,280.92,52Zm21.66-7.85L301.94,42c3.71-1.15,7.47-2.21,11.19-3.16l.54,2.1c-3.67.96-7.41,2.06-11.09,3.16Zm101.87-2.9a109.563,109.563,0,0,0-11.06-3l.48-2.12c3.83.87,7.62,1.91,11.25,3.09Zm-79.56-2.79-.42-2.13c3.84-.76,7.7-1.42,11.47-2l.3,2.15c-3.73.52-7.55,1.17-11.35,1.93Zm57.2-2.3c-3.72-.52-7.57-.9-11.43-1.13l.13-2.17c3.92.24,7.82.62,11.6,1.15Zm-34.41-.88-.17-2.17c3.9-.3,7.82-.48,11.63-.52v2.17c-3.74-.01-7.61.17-11.46.47Z" transform="translate(810 2142.71)" fill="#7fb8db"/>
    <g id="Grupo_94063" data-name="Grupo 94063" transform="translate(810 2142.71)">
      <path id="Trazado_190733" data-name="Trazado 190733" d="M230.88,222.67h1.55l31.32,192.71h-2.69L230.55,227.67Z" fill="#7fb8db"/>
      <path id="Trazado_190734" data-name="Trazado 190734" d="M195.53,415.39h2.7l36.44-206.51a8.2,8.2,0,0,1,7.75-6.55h14l-.44-2.65h-13.1a11.46,11.46,0,0,0-10.88,9.2Z" fill="#7fb8db"/>
      <path id="Trazado_190735" data-name="Trazado 190735" d="M278.5,222.67h1.51l31.32,192.71h-2.69L278.15,227.82Z" fill="#7fb8db"/>
      <path id="Trazado_190736" data-name="Trazado 190736" d="M250.91,347.05h47.65l.09-1.48H251.01Z" fill="#7fb8db"/>
      <path id="Trazado_190737" data-name="Trazado 190737" d="M243.61,415.39h2.68l36.46-206.51a7.6,7.6,0,0,0-7.73-9.2H256l.44,2.65h18.12a5.41,5.41,0,0,1,5.49,6.55Z" fill="#7fb8db"/>
      <path id="Trazado_190738" data-name="Trazado 190738" d="M207.24,359.15H255.3l.61-3.53H207.85Z" fill="#7fb8db"/>
      <path id="Trazado_190739" data-name="Trazado 190739" d="M211.46,334.8h48.07l.61-3.53H212.08Z" fill="#7fb8db"/>
      <path id="Trazado_190740" data-name="Trazado 190740" d="M202.96,381.73h48.06l.61-3.54H203.57Z" fill="#7fb8db"/>
      <path id="Trazado_190741" data-name="Trazado 190741" d="M215.69,310.46h48.06l.62-3.54H216.3Z" fill="#7fb8db"/>
      <path id="Trazado_190742" data-name="Trazado 190742" d="M219.92,286.11h48.06l.62-3.54H220.53Z" fill="#7fb8db"/>
      <path id="Trazado_190743" data-name="Trazado 190743" d="M224.15,261.76h61.38l-.53-3.53H225.02Z" fill="#7fb8db"/>
    </g>
    <g id="Grupo_94064" data-name="Grupo 94064" transform="translate(810 2142.71)">
      <path id="Trazado_190744" data-name="Trazado 190744" d="M311.66,141.29c-12.28,5.57-30.61,7.39-44.19,7.89-10.39.4-18,0-18,0-15.13-41.48-9.29-66.6-7-73.56.43-1.33.73-2,.73-2C269,57.76,294.53,60,294.53,60a16.542,16.542,0,0,1,2.65,2.6,13.73,13.73,0,0,1,2.4,5.61,87.526,87.526,0,0,1,1.7,14.19h0C302.38,100.24,302.4,125.13,311.66,141.29Z" fill="#ffa726"/>
      <path id="Trazado_190745" data-name="Trazado 190745" d="M267.45,149.19c-10.38.4-18,.05-18,.05-15.13-41.47-9.29-66.6-7-73.56a3.19,3.19,0,0,1,3,.5c6,4,6,31.36,3.75,46.64Z" fill="#ffa726"/>
      <path id="Trazado_190746" data-name="Trazado 190746" d="M280.77,58.55a25.69,25.69,0,0,0-.39,8.08c.33,5.11-2.28,9-4.76,9.44C267,77.5,263.74,64.81,263.74,64.81s2.89-3.27,5.6-15.43C271.8,38.35,282.6,49.78,280.77,58.55Z" fill="#f79885"/>
      <path id="Trazado_190747" data-name="Trazado 190747" d="M270.93,53.51s2,10.23,9.32,10.86c0,0,0-2.64.12-3.76Z" fill="#f0786a"/>
      <path id="Trazado_190748" data-name="Trazado 190748" d="M269.27,49.36c4-10.13.21-18,10.72-17.76s13,2.58,11.43,11.24c-2.29,12.77-9.08,19.56-10.92,19.47C274.43,62,269.94,52.38,269.27,49.36Z" fill="#f79885"/>
      <path id="Trazado_190749" data-name="Trazado 190749" d="M291,41.59a33.219,33.219,0,0,1-1,6.8c1.19-2.29,2.32-6,2.09-7.92Z" fill="#22365b"/>
      <path id="Trazado_190750" data-name="Trazado 190750" d="M269.13,50c2.12-7.1-.26-14,2.81-14.32-1.75-2.69-.74-13.57,16.52-2.8,4.76-3.68,10.57,5.24,4.2,8.49s-16.36-3-16.36-3-1.39,3.25-2.19,5c0,0,0-2.85-1.24-2.32s-1.25,4-.16,4.81C272.71,45.86,270.78,50.33,269.13,50Z" fill="#1565ab"/>
    </g>
    <g id="Grupo_94068" data-name="Grupo 94068" transform="translate(810 2142.71)">
      <rect id="Rectángulo_39688" data-name="Rectángulo 39688" width="61.14" height="69.37" transform="translate(286.28 346.02)" fill="#22365b"/>
      <path id="Trazado_190751" data-name="Trazado 190751" d="M221.17,415.39q95.68-31.45,191.36,0Z" fill="#1565ab"/>
      <rect id="Rectángulo_39689" data-name="Rectángulo 39689" width="353.61" height="252.28" rx="14.63" transform="translate(140.04 104.53)" fill="#1565ab"/>
      <rect id="Rectángulo_39690" data-name="Rectángulo 39690" width="234.64" height="335.97" rx="3.5" transform="translate(484.84 113.35) rotate(90)" fill="#fff"/>
      <g id="Grupo_94067" data-name="Grupo 94067">
        <g id="Grupo_94065" data-name="Grupo 94065">
          <path id="Trazado_190752" data-name="Trazado 190752" d="M470,314.18H167.83a6.24,6.24,0,0,1-6.24-6.25V279.67a6.24,6.24,0,0,1,6.24-6.25H297a3.75,3.75,0,0,0,3.75-3.74V220.45A3.75,3.75,0,0,0,297,216.7H167.83a6.24,6.24,0,0,1-6.24-6.24V162.41a6.24,6.24,0,0,1,6.24-6.25h23.72v2.5H167.83a3.75,3.75,0,0,0-3.75,3.75v48.05a3.75,3.75,0,0,0,3.75,3.74H297a6.25,6.25,0,0,1,6.24,6.25v49.23a6.24,6.24,0,0,1-6.24,6.24H167.83a3.75,3.75,0,0,0-3.75,3.75v28.26a3.75,3.75,0,0,0,3.75,3.75H470a3.75,3.75,0,0,0,3.74-3.75V235a3.75,3.75,0,0,0-3.74-3.74H399.27A6.25,6.25,0,0,1,393,225V164.8a3.75,3.75,0,0,0-3.74-3.74h-48.5v-2.5h48.52a6.25,6.25,0,0,1,6.24,6.24V225a3.75,3.75,0,0,0,3.75,3.75H470a6.25,6.25,0,0,1,6.24,6.24V307.9a6.25,6.25,0,0,1-6.24,6.28Z" fill="#5aa5d1"/>
          <path id="Trazado_190753" data-name="Trazado 190753" d="M244.62,209.91h-2.5V164.83a6.25,6.25,0,0,1,6.24-6.24H302v2.5H248.36a3.75,3.75,0,0,0-3.74,3.74Z" fill="#5aa5d1"/>
        </g>
        <path id="Trazado_190754" data-name="Trazado 190754" d="M444.57,166.05h-9.1a16.67,16.67,0,0,1-16.67-16.68h0a16.67,16.67,0,0,1,16.67-16.67h9.1a16.67,16.67,0,0,1,16.68,16.67h0a16.68,16.68,0,0,1-16.68,16.68Z" fill="#5aa5d1"/>
        <g id="Grupo_94066" data-name="Grupo 94066">
          <rect id="Rectángulo_39691" data-name="Rectángulo 39691" width="49.74" height="49.74" rx="8.08" transform="translate(175.32 131.25)" fill="#ffa726"/>
          <rect id="Rectángulo_39692" data-name="Rectángulo 39692" width="89.09" height="29.15" rx="8.08" transform="translate(186.56 200.88)" fill="#ffa726"/>
          <rect id="Rectángulo_39693" data-name="Rectángulo 39693" width="60.37" height="33.35" rx="8.08" transform="translate(215.28 258)" fill="#eb5654"/>
          <rect id="Rectángulo_39694" data-name="Rectángulo 39694" width="80.88" height="36.2" rx="8.08" transform="translate(294.83 294.83)" fill="#ffa726"/>
          <rect id="Rectángulo_39695" data-name="Rectángulo 39695" width="127.7" height="62.77" rx="8.08" transform="translate(330.42 197.36)" fill="#008eb0"/>
        </g>
      </g>
    </g>
    <g id="Grupo_94069" data-name="Grupo 94069" transform="translate(810 2142.71)">
      <path id="Trazado_190755" data-name="Trazado 190755" d="M354.82,137l-3,2-3.89,2.52-.7.48s-16.86-24-24.35-39.76c-6.81-6-13.28-11.41-18.48-16.56-1.1-1.07-2.12-2.14-3.09-3.22h0a87.522,87.522,0,0,0-1.7-14.19,13.729,13.729,0,0,0-2.4-5.61,16.541,16.541,0,0,0-2.65-2.6c15.21,6.29,26.8,13.56,38.31,26.59C349.27,105.21,358.14,122.49,354.82,137Z" fill="#ffa726"/>
      <path id="Trazado_190756" data-name="Trazado 190756" d="M304.37,85.65c-1.1-1.09-2.14-2.17-3.09-3.24a87.522,87.522,0,0,0-1.7-14.19c.3.33.62.68.92,1C302.8,72,303.77,78,304.37,85.65Z" fill="#ffa726"/>
      <path id="Trazado_190757" data-name="Trazado 190757" d="M274.22,168.43c2.42.57,8.81-2.51,8.76-3.52-.06-1.29-3.87-6-6.7-6.77s-8.21.35-8.21.35Z" fill="#f0786a"/>
      <path id="Trazado_190758" data-name="Trazado 190758" d="M354.43,153.38c-1,2.17-7.19,5.15-7.92,4.51-.94-.82-2.22-6.54-1.09-9.14s5.19-6,5.19-6Z" fill="#f0786a"/>
      <rect id="Rectángulo_39696" data-name="Rectángulo 39696" width="76.16" height="27.88" rx="8.08" transform="translate(274.4 145.9)" fill="#eb5654"/>
      <path id="Trazado_190759" data-name="Trazado 190759" d="M354.43,153.39,350,146.72s-5.52,5.85-6.57,5.07,4.64-9.66,4.64-9.66-.07-.23-.17-.63l3.89-2.52C353.83,142.75,355.63,148.52,354.43,153.39Z" fill="#f79885"/>
      <path id="Trazado_190760" data-name="Trazado 190760" d="M263.36,151.35c-1.71.8,2.74,13.38,10.86,17.08l-2.52-7.9s8.28-.7,8.33-2.06S269.2,156,269.2,156,265.31,150.44,263.36,151.35Z" fill="#f79885"/>
      <path id="Trazado_190761" data-name="Trazado 190761" d="M246.86,74.27c-10-6.71-23.5,40-19.74,52.72,4.48,15.2,24.32,34.55,37.55,35.41l4.57-7.62L245,122.83C247.26,107.53,252.85,78.3,246.86,74.27Z" fill="#ffa726"/>
    </g>
    <g id="Grupo_94073" data-name="Grupo 94073" transform="translate(810 2142.71)">
      <g id="Grupo_94070" data-name="Grupo 94070">
        <path id="Trazado_190762" data-name="Trazado 190762" d="M354.73,223.12l8.49,17.09a2.35,2.35,0,0,0,2.32,1.2l27.62-4.17a1.1,1.1,0,0,0,.89-1.68l-9.11-17a2.36,2.36,0,0,0-2.32-1.21l-27,4.08a1.12,1.12,0,0,0-.89,1.69Z" fill="#1565ab"/>
        <path id="Trazado_190763" data-name="Trazado 190763" d="M365.18,240.15,356,222l27.16-4.09,9.8,18.05Z" fill="#fff"/>
      </g>
      <g id="Grupo_94071" data-name="Grupo 94071">
        <path id="Trazado_190764" data-name="Trazado 190764" d="M396.57,224.86c-2.07.58-2,11.73,2.55,20.78l9.53-6.42Z" fill="#f79885"/>
        <path id="Trazado_190765" data-name="Trazado 190765" d="M433.93,219.8c-4.46,5.89-13.26,33.72-13.26,33.72l-12-14.3-9.53,6.42c6.12,14.47,17.59,23.44,23.34,22.75C440,266.3,445.31,222.83,433.93,219.8Z" fill="#22365b"/>
      </g>
      <path id="Trazado_190766" data-name="Trazado 190766" d="M451.89,416.47h-3.8c-3.77-26.28-11.53-75.11-15.19-98.16h0c-2.29-14.41-4.11-26.33-4.89-33.46l5-.1h.86l25.41-.51C464.54,333.2,462.32,402.63,451.89,416.47Z" fill="#eb5654"/>
      <path id="Trazado_190767" data-name="Trazado 190767" d="M434.68,330l-3-20,3.95-7.9C438,321.23,434.68,330,434.68,330Z" fill="#c93b38"/>
      <path id="Trazado_190768" data-name="Trazado 190768" d="M447.27,415.83a3.16,3.16,0,0,1,.1-.5H453c.56,3-.66,7-.66,7H451a3.94,3.94,0,0,0-.46-2.09,5,5,0,0,0-.7,2.09h-7.61C443.65,421,446.55,418.83,447.27,415.83Z" fill="#9c2622"/>
      <path id="Trazado_190769" data-name="Trazado 190769" d="M436.63,284.22c.31,16.58-10,117.28-23.57,132.25H409.6c-3.6-47.81-4.82-113.21-1.6-131.94l25,.2Z" fill="#eb5654"/>
      <g id="Grupo_94072" data-name="Grupo 94072">
        <path id="Trazado_190770" data-name="Trazado 190770" d="M418.45,210.48c1.66,6,3.06,11.08,3.06,11.08,2.35,1.09,5.08.5,8.09-1.3a125.178,125.178,0,0,0-7.72-18.34C419.38,197.29,416.68,204.17,418.45,210.48Z" fill="#f79885"/>
        <path id="Trazado_190771" data-name="Trazado 190771" d="M422.39,201.69s-1-9-4.7-12-12.69,1.46-13.1,4.85c-.38,3.19,1.49,12.92,10.36,19.09a2.05,2.05,0,0,0,2.55-.2,19.09,19.09,0,0,0,3.5-4.13A11.35,11.35,0,0,0,422.39,201.69Z" fill="#f79885"/>
        <path id="Trazado_190772" data-name="Trazado 190772" d="M425.27,196c1.37-5.88-1.25-16.07-5.13-17s-6.67,8.48-6.67,8.48-3.05-8.59-6-6.55-1.13,7.85-1.13,7.85c-4.68-1.6-9.65-1.32-9.38,2.7.36,5.42,7,12.33,13.86,10.55,0,0-.58-2.2.42-1.8,1.38.56,1.74,3,1,4.12,4,3.92,7.56,4.38,10.18,3.88,5-1,11.55-6.84,9.76-10S425.27,196,425.27,196Z" fill="#c93b38"/>
      </g>
      <path id="Trazado_190773" data-name="Trazado 190773" d="M460.14,286.87c-10.69,8.65-34.27,7.66-54,4.76,0-.2.67-8.83,1.88-20.54,1.33-12.81,3.31-29.3,5.82-42.48.59-3.17,1.23-6.13,1.88-8.81,7.56-6.15,15.59-4.56,20.09-2.84a9.5,9.5,0,0,1,5,4.56C457.81,255.22,460.14,286.87,460.14,286.87Z" fill="#1565ab"/>
      <path id="Trazado_190774" data-name="Trazado 190774" d="M408,271.09c1.33-12.81,3.31-29.3,5.82-42.48a17.62,17.62,0,0,1,2-2.37C423.85,230.08,418.61,258.1,408,271.09Z" fill="#22365b"/>
      <path id="Trazado_190775" data-name="Trazado 190775" d="M408.26,415.83a3.221,3.221,0,0,1,.11-.5h6.17c.56,2.89-.5,7-.5,7h-.92c-.19-4.79-2-2-2.26,0H400C403.14,421.52,407.39,418.39,408.26,415.83Z" fill="#9c2622"/>
      <path id="Trazado_190776" data-name="Trazado 190776" d="M366.54,232c-1.93.94.13,11.91,6.26,20l8.21-8Z" fill="#f79885"/>
      <path id="Trazado_190777" data-name="Trazado 190777" d="M415.83,219.8c-5.48,5-19.81,34.76-19.81,34.76l-15-10.64-8.21,8c8.64,13.13,17.68,18.87,23.46,19.26C413.83,272.4,426.44,224.89,415.83,219.8Z" fill="#1565ab"/>
      <path id="Trazado_190778" data-name="Trazado 190778" d="M371.35,237.22c.53-.39-3.69-5.25-4.23-5.84s-2.28-1.32-3.55-2.33c-1.46-1.17-1.8-2.25-2.19-2.15s-.37,2,.7,3.61c0,0-4.21-.28-4.81.6-.22.33.29,1.14,1.15,1.48-.56.8,1.59,3.8,3.29,4.22,1,.22,4.29-1.49,4.29-1.49S370.62,237.75,371.35,237.22Z" fill="#f79885"/>
      <path id="Trazado_190779" data-name="Trazado 190779" d="M398.65,229c-.37.39-3.11-1.7-3.11-1.7s-2.05.67-2.64.38-2.49-3.15-2.49-3.15-3.92.76-4,0c0-.48,6.19-2.37,6.19-2.37s-2.5-2.12-1.77-2.75c.44-.38,3,1.93,4.57,2.37C395.41,221.8,399.5,228.1,398.65,229Z" fill="#f79885"/>
    </g>
    <g id="Grupo_94074" data-name="Grupo 94074" transform="translate(810 2142.71)">
      <path id="Trazado_190780" data-name="Trazado 190780" d="M128.72,82.89a2.49,2.49,0,0,1-2-.82,3.31,3.31,0,0,1-.74-2.3V76.33a2.72,2.72,0,0,0-.5-1.78,2,2,0,0,0-1.59-.61v-2a2.12,2.12,0,0,0,1.6-.65,2.69,2.69,0,0,0,.49-1.77V66.05a3.37,3.37,0,0,1,.72-2.33,2.51,2.51,0,0,1,2-.8h1.8v2H130a1.36,1.36,0,0,0-1.2.54,2.91,2.91,0,0,0-.37,1.64v3.15a2.84,2.84,0,0,1-.53,1.72,2.27,2.27,0,0,1-1.37.92h0a2.42,2.42,0,0,1,1.39,1,2.84,2.84,0,0,1,.51,1.69v3.15a2.92,2.92,0,0,0,.37,1.65,1.36,1.36,0,0,0,1.2.54h.53v2Z" fill="#7fb8db"/>
      <path id="Trazado_190781" data-name="Trazado 190781" d="M143.66,72.77a7.38,7.38,0,0,1-.78,3.48,5.35,5.35,0,0,1-2.22,2.27,6.61,6.61,0,0,1-3.28.79h-5.21V66.42h4.66a7.2,7.2,0,0,1,5,1.64A6.09,6.09,0,0,1,143.66,72.77Zm-2.72,0a4.33,4.33,0,0,0-1.08-3.17,4.12,4.12,0,0,0-3.08-1.09h-1.91v8.72h2.29a3.46,3.46,0,0,0,2.76-1.2A4.88,4.88,0,0,0,140.94,72.77Z" fill="#7fb8db"/>
      <path id="Trazado_190782" data-name="Trazado 190782" d="M145.7,79.31V66.42h10.14v2.09H148.4v3.24h6.88v2.08H148.4v3.4h7.81v2.08Z" fill="#7fb8db"/>
      <path id="Trazado_190783" data-name="Trazado 190783" d="M164.57,79.31h-2.73l-4.77-12.89h2.82l2.65,8.28c.17.54.39,1.35.68,2.43l.19-.78.47-1.65,2.64-8.28h2.79Z" fill="#7fb8db"/>
      <path id="Trazado_190784" data-name="Trazado 190784" d="M169.83,80.9h.53a1.35,1.35,0,0,0,1.21-.54,3,3,0,0,0,.36-1.65V75.56a2.82,2.82,0,0,1,.52-1.69,2.38,2.38,0,0,1,1.37-1h0a2.31,2.31,0,0,1-1.36-.92,2.82,2.82,0,0,1-.53-1.72V67.09a3,3,0,0,0-.36-1.64,1.35,1.35,0,0,0-1.21-.54h-.53v-2h1.81a2.51,2.51,0,0,1,2,.8,3.37,3.37,0,0,1,.71,2.33v3.43a2.67,2.67,0,0,0,.51,1.77,2.17,2.17,0,0,0,1.61.65v2a2,2,0,0,0-1.61.62,2.71,2.71,0,0,0-.51,1.77v3.44a3.34,3.34,0,0,1-.73,2.3,2.47,2.47,0,0,1-2,.82h-1.81Z" fill="#7fb8db"/>
    </g>
    <g id="Grupo_94075" data-name="Grupo 94075" transform="translate(810 2142.71)">
      <rect id="Rectángulo_39697" data-name="Rectángulo 39697" width="34.54" height="3.59" transform="translate(362.817 369.963) rotate(-15.87)" fill="#fff"/>
      <path id="Trazado_190785" data-name="Trazado 190785" d="M392.08,363.55a5.11,5.11,0,1,1-2.431-3.081,5.13,5.13,0,0,1,2.431,3.081Z" fill="#fff"/>
      <rect id="Rectángulo_39698" data-name="Rectángulo 39698" width="34.54" height="3.59" transform="translate(366.079 381.435) rotate(-15.87)" fill="#fff"/>
      <path id="Trazado_190786" data-name="Trazado 190786" d="M379.19,379.6a5.12,5.12,0,1,1-2.433-3.078,5.13,5.13,0,0,1,2.433,3.078Z" fill="#fff"/>
      <rect id="Rectángulo_39699" data-name="Rectángulo 39699" width="34.445" height="3.58" transform="translate(367.302 393.444) rotate(-15.709)" fill="#fff"/>
      <path id="Trazado_190787" data-name="Trazado 190787" d="M394.81,387.55a5.13,5.13,0,1,1-6.34-3.53,5.13,5.13,0,0,1,6.34,3.53Z" fill="#fff"/>
    </g>
    <g id="Grupo_94076" data-name="Grupo 94076" transform="translate(810 2142.71)">
      <path id="Trazado_190788" data-name="Trazado 190788" d="M431.46,55.94A6.75,6.75,0,0,1,435.85,61L454,67.36a3.43,3.43,0,1,1-2.27,6.47l-18.11-6.35a6.75,6.75,0,0,1-10.71-2.85l5.42,1.9L432,63.3l-.92-4.85-5.42-1.9a6.74,6.74,0,0,1,5.8-.61Zm4.88,7.77-.69,2L449,70.35l.68-2Z" fill="#7fb8db"/>
      <path id="Trazado_190789" data-name="Trazado 190789" d="M441.86,59a.58.58,0,0,0-.74.35l-.48,1.38a.58.58,0,0,0,.36.75l1.73.6-6.5,18.39,1.6.56,6.5-18.39,1.73.61a.58.58,0,0,0,.74-.36l.48-1.38a.58.58,0,0,0-.36-.74.58.58,0,0,1-.35-.74l.11-.32a.58.58,0,0,1,.74-.35.59.59,0,0,0,.74-.36l3-8.82a.58.58,0,0,0-.36-.74l-5.06-1.78a.59.59,0,0,0-.74.36l-3,8.8a.59.59,0,0,0,.36.74.59.59,0,0,1,.36.74l-.12.32a.58.58,0,0,1-.74.38Z" fill="#7fb8db"/>
      <path id="Trazado_190790" data-name="Trazado 190790" d="M440.53,86.27a21.9,21.9,0,1,1,19.7-31.4h0a21.9,21.9,0,0,1-19.7,31.4Zm-.07-42a20.09,20.09,0,1,0,19.648,15.61A20.1,20.1,0,0,0,440.46,44.27Z" fill="#7fb8db"/>
    </g>
  </g>
</svg>
