<svg xmlns="http://www.w3.org/2000/svg" width="570.532" height="323.771" viewBox="0 0 570.532 323.771">
  <g id="Grupo_94299" data-name="Grupo 94299" transform="translate(-200 -11646.156)">
    <path id="Trazado_191674" data-name="Trazado 191674" d="M0,0H43.93" transform="translate(293.83 11817.19)" fill="none" stroke="#0b3360" stroke-width="2"/>
    <path id="Trazado_187402" data-name="Trazado 187402" d="M153.34,193.89l4.32-2.49-4.32-2.49Z" transform="translate(183.69 11625.79)" fill="#0b3360"/>
    <path id="Trazado_191675" data-name="Trazado 191675" d="M0,0H19.56" transform="translate(602.19 11817.19)" fill="none" stroke="#0b3360" stroke-width="2"/>
    <path id="Trazado_187403" data-name="Trazado 187403" d="M437.33,193.89l4.32-2.49-4.32-2.49Z" transform="translate(183.69 11625.79)" fill="#0b3360"/>
    <path id="Trazado_191676" data-name="Trazado 191676" d="M0,0V17.7" transform="translate(430.96 11696.48)" fill="none" stroke="#0b3360" stroke-width="2"/>
    <path id="Trazado_187404" data-name="Trazado 187404" d="M244.77,87.66l2.5,4.32,2.49-4.32Z" transform="translate(183.69 11625.79)" fill="#0b3360"/>
    <path id="Trazado_191677" data-name="Trazado 191677" d="M0,0V17.71" transform="translate(430.96 11926.06)" fill="none" stroke="#0b3360" stroke-width="2"/>
    <path id="Trazado_187405" data-name="Trazado 187405" d="M244.77,317.25l2.5,4.31,2.49-4.31Z" transform="translate(183.69 11625.79)" fill="#0b3360"/>
    <path id="Trazado_191678" data-name="Trazado 191678" d="M0,0V36.39" transform="translate(669.49 11846.03)" fill="none" stroke="#0b3360" stroke-width="2"/>
    <path id="Trazado_187406" data-name="Trazado 187406" d="M483.3,255.9l2.5,4.31,2.49-4.31Z" transform="translate(183.69 11625.79)" fill="#0b3360"/>
    <path id="Trazado_191679" data-name="Trazado 191679" d="M3.99,0H79.51A3.99,3.99,0,0,1,83.5,3.99V24.54a3.99,3.99,0,0,1-3.99,3.99H3.99A3.99,3.99,0,0,1,0,24.54V3.99A3.99,3.99,0,0,1,3.99,0Z" transform="translate(200 11801.44)" fill="#1565af"/>
    <path id="Trazado_191680" data-name="Trazado 191680" d="M3.99,0H56.91A3.99,3.99,0,0,1,60.9,3.99V24.54a3.99,3.99,0,0,1-3.99,3.99H3.99A3.99,3.99,0,0,1,0,24.54V3.99A3.99,3.99,0,0,1,3.99,0Z" transform="translate(535.16 11801.44)" fill="#1565af"/>
    <path id="Trazado_191681" data-name="Trazado 191681" d="M3.99,0H76.34a3.99,3.99,0,0,1,3.99,3.99V47.63a3.99,3.99,0,0,1-3.99,3.99H3.99A3.99,3.99,0,0,1,0,47.63V3.99A3.99,3.99,0,0,1,3.99,0Z" transform="translate(627.74 11790.91)" fill="#1565af"/>
    <path id="Trazado_187407" data-name="Trazado 187407" d="M175.52,96.79H321a4,4,0,0,1,4,4v24.55H171.54V100.77a4,4,0,0,1,3.98-3.98Z" transform="translate(183.69 11625.79)" fill="#104c82"/>
    <path id="Trazado_187408" data-name="Trazado 187408" d="M175.52,267.54H321a4,4,0,0,1,4,4v24.55H171.54V271.52A4,4,0,0,1,175.52,267.54Z" transform="translate(680.2 12189.4) rotate(180)" fill="#32c1b1"/>
    <path id="Trazado_191682" data-name="Trazado 191682" d="M0,0H153.43V28.53H0Z" transform="translate(355.23 11751.11)" fill="#1565af"/>
    <path id="Trazado_191683" data-name="Trazado 191683" d="M0,0H153.43V28.53H0Z" transform="translate(355.23 11779.64)" fill="#4480bc"/>
    <path id="Trazado_191684" data-name="Trazado 191684" d="M0,0H153.43V28.53H0Z" transform="translate(355.23 11808.17)" fill="#039be5"/>
    <path id="Trazado_191685" data-name="Trazado 191685" d="M0,0H153.43V28.53H0Z" transform="translate(355.23 11836.7)" fill="#35afea"/>
    <path id="Trazado_191686" data-name="Trazado 191686" d="M0,0H153.43V28.53H0Z" transform="translate(355.23 11865.23)" fill="#36d7c6"/>
    <path id="Trazado_191687" data-name="Trazado 191687" d="M7.156-10.016H2.781v3.875H6.828v1.18H2.781V0H1.469V-11.2H7.156ZM10.391,0H9.109V-11.844h1.281Zm9.063,0H18.172V-1.266h-.031A2.631,2.631,0,0,1,15.672.188q-2.859,0-2.859-3.406V-8h1.273v4.578q0,2.531,1.938,2.531a1.96,1.96,0,0,0,1.543-.691,2.645,2.645,0,0,0,.605-1.809V-8h1.281ZM23.32-.336A5.014,5.014,0,0,1,22.527,2.7a2.658,2.658,0,0,1-2.27,1.066,2.409,2.409,0,0,1-1.062-.25V2.32a2.12,2.12,0,0,0,1.094.352q1.75,0,1.75-2.8V-8H23.32Zm-.625-9.7a.812.812,0,0,1-.586-.234.791.791,0,0,1-.242-.594.8.8,0,0,1,.242-.6A.8.8,0,0,1,22.7-11.7a.827.827,0,0,1,.6.238.8.8,0,0,1,.246.6.792.792,0,0,1-.246.586A.82.82,0,0,1,22.7-10.031ZM29.258.188A3.711,3.711,0,0,1,26.426-.934a4.153,4.153,0,0,1-1.059-2.973,4.326,4.326,0,0,1,1.1-3.148,3.96,3.96,0,0,1,2.977-1.133,3.588,3.588,0,0,1,2.793,1.1,4.368,4.368,0,0,1,1,3.055A4.3,4.3,0,0,1,32.16-.965,3.791,3.791,0,0,1,29.258.188Zm.094-7.3a2.437,2.437,0,0,0-1.953.84,3.449,3.449,0,0,0-.719,2.316,3.262,3.262,0,0,0,.727,2.242,2.469,2.469,0,0,0,1.945.82,2.342,2.342,0,0,0,1.91-.8,3.492,3.492,0,0,0,.668-2.289A3.552,3.552,0,0,0,31.262-6.3,2.332,2.332,0,0,0,29.352-7.109ZM46.5,0H45.219V-1.359h-.031A2.958,2.958,0,0,1,42.438.188a2.988,2.988,0,0,1-2.41-1.074,4.407,4.407,0,0,1-.9-2.926,4.794,4.794,0,0,1,1-3.18,3.3,3.3,0,0,1,2.664-1.2,2.564,2.564,0,0,1,2.4,1.3h.031v-4.953H46.5ZM45.219-3.617V-4.8a2.289,2.289,0,0,0-.641-1.641,2.149,2.149,0,0,0-1.625-.672,2.212,2.212,0,0,0-1.844.859,3.766,3.766,0,0,0-.672,2.375,3.387,3.387,0,0,0,.645,2.184,2.107,2.107,0,0,0,1.73.8,2.188,2.188,0,0,0,1.738-.773A2.882,2.882,0,0,0,45.219-3.617Zm10.3-.062H49.875a2.992,2.992,0,0,0,.719,2.063,2.478,2.478,0,0,0,1.891.727,3.931,3.931,0,0,0,2.484-.891v1.2A4.643,4.643,0,0,1,52.18.188,3.381,3.381,0,0,1,49.516-.9a4.461,4.461,0,0,1-.969-3.066,4.375,4.375,0,0,1,1.059-3.043,3.394,3.394,0,0,1,2.629-1.176,3.008,3.008,0,0,1,2.43,1.016,4.234,4.234,0,0,1,.859,2.82ZM54.211-4.766a2.607,2.607,0,0,0-.535-1.727,1.823,1.823,0,0,0-1.465-.617,2.07,2.07,0,0,0-1.539.648,2.943,2.943,0,0,0-.781,1.7ZM58.742,0H57.461V-11.844h1.281ZM67.2-4.234V0H65.891V-11.2h3.078a4.063,4.063,0,0,1,2.785.875,3.124,3.124,0,0,1,.988,2.469,3.4,3.4,0,0,1-1.1,2.609A4.194,4.194,0,0,1,68.68-4.234Zm0-5.781v4.594h1.375a3.074,3.074,0,0,0,2.074-.621A2.2,2.2,0,0,0,71.367-7.8q0-2.219-2.625-2.219ZM78.852-6.7a1.567,1.567,0,0,0-.969-.258,1.635,1.635,0,0,0-1.371.773,3.576,3.576,0,0,0-.551,2.109V0H74.68V-8h1.281v1.648h.031a2.793,2.793,0,0,1,.836-1.316,1.906,1.906,0,0,1,1.258-.473,2.092,2.092,0,0,1,.766.109ZM83.426.188A3.711,3.711,0,0,1,80.594-.934a4.153,4.153,0,0,1-1.059-2.973,4.326,4.326,0,0,1,1.1-3.148,3.96,3.96,0,0,1,2.977-1.133,3.588,3.588,0,0,1,2.793,1.1,4.368,4.368,0,0,1,1,3.055A4.3,4.3,0,0,1,86.328-.965,3.791,3.791,0,0,1,83.426.188Zm.094-7.3a2.437,2.437,0,0,0-1.953.84,3.449,3.449,0,0,0-.719,2.316,3.262,3.262,0,0,0,.727,2.242,2.469,2.469,0,0,0,1.945.82,2.342,2.342,0,0,0,1.91-.8A3.492,3.492,0,0,0,86.1-3.984,3.552,3.552,0,0,0,85.43-6.3,2.332,2.332,0,0,0,83.52-7.109ZM94.91-.367a4.163,4.163,0,0,1-2.187.555A3.622,3.622,0,0,1,89.961-.926,4.035,4.035,0,0,1,88.91-3.812a4.435,4.435,0,0,1,1.133-3.176,3.963,3.963,0,0,1,3.023-1.2,4.209,4.209,0,0,1,1.859.391v1.313a3.258,3.258,0,0,0-1.906-.625,2.576,2.576,0,0,0-2.012.879,3.335,3.335,0,0,0-.785,2.309A3.176,3.176,0,0,0,90.961-1.7a2.545,2.545,0,0,0,1.98.813,3.211,3.211,0,0,0,1.969-.7Zm8.367-3.312H97.629a2.992,2.992,0,0,0,.719,2.063,2.478,2.478,0,0,0,1.891.727,3.931,3.931,0,0,0,2.484-.891v1.2a4.643,4.643,0,0,1-2.789.766A3.381,3.381,0,0,1,97.27-.9,4.461,4.461,0,0,1,96.3-3.969,4.375,4.375,0,0,1,97.36-7.012a3.394,3.394,0,0,1,2.629-1.176,3.008,3.008,0,0,1,2.43,1.016,4.234,4.234,0,0,1,.859,2.82Zm-1.312-1.086a2.607,2.607,0,0,0-.535-1.727,1.823,1.823,0,0,0-1.465-.617,2.07,2.07,0,0,0-1.539.648,2.943,2.943,0,0,0-.781,1.7Zm2.766,4.477V-1.664a3.792,3.792,0,0,0,2.3.773q1.688,0,1.688-1.125a.976.976,0,0,0-.145-.543,1.44,1.44,0,0,0-.391-.395,3.007,3.007,0,0,0-.578-.309q-.332-.137-.715-.285a9.207,9.207,0,0,1-.934-.426,2.82,2.82,0,0,1-.672-.484,1.8,1.8,0,0,1-.406-.613,2.17,2.17,0,0,1-.137-.8,1.912,1.912,0,0,1,.258-1,2.286,2.286,0,0,1,.688-.727,3.206,3.206,0,0,1,.98-.441,4.349,4.349,0,0,1,1.137-.148,4.59,4.59,0,0,1,1.859.359v1.3a3.624,3.624,0,0,0-2.031-.578,2.374,2.374,0,0,0-.648.082,1.587,1.587,0,0,0-.5.23,1.065,1.065,0,0,0-.32.355.936.936,0,0,0-.113.457,1.1,1.1,0,0,0,.113.523,1.152,1.152,0,0,0,.332.375,2.538,2.538,0,0,0,.531.3q.313.133.711.289a9.9,9.9,0,0,1,.953.418,3.269,3.269,0,0,1,.719.484,1.893,1.893,0,0,1,.457.621,2,2,0,0,1,.16.836,1.971,1.971,0,0,1-.262,1.031,2.243,2.243,0,0,1-.7.727,3.2,3.2,0,0,1-1.008.43,4.976,4.976,0,0,1-1.2.141A4.539,4.539,0,0,1,104.731-.289Zm10.617.477a3.711,3.711,0,0,1-2.832-1.121,4.153,4.153,0,0,1-1.059-2.973,4.326,4.326,0,0,1,1.1-3.148,3.96,3.96,0,0,1,2.977-1.133,3.588,3.588,0,0,1,2.793,1.1,4.368,4.368,0,0,1,1,3.055A4.3,4.3,0,0,1,118.25-.965,3.791,3.791,0,0,1,115.348.188Zm.094-7.3a2.437,2.437,0,0,0-1.953.84,3.449,3.449,0,0,0-.719,2.316,3.262,3.262,0,0,0,.727,2.242,2.469,2.469,0,0,0,1.945.82,2.342,2.342,0,0,0,1.91-.8,3.492,3.492,0,0,0,.668-2.289,3.552,3.552,0,0,0-.668-2.312A2.332,2.332,0,0,0,115.442-7.109Z" transform="translate(217.94 11658)" fill="#12263f"/>
    <path id="Trazado_191688" data-name="Trazado 191688" d="M.945-.453V-2a3,3,0,0,0,.637.422,5.159,5.159,0,0,0,.781.316,6.219,6.219,0,0,0,.824.2,4.6,4.6,0,0,0,.766.07,3,3,0,0,0,1.809-.449,1.52,1.52,0,0,0,.6-1.293,1.518,1.518,0,0,0-.2-.789,2.244,2.244,0,0,0-.551-.613,5.465,5.465,0,0,0-.832-.531Q4.3-4.922,3.742-5.2q-.586-.3-1.094-.6a4.74,4.74,0,0,1-.883-.672,2.8,2.8,0,0,1-.59-.832A2.575,2.575,0,0,1,.961-8.4,2.563,2.563,0,0,1,1.3-9.73a2.881,2.881,0,0,1,.883-.934,4,4,0,0,1,1.246-.547,5.706,5.706,0,0,1,1.426-.18,5.464,5.464,0,0,1,2.414.4v1.477A4.376,4.376,0,0,0,4.719-10.2a4.189,4.189,0,0,0-.859.09,2.428,2.428,0,0,0-.766.293,1.7,1.7,0,0,0-.547.523,1.389,1.389,0,0,0-.211.781,1.608,1.608,0,0,0,.16.742,1.819,1.819,0,0,0,.473.57,4.708,4.708,0,0,0,.762.5q.449.242,1.035.531.6.3,1.141.625a5.214,5.214,0,0,1,.945.727,3.229,3.229,0,0,1,.645.883,2.482,2.482,0,0,1,.238,1.109,2.813,2.813,0,0,1-.324,1.4,2.661,2.661,0,0,1-.875.934,3.822,3.822,0,0,1-1.27.52A6.953,6.953,0,0,1,3.75.188,6.176,6.176,0,0,1,3.094.145Q2.7.1,2.3.02a6.5,6.5,0,0,1-.77-.2A2.4,2.4,0,0,1,.945-.453Zm14.3.086a4.163,4.163,0,0,1-2.187.555A3.622,3.622,0,0,1,10.3-.926,4.035,4.035,0,0,1,9.25-3.812a4.435,4.435,0,0,1,1.133-3.176,3.963,3.963,0,0,1,3.023-1.2,4.209,4.209,0,0,1,1.859.391v1.313a3.258,3.258,0,0,0-1.906-.625,2.576,2.576,0,0,0-2.012.879,3.335,3.335,0,0,0-.785,2.309A3.176,3.176,0,0,0,11.3-1.7a2.545,2.545,0,0,0,1.98.813,3.211,3.211,0,0,0,1.969-.7ZM21.359-6.7a1.567,1.567,0,0,0-.969-.258,1.635,1.635,0,0,0-1.371.773,3.576,3.576,0,0,0-.551,2.109V0H17.188V-8h1.281v1.648H18.5a2.793,2.793,0,0,1,.836-1.316,1.906,1.906,0,0,1,1.258-.473,2.092,2.092,0,0,1,.766.109Zm2.047-3.328a.812.812,0,0,1-.586-.234.791.791,0,0,1-.242-.594.8.8,0,0,1,.242-.6.8.8,0,0,1,.586-.238.827.827,0,0,1,.6.238.8.8,0,0,1,.246.6.792.792,0,0,1-.246.586A.82.82,0,0,1,23.406-10.031ZM24.031,0H22.75V-8h1.281Zm3.906-1.156h-.031V3.68H26.625V-8h1.281v1.406h.031A3.03,3.03,0,0,1,30.7-8.187a2.93,2.93,0,0,1,2.414,1.074,4.449,4.449,0,0,1,.867,2.879,4.959,4.959,0,0,1-.977,3.215A3.251,3.251,0,0,1,30.336.188,2.676,2.676,0,0,1,27.938-1.156Zm-.031-3.227v1.117a2.379,2.379,0,0,0,.645,1.684,2.14,2.14,0,0,0,1.637.691,2.145,2.145,0,0,0,1.824-.891,4.086,4.086,0,0,0,.66-2.477,3.225,3.225,0,0,0-.617-2.094,2.043,2.043,0,0,0-1.672-.758,2.27,2.27,0,0,0-1.8.777A2.854,2.854,0,0,0,27.906-4.383Zm11.836,4.3a2.47,2.47,0,0,1-1.2.25q-2.1,0-2.1-2.344V-6.906H35.07V-8h1.375V-9.953l1.281-.414V-8h2.016v1.094H37.727V-2.4A1.869,1.869,0,0,0,38-1.25a1.091,1.091,0,0,0,.906.344,1.347,1.347,0,0,0,.836-.266Zm1.227-.211V-1.664a3.792,3.792,0,0,0,2.3.773q1.688,0,1.688-1.125a.976.976,0,0,0-.145-.543,1.44,1.44,0,0,0-.391-.395,3.007,3.007,0,0,0-.578-.309q-.332-.137-.715-.285a9.207,9.207,0,0,1-.934-.426,2.82,2.82,0,0,1-.672-.484,1.8,1.8,0,0,1-.406-.613,2.17,2.17,0,0,1-.137-.8,1.912,1.912,0,0,1,.258-1A2.286,2.286,0,0,1,41.93-7.6a3.206,3.206,0,0,1,.98-.441,4.349,4.349,0,0,1,1.137-.148,4.59,4.59,0,0,1,1.859.359v1.3a3.624,3.624,0,0,0-2.031-.578,2.374,2.374,0,0,0-.648.082,1.587,1.587,0,0,0-.5.23,1.065,1.065,0,0,0-.32.355.936.936,0,0,0-.113.457,1.1,1.1,0,0,0,.113.523,1.152,1.152,0,0,0,.332.375,2.538,2.538,0,0,0,.531.3q.312.133.711.289a9.894,9.894,0,0,1,.953.418,3.269,3.269,0,0,1,.719.484,1.893,1.893,0,0,1,.457.621,2,2,0,0,1,.16.836,1.971,1.971,0,0,1-.262,1.031,2.243,2.243,0,0,1-.7.727A3.2,3.2,0,0,1,44.3.047a4.976,4.976,0,0,1-1.2.141A4.539,4.539,0,0,1,40.969-.289Z" transform="translate(217.16 11820.17)" fill="#fff"/>
    <path id="Trazado_191689" data-name="Trazado 191689" d="M7.281,0H1.469V-11.2H2.781V-1.187h4.5Zm4.891.188A3.711,3.711,0,0,1,9.34-.934,4.153,4.153,0,0,1,8.281-3.906a4.326,4.326,0,0,1,1.1-3.148,3.96,3.96,0,0,1,2.977-1.133,3.588,3.588,0,0,1,2.793,1.1,4.368,4.368,0,0,1,1,3.055A4.3,4.3,0,0,1,15.074-.965,3.791,3.791,0,0,1,12.172.188Zm.094-7.3a2.437,2.437,0,0,0-1.953.84,3.449,3.449,0,0,0-.719,2.316,3.262,3.262,0,0,0,.727,2.242,2.469,2.469,0,0,0,1.945.82,2.342,2.342,0,0,0,1.91-.8,3.492,3.492,0,0,0,.668-2.289A3.552,3.552,0,0,0,14.176-6.3,2.332,2.332,0,0,0,12.266-7.109ZM25.031-.641q0,4.406-4.219,4.406A5.664,5.664,0,0,1,18.219,3.2V1.922a5.327,5.327,0,0,0,2.578.75q2.953,0,2.953-3.141v-.875h-.031A3,3,0,0,1,20.969.188a3,3,0,0,1-2.4-1.066,4.263,4.263,0,0,1-.91-2.863,4.981,4.981,0,0,1,.98-3.242,3.275,3.275,0,0,1,2.684-1.2,2.608,2.608,0,0,1,2.4,1.3h.031V-8h1.281ZM23.75-3.617V-4.8a2.289,2.289,0,0,0-.645-1.633,2.122,2.122,0,0,0-1.605-.68,2.225,2.225,0,0,0-1.859.863,3.853,3.853,0,0,0-.672,2.418,3.308,3.308,0,0,0,.645,2.137,2.082,2.082,0,0,0,1.707.8,2.23,2.23,0,0,0,1.754-.766A2.854,2.854,0,0,0,23.75-3.617ZM27.141-.289V-1.664a3.792,3.792,0,0,0,2.3.773q1.688,0,1.688-1.125a.976.976,0,0,0-.145-.543,1.44,1.44,0,0,0-.391-.395,3.007,3.007,0,0,0-.578-.309q-.332-.137-.715-.285a9.207,9.207,0,0,1-.934-.426,2.82,2.82,0,0,1-.672-.484,1.8,1.8,0,0,1-.406-.613,2.17,2.17,0,0,1-.137-.8,1.912,1.912,0,0,1,.258-1A2.286,2.286,0,0,1,28.1-7.6a3.206,3.206,0,0,1,.98-.441,4.349,4.349,0,0,1,1.137-.148,4.59,4.59,0,0,1,1.859.359v1.3a3.624,3.624,0,0,0-2.031-.578,2.374,2.374,0,0,0-.648.082,1.587,1.587,0,0,0-.5.23,1.065,1.065,0,0,0-.32.355.936.936,0,0,0-.113.457,1.1,1.1,0,0,0,.113.523,1.152,1.152,0,0,0,.332.375,2.538,2.538,0,0,0,.531.3q.313.133.711.289a9.9,9.9,0,0,1,.953.418,3.269,3.269,0,0,1,.719.484,1.893,1.893,0,0,1,.457.621,2,2,0,0,1,.16.836,1.971,1.971,0,0,1-.262,1.031,2.243,2.243,0,0,1-.7.727,3.2,3.2,0,0,1-1.008.43,4.976,4.976,0,0,1-1.2.141A4.539,4.539,0,0,1,27.141-.289Z" transform="translate(545.49 11820.17)" fill="#fff"/>
    <path id="Trazado_191690" data-name="Trazado 191690" d="M9.5,0H7.938L6.063-3.141a6.84,6.84,0,0,0-.5-.746,2.85,2.85,0,0,0-.5-.5,1.718,1.718,0,0,0-.547-.285,2.249,2.249,0,0,0-.66-.09H2.781V0H1.469V-11.2H4.813a4.765,4.765,0,0,1,1.355.184,3.033,3.033,0,0,1,1.078.559,2.6,2.6,0,0,1,.715.934,3.1,3.1,0,0,1,.258,1.309,3.151,3.151,0,0,1-.176,1.074,2.805,2.805,0,0,1-.5.871,3.031,3.031,0,0,1-.781.652A3.988,3.988,0,0,1,5.734-5.2v.031a2.363,2.363,0,0,1,.488.285,2.687,2.687,0,0,1,.395.379,5.019,5.019,0,0,1,.371.5q.184.277.41.645ZM2.781-10.016v4.063H4.563a2.7,2.7,0,0,0,.91-.148A2.107,2.107,0,0,0,6.2-6.527a1.931,1.931,0,0,0,.477-.68,2.275,2.275,0,0,0,.172-.9,1.756,1.756,0,0,0-.582-1.4,2.5,2.5,0,0,0-1.684-.5ZM16.828-3.68H11.18A2.992,2.992,0,0,0,11.9-1.617a2.478,2.478,0,0,0,1.891.727,3.931,3.931,0,0,0,2.484-.891v1.2a4.643,4.643,0,0,1-2.789.766A3.381,3.381,0,0,1,10.82-.9a4.461,4.461,0,0,1-.969-3.066A4.375,4.375,0,0,1,10.91-7.012a3.394,3.394,0,0,1,2.629-1.176,3.008,3.008,0,0,1,2.43,1.016,4.234,4.234,0,0,1,.859,2.82ZM15.516-4.766a2.607,2.607,0,0,0-.535-1.727,1.823,1.823,0,0,0-1.465-.617,2.07,2.07,0,0,0-1.539.648,2.943,2.943,0,0,0-.781,1.7ZM18.281-.289V-1.664a3.792,3.792,0,0,0,2.3.773q1.688,0,1.688-1.125a.976.976,0,0,0-.145-.543,1.44,1.44,0,0,0-.391-.395,3.007,3.007,0,0,0-.578-.309q-.332-.137-.715-.285a9.207,9.207,0,0,1-.934-.426,2.82,2.82,0,0,1-.672-.484,1.8,1.8,0,0,1-.406-.613,2.17,2.17,0,0,1-.137-.8,1.912,1.912,0,0,1,.258-1,2.286,2.286,0,0,1,.688-.727,3.206,3.206,0,0,1,.98-.441,4.349,4.349,0,0,1,1.137-.148,4.59,4.59,0,0,1,1.859.359v1.3a3.624,3.624,0,0,0-2.031-.578,2.374,2.374,0,0,0-.648.082,1.587,1.587,0,0,0-.5.23,1.065,1.065,0,0,0-.32.355.936.936,0,0,0-.113.457,1.1,1.1,0,0,0,.113.523,1.152,1.152,0,0,0,.332.375,2.538,2.538,0,0,0,.531.3q.313.133.711.289a9.9,9.9,0,0,1,.953.418,3.269,3.269,0,0,1,.719.484,1.893,1.893,0,0,1,.457.621,2,2,0,0,1,.16.836,1.971,1.971,0,0,1-.262,1.031,2.243,2.243,0,0,1-.7.727,3.2,3.2,0,0,1-1.008.43,4.976,4.976,0,0,1-1.2.141A4.539,4.539,0,0,1,18.281-.289ZM32.023,0H30.742V-1.266h-.031A2.631,2.631,0,0,1,28.242.188q-2.859,0-2.859-3.406V-8h1.273v4.578q0,2.531,1.938,2.531a1.96,1.96,0,0,0,1.543-.691,2.645,2.645,0,0,0,.605-1.809V-8h1.281ZM45.969,0H44.688V-4.594a3.466,3.466,0,0,0-.41-1.922A1.555,1.555,0,0,0,42.9-7.109a1.708,1.708,0,0,0-1.395.75,2.869,2.869,0,0,0-.574,1.8V0H39.648V-4.75q0-2.359-1.82-2.359a1.686,1.686,0,0,0-1.391.707,2.923,2.923,0,0,0-.547,1.84V0H34.609V-8h1.281v1.266h.031a2.718,2.718,0,0,1,2.484-1.453,2.316,2.316,0,0,1,1.43.457,2.3,2.3,0,0,1,.836,1.2,2.855,2.855,0,0,1,2.656-1.656q2.641,0,2.641,3.258ZM54.82-3.68H49.172a2.992,2.992,0,0,0,.719,2.063,2.478,2.478,0,0,0,1.891.727,3.931,3.931,0,0,0,2.484-.891v1.2a4.643,4.643,0,0,1-2.789.766A3.381,3.381,0,0,1,48.813-.9a4.461,4.461,0,0,1-.969-3.066A4.375,4.375,0,0,1,48.9-7.012a3.394,3.394,0,0,1,2.629-1.176,3.008,3.008,0,0,1,2.43,1.016,4.234,4.234,0,0,1,.859,2.82ZM53.508-4.766a2.607,2.607,0,0,0-.535-1.727,1.823,1.823,0,0,0-1.465-.617,2.07,2.07,0,0,0-1.539.648,2.943,2.943,0,0,0-.781,1.7ZM63.4,0H62.117V-4.562q0-2.547-1.859-2.547a2.017,2.017,0,0,0-1.59.723,2.679,2.679,0,0,0-.629,1.824V0H56.758V-8h1.281v1.328h.031A2.887,2.887,0,0,1,60.7-8.187,2.448,2.448,0,0,1,62.7-7.34a3.776,3.776,0,0,1,.7,2.449Z" transform="translate(636.12 11813.1)" fill="#fff"/>
    <path id="Trazado_191691" data-name="Trazado 191691" d="M8.125,0H6.844V-1.359H6.813A2.958,2.958,0,0,1,4.063.188,2.988,2.988,0,0,1,1.652-.887a4.407,4.407,0,0,1-.9-2.926,4.794,4.794,0,0,1,1-3.18,3.3,3.3,0,0,1,2.664-1.2,2.564,2.564,0,0,1,2.4,1.3h.031v-4.953H8.125ZM6.844-3.617V-4.8A2.289,2.289,0,0,0,6.2-6.437a2.149,2.149,0,0,0-1.625-.672,2.212,2.212,0,0,0-1.844.859,3.766,3.766,0,0,0-.672,2.375,3.387,3.387,0,0,0,.645,2.184,2.107,2.107,0,0,0,1.73.8,2.188,2.188,0,0,0,1.738-.773A2.882,2.882,0,0,0,6.844-3.617Zm10.3-.062H11.5a2.992,2.992,0,0,0,.719,2.063,2.478,2.478,0,0,0,1.891.727,3.931,3.931,0,0,0,2.484-.891v1.2A4.643,4.643,0,0,1,13.8.188,3.381,3.381,0,0,1,11.141-.9a4.461,4.461,0,0,1-.969-3.066A4.375,4.375,0,0,1,11.23-7.012a3.394,3.394,0,0,1,2.629-1.176,3.008,3.008,0,0,1,2.43,1.016,4.234,4.234,0,0,1,.859,2.82ZM15.836-4.766A2.607,2.607,0,0,0,15.3-6.492a1.823,1.823,0,0,0-1.465-.617,2.07,2.07,0,0,0-1.539.648,2.943,2.943,0,0,0-.781,1.7ZM20.367,0H19.086V-11.844h1.281Zm8.461-4.234V0H27.516V-11.2h3.078a4.063,4.063,0,0,1,2.785.875,3.124,3.124,0,0,1,.988,2.469,3.4,3.4,0,0,1-1.1,2.609A4.194,4.194,0,0,1,30.3-4.234Zm0-5.781v4.594H30.2a3.074,3.074,0,0,0,2.074-.621A2.2,2.2,0,0,0,32.992-7.8q0-2.219-2.625-2.219ZM37.586,0H36.3V-11.844h1.281Zm8.32,0H44.625V-1.25h-.031A2.682,2.682,0,0,1,42.133.188a2.63,2.63,0,0,1-1.871-.633,2.192,2.192,0,0,1-.676-1.68q0-2.242,2.641-2.609l2.4-.336q0-2.039-1.648-2.039a3.938,3.938,0,0,0-2.609.984V-7.437a4.958,4.958,0,0,1,2.719-.75q2.82,0,2.82,2.984ZM44.625-4.047l-1.93.266a3.133,3.133,0,0,0-1.344.441A1.273,1.273,0,0,0,40.9-2.219a1.221,1.221,0,0,0,.418.957,1.615,1.615,0,0,0,1.113.371A2.056,2.056,0,0,0,44-1.559a2.387,2.387,0,0,0,.621-1.691ZM54.961,0H53.68V-4.562q0-2.547-1.859-2.547a2.017,2.017,0,0,0-1.59.723A2.679,2.679,0,0,0,49.6-4.562V0H48.32V-8H49.6v1.328h.031a2.887,2.887,0,0,1,2.625-1.516,2.448,2.448,0,0,1,2.008.848,3.776,3.776,0,0,1,.7,2.449Z" transform="translate(641.06 11832.3)" fill="#fff"/>
    <path id="Trazado_191692" data-name="Trazado 191692" d="M9.5,0H7.938L6.063-3.141a6.84,6.84,0,0,0-.5-.746,2.85,2.85,0,0,0-.5-.5,1.718,1.718,0,0,0-.547-.285,2.249,2.249,0,0,0-.66-.09H2.781V0H1.469V-11.2H4.813a4.765,4.765,0,0,1,1.355.184,3.033,3.033,0,0,1,1.078.559,2.6,2.6,0,0,1,.715.934,3.1,3.1,0,0,1,.258,1.309,3.151,3.151,0,0,1-.176,1.074,2.805,2.805,0,0,1-.5.871,3.031,3.031,0,0,1-.781.652A3.988,3.988,0,0,1,5.734-5.2v.031a2.363,2.363,0,0,1,.488.285,2.687,2.687,0,0,1,.395.379,5.019,5.019,0,0,1,.371.5q.184.277.41.645ZM2.781-10.016v4.063H4.563a2.7,2.7,0,0,0,.91-.148A2.107,2.107,0,0,0,6.2-6.527a1.931,1.931,0,0,0,.477-.68,2.275,2.275,0,0,0,.172-.9,1.756,1.756,0,0,0-.582-1.4,2.5,2.5,0,0,0-1.684-.5ZM16.828-3.68H11.18A2.992,2.992,0,0,0,11.9-1.617a2.478,2.478,0,0,0,1.891.727,3.931,3.931,0,0,0,2.484-.891v1.2a4.643,4.643,0,0,1-2.789.766A3.381,3.381,0,0,1,10.82-.9a4.461,4.461,0,0,1-.969-3.066A4.375,4.375,0,0,1,10.91-7.012a3.394,3.394,0,0,1,2.629-1.176,3.008,3.008,0,0,1,2.43,1.016,4.234,4.234,0,0,1,.859,2.82ZM15.516-4.766a2.607,2.607,0,0,0-.535-1.727,1.823,1.823,0,0,0-1.465-.617,2.07,2.07,0,0,0-1.539.648,2.943,2.943,0,0,0-.781,1.7ZM25.594,3.68H24.313V-1.375h-.031A2.867,2.867,0,0,1,21.547.188,3.011,3.011,0,0,1,19.129-.887a4.381,4.381,0,0,1-.91-2.926,4.791,4.791,0,0,1,1-3.184,3.328,3.328,0,0,1,2.688-1.191,2.523,2.523,0,0,1,2.375,1.3h.031V-8h1.281ZM24.313-3.6V-4.766a2.328,2.328,0,0,0-.645-1.664,2.158,2.158,0,0,0-1.637-.68,2.2,2.2,0,0,0-1.828.855,3.819,3.819,0,0,0-.672,2.41,3.307,3.307,0,0,0,.648,2.168,2.069,2.069,0,0,0,1.672.785,2.254,2.254,0,0,0,1.793-.77A2.855,2.855,0,0,0,24.313-3.6ZM34.656,0H33.375V-1.266h-.031A2.631,2.631,0,0,1,30.875.188q-2.859,0-2.859-3.406V-8h1.273v4.578q0,2.531,1.938,2.531a1.96,1.96,0,0,0,1.543-.691,2.645,2.645,0,0,0,.605-1.809V-8h1.281Zm9.016-3.68H38.023a2.992,2.992,0,0,0,.719,2.063,2.478,2.478,0,0,0,1.891.727,3.931,3.931,0,0,0,2.484-.891v1.2a4.643,4.643,0,0,1-2.789.766A3.381,3.381,0,0,1,37.664-.9,4.461,4.461,0,0,1,36.7-3.969a4.375,4.375,0,0,1,1.059-3.043,3.394,3.394,0,0,1,2.629-1.176,3.008,3.008,0,0,1,2.43,1.016,4.234,4.234,0,0,1,.859,2.82ZM42.359-4.766a2.607,2.607,0,0,0-.535-1.727,1.823,1.823,0,0,0-1.465-.617,2.07,2.07,0,0,0-1.539.648,2.943,2.943,0,0,0-.781,1.7ZM49.781-6.7a1.567,1.567,0,0,0-.969-.258,1.635,1.635,0,0,0-1.371.773,3.576,3.576,0,0,0-.551,2.109V0H45.609V-8h1.281v1.648h.031a2.794,2.794,0,0,1,.836-1.316,1.906,1.906,0,0,1,1.258-.473,2.092,2.092,0,0,1,.766.109Zm2.047-3.328a.812.812,0,0,1-.586-.234A.791.791,0,0,1,51-10.859a.8.8,0,0,1,.242-.6.8.8,0,0,1,.586-.238.827.827,0,0,1,.6.238.8.8,0,0,1,.246.6.792.792,0,0,1-.246.586A.82.82,0,0,1,51.828-10.031ZM52.453,0H51.172V-8h1.281ZM66.406,0H65.125V-4.594a3.466,3.466,0,0,0-.41-1.922,1.555,1.555,0,0,0-1.379-.594,1.708,1.708,0,0,0-1.395.75,2.869,2.869,0,0,0-.574,1.8V0H60.086V-4.75q0-2.359-1.82-2.359a1.686,1.686,0,0,0-1.391.707,2.923,2.923,0,0,0-.547,1.84V0H55.047V-8h1.281v1.266h.031a2.718,2.718,0,0,1,2.484-1.453,2.316,2.316,0,0,1,1.43.457,2.3,2.3,0,0,1,.836,1.2,2.855,2.855,0,0,1,2.656-1.656q2.641,0,2.641,3.258Zm3.078-10.031a.812.812,0,0,1-.586-.234.791.791,0,0,1-.242-.594.8.8,0,0,1,.242-.6.8.8,0,0,1,.586-.238.827.827,0,0,1,.6.238.8.8,0,0,1,.246.6.792.792,0,0,1-.246.586A.82.82,0,0,1,69.484-10.031ZM70.109,0H68.828V-8h1.281Zm9.023-3.68H73.484A2.992,2.992,0,0,0,74.2-1.617a2.478,2.478,0,0,0,1.891.727,3.931,3.931,0,0,0,2.484-.891v1.2a4.643,4.643,0,0,1-2.789.766A3.381,3.381,0,0,1,73.125-.9a4.461,4.461,0,0,1-.969-3.066,4.375,4.375,0,0,1,1.059-3.043,3.394,3.394,0,0,1,2.629-1.176,3.008,3.008,0,0,1,2.43,1.016,4.234,4.234,0,0,1,.859,2.82ZM77.82-4.766a2.607,2.607,0,0,0-.535-1.727,1.823,1.823,0,0,0-1.465-.617,2.07,2.07,0,0,0-1.539.648,2.943,2.943,0,0,0-.781,1.7ZM87.711,0H86.43V-4.562q0-2.547-1.859-2.547a2.017,2.017,0,0,0-1.59.723,2.679,2.679,0,0,0-.629,1.824V0H81.07V-8h1.281v1.328h.031a2.887,2.887,0,0,1,2.625-1.516,2.448,2.448,0,0,1,2.008.848,3.776,3.776,0,0,1,.7,2.449Zm6.125-.078a2.47,2.47,0,0,1-1.2.25q-2.1,0-2.1-2.344V-6.906H89.164V-8h1.375V-9.953l1.281-.414V-8h2.016v1.094H91.82V-2.4a1.869,1.869,0,0,0,.273,1.148A1.091,1.091,0,0,0,93-.906a1.347,1.347,0,0,0,.836-.266Zm4.895.266A3.711,3.711,0,0,1,95.9-.934,4.153,4.153,0,0,1,94.84-3.906a4.326,4.326,0,0,1,1.1-3.148,3.96,3.96,0,0,1,2.977-1.133,3.588,3.588,0,0,1,2.793,1.1,4.368,4.368,0,0,1,1,3.055,4.3,4.3,0,0,1-1.082,3.066A3.791,3.791,0,0,1,98.731.188Zm.094-7.3a2.437,2.437,0,0,0-1.953.84,3.449,3.449,0,0,0-.719,2.316,3.262,3.262,0,0,0,.727,2.242,2.469,2.469,0,0,0,1.945.82,2.342,2.342,0,0,0,1.91-.8,3.492,3.492,0,0,0,.668-2.289,3.552,3.552,0,0,0-.668-2.312A2.332,2.332,0,0,0,98.824-7.109Zm5.453,6.82V-1.664a3.792,3.792,0,0,0,2.3.773q1.688,0,1.688-1.125a.976.976,0,0,0-.145-.543,1.44,1.44,0,0,0-.391-.395,3.007,3.007,0,0,0-.578-.309q-.332-.137-.715-.285a9.207,9.207,0,0,1-.934-.426,2.82,2.82,0,0,1-.672-.484,1.8,1.8,0,0,1-.406-.613,2.17,2.17,0,0,1-.137-.8,1.912,1.912,0,0,1,.258-1,2.286,2.286,0,0,1,.688-.727,3.206,3.206,0,0,1,.98-.441,4.349,4.349,0,0,1,1.137-.148,4.59,4.59,0,0,1,1.859.359v1.3a3.624,3.624,0,0,0-2.031-.578,2.374,2.374,0,0,0-.648.082,1.587,1.587,0,0,0-.5.23,1.065,1.065,0,0,0-.32.355.936.936,0,0,0-.113.457,1.1,1.1,0,0,0,.113.523,1.152,1.152,0,0,0,.332.375,2.538,2.538,0,0,0,.531.3q.313.133.711.289a9.9,9.9,0,0,1,.953.418,3.269,3.269,0,0,1,.719.484,1.893,1.893,0,0,1,.457.621,2,2,0,0,1,.16.836,1.971,1.971,0,0,1-.262,1.031,2.243,2.243,0,0,1-.7.727,3.2,3.2,0,0,1-1.008.43,4.976,4.976,0,0,1-1.2.141A4.539,4.539,0,0,1,104.277-.289Z" transform="translate(376.11 11688.3)"/>
    <path id="Trazado_191693" data-name="Trazado 191693" d="M8.094-10.016H4.859V0H3.547V-10.016H.32V-11.2H8.094Zm2.242-.016a.812.812,0,0,1-.586-.234.791.791,0,0,1-.242-.594.8.8,0,0,1,.242-.6.8.8,0,0,1,.586-.238.827.827,0,0,1,.6.238.8.8,0,0,1,.246.6.792.792,0,0,1-.246.586A.82.82,0,0,1,10.336-10.031ZM10.961,0H9.68V-8h1.281ZM24.914,0H23.633V-4.594a3.466,3.466,0,0,0-.41-1.922,1.555,1.555,0,0,0-1.379-.594,1.708,1.708,0,0,0-1.395.75,2.869,2.869,0,0,0-.574,1.8V0H18.594V-4.75q0-2.359-1.82-2.359a1.686,1.686,0,0,0-1.391.707,2.923,2.923,0,0,0-.547,1.84V0H13.555V-8h1.281v1.266h.031a2.718,2.718,0,0,1,2.484-1.453,2.316,2.316,0,0,1,1.43.457,2.3,2.3,0,0,1,.836,1.2,2.855,2.855,0,0,1,2.656-1.656q2.641,0,2.641,3.258Zm8.852-3.68H28.117a2.992,2.992,0,0,0,.719,2.063,2.478,2.478,0,0,0,1.891.727,3.931,3.931,0,0,0,2.484-.891v1.2a4.643,4.643,0,0,1-2.789.766A3.381,3.381,0,0,1,27.758-.9a4.461,4.461,0,0,1-.969-3.066,4.375,4.375,0,0,1,1.059-3.043,3.394,3.394,0,0,1,2.629-1.176,3.008,3.008,0,0,1,2.43,1.016,4.234,4.234,0,0,1,.859,2.82ZM32.453-4.766a2.607,2.607,0,0,0-.535-1.727,1.823,1.823,0,0,0-1.465-.617,2.07,2.07,0,0,0-1.539.648,2.943,2.943,0,0,0-.781,1.7Z" transform="translate(562.37 11850.44)" fill="#12263f"/>
    <path id="Trazado_191694" data-name="Trazado 191694" d="M1.469,0V-11.2H4.563q5.922,0,5.922,5.461A5.5,5.5,0,0,1,8.84-1.574,6.1,6.1,0,0,1,4.438,0ZM2.781-10.016v8.828H4.453a4.745,4.745,0,0,0,3.43-1.18A4.422,4.422,0,0,0,9.109-5.711q0-4.3-4.578-4.3ZM18.945-3.68H13.3a2.992,2.992,0,0,0,.719,2.063,2.478,2.478,0,0,0,1.891.727,3.931,3.931,0,0,0,2.484-.891v1.2A4.643,4.643,0,0,1,15.6.188,3.381,3.381,0,0,1,12.938-.9a4.461,4.461,0,0,1-.969-3.066,4.375,4.375,0,0,1,1.059-3.043,3.394,3.394,0,0,1,2.629-1.176,3.008,3.008,0,0,1,2.43,1.016,4.234,4.234,0,0,1,.859,2.82ZM17.633-4.766A2.607,2.607,0,0,0,17.1-6.492a1.823,1.823,0,0,0-1.465-.617,2.07,2.07,0,0,0-1.539.648,2.943,2.943,0,0,0-.781,1.7Z" transform="translate(553 11869.64)" fill="#12263f"/>
    <path id="Trazado_191695" data-name="Trazado 191695" d="M5.25-10.719A1.707,1.707,0,0,0,4.4-10.93q-1.344,0-1.344,1.7V-8H4.93v1.094H3.055V0H1.781V-6.906H.414V-8H1.781V-9.3a2.7,2.7,0,0,1,.727-1.988,2.453,2.453,0,0,1,1.813-.73,2.511,2.511,0,0,1,.93.141Z" transform="translate(571.97 11869.64)" fill="#12263f"/>
    <path id="Trazado_191696" data-name="Trazado 191696" d="M7.727-3.68H2.078A2.992,2.992,0,0,0,2.8-1.617a2.478,2.478,0,0,0,1.891.727,3.931,3.931,0,0,0,2.484-.891v1.2A4.643,4.643,0,0,1,4.383.188,3.381,3.381,0,0,1,1.719-.9,4.461,4.461,0,0,1,.75-3.969,4.375,4.375,0,0,1,1.809-7.012,3.394,3.394,0,0,1,4.438-8.187a3.008,3.008,0,0,1,2.43,1.016,4.234,4.234,0,0,1,.859,2.82ZM6.414-4.766a2.607,2.607,0,0,0-.535-1.727,1.823,1.823,0,0,0-1.465-.617,2.07,2.07,0,0,0-1.539.648,2.943,2.943,0,0,0-.781,1.7Zm8.7,4.4A4.163,4.163,0,0,1,12.93.188,3.622,3.622,0,0,1,10.168-.926,4.035,4.035,0,0,1,9.117-3.812,4.435,4.435,0,0,1,10.25-6.988a3.963,3.963,0,0,1,3.023-1.2,4.209,4.209,0,0,1,1.859.391v1.313a3.258,3.258,0,0,0-1.906-.625,2.576,2.576,0,0,0-2.012.879,3.335,3.335,0,0,0-.785,2.309A3.176,3.176,0,0,0,11.168-1.7a2.545,2.545,0,0,0,1.98.813,3.211,3.211,0,0,0,1.969-.7Zm5.648.289a2.47,2.47,0,0,1-1.2.25q-2.1,0-2.1-2.344V-6.906H16.094V-8h1.375V-9.953l1.281-.414V-8h2.016v1.094H18.75V-2.4a1.869,1.869,0,0,0,.273,1.148,1.091,1.091,0,0,0,.906.344,1.347,1.347,0,0,0,.836-.266Zm1.227-.211V-1.664a3.792,3.792,0,0,0,2.3.773q1.688,0,1.688-1.125a.976.976,0,0,0-.145-.543,1.44,1.44,0,0,0-.391-.395,3.007,3.007,0,0,0-.578-.309q-.332-.137-.715-.285a9.207,9.207,0,0,1-.934-.426,2.82,2.82,0,0,1-.672-.484,1.8,1.8,0,0,1-.406-.613,2.17,2.17,0,0,1-.137-.8,1.912,1.912,0,0,1,.258-1,2.286,2.286,0,0,1,.688-.727,3.206,3.206,0,0,1,.98-.441,4.349,4.349,0,0,1,1.137-.148,4.59,4.59,0,0,1,1.859.359v1.3A3.624,3.624,0,0,0,24.9-7.109a2.374,2.374,0,0,0-.648.082,1.587,1.587,0,0,0-.5.23,1.065,1.065,0,0,0-.32.355.936.936,0,0,0-.113.457,1.1,1.1,0,0,0,.113.523,1.152,1.152,0,0,0,.332.375,2.538,2.538,0,0,0,.531.3q.313.133.711.289a9.9,9.9,0,0,1,.953.418,3.269,3.269,0,0,1,.719.484,1.893,1.893,0,0,1,.457.621,2,2,0,0,1,.16.836,1.971,1.971,0,0,1-.262,1.031,2.243,2.243,0,0,1-.7.727,3.2,3.2,0,0,1-1.008.43,4.976,4.976,0,0,1-1.2.141A4.539,4.539,0,0,1,21.992-.289Z" transform="translate(577.34 11869.64)" fill="#12263f"/>
    <path id="Trazado_191697" data-name="Trazado 191697" d="M2.781-4.234V0H1.469V-11.2H4.547a4.063,4.063,0,0,1,2.785.875A3.124,3.124,0,0,1,8.32-7.859a3.4,3.4,0,0,1-1.1,2.609A4.194,4.194,0,0,1,4.258-4.234Zm0-5.781v4.594H4.156A3.074,3.074,0,0,0,6.23-6.043,2.2,2.2,0,0,0,6.945-7.8q0-2.219-2.625-2.219ZM11.539,0H10.258V-11.844h1.281Zm8.32,0H18.578V-1.25h-.031A2.682,2.682,0,0,1,16.086.188a2.63,2.63,0,0,1-1.871-.633,2.192,2.192,0,0,1-.676-1.68q0-2.242,2.641-2.609l2.4-.336q0-2.039-1.648-2.039a3.938,3.938,0,0,0-2.609.984V-7.437a4.958,4.958,0,0,1,2.719-.75q2.82,0,2.82,2.984ZM18.578-4.047l-1.93.266A3.133,3.133,0,0,0,15.3-3.34a1.273,1.273,0,0,0-.453,1.121,1.221,1.221,0,0,0,.418.957,1.615,1.615,0,0,0,1.113.371,2.056,2.056,0,0,0,1.574-.668,2.387,2.387,0,0,0,.621-1.691ZM28.914,0H27.633V-4.562q0-2.547-1.859-2.547a2.017,2.017,0,0,0-1.59.723,2.679,2.679,0,0,0-.629,1.824V0H22.273V-8h1.281v1.328h.031a2.887,2.887,0,0,1,2.625-1.516,2.448,2.448,0,0,1,2.008.848,3.776,3.776,0,0,1,.7,2.449Z" transform="translate(591.13 11713.55)" fill="#12263f"/>
    <path id="Trazado_191698" data-name="Trazado 191698" d="M7.156-10.016H2.781v3.875H6.828v1.18H2.781V0H1.469V-11.2H7.156ZM10.391,0H9.109V-11.844h1.281Zm9.063,0H18.172V-1.266h-.031A2.631,2.631,0,0,1,15.672.188q-2.859,0-2.859-3.406V-8h1.273v4.578q0,2.531,1.938,2.531a1.96,1.96,0,0,0,1.543-.691,2.645,2.645,0,0,0,.605-1.809V-8h1.281ZM23.32-.336A5.014,5.014,0,0,1,22.527,2.7a2.658,2.658,0,0,1-2.27,1.066,2.409,2.409,0,0,1-1.062-.25V2.32a2.12,2.12,0,0,0,1.094.352q1.75,0,1.75-2.8V-8H23.32Zm-.625-9.7a.812.812,0,0,1-.586-.234.791.791,0,0,1-.242-.594.8.8,0,0,1,.242-.6A.8.8,0,0,1,22.7-11.7a.827.827,0,0,1,.6.238.8.8,0,0,1,.246.6.792.792,0,0,1-.246.586A.82.82,0,0,1,22.7-10.031ZM29.258.188A3.711,3.711,0,0,1,26.426-.934a4.153,4.153,0,0,1-1.059-2.973,4.326,4.326,0,0,1,1.1-3.148,3.96,3.96,0,0,1,2.977-1.133,3.588,3.588,0,0,1,2.793,1.1,4.368,4.368,0,0,1,1,3.055A4.3,4.3,0,0,1,32.16-.965,3.791,3.791,0,0,1,29.258.188Zm.094-7.3a2.437,2.437,0,0,0-1.953.84,3.449,3.449,0,0,0-.719,2.316,3.262,3.262,0,0,0,.727,2.242,2.469,2.469,0,0,0,1.945.82,2.342,2.342,0,0,0,1.91-.8,3.492,3.492,0,0,0,.668-2.289A3.552,3.552,0,0,0,31.262-6.3,2.332,2.332,0,0,0,29.352-7.109ZM46.5,0H45.219V-1.359h-.031A2.958,2.958,0,0,1,42.438.188a2.988,2.988,0,0,1-2.41-1.074,4.407,4.407,0,0,1-.9-2.926,4.794,4.794,0,0,1,1-3.18,3.3,3.3,0,0,1,2.664-1.2,2.564,2.564,0,0,1,2.4,1.3h.031v-4.953H46.5ZM45.219-3.617V-4.8a2.289,2.289,0,0,0-.641-1.641,2.149,2.149,0,0,0-1.625-.672,2.212,2.212,0,0,0-1.844.859,3.766,3.766,0,0,0-.672,2.375,3.387,3.387,0,0,0,.645,2.184,2.107,2.107,0,0,0,1.73.8,2.188,2.188,0,0,0,1.738-.773A2.882,2.882,0,0,0,45.219-3.617Zm10.3-.062H49.875a2.992,2.992,0,0,0,.719,2.063,2.478,2.478,0,0,0,1.891.727,3.931,3.931,0,0,0,2.484-.891v1.2A4.643,4.643,0,0,1,52.18.188,3.381,3.381,0,0,1,49.516-.9a4.461,4.461,0,0,1-.969-3.066,4.375,4.375,0,0,1,1.059-3.043,3.394,3.394,0,0,1,2.629-1.176,3.008,3.008,0,0,1,2.43,1.016,4.234,4.234,0,0,1,.859,2.82ZM54.211-4.766a2.607,2.607,0,0,0-.535-1.727,1.823,1.823,0,0,0-1.465-.617,2.07,2.07,0,0,0-1.539.648,2.943,2.943,0,0,0-.781,1.7ZM58.742,0H57.461V-11.844h1.281Z" transform="translate(711.79 11811.07)" fill="#12263f"/>
    <path id="Trazado_191699" data-name="Trazado 191699" d="M2.781-4.234V0H1.469V-11.2H4.547a4.063,4.063,0,0,1,2.785.875A3.124,3.124,0,0,1,8.32-7.859a3.4,3.4,0,0,1-1.1,2.609A4.194,4.194,0,0,1,4.258-4.234Zm0-5.781v4.594H4.156A3.074,3.074,0,0,0,6.23-6.043,2.2,2.2,0,0,0,6.945-7.8q0-2.219-2.625-2.219Z" transform="translate(712.36 11830.271)" fill="#12263f"/>
    <path id="Trazado_191700" data-name="Trazado 191700" d="M5.469-6.7A1.567,1.567,0,0,0,4.5-6.961a1.635,1.635,0,0,0-1.371.773,3.576,3.576,0,0,0-.551,2.109V0H1.3V-8H2.578v1.648h.031a2.793,2.793,0,0,1,.836-1.316A1.906,1.906,0,0,1,4.7-8.141a2.092,2.092,0,0,1,.766.109Z" transform="translate(722.45 11830.271)" fill="#12263f"/>
    <path id="Trazado_191701" data-name="Trazado 191701" d="M4.641.188A3.711,3.711,0,0,1,1.809-.934,4.153,4.153,0,0,1,.75-3.906a4.326,4.326,0,0,1,1.1-3.148A3.96,3.96,0,0,1,4.828-8.187a3.588,3.588,0,0,1,2.793,1.1,4.368,4.368,0,0,1,1,3.055A4.3,4.3,0,0,1,7.543-.965,3.791,3.791,0,0,1,4.641.188Zm.094-7.3a2.437,2.437,0,0,0-1.953.84,3.449,3.449,0,0,0-.719,2.316,3.262,3.262,0,0,0,.727,2.242,2.469,2.469,0,0,0,1.945.82,2.342,2.342,0,0,0,1.91-.8,3.492,3.492,0,0,0,.668-2.289A3.552,3.552,0,0,0,6.645-6.3,2.332,2.332,0,0,0,4.734-7.109ZM16.125-.367a4.163,4.163,0,0,1-2.187.555A3.622,3.622,0,0,1,11.176-.926a4.035,4.035,0,0,1-1.051-2.887,4.435,4.435,0,0,1,1.133-3.176,3.963,3.963,0,0,1,3.023-1.2,4.209,4.209,0,0,1,1.859.391v1.313a3.258,3.258,0,0,0-1.906-.625,2.576,2.576,0,0,0-2.012.879,3.335,3.335,0,0,0-.785,2.309A3.176,3.176,0,0,0,12.176-1.7a2.545,2.545,0,0,0,1.98.813,3.211,3.211,0,0,0,1.969-.7ZM24.492-3.68H18.844a2.992,2.992,0,0,0,.719,2.063,2.478,2.478,0,0,0,1.891.727,3.931,3.931,0,0,0,2.484-.891v1.2a4.643,4.643,0,0,1-2.789.766A3.381,3.381,0,0,1,18.484-.9a4.461,4.461,0,0,1-.969-3.066,4.375,4.375,0,0,1,1.059-3.043A3.394,3.394,0,0,1,21.2-8.187a3.008,3.008,0,0,1,2.43,1.016,4.234,4.234,0,0,1,.859,2.82ZM23.18-4.766a2.607,2.607,0,0,0-.535-1.727,1.823,1.823,0,0,0-1.465-.617,2.07,2.07,0,0,0-1.539.648,2.943,2.943,0,0,0-.781,1.7ZM25.945-.289V-1.664a3.792,3.792,0,0,0,2.3.773q1.688,0,1.688-1.125a.976.976,0,0,0-.145-.543,1.44,1.44,0,0,0-.391-.395,3.007,3.007,0,0,0-.578-.309q-.332-.137-.715-.285a9.207,9.207,0,0,1-.934-.426,2.82,2.82,0,0,1-.672-.484A1.8,1.8,0,0,1,26.1-5.07a2.17,2.17,0,0,1-.137-.8,1.912,1.912,0,0,1,.258-1,2.286,2.286,0,0,1,.688-.727,3.206,3.206,0,0,1,.98-.441,4.349,4.349,0,0,1,1.137-.148,4.59,4.59,0,0,1,1.859.359v1.3a3.624,3.624,0,0,0-2.031-.578,2.374,2.374,0,0,0-.648.082,1.587,1.587,0,0,0-.5.23,1.065,1.065,0,0,0-.32.355.936.936,0,0,0-.113.457,1.1,1.1,0,0,0,.113.523,1.152,1.152,0,0,0,.332.375,2.538,2.538,0,0,0,.531.3q.313.133.711.289a9.9,9.9,0,0,1,.953.418,3.269,3.269,0,0,1,.719.484,1.893,1.893,0,0,1,.457.621,2,2,0,0,1,.16.836,1.971,1.971,0,0,1-.262,1.031,2.243,2.243,0,0,1-.7.727,3.2,3.2,0,0,1-1.008.43,4.976,4.976,0,0,1-1.2.141A4.539,4.539,0,0,1,25.945-.289ZM36.563.188A3.711,3.711,0,0,1,33.73-.934a4.153,4.153,0,0,1-1.059-2.973,4.326,4.326,0,0,1,1.1-3.148A3.96,3.96,0,0,1,36.75-8.187a3.588,3.588,0,0,1,2.793,1.1,4.368,4.368,0,0,1,1,3.055A4.3,4.3,0,0,1,39.465-.965,3.791,3.791,0,0,1,36.563.188Zm.094-7.3a2.437,2.437,0,0,0-1.953.84,3.449,3.449,0,0,0-.719,2.316,3.262,3.262,0,0,0,.727,2.242,2.469,2.469,0,0,0,1.945.82,2.342,2.342,0,0,0,1.91-.8,3.492,3.492,0,0,0,.668-2.289A3.552,3.552,0,0,0,38.566-6.3,2.332,2.332,0,0,0,36.656-7.109Z" transform="translate(727.71 11830.271)" fill="#12263f"/>
    <path id="Trazado_191702" data-name="Trazado 191702" d="M1.469,0V-11.2H4.563q5.922,0,5.922,5.461A5.5,5.5,0,0,1,8.84-1.574,6.1,6.1,0,0,1,4.438,0ZM2.781-10.016v8.828H4.453a4.745,4.745,0,0,0,3.43-1.18A4.422,4.422,0,0,0,9.109-5.711q0-4.3-4.578-4.3ZM18.242,0H16.961V-1.25H16.93A2.682,2.682,0,0,1,14.469.188,2.63,2.63,0,0,1,12.6-.445a2.192,2.192,0,0,1-.676-1.68q0-2.242,2.641-2.609l2.4-.336q0-2.039-1.648-2.039a3.938,3.938,0,0,0-2.609.984V-7.437a4.958,4.958,0,0,1,2.719-.75q2.82,0,2.82,2.984ZM16.961-4.047l-1.93.266a3.133,3.133,0,0,0-1.344.441,1.273,1.273,0,0,0-.453,1.121,1.221,1.221,0,0,0,.418.957,1.615,1.615,0,0,0,1.113.371,2.056,2.056,0,0,0,1.574-.668,2.387,2.387,0,0,0,.621-1.691Z" transform="translate(608.51 11905.33)" fill="#12263f"/>
    <path id="Trazado_191703" data-name="Trazado 191703" d="M5.008-.078a2.47,2.47,0,0,1-1.2.25q-2.1,0-2.1-2.344V-6.906H.336V-8H1.711V-9.953l1.281-.414V-8H5.008v1.094H2.992V-2.4A1.869,1.869,0,0,0,3.266-1.25a1.091,1.091,0,0,0,.906.344,1.347,1.347,0,0,0,.836-.266Z" transform="translate(627.71 11905.33)" fill="#12263f"/>
    <path id="Trazado_191704" data-name="Trazado 191704" d="M4.641.188A3.711,3.711,0,0,1,1.809-.934,4.153,4.153,0,0,1,.75-3.906a4.326,4.326,0,0,1,1.1-3.148A3.96,3.96,0,0,1,4.828-8.187a3.588,3.588,0,0,1,2.793,1.1,4.368,4.368,0,0,1,1,3.055A4.3,4.3,0,0,1,7.543-.965,3.791,3.791,0,0,1,4.641.188Zm.094-7.3a2.437,2.437,0,0,0-1.953.84,3.449,3.449,0,0,0-.719,2.316,3.262,3.262,0,0,0,.727,2.242,2.469,2.469,0,0,0,1.945.82,2.342,2.342,0,0,0,1.91-.8,3.492,3.492,0,0,0,.668-2.289A3.552,3.552,0,0,0,6.645-6.3,2.332,2.332,0,0,0,4.734-7.109Zm5.453,6.82V-1.664a3.792,3.792,0,0,0,2.3.773q1.688,0,1.688-1.125a.976.976,0,0,0-.145-.543,1.44,1.44,0,0,0-.391-.395,3.007,3.007,0,0,0-.578-.309q-.332-.137-.715-.285a9.207,9.207,0,0,1-.934-.426,2.82,2.82,0,0,1-.672-.484,1.8,1.8,0,0,1-.406-.613,2.17,2.17,0,0,1-.137-.8,1.912,1.912,0,0,1,.258-1,2.286,2.286,0,0,1,.688-.727,3.206,3.206,0,0,1,.98-.441,4.349,4.349,0,0,1,1.137-.148,4.59,4.59,0,0,1,1.859.359v1.3a3.624,3.624,0,0,0-2.031-.578,2.374,2.374,0,0,0-.648.082,1.587,1.587,0,0,0-.5.23,1.065,1.065,0,0,0-.32.355.936.936,0,0,0-.113.457,1.1,1.1,0,0,0,.113.523,1.152,1.152,0,0,0,.332.375,2.538,2.538,0,0,0,.531.3q.312.133.711.289a9.9,9.9,0,0,1,.953.418,3.269,3.269,0,0,1,.719.484,1.893,1.893,0,0,1,.457.621,2,2,0,0,1,.16.836,1.971,1.971,0,0,1-.262,1.031,2.243,2.243,0,0,1-.7.727,3.2,3.2,0,0,1-1.008.43,4.976,4.976,0,0,1-1.2.141A4.539,4.539,0,0,1,10.188-.289ZM28.672,0H27.391V-1.359h-.031A2.958,2.958,0,0,1,24.609.188,2.988,2.988,0,0,1,22.2-.887a4.407,4.407,0,0,1-.9-2.926,4.794,4.794,0,0,1,1-3.18,3.3,3.3,0,0,1,2.664-1.2,2.564,2.564,0,0,1,2.4,1.3h.031v-4.953h1.281ZM27.391-3.617V-4.8a2.289,2.289,0,0,0-.641-1.641,2.149,2.149,0,0,0-1.625-.672,2.212,2.212,0,0,0-1.844.859,3.766,3.766,0,0,0-.672,2.375,3.387,3.387,0,0,0,.645,2.184,2.107,2.107,0,0,0,1.73.8,2.188,2.188,0,0,0,1.738-.773A2.882,2.882,0,0,0,27.391-3.617ZM37.7-3.68H32.047a2.992,2.992,0,0,0,.719,2.063,2.478,2.478,0,0,0,1.891.727,3.931,3.931,0,0,0,2.484-.891v1.2a4.643,4.643,0,0,1-2.789.766A3.381,3.381,0,0,1,31.688-.9a4.461,4.461,0,0,1-.969-3.066,4.375,4.375,0,0,1,1.059-3.043,3.394,3.394,0,0,1,2.629-1.176,3.008,3.008,0,0,1,2.43,1.016,4.234,4.234,0,0,1,.859,2.82ZM36.383-4.766a2.607,2.607,0,0,0-.535-1.727,1.823,1.823,0,0,0-1.465-.617,2.07,2.07,0,0,0-1.539.648,2.943,2.943,0,0,0-.781,1.7ZM40.914,0H39.633V-11.844h1.281ZM49.2-1.156h-.031V3.68H47.891V-8h1.281v1.406H49.2a3.03,3.03,0,0,1,2.766-1.594,2.93,2.93,0,0,1,2.414,1.074,4.449,4.449,0,0,1,.867,2.879,4.959,4.959,0,0,1-.977,3.215A3.251,3.251,0,0,1,51.6.188,2.676,2.676,0,0,1,49.2-1.156Zm-.031-3.227v1.117a2.379,2.379,0,0,0,.645,1.684,2.14,2.14,0,0,0,1.637.691,2.145,2.145,0,0,0,1.824-.891,4.086,4.086,0,0,0,.66-2.477,3.225,3.225,0,0,0-.617-2.094,2.043,2.043,0,0,0-1.672-.758,2.27,2.27,0,0,0-1.8.777A2.854,2.854,0,0,0,49.172-4.383Z" transform="translate(632.78 11905.33)" fill="#12263f"/>
    <path id="Trazado_191705" data-name="Trazado 191705" d="M5.469-6.7A1.567,1.567,0,0,0,4.5-6.961a1.635,1.635,0,0,0-1.371.773,3.576,3.576,0,0,0-.551,2.109V0H1.3V-8H2.578v1.648h.031a2.793,2.793,0,0,1,.836-1.316A1.906,1.906,0,0,1,4.7-8.141a2.092,2.092,0,0,1,.766.109Z" transform="translate(688.43 11905.33)" fill="#12263f"/>
    <path id="Trazado_191706" data-name="Trazado 191706" d="M4.641.188A3.711,3.711,0,0,1,1.809-.934,4.153,4.153,0,0,1,.75-3.906a4.326,4.326,0,0,1,1.1-3.148A3.96,3.96,0,0,1,4.828-8.187a3.588,3.588,0,0,1,2.793,1.1,4.368,4.368,0,0,1,1,3.055A4.3,4.3,0,0,1,7.543-.965,3.791,3.791,0,0,1,4.641.188Zm.094-7.3a2.437,2.437,0,0,0-1.953.84,3.449,3.449,0,0,0-.719,2.316,3.262,3.262,0,0,0,.727,2.242,2.469,2.469,0,0,0,1.945.82,2.342,2.342,0,0,0,1.91-.8,3.492,3.492,0,0,0,.668-2.289A3.552,3.552,0,0,0,6.645-6.3,2.332,2.332,0,0,0,4.734-7.109ZM16.125-.367a4.163,4.163,0,0,1-2.187.555A3.622,3.622,0,0,1,11.176-.926a4.035,4.035,0,0,1-1.051-2.887,4.435,4.435,0,0,1,1.133-3.176,3.963,3.963,0,0,1,3.023-1.2,4.209,4.209,0,0,1,1.859.391v1.313a3.258,3.258,0,0,0-1.906-.625,2.576,2.576,0,0,0-2.012.879,3.335,3.335,0,0,0-.785,2.309A3.176,3.176,0,0,0,12.176-1.7a2.545,2.545,0,0,0,1.98.813,3.211,3.211,0,0,0,1.969-.7ZM24.492-3.68H18.844a2.992,2.992,0,0,0,.719,2.063,2.478,2.478,0,0,0,1.891.727,3.931,3.931,0,0,0,2.484-.891v1.2a4.643,4.643,0,0,1-2.789.766A3.381,3.381,0,0,1,18.484-.9a4.461,4.461,0,0,1-.969-3.066,4.375,4.375,0,0,1,1.059-3.043A3.394,3.394,0,0,1,21.2-8.187a3.008,3.008,0,0,1,2.43,1.016,4.234,4.234,0,0,1,.859,2.82ZM23.18-4.766a2.607,2.607,0,0,0-.535-1.727,1.823,1.823,0,0,0-1.465-.617,2.07,2.07,0,0,0-1.539.648,2.943,2.943,0,0,0-.781,1.7ZM25.945-.289V-1.664a3.792,3.792,0,0,0,2.3.773q1.688,0,1.688-1.125a.976.976,0,0,0-.145-.543,1.44,1.44,0,0,0-.391-.395,3.007,3.007,0,0,0-.578-.309q-.332-.137-.715-.285a9.207,9.207,0,0,1-.934-.426,2.82,2.82,0,0,1-.672-.484A1.8,1.8,0,0,1,26.1-5.07a2.17,2.17,0,0,1-.137-.8,1.912,1.912,0,0,1,.258-1,2.286,2.286,0,0,1,.688-.727,3.206,3.206,0,0,1,.98-.441,4.349,4.349,0,0,1,1.137-.148,4.59,4.59,0,0,1,1.859.359v1.3a3.624,3.624,0,0,0-2.031-.578,2.374,2.374,0,0,0-.648.082,1.587,1.587,0,0,0-.5.23,1.065,1.065,0,0,0-.32.355.936.936,0,0,0-.113.457,1.1,1.1,0,0,0,.113.523,1.152,1.152,0,0,0,.332.375,2.538,2.538,0,0,0,.531.3q.313.133.711.289a9.9,9.9,0,0,1,.953.418,3.269,3.269,0,0,1,.719.484,1.893,1.893,0,0,1,.457.621,2,2,0,0,1,.16.836,1.971,1.971,0,0,1-.262,1.031,2.243,2.243,0,0,1-.7.727,3.2,3.2,0,0,1-1.008.43,4.976,4.976,0,0,1-1.2.141A4.539,4.539,0,0,1,25.945-.289ZM36.563.188A3.711,3.711,0,0,1,33.73-.934a4.153,4.153,0,0,1-1.059-2.973,4.326,4.326,0,0,1,1.1-3.148A3.96,3.96,0,0,1,36.75-8.187a3.588,3.588,0,0,1,2.793,1.1,4.368,4.368,0,0,1,1,3.055A4.3,4.3,0,0,1,39.465-.965,3.791,3.791,0,0,1,36.563.188Zm.094-7.3a2.437,2.437,0,0,0-1.953.84,3.449,3.449,0,0,0-.719,2.316,3.262,3.262,0,0,0,.727,2.242,2.469,2.469,0,0,0,1.945.82,2.342,2.342,0,0,0,1.91-.8,3.492,3.492,0,0,0,.668-2.289A3.552,3.552,0,0,0,38.566-6.3,2.332,2.332,0,0,0,36.656-7.109Z" transform="translate(693.69 11905.33)" fill="#12263f"/>
    <path id="Trazado_191707" data-name="Trazado 191707" d="M7.664-8,3.984,1.281Q3,3.766,1.219,3.766a2.932,2.932,0,0,1-.836-.1V2.516a2.375,2.375,0,0,0,.758.141A1.57,1.57,0,0,0,2.594,1.5L3.234-.016.109-8H1.531L3.7-1.844q.039.117.164.609h.047q.039-.187.156-.594L6.336-8ZM20.25,0H18.969V-1.359h-.031A2.958,2.958,0,0,1,16.188.188a2.988,2.988,0,0,1-2.41-1.074,4.407,4.407,0,0,1-.9-2.926,4.794,4.794,0,0,1,1-3.18,3.3,3.3,0,0,1,2.664-1.2,2.564,2.564,0,0,1,2.4,1.3h.031v-4.953H20.25ZM18.969-3.617V-4.8a2.289,2.289,0,0,0-.641-1.641A2.149,2.149,0,0,0,16.7-7.109a2.212,2.212,0,0,0-1.844.859,3.766,3.766,0,0,0-.672,2.375,3.387,3.387,0,0,0,.645,2.184,2.107,2.107,0,0,0,1.73.8A2.188,2.188,0,0,0,18.3-1.664,2.882,2.882,0,0,0,18.969-3.617Zm10.3-.062H23.625a2.992,2.992,0,0,0,.719,2.063,2.478,2.478,0,0,0,1.891.727,3.931,3.931,0,0,0,2.484-.891v1.2A4.643,4.643,0,0,1,25.93.188,3.381,3.381,0,0,1,23.266-.9,4.461,4.461,0,0,1,22.3-3.969a4.375,4.375,0,0,1,1.059-3.043,3.394,3.394,0,0,1,2.629-1.176,3.008,3.008,0,0,1,2.43,1.016,4.234,4.234,0,0,1,.859,2.82ZM27.961-4.766a2.607,2.607,0,0,0-.535-1.727,1.823,1.823,0,0,0-1.465-.617,2.07,2.07,0,0,0-1.539.648,2.943,2.943,0,0,0-.781,1.7ZM32.492,0H31.211V-11.844h1.281Zm8.289-1.156H40.75V3.68H39.469V-8H40.75v1.406h.031a3.03,3.03,0,0,1,2.766-1.594,2.93,2.93,0,0,1,2.414,1.074,4.449,4.449,0,0,1,.867,2.879,4.959,4.959,0,0,1-.977,3.215A3.251,3.251,0,0,1,43.18.188,2.676,2.676,0,0,1,40.781-1.156ZM40.75-4.383v1.117a2.379,2.379,0,0,0,.645,1.684,2.14,2.14,0,0,0,1.637.691,2.145,2.145,0,0,0,1.824-.891,4.086,4.086,0,0,0,.66-2.477A3.225,3.225,0,0,0,44.9-6.352a2.043,2.043,0,0,0-1.672-.758,2.27,2.27,0,0,0-1.8.777A2.854,2.854,0,0,0,40.75-4.383Z" transform="translate(623.46 11924.53)" fill="#12263f"/>
    <path id="Trazado_191708" data-name="Trazado 191708" d="M5.469-6.7A1.567,1.567,0,0,0,4.5-6.961a1.635,1.635,0,0,0-1.371.773,3.576,3.576,0,0,0-.551,2.109V0H1.3V-8H2.578v1.648h.031a2.793,2.793,0,0,1,.836-1.316A1.906,1.906,0,0,1,4.7-8.141a2.092,2.092,0,0,1,.766.109Z" transform="translate(669.31 11924.53)" fill="#12263f"/>
    <path id="Trazado_191709" data-name="Trazado 191709" d="M4.641.188A3.711,3.711,0,0,1,1.809-.934,4.153,4.153,0,0,1,.75-3.906a4.326,4.326,0,0,1,1.1-3.148A3.96,3.96,0,0,1,4.828-8.187a3.588,3.588,0,0,1,2.793,1.1,4.368,4.368,0,0,1,1,3.055A4.3,4.3,0,0,1,7.543-.965,3.791,3.791,0,0,1,4.641.188Zm.094-7.3a2.437,2.437,0,0,0-1.953.84,3.449,3.449,0,0,0-.719,2.316,3.262,3.262,0,0,0,.727,2.242,2.469,2.469,0,0,0,1.945.82,2.342,2.342,0,0,0,1.91-.8,3.492,3.492,0,0,0,.668-2.289A3.552,3.552,0,0,0,6.645-6.3,2.332,2.332,0,0,0,4.734-7.109Z" transform="translate(674.57 11924.53)" fill="#12263f"/>
    <path id="Trazado_191710" data-name="Trazado 191710" d="M7.664-8,3.984,1.281Q3,3.766,1.219,3.766a2.932,2.932,0,0,1-.836-.1V2.516a2.375,2.375,0,0,0,.758.141A1.57,1.57,0,0,0,2.594,1.5L3.234-.016.109-8H1.531L3.7-1.844q.039.117.164.609h.047q.039-.187.156-.594L6.336-8Z" transform="translate(683.58 11924.53)" fill="#12263f"/>
    <path id="Trazado_191711" data-name="Trazado 191711" d="M7.727-3.68H2.078A2.992,2.992,0,0,0,2.8-1.617a2.478,2.478,0,0,0,1.891.727,3.931,3.931,0,0,0,2.484-.891v1.2A4.643,4.643,0,0,1,4.383.188,3.381,3.381,0,0,1,1.719-.9,4.461,4.461,0,0,1,.75-3.969,4.375,4.375,0,0,1,1.809-7.012,3.394,3.394,0,0,1,4.438-8.187a3.008,3.008,0,0,1,2.43,1.016,4.234,4.234,0,0,1,.859,2.82ZM6.414-4.766a2.607,2.607,0,0,0-.535-1.727,1.823,1.823,0,0,0-1.465-.617,2.07,2.07,0,0,0-1.539.648,2.943,2.943,0,0,0-.781,1.7Zm8.7,4.4A4.163,4.163,0,0,1,12.93.188,3.622,3.622,0,0,1,10.168-.926,4.035,4.035,0,0,1,9.117-3.812,4.435,4.435,0,0,1,10.25-6.988a3.963,3.963,0,0,1,3.023-1.2,4.209,4.209,0,0,1,1.859.391v1.313a3.258,3.258,0,0,0-1.906-.625,2.576,2.576,0,0,0-2.012.879,3.335,3.335,0,0,0-.785,2.309A3.176,3.176,0,0,0,11.168-1.7a2.545,2.545,0,0,0,1.98.813,3.211,3.211,0,0,0,1.969-.7Z" transform="translate(691.05 11924.53)" fill="#12263f"/>
    <path id="Trazado_191712" data-name="Trazado 191712" d="M5.008-.078a2.47,2.47,0,0,1-1.2.25q-2.1,0-2.1-2.344V-6.906H.336V-8H1.711V-9.953l1.281-.414V-8H5.008v1.094H2.992V-2.4A1.869,1.869,0,0,0,3.266-1.25a1.091,1.091,0,0,0,.906.344,1.347,1.347,0,0,0,.836-.266Z" transform="translate(707.9 11924.53)" fill="#12263f"/>
    <path id="Trazado_191713" data-name="Trazado 191713" d="M4.641.188A3.711,3.711,0,0,1,1.809-.934,4.153,4.153,0,0,1,.75-3.906a4.326,4.326,0,0,1,1.1-3.148A3.96,3.96,0,0,1,4.828-8.187a3.588,3.588,0,0,1,2.793,1.1,4.368,4.368,0,0,1,1,3.055A4.3,4.3,0,0,1,7.543-.965,3.791,3.791,0,0,1,4.641.188Zm.094-7.3a2.437,2.437,0,0,0-1.953.84,3.449,3.449,0,0,0-.719,2.316,3.262,3.262,0,0,0,.727,2.242,2.469,2.469,0,0,0,1.945.82,2.342,2.342,0,0,0,1.91-.8,3.492,3.492,0,0,0,.668-2.289A3.552,3.552,0,0,0,6.645-6.3,2.332,2.332,0,0,0,4.734-7.109Z" transform="translate(712.97 11924.53)" fill="#12263f"/>
    <path id="Trazado_191714" data-name="Trazado 191714" d="M9.5,0H7.938L6.063-3.141a6.84,6.84,0,0,0-.5-.746,2.85,2.85,0,0,0-.5-.5,1.718,1.718,0,0,0-.547-.285,2.249,2.249,0,0,0-.66-.09H2.781V0H1.469V-11.2H4.813a4.765,4.765,0,0,1,1.355.184,3.033,3.033,0,0,1,1.078.559,2.6,2.6,0,0,1,.715.934,3.1,3.1,0,0,1,.258,1.309,3.151,3.151,0,0,1-.176,1.074,2.805,2.805,0,0,1-.5.871,3.031,3.031,0,0,1-.781.652A3.988,3.988,0,0,1,5.734-5.2v.031a2.363,2.363,0,0,1,.488.285,2.687,2.687,0,0,1,.395.379,5.019,5.019,0,0,1,.371.5q.184.277.41.645ZM2.781-10.016v4.063H4.563a2.7,2.7,0,0,0,.91-.148A2.107,2.107,0,0,0,6.2-6.527a1.931,1.931,0,0,0,.477-.68,2.275,2.275,0,0,0,.172-.9,1.756,1.756,0,0,0-.582-1.4,2.5,2.5,0,0,0-1.684-.5ZM16.828-3.68H11.18A2.992,2.992,0,0,0,11.9-1.617a2.478,2.478,0,0,0,1.891.727,3.931,3.931,0,0,0,2.484-.891v1.2a4.643,4.643,0,0,1-2.789.766A3.381,3.381,0,0,1,10.82-.9a4.461,4.461,0,0,1-.969-3.066A4.375,4.375,0,0,1,10.91-7.012a3.394,3.394,0,0,1,2.629-1.176,3.008,3.008,0,0,1,2.43,1.016,4.234,4.234,0,0,1,.859,2.82ZM15.516-4.766a2.607,2.607,0,0,0-.535-1.727,1.823,1.823,0,0,0-1.465-.617,2.07,2.07,0,0,0-1.539.648,2.943,2.943,0,0,0-.781,1.7Zm4.563,3.609h-.031V3.68H18.766V-8h1.281v1.406h.031a3.03,3.03,0,0,1,2.766-1.594,2.93,2.93,0,0,1,2.414,1.074,4.449,4.449,0,0,1,.867,2.879,4.959,4.959,0,0,1-.977,3.215A3.251,3.251,0,0,1,22.477.188,2.676,2.676,0,0,1,20.078-1.156Zm-.031-3.227v1.117a2.379,2.379,0,0,0,.645,1.684,2.14,2.14,0,0,0,1.637.691,2.145,2.145,0,0,0,1.824-.891,4.086,4.086,0,0,0,.66-2.477A3.225,3.225,0,0,0,24.2-6.352a2.043,2.043,0,0,0-1.672-.758,2.27,2.27,0,0,0-1.8.777A2.854,2.854,0,0,0,20.047-4.383ZM31.516.188A3.711,3.711,0,0,1,28.684-.934a4.153,4.153,0,0,1-1.059-2.973,4.326,4.326,0,0,1,1.1-3.148A3.96,3.96,0,0,1,31.7-8.187a3.588,3.588,0,0,1,2.793,1.1,4.368,4.368,0,0,1,1,3.055A4.3,4.3,0,0,1,34.418-.965,3.791,3.791,0,0,1,31.516.188Zm.094-7.3a2.437,2.437,0,0,0-1.953.84,3.449,3.449,0,0,0-.719,2.316,3.262,3.262,0,0,0,.727,2.242,2.469,2.469,0,0,0,1.945.82,2.342,2.342,0,0,0,1.91-.8,3.492,3.492,0,0,0,.668-2.289A3.552,3.552,0,0,0,33.52-6.3,2.332,2.332,0,0,0,31.609-7.109Z" transform="translate(609.46 11962.93)" fill="#12263f"/>
    <path id="Trazado_191715" data-name="Trazado 191715" d="M5.469-6.7A1.567,1.567,0,0,0,4.5-6.961a1.635,1.635,0,0,0-1.371.773,3.576,3.576,0,0,0-.551,2.109V0H1.3V-8H2.578v1.648h.031a2.793,2.793,0,0,1,.836-1.316A1.906,1.906,0,0,1,4.7-8.141a2.092,2.092,0,0,1,.766.109Z" transform="translate(645.89 11962.93)" fill="#12263f"/>
    <path id="Trazado_191716" data-name="Trazado 191716" d="M5.008-.078a2.47,2.47,0,0,1-1.2.25q-2.1,0-2.1-2.344V-6.906H.336V-8H1.711V-9.953l1.281-.414V-8H5.008v1.094H2.992V-2.4A1.869,1.869,0,0,0,3.266-1.25a1.091,1.091,0,0,0,.906.344,1.347,1.347,0,0,0,.836-.266Zm8.141-3.6H7.5a2.992,2.992,0,0,0,.719,2.063,2.478,2.478,0,0,0,1.891.727,3.931,3.931,0,0,0,2.484-.891v1.2A4.643,4.643,0,0,1,9.8.188,3.381,3.381,0,0,1,7.141-.9a4.461,4.461,0,0,1-.969-3.066A4.375,4.375,0,0,1,7.23-7.012,3.394,3.394,0,0,1,9.859-8.187a3.008,3.008,0,0,1,2.43,1.016,4.234,4.234,0,0,1,.859,2.82ZM11.836-4.766A2.607,2.607,0,0,0,11.3-6.492a1.823,1.823,0,0,0-1.465-.617A2.07,2.07,0,0,0,8.3-6.461a2.943,2.943,0,0,0-.781,1.7ZM27.672,0H26.109L24.234-3.141a6.84,6.84,0,0,0-.5-.746,2.85,2.85,0,0,0-.5-.5,1.718,1.718,0,0,0-.547-.285,2.249,2.249,0,0,0-.66-.09H20.953V0H19.641V-11.2h3.344a4.765,4.765,0,0,1,1.355.184,3.033,3.033,0,0,1,1.078.559,2.6,2.6,0,0,1,.715.934,3.1,3.1,0,0,1,.258,1.309,3.151,3.151,0,0,1-.176,1.074,2.805,2.805,0,0,1-.5.871,3.031,3.031,0,0,1-.781.652,3.988,3.988,0,0,1-1.027.418v.031a2.363,2.363,0,0,1,.488.285,2.687,2.687,0,0,1,.395.379,5.019,5.019,0,0,1,.371.5q.184.277.41.645ZM20.953-10.016v4.063h1.781a2.7,2.7,0,0,0,.91-.148,2.107,2.107,0,0,0,.723-.426,1.931,1.931,0,0,0,.477-.68,2.275,2.275,0,0,0,.172-.9,1.756,1.756,0,0,0-.582-1.4,2.5,2.5,0,0,0-1.684-.5ZM35-3.68H29.352a2.992,2.992,0,0,0,.719,2.063,2.478,2.478,0,0,0,1.891.727,3.931,3.931,0,0,0,2.484-.891v1.2a4.643,4.643,0,0,1-2.789.766A3.381,3.381,0,0,1,28.992-.9a4.461,4.461,0,0,1-.969-3.066,4.375,4.375,0,0,1,1.059-3.043,3.394,3.394,0,0,1,2.629-1.176,3.008,3.008,0,0,1,2.43,1.016A4.234,4.234,0,0,1,35-4.352ZM33.688-4.766a2.607,2.607,0,0,0-.535-1.727,1.823,1.823,0,0,0-1.465-.617,2.07,2.07,0,0,0-1.539.648,2.943,2.943,0,0,0-.781,1.7ZM36.453-.289V-1.664a3.792,3.792,0,0,0,2.3.773q1.688,0,1.688-1.125a.976.976,0,0,0-.145-.543,1.44,1.44,0,0,0-.391-.395,3.007,3.007,0,0,0-.578-.309Q39-3.4,38.617-3.547a9.207,9.207,0,0,1-.934-.426,2.82,2.82,0,0,1-.672-.484,1.8,1.8,0,0,1-.406-.613,2.17,2.17,0,0,1-.137-.8,1.912,1.912,0,0,1,.258-1,2.286,2.286,0,0,1,.688-.727,3.206,3.206,0,0,1,.98-.441,4.349,4.349,0,0,1,1.137-.148,4.59,4.59,0,0,1,1.859.359v1.3a3.624,3.624,0,0,0-2.031-.578,2.374,2.374,0,0,0-.648.082,1.587,1.587,0,0,0-.5.23,1.065,1.065,0,0,0-.32.355.936.936,0,0,0-.113.457,1.1,1.1,0,0,0,.113.523,1.152,1.152,0,0,0,.332.375,2.538,2.538,0,0,0,.531.3q.312.133.711.289a9.894,9.894,0,0,1,.953.418,3.269,3.269,0,0,1,.719.484,1.893,1.893,0,0,1,.457.621,2,2,0,0,1,.16.836A1.971,1.971,0,0,1,41.5-1.109a2.243,2.243,0,0,1-.7.727,3.2,3.2,0,0,1-1.008.43,4.976,4.976,0,0,1-1.2.141A4.539,4.539,0,0,1,36.453-.289ZM50.2,0H48.914V-1.266h-.031A2.631,2.631,0,0,1,46.414.188q-2.859,0-2.859-3.406V-8h1.273v4.578q0,2.531,1.938,2.531a1.96,1.96,0,0,0,1.543-.691,2.645,2.645,0,0,0,.605-1.809V-8H50.2ZM64.141,0H62.859V-4.594a3.466,3.466,0,0,0-.41-1.922,1.555,1.555,0,0,0-1.379-.594,1.708,1.708,0,0,0-1.395.75,2.869,2.869,0,0,0-.574,1.8V0H57.82V-4.75q0-2.359-1.82-2.359a1.686,1.686,0,0,0-1.391.707,2.923,2.923,0,0,0-.547,1.84V0H52.781V-8h1.281v1.266h.031a2.718,2.718,0,0,1,2.484-1.453,2.316,2.316,0,0,1,1.43.457,2.3,2.3,0,0,1,.836,1.2A2.855,2.855,0,0,1,61.5-8.187q2.641,0,2.641,3.258Zm8.852-3.68H67.344a2.992,2.992,0,0,0,.719,2.063,2.478,2.478,0,0,0,1.891.727,3.931,3.931,0,0,0,2.484-.891v1.2a4.643,4.643,0,0,1-2.789.766A3.381,3.381,0,0,1,66.984-.9a4.461,4.461,0,0,1-.969-3.066,4.375,4.375,0,0,1,1.059-3.043A3.394,3.394,0,0,1,69.7-8.187a3.008,3.008,0,0,1,2.43,1.016,4.234,4.234,0,0,1,.859,2.82ZM71.68-4.766a2.607,2.607,0,0,0-.535-1.727,1.823,1.823,0,0,0-1.465-.617,2.07,2.07,0,0,0-1.539.648,2.943,2.943,0,0,0-.781,1.7ZM81.57,0H80.289V-4.562q0-2.547-1.859-2.547a2.017,2.017,0,0,0-1.59.723,2.679,2.679,0,0,0-.629,1.824V0H74.93V-8h1.281v1.328h.031a2.887,2.887,0,0,1,2.625-1.516,2.448,2.448,0,0,1,2.008.848,3.776,3.776,0,0,1,.7,2.449Z" transform="translate(651.7 11962.93)" fill="#12263f"/>
    <path id="Trazado_191717" data-name="Trazado 191717" d="M2.781-4.234V0H1.469V-11.2H4.547a4.063,4.063,0,0,1,2.785.875A3.124,3.124,0,0,1,8.32-7.859a3.4,3.4,0,0,1-1.1,2.609A4.194,4.194,0,0,1,4.258-4.234Zm0-5.781v4.594H4.156A3.074,3.074,0,0,0,6.23-6.043,2.2,2.2,0,0,0,6.945-7.8q0-2.219-2.625-2.219ZM14.43-6.7a1.567,1.567,0,0,0-.969-.258,1.635,1.635,0,0,0-1.371.773,3.576,3.576,0,0,0-.551,2.109V0H10.258V-8h1.281v1.648h.031a2.793,2.793,0,0,1,.836-1.316,1.906,1.906,0,0,1,1.258-.473,2.092,2.092,0,0,1,.766.109ZM19,.188A3.711,3.711,0,0,1,16.172-.934a4.153,4.153,0,0,1-1.059-2.973,4.326,4.326,0,0,1,1.1-3.148,3.96,3.96,0,0,1,2.977-1.133,3.588,3.588,0,0,1,2.793,1.1,4.368,4.368,0,0,1,1,3.055A4.3,4.3,0,0,1,21.906-.965,3.791,3.791,0,0,1,19,.188Zm.094-7.3a2.437,2.437,0,0,0-1.953.84,3.449,3.449,0,0,0-.719,2.316,3.262,3.262,0,0,0,.727,2.242,2.469,2.469,0,0,0,1.945.82,2.342,2.342,0,0,0,1.91-.8,3.492,3.492,0,0,0,.668-2.289A3.552,3.552,0,0,0,21.008-6.3,2.332,2.332,0,0,0,19.1-7.109ZM31.863,0H30.582V-1.359h-.031A2.958,2.958,0,0,1,27.8.188a2.988,2.988,0,0,1-2.41-1.074,4.407,4.407,0,0,1-.9-2.926,4.794,4.794,0,0,1,1-3.18,3.3,3.3,0,0,1,2.664-1.2,2.564,2.564,0,0,1,2.4,1.3h.031v-4.953h1.281ZM30.582-3.617V-4.8a2.289,2.289,0,0,0-.641-1.641,2.149,2.149,0,0,0-1.625-.672,2.212,2.212,0,0,0-1.844.859A3.766,3.766,0,0,0,25.8-3.875a3.387,3.387,0,0,0,.645,2.184,2.107,2.107,0,0,0,1.73.8,2.188,2.188,0,0,0,1.738-.773A2.882,2.882,0,0,0,30.582-3.617ZM40.926,0H39.645V-1.266h-.031A2.631,2.631,0,0,1,37.145.188q-2.859,0-2.859-3.406V-8h1.273v4.578q0,2.531,1.938,2.531a1.96,1.96,0,0,0,1.543-.691,2.645,2.645,0,0,0,.605-1.809V-8h1.281Zm8.039-.367a4.163,4.163,0,0,1-2.187.555A3.622,3.622,0,0,1,44.016-.926a4.035,4.035,0,0,1-1.051-2.887A4.435,4.435,0,0,1,44.1-6.988a3.963,3.963,0,0,1,3.023-1.2,4.209,4.209,0,0,1,1.859.391v1.313a3.258,3.258,0,0,0-1.906-.625,2.576,2.576,0,0,0-2.012.879,3.335,3.335,0,0,0-.785,2.309A3.176,3.176,0,0,0,45.016-1.7,2.545,2.545,0,0,0,47-.891a3.211,3.211,0,0,0,1.969-.7Zm5.648.289a2.47,2.47,0,0,1-1.2.25q-2.1,0-2.1-2.344V-6.906H49.942V-8h1.375V-9.953l1.281-.414V-8h2.016v1.094H52.6V-2.4a1.869,1.869,0,0,0,.273,1.148,1.091,1.091,0,0,0,.906.344,1.347,1.347,0,0,0,.836-.266Zm4.895.266A3.711,3.711,0,0,1,56.676-.934a4.153,4.153,0,0,1-1.059-2.973,4.326,4.326,0,0,1,1.1-3.148A3.96,3.96,0,0,1,59.7-8.187a3.588,3.588,0,0,1,2.793,1.1,4.368,4.368,0,0,1,1,3.055A4.3,4.3,0,0,1,62.41-.965,3.791,3.791,0,0,1,59.508.188Zm.094-7.3a2.437,2.437,0,0,0-1.953.84,3.449,3.449,0,0,0-.719,2.316,3.262,3.262,0,0,0,.727,2.242,2.469,2.469,0,0,0,1.945.82,2.342,2.342,0,0,0,1.91-.8,3.492,3.492,0,0,0,.668-2.289A3.552,3.552,0,0,0,61.512-6.3,2.332,2.332,0,0,0,59.6-7.109Zm17.117-2.906H73.485V0H72.172V-10.016H68.946V-11.2h7.773ZM83.935-3.68H78.286A2.992,2.992,0,0,0,79-1.617,2.478,2.478,0,0,0,80.9-.891a3.931,3.931,0,0,0,2.484-.891v1.2a4.643,4.643,0,0,1-2.789.766A3.381,3.381,0,0,1,77.927-.9a4.461,4.461,0,0,1-.969-3.066,4.375,4.375,0,0,1,1.059-3.043,3.394,3.394,0,0,1,2.629-1.176,3.008,3.008,0,0,1,2.43,1.016,4.234,4.234,0,0,1,.859,2.82ZM82.622-4.766a2.607,2.607,0,0,0-.535-1.727,1.823,1.823,0,0,0-1.465-.617,2.07,2.07,0,0,0-1.539.648,2.943,2.943,0,0,0-.781,1.7ZM90.044-6.7a1.567,1.567,0,0,0-.969-.258,1.635,1.635,0,0,0-1.371.773,3.576,3.576,0,0,0-.551,2.109V0H85.872V-8h1.281v1.648h.031a2.793,2.793,0,0,1,.836-1.316,1.906,1.906,0,0,1,1.258-.473,2.092,2.092,0,0,1,.766.109ZM102.794,0h-1.281V-4.594a3.466,3.466,0,0,0-.41-1.922,1.555,1.555,0,0,0-1.379-.594,1.708,1.708,0,0,0-1.395.75,2.869,2.869,0,0,0-.574,1.8V0H96.474V-4.75q0-2.359-1.82-2.359a1.686,1.686,0,0,0-1.391.707,2.923,2.923,0,0,0-.547,1.84V0H91.435V-8h1.281v1.266h.031a2.718,2.718,0,0,1,2.484-1.453,2.316,2.316,0,0,1,1.43.457,2.3,2.3,0,0,1,.836,1.2,2.855,2.855,0,0,1,2.656-1.656q2.641,0,2.641,3.258Zm3.078-10.031a.812.812,0,0,1-.586-.234.791.791,0,0,1-.242-.594.8.8,0,0,1,.242-.6.8.8,0,0,1,.586-.238.827.827,0,0,1,.6.238.8.8,0,0,1,.246.6.792.792,0,0,1-.246.586A.82.82,0,0,1,105.872-10.031ZM106.5,0h-1.281V-8H106.5Zm9.234,0H114.45V-4.562q0-2.547-1.859-2.547a2.017,2.017,0,0,0-1.59.723,2.679,2.679,0,0,0-.629,1.824V0h-1.281V-8h1.281v1.328h.031a2.887,2.887,0,0,1,2.625-1.516,2.448,2.448,0,0,1,2.008.848,3.776,3.776,0,0,1,.7,2.449Zm8.141,0h-1.281V-1.25h-.031A2.682,2.682,0,0,1,120.1.188a2.63,2.63,0,0,1-1.871-.633,2.192,2.192,0,0,1-.676-1.68q0-2.242,2.641-2.609l2.4-.336q0-2.039-1.648-2.039a3.938,3.938,0,0,0-2.609.984V-7.437a4.958,4.958,0,0,1,2.719-.75q2.82,0,2.82,2.984Zm-1.281-4.047-1.93.266a3.133,3.133,0,0,0-1.344.441,1.273,1.273,0,0,0-.453,1.121,1.221,1.221,0,0,0,.418.957,1.615,1.615,0,0,0,1.113.371,2.056,2.056,0,0,0,1.574-.668,2.387,2.387,0,0,0,.621-1.691ZM133.114,0h-1.281V-1.359H131.8a2.958,2.958,0,0,1-2.75,1.547,2.988,2.988,0,0,1-2.41-1.074,4.407,4.407,0,0,1-.9-2.926,4.794,4.794,0,0,1,1-3.18,3.3,3.3,0,0,1,2.664-1.2,2.564,2.564,0,0,1,2.4,1.3h.031v-4.953h1.281Zm-1.281-3.617V-4.8a2.289,2.289,0,0,0-.641-1.641,2.149,2.149,0,0,0-1.625-.672,2.212,2.212,0,0,0-1.844.859,3.766,3.766,0,0,0-.672,2.375,3.387,3.387,0,0,0,.645,2.184,2.107,2.107,0,0,0,1.73.8,2.188,2.188,0,0,0,1.738-.773A2.882,2.882,0,0,0,131.833-3.617Zm7.219,3.8A3.711,3.711,0,0,1,136.22-.934a4.153,4.153,0,0,1-1.059-2.973,4.326,4.326,0,0,1,1.1-3.148,3.96,3.96,0,0,1,2.977-1.133,3.588,3.588,0,0,1,2.793,1.1,4.368,4.368,0,0,1,1,3.055,4.3,4.3,0,0,1-1.082,3.066A3.791,3.791,0,0,1,139.052.188Zm.094-7.3a2.437,2.437,0,0,0-1.953.84,3.449,3.449,0,0,0-.719,2.316,3.262,3.262,0,0,0,.727,2.242,2.469,2.469,0,0,0,1.945.82,2.342,2.342,0,0,0,1.91-.8,3.492,3.492,0,0,0,.668-2.289,3.552,3.552,0,0,0-.668-2.312A2.332,2.332,0,0,0,139.146-7.109Z" transform="translate(358.56 11969.74)" fill="#12263f"/>
    <path id="Trazado_191718" data-name="Trazado 191718" d="M9.844-.766a7.492,7.492,0,0,1-3.75.953A5.124,5.124,0,0,1,2.215-1.359,5.674,5.674,0,0,1,.734-5.453a5.826,5.826,0,0,1,1.645-4.27,5.606,5.606,0,0,1,4.168-1.668,7.093,7.093,0,0,1,3.07.594v1.453A5.9,5.9,0,0,0,6.4-10.2a4.021,4.021,0,0,0-3.086,1.3,4.743,4.743,0,0,0-1.2,3.359,4.746,4.746,0,0,0,1.117,3.34A3.916,3.916,0,0,0,6.258-.992a4.684,4.684,0,0,0,2.273-.523V-4.656H6.078V-5.844H9.844Zm8.9.766H17.461V-1.266H17.43A2.631,2.631,0,0,1,14.961.188Q12.1.188,12.1-3.219V-8h1.273v4.578q0,2.531,1.938,2.531a1.96,1.96,0,0,0,1.543-.691,2.645,2.645,0,0,0,.605-1.809V-8h1.281Zm3.867,0H21.328V-8h1.281Zm1.148-12.078L21.711-9.516h-.992l1.742-2.562ZM30.93,0H29.648V-1.25h-.031A2.682,2.682,0,0,1,27.156.188a2.63,2.63,0,0,1-1.871-.633,2.192,2.192,0,0,1-.676-1.68q0-2.242,2.641-2.609l2.4-.336q0-2.039-1.648-2.039a3.938,3.938,0,0,0-2.609.984V-7.437a4.958,4.958,0,0,1,2.719-.75q2.82,0,2.82,2.984ZM29.648-4.047l-1.93.266a3.133,3.133,0,0,0-1.344.441,1.273,1.273,0,0,0-.453,1.121,1.221,1.221,0,0,0,.418.957,1.615,1.615,0,0,0,1.113.371,2.056,2.056,0,0,0,1.574-.668,2.387,2.387,0,0,0,.621-1.691Z" transform="translate(299 11810.65)" fill="#12263f"/>
    <path id="Trazado_191719" data-name="Trazado 191719" d="M2.781-4.234V0H1.469V-11.2H4.547a4.063,4.063,0,0,1,2.785.875A3.124,3.124,0,0,1,8.32-7.859a3.4,3.4,0,0,1-1.1,2.609A4.194,4.194,0,0,1,4.258-4.234Zm0-5.781v4.594H4.156A3.074,3.074,0,0,0,6.23-6.043,2.2,2.2,0,0,0,6.945-7.8q0-2.219-2.625-2.219ZM11.539,0H10.258V-11.844h1.281Zm8.32,0H18.578V-1.25h-.031A2.682,2.682,0,0,1,16.086.188a2.63,2.63,0,0,1-1.871-.633,2.192,2.192,0,0,1-.676-1.68q0-2.242,2.641-2.609l2.4-.336q0-2.039-1.648-2.039a3.938,3.938,0,0,0-2.609.984V-7.437a4.958,4.958,0,0,1,2.719-.75q2.82,0,2.82,2.984ZM18.578-4.047l-1.93.266A3.133,3.133,0,0,0,15.3-3.34a1.273,1.273,0,0,0-.453,1.121,1.221,1.221,0,0,0,.418.957,1.615,1.615,0,0,0,1.113.371,2.056,2.056,0,0,0,1.574-.668,2.387,2.387,0,0,0,.621-1.691ZM28.914,0H27.633V-4.562q0-2.547-1.859-2.547a2.017,2.017,0,0,0-1.59.723,2.679,2.679,0,0,0-.629,1.824V0H22.273V-8h1.281v1.328h.031a2.887,2.887,0,0,1,2.625-1.516,2.448,2.448,0,0,1,2.008.848,3.776,3.776,0,0,1,.7,2.449Zm8.844-3.68H32.109a2.992,2.992,0,0,0,.719,2.063,2.478,2.478,0,0,0,1.891.727A3.931,3.931,0,0,0,37.2-1.781v1.2a4.643,4.643,0,0,1-2.789.766A3.381,3.381,0,0,1,31.75-.9a4.461,4.461,0,0,1-.969-3.066A4.375,4.375,0,0,1,31.84-7.012a3.394,3.394,0,0,1,2.629-1.176A3.008,3.008,0,0,1,36.9-7.172a4.234,4.234,0,0,1,.859,2.82ZM36.445-4.766a2.607,2.607,0,0,0-.535-1.727,1.823,1.823,0,0,0-1.465-.617,2.07,2.07,0,0,0-1.539.648,2.943,2.943,0,0,0-.781,1.7ZM45.422,0H44.141V-1.25h-.031A2.682,2.682,0,0,1,41.648.188a2.63,2.63,0,0,1-1.871-.633,2.192,2.192,0,0,1-.676-1.68q0-2.242,2.641-2.609l2.4-.336q0-2.039-1.648-2.039a3.938,3.938,0,0,0-2.609.984V-7.437a4.958,4.958,0,0,1,2.719-.75q2.82,0,2.82,2.984ZM44.141-4.047l-1.93.266a3.133,3.133,0,0,0-1.344.441,1.273,1.273,0,0,0-.453,1.121,1.221,1.221,0,0,0,.418.957,1.615,1.615,0,0,0,1.113.371,2.056,2.056,0,0,0,1.574-.668,2.387,2.387,0,0,0,.621-1.691Zm9.148,3.68A4.163,4.163,0,0,1,51.1.188,3.622,3.622,0,0,1,48.34-.926a4.035,4.035,0,0,1-1.051-2.887,4.435,4.435,0,0,1,1.133-3.176,3.963,3.963,0,0,1,3.023-1.2A4.209,4.209,0,0,1,53.3-7.8v1.313A3.258,3.258,0,0,0,51.4-7.109a2.576,2.576,0,0,0-2.012.879A3.335,3.335,0,0,0,48.6-3.922,3.176,3.176,0,0,0,49.34-1.7a2.545,2.545,0,0,0,1.98.813,3.211,3.211,0,0,0,1.969-.7Zm2.594-9.664a.812.812,0,0,1-.586-.234.791.791,0,0,1-.242-.594.8.8,0,0,1,.242-.6.8.8,0,0,1,.586-.238.827.827,0,0,1,.6.238.8.8,0,0,1,.246.6.792.792,0,0,1-.246.586A.82.82,0,0,1,55.883-10.031ZM56.508,0H55.227V-8h1.281Zm5.938.188A3.711,3.711,0,0,1,59.613-.934a4.153,4.153,0,0,1-1.059-2.973,4.326,4.326,0,0,1,1.1-3.148,3.96,3.96,0,0,1,2.977-1.133,3.588,3.588,0,0,1,2.793,1.1,4.368,4.368,0,0,1,1,3.055A4.3,4.3,0,0,1,65.348-.965,3.791,3.791,0,0,1,62.445.188Zm.094-7.3a2.437,2.437,0,0,0-1.953.84,3.449,3.449,0,0,0-.719,2.316,3.262,3.262,0,0,0,.727,2.242,2.469,2.469,0,0,0,1.945.82,2.342,2.342,0,0,0,1.91-.8,3.492,3.492,0,0,0,.668-2.289A3.552,3.552,0,0,0,64.449-6.3,2.332,2.332,0,0,0,62.539-7.109Zm1.875-4.969L62.367-9.516h-.992l1.742-2.562ZM75.117,0H73.836V-4.562q0-2.547-1.859-2.547a2.017,2.017,0,0,0-1.59.723,2.679,2.679,0,0,0-.629,1.824V0H68.477V-8h1.281v1.328h.031a2.887,2.887,0,0,1,2.625-1.516,2.448,2.448,0,0,1,2.008.848,3.776,3.776,0,0,1,.7,2.449Z" transform="translate(396.43 11739.8)" fill="#fff"/>
    <path id="Trazado_191720" data-name="Trazado 191720" d="M1.469,0V-11.2H4.563q5.922,0,5.922,5.461A5.5,5.5,0,0,1,8.84-1.574,6.1,6.1,0,0,1,4.438,0ZM2.781-10.016v8.828H4.453a4.745,4.745,0,0,0,3.43-1.18A4.422,4.422,0,0,0,9.109-5.711q0-4.3-4.578-4.3ZM18.945-3.68H13.3a2.992,2.992,0,0,0,.719,2.063,2.478,2.478,0,0,0,1.891.727,3.931,3.931,0,0,0,2.484-.891v1.2A4.643,4.643,0,0,1,15.6.188,3.381,3.381,0,0,1,12.938-.9a4.461,4.461,0,0,1-.969-3.066,4.375,4.375,0,0,1,1.059-3.043,3.394,3.394,0,0,1,2.629-1.176,3.008,3.008,0,0,1,2.43,1.016,4.234,4.234,0,0,1,.859,2.82ZM17.633-4.766A2.607,2.607,0,0,0,17.1-6.492a1.823,1.823,0,0,0-1.465-.617,2.07,2.07,0,0,0-1.539.648,2.943,2.943,0,0,0-.781,1.7ZM20.4-.289V-1.664a3.792,3.792,0,0,0,2.3.773q1.688,0,1.688-1.125a.976.976,0,0,0-.145-.543,1.44,1.44,0,0,0-.391-.395,3.007,3.007,0,0,0-.578-.309q-.332-.137-.715-.285a9.207,9.207,0,0,1-.934-.426,2.82,2.82,0,0,1-.672-.484,1.8,1.8,0,0,1-.406-.613,2.17,2.17,0,0,1-.137-.8,1.912,1.912,0,0,1,.258-1,2.286,2.286,0,0,1,.688-.727,3.206,3.206,0,0,1,.98-.441,4.349,4.349,0,0,1,1.137-.148,4.59,4.59,0,0,1,1.859.359v1.3A3.624,3.624,0,0,0,23.3-7.109a2.374,2.374,0,0,0-.648.082,1.587,1.587,0,0,0-.5.23,1.065,1.065,0,0,0-.32.355.936.936,0,0,0-.113.457,1.1,1.1,0,0,0,.113.523,1.152,1.152,0,0,0,.332.375,2.538,2.538,0,0,0,.531.3q.313.133.711.289a9.9,9.9,0,0,1,.953.418,3.269,3.269,0,0,1,.719.484,1.893,1.893,0,0,1,.457.621,2,2,0,0,1,.16.836,1.971,1.971,0,0,1-.262,1.031,2.243,2.243,0,0,1-.7.727,3.2,3.2,0,0,1-1.008.43,4.976,4.976,0,0,1-1.2.141A4.539,4.539,0,0,1,20.4-.289ZM33.4,0H32.117V-1.25h-.031A2.682,2.682,0,0,1,29.625.188a2.63,2.63,0,0,1-1.871-.633,2.192,2.192,0,0,1-.676-1.68q0-2.242,2.641-2.609l2.4-.336q0-2.039-1.648-2.039a3.938,3.938,0,0,0-2.609.984V-7.437a4.958,4.958,0,0,1,2.719-.75q2.82,0,2.82,2.984ZM32.117-4.047l-1.93.266a3.133,3.133,0,0,0-1.344.441,1.273,1.273,0,0,0-.453,1.121,1.221,1.221,0,0,0,.418.957,1.615,1.615,0,0,0,1.113.371A2.056,2.056,0,0,0,31.5-1.559a2.387,2.387,0,0,0,.621-1.691ZM39.984-6.7a1.567,1.567,0,0,0-.969-.258,1.635,1.635,0,0,0-1.371.773,3.576,3.576,0,0,0-.551,2.109V0H35.813V-8h1.281v1.648h.031a2.794,2.794,0,0,1,.836-1.316,1.906,1.906,0,0,1,1.258-.473,2.092,2.092,0,0,1,.766.109Z" transform="translate(399.57 11768.8)" fill="#fff"/>
    <path id="Trazado_191721" data-name="Trazado 191721" d="M5.469-6.7A1.567,1.567,0,0,0,4.5-6.961a1.635,1.635,0,0,0-1.371.773,3.576,3.576,0,0,0-.551,2.109V0H1.3V-8H2.578v1.648h.031a2.793,2.793,0,0,1,.836-1.316A1.906,1.906,0,0,1,4.7-8.141a2.092,2.092,0,0,1,.766.109Z" transform="translate(440.91 11768.8)" fill="#fff"/>
    <path id="Trazado_191722" data-name="Trazado 191722" d="M4.641.188A3.711,3.711,0,0,1,1.809-.934,4.153,4.153,0,0,1,.75-3.906a4.326,4.326,0,0,1,1.1-3.148A3.96,3.96,0,0,1,4.828-8.187a3.588,3.588,0,0,1,2.793,1.1,4.368,4.368,0,0,1,1,3.055A4.3,4.3,0,0,1,7.543-.965,3.791,3.791,0,0,1,4.641.188Zm.094-7.3a2.437,2.437,0,0,0-1.953.84,3.449,3.449,0,0,0-.719,2.316,3.262,3.262,0,0,0,.727,2.242,2.469,2.469,0,0,0,1.945.82,2.342,2.342,0,0,0,1.91-.8,3.492,3.492,0,0,0,.668-2.289A3.552,3.552,0,0,0,6.645-6.3,2.332,2.332,0,0,0,4.734-7.109ZM11.953,0H10.672V-11.844h1.281Zm3.875,0H14.547V-11.844h1.281Zm5.938.188A3.711,3.711,0,0,1,18.934-.934a4.153,4.153,0,0,1-1.059-2.973,4.326,4.326,0,0,1,1.1-3.148,3.96,3.96,0,0,1,2.977-1.133,3.588,3.588,0,0,1,2.793,1.1,4.368,4.368,0,0,1,1,3.055A4.3,4.3,0,0,1,24.668-.965,3.791,3.791,0,0,1,21.766.188Zm.094-7.3a2.437,2.437,0,0,0-1.953.84,3.449,3.449,0,0,0-.719,2.316,3.262,3.262,0,0,0,.727,2.242,2.469,2.469,0,0,0,1.945.82,2.342,2.342,0,0,0,1.91-.8,3.492,3.492,0,0,0,.668-2.289A3.552,3.552,0,0,0,23.77-6.3,2.332,2.332,0,0,0,21.859-7.109Z" transform="translate(446.17 11768.8)" fill="#fff"/>
    <path id="Trazado_191723" data-name="Trazado 191723" d="M1.469,0V-11.2H4.563q5.922,0,5.922,5.461A5.5,5.5,0,0,1,8.84-1.574,6.1,6.1,0,0,1,4.438,0ZM2.781-10.016v8.828H4.453a4.745,4.745,0,0,0,3.43-1.18A4.422,4.422,0,0,0,9.109-5.711q0-4.3-4.578-4.3Zm10.391-.016a.812.812,0,0,1-.586-.234.791.791,0,0,1-.242-.594.8.8,0,0,1,.242-.6.8.8,0,0,1,.586-.238.827.827,0,0,1,.6.238.8.8,0,0,1,.246.6.792.792,0,0,1-.246.586A.82.82,0,0,1,13.172-10.031ZM13.8,0H12.516V-8H13.8Zm2.109-.289V-1.664a3.792,3.792,0,0,0,2.3.773q1.688,0,1.688-1.125a.976.976,0,0,0-.145-.543,1.44,1.44,0,0,0-.391-.395,3.007,3.007,0,0,0-.578-.309q-.332-.137-.715-.285a9.207,9.207,0,0,1-.934-.426,2.82,2.82,0,0,1-.672-.484,1.8,1.8,0,0,1-.406-.613,2.17,2.17,0,0,1-.137-.8,1.912,1.912,0,0,1,.258-1,2.286,2.286,0,0,1,.688-.727,3.206,3.206,0,0,1,.98-.441,4.349,4.349,0,0,1,1.137-.148,4.59,4.59,0,0,1,1.859.359v1.3a3.624,3.624,0,0,0-2.031-.578,2.374,2.374,0,0,0-.648.082,1.587,1.587,0,0,0-.5.23,1.065,1.065,0,0,0-.32.355.936.936,0,0,0-.113.457,1.1,1.1,0,0,0,.113.523,1.152,1.152,0,0,0,.332.375,2.538,2.538,0,0,0,.531.3q.313.133.711.289a9.9,9.9,0,0,1,.953.418,3.269,3.269,0,0,1,.719.484,1.893,1.893,0,0,1,.457.621,2,2,0,0,1,.16.836,1.971,1.971,0,0,1-.262,1.031,2.243,2.243,0,0,1-.7.727,3.2,3.2,0,0,1-1.008.43,4.976,4.976,0,0,1-1.2.141A4.539,4.539,0,0,1,15.906-.289Zm13.7-3.391H23.961a2.992,2.992,0,0,0,.719,2.063,2.478,2.478,0,0,0,1.891.727,3.931,3.931,0,0,0,2.484-.891v1.2a4.643,4.643,0,0,1-2.789.766A3.381,3.381,0,0,1,23.6-.9a4.461,4.461,0,0,1-.969-3.066,4.375,4.375,0,0,1,1.059-3.043A3.394,3.394,0,0,1,26.32-8.187a3.008,3.008,0,0,1,2.43,1.016,4.234,4.234,0,0,1,.859,2.82ZM28.3-4.766a2.607,2.607,0,0,0-.535-1.727A1.823,1.823,0,0,0,26.3-7.109a2.07,2.07,0,0,0-1.539.648,2.943,2.943,0,0,0-.781,1.7ZM38.188,0H36.906V-4.562q0-2.547-1.859-2.547a2.017,2.017,0,0,0-1.59.723,2.679,2.679,0,0,0-.629,1.824V0H31.547V-8h1.281v1.328h.031a2.887,2.887,0,0,1,2.625-1.516,2.448,2.448,0,0,1,2.008.848,3.776,3.776,0,0,1,.7,2.449Zm-.844-11.391a2.235,2.235,0,0,1-.375,1.34,1.188,1.188,0,0,1-1.016.52,2.621,2.621,0,0,1-1.266-.406,2.143,2.143,0,0,0-.93-.336q-.687,0-.687.883h-.734a2.192,2.192,0,0,1,.375-1.34,1.23,1.23,0,0,1,1.047-.5,2.286,2.286,0,0,1,1.164.406,2.043,2.043,0,0,0,1,.344q.656,0,.656-.906ZM43.945.188A3.711,3.711,0,0,1,41.113-.934a4.153,4.153,0,0,1-1.059-2.973,4.326,4.326,0,0,1,1.1-3.148,3.96,3.96,0,0,1,2.977-1.133,3.588,3.588,0,0,1,2.793,1.1,4.368,4.368,0,0,1,1,3.055A4.3,4.3,0,0,1,46.848-.965,3.791,3.791,0,0,1,43.945.188Zm.094-7.3a2.437,2.437,0,0,0-1.953.84,3.449,3.449,0,0,0-.719,2.316,3.262,3.262,0,0,0,.727,2.242,2.469,2.469,0,0,0,1.945.82,2.342,2.342,0,0,0,1.91-.8,3.492,3.492,0,0,0,.668-2.289A3.552,3.552,0,0,0,45.949-6.3,2.332,2.332,0,0,0,44.039-7.109Z" transform="translate(411.35 11797.8)" fill="#fff"/>
    <path id="Trazado_191724" data-name="Trazado 191724" d="M9.094-.469A6.571,6.571,0,0,1,6,.188,4.989,4.989,0,0,1,2.172-1.352,5.679,5.679,0,0,1,.734-5.391,5.952,5.952,0,0,1,2.352-9.734a5.489,5.489,0,0,1,4.1-1.656,6.576,6.576,0,0,1,2.641.461v1.4A5.355,5.355,0,0,0,6.438-10.2,4.076,4.076,0,0,0,3.309-8.914a4.856,4.856,0,0,0-1.2,3.445A4.621,4.621,0,0,0,3.23-2.207,3.815,3.815,0,0,0,6.172-.992a5.518,5.518,0,0,0,2.922-.75Zm5.453.656A3.711,3.711,0,0,1,11.715-.934a4.153,4.153,0,0,1-1.059-2.973,4.326,4.326,0,0,1,1.1-3.148,3.96,3.96,0,0,1,2.977-1.133,3.588,3.588,0,0,1,2.793,1.1,4.368,4.368,0,0,1,1,3.055A4.3,4.3,0,0,1,17.449-.965,3.791,3.791,0,0,1,14.547.188Zm.094-7.3a2.437,2.437,0,0,0-1.953.84,3.449,3.449,0,0,0-.719,2.316A3.262,3.262,0,0,0,12.7-1.711a2.469,2.469,0,0,0,1.945.82,2.342,2.342,0,0,0,1.91-.8,3.492,3.492,0,0,0,.668-2.289A3.552,3.552,0,0,0,16.551-6.3,2.332,2.332,0,0,0,14.641-7.109Zm1.875-4.969L14.469-9.516h-.992l1.742-2.562ZM27.406,0H26.125V-1.359h-.031A2.958,2.958,0,0,1,23.344.188a2.988,2.988,0,0,1-2.41-1.074,4.407,4.407,0,0,1-.9-2.926,4.794,4.794,0,0,1,1-3.18,3.3,3.3,0,0,1,2.664-1.2,2.564,2.564,0,0,1,2.4,1.3h.031v-4.953h1.281ZM26.125-3.617V-4.8a2.289,2.289,0,0,0-.641-1.641,2.149,2.149,0,0,0-1.625-.672,2.212,2.212,0,0,0-1.844.859,3.766,3.766,0,0,0-.672,2.375,3.387,3.387,0,0,0,.645,2.184,2.107,2.107,0,0,0,1.73.8,2.188,2.188,0,0,0,1.738-.773A2.882,2.882,0,0,0,26.125-3.617Zm4.531-6.414a.812.812,0,0,1-.586-.234.791.791,0,0,1-.242-.594.8.8,0,0,1,.242-.6.8.8,0,0,1,.586-.238.827.827,0,0,1,.6.238.8.8,0,0,1,.246.6.792.792,0,0,1-.246.586A.82.82,0,0,1,30.656-10.031ZM31.281,0H30V-8h1.281ZM40.7-.641q0,4.406-4.219,4.406A5.664,5.664,0,0,1,33.891,3.2V1.922a5.327,5.327,0,0,0,2.578.75q2.953,0,2.953-3.141v-.875h-.031A3,3,0,0,1,36.641.188a3,3,0,0,1-2.4-1.066,4.263,4.263,0,0,1-.91-2.863,4.981,4.981,0,0,1,.98-3.242,3.275,3.275,0,0,1,2.684-1.2,2.608,2.608,0,0,1,2.4,1.3h.031V-8H40.7ZM39.422-3.617V-4.8a2.289,2.289,0,0,0-.645-1.633,2.122,2.122,0,0,0-1.605-.68,2.225,2.225,0,0,0-1.859.863,3.853,3.853,0,0,0-.672,2.418,3.308,3.308,0,0,0,.645,2.137,2.082,2.082,0,0,0,1.707.8,2.23,2.23,0,0,0,1.754-.766A2.854,2.854,0,0,0,39.422-3.617Zm7.219,3.8A3.711,3.711,0,0,1,43.809-.934,4.153,4.153,0,0,1,42.75-3.906a4.326,4.326,0,0,1,1.1-3.148,3.96,3.96,0,0,1,2.977-1.133,3.588,3.588,0,0,1,2.793,1.1,4.368,4.368,0,0,1,1,3.055A4.3,4.3,0,0,1,49.543-.965,3.791,3.791,0,0,1,46.641.188Zm.094-7.3a2.437,2.437,0,0,0-1.953.84,3.449,3.449,0,0,0-.719,2.316,3.262,3.262,0,0,0,.727,2.242,2.469,2.469,0,0,0,1.945.82,2.342,2.342,0,0,0,1.91-.8,3.492,3.492,0,0,0,.668-2.289A3.552,3.552,0,0,0,48.645-6.3,2.332,2.332,0,0,0,46.734-7.109Z" transform="translate(410.61 11826.8)" fill="#fff"/>
    <path id="Trazado_191725" data-name="Trazado 191725" d="M9.094-.469A6.571,6.571,0,0,1,6,.188,4.989,4.989,0,0,1,2.172-1.352,5.679,5.679,0,0,1,.734-5.391,5.952,5.952,0,0,1,2.352-9.734a5.489,5.489,0,0,1,4.1-1.656,6.576,6.576,0,0,1,2.641.461v1.4A5.355,5.355,0,0,0,6.438-10.2,4.076,4.076,0,0,0,3.309-8.914a4.856,4.856,0,0,0-1.2,3.445A4.621,4.621,0,0,0,3.23-2.207,3.815,3.815,0,0,0,6.172-.992a5.518,5.518,0,0,0,2.922-.75Zm5.453.656A3.711,3.711,0,0,1,11.715-.934a4.153,4.153,0,0,1-1.059-2.973,4.326,4.326,0,0,1,1.1-3.148,3.96,3.96,0,0,1,2.977-1.133,3.588,3.588,0,0,1,2.793,1.1,4.368,4.368,0,0,1,1,3.055A4.3,4.3,0,0,1,17.449-.965,3.791,3.791,0,0,1,14.547.188Zm.094-7.3a2.437,2.437,0,0,0-1.953.84,3.449,3.449,0,0,0-.719,2.316A3.262,3.262,0,0,0,12.7-1.711a2.469,2.469,0,0,0,1.945.82,2.342,2.342,0,0,0,1.91-.8,3.492,3.492,0,0,0,.668-2.289A3.552,3.552,0,0,0,16.551-6.3,2.332,2.332,0,0,0,14.641-7.109ZM31.938,0H30.656V-4.594a3.466,3.466,0,0,0-.41-1.922,1.555,1.555,0,0,0-1.379-.594,1.708,1.708,0,0,0-1.395.75,2.869,2.869,0,0,0-.574,1.8V0H25.617V-4.75q0-2.359-1.82-2.359a1.686,1.686,0,0,0-1.391.707,2.923,2.923,0,0,0-.547,1.84V0H20.578V-8h1.281v1.266h.031a2.718,2.718,0,0,1,2.484-1.453,2.316,2.316,0,0,1,1.43.457,2.3,2.3,0,0,1,.836,1.2A2.855,2.855,0,0,1,29.3-8.187q2.641,0,2.641,3.258Zm3.734-1.156h-.031V3.68H34.359V-8h1.281v1.406h.031a3.03,3.03,0,0,1,2.766-1.594,2.93,2.93,0,0,1,2.414,1.074,4.449,4.449,0,0,1,.867,2.879,4.959,4.959,0,0,1-.977,3.215A3.251,3.251,0,0,1,38.07.188,2.676,2.676,0,0,1,35.672-1.156Zm-.031-3.227v1.117a2.379,2.379,0,0,0,.645,1.684,2.14,2.14,0,0,0,1.637.691,2.145,2.145,0,0,0,1.824-.891,4.086,4.086,0,0,0,.66-2.477,3.225,3.225,0,0,0-.617-2.094,2.043,2.043,0,0,0-1.672-.758,2.27,2.27,0,0,0-1.8.777A2.854,2.854,0,0,0,35.641-4.383Zm8.781-5.648a.812.812,0,0,1-.586-.234.791.791,0,0,1-.242-.594.8.8,0,0,1,.242-.6.8.8,0,0,1,.586-.238.827.827,0,0,1,.6.238.8.8,0,0,1,.246.6.792.792,0,0,1-.246.586A.82.82,0,0,1,44.422-10.031ZM45.047,0H43.766V-8h1.281Zm3.875,0H47.641V-11.844h1.281Zm8.32,0H55.961V-1.25H55.93A2.682,2.682,0,0,1,53.469.188,2.63,2.63,0,0,1,51.6-.445a2.192,2.192,0,0,1-.676-1.68q0-2.242,2.641-2.609l2.4-.336q0-2.039-1.648-2.039a3.938,3.938,0,0,0-2.609.984V-7.437a4.958,4.958,0,0,1,2.719-.75q2.82,0,2.82,2.984ZM55.961-4.047l-1.93.266a3.133,3.133,0,0,0-1.344.441,1.273,1.273,0,0,0-.453,1.121,1.221,1.221,0,0,0,.418.957,1.615,1.615,0,0,0,1.113.371,2.056,2.056,0,0,0,1.574-.668,2.387,2.387,0,0,0,.621-1.691Zm9.148,3.68a4.163,4.163,0,0,1-2.187.555A3.622,3.622,0,0,1,60.16-.926a4.035,4.035,0,0,1-1.051-2.887,4.435,4.435,0,0,1,1.133-3.176,3.963,3.963,0,0,1,3.023-1.2,4.209,4.209,0,0,1,1.859.391v1.313a3.258,3.258,0,0,0-1.906-.625,2.576,2.576,0,0,0-2.012.879,3.335,3.335,0,0,0-.785,2.309A3.176,3.176,0,0,0,61.16-1.7a2.545,2.545,0,0,0,1.98.813,3.211,3.211,0,0,0,1.969-.7ZM67.7-10.031a.812.812,0,0,1-.586-.234.791.791,0,0,1-.242-.594.8.8,0,0,1,.242-.6A.8.8,0,0,1,67.7-11.7a.827.827,0,0,1,.6.238.8.8,0,0,1,.246.6.792.792,0,0,1-.246.586A.82.82,0,0,1,67.7-10.031ZM68.328,0H67.047V-8h1.281Zm5.938.188A3.711,3.711,0,0,1,71.434-.934a4.153,4.153,0,0,1-1.059-2.973,4.326,4.326,0,0,1,1.1-3.148,3.96,3.96,0,0,1,2.977-1.133,3.588,3.588,0,0,1,2.793,1.1,4.368,4.368,0,0,1,1,3.055A4.3,4.3,0,0,1,77.168-.965,3.791,3.791,0,0,1,74.266.188Zm.094-7.3a2.437,2.437,0,0,0-1.953.84,3.449,3.449,0,0,0-.719,2.316,3.262,3.262,0,0,0,.727,2.242,2.469,2.469,0,0,0,1.945.82,2.342,2.342,0,0,0,1.91-.8,3.492,3.492,0,0,0,.668-2.289A3.552,3.552,0,0,0,76.27-6.3,2.332,2.332,0,0,0,74.359-7.109Zm1.875-4.969L74.188-9.516H73.2l1.742-2.562ZM86.938,0H85.656V-4.562q0-2.547-1.859-2.547a2.017,2.017,0,0,0-1.59.723,2.679,2.679,0,0,0-.629,1.824V0H80.3V-8h1.281v1.328h.031a2.887,2.887,0,0,1,2.625-1.516,2.448,2.448,0,0,1,2.008.848,3.776,3.776,0,0,1,.7,2.449Z" transform="translate(391.27 11855.8)" fill="#fff"/>
    <path id="Trazado_191726" data-name="Trazado 191726" d="M2.781-4.234V0H1.469V-11.2H4.547a4.063,4.063,0,0,1,2.785.875A3.124,3.124,0,0,1,8.32-7.859a3.4,3.4,0,0,1-1.1,2.609A4.194,4.194,0,0,1,4.258-4.234Zm0-5.781v4.594H4.156A3.074,3.074,0,0,0,6.23-6.043,2.2,2.2,0,0,0,6.945-7.8q0-2.219-2.625-2.219ZM14.43-6.7a1.567,1.567,0,0,0-.969-.258,1.635,1.635,0,0,0-1.371.773,3.576,3.576,0,0,0-.551,2.109V0H10.258V-8h1.281v1.648h.031a2.793,2.793,0,0,1,.836-1.316,1.906,1.906,0,0,1,1.258-.473,2.092,2.092,0,0,1,.766.109ZM22.289,0H21.008V-1.266h-.031A2.631,2.631,0,0,1,18.508.188q-2.859,0-2.859-3.406V-8h1.273v4.578q0,2.531,1.938,2.531A1.96,1.96,0,0,0,20.4-1.582a2.645,2.645,0,0,0,.605-1.809V-8h1.281ZM31.3-3.68H25.656a2.992,2.992,0,0,0,.719,2.063,2.478,2.478,0,0,0,1.891.727,3.931,3.931,0,0,0,2.484-.891v1.2a4.643,4.643,0,0,1-2.789.766A3.381,3.381,0,0,1,25.3-.9a4.461,4.461,0,0,1-.969-3.066,4.375,4.375,0,0,1,1.059-3.043,3.394,3.394,0,0,1,2.629-1.176,3.008,3.008,0,0,1,2.43,1.016,4.234,4.234,0,0,1,.859,2.82ZM29.992-4.766a2.607,2.607,0,0,0-.535-1.727,1.823,1.823,0,0,0-1.465-.617,2.07,2.07,0,0,0-1.539.648,2.943,2.943,0,0,0-.781,1.7Zm4.563,3.609h-.031V0H33.242V-11.844h1.281v5.25h.031A3.03,3.03,0,0,1,37.32-8.187a2.932,2.932,0,0,1,2.41,1.074A4.436,4.436,0,0,1,40.6-4.234a4.959,4.959,0,0,1-.977,3.215A3.251,3.251,0,0,1,36.953.188,2.631,2.631,0,0,1,34.555-1.156Zm-.031-3.227v1.117a2.379,2.379,0,0,0,.645,1.684A2.14,2.14,0,0,0,36.8-.891a2.145,2.145,0,0,0,1.824-.891,4.086,4.086,0,0,0,.66-2.477,3.225,3.225,0,0,0-.617-2.094A2.043,2.043,0,0,0,37-7.109a2.27,2.27,0,0,0-1.8.777A2.854,2.854,0,0,0,34.523-4.383ZM48.375,0H47.094V-1.25h-.031A2.682,2.682,0,0,1,44.6.188,2.63,2.63,0,0,1,42.73-.445a2.192,2.192,0,0,1-.676-1.68q0-2.242,2.641-2.609l2.4-.336q0-2.039-1.648-2.039a3.938,3.938,0,0,0-2.609.984V-7.437a4.958,4.958,0,0,1,2.719-.75q2.82,0,2.82,2.984ZM47.094-4.047l-1.93.266a3.133,3.133,0,0,0-1.344.441,1.273,1.273,0,0,0-.453,1.121,1.221,1.221,0,0,0,.418.957A1.615,1.615,0,0,0,44.9-.891a2.056,2.056,0,0,0,1.574-.668,2.387,2.387,0,0,0,.621-1.691ZM50.3-.289V-1.664a3.792,3.792,0,0,0,2.3.773q1.688,0,1.688-1.125a.976.976,0,0,0-.145-.543,1.44,1.44,0,0,0-.391-.395,3.007,3.007,0,0,0-.578-.309q-.332-.137-.715-.285a9.207,9.207,0,0,1-.934-.426,2.82,2.82,0,0,1-.672-.484,1.8,1.8,0,0,1-.406-.613,2.17,2.17,0,0,1-.137-.8,1.912,1.912,0,0,1,.258-1,2.286,2.286,0,0,1,.688-.727,3.206,3.206,0,0,1,.98-.441,4.349,4.349,0,0,1,1.137-.148,4.59,4.59,0,0,1,1.859.359v1.3a3.624,3.624,0,0,0-2.031-.578,2.374,2.374,0,0,0-.648.082,1.587,1.587,0,0,0-.5.23,1.065,1.065,0,0,0-.32.355.936.936,0,0,0-.113.457,1.1,1.1,0,0,0,.113.523,1.152,1.152,0,0,0,.332.375,2.538,2.538,0,0,0,.531.3q.312.133.711.289a9.894,9.894,0,0,1,.953.418,3.269,3.269,0,0,1,.719.484,1.893,1.893,0,0,1,.457.621,2,2,0,0,1,.16.836,1.971,1.971,0,0,1-.262,1.031,2.243,2.243,0,0,1-.7.727,3.2,3.2,0,0,1-1.008.43,4.976,4.976,0,0,1-1.2.141A4.539,4.539,0,0,1,50.3-.289Z" transform="translate(406.51 11884.8)" fill="#fff"/>
    <path id="Trazado_191727" data-name="Trazado 191727" d="M2.781-4.234V0H1.469V-11.2H4.547a4.063,4.063,0,0,1,2.785.875A3.124,3.124,0,0,1,8.32-7.859a3.4,3.4,0,0,1-1.1,2.609A4.194,4.194,0,0,1,4.258-4.234Zm0-5.781v4.594H4.156A3.074,3.074,0,0,0,6.23-6.043,2.2,2.2,0,0,0,6.945-7.8q0-2.219-2.625-2.219ZM21.852,0h-1.3V-7.516q0-.891.109-2.18h-.031a6.968,6.968,0,0,1-.336,1.086L16.461,0H15.82L12-8.547A6.7,6.7,0,0,1,11.664-9.7h-.031q.063.672.063,2.2V0H10.43V-11.2h1.734L15.6-3.391a10,10,0,0,1,.516,1.344h.047q.336-.922.539-1.375L20.211-11.2h1.641Z" transform="translate(423.85 11913.8)" fill="#fff"/>
    <path id="Trazado_187409" data-name="Trazado 187409" d="M151.8,133.75a42.51,42.51,0,0,1-41.66,34.06" transform="translate(183.69 11625.79)" fill="none" stroke="#0b3360" stroke-miterlimit="10" stroke-width="2"/>
    <path id="Trazado_187410" data-name="Trazado 187410" d="M145.59,134.74l7.04-9.42,4.64,10.81Z" transform="translate(183.69 11625.79)" fill="#0b3360"/>
    <path id="Trazado_187411" data-name="Trazado 187411" d="M359.44,212.58a31.37,31.37,0,0,1-30.23,23" transform="translate(183.69 11625.79)" fill="none" stroke="#0b3360" stroke-miterlimit="10" stroke-width="2"/>
    <path id="Trazado_187412" data-name="Trazado 187412" d="M353.18,213.33l7.4-9.15,4.22,10.98Z" transform="translate(183.69 11625.79)" fill="#0b3360"/>
    <path id="Trazado_187413" data-name="Trazado 187413" d="M151.8,243.71a42.51,42.51,0,0,0-41.66-34.06" transform="translate(183.69 11625.79)" fill="none" stroke="#0b3360" stroke-miterlimit="10" stroke-width="2"/>
    <path id="Trazado_187414" data-name="Trazado 187414" d="M157.27,241.32l-4.64,10.81-7.04-9.42Z" transform="translate(183.69 11625.79)" fill="#0b3360"/>
    <path id="Trazado_187415" data-name="Trazado 187415" d="M479.06,142.85c-12.63-19.6-70.38-34.41-139.72-34.41" transform="translate(183.69 11625.79)" fill="none" stroke="#0b3360" stroke-miterlimit="10" stroke-width="2"/>
    <path id="Trazado_187416" data-name="Trazado 187416" d="M483.65,139.34l-2.02,11.59-9.03-7.55Z" transform="translate(183.69 11625.79)" fill="#0b3360"/>
    <path id="Trazado_187417" data-name="Trazado 187417" d="M359.44,165.34a31.37,31.37,0,0,0-30.23-23" transform="translate(183.69 11625.79)" fill="none" stroke="#0b3360" stroke-miterlimit="10" stroke-width="2"/>
    <path id="Trazado_187418" data-name="Trazado 187418" d="M364.81,162.76l-4.23,10.98-7.4-9.15Z" transform="translate(183.69 11625.79)" fill="#0b3360"/>
  </g>
</svg>
