<?xml version="1.0" encoding="utf-8"?>
<!-- Generator: Adobe Illustrator 25.4.2, SVG Export Plug-In . SVG Version: 6.00 Build 0)  -->
<svg version="1.1" id="Capa_1" xmlns="http://www.w3.org/2000/svg" xmlns:xlink="http://www.w3.org/1999/xlink" x="0px" y="0px"
	 viewBox="0 0 1242 674" style="enable-background:new 0 0 1242 674;" xml:space="preserve">
<style type="text/css">
	.st0{fill:#F3F9FF;}
	.st1{fill:#12263F;}
	.st2{fill:none;stroke:#A0A8B2;}
</style>
<g id="Grupo_94300" transform="translate(-178 -1126)">
	<path id="Trazado_191762" class="st0" d="M178,1126h1242v674H178V1126z"/>
	<path id="Trazado_191728" class="st1" d="M882,1200h-4.9v4.4h4.6v1.3h-4.6v5.6h-1.5v-12.6h6.4L882,1200z M891.3,1207.2h-6.4
		c0,0.8,0.3,1.7,0.8,2.3c0.6,0.6,1.3,0.9,2.1,0.8c1,0,2-0.4,2.8-1v1.3c-0.9,0.6-2,0.9-3.1,0.9c-1.1,0.1-2.2-0.4-3-1.2
		c-0.8-1-1.2-2.2-1.1-3.4c-0.1-1.3,0.4-2.5,1.2-3.4c0.7-0.9,1.8-1.3,3-1.3c1-0.1,2,0.4,2.7,1.1c0.7,0.9,1,2,1,3.2V1207.2z
		 M889.8,1206c0-0.7-0.2-1.4-0.6-1.9c-0.4-0.5-1-0.7-1.6-0.7c-0.7,0-1.3,0.3-1.7,0.7c-0.5,0.5-0.8,1.2-0.9,1.9L889.8,1206z
		 M899.6,1210.9c-0.7,0.4-1.6,0.6-2.5,0.6c-1.2,0-2.3-0.4-3.1-1.3c-0.8-0.9-1.2-2.1-1.2-3.2c-0.1-1.3,0.4-2.6,1.3-3.6
		c0.9-0.9,2.1-1.4,3.4-1.3c0.7,0,1.4,0.1,2.1,0.4v1.5c-0.6-0.5-1.4-0.7-2.1-0.7c-0.9,0-1.7,0.3-2.3,1c-0.6,0.7-0.9,1.7-0.9,2.6
		c-0.1,0.9,0.2,1.8,0.8,2.5c0.6,0.6,1.4,0.9,2.2,0.9c0.8,0,1.6-0.3,2.2-0.8L899.6,1210.9z M909.2,1211.3h-1.4v-5.2
		c0-1.9-0.7-2.8-2.1-2.8c-0.7,0-1.3,0.3-1.8,0.8c-0.5,0.6-0.8,1.3-0.7,2.1v5.1h-1.4V1198h1.4v5.8h0c0.6-1.1,1.7-1.7,3-1.7
		c2,0,3,1.2,3,3.7L909.2,1211.3z M918.4,1211.3h-1.4v-1.4h0c-0.5,1-1.6,1.7-2.8,1.6c-0.8,0-1.5-0.2-2.1-0.7
		c-0.5-0.5-0.8-1.2-0.8-1.9c0-1.7,1-2.7,3-2.9l2.7-0.4c0-1.5-0.6-2.3-1.9-2.3c-1.1,0-2.1,0.4-2.9,1.1v-1.5c0.9-0.6,2-0.9,3.1-0.8
		c2.1,0,3.2,1.1,3.2,3.4L918.4,1211.3z M916.9,1206.8l-2.2,0.3c-0.5,0-1.1,0.2-1.5,0.5c-0.4,0.3-0.6,0.8-0.5,1.3
		c0,0.4,0.2,0.8,0.5,1.1c0.4,0.3,0.8,0.4,1.3,0.4c0.7,0,1.3-0.3,1.8-0.8c0.5-0.5,0.7-1.2,0.7-1.9L916.9,1206.8z M877.1,1249.7v4.8
		h-1.5v-12.6h3.5c1.1-0.1,2.2,0.3,3.1,1c0.8,0.7,1.2,1.7,1.1,2.8c0,1.1-0.4,2.2-1.2,2.9c-0.9,0.8-2.1,1.2-3.3,1.1H877.1z
		 M877.1,1243.2v5.2h1.5c0.8,0.1,1.7-0.2,2.3-0.7c0.6-0.5,0.8-1.2,0.8-2c0-1.7-1-2.5-3-2.5L877.1,1243.2z M890.2,1247
		c-0.3-0.2-0.7-0.3-1.1-0.3c-0.6,0-1.2,0.3-1.5,0.9c-0.4,0.7-0.7,1.5-0.6,2.4v4.6h-1.4v-9h1.4v1.9h0c0.2-0.6,0.5-1.1,0.9-1.5
		c0.4-0.3,0.9-0.5,1.4-0.5c0.3,0,0.6,0,0.9,0.1L890.2,1247z M895.3,1254.7c-1.2,0.1-2.4-0.4-3.2-1.3c-0.8-0.9-1.2-2.1-1.2-3.3
		c-0.1-1.3,0.4-2.6,1.2-3.5c0.9-0.9,2.1-1.3,3.3-1.3c1.2-0.1,2.3,0.4,3.1,1.2c0.8,1,1.2,2.2,1.1,3.4c0.1,1.3-0.4,2.5-1.2,3.4
		C897.8,1254.3,896.6,1254.8,895.3,1254.7L895.3,1254.7z M895.4,1246.5c-0.8,0-1.7,0.3-2.2,0.9c-0.6,0.7-0.9,1.7-0.8,2.6
		c-0.1,0.9,0.2,1.8,0.8,2.5c0.6,0.6,1.4,1,2.2,0.9c0.8,0,1.6-0.3,2.1-0.9c0.5-0.7,0.8-1.7,0.8-2.6c0.1-0.9-0.2-1.8-0.8-2.6
		C897.1,1246.8,896.3,1246.5,895.4,1246.5L895.4,1246.5z M909.8,1253.8c0,3.3-1.6,5-4.7,5c-1,0-2-0.2-2.9-0.6v-1.4
		c0.9,0.5,1.9,0.8,2.9,0.8c2.2,0,3.3-1.2,3.3-3.5v-1h0c-1.1,1.7-3.3,2.2-5,1.2c-0.3-0.2-0.6-0.4-0.8-0.7c-0.7-0.9-1.1-2.1-1-3.2
		c-0.1-1.3,0.3-2.6,1.1-3.6c0.7-0.9,1.9-1.4,3-1.4c1.1-0.1,2.1,0.5,2.7,1.5h0v-1.2h1.4V1253.8z M908.4,1250.4v-1.3
		c0-0.7-0.2-1.3-0.7-1.8c-0.5-0.5-1.1-0.8-1.8-0.8c-0.8,0-1.6,0.3-2.1,1c-0.5,0.8-0.8,1.8-0.8,2.7c0,0.9,0.2,1.7,0.7,2.4
		c0.5,0.6,1.2,0.9,1.9,0.9c0.8,0,1.5-0.3,2-0.9C908.1,1252,908.4,1251.2,908.4,1250.4z M917.4,1247c-0.3-0.2-0.7-0.3-1.1-0.3
		c-0.6,0-1.2,0.3-1.5,0.9c-0.4,0.7-0.7,1.5-0.6,2.4v4.6h-1.4v-9h1.4v1.9h0c0.2-0.6,0.5-1.1,0.9-1.5c0.4-0.3,0.9-0.5,1.4-0.5
		c0.3,0,0.6,0,0.9,0.1L917.4,1247z M925.1,1254.5h-1.4v-1.4h0c-0.5,1-1.6,1.7-2.8,1.6c-0.8,0-1.5-0.2-2.1-0.7
		c-0.5-0.5-0.8-1.2-0.8-1.9c0-1.7,1-2.7,3-2.9l2.7-0.4c0-1.5-0.6-2.3-1.9-2.3c-1.1,0-2.1,0.4-2.9,1.1v-1.5c0.9-0.6,2-0.9,3.1-0.8
		c2.1,0,3.2,1.1,3.2,3.4L925.1,1254.5z M923.6,1250l-2.2,0.3c-0.5,0-1.1,0.2-1.5,0.5c-0.4,0.3-0.6,0.8-0.5,1.3
		c0,0.4,0.2,0.8,0.5,1.1c0.4,0.3,0.8,0.4,1.3,0.4c0.7,0,1.3-0.3,1.8-0.8c0.5-0.5,0.7-1.2,0.7-1.9V1250z M940.6,1254.5h-1.4v-5.2
		c0.1-0.7-0.1-1.5-0.5-2.2c-0.4-0.5-1-0.7-1.6-0.7c-0.6,0-1.2,0.3-1.6,0.8c-0.4,0.6-0.7,1.3-0.6,2v5.1h-1.4v-5.3
		c0-1.8-0.7-2.7-2-2.7c-0.6,0-1.2,0.3-1.6,0.8c-0.4,0.6-0.6,1.3-0.6,2.1v5.1h-1.4v-9h1.4v1.4h0c0.5-1,1.6-1.7,2.8-1.6
		c1.2,0,2.2,0.7,2.5,1.9c0.5-1.2,1.7-1.9,3-1.9c2,0,3,1.2,3,3.7L940.6,1254.5z M949.7,1254.5h-1.4v-1.4h0c-0.5,1-1.6,1.7-2.8,1.6
		c-0.8,0-1.5-0.2-2.1-0.7c-0.5-0.5-0.8-1.2-0.8-1.9c0-1.7,1-2.7,3-2.9l2.7-0.4c0-1.5-0.6-2.3-1.9-2.3c-1.1,0-2.1,0.4-2.9,1.1v-1.5
		c0.9-0.6,2-0.9,3.1-0.8c2.1,0,3.2,1.1,3.2,3.4L949.7,1254.5z M948.3,1250l-2.2,0.3c-0.5,0-1.1,0.2-1.5,0.5
		c-0.4,0.3-0.6,0.8-0.5,1.3c0,0.4,0.2,0.8,0.5,1.1c0.4,0.3,0.8,0.4,1.3,0.4c0.7,0,1.3-0.3,1.8-0.8c0.5-0.5,0.7-1.2,0.7-1.9V1250z
		 M966.2,1245.4l-0.2,0.9h-2.3l-0.6,2.6h2.5l-0.2,0.9h-2.4l-0.8,3.5H961l0.8-3.5h-2.2l-0.7,3.5h-1.1l0.7-3.5h-2.3l0.2-0.9h2.3
		l0.5-2.6h-2.4l0.2-0.9h2.4l0.7-3.5h1.1l-0.7,3.5h2.2l0.8-3.5h1.1l-0.7,3.5L966.2,1245.4z M962.6,1246.4h-2.2l-0.6,2.6h2.2
		L962.6,1246.4z"/>
	<path id="Trazado_191729" class="st1" d="M236.5,1156.7H232v3.1h4.1v2.3H232v4.9h-2.8v-12.6h7.3V1156.7z M242.4,1167.2
		c-1.3,0.1-2.6-0.4-3.5-1.3c-0.9-0.9-1.4-2.2-1.3-3.4c-0.1-1.3,0.4-2.6,1.3-3.5c1-0.9,2.3-1.3,3.6-1.3c1.3-0.1,2.6,0.4,3.5,1.3
		c0.9,0.9,1.3,2.1,1.3,3.3c0.1,1.3-0.4,2.6-1.3,3.5C245,1166.8,243.7,1167.3,242.4,1167.2z M242.5,1159.9c-0.6,0-1.2,0.2-1.5,0.7
		c-0.4,0.6-0.6,1.2-0.5,1.9c0,1.7,0.7,2.6,2.1,2.6c1.3,0,2-0.9,2-2.7C244.5,1160.7,243.8,1159.9,242.5,1159.9L242.5,1159.9z
		 M255,1160.5c-0.4-0.2-0.8-0.3-1.2-0.3c-0.6,0-1.1,0.2-1.4,0.7c-0.4,0.5-0.5,1.2-0.5,1.8v4.3h-2.8v-9h2.8v1.7h0
		c0.3-1.1,1.3-1.8,2.4-1.8c0.2,0,0.5,0,0.7,0.1V1160.5z M270.6,1167h-2.8v-5.1c0-1.3-0.5-2-1.4-2c-0.4,0-0.9,0.2-1.1,0.6
		c-0.3,0.4-0.5,0.9-0.4,1.5v5h-2.8v-5.2c0-1.3-0.5-1.9-1.4-1.9c-0.4,0-0.9,0.2-1.1,0.6c-0.3,0.4-0.5,1-0.4,1.5v5h-2.8v-9h2.8v1.4h0
		c0.3-0.5,0.7-0.9,1.2-1.2c0.5-0.3,1.1-0.5,1.7-0.5c1.1-0.1,2.2,0.6,2.6,1.7c0.6-1.1,1.8-1.7,3-1.7c2,0,2.9,1.2,2.9,3.6V1167z
		 M280.3,1167h-2.6v-1.3h0c-0.5,1-1.6,1.6-2.7,1.5c-0.8,0-1.5-0.2-2.1-0.7c-0.5-0.5-0.8-1.2-0.8-2c0-1.7,1-2.8,3.1-3l2.4-0.3
		c0-1-0.5-1.5-1.6-1.5c-1.1,0-2.2,0.3-3.1,1v-2.1c0.5-0.2,1-0.4,1.6-0.5c0.6-0.1,1.2-0.2,1.8-0.2c2.6,0,3.8,1.3,3.8,3.8L280.3,1167z
		 M277.7,1163.3v-0.6l-1.6,0.2c-0.9,0.1-1.4,0.5-1.4,1.2c0,0.3,0.1,0.6,0.3,0.8c0.2,0.2,0.6,0.3,0.9,0.3c0.5,0,0.9-0.2,1.3-0.5
		C277.5,1164.3,277.7,1163.8,277.7,1163.3L277.7,1163.3z M287.9,1166.9c-0.6,0.3-1.2,0.4-1.9,0.3c-2,0-2.9-1-2.9-3v-4.1h-1.5v-2h1.5
		v-1.9l2.8-0.8v2.7h2v2h-2v3.6c0,0.9,0.4,1.4,1.1,1.4c0.3,0,0.6-0.1,0.9-0.3V1166.9z M293.5,1167.2c-1.3,0.1-2.6-0.4-3.5-1.3
		c-0.9-0.9-1.4-2.2-1.3-3.4c-0.1-1.3,0.4-2.6,1.3-3.5c1-0.9,2.3-1.3,3.6-1.3c1.3-0.1,2.6,0.4,3.5,1.3c0.9,0.9,1.3,2.1,1.3,3.3
		c0.1,1.3-0.4,2.6-1.3,3.5C296.2,1166.8,294.9,1167.3,293.5,1167.2L293.5,1167.2z M293.6,1159.9c-0.6,0-1.2,0.2-1.5,0.7
		c-0.4,0.6-0.6,1.2-0.5,1.9c0,1.7,0.7,2.6,2.1,2.6c1.3,0,2-0.9,2-2.7C295.6,1160.7,294.9,1159.9,293.6,1159.9L293.6,1159.9z
		 M314,1167h-2.8v-1.2h0c-0.6,1-1.7,1.5-2.8,1.5c-1,0-2-0.4-2.7-1.2c-0.7-0.9-1.1-2.1-1-3.3c-0.1-1.3,0.3-2.6,1.1-3.6
		c0.7-0.9,1.8-1.4,3-1.3c1-0.1,1.9,0.4,2.4,1.2h0v-5.4h2.8L314,1167z M311.3,1162.6v-0.7c0-0.5-0.2-1.1-0.5-1.5
		c-0.3-0.4-0.8-0.6-1.3-0.6c-0.6,0-1.1,0.3-1.4,0.7c-0.4,0.6-0.6,1.3-0.5,2c0,0.6,0.1,1.3,0.5,1.8c0.3,0.4,0.8,0.7,1.4,0.6
		c0.5,0,1.1-0.2,1.4-0.7C311.1,1163.9,311.3,1163.3,311.3,1162.6z M324.5,1163.3h-5.9c0.1,1.3,0.9,2,2.5,2c0.9,0,1.8-0.2,2.6-0.7v2
		c-1,0.5-2.1,0.7-3.2,0.7c-1.2,0.1-2.5-0.4-3.4-1.2c-0.8-0.9-1.3-2.1-1.2-3.4c-0.1-1.3,0.4-2.6,1.3-3.6c0.8-0.9,2-1.3,3.2-1.3
		c1.1-0.1,2.2,0.4,3,1.2c0.8,0.9,1.1,2,1.1,3.2V1163.3z M321.9,1161.6c0-1.3-0.5-1.9-1.6-1.9c-0.4,0-0.9,0.2-1.2,0.6
		c-0.3,0.4-0.5,0.9-0.6,1.4H321.9z M328.9,1167h-2.8v-13.3h2.8L328.9,1167z M347,1167h-3.3l-2-3.2c-0.1-0.2-0.3-0.5-0.4-0.7
		c-0.1-0.2-0.3-0.3-0.4-0.5c-0.1-0.1-0.3-0.2-0.4-0.3c-0.2-0.1-0.3-0.1-0.5-0.1h-0.8v4.8h-2.8v-12.6h4.5c3.1,0,4.6,1.1,4.6,3.4
		c0,0.4-0.1,0.8-0.2,1.2c-0.1,0.4-0.3,0.7-0.6,1c-0.3,0.3-0.6,0.6-0.9,0.8c-0.4,0.2-0.8,0.4-1.2,0.5v0c0.2,0.1,0.4,0.2,0.5,0.3
		c0.2,0.1,0.4,0.3,0.5,0.5c0.2,0.2,0.3,0.4,0.5,0.6c0.1,0.2,0.3,0.4,0.4,0.6L347,1167z M339.3,1156.5v3.5h1.2c0.5,0,1.1-0.2,1.5-0.5
		c0.4-0.3,0.6-0.8,0.6-1.3c0-1.1-0.7-1.7-2-1.7L339.3,1156.5z M355.6,1163.3h-5.9c0.1,1.3,0.9,2,2.5,2c0.9,0,1.8-0.2,2.6-0.7v2
		c-1,0.5-2.1,0.7-3.2,0.7c-1.2,0.1-2.5-0.4-3.4-1.2c-0.8-0.9-1.3-2.1-1.2-3.4c-0.1-1.3,0.4-2.6,1.3-3.6c0.8-0.9,2-1.3,3.2-1.3
		c1.1-0.1,2.2,0.4,3,1.2c0.8,0.9,1.1,2,1.1,3.2L355.6,1163.3z M353,1161.6c0-1.3-0.5-1.9-1.6-1.9c-0.4,0-0.9,0.2-1.2,0.6
		c-0.3,0.4-0.5,0.9-0.6,1.4H353z M366,1166c0.1,1.4-0.4,2.9-1.4,3.9c-1.2,1-2.7,1.5-4.2,1.4c-1,0-2-0.1-2.9-0.5v-2.3
		c0.8,0.5,1.8,0.8,2.8,0.8c0.8,0,1.6-0.2,2.2-0.7c0.5-0.5,0.8-1.3,0.8-2v-0.7h0c-0.6,1-1.7,1.6-2.8,1.5c-1.1,0-2.1-0.4-2.7-1.2
		c-0.7-0.9-1.1-2.1-1-3.3c-0.1-1.3,0.3-2.6,1.1-3.6c0.7-0.9,1.8-1.4,3-1.3c1-0.1,1.9,0.4,2.5,1.3h0v-1h2.8V1166z M363.3,1162.7v-0.7
		c0-0.5-0.2-1-0.5-1.5c-0.3-0.4-0.8-0.6-1.3-0.6c-0.6,0-1.1,0.3-1.5,0.7c-0.4,0.6-0.6,1.3-0.5,2c0,0.6,0.1,1.3,0.5,1.8
		c0.3,0.4,0.8,0.7,1.4,0.7c0.5,0,1.1-0.2,1.4-0.7C363.1,1163.9,363.3,1163.3,363.3,1162.7L363.3,1162.7z M369.8,1156.6
		c-0.4,0-0.8-0.1-1.2-0.4c-0.3-0.3-0.5-0.6-0.4-1c0-0.4,0.2-0.8,0.4-1c0.3-0.3,0.7-0.4,1.2-0.4c0.4,0,0.8,0.1,1.2,0.4
		c0.3,0.3,0.5,0.6,0.4,1c0,0.4-0.2,0.8-0.4,1C370.6,1156.4,370.2,1156.6,369.8,1156.6L369.8,1156.6z M371.1,1167h-2.8v-9h2.8V1167z
		 M372.9,1166.8v-2.2c0.4,0.3,0.9,0.5,1.4,0.6c0.4,0.1,0.9,0.2,1.3,0.2c0.4,0,0.8-0.1,1.2-0.2c0.3-0.1,0.4-0.3,0.4-0.6
		c0-0.2-0.1-0.3-0.2-0.4c-0.1-0.1-0.3-0.2-0.5-0.3c-0.2-0.1-0.4-0.2-0.7-0.2c-0.2-0.1-0.5-0.1-0.7-0.2c-0.3-0.1-0.6-0.3-0.9-0.4
		c-0.3-0.1-0.5-0.3-0.7-0.5c-0.2-0.2-0.3-0.4-0.4-0.7c-0.1-0.3-0.2-0.6-0.1-1c0-0.5,0.1-0.9,0.3-1.3c0.2-0.4,0.5-0.7,0.9-0.9
		c0.4-0.2,0.8-0.4,1.3-0.5c0.5-0.1,1-0.2,1.5-0.2c0.4,0,0.8,0,1.2,0.1c0.4,0.1,0.8,0.2,1.2,0.3v2.1c-0.4-0.2-0.7-0.4-1.1-0.5
		c-0.4-0.1-0.8-0.2-1.2-0.2c-0.2,0-0.3,0-0.5,0c-0.1,0-0.3,0.1-0.4,0.1c-0.1,0.1-0.2,0.1-0.3,0.2c-0.1,0.1-0.1,0.2-0.1,0.3
		c0,0.2,0.1,0.3,0.2,0.4c0.1,0.1,0.3,0.2,0.4,0.3c0.2,0.1,0.4,0.2,0.6,0.2c0.2,0.1,0.4,0.1,0.6,0.2c0.3,0.1,0.7,0.3,1,0.4
		c0.3,0.1,0.5,0.3,0.8,0.5c0.2,0.2,0.4,0.4,0.5,0.7c0.1,0.3,0.2,0.6,0.2,1c0,0.5-0.1,1-0.3,1.4c-0.2,0.4-0.5,0.7-0.9,0.9
		c-0.4,0.2-0.9,0.4-1.3,0.5c-0.5,0.1-1,0.2-1.6,0.2C374.7,1167.2,373.8,1167.1,372.9,1166.8L372.9,1166.8z M386.8,1166.9
		c-0.6,0.3-1.2,0.4-1.9,0.3c-2,0-2.9-1-2.9-3v-4.1h-1.5v-2h1.5v-1.9l2.8-0.8v2.7h2v2h-2v3.6c0,0.9,0.4,1.4,1.1,1.4
		c0.3,0,0.6-0.1,0.9-0.3V1166.9z M394.3,1160.5c-0.4-0.2-0.8-0.3-1.2-0.3c-0.6,0-1.1,0.2-1.4,0.7c-0.4,0.5-0.5,1.2-0.5,1.8v4.3h-2.8
		v-9h2.8v1.7h0c0.3-1.1,1.3-1.8,2.4-1.8c0.2,0,0.5,0,0.7,0.1L394.3,1160.5z M399.4,1167.2c-1.3,0.1-2.6-0.4-3.5-1.3
		c-0.9-0.9-1.4-2.2-1.3-3.4c-0.1-1.3,0.4-2.6,1.3-3.5c1-0.9,2.3-1.3,3.6-1.3c1.3-0.1,2.6,0.4,3.5,1.3c0.9,0.9,1.3,2.1,1.3,3.3
		c0.1,1.3-0.4,2.6-1.3,3.5C402.1,1166.8,400.8,1167.3,399.4,1167.2z M399.5,1159.9c-0.6,0-1.2,0.2-1.5,0.7c-0.4,0.6-0.6,1.2-0.5,1.9
		c0,1.7,0.7,2.6,2.1,2.6c1.3,0,2-0.9,2-2.7C401.5,1160.7,400.8,1159.9,399.5,1159.9L399.5,1159.9z M419.9,1167h-2.8v-1.2h0
		c-0.6,1-1.7,1.5-2.8,1.5c-1,0-2-0.4-2.7-1.2c-0.7-0.9-1.1-2.1-1-3.3c-0.1-1.3,0.3-2.6,1.1-3.6c0.7-0.9,1.8-1.4,3-1.3
		c1-0.1,1.9,0.4,2.4,1.2h0v-5.4h2.8V1167z M417.2,1162.6v-0.7c0-0.5-0.2-1.1-0.5-1.5c-0.3-0.4-0.8-0.6-1.3-0.6
		c-0.6,0-1.1,0.3-1.4,0.7c-0.4,0.6-0.6,1.3-0.5,2c0,0.6,0.1,1.3,0.5,1.8c0.3,0.4,0.8,0.7,1.4,0.6c0.5,0,1.1-0.2,1.4-0.7
		C417,1163.9,417.2,1163.3,417.2,1162.6z M430.3,1163.3h-5.9c0.1,1.3,0.9,2,2.5,2c0.9,0,1.8-0.2,2.6-0.7v2c-1,0.5-2.1,0.7-3.2,0.7
		c-1.2,0.1-2.5-0.4-3.4-1.2c-0.8-0.9-1.3-2.1-1.2-3.4c-0.1-1.3,0.4-2.6,1.3-3.6c0.8-0.9,2-1.3,3.2-1.3c1.1-0.1,2.2,0.4,3,1.2
		c0.8,0.9,1.1,2,1.1,3.2L430.3,1163.3z M427.8,1161.6c0-1.3-0.5-1.9-1.6-1.9c-0.4,0-0.9,0.2-1.2,0.6c-0.3,0.4-0.5,0.9-0.6,1.4H427.8
		z M446.1,1156.7h-3.6v10.3h-2.8v-10.3h-3.6v-2.3h10L446.1,1156.7z M448.9,1156.6c-0.4,0-0.8-0.1-1.2-0.4c-0.3-0.3-0.5-0.6-0.4-1
		c0-0.4,0.2-0.8,0.4-1c0.3-0.3,0.7-0.4,1.2-0.4c0.4,0,0.8,0.1,1.2,0.4c0.3,0.3,0.5,0.6,0.4,1c0,0.4-0.2,0.8-0.4,1
		C449.7,1156.4,449.3,1156.6,448.9,1156.6L448.9,1156.6z M450.3,1167h-2.8v-9h2.8V1167z M460.7,1163.3h-5.9c0.1,1.3,0.9,2,2.5,2
		c0.9,0,1.8-0.2,2.6-0.7v2c-1,0.5-2.1,0.7-3.2,0.7c-1.2,0.1-2.5-0.4-3.4-1.2c-0.8-0.9-1.3-2.1-1.2-3.4c-0.1-1.3,0.4-2.6,1.3-3.6
		c0.8-0.9,2-1.3,3.2-1.3c1.1-0.1,2.2,0.4,3,1.2c0.8,0.9,1.1,2,1.1,3.2L460.7,1163.3z M458.1,1161.6c0-1.3-0.5-1.9-1.6-1.9
		c-0.4,0-0.9,0.2-1.2,0.6c-0.3,0.4-0.5,0.9-0.6,1.4H458.1z M476.6,1167h-2.8v-5.1c0-1.3-0.5-2-1.4-2c-0.4,0-0.9,0.2-1.1,0.6
		c-0.3,0.4-0.4,0.9-0.4,1.5v5h-2.8v-5.2c0-1.3-0.5-1.9-1.4-1.9c-0.4,0-0.9,0.2-1.1,0.6c-0.3,0.4-0.5,1-0.4,1.5v5h-2.8v-9h2.8v1.4h0
		c0.3-0.5,0.7-0.9,1.2-1.2c0.5-0.3,1.1-0.5,1.7-0.5c1.1-0.1,2.2,0.6,2.6,1.7c0.6-1.1,1.8-1.7,3-1.7c2,0,2.9,1.2,2.9,3.6L476.6,1167z
		 M481.7,1166L481.7,1166l0,5.2h-2.8V1158h2.8v1.4h0c0.6-1,1.7-1.6,2.9-1.6c1-0.1,2,0.4,2.7,1.2c0.7,0.9,1,2.1,1,3.3
		c0.1,1.3-0.3,2.6-1.1,3.6c-0.7,0.9-1.8,1.4-3,1.4C483.1,1167.3,482.2,1166.8,481.7,1166L481.7,1166z M481.6,1162.3v0.7
		c0,0.5,0.2,1.1,0.5,1.5c0.3,0.4,0.8,0.6,1.3,0.6c0.6,0,1.1-0.3,1.5-0.7c0.4-0.6,0.6-1.3,0.5-2.1c0-1.6-0.6-2.4-1.8-2.4
		c-0.5,0-1.1,0.2-1.4,0.6C481.7,1161,481.5,1161.6,481.6,1162.3L481.6,1162.3z M494.3,1167.2c-1.3,0.1-2.6-0.4-3.5-1.3
		c-0.9-0.9-1.4-2.2-1.3-3.4c-0.1-1.3,0.4-2.6,1.3-3.5c1-0.9,2.3-1.3,3.6-1.3c1.3-0.1,2.6,0.4,3.5,1.3c0.9,0.9,1.3,2.1,1.3,3.3
		c0.1,1.3-0.4,2.6-1.3,3.5C496.9,1166.8,495.6,1167.3,494.3,1167.2z M494.4,1159.9c-0.6,0-1.2,0.2-1.5,0.7c-0.4,0.6-0.6,1.2-0.5,1.9
		c0,1.7,0.7,2.6,2.1,2.6c1.3,0,2-0.9,2-2.7C496.4,1160.7,495.7,1159.9,494.4,1159.9L494.4,1159.9z M236.1,1210.2h-6.7v-12.6h6.4v1.3
		h-4.9v4.2h4.6v1.3h-4.6v4.4h5.2L236.1,1210.2z M237.8,1209.9v-1.5c0.7,0.6,1.7,0.9,2.6,0.9c1.3,0,1.9-0.4,1.9-1.3
		c0-0.2-0.1-0.4-0.2-0.6c-0.1-0.2-0.3-0.3-0.4-0.4c-0.2-0.1-0.4-0.3-0.6-0.3c-0.2-0.1-0.5-0.2-0.8-0.3c-0.4-0.1-0.7-0.3-1.1-0.5
		c-0.3-0.1-0.5-0.3-0.8-0.5c-0.2-0.2-0.4-0.4-0.5-0.7c-0.1-0.3-0.2-0.6-0.2-0.9c0-0.4,0.1-0.8,0.3-1.1c0.2-0.3,0.5-0.6,0.8-0.8
		c0.3-0.2,0.7-0.4,1.1-0.5c0.4-0.1,0.8-0.2,1.3-0.2c0.7,0,1.4,0.1,2.1,0.4v1.5c-0.7-0.4-1.5-0.7-2.3-0.7c-0.2,0-0.5,0-0.7,0.1
		c-0.2,0.1-0.4,0.1-0.6,0.3c-0.1,0.1-0.3,0.2-0.4,0.4c-0.1,0.2-0.1,0.3-0.1,0.5c0,0.2,0,0.4,0.1,0.6c0.1,0.2,0.2,0.3,0.4,0.4
		c0.2,0.1,0.4,0.2,0.6,0.3c0.2,0.1,0.5,0.2,0.8,0.3c0.4,0.1,0.7,0.3,1.1,0.5c0.3,0.1,0.6,0.3,0.8,0.5c0.2,0.2,0.4,0.4,0.5,0.7
		c0.1,0.3,0.2,0.6,0.2,0.9c0,0.4-0.1,0.8-0.3,1.2c-0.2,0.3-0.5,0.6-0.8,0.8c-0.3,0.2-0.7,0.4-1.1,0.5c-0.4,0.1-0.9,0.2-1.3,0.2
		C239.3,1210.4,238.5,1210.2,237.8,1209.9z M250.1,1210.1c-0.4,0.2-0.9,0.3-1.3,0.3c-1.6,0-2.4-0.9-2.4-2.6v-5.3h-1.5v-1.2h1.5v-2.2
		l1.4-0.5v2.7h2.3v1.2h-2.3v5.1c0,0.5,0.1,0.9,0.3,1.3c0.3,0.3,0.6,0.4,1,0.4c0.3,0,0.7-0.1,0.9-0.3V1210.1z M259.3,1210.2h-1.4
		v-1.4h0c-0.5,1-1.6,1.7-2.8,1.6c-2.1,0-3.2-1.3-3.2-3.8v-5.4h1.4v5.2c0,1.9,0.7,2.8,2.2,2.8c0.7,0,1.3-0.3,1.7-0.8
		c0.5-0.6,0.7-1.3,0.7-2v-5.2h1.4V1210.2z M269.9,1210.2h-1.4v-1.5h0c-0.6,1.1-1.8,1.8-3.1,1.7c-1,0-2-0.4-2.7-1.2
		c-0.7-0.9-1.1-2.1-1-3.3c-0.1-1.3,0.3-2.6,1.1-3.6c0.7-0.9,1.8-1.4,3-1.3c1.1-0.1,2.2,0.5,2.7,1.5h0v-5.6h1.4L269.9,1210.2z
		 M268.5,1206.1v-1.3c0-0.7-0.2-1.4-0.7-1.8c-0.5-0.5-1.1-0.8-1.8-0.8c-0.8,0-1.6,0.3-2.1,1c-0.5,0.8-0.8,1.7-0.8,2.7
		c0,0.9,0.2,1.7,0.7,2.5c0.5,0.6,1.2,0.9,1.9,0.9c0.8,0,1.5-0.3,2-0.9C268.2,1207.7,268.5,1206.9,268.5,1206.1L268.5,1206.1z
		 M273.6,1198.9c-0.2,0-0.5-0.1-0.7-0.3c-0.2-0.2-0.3-0.4-0.3-0.7c0-0.5,0.4-0.9,0.9-0.9c0,0,0,0,0,0c0.3,0,0.5,0.1,0.7,0.3
		c0.4,0.4,0.4,1,0,1.3c0,0,0,0,0,0C274.1,1198.8,273.8,1198.9,273.6,1198.9L273.6,1198.9z M274.3,1210.2h-1.4v-9h1.4L274.3,1210.2z
		 M283.6,1210.2h-1.4v-1.4h0c-0.5,1-1.6,1.7-2.8,1.6c-0.8,0-1.5-0.2-2.1-0.7c-0.5-0.5-0.8-1.2-0.8-1.9c0-1.7,1-2.7,3-2.9l2.7-0.4
		c0-1.5-0.6-2.3-1.9-2.3c-1.1,0-2.1,0.4-2.9,1.1v-1.5c0.9-0.6,2-0.9,3.1-0.8c2.1,0,3.2,1.1,3.2,3.4L283.6,1210.2z M282.2,1205.6
		l-2.2,0.3c-0.5,0-1.1,0.2-1.5,0.5c-0.4,0.3-0.6,0.8-0.5,1.3c0,0.4,0.2,0.8,0.5,1.1c0.4,0.3,0.8,0.4,1.3,0.4c0.7,0,1.3-0.3,1.8-0.8
		c0.5-0.5,0.7-1.2,0.7-1.9V1205.6z M293.8,1210.2h-1.4v-5.1c0-1.9-0.7-2.9-2.1-2.9c-0.7,0-1.3,0.3-1.8,0.8c-0.5,0.6-0.7,1.3-0.7,2.1
		v5.1h-1.4v-9h1.4v1.5h0c0.6-1.1,1.7-1.7,3-1.7c0.9-0.1,1.7,0.3,2.3,1c0.6,0.8,0.8,1.8,0.8,2.8L293.8,1210.2z M300.7,1210.1
		c-0.4,0.2-0.9,0.3-1.3,0.3c-1.6,0-2.4-0.9-2.4-2.6v-5.3h-1.5v-1.2h1.5v-2.2l1.4-0.5v2.7h2.3v1.2h-2.3v5.1c0,0.5,0.1,0.9,0.3,1.3
		c0.3,0.3,0.6,0.4,1,0.4c0.3,0,0.7-0.1,0.9-0.3L300.7,1210.1z M309.9,1206.1h-6.4c0,0.8,0.3,1.7,0.8,2.3c0.6,0.6,1.3,0.9,2.1,0.8
		c1,0,2-0.4,2.8-1v1.4c-0.9,0.6-2,0.9-3.1,0.9c-1.1,0.1-2.2-0.4-3-1.2c-0.8-1-1.2-2.2-1.1-3.5c-0.1-1.3,0.4-2.5,1.2-3.4
		c0.7-0.9,1.8-1.3,3-1.3c1-0.1,2,0.4,2.7,1.1c0.7,0.9,1,2,1,3.2L309.9,1206.1z M308.4,1204.8c0-0.7-0.2-1.4-0.6-1.9
		c-0.4-0.5-1-0.7-1.6-0.7c-0.7,0-1.3,0.3-1.7,0.7c-0.5,0.5-0.8,1.2-0.9,1.9L308.4,1204.8z M230.9,1253.4h-1.5v-12.6h1.5V1253.4z
		 M241.5,1253.4H240v-5.1c0-1.9-0.7-2.9-2.1-2.9c-0.7,0-1.3,0.3-1.8,0.8c-0.5,0.6-0.7,1.3-0.7,2.1v5.1H234v-9h1.4v1.5h0
		c0.6-1.1,1.7-1.7,3-1.7c0.9-0.1,1.7,0.3,2.3,1c0.6,0.8,0.8,1.8,0.8,2.8V1253.4z M243.6,1253.1v-1.5c0.7,0.6,1.7,0.9,2.6,0.9
		c1.3,0,1.9-0.4,1.9-1.3c0-0.2-0.1-0.4-0.2-0.6c-0.1-0.2-0.3-0.3-0.4-0.4c-0.2-0.1-0.4-0.3-0.6-0.3c-0.2-0.1-0.5-0.2-0.8-0.3
		c-0.4-0.1-0.7-0.3-1.1-0.5c-0.3-0.1-0.5-0.3-0.8-0.5c-0.2-0.2-0.4-0.4-0.5-0.7c-0.1-0.3-0.2-0.6-0.2-0.9c0-0.4,0.1-0.8,0.3-1.1
		c0.2-0.3,0.5-0.6,0.8-0.8c0.3-0.2,0.7-0.4,1.1-0.5c0.4-0.1,0.8-0.2,1.3-0.2c0.7,0,1.4,0.1,2.1,0.4v1.5c-0.7-0.4-1.5-0.7-2.3-0.6
		c-0.2,0-0.5,0-0.7,0.1c-0.2,0.1-0.4,0.1-0.6,0.3c-0.1,0.1-0.3,0.2-0.4,0.4c-0.1,0.2-0.1,0.3-0.1,0.5c0,0.2,0,0.4,0.1,0.6
		c0.1,0.2,0.2,0.3,0.4,0.4c0.2,0.1,0.4,0.2,0.6,0.3c0.2,0.1,0.5,0.2,0.8,0.3c0.4,0.1,0.7,0.3,1.1,0.5c0.3,0.1,0.6,0.3,0.8,0.5
		c0.2,0.2,0.4,0.4,0.5,0.7c0.1,0.3,0.2,0.6,0.2,0.9c0,0.4-0.1,0.8-0.3,1.2c-0.2,0.3-0.5,0.6-0.8,0.8c-0.3,0.2-0.7,0.4-1.1,0.5
		c-0.4,0.1-0.9,0.2-1.3,0.2C245.2,1253.6,244.4,1253.4,243.6,1253.1z M256,1253.3c-0.4,0.2-0.9,0.3-1.3,0.3c-1.6,0-2.4-0.9-2.4-2.6
		v-5.3h-1.5v-1.2h1.5v-2.2l1.4-0.5v2.7h2.3v1.2h-2.3v5.1c0,0.5,0.1,0.9,0.3,1.3c0.3,0.3,0.6,0.4,1,0.4c0.3,0,0.7-0.1,0.9-0.3V1253.3
		z M262.6,1245.9c-0.3-0.2-0.7-0.3-1.1-0.3c-0.6,0-1.2,0.3-1.5,0.9c-0.4,0.7-0.7,1.5-0.6,2.4v4.6h-1.4v-9h1.4v1.9h0
		c0.2-0.6,0.5-1.1,0.9-1.5c0.4-0.3,0.9-0.5,1.4-0.5c0.3,0,0.6,0,0.9,0.1L262.6,1245.9z M271.5,1253.4H270v-1.4h0
		c-0.5,1-1.6,1.7-2.8,1.6c-2.1,0-3.2-1.3-3.2-3.8v-5.4h1.4v5.2c0,1.9,0.7,2.8,2.2,2.8c0.7,0,1.3-0.3,1.7-0.8c0.5-0.6,0.7-1.3,0.7-2
		v-5.2h1.4V1253.4z M280.5,1253c-0.7,0.4-1.6,0.6-2.5,0.6c-1.2,0-2.3-0.4-3.1-1.3c-0.8-0.9-1.2-2.1-1.2-3.2
		c-0.1-1.3,0.4-2.6,1.3-3.6c0.9-0.9,2.1-1.4,3.4-1.3c0.7,0,1.4,0.1,2.1,0.4v1.5c-0.6-0.5-1.4-0.7-2.1-0.7c-0.9,0-1.7,0.3-2.3,1
		c-0.6,0.7-0.9,1.7-0.9,2.6c-0.1,0.9,0.2,1.8,0.8,2.5c0.6,0.6,1.4,1,2.2,0.9c0.8,0,1.6-0.3,2.2-0.8L280.5,1253z M286.9,1253.3
		c-0.4,0.2-0.9,0.3-1.3,0.3c-1.6,0-2.4-0.9-2.4-2.6v-5.3h-1.5v-1.2h1.5v-2.2l1.4-0.5v2.7h2.3v1.2h-2.3v5.1c0,0.5,0.1,0.9,0.3,1.3
		c0.3,0.3,0.6,0.4,1,0.4c0.3,0,0.7-0.1,0.9-0.3L286.9,1253.3z M292.4,1253.6c-1.2,0.1-2.4-0.4-3.2-1.3c-0.8-0.9-1.2-2.1-1.2-3.3
		c-0.1-1.3,0.4-2.6,1.2-3.5c0.9-0.9,2.1-1.3,3.3-1.3c1.2-0.1,2.3,0.4,3.1,1.2c0.8,1,1.2,2.2,1.1,3.4c0.1,1.3-0.4,2.5-1.2,3.4
		C294.8,1253.2,293.6,1253.7,292.4,1253.6L292.4,1253.6z M292.5,1245.4c-0.8,0-1.7,0.3-2.2,0.9c-0.6,0.7-0.9,1.7-0.8,2.6
		c-0.1,0.9,0.2,1.8,0.8,2.5c0.6,0.6,1.4,1,2.2,0.9c0.8,0,1.6-0.3,2.1-0.9c0.5-0.7,0.8-1.7,0.8-2.6c0.1-0.9-0.2-1.8-0.8-2.6
		C294.1,1245.7,293.3,1245.4,292.5,1245.4L292.5,1245.4z M303.8,1245.9c-0.3-0.2-0.7-0.3-1.1-0.3c-0.6,0-1.2,0.3-1.5,0.9
		c-0.4,0.7-0.7,1.5-0.6,2.4v4.6h-1.4v-9h1.4v1.9h0c0.2-0.6,0.5-1.1,0.9-1.5c0.4-0.3,0.9-0.5,1.4-0.5c0.3,0,0.6,0,0.9,0.1V1245.9z"/>
	<path id="Trazado_191730" class="st1" d="M254.1,1300h-4.4v3.1h4.1v2.3h-4.1v4.9h-2.8v-12.6h7.3V1300z M263.8,1306.6H258
		c0.1,1.3,0.9,2,2.5,2c0.9,0,1.8-0.2,2.6-0.7v2c-1,0.5-2.1,0.7-3.2,0.7c-1.2,0.1-2.5-0.4-3.4-1.2c-0.8-0.9-1.3-2.1-1.2-3.4
		c-0.1-1.3,0.4-2.6,1.3-3.6c0.8-0.9,2-1.3,3.2-1.3c1.1-0.1,2.2,0.4,3,1.2c0.8,0.9,1.1,2,1.1,3.2L263.8,1306.6z M261.2,1304.9
		c0-1.3-0.5-1.9-1.6-1.9c-0.4,0-0.9,0.2-1.2,0.6c-0.3,0.4-0.5,0.9-0.6,1.4H261.2z M272.3,1310c-0.8,0.4-1.8,0.6-2.7,0.5
		c-1.2,0.1-2.5-0.4-3.4-1.3c-0.9-0.9-1.3-2-1.3-3.2c-0.1-1.3,0.4-2.7,1.4-3.6c1-0.9,2.3-1.4,3.7-1.3c0.8-0.1,1.6,0.1,2.3,0.4v2.4
		c-0.6-0.4-1.2-0.7-1.9-0.7c-0.7,0-1.4,0.2-1.9,0.7c-0.5,0.5-0.7,1.2-0.7,1.9c0,0.7,0.2,1.4,0.7,1.9c0.5,0.5,1.2,0.7,1.8,0.7
		c0.7,0,1.4-0.2,2-0.7L272.3,1310z M282.8,1310.3H280v-5.1c0-1.3-0.5-2-1.4-2c-0.5,0-0.9,0.2-1.2,0.6c-0.3,0.4-0.5,0.9-0.5,1.4v5.1
		h-2.8V1297h2.8v5.7h0c0.6-1,1.6-1.6,2.8-1.6c2,0,3.1,1.2,3.1,3.7V1310.3z M292.4,1310.3h-2.6v-1.3h0c-0.5,1-1.6,1.6-2.7,1.5
		c-0.8,0-1.5-0.2-2.1-0.7c-0.5-0.5-0.8-1.2-0.7-2c0-1.7,1-2.8,3.1-3l2.4-0.3c0-1-0.5-1.5-1.6-1.5c-1.1,0-2.2,0.3-3.1,1v-2.1
		c0.5-0.2,1-0.4,1.6-0.5c0.6-0.1,1.2-0.2,1.8-0.2c2.6,0,3.9,1.3,3.9,3.8L292.4,1310.3z M289.8,1306.6v-0.6l-1.6,0.2
		c-0.9,0.1-1.4,0.5-1.4,1.2c0,0.3,0.1,0.6,0.3,0.8c0.2,0.2,0.6,0.3,0.9,0.3c0.5,0,0.9-0.2,1.3-0.5
		C289.7,1307.6,289.8,1307.1,289.8,1306.6L289.8,1306.6z"/>
	<path id="Trazado_191731" class="st1" d="M355.4,1310.3h-2.8v-12.6h2.8V1310.3z M366.7,1310.3h-2.8v-5c0-1.4-0.5-2.1-1.5-2.1
		c-0.5,0-0.9,0.2-1.2,0.6c-0.3,0.4-0.5,0.9-0.5,1.4v5.1H358v-9h2.8v1.4h0c0.6-1,1.7-1.7,2.9-1.6c2,0,3,1.2,3,3.7V1310.3z
		 M370.3,1299.9c-0.4,0-0.8-0.1-1.2-0.4c-0.3-0.3-0.5-0.6-0.4-1c0-0.4,0.2-0.8,0.4-1c0.3-0.3,0.7-0.4,1.2-0.4c0.4,0,0.8,0.1,1.2,0.4
		c0.3,0.3,0.5,0.6,0.4,1c0,0.4-0.2,0.8-0.4,1C371.1,1299.7,370.7,1299.9,370.3,1299.9L370.3,1299.9z M371.7,1310.3h-2.8v-9h2.8
		V1310.3z M380.8,1310c-0.8,0.4-1.8,0.6-2.7,0.5c-1.2,0.1-2.5-0.4-3.4-1.3c-0.9-0.9-1.3-2-1.3-3.2c-0.1-1.3,0.4-2.7,1.4-3.6
		c1-0.9,2.3-1.4,3.7-1.3c0.8-0.1,1.6,0.1,2.3,0.4v2.4c-0.6-0.4-1.2-0.7-1.9-0.7c-0.7,0-1.4,0.2-1.9,0.7c-0.5,0.5-0.7,1.2-0.7,1.9
		c0,0.7,0.2,1.4,0.7,1.9c0.5,0.5,1.2,0.7,1.8,0.7c0.7,0,1.4-0.2,2-0.7L380.8,1310z M384.1,1299.9c-0.4,0-0.8-0.1-1.2-0.4
		c-0.3-0.3-0.5-0.6-0.4-1c0-0.4,0.2-0.8,0.4-1c0.3-0.3,0.7-0.4,1.2-0.4c0.4,0,0.8,0.1,1.2,0.4c0.3,0.3,0.5,0.6,0.4,1
		c0,0.4-0.2,0.8-0.4,1C384.9,1299.7,384.5,1299.9,384.1,1299.9L384.1,1299.9z M385.4,1310.3h-2.8v-9h2.8V1310.3z M392.1,1310.5
		c-1.3,0.1-2.6-0.4-3.5-1.3c-0.9-0.9-1.4-2.2-1.3-3.4c-0.1-1.3,0.4-2.6,1.3-3.5c1-0.9,2.3-1.3,3.6-1.3c1.3-0.1,2.6,0.4,3.5,1.3
		c0.9,0.9,1.3,2.1,1.3,3.3c0.1,1.3-0.4,2.6-1.3,3.5C394.7,1310.1,393.4,1310.6,392.1,1310.5z M392.1,1303.2c-0.6,0-1.2,0.2-1.5,0.7
		c-0.4,0.6-0.6,1.2-0.5,1.9c0,1.7,0.7,2.6,2.1,2.6c1.3,0,2-0.9,2-2.7C394.1,1304,393.5,1303.2,392.1,1303.2L392.1,1303.2z"/>
	<path id="Trazado_191732" class="st1" d="M468.2,1300h-3.6v10.3h-2.9V1300h-3.6v-2.3h10L468.2,1300z M481.9,1303.8
		c-0.4-0.2-0.8-0.3-1.2-0.3c-0.6,0-1.1,0.2-1.4,0.7c-0.4,0.5-0.5,1.2-0.5,1.8v4.3H476v-9h2.8v1.7h0c0.3-1.1,1.3-1.8,2.4-1.8
		c0.2,0,0.5,0,0.7,0.1L481.9,1303.8z M497.5,1310.3h-2.8v-5.1c0-1.3-0.5-2-1.4-2c-0.4,0-0.9,0.2-1.1,0.6c-0.3,0.4-0.4,0.9-0.4,1.5v5
		H489v-5.2c0-1.3-0.5-1.9-1.4-1.9c-0.4,0-0.9,0.2-1.1,0.6c-0.3,0.4-0.5,1-0.4,1.5v5h-2.8v-9h2.8v1.4h0c0.3-0.5,0.7-0.9,1.2-1.2
		c0.5-0.3,1.1-0.5,1.7-0.5c1.1-0.1,2.2,0.6,2.6,1.7c0.6-1.1,1.8-1.7,3-1.7c2,0,2.9,1.2,2.9,3.6L497.5,1310.3z M501.1,1299.9
		c-0.4,0-0.8-0.1-1.2-0.4c-0.3-0.3-0.5-0.6-0.4-1c0-0.4,0.2-0.8,0.4-1c0.3-0.3,0.7-0.4,1.2-0.4c0.4,0,0.8,0.1,1.2,0.4
		c0.3,0.3,0.5,0.6,0.4,1c0,0.4-0.2,0.8-0.4,1C501.9,1299.7,501.5,1299.9,501.1,1299.9L501.1,1299.9z M502.5,1310.3h-2.8v-9h2.8
		V1310.3z M513.5,1310.3h-2.8v-5c0-1.4-0.5-2.1-1.5-2.1c-0.5,0-0.9,0.2-1.2,0.6c-0.3,0.4-0.5,0.9-0.5,1.4v5.1h-2.8v-9h2.8v1.4h0
		c0.6-1,1.7-1.7,2.9-1.6c2,0,3,1.2,3,3.7L513.5,1310.3z M520,1310.5c-1.3,0.1-2.6-0.4-3.5-1.3c-0.9-0.9-1.3-2.2-1.3-3.4
		c-0.1-1.3,0.4-2.6,1.3-3.5c1-0.9,2.3-1.3,3.6-1.3c1.3-0.1,2.6,0.4,3.5,1.3c0.9,0.9,1.3,2.1,1.3,3.3c0.1,1.3-0.4,2.6-1.3,3.5
		C522.6,1310.1,521.3,1310.6,520,1310.5z M520.1,1303.2c-0.6,0-1.2,0.2-1.5,0.7c-0.4,0.6-0.6,1.2-0.5,1.9c0,1.7,0.7,2.6,2.1,2.6
		c1.3,0,2-0.9,2-2.7C522.1,1304,521.4,1303.2,520.1,1303.2L520.1,1303.2z"/>
	<path id="Trazado_191733" class="st1" d="M589.7,1300h-3.6v10.3h-2.9V1300h-3.6v-2.3h10V1300z M592.5,1299.9
		c-0.4,0-0.8-0.1-1.2-0.4c-0.3-0.3-0.5-0.6-0.4-1c0-0.4,0.2-0.8,0.4-1c0.3-0.3,0.7-0.4,1.2-0.4c0.4,0,0.8,0.1,1.2,0.4
		c0.3,0.3,0.5,0.6,0.4,1c0,0.4-0.2,0.8-0.4,1C593.3,1299.7,592.9,1299.9,592.5,1299.9z M593.9,1310.3h-2.8v-9h2.8V1310.3z
		 M604.3,1306.6h-5.9c0.1,1.3,0.9,2,2.5,2c0.9,0,1.8-0.2,2.6-0.7v2c-1,0.5-2.1,0.7-3.2,0.7c-1.2,0.1-2.5-0.4-3.4-1.2
		c-0.8-0.9-1.3-2.1-1.2-3.4c-0.1-1.3,0.4-2.6,1.3-3.6c0.8-0.9,2-1.3,3.2-1.3c1.1-0.1,2.2,0.4,3,1.2c0.8,0.9,1.1,2,1.1,3.2V1306.6z
		 M601.7,1304.9c0-1.3-0.5-1.9-1.6-1.9c-0.4,0-0.9,0.2-1.2,0.6c-0.3,0.4-0.5,0.9-0.6,1.4H601.7z M620.2,1310.3h-2.8v-5.1
		c0-1.3-0.5-2-1.4-2c-0.4,0-0.9,0.2-1.1,0.6c-0.3,0.4-0.5,0.9-0.4,1.5v5h-2.8v-5.2c0-1.3-0.5-1.9-1.4-1.9c-0.4,0-0.9,0.2-1.1,0.6
		c-0.3,0.4-0.5,1-0.4,1.5v5h-2.8v-9h2.8v1.4h0c0.3-0.5,0.7-0.9,1.2-1.2c0.5-0.3,1.1-0.5,1.7-0.5c1.1-0.1,2.2,0.6,2.6,1.7
		c0.6-1.1,1.8-1.7,3-1.7c2,0,2.9,1.2,2.9,3.6L620.2,1310.3z M625.2,1309.2L625.2,1309.2l0,5.2h-2.8v-13.1h2.8v1.4h0
		c0.6-1,1.7-1.6,2.9-1.6c1-0.1,2,0.4,2.7,1.2c0.7,0.9,1,2.1,1,3.3c0.1,1.3-0.3,2.6-1.1,3.6c-0.7,0.9-1.8,1.4-3,1.4
		C626.7,1310.6,625.8,1310.1,625.2,1309.2z M625.2,1305.6v0.7c0,0.5,0.2,1.1,0.5,1.5c0.3,0.4,0.8,0.6,1.3,0.6c0.6,0,1.1-0.3,1.5-0.7
		c0.4-0.6,0.6-1.3,0.5-2.1c0-1.6-0.6-2.4-1.8-2.4c-0.5,0-1.1,0.2-1.4,0.6C625.3,1304.3,625.1,1304.9,625.2,1305.6z M637.9,1310.5
		c-1.3,0.1-2.6-0.4-3.5-1.3c-0.9-0.9-1.4-2.2-1.3-3.4c-0.1-1.3,0.4-2.6,1.3-3.5c1-0.9,2.3-1.3,3.6-1.3c1.3-0.1,2.6,0.4,3.5,1.3
		c0.9,0.9,1.3,2.1,1.3,3.3c0.1,1.3-0.4,2.6-1.3,3.5C640.5,1310.1,639.2,1310.6,637.9,1310.5z M638,1303.2c-0.6,0-1.2,0.2-1.5,0.7
		c-0.4,0.6-0.6,1.2-0.5,1.9c0,1.7,0.7,2.6,2.1,2.6c1.3,0,2-0.9,2-2.7C640,1304,639.3,1303.2,638,1303.2L638,1303.2z M658.4,1310.3
		h-2.8v-1.2h0c-0.6,1-1.7,1.5-2.8,1.5c-1,0-2-0.4-2.7-1.2c-0.7-0.9-1.1-2.1-1-3.3c-0.1-1.3,0.3-2.6,1.1-3.6c0.7-0.9,1.8-1.4,3-1.3
		c1-0.1,1.9,0.4,2.4,1.2h0v-5.4h2.8V1310.3z M655.7,1305.9v-0.7c0-0.5-0.2-1.1-0.5-1.5c-0.3-0.4-0.8-0.6-1.3-0.6
		c-0.6,0-1.1,0.3-1.4,0.7c-0.4,0.6-0.6,1.3-0.5,2c0,0.6,0.1,1.3,0.5,1.8c0.3,0.4,0.8,0.7,1.4,0.6c0.5,0,1.1-0.2,1.4-0.7
		C655.5,1307.2,655.7,1306.6,655.7,1305.9z M668.8,1306.6h-5.9c0.1,1.3,0.9,2,2.5,2c0.9,0,1.8-0.2,2.6-0.7v2c-1,0.5-2.1,0.7-3.2,0.7
		c-1.2,0.1-2.5-0.4-3.4-1.2c-0.8-0.9-1.3-2.1-1.2-3.4c-0.1-1.3,0.4-2.6,1.3-3.6c0.8-0.9,2-1.3,3.2-1.3c1.1-0.1,2.2,0.4,3,1.2
		c0.8,0.9,1.1,2,1.1,3.2L668.8,1306.6z M666.2,1304.9c0-1.3-0.5-1.9-1.6-1.9c-0.4,0-0.9,0.2-1.2,0.6c-0.3,0.4-0.5,0.9-0.6,1.4H666.2
		z"/>
	<path id="Trazado_191733_00000018216805238478396680000016469667093048782214_" class="st1" d="M474.9,1306.6h-5.9
		c0.1,1.3,0.9,2,2.5,2c0.9,0,1.8-0.2,2.6-0.7v2c-1,0.5-2.1,0.7-3.2,0.7c-1.2,0.1-2.5-0.4-3.4-1.2c-0.8-0.9-1.3-2.1-1.2-3.4
		c-0.1-1.3,0.4-2.6,1.3-3.6c0.8-0.9,2-1.3,3.2-1.3c1.1-0.1,2.2,0.4,3,1.2c0.8,0.9,1.1,2,1.1,3.2L474.9,1306.6z M472.4,1304.9
		c0-1.3-0.5-1.9-1.6-1.9c-0.4,0-0.9,0.2-1.2,0.6c-0.3,0.4-0.5,0.9-0.6,1.4H472.4z"/>
	<path id="Trazado_191734" class="st1" d="M577.2,1331.9h-2.8v-12.6h2.8V1331.9z M588.4,1331.9h-2.8v-5c0-1.4-0.5-2.1-1.5-2.1
		c-0.5,0-0.9,0.2-1.2,0.6c-0.3,0.4-0.5,0.9-0.5,1.4v5.1h-2.8v-9h2.8v1.4h0c0.6-1,1.7-1.7,2.9-1.6c2,0,3,1.2,3,3.7V1331.9z
		 M596.1,1331.8c-0.6,0.2-1.2,0.4-1.9,0.3c-2,0-2.9-1-2.9-3v-4.1h-1.5v-2h1.5v-1.9l2.8-0.8v2.7h2v2h-2v3.6c0,0.9,0.4,1.4,1.1,1.4
		c0.3,0,0.6-0.1,0.9-0.3L596.1,1331.8z M605.7,1328.2h-5.9c0.1,1.3,0.9,2,2.5,2c0.9,0,1.8-0.2,2.6-0.7v2c-1,0.5-2.1,0.7-3.2,0.7
		c-1.2,0.1-2.5-0.4-3.4-1.2c-0.8-0.9-1.3-2.1-1.2-3.4c-0.1-1.3,0.4-2.6,1.3-3.6c0.8-0.9,2-1.3,3.2-1.3c1.1-0.1,2.2,0.4,3,1.2
		c0.8,0.9,1.1,2,1.1,3.2L605.7,1328.2z M603.1,1326.5c0-1.3-0.5-1.9-1.6-1.9c-0.4,0-0.9,0.2-1.2,0.6c-0.3,0.4-0.5,0.9-0.6,1.4H603.1
		z M613.2,1325.4c-0.4-0.2-0.8-0.3-1.2-0.3c-0.6,0-1.1,0.2-1.4,0.7c-0.4,0.5-0.5,1.2-0.5,1.8v4.3h-2.8v-9h2.8v1.7h0
		c0.3-1.1,1.3-1.8,2.4-1.8c0.2,0,0.5,0,0.7,0.1V1325.4z M620.3,1325.4c-0.4-0.2-0.8-0.3-1.2-0.3c-0.6,0-1.1,0.2-1.4,0.7
		c-0.4,0.5-0.5,1.2-0.5,1.8v4.3h-2.8v-9h2.8v1.7h0c0.3-1.1,1.3-1.8,2.4-1.8c0.2,0,0.5,0,0.7,0.1L620.3,1325.4z M630.2,1331.9h-2.8
		v-1.4h0c-0.6,1-1.6,1.6-2.8,1.6c-2.1,0-3.1-1.3-3.1-3.8v-5.4h2.8v5.2c0,1.3,0.5,1.9,1.5,1.9c0.5,0,0.9-0.2,1.2-0.5
		c0.3-0.4,0.5-0.9,0.4-1.4v-5.2h2.8L630.2,1331.9z M635.4,1330.8L635.4,1330.8l0,5.2h-2.8v-13.1h2.8v1.4h0c0.6-1,1.7-1.6,2.9-1.6
		c1-0.1,2,0.4,2.7,1.2c0.7,0.9,1,2.1,1,3.3c0.1,1.3-0.3,2.6-1.1,3.6c-0.7,0.9-1.8,1.4-3,1.4C636.9,1332.2,635.9,1331.7,635.4,1330.8
		L635.4,1330.8z M635.3,1327.2v0.7c0,0.5,0.1,1.1,0.5,1.5c0.3,0.4,0.8,0.6,1.3,0.6c0.6,0,1.1-0.3,1.5-0.7c0.4-0.6,0.6-1.3,0.5-2.1
		c0-1.6-0.6-2.4-1.8-2.4c-0.5,0-1.1,0.2-1.4,0.6C635.5,1325.9,635.3,1326.5,635.3,1327.2L635.3,1327.2z M650.6,1331.6
		c-0.8,0.4-1.8,0.6-2.7,0.5c-1.2,0.1-2.5-0.4-3.4-1.3c-0.9-0.9-1.3-2-1.3-3.2c-0.1-1.3,0.4-2.7,1.4-3.6c1-0.9,2.3-1.4,3.7-1.3
		c0.8-0.1,1.6,0.1,2.3,0.4v2.4c-0.6-0.4-1.2-0.7-1.9-0.7c-0.7,0-1.4,0.2-1.9,0.7c-0.5,0.5-0.7,1.2-0.7,1.9c0,0.7,0.2,1.4,0.7,1.9
		c0.5,0.5,1.2,0.7,1.8,0.7c0.7,0,1.4-0.2,2-0.7L650.6,1331.6z M653.8,1321.5c-0.4,0-0.8-0.1-1.2-0.4c-0.3-0.3-0.5-0.6-0.4-1
		c0-0.4,0.2-0.8,0.4-1c0.3-0.3,0.7-0.4,1.2-0.4c0.4,0,0.8,0.1,1.2,0.4c0.3,0.3,0.5,0.6,0.4,1c0,0.4-0.2,0.8-0.4,1
		C654.6,1321.3,654.2,1321.5,653.8,1321.5L653.8,1321.5z M655.2,1331.9h-2.8v-9h2.8V1331.9z M661.8,1332.1c-1.3,0.1-2.6-0.4-3.5-1.3
		c-0.9-0.9-1.4-2.2-1.3-3.4c-0.1-1.3,0.4-2.6,1.3-3.5c1-0.9,2.3-1.3,3.6-1.3c1.3-0.1,2.6,0.4,3.5,1.3c0.9,0.9,1.3,2.1,1.3,3.3
		c0.1,1.3-0.4,2.6-1.3,3.5C664.4,1331.7,663.1,1332.2,661.8,1332.1z M661.9,1324.8c-0.6,0-1.2,0.2-1.5,0.7c-0.4,0.6-0.6,1.2-0.5,1.9
		c0,1.7,0.7,2.6,2.1,2.6c1.3,0,2-0.9,2-2.7C663.9,1325.6,663.2,1324.8,661.9,1324.8L661.9,1324.8z M664.8,1318.6l-2.8,2.8h-2
		l2.3-2.8H664.8z M677.2,1331.9h-2.8v-5c0-1.4-0.5-2.1-1.5-2.1c-0.5,0-0.9,0.2-1.2,0.6c-0.3,0.4-0.5,0.9-0.5,1.4v5.1h-2.8v-9h2.8
		v1.4h0c0.6-1,1.7-1.7,2.9-1.6c2,0,3,1.2,3,3.7L677.2,1331.9z"/>
	<path id="Trazado_191735" class="st1" d="M736.2,1300h-3.6v10.3h-2.9V1300h-3.6v-2.3h10V1300z M739.1,1299.9
		c-0.4,0-0.8-0.1-1.2-0.4c-0.3-0.3-0.5-0.6-0.4-1c0-0.4,0.2-0.8,0.4-1c0.3-0.3,0.7-0.4,1.2-0.4c0.4,0,0.8,0.1,1.2,0.4
		c0.3,0.3,0.5,0.6,0.4,1c0,0.4-0.2,0.8-0.4,1C739.9,1299.7,739.5,1299.9,739.1,1299.9z M740.4,1310.3h-2.8v-9h2.8V1310.3z
		 M750.9,1306.6H745c0.1,1.3,0.9,2,2.5,2c0.9,0,1.8-0.2,2.6-0.7v2c-1,0.5-2.1,0.7-3.2,0.7c-1.2,0.1-2.5-0.4-3.4-1.2
		c-0.8-0.9-1.3-2.1-1.2-3.4c-0.1-1.3,0.4-2.6,1.3-3.6c0.8-0.9,2-1.3,3.2-1.3c1.1-0.1,2.2,0.4,3,1.2c0.8,0.9,1.1,2,1.1,3.2V1306.6z
		 M748.3,1304.9c0-1.3-0.5-1.9-1.6-1.9c-0.4,0-0.9,0.2-1.2,0.6c-0.3,0.4-0.5,0.9-0.6,1.4H748.3z M766.8,1310.3H764v-5.1
		c0-1.3-0.5-2-1.4-2c-0.4,0-0.9,0.2-1.1,0.6c-0.3,0.4-0.5,0.9-0.4,1.5v5h-2.8v-5.2c0-1.3-0.5-1.9-1.4-1.9c-0.4,0-0.9,0.2-1.1,0.6
		c-0.3,0.4-0.5,1-0.4,1.5v5h-2.8v-9h2.8v1.4h0c0.3-0.5,0.7-0.9,1.2-1.2c0.5-0.3,1.1-0.5,1.7-0.5c1.1-0.1,2.2,0.6,2.6,1.7
		c0.6-1.1,1.8-1.7,3-1.7c2,0,2.9,1.2,2.9,3.6L766.8,1310.3z M771.8,1309.2L771.8,1309.2l0,5.2H769v-13.1h2.8v1.4h0
		c0.6-1,1.7-1.6,2.9-1.6c1-0.1,2,0.4,2.7,1.2c0.7,0.9,1,2.1,1,3.3c0.1,1.3-0.3,2.6-1.1,3.6c-0.7,0.9-1.8,1.4-3,1.4
		C773.3,1310.6,772.4,1310.1,771.8,1309.2z M771.7,1305.6v0.7c0,0.5,0.2,1.1,0.5,1.5c0.3,0.4,0.8,0.6,1.3,0.6c0.6,0,1.1-0.3,1.5-0.7
		c0.4-0.6,0.6-1.3,0.5-2.1c0-1.6-0.6-2.4-1.8-2.4c-0.5,0-1.1,0.2-1.4,0.6C771.9,1304.3,771.7,1304.9,771.7,1305.6z M784.4,1310.5
		c-1.3,0.1-2.6-0.4-3.5-1.3c-0.9-0.9-1.4-2.2-1.3-3.4c-0.1-1.3,0.4-2.6,1.3-3.5c1-0.9,2.3-1.3,3.6-1.3c1.3-0.1,2.6,0.4,3.5,1.3
		c0.9,0.9,1.3,2.1,1.3,3.3c0.1,1.3-0.4,2.6-1.3,3.5C787.1,1310.1,785.8,1310.6,784.4,1310.5z M784.5,1303.2c-0.6,0-1.2,0.2-1.5,0.7
		c-0.4,0.6-0.6,1.2-0.5,1.9c0,1.7,0.7,2.6,2.1,2.6c1.3,0,2-0.9,2-2.7C786.5,1304,785.9,1303.2,784.5,1303.2L784.5,1303.2z
		 M796.4,1310.3v-12.6h4.5c4.5,0,6.7,2,6.7,6.1c0.1,1.8-0.6,3.5-1.8,4.7c-1.3,1.2-3.1,1.8-4.9,1.8H796.4z M799.2,1300v8h1.4
		c1.1,0.1,2.1-0.3,2.9-1.1c0.7-0.8,1.1-1.9,1.1-3c0.1-1-0.3-2.1-1-2.8c-0.8-0.7-1.8-1.1-2.9-1H799.2z M817.5,1306.6h-5.9
		c0.1,1.3,0.9,2,2.5,2c0.9,0,1.8-0.2,2.6-0.7v2c-1,0.5-2.1,0.7-3.2,0.7c-1.2,0.1-2.5-0.4-3.4-1.2c-0.8-0.9-1.3-2.1-1.2-3.4
		c-0.1-1.3,0.4-2.6,1.3-3.6c0.8-0.9,2-1.3,3.2-1.3c1.1-0.1,2.2,0.4,3,1.2c0.8,0.9,1.1,2,1.1,3.2V1306.6z M814.9,1304.9
		c0-1.3-0.5-1.9-1.6-1.9c-0.4,0-0.9,0.2-1.2,0.6c-0.3,0.4-0.5,0.9-0.6,1.4H814.9z M821.9,1310.3h-2.8V1297h2.8L821.9,1310.3z
		 M829.7,1310.2c-0.6,0.2-1.2,0.4-1.8,0.3c-2,0-2.9-1-2.9-3v-4.1h-1.5v-2h1.5v-1.9l2.8-0.8v2.7h2v2h-2v3.6c0,0.9,0.4,1.4,1.1,1.4
		c0.3,0,0.6-0.1,0.9-0.3L829.7,1310.2z M838.7,1310.3h-2.6v-1.3h0c-0.5,1-1.6,1.6-2.7,1.5c-0.8,0-1.5-0.2-2.1-0.7
		c-0.5-0.5-0.8-1.2-0.8-2c0-1.7,1-2.8,3.1-3l2.4-0.3c0-1-0.5-1.5-1.6-1.5c-1.1,0-2.2,0.3-3.1,1v-2.1c0.5-0.2,1-0.4,1.6-0.5
		c0.6-0.1,1.2-0.2,1.8-0.2c2.6,0,3.8,1.3,3.8,3.8L838.7,1310.3z M836.1,1306.6v-0.6l-1.6,0.2c-0.9,0.1-1.4,0.5-1.4,1.2
		c0,0.3,0.1,0.6,0.3,0.8c0.2,0.2,0.6,0.3,0.9,0.3c0.5,0,0.9-0.2,1.3-0.5C836,1307.6,836.2,1307.1,836.1,1306.6z"/>
	<path id="Trazado_191736" class="st1" d="M902.8,1300h-4.4v3.1h4.1v2.3h-4.1v4.9h-2.8v-12.6h7.3V1300z M911.2,1310.3h-2.6v-1.3h0
		c-0.5,1-1.6,1.6-2.7,1.5c-0.8,0-1.5-0.2-2.1-0.7c-0.5-0.5-0.8-1.2-0.8-2c0-1.7,1-2.8,3.1-3l2.4-0.3c0-1-0.5-1.5-1.6-1.5
		c-1.1,0-2.2,0.3-3.1,1v-2.1c0.5-0.2,1-0.4,1.6-0.5c0.6-0.1,1.2-0.2,1.8-0.2c2.6,0,3.8,1.3,3.8,3.8L911.2,1310.3z M908.6,1306.6
		v-0.6l-1.6,0.2c-0.9,0.1-1.4,0.5-1.4,1.2c0,0.3,0.1,0.6,0.3,0.8c0.2,0.2,0.6,0.3,0.9,0.3c0.5,0,0.9-0.2,1.3-0.5
		C908.5,1307.6,908.6,1307.1,908.6,1306.6z M912.8,1310.1v-2.2c0.4,0.3,0.9,0.5,1.4,0.6c0.4,0.1,0.9,0.2,1.3,0.2
		c0.4,0,0.8-0.1,1.2-0.2c0.3-0.1,0.4-0.3,0.4-0.6c0-0.2-0.1-0.3-0.2-0.4c-0.1-0.1-0.3-0.2-0.5-0.3c-0.2-0.1-0.4-0.2-0.7-0.2
		c-0.2-0.1-0.5-0.1-0.7-0.2c-0.3-0.1-0.6-0.3-0.9-0.4c-0.3-0.1-0.5-0.3-0.7-0.5c-0.2-0.2-0.3-0.4-0.4-0.7c-0.1-0.3-0.2-0.6-0.1-1
		c0-0.5,0.1-0.9,0.3-1.3c0.2-0.4,0.5-0.7,0.9-0.9c0.4-0.2,0.8-0.4,1.3-0.5c0.5-0.1,1-0.2,1.5-0.2c0.4,0,0.8,0,1.2,0.1
		c0.4,0.1,0.8,0.2,1.2,0.3v2.1c-0.4-0.2-0.7-0.4-1.1-0.5c-0.4-0.1-0.8-0.2-1.2-0.2c-0.2,0-0.3,0-0.5,0c-0.1,0-0.3,0.1-0.4,0.1
		c-0.1,0.1-0.2,0.1-0.3,0.2c-0.1,0.1-0.1,0.2-0.1,0.3c0,0.2,0.1,0.3,0.2,0.4c0.1,0.1,0.3,0.2,0.4,0.3c0.2,0.1,0.4,0.2,0.6,0.2
		c0.2,0.1,0.4,0.1,0.6,0.2c0.3,0.1,0.7,0.3,1,0.4c0.3,0.1,0.5,0.3,0.8,0.5c0.2,0.2,0.4,0.4,0.5,0.7c0.1,0.3,0.2,0.6,0.2,1
		c0,0.5-0.1,1-0.3,1.4c-0.2,0.4-0.5,0.7-0.9,0.9c-0.4,0.2-0.9,0.4-1.3,0.5c-0.5,0.1-1,0.2-1.6,0.2
		C914.7,1310.5,913.7,1310.4,912.8,1310.1z M929.4,1306.6h-5.9c0.1,1.3,0.9,2,2.5,2c0.9,0,1.8-0.2,2.6-0.7v2c-1,0.5-2.1,0.7-3.2,0.7
		c-1.2,0.1-2.5-0.4-3.4-1.2c-0.8-0.9-1.3-2.1-1.2-3.4c-0.1-1.3,0.4-2.6,1.3-3.6c0.8-0.9,2-1.3,3.2-1.3c1.1-0.1,2.2,0.4,3,1.2
		c0.8,0.9,1.1,2,1.1,3.2L929.4,1306.6z M926.9,1304.9c0-1.3-0.5-1.9-1.6-1.9c-0.4,0-0.9,0.2-1.2,0.6c-0.3,0.4-0.5,0.9-0.6,1.4H926.9
		z"/>
	<path id="Trazado_191737" class="st1" d="M1063.1,1309.8c-1.1,0.5-2.4,0.7-3.6,0.7c-1.7,0.1-3.3-0.5-4.6-1.7
		c-1.1-1.2-1.7-2.9-1.7-4.5c-0.1-1.8,0.6-3.6,1.9-4.9c1.3-1.3,3-2,4.8-1.9c1.1,0,2.1,0.1,3.1,0.5v2.7c-0.9-0.5-1.9-0.8-2.9-0.8
		c-1.1,0-2.1,0.4-2.9,1.1c-0.8,0.8-1.1,1.9-1.1,3c-0.1,1.1,0.3,2.1,1,2.9c0.7,0.7,1.7,1.1,2.8,1.1c1.1,0,2.1-0.3,3-0.8V1309.8z
		 M1069.3,1310.5c-1.3,0.1-2.6-0.4-3.5-1.3c-0.9-0.9-1.4-2.2-1.3-3.4c-0.1-1.3,0.4-2.6,1.3-3.5c1-0.9,2.3-1.3,3.6-1.3
		c1.3-0.1,2.6,0.4,3.5,1.3c0.9,0.9,1.3,2.1,1.3,3.3c0.1,1.3-0.4,2.6-1.3,3.5C1071.9,1310.1,1070.6,1310.6,1069.3,1310.5z
		 M1069.3,1303.2c-0.6,0-1.2,0.2-1.5,0.7c-0.4,0.6-0.6,1.2-0.5,1.9c0,1.7,0.7,2.6,2.1,2.6c1.3,0,2-0.9,2-2.7
		C1071.4,1304,1070.7,1303.2,1069.3,1303.2L1069.3,1303.2z M1090.3,1310.3h-2.8v-5.1c0-1.3-0.5-2-1.4-2c-0.4,0-0.9,0.2-1.1,0.6
		c-0.3,0.4-0.4,0.9-0.4,1.5v5h-2.8v-5.2c0-1.3-0.5-1.9-1.4-1.9c-0.4,0-0.9,0.2-1.1,0.6c-0.3,0.4-0.5,1-0.4,1.5v5h-2.8v-9h2.8v1.4h0
		c0.3-0.5,0.7-0.9,1.2-1.2c0.5-0.3,1.1-0.5,1.7-0.5c1.1-0.1,2.2,0.6,2.6,1.7c0.6-1.1,1.8-1.7,3-1.7c2,0,2.9,1.2,2.9,3.6V1310.3z
		 M1100.6,1306.6h-5.9c0.1,1.3,0.9,2,2.5,2c0.9,0,1.8-0.2,2.6-0.7v2c-1,0.5-2.1,0.7-3.2,0.7c-1.2,0.1-2.5-0.4-3.4-1.2
		c-0.8-0.9-1.3-2.1-1.2-3.4c-0.1-1.3,0.4-2.6,1.3-3.6c0.8-0.9,2-1.3,3.2-1.3c1.1-0.1,2.2,0.4,3,1.2c0.8,0.9,1.1,2,1.1,3.2
		L1100.6,1306.6z M1098,1304.9c0-1.3-0.5-1.9-1.6-1.9c-0.4,0-0.9,0.2-1.2,0.6c-0.3,0.4-0.5,0.9-0.6,1.4H1098z M1110.9,1310.3h-2.8
		v-5c0-1.4-0.5-2.1-1.5-2.1c-0.5,0-0.9,0.2-1.2,0.6c-0.3,0.4-0.5,0.9-0.5,1.4v5.1h-2.8v-9h2.8v1.4h0c0.6-1,1.7-1.7,2.9-1.6
		c2,0,3,1.2,3,3.7V1310.3z M1118.6,1310.2c-0.6,0.3-1.2,0.4-1.9,0.3c-2,0-2.9-1-2.9-3v-4.1h-1.5v-2h1.5v-1.9l2.8-0.8v2.7h2v2h-2v3.6
		c0,0.9,0.4,1.4,1.1,1.4c0.3,0,0.6-0.1,0.9-0.3L1118.6,1310.2z M1127.6,1310.3h-2.6v-1.3h0c-0.5,1-1.6,1.6-2.7,1.5
		c-0.8,0-1.5-0.2-2.1-0.7c-0.5-0.5-0.8-1.2-0.8-2c0-1.7,1-2.8,3.1-3l2.4-0.3c0-1-0.5-1.5-1.6-1.5c-1.1,0-2.2,0.3-3.1,1v-2.1
		c0.5-0.2,1-0.4,1.6-0.5c0.6-0.1,1.2-0.2,1.8-0.2c2.6,0,3.8,1.3,3.8,3.8L1127.6,1310.3z M1125,1306.6v-0.6l-1.6,0.2
		c-0.9,0.1-1.4,0.5-1.4,1.2c0,0.3,0.1,0.6,0.3,0.8c0.2,0.2,0.6,0.3,0.9,0.3c0.5,0,0.9-0.2,1.3-0.5
		C1124.8,1307.6,1125,1307.1,1125,1306.6z M1135.7,1303.8c-0.4-0.2-0.8-0.3-1.2-0.3c-0.6,0-1.1,0.2-1.4,0.7
		c-0.4,0.5-0.5,1.2-0.5,1.8v4.3h-2.8v-9h2.8v1.7h0c0.3-1.1,1.3-1.8,2.4-1.8c0.2,0,0.5,0,0.7,0.1L1135.7,1303.8z M1138.4,1299.9
		c-0.4,0-0.8-0.1-1.2-0.4c-0.3-0.3-0.5-0.6-0.4-1c0-0.4,0.2-0.8,0.4-1c0.3-0.3,0.7-0.4,1.2-0.4c0.4,0,0.8,0.1,1.2,0.4
		c0.3,0.3,0.5,0.6,0.4,1c0,0.4-0.2,0.8-0.4,1C1139.3,1299.7,1138.9,1299.9,1138.4,1299.9L1138.4,1299.9z M1139.8,1310.3h-2.8v-9h2.8
		L1139.8,1310.3z M1146.4,1310.5c-1.3,0.1-2.6-0.4-3.5-1.3c-0.9-0.9-1.4-2.2-1.3-3.4c-0.1-1.3,0.4-2.6,1.3-3.5
		c1-0.9,2.3-1.3,3.6-1.3c1.3-0.1,2.6,0.4,3.5,1.3c0.9,0.9,1.3,2.1,1.3,3.3c0.1,1.3-0.4,2.6-1.3,3.5
		C1149.1,1310.1,1147.8,1310.6,1146.4,1310.5z M1146.5,1303.2c-0.6,0-1.2,0.2-1.5,0.7c-0.4,0.6-0.6,1.2-0.5,1.9
		c0,1.7,0.7,2.6,2.1,2.6c1.3,0,2-0.9,2-2.7C1148.5,1304,1147.9,1303.2,1146.5,1303.2L1146.5,1303.2z M1152.6,1310.1v-2.2
		c0.4,0.3,0.9,0.5,1.4,0.6c0.4,0.1,0.9,0.2,1.3,0.2c0.4,0,0.8-0.1,1.2-0.2c0.3-0.1,0.4-0.3,0.4-0.6c0-0.2-0.1-0.3-0.2-0.4
		c-0.1-0.1-0.3-0.2-0.5-0.3c-0.2-0.1-0.4-0.2-0.7-0.2c-0.2-0.1-0.5-0.1-0.7-0.2c-0.3-0.1-0.6-0.3-0.9-0.4c-0.3-0.1-0.5-0.3-0.7-0.5
		c-0.2-0.2-0.3-0.4-0.4-0.7c-0.1-0.3-0.2-0.6-0.1-1c0-0.5,0.1-0.9,0.3-1.3c0.2-0.4,0.5-0.7,0.9-0.9c0.4-0.2,0.8-0.4,1.3-0.5
		c0.5-0.1,1-0.2,1.5-0.2c0.4,0,0.8,0,1.2,0.1c0.4,0.1,0.8,0.2,1.2,0.3v2.1c-0.4-0.2-0.7-0.4-1.1-0.5c-0.4-0.1-0.8-0.2-1.2-0.2
		c-0.2,0-0.3,0-0.5,0c-0.1,0-0.3,0.1-0.4,0.1c-0.1,0.1-0.2,0.1-0.3,0.2c-0.1,0.1-0.1,0.2-0.1,0.3c0,0.2,0.1,0.3,0.2,0.4
		c0.1,0.1,0.3,0.2,0.4,0.3c0.2,0.1,0.4,0.2,0.6,0.2c0.2,0.1,0.4,0.1,0.6,0.2c0.3,0.1,0.7,0.3,1,0.4c0.3,0.1,0.5,0.3,0.8,0.5
		c0.2,0.2,0.4,0.4,0.5,0.7c0.1,0.3,0.2,0.6,0.2,1c0,0.5-0.1,1-0.3,1.4c-0.2,0.4-0.5,0.7-0.9,0.9c-0.4,0.2-0.9,0.4-1.3,0.5
		c-0.5,0.1-1,0.2-1.6,0.2C1154.4,1310.5,1153.4,1310.4,1152.6,1310.1z"/>
	<path id="Trazado_191738" class="st2" d="M331.4,1210.4h362.3"/>
	<path id="Trazado_191739" class="st2" d="M210,1275.2h1179.2"/>
	<path id="Trazado_191740" class="st2" d="M210,1275.2V1775"/>
	<path id="Trazado_191741" class="st2" d="M318.7,1275.2V1775"/>
	<path id="Trazado_191742" class="st2" d="M427.4,1275.2V1775"/>
	<path id="Trazado_191743" class="st2" d="M548.7,1275.2V1775"/>
	<path id="Trazado_191744" class="st2" d="M693.6,1275.2V1775"/>
	<path id="Trazado_191745" class="st2" d="M858.8,1275.2V1775"/>
	<path id="Trazado_191746" class="st2" d="M968,1275.2V1775"/>
	<path id="Trazado_191747" class="st2" d="M1389.2,1275.2V1775"/>
	<path id="Trazado_191748" class="st2" d="M210,1343h1179.2"/>
	<path id="Trazado_191749" class="st2" d="M210,1386.2h1179.2"/>
	<path id="Trazado_191750" class="st2" d="M210,1429.4h1179.2"/>
	<path id="Trazado_191751" class="st2" d="M210,1472.6h1179.2"/>
	<path id="Trazado_191752" class="st2" d="M210,1515.8h1179.2"/>
	<path id="Trazado_191753" class="st2" d="M210,1559h1179.2"/>
	<path id="Trazado_191754" class="st2" d="M210,1602.2h1179.2"/>
	<path id="Trazado_191755" class="st2" d="M210,1645.4h1179.2"/>
	<path id="Trazado_191756" class="st2" d="M210,1688.6h1179.2"/>
	<path id="Trazado_191757" class="st2" d="M210,1731.8h1179.2"/>
	<path id="Trazado_191758" class="st2" d="M210,1775h1179.2"/>
	<path id="Trazado_191759" class="st2" d="M331.4,1253.6h362.3"/>
	<path id="Trazado_191760" class="st2" d="M974.7,1210.4h362.3"/>
	<path id="Trazado_191761" class="st2" d="M974.7,1253.6h362.3"/>
</g>
<polygon class="st1" points="296.6,171 293.9,173.9 291.9,173.9 294.2,171 "/>
</svg>
