<svg xmlns="http://www.w3.org/2000/svg" width="605" height="403.67" viewBox="0 0 605 403.67">
  <g id="Grupo_94303" data-name="Grupo 94303" transform="translate(-816.5 -5024.5)">
    <g id="Grupo_93171" data-name="Grupo 93171" transform="translate(817 5025)">
      <path id="Trazado_187419" data-name="Trazado 187419" d="M37.52,125.67a7.06,7.06,0,1,0,5.382-.545,7.06,7.06,0,0,0-5.382.545Zm4.21,7.83a1.83,1.83,0,1,1,.75-2.47,1.83,1.83,0,0,1-.75,2.47Z" fill="#cce3ff"/>
      <path id="Trazado_187420" data-name="Trazado 187420" d="M52.9,122.72l-3.31.61h0a12,12,0,0,0-2.08-1.7l-.09-3.39a1.35,1.35,0,0,0-1-1.24l-2.1-.63a1.35,1.35,0,0,0-1.48.52L41,119.67h0a12,12,0,0,0-2.67.27h0l-2.46-2.33a1.33,1.33,0,0,0-1.55-.21l-1.93,1a1.34,1.34,0,0,0-.68,1.42l.62,3.31h0a12,12,0,0,0-1.69,2.08h0l-3.38.09a1.33,1.33,0,0,0-1.24,1l-.63,2.1a1.32,1.32,0,0,0,.52,1.48l2.77,1.91a12,12,0,0,0,.27,2.67l-2.33,2.46a1.33,1.33,0,0,0-.2,1.55l1,1.93a1.33,1.33,0,0,0,1.41.68l3.31-.62h0a12.06,12.06,0,0,0,2.09,1.7l.09,3.39a1.32,1.32,0,0,0,.94,1.24l2.11.63a1.3,1.3,0,0,0,1.47-.52l1.91-2.78a11.47,11.47,0,0,0,2.67-.27h0l2.46,2.34a1.33,1.33,0,0,0,1.54.2l1.94-1a1.32,1.32,0,0,0,.67-1.41l-.61-3.31h0a11.63,11.63,0,0,0,1.7-2.08h0l3.39-.09a1.31,1.31,0,0,0,1.23-.94l.64-2.11a1.35,1.35,0,0,0-.52-1.48L53.09,132a12.13,12.13,0,0,0-.27-2.68l2.33-2.46a1.33,1.33,0,0,0,.21-1.54l-1-1.94a1.33,1.33,0,0,0-1.46-.66ZM45,139.59a8.74,8.74,0,1,1,3.56-11.83A8.74,8.74,0,0,1,45,139.59Z" fill="#cce3ff"/>
    </g>
    <g id="Grupo_93172" data-name="Grupo 93172" transform="translate(817 5025)">
      <path id="Trazado_187421" data-name="Trazado 187421" d="M72.64,109.67a4,4,0,1,0,4.55,3.3A4,4,0,0,0,72.64,109.67Zm.79,4.94a1,1,0,1,1,.679-.407,1,1,0,0,1-.679.407Z" fill="#cce3ff"/>
      <path id="Trazado_187422" data-name="Trazado 187422" d="M81.35,111l-1.87-.29h0a7.081,7.081,0,0,0-.79-1.29l.58-1.81a.73.73,0,0,0-.28-.83L78,106a.77.77,0,0,0-.89,0l-1.52,1.13h0a6.61,6.61,0,0,0-1.46-.35h0l-.88-1.7a.75.75,0,0,0-.78-.39l-1.22.19a.75.75,0,0,0-.62.63l-.29,1.87h0a6.671,6.671,0,0,0-1.28.79h0l-1.82-.58a.76.76,0,0,0-.83.28l-.73,1a.74.74,0,0,0,0,.88l1.12,1.52a6.84,6.84,0,0,0-.35,1.47l-1.69.88a.75.75,0,0,0-.4.78l.2,1.22a.74.74,0,0,0,.62.62l1.87.29h0a7.68,7.68,0,0,0,.79,1.29l-.57,1.81a.74.74,0,0,0,.27.83l1,.73a.74.74,0,0,0,.88,0L71,120.06a6.57,6.57,0,0,0,1.47.35h0l.87,1.7a.76.76,0,0,0,.78.39l1.22-.19a.74.74,0,0,0,.62-.63l.29-1.87h0a7.68,7.68,0,0,0,1.29-.79h0l1.81.57a.76.76,0,0,0,.84-.27l.72-1a.75.75,0,0,0,0-.88l-1.12-1.53a7.16,7.16,0,0,0,.35-1.47l1.69-.87a.74.74,0,0,0,.39-.78L82,111.57a.74.74,0,0,0-.65-.57ZM74,118.45a4.91,4.91,0,1,1,3.208-1.968A4.92,4.92,0,0,1,74,118.45Z" fill="#cce3ff"/>
    </g>
    <ellipse id="Elipse_7718" data-name="Elipse 7718" cx="252.17" cy="15.1" rx="252.17" ry="15.1" transform="translate(842.29 5381.31)" fill="#e8eaf7"/>
    <g id="Grupo_93177" data-name="Grupo 93177" transform="translate(817 5025)">
      <path id="Trazado_187423" data-name="Trazado 187423" d="M447.68,375.58V304.19h2.41v71.39h5.73v1.78H441.56v-1.78Z" fill="#c8cbe3"/>
      <rect id="Rectángulo_39140" data-name="Rectángulo 39140" width="2.27" height="58.36" transform="translate(472.06 296.75) rotate(180)" fill="#c8cbe3"/>
      <g id="Grupo_93176" data-name="Grupo 93176">
        <g id="Grupo_93173" data-name="Grupo 93173">
          <path id="Trazado_187424" data-name="Trazado 187424" d="M429.53,352.73l3.58,9.47a14,14,0,0,1-8.77,3.25L420,356Z" fill="#f9cbcb"/>
          <path id="Trazado_187425" data-name="Trazado 187425" d="M420.33,362.37a32,32,0,0,0,12.66-5c-1.81-7.36-6.49-40.25-13.64-57.63,11.33-9.92,56.94,2.61,39.06-40.18l-23.28,4.74c1.13,4.85-35,14.15-38.39,26.56C393,304.64,410.7,338.46,420.33,362.37Z" fill="#24396b"/>
          <path id="Trazado_187426" data-name="Trazado 187426" d="M433.11,362.2a10.61,10.61,0,0,1,4,7.95l-22.8,8.76c-5-8,9.77-9,10.06-13.46A17.68,17.68,0,0,0,433.11,362.2Z" fill="#2b4480"/>
        </g>
        <g id="Grupo_93174" data-name="Grupo 93174">
          <path id="Trazado_187427" data-name="Trazado 187427" d="M395.09,358.8v10.12a14,14,0,0,1-9.36,0l-.8-10.35Z" fill="#f9cbcb"/>
          <path id="Trazado_187428" data-name="Trazado 187428" d="M383.09,364.6a32.06,32.06,0,0,0,13.6-.22c.89-7.53,8.05-40,7.45-58.76,8.42-3.17,33.17,0,47.73-6.15,9.8-4.16,12.51-12.15,11.81-30.8L432.91,267c-.65,4.94-39.32,11.93-46.83,22.37C377.76,301,382.46,338.83,383.09,364.6Z" fill="#2b4480"/>
          <path id="Trazado_187429" data-name="Trazado 187429" d="M395.12,368.92a10.63,10.63,0,0,1,.93,8.84l-24.43.21c-1.91-9.21,12.3-5,14.14-9.08a17.6,17.6,0,0,0,9.36.03Z" fill="#2b4480"/>
        </g>
        <path id="Trazado_187430" data-name="Trazado 187430" d="M395,247.49s-13.21,1.75-15.23,3.91-3.84,8.68-1.91,7.47,4.14-3.15,6.56-4.09,3.7,1.46,5.27.63a33.279,33.279,0,0,1,5.94-1.74Z" fill="#ebb0b0"/>
        <path id="Trazado_187431" data-name="Trazado 187431" d="M433.27,212.28c-9,7.79-11,22.25-14.42,27.55l-24.67,6.11,1.08,8.15s22.95-.86,26.82-2.86,24-23.27,24-23.27S445.24,202,433.27,212.28Z" fill="#ffbc54"/>
        <path id="Trazado_187432" data-name="Trazado 187432" d="M443,210.74a2.24,2.24,0,0,1,1.12.1c2.64.91,13.74,5.47,16.24,17.85,1.62,8,3.77,32.91,4.37,40.06A2.32,2.32,0,0,1,463,271.2c-11.14,2.62-27.45,1.16-32-2.75a2.31,2.31,0,0,1-.81-2c1.48-18.24-5.29-22.58-4-43,.3-4.77,5-9.35,6.6-10.78a2.28,2.28,0,0,1,1.18-.56Z" fill="#ffa726"/>
        <g id="Grupo_93175" data-name="Grupo 93175">
          <path id="Trazado_187433" data-name="Trazado 187433" d="M435.08,202.83c3.46.52,5.05,2,9-.58,6-3.89,9.75-15.87.43-19.62-.86-1.68-1.56-2.27-3.89-2.42s-4.49,1.18-7.61,1.6-8-2.12-10,2.82,5.23,7.43,8.94,9.14S435.11,199.49,435.08,202.83Z" fill="#24396b"/>
          <path id="Trazado_187434" data-name="Trazado 187434" d="M443.57,210.65c-3.14,4.27-6.52,5.51-10.3,1.63l-.21-7.27L433,202l8.2-1.24.44,1.84Z" fill="#f9cbcb"/>
          <path id="Trazado_187435" data-name="Trazado 187435" d="M441.92,203.86c-1.65,2.74-7.12,4.29-8.79,3.48L433,202l7.72-4.71Z" fill="#f0b4b4"/>
          <path id="Trazado_187436" data-name="Trazado 187436" d="M426.61,188.27c-.87,4.47-.92,14.09,3.22,17,2.61,1.86,10.77-.25,11.54-6.58,1.77-1.75,2.71-5.5.62-6.83-1.48-.94-2.7,2.33-5.07,2.18-.89-.06.89-6.27-2-6.86S429.55,189.24,426.61,188.27Z" fill="#f9cbcb"/>
        </g>
        <path id="Trazado_187437" data-name="Trazado 187437" d="M396.55,251.33s-11.33-1.5-13.88,0-6.13,7.26-3.93,6.64,4.86-1.85,7.44-2.09,3.14,2.45,4.88,2.09a34,34,0,0,1,6.19,0Z" fill="#f9cbcb"/>
        <path id="Trazado_187438" data-name="Trazado 187438" d="M443.6,221.36C432.19,227.54,419.77,250,419.77,250l-26.13,1.28.31,8.6s28.92,3.15,33,1.54,20.6-15.81,25.77-22.38C461,228.53,452.36,216.61,443.6,221.36Z" fill="#ffc05f"/>
        <path id="Trazado_187439" data-name="Trazado 187439" d="M368.15,229.57l4.65,27.91h28.58v3.85H368.99l-5.3-31.76Z" fill="#2b4480"/>
      </g>
      <rect id="Rectángulo_39141" data-name="Rectángulo 39141" width="55.05" height="9.81" rx="4.905" transform="translate(475.26 305.85) rotate(180)" fill="#039be5"/>
      <rect id="Rectángulo_39142" data-name="Rectángulo 39142" width="10.07" height="46.64" rx="5.035" transform="translate(475.83 258.02) rotate(180)" fill="#039be5"/>
    </g>
    <g id="Grupo_93183" data-name="Grupo 93183" transform="translate(817 5025)">
      <path id="Trazado_187440" data-name="Trazado 187440" d="M130.75,164c-1.73.05-4.19,8.45-4.94,8.64s-.54-1.38-1.87-1.53.25,7.83.25,7.83l4.86,1.29C133.32,175.59,132.48,163.93,130.75,164Z" fill="#f9cbcb"/>
      <path id="Trazado_187441" data-name="Trazado 187441" d="M86.31,371.9V303.64h-2.3V371.9H78.53v1.7H92.16v-1.7Z" fill="#c8cbe3"/>
      <rect id="Rectángulo_39143" data-name="Rectángulo 39143" width="2.17" height="55.8" transform="translate(63 240.72)" fill="#c8cbe3"/>
      <g id="Grupo_93182" data-name="Grupo 93182">
        <g id="Grupo_93180" data-name="Grupo 93180">
          <g id="Grupo_93178" data-name="Grupo 93178">
            <path id="Trazado_187442" data-name="Trazado 187442" d="M103.67,350.05l-3.43,9.05a13.36,13.36,0,0,0,8.39,3.11l4.2-9Z" fill="#f9cbcb"/>
            <path id="Trazado_187443" data-name="Trazado 187443" d="M112.46,359.27a30.51,30.51,0,0,1-12.1-4.76c1.73-7,6.2-38.49,13-55.11C102.57,289.91,59,301.9,76.05,261l22.26,4.54C97.23,270.15,131.8,279,135,290.91,138.59,304.06,121.67,336.41,112.46,359.27Z" fill="#24396b"/>
            <path id="Trazado_187444" data-name="Trazado 187444" d="M100.24,359.1a10.17,10.17,0,0,0-3.79,7.61l21.8,8.38c4.81-7.61-9.34-8.58-9.62-12.88a16.89,16.89,0,0,1-8.39-3.11Z" fill="#2b4480"/>
          </g>
          <g id="Grupo_93179" data-name="Grupo 93179">
            <path id="Trazado_187445" data-name="Trazado 187445" d="M136.6,355.85v9.69a13.47,13.47,0,0,0,9,0l.77-9.9Z" fill="#f9cbcb"/>
            <path id="Trazado_187446" data-name="Trazado 187446" d="M148.07,361.4a30.55,30.55,0,0,1-13-.21C134.22,354,127.37,323,128,305c-8-3-31.72,0-45.64-5.89-9.38-4-12-11.61-11.3-29.44l29.42-1.6c.62,4.72,37.6,11.41,44.78,21.4C153.17,300.54,148.68,336.76,148.07,361.4Z" fill="#2b4480"/>
            <path id="Trazado_187447" data-name="Trazado 187447" d="M136.57,365.54a10.18,10.18,0,0,0-.89,8.45l23.36.2c1.83-8.82-11.76-4.76-13.52-8.69a16.891,16.891,0,0,1-8.95.04Z" fill="#2b4480"/>
          </g>
        </g>
        <path id="Trazado_187448" data-name="Trazado 187448" d="M83.5,218.59s24.78-13.72,30.14-16.43l9-24L130.3,180s-5.45,25.66-7.7,29.16-22.86,19-22.86,19Z" fill="#e86175"/>
        <path id="Trazado_187449" data-name="Trazado 187449" d="M82.27,213.67a2.24,2.24,0,0,0-1,.23c-2.39,1.18-12.1,4.55-13.26,18.88-.62,7.65.33,30.72.64,38.09a3,3,0,0,0,2,2.54c8.56,2.74,26,1.55,32.08-2.13a2.18,2.18,0,0,0,.48-3.26c-6.51-8,1.61-25.9-1.77-40.72-1.89-8.25-9.65-13.36-9.65-13.36Z" fill="#e34d62"/>
        <g id="Grupo_93181" data-name="Grupo 93181">
          <path id="Trazado_187450" data-name="Trazado 187450" d="M84.09,185.56a13.22,13.22,0,0,0-5,2.63,3.17,3.17,0,0,1-.89-1.4c-.17-.56-.68,1.12,0,2.11l-1.5-.24.91,1.07a9,9,0,0,0-2,4c-1.35,7.19,6.82,12.36,6.82,12.36l12.49-13.85C98.44,187.74,91.87,183.39,84.09,185.56Z" fill="#24396b"/>
          <path id="Trazado_187451" data-name="Trazado 187451" d="M81.74,213.66c3.49,3.66,6.84,4.43,10,.31L91,207l-.28-2.91-7.92-.2-.2,1.8Z" fill="#f9cbcb"/>
          <path id="Trazado_187452" data-name="Trazado 187452" d="M82.48,207c1.9,2.4,7.28,3.22,8.77,2.24l-.5-5.12-7.89-3.54Z" fill="#f0b4b4"/>
          <path id="Trazado_187453" data-name="Trazado 187453" d="M95.15,190.38c1.35,4.15,2.56,13.26-1,16.56C91.88,209,83.89,208,82.4,202.08c-1.9-1.45-3.23-4.9-1.41-6.4,1.29-1.07,2.84,1.88,5.07,1.45.84-.16-1.6-5.83,1-6.74S92.47,191.66,95.15,190.38Z" fill="#f9cbcb"/>
        </g>
        <path id="Trazado_187454" data-name="Trazado 187454" d="M130,252.19s10.41-.4,12.59,1.18,4.95,7.1,3,6.35-4.25-2.09-6.57-2.52-3.06,1.95-4.6,1.47a31.268,31.268,0,0,0-5.62-.52Z" fill="#f9cbcb"/>
        <path id="Trazado_187455" data-name="Trazado 187455" d="M85.73,220.93c10,5.81,14.32,21.18,18.65,27l28.52,3.58-.7,7.46s-31.55,2-35.37.32S81.36,244,76.59,237.58C69,227.35,77.51,216.14,85.73,220.93Z" fill="#e86175"/>
        <path id="Trazado_187456" data-name="Trazado 187456" d="M162.36,232.28l-4.45,26.7H130.59v3.67h30.97l5.06-30.37Z" fill="#2b4480"/>
      </g>
      <rect id="Rectángulo_39144" data-name="Rectángulo 39144" width="52.64" height="9.38" rx="4.69" transform="translate(59.94 295.84)" fill="#039be5"/>
      <rect id="Rectángulo_39145" data-name="Rectángulo 39145" width="9.63" height="44.59" rx="4.81" transform="translate(59.39 214.9)" fill="#039be5"/>
    </g>
    <g id="Grupo_93184" data-name="Grupo 93184" transform="translate(817 5025)">
      <rect id="Rectángulo_39146" data-name="Rectángulo 39146" width="3.22" height="101.21" transform="translate(132.99 272.86)" fill="#c8cbe3"/>
      <rect id="Rectángulo_39147" data-name="Rectángulo 39147" width="3.22" height="104.97" transform="translate(389.41 272.86)" fill="#c8cbe3"/>
      <path id="Trazado_187457" data-name="Trazado 187457" d="M400.87,274.61H127.28a6.67,6.67,0,0,1-6.68-6.67h0a6.67,6.67,0,0,1,6.68-6.67H400.87a6.67,6.67,0,0,1,6.67,6.67h0a6.67,6.67,0,0,1-6.67,6.67Z" fill="#039be5"/>
      <path id="Trazado_187458" data-name="Trazado 187458" d="M125.05,273.56a6.67,6.67,0,0,1,6.68-6.67H405.32a6.62,6.62,0,0,1,2.19.37,6.68,6.68,0,0,0-6.64-6H127.28a6.67,6.67,0,0,0-2.19,13,5.17,5.17,0,0,1-.04-.7Z" fill="#039be5"/>
    </g>
    <g id="Grupo_93192" data-name="Grupo 93192" transform="translate(817 5025)">
      <rect id="Rectángulo_39148" data-name="Rectángulo 39148" width="33.87" height="6.35" rx="0.78" transform="translate(175.43 236.28)" fill="#039be5"/>
      <path id="Trazado_187459" data-name="Trazado 187459" d="M208.52,236.28h-.41v1.58a3.82,3.82,0,0,1-3.82,3.82H175.43v.18a.76.76,0,0,0,.77.77h32.32a.76.76,0,0,0,.77-.77v-4.8a.77.77,0,0,0-.77-.78Z" fill="#3f90eb"/>
      <rect id="Rectángulo_39149" data-name="Rectángulo 39149" width="2.08" height="6.35" transform="translate(180.13 236.28)" fill="#fff"/>
      <rect id="Rectángulo_39150" data-name="Rectángulo 39150" width="2.08" height="6.35" transform="translate(183.4 236.28)" fill="#fff"/>
      <g id="Grupo_93187" data-name="Grupo 93187">
        <path id="Trazado_187460" data-name="Trazado 187460" d="M209.67,256.81v4.11H197.72a2.06,2.06,0,0,1,0-4.11Z" fill="#fff"/>
        <path id="Trazado_187461" data-name="Trazado 187461" d="M197.72,256.81c-1.79,0-3.05,2.31-1,4.11h12.92v.81H175.89a.87.87,0,0,1-.87-.87v-4a.87.87,0,0,1,.87-.87h33.78v.81Z" fill="#d94559"/>
        <g id="Grupo_93185" data-name="Grupo 93185">
          <path id="Trazado_187462" data-name="Trazado 187462" d="M197.59,256.82h12.08V256H198.5A2,2,0,0,0,197.59,256.82Z" fill="#2a5fa3"/>
          <path id="Trazado_187463" data-name="Trazado 187463" d="M196.55,260.73H180.23a3.58,3.58,0,0,1-3.58-3.58V256h-.76a.87.87,0,0,0-.87.87v4a.87.87,0,0,0,.87.87h33.78v-.81H196.75A1.8,1.8,0,0,1,196.55,260.73Z" fill="#c4374b"/>
        </g>
        <path id="Trazado_187464" data-name="Trazado 187464" d="M195.67,258.87a2.05,2.05,0,0,0,2.05,2.05h11.95v.81H197.72a2.87,2.87,0,0,1,0-5.73h11.95v.81H197.72a2.05,2.05,0,0,0-2.05,2.06Z" fill="#c4374b"/>
        <rect id="Rectángulo_39151" data-name="Rectángulo 39151" width="0.77" height="5.73" transform="translate(187.12 256)" fill="#fff"/>
        <rect id="Rectángulo_39152" data-name="Rectángulo 39152" width="0.77" height="5.73" transform="translate(185.2 256)" fill="#fff"/>
        <circle id="Elipse_7719" data-name="Elipse 7719" cx="1.67" cy="1.67" r="1.67" transform="translate(189.55 257.5)" fill="#fff"/>
        <g id="Grupo_93186" data-name="Grupo 93186">
          <path id="Trazado_187465" data-name="Trazado 187465" d="M203.92,257.64h-6.28a.15.15,0,0,1-.15-.15h0a.16.16,0,0,1,.15-.16h6.28a.16.16,0,0,1,.16.16h0A.16.16,0,0,1,203.92,257.64Z" fill="#e6e8f0"/>
          <path id="Trazado_187466" data-name="Trazado 187466" d="M208.44,260.57h-7.13a.16.16,0,0,1-.16-.16h0a.16.16,0,0,1,.16-.15h7.13a.15.15,0,0,1,.15.15h0a.16.16,0,0,1-.15.16Z" fill="#e6e8f0"/>
          <path id="Trazado_187467" data-name="Trazado 187467" d="M203.92,259.14H200a.16.16,0,0,1-.15-.16h0a.15.15,0,0,1,.15-.15h3.91a.16.16,0,0,1,.16.15h0a.16.16,0,0,1-.15.16Z" fill="#e6e8f0"/>
          <path id="Trazado_187468" data-name="Trazado 187468" d="M199.24,259.14h-1.67a.15.15,0,0,1-.15-.16h0a.15.15,0,0,1,.15-.15h1.67a.16.16,0,0,1,.16.15h0a.16.16,0,0,1-.16.16Z" fill="#e6e8f0"/>
          <path id="Trazado_187469" data-name="Trazado 187469" d="M207.76,259.14h-1.67a.16.16,0,0,1-.16-.16h0a.16.16,0,0,1,.16-.15h1.67a.15.15,0,0,1,.15.15h0A.16.16,0,0,1,207.76,259.14Z" fill="#e6e8f0"/>
          <path id="Trazado_187470" data-name="Trazado 187470" d="M206.62,257.79h-.53a.16.16,0,0,1-.16-.15h0a.15.15,0,0,1,.16-.15h.53a.15.15,0,0,1,.15.15h0A.15.15,0,0,1,206.62,257.79Z" fill="#e6e8f0"/>
          <path id="Trazado_187471" data-name="Trazado 187471" d="M200.49,260.57H200a.16.16,0,0,1-.15-.16h0a.15.15,0,0,1,.15-.15h.53a.16.16,0,0,1,.16.15h0a.16.16,0,0,1-.2.16Z" fill="#e6e8f0"/>
          <path id="Trazado_187472" data-name="Trazado 187472" d="M209.27,259.14h-.53a.16.16,0,0,1-.15-.16h0a.15.15,0,0,1,.15-.15h.53a.16.16,0,0,1,.16.15h0a.16.16,0,0,1-.16.16Z" fill="#e6e8f0"/>
        </g>
        <path id="Trazado_187473" data-name="Trazado 187473" d="M204.38,258.28v1.78l.91-.63.9.63v-1.78Z" fill="#c4374b"/>
      </g>
      <g id="Grupo_93190" data-name="Grupo 93190">
        <path id="Trazado_187474" data-name="Trazado 187474" d="M178.3,251.08v4.11h11.94a2.06,2.06,0,0,0,0-4.11Z" fill="#fff"/>
        <path id="Trazado_187475" data-name="Trazado 187475" d="M190.24,251.08c1.79,0,3.06,2.31,1,4.11H178.3V256h34a.64.64,0,0,0,.64-.64v-4.45a.64.64,0,0,0-.64-.64h-34v.81Z" fill="#ffbc47"/>
        <g id="Grupo_93188" data-name="Grupo 93188">
          <path id="Trazado_187476" data-name="Trazado 187476" d="M190.8,251.16a2.05,2.05,0,0,0-1.57-.74H178.3v.66h11.94A2.1,2.1,0,0,1,190.8,251.16Z" fill="#ffb32e"/>
          <path id="Trazado_187477" data-name="Trazado 187477" d="M212.31,250.27h-.38v2.16a2.91,2.91,0,0,1-2.91,2.91H178.3V256h34a.64.64,0,0,0,.64-.64v-4.45a.64.64,0,0,0-.63-.64Z" fill="#ffb129"/>
        </g>
        <path id="Trazado_187478" data-name="Trazado 187478" d="M192.29,253.13a2.05,2.05,0,0,1-2,2.06H178.3V256h11.94a2.87,2.87,0,1,0,0-5.73H178.3v.81h11.94a2.05,2.05,0,0,1,2.05,2.05Z" fill="#ffcd75"/>
        <rect id="Rectángulo_39153" data-name="Rectángulo 39153" width="0.77" height="5.73" transform="translate(200.84 256) rotate(180)" fill="#fff"/>
        <rect id="Rectángulo_39154" data-name="Rectángulo 39154" width="0.77" height="5.73" transform="translate(202.76 256) rotate(180)" fill="#fff"/>
        <path id="Trazado_187479" data-name="Trazado 187479" d="M195.06,253.13a1.57,1.57,0,1,1,.46,1.12,1.58,1.58,0,0,1-.46-1.12Z" fill="#fff"/>
        <g id="Grupo_93189" data-name="Grupo 93189">
          <path id="Trazado_187480" data-name="Trazado 187480" d="M185.87,251.87h-7a.16.16,0,0,1-.16-.16h0a.16.16,0,0,1,.16-.15h7a.16.16,0,0,1,.16.15h0A.16.16,0,0,1,185.87,251.87Z" fill="#e6e8f0"/>
          <path id="Trazado_187481" data-name="Trazado 187481" d="M190.9,254.79h-8a.15.15,0,0,1-.15-.15h0a.15.15,0,0,1,.15-.15h8a.16.16,0,0,1,.16.15h0a.15.15,0,0,1-.16.15Z" fill="#e6e8f0"/>
          <path id="Trazado_187482" data-name="Trazado 187482" d="M185.87,253.36h-4.39a.15.15,0,0,1-.15-.15h0a.15.15,0,0,1,.15-.16h4.39a.16.16,0,0,1,.16.16h0a.16.16,0,0,1-.16.15Z" fill="#e6e8f0"/>
          <path id="Trazado_187483" data-name="Trazado 187483" d="M180.66,253.36h-1.9a.15.15,0,0,1-.15-.15h0a.15.15,0,0,1,.15-.16h1.9a.16.16,0,0,1,.15.16h0A.15.15,0,0,1,180.66,253.36Z" fill="#e6e8f0"/>
          <path id="Trazado_187484" data-name="Trazado 187484" d="M190.15,253.36h-1.9a.16.16,0,0,1-.16-.15h0a.16.16,0,0,1,.16-.16h1.9a.16.16,0,0,1,.15.16h0A.15.15,0,0,1,190.15,253.36Z" fill="#e6e8f0"/>
          <path id="Trazado_187485" data-name="Trazado 187485" d="M189,251.87h-.62a.16.16,0,0,1-.16-.16h0a.16.16,0,0,1,.16-.15H189a.16.16,0,0,1,.16.15h0A.16.16,0,0,1,189,251.87Z" fill="#e6e8f0"/>
          <path id="Trazado_187486" data-name="Trazado 187486" d="M182.05,254.79h-.62a.15.15,0,0,1-.16-.15h0a.16.16,0,0,1,.16-.15h.62a.16.16,0,0,1,.16.15h0a.15.15,0,0,1-.16.15Z" fill="#e6e8f0"/>
          <path id="Trazado_187487" data-name="Trazado 187487" d="M191.84,253.36h-.63a.15.15,0,0,1-.15-.15h0a.16.16,0,0,1,.15-.16h.63a.16.16,0,0,1,.15.16h0A.15.15,0,0,1,191.84,253.36Z" fill="#e6e8f0"/>
        </g>
        <path id="Trazado_187488" data-name="Trazado 187488" d="M187.93,252.24v1.79l-.81-.63-.8.63v-1.79Z" fill="#c24e4e"/>
      </g>
      <path id="Trazado_187489" data-name="Trazado 187489" d="M187.81,239.46a1.65,1.65,0,1,1,1.65,1.65,1.65,1.65,0,0,1-1.65-1.65Z" fill="#fff"/>
      <g id="Grupo_93191" data-name="Grupo 93191">
        <path id="Trazado_187490" data-name="Trazado 187490" d="M209.92,250.1c-.18-.07-29.65.12-29.77-.07a3.74,3.74,0,0,1-1.71-1.58h0v-3.77h0a3.84,3.84,0,0,1,1.85-1.64h29.58a14.42,14.42,0,0,0,.05,7.06Z" fill="#fff"/>
        <path id="Trazado_187491" data-name="Trazado 187491" d="M210.37,249.32a.57.57,0,0,1-.4,1H181.23a3.83,3.83,0,0,1-1.48-.29l-.14-.07-.14-.07-.12-.06-.12-.07-.09-.06-.11-.07-.08-.06-.09-.07a374.955,374.955,0,0,0-.16-.14l-.07-.06-.07-.07h0l-.06-.07-.06-.06-.06-.07-.05-.06-.06-.07a.429.429,0,0,1,0-.07v-.06l-.05-.07a.429.429,0,0,1,0-.07.209.209,0,0,1,0-.06v-.13h0a3.87,3.87,0,0,1-.49-1.88,3.8,3.8,0,0,1,.49-1.87h0v-.19l.05-.07v-.06l.05-.07v-.07l.06-.07.05-.06.06-.07.06-.06.06-.07.06-.06.08-.07.06-.06.09-.07.07-.07.09-.07.09-.06.1-.07.1-.06.12-.07.11-.06.14-.07.14-.06a3.71,3.71,0,0,1,1.49-.31H210a.575.575,0,0,1,0,1.15H181.05a2.7,2.7,0,0,0-.41.07l-.21.06-.19.07-.14.06-.14.07-.1.07a.41.41,0,0,0-.11.07l-.1.06-.09.07-.07.06-.08.07-.07.06-.06.07-.06.06-.06.07-.1.14L179,245v.13l-.05.07v.06a.16.16,0,0,1,0,.07v.13a.638.638,0,0,1,0,.07v.13a.14.14,0,0,0,0,.07.14.14,0,0,0,0,.06v.47a.13.13,0,0,0,0,.06v.33a.13.13,0,0,0,0,.06v.07a.2.2,0,0,1,0,.07s0,0,0,.07a.13.13,0,0,1,0,.06.637.637,0,0,1,0,.07v.19a.637.637,0,0,0,0,.07v.46a.25.25,0,0,0,0,.07.209.209,0,0,0,0,.06.429.429,0,0,0,0,.07l.05.06a.18.18,0,0,0,.05.07v.07l.06.07.06.06a.462.462,0,0,0,.07.07l.06.06.08.07.08.06.09.07.09.07.11.06.11.07.14.07.14.06.19.07.22.06a2.131,2.131,0,0,0,.44.07H210a.54.54,0,0,1,.37.16Z" fill="#ff9c61"/>
        <path id="Trazado_187492" data-name="Trazado 187492" d="M195.72,245.22H181a.15.15,0,0,1-.15-.15h0a.15.15,0,0,1,.15-.15h14.75a.15.15,0,0,1,.16.15h0a.16.16,0,0,1-.19.15Z" fill="#e6e8f0"/>
        <path id="Trazado_187493" data-name="Trazado 187493" d="M206,248.15H189.35a.15.15,0,0,1-.15-.15h0a.16.16,0,0,1,.15-.16H206a.16.16,0,0,1,.15.16h0A.15.15,0,0,1,206,248.15Z" fill="#e6e8f0"/>
        <path id="Trazado_187494" data-name="Trazado 187494" d="M195.72,246.72h-9.33a.16.16,0,0,1-.16-.15h0a.16.16,0,0,1,.16-.16h9.33a.16.16,0,0,1,.16.16h0A.16.16,0,0,1,195.72,246.72Z" fill="#e6e8f0"/>
        <path id="Trazado_187495" data-name="Trazado 187495" d="M185,246.72h-4.22a.16.16,0,0,1-.16-.15h0a.16.16,0,0,1,.16-.16H185a.16.16,0,0,1,.15.16h0a.15.15,0,0,1-.15.15Z" fill="#e6e8f0"/>
        <path id="Trazado_187496" data-name="Trazado 187496" d="M204.49,246.72h-4.22a.15.15,0,0,1-.15-.15h0a.16.16,0,0,1,.15-.16h4.22a.16.16,0,0,1,.15.16h0a.15.15,0,0,1-.15.15Z" fill="#e6e8f0"/>
        <path id="Trazado_187497" data-name="Trazado 187497" d="M201.88,245.38h-1.61a.16.16,0,0,1-.15-.16h0a.15.15,0,0,1,.15-.15h1.61a.15.15,0,0,1,.15.15h0a.16.16,0,0,1-.15.16Z" fill="#e6e8f0"/>
        <path id="Trazado_187498" data-name="Trazado 187498" d="M187.89,248.15h-1.61a.15.15,0,0,1-.15-.15h0a.15.15,0,0,1,.15-.16h1.61a.16.16,0,0,1,.15.16h0A.15.15,0,0,1,187.89,248.15Z" fill="#e6e8f0"/>
        <path id="Trazado_187499" data-name="Trazado 187499" d="M208,246.72h-1.61a.16.16,0,0,1-.16-.15h0a.16.16,0,0,1,.16-.16H208a.16.16,0,0,1,.15.16h0a.15.15,0,0,1-.15.15Z" fill="#e6e8f0"/>
        <path id="Trazado_187500" data-name="Trazado 187500" d="M198.65,247.25l-.96-.55-.96.55v-2.34h1.92Z" fill="#c24e4e"/>
      </g>
    </g>
    <g id="Grupo_93194" data-name="Grupo 93194" transform="translate(817 5025)">
      <path id="Trazado_187501" data-name="Trazado 187501" d="M477.92,338.78c.75-4.48,6.14-.33,7.64,1.67a62.009,62.009,0,0,1-1.85-6.83c-12.13,1.53-8.38-10.14-.15-.69a55.373,55.373,0,0,1-1.06-8.6c-12-.46-6.62-11.24,0-.85a24.18,24.18,0,0,1,1.24-9.26c-12.22-2.33-4.71-12.17.19-.49,1.3-3.29,3.22-6.34,4.41-9.66-12.41-2.28-4.79-12.29.14-.39a14.82,14.82,0,0,0,.6-8c-12.69,1.17-8-10.74-.07-.34a18.6,18.6,0,0,0-3.88-7.84c-11.83-.14-6.7-10.68.17-.91a18.93,18.93,0,0,1,4.28,8c2.31-12.26,11.33-4.22.2.81a14.761,14.761,0,0,1-.54,8.35c7.64-10.13,12.29,1.31-.23.67-1.26,3.43-3.25,6.56-4.52,10,7.31-10.8,13.16.72-.08.22a24.8,24.8,0,0,0-1.16,9.06c5.93-11,12.25-.63,0,.74a54.171,54.171,0,0,0,1.06,8.41c3.13-12.33,12.1-3.68.11.52a61.307,61.307,0,0,0,1.9,7c3.23-12.09,11.92-3.51.21.62a47.907,47.907,0,0,0,2.79,6.45c-.48,2.49-3.2-5.53-3.49-6.19C483.27,341.57,479.15,341.43,477.92,338.78Z" fill="#36d7c6"/>
      <path id="Trazado_187502" data-name="Trazado 187502" d="M479.21,361.39c2-3.86,5.68,1.45,6.48,3.7a63.153,63.153,0,0,1,.25-6.74c-11.47-2.06-4.73-11.61.07-.67a53.321,53.321,0,0,1,1.48-8.13c-10.81-3.83-2.83-12.12.22-.78a23,23,0,0,1,3.76-8.07c-10.46-5.6-.82-12.42.31-.4,2.12-2.62,4.74-4.85,6.76-7.54-10.64-5.6-.86-12.54.24-.31a14.09,14.09,0,0,0,2.82-7.09c-11.89-2.54-4.27-12.05,0-.32a17.89,17.89,0,0,0-1.3-8.24c-10.69-3.42-3.05-11.62.41-.78a18,18,0,0,1,1.62,8.48c5.59-10.49,11.52-.61-.05.8a14.11,14.11,0,0,1-2.86,7.45c9.83-7.05,10.81,4.68-.4.54-2.12,2.77-4.82,5-6.95,7.79,9.73-7.75,11.77,4.4-.14.18a23.658,23.658,0,0,0-3.62,7.92c8.48-8.31,11.25,2.95-.19.68a51.011,51.011,0,0,0-1.43,7.95c6.36-10.33,12.06.1-.05.5a57.6,57.6,0,0,0-.26,6.95c6.37-10.09,11.85.19,0,.62a45.185,45.185,0,0,0,.71,6.67c-1.15,2.12-1.35-5.95-1.42-6.63C483.29,365.46,479.57,364.16,479.21,361.39Z" fill="#14a6b8"/>
      <g id="Grupo_93193" data-name="Grupo 93193">
        <path id="Trazado_187503" data-name="Trazado 187503" d="M501,346.87c-.12,1.59-2.21,28.22-2.4,30.69H480.16c-.23-2.6-2.52-29-2.66-30.69Z" fill="#d94559"/>
        <path id="Trazado_187504" data-name="Trazado 187504" d="M477.5,346.87c0,.25.09,1,.18,2.14h7.1a11.07,11.07,0,0,1,11,11.93c-.49,6.16-1,13.1-1.31,16.62h4.09c.19-2.47,2.28-29.1,2.4-30.69Z" fill="#c4374b"/>
        <path id="Trazado_187505" data-name="Trazado 187505" d="M500.54,346.87H478a2.51,2.51,0,0,1-2.74-2.22h0a2.52,2.52,0,0,1,2.74-2.23h22.58a2.53,2.53,0,0,1,2.75,2.23h0a2.52,2.52,0,0,1-2.79,2.22Z" fill="#d94559"/>
      </g>
    </g>
    <g id="Grupo_93212" data-name="Grupo 93212" transform="translate(817 5025)">
      <path id="Trazado_187506" data-name="Trazado 187506" d="M161,71.22a1.89,1.89,0,0,0-1.87,1.63H146.72L137,63.17h-9a.45.45,0,0,0-.45.45.46.46,0,0,0,.45.46h8.63l9.68,9.68h12.87A1.89,1.89,0,1,0,161,71.22Zm0,2.87a1,1,0,1,1,1-1,1,1,0,0,1-1,1Z" fill="#aedef8"/>
      <path id="Trazado_187507" data-name="Trazado 187507" d="M506.8,57.5a3.33,3.33,0,0,0-3.28,2H386a2.86,2.86,0,0,0-3-2.13c-1.69,0-3.05,1.06-3.05,2.38s1.36,2.37,3.05,2.37a3.18,3.18,0,0,0,2.74-1.35H503.52a3.34,3.34,0,0,0,3.28,2c1.87,0,3.39-1.19,3.39-2.65S508.67,57.5,506.8,57.5Zm0,4a1.41,1.41,0,1,1,1.495-.57,1.41,1.41,0,0,1-1.495.57Z" fill="#aedef8"/>
      <path id="Trazado_187508" data-name="Trazado 187508" d="M162,118.43a3.33,3.33,0,0,0-3.28,2H131.16a2.86,2.86,0,0,0-3-2.13c-1.68,0-3,1.06-3,2.38s1.36,2.37,3,2.37a3.2,3.2,0,0,0,2.75-1.35h27.81a3.34,3.34,0,0,0,3.28,2c1.87,0,3.39-1.19,3.39-2.65S163.84,118.43,162,118.43Zm0,4a1.41,1.41,0,1,1,1.76-1.37,1.6,1.6,0,0,1-1.76,1.38Z" fill="#aedef8"/>
      <path id="Trazado_187509" data-name="Trazado 187509" d="M510.67,121.46a2.13,2.13,0,1,0-2.05-2.7H492.26l-5-5H384.42a.57.57,0,1,0,0,1.14h102.4l5,5h16.82a2.14,2.14,0,0,0,2.03,1.56Z" fill="#b3d7ff"/>
      <path id="Trazado_187510" data-name="Trazado 187510" d="M383.93,95.37a1.62,1.62,0,1,1,1.62-1.61A1.62,1.62,0,0,1,383.93,95.37Zm0-2.73A1.12,1.12,0,1,0,385,93.76,1.12,1.12,0,0,0,383.93,92.64Z" fill="#326ab3"/>
      <g id="Grupo_93199" data-name="Grupo 93199">
        <g id="Grupo_93195" data-name="Grupo 93195">
          <path id="Trazado_187511" data-name="Trazado 187511" d="M375.58,32.21H171.14c-6.31,0-11.43,5.51-11.43,12.31v139c0,6.8,5.12,12.34,11.43,12.34H375.58c6.31,0,11.43-5.54,11.43-12.34v-139C387,37.72,381.89,32.21,375.58,32.21Zm8.27,150.33a11,11,0,0,1-11.13,10.84H174a11,11,0,0,1-11.11-10.84V60.27A11,11,0,0,1,174,49.41H372.72a11,11,0,0,1,11.13,10.86Z" fill="#1565af"/>
          <path id="Trazado_187512" data-name="Trazado 187512" d="M383.85,60.27V182.54a11,11,0,0,1-11.13,10.84H174a11,11,0,0,1-11.11-10.84V60.27A11,11,0,0,1,174,49.41H372.72a11,11,0,0,1,11.13,10.86Z" fill="#fff"/>
          <path id="Trazado_187513" data-name="Trazado 187513" d="M201.47,41.05a1.91,1.91,0,1,0-1.91,2.06A2,2,0,0,0,201.47,41.05Z" fill="#fff"/>
          <path id="Trazado_187514" data-name="Trazado 187514" d="M191.81,41.05a1.92,1.92,0,1,0-1.91,2.06A2,2,0,0,0,191.81,41.05Z" fill="#fff"/>
          <path id="Trazado_187515" data-name="Trazado 187515" d="M182.14,41.05a1.91,1.91,0,1,0-1.91,2.06A2,2,0,0,0,182.14,41.05Z" fill="#fff"/>
          <path id="Trazado_187516" data-name="Trazado 187516" d="M324.14,43.11H368a2.06,2.06,0,0,0,2-2.06h0A2.05,2.05,0,0,0,368,39H324.14a2.05,2.05,0,0,0-2.05,2h0a2.05,2.05,0,0,0,2.05,2.11Z" fill="#fff"/>
        </g>
        <rect id="Rectángulo_39155" data-name="Rectángulo 39155" width="189.56" height="2.09" rx="1.04" transform="translate(180.47 57.88)" fill="#b3d7ff"/>
        <rect id="Rectángulo_39156" data-name="Rectángulo 39156" width="189.56" height="2.09" rx="1.04" transform="translate(180.47 64.87)" fill="#b3d7ff"/>
        <rect id="Rectángulo_39157" data-name="Rectángulo 39157" width="189.56" height="2.09" rx="1.04" transform="translate(180.47 71.67)" fill="#b3d7ff"/>
        <g id="Grupo_93196" data-name="Grupo 93196">
          <path id="Trazado_187517" data-name="Trazado 187517" d="M263.48,166.49H198.55a1,1,0,0,1-1-1h0a1,1,0,0,1,1-1h64.93a1,1,0,0,1,1,1h0A1,1,0,0,1,263.48,166.49Z" fill="#a7e4eb"/>
          <path id="Trazado_187518" data-name="Trazado 187518" d="M263.48,174.35H198.55a1,1,0,0,1-1-1h0a1,1,0,0,1,1-1h64.93a1,1,0,0,1,1,1h0A1,1,0,0,1,263.48,174.35Z" fill="#a7e4eb"/>
          <path id="Trazado_187519" data-name="Trazado 187519" d="M263.45,144.48H198.58a1,1,0,0,1-1-1h0a1,1,0,0,1,1-1h64.87a1,1,0,0,1,1,1h0A1,1,0,0,1,263.45,144.48Z" fill="#ffc9d1"/>
          <path id="Trazado_187520" data-name="Trazado 187520" d="M263.45,152.61H198.58a1,1,0,0,1-1-1h0a1,1,0,0,1,1-1h64.87a1,1,0,0,1,1,1h0A1,1,0,0,1,263.45,152.61Z" fill="#ffc9d1"/>
          <rect id="Rectángulo_39158" data-name="Rectángulo 39158" width="9.31" height="10.14" transform="translate(181.96 142.47)" fill="#d94559"/>
          <rect id="Rectángulo_39159" data-name="Rectángulo 39159" width="9.31" height="10.14" transform="translate(181.96 163.99)" fill="#05c4da"/>
          <rect id="Rectángulo_39160" data-name="Rectángulo 39160" width="1.56" height="3.43" transform="translate(217.8 141.76)" fill="#d94559"/>
          <rect id="Rectángulo_39161" data-name="Rectángulo 39161" width="1.56" height="3.43" transform="translate(222.93 163.24)" fill="#05c4da"/>
          <rect id="Rectángulo_39162" data-name="Rectángulo 39162" width="1.56" height="3.43" transform="translate(207.65 171.52)" fill="#05c4da"/>
        </g>
        <g id="Grupo_93197" data-name="Grupo 93197">
          <path id="Trazado_187521" data-name="Trazado 187521" d="M226.43,124.81v5.76A24,24,0,0,1,212,125.22l3.32-4.75a18.11,18.11,0,0,0,11.11,4.34Z" fill="#d94559"/>
          <path id="Trazado_187522" data-name="Trazado 187522" d="M226.43,124.81v5.76A24,24,0,0,1,212,125.22l3.32-4.75a18.11,18.11,0,0,0,11.11,4.34Z" fill="#d94559"/>
          <path id="Trazado_187523" data-name="Trazado 187523" d="M214.26,119.48l-3.34,4.79a23.76,23.76,0,0,1-7.74-17.55c0-.2,0-.39,0-.55H209v.55a18.1,18.1,0,0,0,5.262,12.762Z" fill="#ffbc47"/>
          <path id="Trazado_187524" data-name="Trazado 187524" d="M214.26,119.48l-3.34,4.79a23.76,23.76,0,0,1-7.74-17.55c0-.2,0-.39,0-.55H209v.55a18.1,18.1,0,0,0,5.262,12.762Z" fill="#d94559"/>
          <path id="Trazado_187525" data-name="Trazado 187525" d="M221.26,89.6a18.2,18.2,0,0,0-12.18,15.12h-5.8A23.55,23.55,0,0,1,208.33,92a23.85,23.85,0,0,1,11.14-7.83Z" fill="#d94559"/>
          <path id="Trazado_187526" data-name="Trazado 187526" d="M221.26,89.6a18.2,18.2,0,0,0-12.18,15.12h-5.8A23.55,23.55,0,0,1,208.33,92a23.85,23.85,0,0,1,11.14-7.83Z" fill="#ffbc47"/>
          <path id="Trazado_187527" data-name="Trazado 187527" d="M251.11,106.73a23.6,23.6,0,0,1-1,6.8L244.75,111.2a17.67,17.67,0,0,0,.56-4.47,18.12,18.12,0,0,0-7-14.27L242,88a24.26,24.26,0,0,1,6.5,7.85,23.53,23.53,0,0,1,2.61,10.88Z" fill="#d94559"/>
          <path id="Trazado_187528" data-name="Trazado 187528" d="M251.11,106.73a23.6,23.6,0,0,1-1,6.8L244.75,111.2a17.67,17.67,0,0,0,.56-4.47,18.12,18.12,0,0,0-7-14.27L242,88a24.26,24.26,0,0,1,6.5,7.85,23.53,23.53,0,0,1,2.61,10.88Z" fill="#ffbc47"/>
          <path id="Trazado_187529" data-name="Trazado 187529" d="M249.67,114.9a24,24,0,0,1-21.8,15.67v-5.76a18.28,18.28,0,0,0,16.48-12.22Z" fill="#ffbc47"/>
          <path id="Trazado_187530" data-name="Trazado 187530" d="M249.67,114.9a24,24,0,0,1-21.8,15.67v-5.76a18.28,18.28,0,0,0,16.48-12.22Z" fill="#d94559"/>
          <path id="Trazado_187531" data-name="Trazado 187531" d="M240.82,87.12l-3.65,4.5a18.12,18.12,0,0,0-10-3h-1.22a18.321,18.321,0,0,0-3.29.52l-1.79-5.49a24.1,24.1,0,0,1,5.93-.83h.37a23.9,23.9,0,0,1,13.65,4.3Z" fill="#ffbc47"/>
          <path id="Trazado_187532" data-name="Trazado 187532" d="M240.82,87.12l-3.65,4.5a18.12,18.12,0,0,0-10-3h-1.22a18.321,18.321,0,0,0-3.29.52l-1.79-5.49a24.1,24.1,0,0,1,5.93-.83h.37a23.9,23.9,0,0,1,13.65,4.3Z" fill="#ffbc47"/>
        </g>
        <g id="Grupo_93198" data-name="Grupo 93198">
          <rect id="Rectángulo_39163" data-name="Rectángulo 39163" width="83.6" height="57.06" rx="15.59" transform="translate(280.29 84.46)" fill="#039be5"/>
          <path id="Trazado_187533" data-name="Trazado 187533" d="M290.22,132.06l8.87-9.63,6.45,1.64,11.74-20.33,7.94,12.12,6.88-3.97,6.27,11.46,5.05-5.15,10.54,13.86Z" fill="#fff"/>
          <circle id="Elipse_7720" data-name="Elipse 7720" cx="4.88" cy="4.88" r="4.88" transform="translate(335.47 96.23)" fill="#fff"/>
        </g>
      </g>
      <g id="Grupo_93200" data-name="Grupo 93200">
        <path id="Trazado_187534" data-name="Trazado 187534" d="M280.43,151.75h4.65V164.2a25.129,25.129,0,0,0,.17,3.84,3.7,3.7,0,0,0,1.42,2.27,4.94,4.94,0,0,0,3.06.86,4.67,4.67,0,0,0,3-.81,3.17,3.17,0,0,0,1.21-2,25,25,0,0,0,.21-3.9V151.75h4.64v12.08a31,31,0,0,1-.38,5.85,6.36,6.36,0,0,1-1.39,2.88,7,7,0,0,1-2.7,1.88,11.91,11.91,0,0,1-4.42.69,12.68,12.68,0,0,1-5-.76,7.11,7.11,0,0,1-2.69-2,6.32,6.32,0,0,1-1.3-2.55,27.424,27.424,0,0,1-.46-5.84Z" fill="#3a67b3"/>
        <path id="Trazado_187535" data-name="Trazado 187535" d="M303.52,174.74v-23h4.64v23Z" fill="#3a67b3"/>
        <path id="Trazado_187536" data-name="Trazado 187536" d="M310.2,175.13l5.69-23.77h3.31l-5.75,23.77Z" fill="#3a67b3"/>
        <path id="Trazado_187537" data-name="Trazado 187537" d="M321.48,151.75h4.64V164.2a26.586,26.586,0,0,0,.17,3.84,3.7,3.7,0,0,0,1.42,2.27,5,5,0,0,0,3.07.86,4.67,4.67,0,0,0,3-.81,3.21,3.21,0,0,0,1.21-2,26.712,26.712,0,0,0,.2-3.9V151.75h4.64v12.08a31.274,31.274,0,0,1-.37,5.85,6.47,6.47,0,0,1-1.39,2.88,7.069,7.069,0,0,1-2.71,1.88,11.88,11.88,0,0,1-4.42.69,12.71,12.71,0,0,1-5-.76,7.11,7.11,0,0,1-2.69-2,6.45,6.45,0,0,1-1.3-2.55,28.238,28.238,0,0,1-.45-5.84Z" fill="#3a67b3"/>
        <path id="Trazado_187538" data-name="Trazado 187538" d="M342.37,174.74l7.86-12-7.12-11h5.42l4.61,7.39,4.52-7.39H363l-7.15,11.17,7.86,11.82h-5.6l-5.1-8-5.11,8Z" fill="#3a67b3"/>
      </g>
      <g id="Grupo_93203" data-name="Grupo 93203">
        <g id="Grupo_93201" data-name="Grupo 93201">
          <rect id="Rectángulo_39164" data-name="Rectángulo 39164" width="38.52" height="38.52" rx="3.94" transform="translate(92.83 102.83)" fill="#febd48"/>
          <path id="Trazado_187539" data-name="Trazado 187539" d="M128.23,102.92a3.9,3.9,0,0,1,.63,2.14v30.63a4,4,0,0,1-3.94,3.94H94.29a3.771,3.771,0,0,1-.83-.09,3.93,3.93,0,0,0,3.31,1.81H127.4a3.94,3.94,0,0,0,3.94-3.95V106.77a3.94,3.94,0,0,0-3.11-3.85Z" fill="#ccc"/>
        </g>
        <g id="Grupo_93202" data-name="Grupo 93202">
          <path id="Trazado_187540" data-name="Trazado 187540" d="M123.22,116.62l-3.09-1.43.02,2.05H102.04v1.73h18.13l.02,2.04,3.06-1.48,3.06-1.49Z" fill="#fff"/>
          <path id="Trazado_187541" data-name="Trazado 187541" d="M100.95,124.59l3.09-1.43-.02,2.05h18.11v1.73H104l-.02,2.04-3.06-1.48-3.06-1.49Z" fill="#fff"/>
        </g>
      </g>
      <g id="Grupo_93206" data-name="Grupo 93206">
        <g id="Grupo_93204" data-name="Grupo 93204">
          <rect id="Rectángulo_39165" data-name="Rectángulo 39165" width="38.52" height="38.52" rx="3.94" transform="translate(501.38 39.08)" fill="#36d7c6"/>
          <path id="Trazado_187542" data-name="Trazado 187542" d="M536.78,39.17a3.86,3.86,0,0,1,.63,2.13V71.93a3.94,3.94,0,0,1-3.94,3.95H502.84a3.769,3.769,0,0,1-.83-.09,3.94,3.94,0,0,0,3.31,1.8H536a3.93,3.93,0,0,0,3.94-3.94V43A3.94,3.94,0,0,0,536.78,39.17Z" fill="#ccc"/>
        </g>
        <g id="Grupo_93205" data-name="Grupo 93205">
          <path id="Trazado_187543" data-name="Trazado 187543" d="M515.33,69.28h-4.38V47.21h4.38v1.34h-3.04v19.4h3.04Z" fill="#fff"/>
          <path id="Trazado_187544" data-name="Trazado 187544" d="M531.36,69.28h-4.37V67.95h3.04V48.55h-3.04V47.21h4.37Z" fill="#fff"/>
        </g>
      </g>
      <g id="Grupo_93208" data-name="Grupo 93208">
        <g id="Grupo_93207" data-name="Grupo 93207">
          <rect id="Rectángulo_39166" data-name="Rectángulo 39166" width="38.52" height="38.52" rx="3.94" transform="translate(501.69 98.37)" fill="#e34d62"/>
          <path id="Trazado_187545" data-name="Trazado 187545" d="M537.09,98.46a3.87,3.87,0,0,1,.64,2.13v30.63a4,4,0,0,1-4,3.95H503.15a3.68,3.68,0,0,1-.82-.09,3.94,3.94,0,0,0,3.31,1.8h30.63a3.94,3.94,0,0,0,3.94-3.94V102.31a4,4,0,0,0-3.12-3.85Z" fill="#ccc"/>
        </g>
        <path id="Trazado_187546" data-name="Trazado 187546" d="M530.46,116.79l-14.82-7a.94.94,0,0,0-1.34.83v13.91a.94.94,0,0,0,1.34.83l14.82-7a.92.92,0,0,0,0-1.57Z" fill="#fff"/>
        <path id="Trazado_187547" data-name="Trazado 187547" d="M520.26,130.14a13.6,13.6,0,1,1,13.59-13.59,13.6,13.6,0,0,1-13.59,13.59Zm0-26.66a13.07,13.07,0,1,0,13.07,13.07A13.07,13.07,0,0,0,520.26,103.48Z" fill="#fff"/>
      </g>
      <g id="Grupo_93211" data-name="Grupo 93211">
        <g id="Grupo_93209" data-name="Grupo 93209">
          <rect id="Rectángulo_39167" data-name="Rectángulo 39167" width="38.52" height="38.52" rx="3.94" transform="translate(92.83 41.9)" fill="#039be5"/>
          <path id="Trazado_187548" data-name="Trazado 187548" d="M128.23,42a3.92,3.92,0,0,1,.63,2.14V74.75a4,4,0,0,1-3.94,4H94.29a4.49,4.49,0,0,1-.83-.09,3.94,3.94,0,0,0,3.31,1.8H127.4a3.93,3.93,0,0,0,3.94-3.94V45.84A4,4,0,0,0,128.23,42Z" fill="#ccc"/>
        </g>
        <g id="Grupo_93210" data-name="Grupo 93210">
          <path id="Trazado_187549" data-name="Trazado 187549" d="M120,58.84h-.63a8.36,8.36,0,0,0-.88-2.29L119,56a2,2,0,0,0-2.82-2.82l-.44.44a8.5,8.5,0,0,0-2.24-1h0v-.74a2,2,0,0,0-4,0v.63a8.1,8.1,0,0,0-2.29.87l-.52-.52a2,2,0,0,0-2.82,2.82l.44.45a8.08,8.08,0,0,0-1,2.24h-.73a2,2,0,0,0,0,4h.62a8.36,8.36,0,0,0,.88,2.29l-.52.52A2,2,0,0,0,106.37,68l.44-.44h0a8.56,8.56,0,0,0,2.24,1v.73a2,2,0,0,0,4,0v-.63a8.3,8.3,0,0,0,2.3-.88l.52.52a2,2,0,1,0,2.82-2.82l-.45-.44h0a8.08,8.08,0,0,0,1-2.24H120a2,2,0,0,0,0-4Zm-2.77,1.78a5.914,5.914,0,1,0-.03,0Z" fill="#fff"/>
          <path id="Trazado_187550" data-name="Trazado 187550" d="M107.51,60.62a3.75,3.75,0,1,0,1.1-2.655,3.76,3.76,0,0,0-1.1,2.655Z" fill="#fff"/>
        </g>
      </g>
    </g>
    <g id="Grupo_93213" data-name="Grupo 93213" transform="translate(817 5025)">
      <path id="Trazado_187551" data-name="Trazado 187551" d="M404.58,156.62a4.15,4.15,0,1,0,5.62,1.69,4.15,4.15,0,0,0-5.62-1.69Zm2.47,4.6a1.06,1.06,0,1,1,.525-.632A1.07,1.07,0,0,1,407.05,161.22Z" fill="#cce3ff"/>
      <path id="Trazado_187552" data-name="Trazado 187552" d="M413.62,154.88l-1.95.36h0a7.3,7.3,0,0,0-1.22-1l-.06-2a.78.78,0,0,0-.55-.73l-1.24-.37a.78.78,0,0,0-.87.31l-1.12,1.63h0a7.61,7.61,0,0,0-1.57.16h0l-1.45-1.37a.79.79,0,0,0-.91-.12l-1.13.61a.79.79,0,0,0-.4.83l.36,2h0a7.3,7.3,0,0,0-1,1.22h0l-2,.06a.77.77,0,0,0-.73.55l-.37,1.24a.79.79,0,0,0,.31.87l1.63,1.12a6.439,6.439,0,0,0,.16,1.57l-1.37,1.45a.77.77,0,0,0-.12.91l.61,1.13a.78.78,0,0,0,.83.4l1.94-.36h0a7.28,7.28,0,0,0,1.23,1l.05,2a.79.79,0,0,0,.56.73l1.24.37a.77.77,0,0,0,.86-.31l1.13-1.63a7,7,0,0,0,1.57-.16h0l1.45,1.37a.76.76,0,0,0,.9.12l1.14-.61a.78.78,0,0,0,.4-.83l-.36-1.95h0a7.3,7.3,0,0,0,1-1.22h0l2-.05a.79.79,0,0,0,.73-.56l.37-1.24a.79.79,0,0,0-.31-.87l-1.63-1.12a7.612,7.612,0,0,0-.16-1.57l1.37-1.45a.77.77,0,0,0,.12-.9l-.61-1.14a.79.79,0,0,0-.83-.45ZM409,164.8a5.14,5.14,0,1,1,2.505-3.064A5.14,5.14,0,0,1,409,164.8Z" fill="#cce3ff"/>
    </g>
    <g id="Grupo_93214" data-name="Grupo 93214" transform="translate(817 5025)">
      <path id="Trazado_187553" data-name="Trazado 187553" d="M559.29,85.22H529.73a.55.55,0,0,1-.56-.55h0a.56.56,0,0,1,.56-.55h29.56a.55.55,0,0,1,.55.55h0A.55.55,0,0,1,559.29,85.22Z" fill="#cce3ff"/>
      <path id="Trazado_187554" data-name="Trazado 187554" d="M559.69,89.32H541.94a.55.55,0,0,1-.55-.55h0a.55.55,0,0,1,.55-.55h17.75a.54.54,0,0,1,.55.55h0A.55.55,0,0,1,559.69,89.32Z" fill="#cce3ff"/>
      <path id="Trazado_187555" data-name="Trazado 187555" d="M537.76,89.32h-5.71a.55.55,0,0,1-.55-.55h0a.55.55,0,0,1,.55-.55h5.71a.54.54,0,0,1,.55.55h0A.55.55,0,0,1,537.76,89.32Z" fill="#cce3ff"/>
    </g>
    <g id="Grupo_93215" data-name="Grupo 93215" transform="translate(817 5025)">
      <path id="Trazado_187556" data-name="Trazado 187556" d="M324.78,19.16H295.22a.55.55,0,0,1-.55-.55h0a.54.54,0,0,1,.55-.55h29.56a.55.55,0,0,1,.55.55h0A.55.55,0,0,1,324.78,19.16Z" fill="#cce3ff"/>
      <path id="Trazado_187557" data-name="Trazado 187557" d="M325.19,23.26H307.44a.56.56,0,0,1-.56-.56h0a.56.56,0,0,1,.56-.55h17.75a.55.55,0,0,1,.55.55h0a.56.56,0,0,1-.55.56Z" fill="#cce3ff"/>
      <path id="Trazado_187558" data-name="Trazado 187558" d="M303.25,23.26h-5.7a.56.56,0,0,1-.56-.56h0a.55.55,0,0,1,.55-.55h5.71a.56.56,0,0,1,.56.55h0a.56.56,0,0,1-.56.56Z" fill="#cce3ff"/>
    </g>
    <g id="Grupo_93216" data-name="Grupo 93216" transform="translate(817 5025)">
      <path id="Trazado_187559" data-name="Trazado 187559" d="M146.74,156.6H117.18a.55.55,0,0,1-.55-.55h0a.55.55,0,0,1,.55-.55h29.56a.55.55,0,0,1,.55.55h0a.55.55,0,0,1-.55.55Z" fill="#cce3ff"/>
      <path id="Trazado_187560" data-name="Trazado 187560" d="M147.15,160.7H129.4a.55.55,0,0,1-.55-.55h0a.55.55,0,0,1,.55-.56h17.75a.56.56,0,0,1,.55.56h0A.55.55,0,0,1,147.15,160.7Z" fill="#cce3ff"/>
      <path id="Trazado_187561" data-name="Trazado 187561" d="M125.22,160.7h-5.71a.55.55,0,0,1-.55-.55h0a.55.55,0,0,1,.55-.56h5.71a.56.56,0,0,1,.55.56h0a.55.55,0,0,1-.55.55Z" fill="#cce3ff"/>
    </g>
    <rect id="Rectángulo_39168" data-name="Rectángulo 39168" width="604" height="402.67" transform="translate(817 5025)" fill="none" stroke="#cce3ff" stroke-miterlimit="10" stroke-width="1"/>
  </g>
</svg>
