<svg xmlns="http://www.w3.org/2000/svg" width="256.89" height="197.57" viewBox="0 0 256.89 197.57">
  <g id="Grupo_94249" data-name="Grupo 94249" transform="translate(-947 -3482)">
    <g id="Grupo_91861" data-name="Grupo 91861" transform="translate(922 3432.31)">
      <path id="Trazado_181307" data-name="Trazado 181307" d="M26.61,130.9v-.56l.05-.55v-.56l.06-.55.05-.56.06-.55L27,127l.06-.55.07-.55.07-.54.08-.55.08-.54.08-.55.08-.54.07-.41a.83.83,0,0,0-1.63-.26l-.07.41-.08.55-.08.56-.08.55-.08.56-.07.56-.07.55-.07.56-.06.57-.06.56-.06.56v.57l-.05.56v5.05a.83.83,0,0,0,1.65.05v-3.85Zm0,12A.83.83,0,0,0,25,143v1.22l.05.55.05.55.05.55.06.55.06.54.06.55.07.55.07.54.07.55.08.54.08.54.09.54.07.49a.83.83,0,0,0,1.63-.27l-.08-.47-.08-.54-.08-.53-.07-.53-.07-.53-.07-.54-.07-.54.03-.51-.06-.54-.06-.54v-.54l-.05-.54v-.54l-.05-.54v-.66ZM29.23,159a.83.83,0,0,0-1.6.43l.11.41.15.52.14.52.15.52.15.52.15.52.16.51.16.52.2.53.17.51.17.51.17.51.17.51.18.51.18.5.12.33a.83.83,0,0,0,1.55-.57l-.12-.32-.17-.49-.18-.5L31,165l-.17-.5-.17-.5-.16-.5-.16-.51-.16-.5-.15-.51-.15-.5-.15-.51-.14-.51-.14-.51-.14-.52-.11-.41Zm5.6,15.31a.823.823,0,0,0-1.48.72l.18.38.23.48.24.48.24.47.24.48.24.47.25.47.25.47.25.47.26.47.26.46.26.46.26.47.27.46.27.45.22.39a.83.83,0,0,0,1.42-.85l-.22-.37-.27-.45-.26-.45-.26-.46-.25-.45-.26-.46-.25-.46-.25-.46-.24-.46-.24-.46-.24-.47-.24-.46-.24-.47-.23-.47-.23-.47-.18-.38Zm8.37,14a.832.832,0,1,0-1.33,1l.15.21.31.42.32.43.32.42.33.42.32.42L44,192l.33.42.33.41.34.41.33.41.34.4.35.41.34.4.35.4.35.4.08.09a.821.821,0,0,0,1.22-1.1l-.07-.08-.34-.39-.34-.39-.34-.4-.33-.4-.34-.4-.33-.4-.33-.4-.33-.4-.32-.41-.32-.41-.32-.41-.32-.41-.31-.42-.31-.41-.31-.42-.15-.21ZM54,200.51a.83.83,0,0,0-1.13,1.21h0l.39.36.39.36.39.36.4.35.39.35.4.35.4.35.41.35.4.34.41.34.41.34.41.33.42.34.41.33.42.33.24.19a.83.83,0,0,0,1-1.31l-.24-.18-.41-.32-.4-.33-.41-.33-.4-.33-.41-.33-.4-.33-.39-.34-.4-.34-.39-.34-.4-.34-.38-.35-.39-.35-.39-.35-.38-.35-.38-.35h0Zm12.87,10A.82.82,0,1,0,66,211.9l.35.23.46.28.45.28.46.28.46.28.46.27.46.27.46.27.47.26.47.26.47.26.47.26.47.25.47.25.48.25.36.18a.823.823,0,1,0,.74-1.47l-.34-.18-.47-.24-.47-.25-.46-.24-.46-.26-.46-.25-.46-.26-.46-.26-.45-.26-.46-.26-.45-.27-.45-.27-.45-.27-.44-.28-.45-.27-.36-.23Zm14.53,7.41a.83.83,0,0,0-.6,1.54l.42.16.5.2.51.19.51.19.51.19.51.18.52.18.51.18.52.17.52.18.52.17.52.16.52.16.53.16.52.16.22.06a.823.823,0,0,0,.46-1.58l-.22-.07-.51-.15-.51-.15-.52-.16-.51-.17-.51-.16-.51-.17-.5-.17-.51-.17-.5-.18-.51-.18-.5-.18-.5-.19-.49-.19-.5-.19-.42-.17Zm48.12,4.56a.825.825,0,0,0,.31,1.62l.4-.08.53-.1.53-.11.53-.12.53-.11.53-.12.52-.12.53-.13.52-.13L135,223l.52-.13.52-.14.52-.14.52-.15.52-.14.35-.11a.824.824,0,0,0-.47-1.58l-.34.1-.51.15-.51.14-.5.14-.51.13-.52.14-.51.12-.51.13-.51.12-.52.12-.54.1-.51.11-.52.11-.53.11-.52.11-.39.07Zm15.64-4.59a.83.83,0,0,0,.62,1.53l.36-.14.49-.2.49-.21.49-.21.49-.21.49-.21.48-.22.48-.22.49-.22.47-.22.48-.23.48-.23.48-.23.47-.24.47-.24.45-.23a.823.823,0,0,0-.76-1.46l-.44.22-.46.24-.47.23-.46.23-.47.22-.47.23-.47.22-.47.22-.48.21-.47.21-.48.21-.48.21-.48.2-.48.2-.48.2-.36.14Zm14.48-7.48a.83.83,0,0,0,.9,1.39l.12-.08.45-.29.44-.29.43-.29.44-.3.43-.3.44-.3.43-.3.42-.31.43-.3.43-.31.42-.32.42-.31.42-.32.42-.32.41-.32.22-.18a.82.82,0,0,0-1-1.29l-.21.17-.41.31-.41.32-.41.31-.41.31-.42.31-.42.3-.42.3-.42.3-.42.3-.42.3-.43.29-.43.29-.43.28-.43.29-.43.28-.13.08Zm12.81-10.09a.824.824,0,0,0,1.14,1.19l.25-.24.38-.36.37-.37.38-.37.37-.37.37-.38.36-.38.37-.38.36-.38.36-.38.36-.39.36-.39.35-.39.35-.39.35-.4.35-.39.05-.06a.83.83,0,0,0-1.26-1.08v.06l-.34.39-.34.38-.35.39-.34.38-.35.38-.35.38-.36.38-.35.37-.36.38-.36.37-.36.36-.37.37-.36.36-.37.37-.37.36-.25.23ZM183.13,188a.836.836,0,0,0,1.34,1h0l.31-.43.3-.43.3-.44.3-.44.29-.44.29-.44.29-.44.29-.45.29-.45.28-.45.28-.45.27-.45.28-.46.27-.46.27-.46.15-.27a.822.822,0,1,0-1.43-.81l-.15.26-.26.45-.27.45-.27.44-.27.45-.27.44-.28.44-.28.44-.28.44-.28.44-.29.43-.29.43-.29.43-.3.43-.29.43-.3.42h0Zm8.13-14.12a.821.821,0,0,0,1.5.67l.19-.41.22-.49.22-.49.21-.5.21-.49.2-.5.21-.5.2-.5.2-.5.19-.51.19-.5.19-.51.19-.51.18-.51.18-.51.1-.29a.824.824,0,1,0-1.56-.53l-.1.28-.17.5-.18.5-.18.5-.19.5-.19.49-.19.5-.19.49-.2.49-.2.49-.2.49-.21.49-.21.48-.21.48-.21.49-.19.41Zm5.3-15.42a.822.822,0,0,0,1.6.38v-.12l.13-.53.12-.54.12-.54.12-.54.11-.54.11-.55.11-.54.1-.55.1-.55.1-.54.09-.55.09-.55.08-.56.09-.55.06-.42a.823.823,0,0,0-1.63-.23l-.06.41-.08.54-.09.55-.09.54-.09.54-.09.53-.1.54-.1.54-.11.53-.1.53-.12.54-.11.53-.12.53-.12.52-.12.53v.12Zm2.29-16.14a.83.83,0,0,0,1.65.07v-8.32a.821.821,0,1,0-1.64.09v8.16ZM198.11,126a.824.824,0,0,0,1.63-.24l-.05-.36-.08-.54-.08-.54-.09-.55-.09-.53-.09-.54-.1-.54-.1-.54-.1-.53-.11-.53-.11-.54-.11-.53-.12-.53-.12-.53-.12-.53-.07-.31a.83.83,0,0,0-1.61.39l.07.3.12.52.12.52.12.52.11.52.1.52.11.53.1.52.1.53.09.52.09.53.09.53.09.53.08.53.08.54.05.36Zm-3.78-15.86a.824.824,0,0,0,1.56-.53h0l-.17-.5-.18-.51-.18-.51-.18-.5-.19-.5-.19-.5-.19-.5-.2-.5-.2-.5-.2-.5-.21-.49-.2-.49-.21-.49-.22-.49-.21-.49-.12-.26a.823.823,0,1,0-1.5.68l.11.25.21.48.21.48.21.48.2.49.2.48.2.49.2.48.19.49.19.5.19.49.18.49.18.49.18.5.17.5.17.5Zm-6.69-14.87a.82.82,0,1,0,1.42-.82l-.22-.39-.26-.46-.27-.46-.27-.45-.28-.46-.28-.45-.28-.45-.28-.45-.28-.45-.29-.45-.29-.44-.29-.45-.3-.44-.3-.44-.3-.43-.24-.36a.84.84,0,0,0-1.35,1l.24.35.29.43.3.43.29.43.28.43.29.44.28.44.28.44.27.44.28.44.27.45.27.44.27.45.26.45.26.45.23.39ZM178.3,81.92a.823.823,0,0,0,1.25-1.07l-.16-.19-.35-.4-.35-.41-.34-.39-.36-.4-.35-.39-.36-.39-.36-.39-.36-.39-.36-.39-.37-.38-.36-.38L175.1,76l-.38-.38-.37-.37-.38-.38-.08-.08A.835.835,0,0,0,172.74,76l.08.07.37.37.36.36.37.37.36.38.36.37.36.38.36.37.35.39.36.38.35.38.34.39.35.39.34.39.34.39.34.4.17.19ZM166.65,70.51a.82.82,0,0,0,1-1.28h-.05l-.41-.33-.42-.33-.42-.33-.41-.33-.43-.32-.42-.32-.43-.32-.42-.32-.43-.31-.44-.31-.43-.31-.43-.31-.44-.3-.44-.3-.44-.3-.24-.16a.83.83,0,0,0-.91,1.38l.23.15.43.29.43.3.43.3.43.3.43.3.42.3.42.31.42.31.42.32.41.31.42.32.41.32.41.32.41.33.4.32h.05Zm-13.56-9.05a.821.821,0,1,0,.77-1.45l-.43-.23-.47-.25-.48-.25L152,59l-.48-.24-.48-.24-.48-.23-.49-.24-.48-.23-.49-.23-.49-.22-.49-.22-.5-.22-.49-.22-.5-.21-.27-.12a.823.823,0,0,0-.63,1.52l.27.1.48.21.49.21.48.22.48.22.49.22.47.22.48.23.48.23.47.23.48.24.47.23.47.24.46.25.47.24.43.23Zm-15-6.34a.83.83,0,0,0,.49-1.58h-.08l-.53-.17-.52-.15L136.9,53l-.52-.15-.53-.15-.53-.15-.53-.14-.54-.14-.53-.14-.54-.13-.53-.13-.54-.13-.54-.12-.54-.12-.51-.11a.824.824,0,1,0-.35,1.61l.51.11.53.11.53.13.52.12.53.13.53.13.52.13.52.14.52.14.52.15.52.14.52.15.51.15.52.16.51.16h.09Zm-15.95-3.41a.83.83,0,0,0,.19-1.64h-.1l-.56-.06-.56-.06-.57-.06-.56-.05h-1.14l-.56-.05H114a.83.83,0,0,0,0,1.65h5.83l.55.05.56.06.55.06.55.06Zm-16.3-.37a.83.83,0,0,0-.12-1.65h-1.4l-.55.05-.55.06-.54.05-.55.06-.54.07-.55.06-.54.07-.54.08-.54.07-.54.08-.54.09-.54.08-.34.06a.822.822,0,1,0,.28,1.62h.33l.53-.09.53-.08.53-.08.53-.07.53-.07.53-.07.53-.07.54-.06.53-.06.54-.05.53-.06h.54l.54-.05h.84ZM89.75,54a.825.825,0,0,0-.44-1.59l-.5.14-.52.14-.51.15-.52.15-.51.15-.51.16-.51.16-.51.16-.51.17L84.2,54l-.51.17-.5.17-.5.18-.5.18-.51.19-.29.1A.833.833,0,1,0,82,56.54l.28-.11.49-.18.49-.18.49-.17.5-.17.49-.17.5-.17.5-.16.5-.16.5-.16.51-.15.5-.15.5-.15.51-.14.51-.14.5-.14ZM74.48,59.76a.83.83,0,0,0-.73-1.48l-.35.18-.48.24-.47.23-.47.25-.47.24-.46.25-.47.25-.46.25-.47.25-.46.26-.46.26-.45.27-.46.26-.45.27-.45.27-.45.28a.822.822,0,0,0,.86,1.4l.44-.27.44-.26.45-.27.44-.26.45-.26.45-.25.45-.26.46-.25.45-.24.46-.25.46-.24.46-.24.46-.24.46-.23.47-.23.35-.18Zm-13.9,8.52a.824.824,0,1,0-1-1.31L59.5,67l-.42.32-.41.32-.42.32-.41.33-.41.33L57,69l-.41.33-.4.33L55.8,70l-.4.34-.4.34-.4.35-.39.35-.39.35-.39.35-.24.22a.821.821,0,1,0,1.11,1.21l.23-.21.39-.35.38-.34.39-.34.39-.34.39-.33.39-.34.4-.33.4-.33.4-.32.4-.33.4-.32.41-.32.4-.32.41-.31.42-.31.08-.07Zm-12,11a.821.821,0,1,0-1.22-1.1l-.21.23-.35.39-.35.39-.34.4-.35.4-.34.4-.34.4-.33.41-.34.41L44,82l-.33.41-.33.42-.32.41-.33.42-.31.42-.32.42-.06.1a.832.832,0,1,0,1.33,1l.06-.08.31-.42.31-.41.32-.41.32-.41.32-.4.32-.41.33-.4.33-.4.33-.4.33-.39.34-.4.33-.39.34-.39.35-.39.34-.38.2-.23ZM38.8,92.35a.83.83,0,0,0-1.41-.86v.05l-.27.46-.28.45-.26.46-.27.46-.26.47-.26.46-.26.47-.26.47-.25.47-.25.47-.24.47-.25.48-.24.48-.24.48-.23.48-.12.24a.83.83,0,0,0,1.49.71l.11-.23.23-.47.23-.47.24-.47.24-.47L36.2,97l.25-.47.24-.46.25-.46.26-.46.25-.45.26-.46.26-.45.26-.45.27-.45.27-.44V92.4ZM31.72,107a.83.83,0,0,0-1.55-.57h0L30,107l-.19.51-.18.51-.17.51-.18.52-.17.52-.16.51-.17.52-.16.52-.16.53-.15.52-.15.53-.15.52-.15.53-.14.53v.12a.821.821,0,0,0,1.59.41v-.11l.14-.52.14-.51.15-.52.15-.52.15-.51.16-.51.15-.51.17-.51.16-.51.17-.51.17-.5.17-.51.18-.5.18-.5.18-.5Z" fill="#72d3d9" fill-rule="evenodd"/>
      <path id="Trazado_181308" data-name="Trazado 181308" d="M36,141.58h0v.47a.823.823,0,1,0,1.64-.15v-.42h0v-8.15a.83.83,0,0,0-1.65,0v8.32ZM38.83,150a.825.825,0,0,0-1.62.31v.08l.09.48.1.48.11.48.1.47.11.48.11.47.11.47.12.48.12.47.12.47.12.47.13.46.13.47.13.46.14.47.13.46.14.46a.83.83,0,0,0,1.58-.49l-.14-.45-.13-.45-.14-.45-.13-.46-.12-.45-.13-.46-.12-.46-.12-.46-.11-.46-.12-.46-.11-.47-.11-.46-.1-.47-.1-.46L39,151l-.1-.47-.09-.47v-.07Zm4.8,15.55a.822.822,0,1,0-1.51.65l.12.28.19.44.19.43.2.44.2.43.2.43.2.43.21.43.2.43.21.42.22.43.21.42.22.42.22.42.23.42.22.41.23.42.21.37a.822.822,0,0,0,1.43-.81l-.2-.36-.22-.41-.22-.4-.22-.41-.22-.41-.21-.42-.21-.41-.21-.41-.21-.42-.2-.42-.2-.42-.2-.42-.2-.42-.19-.43-.19-.42-.19-.43-.19-.42-.12-.28Zm7.95,14.21a.83.83,0,0,0-1.35.95l.13.18.27.38.28.38.27.38.28.38.29.37.28.38.29.37.29.37.29.37.29.37.29.36.3.37.3.36.3.36.3.36.31.36.3.35.09.1a.83.83,0,0,0,1.24-1.09l-.08-.09-.3-.35-.3-.35-.3-.35-.29-.35-.3-.36-.29-.35-.29-.36-.28-.36-.29-.36-.28-.37-.28-.36-.28-.37-.27-.37-.28-.37-.27-.37L52,180.3l-.27-.38-.12-.17ZM62.29,192a.83.83,0,0,0-1.12,1.22l.33.3.34.32.35.31.35.31.35.31.35.31.36.31.35.3.36.3.36.3.36.3.36.3.37.29.37.29.36.29.37.29.37.28.31.24a.83.83,0,0,0,1-1.32l-.3-.23-.36-.28-.36-.28-.36-.28-.36-.29-.36-.28-.35-.29-.36-.29-.35-.3-.35-.29-.35-.3-.35-.3-.34-.3-.34-.31-.35-.3-.34-.31-.34-.31L62.3,192Zm13,9.82a.83.83,0,0,0-.85,1.42l.16.09.41.24.4.24.41.24.4.23.41.23.41.23.41.23.42.22.41.22.41.22.42.22.42.21.42.21.42.21.42.21.42.2.43.21.14.06a.823.823,0,0,0,.7-1.49l-.14-.06-.41-.2-.42-.2L81.1,205l-.41-.2-.41-.21-.41-.21-.41-.21L79,204l-.4-.22-.41-.22-.4-.22-.4-.23-.4-.22-.4-.23-.4-.23-.39-.24-.4-.23-.16-.1ZM90,208.75a.83.83,0,0,0-.54,1.56h0l.44.15.45.16.45.14.45.15.45.14.46.14.45.14.46.13.45.14.46.13.46.12.46.13.46.12.46.12.46.11.46.11.47.11.25.06a.82.82,0,0,0,.36-1.6l-.24-.06-.45-.11-.46-.11-.45-.11-.45-.12-.45-.12-.45-.12-.45-.12L94,210l-.45-.13-.45-.13-.44-.13-.44-.14-.45-.14-.44-.14-.44-.15-.44-.15-.44-.15Zm32.14,3.85a.824.824,0,1,0,.16,1.64h.54l.49-.05h.49l.48-.06.49-.06.48-.07.48-.06.48-.07.48-.08.48-.07.48-.08.47-.08.48-.09.47-.09.48-.09.47-.09.47-.1h0a.823.823,0,1,0-.34-1.61h0l-.46.09-.46.1-.46.08-.46.09-.47.08-.47.08L127,212l-.47.07-.47.08-.47.06-.47.07-.48.06-.47.06-.47.06-.48.05h-.48l-.48.05Zm15.92-3.32a.822.822,0,1,0,.52,1.56l.19-.06.44-.15.45-.15.44-.16.45-.15L141,210l.44-.17.43-.16.44-.17.44-.17.43-.17.43-.18.43-.18.43-.18.43-.18.43-.19.42-.19.43-.19.17-.08a.823.823,0,0,0-.7-1.49l-.16.07-.41.19-.42.18-.41.18-.42.18-.42.18-.42.17-.42.18-.43.17-.42.16-.43.17-.43.16-.43.16-.43.15-.43.16-.44.15-.43.15-.44.14-.19.07Zm14.79-6.78a.823.823,0,1,0,.85,1.41l.22-.13.39-.24.39-.24.39-.25.39-.24.38-.25.39-.25.38-.26.38-.25.38-.26.37-.26.38-.26.37-.27.37-.27.37-.27.37-.27.37-.27.36-.28.23-.17a.83.83,0,0,0-1-1.31l-.22.17-.35.27-.36.27-.36.26-.36.27-.37.26-.36.26-.37.25-.37.26-.36.25-.38.25-.37.25-.38.25-.37.24-.38.24-.38.24-.38.24-.38.23-.22.13Zm12.89-9.91a.824.824,0,0,0,1.15,1.18h0l.32-.32.33-.32.32-.32.32-.32.32-.33.31-.33.32-.33.31-.33.31-.33.31-.34.3-.33.31-.34.3-.34.3-.34.3-.35.29-.34.3-.35.29-.35.06-.08a.82.82,0,0,0-1.27-1l-.06.08-.29.34-.28.34-.29.34-.29.33-.3.34-.29.33-.3.33-.3.33-.3.33-.3.33-.31.32-.31.32-.31.32-.31.32-.31.32-.31.31-.32.31-.32.31h0Zm10.35-12.54a.83.83,0,0,0,1.39.89l.12-.18.24-.38.25-.39.24-.38.24-.39.24-.39.23-.39.24-.4.23-.39.23-.4.22-.4.22-.4.23-.4.21-.4.22-.41.22-.4.21-.41.21-.41.15-.3a.83.83,0,0,0-1.48-.74l-.14.3-.21.4-.2.39-.21.4-.22.4-.21.39-.22.39-.21.39-.22.39-.23.39-.22.39-.23.38-.23.38-.23.38-.24.39-.24.37-.24.38-.24.38-.12.18Zm7.31-14.54a.821.821,0,0,0,1.54.57V166l.16-.44.16-.43.15-.44.15-.44.15-.44.15-.44.14-.44.14-.45.14-.44.13-.45.13-.45.13-.45.13-.45.12-.45.12-.45.12-.45.12-.46.08-.31a.83.83,0,0,0-1.61-.39l-.07.3-.11.45-.12.44-.12.44-.12.44-.12.44-.13.44-.13.44-.13.43-.13.44-.14.43-.14.44-.14.43-.15.43-.15.43-.14.43-.16.42-.15.43v.08Zm3.89-15.79a.83.83,0,0,0,1.64.21v-.32l.06-.48.06-.47v-.48l.05-.47v-6.08a.83.83,0,0,0-1.65,0v5.47l-.05.47v.47l-.05.46-.05.47-.06.46-.05.32Zm.37-16.27a.823.823,0,0,0,1.64-.14v-1.25l-.05-.49-.06-.5v-.49l-.06-.49-.07-.49-.06-.49-.07-.49-.08-.49-.07-.48-.08-.49-.08-.49-.09-.48-.08-.48-.09-.48v-.17a.821.821,0,1,0-1.61.32v.15l.09.48.08.47.08.47.08.48.08.47.07.48.07.48.07.47.07.48.06.49.06.48.06.48.05.48v.49l.05.48v.74Zm-3.07-16a.822.822,0,0,0,1.57-.49l-.07-.24-.14-.46-.15-.45-.15-.46-.15-.46-.16-.45-.15-.46-.16-.45-.17-.45-.16-.45-.17-.45-.17-.45-.17-.45-.18-.44-.17-.44-.19-.45-.18-.44-.16-.37a.822.822,0,0,0-1.51.65l.15.36.18.43.18.44.17.43.17.44.17.43.17.44.16.44.17.44.15.44.16.45.15.44.15.45.15.44.15.45.14.45.14.45.08.24Zm-6.37-15a.82.82,0,0,0,1.43-.8l-.14-.26-.23-.41-.23-.41-.24-.41-.24-.4-.24-.41-.25-.4-.24-.41-.25-.4-.25-.4-.26-.39-.25-.4-.26-.4-.26-.39-.26-.39-.27-.39-.26-.39-.27-.38h0a.83.83,0,0,0-1.35.95h0l.26.38.26.38.26.38.26.38.25.39.26.39.25.38.24.39.25.4.24.39.25.39.23.4.24.4.24.39.23.41.23.4.23.4.14.25Zm-9.35-13.33a.83.83,0,0,0,1.24-1.09l-.07-.08-.31-.36-.31-.35-.31-.35-.32-.34-.32-.35-.32-.34-.32-.34-.32-.34-.32-.34-.33-.34-.33-.33-.33-.34-.33-.32-.34-.33-.33-.33-.34-.32-.34-.33-.18-.16a.821.821,0,0,0-1.12,1.2l.17.16.33.32.33.32.33.32.33.32.33.32.32.33.32.32L166,86l.32.33.32.34L167,87l.31.34.31.34.31.34.31.34.3.34.31.35.07.09ZM157,78a.83.83,0,0,0,1-1.32l-.25-.19-.38-.28-.37-.28-.38-.28-.38-.27-.38-.27-.39-.27-.38-.27-.39-.27-.38-.26-.39-.26-.39-.26-.4-.26-.39-.25-.39-.25-.4-.25-.4-.25-.4-.24h0a.821.821,0,1,0-.84,1.41h0l.39.24.4.25.38.24.39.25.39.25.38.25.38.25.38.26.38.25.38.26.38.27.37.26.38.27.37.27.37.27.37.27.36.28Zm-13.9-8.45a.823.823,0,0,0,.7-1.49h-.08l-.42-.2-.43-.2-.43-.19-.43-.19-.43-.19-.43-.19-.43-.18-.44-.19-.44-.17-.43-.18L139,66l-.44-.17-.44-.17-.44-.16-.45-.17-.44-.16-.45-.16-.21-.07a.821.821,0,1,0-.54,1.55l.21.08.43.15.44.16.43.16.43.16.43.17.43.17.43.17.43.17.43.18.42.17.43.18.42.19.42.18.43.19.41.19.42.2.42.19h.08Zm-15.37-5.37a.83.83,0,0,0,.37-1.61l-.45-.1-.46-.11-.47-.1-.47-.1-.47-.1-.47-.09-.47-.09-.47-.09-.47-.08-.47-.08-.48-.08-.47-.08L122,61.4l-.48-.07-.48-.07-.48-.06-.47-.07h-.2a.83.83,0,0,0-.19,1.64h.18l.47.06.47.06.46.07.47.07.46.07.47.07.46.08.46.08.47.08.46.09.46.09.46.09.46.09.45.1.46.1.46.1.44.11Zm-16.15-2a.83.83,0,0,0,0-1.65h-8.32a.824.824,0,1,0,.16,1.64h8.14ZM95.37,63.7A.826.826,0,1,0,95,62.09h-.22l-.47.1-.46.1-.47.11-.47.11-.46.11-.47.11-.46.12L91.1,63l-.46.12-.46.12-.45.13-.46.13-.45.13-.46.14-.45.14-.45.14L87,64.2h0a.83.83,0,0,0,.52,1.57h0l.44-.14.44-.14.44-.13.45-.14.44-.13.44-.12.45-.13.45-.12.45-.12.45-.12.45-.11.46-.11.45-.11.46-.1.45-.11.46-.1.46-.09h.21Zm-15.47,5a.823.823,0,0,0-.68-1.5h0l-.43.2-.42.2-.42.19-.41.2-.42.21-.41.21-.42.2-.41.21-.41.22-.41.21-.4.22-.41.22-.4.23-.4.22-.4.23-.4.23-.4.23-.36.22a.823.823,0,1,0,.85,1.41l.35-.21.39-.22.39-.23.39-.22.39-.22.4-.22.39-.22.4-.21.4-.21.4-.21.4-.21.4-.2.41-.2.41-.2.4-.2.41-.19.42-.19.41-.19h.05ZM66,77.07a.82.82,0,0,0-1-1.3l-.32.24-.36.28-.36.28-.36.29-.35.29-.35.29-.36.29-.35.29-.34.3-.35.29-.34.3-.34.3-.34.31-.34.3-.34.31-.33.31-.33.31-.33.31-.13.13a.82.82,0,0,0,1.14,1.18l.12-.11.33-.31.32-.31.33-.3.33-.3.33-.3.33-.29.33-.3.34-.29.34-.29.34-.29.34-.29.34-.28.35-.28.35-.28.34-.28.36-.28.35-.27.32-.25ZM54.21,88.33a.82.82,0,0,0-1.27-1l-.08.11-.29.35-.29.35L52,88.5l-.29.36-.28.35-.28.36-.27.37-.28.36-.27.37-.27.36-.26.37-.27.37-.26.38-.26.37-.26.38-.26.37-.25.38L48,94a.824.824,0,1,0,1.38.9l.24-.36.25-.38.25-.36.25-.37.26-.37.25-.36.26-.36.26-.37.27-.35.26-.36.27-.36.27-.35.27-.35.28-.36.27-.34.28-.35.28-.35.29-.34.08-.11Zm-8.92,13.6a.83.83,0,0,0-1.48-.74l-.16.32-.2.41-.2.42-.2.41-.2.42-.2.41-.19.42-.19.42-.18.42-.19.43-.18.42-.18.42-.17.43-.18.43-.17.43-.17.43-.17.43-.16.43-.05.13a.83.83,0,0,0,1.55.57v-.12l.16-.42.17-.42.16-.43.17-.41.17-.42.17-.42.18-.42.17-.41.19-.41.18-.42.18-.41.19-.4.19-.41.19-.41.2-.4.2-.41.2-.4.16-.32Zm-5.68,15.24a.83.83,0,0,0-1.61-.39l-.09.37-.11.45-.11.46-.1.46-.1.46-.1.46-.1.46-.09.47-.09.46-.09.46-.08.47-.09.47-.07.46-.08.47-.07.47-.07.47-.07.47-.05.38a.822.822,0,0,0,1.63.22v-.37l.07-.46.07-.46.07-.46.07-.46.08-.45.08-.46.08-.46.09-.45.09-.45.09-.46.09-.45.1-.45.1-.45.1-.45.11-.44.1-.45Z" fill="#72d3d9" fill-rule="evenodd"/>
      <g id="Grupo_91860" data-name="Grupo 91860">
        <path id="Trazado_181309" data-name="Trazado 181309" d="M111.5,207.51H86.59c1.23-2.36,4.35-7.1,1.67-13.95a15.43,15.43,0,0,1-5.13.87,14.77,14.77,0,0,1-11.95-5.9c-8.57.18-15.49-6.71-14.84-14.77-4.26-2-6.25-6.76-5.92-11.06a11.88,11.88,0,0,1-.19-17c-4.27-4.38-4.55-15.64-.88-20.72a7.36,7.36,0,0,1,1.14-1.27,3.855,3.855,0,0,1,.08-.95A8.92,8.92,0,0,1,52.33,109a22.44,22.44,0,0,1,2.8-10.92c3.51-6.59,9.44-10.88,15-11.47.59-6.58,7-9.32,12.37-8.06a9.47,9.47,0,0,1,9.28-6.84,10,10,0,0,1,3.73.71,8.9,8.9,0,0,1,8-4.79c3.64,0,7.63,2.24,8,5.82Z" fill="#36dac9" fill-rule="evenodd"/>
        <g id="Grupo_91857" data-name="Grupo 91857">
          <path id="Trazado_181310" data-name="Trazado 181310" d="M117.79,69.8h0c33.55,0,60.74,26.17,60.74,58.44A57,57,0,0,1,156,173.66c-8.68,6.63-14.78,15.56-16.07,28.9H117.79Z" fill="#ffa726" fill-rule="evenodd"/>
          <path id="Trazado_181311" data-name="Trazado 181311" d="M133.07,202.56l10.7-75.95a7.77,7.77,0,0,0,.1-1.21,8,8,0,0,0-2.08-5.42,8.53,8.53,0,0,0-5.3-2.73,9.14,9.14,0,0,0-1.23-.09,2.85,2.85,0,1,0,0,5.7h.45a2.68,2.68,0,0,1,1.62.81,2.53,2.53,0,0,1,.61,1.71,3,3,0,0,1,0,.46l-10.81,76.7h6Zm-8.78-88.45h0a3.32,3.32,0,0,1,4,2.25l2.53,9.09a3.19,3.19,0,0,1-2.34,3.9,3.34,3.34,0,0,1-4-2.25L122,118a3.17,3.17,0,0,1,2.34-3.89Zm-6.5.14a3.21,3.21,0,0,1,1.93,2.11l2.53,9.09a3.19,3.19,0,0,1-2.34,3.9,3.47,3.47,0,0,1-2.12-.14Z" fill="#fee593" fill-rule="evenodd"/>
          <g id="Grupo_91856" data-name="Grupo 91856">
            <path id="Trazado_181312" data-name="Trazado 181312" d="M117.79,211.1h22.36c2,0,3.59,2,3.59,4.36h0c0,2.4-1.62,4.37-3.59,4.37H117.79Z" fill="#6594e7" fill-rule="evenodd"/>
            <path id="Trazado_181313" data-name="Trazado 181313" d="M143.15,217.85a3.49,3.49,0,0,1-3,2H117.79v-4h22.36A3.49,3.49,0,0,1,143.15,217.85Z" fill="#94c2f5" fill-rule="evenodd"/>
            <path id="Trazado_181314" data-name="Trazado 181314" d="M117.79,219.83H138.1c2,0,3.59,2,3.59,4.36h0c0,2.4-1.62,4.36-3.59,4.36H117.79Z" fill="#6594e7" fill-rule="evenodd"/>
            <path id="Trazado_181315" data-name="Trazado 181315" d="M141.1,226.58a3.49,3.49,0,0,1-3,2H117.79v-4H138.1A3.5,3.5,0,0,1,141.1,226.58Z" fill="#94c2f5" fill-rule="evenodd"/>
            <path id="Trazado_181316" data-name="Trazado 181316" d="M117.79,202.37h23.58a4.41,4.41,0,0,1,4.42,4.37h0a4.4,4.4,0,0,1-4.42,4.36H117.79Z" fill="#6594e7" fill-rule="evenodd"/>
            <path id="Trazado_181317" data-name="Trazado 181317" d="M145.2,209.12a3.49,3.49,0,0,1-3,2H117.79v-3.95H142.2A3.5,3.5,0,0,1,145.2,209.12Z" fill="#94c2f5" fill-rule="evenodd"/>
            <path id="Trazado_181318" data-name="Trazado 181318" d="M137.91,228.55c-1.41,4.28-4.86,7.32-8.86,7.32H117.79v-7.32Z" fill="#6594e7" fill-rule="evenodd"/>
          </g>
        </g>
        <g id="Grupo_91858" data-name="Grupo 91858">
          <path id="Trazado_181319" data-name="Trazado 181319" d="M111.5,210.78H89.14c-2,0-3.59,2-3.59,4.42h0c0,2.43,1.62,4.42,3.59,4.42H111.5Z" fill="#b0bec5" fill-rule="evenodd"/>
          <path id="Trazado_181320" data-name="Trazado 181320" d="M86.14,217.62a3.49,3.49,0,0,0,3,2H111.5v-4H89.14a3.49,3.49,0,0,0-3,2Z" fill="#9aa6ae" fill-rule="evenodd"/>
          <path id="Trazado_181321" data-name="Trazado 181321" d="M111.5,219.62H91.2c-2,0-3.6,2-3.6,4.42h0c0,2.43,1.62,4.42,3.6,4.42h20.3Z" fill="#b0bec5" fill-rule="evenodd"/>
          <path id="Trazado_181322" data-name="Trazado 181322" d="M88.19,226.46a3.5,3.5,0,0,0,3,2h20.3v-4H91.2a3.48,3.48,0,0,0-3.01,2Z" fill="#9aa6ae" fill-rule="evenodd"/>
          <path id="Trazado_181323" data-name="Trazado 181323" d="M111.5,201.94H87.92a4.43,4.43,0,0,0-4.42,4.42h0a4.43,4.43,0,0,0,4.42,4.42H111.5Z" fill="#b0bec5" fill-rule="evenodd"/>
          <path id="Trazado_181324" data-name="Trazado 181324" d="M84.15,208.67a4.44,4.44,0,0,0,3.77,2.11H111.5v-4H87.09A3.46,3.46,0,0,0,84.15,208.67Z" fill="#9aa6ae" fill-rule="evenodd"/>
          <path id="Trazado_181325" data-name="Trazado 181325" d="M91.38,228.46c1.41,4.33,4.86,7.41,8.86,7.41H111.5v-7.41Z" fill="#b0bec5" fill-rule="evenodd"/>
        </g>
        <g id="Grupo_91859" data-name="Grupo 91859">
          <path id="Trazado_181326" data-name="Trazado 181326" d="M80.3,131.25a.79.79,0,0,0,1.07-.24.71.71,0,0,0-.08-.89A11.15,11.15,0,0,0,74,126.05a11.43,11.43,0,0,0-8.22,2h0a10.48,10.48,0,0,0-4.31,7,10.18,10.18,0,0,0,2.1,7.85.8.8,0,0,0,1.09.15.71.71,0,0,0,.15-1A8.81,8.81,0,0,1,63,135.24a9,9,0,0,1,3.67-6l.1-.07a9.88,9.88,0,0,1,7-1.7A9.65,9.65,0,0,1,80.06,131a.76.76,0,0,0,.24.23Z" fill="#467cdd" fill-rule="evenodd"/>
          <path id="Trazado_181327" data-name="Trazado 181327" d="M80.41,173.92a.73.73,0,0,0-.29-1,.78.78,0,0,0-1.06.27,6.46,6.46,0,0,1-4,2.9,6.77,6.77,0,0,1-5-.64h0a6.25,6.25,0,0,1-3-3.78,6,6,0,0,1,.66-4.73v-.06h0a.71.71,0,0,0-.37-1,.78.78,0,0,0-1,.33,7.37,7.37,0,0,0-.8,5.81,7.76,7.76,0,0,0,3.72,4.68h.07a8.36,8.36,0,0,0,6.09.77,8.06,8.06,0,0,0,4.92-3.59ZM70.14,175.44Z" fill="#467cdd" fill-rule="evenodd"/>
          <path id="Trazado_181328" data-name="Trazado 181328" d="M100.54,177.82a.73.73,0,0,0-.59-.88.77.77,0,0,0-.92.56,9.05,9.05,0,0,1-4.15,5.68,9.77,9.77,0,0,1-7.13,1.22,9.42,9.42,0,0,1-6-4,8.66,8.66,0,0,1-1.28-6.81.75.75,0,0,0-.59-.89.78.78,0,0,0-.92.57,10.07,10.07,0,0,0,1.48,7.93,11,11,0,0,0,6.93,4.6,11.43,11.43,0,0,0,8.3-1.42,10.48,10.48,0,0,0,4.87-6.56Z" fill="#467cdd" fill-rule="evenodd"/>
          <path id="Trazado_181329" data-name="Trazado 181329" d="M65.63,154.85a.75.75,0,0,0,.69-.82.77.77,0,0,0-.86-.65,7.5,7.5,0,0,0-5,2.62,6.82,6.82,0,0,0-1.57,5.21A7,7,0,0,0,61.67,166a7.63,7.63,0,0,0,5.45,1.5.76.76,0,0,0,.69-.82A.78.78,0,0,0,67,166a6,6,0,0,1-4.31-1.18A5.51,5.51,0,0,1,60.47,161a5.42,5.42,0,0,1,1.24-4.11,6,6,0,0,1,3.92-2.04Z" fill="#467cdd" fill-rule="evenodd"/>
          <path id="Trazado_181330" data-name="Trazado 181330" d="M88.42,130.56a.81.81,0,0,0-1.08.19.72.72,0,0,0,.2,1A3.49,3.49,0,0,1,89.08,134a3.37,3.37,0,0,1-.58,2.62.72.72,0,0,0,.21,1,.79.79,0,0,0,1.07-.19,4.79,4.79,0,0,0,.82-3.73A5,5,0,0,0,88.42,130.56Z" fill="#467cdd" fill-rule="evenodd"/>
          <path id="Trazado_181331" data-name="Trazado 181331" d="M102,143.58a.73.73,0,0,0-.25-1,.81.81,0,0,0-.81,0,3.2,3.2,0,0,1-2.29.17,3,3,0,0,1-1.8-1.44h0a2.74,2.74,0,0,1-.24-2.1.74.74,0,0,0-.54-.91.77.77,0,0,0-1,.52,4.2,4.2,0,0,0-.14,1.62,4.26,4.26,0,0,0,.47,1.52.41.41,0,0,0,0,.09,4.55,4.55,0,0,0,2.68,2.12,4.82,4.82,0,0,0,3.47-.26.82.82,0,0,0,.35-.29Z" fill="#467cdd" fill-rule="evenodd"/>
          <path id="Trazado_181332" data-name="Trazado 181332" d="M71.07,152.69a.81.81,0,0,0,1,.35.74.74,0,0,0,.37-1,10.13,10.13,0,0,1-.73-6.62,9.42,9.42,0,0,1,3.35-5.52.72.72,0,0,0,.12-1,.81.81,0,0,0-1.09-.12,10.91,10.91,0,0,0-3.9,6.38A11.68,11.68,0,0,0,71.07,152.69Z" fill="#467cdd" fill-rule="evenodd"/>
          <path id="Trazado_181333" data-name="Trazado 181333" d="M78.71,155.4a.72.72,0,0,0,.51-.92.77.77,0,0,0-1-.49,5.49,5.49,0,0,1-3.33-.12,4.67,4.67,0,0,1-2.5-1.85.8.8,0,0,0-1.06-.26.73.73,0,0,0-.27,1,6.27,6.27,0,0,0,3.3,2.49,7.13,7.13,0,0,0,4.35.15Z" fill="#467cdd" fill-rule="evenodd"/>
          <path id="Trazado_181334" data-name="Trazado 181334" d="M70.28,158.72a.72.72,0,0,0,0,1.05.79.79,0,0,0,1.1,0,6.42,6.42,0,0,0,1.87-3.7,5.73,5.73,0,0,0-.77-3.95.8.8,0,0,0-1.07-.24.72.72,0,0,0-.25,1,4.29,4.29,0,0,1,.56,3,5,5,0,0,1-1.44,2.84Z" fill="#467cdd" fill-rule="evenodd"/>
          <path id="Trazado_181335" data-name="Trazado 181335" d="M83.17,166.8a.72.72,0,0,0-.3-1,.79.79,0,0,0-1.05.29,4.26,4.26,0,0,0-.57,1.74h0a4.36,4.36,0,0,0,.2,1.81,4.59,4.59,0,0,0,2.32,2.66,4.92,4.92,0,0,0,3.61.31.73.73,0,0,0,.51-.93.77.77,0,0,0-1-.48,3.32,3.32,0,0,1-2.43-.21,3.1,3.1,0,0,1-1.56-1.79,2.85,2.85,0,0,1-.13-1.22h0a2.88,2.88,0,0,1,.4-1.18Z" fill="#467cdd" fill-rule="evenodd"/>
          <path id="Trazado_181336" data-name="Trazado 181336" d="M82.8,167a.72.72,0,0,0,.38-1,.79.79,0,0,0-1-.36h0a3.13,3.13,0,0,1-2.33.06A3.18,3.18,0,0,1,78,164.12h0a3.07,3.07,0,0,1-.11-2.39,3,3,0,0,1,1.6-1.73.74.74,0,0,0,.37-1,.79.79,0,0,0-1-.36,4.52,4.52,0,0,0-2.25,6.07h0A4.76,4.76,0,0,0,82.75,167h0Z" fill="#467cdd" fill-rule="evenodd"/>
          <path id="Trazado_181337" data-name="Trazado 181337" d="M84.37,131.32a.72.72,0,0,0-.23,1,.81.81,0,0,0,1.08.22,6.69,6.69,0,0,1,4.85-.87,6.5,6.5,0,0,1,4.07,2.66h0A5.9,5.9,0,0,1,95,139a6.12,6.12,0,0,1-2.78,3.88h0a.71.71,0,0,0-.18,1,.81.81,0,0,0,1.08.18h0a7.62,7.62,0,0,0,3.43-4.8,7.31,7.31,0,0,0-1.08-5.68l-.06-.09h0a8.07,8.07,0,0,0-5-3.28,8.3,8.3,0,0,0-6,1.08ZM94.14,134.32Z" fill="#467cdd" fill-rule="evenodd"/>
          <path id="Trazado_181338" data-name="Trazado 181338" d="M86,144.5a.74.74,0,0,0,.53-.92.78.78,0,0,0-1-.5,5.44,5.44,0,0,1-4-.41,5,5,0,0,1-2.49-2.95.79.79,0,0,0-1-.51.75.75,0,0,0-.53.92A6.52,6.52,0,0,0,80.84,144,7,7,0,0,0,86,144.5Z" fill="#467cdd" fill-rule="evenodd"/>
          <path id="Trazado_181339" data-name="Trazado 181339" d="M89.93,151.26a.73.73,0,0,0,.31-1,.81.81,0,0,0-1-.29h0a3.16,3.16,0,0,1-2.33.22A3.27,3.27,0,0,1,85,148.73h0a3.13,3.13,0,0,1-.29-2.38,3,3,0,0,1,1.48-1.82.72.72,0,0,0,.3-1,.79.79,0,0,0-1-.29,4.49,4.49,0,0,0-1.8,6.2h0a4.79,4.79,0,0,0,6.29,1.84h0Z" fill="#467cdd" fill-rule="evenodd"/>
          <path id="Trazado_181340" data-name="Trazado 181340" d="M66.18,101a.75.75,0,0,0,.9-.19.69.69,0,0,0-.12-1h0l-.21-.11A7.9,7.9,0,0,0,61,99.68a7.45,7.45,0,0,0-4.15,3.81v.08a6.86,6.86,0,0,0-.08,5.49,7.32,7.32,0,0,0,4,4,.74.74,0,0,0,.9-.19.67.67,0,0,0-.11-1h0a.42.42,0,0,0-.16-.09,6,6,0,0,1-3.25-3.21,5.56,5.56,0,0,1,.08-4.45h0A6,6,0,0,1,61.54,101a6.41,6.41,0,0,1,4.64,0Z" fill="#467cdd" fill-rule="evenodd"/>
          <path id="Trazado_181341" data-name="Trazado 181341" d="M60.69,113.1a.74.74,0,0,0,1-.36.69.69,0,0,0-.38-.92,4.51,4.51,0,0,0-3.33,0,4.26,4.26,0,0,0-2.4,2.21,4,4,0,0,0,0,3.19,4.22,4.22,0,0,0,2.32,2.28.74.74,0,0,0,1-.36.69.69,0,0,0-.38-.92,2.8,2.8,0,0,1-1.54-1.52,2.63,2.63,0,0,1,0-2.11,2.83,2.83,0,0,1,1.59-1.47,3,3,0,0,1,2.12-.02Z" fill="#467cdd" fill-rule="evenodd"/>
          <path id="Trazado_181342" data-name="Trazado 181342" d="M57.82,155.34a.72.72,0,0,1,.74.69.7.7,0,0,1-.72.71,4.19,4.19,0,0,1-3.48-2.1,9.49,9.49,0,0,1-.15-9.5A4.19,4.19,0,0,1,57.62,143a.72.72,0,0,1,.75.68.73.73,0,0,1-.72.72,2.77,2.77,0,0,0-2.18,1.51,7.55,7.55,0,0,0-1,4,7.47,7.47,0,0,0,1.13,4A2.74,2.74,0,0,0,57.82,155.34Z" fill="#467cdd" fill-rule="evenodd"/>
          <path id="Trazado_181343" data-name="Trazado 181343" d="M57.43,130.55a.7.7,0,1,1,0,1.4,2.78,2.78,0,0,0-2.18,1.51,8.12,8.12,0,0,0,.13,8A2.79,2.79,0,0,0,57.62,143a.72.72,0,0,1,.75.68.73.73,0,0,1-.72.72,4.21,4.21,0,0,1-3.49-2.1,9,9,0,0,1-1.35-4.73,8.86,8.86,0,0,1,1.2-4.77,4.19,4.19,0,0,1,3.42-2.25Z" fill="#467cdd" fill-rule="evenodd"/>
          <path id="Trazado_181344" data-name="Trazado 181344" d="M76.41,104.06a.8.8,0,0,0,1.09,0,.73.73,0,0,0,0-1,8.67,8.67,0,0,1,.14-12.63l.09-.09a9.72,9.72,0,0,1,13.19.18.79.79,0,0,0,1.06.12.72.72,0,0,0,.15-1h0l-.06-.07a11.31,11.31,0,0,0-15.46-.21h0a10.1,10.1,0,0,0-.22,14.77Z" fill="#467cdd" fill-rule="evenodd"/>
          <path id="Trazado_181345" data-name="Trazado 181345" d="M75.93,123.82a.78.78,0,0,0,.83-.7.76.76,0,0,0-.73-.78,9.55,9.55,0,0,1-6.48-3,8.7,8.7,0,0,1-2.37-6.47,8.82,8.82,0,0,1,3.12-6.19,9.65,9.65,0,0,1,6.78-2.26.78.78,0,0,0,.82-.7.76.76,0,0,0-.73-.78,11.25,11.25,0,0,0-7.91,2.64,10.26,10.26,0,0,0-3.63,7.2,10.13,10.13,0,0,0,2.77,7.55,11.09,11.09,0,0,0,7.53,3.49Z" fill="#467cdd" fill-rule="evenodd"/>
          <path id="Trazado_181346" data-name="Trazado 181346" d="M100,98.75a.72.72,0,0,0-.06,1,.79.79,0,0,0,1.09,0,6.85,6.85,0,0,0,.56-10,7.64,7.64,0,0,0-10.46-.53.71.71,0,0,0-.06,1,.79.79,0,0,0,1.09.06A6.07,6.07,0,0,1,96.35,89a6,6,0,0,1,4.05,1.85,5.43,5.43,0,0,1-.44,7.9Z" fill="#467cdd" fill-rule="evenodd"/>
          <path id="Trazado_181347" data-name="Trazado 181347" d="M96.46,85.31a.74.74,0,0,0,.53.92.79.79,0,0,0,1-.51,3.42,3.42,0,0,0-.7-3.09,5.81,5.81,0,0,0-3-1.92,6,6,0,0,0-3.65.12,3.59,3.59,0,0,0-2.28,2.28.73.73,0,0,0,.53.91.78.78,0,0,0,1-.51,2.08,2.08,0,0,1,1.36-1.3,4.41,4.41,0,0,1,2.66-.08A4.31,4.31,0,0,1,96,83.52,2,2,0,0,1,96.46,85.31Z" fill="#467cdd" fill-rule="evenodd"/>
          <path id="Trazado_181348" data-name="Trazado 181348" d="M101,82.52a.8.8,0,0,0,1.09.09.71.71,0,0,0,.09-1,3.74,3.74,0,0,0-3.06-1.18,5.89,5.89,0,0,0-3.38,1.32.72.72,0,0,0-.09,1.05.8.8,0,0,0,1.09.09,4.25,4.25,0,0,1,2.45-1,2.25,2.25,0,0,1,1.81.63Z" fill="#467cdd" fill-rule="evenodd"/>
          <path id="Trazado_181349" data-name="Trazado 181349" d="M92.49,120.65a.81.81,0,0,0-1.08.18.72.72,0,0,0,.19,1,7.56,7.56,0,0,0,1.34.72,7,7,0,0,0,5.14,0,9.67,9.67,0,0,0,4.41-3.44,13.21,13.21,0,0,0,1.4-2.42,14.46,14.46,0,0,0,1-8.46,10,10,0,0,0-4-6.53.79.79,0,0,0-1.08.18.72.72,0,0,0,.19,1,8.54,8.54,0,0,1,3.35,5.58,13,13,0,0,1-.9,7.62,10.809,10.809,0,0,1-1.24,2.14,8.13,8.13,0,0,1-3.69,2.93,5.49,5.49,0,0,1-4,0,5.909,5.909,0,0,1-1.03-.5Z" fill="#467cdd" fill-rule="evenodd"/>
          <path id="Trazado_181350" data-name="Trazado 181350" d="M95.67,123.08a.76.76,0,0,0,.74-.78.77.77,0,0,0-.82-.7,4.66,4.66,0,0,0-3.38,1.93,7.16,7.16,0,0,0-1.42,4,.78.78,0,0,0,1.55.05,5.61,5.61,0,0,1,1.12-3.21,3.11,3.11,0,0,1,2.21-1.29Z" fill="#467cdd" fill-rule="evenodd"/>
          <path id="Trazado_181351" data-name="Trazado 181351" d="M90.41,112a.71.71,0,0,0-.15,1,.8.8,0,0,0,1.09.14h.05a7.53,7.53,0,0,0,2.93-5.07,7.36,7.36,0,0,0-1.66-5.61h0v-.06a8.1,8.1,0,0,0-5.3-2.8,8.26,8.26,0,0,0-5.89,1.6.72.72,0,0,0-.13,1,.8.8,0,0,0,1.09.12,6.68,6.68,0,0,1,4.74-1.29,6.5,6.5,0,0,1,4.28,2.26h0a6,6,0,0,1,1.36,4.54A6.07,6.07,0,0,1,90.43,112h0Z" fill="#467cdd" fill-rule="evenodd"/>
          <path id="Trazado_181352" data-name="Trazado 181352" d="M93.67,110.36a.73.73,0,0,0-.42-1,.78.78,0,0,0-1,.4,3.82,3.82,0,0,0,0,3.09,4.11,4.11,0,0,0,2.27,2.21.8.8,0,0,0,1-.39.73.73,0,0,0-.41-1,2.64,2.64,0,0,1-1.44-1.4A2.46,2.46,0,0,1,93.67,110.36Z" fill="#467cdd" fill-rule="evenodd"/>
          <path id="Trazado_181353" data-name="Trazado 181353" d="M86.8,117.24a.73.73,0,0,0-.57-.88.76.76,0,0,0-.93.55,7.29,7.29,0,0,1-2.58,3.87,7,7,0,0,1-4.25,1.62.75.75,0,0,0-.77.74.76.76,0,0,0,.78.74,8.62,8.62,0,0,0,5.24-2A8.78,8.78,0,0,0,86.8,117.24Z" fill="#467cdd" fill-rule="evenodd"/>
          <path id="Trazado_181354" data-name="Trazado 181354" d="M104.6,138.88a.7.7,0,1,0,0,1.4,3.51,3.51,0,0,0,2.92-1.82,7.85,7.85,0,0,0,0-7.88,3.54,3.54,0,0,0-2.93-1.81.72.72,0,0,0-.73.71.71.71,0,0,0,.73.69,2.13,2.13,0,0,1,1.68,1.14,6.52,6.52,0,0,1,.03,6.42A2.14,2.14,0,0,1,104.6,138.88Z" fill="#467cdd" fill-rule="evenodd"/>
          <path id="Trazado_181355" data-name="Trazado 181355" d="M104.54,118.67a.7.7,0,1,0,0,1.39,2.15,2.15,0,0,1,1.68,1.15,6,6,0,0,1,.85,3.2h0a5.91,5.91,0,0,1-.83,3.2,2.14,2.14,0,0,1-1.68,1.15.72.72,0,0,0-.73.71.71.71,0,0,0,.73.69,3.51,3.51,0,0,0,2.92-1.82,7.35,7.35,0,0,0,1.06-3.89.34.34,0,0,0,0-.1,7.35,7.35,0,0,0-1.07-3.89A3.51,3.51,0,0,0,104.54,118.67Z" fill="#467cdd" fill-rule="evenodd"/>
          <path id="Trazado_181356" data-name="Trazado 181356" d="M65.66,123.21a.75.75,0,0,0,1-.19.67.67,0,0,0-.2-1,2.55,2.55,0,0,0-2.21-.23,3.69,3.69,0,0,0-1.87,1.39.68.68,0,0,0,.19,1,.75.75,0,0,0,1-.18,2.27,2.27,0,0,1,1.12-.86A1.1,1.1,0,0,1,65.66,123.21Z" fill="#467cdd" fill-rule="evenodd"/>
          <path id="Trazado_181357" data-name="Trazado 181357" d="M57.53,124.83a.75.75,0,0,1-1,.21.68.68,0,0,1-.22-1,4.35,4.35,0,0,1,1.27-1.22h0a4.63,4.63,0,0,1,5,0,4.27,4.27,0,0,1,1.86,2.74.7.7,0,0,1-.58.81.73.73,0,0,1-.86-.55A2.88,2.88,0,0,0,61.76,124a3.19,3.19,0,0,0-2.26-.46,3.24,3.24,0,0,0-1.12.44h0A3,3,0,0,0,57.53,124.83Z" fill="#467cdd" fill-rule="evenodd"/>
          <path id="Trazado_181358" data-name="Trazado 181358" d="M74.89,110.51a.7.7,0,0,0-.75-.67.71.71,0,0,0-.71.72,4.82,4.82,0,0,0,2.28,3.8,8.48,8.48,0,0,0,5,1.39.7.7,0,1,0,0-1.4,7,7,0,0,1-4.12-1.12,3.51,3.51,0,0,1-1.7-2.72Z" fill="#467cdd" fill-rule="evenodd"/>
          <path id="Trazado_181359" data-name="Trazado 181359" d="M102.64,160.45a.72.72,0,0,0-.06,1,.81.81,0,0,0,1.1.06,7,7,0,0,0,2.45-4.89,6.85,6.85,0,0,0-1.89-5.1,7.5,7.5,0,0,0-5.12-2.34,7.59,7.59,0,0,0-5.35,1.8.73.73,0,0,0-.06,1,.8.8,0,0,0,1.1.05,6.07,6.07,0,0,1,8.27.42,5.4,5.4,0,0,1,1.5,4,5.49,5.49,0,0,1-1.94,4Z" fill="#467cdd" fill-rule="evenodd"/>
          <path id="Trazado_181360" data-name="Trazado 181360" d="M105.38,148.55a.86.86,0,0,0-.2,1.11.68.68,0,0,0,1,.2,4,4,0,0,0,1.46-3,6.32,6.32,0,0,0-.92-3.6.67.67,0,0,0-1-.21.86.86,0,0,0-.2,1.11,4.62,4.62,0,0,1,.69,2.61,2.38,2.38,0,0,1-.83,1.78Z" fill="#467cdd" fill-rule="evenodd"/>
          <path id="Trazado_181361" data-name="Trazado 181361" d="M99.36,190a.83.83,0,0,0-.89.66.71.71,0,0,0,.62.84,6.861,6.861,0,0,0,1.5,0,7.11,7.11,0,0,0,4.63-2.32,10.1,10.1,0,0,0,2.46-5.1,13.53,13.53,0,0,0,.2-2.81,14.17,14.17,0,0,0-2.77-8,9.62,9.62,0,0,0-6.38-4,.82.82,0,0,0-.89.66.7.7,0,0,0,.61.83,8.28,8.28,0,0,1,5.41,3.47,12.87,12.87,0,0,1,2.49,7.24,11.06,11.06,0,0,1-.18,2.48,8.48,8.48,0,0,1-2,4.31,5.58,5.58,0,0,1-3.59,1.8,5.189,5.189,0,0,1-1.22-.06Z" fill="#467cdd" fill-rule="evenodd"/>
          <path id="Trazado_181362" data-name="Trazado 181362" d="M93.2,170a.72.72,0,0,0-.15,1,.81.81,0,0,0,1.09.15h.06a7.53,7.53,0,0,0,2.93-5.07,7.36,7.36,0,0,0-1.66-5.61h0v-.05a8,8,0,0,0-5.31-2.8,8.24,8.24,0,0,0-5.88,1.59.71.71,0,0,0-.13,1,.81.81,0,0,0,1.09.13,6.62,6.62,0,0,1,4.74-1.3,6.5,6.5,0,0,1,4.28,2.26h0a5.91,5.91,0,0,1,1.35,4.53A6.06,6.06,0,0,1,93.23,170h0Z" fill="#467cdd" fill-rule="evenodd"/>
          <path id="Trazado_181363" data-name="Trazado 181363" d="M96.35,172.06a.73.73,0,0,0-.41-1,.79.79,0,0,0-1,.39,3.93,3.93,0,0,0,0,3.1,4.16,4.16,0,0,0,2.28,2.21.8.8,0,0,0,1-.4.74.74,0,0,0-.42-1,2.61,2.61,0,0,1-1.44-1.4,2.47,2.47,0,0,1-.01-1.9Z" fill="#467cdd" fill-rule="evenodd"/>
          <path id="Trazado_181364" data-name="Trazado 181364" d="M102.38,165.38a.72.72,0,0,0-.79.69.83.83,0,0,0,.66.89,3.58,3.58,0,0,0,2.89-.84,4.27,4.27,0,0,0,1.43-2.87.83.83,0,0,0-.66-.9.72.72,0,0,0-.79.69,2.64,2.64,0,0,1-.9,1.81,2.27,2.27,0,0,1-1.84.53Z" fill="#467cdd" fill-rule="evenodd"/>
        </g>
      </g>
    </g>
    <g id="Grupo_91864" data-name="Grupo 91864" transform="translate(922 3432.31)">
      <g id="Grupo_91862" data-name="Grupo 91862">
        <path id="Trazado_181365" data-name="Trazado 181365" d="M241.69,70.14l4.15,6.6,7.56,1.91h0l-5,5.99.53,7.78-7.24-2.9-7.25,2.9.53-7.78-5-5.99,7.57-1.91Z" fill="#f452c6" fill-rule="evenodd"/>
        <path id="Trazado_181366" data-name="Trazado 181366" d="M248.53,92.26l-6.84-2.74-7.25,2.9.53-7.78-4.81-5.76a14.46,14.46,0,0,1,18.37,13.38Z" fill="#f472cf" fill-rule="evenodd"/>
      </g>
      <g id="Grupo_91863" data-name="Grupo 91863">
        <rect id="Rectángulo_38324" data-name="Rectángulo 38324" width="38.47" height="1.87" rx="0.935" transform="translate(186.1 77.09)" fill="#f452c6"/>
        <path id="Trazado_181367" data-name="Trazado 181367" d="M229,80.54H212.2a.94.94,0,0,0-.93.94h0a.93.93,0,0,0,.93.93H229a.94.94,0,0,0,.94-.93h0A.94.94,0,0,0,229,80.54Z" fill="#f452c6" fill-rule="evenodd"/>
        <path id="Trazado_181368" data-name="Trazado 181368" d="M218.61,83.59H197a.94.94,0,1,0,0,1.88h21.63a.94.94,0,1,0,0-1.88Z" fill="#f452c6" fill-rule="evenodd"/>
      </g>
    </g>
    <g id="Grupo_91872" data-name="Grupo 91872" transform="translate(922 3432.31)">
      <g id="Grupo_91866" data-name="Grupo 91866">
        <path id="Trazado_181369" data-name="Trazado 181369" d="M178.9,247.25a51.63,51.63,0,0,1-51.63-51.62h32.8a18.83,18.83,0,0,0,18.83,18.83Z" fill="#36dac9" fill-rule="evenodd"/>
        <g id="Grupo_91865" data-name="Grupo 91865">
          <path id="Trazado_181370" data-name="Trazado 181370" d="M178.9,214.46a18.83,18.83,0,0,1-18.83-18.83H170.7a18.83,18.83,0,0,0,18.84,18.83Z" fill="#5aafd6" fill-rule="evenodd"/>
          <rect id="Rectángulo_38325" data-name="Rectángulo 38325" width="10.64" height="32.79" transform="translate(178.9 214.46)" fill="#6b0758"/>
        </g>
      </g>
      <g id="Grupo_91868" data-name="Grupo 91868">
        <path id="Trazado_181371" data-name="Trazado 181371" d="M127.27,195.63h0A51.63,51.63,0,0,1,178.9,144v32.79a18.83,18.83,0,0,0-18.83,18.75v.08h-32.8Z" fill="#c25257" fill-rule="evenodd"/>
        <g id="Grupo_91867" data-name="Grupo 91867">
          <path id="Trazado_181372" data-name="Trazado 181372" d="M189.54,176.79a18.84,18.84,0,0,0-18.84,18.75H160.07a18.82,18.82,0,0,1,18.83-18.77Z" fill="#ca2c94" fill-rule="evenodd"/>
          <rect id="Rectángulo_38326" data-name="Rectángulo 38326" width="10.64" height="32.79" transform="translate(178.9 144)" fill="#ca2c94"/>
        </g>
      </g>
      <g id="Grupo_91869" data-name="Grupo 91869">
        <path id="Trazado_181373" data-name="Trazado 181373" d="M239.41,209a51.62,51.62,0,0,1-49.85,38.26H178.92A51.64,51.64,0,0,0,228.78,209Z" fill="#184fcd" fill-rule="evenodd"/>
        <path id="Trazado_181374" data-name="Trazado 181374" d="M228.78,209a51.64,51.64,0,0,1-49.86,38.26h0v-32.8h0a18.85,18.85,0,0,0,18.16-14Z" fill="#467cdd" fill-rule="evenodd"/>
        <path id="Trazado_181375" data-name="Trazado 181375" d="M239.41,208.99H228.78L197.1,200.5h10.63Z" fill="#d9dfe5" fill-rule="evenodd"/>
      </g>
      <g id="Grupo_91870" data-name="Grupo 91870">
        <path id="Trazado_181376" data-name="Trazado 181376" d="M186.22,128.26h10.63a51.43,51.43,0,0,1,36.5,15.13H222.72C212.8,133.47,200.19,128.46,186.22,128.26Z" fill="#fdd833" fill-rule="evenodd"/>
        <path id="Trazado_181377" data-name="Trazado 181377" d="M233.35,143.39l-23.18,23.18H199.53l23.19-23.18Z" fill="#f1780c" fill-rule="evenodd"/>
        <path id="Trazado_181378" data-name="Trazado 181378" d="M186.21,128.26a51.45,51.45,0,0,1,36.51,15.13l-23.19,23.18a18.79,18.79,0,0,0-13.25-5.51h-.07Z" fill="#ffa726" fill-rule="evenodd"/>
      </g>
      <g id="Grupo_91871" data-name="Grupo 91871">
        <path id="Trazado_181379" data-name="Trazado 181379" d="M215.41,159.12H226A51.73,51.73,0,0,1,239.42,209H228.78l-31.68-8.5a19.1,19.1,0,0,0,.63-4.88,18.77,18.77,0,0,0-5.49-13.29Z" fill="#ce432f" fill-rule="evenodd"/>
        <path id="Trazado_181380" data-name="Trazado 181380" d="M215.41,159.12h0A51.66,51.66,0,0,1,228.78,209h0l-31.68-8.5h0a19,19,0,0,0,.63-4.87,18.77,18.77,0,0,0-5.49-13.29h0Z" fill="#ef5438" fill-rule="evenodd"/>
      </g>
    </g>
    <g id="Grupo_91875" data-name="Grupo 91875" transform="translate(922 3432.31)">
      <g id="Grupo_91873" data-name="Grupo 91873">
        <path id="Trazado_181381" data-name="Trazado 181381" d="M270.17,96.16l4.15,6.6,7.56,1.91h.01l-5,5.99.52,7.78-7.24-2.9-7.24,2.9.52-7.78-5-5.99,7.57-1.91Z" fill="#f452c6" fill-rule="evenodd"/>
        <path id="Trazado_181382" data-name="Trazado 181382" d="M277,118.29l-6.85-2.75-7.24,2.9.52-7.78-4.81-5.76A14.47,14.47,0,0,1,277,118.29Z" fill="#f472cf" fill-rule="evenodd"/>
      </g>
      <g id="Grupo_91874" data-name="Grupo 91874">
        <rect id="Rectángulo_38327" data-name="Rectángulo 38327" width="38.47" height="1.87" rx="0.935" transform="translate(214.58 103.11)" fill="#f452c6"/>
        <path id="Trazado_181383" data-name="Trazado 181383" d="M257.43,106.56H240.64a.94.94,0,0,0-.94.94h0a.94.94,0,0,0,.94.93h16.79a.94.94,0,0,0,.94-.93h0A.94.94,0,0,0,257.43,106.56Z" fill="#f452c6" fill-rule="evenodd"/>
        <path id="Trazado_181384" data-name="Trazado 181384" d="M247.09,109.62H225.47a.94.94,0,1,0,0,1.87h21.62a.94.94,0,1,0,0-1.87Z" fill="#f452c6" fill-rule="evenodd"/>
      </g>
    </g>
  </g>
</svg>
