<svg xmlns="http://www.w3.org/2000/svg" width="604" height="438.58" viewBox="0 0 604 438.58">
  <g id="Grupo_94347" data-name="Grupo 94347" transform="translate(-810 -2629.191)">
    <rect id="Rectángulo_39700" data-name="Rectángulo 39700" width="604" height="438.58" transform="translate(810 2629.191)" fill="none"/>
    <g id="Grupo_94078" data-name="Grupo 94078" transform="translate(810 2629.191)">
      <path id="Trazado_190791" data-name="Trazado 190791" d="M273.1,245.6a4.65,4.65,0,0,1-3.9-.46,6.23,6.23,0,0,1-2.48-3.72L265,235.33a5,5,0,0,0-1.8-2.91,3.75,3.75,0,0,0-3.13-.28l-1-3.62a3.87,3.87,0,0,0,2.52-2,5.05,5.05,0,0,0,0-3.4l-1.74-6.08a6.28,6.28,0,0,1,.09-4.5,4.65,4.65,0,0,1,3.11-2.42l3.2-.92,1,3.53-.95.27a2.47,2.47,0,0,0-1.85,1.57,5.37,5.37,0,0,0,.17,3.1l1.6,5.59a5.19,5.19,0,0,1-.06,3.31,4.26,4.26,0,0,1-2,2.33v.07a4.44,4.44,0,0,1,2.93,1,5.25,5.25,0,0,1,1.77,2.74l1.6,5.59a5.36,5.36,0,0,0,1.49,2.73,2.52,2.52,0,0,0,2.41.35l.94-.27,1,3.54Z" fill="#fff"/>
      <path id="Trazado_190792" data-name="Trazado 190792" d="M294.46,220.06a13.679,13.679,0,0,1,.38,6.57,10,10,0,0,1-2.78,5.15,12.221,12.221,0,0,1-5.41,3.06l-9.25,2.65-6.54-22.86,8.27-2.37q5.78-1.65,9.77.36T294.46,220.06Zm-4.82,1.38a8,8,0,0,0-3.53-5.08,7.65,7.65,0,0,0-6-.37l-3.39,1,4.43,15.46,4.05-1.16a6.33,6.33,0,0,0,4.29-3.53,8.94,8.94,0,0,0,.15-6.32Z" fill="#fff"/>
      <path id="Trazado_190793" data-name="Trazado 190793" d="M301.39,230.62l-6.54-22.86,18-5.14,1.06,3.7-13.19,3.77,1.64,5.75,12.2-3.5,1.06,3.7-12.2,3.49,1.72,6,13.86-4,1.06,3.7Z" fill="#fff"/>
      <path id="Trazado_190794" data-name="Trazado 190794" d="M334.87,221,330,222.43,315,202l5-1.43,8.91,13.34q.84,1.31,2.43,4l-.06-1.49v-3.16l.49-16,5-1.41Z" fill="#fff"/>
      <path id="Trazado_190795" data-name="Trazado 190795" d="M345,221.18l.93-.26a2.49,2.49,0,0,0,1.87-1.57,5.53,5.53,0,0,0-.19-3.11l-1.6-5.58a5.15,5.15,0,0,1,.06-3.25,4.45,4.45,0,0,1,2-2.39v-.08a4.29,4.29,0,0,1-2.89-.93,5.17,5.17,0,0,1-1.81-2.78l-1.6-5.59a5.52,5.52,0,0,0-1.47-2.73,2.49,2.49,0,0,0-2.43-.35l-.92.27-1-3.53,3.19-.92a4.7,4.7,0,0,1,3.92.42,6.25,6.25,0,0,1,2.46,3.76l1.74,6.09a4.92,4.92,0,0,0,1.79,2.88,3.92,3.92,0,0,0,3.18.34l1,3.62a3.72,3.72,0,0,0-2.54,1.93,5,5,0,0,0,0,3.39l1.74,6.09a6.15,6.15,0,0,1-.13,4.45,4.55,4.55,0,0,1-3.07,2.46l-3.19.92Z" fill="#fff"/>
    </g>
    <path id="Trazado_190796" data-name="Trazado 190796" d="M257.57,423.73c-4.32,0-8.67-.1-12.93-.31l.13-2.75c4.22.21,8.53.31,12.8.31h1.77v2.75Zm16.5-.51-.17-2.74c4.82-.29,9.7-.73,14.53-1.28l.31,2.73C283.87,422.49,278.93,422.93,274.07,423.22Zm-44.12-1c-4.87-.52-9.78-1.19-14.59-2l.45-2.71c4.76.79,9.61,1.46,14.44,2Zm73.37-2.42-.46-2.71c4.76-.81,9.58-1.75,14.3-2.81l.6,2.68c-4.76,1.12-9.63,2.04-14.44,2.89Zm-102.41-2.43c-4.8-1.1-9.59-2.36-14.25-3.74l.78-2.64c4.61,1.37,9.34,2.62,14.09,3.71Zm131.14-4-.74-2.65c4.68-1.3,9.37-2.74,13.94-4.26l.87,2.6c-4.62,1.61-9.35,3.06-14.07,4.38ZM172.68,409c-4.63-1.71-9.22-3.58-13.65-5.57l1.13-2.51c4.37,2,8.9,3.82,13.47,5.51ZM360,404.11l-1-2.56c4.51-1.77,9-3.69,13.42-5.69l1.14,2.5C369.07,400.39,364.51,402.32,360,404.11Zm-214.15-7.18c-4.34-2.34-8.62-4.85-12.72-7.47l1.48-2.31c4,2.58,8.26,5.06,12.54,7.36Zm240.93-5-1.28-2.44c4.29-2.24,8.57-4.63,12.72-7.1l1.41,2.36c-4.23,2.47-8.56,4.88-12.89,7.15ZM121,381c-3.94-3-7.77-6.14-11.39-9.39l1.83-2c3.57,3.19,7.34,6.31,11.22,9.24Zm291-4.16-1.54-2.28c4.05-2.73,8-5.58,11.84-8.49l1.67,2.19C420.14,371.19,416.12,374.08,412,376.84ZM99,361.3c-3.37-3.61-6.6-7.39-9.58-11.24l2.17-1.68c2.93,3.78,6.1,7.49,9.42,11ZM435.44,359l-1.79-2.08c3.68-3.17,7.3-6.47,10.75-9.83l1.91,2C442.82,352.44,439.17,355.79,435.44,359Zm21.1-20.55-2-1.85c3.27-3.6,6.43-7.34,9.4-11.11l2.16,1.7c-3.05,3.81-6.26,7.59-9.56,11.25Zm18.25-23.13-2.26-1.55c2.73-4,5.35-8.14,7.76-12.3l2.38,1.38c-2.45,4.2-5.1,8.4-7.88,12.46Zm14.8-25.49-2.47-1.2c2.11-4.37,4.06-8.85,5.79-13.32l2.56,1c-1.76,4.52-3.73,9.07-5.88,13.51Zm10.62-27.51-2.64-.77c1.36-4.65,2.53-9.4,3.46-14.09l2.69.53c-.95,4.77-2.13,9.59-3.51,14.32ZM57.76,260.7v-2.61c0-4,.17-8.12.49-12.15l2.74.22c-.32,4-.48,8-.48,11.93v2.56Zm448.15-27.32-2.73-.28c.49-4.82.76-9.69.79-14.49h2.74C506.68,223.51,506.41,228.47,505.91,233.38ZM62.8,231.76l-2.71-.47c.84-4.81,1.92-9.65,3.21-14.41l2.65.72C64.69,222.27,63.63,227,62.8,231.76Zm440.54-27.64c-.45-4.81-1.15-9.64-2.07-14.36l2.7-.53c.94,4.81,1.64,9.73,2.1,14.63Zm-433-.36-2.58-.95c1.66-4.55,3.55-9.14,5.62-13.64l2.49,1.15C73.84,194.75,72,199.27,70.34,203.76Zm12.12-26.4L80.06,176c2.36-4.23,4.94-8.47,7.66-12.6L90,164.93C87.33,169,84.79,173.19,82.46,177.36Zm415.33-1.69a143.1,143.1,0,0,0-4.85-13.66l2.54-1a147.769,147.769,0,0,1,4.94,13.93ZM98.44,153.07l-2.18-1.67c2.94-3.85,6.09-7.69,9.34-11.4l2.07,1.81C104.45,145.48,101.35,149.27,98.44,153.07Zm388.31-4.17c-2.26-4.24-4.77-8.43-7.45-12.45l2.29-1.52c2.73,4.09,5.28,8.36,7.59,12.67ZM117.61,131.18l-1.94-1.94c3.42-3.43,7-6.83,10.72-10.1l1.82,2.06C124.57,124.43,121,127.79,117.61,131.18Zm353.08-6.41c-3-3.71-6.26-7.35-9.66-10.83l2-1.92c3.46,3.54,6.76,7.25,9.82,11ZM139.4,111.87l-1.69-2.16c3.82-3,7.81-5.94,11.85-8.74l1.56,2.26C147.13,106,143.19,108.91,139.4,111.87Zm311-7.88c-3.63-3.12-7.46-6.16-11.39-9l1.61-2.22c4,2.9,7.89,6,11.57,9.16ZM163.33,95.26l-1.44-2.34c4.16-2.55,8.46-5,12.77-7.34L176,88C171.69,90.29,167.45,92.74,163.33,95.26ZM427,86.88c-4.08-2.5-8.34-4.9-12.67-7.14l1.26-2.44c4.39,2.27,8.72,4.71,12.85,7.24ZM189,81.43l-1.17-2.49c4.41-2.07,8.94-4.06,13.47-5.91l1,2.54C197.83,77.4,193.34,79.37,189,81.43Zm212.18-7.9c-4.4-1.89-9-3.67-13.56-5.29l.91-2.59c4.66,1.64,9.28,3.44,13.74,5.36ZM216,70.43l-.9-2.6c4.6-1.6,9.32-3.1,14-4.47l.77,2.64C225.18,67.35,220.51,68.84,216,70.43Zm157.76-6.57c-4.64-1.3-9.4-2.48-14.14-3.5l.58-2.68c4.8,1,9.61,2.22,14.3,3.53ZM243.94,62.29l-.63-2.67c4.77-1.13,9.62-2.14,14.41-3l.49,2.71C253.47,60.17,248.67,61.17,243.94,62.29Zm101.31-4.55c-4.77-.73-9.64-1.32-14.46-1.77l.25-2.74c4.88.46,9.8,1.06,14.62,1.79Zm-72.63-.67-.36-2.72c4.86-.63,9.79-1.13,14.66-1.49l.2,2.74c-4.82.4-9.7.85-14.5,1.47Zm43.63-2c-4.81-.17-9.68-.21-14.57-.11l-.06-2.75c4.93-.1,9.87-.06,14.73.12Z" transform="translate(810 2629.191)" fill="#7fb8db"/>
    <g id="Grupo_94085" data-name="Grupo 94085" transform="translate(810 2629.191)">
      <g id="Grupo_94079" data-name="Grupo 94079">
        <path id="Trazado_190797" data-name="Trazado 190797" d="M465.28,428.92c-2.49-36.45-12.83-88.22-14.78-97.75H408.07c-1.94,9.53-12.29,61.31-14.77,97.75l-3.85-.26c2.75-40.35,15-99.23,15.16-99.82l.32-1.53h48.71l.32,1.53c.13.59,12.41,59.47,15.17,99.82Z" fill="#35afea"/>
        <path id="Trazado_190798" data-name="Trazado 190798" d="M515.61,428.91c-2.35-36.49-12.1-88.33-13.92-97.8h-39.8c-1.82,9.47-11.57,61.31-13.91,97.8l-3.74-.24c2.59-40.34,14.16-99.2,14.27-99.79l.3-1.51h46l.3,1.51c.12.59,11.68,59.45,14.27,99.79Z" fill="#35afea"/>
        <path id="Trazado_190799" data-name="Trazado 190799" d="M395.82,328.58a3.34,3.34,0,0,0,3.09,3.54h61.18a3.47,3.47,0,0,1,.15-6.92c6.68.18,13.36.29,20,.41s13.35.25,20,.31h1.25a7.56,7.56,0,0,0,2.77-.53,8.17,8.17,0,0,0,3.13-2.35,9,9,0,0,0,1.13-1.75c.35-.7.74-1.58,1.1-2.36.75-1.61,1.5-3.22,2.19-4.86,2.86-6.5,5.48-13.14,7.8-19.93a328,328,0,0,0,11.26-41.6c1.41-7.07,2.66-14.2,3.43-21.38.4-3.59.72-7.2.91-10.8.11-1.8.15-3.61.18-5.41s0-3.62,0-5.32h0a4.753,4.753,0,0,1,0-.65,3.29,3.29,0,0,1,3.14-3H477.41a3.3,3.3,0,0,0-3.15,3,3.563,3.563,0,0,0,0,.65h0c.08,1.7.07,3.55,0,5.32s-.06,3.61-.19,5.41c-.18,3.6-.5,7.21-.9,10.8-.78,7.18-2,14.31-3.43,21.38a331.346,331.346,0,0,1-11.26,41.6c-2.31,6.79-4.94,13.43-7.81,19.93-.68,1.64-1.44,3.25-2.18,4.86-.37.78-.76,1.66-1.11,2.36a9,9,0,0,1-1.12,1.75,8.17,8.17,0,0,1-3.13,2.35,7.25,7.25,0,0,1-1.83.47,7.462,7.462,0,0,1-.95.06h-1.24c-6.68-.06-13.35-.2-20-.31s-13.35-.23-20-.41a3.31,3.31,0,0,0-3.29,3.38Z" fill="#ffa726"/>
        <path id="Trazado_190800" data-name="Trazado 190800" d="M457,328.58a3.34,3.34,0,0,0,3.09,3.54h.15c6.68-.17,13.36-.29,20-.4s13.35-.25,20-.31h1.25a13.669,13.669,0,0,0,1.56-.13,12.279,12.279,0,0,0,3-.85,13.069,13.069,0,0,0,5-3.9,14,14,0,0,0,1.71-2.76c.42-.91.74-1.68,1.12-2.54.73-1.65,1.47-3.31,2.15-5,2.79-6.7,5.32-13.53,7.66-20.42a333.728,333.728,0,0,0,11.18-42.31c1.39-7.19,2.59-14.41,3.73-21.65.57-3.62,1.1-7.25,1.62-10.9l.78-5.48.7-5.58A3.43,3.43,0,0,0,539,206a3.267,3.267,0,0,0-.44,0h0a3.29,3.29,0,0,0-3.14,3,4.743,4.743,0,0,0,0,.65h0c.09,1.7.07,3.55,0,5.32s-.07,3.61-.18,5.41c-.19,3.6-.51,7.21-.91,10.8-.77,7.18-2,14.31-3.43,21.38a328,328,0,0,1-11.26,41.6c-2.32,6.79-4.94,13.43-7.8,19.93-.69,1.64-1.44,3.25-2.19,4.86-.36.78-.75,1.66-1.1,2.36a9,9,0,0,1-1.13,1.75,8.17,8.17,0,0,1-3.13,2.35,7.56,7.56,0,0,1-2.77.53h-1.25c-6.68-.06-13.36-.2-20-.31s-13.36-.23-20-.41a3.32,3.32,0,0,0-3.27,3.36Z" fill="#db7d00"/>
      </g>
      <rect id="Rectángulo_39701" data-name="Rectángulo 39701" width="4.65" height="147.28" transform="translate(391.37 283.65)" fill="#ab4b38"/>
      <g id="Grupo_94082" data-name="Grupo 94082">
        <path id="Trazado_190801" data-name="Trazado 190801" d="M425.09,205c16.28,0,35.74,59.15,22.29,73.17-11.63,12.12-50-1.05-59.94-8.2-2.32-2.6-4-9.6.31-12.47,7.86-5.25,40,1.71,40,1.71S415.78,214.79,425.09,205Z" fill="#35afea"/>
        <path id="Trazado_190802" data-name="Trazado 190802" d="M453.22,415.09l2.67,15.84H436.33l.66-2.74s8.38-2.54,10.59-13.1Z" fill="#22365b"/>
        <path id="Trazado_190803" data-name="Trazado 190803" d="M416.5,415.09l.84,15.84H392.8l.66-2.74s12.54-1.63,17.41-13.1Z" fill="#22365b"/>
        <path id="Trazado_190804" data-name="Trazado 190804" d="M438.4,282.79s-42.34,7.6-48.12,26.19,17.51,108.71,17.51,108.71h12.8s19.58.81,4.1-91.66c0,0,68.19,13.06,62.41-47.4C487.1,278.63,467.52,264.21,438.4,282.79Z" fill="#12263f"/>
        <path id="Trazado_190805" data-name="Trazado 190805" d="M482.53,276.21c-4.29.72-9.4,2.69-15.49,6.58,0,0-42.08,10.15-47.86,28.74-3,9.57,3.8,36.71,11.09,60.82A433.259,433.259,0,0,0,424.69,326s68.19,13.06,62.41-47.4a25,25,0,0,0-4.57-2.39Z" fill="#22365b"/>
        <path id="Trazado_190806" data-name="Trazado 190806" d="M468.31,281s-35,12-40.77,30.57,18.59,106.16,18.59,106.16h12.8s20.61.69,5.13-91.79c23.63,0,50.09,2.15,47.41-37C511.47,288.89,497.43,262.39,468.31,281Z" fill="#12263f"/>
        <path id="Trazado_190807" data-name="Trazado 190807" d="M511.46,288.91a146.261,146.261,0,0,0-22.58-4.81,235.653,235.653,0,0,0-31.57-2c-11.26,0-18.89.7-18.89.7,0-38.72-21.74-68-13.33-77.76,4.58-5.33,30.14-20.53,54.37-9.23,7.77,3.62,13.54,13,18,24.2,7.46,18.46,11.15,42.39,12.79,56.65C511.15,284.1,511.46,288.91,511.46,288.91Z" fill="#7fb8db"/>
        <path id="Trazado_190808" data-name="Trazado 190808" d="M510.28,276.64c-4.66,4.35-12.56,6.63-21.4,7.46a107.8,107.8,0,0,1-31.57-2c-7-1.49-12.76-3.57-15.92-5.87-2.68-3-5.74-9.59-1.36-13.6C451.09,252.53,479.9,250,479.9,250s-17.11-37.65-4.21-46.46c6.51,0,14.63,6.82,21.8,16.42C505,238.45,508.64,262.38,510.28,276.64Z" fill="#35afea"/>
        <path id="Trazado_190809" data-name="Trazado 190809" d="M475.24,197.63c16.29,0,46.19,62.18,32.74,76.2-11.64,12.12-55.63,7.87-65.6.72-2.31-2.6-4-9.6.31-12.47,7.87-5.25,41.89-9,41.89-9S460.68,201,475.24,197.63Z" fill="#7fb8db"/>
        <path id="Trazado_190810" data-name="Trazado 190810" d="M441.66,269.67c-4.21,3.84-8.78,0-8.78,0s-4.88,3-5.58,2.69,2.55-4.14,2.55-4.14-4.3,2.38-6.06,2.38-4.09-2.14-4-3.42,3.24-3.07,4.64-4.75,4.18-4.53,6.55-4.9,6.73,2.62,8.49,4.22C441,263.14,444.4,267.16,441.66,269.67Z" fill="#f79885"/>
        <g id="Grupo_94080" data-name="Grupo 94080">
          <path id="Trazado_190811" data-name="Trazado 190811" d="M434.82,191a146.215,146.215,0,0,0,5,15.48c11.59,5,16-14.54,16-14.54a124.352,124.352,0,0,1-10.4-15.34C438.34,164.6,432.05,180.34,434.82,191Z" fill="#f79885"/>
          <path id="Trazado_190812" data-name="Trazado 190812" d="M445.35,176.63c-7.09-11.4-3.76-22-17.18-19s-15.93,6.35-12.45,16.62,12.6,21.84,16.59,21.72c1.91-.06,4.51-2.92,5.74-4.2C441.88,187.73,445.08,180.5,445.35,176.63Z" fill="#f79885"/>
          <path id="Trazado_190813" data-name="Trazado 190813" d="M438.57,159.13c.26-2.81-.94-10.63-11.12-1.93-2-8.54-7.86-2.87-13.45,6.48-8.26-2.38-10.63,10.68-.63,10.75a23.737,23.737,0,0,0,14.567-5c3.843,8.6,4,13,4,13A52.1,52.1,0,0,0,421.7,186c1.31,4.44,7.09,10.7,10,11.3.92.19,4.82-2.22,6.47-4.78,1.55-5.6-5.35-19.25-5.35-19.25s.83-4.58,2.9-3.63,1.9,4.2-.38,6.16a7.66,7.66,0,0,0,10,.82C441.33,167,442.58,157.9,438.57,159.13Z" fill="#51192b"/>
        </g>
        <g id="Grupo_94081" data-name="Grupo 94081">
          <path id="Trazado_190814" data-name="Trazado 190814" d="M417.74,180.45h-.06a.4.4,0,0,1-.33-.45,1.54,1.54,0,0,1,.73-1.24,1.78,1.78,0,0,1,1.64.18.394.394,0,0,1-.36.7,1.18,1.18,0,0,0-.92-.19c-.19.1-.28.42-.31.67A.4.4,0,0,1,417.74,180.45Z" fill="#104c82"/>
          <path id="Trazado_190815" data-name="Trazado 190815" d="M423.15,177.81a.49.49,0,0,1-.24-.91l8.94-5a.49.49,0,1,1,.47.86l-8.93,5a.53.53,0,0,1-.24.05Z" fill="#104c82"/>
          <path id="Trazado_190816" data-name="Trazado 190816" d="M423.6,183.9c-1.33,0-2.94-1.18-4-3a5.15,5.15,0,0,1-.7-4,1.91,1.91,0,0,1,1.06-1.19c1.41-.6,3.49.65,4.73,2.86h0a5.12,5.12,0,0,1,.7,4,1.92,1.92,0,0,1-1.05,1.2,2,2,0,0,1-.74.13Zm-2.84-7.34a.931.931,0,0,0-.39.08.91.91,0,0,0-.51.61,4.36,4.36,0,0,0,.62,3.16c1,1.87,2.69,2.8,3.5,2.44a.94.94,0,0,0,.51-.61,4.29,4.29,0,0,0-.62-3.16C423,177.47,421.63,176.56,420.76,176.56Z" fill="#104c82"/>
          <path id="Trazado_190817" data-name="Trazado 190817" d="M418.84,185.48c-1,0-2.34-1.37-3.21-2.91a5.24,5.24,0,0,1-.88-3.69,1.05,1.05,0,0,1,.58-.66c1.09-.46,2.64,1.07,3.62,2.83h0a5.24,5.24,0,0,1,.88,3.69.995.995,0,0,1-.99.74ZM415.76,179h-.09a.26.26,0,0,0-.1.15,4.71,4.71,0,0,0,.82,3c1,1.85,2.2,2.6,2.53,2.46a.394.394,0,0,0,.1-.14,4.75,4.75,0,0,0-.82-3C417.24,179.76,416.16,179,415.76,179Z" fill="#104c82"/>
        </g>
      </g>
      <g id="Grupo_94083" data-name="Grupo 94083">
        <rect id="Rectángulo_39702" data-name="Rectángulo 39702" width="4.65" height="147.28" transform="translate(332.93 283.65)" fill="#ab4b38"/>
        <rect id="Rectángulo_39703" data-name="Rectángulo 39703" width="4.65" height="147.28" transform="translate(527.49 430.92) rotate(180)" fill="#ab4b38"/>
        <rect id="Rectángulo_39704" data-name="Rectángulo 39704" width="4.65" height="147.28" transform="translate(488.14 430.92) rotate(180)" fill="#ab4b38"/>
        <rect id="Rectángulo_39705" data-name="Rectángulo 39705" width="235.45" height="7.63" transform="translate(312.48 278.63)" fill="#f0786a"/>
      </g>
      <g id="Grupo_94084" data-name="Grupo 94084">
        <path id="Trazado_190818" data-name="Trazado 190818" d="M360.68,275.56h90.17V276a2.93,2.93,0,0,1-2.93,2.93H363.61a2.93,2.93,0,0,1-2.93-2.93v-.44Z" fill="#104c82"/>
        <path id="Trazado_190819" data-name="Trazado 190819" d="M414.38,275.56h-51.2a4.78,4.78,0,0,1-3.76-2.37l-23.81-44c-.71-1.31-.18-2.37,1.19-2.37H388a4.78,4.78,0,0,1,3.76,2.37l23.81,44C416.28,274.5,415.75,275.56,414.38,275.56Z" fill="#104c82"/>
        <path id="Trazado_190820" data-name="Trazado 190820" d="M414.69,275H362.75a4.76,4.76,0,0,1-3.1-1.43,4.77,4.77,0,0,0,3.53,2h51.2a1.35,1.35,0,0,0,1.47-1,1.64,1.64,0,0,1-1.16.43Z" fill="#22365b"/>
        <path id="Trazado_190821" data-name="Trazado 190821" d="M376.87,251.72c1.09,2.4.59,4.34-1.1,4.34s-3.95-1.94-5-4.34-.6-4.35,1.1-4.35S375.78,249.32,376.87,251.72Z" fill="#e1f0fa"/>
      </g>
    </g>
    <g id="Grupo_94092" data-name="Grupo 94092" transform="translate(810 2629.191)">
      <g id="Grupo_94086" data-name="Grupo 94086">
        <path id="Trazado_190822" data-name="Trazado 190822" d="M165.71,156.77H136.37a11,11,0,0,1-11-11V55a11,11,0,0,1,11-11h29.34v2.9H136.37a8.1,8.1,0,0,0-8.1,8.1v90.79a8.1,8.1,0,0,0,8.1,8.1h29.34Z" fill="#35afea"/>
        <path id="Trazado_190823" data-name="Trazado 190823" d="M187.07,250h-50.7a11,11,0,0,1-11-11V182.06a11,11,0,0,1,11-11h29.34V174H136.37a8.1,8.1,0,0,0-8.1,8.1V239a8.1,8.1,0,0,0,8.1,8.1h50.7Z" fill="#35afea"/>
        <rect id="Rectángulo_39706" data-name="Rectángulo 39706" width="2.88" height="57.83" transform="translate(207.4 268.94)" fill="#35afea"/>
        <path id="Trazado_190824" data-name="Trazado 190824" d="M137.08,306.36h-2.89V271.82a11.37,11.37,0,0,1,11.36-11.35H203.4v2.88H145.55a8.48,8.48,0,0,0-8.47,8.47Z" fill="#35afea"/>
        <path id="Trazado_190825" data-name="Trazado 190825" d="M283.49,306.36h-2.88V271.82a8.48,8.48,0,0,0-8.47-8.47H214.29v-2.88h57.85a11.36,11.36,0,0,1,11.35,11.35Z" fill="#35afea"/>
      </g>
      <g id="Grupo_94088" data-name="Grupo 94088">
        <path id="Trazado_190826" data-name="Trazado 190826" d="M151.29,14.9H390.82A8.16,8.16,0,0,1,399,23.07v78.54a8.17,8.17,0,0,1-8.17,8.17H151.29a8.16,8.16,0,0,1-8.16-8.16V23.07a8.17,8.17,0,0,1,8.16-8.17Z" fill="#104c82"/>
        <g id="Grupo_94087" data-name="Grupo 94087">
          <rect id="Rectángulo_39707" data-name="Rectángulo 39707" width="58.31" height="9.39" transform="translate(154.87 25.82)" fill="#7fb8db"/>
          <rect id="Rectángulo_39708" data-name="Rectángulo 39708" width="18.22" height="9.39" transform="translate(222.58 25.82)" fill="#7fb8db"/>
          <rect id="Rectángulo_39709" data-name="Rectángulo 39709" width="26.33" height="9.39" transform="translate(338.96 25.82)" fill="#7fb8db"/>
          <rect id="Rectángulo_39710" data-name="Rectángulo 39710" width="18.22" height="9.39" transform="translate(289.58 25.82)" fill="#7fb8db"/>
          <rect id="Rectángulo_39711" data-name="Rectángulo 39711" width="13.17" height="9.39" transform="translate(249.04 25.82)" fill="#7fb8db"/>
          <rect id="Rectángulo_39712" data-name="Rectángulo 39712" width="13.17" height="9.39" transform="translate(315.34 25.82)" fill="#7fb8db"/>
          <rect id="Rectángulo_39713" data-name="Rectángulo 39713" width="13.17" height="9.39" transform="translate(269.15 25.82)" fill="#7fb8db"/>
          <rect id="Rectángulo_39714" data-name="Rectángulo 39714" width="13.17" height="9.39" transform="translate(374.08 25.82)" fill="#7fb8db"/>
          <rect id="Rectángulo_39715" data-name="Rectángulo 39715" width="58.31" height="9.39" transform="translate(154.87 68.25)" fill="#7fb8db"/>
          <rect id="Rectángulo_39716" data-name="Rectángulo 39716" width="57.72" height="9.39" transform="translate(222.58 68.25)" fill="#7fb8db"/>
          <rect id="Rectángulo_39717" data-name="Rectángulo 39717" width="26.33" height="9.39" transform="translate(338.96 68.25)" fill="#7fb8db"/>
          <rect id="Rectángulo_39718" data-name="Rectángulo 39718" width="18.22" height="9.39" transform="translate(289.58 68.25)" fill="#7fb8db"/>
          <rect id="Rectángulo_39719" data-name="Rectángulo 39719" width="13.17" height="9.39" transform="translate(315.34 68.25)" fill="#7fb8db"/>
          <rect id="Rectángulo_39720" data-name="Rectángulo 39720" width="13.17" height="9.39" transform="translate(374.08 68.25)" fill="#7fb8db"/>
          <rect id="Rectángulo_39721" data-name="Rectángulo 39721" width="36.65" height="9.39" transform="translate(387.25 56.42) rotate(180)" fill="#7fb8db"/>
          <rect id="Rectángulo_39722" data-name="Rectángulo 39722" width="39.88" height="9.39" transform="translate(341.19 56.42) rotate(180)" fill="#7fb8db"/>
          <rect id="Rectángulo_39723" data-name="Rectángulo 39723" width="26.33" height="9.39" transform="translate(203.16 56.42) rotate(180)" fill="#7fb8db"/>
          <rect id="Rectángulo_39724" data-name="Rectángulo 39724" width="37.17" height="9.39" transform="translate(271.48 56.42) rotate(180)" fill="#7fb8db"/>
          <rect id="Rectángulo_39725" data-name="Rectángulo 39725" width="13.17" height="9.39" transform="translate(293.07 56.42) rotate(180)" fill="#7fb8db"/>
          <rect id="Rectángulo_39726" data-name="Rectángulo 39726" width="13.17" height="9.39" transform="translate(226.77 56.42) rotate(180)" fill="#7fb8db"/>
          <rect id="Rectángulo_39727" data-name="Rectángulo 39727" width="13.17" height="9.39" transform="translate(168.03 56.42) rotate(180)" fill="#7fb8db"/>
          <rect id="Rectángulo_39728" data-name="Rectángulo 39728" width="26.33" height="9.39" transform="translate(203.16 98.85) rotate(180)" fill="#7fb8db"/>
          <rect id="Rectángulo_39729" data-name="Rectángulo 39729" width="37.17" height="9.39" transform="translate(271.48 98.85) rotate(180)" fill="#7fb8db"/>
          <rect id="Rectángulo_39730" data-name="Rectángulo 39730" width="13.17" height="9.39" transform="translate(226.77 98.85) rotate(180)" fill="#7fb8db"/>
          <rect id="Rectángulo_39731" data-name="Rectángulo 39731" width="13.17" height="9.39" transform="translate(168.03 98.85) rotate(180)" fill="#7fb8db"/>
        </g>
      </g>
      <g id="Grupo_94090" data-name="Grupo 94090">
        <rect id="Rectángulo_39732" data-name="Rectángulo 39732" width="216.23" height="80.17" rx="6.9" transform="translate(143.13 124.21)" fill="#104c82"/>
        <g id="Grupo_94089" data-name="Grupo 94089">
          <rect id="Rectángulo_39733" data-name="Rectángulo 39733" width="49.27" height="7.94" transform="translate(153.05 133.44)" fill="#7fb8db"/>
          <rect id="Rectángulo_39734" data-name="Rectángulo 39734" width="15.4" height="7.94" transform="translate(210.27 133.44)" fill="#7fb8db"/>
          <rect id="Rectángulo_39735" data-name="Rectángulo 39735" width="22.25" height="7.94" transform="translate(308.62 133.44)" fill="#7fb8db"/>
          <rect id="Rectángulo_39736" data-name="Rectángulo 39736" width="15.4" height="7.94" transform="translate(266.9 133.44)" fill="#7fb8db"/>
          <rect id="Rectángulo_39737" data-name="Rectángulo 39737" width="28.14" height="7.94" transform="translate(232.64 133.44)" fill="#7fb8db"/>
          <rect id="Rectángulo_39738" data-name="Rectángulo 39738" width="11.13" height="7.94" transform="translate(288.67 133.44)" fill="#7fb8db"/>
          <rect id="Rectángulo_39739" data-name="Rectángulo 39739" width="11.13" height="7.94" transform="translate(338.31 133.44)" fill="#7fb8db"/>
          <rect id="Rectángulo_39740" data-name="Rectángulo 39740" width="49.27" height="7.94" transform="translate(153.05 169.29)" fill="#7fb8db"/>
          <rect id="Rectángulo_39741" data-name="Rectángulo 39741" width="48.78" height="7.94" transform="translate(210.27 169.29)" fill="#7fb8db"/>
          <rect id="Rectángulo_39742" data-name="Rectángulo 39742" width="34.63" height="7.94" transform="translate(266.9 169.29)" fill="#7fb8db"/>
          <rect id="Rectángulo_39743" data-name="Rectángulo 39743" width="39.99" height="7.94" transform="translate(309.44 169.29)" fill="#7fb8db"/>
          <rect id="Rectángulo_39744" data-name="Rectángulo 39744" width="30.97" height="7.94" transform="translate(153.05 151.37)" fill="#7fb8db"/>
          <rect id="Rectángulo_39745" data-name="Rectángulo 39745" width="33.7" height="7.94" transform="translate(191.97 151.37)" fill="#7fb8db"/>
          <rect id="Rectángulo_39746" data-name="Rectángulo 39746" width="31.41" height="7.94" transform="translate(250.89 151.37)" fill="#7fb8db"/>
          <rect id="Rectángulo_39747" data-name="Rectángulo 39747" width="60.12" height="7.94" transform="translate(289.31 151.37)" fill="#7fb8db"/>
          <rect id="Rectángulo_39748" data-name="Rectángulo 39748" width="11.13" height="7.94" transform="translate(232.64 151.37)" fill="#7fb8db"/>
          <rect id="Rectángulo_39749" data-name="Rectángulo 39749" width="22.25" height="7.94" transform="translate(193.86 195.16) rotate(180)" fill="#7fb8db"/>
          <rect id="Rectángulo_39750" data-name="Rectángulo 39750" width="11.13" height="7.94" transform="translate(164.18 195.16) rotate(180)" fill="#7fb8db"/>
        </g>
      </g>
      <g id="Grupo_94091" data-name="Grupo 94091">
        <rect id="Rectángulo_39751" data-name="Rectángulo 39751" width="69.46" height="69.46" rx="8.16" transform="translate(174.11 220.68)" fill="#7fb8db"/>
        <path id="Trazado_190827" data-name="Trazado 190827" d="M196.75,315.66h24.18a8.16,8.16,0,0,1,8.16,8.16V377a8.16,8.16,0,0,1-8.16,8.16H196.75a8.16,8.16,0,0,1-8.16-8.16V323.82a8.17,8.17,0,0,1,8.16-8.16Z" fill="#eb5654"/>
        <rect id="Rectángulo_39752" data-name="Rectángulo 39752" width="40.51" height="69.46" rx="8.16" transform="translate(115.38 299.58)" fill="#ffa726"/>
        <rect id="Rectángulo_39753" data-name="Rectángulo 39753" width="40.51" height="69.46" rx="8.16" transform="translate(302.31 369.03) rotate(180)" fill="#7fb8db"/>
      </g>
    </g>
    <g id="Grupo_94093" data-name="Grupo 94093" transform="translate(810 2629.191)">
      <path id="Trazado_190828" data-name="Trazado 190828" d="M434.4,77.94V55.46l-6.5,3.98V55.27l6.79-4.33h5.11v27Z" fill="#35afea"/>
      <path id="Trazado_190829" data-name="Trazado 190829" d="M474.82,77.94V55.46l-6.5,3.98V55.27l6.79-4.33h5.11v27Z" fill="#35afea"/>
      <path id="Trazado_190830" data-name="Trazado 190830" d="M465.15,64.48q0,6.87-2.36,10.41a7.92,7.92,0,0,1-7.07,3.54q-9.3,0-9.31-14a25.75,25.75,0,0,1,1-7.94A8.74,8.74,0,0,1,450.49,52a9,9,0,0,1,5.39-1.46q4.8,0,7,3.48T465.15,64.48Zm-5.42,0a35.83,35.83,0,0,0-.37-5.82,6.08,6.08,0,0,0-1.17-3,3,3,0,0,0-2.35-.9,3.18,3.18,0,0,0-2.47.91,5.84,5.84,0,0,0-1.19,3,36,36,0,0,0-.36,5.82,34.691,34.691,0,0,0,.37,5.8,6,6,0,0,0,1.2,3,3.5,3.5,0,0,0,4.75,0,6.35,6.35,0,0,0,1.21-3,33.921,33.921,0,0,0,.38-5.81Z" fill="#35afea"/>
    </g>
    <g id="Grupo_94094" data-name="Grupo 94094" transform="translate(810 2629.191)">
      <path id="Trazado_190831" data-name="Trazado 190831" d="M444.69,110.73V93.84l-4.89,2.99V93.7l5.1-3.26h3.85v20.29Z" fill="#35afea"/>
      <path id="Trazado_190832" data-name="Trazado 190832" d="M475.05,110.73V93.84l-4.88,2.99V93.7l5.1-3.26h3.85v20.29Z" fill="#35afea"/>
      <path id="Trazado_190833" data-name="Trazado 190833" d="M467.79,100.62c0,3.44-.59,6-1.77,7.82a6,6,0,0,1-5.31,2.66q-7,0-7-10.48a19.36,19.36,0,0,1,.77-6,6.57,6.57,0,0,1,2.3-3.41,6.8,6.8,0,0,1,4-1.1,5.81,5.81,0,0,1,5.29,2.62Q467.79,95.37,467.79,100.62Zm-4.08,0a27.246,27.246,0,0,0-.27-4.38,4.58,4.58,0,0,0-.88-2.24,2.25,2.25,0,0,0-1.76-.68,2.39,2.39,0,0,0-1.86.69,4.39,4.39,0,0,0-.9,2.24,27.231,27.231,0,0,0-.26,4.37,25.9,25.9,0,0,0,.28,4.36,4.57,4.57,0,0,0,.89,2.24,2.64,2.64,0,0,0,3.57,0,4.67,4.67,0,0,0,.91-2.29,25.329,25.329,0,0,0,.28-4.31Z" fill="#35afea"/>
    </g>
    <g id="Grupo_94095" data-name="Grupo 94095" transform="translate(810 2629.191)">
      <path id="Trazado_190834" data-name="Trazado 190834" d="M381.46,147.81V136.02l-3.72,2.09v-2.19l3.88-2.27h2.93v14.16Z" fill="#fff"/>
      <path id="Trazado_190835" data-name="Trazado 190835" d="M394.95,165.02V153.23l-3.72,2.09v-2.19l3.88-2.27h2.93v14.16Z" fill="#fff"/>
      <path id="Trazado_190836" data-name="Trazado 190836" d="M399.06,140.75a9.24,9.24,0,0,1-1.35,5.46,4.7,4.7,0,0,1-4,1.85q-5.32,0-5.33-7.31a12.361,12.361,0,0,1,.59-4.16,4.57,4.57,0,0,1,1.75-2.38,5.45,5.45,0,0,1,3.08-.77,4.58,4.58,0,0,1,4,1.82,9.63,9.63,0,0,1,1.26,5.49Zm-3.11,0a17.18,17.18,0,0,0-.21-3.06,3.07,3.07,0,0,0-.67-1.56,1.81,1.81,0,0,0-1.34-.47,1.92,1.92,0,0,0-1.42.48,3,3,0,0,0-.68,1.56,18.16,18.16,0,0,0-.2,3.05,17,17,0,0,0,.21,3,3.15,3.15,0,0,0,.68,1.57,1.83,1.83,0,0,0,1.36.47,1.77,1.77,0,0,0,1.36-.5,3.18,3.18,0,0,0,.7-1.59,16.768,16.768,0,0,0,.26-2.95Z" fill="#fff"/>
      <path id="Trazado_190837" data-name="Trazado 190837" d="M389.4,158.17a9.24,9.24,0,0,1-1.35,5.46,4.67,4.67,0,0,1-4,1.86q-5.34,0-5.33-7.32a12.43,12.43,0,0,1,.58-4.16,4.57,4.57,0,0,1,1.75-2.38,5.55,5.55,0,0,1,3.08-.77,4.56,4.56,0,0,1,4,1.83,9.6,9.6,0,0,1,1.27,5.48Zm-3.11,0a18.159,18.159,0,0,0-.2-3,3,3,0,0,0-.68-1.56,1.76,1.76,0,0,0-1.34-.48,1.91,1.91,0,0,0-1.41.48,3,3,0,0,0-.69,1.56,18.239,18.239,0,0,0-.2,3,16.082,16.082,0,0,0,.22,3.05,3,3,0,0,0,.68,1.56,2.13,2.13,0,0,0,2.72,0,3.14,3.14,0,0,0,.69-1.6,16.687,16.687,0,0,0,.21-3.01Z" fill="#fff"/>
    </g>
    <g id="Grupo_94097" data-name="Grupo 94097" transform="translate(810 2629.191)">
      <g id="Grupo_94096" data-name="Grupo 94096">
        <path id="Trazado_190838" data-name="Trazado 190838" d="M51.32,318.36l-2.93-4.58,9.48-13.91,2.07,3.24-7.61,11.4,13.52-2.18,2.07,3.22Z" fill="#35afea"/>
        <path id="Trazado_190839" data-name="Trazado 190839" d="M70.74,317.08,60.55,293l3-1.94,10.26,24Z" fill="#35afea"/>
        <path id="Trazado_190840" data-name="Trazado 190840" d="M77.29,309.55l-2.07-3.22L82.83,295l-13.52,2.16-2.08-3.24,16.6-2.81,2.94,4.58Z" fill="#35afea"/>
      </g>
      <path id="Trazado_190841" data-name="Trazado 190841" d="M67.65,335.85a30.85,30.85,0,1,1,25.9-47.49h0a30.85,30.85,0,0,1-25.9,47.49Zm-.11-59.52a28.67,28.67,0,1,0,24.19,13.19h0a28.68,28.68,0,0,0-24.19-13.19Z" fill="#35afea"/>
    </g>
  </g>
</svg>
