<svg xmlns="http://www.w3.org/2000/svg" xmlns:xlink="http://www.w3.org/1999/xlink" width="300" height="300" viewBox="0 0 300 300">
  <defs>
    <linearGradient id="linear-gradient" x1="854.882" y1="0.5" x2="855.885" y2="0.5" gradientUnits="objectBoundingBox">
      <stop offset="0.12" stop-color="#fec7c7"/>
      <stop offset="0.97" stop-color="#ffadb7"/>
    </linearGradient>
    <linearGradient id="linear-gradient-2" x1="0.038" y1="0.536" x2="1.188" y2="0.336" gradientUnits="objectBoundingBox">
      <stop offset="0.12" stop-color="#feb9b8"/>
      <stop offset="1" stop-color="#ffdede"/>
    </linearGradient>
  </defs>
  <g id="Grupo_94254" data-name="Grupo 94254" transform="translate(-356 -2674)">
    <g id="Grupo_92366" data-name="Grupo 92366" transform="translate(499.82 2735.047)">
      <path id="Trazado_183673" data-name="Trazado 183673" d="M124.616,136.381c10.065-5.8,26.37-5.8,36.435,0s10.065,15.225,0,21-26.37,5.82-36.435,0S114.551,142.186,124.616,136.381Z" transform="translate(-85.286 4.967)" opacity="0.3"/>
      <path id="Trazado_183674" data-name="Trazado 183674" d="M154.6,91.285l3.375-.615,2.7-1.845.6-3.2-2.37-1.08-5.835,3.375Z" transform="translate(-67.285 -18.772)" fill="#752e34"/>
      <path id="Trazado_183675" data-name="Trazado 183675" d="M160.635,87.015l2.43.87s3.21,2.55,3.42,3.315a2.88,2.88,0,0,1-.33,1.77,23.129,23.129,0,0,0,2.4,4.9,2.6,2.6,0,0,1-1.17,3.945c-1.86.945-5.145,0-6.675-1.5a15.69,15.69,0,0,1-2.925-4.02,39.163,39.163,0,0,1-2.355-5.325v-2.79l3.855-2.385Z" transform="translate(-66.105 -18.147)" fill="#fdc6b4"/>
      <path id="Trazado_183676" data-name="Trazado 183676" d="M153.8,88.69l2.8,3.18,1.05-1.59,2.6-1.92,1.56-.45-2.865-3.9-2.685.18-3.195,2.7Z" transform="translate(-67.285 -19.042)" fill="#f6f6f6"/>
      <path id="Trazado_183677" data-name="Trazado 183677" d="M141.825,54.68l4.29.54a5.82,5.82,0,0,1,4.32,4.305c.66,3.5,4.5,24.33,4.5,24.33l13.425,16.71a4.875,4.875,0,0,0-4.425,1.59,7.32,7.32,0,0,0-2.25,4.065L147.54,91.475l-8.67-33Z" transform="translate(-74.385 -33.707)" fill="#975137"/>
      <path id="Trazado_183678" data-name="Trazado 183678" d="M155.94,141.55c2.49,1.59.345,4.965,0,5.445-1.17,2.61-7.425-.96-7.425-.96s-3.48-2.325-5.34-3.27-3.75-1.035-4.7-1.5c-2.37-1.185-3-1.95-3-2.655v-.51l8.385.66S154.77,140.815,155.94,141.55Z" transform="translate(-76.08 8.003)" fill="#6e564f"/>
      <path id="Trazado_183679" data-name="Trazado 183679" d="M129.1,138.495l.96,5.31a27.256,27.256,0,0,1,1.185,4.86c.15,1.9-.735,4.14-4.5,4.275s-4.5-2.64-5.055-4.77a47.43,47.43,0,0,1,0-8.565l.645-1.935Z" transform="translate(-83.069 7.788)" fill="#6e564f"/>
      <path id="Trazado_183680" data-name="Trazado 183680" d="M145.095,135.01a46.106,46.106,0,0,0,3.735,4.035c1.365,1.155,6,3.39,7.11,4.125,2.49,1.59.345,4.95,0,5.43-1.17,2.625-7.425-.96-7.425-.96s-3.48-2.325-5.34-3.255a47.719,47.719,0,0,0-4.7-1.5c-2.37-1.2-3-1.965-3-2.655v-3.45l4.65-3.18Z" transform="translate(-76.08 5.753)" fill="#372824"/>
      <path id="Trazado_183681" data-name="Trazado 183681" d="M132.62,98.985s4.365,22.2,3.87,27.4a67.5,67.5,0,0,0-.87,9c-.105,5.37,1.14,22.725,1.14,22.725s.96,2.385,5.76,2.055,5.16-2.505,5.16-2.505.3-25.68.96-31.695,1.815-8.46,2.235-17.16a121.949,121.949,0,0,0,0-14.58l-10.5-3.45Z" transform="translate(-77.51 -15.657)" fill="#603404"/>
      <path id="Trazado_183682" data-name="Trazado 183682" d="M129.125,137.95l.96,5.295a27.556,27.556,0,0,1,1.125,4.89c.15,1.9-.735,4.14-4.5,4.26s-4.5-2.625-5.055-4.755a47.433,47.433,0,0,1,0-8.565l.645-1.935Z" transform="translate(-83.089 7.523)" fill="#372824"/>
      <path id="Trazado_183683" data-name="Trazado 183683" d="M123.648,104.745c-.3,10.2.975,19.05,0,23.085a50.071,50.071,0,0,0-1.86,6.525,169.77,169.77,0,0,0-.87,28.26s0,1.89,4.7,2.19c5.085.315,5.265-2.19,5.265-2.19s1.11-17.475,3.36-30.885c.63-3.75,3.255-6.6,6-28.005,1.32-1.32,8.325-2.76,15.33-11.385V88.62L127.7,90.81S124.158,104.085,123.648,104.745Z" transform="translate(-83.478 -16.737)" fill="#774205"/>
      <path id="Trazado_183684" data-name="Trazado 183684" d="M130.505,52.93a11.22,11.22,0,0,1-.66,5.205l-.705,2.7,1.365,5.265,3.225,2.76h4.8l2.07-.345,2.88-2.685.3-2.64-.63-5.31-5.22-5.4L132.08,52a7.771,7.771,0,0,1-1.575.93Z" transform="translate(-79.25 -35.047)" fill="#d3a495"/>
      <path id="Trazado_183685" data-name="Trazado 183685" d="M135.965,94.645a15.48,15.48,0,0,0,8.79-3.435l.57-4.5-11,1.935L134,91.96Z" transform="translate(-76.82 -17.692)" fill="#1e1313"/>
      <path id="Trazado_183686" data-name="Trazado 183686" d="M131.54,61.915l4.86,2.835,4.215.195,2.025-2.55-.285-4.815h2.19l5.175,11.775s-1.5,32.52-1.5,33.24c-2.73,3.525-8.4,3.75-8.4,3.75h-4.635l-6.945-42.4,1.2-1.7Z" transform="translate(-79.7 -32.257)" fill="#f6f6f6"/>
      <path id="Trazado_183687" data-name="Trazado 183687" d="M136.75,58.37l2.325,4.02c3.225,6.27,3.36,18.345,3.36,18.345l.21,36.96s0,2.565,1.965,1.41l3.81-2.16a4.74,4.74,0,0,0,2.535-3.81c0-2.52-.2-36.4-.21-38.325,0-7.86-1.155-10.5-3-13.4A20.745,20.745,0,0,0,142.3,56Z" transform="translate(-75.445 -33.047)" fill="#ab5d40"/>
      <path id="Trazado_183688" data-name="Trazado 183688" d="M136.49,64.735l6.795-2.745L141.41,58l-2.295,1.08-.6,3.1Z" transform="translate(-75.575 -32.047)" opacity="0.3"/>
      <path id="Trazado_183689" data-name="Trazado 183689" d="M139.7,59.935l2.415,1.845-1.68-3.795L138.2,57.88l-.09,2.145Z" transform="translate(-74.765 -32.107)" fill="#e1dedc"/>
      <path id="Trazado_183690" data-name="Trazado 183690" d="M137.09,58.805l1.125,3.825,2-2.31L138.7,57.11Z" transform="translate(-75.275 -32.492)" fill="#f6f6f6"/>
      <path id="Trazado_183691" data-name="Trazado 183691" d="M123.455,62.465l9.8-6.375,1.17,4.5s3.105,4.245,3.84,4.95c3.78,4.59,4.38,17,4.38,17l.18,37.5a3.1,3.1,0,0,1-1.83,2.775c-7.635,2.505-12.555,1.755-14.715.72-3.72-1.785-3.72-3.27-3.72-3.27l1.035-21.375-1.26-17.25Z" transform="translate(-82.655 -33.002)" fill="#ab5d40"/>
      <path id="Trazado_183692" data-name="Trazado 183692" d="M144.015,44.245l3.12,3.705a37.166,37.166,0,0,1,.75,4.23,4.8,4.8,0,0,1-.27,1.665,4.755,4.755,0,0,1,.33,1.725c0,.915-.105,1.245-.2,2.9-.21,4.32-1.395,7.755-2.76,8.325a5.115,5.115,0,0,1-3.66.24c-9.885-4.035-8.55-7.2-9.24-7.5a4.5,4.5,0,0,1-2.07-2.46l-1.05-1.83,1.905-8.88,7.5-4.08Z" transform="translate(-79.335 -39.907)" fill="#fdc6b4"/>
      <path id="Trazado_183693" data-name="Trazado 183693" d="M131.361,54.651c.945-.27,2.28,1.5,2.2,2.775s2.22,2.07,2.325.78a21.344,21.344,0,0,0,0-5.715,9.7,9.7,0,0,0-1.98-3.57s4.245,2.895,7.08,2.895a7.785,7.785,0,0,0,6.63-3c2-5.385-9.945-11.34-15.435-6.075-7.9,7.59-1.68,15.135-1.68,15.135S129.006,55.266,131.361,54.651Z" transform="translate(-79.731 -40.698)" fill="#a69c95"/>
      <path id="Trazado_183694" data-name="Trazado 183694" d="M105.5,88.185l-.375,1.845,2.52,3.96,1.89,1.575,1.35-3.27-3.675-4.815Z" transform="translate(-91.26 -17.307)" fill="#752e34"/>
      <path id="Trazado_183695" data-name="Trazado 183695" d="M107.34,89.44l-5.625.825a12.466,12.466,0,0,0-2,1.38A1.5,1.5,0,0,0,99.465,93S95.85,97.5,95.88,98.29s3.225,4.5,8.34,2.385a24.285,24.285,0,0,0,6.375-4.35,2.67,2.67,0,0,0,.72-1.41c.48-.87,1.2-2.13,1.2-2.13L110.13,88.84Z" transform="translate(-95.88 -16.627)" fill="#fdc6b4"/>
      <path id="Trazado_183696" data-name="Trazado 183696" d="M107.235,87.99l-3.705,2.13a4.02,4.02,0,0,1,3.21,1.965,4.08,4.08,0,0,1,.765,3.51l3.75-1.92.15-2.7L109.11,87.48Z" transform="translate(-92.055 -17.307)" fill="#f6f6f6"/>
      <path id="Trazado_183697" data-name="Trazado 183697" d="M131.92,60.34l-4.185,2.295a6.075,6.075,0,0,0-2.9,4.065c-.675,3-2.25,10.08-2.25,10.08L118.9,91.405,105.4,101.77s1.5-.33,3.24,2.52a5.28,5.28,0,0,1,.795,4.845s12.645-6.75,15.63-8.49a7.5,7.5,0,0,0,3.57-4.41l4.5-16.77S139.915,62.62,131.92,60.34Z" transform="translate(-91.12 -30.877)" fill="#975137"/>
      <path id="Trazado_183698" data-name="Trazado 183698" d="M134.41,61.23l3.96,1.89s-4.3.795-5.64-1.005C132.7,61.875,134.41,61.23,134.41,61.23Z" transform="translate(-77.455 -30.432)" fill="#e1dedc"/>
      <path id="Trazado_183699" data-name="Trazado 183699" d="M140.17,65.535l-6.465,1.815a20.2,20.2,0,0,1-3.63-5.085,18.375,18.375,0,0,1-.945-5.865l3.675,6.09,3.4,1.155Z" transform="translate(-79.255 -32.847)" opacity="0.3"/>
      <path id="Trazado_183700" data-name="Trazado 183700" d="M136.218,62.81a11.4,11.4,0,0,1-3-1.65c-.135.1-.825.615-.615.975a8.625,8.625,0,0,0,3.405,2.235l.63-.585Z" transform="translate(-77.538 -30.467)" fill="#9e0727"/>
      <g id="Grupo_92365" data-name="Grupo 92365" transform="translate(58.53 29.283)">
        <path id="Trazado_183701" data-name="Trazado 183701" d="M138.01,63.9c4.155,6.255,3.4,37.5,3.4,37.5l-2.145,3.285-2.265-1.995C138.85,75,136.3,64.5,136.3,64.5l.66-1.5S137.995,63.57,138.01,63.9Z" transform="translate(-134.2 -58.83)" fill="#9e0727"/>
        <path id="Trazado_183702" data-name="Trazado 183702" d="M138.49,63.22a8.445,8.445,0,0,0,.36-3l-1.62,1.95.3,1Z" transform="translate(-133.735 -60.22)" fill="#9e0727"/>
        <path id="Trazado_183703" data-name="Trazado 183703" d="M139.655,62.57l-.945,2.055L137,65.21l-2.1-1.035.135-1.56,2.25.345,1.11-1.41Z" transform="translate(-134.9 -59.555)" fill="#80021a"/>
      </g>
      <path id="Trazado_183704" data-name="Trazado 183704" d="M133.75,67.425l2.46-3.225a24.8,24.8,0,0,1-4.185-4.41,18.48,18.48,0,0,1-1.815-4.5l-1.08,1.635a14.415,14.415,0,0,0,1.215,5.325,24.9,24.9,0,0,0,3.4,5.175Z" transform="translate(-79.255 -33.402)" fill="#f6f6f6"/>
    </g>
    <rect id="Rectángulo_38867" data-name="Rectángulo 38867" width="300" height="300" transform="translate(356 2674)" fill="none"/>
    <g id="Grupo_92373" data-name="Grupo 92373" transform="translate(378.635 2688.67)">
      <g id="Grupo_92367" data-name="Grupo 92367" transform="translate(30.735 173.01)">
        <path id="Trazado_183705" data-name="Trazado 183705" d="M125.73,154.075a5.07,5.07,0,0,0-2.235-.5H84.66V128.2c0-1.08-1.5-1.98-3.42-1.98s-3.42.9-3.42,1.98v25.38H38.985a4.83,4.83,0,0,0-2.505.645l-.9-.33v1.665c0,1.08,1.5,1.965,3.4,1.965H77.82V182.89c0,1.1,1.5,1.98,3.42,1.98s3.42-.885,3.42-1.98V157.525H123.5c1.875,0,3.4-.885,3.4-1.965V153.9Z" transform="translate(-35.58 -124.57)" fill="#030202"/>
        <path id="Trazado_183706" data-name="Trazado 183706" d="M123.5,152.48H84.66v-25.4c0-1.08-1.5-1.965-3.42-1.965s-3.42.885-3.42,1.965v25.4H38.985c-1.875,0-3.405.87-3.405,1.965s1.5,1.965,3.405,1.965H77.82v25.4c0,1.08,1.5,1.965,3.42,1.965s3.42-.885,3.42-1.965V156.44H123.5c1.875,0,3.4-.87,3.4-1.965S125.37,152.48,123.5,152.48Z" transform="translate(-35.58 -125.12)" fill="#5c4741"/>
      </g>
      <g id="Grupo_92370" data-name="Grupo 92370" transform="translate(72.783 127.151)">
        <g id="Grupo_92368" data-name="Grupo 92368" transform="translate(0 71.454)">
          <path id="Trazado_183707" data-name="Trazado 183707" d="M70.74,145.02v-1.5H63.66v1.5a1.77,1.77,0,0,0,1.035,1.5,5.565,5.565,0,0,0,5.01,0,1.77,1.77,0,0,0,1.035-1.5Z" transform="translate(-63.588 -141.514)" fill="#372824"/>
          <path id="Trazado_183708" data-name="Trazado 183708" d="M69.729,145.674a5.565,5.565,0,0,1-5.01,0,1.5,1.5,0,0,1,0-2.895,5.565,5.565,0,0,1,5.01,0,1.5,1.5,0,0,1,0,2.895Z" transform="translate(-63.612 -142.183)" fill="#8b6e69"/>
        </g>
        <g id="Grupo_92369" data-name="Grupo 92369" transform="translate(0.806)">
          <path id="Trazado_183709" data-name="Trazado 183709" d="M69.76,167.39V95.63H64.15v71.76a1.5,1.5,0,0,0,.825,1.155,4.38,4.38,0,0,0,3.96,0A1.41,1.41,0,0,0,69.76,167.39Z" transform="translate(-64.15 -94.006)" fill="#372824"/>
          <path id="Trazado_183710" data-name="Trazado 183710" d="M68.935,97.311a4.38,4.38,0,0,1-3.96,0,1.2,1.2,0,0,1,0-2.28,4.29,4.29,0,0,1,3.96,0,1.2,1.2,0,0,1,0,2.28Z" transform="translate(-64.15 -94.547)" fill="#5c4741"/>
        </g>
      </g>
      <g id="Grupo_92371" data-name="Grupo 92371">
        <path id="Trazado_183711" data-name="Trazado 183711" d="M15.09,65.02v99.825l1.83,1.065V66.07l-.09-.54Z" transform="translate(-15.09 17.84)" fill="#6e564f"/>
        <path id="Trazado_183712" data-name="Trazado 183712" d="M16.31,93.345v99.84L159.83,110.31V10.47L19.355,90.105Z" transform="translate(-14.48 -9.435)" fill="#42322d"/>
        <path id="Trazado_183713" data-name="Trazado 183713" d="M158.45,74.7,17,156.355v-.69L157.865,74.35Z" transform="translate(-14.135 22.505)" fill="#8b6e69"/>
        <path id="Trazado_183714" data-name="Trazado 183714" d="M110.91,105.65V12.095l.585-.345V106Z" transform="translate(32.82 -8.795)" fill="#6e564f"/>
        <path id="Trazado_183715" data-name="Trazado 183715" d="M157.865,11.98v93.555L17,186.85V93.3Z" transform="translate(-14.135 -8.68)" fill="#f6f6f6"/>
        <path id="Trazado_183716" data-name="Trazado 183716" d="M15.09,92.64,158.61,9.78l1.83,1.035L16.92,93.69Z" transform="translate(-15.09 -9.78)" fill="#8b6e69"/>
      </g>
      <g id="Grupo_92372" data-name="Grupo 92372" transform="translate(19.185 29.783)">
        <path id="Trazado_183717" data-name="Trazado 183717" d="M134.89,73.96,29.56,134.89V70.06a.84.84,0,0,0-1.68,0v66.2h0a.3.3,0,0,0,.09.21c.09.075,0,.135,0,.195a.69.69,0,0,0,.1.105h.075a.81.81,0,0,0,.93.09l106.65-61.44a.84.84,0,0,0,.315-1.14.855.855,0,0,0-1.155-.315Z" transform="translate(-27.88 -9.843)" fill="#ff5c51"/>
        <path id="Trazado_183718" data-name="Trazado 183718" d="M48.13,68.21,33.22,76.82v2.835l14.91-8.61Z" transform="translate(-25.21 -10.348)" fill="#ff5c51"/>
        <path id="Trazado_183719" data-name="Trazado 183719" d="M48.13,71.93,33.22,80.54v2.835l14.91-8.6Z" transform="translate(-25.21 -8.488)" fill="#ff5c51"/>
        <path id="Trazado_183720" data-name="Trazado 183720" d="M41.965,78.03,33.22,83.07v2.85l8.745-5.055Z" transform="translate(-25.21 -5.438)" fill="#ff5c51"/>
        <path id="Trazado_183721" data-name="Trazado 183721" d="M31.911,136.386a.84.84,0,0,0,.72-.39l13.62-22.275,17.61,1.4a.81.81,0,0,0,.87-.585l7.11-23.055,14.175,5.055a.825.825,0,0,0,1.02-.375l21.54-38.8v10a.84.84,0,1,0,1.68,0V54.036h0a.855.855,0,0,0-.21-.525h0a.765.765,0,0,0-.465-.2h-.12a.435.435,0,0,0-.24,0l-11.805,5.67a.84.84,0,1,0,.735,1.5l9.4-4.5L85.911,94.716,71.571,89.6a.84.84,0,0,0-1.08.54l-7.17,23.25L45.876,112a.855.855,0,0,0-.78.4l-13.905,22.71a.84.84,0,0,0,.285,1.155A.765.765,0,0,0,31.911,136.386Z" transform="translate(-26.286 -17.804)" fill="#ff5c51"/>
        <path id="Trazado_183722" data-name="Trazado 183722" d="M103.7,57.367a12.42,12.42,0,0,0-5.64,9.75c0,3.585,2.52,5.04,5.625,3.24a12.39,12.39,0,0,0,5.64-9.735C109.325,57.022,106.8,55.567,103.7,57.367Z" transform="translate(7.21 -16.155)" fill="#ff5c51"/>
        <path id="Trazado_183723" data-name="Trazado 183723" d="M103.7,43.887a12.435,12.435,0,0,0-5.64,9.75c0,3.585,2.52,5.04,5.625,3.255a12.435,12.435,0,0,0,5.64-9.75C109.325,43.542,106.8,42.087,103.7,43.887Z" transform="translate(7.21 -22.895)" fill="#ff5c51"/>
        <path id="Trazado_183724" data-name="Trazado 183724" d="M103.685,43.412a12.435,12.435,0,0,0,5.64-9.75c0-3.6-2.52-5.055-5.625-3.255a12.435,12.435,0,0,0-5.64,9.75C98.06,43.682,100.58,45.182,103.685,43.412Z" transform="translate(7.21 -29.635)" fill="#ff5c51"/>
      </g>
    </g>
    <g id="Grupo_92377" data-name="Grupo 92377" transform="translate(575.017 2795.845)">
      <path id="Trazado_183725" data-name="Trazado 183725" d="M152.849,198.276c9.15,5.28,24,5.25,33.24,0s9.24-13.92.09-19.2-24-5.25-33.225,0S143.7,192.936,152.849,198.276Z" transform="translate(-146.011 -34.281)" fill="#e3e4ed"/>
      <g id="Grupo_92376" data-name="Grupo 92376" transform="translate(0.4)">
        <g id="Grupo_92374" data-name="Grupo 92374" transform="translate(3.873 67.785)">
          <path id="Trazado_183726" data-name="Trazado 183726" d="M150.18,183.13a2.16,2.16,0,0,0-1.32,1.32v1.635a8.415,8.415,0,0,0,3.4,3.8,9.66,9.66,0,0,0,5.175,1.5,9.271,9.271,0,0,1,3.315.84,3.4,3.4,0,0,0,.285.72,11.9,11.9,0,0,0,3.315,1.5,4.68,4.68,0,0,0,3.51.09,2.835,2.835,0,0,0,1.965-1.83,21.992,21.992,0,0,0,0-2.46,1.65,1.65,0,0,0-1.02-1.5Z" transform="translate(-148.86 -98.065)" fill="#4f5a5b"/>
          <path id="Trazado_183727" data-name="Trazado 183727" d="M165.3,175.72c-.36.2-.63.285-.72.465a3,3,0,0,0-.18,1.23,4.59,4.59,0,0,0,1.185,2.61,6.66,6.66,0,0,0,2.37,2.115c.66.345.96.63,1.29.615a1.32,1.32,0,0,1,.87.495,6.286,6.286,0,0,1,.915,1.5c.075.435,0,.69.075,1.065a5.625,5.625,0,0,0,1.845,2.82c1.275.945,5.73.51,6.12-.885a7.875,7.875,0,0,0-.12-2.595c-.105-.585-6.345-5.655-6.345-5.655Z" transform="translate(-141.092 -101.77)" fill="#4f5a5b"/>
          <path id="Trazado_183728" data-name="Trazado 183728" d="M168.687,187.152a10.125,10.125,0,0,1,.495,4.335c-.18.735-2.43,2.3-5.8.975s-9.24-2.265-11.04-3.27-3.3-2.745-3.2-4.23a3,3,0,0,1,1.275-2.4,12.749,12.749,0,0,1,4.935-.525h4.3Z" transform="translate(-148.722 -98.637)" fill="#626b6c"/>
          <path id="Trazado_183729" data-name="Trazado 183729" d="M178.267,181.139a26.372,26.372,0,0,1,.495,4.59c0,.345-.75,1.29-3,1.5s-3.27-.435-3.93-1.365a13.981,13.981,0,0,0-2.265-3.465c-1.155-.945-1.9-1.02-3.555-2.43a3.525,3.525,0,0,1-1.245-3.66,2.64,2.64,0,0,1,1.7-1.26,5.565,5.565,0,0,1,2.865.345C169.777,175.784,178.267,181.139,178.267,181.139Z" transform="translate(-140.962 -102.134)" fill="#626b6c"/>
          <path id="Trazado_183730" data-name="Trazado 183730" d="M176.075,126.42c.78.78,1.245.3,1.32,1.17a55.962,55.962,0,0,1,1.35,12.1,99.816,99.816,0,0,1-1.32,12.39,196.507,196.507,0,0,0,.705,23.565c.48,3.12,2.19,26.4,1.41,31.755a7.17,7.17,0,0,1-9.18-2.085c-.57-1.035-1.035-17.04-2.865-26.205s-3.12-17.085-3.645-19.275a194.851,194.851,0,0,1-1.14-19.5,71.855,71.855,0,0,1,1.14-10.5Z" transform="translate(-141.935 -126.42)" fill="#485455"/>
          <path id="Trazado_183731" data-name="Trazado 183731" d="M172.166,198.525h-.42a121.491,121.491,0,0,0-1.65-12.1c-.345-2.145-.705-4.38-.975-6.24-.765-5.145-2.49-13.035-3.525-17.745-.225-1.02-.4-1.875-.54-2.505a65.806,65.806,0,0,1-.375-15.75h.42a65.652,65.652,0,0,0,.36,15.63l.54,2.52c1.035,4.71,2.76,12.6,3.525,17.76.27,1.86.63,4.08.975,6.24A117.867,117.867,0,0,1,172.166,198.525Z" transform="translate(-141.101 -117.54)" fill="#788182"/>
          <path id="Trazado_183732" data-name="Trazado 183732" d="M175.98,128.629a46.5,46.5,0,0,1,1.275,13.26c-.45,3.855-.69,8.625-6,11.67-.465,1.11-3.135,25.41-3.135,28.9s-1.215,31.4-1.32,33.555c-3.465,3.99-8.445.63-9.24-.66a6.7,6.7,0,0,1-.975-3.615c0-1.035,0-23.2-.765-33s-2.22-24-2.28-32.16,2.175-13.5,2.775-16.89S175.98,128.629,175.98,128.629Z" transform="translate(-146.52 -125.704)" fill="#485455"/>
          <path id="Trazado_183733" data-name="Trazado 183733" d="M157.95,213.88h-.42a121.738,121.738,0,0,0,.27-18.405c-.315-3.39-.66-8.1-1.035-13.065-.465-6.255-.99-13.35-1.5-19.245a140.034,140.034,0,0,1-.87-17.685v-.735a42.735,42.735,0,0,1,2.6-12.555l.39.165a42.585,42.585,0,0,0-2.565,12.4v.645a145.6,145.6,0,0,0,.87,17.64c.585,5.91,1.11,13,1.575,19.26.36,4.965.705,9.66,1.035,13.05a125.173,125.173,0,0,1-.345,18.525Z" transform="translate(-146.1 -123.535)" fill="#788182"/>
          <path id="Trazado_183734" data-name="Trazado 183734" d="M163.94,152.45a17.835,17.835,0,0,1-6-1.74c-.39-.5-.72-9.765-.81-12.585v-.255h.24a51,51,0,0,0,15-.87h.285v.3c0,.39-1.5,9.585-2,10.5s-6,4.5-6.54,4.62Zm-6.33-14.1c.15,4.5.465,11.625.72,12.12a20.086,20.086,0,0,0,5.7,1.5c.645-.24,5.91-3.615,6.315-4.5a98.773,98.773,0,0,0,1.92-10.095,52.231,52.231,0,0,1-14.655.975Z" transform="translate(-144.725 -121.13)" fill="#788182"/>
          <path id="Trazado_183735" data-name="Trazado 183735" d="M173.91,147.83h-.165c-3.465-.75-3.465-.855-3.465-1.065a8.559,8.559,0,0,1,.345-1.665c.57-2.67,1.77-8.205,1.77-9v-.12h.105a7.5,7.5,0,0,0,2.28-2.085l.345-.555v.645c.165,2.4-.615,12.165-.66,12.57v.075Zm-3.2-1.2c.39.135,1.71.45,3,.72l.45-1.005c0-.615.705-8.85.675-11.865a9,9,0,0,1-1.965,1.65c-.09,1.185-1.185,6.255-1.785,9-.195.705-.315,1.2-.375,1.515Z" transform="translate(-138.15 -122.96)" fill="#788182"/>
          <path id="Trazado_183736" data-name="Trazado 183736" d="M181.87,129.81c-.42.81-1.32,2.55-8.655,4.59a34.155,34.155,0,0,1-14.16,1.5,6.09,6.09,0,0,1-4.275-2.085s.165-1.7.27-2.19a2.174,2.174,0,0,1,.315-.78s-.57,1.155,4.605,2.145,13.5-1.68,15.315-2.37a61.024,61.024,0,0,0,6.105-3.24S182.11,129.33,181.87,129.81Z" transform="translate(-145.9 -125.94)" fill="#754554"/>
          <path id="Trazado_183737" data-name="Trazado 183737" d="M169.26,129s1.2,3.915,1.2,4.1-1.2.6-1.2.6l-1.05-4.17Z" transform="translate(-139.185 -125.13)" fill="#485455"/>
          <path id="Trazado_183738" data-name="Trazado 183738" d="M158.195,130.76l1.35.15-.42,4.95-1.665-.285Z" transform="translate(-144.56 -124.25)" fill="#485455"/>
        </g>
        <g id="Grupo_92375" data-name="Grupo 92375">
          <path id="Trazado_183739" data-name="Trazado 183739" d="M181.037,99.277a12.645,12.645,0,0,1,5.37-.27c1.29.27,3.615,2.22,3.795,6.735s.8,5.34-1.665,13.815-6.09,18-6.39,19.665-.255,2.37-.42,2.85-5.835,3.4-13.3,4.245-11.46-.36-12.225-.765a2.115,2.115,0,0,1-1.215-1.5,72.841,72.841,0,0,1,.975-12.72c.765-3.5,1.905-8.775,1.905-8.775s.765-11.58,1.275-12.33c.945-1.4,7.125-3.765,9.105-5.745a15.87,15.87,0,0,1,5.04-3.09Z" transform="translate(-141.928 -72.426)" fill="#dde8f6"/>
          <path id="Trazado_183740" data-name="Trazado 183740" d="M165.336,105.948a7.5,7.5,0,0,1,4.035,6.87c0,2.34-.645,4.605-4.5,6.42s-7.965,3.78-11.25,4.05-6.135-1.2-6-4.05a4.9,4.9,0,0,1,3.225-5.175,63,63,0,0,0,9.165-5.28C162.546,106.713,163.881,105.258,165.336,105.948Z" transform="translate(-145.622 -68.958)" fill="#c7d9f0"/>
          <path id="Trazado_183741" data-name="Trazado 183741" d="M160.888,98.2a21.825,21.825,0,0,1,4.62,3.1c.135.165-7.125,15-8.475,17.3s-10.32,5.22-9.105,1.68a91.829,91.829,0,0,1,8.73-16.65A36,36,0,0,1,160.888,98.2Z" transform="translate(-145.509 -72.745)" fill="#c7d9f0"/>
          <path id="Trazado_183742" data-name="Trazado 183742" d="M156.61,102.293l.18,1.4,2.085,1.215.18.1,1.17-.525a17.776,17.776,0,0,0,2.1-1.815c.36-.495.525-1.185.72-1.335s1.08-.57,1.38-.795,1.5-.885,1.5-.885a2.429,2.429,0,0,0,.435.315c.225.12.705-.225.705-.42s-.48-.66-.48-.72h0a.9.9,0,0,0-.09-.7.645.645,0,0,0-.69-.465l-.12-.375s-.21-.54-.615-.615a8.139,8.139,0,0,0-1.02-.09l.525-.645h.54a1,1,0,0,0,.915-.3.63.63,0,0,0,0-.975,4.5,4.5,0,0,0-1.635-.435,5.6,5.6,0,0,0-1.635.72l1.29-1.275s1.5-1.215,1.71-1.35a1.3,1.3,0,0,0,.7-1.035c-.015-.555-.21-.45-.39-.45s-2.76,1.32-3.135,1.5a44.069,44.069,0,0,0-4,3.45,40.5,40.5,0,0,0-2.325,6.51Z" transform="translate(-141.112 -76.432)" fill="#fec7c7"/>
          <path id="Trazado_183743" data-name="Trazado 183743" d="M159.37,97.045c.285.51.54.645.75,1.05a.885.885,0,0,0,.87.615c.48,0,1.5-.75,1.77-.825a4.935,4.935,0,0,1,1.71-.6c-.09-.285,0-.135,0-.135l-1.215.345h-.45l-.66.135-.18-.285-.33.675a2.4,2.4,0,0,1-.84.165c-.21,0-.39-.42-.39-.42s.555-.33.555-.75a3.151,3.151,0,0,1,.135-.84h.555l.315.255.795-.165.525-.645h.54a1.125,1.125,0,0,0,.69-.12l.225-.18h-1.62a2.16,2.16,0,0,1-.54.615,1.83,1.83,0,0,1-.72,0l-.27-.165-.6-.09.645-.99.165-.39-.405.24,1.29-1.29,1.965-1.5.27-.27h-.1l-1.7,1.365s-1.74,1.275-1.89,1.71-.645,1.185-.705,1.5a1,1,0,0,1-1.095,1.02Z" transform="translate(-139.732 -76.105)" fill="#ef989a"/>
          <path id="Trazado_183744" data-name="Trazado 183744" d="M158.12,102.244l.18.1,1.17-.525a17.776,17.776,0,0,0,2.1-1.815c.36-.495.525-1.185.72-1.335s1.08-.57,1.38-.795,1.5-.885,1.5-.885a2.429,2.429,0,0,0,.435.315c.225.12.705-.225.705-.42s-.48-.66-.48-.72h0a5.474,5.474,0,0,1-.555.54,13.393,13.393,0,0,1-1.8,1.14A9.239,9.239,0,0,0,161.555,99a12.917,12.917,0,0,1-1.245,1.725c-.4.39-1.5.675-1.77.96A2.685,2.685,0,0,0,158.12,102.244Z" transform="translate(-140.357 -73.774)" fill="#fec7c7"/>
          <path id="Trazado_183745" data-name="Trazado 183745" d="M180.006,90.675a24.885,24.885,0,0,1-1.395,8.685,14.49,14.49,0,0,0-.4,4.98c.09,1.125-3.705,2.235-6.585,2.82s-4.68,1.23-4.635,0a15.57,15.57,0,0,0-.6-4.92c-.555-1.665-1.425-1.62-2.64-1.905s.315-6.12.315-6.12l4.5-8.265Z" transform="translate(-137.778 -78.87)" fill="url(#linear-gradient)"/>
          <path id="Trazado_183746" data-name="Trazado 183746" d="M165.085,83.91a24.435,24.435,0,0,0-1.89,5.865,9,9,0,0,1,.135,1.5c0,.165-.75.66-.72,1.11a6.377,6.377,0,0,0,.585,1.38,42.508,42.508,0,0,0-.585,4.5,5.085,5.085,0,0,0,.93,3c.585.615,3-.54,3.48-1.14a27.69,27.69,0,0,0,1.125-7.785c-.105-1.5-.78-6.84-.78-6.84Z" transform="translate(-138.112 -79.89)" fill="#fec7c7"/>
          <path id="Trazado_183747" data-name="Trazado 183747" d="M150.756,110.5a15.79,15.79,0,0,0-1.86.33s-1.5.135-1.425.975.6.96.87.975,2.25-.315,2.25-.315Z" transform="translate(-145.683 -66.595)" fill="#fec7c7"/>
          <path id="Trazado_183748" data-name="Trazado 183748" d="M148.066,116.06a24.832,24.832,0,0,1,3,.12c.6.12.72.345.765.525a3.4,3.4,0,0,1,0,.69s.555-.135.75,0a.84.84,0,0,1,.285.7,1.2,1.2,0,0,1-.105.42,2.19,2.19,0,0,1,.615-.12.57.57,0,0,1,.255.63c-.09.27-.96.87-1.26,1.065a4.05,4.05,0,0,1-1.035.54,3,3,0,0,1-1.5-.465l-.24-.225a4.755,4.755,0,0,1-1.3-.465c-.27-.24-.315-1.005-.33-1.155s-.63-.3-.885-.495a1.2,1.2,0,0,1-.33-.57,7.682,7.682,0,0,0,0-1.1c0-.54-.405-.93-.465-1.245s.75-1.185.945-1.38a14.47,14.47,0,0,1,1.5-.93,3.8,3.8,0,0,0,0,1.08,2.335,2.335,0,0,1,1.035.4.915.915,0,0,1,.135.96c-.135.315-.495.285-.855.315a3.24,3.24,0,0,0-.99.39Z" transform="translate(-146.278 -65.54)" fill="#fec7c7"/>
          <path id="Trazado_183749" data-name="Trazado 183749" d="M147.33,116.875a1.26,1.26,0,0,0,.63.255,16.718,16.718,0,0,0,1.92-.645l1.065-.225c.3,0,.585-.12.6-.48-.18,0-.165.285-.645.27a20.057,20.057,0,0,0-2.535.57,5.234,5.234,0,0,1-.9.09Z" transform="translate(-145.752 -63.955)" fill="#ef989a"/>
          <path id="Trazado_183750" data-name="Trazado 183750" d="M152.055,116.575a4.5,4.5,0,0,0-1.2.72,11.327,11.327,0,0,1-1.32.81h-.975l.93-.1,1.725-1.185.555-.4Z" transform="translate(-145.137 -63.64)" fill="#ef989a"/>
          <path id="Trazado_183751" data-name="Trazado 183751" d="M149.375,115.5a20.266,20.266,0,0,1-2.175,0h-.45a8.625,8.625,0,0,1,.795-.66,6,6,0,0,1,1.245-.315s.9,0,1.02-.225a.69.69,0,0,1,.315-.3l.075.93Z" transform="translate(-146.042 -64.845)" fill="#ef989a"/>
          <path id="Trazado_183752" data-name="Trazado 183752" d="M156.07,138.485h-.42a66,66,0,0,1,4.23-13.38,37.5,37.5,0,0,0,2.04-6.615c.375-1.59.81-3.39,1.5-5.46l.39.135c-.63,2.04-1.05,3.765-1.5,5.43a37.694,37.694,0,0,1-2.055,6.675,64.262,64.262,0,0,0-4.185,13.215Z" transform="translate(-141.592 -65.33)" fill="#fff"/>
          <path id="Trazado_183753" data-name="Trazado 183753" d="M164.771,95.675l.855.375a1.83,1.83,0,0,1,3-.48,7.23,7.23,0,0,1,2.385,4.635,4.365,4.365,0,0,0,2.46,2.73c1.29.585,4.41.285,4.725-.24a21.224,21.224,0,0,1,2.4-4.5c1.3-1.5,5.925-7.665,1.5-12.435a16.919,16.919,0,0,1-2.6-1.74s-.96-2.82-6.255-2.79-8.625,1.695-9.33,3.15a3.69,3.69,0,0,0,0,3s.66.915.555,1.275-.675,1.9-.675,1.9a9.434,9.434,0,0,1,1.08,2.295C164.861,93.245,164.771,95.675,164.771,95.675Z" transform="translate(-137.618 -81.23)" fill="#754554"/>
          <path id="Trazado_183754" data-name="Trazado 183754" d="M166.014,90.8c.63.1,1.125.42,1.3,1.89a3.63,3.63,0,0,1-.825,2.73c-.33.51-.585.735-.87.42s-.105-1.5-.105-1.965a7.756,7.756,0,0,1,0-1.5C165.579,91.942,165.429,90.7,166.014,90.8Z" transform="translate(-136.686 -76.447)" fill="url(#linear-gradient-2)"/>
        </g>
      </g>
    </g>
  </g>
</svg>
