<svg xmlns="http://www.w3.org/2000/svg" xmlns:xlink="http://www.w3.org/1999/xlink" width="551.24" height="386.583" viewBox="0 0 551.24 386.583">
  <defs>
    <linearGradient id="linear-gradient" x1="0.164" y1="-0.34" x2="0.896" y2="2.543" gradientUnits="objectBoundingBox">
      <stop offset="0" stop-color="#f0f7ff"/>
      <stop offset="1" stop-color="#c4e6ff"/>
    </linearGradient>
    <linearGradient id="linear-gradient-2" x1="0.162" y1="-0.308" x2="0.941" y2="2.667" xlink:href="#linear-gradient"/>
    <linearGradient id="linear-gradient-3" x1="-6.401" y1="5.34" x2="-5.295" y2="5.34" gradientUnits="objectBoundingBox">
      <stop offset="0" stop-color="#c4e6ff"/>
      <stop offset="1" stop-color="#73b2ff"/>
    </linearGradient>
    <linearGradient id="linear-gradient-4" x1="1.057" y1="0.038" x2="0.015" y2="0.902" gradientUnits="objectBoundingBox">
      <stop offset="0" stop-color="#ffdd4f"/>
      <stop offset="1" stop-color="#ffa726"/>
    </linearGradient>
    <linearGradient id="linear-gradient-5" x1="0.007" y1="0.831" x2="-0.725" y2="2.055" gradientUnits="objectBoundingBox">
      <stop offset="0" stop-color="#68c3ef"/>
      <stop offset="1" stop-color="#02749b"/>
    </linearGradient>
    <linearGradient id="linear-gradient-6" x1="-216.228" y1="-16.556" x2="-215.124" y2="-16.556" xlink:href="#linear-gradient-3"/>
    <linearGradient id="linear-gradient-7" x1="-194.691" y1="0.038" x2="-195.733" y2="0.902" xlink:href="#linear-gradient-4"/>
    <linearGradient id="linear-gradient-8" x1="-150.295" y1="-11.515" x2="-151.028" y2="-10.291" xlink:href="#linear-gradient-5"/>
    <linearGradient id="linear-gradient-9" x1="0.255" y1="-0.034" x2="0.679" y2="0.891" xlink:href="#linear-gradient-3"/>
    <linearGradient id="linear-gradient-10" x1="0" y1="0.499" x2="1.001" y2="0.499" xlink:href="#linear-gradient-4"/>
    <linearGradient id="linear-gradient-11" x1="0.001" y1="0.503" x2="0.999" y2="0.503" xlink:href="#linear-gradient-4"/>
    <linearGradient id="linear-gradient-12" x1="0.001" y1="0.501" x2="0.999" y2="0.501" xlink:href="#linear-gradient-4"/>
    <linearGradient id="linear-gradient-13" y1="0.5" x2="1" y2="0.5" gradientUnits="objectBoundingBox">
      <stop offset="0" stop-color="#326ab3"/>
      <stop offset="1" stop-color="#003780"/>
    </linearGradient>
    <linearGradient id="linear-gradient-14" x1="0.001" y1="0.501" x2="1" y2="0.501" xlink:href="#linear-gradient-13"/>
    <linearGradient id="linear-gradient-15" x1="0.229" y1="-0.042" x2="0.615" y2="0.873" xlink:href="#linear-gradient-4"/>
    <linearGradient id="linear-gradient-16" x1="0.058" y1="0.276" x2="0.783" y2="0.909" xlink:href="#linear-gradient-13"/>
    <linearGradient id="linear-gradient-17" x1="0.054" y1="0.114" x2="0.883" y2="0.917" xlink:href="#linear-gradient-4"/>
    <linearGradient id="linear-gradient-18" x1="-0.268" y1="-0.213" x2="0.828" y2="0.804" xlink:href="#linear-gradient-5"/>
    <linearGradient id="linear-gradient-19" x1="-0.815" y1="-0.838" x2="0.802" y2="0.889" xlink:href="#linear-gradient-5"/>
    <linearGradient id="linear-gradient-20" x1="-0.153" y1="-0.312" x2="1.335" y2="1.578" xlink:href="#linear-gradient-5"/>
    <linearGradient id="linear-gradient-21" x1="-3.703" y1="-3.551" x2="2.035" y2="1.964" xlink:href="#linear-gradient-5"/>
    <linearGradient id="linear-gradient-22" x1="-0.495" y1="0.068" x2="1.469" y2="0.925" xlink:href="#linear-gradient-5"/>
    <linearGradient id="linear-gradient-23" x1="-0.173" y1="0.37" x2="0.751" y2="0.545" xlink:href="#linear-gradient-13"/>
    <linearGradient id="linear-gradient-24" x1="-0.147" y1="0.203" x2="0.694" y2="0.574" xlink:href="#linear-gradient-13"/>
  </defs>
  <g id="Grupo_94304" data-name="Grupo 94304" transform="translate(-209.38 -5465.417)">
    <path id="Trazado_187562" data-name="Trazado 187562" d="M417,78.45s7.3-11.19,19.84-6.91c10.12,3.46,10.11-7.1,16.84-5.38C463.17,68.6,466.11,59,470,60.79c5.16,2.3,6.25,9.84,13.08,8.44,6.21-1.27,6.8-11.32,12-5.76,8.42,9,13.73-3.45,19.84,5.76,4.59,6.91,19.24,3.85,22.85,9.22Z" transform="translate(168.32 5457.81)" fill="url(#linear-gradient)"/>
    <path id="Trazado_187563" data-name="Trazado 187563" d="M101.83,54.34s7.3-11.19,19.84-6.91c10.12,3.46,10.11-7.1,16.83-5.38,9.52,2.44,12.47-7.13,16.39-5.37,5.16,2.3,6.25,9.84,13.08,8.44,6.21-1.28,6.79-11.32,12-5.76,8.42,9,13.73-3.45,19.84,5.76,4.59,6.91,19.24,3.85,22.85,9.22Z" transform="translate(168.32 5457.81)" fill="url(#linear-gradient-2)"/>
    <path id="Trazado_187564" data-name="Trazado 187564" d="M470,287.35c.78-1.81,3.27-2.36,5.07-1.56a8.36,8.36,0,0,1,3.83,4.35,33,33,0,0,1,2.48,8.91q1.16-4.31,2.6-8.5c.63-1.85,1.31-3.69,2-5.52a22.43,22.43,0,0,1-9.91-8.6c-.9-1.42-1.64-3.21-1-4.75.79-1.8,3.28-2.34,5.07-1.55a8.33,8.33,0,0,1,3.83,4.32,33.429,33.429,0,0,1,2.52,9.21,114.16,114.16,0,0,1,8.05-16.2,22.57,22.57,0,0,1-8.27-10c-.65-1.55-1.1-3.43-.19-4.84,1.06-1.66,3.61-1.8,5.26-.73a8.31,8.31,0,0,1,3.09,4.87,32.709,32.709,0,0,1,1,9.16c3.37-5.4,7.36-10.69,12.49-14.48l.32-.23a22.53,22.53,0,0,1-6.87-11.13c-.42-1.63-.6-3.55.51-4.82,1.29-1.49,3.82-1.27,5.3,0a8.33,8.33,0,0,1,2.37,5.26,34.68,34.68,0,0,1-.41,10c6-4.22,12.9-7.34,18.79-11.76a22.47,22.47,0,0,1-7-11.28c-.42-1.63-.6-3.55.5-4.82,1.29-1.48,3.83-1.26,5.31,0a8.38,8.38,0,0,1,2.37,5.27,35.518,35.518,0,0,1-.45,10.29,39.994,39.994,0,0,0,4.14-3.69,30,30,0,0,0,6.08-9.51,22.49,22.49,0,0,1-10-9.21c-.83-1.47-1.5-3.28-.76-4.79.87-1.77,3.37-2.21,5.14-1.34a8.37,8.37,0,0,1,3.64,4.48,36.379,36.379,0,0,1,2.24,10.2,39.161,39.161,0,0,0,2.26-18.12,22.39,22.39,0,0,1-8.28-9.19c-.74-1.51-1.29-3.36-.45-4.83,1-1.71,3.5-2,5.21-1a8.38,8.38,0,0,1,3.35,4.7,32.2,32.2,0,0,1,1.5,8.94.61.61,0,0,1,.13.34,40.871,40.871,0,0,1-.92,15.22c-.27,1.09-.59,2.18-.94,3.26a22.44,22.44,0,0,1,10-6.75c1.59-.53,3.5-.83,4.84.19,1.57,1.19,1.51,3.73.32,5.3a8.35,8.35,0,0,1-5.1,2.7,36.7,36.7,0,0,1-10.62.2,31,31,0,0,1-3.23,6.34,34.271,34.271,0,0,1-7.31,7.6,22.48,22.48,0,0,1,12.31-1.6c1.66.26,3.49.86,4.22,2.38.85,1.77-.36,4-2.14,4.85a8.29,8.29,0,0,1-5.77.08,37.329,37.329,0,0,1-9.79-4.82c-4.68,3.44-10,6.17-14.85,9.18-1.54,1-3.05,1.93-4.49,3a22.5,22.5,0,0,1,13.29-2.07c1.66.25,3.5.85,4.23,2.37.85,1.77-.36,4-2.14,4.86a8.35,8.35,0,0,1-5.77.09c-3.71-1-6.75-2.92-10-4.95a34.932,34.932,0,0,0-4.31,3.78,60.586,60.586,0,0,0-6.58,8.3q-.78,1.17-1.53,2.37a22.44,22.44,0,0,1,11.76-3.37c1.68,0,3.59.31,4.54,1.69,1.11,1.63.26,4-1.36,5.13a8.34,8.34,0,0,1-5.69,1,36.34,36.34,0,0,1-10.06-3.1A112.23,112.23,0,0,0,488,284.37a22.47,22.47,0,0,1,11.1-6.28c1.64-.38,3.56-.49,4.8.65,1.44,1.33,1.15,3.86-.19,5.3a8.36,8.36,0,0,1-5.34,2.21,37.29,37.29,0,0,1-10.78-.85c-.28.72-.57,1.45-.84,2.18-1.5,4-2.83,8.11-3.93,12.26a22.51,22.51,0,0,1,10.86-6c1.64-.38,3.57-.49,4.8.65,1.45,1.33,1.15,3.86-.19,5.3A8.36,8.36,0,0,1,493,302a36.21,36.21,0,0,1-10.48-.8,99.937,99.937,0,0,0-2.56,14.44c-.1,1-1.67.79-1.57-.22a100.074,100.074,0,0,1,2.6-14.58,22.59,22.59,0,0,1-10-8.67C470.09,290.69,469.34,288.9,470,287.35Z" transform="translate(168.32 5457.81)" fill="url(#linear-gradient-3)"/>
    <g id="Grupo_93218" data-name="Grupo 93218" transform="translate(168.32 5457.81)">
      <path id="Trazado_187565" data-name="Trazado 187565" d="M521.83,341.73a80.861,80.861,0,0,0,14.72-17.82c.06-.11.13-.2.2-.32,1.27-2.06,2.43-4.14,3.49-6.22a10.06,10.06,0,0,1-8.29-4.69c4,1.93,7.74,1.27,11.22-1.77a1.2,1.2,0,0,0,.35-.48,123.534,123.534,0,0,0,5.31-15,1.538,1.538,0,0,1,.09-.37A107.636,107.636,0,0,0,552,280.33a1.52,1.52,0,0,0,0-.25h-.25a117.071,117.071,0,0,0-27.68,4.14l-.34.11a110,110,0,0,0-12.21,4.14,8.09,8.09,0,0,0-4.27,8.1c-1.27-1.78-1.87-3.64-1-5.74a81.881,81.881,0,0,0-18.82,12.43c-.16.14-.33.3-.48.46l-.34.3a76.411,76.411,0,0,0-8.17,8.88c-.09.1-.15.19-.22.28-16.95,21.67-20.59,48.61-20.93,51.48a1.68,1.68,0,0,0,0,.26h.26a113.451,113.451,0,0,0,21.7-2.7l.34-.07A111.161,111.161,0,0,0,490.93,359l.6-.2a96.484,96.484,0,0,0,16.09-7c-1.42-1.68-2.54-3.09-2.54-3.09l7.45.13a75.9,75.9,0,0,0,9.3-7.11Zm19.37-58.16a.851.851,0,1,1-.92.99A1,1,0,0,1,541.2,283.57Zm-3.08,1.14a1.5,1.5,0,0,1-.11,2.13,1.52,1.52,0,1,1,.11-2.13Zm-31.23,15.81a1,1,0,1,1-.72-.358,1,1,0,0,1,.72.358Zm-5-.11a24.373,24.373,0,1,0-.03,0Zm35.63,18.21a.49.49,0,0,1,0,.7.51.51,0,0,1-.72,0,.52.52,0,0,1,.06-.72.49.49,0,0,1,.63.02Zm2.71-10.9a14.715,14.715,0,1,0-.03,0Zm-4.12,1.72a.5.5,0,0,1,0,.7.51.51,0,1,1-.68-.75.5.5,0,0,1,.65.05Z" fill="url(#linear-gradient-4)"/>
      <path id="Trazado_187566" data-name="Trazado 187566" d="M522.67,322.37l4,7-.3.15-4.12-7.24L507,320.62l-13.39,12,17.27,2.12v.31l-17.57-2.13L470,353.68l21.5,5.13-.6.2-13.64-3.26,2.23,6.4-.34.07-2.3-6.56L469.73,354l-12.4,11.1-.23-.26,18-16.13.16-10.49h.35l-.17,10.19,12.46-11.15-.55-13.7c-2.12-2.4-6.56-7.4-9.19-10.33.07-.09.13-.18.22-.28,2.78,3.11,7.52,8.44,8.94,10.06L486.57,304l.34-.3,1.35,33.19,24.85-22.25L511,304.55l.33-.05,2,9.9,10.61-9.4-.21-20.63.34-.11.1,10.27c2.68-2.78,6.49-6.74,6.68-7l.13.09h0l.09-.13.08.13c0,.1,0,.21-7,7.44l.11,9.68,27.47-24.58H552a1.52,1.52,0,0,1,0,.25l-21.55,19.3,18.5-4.59a2.83,2.83,0,0,1-.09.37l-19,4.71-22.57,20.2,29.45,3.27c-.07.12-.14.21-.2.32Z" fill="#fff"/>
    </g>
    <g id="Grupo_93219" data-name="Grupo 93219" transform="translate(168.32 5457.81)">
      <path id="Trazado_187567" data-name="Trazado 187567" d="M513.5,388.88a81.139,81.139,0,0,0,21.29-9l.33-.19q3.12-1.86,6-3.89a10.06,10.06,0,0,1-5.18-8c2.65,3.56,6.27,4.71,10.77,3.63a1.381,1.381,0,0,0,.53-.26,121.9,121.9,0,0,0,11.66-10.86,1.756,1.756,0,0,1,.26-.28,108.737,108.737,0,0,0,9.52-11.62l.14-.22-.23-.12A117.4,117.4,0,0,0,542.12,339l-.35-.07a110.807,110.807,0,0,0-12.74-2,8.07,8.07,0,0,0-7.53,5.19c-.31-2.16,0-4.08,1.74-5.56a81.55,81.55,0,0,0-22.44,2.3c-.21.05-.44.11-.64.18l-.44.11a77.21,77.21,0,0,0-11.36,4.08l-.32.15c-25.06,11.35-40.77,33.54-42.4,35.93l-.15.21.23.12a113.622,113.622,0,0,0,20.49,7.67l.33.09a111.748,111.748,0,0,0,11.57,2.5l.63.11a97.838,97.838,0,0,0,17.51,1.21c-.47-2.14-.81-3.92-.81-3.92l6.54,3.58a78.882,78.882,0,0,0,11.52-2Zm44.11-42.57a.959.959,0,1,1-1.29.43A1,1,0,0,1,557.61,346.31Zm-3.26-.42a1.49,1.49,0,0,1-1.09,1.83,1.51,1.51,0,0,1-1.85-1.08,1.55,1.55,0,0,1,1.11-1.86,1.52,1.52,0,0,1,1.83,1.11Zm-35-.46a1.033,1.033,0,1,1-1.26-.74A1.033,1.033,0,0,1,519.35,345.43ZM514.94,343a1.82,1.82,0,1,1-2.19-1.3,1.8,1.8,0,0,1,2.19,1.3Zm23.14,32.65a.47.47,0,0,1-.35.6.51.51,0,0,1-.63-.35.5.5,0,0,1,.38-.6.48.48,0,0,1,.6.35Zm7.45-8.4a1.15,1.15,0,0,1-.84,1.41,1.161,1.161,0,1,1,.84-1.41Zm-4.44-.39a.5.5,0,0,1-.36.6.515.515,0,1,1-.25-1,.5.5,0,0,1,.61.4Z" fill="url(#linear-gradient-5)"/>
      <path id="Trazado_187568" data-name="Trazado 187568" d="M523.21,372.11l.28,8.09h-.33l-.3-8.33-12.75-8.58-17.42,4.42L507,377.57l-.17.27-14.59-10-30.19,7.66L478.74,390l-.63-.11-10.58-9.2-1,6.7-.33-.09,1-6.89-5.55-4.82-16.12,4.09-.09-.34,23.44-5.94,5-9.23.31.17-4.87,8.95,16.21-4.11,5.86-12.4c-.77-3.11-2.39-9.6-3.36-13.41l.32-.15c1,4.05,2.76,11,3.27,13.06l8.09-17.14.44-.11L486,369l32.34-8.2,2.82-9.92.32.1-2.77,9.73,13.71-3.48,9.37-18.39.35.07-4.66,9.14c3.66-1.21,8.87-3,9.16-3.12l.08.13h0l.14-.08v.15c0,.1-.08.2-9.64,3.36l-4.39,8.63,35.73-9.07.23.12-.14.22-28,7.11,18.53,4.51a1.759,1.759,0,0,0-.26.28l-19-4.61-29.35,7.45,24.57,16.54-.33.19Z" fill="#fff"/>
    </g>
    <path id="Trazado_187569" data-name="Trazado 187569" d="M164.21,287.35c-.79-1.81-3.27-2.36-5.07-1.56a8.36,8.36,0,0,0-3.83,4.35,33,33,0,0,0-2.48,8.91q-1.16-4.31-2.6-8.5-.94-2.78-2-5.52a22.4,22.4,0,0,0,9.92-8.6c.89-1.42,1.63-3.21,1-4.75-.79-1.8-3.28-2.34-5.08-1.55a8.31,8.31,0,0,0-3.82,4.32,33.431,33.431,0,0,0-2.52,9.21,114.163,114.163,0,0,0-8-16.2,22.57,22.57,0,0,0,8.27-10c.65-1.55,1.1-3.43.19-4.84-1.07-1.66-3.61-1.8-5.26-.73a8.31,8.31,0,0,0-3.09,4.87,32.71,32.71,0,0,0-1,9.16c-3.37-5.4-7.36-10.69-12.49-14.48l-.32-.23a22.53,22.53,0,0,0,6.87-11.13c.42-1.63.6-3.55-.51-4.82-1.29-1.49-3.82-1.27-5.3,0a8.28,8.28,0,0,0-2.37,5.26,34.68,34.68,0,0,0,.41,10c-6-4.22-12.9-7.34-18.8-11.76a22.49,22.49,0,0,0,7-11.28c.42-1.63.6-3.55-.51-4.82-1.28-1.48-3.82-1.26-5.3,0a8.38,8.38,0,0,0-2.37,5.27,35.52,35.52,0,0,0,.45,10.29,40,40,0,0,1-4.14-3.69,30,30,0,0,1-6.08-9.51,22.49,22.49,0,0,0,10-9.21c.83-1.47,1.5-3.28.76-4.79-.87-1.77-3.38-2.21-5.14-1.34a8.37,8.37,0,0,0-3.64,4.48A36,36,0,0,0,95,224.48a39.16,39.16,0,0,1-2.26-18.12,22.46,22.46,0,0,0,8.28-9.19c.74-1.51,1.29-3.36.45-4.83-1-1.71-3.5-2-5.21-1a8.38,8.38,0,0,0-3.35,4.7,32.59,32.59,0,0,0-1.5,8.96.81.81,0,0,0-.13.34,40.871,40.871,0,0,0,.93,15.22c.27,1.09.59,2.18.94,3.26a22.44,22.44,0,0,0-10-6.75c-1.6-.53-3.5-.83-4.84.19-1.57,1.19-1.51,3.73-.32,5.3a8.33,8.33,0,0,0,5.1,2.7,36.7,36.7,0,0,0,10.62.2A30.53,30.53,0,0,0,97,231.78a34.27,34.27,0,0,0,7.31,7.6A22.48,22.48,0,0,0,92,237.78c-1.66.26-3.49.86-4.22,2.38-.85,1.77.36,4,2.13,4.85a8.32,8.32,0,0,0,5.78.08,37.33,37.33,0,0,0,9.79-4.82c4.67,3.44,10,6.17,14.85,9.18,1.54,1,3,1.93,4.49,3a22.5,22.5,0,0,0-13.29-2.07c-1.66.25-3.5.85-4.23,2.37-.85,1.77.36,4,2.13,4.86a8.38,8.38,0,0,0,5.78.09c3.71-1,6.75-2.92,10-4.95a34.931,34.931,0,0,1,4.31,3.78,60.591,60.591,0,0,1,6.58,8.3q.78,1.17,1.53,2.37a22.44,22.44,0,0,0-11.76-3.37c-1.68,0-3.59.31-4.54,1.69-1.11,1.63-.26,4,1.36,5.13a8.34,8.34,0,0,0,5.69,1,36.34,36.34,0,0,0,10.06-3.1,112.229,112.229,0,0,1,7.82,15.86,22.56,22.56,0,0,0-11.1-6.28c-1.64-.38-3.56-.49-4.8.65-1.45,1.33-1.15,3.86.19,5.3a8.36,8.36,0,0,0,5.34,2.21,37.29,37.29,0,0,0,10.78-.85l.84,2.18c1.5,4,2.83,8.11,3.93,12.26a22.51,22.51,0,0,0-10.86-6c-1.64-.38-3.57-.49-4.81.65-1.44,1.33-1.14,3.86.2,5.3a8.36,8.36,0,0,0,5.33,2.21,36.209,36.209,0,0,0,10.48-.8,99.944,99.944,0,0,1,2.56,14.44c.1,1,1.67.79,1.57-.22a100.066,100.066,0,0,0-2.6-14.58,22.64,22.64,0,0,0,10-8.67C164.14,290.69,164.89,288.9,164.21,287.35Z" transform="translate(168.32 5457.81)" fill="url(#linear-gradient-6)"/>
    <g id="Grupo_93220" data-name="Grupo 93220" transform="translate(168.32 5457.81)">
      <path id="Trazado_187570" data-name="Trazado 187570" d="M121.7,348.81l7.45-.13s-1.13,1.41-2.54,3.09a96.749,96.749,0,0,0,16.08,7l.61.2a111.163,111.163,0,0,0,11.41,3.14l.34.07a113.36,113.36,0,0,0,21.7,2.7H177a1.679,1.679,0,0,0,0-.26c-.34-2.87-4-29.81-20.93-51.48-.07-.09-.13-.18-.22-.28a75.63,75.63,0,0,0-8.18-8.88l-.33-.3c-.15-.16-.32-.32-.48-.46A81.882,81.882,0,0,0,128,290.83a5.8,5.8,0,0,1-1,5.74,8.09,8.09,0,0,0-4.27-8.1,109.993,109.993,0,0,0-12.21-4.14l-.34-.11a117.069,117.069,0,0,0-27.68-4.14h-.26v.25A108.451,108.451,0,0,0,85.31,295a2.831,2.831,0,0,0,.09.37,123.529,123.529,0,0,0,5.31,15,1.2,1.2,0,0,0,.35.48c3.48,3,7.22,3.7,11.22,1.77A10.06,10.06,0,0,1,94,317.37c1.06,2.08,2.22,4.16,3.49,6.22l.2.32a80.86,80.86,0,0,0,14.72,17.82,75.9,75.9,0,0,0,9.29,7.08ZM94,284.56a1,1,0,1,1-.94-1A1,1,0,0,1,94,284.56Zm4.28,0a1.52,1.52,0,1,1-2,.244,1.52,1.52,0,0,1,2-.244Zm30.56,15.87a.492.492,0,1,0-.03.02Zm6.11-.18a1.813,1.813,0,1,1-2.56.14,1.813,1.813,0,0,1,2.56-.14ZM97.43,318.58a.52.52,0,0,1,.06.72.51.51,0,1,1-.06-.72Zm-1.76-10.95a1.16,1.16,0,1,1-.839-.3,1.16,1.16,0,0,1,.839.3Zm3.19,1.76a.51.51,0,1,1-.672.074A.51.51,0,0,1,98.86,309.39Z" fill="url(#linear-gradient-7)"/>
      <path id="Trazado_187571" data-name="Trazado 187571" d="M111.56,322.37l-4,7,.3.15,4.12-7.24,15.28-1.7,13.39,12-17.27,2.12v.31L141,332.9l23.2,20.78-21.5,5.13.61.2,13.64-3.26-2.23,6.4.34.07,2.3-6.56L164.5,354l12.4,11.1.22-.26-18-16.13L159,338.17h-.35l.17,10.19-12.46-11.15.55-13.7c2.12-2.4,6.56-7.4,9.19-10.33-.07-.09-.13-.18-.22-.28-2.78,3.11-7.52,8.44-8.94,10.06l.76-18.94-.33-.3L146,336.91l-24.85-22.25,2.09-10.11-.33-.05-2,9.9L110.29,305l.21-20.63-.34-.11-.1,10.27c-2.68-2.78-6.49-6.74-6.68-7l-.13.09h0l-.09-.13-.08.13c0,.1,0,.21,7,7.44l-.11,9.68L82.48,280.08h-.26v.25l21.56,19.3L85.31,295a2.833,2.833,0,0,0,.09.37l19,4.71,22.56,20.2-29.44,3.27.2.32Z" fill="#fff"/>
    </g>
    <g id="Grupo_93221" data-name="Grupo 93221" transform="translate(168.32 5457.81)">
      <path id="Trazado_187572" data-name="Trazado 187572" d="M132.25,390.85l6.54-3.58s-.34,1.78-.81,3.92A97.841,97.841,0,0,0,155.49,390l.63-.11a111.738,111.738,0,0,0,11.57-2.5l.33-.09a113,113,0,0,0,20.48-7.67,1.394,1.394,0,0,0,.23-.12,1.465,1.465,0,0,0-.14-.21c-1.64-2.39-17.34-24.58-42.4-35.93l-.32-.15a77.209,77.209,0,0,0-11.36-4.08l-.44-.11c-.2-.07-.43-.13-.64-.18a81.551,81.551,0,0,0-22.44-2.3c1.71,1.48,2,3.4,1.74,5.56a8.07,8.07,0,0,0-7.53-5.19,110.474,110.474,0,0,0-12.74,2l-.35.07a117.4,117.4,0,0,0-26.45,9.14l-.23.12a1.86,1.86,0,0,0,.14.22,108.742,108.742,0,0,0,9.52,11.62,1.759,1.759,0,0,1,.26.28A121.9,121.9,0,0,0,87,371.19a1.319,1.319,0,0,0,.53.26c4.5,1.08,8.11-.07,10.77-3.63a10.06,10.06,0,0,1-5.18,8q2.85,2.025,6,3.89l.33.19a81.14,81.14,0,0,0,21.29,9,78.647,78.647,0,0,0,11.51,1.95ZM77.91,346.74a.959.959,0,1,1-1.29-.43,1,1,0,0,1,1.29.43Zm3.8-2a1.55,1.55,0,0,1,1.11,1.86A1.51,1.51,0,0,1,81,347.72a1.49,1.49,0,0,1-1.09-1.83,1.52,1.52,0,0,1,1.8-1.11Zm34.44-.09a1,1,0,1,1-1.182.744A1,1,0,0,1,116.15,344.65Zm5.33-3a1.82,1.82,0,1,1-2.19,1.3,1.8,1.8,0,0,1,2.19-1.25ZM96.75,375.3a.49.49,0,0,1,.37.6.5.5,0,0,1-.62.35.491.491,0,0,1,.25-.95Zm-6.64-8.89a1.15,1.15,0,0,1,.84,1.41,1.161,1.161,0,1,1-.84-1.41Zm3.64.08a.515.515,0,1,1-.625.375.515.515,0,0,1,.625-.375Z" fill="url(#linear-gradient-8)"/>
      <path id="Trazado_187573" data-name="Trazado 187573" d="M111,372.11l-.28,8.09h.33l.3-8.33,12.75-8.58,17.42,4.42-14.32,9.87.17.27,14.59-10,30.19,7.66L155.49,390l.63-.11,10.58-9.2,1,6.7.33-.09-1-6.89,5.54-4.82,16.13,4.09.09-.34-23.44-5.94-5-9.23-.31.17,4.87,8.95-16.21-4.11-5.86-12.4c.77-3.11,2.39-9.6,3.36-13.41l-.32-.15c-1,4.05-2.76,11-3.27,13.06l-8.09-17.14-.44-.11,14.18,30-32.34-8.2-2.82-9.92-.32.1,2.77,9.73-13.71-3.48-9.37-18.39-.35.07,4.66,9.14c-3.66-1.21-8.87-3-9.16-3.12l-.08.13h0l-.14-.08v.15c0,.1.08.2,9.63,3.36l4.4,8.63L65.7,348.08l-.23.12a1.859,1.859,0,0,0,.14.22l28.05,7.11-18.53,4.51a1.761,1.761,0,0,1,.26.28l19-4.61,29.35,7.45L99.11,379.71l.33.19Z" fill="#fff"/>
    </g>
    <g id="Grupo_93224" data-name="Grupo 93224" transform="translate(168.32 5457.81)">
      <path id="Trazado_187574" data-name="Trazado 187574" d="M177.8,77.22H455.56c8.58,0,15.54,9.85,15.54,22V371.3c0,12.16-7,22-15.54,22H177.8c-8.59,0-15.55-9.86-15.55-22V99.23C162.25,87.07,169.21,77.22,177.8,77.22Z" fill="url(#linear-gradient-9)"/>
      <path id="Trazado_187575" data-name="Trazado 187575" d="M184.61,108H448.75c8.16,0,14.78,8.67,14.78,19.36V369.54c0,10.69-6.62,19.36-14.78,19.36H184.61c-8.17,0-14.79-8.67-14.79-19.36V127.32C169.82,116.63,176.44,108,184.61,108Z" fill="#fff"/>
      <g id="Grupo_93222" data-name="Grupo 93222">
        <path id="Trazado_187576" data-name="Trazado 187576" d="M214.25,91.65a2.34,2.34,0,1,0-2.34,2.29,2.34,2.34,0,0,0,2.34-2.29Z" fill="#fff"/>
        <path id="Trazado_187577" data-name="Trazado 187577" d="M202.39,91.65A2.35,2.35,0,1,0,200,93.94a2.32,2.32,0,0,0,2.39-2.29Z" fill="#fff"/>
        <path id="Trazado_187578" data-name="Trazado 187578" d="M190.52,91.65a2.34,2.34,0,1,0-2.34,2.29,2.34,2.34,0,0,0,2.34-2.29Z" fill="#fff"/>
      </g>
      <path id="Trazado_187579" data-name="Trazado 187579" d="M393.66,96.69h51.51A3.67,3.67,0,0,0,448.84,93h0a3.67,3.67,0,0,0-3.67-3.67H393.66A3.68,3.68,0,0,0,390,93h0a3.67,3.67,0,0,0,3.66,3.69Z" fill="#fff"/>
      <rect id="Rectángulo_39169" data-name="Rectángulo 39169" width="40.71" height="35.31" rx="6.87" transform="translate(202.74 284.39)" fill="#cce6ff"/>
      <rect id="Rectángulo_39170" data-name="Rectángulo 39170" width="40.71" height="35.31" rx="6.87" transform="translate(264.05 284.39)" fill="#cce6ff"/>
      <rect id="Rectángulo_39171" data-name="Rectángulo 39171" width="40.71" height="35.31" rx="6.87" transform="translate(325.36 284.39)" fill="#cce6ff"/>
      <rect id="Rectángulo_39172" data-name="Rectángulo 39172" width="40.71" height="35.31" rx="6.87" transform="translate(386.68 284.39)" fill="#cce6ff"/>
      <rect id="Rectángulo_39173" data-name="Rectángulo 39173" width="40.71" height="35.31" rx="6.87" transform="translate(202.74 337.31)" fill="#cce6ff"/>
      <rect id="Rectángulo_39174" data-name="Rectángulo 39174" width="40.71" height="35.31" rx="6.87" transform="translate(264.05 337.31)" fill="#cce6ff"/>
      <rect id="Rectángulo_39175" data-name="Rectángulo 39175" width="40.71" height="35.31" rx="6.87" transform="translate(325.36 337.31)" fill="#cce6ff"/>
      <rect id="Rectángulo_39176" data-name="Rectángulo 39176" width="40.71" height="35.31" rx="6.87" transform="translate(386.68 337.31)" fill="#cce6ff"/>
      <g id="Grupo_93223" data-name="Grupo 93223">
        <circle id="Elipse_7721" data-name="Elipse 7721" cx="58.77" cy="58.77" r="58.77" transform="translate(241.566 230.766) rotate(-68.9)" fill="#36d7c6"/>
        <circle id="Elipse_7722" data-name="Elipse 7722" cx="50.91" cy="50.91" r="50.91" transform="translate(246.786 183.798) rotate(-34.38)" fill="#fff"/>
        <circle id="Elipse_7723" data-name="Elipse 7723" cx="41.96" cy="41.96" r="41.96" transform="translate(258.216 197.092) rotate(-45)" fill="#36d7c6"/>
        <circle id="Elipse_7724" data-name="Elipse 7724" cx="34.47" cy="34.47" r="34.47" transform="translate(274.252 174.698) rotate(-17.66)" fill="#fff"/>
        <path id="Trazado_187580" data-name="Trazado 187580" d="M299.09,178.46a26.22,26.22,0,1,1-.17,37.09,26.22,26.22,0,0,1,.17-37.09Z" fill="#36d7c6"/>
        <path id="Trazado_187581" data-name="Trazado 187581" d="M304.18,183.59a19,19,0,1,1-.12,26.87A19,19,0,0,1,304.18,183.59Z" fill="#fff"/>
        <path id="Trazado_187582" data-name="Trazado 187582" d="M310.25,189.71a10.38,10.38,0,1,1-.07,14.68,10.38,10.38,0,0,1,.07-14.68Z" fill="#36d7c6"/>
      </g>
    </g>
    <g id="Grupo_93225" data-name="Grupo 93225" transform="translate(168.32 5457.81)">
      <path id="Trazado_187583" data-name="Trazado 187583" d="M490.71,197.27a.42.42,0,0,1-.35-.31.43.43,0,0,1,.3-.53,5.13,5.13,0,0,0,1.25-.57.43.43,0,1,1,.45.73,6.06,6.06,0,0,1-1.48.67.32.32,0,0,1-.17.01Z" fill="#36d7c6"/>
      <path id="Trazado_187584" data-name="Trazado 187584" d="M494.47,194.8a.43.43,0,0,1-.23-.74c.67-.61,1.38-1.33,2.11-2.13a.44.44,0,0,1,.61,0,.43.43,0,0,1,0,.6c-.75.82-1.47,1.56-2.16,2.18A.42.42,0,0,1,494.47,194.8Zm4.12-4.45a.47.47,0,0,1-.22-.09.44.44,0,0,1-.06-.61c.61-.74,1.23-1.54,1.85-2.38a.43.43,0,0,1,.6-.09.44.44,0,0,1,.09.61c-.63.84-1.26,1.65-1.87,2.41A.43.43,0,0,1,498.59,190.35Zm3.62-4.86a.46.46,0,0,1-.19-.08.41.41,0,0,1-.11-.59c.56-.82,1.11-1.67,1.66-2.52a.44.44,0,0,1,.59-.14.45.45,0,0,1,.14.6c-.55.86-1.12,1.72-1.68,2.54A.44.44,0,0,1,502.21,185.49Zm3.25-5.12a.52.52,0,0,1-.16-.06.43.43,0,0,1-.15-.59c.51-.86,1-1.74,1.49-2.62a.43.43,0,1,1,.75.41c-.48.89-1,1.78-1.5,2.65a.44.44,0,0,1-.43.21Zm2.91-5.32h-.13a.44.44,0,0,1-.2-.58c.46-.91.9-1.82,1.32-2.72a.43.43,0,1,1,.78.36c-.42.91-.87,1.83-1.33,2.75A.44.44,0,0,1,508.37,175.05Zm2.54-5.51h-.11a.43.43,0,0,1-.24-.56c.39-.95.76-1.89,1.1-2.81a.43.43,0,0,1,.55-.26.42.42,0,0,1,.25.55c-.33.93-.71,1.89-1.1,2.85A.45.45,0,0,1,510.91,169.54Zm2.06-5.7h-.07a.43.43,0,0,1-.29-.53c.3-1,.57-2,.8-2.9a.43.43,0,0,1,.52-.32.44.44,0,0,1,.32.52c-.24,1-.51,1.95-.81,2.95a.44.44,0,0,1-.44.28Zm-13.88-7.26a.432.432,0,0,1,.09-.86,15.149,15.149,0,0,0,2.94-.05.44.44,0,0,1,.48.38.43.43,0,0,1-.38.48,16.858,16.858,0,0,1-3.1.05Zm-3-.48h-.05a14.671,14.671,0,0,1-2.93-1.06.44.44,0,0,1-.2-.58.43.43,0,0,1,.58-.19,13.81,13.81,0,0,0,2.76,1,.43.43,0,0,1,.31.52.44.44,0,0,1-.45.31Zm18.29,1.9h0a.42.42,0,0,1-.35-.49c.06-.37.12-.74.16-1.1.09-.64.15-1.27.19-1.87a.43.43,0,0,1,.46-.4.42.42,0,0,1,.4.46,16.389,16.389,0,0,1-.19,1.92,7.535,7.535,0,0,1-.17,1.13.43.43,0,0,1-.5.35Zm-9.31-2a.42.42,0,0,1-.35-.29.43.43,0,0,1,.28-.54,16,16,0,0,0,2.71-1.15.432.432,0,0,1,.41.76,16.9,16.9,0,0,1-2.86,1.21.41.41,0,0,1-.19-.09Zm-14.3-2.53a.38.38,0,0,1-.24-.11,9.52,9.52,0,0,1-1.93-2.5.43.43,0,1,1,.76-.4,8.559,8.559,0,0,0,1.76,2.27.44.44,0,0,1,0,.61.41.41,0,0,1-.35.03Zm19.62-.29a.42.42,0,0,1-.2-.76,21.344,21.344,0,0,0,2.21-2,.431.431,0,1,1,.62.6,21,21,0,0,1-2.31,2.06.41.41,0,0,1-.32,0Zm4.38-1.17a.43.43,0,0,1-.37-.4,18.994,18.994,0,0,0-.39-2.94.43.43,0,0,1,.32-.51h0c.58-.76,1.14-1.58,1.67-2.43a.42.42,0,0,1,.59-.14.43.43,0,0,1,.14.59c-.55.89-1.14,1.74-1.74,2.53a.35.35,0,0,1-.11.1,19.711,19.711,0,0,1,.33,2.75.41.41,0,0,1-.4.45ZM488,148.12a.42.42,0,0,1-.37-.35,11.348,11.348,0,0,1-.05-3.14.43.43,0,0,1,.48-.38h0a.44.44,0,0,1,.38.48,10.4,10.4,0,0,0,0,2.9.43.43,0,0,1-.35.49ZM513.42,146a.46.46,0,0,1-.34-.25c-.18-.39-.38-.77-.59-1.13s-.6-1-.9-1.42a.43.43,0,0,1,.12-.6.42.42,0,0,1,.59.12c.31.47.62,1,.92,1.46a11.616,11.616,0,0,1,.65,1.21.44.44,0,0,1-.22.57.37.37,0,0,1-.23.04Zm-24.77-3.87h-.09a.42.42,0,0,1-.25-.55,13.712,13.712,0,0,1,1.41-2.78.43.43,0,1,1,.72.47,13.652,13.652,0,0,0-1.33,2.61.44.44,0,0,1-.46.29Zm29.18,1.47a.34.34,0,0,1-.14,0,.42.42,0,0,1-.19-.57c.44-.87.86-1.79,1.25-2.73a.433.433,0,0,1,.8.33c-.4,1-.84,1.9-1.28,2.78a.45.45,0,0,1-.44.23Zm-7.72-2.6a.45.45,0,0,1-.28-.16,24.142,24.142,0,0,0-2-2.22.45.45,0,0,1,0-.61.43.43,0,0,1,.61,0,27.577,27.577,0,0,1,2.05,2.3.44.44,0,0,1-.07.6A.4.4,0,0,1,510.11,141ZM492,137.15a.41.41,0,0,1-.26-.13.44.44,0,0,1,0-.61,12.282,12.282,0,0,1,2.55-1.82.43.43,0,0,1,.4.76,10.879,10.879,0,0,0-2.36,1.69.42.42,0,0,1-.33.11Zm13.83-.41a.52.52,0,0,1-.19-.08,14.421,14.421,0,0,0-2.54-1.48.43.43,0,0,1,.35-.78,14.511,14.511,0,0,1,2.69,1.56.43.43,0,0,1-.31.78Zm14.37,1.31h-.09a.44.44,0,0,1-.27-.55c.32-.92.62-1.89.89-2.87a.431.431,0,1,1,.83.23c-.27,1-.58,2-.9,2.92a.43.43,0,0,1-.49.27Zm-22.89-3.64a.42.42,0,0,1-.37-.35.44.44,0,0,1,.35-.5,10.321,10.321,0,0,1,3-.06h.11a.43.43,0,0,1,.37.48.44.44,0,0,1-.49.37h-.1a9.24,9.24,0,0,0-2.78.06Zm24.51-2.2h0a.43.43,0,0,1-.33-.52c.21-1,.41-1.95.58-2.95a.41.41,0,0,1,.49-.35.43.43,0,0,1,.36.49c-.18,1-.37,2-.59,3a.43.43,0,0,1-.54.33Zm1-6a.44.44,0,0,1-.38-.48c.13-1,.23-2,.31-3a.43.43,0,0,1,.85.07q-.12,1.5-.3,3a.43.43,0,0,1-.48.37Zm.48-6a.43.43,0,0,1-.38-.44c0-1,.06-2,.05-3a.43.43,0,1,1,.86,0c0,1,0,2-.05,3.05a.43.43,0,0,1-.44.41Zm0-6.06a.44.44,0,0,1-.38-.41c0-1-.1-2-.18-3a.43.43,0,1,1,.85-.07c.09,1,.15,2,.19,3a.43.43,0,0,1-.41.45Zm-.49-6a.42.42,0,0,1-.37-.37q-.18-1.5-.42-3a.43.43,0,1,1,.85-.13q.24,1.5.42,3a.42.42,0,0,1-.38.47Zm-1-6a.45.45,0,0,1-.36-.35c-.2-1-.41-2-.64-2.94a.43.43,0,0,1,.31-.52.44.44,0,0,1,.52.32c.24,1,.46,2,.65,3a.42.42,0,0,1-.34.5Zm-1.4-5.9a.43.43,0,0,1-.36-.31c-.27-1-.56-1.94-.87-2.88a.44.44,0,0,1,.28-.55.43.43,0,0,1,.54.28c.31,1,.61,1.94.88,2.92a.43.43,0,0,1-.3.53.33.33,0,0,1-.15-.03Zm-1.86-5.77a.44.44,0,0,1-.35-.27c-.34-1-.71-1.89-1.09-2.81a.43.43,0,0,1,.79-.33c.39.93.76,1.89,1.11,2.84a.43.43,0,0,1-.26.55.35.35,0,0,1-.18-.02Zm-2.32-5.6a.39.39,0,0,1-.33-.24c-.42-.91-.87-1.82-1.32-2.71a.43.43,0,1,1,.76-.39c.46.89.91,1.81,1.34,2.74a.43.43,0,0,1-.21.57.5.5,0,0,1-.22-.01Zm-2.77-5.38a.42.42,0,0,1-.31-.22c-.5-.87-1-1.74-1.55-2.58a.431.431,0,0,1,.73-.46c.54.86,1.06,1.74,1.56,2.62a.42.42,0,0,1-.16.58.43.43,0,0,1-.25.02Zm-3.22-5.13a.45.45,0,0,1-.3-.18c-.57-.83-1.16-1.65-1.77-2.44a.43.43,0,0,1,.09-.6.42.42,0,0,1,.6.08c.61.8,1.21,1.63,1.79,2.47a.44.44,0,0,1-.41.67Zm-3.67-4.82a.49.49,0,0,1-.27-.15c-.65-.77-1.31-1.53-2-2.27a.43.43,0,0,1,0-.6.44.44,0,0,1,.61,0c.68.75,1.36,1.52,2,2.3a.42.42,0,0,1-.06.6.44.44,0,0,1-.26.08ZM362.37,47.92l-2.69-.39a.43.43,0,0,1,.12-.85h0l2.67.39h.32a.42.42,0,0,1,.37.48.43.43,0,0,1-.48.37Zm3.33.39a.433.433,0,0,1,.1-.86q1.5.165,3,.27a.44.44,0,0,1,.4.46.43.43,0,0,1-.46.4q-1.5-.12-3-.27Zm-9-1.27h0q-1.5-.27-3-.57a.43.43,0,0,1-.34-.51.42.42,0,0,1,.51-.33l3,.57a.42.42,0,0,1,.35.49.44.44,0,0,1-.52.31Zm15,1.73a.432.432,0,0,1,.08-.86q1.5.075,3,.12a.43.43,0,0,1,.42.44.44.44,0,0,1-.44.42c-1,0-2-.07-3-.12Zm-21-3h0c-1-.22-2-.46-3-.71a.43.43,0,0,1-.31-.52.42.42,0,0,1,.52-.31c1,.24,2,.48,2.94.7a.43.43,0,0,1-.15.84Zm27,3.1a.432.432,0,0,1,.06-.86h3a.43.43,0,0,1,0,.86h-3Zm-32.9-4.56h-.06l-2.92-.82a.432.432,0,1,1,.24-.83c1,.29,2,.56,2.9.82a.432.432,0,0,1-.16.85ZM502.5,65.05a.5.5,0,0,1-.25-.13c-.71-.7-1.44-1.39-2.18-2.06a.44.44,0,0,1,0-.61.43.43,0,0,1,.61,0c.75.68,1.5,1.38,2.22,2.09a.44.44,0,0,1,0,.61.46.46,0,0,1-.4.1ZM383.84,48.77a.44.44,0,0,1-.37-.41.43.43,0,0,1,.41-.45l3-.18a.44.44,0,0,1,.46.4.42.42,0,0,1-.4.46l-3,.18Zm-44.77-6.12H339c-.95-.3-1.92-.61-2.89-.94a.43.43,0,1,1,.27-.81l2.87.93a.42.42,0,0,1-.18.82Zm50.81,5.7a.428.428,0,0,1,.02-.85l3-.29a.432.432,0,1,1,.09.86l-3,.29Zm-56.56-7.61h-.09l-2.85-1a.44.44,0,0,1-.26-.56.43.43,0,0,1,.55-.25l2.85,1a.418.418,0,0,1-.2.81Zm62.58,7a.44.44,0,0,1-.37-.38.43.43,0,0,1,.38-.48l3-.36a.428.428,0,1,1,.1.85l-3,.37Zm-68.27-9.09h-.1l-2.82-1.11a.431.431,0,0,1,.32-.8c1,.38,1.88.75,2.81,1.1a.44.44,0,0,1,.25.56.43.43,0,0,1-.46.25ZM498,61a.37.37,0,0,1-.21-.1c-.77-.63-1.57-1.25-2.37-1.85a.43.43,0,0,1,.51-.69c.81.6,1.62,1.24,2.4,1.88a.42.42,0,0,1,.06.6A.43.43,0,0,1,498,61ZM401.91,47a.42.42,0,0,1-.37-.37.43.43,0,0,1,.37-.48l3-.4a.43.43,0,1,1,.12.85l-3,.4a.2.2,0,0,1-.12,0ZM322,36.4a.2.2,0,0,1-.11,0c-.93-.38-1.86-.78-2.8-1.18a.43.43,0,0,1-.22-.57.41.41,0,0,1,.56-.22l2.79,1.18a.43.43,0,0,1,.23.56A.45.45,0,0,1,322,36.4Zm85.91,9.78a.43.43,0,1,1,0-.86l3-.39a.43.43,0,1,1,.11.85l-3,.4Zm85.23,11.19a.44.44,0,0,1-.19-.07c-.82-.56-1.67-1.11-2.53-1.63a.43.43,0,1,1,.45-.73c.87.53,1.73,1.08,2.57,1.65a.43.43,0,0,1-.3.78ZM316.44,34h-.12l-2.77-1.24a.434.434,0,0,1,.36-.79l2.76,1.25a.43.43,0,0,1,.22.56.45.45,0,0,1-.45.22Zm97.49,11.4a.44.44,0,0,1-.37-.38.43.43,0,0,1,.37-.48l3-.35a.43.43,0,0,1,.48.38A.44.44,0,0,1,417,45l-3,.36ZM488,54.22h-.15c-.87-.48-1.77-1-2.67-1.39a.45.45,0,0,1-.2-.58.43.43,0,0,1,.58-.19c.91.44,1.82.92,2.7,1.4a.43.43,0,0,1,.17.59.42.42,0,0,1-.43.17Zm-68-9.5a.45.45,0,0,1-.37-.39.44.44,0,0,1,.39-.47c1-.1,2-.2,3-.28a.43.43,0,1,1,.07.85l-3,.29Zm6-.53a.43.43,0,0,1,0-.85c1-.08,2-.14,3-.19a.43.43,0,0,1,.46.4.44.44,0,0,1-.41.46q-1.5.075-3,.18a.14.14,0,0,1-.05,0Zm56.57,7.35a.53.53,0,0,1-.12,0c-.91-.4-1.84-.79-2.78-1.15a.43.43,0,0,1-.24-.56.42.42,0,0,1,.55-.24c1,.36,1.9.76,2.82,1.16a.44.44,0,0,1,.22.57.42.42,0,0,1-.47.22ZM432,43.87a.43.43,0,1,1,0-.86c1,0,2-.06,3-.07a.42.42,0,0,1,.44.42.44.44,0,0,1-.42.44c-1,0-2,0-3,.07Zm44.88,5.47h-.08c-.95-.32-1.91-.63-2.87-.92a.43.43,0,0,1,.24-.82c1,.29,1.95.6,2.9.93a.43.43,0,0,1-.19.83Zm-38.83-5.56a.432.432,0,0,1,.06-.86h3a.43.43,0,0,1,.41.44.42.42,0,0,1-.44.42h-3Zm33,3.83H471c-1-.25-1.95-.48-2.93-.7a.42.42,0,0,1-.33-.51.43.43,0,0,1,.51-.33c1,.22,2,.45,3,.71a.42.42,0,0,1,.31.52.43.43,0,0,1-.45.31Zm-27-3.68a.44.44,0,0,1-.38-.45.43.43,0,0,1,.45-.41c1,0,2,.1,3,.17a.42.42,0,0,1,.4.45.43.43,0,0,1-.45.41c-1-.07-2-.12-3-.17Zm21.05,2.39h0l-.43-.07c-.86-.15-1.71-.3-2.55-.43a.44.44,0,0,1-.36-.5.43.43,0,0,1,.5-.35c.84.13,1.7.28,2.56.43l.43.08a.422.422,0,0,1-.06.84Zm-15-2a.43.43,0,0,1,.09-.85c1,.08,2,.18,3,.28a.432.432,0,1,1-.09.86C452.1,44.5,451.1,44.41,450.1,44.32Zm9,1h0c-.6-.08-1.19-.17-1.79-.24l-1.2-.16a.41.41,0,0,1-.38-.48.43.43,0,0,1,.48-.37l1.31.17,1.7.23a.43.43,0,1,1-.11.85Z" fill="#36d7c6"/>
      <path id="Trazado_187585" data-name="Trazado 187585" d="M310.77,31.41h-.13l-1.36-.65a.432.432,0,0,1,.37-.78l1.36.65a.43.43,0,0,1,.21.57.44.44,0,0,1-.45.21Z" fill="#36d7c6"/>
    </g>
    <g id="Grupo_93226" data-name="Grupo 93226" transform="translate(168.32 5457.81)">
      <path id="Trazado_187586" data-name="Trazado 187586" d="M307.62,29.71l-14.47-8.06,8.7-4.39Z" fill="#36d7c6"/>
      <path id="Trazado_187587" data-name="Trazado 187587" d="M292.81,24.58,278.07,7.64l23.16,13.35Z" fill="#36d7c6"/>
      <path id="Trazado_187588" data-name="Trazado 187588" d="M278.07,7.61l36.25,4.88-8.12,3.93Z" fill="#36d7c6"/>
      <path id="Trazado_187589" data-name="Trazado 187589" d="M278.07,7.64l23.17,13.44,6.38,8.63-1.35-13.4Z" fill="#36d7c6"/>
    </g>
    <path id="Trazado_187590" data-name="Trazado 187590" d="M591.74,393.06H41.62a.57.57,0,0,0-.56.57h0a.56.56,0,0,0,.56.56H591.74a.56.56,0,0,0,.56-.56h0a.57.57,0,0,0-.56-.57Z" transform="translate(168.32 5457.81)" fill="#b2bfd8"/>
    <g id="Grupo_93227" data-name="Grupo 93227" transform="translate(168.32 5457.81)">
      <path id="Trazado_187591" data-name="Trazado 187591" d="M385.12,11.17a1.2,1.2,0,0,1,.14.93,1.22,1.22,0,0,1-.85.89l-4.13,1.21a1.24,1.24,0,0,1-1.54-1.48l1-4.17a1.234,1.234,0,0,1,2.05-.6l3.11,3a1.69,1.69,0,0,1,.22.22Zm-5.41,2h.05a.25.25,0,0,0,.25.06l4.13-1.2a.25.25,0,0,0,.18-.19.27.27,0,0,0-.08-.25l-3.1-3a.24.24,0,0,0-.25-.06.23.23,0,0,0-.18.19l-1,4.17a.3.3,0,0,0,0,.26Z" fill="#36d7c6"/>
      <path id="Trazado_187592" data-name="Trazado 187592" d="M125.67,154.45a1.231,1.231,0,0,1-.7,1.83l-4.13,1.2A1.22,1.22,0,0,1,119.3,156l1-4.18a1.23,1.23,0,0,1,2.05-.59l3.1,3A.911.911,0,0,1,125.67,154.45Zm-5.4,2v.05a.25.25,0,0,0,.25.06l4.13-1.2a.27.27,0,0,0,.18-.19.26.26,0,0,0-.08-.25l-3.1-3a.24.24,0,0,0-.26-.06.26.26,0,0,0-.18.18l-1,4.18a.32.32,0,0,0,.06.22Z" fill="#36d7c6"/>
      <path id="Trazado_187593" data-name="Trazado 187593" d="M582.29,284.44a1.21,1.21,0,0,1,.14.93,1.18,1.18,0,0,1-.85.89l-4.13,1.21a1.24,1.24,0,0,1-1.54-1.48l1-4.17a1.21,1.21,0,0,1,.86-.89,1.19,1.19,0,0,1,1.19.29l3.11,3a1.571,1.571,0,0,1,.22.22Zm-5.4,2v.05a.25.25,0,0,0,.25.06l4.13-1.2a.25.25,0,0,0,.18-.19.28.28,0,0,0-.07-.25l-3.11-3a.27.27,0,0,0-.25-.06.24.24,0,0,0-.18.19l-1,4.17a.25.25,0,0,0,.05.21Z" fill="#36d7c6"/>
      <path id="Trazado_187594" data-name="Trazado 187594" d="M259.09,57.37l1.52-1.51a.89.89,0,0,0,0-1.25.88.88,0,0,0-1.25,0l-1.52,1.52-1.51-1.52a.884.884,0,0,0-1.25,1.25l1.52,1.51-1.52,1.52a.884.884,0,0,0,1.25,1.25l1.51-1.52,1.52,1.52a.89.89,0,0,0,.62.26.91.91,0,0,0,.63-.26.89.89,0,0,0,0-1.25Z" fill="url(#linear-gradient-10)"/>
      <path id="Trazado_187595" data-name="Trazado 187595" d="M55.16,290.54,56.68,289a.88.88,0,0,0-1.25-1.24l-1.52,1.51-1.52-1.51A.88.88,0,0,0,51.14,289l1.52,1.52-1.51,1.52a.86.86,0,0,0,0,1.24.87.87,0,0,0,1.24,0l1.52-1.51,1.51,1.51a.87.87,0,0,0,.63.26.85.85,0,0,0,.62-.26.86.86,0,0,0,0-1.24Z" fill="url(#linear-gradient-11)"/>
      <path id="Trazado_187596" data-name="Trazado 187596" d="M525.42,38.66l1.52-1.52a.884.884,0,1,0-1.25-1.25l-1.52,1.52-1.52-1.52a.884.884,0,1,0-1.25,1.25l1.52,1.52-1.51,1.51a.88.88,0,1,0,1.24,1.25l1.52-1.52,1.51,1.52a.91.91,0,0,0,.63.26.89.89,0,0,0,.62-.26.88.88,0,0,0,0-1.25Z" fill="url(#linear-gradient-12)"/>
      <path id="Trazado_187597" data-name="Trazado 187597" d="M112.37,31.51a3.47,3.47,0,1,1,2.468-1.03,3.47,3.47,0,0,1-2.468,1.03Zm0-5.85A2.39,2.39,0,1,0,114.75,28,2.39,2.39,0,0,0,112.37,25.66Z" fill="url(#linear-gradient-13)"/>
      <path id="Trazado_187598" data-name="Trazado 187598" d="M548.18,169.32a3.47,3.47,0,1,1,3.46-3.46A3.47,3.47,0,0,1,548.18,169.32Zm0-5.85a2.38,2.38,0,1,0,1.687.7,2.39,2.39,0,0,0-1.687-.7Z" fill="url(#linear-gradient-14)"/>
    </g>
    <g id="Grupo_93230" data-name="Grupo 93230" transform="translate(168.32 5457.81)">
      <path id="Trazado_187599" data-name="Trazado 187599" d="M430.78,257.61l-5.67,6.65-.38.44s-.91-.65-2.29-1.68c-1.09-.83-2.49-1.89-4-3-3.56-2.8-7.57-6.15-8.89-8-3.11-4.41-4.86-17.15-4.86-17.15a7,7,0,0,1-3.69-8.31c.71-2.22,3,3.66,4.86,4.11,0,0,.83-5,1.84-3.33,1.17,1.85.46,6.3.46,6.3L415.63,247l6.57,4.61Z" fill="#ffc0b8"/>
      <g id="Grupo_93228" data-name="Grupo 93228">
        <rect id="Rectángulo_39177" data-name="Rectángulo 39177" width="1.74" height="92.62" transform="translate(329.899 202.763) rotate(-68.9)" fill="#455baf"/>
        <path id="Trazado_187600" data-name="Trazado 187600" d="M334.88,199.26l-3.03,7.86-14.07-9.94Z" fill="#2c3d91"/>
        <path id="Trazado_187601" data-name="Trazado 187601" d="M340.03,201.25,337,209.1l-14.07-9.94Z" fill="#2c3d91"/>
        <path id="Trazado_187602" data-name="Trazado 187602" d="M400.54,235.76l.71-1.82-4.42-6.3,7.51-1.71.7-1.82-10.92,2.48Z" fill="#36d7c6"/>
        <path id="Trazado_187603" data-name="Trazado 187603" d="M402.69,236.59l.71-1.82-4.39-6.32,7.51-1.67.71-1.82-10.93,2.43Z" fill="#36d7c6"/>
        <path id="Trazado_187604" data-name="Trazado 187604" d="M409.48,239.21l.71-1.82-4.42-6.3,7.51-1.71.7-1.82-10.92,2.48Z" fill="#36d7c6"/>
        <path id="Trazado_187605" data-name="Trazado 187605" d="M411.63,240.04l.71-1.82-4.39-6.32,7.51-1.67.71-1.82-10.93,2.43Z" fill="#36d7c6"/>
        <rect id="Rectángulo_39178" data-name="Rectángulo 39178" width="2.32" height="4.94" transform="translate(413.486 235.319) rotate(-68.9)" fill="#2c3d91"/>
      </g>
      <path id="Trazado_187606" data-name="Trazado 187606" d="M430.78,257.61l-5.67,6.65L422.44,263s-5.51-2.59-5.24-3.21c.87-2,2.54-7.28,3.44-9.31Z" fill="url(#linear-gradient-15)"/>
      <g id="Grupo_93229" data-name="Grupo 93229">
        <path id="Trazado_187607" data-name="Trazado 187607" d="M480.54,358.19c-.27-2.79-1-7.3-2.11-7.69s-9.78,2.58-16.46,4.31c-6.24,1.62-14.85,4-18.37,1.12-4.05-3.26-16.07-29.11-18.56-43.62,4.36-2.4,8.71-4.72,13.09-7.05,20.83,17.78,8.4,27.64,14.14,41.92,12.94-2.56,20.68-2.05,26.91-2.2a11.61,11.61,0,0,1,2.76.1C482.79,348.57,484.84,356.4,480.54,358.19Z" fill="#ffc0b8"/>
        <path id="Trazado_187608" data-name="Trazado 187608" d="M479.18,345a12.17,12.17,0,0,1,5.17.07c.29.06.27.15.26.4-.05.84-.18,1.83-.27,2.69,0,.18,0,.19-.21.29-.53.3-.55.82-.39,1.58a23.161,23.161,0,0,1-.75,8.69c-2.09,5.81-3-2-3.05-4.29C483.17,350.75,481.8,348.38,479.18,345Z" fill="#353640"/>
      </g>
      <path id="Trazado_187609" data-name="Trazado 187609" d="M438.48,386.12c.59,3.23,0,3.21-1.4,4.93-4.9.49-9.48.8-11.62-1.34,2.94-1.43,5.44-3.91,7.25-5.35-.15-7.28-5.46-24.8-7-28.64-.82-2-2.05-4.55-2.24-6.72-1.47-16.47,0-35.5,2.52-51.16h14.12c7.69,16.87-6.26,29.22-5,52.67a85,85,0,0,1,3.46,14C439.61,371.46,437.53,380.44,438.48,386.12Z" fill="#ffc0b8"/>
      <path id="Trazado_187610" data-name="Trazado 187610" d="M438.62,387a9.08,9.08,0,0,1-.34,6.28h-3.4s-.56-1.4-1.29-1.12c-3.36,1.29-9.78,2-10.81.39C421.86,391.06,427,389,427,389,428.5,391.51,432.24,390.39,438.62,387Z" fill="#353640"/>
      <path id="Trazado_187611" data-name="Trazado 187611" d="M463.44,334.17c-.87,3-3.17,5.66-7.6,4.37,0,0-1.28,6.42-8.3,3a14.57,14.57,0,0,1-5.54,2.94,13.32,13.32,0,0,1-9.09-1c-5.86,5.16-10.8-.51-10.8-.51-3.58,1.4-8.1-2.42-8.1-2.42,1.25-16.43,7.26-29.74,6.74-42.24a13.17,13.17,0,0,0-.09-1.53l1.93-.42,8-1.69,9.22-2c5.22,4.84,7.52,14.57,11.11,23.73C453.65,323.54,457.2,330.3,463.44,334.17Z" fill="url(#linear-gradient-16)"/>
      <path id="Trazado_187612" data-name="Trazado 187612" d="M432.91,343.49c-5.86,5.16-10.8-.51-10.8-.51-3.58,1.4-8.1-2.42-8.1-2.42,1.25-16.43,7.26-29.74,6.74-42.24l1.84-1.95,2.08-2.21,5.88.52,5.68.5-5.27,10s-6.87.76-8,5.37,1.24,4.44-.51,8.65-5.94,13.06-2.65,17.59S433.24,341,432.91,343.49Z" fill="#e6e6e6"/>
      <path id="Trazado_187613" data-name="Trazado 187613" d="M417.7,259.76l-1.95,12.37s-.95-.66-2.43-1.75L417,259.16Z" fill="#ffc0b8"/>
      <path id="Trazado_187614" data-name="Trazado 187614" d="M444,296.52c-5.26-18.27-2.28-27-12-36.95-2.11,2.45-5.33,2.62-14.27.19l-1.95,12.37c4.17,6.39,9.42,9.93,7.31,24.39Z" fill="#3e3279"/>
      <path id="Trazado_187615" data-name="Trazado 187615" d="M430.7,256.84c-1,4-3,5.81-5.62,5.46v-.1l-.13-4.08-.1-3.35-.12-4.09,5,1.62.43,1.94Z" fill="#ffc0b8"/>
      <path id="Trazado_187616" data-name="Trazado 187616" d="M430.7,256.84c-1,4-3,5.81-5.62,5.46v-.1c.88-.76,2.63-4.2,1.83-4a4.94,4.94,0,0,1-2-.08l-.1-3.35.45-.07c.16,0,3.23-.33,4.82-.46Z" fill="#f0afa8"/>
      <path id="Trazado_187617" data-name="Trazado 187617" d="M418,259.86l-3.84,11.67c-5.57-2.43-16.31-10-19-14-4-5.9-8-27.24-8-27.24-2.59-2-5.59-6.49-4.22-10.17s3.3,3,6.12,4.41c0,0,2.24-5.48,2.51-1.54a16.489,16.489,0,0,1-.6,6.3c3.69,6,6.75,13.9,10.77,21.63A98.3,98.3,0,0,0,418,259.86Z" fill="#ffc0b8"/>
      <path id="Trazado_187618" data-name="Trazado 187618" d="M445.74,300.74c0,1.49-4.26,3-9.36,3.81h0c-7.77,1.29-17.46,1.1-16.72-2.83,1.89-10,1.17-21.08-1.21-24.3h0a11.556,11.556,0,0,0-.92-1.07h0c-1.94-2-5.18-4.49-6.84-5.91a36.34,36.34,0,0,1,6.52-11.73,32.878,32.878,0,0,0,8.1,2.36c2.32.34,6.55-3.47,5.95-5.73a28.686,28.686,0,0,1,3.07,3.7,40.558,40.558,0,0,1,5.29,11.25c1.69,5.34.62,10.57,2.21,17.18.25,1,.55,2.07.87,3.07C444,294.69,445.71,298.47,445.74,300.74Z" fill="url(#linear-gradient-17)"/>
      <path id="Trazado_187619" data-name="Trazado 187619" d="M442.65,290.48A20.54,20.54,0,0,1,439.5,286c-1.39-3.33-3.28-1.94-5-4-2.75-3.34-3.84-2.81-4.64-5.05s.75-3.75-3-5.33-1-5.88-1-5.88l8.44-6.67a40.559,40.559,0,0,1,5.29,11.25c1.69,5.34.62,10.57,2.21,17.18C442,288.45,442.33,289.48,442.65,290.48Z" fill="#e6e6e6"/>
      <path id="Trazado_187620" data-name="Trazado 187620" d="M436.38,304.55h0c-7.77,1.29-17.46,1.1-16.72-2.83,1.89-10,1.17-21.08-1.21-24.3h0a11.556,11.556,0,0,0-.92-1.07c.36.33,4.32,4,6.68,4.45-.41-.07-3.63-.27-3.1,2.28.59,2.78,2.75,5.94,2,9.35s-1.81,7.24,2,8.41S438,302.34,436.38,304.55Z" fill="#e6e6e6"/>
      <path id="Trazado_187621" data-name="Trazado 187621" d="M423.8,242.51c-1.09,2-3.41,9.49-1.66,12.93s9.37,1.77,9.37,1.77l-.36-11.3Z" fill="#ffc0b8"/>
      <path id="Trazado_187622" data-name="Trazado 187622" d="M423.65,240.52c-1.61,1-2.43,3.44-.93,6s3.91.57,4.64,2.19-2.28,3.85-.14,7.23c2.71,4.28-8.78,12.06.55,15.22,5.68,1.92,4.31,9.4,9.08,9.34,5.64-.07,4.88-4.7,6.56-8.95,1.39-3.53.07-6.95-1.15-9-2.2-3.69-6-4.63-4.23-8.47,2.65-5.77-.89-9.42-3.74-9.68S429.61,236.81,423.65,240.52Z" fill="#353640"/>
      <path id="Trazado_187623" data-name="Trazado 187623" d="M463.44,334.17c-.87,3-3.17,5.66-7.6,4.37,0,0-1.28,6.42-8.3,3a14.57,14.57,0,0,1-5.54,2.94c.7-6.31,9.35-2.74,9.65-5.31.62-5.31,10-2,5.12-6.74-5.19-5-5-13.24-5-13.24l-1.17-2.93.33.19C453.65,323.54,457.2,330.3,463.44,334.17Z" fill="#e6e6e6"/>
    </g>
    <g id="Grupo_93242" data-name="Grupo 93242" transform="translate(168.32 5457.81)">
      <g id="Grupo_93238" data-name="Grupo 93238">
        <path id="Trazado_187624" data-name="Trazado 187624" d="M235.15,255.4s-3.75,21.12-9.23,22.58c-2.48.66-5.66.1-8.7-.92-5.14-1.75-9.87-4.84-10-5.68L202,255.54c3,1.29,20.11,11,21.51,12,2.26-3.4,7.17-12.24,7.33-12.89,0,0-1.06-4.77-.12-6.11.83-1.18,1.14,2.71,1.49,2.24s2.65-6,4.15-4.42C239.68,249.93,235.15,255.4,235.15,255.4Z" fill="#ffc0b8"/>
        <path id="Trazado_187625" data-name="Trazado 187625" d="M220.59,265.28c-.39,4.13-2.79,9.72-3,12.31-5.14-1.74-11.34-2.33-11.51-3.17L202,255.54C205,256.83,214.62,261.73,220.59,265.28Z" fill="#36d7c6"/>
        <g id="Grupo_93237" data-name="Grupo 93237">
          <path id="Trazado_187626" data-name="Trazado 187626" d="M250.77,244.4a15.71,15.71,0,0,0-4.4-1.8l-.7-.16a24.089,24.089,0,0,0-7.55-.17l-.69.09-.91.13-.37.06-.39.07-.35.06c-.19-.41-.36-.83-.53-1.25a33.121,33.121,0,0,1-2-7.27c-.07-.45-.13-.9-.18-1.36l.33-.1.37-.12.37-.12,1-.33.65-.23a17.27,17.27,0,0,0,6.33-3.64c.17-.17.35-.35.51-.53a12.81,12.81,0,0,0,2.57-4.36Z" fill="#fff"/>
          <g id="Grupo_93232" data-name="Grupo 93232">
            <path id="Trazado_187627" data-name="Trazado 187627" d="M250.21,242.41l-5.38-19c-.07.2-.15.4-.23.59Z" fill="#d8daeb"/>
            <g id="Grupo_93231" data-name="Grupo 93231">
              <path id="Trazado_187628" data-name="Trazado 187628" d="M250.77,244.4c-4.2-2.52-8.91-2.7-13.82-2l-.43.06h-.09l-.28.05h-.74c-.19-.41-.36-.83-.53-1.25.06.14.13.28.19.41h0l.31-.07h.39l.27-.05h.1l.4-.08c4.87-.9,9.57-.9,13.81,1.48Z" fill="#e6e6e6"/>
            </g>
          </g>
          <path id="Trazado_187629" data-name="Trazado 187629" d="M257.3,231.18c1.69,6.24-.15,12.17-4.11,13.24s-8.53-3.12-10.22-9.36.15-12.16,4.11-13.23S255.61,224.94,257.3,231.18Z" fill="url(#linear-gradient-18)"/>
          <g id="Grupo_93233" data-name="Grupo 93233">
            <path id="Trazado_187630" data-name="Trazado 187630" d="M226.74,235.25l2.25,8.31c-1,.21-3.32,1.07-4.34.92a4.33,4.33,0,0,1-3.83-5.48C221.41,236.34,224.52,235.81,226.74,235.25Z" fill="#fff"/>
            <path id="Trazado_187631" data-name="Trazado 187631" d="M228.83,243l.16.58c-1,.21-3.32,1.07-4.34.92a4.33,4.33,0,0,1-3.83-5.48,4.19,4.19,0,0,1,.58-1.23,4.34,4.34,0,0,0,3.52,6C225.93,243.93,227.84,243.21,228.83,243Z" fill="#cfd2eb"/>
          </g>
          <path id="Trazado_187632" data-name="Trazado 187632" d="M256.25,231.47c1.44,5.32,0,10.34-3.18,11.21a4.46,4.46,0,0,1-3.61-.73,9.121,9.121,0,0,1-2.41-2.3c-.26-.35-.5-.71-.74-1.11v-.06a16.33,16.33,0,0,1-2.15-7.2c0-.17,0-.34,0-.5h0a12.091,12.091,0,0,1,.37-3.27c.56-2.11,1.73-3.65,3.38-4.1C251.05,222.53,254.81,226.14,256.25,231.47Z" fill="#dce6ff"/>
          <path id="Trazado_187633" data-name="Trazado 187633" d="M237.59,252.44a.33.33,0,0,1-.39-.2c-.73-1.83-1.87-2.75-2.67-4.24-1-1.83-1-4.53-3.05-6l-3.7,1,5.31,10.17a.36.36,0,0,1-.22.5h0a.32.32,0,0,0-.23.41l.31,1.17a.34.34,0,0,0,.42.24l4.72-1.28a.34.34,0,0,0,.24-.41l-.32-1.18a.34.34,0,0,0-.42-.23Z" fill="url(#linear-gradient-19)"/>
          <g id="Grupo_93234" data-name="Grupo 93234">
            <path id="Trazado_187634" data-name="Trazado 187634" d="M234.09,254.82a.33.33,0,0,1-.41-.24l-.32-1.17a.34.34,0,0,1,.24-.42.34.34,0,0,0,.21-.49l-5.07-9.71-1,.26,5.31,10.17a.36.36,0,0,1-.22.5h0a.32.32,0,0,0-.23.41l.31,1.17a.34.34,0,0,0,.42.24l4.72-1.28a.34.34,0,0,0,.24-.41l-.05-.16Z" fill="#e6e6e6"/>
          </g>
          <g id="Grupo_93235" data-name="Grupo 93235">
            <path id="Trazado_187635" data-name="Trazado 187635" d="M252,241.43a9.44,9.44,0,0,1-2.41-2.3c-.25-.35-.5-.72-.73-1.11a.16.16,0,0,1,0-.07,15.741,15.741,0,0,1-1.62-3.87,16.63,16.63,0,0,1-.54-3.32v-.51h0A12,12,0,0,1,247,227a6,6,0,0,1,2.39-3.67,3.84,3.84,0,0,0-1.51.09c-1.65.45-2.82,2-3.38,4.1a12.09,12.09,0,0,0-.37,3.27h0v.5a16.33,16.33,0,0,0,2.15,7.2v.06c.24.4.48.76.74,1.11a9.121,9.121,0,0,0,2.41,2.3,4.46,4.46,0,0,0,3.61.73,4,4,0,0,0,1-.44A5.06,5.06,0,0,1,252,241.43Z" fill="#e6e6e6"/>
          </g>
          <path id="Trazado_187636" data-name="Trazado 187636" d="M225.56,234.92a2.56,2.56,0,0,0-1.23,3.08l1.21,4.47a2.55,2.55,0,0,0,2.62,2c1.82-.24,4-.45,5.79-.68a1.81,1.81,0,0,0,1.65-2.32,33.482,33.482,0,0,1-2.18-8.32,1.3,1.3,0,0,0-1.85-.88C229.5,233.15,227.57,234.05,225.56,234.92Z" fill="url(#linear-gradient-20)"/>
          <path id="Trazado_187637" data-name="Trazado 187637" d="M252,235.15l-5.77,3.33a16.33,16.33,0,0,1-2.15-7.2v-.5h0l6.83.42Z" fill="#fff"/>
          <path id="Trazado_187638" data-name="Trazado 187638" d="M248,236.64a1.47,1.47,0,0,1-2.08-.66,16.349,16.349,0,0,1-1.37-5.2h-.4v.5a16.33,16.33,0,0,0,2.15,7.2l5.77-3.33-.2-.75Z" fill="#e6e7f5"/>
          <path id="Trazado_187639" data-name="Trazado 187639" d="M253,232.82c.31,1.14,0,2.24-.81,2.45s-1.62-.56-1.93-1.71,0-2.24.81-2.45S252.73,231.67,253,232.82Z" fill="url(#linear-gradient-21)"/>
          <path id="Trazado_187640" data-name="Trazado 187640" d="M252.86,232.87c.28,1,0,1.94-.6,2.1s-1.32-.51-1.59-1.51,0-1.94.61-2.11S252.59,231.86,252.86,232.87Z" fill="#9db8ed"/>
          <path id="Trazado_187641" data-name="Trazado 187641" d="M251.5,233.31c-.08-.3,0-.59.13-.63s.35.17.44.48,0,.59-.13.63S251.59,233.62,251.5,233.31Z" fill="#fff"/>
          <g id="Grupo_93236" data-name="Grupo 93236">
            <path id="Trazado_187642" data-name="Trazado 187642" d="M234.19,242.59c-1.78.23-4,.44-5.79.68a2.55,2.55,0,0,1-2.62-2l-1.21-4.47a3.59,3.59,0,0,1-.11-.72,3,3,0,0,0-.13,2l1.21,4.47a2.55,2.55,0,0,0,2.62,2c1.82-.24,4-.45,5.79-.68a1.85,1.85,0,0,0,1.71-2.13A2.12,2.12,0,0,1,234.19,242.59Z" fill="#e6e6e6"/>
          </g>
          <path id="Trazado_187643" data-name="Trazado 187643" d="M229.26,236.5l-2.54.69a.7.7,0,0,1-.86-.49h0a.7.7,0,0,1,.49-.86l2.54-.69a.7.7,0,0,1,.86.49h0a.7.7,0,0,1-.49.86Z" fill="#fff"/>
          <path id="Trazado_187644" data-name="Trazado 187644" d="M229.78,236.05l-3.15.86a.4.4,0,0,1-.47-.27L226,236v-.07a.37.37,0,0,0-.2.44l.16.62a.4.4,0,0,0,.47.27l3.16-.86a.39.39,0,0,0,.28-.39Z" fill="#cfd2eb"/>
          <path id="Trazado_187645" data-name="Trazado 187645" d="M227.35,238.64l-.39.11a.52.52,0,0,1-.64-.37h0a.52.52,0,0,1,.36-.65l.4-.1a.52.52,0,0,1,.64.37h0a.52.52,0,0,1-.37.64Z" fill="#fff"/>
          <path id="Trazado_187646" data-name="Trazado 187646" d="M227.68,238.43l-.9.24a.26.26,0,0,1-.32-.19l-.14-.5a.2.2,0,0,1,0-.11.23.23,0,0,0-.07.25l.13.51a.26.26,0,0,0,.32.18l.9-.24a.24.24,0,0,0,.19-.21A.3.3,0,0,1,227.68,238.43Z" fill="#cfd2eb"/>
          <path id="Trazado_187647" data-name="Trazado 187647" d="M228.74,237.72a.62.62,0,0,1,.44-.76.61.61,0,0,1,.76.44.621.621,0,1,1-1.2.32Z" fill="#fff"/>
          <path id="Trazado_187648" data-name="Trazado 187648" d="M229.55,238.06a.62.62,0,0,1-.76-.44.65.65,0,0,1,0-.39.64.64,0,0,0-.07.49.62.62,0,0,0,.76.44.61.61,0,0,0,.41-.37A.58.58,0,0,1,229.55,238.06Z" fill="#cfd2eb"/>
          <path id="Trazado_187649" data-name="Trazado 187649" d="M225.56,244.45a4.638,4.638,0,0,1-.91,0,9.58,9.58,0,0,1-2.43-7.62,4.381,4.381,0,0,1,.85-.54C222.3,238.51,223.32,242.31,225.56,244.45Z" fill="url(#linear-gradient-22)"/>
        </g>
      </g>
      <path id="Trazado_187650" data-name="Trazado 187650" d="M200.59,345.6a70.272,70.272,0,0,0-2.1,11c-.91,8.58-.66,21.79.91,30.14l4.4-.44s6.21-22.56,9.15-34.1a69.754,69.754,0,0,0,1.25-7.92c1.78-11.26-4.4-42.75-4.82-44.82v-.08h0l-17.69-2.47C182.25,319.24,193.41,324.87,200.59,345.6Z" fill="#ffc0b8"/>
      <path id="Trazado_187651" data-name="Trazado 187651" d="M192.24,327.21c2.5,5.14,5.69,10.73,8.35,18.39-1,3.64-5.47,20-2.2,36.78h7.28c3.15-9.76,8.62-35.73,8.93-37.7,1.77-11.26-4.8-43.16-5.22-45.23v-.08h0l-17.69-2.47C185.72,311,188,318.43,192.24,327.21Z" fill="url(#linear-gradient-23)"/>
      <g id="Grupo_93239" data-name="Grupo 93239">
        <path id="Trazado_187652" data-name="Trazado 187652" d="M200.46,382.37h-2.07c-3.27-16.77,1.22-33.13,2.2-36.77-2.65-7.66-5.85-13.25-8.35-18.38l1-8.72c.8,7.13,10.76,27.13,11.91,27.42C203.84,345.69,198,365.79,200.46,382.37Z" fill="#e6e6e6"/>
      </g>
      <path id="Trazado_187653" data-name="Trazado 187653" d="M182.06,391.88l-10.78-12.5s7.91-12.37,14.32-20.59a62.844,62.844,0,0,1,4.18-5c8.78-9.09,13.36-54.89,13.36-54.89H188.63c-11.37,10.46-8.5,24.85-8.84,39.07a26.88,26.88,0,0,1-4.36,13.83c-.54.83-1,1.68-1.52,2.55-3.32,6.05-5.29,13.15-7.1,24.82l-2.25,7.57Z" fill="#ffc0b8"/>
      <path id="Trazado_187654" data-name="Trazado 187654" d="M166.6,375.64l6.77,1.77c1.52-2,15.19-22.31,16.41-23.58,8.78-9.09,14.44-55.07,14.44-55.07l-15,.17h-.62c-11,10.11-8.68,23.89-8.82,37.64-.05,5.61-2.8,10.51-5.29,15.54C170,361.18,167,374.94,166.6,375.64Z" fill="url(#linear-gradient-24)"/>
      <path id="Trazado_187655" data-name="Trazado 187655" d="M192.72,301.26s-8.58,4.94-9.08,15.09c-.69,13.79,1,22.19-3.46,31.61-1.23,2.6-6.13,9.64-12,28.08l-1.53-.4c.38-.7,3.42-14.46,7.91-23.52,2.49-5,5.24-9.93,5.3-15.54.13-13.75-2.18-27.54,8.81-37.64h.62Z" fill="#e6e6e6"/>
      <path id="Trazado_187656" data-name="Trazado 187656" d="M181.27,269.38c.12,9.14,2.37,25,3.23,30.7a3,3,0,0,0,1.22,2,2.819,2.819,0,0,0,1.22.48,80.41,80.41,0,0,0,12,.94,59.925,59.925,0,0,0,10.28-.85,3,3,0,0,0,2.44-2.59c.47-4.31-.88-13.78-.66-23,.14-5.83-1.69-20.74-12.57-23.09l-6.38-.06c-7.14,1.86-10.14,7.32-10.63,11.14a30.7,30.7,0,0,0-.15,4.33Z" fill="#36d7c6"/>
      <path id="Trazado_187657" data-name="Trazado 187657" d="M204.32,385c6.77,2.59,14.28,2.33,14.75,8.44l-21.3-.75a15.27,15.27,0,0,1,1.29-7.69Z" fill="#353640"/>
      <path id="Trazado_187658" data-name="Trazado 187658" d="M171.28,379.38c5.41,4.82,13.52,8.21,11.81,14.1l-19.67-6.58c.67-2.51,1.58-6.54,3.52-8.53Z" fill="#353640"/>
      <g id="Grupo_93240" data-name="Grupo 93240">
        <path id="Trazado_187659" data-name="Trazado 187659" d="M196.46,248.35c-2.07.64-2.91,1.68-5.57.48-4-1.83-7.44-8.82-2.08-12,.37-1.1.74-1.53,2.16-1.84s2.86.31,4.81.27,4.7-2,6.4.8-2.51,5-4.62,6.43S196.13,246.31,196.46,248.35Z" fill="#353640"/>
        <path id="Trazado_187660" data-name="Trazado 187660" d="M192,253.93c2.32,2.32,4.51,2.76,6.47,0l-.55-4.47-.23-1.89h-5.13l-.1,1.17Z" fill="#ffc0b8"/>
        <path id="Trazado_187661" data-name="Trazado 187661" d="M192.36,249.61c1.27,1.53,4.77,2,5.71,1.32l-.4-3.32-5.16-2.16Z" fill="#f0b4b4"/>
        <path id="Trazado_187662" data-name="Trazado 187662" d="M200.3,238.64c.94,2.67,1.87,8.55-.39,10.74-1.43,1.39-6.62.85-7.68-3-1.25-.91-2.17-3.12-1-4.12.82-.71,1.87,1.17,3.31.86.54-.12-1.13-3.75.57-4.38S198.59,239.51,200.3,238.64Z" fill="#ffc0b8"/>
      </g>
      <path id="Trazado_187663" data-name="Trazado 187663" d="M211.7,294.89c-.14-.13-.24-.34-.42-.53-2.84-3.14-13.55-5.13-19.29-10.32s-5.68-13.28-5.68-13.28,18.63,11.48,24.86,15C211.34,289.13,211.58,292.26,211.7,294.89Z" fill="#e6e6e6"/>
      <g id="Grupo_93241" data-name="Grupo 93241">
        <path id="Trazado_187664" data-name="Trazado 187664" d="M187.3,275.28s5.7,6.87,10.88,10.64a15.52,15.52,0,0,0,3.52,2c7.54,2.86,24.94.61,24.94.61,5.48,2.79,12.41,1.14,13.78-.93,2.42-3.69-6.56-.21-7.43-2.42,0,0,4.13-2.25,3-3.89s-8.35,2.75-8.35,2.75A69,69,0,0,0,206.08,279c-.56-.78-1.12-1.56-1.69-2.33-4.15-5.51-9-10.53-15.52-13.87C185.7,266.9,185.79,271.09,187.3,275.28Z" fill="#ffc0b8"/>
        <path id="Trazado_187665" data-name="Trazado 187665" d="M196.56,286.1l9-10.05c-4.15-5.52-12.11-17.61-17.65-12.78C180.52,269.69,191.39,282.33,196.56,286.1Z" fill="#36d7c6"/>
      </g>
    </g>
  </g>
</svg>
