<svg xmlns="http://www.w3.org/2000/svg" width="408.805" height="404.27" viewBox="0 0 408.805 404.27">
  <g id="Grupo_94305" data-name="Grupo 94305" transform="translate(-285 -6021)">
    <ellipse id="Elipse_7725" data-name="Elipse 7725" cx="201.39" cy="14.49" rx="201.39" ry="14.49" transform="translate(287.39 6396.291)" fill="#9ad7f5"/>
    <path id="Trazado_187666" data-name="Trazado 187666" d="M282.11,162.27c-15.72-57-86.58-75.42-127.19-32.79-.58.62-1.17,1.24-1.75,1.87C95,194.64,120.85,352.75,243.44,388.79c127.21,37.39,248.4-31.32,255.5-95.85S450,208.14,363,226.18C313.84,236.38,291.9,197.78,282.11,162.27Z" transform="translate(186.54 6004.791)" fill="#bfcfe1"/>
    <path id="Trazado_187667" data-name="Trazado 187667" d="M176,100H116.44s2.61-16.81,10-16.15c2,.18,3.43,2.25,4.34,4.46a1.54,1.54,0,0,0,2.92-.14c1.95-6.84,5.94-17.26,12.12-17.26,6.39,0,6.6,11.93,6.14,19.19a1.08,1.08,0,0,0,2,.68c1.68-2.49,4.14-4.87,7.14-4.18,2.55.59,3.68,3.24,4.15,6a.83.83,0,0,0,1.6.15c1.56-4.13,4.32-10.15,7.25-10.28C178.53,82.27,176,100,176,100Z" transform="translate(186.54 6004.791)" fill="#9ad7f5"/>
    <path id="Trazado_187668" data-name="Trazado 187668" d="M506.44,175H446.85s2.61-16.81,10-16.15c2,.18,3.42,2.25,4.33,4.46a1.55,1.55,0,0,0,2.93-.15c1.95-6.83,5.93-17.25,12.11-17.25,6.4,0,6.61,11.93,6.14,19.19a1.08,1.08,0,0,0,2,.67c1.68-2.48,4.15-4.86,7.14-4.17,2.55.59,3.69,3.24,4.15,6a.83.83,0,0,0,1.6.15c1.56-4.13,4.32-10.15,7.25-10.28C508.94,157.28,506.44,175,506.44,175Z" transform="translate(186.54 6004.791)" fill="#9ad7f5"/>
    <path id="Trazado_187669" data-name="Trazado 187669" d="M453.48,79.54H393.89s2.62-16.81,10-16.15c2,.18,3.43,2.25,4.34,4.46a1.54,1.54,0,0,0,2.92-.15c1.95-6.83,5.94-17.25,12.12-17.25,6.39,0,6.6,11.93,6.14,19.19a1.07,1.07,0,0,0,2,.67c1.69-2.48,4.15-4.86,7.14-4.17,2.56.59,3.69,3.24,4.16,6a.83.83,0,0,0,1.6.15c1.55-4.14,4.32-10.15,7.25-10.28C456,61.85,453.48,79.54,453.48,79.54Z" transform="translate(186.54 6004.791)" fill="#9ad7f5"/>
    <path id="Trazado_187670" data-name="Trazado 187670" d="M118.94,288.08a26.75,26.75,0,0,0-.33-21.25c-2.92-6.58-7.76-13.7-14.49-11.22C92.3,260,101.28,290,110.28,294,114.36,295.8,117.13,292.37,118.94,288.08Z" transform="translate(186.54 6004.791)" fill="#9ad7f5"/>
    <path id="Trazado_187671" data-name="Trazado 187671" d="M475.48,379.54a26.75,26.75,0,0,0,17.71-11.74c4-6,7.35-13.92,1.64-18.25-10-7.61-30.53,16.17-29,25.89C466.5,379.84,470.89,380.33,475.48,379.54Z" transform="translate(186.54 6004.791)" fill="#9ad7f5"/>
    <path id="Trazado_187672" data-name="Trazado 187672" d="M276.77,111.56a19.23,19.23,0,0,0-10.51-11.08c-4.74-2.06-10.76-3.47-13.11,1.11-4.13,8,15.23,19.58,21.91,17.31C278.09,117.87,277.89,114.7,276.77,111.56Z" transform="translate(186.54 6004.791)" fill="#9ad7f5"/>
    <g id="Grupo_93248" data-name="Grupo 93248" transform="translate(186.54 6004.791)">
      <g id="Grupo_93246" data-name="Grupo 93246">
        <path id="Trazado_187673" data-name="Trazado 187673" d="M398.28,110.72a.77.77,0,0,0,.37,0c1.34-.33,2.11-.46,2.12-.46a.7.7,0,0,0,.6-.82.73.73,0,0,0-.86-.56s-.84.14-2.24.49a.68.68,0,0,0-.53.85.71.71,0,0,0,.54.5Z" fill="#9ad7f5"/>
        <g id="Grupo_93245" data-name="Grupo 93245">
          <path id="Trazado_187674" data-name="Trazado 187674" d="M354.93,142.83c-.7,1.19-1.37,2.42-2,3.67a.78.78,0,0,1-.86.38h-.14a.67.67,0,0,1-.35-.93c.63-1.27,1.32-2.53,2-3.74a.77.77,0,0,1,1-.28A.69.69,0,0,1,354.93,142.83Z" fill="#9ad7f5"/>
          <path id="Trazado_187675" data-name="Trazado 187675" d="M351.18,150.27c-.54,1.26-1.05,2.56-1.52,3.86a.75.75,0,0,1-.89.46h0a.69.69,0,0,1-.47-.89c.48-1.33,1-2.65,1.55-3.93a.76.76,0,0,1,1-.39A.68.68,0,0,1,351.18,150.27Z" fill="#9ad7f5"/>
          <path id="Trazado_187676" data-name="Trazado 187676" d="M344.86,170.79a.7.7,0,0,1-.56-.77c.19-1.39.41-2.79.67-4.14a.74.74,0,0,1,.86-.57.71.71,0,0,1,.61.81c-.25,1.33-.47,2.71-.66,4.08a.75.75,0,0,1-.84.61Z" fill="#9ad7f5"/>
          <path id="Trazado_187677" data-name="Trazado 187677" d="M347.85,157.21a.69.69,0,0,1,.52.86c-.18.62-.36,1.24-.52,1.85s-.38,1.43-.55,2.15a.74.74,0,0,1-.89.53h0a.71.71,0,0,1-.55-.84c.18-.73.36-1.46.56-2.18s.35-1.26.53-1.89a.76.76,0,0,1,.9-.49Z" fill="#9ad7f5"/>
          <path id="Trazado_187678" data-name="Trazado 187678" d="M357.15,139.28a.76.76,0,0,1-.81.31.85.85,0,0,1-.22-.09.67.67,0,0,1-.23-1c.8-1.19,1.64-2.36,2.51-3.48a.77.77,0,0,1,1-.16.67.67,0,0,1,.17,1C358.76,137,357.93,138.13,357.15,139.28Z" fill="#9ad7f5"/>
          <path id="Trazado_187679" data-name="Trazado 187679" d="M394.46,111.92c-1.36.43-2.74.92-4.11,1.45a.73.73,0,0,1-.46,0,.71.71,0,0,1-.51-.41.69.69,0,0,1,.4-.92c1.4-.53,2.81-1,4.2-1.48a.76.76,0,0,1,.95.44.7.7,0,0,1-.47.92Z" fill="#9ad7f5"/>
          <path id="Trazado_187680" data-name="Trazado 187680" d="M382.45,117a.75.75,0,0,1-.55.06.71.71,0,0,1-.46-.33.68.68,0,0,1,.28-1c1.3-.68,2.64-1.33,4-1.94a.76.76,0,0,1,1,.33.67.67,0,0,1-.34.93A43.541,43.541,0,0,0,382.45,117Z" fill="#9ad7f5"/>
          <path id="Trazado_187681" data-name="Trazado 187681" d="M368.3,126.63a.79.79,0,0,1-.7.17.76.76,0,0,1-.36-.2.67.67,0,0,1,0-1c1.08-1,2.21-1.89,3.36-2.78a.78.78,0,0,1,1.05.1.66.66,0,0,1-.1,1C370.47,124.79,369.36,125.7,368.3,126.63Z" fill="#9ad7f5"/>
          <path id="Trazado_187682" data-name="Trazado 187682" d="M375.06,121.39a.77.77,0,0,1-.62.11.69.69,0,0,1-.42-.26.67.67,0,0,1,.16-1c1.2-.82,2.44-1.62,3.7-2.37a.78.78,0,0,1,1,.21.68.68,0,0,1-.23,1C377.45,119.81,376.23,120.59,375.06,121.39Z" fill="#9ad7f5"/>
          <path id="Trazado_187683" data-name="Trazado 187683" d="M362.29,132.62a.78.78,0,0,1-.76.24.859.859,0,0,1-.29-.14.68.68,0,0,1-.1-1c.95-1.07,1.95-2.13,3-3.15a.77.77,0,0,1,1.05,0,.66.66,0,0,1,0,1C364.2,130.53,363.22,131.57,362.29,132.62Z" fill="#9ad7f5"/>
        </g>
      </g>
      <g id="Grupo_93247" data-name="Grupo 93247">
        <path id="Trazado_187684" data-name="Trazado 187684" d="M399.02,105.98l-1.51-11.67,39.56,5.67Z" fill="#32c1b1"/>
        <path id="Trazado_187685" data-name="Trazado 187685" d="M437.07,99.98l-36.55,8.97-.09.03-1.84,2.1.43-5.1Z" fill="#e21c47"/>
        <path id="Trazado_187686" data-name="Trazado 187686" d="M398.59,111.08l3.29-.04-1.45-2.06Z" fill="#b9112e"/>
        <path id="Trazado_187687" data-name="Trazado 187687" d="M405.03,107.85l-4.6,1.13,7.48,10.65,29.16-19.65Z" fill="#32c1b1"/>
      </g>
    </g>
    <g id="Grupo_93255" data-name="Grupo 93255" transform="translate(186.54 6004.791)">
      <path id="Trazado_187688" data-name="Trazado 187688" d="M428.59,188.33a5.08,5.08,0,1,1,5.08,5.08A5.08,5.08,0,0,1,428.59,188.33Zm1.59,0a3.49,3.49,0,1,0,3.49-3.49,3.49,3.49,0,0,0-3.49,3.49Z" fill="#32c1b1"/>
      <path id="Trazado_187689" data-name="Trazado 187689" d="M433.38,159a5.08,5.08,0,1,1,5.08,5.09,5.08,5.08,0,0,1-5.08-5.09Zm1.59,0a3.475,3.475,0,1,1,.03,0Z" fill="#22d4b8"/>
      <g id="Grupo_93251" data-name="Grupo 93251">
        <g id="Grupo_93249" data-name="Grupo 93249">
          <path id="Trazado_187690" data-name="Trazado 187690" d="M415,166.82a.79.79,0,0,0,.8-.79v-3.52a.8.8,0,1,0-1.6,0V166a.79.79,0,0,0,.8.82Z" fill="#039be5"/>
          <path id="Trazado_187691" data-name="Trazado 187691" d="M415,173a.8.8,0,0,0,.8-.8v-3.52a.8.8,0,1,0-1.6,0v3.52A.8.8,0,0,0,415,173Z" fill="#039be5"/>
        </g>
        <g id="Grupo_93250" data-name="Grupo 93250">
          <path id="Trazado_187692" data-name="Trazado 187692" d="M410.05,168.14h3.15a.8.8,0,1,0,0-1.59h-3.15a.8.8,0,1,0,0,1.59Z" fill="#039be5"/>
          <path id="Trazado_187693" data-name="Trazado 187693" d="M416.76,168.14h3.16a.8.8,0,0,0,0-1.59h-3.16a.8.8,0,1,0,0,1.59Z" fill="#039be5"/>
        </g>
      </g>
      <g id="Grupo_93254" data-name="Grupo 93254">
        <g id="Grupo_93252" data-name="Grupo 93252">
          <path id="Trazado_187694" data-name="Trazado 187694" d="M423.06,139.39a.79.79,0,0,0,.79-.8v-3.52a.79.79,0,0,0-.79-.8.8.8,0,0,0-.8.8v3.52a.8.8,0,0,0,.8.8Z" fill="#32c1b1"/>
          <path id="Trazado_187695" data-name="Trazado 187695" d="M423.06,145.54a.79.79,0,0,0,.79-.8v-3.51a.79.79,0,0,0-.79-.8.8.8,0,0,0-.8.8v3.51a.8.8,0,0,0,.8.8Z" fill="#32c1b1"/>
        </g>
        <g id="Grupo_93253" data-name="Grupo 93253">
          <path id="Trazado_187696" data-name="Trazado 187696" d="M418.12,140.7h3.16a.79.79,0,0,0,.8-.79.8.8,0,0,0-.8-.8h-3.16a.8.8,0,0,0-.8.8.79.79,0,0,0,.8.79Z" fill="#32c1b1"/>
          <path id="Trazado_187697" data-name="Trazado 187697" d="M424.83,140.7H428a.79.79,0,0,0,.8-.79.8.8,0,0,0-.8-.8h-3.16a.8.8,0,0,0-.01,1.59Z" fill="#32c1b1"/>
        </g>
      </g>
    </g>
    <g id="Grupo_93262" data-name="Grupo 93262" transform="translate(186.54 6004.791)">
      <path id="Trazado_187698" data-name="Trazado 187698" d="M110.22,231.21a5.09,5.09,0,1,1,5.08-5.08,5.09,5.09,0,0,1-5.08,5.08Zm0-8.57a3.49,3.49,0,1,0,3.48,3.49,3.49,3.49,0,0,0-3.48-3.49Z" fill="#32c1b1"/>
      <path id="Trazado_187699" data-name="Trazado 187699" d="M106.73,203.31a5.09,5.09,0,1,1,5.08-5.09,5.09,5.09,0,0,1-5.08,5.09Zm0-8.58a3.49,3.49,0,1,0,3.49,3.49,3.49,3.49,0,0,0-3.49-3.49Z" fill="#22d4b8"/>
      <g id="Grupo_93258" data-name="Grupo 93258">
        <g id="Grupo_93256" data-name="Grupo 93256">
          <path id="Trazado_187700" data-name="Trazado 187700" d="M130.51,204.38a.8.8,0,0,1-.8-.8v-3.51a.8.8,0,1,1,1.6,0v3.51A.8.8,0,0,1,130.51,204.38Z" fill="#039be5"/>
          <path id="Trazado_187701" data-name="Trazado 187701" d="M130.51,210.53a.79.79,0,0,1-.8-.79v-3.52a.8.8,0,0,1,1.6,0v3.52a.79.79,0,0,1-.8.79Z" fill="#039be5"/>
        </g>
        <g id="Grupo_93257" data-name="Grupo 93257">
          <path id="Trazado_187702" data-name="Trazado 187702" d="M135.45,205.7h-3.16a.8.8,0,1,1,0-1.6h3.16a.8.8,0,0,1,0,1.6Z" fill="#039be5"/>
          <path id="Trazado_187703" data-name="Trazado 187703" d="M128.73,205.7h-3.16a.8.8,0,1,1,0-1.6h3.16a.8.8,0,0,1,0,1.6Z" fill="#039be5"/>
        </g>
      </g>
      <g id="Grupo_93261" data-name="Grupo 93261">
        <g id="Grupo_93259" data-name="Grupo 93259">
          <path id="Trazado_187704" data-name="Trazado 187704" d="M127.15,176.79a.79.79,0,0,1-.79-.8v-3.52a.79.79,0,0,1,.79-.8.8.8,0,0,1,.8.8V176A.8.8,0,0,1,127.15,176.79Z" fill="#32c1b1"/>
          <path id="Trazado_187705" data-name="Trazado 187705" d="M127.15,182.94a.79.79,0,0,1-.79-.8v-3.51a.79.79,0,0,1,.79-.8.8.8,0,0,1,.8.8v3.51A.8.8,0,0,1,127.15,182.94Z" fill="#32c1b1"/>
        </g>
        <g id="Grupo_93260" data-name="Grupo 93260">
          <path id="Trazado_187706" data-name="Trazado 187706" d="M132.09,178.1h-3.16a.79.79,0,0,1-.8-.79.8.8,0,0,1,.8-.8h3.16a.8.8,0,0,1,.8.8.79.79,0,0,1-.8.79Z" fill="#32c1b1"/>
          <path id="Trazado_187707" data-name="Trazado 187707" d="M125.38,178.1h-3.16a.79.79,0,0,1-.8-.79.8.8,0,0,1,.8-.8h3.16a.8.8,0,0,1,0,1.59Z" fill="#32c1b1"/>
        </g>
      </g>
    </g>
    <g id="Grupo_93263" data-name="Grupo 93263" transform="translate(186.54 6004.791)">
      <rect id="Rectángulo_39179" data-name="Rectángulo 39179" width="27.28" height="21.75" rx="4.73" transform="translate(221.06 68.77)" fill="#32c1b1"/>
      <path id="Trazado_187708" data-name="Trazado 187708" d="M234.7,72.18a7.47,7.47,0,1,0,7.46,7.47A7.47,7.47,0,0,0,234.7,72.18Zm.3,10.23V79.79h3.37a9.7,9.7,0,0,1-.4,2.62Zm2.11,3a8.361,8.361,0,0,0,1.3-2.37h2.27a6.82,6.82,0,0,1-4.47,3.33,6.888,6.888,0,0,0,.9-.99Zm.66-2.37a7.52,7.52,0,0,1-1.12,2A6.38,6.38,0,0,1,235,86.51V83ZM235,76V72.79h.26A9.08,9.08,0,0,1,237.6,76Zm3.26,0a9.89,9.89,0,0,0-1-1.83,9,9,0,0,0-.94-1.16,6.88,6.88,0,0,1,4.18,3ZM235,79.19V76.57h2.85a8.77,8.77,0,0,1,.52,2.62Zm4,0a9.771,9.771,0,0,0-.48-2.62h2.34a6.82,6.82,0,0,1,.71,2.62Zm2.59.6a6.75,6.75,0,0,1-.58,2.62H238.6a10.551,10.551,0,0,0,.37-2.62Zm-10.7,2.62h-2.45a6.94,6.94,0,0,1-.58-2.62h2.66a11,11,0,0,0,.34,2.62Zm1-6.44a9.251,9.251,0,0,1,.83-1.47,8.87,8.87,0,0,1,1.52-1.7h.19V76Zm2.54.6v2.62h-3.31a8.77,8.77,0,0,1,.52-2.62Zm-5.5-.6a6.91,6.91,0,0,1,4.27-3,10.081,10.081,0,0,0-1,1.18,9.889,9.889,0,0,0-1,1.83Zm5.5,3.82v2.62h-2.91a10,10,0,0,1-.4-2.62Zm-6.55-.6a6.82,6.82,0,0,1,.71-2.62H231a9.4,9.4,0,0,0-.49,2.62Zm3.2,3.82a8.36,8.36,0,0,0,1.3,2.37,7.15,7.15,0,0,0,.92,1A6.92,6.92,0,0,1,228.71,83Zm3.35,0v3.45A7,7,0,0,1,231.69,83Z" fill="#fff9ff"/>
    </g>
    <g id="Grupo_93265" data-name="Grupo 93265" transform="translate(186.54 6004.791)">
      <rect id="Rectángulo_39180" data-name="Rectángulo 39180" width="27.28" height="21.75" rx="4.73" transform="translate(474.21 195.04)" fill="#32c1b1"/>
      <g id="Grupo_93264" data-name="Grupo 93264">
        <path id="Trazado_187709" data-name="Trazado 187709" d="M486.07,207.17a5.07,5.07,0,1,1,7.17-.29A5.07,5.07,0,0,1,486.07,207.17Zm5.75-6.23a3.4,3.4,0,1,0,.19,4.81,3.4,3.4,0,0,0-.19-4.81Z" fill="#fff9ff"/>
        <path id="Trazado_187710" data-name="Trazado 187710" d="M480.47,213.24a.84.84,0,0,1-.05-1.18L486,206a.85.85,0,0,1,1.19-.05.83.83,0,0,1,0,1.18l-5.6,6.07A.84.84,0,0,1,480.47,213.24Z" fill="#fff9ff"/>
      </g>
    </g>
    <g id="Grupo_93268" data-name="Grupo 93268" transform="translate(186.54 6004.791)">
      <path id="Trazado_187711" data-name="Trazado 187711" d="M116.67,133.76v14.48a3.46,3.46,0,0,0,3.46,3.46h26.28l7.94,2.85a1,1,0,0,0,1.28-1.32l-3-7.75V133.76a3.46,3.46,0,0,0-3.47-3.46h-29a3.46,3.46,0,0,0-3.49,3.46Z" fill="#ffa726"/>
      <g id="Grupo_93267" data-name="Grupo 93267">
        <g id="Grupo_93266" data-name="Grupo 93266">
          <path id="Trazado_187712" data-name="Trazado 187712" d="M139.5,141.41a2.51,2.51,0,1,0,2.5-2.51A2.51,2.51,0,0,0,139.5,141.41Z" fill="#e21c47"/>
          <path id="Trazado_187713" data-name="Trazado 187713" d="M131.56,141.41a2.51,2.51,0,1,0,2.51-2.51,2.51,2.51,0,0,0-2.51,2.51Z" fill="#e21c47"/>
          <path id="Trazado_187714" data-name="Trazado 187714" d="M123.62,141.41a2.51,2.51,0,1,0,2.51-2.51A2.51,2.51,0,0,0,123.62,141.41Z" fill="#e21c47"/>
        </g>
      </g>
    </g>
    <g id="Grupo_93270" data-name="Grupo 93270" transform="translate(186.54 6004.791)">
      <path id="Trazado_187715" data-name="Trazado 187715" d="M251.23,407.64a3.2,3.2,0,0,1-1.28-.27,3.13,3.13,0,0,1-1.58-4.14l23.49-52.42a3.13,3.13,0,1,1,5.71,2.56l-23.48,52.42a3.14,3.14,0,0,1-2.86,1.85Z" fill="#104c82"/>
      <path id="Trazado_187716" data-name="Trazado 187716" d="M362.88,407.64a3.23,3.23,0,0,0,1.28-.27,3.14,3.14,0,0,0,1.58-4.14l-23.49-52.42a3.13,3.13,0,1,0-5.71,2.56L360,405.79A3.14,3.14,0,0,0,362.88,407.64Z" fill="#104c82"/>
    </g>
    <g id="Grupo_93271" data-name="Grupo 93271" transform="translate(186.54 6004.791)">
      <circle id="Elipse_7726" data-name="Elipse 7726" cx="111.68" cy="111.68" r="111.68" transform="translate(161.892 256.763) rotate(-45)" fill="#c2353a"/>
      <circle id="Elipse_7727" data-name="Elipse 7727" cx="111.68" cy="111.68" r="111.68" transform="translate(149.116 256.759) rotate(-45)" fill="#ff4a51"/>
      <circle id="Elipse_7728" data-name="Elipse 7728" cx="88.27" cy="88.27" r="88.27" transform="translate(182.222 256.759) rotate(-45)" fill="#fff9ff"/>
      <circle id="Elipse_7729" data-name="Elipse 7729" cx="64.86" cy="64.86" r="64.86" transform="translate(228.408 209.541) rotate(-14.03)" fill="#ff4a51"/>
      <circle id="Elipse_7730" data-name="Elipse 7730" cx="41.45" cy="41.45" r="41.45" transform="translate(255.666 228.541) rotate(-16.24)" fill="#fff9ff"/>
      <path id="Trazado_187717" data-name="Trazado 187717" d="M311.92,274.13a18,18,0,1,1,12.5-22.24A18,18,0,0,1,311.92,274.13Z" fill="#ff4a51"/>
    </g>
    <g id="Grupo_93272" data-name="Grupo 93272" transform="translate(186.54 6004.791)">
      <path id="Trazado_187718" data-name="Trazado 187718" d="M309.94,254.76,202.54,134.82a3,3,0,0,0-4.42,4L305.75,259a6.12,6.12,0,0,0,4.19-4.24Z" fill="#104c82"/>
      <path id="Trazado_187719" data-name="Trazado 187719" d="M249.12,195.74l-33.87-1.99-17.98-20.08,9.11-.77-16.15-7.1L164.9,137.51l33.74,1.86Z" fill="#22d4b8"/>
      <path id="Trazado_187720" data-name="Trazado 187720" d="M253.54,191.77l1.74-33.87L237.3,137.82l-1.76,8.97-5.29-16.83-25.33-28.29-1.86,33.73Z" fill="#22d4b8"/>
    </g>
    <g id="Grupo_93274" data-name="Grupo 93274" transform="translate(186.54 6004.791)">
      <path id="Trazado_187721" data-name="Trazado 187721" d="M153,404.81V359.5c0-5.43-40.25-5.43-40.25,0v45.31C112.76,408.94,153,408.94,153,404.81Z" fill="#32c1b1"/>
      <path id="Trazado_187722" data-name="Trazado 187722" d="M153,364.23v2.63a80.089,80.089,0,0,1-20,2.33,78.788,78.788,0,0,1-20.28-2.43v-2.64A75.44,75.44,0,0,0,133,366.66a76.558,76.558,0,0,0,20-2.43Z" fill="#e21c47"/>
      <ellipse id="Elipse_7731" data-name="Elipse 7731" cx="18.02" cy="2.34" rx="18.02" ry="2.34" transform="translate(114.86 356.68)" fill="#104c82"/>
    </g>
    <g id="Grupo_93275" data-name="Grupo 93275" transform="translate(186.54 6004.791)">
      <path id="Trazado_187723" data-name="Trazado 187723" d="M133,346.61l.51-.14c2.83-.81,16.53-5.51,18.58-21.14,1.83-13.94,3.76-22.76,7.25-27.57a.85.85,0,0,0-1-1.29c-12.23,5.29-47.14,23.3-26.19,49.1Z" fill="#00a8a0"/>
      <path id="Trazado_187724" data-name="Trazado 187724" d="M132.53,359c-.08-1.7,1.05-13.41,1.05-13.41h0c2.24-16.31,14.24-35.13,14.39-35.37a.73.73,0,0,0-.22-1,.72.72,0,0,0-1,.22,129.87,129.87,0,0,0-9.08,17.4,74.78,74.78,0,0,0-5.5,18.1c0,.08,0,.17,0,.29v.33c-.2,1.65-.86,13.45-.86,13.45C131.58,359.69,131.74,359.51,132.53,359Z" fill="#007e87"/>
    </g>
    <g id="Grupo_93276" data-name="Grupo 93276" transform="translate(186.54 6004.791)">
      <path id="Trazado_187725" data-name="Trazado 187725" d="M131.37,354.57l-.51-.17c-2.77-1-16.15-6.52-17.23-22.25-1-14-2.35-22.95-5.53-28a.85.85,0,0,1,1.1-1.22c11.87,6,45.61,26.17,23.1,50.62Q131.85,354.08,131.37,354.57Z" fill="#22d4b8"/>
      <path id="Trazado_187726" data-name="Trazado 187726" d="M130.81,359.2a56.346,56.346,0,0,0,0-5.66h0c-1.23-16.42-12-36-12.18-36.2a.732.732,0,0,1,1.28-.71,131.81,131.81,0,0,1,8,17.93A74.33,74.33,0,0,1,132.25,353a2.072,2.072,0,0,1,0,.29,3.242,3.242,0,0,1,0,.33c.1,1.66.24,5.43.24,5.43C132.13,359.66,131.57,359.74,130.81,359.2Z" fill="#00a8a0"/>
    </g>
    <path id="Trazado_187727" data-name="Trazado 187727" d="M320.09,59.13s9,19.48,19.9,24.29l-5.7,8.22s-10.7-3.92-14.58-12.77C317.52,72.63,318.56,65.92,320.09,59.13Z" transform="translate(186.54 6004.791)" fill="#024e73"/>
    <g id="Grupo_93282" data-name="Grupo 93282" transform="translate(186.54 6004.791)">
      <g id="Grupo_93280" data-name="Grupo 93280">
        <path id="Trazado_187728" data-name="Trazado 187728" d="M372.36,136.28l5,13.43c-2.55.39-5.28-.43-8.16-2.23l-4-8.89Z" fill="#f9a38f"/>
        <g id="Grupo_93279" data-name="Grupo 93279">
          <path id="Trazado_187729" data-name="Trazado 187729" d="M374.29,149s3-2.33,4.31-1.85,8.12,11.81,10.79,14.38c3,2.89,0,7.57-1.32,6.78-10.17-6.18-23.58-13.22-23.58-13.22s1.27-5.79,2.88-8S371.38,148.82,374.29,149Z" fill="#22d4b8"/>
          <g id="Grupo_93278" data-name="Grupo 93278">
            <path id="Trazado_187730" data-name="Trazado 187730" d="M379.16,155.54a.5.5,0,0,1-.37-.16.52.52,0,0,1,0-.72,8,8,0,0,1,3.33-1.92,3.53,3.53,0,0,1,3.42,1.17.51.51,0,1,1-.81.62,2.51,2.51,0,0,0-2.42-.78,6.93,6.93,0,0,0-2.81,1.65A.5.5,0,0,1,379.16,155.54Z" fill="#fff9ff"/>
            <path id="Trazado_187731" data-name="Trazado 187731" d="M378.1,153.73a.49.49,0,0,1-.37-.15.52.52,0,0,1,0-.72,7.78,7.78,0,0,1,3.33-1.92,3.51,3.51,0,0,1,3.42,1.17.51.51,0,0,1-.81.61,2.53,2.53,0,0,0-2.43-.78,7.06,7.06,0,0,0-2.8,1.65A.5.5,0,0,1,378.1,153.73Z" fill="#fff9ff"/>
            <path id="Trazado_187732" data-name="Trazado 187732" d="M380.82,157.23a.48.48,0,0,1-.37-.15.51.51,0,0,1,0-.72,7.82,7.82,0,0,1,3.32-1.92,3.52,3.52,0,0,1,3.43,1.17.511.511,0,1,1-.82.61,2.51,2.51,0,0,0-2.42-.78,6.9,6.9,0,0,0-2.8,1.65.47.47,0,0,1-.34.14Z" fill="#fff9ff"/>
          </g>
        </g>
      </g>
      <g id="Grupo_93281" data-name="Grupo 93281">
        <path id="Trazado_187733" data-name="Trazado 187733" d="M375.05,140l-3.43.74-2.41.48-3.31.54c-4.73-3.74-19.07-18.21-21.56-24.85,0,0-16.41,38.17-39.1,38.17-1.47,0,2.42-19,6.12-22.94,0,0,20.91-39,34.47-34.84C351.9,99.19,359.38,111,375.05,140Z" fill="#104c82"/>
        <path id="Trazado_187734" data-name="Trazado 187734" d="M370.87,140.93l-.69.87c-13.92-10.54-22.66-22.89-25.63-28.61a.44.44,0,0,0-.38-.26c-.09,0-.16.06-.21.17-6.67,15.69-14.66,25.11-20.2,30.24-6,5.6-10.45,7.45-10.63,7.53l-.26-.63-.25-.62s4.42-1.86,10.29-7.32c5.42-5.05,13.26-14.3,19.81-29.73a1.56,1.56,0,0,1,1.4-1,1.78,1.78,0,0,1,1.63,1C348.74,118.34,356.87,129.22,370.87,140.93Z" fill="#021019"/>
        <path id="Trazado_187735" data-name="Trazado 187735" d="M363.61,141.27a17.53,17.53,0,0,0,3.3,4s7.31-.93,11.21-2.89l-1.75-4.08A60.12,60.12,0,0,1,363.61,141.27Z" fill="#524e82"/>
      </g>
    </g>
    <g id="Grupo_93283" data-name="Grupo 93283" transform="translate(186.54 6004.791)">
      <path id="Trazado_187736" data-name="Trazado 187736" d="M281.57,116.4l2.4,18.14c31.86,17.71,41.14-11.85,38.61-20.2-5-22.13-2.41-28-2.49-55.21L311.49,58l-.69-.1-2-.27-12-1.65-2,.68-2.55.87-.61.21-11.39,3.84.18,35.5v6.13h0Q280.69,109.81,281.57,116.4Z" fill="#039be5"/>
      <path id="Trazado_187737" data-name="Trazado 187737" d="M290.37,127.13h0c9-2.51,15.57-8.72,19.49-13.49a52,52,0,0,0,6.43-9.84.46.46,0,0,0-.22-.6.45.45,0,0,0-.6.22,50,50,0,0,1-6.32,9.67c-3.84,4.66-10.25,10.73-19,13.18a.45.45,0,0,0,.24.86Z" fill="#024e73"/>
      <path id="Trazado_187738" data-name="Trazado 187738" d="M300.6,127.62c7.82-2.15,14.4-8.75,14.7-9.05a.446.446,0,1,0-.63-.63c-.08.08-7.82,7.84-16.18,9.23a.44.44,0,0,0-.37.52.45.45,0,0,0,.51.37,18.88,18.88,0,0,0,1.97-.44Z" fill="#024e73"/>
      <path id="Trazado_187739" data-name="Trazado 187739" d="M295.07,69.76c7.81-2.17,14.37-8.78,14.67-9.09a.45.45,0,0,0-.64-.63c-.08.08-7.8,7.86-16.16,9.27a.451.451,0,1,0,.15.89A18.881,18.881,0,0,0,295.07,69.76Z" fill="#024e73"/>
    </g>
    <g id="Grupo_93289" data-name="Grupo 93289" transform="translate(186.54 6004.791)">
      <g id="Grupo_93286" data-name="Grupo 93286">
        <path id="Trazado_187740" data-name="Trazado 187740" d="M363.65,209.51l3.15,7.01-6.46,2.77-3.75-7.23Z" fill="#f9a38f"/>
        <g id="Grupo_93285" data-name="Grupo 93285">
          <path id="Trazado_187741" data-name="Trazado 187741" d="M365.39,216.37s.66-2.83,2-3.29,14.44,3,18.06,2.23,4,1.93,4,3.45-26.87,11.14-26.87,11.14-4.09-7.44-4.27-10.18S363,218.07,365.39,216.37Z" fill="#22d4b8"/>
          <g id="Grupo_93284" data-name="Grupo 93284">
            <path id="Trazado_187742" data-name="Trazado 187742" d="M373.14,219.43a.54.54,0,0,1-.39.12.51.51,0,0,1-.45-.56,7.86,7.86,0,0,1,1.33-3.6A3.51,3.51,0,0,1,377,214.1a.51.51,0,0,1,.38.61.5.5,0,0,1-.61.38,2.54,2.54,0,0,0-2.37.95,7.1,7.1,0,0,0-1.1,3.06.51.51,0,0,1-.16.33Z" fill="#fff9ff"/>
            <path id="Trazado_187743" data-name="Trazado 187743" d="M371.17,218.72a.54.54,0,0,1-.39.12.51.51,0,0,1-.45-.56,7.86,7.86,0,0,1,1.33-3.6,3.52,3.52,0,0,1,3.38-1.29.508.508,0,0,1-.23.99,2.54,2.54,0,0,0-2.37,1,7.1,7.1,0,0,0-1.1,3.06.51.51,0,0,1-.17.28Z" fill="#fff9ff"/>
            <path id="Trazado_187744" data-name="Trazado 187744" d="M375.49,219.68a.56.56,0,0,1-.38.12.52.52,0,0,1-.45-.57,7.77,7.77,0,0,1,1.33-3.6,3.51,3.51,0,0,1,3.38-1.29.514.514,0,0,1-.24,1,2.5,2.5,0,0,0-2.36.94,6.86,6.86,0,0,0-1.1,3.06.48.48,0,0,1-.18.34Z" fill="#fff9ff"/>
          </g>
        </g>
      </g>
      <g id="Grupo_93288" data-name="Grupo 93288">
        <g id="Grupo_93287" data-name="Grupo 93287">
          <path id="Trazado_187745" data-name="Trazado 187745" d="M365.27,210.87a18.281,18.281,0,0,1-5,2.92c-.41.19-.83.36-1.24.53-.73.31-1.46.58-2.14.81,0,0-15.31-28.22-21.19-48.68,0,0-51.82-6.4-53.61-24.55a8.891,8.891,0,0,1,0-1.86,13.24,13.24,0,0,1,1.87-5.49c1.18-2,18.92-.05,28.5,2.63,0,0,26,10.12,35.58,20.55C352.92,163,365.27,210.87,365.27,210.87Z" fill="#104c82"/>
          <path id="Trazado_187746" data-name="Trazado 187746" d="M360.29,213.79c-.41.19-.83.36-1.24.53-7.75-12.81-18.5-42.75-20.89-49.93a1.43,1.43,0,0,0-1.09-.95c-25.18-4.73-39.69-11.34-47.42-16a50.142,50.142,0,0,1-7.54-5.5,8.891,8.891,0,0,1,0-1.86,45.33,45.33,0,0,0,8.4,6.3c7.64,4.62,22,11.11,46.82,15.78a2.75,2.75,0,0,1,2.11,1.84C341.83,171.15,352.62,201.23,360.29,213.79Z" fill="#021019"/>
        </g>
        <path id="Trazado_187747" data-name="Trazado 187747" d="M354.14,212.18l2.45,3.91s6.09-1.06,10.21-5.22l-1.53-3.49a109.673,109.673,0,0,1-11.13,4.8Z" fill="#524e82"/>
      </g>
    </g>
    <g id="Grupo_93292" data-name="Grupo 93292" transform="translate(186.54 6004.791)">
      <circle id="Elipse_7732" data-name="Elipse 7732" cx="13.12" cy="13.12" r="13.12" transform="matrix(0.607, -0.795, 0.795, 0.607, 285.381, 37.066)" fill="#104c82"/>
      <path id="Trazado_187748" data-name="Trazado 187748" d="M316.9,34.53s3.83-.36,4-4c.12-3.09-3.77-1.76-3-4.07s1.8-4.33-1.15-5.46c-2.58-1-2.95.84-6-2.44-3.59-3.87-8.06,2.83-11.8,2.4-5.51-.64-6.74,2.32-7.72,4.69a4.69,4.69,0,0,0,.82,4.48Z" fill="#104c82"/>
      <g id="Grupo_93290" data-name="Grupo 93290">
        <path id="Trazado_187749" data-name="Trazado 187749" d="M313.89,40.11s2.53-2.36,3.65.16-2.2,8.81-5.64,6.52Z" fill="#f9856b"/>
        <path id="Trazado_187750" data-name="Trazado 187750" d="M313.08,44.88a.32.32,0,0,0,.34-.18,4.93,4.93,0,0,1,3.24-2.41.34.34,0,0,0,.26-.38.33.33,0,0,0-.38-.25,5.54,5.54,0,0,0-3.7,2.77.32.32,0,0,0,.24.45Z" fill="#d25c48"/>
        <path id="Trazado_187751" data-name="Trazado 187751" d="M315.41,44.22a.28.28,0,0,0,.18,0,.31.31,0,0,0,.17-.41,3,3,0,0,0-1-1.17.33.33,0,0,0-.45.09.31.31,0,0,0,.09.44,2.32,2.32,0,0,1,.78.88A.29.29,0,0,0,315.41,44.22Z" fill="#d25c48"/>
      </g>
      <path id="Trazado_187752" data-name="Trazado 187752" d="M296.85,50l-1.17,6.63s2.21,3.4,4.84,4.1,4.81-2.18,4.81-2.18l1.13-6.37Z" fill="#f9a38f"/>
      <path id="Trazado_187753" data-name="Trazado 187753" d="M296.85,50l-.52,2.94c1.44,2.31,4.54,3.37,9.37,3.51l.76-4.27Z" fill="#f9856b"/>
      <path id="Trazado_187754" data-name="Trazado 187754" d="M292.87,31.71a67,67,0,0,0-.62,8.52,10.935,10.935,0,0,0,.1,1.86c.53,5.13,2.54,14.12,12.92,12.36,4.58-.78,7.43-5.23,9.19-10a48.267,48.267,0,0,0,2.25-9A7,7,0,0,0,314.24,29c-5.19-4.29-11.48-4.14-15.76-3.31a7,7,0,0,0-5.61,6.02Z" fill="#f9a38f"/>
      <path id="Trazado_187755" data-name="Trazado 187755" d="M308.83,40.11c-.12.71.14,1.35.59,1.43s.91-.43,1-1.14-.14-1.35-.59-1.43S309,39.4,308.83,40.11Z" fill="#104c82"/>
      <path id="Trazado_187756" data-name="Trazado 187756" d="M299.3,38.43c-.13.7.14,1.34.58,1.42s.92-.43,1.05-1.14-.14-1.34-.59-1.42S299.42,37.72,299.3,38.43Z" fill="#104c82"/>
      <path id="Trazado_187757" data-name="Trazado 187757" d="M313,36.79s-3.15-1.94-6-1.27v1.25a11.17,11.17,0,0,1,5.52,1.39C312.82,37.63,313.11,37.4,313,36.79Z" fill="#104c82"/>
      <path id="Trazado_187758" data-name="Trazado 187758" d="M297.48,34.05s3.63-.74,6,.85l-.44,1.17a11.17,11.17,0,0,0-5.66-.59C297.35,34.89,297.16,34.59,297.48,34.05Z" fill="#104c82"/>
      <path id="Trazado_187759" data-name="Trazado 187759" d="M303.43,44.35a3.36,3.36,0,0,1-1.1-.44.32.32,0,0,1,.34-.54c.27.17.92.47,1.24.34.07,0,.16-.07.21-.26a46.691,46.691,0,0,0,.66-4.86.32.32,0,0,1,.35-.28.31.31,0,0,1,.29.34,46.719,46.719,0,0,1-.68,5,1,1,0,0,1-.6.69,1.22,1.22,0,0,1-.71.01Z" fill="#f9856b"/>
      <path id="Trazado_187760" data-name="Trazado 187760" d="M307.05,47c-.49,1.25-1.76,3.48-4.64,3s-3.32-2.83-3.33-4.38Z" fill="#fff9ff"/>
      <path id="Trazado_187761" data-name="Trazado 187761" d="M302.15,51.6a3.38,3.38,0,0,1-1.45-.7.32.32,0,1,1,.42-.48,2.69,2.69,0,0,0,1.15.55,2.46,2.46,0,0,0,1.2-.14.323.323,0,0,1,.24.6,3.35,3.35,0,0,1-1.56.17Z" fill="#f9856b"/>
      <path id="Trazado_187762" data-name="Trazado 187762" d="M313.84,42.27a13.2,13.2,0,0,0,1-3.78c0-1.57-1.14-2.69-.46-4.08s-.59-3.24-1.68-3.71-3.86-.37-6.26-2.08-6.8-1.55-7.79-.06c-1.21,1.79-.07,2.18-2.79,3.87-1.08.67-.35,3-.45,4.49a9.072,9.072,0,0,1-.24,1.68l-.07.35-2.8-.49c.08-2.25.33-4.71.59-6.75a7,7,0,0,1,5.61-6c4.28-.83,10.57-1,15.76,3.31a7,7,0,0,1,2.47,6.51,50.824,50.824,0,0,1-1.58,7Z" fill="#104c82"/>
      <g id="Grupo_93291" data-name="Grupo 93291">
        <path id="Trazado_187763" data-name="Trazado 187763" d="M293.31,39.89a12.652,12.652,0,0,0,.21-2.22,2.67,2.67,0,0,0-1.06-2.55,1.75,1.75,0,0,0-2.41.17c-1.92,2-1.46,9.3,2.55,8.34Z" fill="#f9a38f"/>
        <path id="Trazado_187764" data-name="Trazado 187764" d="M292.24,41.45a.31.31,0,0,1-.2-.33,5,5,0,0,0-1.51-3.74.34.34,0,0,1,0-.46.33.33,0,0,1,.46,0,5.52,5.52,0,0,1,1.72,4.29.32.32,0,0,1-.35.28Z" fill="#f9856b"/>
        <path id="Trazado_187765" data-name="Trazado 187765" d="M290.59,39.68a.26.26,0,0,1-.14-.11.31.31,0,0,1,.07-.45,3,3,0,0,1,1.47-.46.32.32,0,0,1,0,.64,2.39,2.39,0,0,0-1.13.34.3.3,0,0,1-.27.04Z" fill="#f9856b"/>
      </g>
    </g>
    <g id="Grupo_93296" data-name="Grupo 93296" transform="translate(186.54 6004.791)">
      <g id="Grupo_93294" data-name="Grupo 93294">
        <rect id="Rectángulo_39181" data-name="Rectángulo 39181" width="156.52" height="19.51" transform="translate(274.483 178.105) rotate(-55.31)" fill="#22d4b8"/>
        <g id="Grupo_93293" data-name="Grupo 93293">
          <rect id="Rectángulo_39182" data-name="Rectángulo 39182" width="156.52" height="1.3" transform="translate(286.691 186.564) rotate(-55.31)" fill="#00a8a0"/>
          <rect id="Rectángulo_39183" data-name="Rectángulo 39183" width="156.52" height="1.3" transform="translate(281.966 183.284) rotate(-55.31)" fill="#00a8a0"/>
          <rect id="Rectángulo_39184" data-name="Rectángulo 39184" width="156.52" height="1.3" transform="translate(277.235 180.022) rotate(-55.31)" fill="#00a8a0"/>
        </g>
      </g>
      <rect id="Rectángulo_39185" data-name="Rectángulo 39185" width="8.18" height="19.51" transform="translate(274.483 178.112) rotate(-55.31)" fill="#104c82"/>
      <path id="Trazado_187766" data-name="Trazado 187766" d="M290.51,189.19l-1.32,1.92a9.77,9.77,0,0,1-13.58,2.47h0A9.77,9.77,0,0,1,273.14,180l1.33-1.91Z" fill="#32c1b1"/>
      <g id="Grupo_93295" data-name="Grupo 93295">
        <path id="Trazado_187767" data-name="Trazado 187767" d="M363.54,49.39l16.04,11.1,2.69-14.07.56-2.92,1.58-8.27-7.12,4.83-2.77,1.88Z" fill="#f9a38f"/>
        <path id="Trazado_187768" data-name="Trazado 187768" d="M377.29,40.06a10.27,10.27,0,0,0,2.3,2.14,7.13,7.13,0,0,0,3.24,1.3l1.58-8.27Z" fill="#32c1b1"/>
      </g>
    </g>
    <g id="Grupo_93297" data-name="Grupo 93297" transform="translate(186.54 6004.791)">
      <path id="Trazado_187769" data-name="Trazado 187769" d="M320.1,121.81h1.54a3.36,3.36,0,0,0,3-2,18.663,18.663,0,0,1,.9-1.88c.72-1,2.68-2.57,3.42-2.62s.6,1.32.08,1.92a12.269,12.269,0,0,0-1.78,2.21c-.44.85,3.6,2.57,5.23,3s4.52-.48,4.8.88-1.88,1.56-1.88,1.56.63,1.22-1.16,2.23a1.66,1.66,0,0,1-.84,1.84,1.84,1.84,0,0,1-1.21,1.92c-1.34.4-5.54,1.62-13.78-3.38Z" fill="#f9a38f"/>
      <path id="Trazado_187770" data-name="Trazado 187770" d="M291.84,86.84c3.11,11.75,6.16,17,6.16,17a43.41,43.41,0,0,0,10.66,10.37,138.922,138.922,0,0,0,13,7.65c-1.38,1.79-2.36,5.34-1.82,6.4-16.64,0-31.19-15.76-31.19-15.76C277,92.19,276.24,75.7,276.43,69.69a11.45,11.45,0,0,1,1.84-6,6,6,0,0,1,2.24-2.17,12.14,12.14,0,0,1,6.73,7.71C289,75.13,291.84,86.84,291.84,86.84Z" fill="#024e73"/>
    </g>
    <path id="Trazado_187771" data-name="Trazado 187771" d="M361.19,87.35s-3.46-1.23-5.05-.57,2.82,3,2.82,3-5.34-2.84-6.26-1.7,4.18,4.06,4.18,4.06-3.91-1.37-4.7-.57S355,94.71,355,94.71s-3.21-.77-3.88-.23,2.18,2.83,4,3.44,2.1-1.94,2.1-1.94,1.7-1.5,1.47-2.53c0,0,1.77-1.19,1.89-2.41C360.59,91,363.08,88.85,361.19,87.35Z" transform="translate(186.54 6004.791)" fill="#f9a38f"/>
    <g id="Grupo_93299" data-name="Grupo 93299" transform="translate(186.54 6004.791)">
      <path id="Trazado_187772" data-name="Trazado 187772" d="M215.59,223a113.59,113.59,0,0,0,9.4,14.67,38.238,38.238,0,0,0,4.61,5.05c2.5,2.21,4.93,3.36,6.92,2.38,7.36-3.63,25.72-33.81,25.72-33.81l-3.93-4.55S249,216.09,243.6,221c-4.92,4.56-8.71,8-8.71,8-.68-1-1.41-2.13-2.16-3.31s-1.64-2.58-2.49-3.94c-6.15-9.89-13.56-20.72-13.56-20.72Z" fill="#f9a38f"/>
      <path id="Trazado_187773" data-name="Trazado 187773" d="M225,237.66a38.24,38.24,0,0,0,4.61,5.05l3.13-17c-.81-1.25-1.64-2.58-2.49-3.94Z" fill="#f9856b"/>
      <path id="Trazado_187774" data-name="Trazado 187774" d="M216.46,200.27,232,222.71l-5,20-12.2-19.48S212.57,210.2,216.46,200.27Z" fill="#039be5"/>
      <path id="Trazado_187775" data-name="Trazado 187775" d="M257.36,204.92a5.25,5.25,0,0,0-.5,3.69l4.34,4.22a11.529,11.529,0,0,0,2.74-.57Z" fill="#f9a38f"/>
      <path id="Trazado_187776" data-name="Trazado 187776" d="M260.38,197.36s-2.43,3.54-2.16,5.53,4.29-2.25,4.29-2.25-4.82,5.17-3.8,6.55,5.84-3.5,5.84-3.5-2.73,4-2.06,5.14,4.34-2.29,4.34-2.29-1.84,3.39-1.43,4.31,3.86-1.6,5.08-3.45-1.55-3-1.55-3-1.18-2.37-2.42-2.42c0,0-.81-2.35-2.14-2.86C264.37,199.16,262.64,195.69,260.38,197.36Z" fill="#f9a38f"/>
    </g>
    <g id="Grupo_93302" data-name="Grupo 93302" transform="translate(186.54 6004.791)">
      <path id="Trazado_187777" data-name="Trazado 187777" d="M208.47,392.28v7.09l-6.61-.11-.43-7.5Z" fill="#f9a38f"/>
      <path id="Trazado_187778" data-name="Trazado 187778" d="M191.68,288.78c0,.84.28,4.88.62,10.52.93,15.48,2.68,43,3.7,49.18,1.05,6.35.58,27.15.24,38a6.5,6.5,0,0,0,1.87,4.77,7.149,7.149,0,0,0,1.54,1.18,6.85,6.85,0,0,0,3.32.85h5a6.65,6.65,0,0,0,6.73-6.8c-.28-9.2-.63-26,0-39,.63-12.34-.29-34.19-1-47.81h0c-.28-5.43-.53-9.55-.63-11.23Z" fill="#104c82"/>
      <path id="Trazado_187779" data-name="Trazado 187779" d="M213.14,288.5l-21.46.28c0,.84.28,4.88.62,10.52a92.542,92.542,0,0,0,21.47.43C213.49,294.3,213.24,290.18,213.14,288.5Z" fill="#021019"/>
      <path id="Trazado_187780" data-name="Trazado 187780" d="M198.19,367.1c-.18,7-.38,14.16-.25,20,0,1.63.09,3,.17,4.22a6.531,6.531,0,0,0,1.54,1.17c-.12-1.38-.22-3.16-.27-5.42-.13-5.77.07-12.95.26-19.9.23-8.48.44-16.5,0-19.92-1-7.47-3.33-48-3.93-58.77l-1.45.06c.61,10.81,2.92,51.38,4,58.9C198.64,350.7,198.42,358.67,198.19,367.1Z" fill="#021019"/>
      <g id="Grupo_93301" data-name="Grupo 93301">
        <path id="Trazado_187781" data-name="Trazado 187781" d="M206.78,399.1s1.37-1.89,2.49-1.83,9.92,6.6,12.89,7.1,2.45,2.64,1.93,3.74-23.63.1-23.63.1-.79-6.72-.08-8.8S204.47,399.64,206.78,399.1Z" fill="#22d4b8"/>
        <g id="Grupo_93300" data-name="Grupo 93300">
          <path id="Trazado_187782" data-name="Trazado 187782" d="M211.66,403.7a.45.45,0,0,1-.32,0,.39.39,0,0,1-.17-.55,6.28,6.28,0,0,1,2.11-2.25,2.9,2.9,0,0,1,2.94.07.4.4,0,0,1,.1.56.42.42,0,0,1-.58.1,2.1,2.1,0,0,0-2.07,0,5.63,5.63,0,0,0-1.77,1.93.41.41,0,0,1-.24.14Z" fill="#fff9ff"/>
          <path id="Trazado_187783" data-name="Trazado 187783" d="M210.4,402.58a.43.43,0,0,1-.33,0,.4.4,0,0,1-.16-.55,6.17,6.17,0,0,1,2.11-2.25,2.9,2.9,0,0,1,2.94.07.4.4,0,0,1,.09.57.41.41,0,0,1-.57.09,2.08,2.08,0,0,0-2.07,0,5.33,5.33,0,0,0-1.77,1.92A.45.45,0,0,1,210.4,402.58Z" fill="#fff9ff"/>
          <path id="Trazado_187784" data-name="Trazado 187784" d="M213.36,404.59a.43.43,0,0,1-.33,0,.4.4,0,0,1-.16-.55,6.17,6.17,0,0,1,2.11-2.25,2.87,2.87,0,0,1,2.93.07.4.4,0,0,1,.1.57.42.42,0,0,1-.58.09,2.05,2.05,0,0,0-2.06,0,5.329,5.329,0,0,0-1.77,1.92.45.45,0,0,1-.24.15Z" fill="#fff9ff"/>
        </g>
      </g>
    </g>
    <g id="Grupo_93305" data-name="Grupo 93305" transform="translate(186.54 6004.791)">
      <path id="Trazado_187785" data-name="Trazado 187785" d="M176.26,392.28l-.71,7.08-5.9-.1-.43-7.5Z" fill="#f9a38f"/>
      <path id="Trazado_187786" data-name="Trazado 187786" d="M164.11,347.54c.66,13,.32,29.77,0,39a6.66,6.66,0,0,0,6.73,6.8h5a6.81,6.81,0,0,0,3.1-.73,6.311,6.311,0,0,0,1.52-1.07,6.48,6.48,0,0,0,2.11-5c-.34-10.88-.81-31.68.24-38s2.83-34.65,3.75-50c.3-5.12.51-8.78.57-9.68l-21.5.28c-.06,1.09-.16,2.77-.28,4.9C164.73,306.27,163.38,333.26,164.11,347.54Z" fill="#104c82"/>
      <path id="Trazado_187787" data-name="Trazado 187787" d="M165.42,294a212.91,212.91,0,0,0,21.21,4.5c.3-5.12.51-8.78.57-9.68l-21.5.28C165.64,290.2,165.54,291.88,165.42,294Z" fill="#021019"/>
      <path id="Trazado_187788" data-name="Trazado 187788" d="M179.28,387c-.05,2.33-.15,4.14-.27,5.55a7.123,7.123,0,0,0,1.53-1.07c.08-1.24.15-2.71.19-4.45.12-5.8-.07-13-.26-20-.23-8.43-.44-16.4,0-19.7,1-7.52,3.35-48.12,4-58.91l-1.44-.06c-.61,10.8-2.91,51.31-3.94,58.78-.47,3.42-.25,11.44,0,19.92C179.21,374.08,179.41,381.26,179.28,387Z" fill="#021019"/>
      <g id="Grupo_93304" data-name="Grupo 93304">
        <path id="Trazado_187789" data-name="Trazado 187789" d="M173.25,398.27a27.326,27.326,0,0,0-3.84-.77c-.83,0-6.41,6.12-8.28,6.48-3.41.65-3.41,5.86-1.34,6.12,6,.75,16.24-1.73,16.24-1.73s.94-6.68.53-8.78S174.92,398.88,173.25,398.27Z" fill="#22d4b8"/>
        <g id="Grupo_93303" data-name="Grupo 93303">
          <path id="Trazado_187790" data-name="Trazado 187790" d="M168.29,404a.41.41,0,0,0,.32-.06.39.39,0,0,0,.11-.56,6.4,6.4,0,0,0-2.32-2.05,2.9,2.9,0,0,0-2.91.35.39.39,0,0,0-.05.57.42.42,0,0,0,.59,0,2.1,2.1,0,0,1,2.06-.21A5.74,5.74,0,0,1,168,403.8.39.39,0,0,0,168.29,404Z" fill="#fff9ff"/>
          <path id="Trazado_187791" data-name="Trazado 187791" d="M169.44,402.74a.42.42,0,0,0,.32-.06.39.39,0,0,0,.11-.56,6.22,6.22,0,0,0-2.32-2.05,2.92,2.92,0,0,0-2.92.35.4.4,0,0,0,0,.57.42.42,0,0,0,.59,0,2.09,2.09,0,0,1,2-.21,5.64,5.64,0,0,1,2,1.75.41.41,0,0,0,.22.21Z" fill="#fff9ff"/>
          <path id="Trazado_187792" data-name="Trazado 187792" d="M166.69,405a.46.46,0,0,0,.31,0,.4.4,0,0,0,.11-.56,6.22,6.22,0,0,0-2.32-2,2.89,2.89,0,0,0-2.92.35.4.4,0,0,0,0,.57.42.42,0,0,0,.59,0,2.09,2.09,0,0,1,2-.21,5.64,5.64,0,0,1,2,1.75.41.41,0,0,0,.23.1Z" fill="#fff9ff"/>
        </g>
      </g>
    </g>
    <g id="Grupo_93306" data-name="Grupo 93306" transform="translate(186.54 6004.791)">
      <path id="Trazado_187793" data-name="Trazado 187793" d="M160.82,291A119.57,119.57,0,0,0,219,291c.1-7.09.21-35.45-.35-58.72v-2.04h0v-.87c-.41-15.34-1.13-27.88-2.37-29.55h0c-2.9-3.89-17.42-10.11-21.44-12.88-.34.53-2.31,3.46-4.91,3.68-2.84.24-5.37-3-5.37-3V187c-4,2.78-17.2,8.53-20.08,12.41C161.24,203.54,160.69,278.87,160.82,291Z" fill="#039be5"/>
      <path id="Trazado_187794" data-name="Trazado 187794" d="M212.73,221.31a69.843,69.843,0,0,1,5.19,9.52c.15.32.28.58.37.78s.19.42.2.43a.38.38,0,0,0,.16.19v-2.04h0c-.23-.47-.49-1-.79-1.63a56.2,56.2,0,0,0-4.36-7.75.47.47,0,0,0-.63-.09A.44.44,0,0,0,212.73,221.31Z" fill="#024e73"/>
      <path id="Trazado_187795" data-name="Trazado 187795" d="M175.55,204.18h0a31.61,31.61,0,0,0,17.3-6,29.62,29.62,0,0,0,6.11-5.65.42.42,0,0,0-.09-.61.45.45,0,0,0-.63.09c-.08.1-8.41,10.82-22.72,11.27a.45.45,0,1,0,.03.9Z" fill="#024e73"/>
      <path id="Trazado_187796" data-name="Trazado 187796" d="M201.54,276.15a.44.44,0,0,0,.45-.41.45.45,0,0,0-.42-.47c-12.65-.81-20.2-7.09-24.31-12.22a34.15,34.15,0,0,1-6-11.09.45.45,0,0,0-.55-.32.44.44,0,0,0-.32.54,34,34,0,0,0,6.1,11.38c4.22,5.28,12,11.76,25,12.59Z" fill="#024e73"/>
      <path id="Trazado_187797" data-name="Trazado 187797" d="M194.75,268.28a.44.44,0,0,0,.12-.87c-11-2.91-13.13-11.91-13.15-12a.45.45,0,0,0-.88.19,16,16,0,0,0,2.53,5.19,19.61,19.61,0,0,0,11.26,7.47Z" fill="#024e73"/>
    </g>
    <g id="Grupo_93307" data-name="Grupo 93307" transform="translate(186.54 6004.791)">
      <path id="Trazado_187798" data-name="Trazado 187798" d="M146.58,290.17c.27,3.86,2.64,6.72,2.65,9.26s3,.88,1.62-4.14.67-9.87,1.76-9.82-.34,5.65.81,7.51,2-2.05,3-4.46.46-7.72-.49-11.39,3.72-26.92,3.11-33.48l1.68-8.5,1-5,.18-5.18-9-3.49c-.34,1.67-.69,3.39-1,5.12l-.45,2.3c-1.2,6.19-2.28,12.3-2.72,16.21-1.22,10.83.78,32.92.78,32.92S146.32,286.55,146.58,290.17Z" fill="#f9a38f"/>
      <path id="Trazado_187799" data-name="Trazado 187799" d="M151.45,228.94c2,2.27,5.27,5.15,9.3,6.21l1-5,.18-5.18-9-3.49c-.34,1.67-.69,3.39-1,5.12Z" fill="#f9856b"/>
      <path id="Trazado_187800" data-name="Trazado 187800" d="M149,224a19.639,19.639,0,0,0,3,2.61,17,17,0,0,0,9.83,3.55c.49-14.35,1.23-26.47,2.29-30C162.12,202.45,153,213.75,149,224Z" fill="#039be5"/>
    </g>
    <path id="Trazado_187801" data-name="Trazado 187801" d="M167.9,219.86a71.131,71.131,0,0,0-5.2,9.53l-.36.78-.2.43a.46.46,0,0,1-.41.27h0v-.68h-.4l.42-.9c.26-.56.63-1.33,1.06-2.2a57.272,57.272,0,0,1,4.35-7.75.46.46,0,0,1,.63-.09A.44.44,0,0,1,167.9,219.86Z" transform="translate(186.54 6004.791)" fill="#024e73"/>
    <g id="Grupo_93311" data-name="Grupo 93311" transform="translate(186.54 6004.791)">
      <path id="Trazado_187802" data-name="Trazado 187802" d="M176,163.81c0,7.77,4.88,13.13,12.81,13.13s13.46-5.76,13.46-13.53-4.69-13.66-12.63-13.66C180.16,149.75,176,156,176,163.81Z" fill="#104c82"/>
      <path id="Trazado_187803" data-name="Trazado 187803" d="M176.5,162.78s-1.66-.2-2.21-5.35,3.4-3.82,5-6.54,3.53-6.55,7.77-5.3,7.82,2.33,11.64.54,8.18,3.27,7.33,6.7-5.46,4.68-5.46,4.68Z" fill="#104c82"/>
      <g id="Grupo_93308" data-name="Grupo 93308">
        <path id="Trazado_187804" data-name="Trazado 187804" d="M177.81,167.16s-2.21-2.88-3.84-.5.67,9.41,4.69,7.7Z" fill="#f9856b"/>
        <path id="Trazado_187805" data-name="Trazado 187805" d="M177.78,172.18a.34.34,0,0,1-.33-.24,5.18,5.18,0,0,0-2.94-3.06.33.33,0,0,1-.19-.43.34.34,0,0,1,.43-.19,5.79,5.79,0,0,1,3.36,3.5.33.33,0,0,1-.24.41Z" fill="#d25c48"/>
        <path id="Trazado_187806" data-name="Trazado 187806" d="M175.46,171.09a.41.41,0,0,1-.18-.05.33.33,0,0,1-.1-.46,3.1,3.1,0,0,1,1.27-1,.35.35,0,0,1,.45.17.33.33,0,0,1-.17.44,2.36,2.36,0,0,0-1,.76.35.35,0,0,1-.27.14Z" fill="#d25c48"/>
      </g>
      <g id="Grupo_93309" data-name="Grupo 93309">
        <path id="Trazado_187807" data-name="Trazado 187807" d="M200.52,167.16s2.21-2.88,3.85-.5-.68,9.41-4.7,7.7Z" fill="#f9856b"/>
        <path id="Trazado_187808" data-name="Trazado 187808" d="M200.55,172.18a.33.33,0,0,0,.33-.24,5.18,5.18,0,0,1,2.94-3.06.33.33,0,0,0,.19-.43.34.34,0,0,0-.43-.19,5.79,5.79,0,0,0-3.36,3.5.33.33,0,0,0,.24.41Z" fill="#d25c48"/>
        <path id="Trazado_187809" data-name="Trazado 187809" d="M202.87,171.09a.41.41,0,0,0,.18-.05.33.33,0,0,0,.1-.46,3,3,0,0,0-1.27-1,.35.35,0,0,0-.45.17.34.34,0,0,0,.17.44,2.36,2.36,0,0,1,1,.76.35.35,0,0,0,.27.14Z" fill="#d25c48"/>
      </g>
      <path id="Trazado_187810" data-name="Trazado 187810" d="M194.59,180.32v7s-2.13,3.57-5,3.81-5.43-3.07-5.43-3.07v-7.24Z" fill="#f9a38f"/>
      <path id="Trazado_187811" data-name="Trazado 187811" d="M194.59,180.32v3.1c-1.93,2.1-5.36,2.63-10.44,1.89v-4.5Z" fill="#f9856b"/>
      <path id="Trazado_187812" data-name="Trazado 187812" d="M176.63,166.94a42.534,42.534,0,0,0,.58,4.6c1,5.16,3.11,10.22,7.76,11.85,10.51,3.68,14.27-5.16,15.77-10.31.17-.57.32-1.21.45-1.89.24-1.22.42-2.59.57-4,.17-1.68.28-3.37.36-4.86a7.29,7.29,0,0,0-4.76-7.14c-4.31-1.62-10.86-2.91-17.07.54A7.29,7.29,0,0,0,176.5,162C176.48,163.38,176.5,165.09,176.63,166.94Z" fill="#f9a38f"/>
      <path id="Trazado_187813" data-name="Trazado 187813" d="M176.63,166.94a42.534,42.534,0,0,0,.58,4.6c1,5.16,3.11,10.22,7.76,11.85,10.51,3.68,14.27-5.16,15.77-10.31.17-.57.32-1.21.45-1.89.24-1.22.42-2.59.57-4h-1.54c-.32,1-2,6.8-2.58,7.63-1.2-2.8-7.27-.94-7.27-.94h0a4,4,0,0,1-1.13.17,3.85,3.85,0,0,1-1.16-.18s-6-1.95-7.24.73c-.55-.83-2.52-6.79-2.88-7.42Zm12.56,8.24c6.87-.91,5.79,2.71,5.79,2.71a11.061,11.061,0,0,1-1.93,1.44,8,8,0,0,1-4,1.08c-1,0-1.34.17-4-1.25a6.44,6.44,0,0,1-1.41-1h0c-.17-.76-1.33-4.16,5.55-2.98Z" fill="#104c82"/>
      <path id="Trazado_187814" data-name="Trazado 187814" d="M184.66,168.07c0,.75-.4,1.35-.88,1.35s-.88-.6-.88-1.35.39-1.35.88-1.35S184.66,167.33,184.66,168.07Z" fill="#104c82"/>
      <path id="Trazado_187815" data-name="Trazado 187815" d="M195,168c0,.75-.39,1.36-.87,1.36s-.88-.61-.88-1.36.39-1.35.88-1.35S195,167.3,195,168Z" fill="#104c82"/>
      <path id="Trazado_187816" data-name="Trazado 187816" d="M180.3,164.25s3.36-1.3,5.95-.2l-.26,1.41s-3.8-.32-5.71.44a2.4,2.4,0,0,1,.02-1.65Z" fill="#104c82"/>
      <path id="Trazado_187817" data-name="Trazado 187817" d="M197,164.25s-3.36-1.3-5.95-.2l.26,1.41s3.8-.32,5.71.44a2.4,2.4,0,0,0-.02-1.65Z" fill="#104c82"/>
      <path id="Trazado_187818" data-name="Trazado 187818" d="M189.28,173.3a3.83,3.83,0,0,0,1.23-.25.33.33,0,0,0,.19-.43.36.36,0,0,0-.45-.19,2,2,0,0,1-1.36.13.37.37,0,0,1-.16-.31c-.12-1.16.2-5.05.2-5.09a.32.32,0,0,0-.31-.35.33.33,0,0,0-.36.3,46,46,0,0,0-.21,5.21,1,1,0,0,0,.5.81,1.38,1.38,0,0,0,.73.17Z" fill="#f9856b"/>
      <path id="Trazado_187819" data-name="Trazado 187819" d="M184.66,175.74c.27,1.36,1.19,3.88,4.3,3.88s4-2.3,4.28-3.88Z" fill="#fff9ff"/>
      <path id="Trazado_187820" data-name="Trazado 187820" d="M201.76,167.22h-1.54c.17-1.51.41-4.18-.85-4.56-4-1.2,1.18-4-.63-5.36s-6.3-.79-9.43-.89a67.93,67.93,0,0,0-9.43.23c-1.23.27-.56,2.27-.11,3.82s-1.51,3.27-1.84,4.87a7.38,7.38,0,0,0,0,1.89h-1.28c-.15-1.95-.17-3.77-.14-5.25a7.26,7.26,0,0,1,3.78-6.21c6.2-3.45,12.76-2.16,17.07-.54a7.29,7.29,0,0,1,4.76,7.14C202,163.85,201.93,165.54,201.76,167.22Z" fill="#104c82"/>
      <g id="Grupo_93310" data-name="Grupo 93310">
        <path id="Trazado_187821" data-name="Trazado 187821" d="M187.76,167.15a1.47,1.47,0,0,0-.14-.6,1.49,1.49,0,0,0-1.34-.85h-5.22a1.47,1.47,0,0,0-1.38,1,1.35,1.35,0,0,0-.1.53v.66a4.15,4.15,0,0,0,1.22,3,3.79,3.79,0,0,0,2.61,1.16h.14a4.23,4.23,0,0,0,4.21-4.23v-.6Zm-.61.6a3.6,3.6,0,0,1-3.6,3.61h-.12a3.22,3.22,0,0,1-2.2-1,3.53,3.53,0,0,1-1-2.53v-.66a.87.87,0,0,1,.87-.87h5.22a.87.87,0,0,1,.87.87Z" fill="#fff9ff"/>
        <path id="Trazado_187822" data-name="Trazado 187822" d="M198.15,166.79a1.5,1.5,0,0,0-1.43-1.09H191.5a1.49,1.49,0,0,0-1.35.89,1.53,1.53,0,0,0-.13.57v.69a4.19,4.19,0,0,0,1.22,3,3.79,3.79,0,0,0,2.62,1.16H194a4.23,4.23,0,0,0,4.21-4.23v-.56a1.341,1.341,0,0,0-.06-.43Zm-.56,1a3.61,3.61,0,0,1-1.07,2.57,3.55,3.55,0,0,1-2.52,1h-.13a3.22,3.22,0,0,1-2.2-1,3.52,3.52,0,0,1-1-2.53v-.66a.87.87,0,0,1,.86-.87h5.22a.87.87,0,0,1,.87.87Z" fill="#fff9ff"/>
        <path id="Trazado_187823" data-name="Trazado 187823" d="M176.58,166.06a7.43,7.43,0,0,1,2.48.6l.57.32.3-.52s-.39-.25-.53-.32a6.27,6.27,0,0,0-4.28-.38,3.19,3.19,0,0,1,1.46.3Z" fill="#fff9ff"/>
        <path id="Trazado_187824" data-name="Trazado 187824" d="M201.87,166a9,9,0,0,0-3.14.66l-.57.32-.3-.52s.39-.25.53-.32a6.94,6.94,0,0,1,4.53-.42,1.76,1.76,0,0,0-1.05.28Z" fill="#fff9ff"/>
        <path id="Trazado_187825" data-name="Trazado 187825" d="M187.35,167.21l-.2-.58a6.33,6.33,0,0,1,1.85-.31,4.14,4.14,0,0,1,1.68.32l-.27.56a3.33,3.33,0,0,0-1.41-.27A5.76,5.76,0,0,0,187.35,167.21Z" fill="#fff9ff"/>
      </g>
    </g>
    <g id="Grupo_93314" data-name="Grupo 93314" transform="translate(186.54 6004.791)">
      <path id="Trazado_187826" data-name="Trazado 187826" d="M486.65,343.32H410.59c1.25-7.63,7.31-13.18,14.36-13.16l23.67.07,23.67-.07C479.34,330.14,485.4,335.69,486.65,343.32Z" fill="#32c1b1"/>
      <g id="Grupo_93313" data-name="Grupo 93313">
        <rect id="Rectángulo_39186" data-name="Rectángulo 39186" width="4.14" height="64.24" transform="translate(416.57 342.22)" fill="#32c1b1"/>
        <rect id="Rectángulo_39187" data-name="Rectángulo 39187" width="4.14" height="64.24" transform="translate(476.53 342.22)" fill="#32c1b1"/>
        <rect id="Rectángulo_39188" data-name="Rectángulo 39188" width="55.81" height="4" transform="translate(420.72 362.1)" fill="#e21c47"/>
      </g>
    </g>
    <g id="Grupo_93327" data-name="Grupo 93327" transform="translate(186.54 6004.791)">
      <g id="Grupo_93315" data-name="Grupo 93315">
        <path id="Trazado_187827" data-name="Trazado 187827" d="M461.38,281.11l8.81,32.79a58.131,58.131,0,0,1-19.68,4.3c-1.13.07-2.3.11-3.5.11s-2.28,0-3.38-.05A74.2,74.2,0,0,1,423.48,315l9.36-33.9L424,253.52l17.6-6.85h9.68l19.16,7Z" fill="#039be5"/>
        <path id="Trazado_187828" data-name="Trazado 187828" d="M446.4,255.49c-7,0-7.46-8.05-7.46-8.13a.46.46,0,0,1,.44-.49.47.47,0,0,1,.49.45c0,.29.42,7.23,6.53,7.23,6.26,0,6.81-6.75,6.83-7a.47.47,0,0,1,.93.07C454.16,247.66,453.52,255.49,446.4,255.49Z" fill="#fff9ff"/>
        <path id="Trazado_187829" data-name="Trazado 187829" d="M435.42,264.19h0a29.12,29.12,0,0,0,15.95-5.51,28,28,0,0,0,5.63-5.2.4.4,0,0,0-.08-.57.42.42,0,0,0-.58.08c-.08.1-7.75,10-21,10.39a.43.43,0,0,0-.4.42.42.42,0,0,0,.48.39Z" fill="#024e73"/>
        <path id="Trazado_187830" data-name="Trazado 187830" d="M424,253.52s-8.9,12.34-8,27.3c.78,13.63,11.18,22.71,11.18,22.71l4-6.58s-4.55-8-4.78-16.13,2.21-12.93,2.21-12.93Z" fill="#039be5"/>
        <path id="Trazado_187831" data-name="Trazado 187831" d="M470.46,253.69s8.08,12.07,8.91,25.7-9.81,24.14-9.81,24.14l-4-6.58a38.561,38.561,0,0,0,4.21-15.43,21.41,21.41,0,0,0-4.54-13.63Z" fill="#039be5"/>
        <path id="Trazado_187832" data-name="Trazado 187832" d="M450.51,318.2c-1.13.07-2.3.11-3.5.11s-2.28,0-3.38-.05l3.27-22.33Z" fill="#fff9ff"/>
      </g>
      <path id="Trazado_187833" data-name="Trazado 187833" d="M422.6,323.28s10.64,10.89,25.14,10.89c17.62,0,25.13-8.86,25.13-8.86l-2.68-11.41-47.2,1Z" fill="#021019"/>
      <g id="Grupo_93316" data-name="Grupo 93316">
        <path id="Trazado_187834" data-name="Trazado 187834" d="M456.21,393.72l.3,6.63,6.38-1.34V393.5Z" fill="#f9a38f"/>
        <path id="Trazado_187835" data-name="Trazado 187835" d="M448.67,329.12a17.24,17.24,0,0,1,.38-4.74c1-5.56,4.2-16.89,13.8-15.61,12.67,1.69,8.81,25.78,8.81,25.78l-8.2,58.93-8.1.3S451.91,359.41,448.67,329.12Z" fill="#021019"/>
        <path id="Trazado_187836" data-name="Trazado 187836" d="M464.89,390.37l-10.35.78.15,4.1s6.84-.37,9.49-.67Z" fill="#104c82"/>
      </g>
      <path id="Trazado_187837" data-name="Trazado 187837" d="M410.54,308.91s11.54,17.24,24.7,24c14.07,7.29,20.69-6.07,20.69-6.07S424.58,304.89,410.54,308.91Z" fill="#021019"/>
      <g id="Grupo_93317" data-name="Grupo 93317">
        <path id="Trazado_187838" data-name="Trazado 187838" d="M472.53,305.74H421.58l-4.7-27.54a3.9,3.9,0,0,1,3.84-4.56h52.67a3.9,3.9,0,0,1,3.85,4.56Z" fill="#22d4b8"/>
        <path id="Trazado_187839" data-name="Trazado 187839" d="M421.58,305.74h51v2.74a3.25,3.25,0,0,1-3.25,3.25h-44.5a3.25,3.25,0,0,1-3.25-3.25Z" fill="#00a8a0"/>
        <path id="Trazado_187840" data-name="Trazado 187840" d="M452,290.83a4.42,4.42,0,1,1-1.295-3.135A4.43,4.43,0,0,1,452,290.83Z" fill="#00a8a0"/>
      </g>
      <g id="Grupo_93318" data-name="Grupo 93318">
        <path id="Trazado_187841" data-name="Trazado 187841" d="M480.34,330.55l6.47,1.42,1.04-5.59-6-2.35Z" fill="#f9a38f"/>
        <path id="Trazado_187842" data-name="Trazado 187842" d="M483.22,324.69a20.12,20.12,0,0,1-2.35,6.34S428,318.44,419.23,314.92a24.68,24.68,0,0,1-9-6.33,19.537,19.537,0,0,1-1.47-1.88c-2.71-4-3.17-8.38,1.12-11.39,8-5.62,17.53.06,17.53.06s10.93,1.44,30.72,14.05C466.85,315,483.22,324.69,483.22,324.69Z" fill="#104c82"/>
        <path id="Trazado_187843" data-name="Trazado 187843" d="M479.53,328.64l-.23.91c-.38-.1-38-9.81-52.19-14.3a110.467,110.467,0,0,1-16.86-6.66,19.544,19.544,0,0,1-1.47-1.88c3.41,2,9.18,4.65,18.61,7.64C441.54,318.84,479.15,328.55,479.53,328.64Z" fill="#021019"/>
        <path id="Trazado_187844" data-name="Trazado 187844" d="M480.31,321.91l-2.28,9,3.53.66s1.86-5.75,2.34-8.09Z" fill="#524e82"/>
      </g>
      <g id="Grupo_93322" data-name="Grupo 93322">
        <path id="Trazado_187845" data-name="Trazado 187845" d="M434.9,230.84s-5-8.63-.79-15.29,13.3-6,15.64-5.51,15.82,6.84,7.67,22.18Z" fill="#104c82"/>
        <g id="Grupo_93319" data-name="Grupo 93319">
          <path id="Trazado_187846" data-name="Trazado 187846" d="M435.74,228.4s-2-2.73-3.56-.47.63,8.9,4.35,7.28Z" fill="#f9856b"/>
          <path id="Trazado_187847" data-name="Trazado 187847" d="M435.71,233.15a.32.32,0,0,1-.3-.23,4.85,4.85,0,0,0-2.72-2.89.32.32,0,0,1-.19-.41.33.33,0,0,1,.41-.18,5.44,5.44,0,0,1,3.11,3.31.32.32,0,0,1-.22.39Z" fill="#d25c48"/>
          <path id="Trazado_187848" data-name="Trazado 187848" d="M433.57,232.12a.34.34,0,0,1-.17-.05.32.32,0,0,1-.1-.44,2.91,2.91,0,0,1,1.18-.95.318.318,0,0,1,.26.58,2.29,2.29,0,0,0-.91.71A.3.3,0,0,1,433.57,232.12Z" fill="#d25c48"/>
        </g>
        <g id="Grupo_93320" data-name="Grupo 93320">
          <path id="Trazado_187849" data-name="Trazado 187849" d="M456.8,228.4s2-2.73,3.56-.47-.63,8.9-4.35,7.28Z" fill="#f9856b"/>
          <path id="Trazado_187850" data-name="Trazado 187850" d="M456.82,233.15a.32.32,0,0,0,.31-.23,4.85,4.85,0,0,1,2.72-2.89.32.32,0,0,0,.19-.41.33.33,0,0,0-.41-.18,5.44,5.44,0,0,0-3.11,3.31.32.32,0,0,0,.22.39Z" fill="#d25c48"/>
          <path id="Trazado_187851" data-name="Trazado 187851" d="M459,232.12a.34.34,0,0,0,.17-.05.32.32,0,0,0,.1-.44,2.91,2.91,0,0,0-1.18-.95.318.318,0,1,0-.26.58,2.29,2.29,0,0,1,.91.71.3.3,0,0,0,.26.15Z" fill="#d25c48"/>
        </g>
        <path id="Trazado_187852" data-name="Trazado 187852" d="M451.3,240.85v6.62s-2,3.37-4.64,3.6-5-2.9-5-2.9v-6.85Z" fill="#f9a38f"/>
        <path id="Trazado_187853" data-name="Trazado 187853" d="M451.3,240.85v2.94c-1.79,2-5,2.48-9.68,1.79v-4.26Z" fill="#f9856b"/>
        <path id="Trazado_187854" data-name="Trazado 187854" d="M458.28,223.86a65.815,65.815,0,0,1-.86,8.36A18,18,0,0,1,457,234c-1.39,4.88-4.87,13.24-14.62,9.76-4.31-1.54-6.31-6.34-7.2-11.22a47.741,47.741,0,0,1-.65-9,6.92,6.92,0,0,1,3.51-5.88c5.75-3.26,11.83-2,15.83-.51A6.9,6.9,0,0,1,458.28,223.86Z" fill="#f9a38f"/>
        <path id="Trazado_187855" data-name="Trazado 187855" d="M443.64,214.44s12.87,20.64,14.64,13.07C460.8,216.78,453.11,210.14,443.64,214.44Z" fill="#104c82"/>
        <path id="Trazado_187856" data-name="Trazado 187856" d="M443.11,214.44c-8.57.06-12.82,9.79-8.85,10.94,5.52,1.6,10.31-6.22,11.79-8.93C445.06,215.79,444.06,215.14,443.11,214.44Z" fill="#104c82"/>
        <circle id="Elipse_7733" data-name="Elipse 7733" cx="8.47" cy="8.47" r="8.47" transform="translate(440.503 216.767) rotate(-80.38)" fill="#104c82"/>
        <path id="Trazado_187857" data-name="Trazado 187857" d="M436,224.46s.91,2.59,0,4.33-.18,4.72.23,8.07a8.59,8.59,0,0,1-2-5.32c-.09-3.27.45-6,0-7.3Z" fill="#104c82"/>
        <path id="Trazado_187858" data-name="Trazado 187858" d="M456.25,224.46a7.16,7.16,0,0,0,.24,4.33c.91,1.74-.07,4.77-.48,8.12a8.8,8.8,0,0,0,2-5.37c.09-3.27-.45-6,0-7.3Z" fill="#104c82"/>
        <path id="Trazado_187859" data-name="Trazado 187859" d="M442,229.18c0,.7-.37,1.27-.82,1.27s-.81-.57-.81-1.27.36-1.28.81-1.28S442,228.47,442,229.18Z" fill="#104c82"/>
        <path id="Trazado_187860" data-name="Trazado 187860" d="M452,229.18c0,.7-.37,1.27-.82,1.27s-.81-.57-.81-1.27.36-1.28.81-1.28S452,228.47,452,229.18Z" fill="#104c82"/>
        <path id="Trazado_187861" data-name="Trazado 187861" d="M439.55,225a13.481,13.481,0,0,1,3.48-.52.6.6,0,0,1,.6.71h0a.61.61,0,0,1-.62.5,15.149,15.149,0,0,0-4.76.58.89.89,0,0,1,.27-.64A2.13,2.13,0,0,1,439.55,225Z" fill="#104c82"/>
        <path id="Trazado_187862" data-name="Trazado 187862" d="M452.69,225a13.931,13.931,0,0,0-3.48-.52.6.6,0,0,0-.6.71h0a.61.61,0,0,0,.62.5,15.24,15.24,0,0,1,4.77.58.94.94,0,0,0-.28-.65,2.2,2.2,0,0,0-1.03-.62Z" fill="#104c82"/>
        <path id="Trazado_187863" data-name="Trazado 187863" d="M446.38,234.62a1.31,1.31,0,0,1-.68-.16.93.93,0,0,1-.46-.77,44.483,44.483,0,0,1,.19-4.93.311.311,0,1,1,.62.05s-.3,3.72-.19,4.82a.34.34,0,0,0,.16.29,1.828,1.828,0,0,0,1.26-.12.31.31,0,0,1,.41.17.32.32,0,0,1-.17.41,3.19,3.19,0,0,1-1.14.24Z" fill="#f9856b"/>
        <path id="Trazado_187864" data-name="Trazado 187864" d="M442.49,236.61a3.75,3.75,0,0,0,3.69,3.39c2.66,0,3.41-2,3.67-3.39Z" fill="#fff9ff"/>
        <path id="Trazado_187865" data-name="Trazado 187865" d="M446.14,241.84a3.28,3.28,0,0,1-1.48-.43.33.33,0,0,1-.1-.44.31.31,0,0,1,.43-.1h0a2.6,2.6,0,0,0,1.15.34,2.78,2.78,0,0,0,1.21-.34.314.314,0,1,1,.32.54A3.39,3.39,0,0,1,446.14,241.84Z" fill="#f9856b"/>
        <g id="Grupo_93321" data-name="Grupo 93321">
          <path id="Trazado_187866" data-name="Trazado 187866" d="M444.84,228.05a1.71,1.71,0,0,0-.15-.63,1.56,1.56,0,0,0-1.4-.88h-5.47a1.55,1.55,0,0,0-1.1.45,1.67,1.67,0,0,0-.35.55,1.46,1.46,0,0,0-.11.55v.7a4.35,4.35,0,0,0,1.28,3.11,4,4,0,0,0,2.74,1.21h.15a4.421,4.421,0,0,0,4.41-4.43Zm-.65.63a3.77,3.77,0,0,1-3.76,3.79h-.13a3.4,3.4,0,0,1-2.31-1,3.7,3.7,0,0,1-1.08-2.65v-.7a.91.91,0,0,1,.91-.91h5.47a.9.9,0,0,1,.9.91Z" fill="#fff9ff"/>
          <path id="Trazado_187867" data-name="Trazado 187867" d="M456.24,227.68a1.51,1.51,0,0,0-.29-.58,1.58,1.58,0,0,0-1.2-.56h-5.47a1.55,1.55,0,0,0-1.42.93,1.449,1.449,0,0,0-.13.59v.73A4.34,4.34,0,0,0,449,231.9a4,4,0,0,0,2.75,1.21h.14a4.421,4.421,0,0,0,4.42-4.43v-.59a1.141,1.141,0,0,0-.07-.41Zm-.58,1a3.79,3.79,0,0,1-3.77,3.79h-.13a3.42,3.42,0,0,1-2.31-1,3.74,3.74,0,0,1-1.08-2.65v-.7a.91.91,0,0,1,.91-.91h5.47a.91.91,0,0,1,.91.91Z" fill="#fff9ff"/>
          <path id="Trazado_187868" data-name="Trazado 187868" d="M444.53,228.12l-.21-.61a6.17,6.17,0,0,1,1.93-.33,4.42,4.42,0,0,1,1.77.34l-.28.58a3.89,3.89,0,0,0-1.49-.27,5.71,5.71,0,0,0-1.72.29Z" fill="#fff9ff"/>
        </g>
      </g>
      <g id="Grupo_93324" data-name="Grupo 93324">
        <path id="Trazado_187869" data-name="Trazado 187869" d="M458.88,398.64a30.183,30.183,0,0,1,4.24-1.06c.93,0,7.45,6.48,9.56,6.79,3.83.55,4.1,6.34,1.81,6.74-6.63,1.15-18.18-1.08-18.18-1.08s-1.4-7.39-1.05-9.75S457.05,399.41,458.88,398.64Z" fill="#22d4b8"/>
        <g id="Grupo_93323" data-name="Grupo 93323">
          <path id="Trazado_187870" data-name="Trazado 187870" d="M464.7,404.73a.46.46,0,0,1-.36-.05.44.44,0,0,1-.15-.62,7.09,7.09,0,0,1,2.47-2.4,3.26,3.26,0,0,1,3.27.23.45.45,0,0,1,.08.64.47.47,0,0,1-.65.08,2.3,2.3,0,0,0-2.3-.13,6.24,6.24,0,0,0-2.08,2A.51.51,0,0,1,464.7,404.73Z" fill="#fff9ff"/>
          <path id="Trazado_187871" data-name="Trazado 187871" d="M463.36,403.42a.46.46,0,0,1-.36-.05.45.45,0,0,1-.16-.62,7.26,7.26,0,0,1,2.48-2.4,3.26,3.26,0,0,1,3.27.23.45.45,0,0,1,.08.64.47.47,0,0,1-.65.08,2.3,2.3,0,0,0-2.3-.13,6.129,6.129,0,0,0-2.08,2.05.51.51,0,0,1-.28.2Z" fill="#fff9ff"/>
          <path id="Trazado_187872" data-name="Trazado 187872" d="M466.54,405.81a.42.42,0,0,1-.36-.05.44.44,0,0,1-.15-.62,7.09,7.09,0,0,1,2.47-2.4,3.24,3.24,0,0,1,3.27.24.44.44,0,0,1,.08.63.47.47,0,0,1-.65.08,2.3,2.3,0,0,0-2.3-.13,6.22,6.22,0,0,0-2.08,2.05.51.51,0,0,1-.28.2Z" fill="#fff9ff"/>
        </g>
      </g>
      <g id="Grupo_93326" data-name="Grupo 93326">
        <path id="Trazado_187873" data-name="Trazado 187873" d="M486,329.36a31,31,0,0,1,2.28-3.76c.66-.68,10.45-.75,12.22-2,3.22-2.33,7.89,1.55,6.52,3.47-4,5.53-14.11,12.19-14.11,12.19s-6.72-4.21-8.28-6.12S485.28,331.21,486,329.36Z" fill="#22d4b8"/>
        <g id="Grupo_93325" data-name="Grupo 93325">
          <path id="Trazado_187874" data-name="Trazado 187874" d="M495,329.51a.49.49,0,0,1-.89-.11,6.54,6.54,0,0,1,0-3.45,3.33,3.33,0,0,1,2.57-2.17.48.48,0,0,1,.54.39.46.46,0,0,1-.41.52,2.37,2.37,0,0,0-1.78,1.55,5.88,5.88,0,0,0,.06,2.93.45.45,0,0,1-.09.34Z" fill="#fff9ff"/>
          <path id="Trazado_187875" data-name="Trazado 187875" d="M493,329.54a.46.46,0,0,1-.3.22.47.47,0,0,1-.59-.33,6.54,6.54,0,0,1,0-3.45,3.33,3.33,0,0,1,2.57-2.17.48.48,0,0,1,.54.4.45.45,0,0,1-.41.51,2.37,2.37,0,0,0-1.78,1.56,5.83,5.83,0,0,0,.06,2.92.45.45,0,0,1-.09.34Z" fill="#fff9ff"/>
          <path id="Trazado_187876" data-name="Trazado 187876" d="M497.15,329a.46.46,0,0,1-.3.22.49.49,0,0,1-.6-.33,6.7,6.7,0,0,1,0-3.45,3.33,3.33,0,0,1,2.56-2.17.49.49,0,0,1,.55.4.45.45,0,0,1-.41.51,2.36,2.36,0,0,0-1.78,1.56,5.88,5.88,0,0,0,.05,2.92A.4.4,0,0,1,497.15,329Z" fill="#fff9ff"/>
        </g>
      </g>
    </g>
    <path id="Trazado_187877" data-name="Trazado 187877" d="M395.89,412.16H378.16a5.56,5.56,0,0,1-5.29-3.84l-7.52-23.15a1.54,1.54,0,0,1,1.35-2,260.446,260.446,0,0,1,40.67,0,1.54,1.54,0,0,1,1.34,2l-7.52,23.15a5.57,5.57,0,0,1-5.3,3.84Z" transform="translate(186.54 6004.791)" fill="#32c1b1"/>
    <ellipse id="Elipse_7734" data-name="Elipse 7734" cx="19.98" cy="1.11" rx="19.98" ry="1.11" transform="translate(553.71 6388.521)" fill="#104c82"/>
    <g id="Grupo_93329" data-name="Grupo 93329" transform="translate(186.54 6004.791)">
      <path id="Trazado_187878" data-name="Trazado 187878" d="M388,384.84V356a.94.94,0,0,0-1.88,0v28.87A1.75,1.75,0,0,0,388,384.84Z" fill="#00a8a0"/>
      <path id="Trazado_187879" data-name="Trazado 187879" d="M387,362.77S388.8,350,405.2,350C405.2,350,402.39,368.08,387,362.77Z" fill="#22d4b8"/>
      <path id="Trazado_187880" data-name="Trazado 187880" d="M387.87,366.7s-1.78-12.8-18.18-12.8C369.69,353.9,372.51,372,387.87,366.7Z" fill="#22d4b8"/>
      <path id="Trazado_187881" data-name="Trazado 187881" d="M388.05,378.08s-4.2-12.23-20.29-9.09C367.76,369,374,386.23,388.05,378.08Z" fill="#22d4b8"/>
      <path id="Trazado_187882" data-name="Trazado 187882" d="M387,378s12,4.69,20-9.63C407.05,368.34,389.86,362,387,378Z" fill="#22d4b8"/>
    </g>
  </g>
</svg>
