<svg xmlns="http://www.w3.org/2000/svg" width="300" height="300" viewBox="0 0 300 300">
  <g id="Grupo_94307" data-name="Grupo 94307" transform="translate(-926 -7550)">
    <rect id="Rectángulo_39223" data-name="Rectángulo 39223" width="300" height="300" transform="translate(926 7550)" fill="none"/>
    <path id="Trazado_188019" data-name="Trazado 188019" d="M7.27,56.88,6.18,86.85l7.37,3.35,1.63,4.22,13.21-5.37-1.81-4.26,2.52-7.87Z" transform="translate(926 7550)" fill="#cdebfa"/>
    <path id="Trazado_188020" data-name="Trazado 188020" d="M7.27,56.88l21.89,20h.05v.06c-.8,2.5-1.64,5.14-2.52,7.87v-.07c.57,1.35,1.19,2.79,1.81,4.26v.09h-.09l-6.74,2.74L15.2,94.46h-.1v-.09c-.55-1.43-1.1-2.84-1.63-4.23v.06L6.15,86.93H6.09v-.07c.69-17.54,1.15-29.13,1.18-30,0,.83-.41,12.43-1,30l-.06-.09,7.37,3.35h0c.53,1.39,1.07,2.8,1.63,4.23l-.14-.06,6.47-2.63L28.35,89l-.06.13-1.8-4.26h0c.88-2.73,1.73-5.37,2.53-7.87v.1Z" transform="translate(926 7550)" fill="#90b0d5"/>
    <path id="Trazado_188021" data-name="Trazado 188021" d="M20.3,75.44A4.26,4.26,0,0,1,18,81.07a4.42,4.42,0,0,1-5.73-2.34,4.27,4.27,0,0,1,2.35-5.64,4.42,4.42,0,0,1,5.68,2.35Z" transform="translate(926 7550)" fill="#90b0d5"/>
    <path id="Trazado_188022" data-name="Trazado 188022" d="M7.27,56.88c.06,0,2.11,4.49,4.59,10.06s4.45,10.12,4.4,10.14S14.15,72.6,11.67,67,7.22,56.91,7.27,56.88Z" transform="translate(926 7550)" fill="#90b0d5"/>
    <path id="Trazado_188023" data-name="Trazado 188023" d="M57.4,174.59h0a7,7,0,0,1-9.12-3.71L17.21,98.82,30.1,93.58l31,72a6.81,6.81,0,0,1-3.7,9.01Z" transform="translate(926 7550)" fill="#90b0d5"/>
    <path id="Trazado_188024" data-name="Trazado 188024" d="M31.34,93.07,16.18,99.24l-2.2-5.2,15.15-6.17Z" transform="translate(926 7550)" fill="#90b0d5"/>
    <path id="Trazado_188025" data-name="Trazado 188025" d="M21.54,203.79l-7.87,28.54,9.65,6.88,21.7,5.29,8.61-32.22Z" transform="translate(926 7550)" fill="#cdebfa"/>
    <path id="Trazado_188026" data-name="Trazado 188026" d="M17.86,231.05l-4.19,1.28a12.65,12.65,0,0,0,3.39,3.95,18.25,18.25,0,0,0,6.26,2.93,12.21,12.21,0,0,1-5.46-8.16Z" transform="translate(926 7550)" fill="#90b0d5"/>
    <path id="Trazado_188027" data-name="Trazado 188027" d="M47.36,221.52s-5.49-1.35-12.23-3.12S23,215.13,23,215.08s5.49,1.34,12.22,3.12S47.37,221.47,47.36,221.52Z" transform="translate(926 7550)" fill="#90b0d5"/>
    <path id="Trazado_188028" data-name="Trazado 188028" d="M46.09,225.89c0,.05-5.49-1.34-12.23-3.12s-12.18-3.27-12.17-3.32,5.49,1.35,12.23,3.12S46.1,225.84,46.09,225.89Z" transform="translate(926 7550)" fill="#90b0d5"/>
    <path id="Trazado_188029" data-name="Trazado 188029" d="M45.19,229.83S39.71,228.48,33,226.7s-12.19-3.26-12.17-3.31,5.48,1.34,12.22,3.12S45.21,229.77,45.19,229.83Z" transform="translate(926 7550)" fill="#90b0d5"/>
    <path id="Trazado_188030" data-name="Trazado 188030" d="M44.18,233.58s-5.49-1.35-12.23-3.13-12.18-3.26-12.17-3.31,5.49,1.34,12.23,3.12S44.19,233.52,44.18,233.58Z" transform="translate(926 7550)" fill="#90b0d5"/>
    <path id="Trazado_188031" data-name="Trazado 188031" d="M272.84,177.63l-6.01,21.77,7.37,5.25,16.55,4.03,6.56-24.58Z" transform="translate(926 7550)" fill="#cdebfa"/>
    <path id="Trazado_188032" data-name="Trazado 188032" d="M270,198.42l-3.2,1a9.7,9.7,0,0,0,2.59,3,14.209,14.209,0,0,0,4.78,2.24,9.36,9.36,0,0,1-4.17-6.24Z" transform="translate(926 7550)" fill="#90b0d5"/>
    <path id="Trazado_188033" data-name="Trazado 188033" d="M292.53,191.15s-4.19-1-9.32-2.38-9.3-2.49-9.29-2.53,4.19,1,9.33,2.38S292.54,191.11,292.53,191.15Z" transform="translate(926 7550)" fill="#90b0d5"/>
    <path id="Trazado_188034" data-name="Trazado 188034" d="M291.56,194.48c0,.05-4.18-1-9.32-2.38s-9.3-2.49-9.29-2.53,4.19,1,9.33,2.39S291.57,194.44,291.56,194.48Z" transform="translate(926 7550)" fill="#90b0d5"/>
    <path id="Trazado_188035" data-name="Trazado 188035" d="M290.88,197.49s-4.18-1-9.32-2.39-9.3-2.48-9.29-2.52,4.19,1,9.33,2.38S290.89,197.45,290.88,197.49Z" transform="translate(926 7550)" fill="#90b0d5"/>
    <path id="Trazado_188036" data-name="Trazado 188036" d="M290.11,200.35s-4.19-1-9.33-2.39-9.29-2.49-9.28-2.53,4.18,1,9.32,2.39S290.12,200.31,290.11,200.35Z" transform="translate(926 7550)" fill="#90b0d5"/>
    <path id="Trazado_188037" data-name="Trazado 188037" d="M241.1,69.42l-7.94,2-.39,2.43a5.08,5.08,0,0,0,0,1.92,1.55,1.55,0,0,0,1.12,1.2,6.41,6.41,0,0,0,2.3-.17l.16.62-7.47,1.91-.16-.61a3.49,3.49,0,0,0,1.73-1.52,13.761,13.761,0,0,0,1.06-3.88l3.45-20,.31-.08L248.09,69.6a11.479,11.479,0,0,0,2.75,2.81,2.69,2.69,0,0,0,1.75.19l.15.61L241.87,76l-.16-.62.45-.11a3.45,3.45,0,0,0,1.75-.84.91.91,0,0,0,.17-.85,2,2,0,0,0-.26-.59,7.771,7.771,0,0,0-.81-1.12Zm-.88-1.08-5.33-6.89-1.47,8.62Z" transform="translate(926 7550)" fill="#90b0d5"/>
    <rect id="Rectángulo_39224" data-name="Rectángulo 39224" width="32.07" height="29.18" rx="8.92" transform="translate(1186.025 7675.507) rotate(1.68)" fill="#90b0d5"/>
    <path id="Trazado_188038" data-name="Trazado 188038" d="M259.38,147.48l10.82-7.26a2.17,2.17,0,0,1,2.84.11l5.33,2.73,7.61-7.44a2.25,2.25,0,0,1,3.24.28l2.48,3.1-.12,12.79a3.65,3.65,0,0,1-3.77,3.62l-25-.79a3.67,3.67,0,0,1-3.54-3.79Z" transform="translate(926 7550)" fill="#90b0d5"/>
    <circle id="Elipse_7740" data-name="Elipse 7740" cx="3.21" cy="3.21" r="3.21" transform="translate(1194.45 7680.43)" fill="#90b0d5"/>
    <path id="Trazado_188039" data-name="Trazado 188039" d="M146.88,245.06a14,14,0,1,1-18.09-7.84,14,14,0,0,1,18.09,7.84Z" transform="translate(926 7550)" fill="#cdebfa"/>
    <path id="Trazado_188040" data-name="Trazado 188040" d="M143.79,246.28a10.61,10.61,0,1,1-5.644-5.861A10.63,10.63,0,0,1,143.79,246.28Z" transform="translate(926 7550)" fill="#90b0d5"/>
    <path id="Trazado_188041" data-name="Trazado 188041" d="M143.66,246a6.571,6.571,0,0,1-.73-1.09,11.11,11.11,0,0,0-2.33-2.58,10.93,10.93,0,0,0-2-1.28,10.52,10.52,0,0,0-2.59-.87,10.651,10.651,0,0,0-3-.15,10.777,10.777,0,0,0-1.57.28,11,11,0,0,0-1.56.52,11.769,11.769,0,0,0-1.45.77,11.171,11.171,0,0,0-1.28,1,10.17,10.17,0,0,0-1.08,1.1,8.821,8.821,0,0,0-.87,1.19,10.53,10.53,0,0,0-1.15,2.47,10.811,10.811,0,0,0-.46,2.35,11.38,11.38,0,0,0,.27,3.47,6.311,6.311,0,0,1,.29,1.28,3.16,3.16,0,0,1-.59-1.19,9.7,9.7,0,0,1-.54-3.59,10.27,10.27,0,0,1,.38-2.51,10.879,10.879,0,0,1,1.16-2.68,10.061,10.061,0,0,1,.91-1.29,10.74,10.74,0,0,1,1.15-1.19,10.171,10.171,0,0,1,1.38-1,11.576,11.576,0,0,1,1.56-.83,11.458,11.458,0,0,1,1.68-.57,11,11,0,0,1,1.69-.28,10.262,10.262,0,0,1,1.66,0,11.191,11.191,0,0,1,1.57.23,10.419,10.419,0,0,1,2.75,1,10.861,10.861,0,0,1,2.08,1.44,9.89,9.89,0,0,1,2.24,2.86,3.05,3.05,0,0,1,.43,1.14Z" transform="translate(926 7550)" fill="#90b0d5"/>
    <path id="Trazado_188042" data-name="Trazado 188042" d="M137.34,255.63l.7,1.72-1.53.63-.68-1.67a7.85,7.85,0,0,1-4.31.34l.07-2.21a6.68,6.68,0,0,0,3.42-.14l-1-2.55c-1.87.28-4,.5-4.9-1.69-.67-1.62-.06-3.5,2.24-4.77l-.69-1.69,1.53-.63.68,1.67a7.49,7.49,0,0,1,3.49-.35v2.2a6.89,6.89,0,0,0-2.67.16l1.07,2.61c1.86-.3,4-.5,4.84,1.65C140.22,252.5,139.62,254.36,137.34,255.63ZM133,249.5l-.89-2.17c-.74.52-.87,1.09-.67,1.6S132.27,249.56,133,249.5Zm4.15,2.61c-.22-.54-.79-.65-1.54-.61l.87,2.11c.73-.48.9-1.01.7-1.5Z" transform="translate(926 7550)" fill="#90b0d5"/>
    <path id="Trazado_188043" data-name="Trazado 188043" d="M94,71.61H67.5a2.24,2.24,0,0,1-2.24-2.35L65.8,58A2.24,2.24,0,0,1,68,55.9H94.53a2.24,2.24,0,0,1,2.24,2.35l-.54,11.22A2.24,2.24,0,0,1,94,71.61Z" transform="translate(926 7550)" fill="#fafafa"/>
    <path id="Trazado_188044" data-name="Trazado 188044" d="M94,71.61a2.78,2.78,0,0,0,.87-.21,2.16,2.16,0,0,0,.85-.66,2.23,2.23,0,0,0,.47-1.37c.1-2.28.24-5.55.42-9.59,0-1,.32-2.15-.42-3A2.08,2.08,0,0,0,94.81,56H68a2.14,2.14,0,0,0-1.81,1,2.28,2.28,0,0,0-.3,1,8.547,8.547,0,0,1-.05,1.13c-.08,1.5-.15,3-.22,4.44s-.14,2.89-.21,4.29v1a2.7,2.7,0,0,0,.07,1,2.12,2.12,0,0,0,1.24,1.37,2.43,2.43,0,0,0,.93.16H93.76a.82.82,0,0,1,.23,0H67.64A2.4,2.4,0,0,1,65.22,70a3,3,0,0,1-.08-1V68c.07-1.4.14-2.83.2-4.28s.14-2.94.22-4.44V58.14A2.38,2.38,0,0,1,68,55.76H94.84a2.36,2.36,0,0,1,1.51.85,2.41,2.41,0,0,1,.52,1.58c0,.53-.05,1-.08,1.55-.21,4-.38,7.31-.5,9.58a2.32,2.32,0,0,1-.52,1.42,2.23,2.23,0,0,1-.89.66,2.26,2.26,0,0,1-.66.16,1.34,1.34,0,0,1-.22.05Z" transform="translate(926 7550)" fill="#1a2e35"/>
    <path id="Trazado_188045" data-name="Trazado 188045" d="M176.39,71.7l1.14-7.09,4.83-2.81,3.96,4.25-1.19,7.28Z" transform="translate(926 7550)" fill="#ffa726"/>
    <path id="Trazado_188046" data-name="Trazado 188046" d="M198.73,79.19l-5.87,128.68-94.54-2.69-5.62-9.82L102.86,75.77l87.99-5.83Z" transform="translate(926 7550)" fill="#90b0d5"/>
    <g id="Grupo_93407" data-name="Grupo 93407" transform="translate(926 7550)" opacity="0.3">
      <path id="Trazado_188047" data-name="Trazado 188047" d="M192.86,207.87l-7.87-9.25,5.86-128.68,7.88,9.25Z"/>
    </g>
    <g id="Grupo_93408" data-name="Grupo 93408" transform="translate(926 7550)">
      <path id="Trazado_188048" data-name="Trazado 188048" d="M190.85,69.94l-5.86,128.68L92.7,195.36,99.68,68.64Z" fill="#fafafa"/>
      <path id="Trazado_188049" data-name="Trazado 188049" d="M190.85,69.94,99.68,68.75l.11-.1c-2,35.41-4.35,79.27-7,126.71l-.13-.14,1.52.05L185,198.5l-.13.11c3.54-76,5.94-127.57,6-128.67,0,1.1-2.35,52.69-5.74,128.69v.12H185l-90.77-3.19-1.52-.06h-.14v-.14c2.62-47.44,5-91.31,7-126.72v-.1h.11Z" fill="#1a2e35"/>
    </g>
    <rect id="Rectángulo_39225" data-name="Rectángulo 39225" width="34.69" height="3.66" rx="1.83" transform="translate(1069.756 7650.652) rotate(-178.32)" fill="#90b0d5"/>
    <rect id="Rectángulo_39226" data-name="Rectángulo 39226" width="34.69" height="3.66" rx="1.83" transform="translate(1069.443 7657.714) rotate(-178.32)" fill="#90b0d5"/>
    <rect id="Rectángulo_39227" data-name="Rectángulo 39227" width="34.69" height="3.66" rx="1.83" transform="translate(1069.13 7664.796) rotate(-178.32)" fill="#90b0d5"/>
    <rect id="Rectángulo_39228" data-name="Rectángulo 39228" width="34.69" height="3.66" rx="1.83" transform="translate(1068.828 7671.869) rotate(-178.32)" fill="#90b0d5"/>
    <rect id="Rectángulo_39229" data-name="Rectángulo 39229" width="34.69" height="3.66" rx="1.83" transform="translate(1068.515 7678.94) rotate(-178.32)" fill="#90b0d5"/>
    <rect id="Rectángulo_39230" data-name="Rectángulo 39230" width="34.69" height="3.66" rx="1.83" transform="translate(1068.202 7686.013) rotate(-178.32)" fill="#90b0d5"/>
    <rect id="Rectángulo_39231" data-name="Rectángulo 39231" width="34.69" height="3.66" rx="1.83" transform="translate(1067.889 7693.095) rotate(-178.32)" fill="#90b0d5"/>
    <rect id="Rectángulo_39232" data-name="Rectángulo 39232" width="34.69" height="3.66" rx="1.83" transform="translate(1106.43 7687.073) rotate(-178.32)" fill="#90b0d5"/>
    <rect id="Rectángulo_39233" data-name="Rectángulo 39233" width="34.69" height="3.66" rx="1.83" transform="translate(1106.117 7694.145) rotate(-178.32)" fill="#90b0d5"/>
    <rect id="Rectángulo_39234" data-name="Rectángulo 39234" width="34.69" height="3.66" rx="1.83" transform="translate(1105.745 7701.609) rotate(-178.32)" fill="#90b0d5"/>
    <rect id="Rectángulo_39235" data-name="Rectángulo 39235" width="34.69" height="3.66" rx="1.83" transform="translate(1105.374 7709.063) rotate(-178.32)" fill="#90b0d5"/>
    <rect id="Rectángulo_39236" data-name="Rectángulo 39236" width="34.69" height="3.66" rx="1.83" transform="translate(1104.992 7716.517) rotate(-178.32)" fill="#90b0d5"/>
    <rect id="Rectángulo_39237" data-name="Rectángulo 39237" width="34.69" height="3.66" rx="1.83" transform="translate(1104.621 7723.981) rotate(-178.32)" fill="#90b0d5"/>
    <rect id="Rectángulo_39238" data-name="Rectángulo 39238" width="34.69" height="3.66" rx="1.83" transform="translate(1104.24 7731.436) rotate(-178.32)" fill="#90b0d5"/>
    <rect id="Rectángulo_39239" data-name="Rectángulo 39239" width="3.66" height="73.61" rx="1.23" transform="translate(1030.043 7735.992) rotate(-88.32)" fill="#90b0d5"/>
    <rect id="Rectángulo_39240" data-name="Rectángulo 39240" width="24.2" height="3.66" rx="1.83" transform="translate(1059.821 7641.122) rotate(-178.32)" fill="#90b0d5"/>
    <path id="Trazado_188050" data-name="Trazado 188050" d="M97.8,198.26h.44l1.33.05,5.1.2,19,.66,64,2.17h.14v-.14c.25-5.08.5-10.42.76-15.85,1.36-29.19,2.6-55.6,3.5-74.73.43-9.56.78-17.29,1-22.65.12-2.67.21-4.74.27-6.15a11.712,11.712,0,0,1,.06-1.61,1.211,1.211,0,0,0,0-.54v.54c0,.36-.05.9-.09,1.6-.07,1.42-.18,3.49-.31,6.16-.27,5.35-.65,13.08-1.12,22.64-.92,19.13-2.18,45.54-3.58,74.73-.26,5.43-.51,10.76-.75,15.85l.14-.13-64-2.07-18.95-.58-5.11-.15H97.8Z" transform="translate(926 7550)" fill="#1a2e35"/>
    <path id="Trazado_188051" data-name="Trazado 188051" d="M105.29,202.11h.43l1.25.06,4.82.19,17.93.69,60.84,2.23h.14v-.13c.33-6.14.67-12.53,1-19.05,1.5-28.8,2.86-54.86,3.84-73.74.48-9.43.87-17.06,1.14-22.34.12-2.64.22-4.69.29-6.08,0-.69.05-1.22.07-1.58a3.65,3.65,0,0,0,0-.54v.54c0,.36-.05.89-.1,1.58-.08,1.39-.19,3.44-.34,6.07-.29,5.28-.71,12.91-1.23,22.34-1,18.87-2.39,44.94-3.92,73.73-.34,6.53-.68,12.91-1,19l.14-.13-60.84-2.13-17.94-.61-4.82-.14h-1.25Z" transform="translate(926 7550)" fill="#1a2e35"/>
    <g id="Grupo_93409" data-name="Grupo 93409" transform="translate(926 7550)">
      <path id="Trazado_188052" data-name="Trazado 188052" d="M135.85,68.3l1.4-1.37,16.62.09.8,1.51Z" fill="#1a2e35"/>
      <rect id="Rectángulo_39241" data-name="Rectángulo 39241" width="7.92" height="18.82" transform="translate(154.67 68.527) rotate(90.72)" fill="#1a2e35"/>
      <rect id="Rectángulo_39242" data-name="Rectángulo 39242" width="1.58" height="20.13" rx="0.79" transform="translate(155.596 75.976) rotate(90.573)" fill="#1a2e35"/>
      <path id="Trazado_188053" data-name="Trazado 188053" d="M149.34,74.46h0l-8.28-.11a.72.72,0,0,1-.59-.31.73.73,0,0,1-.09-.67l2.44-6.56a4.317,4.317,0,1,1,5.04.09L150,73.5a.74.74,0,0,1-.11.66A.7.7,0,0,1,149.34,74.46Zm-4-14.91h-.1a3.8,3.8,0,0,0-2,7l.17.11-2.58,6.94a.21.21,0,0,0,0,.19.19.19,0,0,0,.17.09l8.27.11a.19.19,0,0,0,.17-.09.21.21,0,0,0,0-.19l-2.3-7,.17-.11a3.8,3.8,0,0,0-2-7Z" fill="#375a64"/>
      <path id="Trazado_188054" data-name="Trazado 188054" d="M154.44,75.78h-2.73l-6.56-.11-6.57-.08h.01c1.68,0,4,.09,6.57.12s4.88.06,6.56.06h2.54C154.38,75.79,154.44,75.79,154.44,75.78Z" fill="#375a64"/>
      <path id="Trazado_188055" data-name="Trazado 188055" d="M154.71,68.37H152l-6.56-.11-6.57-.07h-2.53a.58.58,0,0,0-.19,0h2.73c1.68,0,4,.09,6.57.12s4.88.06,6.56.07h2.54Z" fill="#375a64"/>
    </g>
    <g id="Grupo_93410" data-name="Grupo 93410" transform="translate(926 7550)">
      <rect id="Rectángulo_39243" data-name="Rectángulo 39243" width="32.07" height="29.18" rx="8.92" transform="translate(107.35 147.361) rotate(1.68)" fill="#90b0d5"/>
      <path id="Trazado_188056" data-name="Trazado 188056" d="M106.7,169.74a.79.79,0,0,1,.35-.63l10.49-7a2.17,2.17,0,0,1,2.77.05l.14.1,4.76,2.44a.77.77,0,0,0,.9-.14l7.21-7a2.24,2.24,0,0,1,3.24.27l2.31,2.91a.79.79,0,0,1,.17.49l-.11,11.73a4.42,4.42,0,0,1-4.57,4.38l-23.46-.74a4.43,4.43,0,0,1-4.28-4.59Z" fill="#90b0d5"/>
      <circle id="Elipse_7741" data-name="Elipse 7741" cx="3.21" cy="3.21" r="3.21" transform="translate(114.846 153.629) rotate(-20.55)" fill="#90b0d5"/>
    </g>
    <g id="Grupo_93411" data-name="Grupo 93411" transform="translate(926 7550)">
      <rect id="Rectángulo_39244" data-name="Rectángulo 39244" width="32.07" height="29.18" rx="8.92" transform="translate(148.77 97.967) rotate(1.68)" fill="#90b0d5"/>
      <path id="Trazado_188057" data-name="Trazado 188057" d="M148.13,120,159,112.68a2.17,2.17,0,0,1,2.84.11l5.33,2.74,7.61-7.44a2.24,2.24,0,0,1,3.24.27l2.48,3.12-.1,11.23a5.18,5.18,0,0,1-5.35,5.13l-21.92-.69a5.18,5.18,0,0,1-5-5.38Z" fill="#90b0d5"/>
      <circle id="Elipse_7742" data-name="Elipse 7742" cx="3.21" cy="3.21" r="3.21" transform="translate(157.21 102.89)" fill="#90b0d5"/>
    </g>
    <path id="Trazado_188058" data-name="Trazado 188058" d="M111.57,115.12a1.2,1.2,0,0,1-.42-.11,2.38,2.38,0,0,1-1-.81,2.74,2.74,0,0,1-.47-1.92A3.88,3.88,0,0,1,111,110a6.73,6.73,0,0,1,2.86-1.4,15.93,15.93,0,0,1,11.65,1.57,5.91,5.91,0,0,1,1.71,1.43,3.55,3.55,0,0,1,.76,2,2.7,2.7,0,0,1-.76,1.95,4.45,4.45,0,0,1-1.7,1.07,11.469,11.469,0,0,1-3.61.58,21.388,21.388,0,0,1-3.17-.13,20.28,20.28,0,0,1-4.46-1.08,12.36,12.36,0,0,1-1.15-.48l-.39-.19a2.782,2.782,0,0,1,.41.14c.26.11.66.26,1.17.43A21.14,21.14,0,0,0,121.9,117a11.65,11.65,0,0,0,3.52-.59,4.35,4.35,0,0,0,1.6-1,2.44,2.44,0,0,0,.68-1.77,3.21,3.21,0,0,0-.71-1.87,5.49,5.49,0,0,0-1.62-1.36,15.88,15.88,0,0,0-7.9-2,16.071,16.071,0,0,0-3.57.44,6.56,6.56,0,0,0-2.78,1.33,3.68,3.68,0,0,0-1.25,2.16,2.6,2.6,0,0,0,.41,1.84,2.33,2.33,0,0,0,.89.82C111.42,115.08,111.57,115.11,111.57,115.12Z" transform="translate(926 7550)" fill="#1a2e35"/>
    <path id="Trazado_188059" data-name="Trazado 188059" d="M125.06,188.07a1.17,1.17,0,0,1-.42-.12,2.25,2.25,0,0,1-1-.8,2.74,2.74,0,0,1-.47-1.92,3.83,3.83,0,0,1,1.27-2.29,6.58,6.58,0,0,1,2.85-1.4,15.309,15.309,0,0,1,3.62-.47,16,16,0,0,1,8,2,5.87,5.87,0,0,1,1.7,1.43,3.56,3.56,0,0,1,.77,2,2.7,2.7,0,0,1-.76,2,4.6,4.6,0,0,1-1.7,1.07,11.47,11.47,0,0,1-3.61.58,20,20,0,0,1-3.17-.14,19.661,19.661,0,0,1-4.46-1.07c-.51-.19-.9-.35-1.16-.48a2.54,2.54,0,0,1-.38-.19l.41.14c.26.11.65.26,1.16.43a21.21,21.21,0,0,0,7.59,1.09,11.43,11.43,0,0,0,3.53-.6,4.22,4.22,0,0,0,1.6-1,2.46,2.46,0,0,0,.68-1.76,3.34,3.34,0,0,0-.71-1.88,5.69,5.69,0,0,0-1.63-1.36,15.86,15.86,0,0,0-11.46-1.58,6.44,6.44,0,0,0-2.78,1.33,3.63,3.63,0,0,0-1.25,2.16,2.66,2.66,0,0,0,.4,1.84,2.37,2.37,0,0,0,.9.81A2.159,2.159,0,0,1,125.06,188.07Z" transform="translate(926 7550)" fill="#1a2e35"/>
    <path id="Trazado_188060" data-name="Trazado 188060" d="M109.4,91.23a1.2,1.2,0,0,1-.42-.11,2.38,2.38,0,0,1-1-.81,2.74,2.74,0,0,1-.47-1.92,3.83,3.83,0,0,1,1.27-2.28,6.63,6.63,0,0,1,2.86-1.41,15.93,15.93,0,0,1,11.65,1.57A5.91,5.91,0,0,1,125,87.7a3.55,3.55,0,0,1,.76,2,2.7,2.7,0,0,1-.76,2,4.45,4.45,0,0,1-1.7,1.07,11.47,11.47,0,0,1-3.61.58,21.391,21.391,0,0,1-3.17-.13,20.28,20.28,0,0,1-4.46-1.08c-.51-.19-.89-.35-1.15-.47l-.39-.2a2.78,2.78,0,0,1,.41.14c.26.11.66.26,1.17.43a21.26,21.26,0,0,0,4.44,1,20,20,0,0,0,3.15.11,11.65,11.65,0,0,0,3.52-.59,4.35,4.35,0,0,0,1.6-1,2.44,2.44,0,0,0,.68-1.77,3.21,3.21,0,0,0-.71-1.87,5.49,5.49,0,0,0-1.62-1.36,15.88,15.88,0,0,0-7.9-2,16.07,16.07,0,0,0-3.57.44A6.56,6.56,0,0,0,109,86.25a3.68,3.68,0,0,0-1.25,2.16,2.6,2.6,0,0,0,.41,1.84,2.545,2.545,0,0,0,1.24.98Z" transform="translate(926 7550)" fill="#1a2e35"/>
    <path id="Trazado_188061" data-name="Trazado 188061" d="M189.52,164.5l7.18.18,3.43,4.42-3.69,4.49-7.37-.21Z" transform="translate(926 7550)" fill="#32c1b1"/>
    <path id="Trazado_188062" data-name="Trazado 188062" d="M190.2,151.91l7.18.18,3.43,4.41-3.69,4.5-7.37-.22Z" transform="translate(926 7550)" fill="#375a64"/>
    <rect id="Rectángulo_39245" data-name="Rectángulo 39245" width="23.25" height="0.65" rx="0.325" transform="translate(995.39 7611.36)" fill="#90b0d5"/>
    <rect id="Rectángulo_39246" data-name="Rectángulo 39246" width="23.25" height="0.65" rx="0.325" transform="translate(995.39 7613.43)" fill="#90b0d5"/>
    <rect id="Rectángulo_39247" data-name="Rectángulo 39247" width="23.25" height="0.65" rx="0.325" transform="translate(995.39 7615.5)" fill="#90b0d5"/>
    <path id="Trazado_188063" data-name="Trazado 188063" d="M96.83,63.29c.06,0,3.67,4.63,8.07,10.45s7.91,10.57,7.85,10.61-3.67-4.63-8.07-10.45S96.77,63.33,96.83,63.29Z" transform="translate(926 7550)" fill="#1a2e35"/>
    <circle id="Elipse_7743" data-name="Elipse 7743" cx="0.88" cy="0.88" r="0.88" transform="translate(1021.82 7611.99)" fill="#1a2e35"/>
    <path id="Trazado_188064" data-name="Trazado 188064" d="M121.3,242.1H94.81a2.24,2.24,0,0,1-2.24-2.35l.53-11.23a2.25,2.25,0,0,1,2.25-2.13h26.48a2.25,2.25,0,0,1,2.25,2.35L123.54,240A2.25,2.25,0,0,1,121.3,242.1Z" transform="translate(926 7550)" fill="#fafafa"/>
    <path id="Trazado_188065" data-name="Trazado 188065" d="M121.3,242.1a3.22,3.22,0,0,0,.87-.21,2.21,2.21,0,0,0,1.32-2c.1-2.28.24-5.55.42-9.59,0-1,.32-2.15-.42-3a2.08,2.08,0,0,0-1.37-.76H95.38a2.14,2.14,0,0,0-1.81,1,2.28,2.28,0,0,0-.3,1l-.06,1.13q-.11,2.25-.21,4.44t-.21,4.29l-.05,1a2.65,2.65,0,0,0,.07,1A2.11,2.11,0,0,0,94,241.82a2.25,2.25,0,0,0,1,.18h13.23l9.6.05H95a2.41,2.41,0,0,1-1-.17,2.37,2.37,0,0,1-1.4-1.53,3,3,0,0,1-.08-1.07c0-.35,0-.7,0-1,.07-1.4.13-2.83.2-4.28s.14-2.94.21-4.44l.06-1.14a2.38,2.38,0,0,1,2.38-2.29h26.77a2.33,2.33,0,0,1,1.5.85,2.36,2.36,0,0,1,.53,1.58c0,.53-.06,1-.08,1.55-.21,4-.38,7.31-.5,9.58a2.32,2.32,0,0,1-.52,1.42,2.23,2.23,0,0,1-.89.66,2.26,2.26,0,0,1-.66.16Z" transform="translate(926 7550)" fill="#1a2e35"/>
    <rect id="Rectángulo_39248" data-name="Rectángulo 39248" width="23.25" height="0.65" rx="0.325" transform="translate(1022.7 7781.85)" fill="#90b0d5"/>
    <rect id="Rectángulo_39249" data-name="Rectángulo 39249" width="23.25" height="0.65" rx="0.325" transform="translate(1022.7 7783.92)" fill="#90b0d5"/>
    <rect id="Rectángulo_39250" data-name="Rectángulo 39250" width="23.25" height="0.65" rx="0.325" transform="translate(1022.7 7785.99)" fill="#90b0d5"/>
    <path id="Trazado_188066" data-name="Trazado 188066" d="M131.32,189.61c.07,0-4.17,8.3-9.46,18.45s-9.63,18.36-9.7,18.33,4.17-8.3,9.46-18.45S131.26,189.58,131.32,189.61Z" transform="translate(926 7550)" fill="#1a2e35"/>
    <path id="Trazado_188067" data-name="Trazado 188067" d="M113.05,226.39a.89.89,0,1,1-.89-.89.88.88,0,0,1,.89.89Z" transform="translate(926 7550)" fill="#1a2e35"/>
    <path id="Trazado_188068" data-name="Trazado 188068" d="M200,232.1h76.47a1.59,1.59,0,0,1,1.59,1.59h0a1.59,1.59,0,0,1-1.59,1.59H200Z" transform="translate(926 7550)" fill="#32c1b1"/>
    <path id="Trazado_188069" data-name="Trazado 188069" d="M199,233.94c0,.06-6.44.11-14.38.11s-14.38-.05-14.38-.11,6.44-.12,14.38-.12S199,233.88,199,233.94Z" transform="translate(926 7550)" fill="#1a2e35"/>
    <g id="Grupo_93416" data-name="Grupo 93416" transform="translate(926 7550)">
      <path id="Trazado_188070" data-name="Trazado 188070" d="M175.14,216.17h34.4v19.11h-34.4a9.55,9.55,0,0,1-9.55-9.55h0a9.55,9.55,0,0,1,9.55-9.56Z" fill="#32c1b1"/>
      <path id="Trazado_188071" data-name="Trazado 188071" d="M200.74,216.17h75.75a1.59,1.59,0,0,1,1.59,1.59h0a1.59,1.59,0,0,1-1.59,1.59H200.74a.72.72,0,0,1-.72-.72V216.9a.72.72,0,0,1,.72-.72Z" fill="#32c1b1"/>
      <path id="Trazado_188072" data-name="Trazado 188072" d="M275.75,232.1h-67a6.37,6.37,0,0,1-6.38-6.38h0a6.38,6.38,0,0,1,6.38-6.38h67a15.75,15.75,0,0,0,0,12.76Z" fill="#cdebfa"/>
      <g id="Grupo_93415" data-name="Grupo 93415" opacity="0.3">
        <path id="Trazado_188073" data-name="Trazado 188073" d="M202.35,235.28H172.83a7.24,7.24,0,0,1-7.24-7.24v-4.69a7.17,7.17,0,0,1,7.18-7.18h30.3C196.16,220.36,196.67,230.4,202.35,235.28Z"/>
      </g>
      <path id="Trazado_188074" data-name="Trazado 188074" d="M267.61,226.31c0,.07-13.76.12-30.72.12s-30.73-.05-30.73-.12,13.75-.11,30.73-.11S267.61,226.25,267.61,226.31Z" fill="#1a2e35"/>
      <path id="Trazado_188075" data-name="Trazado 188075" d="M273.93,229.15c0,.07-13.76.12-30.72.12s-30.73-.05-30.73-.12,13.76-.11,30.73-.11S273.93,229.09,273.93,229.15Z" fill="#1a2e35"/>
      <path id="Trazado_188076" data-name="Trazado 188076" d="M272.07,222.29c0,.06-13.76.12-30.73.12s-30.72-.06-30.72-.12,13.75-.11,30.72-.11S272.07,222.23,272.07,222.29Z" fill="#1a2e35"/>
      <path id="Trazado_188077" data-name="Trazado 188077" d="M199,217.75c0,.07-6.44.12-14.38.12s-14.38-.05-14.38-.12,6.44-.11,14.38-.11S199,217.69,199,217.75Z" fill="#1a2e35"/>
    </g>
    <path id="Trazado_188078" data-name="Trazado 188078" d="M161.81,248.69h39.53a4.77,4.77,0,0,1,4.77,4.77v15.07a4.77,4.77,0,0,1-4.77,4.77H161.81a12.31,12.31,0,0,1-12.3-12.3h0a12.31,12.31,0,0,1,12.3-12.31Z" transform="translate(926 7550)" fill="#32c1b1"/>
    <path id="Trazado_188079" data-name="Trazado 188079" d="M195,248.69h97.31a2,2,0,0,1,2,2h0a2,2,0,0,1-2,2H195a1.18,1.18,0,0,1-1.18-1.18v-1.73A1.18,1.18,0,0,1,195,248.6Z" transform="translate(926 7550)" fill="#32c1b1"/>
    <path id="Trazado_188080" data-name="Trazado 188080" d="M195,269.22h97.31a2,2,0,0,1,2,2h0a2,2,0,0,1-2,2H195a1.18,1.18,0,0,1-1.18-1.18V270.4A1.18,1.18,0,0,1,195,269.22Z" transform="translate(926 7550)" fill="#32c1b1"/>
    <path id="Trazado_188081" data-name="Trazado 188081" d="M291.38,269.22H205.07a8.22,8.22,0,0,1-8.22-8.22h0a8.22,8.22,0,0,1,8.22-8.22h86.31a20.37,20.37,0,0,0,0,16.44Z" transform="translate(926 7550)" fill="#cdebfa"/>
    <g id="Grupo_93418" data-name="Grupo 93418" transform="translate(926 7550)" opacity="0.3">
      <path id="Trazado_188082" data-name="Trazado 188082" d="M196.85,273.3H161.68a12.17,12.17,0,0,1-12.17-12.17h0A12.44,12.44,0,0,1,162,248.69h35.84C188.88,254.09,189.54,267,196.85,273.3Z"/>
    </g>
    <path id="Trazado_188083" data-name="Trazado 188083" d="M280.9,261.76c0,.06-17.72.11-39.57.11s-39.57-.05-39.57-.11,17.72-.11,39.57-.11S280.9,261.7,280.9,261.76Z" transform="translate(926 7550)" fill="#1a2e35"/>
    <path id="Trazado_188084" data-name="Trazado 188084" d="M289,265.41c0,.07-17.72.12-39.57.12s-39.56,0-39.56-.12,17.71-.11,39.56-.11S289,265.35,289,265.41Z" transform="translate(926 7550)" fill="#1a2e35"/>
    <path id="Trazado_188085" data-name="Trazado 188085" d="M286.64,258.37c0,.06-17.72.11-39.57.11s-39.56-.05-39.56-.11,17.71-.11,39.56-.11S286.64,258.31,286.64,258.37Z" transform="translate(926 7550)" fill="#1a2e35"/>
    <path id="Trazado_188086" data-name="Trazado 188086" d="M192.52,271.58c0,.06-8.29.11-18.52.11s-18.52-.05-18.52-.11,8.29-.12,18.52-.12S192.52,271.51,192.52,271.58Z" transform="translate(926 7550)" fill="#1a2e35"/>
    <path id="Trazado_188087" data-name="Trazado 188087" d="M192.52,250.73c0,.07-8.29.12-18.52.12s-18.52,0-18.52-.12,8.29-.11,18.52-.11S192.52,250.67,192.52,250.73Z" transform="translate(926 7550)" fill="#1a2e35"/>
    <path id="Trazado_188088" data-name="Trazado 188088" d="M181.87,234.69h38.62a.33.33,0,0,1,.33.33v13.44a.33.33,0,0,1-.33.33H181.87a7,7,0,0,1-7-7h0a7,7,0,0,1,7-7.1Z" transform="translate(926 7550)" fill="#375a64"/>
    <path id="Trazado_188089" data-name="Trazado 188089" d="M211.61,234.69h79.26a1.66,1.66,0,0,1,1.66,1.66h0a1.66,1.66,0,0,1-1.66,1.66H211.61a.76.76,0,0,1-.76-.76v-1.81a.76.76,0,0,1,.76-.76Z" transform="translate(926 7550)" fill="#375a64"/>
    <path id="Trazado_188090" data-name="Trazado 188090" d="M211.61,245.46h79.26a1.66,1.66,0,0,1,1.66,1.66h0a1.66,1.66,0,0,1-1.66,1.66H211.61a.76.76,0,0,1-.76-.76v-1.81A.76.76,0,0,1,211.61,245.46Z" transform="translate(926 7550)" fill="#375a64"/>
    <path id="Trazado_188091" data-name="Trazado 188091" d="M290.09,245.46H217a3.73,3.73,0,0,1-3.72-3.72h0A3.73,3.73,0,0,1,217,238h73.08a5.63,5.63,0,0,0,.01,7.46Z" transform="translate(926 7550)" fill="#cdebfa"/>
    <g id="Grupo_93420" data-name="Grupo 93420" transform="translate(926 7550)" opacity="0.3">
      <path id="Trazado_188092" data-name="Trazado 188092" d="M213.29,248.78H181.81a7,7,0,0,1-7-7h0a7.1,7.1,0,0,1,7.11-7.1h32.12C206.81,237.78,207.35,245.18,213.29,248.78Z"/>
    </g>
    <path id="Trazado_188093" data-name="Trazado 188093" d="M281.57,241.15c0,.06-14.39.11-32.14.11s-32.15,0-32.15-.11,14.39-.12,32.15-.12S281.57,241.09,281.57,241.15Z" transform="translate(926 7550)" fill="#1a2e35"/>
    <path id="Trazado_188094" data-name="Trazado 188094" d="M288.19,243.15c0,.07-14.4.12-32.15.12s-32.15-.05-32.15-.12S238.29,243,256,243,288.19,243.09,288.19,243.15Z" transform="translate(926 7550)" fill="#1a2e35"/>
    <path id="Trazado_188095" data-name="Trazado 188095" d="M209.77,247.38c0,.06-6.74.11-15.05.11s-15.05-.05-15.05-.11,6.74-.11,15.05-.11S209.77,247.32,209.77,247.38Z" transform="translate(926 7550)" fill="#1a2e35"/>
    <path id="Trazado_188096" data-name="Trazado 188096" d="M209.77,236.35c0,.06-6.74.11-15.05.11s-15.05-.05-15.05-.11,6.74-.11,15.05-.11S209.77,236.29,209.77,236.35Z" transform="translate(926 7550)" fill="#1a2e35"/>
    <path id="Trazado_188097" data-name="Trazado 188097" d="M291.57,234.69c0,.06-24.72.11-55.2.11s-55.2-.05-55.2-.11,24.71-.11,55.2-.11S291.57,234.63,291.57,234.69Z" transform="translate(926 7550)" fill="#1a2e35"/>
    <path id="Trazado_188098" data-name="Trazado 188098" d="M247.25,222.08v7.66l2.65-1.71,2.96,1.71v-7.66Z" transform="translate(926 7550)" fill="#32c1b1"/>
    <path id="Trazado_188099" data-name="Trazado 188099" d="M282.36,91.2H258.68a9.07,9.07,0,0,0-9.08,9.08h0a9.07,9.07,0,0,0,8.55,9l2.14,3.71,2.68-3.69h19.39a9.07,9.07,0,0,0,9.07-9.07h0a9.07,9.07,0,0,0-9.07-9.03Z" transform="translate(926 7550)" fill="#fff"/>
    <path id="Trazado_188100" data-name="Trazado 188100" d="M282.36,91.2a1.44,1.44,0,0,1,.24,0h.71a9.55,9.55,0,0,1,2.65.67,9.23,9.23,0,0,1,3.47,2.59,9.84,9.84,0,0,1,1.41,2.35A9.2,9.2,0,0,1,286,108.69a9.6,9.6,0,0,1-4.14.76H262.97l.11-.06-2.68,3.69-.12.17-.1-.19c-.28-.47-.58-1-.88-1.51-.43-.75-.86-1.5-1.27-2.19l.11.06a9.92,9.92,0,0,1-2.65-.55,10.08,10.08,0,0,1-2.35-1.28,9.186,9.186,0,0,1-1.4-13.39,9.06,9.06,0,0,1,3.72-2.57l.52-.19.54-.13a7.758,7.758,0,0,1,1.07-.2c.35-.05.71,0,1.06-.06h.08a4.669,4.669,0,0,0-1,.07,7.58,7.58,0,0,0-1,.19l-.52.14-.51.18a8.82,8.82,0,0,0-3.62,2.52,8.938,8.938,0,0,0,6.24,14.78h.07v.06c.4.7.83,1.45,1.27,2.2.3.52.6,1,.87,1.51h-.23l2.68-3.69h19a9.45,9.45,0,0,0,4.05-.73,9,9,0,0,0,3.13-2.26,8.89,8.89,0,0,0,2.28-6.4,8.711,8.711,0,0,0-.63-3,9.54,9.54,0,0,0-1.37-2.32,9.28,9.28,0,0,0-3.4-2.59A10,10,0,0,0,282.36,91.2Z" transform="translate(926 7550)" fill="#1a2e35"/>
    <path id="Trazado_188101" data-name="Trazado 188101" d="M260.11,97.44l.85,1.72,1.9.27-1.38,1.34.33,1.89-1.7-.89-1.7.89.33-1.89-1.38-1.34,1.9-.27Z" transform="translate(926 7550)" fill="#32c1b1"/>
    <path id="Trazado_188102" data-name="Trazado 188102" d="M267.31,97.44l.85,1.72,1.9.27-1.37,1.34.32,1.89-1.7-.89-1.69.89.32-1.89-1.37-1.34,1.89-.27Z" transform="translate(926 7550)" fill="#32c1b1"/>
    <path id="Trazado_188103" data-name="Trazado 188103" d="M274.52,97.44l.85,1.72,1.89.27-1.37,1.34.32,1.89-1.69-.89-1.7.89.32-1.89-1.37-1.34,1.9-.27Z" transform="translate(926 7550)" fill="#32c1b1"/>
    <path id="Trazado_188104" data-name="Trazado 188104" d="M281.72,97.44l.85,1.72,1.9.27-1.38,1.34.33,1.89-1.7-.89-1.7.89.33-1.89-1.38-1.34,1.9-.27Z" transform="translate(926 7550)" fill="#32c1b1"/>
    <path id="Trazado_188105" data-name="Trazado 188105" d="M1.64,120.32l3.87.37a12.44,12.44,0,1,0-2.1-4h0Z" transform="translate(926 7550)" fill="#fff"/>
    <path id="Trazado_188106" data-name="Trazado 188106" d="M1.64,120.32s.05-.08.13-.24.2-.39.35-.69l1.34-2.64h-.1a.06.06,0,0,0,.08,0v-.06a12.417,12.417,0,0,1,8.27-15.52,12.29,12.29,0,0,1,14.47,6l.35.68.28.7a14.059,14.059,0,0,1,.47,1.43,12.18,12.18,0,0,1,.36,2.93,12.39,12.39,0,0,1-22.09,7.77h0l-2.86-.24-.75-.06H1.92l.73.09,2.89.31h0a12.56,12.56,0,0,0,17.77,2,12.42,12.42,0,0,0,4.68-9.88,12.24,12.24,0,0,0-.37-3,14.606,14.606,0,0,0-.47-1.46l-.29-.72-.36-.69a12.7,12.7,0,0,0-19.29-3.71,12.567,12.567,0,0,0-3.9,13.43h.1a.05.05,0,0,0-.08,0h0c-.56,1.18-1,2.08-1.3,2.71l-.32.68a1.57,1.57,0,0,0-.07.18Z" transform="translate(926 7550)" fill="#1a2e35"/>
    <path id="Trazado_188107" data-name="Trazado 188107" d="M15.88,117.82v1.41H14.63v-1.36a6,6,0,0,1-3.11-1l.71-1.52a5.09,5.09,0,0,0,2.42.92v-2.09c-1.39-.35-2.94-.84-2.91-2.63,0-1.33,1-2.46,3-2.65v-1.4h1.25v1.37a5.63,5.63,0,0,1,2.53.79l-.64,1.54a5.18,5.18,0,0,0-1.91-.68v2.13c1.39.34,2.91.83,2.89,2.59C18.82,116.5,17.85,117.61,15.88,117.82Zm-1.18-5.55v-1.78c-.67.14-.94.5-.94.92S14.15,112.09,14.7,112.27Zm2.12,3c0-.44-.36-.68-.89-.88v1.73c.6-.12.88-.4.89-.8Z" transform="translate(926 7550)" fill="#90b0d5"/>
    <g id="Grupo_93431" data-name="Grupo 93431" transform="translate(926 7550)">
      <path id="Trazado_188108" data-name="Trazado 188108" d="M219,98s-2.37,8.87-2.58,15.15l-.06,2.09s5.23,4.34,9.62,4.61l3.68-9Z" fill="#1a2e35"/>
      <g id="Grupo_93430" data-name="Grupo 93430">
        <g id="Grupo_93429" data-name="Grupo 93429">
          <g id="Grupo_93428" data-name="Grupo 93428">
            <path id="Trazado_188109" data-name="Trazado 188109" d="M242.26,103.43c-1-4.32-1.39-9.36-5-12.18a13.09,13.09,0,0,0-9.1-2.53,12,12,0,0,0-5,1.66c-2,1.13-2.84,3.42-3.8,5.49-1.92,4.17-1.68,9.81-.38,11.37l17.4,9.19c3.48-1.81,5.66-2.53,6.21-7.16a16.89,16.89,0,0,0-.33-5.84Z" fill="#1a2e35"/>
            <g id="Grupo_93427" data-name="Grupo 93427">
              <path id="Trazado_188110" data-name="Trazado 188110" d="M237.09,94.69l-11-3.23c-3.53-.52-6,3.75-6.42,7.3a63.91,63.91,0,0,0-.39,11.73c.71,6,5.22,6.9,5.22,6.9v5.48a3,3,0,0,0,.87,2.45c1.61,2.09,4.55,2.37,8,1.09a5,5,0,0,0,3.56-4.28l1.9-25.25A2.09,2.09,0,0,0,237.09,94.69Z" fill="#c07560"/>
              <path id="Trazado_188111" data-name="Trazado 188111" d="M220.76,104.16a.76.76,0,0,0,.71.79.73.73,0,0,0,.81-.65.77.77,0,0,0-.7-.8.73.73,0,0,0-.82.66Z" fill="#1a2e35"/>
              <path id="Trazado_188112" data-name="Trazado 188112" d="M220.45,102.33c.09.11.68-.3,1.5-.26s1.4.46,1.49.37,0-.23-.3-.43a2.1,2.1,0,0,0-1.19-.42,2,2,0,0,0-1.2.34C220.49,102.11,220.4,102.29,220.45,102.33Z" fill="#1a2e35"/>
              <path id="Trazado_188113" data-name="Trazado 188113" d="M228,104.27a.77.77,0,0,0,.71.8.74.74,0,0,0,.81-.66.76.76,0,0,0-.71-.79.73.73,0,0,0-.81.65Z" fill="#1a2e35"/>
              <path id="Trazado_188114" data-name="Trazado 188114" d="M228.49,102.43c.09.1.69-.3,1.5-.27s1.4.47,1.5.37-.05-.22-.3-.42a2.1,2.1,0,0,0-1.19-.42,2,2,0,0,0-1.2.33C228.54,102.21,228.45,102.38,228.49,102.43Z" fill="#1a2e35"/>
              <path id="Trazado_188115" data-name="Trazado 188115" d="M225.31,107.73a5.51,5.51,0,0,0-1.32-.29c-.21,0-.41-.08-.44-.22a1.12,1.12,0,0,1,.17-.62c.21-.49.44-1,.68-1.56a28,28,0,0,0,1.55-4.11,27.511,27.511,0,0,0-1.88,4c-.23.55-.45,1.08-.65,1.58a1.16,1.16,0,0,0-.14.81.5.5,0,0,0,.33.32,1.27,1.27,0,0,0,.35.07,5.4,5.4,0,0,0,1.35.02Z" fill="#1a2e35"/>
              <path id="Trazado_188116" data-name="Trazado 188116" d="M224.53,117.39a15.1,15.1,0,0,0,8-1.81s-2.13,4.07-8,3.28Z" fill="#7c4236"/>
              <path id="Trazado_188117" data-name="Trazado 188117" d="M228,109.55a1.2,1.2,0,0,0-1-.58,1.56,1.56,0,0,0-1.43.64,1,1,0,0,0-.09.69c.05.12,0,.06.1.15a2.67,2.67,0,0,0,1.08.72,1.15,1.15,0,0,0,1.24-.4A1.17,1.17,0,0,0,228,109.55Z" fill="#7c4236"/>
              <path id="Trazado_188118" data-name="Trazado 188118" d="M227.84,108.43c-.13,0-.18.87-1,1.47s-1.73.45-1.75.58.21.18.61.21a2.21,2.21,0,0,0,1.45-.44,1.93,1.93,0,0,0,.75-1.23C228,108.65,227.9,108.42,227.84,108.43Z" fill="#1a2e35"/>
              <path id="Trazado_188119" data-name="Trazado 188119" d="M228.18,99.44c.06.22.88.2,1.83.41s1.69.54,1.84.35,0-.31-.34-.55a3.23,3.23,0,0,0-2.79-.59C228.35,99.17,228.16,99.33,228.18,99.44Z" fill="#1a2e35"/>
              <path id="Trazado_188120" data-name="Trazado 188120" d="M220.52,100.13c.18.16.78-.12,1.52-.24s1.41-.07,1.53-.29-.08-.27-.38-.4a2.27,2.27,0,0,0-1.29-.12,2.24,2.24,0,0,0-1.17.54C220.49,99.85,220.43,100.05,220.52,100.13Z" fill="#1a2e35"/>
            </g>
          </g>
          <path id="Trazado_188121" data-name="Trazado 188121" d="M226.1,90.82v.13h0Z" fill="#1a2e35"/>
        </g>
        <path id="Trazado_188122" data-name="Trazado 188122" d="M233.76,119.78c.17-1.56-.46-3.12-.28-4.67s1.26-3,1.7-4.65c.7-2.56-.26-5.28-.61-7.93a6.27,6.27,0,0,1-3.86-2.22,17.54,17.54,0,0,1-2.61-4.79,8,8,0,0,0,1.62,4.6,2.14,2.14,0,0,1-1.85-.6,4.71,4.71,0,0,1-1.08-1.68,12.91,12.91,0,0,1-1-4.74,17.08,17.08,0,0,0,.77,6.92,3,3,0,0,0-1.29,0,1.41,1.41,0,0,1-1.22-.26,1.52,1.52,0,0,1-.34-.79,17.71,17.71,0,0,1-.2-6,18.583,18.583,0,0,0-1.36,3.34,6.56,6.56,0,0,0,0,3.57.53.53,0,0,1-.74,0,1.22,1.22,0,0,1-.32-.74,8.93,8.93,0,0,1,.2-3,15,15,0,0,0-1.12,3.43,5.12,5.12,0,0,1-1.86,3,16,16,0,0,1,.15-4.55,13.88,13.88,0,0,1,1.33-3.61,10.72,10.72,0,0,1,2.4-3.34c1.75-1.53,2.48-.88,3.6-.29h.13a.22.22,0,0,1,0-.08v-.24a16.79,16.79,0,0,1,8.81.41c2.1.69,2.29,5.22,2.8,3.07.32-1.31,2-.12,2-.08,2.48,4.47,5.11,11.57,5.23,22.78h0Z" fill="#1a2e35"/>
      </g>
    </g>
    <path id="Trazado_188123" data-name="Trazado 188123" d="M240.93,85.62a5.6,5.6,0,0,0-3.85-1.88,4.22,4.22,0,0,0-3.72,1.94,3.39,3.39,0,0,0,.46,4.06l1.83,1.46a5,5,0,0,0,4.16.41,3.64,3.64,0,0,0,2.35-3.3A4.28,4.28,0,0,0,240.93,85.62Z" transform="translate(926 7550)" fill="#1a2e35"/>
    <path id="Trazado_188124" data-name="Trazado 188124" d="M239.52,93.75c-.35.17-1.36-1.37-3.15-2.58s-3.55-1.64-3.52-2c0-.18.52-.32,1.34-.23a6.84,6.84,0,0,1,5.08,3.51C239.64,93.15,239.68,93.67,239.52,93.75Z" transform="translate(926 7550)" fill="#375a64"/>
    <path id="Trazado_188125" data-name="Trazado 188125" d="M214.05,142.47l6.86-6.43,4.65,7.39c-.09.66-6,13.43-8.58,16.07-2.93,3-6.92,2.79-8.68-1.38-1.39-3.29-3.69-13.41-3.69-13.41Z" transform="translate(926 7550)" fill="#bf595d"/>
    <path id="Trazado_188126" data-name="Trazado 188126" d="M221.53,123.14c-1.64.59-5.41,2.65-6.51,4a10.68,10.68,0,0,0-1.38,2.14c-.86,1.89-2.49,15.9-2.49,15.9l7.31,5.29L224.82,126l-.41-3.89Z" transform="translate(926 7550)" fill="#ff777c"/>
    <path id="Trazado_188127" data-name="Trazado 188127" d="M219.11,163.57l.46-3.62a117.5,117.5,0,0,1-1.93-12.06,33.68,33.68,0,0,1,1.82-15.38c.18-.53,4.95-10.42,4.95-10.42s1,3,5,2.33c5.62-1,7.66-4,7.66-4l7.26,1.57s2.83,11.35,3.24,15.11c.23,2-2.43,13.42-2.43,13.42l4.28,6.4c.12.31-1.86,9.06-2.25,9.42s-7.35,2-7.44,2.28-13.27,5.82-13.26,5.59-6.34-7.77-6.34-7.77Z" transform="translate(926 7550)" fill="#ff777c"/>
    <path id="Trazado_188128" data-name="Trazado 188128" d="M217.47,133.87a1,1,0,0,1,0,.26,2.442,2.442,0,0,1-.09.75c-.08.65-.19,1.6-.28,2.77a39,39,0,0,0,.17,9.13c.46,3.55,1.15,6.72,1.59,9,.23,1.15.4,2.09.51,2.74l.11.75a.64.64,0,0,1,0,.26,1.23,1.23,0,0,1-.07-.25l-.17-.74-.59-2.72c-.49-2.3-1.2-5.47-1.67-9a36.42,36.42,0,0,1-.1-9.18c.13-1.17.26-2.11.37-2.76l.14-.75a.76.76,0,0,1,.08-.26Z" transform="translate(926 7550)" fill="#1a2e35"/>
    <path id="Trazado_188129" data-name="Trazado 188129" d="M250.72,162c1.3,2.21,4.27,10.66,5.42,15,5.27,19.69,9.73,46.18,11.21,51.58,2,7.19,6.39,23.46,8.64,34.3l-10.8,4.71s-14.14-38.12-18-47.48c-4-9.7-10.67-28-10.67-28l-3.85,72.6-10.35.32s-3.54-20.45-4.94-32.68-1.57-37.4-1.58-43.79c0-7.78,3.36-25.28,3.36-25.28s4,3,11.6,1.87c6-.92,18.52-5.56,18.52-5.56Z" transform="translate(926 7550)" fill="#1a2e35"/>
    <path id="Trazado_188130" data-name="Trazado 188130" d="M229.69,167.66a4.389,4.389,0,0,0,.06.84c.05.53.15,1.3.27,2.25.26,1.91.65,4.54,1.17,7.42s1.05,5.49,1.48,7.37c.21.93.39,1.69.52,2.21a4.34,4.34,0,0,0,.23.8,4.929,4.929,0,0,0-.13-.82c-.11-.58-.26-1.33-.44-2.23-.37-1.89-.88-4.49-1.4-7.38s-.94-5.5-1.24-7.39q-.22-1.38-.36-2.25A7.789,7.789,0,0,0,229.69,167.66Z" transform="translate(926 7550)" fill="#375a64"/>
    <path id="Trazado_188131" data-name="Trazado 188131" d="M233.38,167.51s0-.13-.2-.21a1.35,1.35,0,0,0-.79,0,1.72,1.72,0,0,0-.52.21.9.9,0,0,0-.35.58,1.31,1.31,0,0,0,.59,1.31,1.39,1.39,0,0,0,1.44.07.94.94,0,0,0,.4-.54,1.36,1.36,0,0,0,0-.56,1.13,1.13,0,0,0-.35-.71c-.15-.12-.26-.13-.26-.12s.08.06.19.19a1.24,1.24,0,0,1,.23.66.9.9,0,0,1-.38.86,1.14,1.14,0,0,1-1.66-1.12.66.66,0,0,1,.24-.43,1.663,1.663,0,0,1,1.14-.27A.575.575,0,0,1,233.38,167.51Z" transform="translate(926 7550)" fill="#375a64"/>
    <path id="Trazado_188132" data-name="Trazado 188132" d="M226.76,186a10.441,10.441,0,0,0,1.25.86c.78.51,1.86,1.23,3,2.07s2.15,1.66,2.87,2.26a11.482,11.482,0,0,0,1.19.94A6.68,6.68,0,0,0,234,191a35,35,0,0,0-2.84-2.32,34.191,34.191,0,0,0-3.06-2A6.829,6.829,0,0,0,226.76,186Z" transform="translate(926 7550)" fill="#375a64"/>
    <path id="Trazado_188133" data-name="Trazado 188133" d="M253,225.24a1.26,1.26,0,0,0,.45,0,5.923,5.923,0,0,0,1.21-.1,21.6,21.6,0,0,0,7.63-2.39c.45-.24.81-.45,1.05-.61s.37-.25.36-.27a14.84,14.84,0,0,0-1.5.71,28.462,28.462,0,0,1-3.69,1.47,28.768,28.768,0,0,1-3.87.9C253.58,225.14,253,225.2,253,225.24Z" transform="translate(926 7550)" fill="#375a64"/>
    <path id="Trazado_188134" data-name="Trazado 188134" d="M254.71,224.14a4.47,4.47,0,0,0,1.06-.28,23.211,23.211,0,0,0,2.45-1c.94-.45,1.77-.86,2.36-1.2a3.761,3.761,0,0,0,.91-.61c0-.06-1.51.72-3.38,1.56S254.68,224.06,254.71,224.14Z" transform="translate(926 7550)" fill="#375a64"/>
    <path id="Trazado_188135" data-name="Trazado 188135" d="M222.26,257.49l-.06,10.78s-11,3.57-11.18,5.56l20.9.85.77-16.79Z" transform="translate(926 7550)" fill="#1a2e35"/>
    <path id="Trazado_188136" data-name="Trazado 188136" d="M228.7,267.63a.86.86,0,0,1,.55,1,.82.82,0,0,1-1,.55.89.89,0,0,1-.58-1.06.85.85,0,0,1,1.09-.46" transform="translate(926 7550)" fill="#90b0d5"/>
    <path id="Trazado_188137" data-name="Trazado 188137" d="M231.92,274.68V273l-20-.19s-.94.37-.87,1Z" transform="translate(926 7550)" fill="#375a64"/>
    <path id="Trazado_188138" data-name="Trazado 188138" d="M221.87,268.15c0,.1.51.17,1,.52s.74.79.84.75,0-.63-.63-1S221.85,268.06,221.87,268.15Z" transform="translate(926 7550)" fill="#fff"/>
    <path id="Trazado_188139" data-name="Trazado 188139" d="M219.64,269c0,.1.41.29.74.73s.41.91.51.91.19-.57-.23-1.12S219.65,268.87,219.64,269Z" transform="translate(926 7550)" fill="#fff"/>
    <path id="Trazado_188140" data-name="Trazado 188140" d="M218.29,271.54c.09,0,.25-.48,0-1.05s-.7-.81-.75-.73.24.4.42.87S218.19,271.53,218.29,271.54Z" transform="translate(926 7550)" fill="#fff"/>
    <path id="Trazado_188141" data-name="Trazado 188141" d="M222.15,265.7c0,.09.52,0,1.09,0s1,.27,1.07.18-.36-.47-1-.53S222.11,265.61,222.15,265.7Z" transform="translate(926 7550)" fill="#fff"/>
    <path id="Trazado_188142" data-name="Trazado 188142" d="M271.6,256.36l4,12.41,6,8.91a1.34,1.34,0,0,1-.44,1.9h0a1.32,1.32,0,0,1-1.22.06c-2.51-1.15-11.71-5.42-11.95-6.34-.28-1.08-5.09-12.82-5.09-12.82Z" transform="translate(926 7550)" fill="#1a2e35"/>
    <path id="Trazado_188143" data-name="Trazado 188143" d="M281.16,279.58l-13.46-7.12.19.53a2,2,0,0,0,.87,1.07c1.11.65,4.19,2.37,11.14,5.59a1.34,1.34,0,0,0,1.26-.07Z" transform="translate(926 7550)" fill="#375a64"/>
    <g id="Grupo_93436" data-name="Grupo 93436" transform="translate(926 7550)" opacity="0.6">
      <path id="Trazado_188144" data-name="Trazado 188144" d="M268.85,267.61a.81.81,0,0,1,.55.93.78.78,0,0,1-.91.56.86.86,0,0,1-.58-1,.8.8,0,0,1,1-.47" fill="#fff"/>
    </g>
    <path id="Trazado_188145" data-name="Trazado 188145" d="M276.48,275.18a2.83,2.83,0,0,1,2.07-2.1.84.84,0,0,0-.5,0,2.13,2.13,0,0,0-1,.58,2.2,2.2,0,0,0-.57,1.05C276.4,275,276.44,275.18,276.48,275.18Z" transform="translate(926 7550)" fill="#fff"/>
    <path id="Trazado_188146" data-name="Trazado 188146" d="M277.93,276.52a6.989,6.989,0,0,1,.9-.91A12.237,12.237,0,0,1,280,275a1.46,1.46,0,0,0-1.31.34C278,275.85,277.85,276.51,277.93,276.52Z" transform="translate(926 7550)" fill="#fff"/>
    <path id="Trazado_188147" data-name="Trazado 188147" d="M274.11,273.63a14.614,14.614,0,0,1,1.3-1.5,16.913,16.913,0,0,1,1.68-1.06,3.68,3.68,0,0,0-3,2.56Z" transform="translate(926 7550)" fill="#fff"/>
    <path id="Trazado_188148" data-name="Trazado 188148" d="M272.58,270c.05.06.64-.46,1.51-.8s1.65-.37,1.65-.45a2.51,2.51,0,0,0-1.76.19,2.56,2.56,0,0,0-1.4,1.06Z" transform="translate(926 7550)" fill="#fff"/>
    <path id="Trazado_188149" data-name="Trazado 188149" d="M271.31,266.35a6.63,6.63,0,0,1,1.55-.88,6.39,6.39,0,0,1,1.78-.15,1.346,1.346,0,0,0-.52-.21,2.77,2.77,0,0,0-1.34.09,2.83,2.83,0,0,0-1.16.69C271.37,266.13,271.28,266.33,271.31,266.35Z" transform="translate(926 7550)" fill="#fff"/>
    <path id="Trazado_188150" data-name="Trazado 188150" d="M272.6,264.79a1.207,1.207,0,0,0-.14-.47,3.46,3.46,0,0,0-.8-1.09,1.5,1.5,0,0,0-.85-.47.53.53,0,0,0-.53.31.91.91,0,0,0,0,.63,1.89,1.89,0,0,0,2.14,1.1,2.19,2.19,0,0,0,1.66-1.79.79.79,0,0,0-.18-.61.54.54,0,0,0-.61-.08,1.77,1.77,0,0,0-.66.71,3.52,3.52,0,0,0-.51,1.25,1,1,0,0,0,0,.49,5.8,5.8,0,0,1,.71-1.63,1.72,1.72,0,0,1,.6-.6.27.27,0,0,1,.33,0,.53.53,0,0,1,.09.41,1.94,1.94,0,0,1-1.45,1.53,1.65,1.65,0,0,1-1.83-.91.67.67,0,0,1,0-.44.28.28,0,0,1,.29-.17,1.36,1.36,0,0,1,.73.38A5.329,5.329,0,0,1,272.6,264.79Z" transform="translate(926 7550)" fill="#fff"/>
    <path id="Trazado_188151" data-name="Trazado 188151" d="M206.01,133.87l4.98,5.14.2,4.49-5.78,1.33h-.3l-.37-2.9-3.33-4.43Z" transform="translate(926 7550)" fill="#c07560"/>
    <g id="Grupo_93438" data-name="Grupo 93438" transform="translate(926 7550)">
      <path id="Trazado_188152" data-name="Trazado 188152" d="M200.67,130.14a30.33,30.33,0,0,1-42.88,1.41h0a30.33,30.33,0,1,1,42.88-1.41Zm-41.49-.08a28.33,28.33,0,1,0-8.4-15.12,28.33,28.33,0,0,0,8.4,15.12Z" fill="#375a64"/>
      <path id="Trazado_188153" data-name="Trazado 188153" d="M200.67,130.14a30.33,30.33,0,0,1-42.88,1.41h0a30.33,30.33,0,1,1,42.88-1.41Zm-41.49-.08a28.33,28.33,0,1,0-8.4-15.12,28.33,28.33,0,0,0,8.4,15.12Z" fill="#1a2e35"/>
      <path id="Trazado_188154" data-name="Trazado 188154" d="M201.42,128.68a30.34,30.34,0,0,1-42.89,1.41h0a30.34,30.34,0,1,1,42.89-1.41Zm-41.5-.08a28.33,28.33,0,1,0-8.4-15.12,28.33,28.33,0,0,0,8.4,15.12Z" fill="#375a64"/>
    </g>
    <path id="Trazado_188155" data-name="Trazado 188155" d="M235.1,167l1-.94c.86-.83.38-2.74-.53-3.66l-33.89-35-4.54,4.39,33.85,35a3,3,0,0,0,4.11.21Z" transform="translate(926 7550)" fill="#375a64"/>
    <g id="Grupo_93439" data-name="Grupo 93439" transform="translate(926 7550)">
      <path id="Trazado_188156" data-name="Trazado 188156" d="M203.86,131.57a.8.8,0,0,0-.68-.18,1.36,1.36,0,0,0-.54.38,6.19,6.19,0,0,0-1.75,4.25,1.89,1.89,0,0,0,.78,1.75l.68-.39c.21-.28.84-.73.93-1.07.35-1.4-.16-1.34.73-3.79A.85.85,0,0,0,203.86,131.57Z" fill="#c07560"/>
      <path id="Trazado_188157" data-name="Trazado 188157" d="M203.7,133.57a3.39,3.39,0,0,1,.68-.89,1,1,0,0,1,.89-.27c.47.15.7.83.65,1.46a5.47,5.47,0,0,1-.59,1.79c-.55,1.21-1.11,2.42-1.67,3.63l-.33-.24a.45.45,0,0,1-.72-.16,2,2,0,0,1-.16-1,9.49,9.49,0,0,1,1.25-4.32Z" fill="#c07560"/>
      <path id="Trazado_188158" data-name="Trazado 188158" d="M204.52,137.19a8.7,8.7,0,0,1,1.68-2.25,2.24,2.24,0,0,1,.78-.59.73.73,0,0,1,.87.26,1,1,0,0,1-.11.89,41.531,41.531,0,0,1-2.89,5.06l-1-1C203.4,138.74,204.14,138,204.52,137.19Z" fill="#c07560"/>
    </g>
    <g id="Grupo_93443" data-name="Grupo 93443" transform="translate(926 7550)">
      <g id="Grupo_93442" data-name="Grupo 93442">
        <g id="Grupo_93440" data-name="Grupo 93440">
          <path id="Trazado_188159" data-name="Trazado 188159" d="M231.57,148.38l-.92-.19-4.81-4.1-2.64-2.21a1.57,1.57,0,0,0-.77-.36l-2.6-.43a1.48,1.48,0,0,0,.78,1.79l1.43.74,1.3,1.54-.16.33s-8.57,1.33-9.1,2a.89.89,0,0,0,.24,1.37,1.36,1.36,0,0,0,.65.06,1.55,1.55,0,0,0,.83,1.84s-1,1.25.71,1.84a2.72,2.72,0,0,0,1.43,1.25,61,61,0,0,0,6.59.89h6.14l1.23.2Z" fill="#c07560"/>
          <path id="Trazado_188160" data-name="Trazado 188160" d="M214.77,148.91a6.81,6.81,0,0,0,2.37.13,9.37,9.37,0,0,0,2.34-.35,12.259,12.259,0,0,0-2.36.08,23.323,23.323,0,0,0-2.35.14Z" fill="#7c4236"/>
          <path id="Trazado_188161" data-name="Trazado 188161" d="M215.8,150.74a3.854,3.854,0,0,0,.58.12c.36.05.85.11,1.41.14a10.367,10.367,0,0,0,1.42,0c.36,0,.57,0,.58-.05s-.21-.11-.58-.14-.86,0-1.41,0-1-.08-1.41-.07S215.8,150.7,215.8,150.74Z" fill="#7c4236"/>
          <path id="Trazado_188162" data-name="Trazado 188162" d="M216.34,152.54a9.451,9.451,0,0,0,2.31.31,5.27,5.27,0,0,1,1.58.25c.38.14.55.34.58.31s-.1-.28-.5-.48a4.12,4.12,0,0,0-1.64-.35A10.939,10.939,0,0,0,216.34,152.54Z" fill="#7c4236"/>
        </g>
        <g id="Grupo_93441" data-name="Grupo 93441">
          <path id="Trazado_188163" data-name="Trazado 188163" d="M244.36,121.94s3.62.62,6.36,6c1.52,3,8.6,20.91,9,22.48,1.79,6.72-1.69,11.06-5,11.35C251,162.11,232,156,232,156l-.42-8.15,17.4,2.64-8.36-16.22S240.25,123.41,244.36,121.94Z" fill="#bf595d"/>
          <path id="Trazado_188164" data-name="Trazado 188164" d="M254.78,154.9a3.08,3.08,0,0,0-.47-1.09,7.16,7.16,0,0,0-2-2.08,7,7,0,0,0-2.6-1.17,3,3,0,0,0-1.18-.09c0,.05.45.08,1.13.27a8.21,8.21,0,0,1,4.45,3.18C254.56,154.5,254.74,154.92,254.78,154.9Z" fill="#1a2e35"/>
        </g>
      </g>
      <path id="Trazado_188165" data-name="Trazado 188165" d="M249.94,161.08h-.35c-.24-.05-.57-.15-1-.27-.87-.25-2.13-.64-3.72-1.15-3.19-1-7.69-2.5-13-4.29h-.08v-.08c-.12-2.35-.26-4.9-.4-7.57v-.17h.17l4.28.69L249,150.32l-.13.18L243,139.19c-.69-1.37-1.23-2.46-1.62-3.22-.18-.36-.31-.64-.42-.85a2.149,2.149,0,0,1-.13-.3,1.452,1.452,0,0,1,.17.28l.45.84,1.68,3.18L249,150.39l.11.21h-.24l-13.12-2.12-4.28-.69.15-.14c.13,2.66.26,5.22.38,7.56l-.08-.11,12.94,4.39,3.71,1.21c.43.13.76.25,1,.31l.25.07Z" fill="#1a2e35"/>
      <path id="Trazado_188166" data-name="Trazado 188166" d="M245.13,122.27a12.854,12.854,0,0,0-1.21,1,10.67,10.67,0,0,0-2.31,2.87,10.34,10.34,0,0,0-1.15,3.51c-.13.94-.1,1.54-.15,1.54a1.23,1.23,0,0,1-.06-.42,5.679,5.679,0,0,1,0-1.15,8.559,8.559,0,0,1,.31-1.67,10.29,10.29,0,0,1,.79-1.94,10.482,10.482,0,0,1,1.19-1.71,8.3,8.3,0,0,1,1.24-1.18,6.852,6.852,0,0,1,.95-.64C245,122.31,245.13,122.25,245.13,122.27Z" fill="#1a2e35"/>
    </g>
    <path id="Trazado_188167" data-name="Trazado 188167" d="M44.49,133.24s-3.85,21.39-3.66,23.39,1.21,5.18,3.52,5.73a10.55,10.55,0,0,0,4.46,0L46,136.09Z" transform="translate(926 7550)" fill="#ffbf9d"/>
    <g id="Grupo_93446" data-name="Grupo 93446" transform="translate(926 7550)">
      <path id="Trazado_188168" data-name="Trazado 188168" d="M55.71,115l-.27-22.1c-.24-5.49,2.75-10.22,8.25-10.31h.51A9.83,9.83,0,0,1,73.62,92c.19,4.76.33,10,.2,12.58-.29,5.27-5.59,5.87-5.59,5.87v4.76L64,121.12v.31Z" fill="#ffbf9d"/>
      <path id="Trazado_188169" data-name="Trazado 188169" d="M68.23,110.47a12.75,12.75,0,0,1-6.79-2.31s1.49,4,6.77,3.77Z" fill="#ff9a6c"/>
      <path id="Trazado_188170" data-name="Trazado 188170" d="M71.94,96.57a.75.75,0,0,1-.76.73.71.71,0,0,1-.74-.71.74.74,0,0,1,.75-.73.72.72,0,0,1,.75.71Z" fill="#1a2e35"/>
      <path id="Trazado_188171" data-name="Trazado 188171" d="M72.4,94.3c-.09.1-.65-.35-1.46-.38s-1.42.35-1.5.25.06-.22.33-.4A2.05,2.05,0,0,1,71,93.45a1.93,1.93,0,0,1,1.15.43C72.38,94.08,72.45,94.26,72.4,94.3Z" fill="#1a2e35"/>
      <path id="Trazado_188172" data-name="Trazado 188172" d="M64.7,96.57a.75.75,0,0,1-.75.73.72.72,0,0,1-.75-.71.75.75,0,0,1,.76-.73.71.71,0,0,1,.74.71Z" fill="#1a2e35"/>
      <path id="Trazado_188173" data-name="Trazado 188173" d="M64.45,94.16c-.1.1-.65-.35-1.46-.38s-1.42.35-1.5.24.06-.21.32-.39A2.1,2.1,0,0,1,63,93.31a1.94,1.94,0,0,1,1.16.43C64.42,93.94,64.5,94.12,64.45,94.16Z" fill="#1a2e35"/>
      <path id="Trazado_188174" data-name="Trazado 188174" d="M67.1,100.51a5.3,5.3,0,0,1,1.33-.18c.21,0,.4,0,.44-.19a1,1,0,0,0-.11-.62c-.17-.51-.35-1-.55-1.6A28.081,28.081,0,0,1,67,93.74a27.48,27.48,0,0,1,1.54,4.07c.18.56.35,1.1.52,1.61a1.19,1.19,0,0,1,.07.82.53.53,0,0,1-.35.29,1.5,1.5,0,0,1-.35,0,5.21,5.21,0,0,1-1.33-.02Z" fill="#1a2e35"/>
      <path id="Trazado_188175" data-name="Trazado 188175" d="M64.82,91.64c-.12.2-.9,0-1.85-.11s-1.76,0-1.85-.16.13-.29.47-.44A3.16,3.16,0,0,1,63,90.71a2.92,2.92,0,0,1,1.38.43C64.73,91.34,64.87,91.54,64.82,91.64Z" fill="#1a2e35"/>
      <path id="Trazado_188176" data-name="Trazado 188176" d="M72.54,91.92c-.17.18-.83,0-1.62-.06s-1.47.09-1.62-.11,0-.28.34-.44A2.51,2.51,0,0,1,71,91a2.58,2.58,0,0,1,1.28.4C72.53,91.64,72.62,91.83,72.54,91.92Z" fill="#1a2e35"/>
      <path id="Trazado_188177" data-name="Trazado 188177" d="M55.71,96.79c-.09,0-3.58-1.22-3.61,2.39s3.6,2.9,3.6,2.8S55.71,96.79,55.71,96.79Z" fill="#ffbf9d"/>
      <path id="Trazado_188178" data-name="Trazado 188178" d="M54.61,100.6a.613.613,0,0,1-.17.09.62.62,0,0,1-.47,0,1.55,1.55,0,0,1-.7-1.4,2,2,0,0,1,.18-.9.71.71,0,0,1,.48-.48.32.32,0,0,1,.37.17.185.185,0,0,1,0,.18s.08-.06,0-.21a.34.34,0,0,0-.14-.22.48.48,0,0,0-.34-.1.89.89,0,0,0-.67.56,2.14,2.14,0,0,0-.22,1,1.63,1.63,0,0,0,.9,1.57.67.67,0,0,0,.57-.09C54.61,100.69,54.63,100.61,54.61,100.6Z" fill="#ff9a6c"/>
      <path id="Trazado_188179" data-name="Trazado 188179" d="M64.56,101c.12,0,.13.82.84,1.41s1.59.49,1.6.6-.2.17-.57.18a2.09,2.09,0,0,1-1.34-.46,1.82,1.82,0,0,1-.65-1.18C64.41,101.21,64.5,101,64.56,101Z" fill="#1a2e35"/>
    </g>
    <g id="Grupo_93447" data-name="Grupo 93447" transform="translate(926 7550)">
      <path id="Trazado_188180" data-name="Trazado 188180" d="M80.91,87.27a.92.92,0,0,0-.4-.51,2.66,2.66,0,0,0-1.34-.23,7.61,7.61,0,0,1-3.3-.87,3.63,3.63,0,0,0,1-.67,2.25,2.25,0,0,0,.68-2.24.5.5,0,0,0-.28-.35c-.24-.08-.44.15-.61.33a1.93,1.93,0,0,1-1.84.76,3.24,3.24,0,0,1-1.37-.42H73.4q-.27-.3-.54-.57h0a12.09,12.09,0,0,0-3.7-2.81,12.27,12.27,0,0,0-6.54-.58,5,5,0,0,0-3.79,3.81,3.82,3.82,0,0,0-3.83-.4h0a4.77,4.77,0,0,0-2.64,3.37,2.168,2.168,0,0,0-.07.24,5.49,5.49,0,0,1-1.9,1.81c-.14.08-.29.18-.31.33s.11.28.23.38a2.91,2.91,0,0,0,1.13.48,6.34,6.34,0,0,1-.48,1c-.16.26-.35.58-.21.86a.57.57,0,0,0,.61.27,1.83,1.83,0,0,0,.66-.28L51.49,92A3.27,3.27,0,0,0,53,91.92c.28,1.33.47,3.81.81,4.71a5.36,5.36,0,0,1,1.67.1c.62.21.37,1.31,1.19,1,.42-.16,1.07-1.72,1.21-2.14a20.63,20.63,0,0,0,1-8.72A6.79,6.79,0,0,1,61,85.43l-.07.06c1.49-.5,3.16-1,4.55-.28,1.08.55,1.71,1.69,2.51,2.6a7.58,7.58,0,0,0,5.55,2.78c.19,1.59.22,4.2.28,5.69l1.3-3h0a4.521,4.521,0,0,0,.28-.53h0a8.339,8.339,0,0,1,.43-.84h0a.93.93,0,0,0,1.37-1.22,1.92,1.92,0,0,0-.44-.46,1.47,1.47,0,0,0,1.39.38A1.14,1.14,0,0,0,79,89.48a.94.94,0,0,0-.57-.79,3.36,3.36,0,0,0,1.89-.4A1.015,1.015,0,0,0,80.91,87.27Z" fill="#1a2e35"/>
      <path id="Trazado_188181" data-name="Trazado 188181" d="M60.47,83.49a5.12,5.12,0,0,0-.54.48,3.8,3.8,0,0,0-.83,1.75,6.1,6.1,0,0,0-.1,1.34,14.181,14.181,0,0,0,.06,1.56,16.479,16.479,0,0,1,0,1.73,4.753,4.753,0,0,1-.13.91,2,2,0,0,1-.39.89.83.83,0,0,1-.75.24A1.21,1.21,0,0,1,57.1,92a2.69,2.69,0,0,1-.5-1.35h.11a4.49,4.49,0,0,1-.65,1.1,1.59,1.59,0,0,1-1,.54.92.92,0,0,1-.55-.1.86.86,0,0,1-.36-.37.88.88,0,0,1-.11-.47.69.69,0,0,1,.17-.41l.06.06a3.4,3.4,0,0,1-1.15.83c-.15.07-.27.11-.35.14h-.01l.35-.15a3.62,3.62,0,0,0,1.1-.85h.06a.67.67,0,0,0-.05.78.87.87,0,0,0,.33.33.93.93,0,0,0,.5.08,1.47,1.47,0,0,0,1-.52,4.31,4.31,0,0,0,.63-1.07l.08-.17v.18a2.59,2.59,0,0,0,.47,1.29,1.14,1.14,0,0,0,.6.35.68.68,0,0,0,.63-.21,1.84,1.84,0,0,0,.36-.82,6.939,6.939,0,0,0,.12-.9,12.3,12.3,0,0,0,0-1.72,13.519,13.519,0,0,1,0-1.56A7,7,0,0,1,59,85.7a3.89,3.89,0,0,1,.88-1.76,2.11,2.11,0,0,1,.59-.45Z" fill="#375a64"/>
      <path id="Trazado_188182" data-name="Trazado 188182" d="M76.75,88.82l-.13.09a2,2,0,0,1-.23.14,2.319,2.319,0,0,1-.32.17,4.64,4.64,0,0,1-2.27.38,6.07,6.07,0,0,1-3.17-1.21,10.54,10.54,0,0,1-2.71-3.19c-.37-.65-.68-1.31-1-1.92A7,7,0,0,0,65.7,81.7a3.64,3.64,0,0,0-1.51-.94,2.79,2.79,0,0,0-.8-.1,2.86,2.86,0,0,0-.74.13,3.13,3.13,0,0,0-1.11.65,3.3,3.3,0,0,0-.61.77,3.89,3.89,0,0,0-.28.79.28.28,0,0,1,0-.06v-.16a3.321,3.321,0,0,1,.21-.59,3.09,3.09,0,0,1,.6-.8,3.27,3.27,0,0,1,1.13-.68,3.1,3.1,0,0,1,.76-.15,3.06,3.06,0,0,1,.84.1,3.69,3.69,0,0,1,1.56,1A7.11,7.11,0,0,1,67,83.26c.34.62.65,1.28,1,1.91a10.44,10.44,0,0,0,2.66,3.16,5.86,5.86,0,0,0,3.12,1.22A4.62,4.62,0,0,0,76,89.21a5.311,5.311,0,0,0,.75-.39Z" fill="#375a64"/>
      <path id="Trazado_188183" data-name="Trazado 188183" d="M77.26,86.5a.59.59,0,0,1-.19.13,4.111,4.111,0,0,1-.56.28,5,5,0,0,1-.9.29,6.491,6.491,0,0,1-1.13.13,6,6,0,0,1-1.15-.09,5.531,5.531,0,0,1-.9-.24,3.319,3.319,0,0,1-.58-.26c-.13-.07-.2-.11-.19-.12s.3.13.8.29a5.51,5.51,0,0,0,.89.22,6.56,6.56,0,0,0,1.12.08,6.38,6.38,0,0,0,1.12-.13,6,6,0,0,0,.88-.25C77,86.65,77.25,86.48,77.26,86.5Z" fill="#375a64"/>
    </g>
    <g id="Grupo_93455" data-name="Grupo 93455" transform="translate(926 7550)">
      <g id="Grupo_93451" data-name="Grupo 93451">
        <g id="Grupo_93450" data-name="Grupo 93450">
          <path id="Trazado_188184" data-name="Trazado 188184" d="M63.44,254.26l-.52,11.94s12,4.54,12.07,6.75l-23.17-.18V254.14Z" fill="#375a64"/>
          <path id="Trazado_188185" data-name="Trazado 188185" d="M55.76,265.14a.94.94,0,0,0-.66,1.07.9.9,0,0,0,1.06.67,1,1,0,0,0,.69-1.14.94.94,0,0,0-1.18-.57" fill="#90b0d5"/>
          <g id="Grupo_93449" data-name="Grupo 93449" opacity="0.6">
            <path id="Trazado_188186" data-name="Trazado 188186" d="M51.82,272.77l.07-1.88,22.2.88s1,.46.9,1.18Z" fill="#fff"/>
          </g>
          <path id="Trazado_188187" data-name="Trazado 188187" d="M63.3,266.08c0,.12-.58.16-1.14.52s-.86.83-1,.79.07-.7.76-1.12A1.447,1.447,0,0,1,63.3,266.08Z" fill="#1a2e35"/>
          <path id="Trazado_188188" data-name="Trazado 188188" d="M65.72,267.11c0,.11-.47.3-.86.77s-.5,1-.61,1-.18-.65.31-1.23S65.72,267,65.72,267.11Z" fill="#1a2e35"/>
          <path id="Trazado_188189" data-name="Trazado 188189" d="M67.08,270c-.11,0-.26-.55,0-1.16s.82-.86.87-.77-.28.42-.52.93S67.19,270,67.08,270Z" fill="#1a2e35"/>
          <path id="Trazado_188190" data-name="Trazado 188190" d="M63.11,263.35c0,.1-.56-.06-1.2,0s-1.14.24-1.2.14.42-.5,1.18-.53S63.17,263.26,63.11,263.35Z" fill="#1a2e35"/>
        </g>
        <path id="Trazado_188191" data-name="Trazado 188191" d="M63.41,263.21a18.5,18.5,0,0,1,0,2.88l-.09-.14c1.35.51,3.15,1.2,5.07,2.11A27.749,27.749,0,0,1,73.55,271a5.59,5.59,0,0,1,1.27,1.3c.24.37.21.65.17.64a1.46,1.46,0,0,0-.29-.56,7.05,7.05,0,0,0-1.31-1.16,33.447,33.447,0,0,0-5.14-2.82c-1.9-.9-3.68-1.62-5-2.19h-.1v-.1a19.891,19.891,0,0,1,.26-2.9Z" fill="#1a2e35"/>
      </g>
      <g id="Grupo_93454" data-name="Grupo 93454">
        <path id="Trazado_188192" data-name="Trazado 188192" d="M48.45,171v10.81l4.27,34.54s-1.35,16.2-2.18,25.35c-.73,7.94.45,21.77.45,21.77H63.64l4.53-46.12L71,188.62l5.1-17Z" fill="#051930"/>
        <g id="Grupo_93453" data-name="Grupo 93453">
          <path id="Trazado_188193" data-name="Trazado 188193" d="M70.88,252.19l-3.31,11.48s10.55,7.22,10.14,9.4l-22.48-5.62,4.43-18.1Z" fill="#375a64"/>
          <path id="Trazado_188194" data-name="Trazado 188194" d="M60.86,261a.94.94,0,0,0-.9.88.91.91,0,0,0,.87.9.9.9,0,1,0,0-1.78" fill="#90b0d5"/>
          <g id="Grupo_93452" data-name="Grupo 93452" opacity="0.6">
            <path id="Trazado_188195" data-name="Trazado 188195" d="M55.23,267.45l.52-1.81,21.36,6.07s.89.69.6,1.36Z" fill="#fff"/>
          </g>
          <path id="Trazado_188196" data-name="Trazado 188196" d="M68,263.65c0,.1-.59,0-1.22.24s-1,.6-1.12.53.23-.66,1-.91S68,263.55,68,263.65Z" fill="#1a2e35"/>
          <path id="Trazado_188197" data-name="Trazado 188197" d="M70.07,265.21c0,.11-.52.18-1,.55s-.72.84-.83.81,0-.67.6-1.12S70.1,265.11,70.07,265.21Z" fill="#1a2e35"/>
          <path id="Trazado_188198" data-name="Trazado 188198" d="M70.71,268.37c-.11,0-.12-.59.31-1.12s1-.64,1-.54-.38.35-.73.79S70.82,268.39,70.71,268.37Z" fill="#1a2e35"/>
          <path id="Trazado_188199" data-name="Trazado 188199" d="M68.42,261c-.07.08-.53-.19-1.16-.31s-1.17,0-1.2-.14.53-.39,1.27-.24S68.5,260.87,68.42,261Z" fill="#1a2e35"/>
        </g>
        <path id="Trazado_188200" data-name="Trazado 188200" d="M80.96,171.77l.58,5.89-.7,42.72L70.83,254.69l-2.43,8.32-12.92-2.43,9.96-88.79Z" fill="#051930"/>
      </g>
    </g>
    <path id="Trazado_188201" data-name="Trazado 188201" d="M80.57,221.27a1.468,1.468,0,0,1,0,.2l-.16.6-.65,2.29L77.23,233c-2.15,7.39-5.17,17.83-8.72,30.06v.09h-.1L55.46,260.7h-.12v-.12c.66-3.48,1.35-7.12,2-10.83l5.78-30.41h0l-4.83-30.29h0c-.94-1.71-1.67-3-2.16-3.92l-.55-1-.18-.35.2.34.58,1,2.2,3.9h0c1,6.15,2.75,16.85,4.94,30.28h0c-1.71,9.06-3.67,19.42-5.75,30.41-.7,3.71-1.39,7.35-2,10.83l-.1-.14,12.92,2.44-.13.08c3.58-12.22,6.64-22.64,8.8-30,1.09-3.68,2-6.6,2.55-8.61.29-1,.52-1.76.68-2.28l.18-.59A1.061,1.061,0,0,0,80.57,221.27Z" transform="translate(926 7550)" fill="#375a64"/>
    <path id="Trazado_188202" data-name="Trazado 188202" d="M78.64,175.28a4.51,4.51,0,0,1-.7,1,9.53,9.53,0,0,1-5.09,3.1,3.82,3.82,0,0,1-1.24.15,11.71,11.71,0,0,0,7-4.28Z" transform="translate(926 7550)" fill="#375a64"/>
    <g id="Grupo_93457" data-name="Grupo 93457" transform="translate(926 7550)">
      <path id="Trazado_188203" data-name="Trazado 188203" d="M106.18,110.82a.55.55,0,0,0-.13-.76.26.26,0,0,0-.19,0c-.26,0-.94.54-1.46.55s-1.42-.16-1.94.33a16.59,16.59,0,0,0-2,3.74c-.16.58-.73,5.67-.73,5.67Z" fill="#ffbf9d"/>
      <path id="Trazado_188204" data-name="Trazado 188204" d="M108.39,110.15s-6.27,2.79-9,4a.93.93,0,0,0-.27,1.53h0a1,1,0,0,0,1.12.17l9-4.37.74-1.12Z" fill="#1a2e35"/>
      <path id="Trazado_188205" data-name="Trazado 188205" d="M101.78,115.77l2-1.47,2.63-3.81s1.08-.64,1.63-.24.74.87.48,1.39c0,0,1.49.36,1.59.85a5.59,5.59,0,0,1-.21,1.71,3,3,0,0,1,0,1.42,2.31,2.31,0,0,0-.19.92,2.77,2.77,0,0,1,.55,2.38,14.45,14.45,0,0,1-3.07,4.58,19.818,19.818,0,0,1-2.69,1.5l-1.15,2.4-4.76-4.31Z" fill="#ffbf9d"/>
      <path id="Trazado_188206" data-name="Trazado 188206" d="M106.31,110.65a.377.377,0,0,1-.11.21l-.36.54-1.2,1.76-.67,1a2.21,2.21,0,0,1-.34.39,1.9,1.9,0,0,1-.38.25,3.46,3.46,0,0,1-.62.21,1,1,0,0,1-.24,0l.23-.08a3.15,3.15,0,0,0,.59-.23c.52-.21.86-.93,1.35-1.6l1.22-1.74.38-.52Z" fill="#ff9a6c"/>
      <path id="Trazado_188207" data-name="Trazado 188207" d="M106.93,114.62a14.657,14.657,0,0,1,.76-1.5,12.658,12.658,0,0,1,.86-1.45,16.259,16.259,0,0,1-.77,1.5A8.111,8.111,0,0,1,106.93,114.62Z" fill="#ff9a6c"/>
      <path id="Trazado_188208" data-name="Trazado 188208" d="M107.55,117a.5.5,0,0,0-.07-.21.84.84,0,0,0-.31-.39.91.91,0,0,0-.48-.16h-.22a.446.446,0,0,1,.22-.08.87.87,0,0,1,.54.15.86.86,0,0,1,.32.45.36.36,0,0,1,0,.24Z" fill="#ff9a6c"/>
      <path id="Trazado_188209" data-name="Trazado 188209" d="M109.76,117.72s-.08,0-.19-.14a2.4,2.4,0,0,0-.47-.3.87.87,0,0,0-.52-.09.6.6,0,0,0-.2.1s0-.11.18-.16a.76.76,0,0,1,.58.06,1.73,1.73,0,0,1,.47.34C109.71,117.64,109.77,117.71,109.76,117.72Z" fill="#ff9a6c"/>
      <path id="Trazado_188210" data-name="Trazado 188210" d="M108.91,115.71a4.331,4.331,0,0,1,.44-.78,4.441,4.441,0,0,1,.51-.73,3.381,3.381,0,0,1-.43.78,4.281,4.281,0,0,1-.52.73Z" fill="#ff9a6c"/>
      <path id="Trazado_188211" data-name="Trazado 188211" d="M105.09,115.89v-.2a.68.68,0,0,0-.27-.39.75.75,0,0,0-.44-.14h-.21a.367.367,0,0,1,.2-.08.75.75,0,0,1,.51.13.71.71,0,0,1,.28.45A.622.622,0,0,1,105.09,115.89Z" fill="#ff9a6c"/>
      <path id="Trazado_188212" data-name="Trazado 188212" d="M99.89,115.87a1.122,1.122,0,0,0,.17-.25.84.84,0,0,0,0-.69.9.9,0,0,0-.49-.49c-.17-.07-.29-.07-.29-.09s.12,0,.31,0a1,1,0,0,1,.57.52.87.87,0,0,1-.08.76C100,115.82,99.89,115.88,99.89,115.87Z" fill="#375a64"/>
    </g>
    <g id="Grupo_93458" data-name="Grupo 93458" transform="translate(926 7550)">
      <path id="Trazado_188213" data-name="Trazado 188213" d="M83.15,127.92l7.55,6.46,9.3-13.84,6,3.55s-9,20.8-11.48,22.63-4.51,1.36-7.66-.09-14.37-12.75-14.37-12.75Z" fill="#ffbf9d"/>
      <path id="Trazado_188214" data-name="Trazado 188214" d="M91,140.13c-.08,0,.13-1.32,0-2.93s-.43-2.89-.36-2.91a7.67,7.67,0,0,1,.6,2.9A8.13,8.13,0,0,1,91,140.13Z" fill="#ff9a6c"/>
    </g>
    <path id="Trazado_188215" data-name="Trazado 188215" d="M52.33,117.34s6.42.1,6.51,8.1a134.771,134.771,0,0,1-1.63,18.7l-16.39-2.88s2-14.9,3.77-19.19S49.67,116.62,52.33,117.34Z" transform="translate(926 7550)" fill="#32c1b1"/>
    <path id="Trazado_188216" data-name="Trazado 188216" d="M55.37,111.59l-.2,1.3s-8.76,5.79-9.25,7.28c-.77,2.32.9,21.88,1.64,27.42s.89,17.76.89,17.76a16.84,16.84,0,0,0-1.35,4.75,5.83,5.83,0,0,0,1.35,3.8c9.4,3.07,20.88.72,33.29-2.11l-.11-3.52L77.57,130s1.18-9.93-3.67-12.81c-.53-.32-4.76-2.72-4.76-2.72Z" transform="translate(926 7550)" fill="#32c1b1"/>
    <g id="Grupo_93460" data-name="Grupo 93460" transform="translate(926 7550)" opacity="0.3">
      <path id="Trazado_188217" data-name="Trazado 188217" d="M69.46,128.16A29.61,29.61,0,0,0,72.34,140a34.89,34.89,0,0,0,7.37,10.22l-1.32-11.44Z"/>
    </g>
    <g id="Grupo_93461" data-name="Grupo 93461" transform="translate(926 7550)">
      <path id="Trazado_188218" data-name="Trazado 188218" d="M76.81,118.51c-1.54-1.24-4.39-1.92-6-.8a4.94,4.94,0,0,0-2,2.43c-1.39,4.07-.56,8.44.56,11.68s6.49,9.5,6.49,9.5l13.28-8.07-9.82-11.89a23.4,23.4,0,0,0-2.51-2.85Z" fill="#32c1b1"/>
      <path id="Trazado_188219" data-name="Trazado 188219" d="M76.81,118.51a2.16,2.16,0,0,1,.28.22,9,9,0,0,1,.73.75c.62.67,1.43,1.73,2.53,3l8.88,10.68.08.1-.11.07L76.65,141l-.73.44-.09.06-.07-.08c-1.48-1.76-2.86-3.52-4.1-5.3a28.891,28.891,0,0,1-1.7-2.7,12.791,12.791,0,0,1-.65-1.41c-.18-.48-.32-1-.46-1.44a17.45,17.45,0,0,1-.13-10.41,4.61,4.61,0,0,1,1.17-1.8,4.28,4.28,0,0,1,1.6-1,4.61,4.61,0,0,1,1.65-.2,6.189,6.189,0,0,1,1.38.24,6.09,6.09,0,0,1,1.75.78,2.77,2.77,0,0,1,.54.4,5.473,5.473,0,0,0-.56-.36,6.82,6.82,0,0,0-1.76-.73,6,6,0,0,0-1.35-.21,4.39,4.39,0,0,0-1.61.21,4.48,4.48,0,0,0-1.54,1,4.38,4.38,0,0,0-1.11,1.75,17.41,17.41,0,0,0,.18,10.29c.14.47.29.95.46,1.42a10.809,10.809,0,0,0,.65,1.38A29.71,29.71,0,0,0,71.85,136c1.24,1.76,2.62,3.52,4.1,5.27h-.16l.73-.44,12.57-7.61v.16l-8.81-10.74c-1.09-1.3-1.88-2.37-2.48-3.06-.29-.34-.54-.6-.7-.76Z" fill="#1a2e35"/>
    </g>
    <path id="Trazado_188220" data-name="Trazado 188220" d="M45.75,124.6a1.45,1.45,0,0,1,0,.23l.06.67c0,.62.11,1.45.18,2.45.14,2.11.32,5,.52,8.11s.42,6,.61,8.1l.23,2.45a2.218,2.218,0,0,0,.06.67.68.68,0,0,1,0,.23s0-.07,0-.23-.07-.39-.11-.66c-.08-.57-.19-1.41-.3-2.44-.23-2.07-.48-4.93-.69-8.1s-.34-6-.44-8.12c0-1-.07-1.84-.1-2.46v-.67a.6.6,0,0,1-.02-.23Z" transform="translate(926 7550)" fill="#1a2e35"/>
    <path id="Trazado_188221" data-name="Trazado 188221" d="M75.12,171l-.24.07-.72.18-1.14.24c-.45.09-1,.18-1.52.27-1.13.19-2.49.35-4,.5s-3.17.22-4.92.24a45.733,45.733,0,0,1-4.93-.15c-1.51-.15-2.87-.26-4-.44-.57-.08-1.08-.17-1.53-.26L51,171.46l-.72-.18c-.16,0-.25-.06-.24-.07a.79.79,0,0,1,.25,0l.73.12c.31.07.7.13,1.15.2s1,.15,1.52.22c1.13.16,2.49.28,4,.39s3.16.14,4.91.13,3.4-.11,4.9-.23,2.86-.27,4-.44c.57-.08,1.08-.16,1.52-.24s.84-.13,1.15-.2l.73-.13Z" transform="translate(926 7550)" fill="#1a2e35"/>
  </g>
</svg>
