<svg xmlns="http://www.w3.org/2000/svg" width="300" height="300" viewBox="0 0 300 300">
  <g id="Grupo_94308" data-name="Grupo 94308" transform="translate(-926 -7888)">
    <rect id="Rectángulo_39189" data-name="Rectángulo 39189" width="53.09" height="76.95" transform="translate(1168 7914.04)" fill="#90b0d5"/>
    <rect id="Rectángulo_39190" data-name="Rectángulo 39190" width="53.09" height="76.95" transform="translate(1165.34 7914.04)" fill="#f5f5f5"/>
    <rect id="Rectángulo_39191" data-name="Rectángulo 39191" width="39.9" height="60.28" transform="translate(1171.94 7922.38)" fill="#fff"/>
    <path id="Trazado_187883" data-name="Trazado 187883" d="M285.84,94.66V77.79c0-10.63,0-25.69-.06-43.41l.13.13h-39.9l.14-.14V94.65l-.12-.11,29,.06h.05l-29.11.06h-.11V34.11H286v.13c0,17.76-.05,32.84-.06,43.49V94.24A1.923,1.923,0,0,0,285.84,94.66Z" transform="translate(926 7888)" fill="#90b0d5"/>
    <path id="Trazado_187884" data-name="Trazado 187884" d="M292.58,26a9.361,9.361,0,0,1-.94,1.38c-.62.82-1.49,1.95-2.49,3.16s-1.94,2.29-2.63,3.05a8.809,8.809,0,0,1-1.17,1.19,10,10,0,0,1,1-1.32l2.55-3.11c1-1.17,1.85-2.23,2.56-3.1A10.5,10.5,0,0,1,292.58,26Z" transform="translate(926 7888)" fill="#90b0d5"/>
    <path id="Trazado_187885" data-name="Trazado 187885" d="M286,94.47a49.4,49.4,0,0,0,7,8.7" transform="translate(926 7888)" fill="#fff"/>
    <path id="Trazado_187886" data-name="Trazado 187886" d="M293,103.17a7.211,7.211,0,0,1-1.21-1.1,39.255,39.255,0,0,1-2.63-3,32.072,32.072,0,0,1-2.31-3.22,8.4,8.4,0,0,1-.81-1.42,9.177,9.177,0,0,1,1,1.31c.59.82,1.41,1.94,2.37,3.15s1.87,2.25,2.55,3a10.9,10.9,0,0,1,1.04,1.28Z" transform="translate(926 7888)" fill="#90b0d5"/>
    <path id="Trazado_187887" data-name="Trazado 187887" d="M239.34,102.94l6.95-8.58" transform="translate(926 7888)" fill="#fff"/>
    <path id="Trazado_187888" data-name="Trazado 187888" d="M246.29,94.36a52.994,52.994,0,0,1-3.36,4.38,53.253,53.253,0,0,1-3.59,4.2,49.638,49.638,0,0,1,3.36-4.39,54.125,54.125,0,0,1,3.59-4.19Z" transform="translate(926 7888)" fill="#90b0d5"/>
    <path id="Trazado_187889" data-name="Trazado 187889" d="M239.34,26a45.66,45.66,0,0,1,3.38,4,49.868,49.868,0,0,1,3.15,4.21,48.843,48.843,0,0,1-3.38-4A48.994,48.994,0,0,1,239.34,26Z" transform="translate(926 7888)" fill="#90b0d5"/>
    <rect id="Rectángulo_39192" data-name="Rectángulo 39192" width="13.36" height="37.93" transform="translate(1186.05 7934.62)" fill="#90b0d5"/>
    <rect id="Rectángulo_39193" data-name="Rectángulo 39193" width="86.87" height="3.87" transform="translate(941.27 8000.82)" fill="#90b0d5"/>
    <rect id="Rectángulo_39194" data-name="Rectángulo 39194" width="3.53" height="13.21" transform="translate(955.49 8002.68)" fill="#90b0d5"/>
    <rect id="Rectángulo_39195" data-name="Rectángulo 39195" width="3.53" height="13.21" transform="translate(1008.14 8002.68)" fill="#90b0d5"/>
    <path id="Trazado_187890" data-name="Trazado 187890" d="M69.22,79.46c.14-.14,1.11.57,2.37,2a22.45,22.45,0,0,1,2,2.71,26.34,26.34,0,0,1,1.93,3.68,27.719,27.719,0,0,1,1.33,3.94,22.58,22.58,0,0,1,.57,3.35c.18,1.92,0,3.12-.17,3.13-.46,0-.88-4.63-3.12-9.81S68.88,79.78,69.22,79.46Z" transform="translate(926 7888)" fill="#ececec"/>
    <path id="Trazado_187891" data-name="Trazado 187891" d="M78.77,102.15c-.19,0-.74-2.53-1.25-6.71s-.94-10-1.1-16.4-.1-12.23,0-16.43.33-6.79.53-6.79.4,2.59.55,6.79.25,10,.42,16.39.42,12.16.66,16.34S79,102.12,78.77,102.15Z" transform="translate(926 7888)" fill="#ececec"/>
    <path id="Trazado_187892" data-name="Trazado 187892" d="M88,65.68c.19.11-.6,1.89-1.65,4.87S84,77.69,82.7,82.34s-2.26,8.91-2.85,12-.85,5-1.08,5-.35-2,0-5.21a81.511,81.511,0,0,1,2.45-12.26,82.852,82.852,0,0,1,4.14-11.78C86.7,67.21,87.85,65.58,88,65.68Z" transform="translate(926 7888)" fill="#ececec"/>
    <path id="Trazado_187893" data-name="Trazado 187893" d="M66.88,96.81v5.11a10.83,10.83,0,0,0,10.76,10.9h0a10.83,10.83,0,0,0,10.76-10.9V96.81Z" transform="translate(926 7888)" fill="#90b0d5"/>
    <path id="Trazado_187894" data-name="Trazado 187894" d="M88.6,101.14c0,.08-4.87.15-10.86.15s-10.86-.07-10.86-.15,4.86-.16,10.86-.16S88.6,101.05,88.6,101.14Z" transform="translate(926 7888)" fill="#fafafa"/>
    <path id="Trazado_187895" data-name="Trazado 187895" d="M88.6,102.55c0,.09-4.87.16-10.86.16s-10.86-.07-10.86-.16,4.86-.15,10.86-.15S88.6,102.47,88.6,102.55Z" transform="translate(926 7888)" fill="#fafafa"/>
    <rect id="Rectángulo_39196" data-name="Rectángulo 39196" width="4.83" height="23.71" transform="matrix(0.005, 1, -1, 0.005, 975.938, 7983.451)" fill="#90b0d5"/>
    <rect id="Rectángulo_39197" data-name="Rectángulo 39197" width="7.5" height="26.43" transform="matrix(0.005, 1, -1, 0.005, 978.779, 7993.302)" fill="#f5f5f5"/>
    <path id="Trazado_187896" data-name="Trazado 187896" d="M47.72,112.76a27.51,27.51,0,0,1-.13-3.75,27.509,27.509,0,0,1,.13-3.75,27.51,27.51,0,0,1,.13,3.75A27.51,27.51,0,0,1,47.72,112.76Z" transform="translate(926 7888)" fill="#90b0d5"/>
    <path id="Trazado_187897" data-name="Trazado 187897" d="M48.83,112.76A27.51,27.51,0,0,1,48.7,109a27.51,27.51,0,0,1,.13-3.75A27.51,27.51,0,0,1,49,109,27.51,27.51,0,0,1,48.83,112.76Z" transform="translate(926 7888)" fill="#90b0d5"/>
    <path id="Trazado_187898" data-name="Trazado 187898" d="M30.36,112.76a27.51,27.51,0,0,1-.13-3.75,27.51,27.51,0,0,1,.13-3.75,27.51,27.51,0,0,1,.13,3.75A27.51,27.51,0,0,1,30.36,112.76Z" transform="translate(926 7888)" fill="#90b0d5"/>
    <path id="Trazado_187899" data-name="Trazado 187899" d="M31.47,112.76a27.51,27.51,0,0,1-.13-3.75,27.509,27.509,0,0,1,.13-3.75A27.51,27.51,0,0,1,31.6,109,27.51,27.51,0,0,1,31.47,112.76Z" transform="translate(926 7888)" fill="#90b0d5"/>
    <path id="Trazado_187900" data-name="Trazado 187900" d="M33.89,109.13c0-.07,2.67-.13,6-.13s5.95.06,5.95.13-2.66.13-5.95.13S33.89,109.2,33.89,109.13Z" transform="translate(926 7888)" fill="#90b0d5"/>
    <rect id="Rectángulo_39198" data-name="Rectángulo 39198" width="4.83" height="32.62" transform="matrix(0.005, 1, -1, 0.005, 988.701, 7988.162)" fill="#ececec"/>
    <path id="Trazado_187901" data-name="Trazado 187901" d="M58.07,104.39a1.56,1.56,0,1,1,1.54-1.56,1.56,1.56,0,0,1-1.54,1.56Z" transform="translate(926 7888)" fill="#90b0d5"/>
    <rect id="Rectángulo_39199" data-name="Rectángulo 39199" width="0.97" height="21.83" transform="translate(979.82 7990.35) rotate(90)" fill="#90b0d5"/>
    <rect id="Rectángulo_39200" data-name="Rectángulo 39200" width="35.73" height="3.45" transform="translate(1122.68 8069.9)" fill="#1a2e35"/>
    <rect id="Rectángulo_39201" data-name="Rectángulo 39201" width="35.73" height="3.45" transform="translate(1118.85 8093.28)" fill="#1a2e35"/>
    <rect id="Rectángulo_39202" data-name="Rectángulo 39202" width="35.73" height="3.45" transform="translate(1129.25 8044.73)" fill="#1a2e35"/>
    <rect id="Rectángulo_39203" data-name="Rectángulo 39203" width="35.73" height="3.45" transform="translate(1133.62 8021.02)" fill="#1a2e35"/>
    <rect id="Rectángulo_39204" data-name="Rectángulo 39204" width="35.73" height="3.45" transform="translate(1111.19 8116.8)" fill="#1a2e35"/>
    <path id="Trazado_187902" data-name="Trazado 187902" d="M208.46,112.19,176.52,258.05h5.98l32.02-145.62Z" transform="translate(926 7888)" fill="#1a2e35"/>
    <path id="Trazado_187903" data-name="Trazado 187903" d="M245.82,112.19,213.88,258.05h5.98l32.02-145.62Z" transform="translate(926 7888)" fill="#1a2e35"/>
    <path id="Trazado_187904" data-name="Trazado 187904" d="M211.65,110.3l33.41,147.75h5.52L217.47,110.3Z" transform="translate(926 7888)" fill="#375a64"/>
    <path id="Trazado_187905" data-name="Trazado 187905" d="M247.75,110.3l33.41,147.75h5.52L253.57,110.3Z" transform="translate(926 7888)" fill="#375a64"/>
    <path id="Trazado_187906" data-name="Trazado 187906" d="M206.62,109.77v3.07h51.06V109.3Z" transform="translate(926 7888)" fill="#375a64"/>
    <rect id="Rectángulo_39205" data-name="Rectángulo 39205" width="35.73" height="3.45" transform="translate(1152.55 8045.42)" fill="#375a64"/>
    <rect id="Rectángulo_39206" data-name="Rectángulo 39206" width="35.73" height="3.45" transform="translate(1159.52 8069.79)" fill="#375a64"/>
    <rect id="Rectángulo_39207" data-name="Rectángulo 39207" width="35.73" height="3.45" transform="translate(1163.55 8093.28)" fill="#375a64"/>
    <rect id="Rectángulo_39208" data-name="Rectángulo 39208" width="35.73" height="3.45" transform="translate(1169.56 8118.53)" fill="#375a64"/>
    <rect id="Rectángulo_39209" data-name="Rectángulo 39209" width="35.73" height="3.45" transform="translate(1146.22 8021.02)" fill="#375a64"/>
    <g id="Grupo_93343" data-name="Grupo 93343" transform="translate(926 7888)">
      <path id="Trazado_187907" data-name="Trazado 187907" d="M248.93,55,249,76.24l-8.3.4-.34-5.1s-4,.61-4.83-2.4c-.54-1.93-.4-16.79-.4-16.79Z" fill="#c78976"/>
      <path id="Trazado_187908" data-name="Trazado 187908" d="M233.07,54.45c.61,1.27,3.54,3.6,3.54,3.6l1.32,3.54c1.15-.9,2.69-.85,3,1.17.21,1.46-1.6,1.75-1.6,1.75a26.451,26.451,0,0,0,3.31,5,4.983,4.983,0,0,0,4.4,2.07h2s4.07-3.4,3.27-12.36-8.86-6.35-10.79-8.59C238.36,47,231,50.21,233.07,54.45Z" fill="#1a2e35"/>
    </g>
    <path id="Trazado_187909" data-name="Trazado 187909" d="M238.41,49.66a9.79,9.79,0,0,0-1.46.6,4.38,4.38,0,0,0-1.38,6.48,7.79,7.79,0,0,0,1.09,1.14.7.7,0,0,1-.39-.2,3.83,3.83,0,0,1-.86-.81,4.44,4.44,0,0,1,1.45-6.79,3.74,3.74,0,0,1,1.12-.39C238.26,49.64,238.41,49.64,238.41,49.66Z" transform="translate(926 7888)" fill="#375a64"/>
    <path id="Trazado_187910" data-name="Trazado 187910" d="M239.39,53.39a6.426,6.426,0,0,1-.69.45,4.38,4.38,0,0,0-1.29,1.41,4.29,4.29,0,0,0-.54,1.83,6.2,6.2,0,0,1,0,.81,1.9,1.9,0,0,1-.17-.82,3.77,3.77,0,0,1,1.93-3.4,1.5,1.5,0,0,1,.76-.28Z" transform="translate(926 7888)" fill="#375a64"/>
    <path id="Trazado_187911" data-name="Trazado 187911" d="M199.68,104.51a3.19,3.19,0,0,1-3.19-3.2c0-1.76,1.43-4.88,3.19-4.88s3.2,3.12,3.2,4.88a3.2,3.2,0,0,1-3.2,3.2Z" transform="translate(926 7888)" fill="#ffa726"/>
    <path id="Trazado_187912" data-name="Trazado 187912" d="M225.36,92.77l-4,10.23-16.1,1.36h0l-.33-.08c-.31-.21-.67-.45-1.07-.76a3.7,3.7,0,0,1-.89-1,7,7,0,0,1-.71-1.3v-.1a.37.37,0,0,0-.08-.19.5.5,0,0,0-.89,0,3.91,3.91,0,0,0,.9,2.75h0c.8,1.22-1.35.51-2.14.27s-3.26-.88-3.52-.7-.15.75.64,1,3.12,1.06,3,1.48-4.13-.89-4.13-.89-.81-.41-1,.06c-.32.85,4,1.91,4.44,2s.15.51-.15.43-4-1.38-4.29-.52c-.25.66,3.56.9,4.18,1.59s-2.88-.48-3.1.16c-.08.24-.1.43,2,.82a45.515,45.515,0,0,0,5,.39h0l.47.06v-.06l19.34-.25c2.84,0,5.19-.46,6.08-3.15l3.31-10Z" transform="translate(926 7888)" fill="#c78976"/>
    <g id="Grupo_93346" data-name="Grupo 93346" transform="translate(926 7888)">
      <path id="Trazado_187913" data-name="Trazado 187913" d="M279.58,184.35l-3.25-3,5.55-6.13,4.8,4.31-.32.4c-1.44,1.78-7.43,8.93-8.79,9.75C276.05,190.61,279.58,184.35,279.58,184.35Z" fill="#104c82"/>
      <g id="Grupo_93345" data-name="Grupo 93345" opacity="0.4">
        <path id="Trazado_187914" data-name="Trazado 187914" d="M278,187.49s-1.13,2.3-.62,2.35,6.83-7,9.35-10.29l-.15-.11-7.3,8.22S278.28,187.15,278,187.49Z" fill="#fff"/>
      </g>
      <path id="Trazado_187915" data-name="Trazado 187915" d="M286.62,179.34l-.09.11c-.07.1-.16.21-.25.32l-1,1.16c-.82,1-2,2.3-3.26,3.74s-2.5,2.71-3.38,3.62l-1.06,1.07c-.11.11-.2.21-.29.29l-.11.1.1-.11.27-.3,1-1.1c.87-.92,2.07-2.2,3.36-3.64s2.46-2.76,3.29-3.71l1-1.14.27-.31C286.58,179.37,286.61,179.34,286.62,179.34Z" fill="#1a2e35"/>
      <path id="Trazado_187916" data-name="Trazado 187916" d="M279.32,187.75a3,3,0,0,0-.72-.27,3.049,3.049,0,0,0-.77,0,1.12,1.12,0,0,1,.79-.09,1.08,1.08,0,0,1,.7.36Z" fill="#1a2e35"/>
      <path id="Trazado_187917" data-name="Trazado 187917" d="M280,185.11h-.41c-.22,0-.4-.09-.39-.12a1,1,0,0,1,.41,0C279.87,185,280,185.08,280,185.11Z" fill="#1a2e35"/>
      <path id="Trazado_187918" data-name="Trazado 187918" d="M280.23,184.38a.8.8,0,0,1-.34.08h-.35a1.187,1.187,0,0,1,.34-.09C280.07,184.35,280.22,184.35,280.23,184.38Z" fill="#1a2e35"/>
      <path id="Trazado_187919" data-name="Trazado 187919" d="M279.93,183.54a1.862,1.862,0,0,1-.25.36c-.16.18-.3.31-.32.29s.09-.18.25-.36S279.91,183.52,279.93,183.54Z" fill="#1a2e35"/>
      <path id="Trazado_187920" data-name="Trazado 187920" d="M279.62,183.06a.91.91,0,0,1-.22.45.85.85,0,0,1-.38.33s.14-.18.3-.39S279.59,183.05,279.62,183.06Z" fill="#1a2e35"/>
      <path id="Trazado_187921" data-name="Trazado 187921" d="M279.32,184.84a1.75,1.75,0,0,1-.36.39,4.161,4.161,0,0,1-.47.33,1.35,1.35,0,0,1-.32.15.26.26,0,0,1-.21,0,.21.21,0,0,1-.1-.2.975.975,0,0,1,1.37-.6.4.4,0,0,1,.12.09,1.64,1.64,0,0,0-.5-.12.91.91,0,0,0-.52.14.79.79,0,0,0-.39.49c0,.11.08.15.19.12a1.551,1.551,0,0,0,.29-.14,2.731,2.731,0,0,0,.47-.31C279.17,185,279.3,184.82,279.32,184.84Z" fill="#1a2e35"/>
      <path id="Trazado_187922" data-name="Trazado 187922" d="M279.24,185a.447.447,0,0,1-.31-.2.82.82,0,0,1-.19-.36.54.54,0,0,1,.09-.51.22.22,0,0,1,.3,0,.54.54,0,0,1,.11.23,1.211,1.211,0,0,1,.07.4.83.83,0,0,1,0,.37s0-.15,0-.37a1.59,1.59,0,0,0-.09-.38c0-.13-.15-.3-.25-.21s-.09.27-.07.41a1.06,1.06,0,0,0,.15.34A2.067,2.067,0,0,0,279.24,185Z" fill="#1a2e35"/>
      <path id="Trazado_187923" data-name="Trazado 187923" d="M284.83,178a5.2,5.2,0,0,0-.4.47,2.61,2.61,0,0,0-.17,2.76c.18.33.35.5.33.51a.579.579,0,0,1-.12-.11,2.379,2.379,0,0,1-.27-.37,2.5,2.5,0,0,1-.35-1.44,2.58,2.58,0,0,1,.53-1.4,2.624,2.624,0,0,1,.31-.33C284.77,178,284.82,177.94,284.83,178Z" fill="#1a2e35"/>
      <path id="Trazado_187924" data-name="Trazado 187924" d="M281.7,176.28a13,13,0,0,1,1.31,1.08,14.856,14.856,0,0,1,1.24,1.16,14.5,14.5,0,0,1-1.31-1.08,14.847,14.847,0,0,1-1.24-1.16Z" fill="#1a2e35"/>
      <path id="Trazado_187925" data-name="Trazado 187925" d="M283.33,182a5.1,5.1,0,0,1-.72,1,4.73,4.73,0,0,1-.89.83s.37-.4.81-.9A11.524,11.524,0,0,1,283.33,182Z" fill="#1a2e35"/>
      <path id="Trazado_187926" data-name="Trazado 187926" d="M284.41,180.76s.06.11.11.23.12.22.1.24-.13,0-.19-.2S284.38,180.76,284.41,180.76Z" fill="#1a2e35"/>
      <path id="Trazado_187927" data-name="Trazado 187927" d="M284.26,179.8a.575.575,0,0,1,.06.21,1.494,1.494,0,0,1,0,.23.543.543,0,0,0-.06-.22C284.2,179.9,284.23,179.8,284.26,179.8Z" fill="#1a2e35"/>
      <path id="Trazado_187928" data-name="Trazado 187928" d="M284.58,178.92s-.05.1-.1.22-.06.23-.09.23-.07-.13,0-.27S284.57,178.89,284.58,178.92Z" fill="#1a2e35"/>
      <path id="Trazado_187929" data-name="Trazado 187929" d="M284.88,178.35v.14c0,.07-.07.11-.1.1s0-.07,0-.14S284.85,178.34,284.88,178.35Z" fill="#1a2e35"/>
    </g>
    <g id="Grupo_93347" data-name="Grupo 93347" transform="translate(926 7888)" opacity="0.3">
      <path id="Trazado_187930" data-name="Trazado 187930" d="M284.43,177.66l-6.21,5.44-.77-.69,5.61-6.17Z"/>
    </g>
    <g id="Grupo_93350" data-name="Grupo 93350" transform="translate(926 7888)">
      <path id="Trazado_187931" data-name="Trazado 187931" d="M253.3,202.29l-.72-4.35,8.14-1.41,1.13,6.35-.5.12c-2.23.51-11.35,2.46-12.93,2.27C246.66,205.05,253.3,202.29,253.3,202.29Z" fill="#104c82"/>
      <g id="Grupo_93349" data-name="Grupo 93349" opacity="0.4">
        <path id="Trazado_187932" data-name="Trazado 187932" d="M250.08,203.76s-2.3,1.12-1.93,1.47,9.66-1.28,13.7-2.35l-.05-.18-10.82,2S250.56,203.7,250.08,203.76Z" fill="#fff"/>
      </g>
      <path id="Trazado_187933" data-name="Trazado 187933" d="M261.93,202.67h-.14l-.4.1-1.46.32c-1.24.26-3,.6-4.87.94s-3.64.59-4.9.77l-1.49.2h-.41l.4-.06,1.49-.23c1.25-.19,3-.47,4.89-.8s3.63-.67,4.87-.91l1.48-.29.4-.08Z" fill="#1a2e35"/>
      <path id="Trazado_187934" data-name="Trazado 187934" d="M251,204.81a2.93,2.93,0,0,0-.39-.66,3.509,3.509,0,0,0-.61-.48,1.17,1.17,0,0,1,.68.41A1.06,1.06,0,0,1,251,204.81Z" fill="#1a2e35"/>
      <path id="Trazado_187935" data-name="Trazado 187935" d="M253.19,203.17a1.587,1.587,0,0,1-.31-.27c-.15-.17-.26-.31-.23-.33s.15.1.31.27S253.21,203.15,253.19,203.17Z" fill="#1a2e35"/>
      <path id="Trazado_187936" data-name="Trazado 187936" d="M253.79,202.71a.532.532,0,0,1-.32-.14c-.16-.14-.28-.21-.27-.23s.16,0,.32.14S253.81,202.68,253.79,202.71Z" fill="#1a2e35"/>
      <path id="Trazado_187937" data-name="Trazado 187937" d="M254.07,201.87a1.17,1.17,0,0,1-.41.13,1.19,1.19,0,0,1-.43,0,1.654,1.654,0,0,1,.41-.13C253.87,201.83,254.07,201.84,254.07,201.87Z" fill="#1a2e35"/>
      <path id="Trazado_187938" data-name="Trazado 187938" d="M254.12,201.3a1.159,1.159,0,0,1-.45.22.8.8,0,0,1-.5,0,2.84,2.84,0,0,1,.48-.12,4.188,4.188,0,0,1,.47-.1Z" fill="#1a2e35"/>
      <path id="Trazado_187939" data-name="Trazado 187939" d="M252.79,202.51a1.5,1.5,0,0,1-.52.09,3,3,0,0,1-.58,0,1.471,1.471,0,0,1-.34-.07.36.36,0,0,1-.16-.14.22.22,0,0,1,.05-.23,1,1,0,0,1,1.23.08.84.84,0,0,1,.23.32c0,.08.05.13,0,.14a1.57,1.57,0,0,0-.32-.41.92.92,0,0,0-.49-.21.85.85,0,0,0-.62.15c-.07.08,0,.17.08.21a1.65,1.65,0,0,0,.32.07,4.133,4.133,0,0,0,.56.05A4.544,4.544,0,0,1,252.79,202.51Z" fill="#1a2e35"/>
      <path id="Trazado_187940" data-name="Trazado 187940" d="M252.66,202.56a.57.57,0,0,1-.12-.35.89.89,0,0,1,.07-.41c.08-.13.17-.31.39-.34a.21.21,0,0,1,.21.21.66.66,0,0,1-.05.25,2.363,2.363,0,0,1-.19.36c-.14.19-.26.27-.27.26s.09-.11.21-.3a1.65,1.65,0,0,0,.16-.35c.05-.12.07-.33-.07-.33s-.24.16-.3.28a.91.91,0,0,0-.09.37,3.374,3.374,0,0,0,.05.35Z" fill="#1a2e35"/>
      <path id="Trazado_187941" data-name="Trazado 187941" d="M261.37,200.47a1.927,1.927,0,0,0-.59.13,2.61,2.61,0,0,0-1.22.77,2.65,2.65,0,0,0-.62,1.3c-.06.37,0,.61-.05.61s0-.06,0-.16a2.462,2.462,0,0,1,0-.46,2.53,2.53,0,0,1,1.89-2.13,2.32,2.32,0,0,1,.45-.06Z" fill="#1a2e35"/>
      <path id="Trazado_187942" data-name="Trazado 187942" d="M259.94,197.24a12.8,12.8,0,0,1,.36,1.65,16,16,0,0,1,.27,1.68,14.283,14.283,0,0,1-.37-1.66,14,14,0,0,1-.26-1.67Z" fill="#1a2e35"/>
      <path id="Trazado_187943" data-name="Trazado 187943" d="M257.72,202.71a4.17,4.17,0,0,1-1.16.33,4.59,4.59,0,0,1-1.21.11s.53-.09,1.19-.21S257.71,202.69,257.72,202.71Z" fill="#1a2e35"/>
      <path id="Trazado_187944" data-name="Trazado 187944" d="M259.32,202.43a.662.662,0,0,1-.06.25c-.06.13,0,.25-.07.25s-.07-.12,0-.27S259.3,202.42,259.32,202.43Z" fill="#1a2e35"/>
      <path id="Trazado_187945" data-name="Trazado 187945" d="M259.79,201.58a.343.343,0,0,1-.09.21c-.09.1-.14.17-.16.15s0-.11.08-.21S259.77,201.56,259.79,201.58Z" fill="#1a2e35"/>
      <path id="Trazado_187946" data-name="Trazado 187946" d="M260.59,201.09a.341.341,0,0,0-.22.11c-.11.11-.19.14-.21.12s0-.13.16-.21S260.59,201.06,260.59,201.09Z" fill="#1a2e35"/>
      <path id="Trazado_187947" data-name="Trazado 187947" d="M261.17,200.82a.132.132,0,0,1-.09.11.15.15,0,0,1-.14,0c-.02,0,0-.08.09-.11S261.16,200.8,261.17,200.82Z" fill="#1a2e35"/>
    </g>
    <g id="Grupo_93351" data-name="Grupo 93351" transform="translate(926 7888)" opacity="0.3">
      <path id="Trazado_187948" data-name="Trazado 187948" d="M261.24,200.01l-8.24.46-.18-1.03,8.22-1.4Z"/>
    </g>
    <g id="Grupo_93356" data-name="Grupo 93356" transform="translate(926 7888)">
      <path id="Trazado_187949" data-name="Trazado 187949" d="M228.91,78.25,213.62,62.72,213.29,61c-.06-.31-.13-.65-.19-1a3.94,3.94,0,0,1,0-1.37,6.289,6.289,0,0,1,.5-1.63c.26-.45-.16-1-.58-.8a4.28,4.28,0,0,0-1.33,3.08c-.16,1.68-1.59-.55-2.12-1.35s-2.31-3.2-2.68-3.23c-.54,0-.68.54-.12,1.33s2,3.27,1.62,3.54h0a2,2,0,0,0-2.12,1c-.38.74-.81,1.79-.46,2.28a28.68,28.68,0,0,0,2.44,2.58l.51.44s13.24,19.2,16.1,19.82c1.79.39,29.5,2.69,29.5,2.69l2.09-7.63Z" fill="#c78976"/>
      <g id="Grupo_93353" data-name="Grupo 93353">
        <path id="Trazado_187950" data-name="Trazado 187950" d="M205.68,62.57l1.42,1.35a1.43,1.43,0,0,0,.53.39.5.5,0,0,0,.7-.66,1.82,1.82,0,0,0-.32-.51l-1.38-1.65" fill="#c78976"/>
        <path id="Trazado_187951" data-name="Trazado 187951" d="M206.63,61.49a3.53,3.53,0,0,1,.7.68l.7.8a2.43,2.43,0,0,1,.39.52.76.76,0,0,1,0,.79.7.7,0,0,1-.77.18,1.69,1.69,0,0,1-.56-.39l-.74-.76a4.061,4.061,0,0,1-.63-.74,3.26,3.26,0,0,1,.78.6l.78.7a1.28,1.28,0,0,0,.46.32.42.42,0,0,0,.46-.09.48.48,0,0,0,0-.48,2.16,2.16,0,0,0-.33-.48c-.23-.29-.44-.57-.66-.83a3.29,3.29,0,0,1-.58-.82Z" fill="#bf654e"/>
      </g>
      <g id="Grupo_93354" data-name="Grupo 93354">
        <path id="Trazado_187952" data-name="Trazado 187952" d="M206.69,61.58l1.41,1.36a1.82,1.82,0,0,0,.53.39.58.58,0,0,0,.62-.1.56.56,0,0,0,.08-.57,1.47,1.47,0,0,0-.32-.5l-1.38-1.66" fill="#c78976"/>
        <path id="Trazado_187953" data-name="Trazado 187953" d="M207.63,60.5a6.977,6.977,0,0,1,.71.69L209,62a2.28,2.28,0,0,1,.39.53.74.74,0,0,1,0,.78.71.71,0,0,1-.78.18,1.55,1.55,0,0,1-.55-.39l-.74-.76c-.42-.43-.66-.71-.63-.74a3.349,3.349,0,0,1,.77.6l.78.71a1.38,1.38,0,0,0,.46.31.42.42,0,0,0,.46-.09.48.48,0,0,0,0-.48,3,3,0,0,0-.34-.48l-.65-.83a3.19,3.19,0,0,1-.54-.84Z" fill="#bf654e"/>
      </g>
      <g id="Grupo_93355" data-name="Grupo 93355">
        <path id="Trazado_187954" data-name="Trazado 187954" d="M207.79,60.77l1.41,1.36a1.82,1.82,0,0,0,.53.39.51.51,0,0,0,.71-.67,1.67,1.67,0,0,0-.33-.5l-1.37-1.66" fill="#c78976"/>
        <path id="Trazado_187955" data-name="Trazado 187955" d="M208.74,59.69a3.761,3.761,0,0,1,.7.69l.7.79a3,3,0,0,1,.39.53.76.76,0,0,1,0,.78.71.71,0,0,1-.78.18,1.55,1.55,0,0,1-.55-.39l-.74-.76c-.42-.43-.66-.71-.63-.74s.32.2.77.6l.78.71a1.62,1.62,0,0,0,.46.31.42.42,0,0,0,.46-.09.48.48,0,0,0,0-.48,2.62,2.62,0,0,0-.34-.48l-.65-.83A3.291,3.291,0,0,1,208.74,59.69Z" fill="#bf654e"/>
      </g>
      <path id="Trazado_187956" data-name="Trazado 187956" d="M210,63.12a1.681,1.681,0,0,1,.86,0l-.16.14a2.4,2.4,0,0,1,0-1,2.44,2.44,0,0,1,.53-1.19c.21-.25.4-.35.42-.32a4.89,4.89,0,0,0-.67,1.55,3.261,3.261,0,0,0,0,.88v.22l-.19-.08A4.948,4.948,0,0,1,210,63.12Z" fill="#bf654e"/>
    </g>
    <g id="Grupo_93360" data-name="Grupo 93360" transform="translate(926 7888)">
      <g id="Grupo_93357" data-name="Grupo 93357">
        <path id="Trazado_187957" data-name="Trazado 187957" d="M233.89,94.25,232.47,99l-9-4.06c.32-1,1.81-5.48,4.65-12.57a12.2,12.2,0,0,1,9.31-7.51,52.829,52.829,0,0,1,8.6-.84c5,0,12.45,3.2,13.45,8.14.76,3.77-1.74,27.33-1.74,27.33l1.5,8.94L233.06,117Z" fill="#104c82"/>
        <path id="Trazado_187958" data-name="Trazado 187958" d="M233.22,77.48a1.761,1.761,0,0,1,.69.21,3.61,3.61,0,0,1,1.49,1.2,5.12,5.12,0,0,1,.89,2.69,17.07,17.07,0,0,1-.28,3.54,56.551,56.551,0,0,1-1.44,6.33c-.21.77-.39,1.41-.52,1.9a6.562,6.562,0,0,0-.17.7,3.17,3.17,0,0,0,.25-.68c.15-.44.35-1.08.59-1.88a48,48,0,0,0,1.51-6.33,16.12,16.12,0,0,0,.26-3.59,5,5,0,0,0-1-2.77,3.43,3.43,0,0,0-1.58-1.19,2,2,0,0,0-.53-.12Z" fill="#1a2e35"/>
      </g>
      <path id="Trazado_187959" data-name="Trazado 187959" d="M257.6,78.53s-6.05.06-13.51.06-13.51,0-13.51-.06,6-.06,13.51-.06S257.6,78.5,257.6,78.53Z" fill="#f5f5f5"/>
      <path id="Trazado_187960" data-name="Trazado 187960" d="M259.6,83h0Z" fill="#f5f5f5"/>
      <path id="Trazado_187961" data-name="Trazado 187961" d="M259.56,87.68s-7.47.06-16.7.06-16.7,0-16.7-.06,7.48-.06,16.7-.06S259.56,87.65,259.56,87.68Z" fill="#f5f5f5"/>
      <path id="Trazado_187962" data-name="Trazado 187962" d="M259.09,91.67s-7.73.06-17.27.06-17.27,0-17.27-.06,7.73,0,17.27,0S259.09,91.64,259.09,91.67Z" fill="#f5f5f5"/>
      <path id="Trazado_187963" data-name="Trazado 187963" d="M259,96.13s-5.67.05-12.67,0-12.66,0-12.66-.07,5.67,0,12.66,0S259,96.1,259,96.13Z" fill="#f5f5f5"/>
      <path id="Trazado_187964" data-name="Trazado 187964" d="M258.72,99.6s-5.61.05-12.52,0-12.52,0-12.52-.08,5.6,0,12.52,0S258.72,99.57,258.72,99.6Z" fill="#f5f5f5"/>
      <path id="Trazado_187965" data-name="Trazado 187965" d="M258.05,103H245.71c-6.81,0-12.34,0-12.34-.07s5.53,0,12.34,0S258.05,103,258.05,103Z" fill="#f5f5f5"/>
      <path id="Trazado_187966" data-name="Trazado 187966" d="M258.05,106.74h-3.57c-2.21,0-5.26,0-8.62-.12l-8.62-.16h0c2.21,0,5.26,0,8.62.12l8.62.16h3.61Z" fill="#f5f5f5"/>
      <path id="Trazado_187967" data-name="Trazado 187967" d="M257.53,109.92H245.42c-6.69,0-12.1,0-12.1-.08s5.42,0,12.1,0S257.53,109.89,257.53,109.92Z" fill="#f5f5f5"/>
      <path id="Trazado_187968" data-name="Trazado 187968" d="M258.4,113.37H245.86c-6.93,0-12.54,0-12.54-.08s5.61,0,12.54,0S258.4,113.34,258.4,113.37Z" fill="#f5f5f5"/>
      <path id="Trazado_187969" data-name="Trazado 187969" d="M259,116.84s-5.8.1-13,.15-13,.07-13,0,5.8-.1,13-.15S259,116.81,259,116.84Z" fill="#f5f5f5"/>
      <path id="Trazado_187970" data-name="Trazado 187970" d="M233.42,96s-2-.07-4.51-.22-4.51-.31-4.51-.34,2,.07,4.51.22S233.42,95.94,233.42,96Z" fill="#f5f5f5"/>
      <path id="Trazado_187971" data-name="Trazado 187971" d="M253.68,108.31h-.24c-.16,0-.4.05-.7.05a14.179,14.179,0,0,1-2.58-.14A15.21,15.21,0,0,1,237.8,97.75a14.55,14.55,0,0,1-.55-2.53,5.8,5.8,0,0,1-.06-.69.81.81,0,0,1,0-.25,7.869,7.869,0,0,1,.17.93,15.53,15.53,0,0,0,12.83,12.85,18.178,18.178,0,0,0,2.55.23,7,7,0,0,1,.94.02Z" fill="#1a2e35"/>
      <g id="Grupo_93358" data-name="Grupo 93358" opacity="0.2">
        <path id="Trazado_187972" data-name="Trazado 187972" d="M233.68,96.09a12.58,12.58,0,0,0,3-13.07q-1.64,6.53-3,13.11"/>
      </g>
      <g id="Grupo_93359" data-name="Grupo 93359" opacity="0.2">
        <path id="Trazado_187973" data-name="Trazado 187973" d="M238,98.12a10.27,10.27,0,0,0,7.07,5.49c1.14.24,2.32.27,3.46.53a4.7,4.7,0,0,1,2.92,1.77,1.58,1.58,0,0,1,.08,1.88,2,2,0,0,1-2,.24,18.57,18.57,0,0,1-11.82-9.79"/>
      </g>
    </g>
    <path id="Trazado_187974" data-name="Trazado 187974" d="M233.06,117.03l18.52,82.6h10.48l-10.24-71.72,1.93-6.09-1.15-4.04Z" transform="translate(926 7888)" fill="#12263f"/>
    <path id="Trazado_187975" data-name="Trazado 187975" d="M247.31,127.69c.9,1,.35,31,.35,31l29.42,24.65,7.09-6.19L260,154.2l.73-27.72-1.5-8.43-13.2-.63Z" transform="translate(926 7888)" fill="#12263f"/>
    <path id="Trazado_187976" data-name="Trazado 187976" d="M255.15,120.64a2.22,2.22,0,0,1,.11.6A4,4,0,0,1,255,123a9.86,9.86,0,0,1-1.36,2.4,9.79,9.79,0,0,0-1.71,3.14,10.38,10.38,0,0,0,0,4.33c.27,1.56.55,3.23.86,5,.59,3.52,1.19,7.39,1.81,11.45,1.22,8.13,2.32,15.48,3.13,20.83.41,2.64.74,4.79,1,6.3.11.73.2,1.3.27,1.72l.06.44v.16a1,1,0,0,1,0-.15l-.09-.44c-.08-.42-.18-1-.32-1.71-.27-1.48-.64-3.63-1.08-6.29-.87-5.32-2-12.68-3.2-20.82-.62-4.06-1.22-7.93-1.79-11.44-.3-1.76-.58-3.43-.84-5a10.6,10.6,0,0,1,0-4.42,10,10,0,0,1,1.78-3.19,10,10,0,0,0,1.39-2.34A4.17,4.17,0,0,0,255.15,120.64Z" transform="translate(926 7888)" fill="#375a64"/>
    <path id="Trazado_187977" data-name="Trazado 187977" d="M260.19,154.29c0,.08-.75.29-1.61.73a16.922,16.922,0,0,1-1.54.85A4.49,4.49,0,0,1,260.19,154.29Z" transform="translate(926 7888)" fill="#375a64"/>
    <path id="Trazado_187978" data-name="Trazado 187978" d="M30.37,275.19V295.4H92.51V275.19Z" transform="translate(926 7888)" fill="#f5f5f5"/>
    <path id="Trazado_187979" data-name="Trazado 187979" d="M27.76,269.55v5.64H94.68v-5.64H27.76Z" transform="translate(926 7888)" fill="#90b0d5"/>
    <path id="Trazado_187980" data-name="Trazado 187980" d="M61.22,295.4H92.51V275.19h2.17v-5.64H59.92v5.12Z" transform="translate(926 7888)" fill="#90b0d5"/>
    <rect id="Rectángulo_39210" data-name="Rectángulo 39210" width="12.6" height="3.04" transform="translate(965.06 8166.45)" fill="#90b0d5"/>
    <rect id="Rectángulo_39211" data-name="Rectángulo 39211" width="16.18" height="6.42" transform="translate(963.44 8173.3)" fill="#fff"/>
    <path id="Trazado_187981" data-name="Trazado 187981" d="M44.18,248.74v20.2h62.14v-20.2Z" transform="translate(926 7888)" fill="#f5f5f5"/>
    <path id="Trazado_187982" data-name="Trazado 187982" d="M41.58,243.09v5.65H108.5v-5.65H41.58Z" transform="translate(926 7888)" fill="#90b0d5"/>
    <path id="Trazado_187983" data-name="Trazado 187983" d="M75.04,268.94h31.28v-20.2h2.18v-5.65H73.73v5.12Z" transform="translate(926 7888)" fill="#90b0d5"/>
    <rect id="Rectángulo_39212" data-name="Rectángulo 39212" width="12.6" height="3.04" transform="translate(978.87 8139.99)" fill="#90b0d5"/>
    <rect id="Rectángulo_39213" data-name="Rectángulo 39213" width="16.18" height="6.42" transform="translate(977.25 8146.84)" fill="#fff"/>
    <g id="Grupo_93372" data-name="Grupo 93372" transform="translate(926 7888)">
      <g id="Grupo_93366" data-name="Grupo 93366">
        <rect id="Rectángulo_39214" data-name="Rectángulo 39214" width="61.95" height="25.16" transform="translate(90.78 255.72)" fill="#fff"/>
        <path id="Trazado_187984" data-name="Trazado 187984" d="M152.73,280.89V255.73l.07.07H90.85l.1-.1v25.17l-.09-.1H135.3L90.78,281h-.09V255.65h62.12v24.8Z" fill="#1a2e35"/>
      </g>
      <path id="Trazado_187985" data-name="Trazado 187985" d="M90.84,259.12c0-.06,13.85-.1,30.92-.1s30.93,0,30.93.1-13.84.09-30.93.09S90.84,259.17,90.84,259.12Z" fill="#1a2e35"/>
      <g id="Grupo_93370" data-name="Grupo 93370">
        <g id="Grupo_93367" data-name="Grupo 93367" opacity="0.3">
          <path id="Trazado_187986" data-name="Trazado 187986" d="M93.43,257.6a.45.45,0,1,1-.44-.45A.45.45,0,0,1,93.43,257.6Z" fill="#1a2e35"/>
        </g>
        <g id="Grupo_93368" data-name="Grupo 93368" opacity="0.3">
          <path id="Trazado_187987" data-name="Trazado 187987" d="M95,257.6a.45.45,0,1,1-.45-.45.45.45,0,0,1,.45.45Z" fill="#1a2e35"/>
        </g>
        <g id="Grupo_93369" data-name="Grupo 93369" opacity="0.3">
          <path id="Trazado_187988" data-name="Trazado 187988" d="M96.49,257.6a.45.45,0,1,1-.45-.45A.45.45,0,0,1,96.49,257.6Z" fill="#1a2e35"/>
        </g>
      </g>
      <rect id="Rectángulo_39215" data-name="Rectángulo 39215" width="14.96" height="14.96" transform="translate(96.04 263.21)" fill="#375a64"/>
      <g id="Grupo_93371" data-name="Grupo 93371">
        <path id="Trazado_187989" data-name="Trazado 187989" d="M148.44,267.22s-7.7.09-17.2.09-17.19,0-17.19-.09,7.7-.1,17.19-.1S148.44,267.16,148.44,267.22Z" fill="#1a2e35"/>
        <path id="Trazado_187990" data-name="Trazado 187990" d="M148.44,270.26c0,.06-7.7.1-17.2.1s-17.19,0-17.19-.1,7.7-.09,17.19-.09S148.44,270.21,148.44,270.26Z" fill="#1a2e35"/>
        <path id="Trazado_187991" data-name="Trazado 187991" d="M136.19,273.31a.6.6,0,0,1-.23,0H114.27a.57.57,0,0,1-.22,0h22.14Z" fill="#1a2e35"/>
      </g>
    </g>
    <rect id="Rectángulo_39216" data-name="Rectángulo 39216" width="26.56" height="23.8" transform="translate(1062.42 8160.65)" fill="#ffa726"/>
    <g id="Grupo_93379" data-name="Grupo 93379" transform="translate(926 7888)">
      <g id="Grupo_93373" data-name="Grupo 93373">
        <rect id="Rectángulo_39217" data-name="Rectángulo 39217" width="61.95" height="25.16" transform="translate(85.01 253.62)" fill="#fff"/>
        <path id="Trazado_187992" data-name="Trazado 187992" d="M147,278.78V253.6l.07.07H85.13l.1-.1v25.16l-.1-.09h44.44L85,278.88h-.09V253.52H147v25.26Z" fill="#1a2e35"/>
      </g>
      <path id="Trazado_187993" data-name="Trazado 187993" d="M85.08,257c0-.05,13.84-.1,30.92-.1s30.92,0,30.92.1-13.84.1-30.92.1S85.08,257.07,85.08,257Z" fill="#1a2e35"/>
      <g id="Grupo_93377" data-name="Grupo 93377">
        <g id="Grupo_93374" data-name="Grupo 93374" opacity="0.3">
          <circle id="Elipse_7735" data-name="Elipse 7735" cx="0.45" cy="0.45" r="0.45" transform="translate(86.77 255.05)" fill="#1a2e35"/>
        </g>
        <g id="Grupo_93375" data-name="Grupo 93375" opacity="0.3">
          <path id="Trazado_187994" data-name="Trazado 187994" d="M89.21,255.5a.45.45,0,1,1-.45-.45.45.45,0,0,1,.45.45Z" fill="#1a2e35"/>
        </g>
        <g id="Grupo_93376" data-name="Grupo 93376" opacity="0.3">
          <path id="Trazado_187995" data-name="Trazado 187995" d="M90.73,255.5a.45.45,0,1,1-.45-.45A.45.45,0,0,1,90.73,255.5Z" fill="#1a2e35"/>
        </g>
      </g>
      <rect id="Rectángulo_39218" data-name="Rectángulo 39218" width="14.96" height="14.96" transform="translate(90.28 261.1)" fill="#375a64"/>
      <g id="Grupo_93378" data-name="Grupo 93378">
        <path id="Trazado_187996" data-name="Trazado 187996" d="M142.67,265.11c0,.06-7.7.1-17.19.1s-17.2,0-17.2-.1,7.7-.1,17.2-.1S142.67,265.06,142.67,265.11Z" fill="#1a2e35"/>
        <path id="Trazado_187997" data-name="Trazado 187997" d="M142.67,268.16s-7.7.1-17.19.1-17.2-.05-17.2-.1,7.7-.1,17.2-.1S142.67,268.11,142.67,268.16Z" fill="#1a2e35"/>
        <path id="Trazado_187998" data-name="Trazado 187998" d="M130.42,271.21a1,1,0,0,1-.22,0H108.51a1,1,0,0,1-.23,0h22.14Z" fill="#1a2e35"/>
      </g>
    </g>
    <g id="Grupo_93386" data-name="Grupo 93386" transform="translate(926 7888)">
      <g id="Grupo_93380" data-name="Grupo 93380">
        <rect id="Rectángulo_39219" data-name="Rectángulo 39219" width="61.95" height="25.16" transform="translate(80.8 258.85)" fill="#fff"/>
        <path id="Trazado_187999" data-name="Trazado 187999" d="M142.74,284V258.85l.06.06H80.86l.1-.09v25.16l-.09-.1h-.1V258.75h62.11v24.8A.716.716,0,0,1,142.74,284Z" fill="#1a2e35"/>
      </g>
      <path id="Trazado_188000" data-name="Trazado 188000" d="M80.86,262.24c0-.06,13.85-.1,30.92-.1s30.93,0,30.93.1-13.85.1-30.93.1S80.86,262.29,80.86,262.24Z" fill="#1a2e35"/>
      <g id="Grupo_93384" data-name="Grupo 93384">
        <g id="Grupo_93381" data-name="Grupo 93381" opacity="0.3">
          <path id="Trazado_188001" data-name="Trazado 188001" d="M83.45,260.72a.45.45,0,1,1-.45-.45A.45.45,0,0,1,83.45,260.72Z" fill="#1a2e35"/>
        </g>
        <g id="Grupo_93382" data-name="Grupo 93382" opacity="0.3">
          <circle id="Elipse_7736" data-name="Elipse 7736" cx="0.45" cy="0.45" r="0.45" transform="translate(84.09 260.27)" fill="#1a2e35"/>
        </g>
        <g id="Grupo_93383" data-name="Grupo 93383" opacity="0.3">
          <path id="Trazado_188002" data-name="Trazado 188002" d="M86.51,260.72a.45.45,0,1,1-.45-.45A.45.45,0,0,1,86.51,260.72Z" fill="#1a2e35"/>
        </g>
      </g>
      <rect id="Rectángulo_39220" data-name="Rectángulo 39220" width="14.96" height="14.96" transform="translate(86.06 266.33)" fill="#375a64"/>
      <g id="Grupo_93385" data-name="Grupo 93385">
        <path id="Trazado_188003" data-name="Trazado 188003" d="M138.46,270.34c0,.05-7.7.1-17.2.1s-17.19-.05-17.19-.1,7.69-.1,17.19-.1S138.46,270.28,138.46,270.34Z" fill="#1a2e35"/>
        <path id="Trazado_188004" data-name="Trazado 188004" d="M138.46,273.39c0,.05-7.7.09-17.2.09s-17.19,0-17.19-.09,7.69-.1,17.19-.1S138.46,273.33,138.46,273.39Z" fill="#1a2e35"/>
        <path id="Trazado_188005" data-name="Trazado 188005" d="M126.21,276.43a.6.6,0,0,1-.23,0h.23Z" fill="#1a2e35"/>
      </g>
    </g>
    <path id="Trazado_188006" data-name="Trazado 188006" d="M74.61,272.65v23.81h74.8V272.65ZM114.66,282H103.35a2.43,2.43,0,0,1,0-4.85h11.31a2.43,2.43,0,0,1,0,4.85Z" transform="translate(926 7888)" fill="#ffecb1"/>
    <path id="Trazado_188007" data-name="Trazado 188007" d="M81.54,205.74c-1.77,0-3.2.26-3.2-1.5a3.2,3.2,0,1,1,6.39,0C84.73,206,83.3,205.74,81.54,205.74Z" transform="translate(926 7888)" fill="#ffa726"/>
    <circle id="Elipse_7737" data-name="Elipse 7737" cx="3.19" cy="3.19" r="3.19" transform="translate(929.409 8137.985) rotate(-74.07)" fill="#ffa726"/>
    <path id="Trazado_188008" data-name="Trazado 188008" d="M128.72,111.64a3.19,3.19,0,0,1-3.19-3.2c0-1.76,1.43-4.89,3.19-4.89s3.2,3.13,3.2,4.89A3.2,3.2,0,0,1,128.72,111.64Z" transform="translate(926 7888)" fill="#ffa726"/>
    <circle id="Elipse_7738" data-name="Elipse 7738" cx="3.19" cy="3.19" r="3.19" transform="translate(1086.59 8042.23)" fill="#ffa726"/>
    <circle id="Elipse_7739" data-name="Elipse 7739" cx="3.19" cy="3.19" r="3.19" transform="translate(1129.7 7939.51)" fill="#ffa726"/>
    <path id="Trazado_188009" data-name="Trazado 188009" d="M46,170.62a3.19,3.19,0,0,1-3.19-3.2c0-1.76,1.43-4.89,3.19-4.89s3.2,3.13,3.2,4.89A3.2,3.2,0,0,1,46,170.62Z" transform="translate(926 7888)" fill="#ffa726"/>
    <path id="Trazado_188010" data-name="Trazado 188010" d="M206.89,54.7s-.06.17-.19.49-.31.8-.57,1.43c-.5,1.27-1.25,3.14-2.23,5.58-2,4.88-4.83,12-8.48,21.12L165.2,158.39l-.06.16-.09-.13c-10.73-15.27-22.63-32.2-35.25-50.14h.17c-5.76,11.73-11.73,23.92-17.84,36.39-10.4,21.23-20.42,41.65-29.75,60.7l-.07.13-.08-.1L46,166.78h.13c-11.5,24.62-21,44.89-27.54,59l-7.69,16.3c-.87,1.87-1.55,3.3-2,4.27l-.7,1.45.68-1.47,2-4.29,7.59-16.35,27.48-59.07v-.11l.08.08,36.29,38.58h-.15L112,144.49l17.84-36.39.07-.15.09.13,35.24,50.17h-.15l30.28-75,8.53-21.09,2.26-5.56.58-1.42Z" transform="translate(926 7888)" fill="#104c82"/>
    <path id="Trazado_188011" data-name="Trazado 188011" d="M96.15,67.55c0-.07,17-.12,38-.12s38,0,38,.12-17,.12-38,.12S96.15,67.62,96.15,67.55Z" transform="translate(926 7888)" fill="#104c82"/>
    <g id="Grupo_93390" data-name="Grupo 93390" transform="translate(926 7888)" opacity="0.3">
      <path id="Trazado_188012" data-name="Trazado 188012" d="M99.34,65.68a.56.56,0,1,1-.348-.518A.56.56,0,0,1,99.34,65.68Z" fill="#104c82"/>
    </g>
    <g id="Grupo_93391" data-name="Grupo 93391" transform="translate(926 7888)" opacity="0.3">
      <path id="Trazado_188013" data-name="Trazado 188013" d="M101.24,65.68a.56.56,0,1,1-.56-.55.56.56,0,0,1,.56.55Z" fill="#104c82"/>
    </g>
    <g id="Grupo_93392" data-name="Grupo 93392" transform="translate(926 7888)" opacity="0.3">
      <path id="Trazado_188014" data-name="Trazado 188014" d="M103.1,65.68a.55.55,0,0,1-.55.56.56.56,0,0,1,0-1.11.55.55,0,0,1,.55.55Z" fill="#104c82"/>
    </g>
    <rect id="Rectángulo_39221" data-name="Rectángulo 39221" width="18.4" height="18.4" transform="translate(1028.55 7960.58)" fill="#36d7c6"/>
    <path id="Trazado_188015" data-name="Trazado 188015" d="M167,77.51c0,.07-9.46.12-21.14.12s-21.14,0-21.14-.12,9.46-.12,21.14-.12S167,77.44,167,77.51Z" transform="translate(926 7888)" fill="#104c82"/>
    <path id="Trazado_188016" data-name="Trazado 188016" d="M167,81.26c0,.06-9.46.12-21.14.12s-21.14-.06-21.14-.12,9.46-.12,21.14-.12S167,81.19,167,81.26Z" transform="translate(926 7888)" fill="#104c82"/>
    <path id="Trazado_188017" data-name="Trazado 188017" d="M151.91,85a1.07,1.07,0,0,1-.28,0H124.96a.94.94,0,0,1-.27,0h27.22Z" transform="translate(926 7888)" fill="#104c82"/>
    <path id="Trazado_188018" data-name="Trazado 188018" d="M139.12,94.39H132.4l-18.69-.2h.06l-9.09,8.72-.18.18v-8.6l.12.12H96l-.12-.12h0V63.24h76.64v.13c0,11.62-.08,22.07-.12,31v.1H148l24.23-.11-.1.1c0-9,0-19.41.06-31l.13.13H96l.14-.14V94.42l.12.11h8.58V103l-.19-.08,9.12-8.7h0l18.69.28,5,.09h1.29Z" transform="translate(926 7888)" fill="#104c82"/>
    <rect id="Rectángulo_39222" data-name="Rectángulo 39222" width="300" height="300" transform="translate(926 7888)" fill="none"/>
  </g>
</svg>
