<svg xmlns="http://www.w3.org/2000/svg" xmlns:xlink="http://www.w3.org/1999/xlink" width="399.4" height="399.4" viewBox="0 0 399.4 399.4">
  <defs>
    <clipPath id="clip-path">
      <path id="Trazado_175472" data-name="Trazado 175472" d="M18.374,0H381.026A18.366,18.366,0,0,1,399.4,18.374V381.026A18.366,18.366,0,0,1,381.026,399.4H18.374A18.366,18.366,0,0,1,0,381.026V18.374A18.366,18.366,0,0,1,18.374,0Z"/>
    </clipPath>
  </defs>
  <g id="Grupo_94312" data-name="Grupo 94312" transform="translate(-600.3 -10363.34)">
    <path id="Trazado_175385" data-name="Trazado 175385" d="M18.374,0H381.026A18.366,18.366,0,0,1,399.4,18.374V381.026A18.366,18.366,0,0,1,381.026,399.4H18.374A18.366,18.366,0,0,1,0,381.026V18.374A18.366,18.366,0,0,1,18.374,0Z" transform="translate(600.3 10363.34)" fill="#ffecb1"/>
    <g id="Grupo_90932" data-name="Grupo 90932" transform="translate(600.3 10363.34)" clip-path="url(#clip-path)">
      <g id="Grupo_90931" data-name="Grupo 90931" transform="translate(-61.026 202.302)">
        <g id="Grupo_90925" data-name="Grupo 90925" transform="translate(218.343)">
          <path id="Trazado_175386" data-name="Trazado 175386" d="M342.3,387.8c24.08,28.722,23.6,65.374,18.858,92.549-.193.774-.484,3.385-.484,3.385l14.7,1.354a12.984,12.984,0,0,1,.387-3.385c3.481-27.948,15.183-56.38,17.02-84.038C387.849,397.471,347.232,387.9,342.3,387.8Z" transform="translate(-168.589 -215.072)" fill="#e0665a"/>
          <path id="Trazado_175387" data-name="Trazado 175387" d="M222.4,389.5c24.08,28.722,23.6,65.374,18.858,92.549-.193.774-.484,3.385-.484,3.385l14.7,1.451a12.983,12.983,0,0,1,.387-3.385c3.481-27.948,15.183-56.38,17.02-84.038C267.949,399.267,227.235,389.6,222.4,389.5Z" transform="translate(-164.64 -215.128)" fill="#e0665a"/>
          <path id="Trazado_175388" data-name="Trazado 175388" d="M218.873,268.509c5.416-2.514,10.928-5.125,14.99-9.381s6.383-10.831,4.062-16.343a15.523,15.523,0,0,0-5.512-6.479c-7.35-5.125-17.02-5.222-26.014-4.642s-16.827,2.031-23.6-.677c-8.22-3.288,3.191,14.99,8.414,21.566,3.481,4.352,7.156,8.8,11.7,11.992S213.361,269.669,218.873,268.509Z" transform="translate(-163.241 -209.895)" fill="#e0665a"/>
          <path id="Trazado_175389" data-name="Trazado 175389" d="M365.884,260.909c-18.471-6.576-58.411-14.119-75.818-16.053-13.055-1.451-26.4-2.128-39.36.387s-25.531,8.317-34.234,18.181c-6.576,7.446-10.251,16.537-12.088,26.208-8.7,9.09-21.759,8.8-30.366,19.922-5.9,7.64-18.858,9.284,8.22,44.582-14.313,11.6-2.128,18.084,5.706,18.084s16.537,6.963,19.051,11.218c49.611,83.748,202.5,54.156,216.14,40.23s21.372-23.887,23.887-46.323C449.632,352.974,458.723,293.983,365.884,260.909Z" transform="translate(-162.773 -210.322)" fill="#ea8879"/>
          <path id="Trazado_175390" data-name="Trazado 175390" d="M179.816,304.194c-5.416.87-8.8,5.029-11.895,9.574s-6.093,9.381-5.029,14.8a10.69,10.69,0,0,0,2.514,5.512,12.037,12.037,0,0,0,5.029,2.9c6.673,2.128,13.732,1.934,20.792,1.741,3.578-.1,7.446-.387,9.961-2.8A10.983,10.983,0,0,0,203.9,330.4c1.547-6.769-3-12.572-7.737-17.7S186.779,303.033,179.816,304.194Z" transform="translate(-162.674 -212.313)" fill="#fcc0bb"/>
          <g id="Grupo_90923" data-name="Grupo 90923" transform="translate(35.551 61.46)">
            <path id="Trazado_175391" data-name="Trazado 175391" d="M271.23,282.888a6.143,6.143,0,0,0-3,2.224,10.86,10.86,0,0,0-1.644,4.255c-.484,2.321-.677,4.835.677,6.77a7.976,7.976,0,0,0,5.029,2.611c2.514.484,5.416.387,7.06-1.547a7.367,7.367,0,0,0,1.354-4.932,12.27,12.27,0,0,0-.967-5.9A7.141,7.141,0,0,0,271.23,282.888Z" transform="translate(-201.635 -273.066)" fill="#fff"/>
            <path id="Trazado_175392" data-name="Trazado 175392" d="M274.727,288.5a2.44,2.44,0,0,0-1.451.967,5.835,5.835,0,0,0-.58,1.837,5.958,5.958,0,0,0,.1,2.611,3.289,3.289,0,0,0,4.158,2.128c.193-.1.29-.1.484-.193a4.618,4.618,0,0,0,1.354-4.739A3.555,3.555,0,0,0,274.727,288.5Z" transform="translate(-201.844 -273.261)"/>
            <path id="Trazado_175393" data-name="Trazado 175393" d="M205.687,273.185a7.244,7.244,0,0,0-3.772,2.8,13.651,13.651,0,0,0-2.031,5.416c-.58,2.9-.87,6.189.87,8.51,1.451,1.934,3.965,2.8,6.383,3.288,3.095.58,6.866.484,8.9-1.934,1.451-1.644,1.741-4.062,1.741-6.189a16.314,16.314,0,0,0-1.16-7.446A9.174,9.174,0,0,0,205.687,273.185Z" transform="translate(-199.435 -272.743)" fill="#ea8879"/>
            <path id="Trazado_175394" data-name="Trazado 175394" d="M206.43,275.388a6.144,6.144,0,0,0-3,2.224,9.562,9.562,0,0,0-1.644,4.255c-.484,2.321-.677,4.835.677,6.77a7.976,7.976,0,0,0,5.029,2.611c2.514.484,5.416.387,7.06-1.547a7.367,7.367,0,0,0,1.354-4.932,12.27,12.27,0,0,0-.967-5.9A7.141,7.141,0,0,0,206.43,275.388Z" transform="translate(-199.501 -272.819)" fill="#fff"/>
            <path id="Trazado_175395" data-name="Trazado 175395" d="M209.927,281a2.189,2.189,0,0,0-1.451.967,3.184,3.184,0,0,0-.58,1.837,5.959,5.959,0,0,0,.1,2.611,3.394,3.394,0,0,0,4.255,2.128.733.733,0,0,0,.387-.193,4.672,4.672,0,0,0,1.354-4.739A3.555,3.555,0,0,0,209.927,281Z" transform="translate(-199.711 -273.014)"/>
          </g>
          <path id="Trazado_175396" data-name="Trazado 175396" d="M197.528,329.091c-.774-4.255-3.191-7.93-5.512-11.6a9.25,9.25,0,0,0-2.224-2.514c-.967-.58-3.385-1.547-3.191,0s3,11.508,6.383,16.344c.677.967,1.644,1.934,2.708,1.741a2.36,2.36,0,0,0,1.741-1.547A6.869,6.869,0,0,0,197.528,329.091Z" transform="translate(-163.461 -212.646)" fill="#e0665a"/>
          <path id="Trazado_175397" data-name="Trazado 175397" d="M177.519,317.289c.193-.967.484-2.031-.193-2.708a2.074,2.074,0,0,0-2.224-.387,6.774,6.774,0,0,0-1.837,1.451,25.638,25.638,0,0,0-4.835,6.673c-1.16,2.514-3.578,7.446-.87,8.027s5.319-2.418,6.866-4.835A35.089,35.089,0,0,0,177.519,317.289Z" transform="translate(-162.794 -212.643)" fill="#e0665a"/>
          <g id="Grupo_90924" data-name="Grupo 90924" transform="translate(160.529 46.847)">
            <path id="Trazado_175398" data-name="Trazado 175398" d="M375.365,316.725c3.095,1.741,6.673,3.385,10.251,3.385,1.837,0,1.837-1.547,1.257-3.191a9.368,9.368,0,0,0-2.8-4.158c-2.224-1.547-4.449-3.385-7.156-3.965s-5.319.58-5.512,2.8c-.1,2.031,1.741,3.868,3.965,5.125C376.332,317.305,373.141,315.564,375.365,316.725Z" transform="translate(-330.076 -259.312)" fill="#fcad9a"/>
            <path id="Trazado_175399" data-name="Trazado 175399" d="M377.1,300.058a5.444,5.444,0,0,0-1.16-2.9,9.965,9.965,0,0,0-2.514-2.418,8.9,8.9,0,0,0-2.321-1.257,7.175,7.175,0,0,0-2.418-.484,6.055,6.055,0,0,0-2.611.29c-.774.29-1.064.967-.677,2.128.774,2.128,8.123,7.156,10.444,6.673a1.8,1.8,0,0,0,1.257-2.031Z" transform="translate(-329.872 -258.796)" fill="#fcad9a"/>
            <path id="Trazado_175400" data-name="Trazado 175400" d="M366.073,304.294c-.484-1.257-1.934-2.031-3.191-2.514a7.954,7.954,0,0,0-3.675-.58,3.791,3.791,0,0,0-2.031,1.644,3.336,3.336,0,0,0-.58,3,2.5,2.5,0,0,0,.677,1.064,2.535,2.535,0,0,0,.87.484,14.508,14.508,0,0,0,4.062.87,5.2,5.2,0,0,0,2.128-.387,2.887,2.887,0,0,0,1.741-3.578C365.589,302.94,366.653,305.744,366.073,304.294Z" transform="translate(-329.584 -259.066)" fill="#fcad9a"/>
            <path id="Trazado_175401" data-name="Trazado 175401" d="M368.7,283.026c1.451-.774,1.354-2.514.193-3.965a10.411,10.411,0,0,0-2.321-1.741,29.814,29.814,0,0,0-9.09-2.224,9.72,9.72,0,0,0-5.706.774c-1.064.677-.774,1.741,2.418,2.9,3.675,1.16,7.35,3.385,11.121,4.255a4.129,4.129,0,0,0,3.385,0C370.155,282.252,367.834,283.509,368.7,283.026Z" transform="translate(-329.412 -258.203)" fill="#fcad9a"/>
            <path id="Trazado_175402" data-name="Trazado 175402" d="M336.157,285.781a40.416,40.416,0,0,0,10.058,3.095c1.837.387,2.321-.677,2.128-1.934a8.211,8.211,0,0,0-2.031-3.965c-1.837-1.934-4.932-2.9-7.833-3.385a14.566,14.566,0,0,0-3.578-.193,3.555,3.555,0,0,0-2.611,1.257,2.394,2.394,0,0,0,.58,3.095,9.447,9.447,0,0,0,3.288,2.031C339.349,287.135,335.48,285.491,336.157,285.781Z" transform="translate(-328.777 -258.348)" fill="#fcad9a"/>
            <path id="Trazado_175403" data-name="Trazado 175403" d="M396.209,343.728a34.141,34.141,0,0,0,7.156,3.868c1.354.484,1.837-.193,1.934-1.16a5.693,5.693,0,0,0-.967-3.288c-1.16-1.741-3.288-2.9-5.416-3.772a8.574,8.574,0,0,0-2.708-.677,3.115,3.115,0,0,0-2.224.58,1.9,1.9,0,0,0,0,2.418,11.118,11.118,0,0,0,2.224,2.031C398.434,345.275,395.823,343.438,396.209,343.728Z" transform="translate(-330.805 -260.301)" fill="#fcad9a"/>
            <path id="Trazado_175404" data-name="Trazado 175404" d="M397.072,287.284a23,23,0,0,0,8.994,3.675c1.547.193,1.837-.774,1.547-1.934a9.187,9.187,0,0,0-2.031-3.675A16.213,16.213,0,0,0,396.008,281a2.518,2.518,0,0,0-2.321.677c-.677.774-.387,2.031.387,3.095a12.562,12.562,0,0,0,3,2.514C399.973,289.025,396.008,286.51,397.072,287.284Z" transform="translate(-330.797 -258.4)" fill="#fcad9a"/>
            <path id="Trazado_175405" data-name="Trazado 175405" d="M339.82,257.794c-3.288-.29-7.06-.387-9.961,1.451-1.16.677-1.741,1.547-.484,2.128,3.288,1.451,7.35,1.644,10.831,2.418s7.35,2.418,10.831,2.224c2.8-.1,1.934-2.128.87-3.578a8.056,8.056,0,0,0-2.128-1.934c-3-1.934-6.576-2.321-9.961-2.708Z" transform="translate(-328.669 -257.632)" fill="#fcad9a"/>
            <path id="Trazado_175406" data-name="Trazado 175406" d="M376.034,324.176c-2.514-.484-6.673-1.257-9.09-.1a3.626,3.626,0,0,0-1.547,2.031c-.29.87,0,1.837,1.644,2.031,4.932.677,10.734,3.578,15.667,3.095,3.095-.193,1.451-2.8-.1-4.352-1.741-1.644-4.352-2.321-6.576-2.708C374,323.789,376.615,324.273,376.034,324.176Z" transform="translate(-329.875 -259.8)" fill="#fcad9a"/>
            <path id="Trazado_175407" data-name="Trazado 175407" d="M399.6,295.94c-1.741-.677-4.932-2.224-6.866-1.644-.774.193-3.288,2.8-.774,4.062,3.578,1.741,8.414,5.512,12.475,5.125,2.514-.29,1.064-2.9,0-4.449a11.241,11.241,0,0,0-4.835-3.095C398.152,295.456,401.44,296.617,399.6,295.94Z" transform="translate(-330.717 -258.835)" fill="#fcad9a"/>
            <path id="Trazado_175408" data-name="Trazado 175408" d="M413.268,340.425c3,1.741,6.673,3.385,10.251,3.385,1.837,0,1.837-1.547,1.257-3.191a10.031,10.031,0,0,0-2.708-4.158c-2.224-1.547-4.449-3.385-7.156-3.965s-5.319.58-5.512,2.8c-.193,1.934,1.644,3.868,3.868,5.125C414.235,340.908,411.044,339.168,413.268,340.425Z" transform="translate(-331.327 -260.093)" fill="#fcad9a"/>
            <path id="Trazado_175409" data-name="Trazado 175409" d="M415,323.758a5.445,5.445,0,0,0-1.161-2.9,9.963,9.963,0,0,0-2.514-2.418A8.9,8.9,0,0,0,409,317.182a7.174,7.174,0,0,0-2.418-.484,6.056,6.056,0,0,0-2.611.29c-.774.29-1.064.967-.677,2.128.774,2.128,8.123,7.156,10.444,6.673A1.9,1.9,0,0,0,415,323.758Z" transform="translate(-331.12 -259.576)" fill="#fcad9a"/>
            <path id="Trazado_175410" data-name="Trazado 175410" d="M403.973,327.9c-.484-1.257-1.934-2.031-3.191-2.514a6.825,6.825,0,0,0-3.675-.484,3.791,3.791,0,0,0-2.031,1.644,3.337,3.337,0,0,0-.58,3,2.5,2.5,0,0,0,.677,1.064,3.919,3.919,0,0,0,.87.484,13.808,13.808,0,0,0,4.062.87,5.2,5.2,0,0,0,2.128-.387A3.04,3.04,0,0,0,403.973,327.9Z" transform="translate(-330.832 -259.845)" fill="#fcad9a"/>
            <path id="Trazado_175411" data-name="Trazado 175411" d="M420.139,356.107a3.877,3.877,0,0,0-1.451-1.354,10.946,10.946,0,0,0-5.8-1.354,4.646,4.646,0,0,0-2.418,1.354,2.532,2.532,0,0,0-.774,2.9,3.35,3.35,0,0,0,2.031,1.934c.774.29,1.741.29,2.514.58a6.017,6.017,0,0,0,4.835-.29,2.712,2.712,0,0,0,1.064-3.772Z" transform="translate(-331.331 -260.785)" fill="#fcad9a"/>
            <path id="Trazado_175412" data-name="Trazado 175412" d="M356.239,315.507a3.877,3.877,0,0,0-1.451-1.354,10.946,10.946,0,0,0-5.8-1.354,4.217,4.217,0,0,0-2.418,1.451,2.532,2.532,0,0,0-.774,2.9,3.35,3.35,0,0,0,2.031,1.934c.774.29,1.741.29,2.514.58a6.017,6.017,0,0,0,4.835-.29,2.823,2.823,0,0,0,1.064-3.868C355.949,314.927,357.012,316.861,356.239,315.507Z" transform="translate(-329.227 -259.448)" fill="#fcad9a"/>
            <path id="Trazado_175413" data-name="Trazado 175413" d="M348.466,298.85a2.382,2.382,0,0,0-.87-1.837c-2.128-1.837-6.963-3-9.767-2.418-2.514.484-3,3.772-.29,3.578,3.095-.193,5.222,2.611,8.22,2.514,1.257,0,2.611-.677,2.708-1.837C348.563,298.076,348.369,299.914,348.466,298.85Z" transform="translate(-328.901 -258.844)" fill="#fcad9a"/>
            <path id="Trazado_175414" data-name="Trazado 175414" d="M388.334,276.6a3.252,3.252,0,0,0-1.547-2.031,23.554,23.554,0,0,0-12.572-3.965c-1.644,0-2.514.967-2.514,1.837s.774,1.837,2.708,1.934c4.062.484,7.06,3.772,11.121,4.062,1.451.1,2.9-.58,2.8-1.837C388.237,275.919,388.43,277.853,388.334,276.6Z" transform="translate(-330.086 -258.059)" fill="#fcad9a"/>
          </g>
          <path id="Trazado_175415" data-name="Trazado 175415" d="M215.275,357.617a88.319,88.319,0,0,0,9.864,1.837,23.7,23.7,0,0,0,2.611.193c.87,0,1.741.1,2.514.1H235.2a68.037,68.037,0,0,0,9.961-.677,37.457,37.457,0,0,0,9.574-2.8,14.941,14.941,0,0,0,2.128-1.16c.677-.387,1.354-.87,2.031-1.354a34.568,34.568,0,0,0,3.578-3,29.182,29.182,0,0,0,5.029-6.866,26.14,26.14,0,0,0,2.514-6.963,24.668,24.668,0,0,0,0-10.638,15.074,15.074,0,0,0-.484-1.547,11.348,11.348,0,0,0-.484-1.064c-.29-.58-.58-.87-.774-.774s-.29.484-.387,1.064v2.708a31.128,31.128,0,0,1-1.451,9.381,26.381,26.381,0,0,1-2.708,5.8,28.171,28.171,0,0,1-4.545,5.609,22.624,22.624,0,0,1-3,2.321,10.077,10.077,0,0,1-1.741.967c-.58.29-1.16.58-1.837.87a30.286,30.286,0,0,1-8.22,2.128,58.519,58.519,0,0,1-9.187.484c-1.547,0-3.191,0-4.835-.1-.87,0-1.547-.1-2.321-.1a18.779,18.779,0,0,1-2.321-.193c-6.093-.677-12.282-2.708-18.664-3.675-1.547-.29-3.191-.387-4.739-.58a18.634,18.634,0,0,0-2.321-.1c-.774,0-1.547-.1-2.321-.1a35.736,35.736,0,0,0-4.545.193l-2.128.193c-.387,0-.677.1-1.064.1l-1.064.193a67.016,67.016,0,0,0-7.64,1.644l-1.934.58c1.064,1.451,2.128,2.9,3.288,4.449,2.224-.484,4.545-1.064,7.06-1.451a49.387,49.387,0,0,1,16.44.193C209.086,356.07,212.084,356.844,215.275,357.617Z" transform="translate(-163.221 -212.934)" fill="#d3433c"/>
          <path id="Trazado_175416" data-name="Trazado 175416" d="M307.322,260.454c-5.9.29-11.992.484-17.6-1.547s-10.638-6.673-11.121-12.669a15.2,15.2,0,0,1,1.934-8.22c4.158-7.93,12.765-12.475,20.985-16.053s15.86-5.9,20.7-11.508c5.8-6.673,4.062,14.8,2.321,23.016-1.16,5.512-2.321,11.025-4.932,16.053C316.992,254.652,312.737,259,307.322,260.454Z" transform="translate(-166.491 -209.19)" fill="#ea8879"/>
          <path id="Trazado_175417" data-name="Trazado 175417" d="M287.492,253.451a11.642,11.642,0,0,1,1.451-8.414c2.418-4.449,6.576-7.64,11.025-9.961s9.187-3.965,13.732-6.093a3.051,3.051,0,0,1,2.418-.387c.967.484.967,1.837.87,2.9-.29,2.611-.774,5.222-1.257,7.833-.967,4.835-2.321,9.574-5.029,13.636s-7.06,7.253-11.895,7.64S288.749,258.189,287.492,253.451Z" transform="translate(-166.776 -209.826)" fill="#e0665a"/>
          <path id="Trazado_175418" data-name="Trazado 175418" d="M261.1,393.1c24.08,28.722,23.6,65.374,18.858,92.549-.193.774-.484,3.385-.484,3.385l14.7,1.354a12.984,12.984,0,0,1,.387-3.385c3.481-27.948,15.183-56.38,17.02-84.038C306.649,402.771,266.032,393.2,261.1,393.1Z" transform="translate(-165.915 -215.246)" fill="#ea8879"/>
          <path id="Trazado_175419" data-name="Trazado 175419" d="M381,391.155c24.08,28.722,23.6,65.374,18.858,92.549-.193.774-.484,3.385-.484,3.385l14.7,1.354a12.982,12.982,0,0,1,.387-3.385c3.481-27.948,22.146-70.5,23.983-98.158C433.512,386.8,385.932,391.252,381,391.155Z" transform="translate(-169.863 -215.042)" fill="#ea8879"/>
        </g>
        <g id="Grupo_90930" data-name="Grupo 90930" transform="translate(0 55.695)">
          <path id="Trazado_175420" data-name="Trazado 175420" d="M9.527,358.4a8.242,8.242,0,0,0,3.191,5.125,3.759,3.759,0,0,0,3.772.1,6.259,6.259,0,0,0,2.8-3.095,8.72,8.72,0,0,0,.58-2.128,10.134,10.134,0,0,0-.1-2.418,15.459,15.459,0,0,1-.484-2.031c-.1-.677-.29-1.451-.387-2.224-.29-1.451-.58-3.095-.87-4.835s-.484-3.481-.774-5.319-.484-3.772-.774-5.8c-1.16-8.027-2.8-17.6-7.64-26.981A41.3,41.3,0,0,0-1.4,295.932a34.44,34.44,0,0,0-7.446-4.642,34.7,34.7,0,0,0-8.317-2.611,37.059,37.059,0,0,0-17.214.87,38.349,38.349,0,0,0-14.6,8.22,39.849,39.849,0,0,0-9.671,12.669,42.694,42.694,0,0,0-3.965,14.216A43.483,43.483,0,0,0-61.94,337.9c.1.484.193,1.064.29,1.547s.29.967.387,1.451c.29.967.484,1.837.774,2.611.484,1.741.967,3.191,1.354,4.642a15.457,15.457,0,0,1,.484,2.031,14.326,14.326,0,0,1,.29,1.837c0,.29.1.58.1.87v.774a8.849,8.849,0,0,1-.1,1.547,11.977,11.977,0,0,1-1.644,4.835c-1.451,2.418-3.191,3.095-3.095,4.062.1.29.193.484.484.58a2.978,2.978,0,0,0,1.257.29,7.554,7.554,0,0,0,4.642-1.837,14.043,14.043,0,0,0,4.352-6.479,10.2,10.2,0,0,0,.58-2.321c.1-.87.193-1.644.29-2.514v-2.514a23.711,23.711,0,0,0-.193-2.611c-.387-3.481-1.354-6.866-1.644-10.251a38.5,38.5,0,0,1,.193-10.541,32.132,32.132,0,0,1,3.675-10.734,32.431,32.431,0,0,1,7.446-9.187,29.853,29.853,0,0,1,10.638-5.706,26.5,26.5,0,0,1,11.992-.484,24.191,24.191,0,0,1,10.734,4.932,30.447,30.447,0,0,1,7.446,9.381,41.445,41.445,0,0,1,2.514,5.609,60.1,60.1,0,0,1,1.934,5.9c.58,2.031.967,3.868,1.354,5.9l.58,2.9c.193.967.29,1.934.484,2.9.29,1.934.58,3.868.87,5.706l.87,5.512c.29,1.837.58,3.481.967,5.125.193.87.387,1.644.484,2.418A21,21,0,0,0,9.527,358.4Z" transform="translate(63.104 -267.482)" fill="#447278"/>
          <path id="Trazado_175421" data-name="Trazado 175421" d="M4.7,359.118A10.217,10.217,0,0,0,6.439,362.5a7.312,7.312,0,0,0,2.031,1.837,3.537,3.537,0,0,0,3.772-.29,7.089,7.089,0,0,0,2.418-3.385,8.238,8.238,0,0,0,.387-2.224,4.708,4.708,0,0,0-.1-1.16,5.905,5.905,0,0,0-.29-1.257c-.87-3-1.644-6.093-2.224-9.187-.677-3.481-1.257-7.35-2.128-11.6a72.532,72.532,0,0,0-3.965-13.539c-.58-1.16-1.064-2.321-1.644-3.481-.29-.58-.677-1.16-.967-1.741a16.821,16.821,0,0,0-1.064-1.741,41.747,41.747,0,0,0-5.222-6.383,35.513,35.513,0,0,0-14.893-9.09A29.692,29.692,0,0,0-26.635,298a30.018,30.018,0,0,0-9.187,1.547,27.867,27.867,0,0,0-8.414,4.352,14.141,14.141,0,0,0-1.837,1.547l-1.741,1.741a15.068,15.068,0,0,0-1.547,1.934c-.484.677-.87,1.354-1.354,2.031a30.142,30.142,0,0,0-3.385,8.607,36.711,36.711,0,0,0-.967,8.607,74.357,74.357,0,0,0,1.934,15.376c.484,2.321.967,4.545,1.451,6.77l1.451,6.479c.967,4.255,1.934,8.317,2.8,11.992.1.484.193.967.29,1.354s.193.87.29,1.257.193.87.29,1.257l.193,1.16c.1.387.1.774.193,1.16s0,.774.1,1.064a14.283,14.283,0,0,1,.1,2.031,21.256,21.256,0,0,1-.58,3.578,10.714,10.714,0,0,1-1.354,2.8,8.722,8.722,0,0,1-.87.967,3.786,3.786,0,0,1-.967.774,6.755,6.755,0,0,1-2.031,1.064c-2.708.967-4.545.193-5.125.87-.29.29-.1,1.064.774,1.837A7.428,7.428,0,0,0-51.3,391.9a12.3,12.3,0,0,0,3.772-.58,13.106,13.106,0,0,0,2.031-.967c.677-.484,1.354-.967,1.934-1.451a19.592,19.592,0,0,0,3.191-4.255,18.884,18.884,0,0,0,1.837-5.416,15.014,15.014,0,0,0,.29-3c0-.484.1-.967.1-1.547l-.1-1.451a8.849,8.849,0,0,0-.1-1.547c-.1-.58-.1-.967-.193-1.451l-.193-1.547a7.465,7.465,0,0,1-.193-1.451c-.58-3.868-1.257-7.93-1.934-12.282l-2.321-13.346a76.142,76.142,0,0,1-1.354-13.346,23.432,23.432,0,0,1,3.095-11.6c.29-.387.484-.774.774-1.161s.58-.677.87-1.064a4.585,4.585,0,0,1,.967-.967c.387-.29.677-.58,1.064-.87a17.123,17.123,0,0,1,5.125-2.611,19.718,19.718,0,0,1,5.8-.967,19.538,19.538,0,0,1,5.8.774,23.489,23.489,0,0,1,10.154,6.189A35.168,35.168,0,0,1-7,320.629a8.829,8.829,0,0,1,.774,1.257,8.829,8.829,0,0,0,.774,1.257c.484.87.87,1.837,1.354,2.708A66.224,66.224,0,0,1-.524,337.359c.87,3.868,1.547,7.737,2.321,11.411C2.764,352.349,3.634,355.734,4.7,359.118Z" transform="translate(62.904 -267.809)" fill="#4a9aa0"/>
          <path id="Trazado_175422" data-name="Trazado 175422" d="M1.774,358.181c1.257,4.255,4.158,5.222,6.673,4.255a5.9,5.9,0,0,0,3.385-7.156A148.552,148.552,0,0,0,5.449,337.2c-.774-1.644-1.547-3.385-2.321-5.125s-1.741-3.481-2.611-5.222-1.934-3.578-3-5.416c-1.16-1.934-2.418-3.772-3.675-5.609a33.405,33.405,0,0,0-5.029-5.416,28.87,28.87,0,0,0-3.288-2.418,17.044,17.044,0,0,0-3.772-1.837,21.014,21.014,0,0,0-8.8-1.354,16.889,16.889,0,0,0-8.8,3.288,24.2,24.2,0,0,0-3.288,3,27.87,27.87,0,0,0-2.514,3.385,26.063,26.063,0,0,0-1.837,3.675,28.741,28.741,0,0,0-1.257,3.772,40.741,40.741,0,0,0-.967,14.506A72.22,72.22,0,0,0-43.1,349.284c1.16,3.965,2.321,7.64,3.385,11.025.967,3.191,1.741,6.383,2.418,9.574.1.774.29,1.451.387,2.224s.193,1.451.29,2.031a27.9,27.9,0,0,1,.193,3.965,40,40,0,0,1-.58,6.77,28.61,28.61,0,0,1-1.354,4.932c-.967,2.708-1.741,4.352-1.16,4.932.29.29.87.29,1.741-.1a11.473,11.473,0,0,0,3.191-2.514,19.946,19.946,0,0,0,3.481-5.416,30.361,30.361,0,0,0,2.321-8.027,27.176,27.176,0,0,0,.387-4.835v-2.611a23.711,23.711,0,0,0-.193-2.611,81.713,81.713,0,0,0-1.837-10.831c-1.644-7.35-4.062-14.893-4.545-22.339a32.827,32.827,0,0,1,.87-10.638,21.762,21.762,0,0,1,.774-2.321,9.1,9.1,0,0,1,1.16-2.128,12.867,12.867,0,0,1,1.354-1.837,18.565,18.565,0,0,1,1.451-1.354,6.072,6.072,0,0,1,3.095-1.16,8.362,8.362,0,0,1,3.772.58,12.037,12.037,0,0,1,1.934.967,12.866,12.866,0,0,1,1.837,1.354,23.592,23.592,0,0,1,3.385,3.578,44.772,44.772,0,0,1,3,4.449c.967,1.547,1.837,3.288,2.8,4.835s1.741,3.288,2.514,4.835,1.547,3.191,2.224,4.739A120.934,120.934,0,0,1,1.774,358.181Z" transform="translate(62.54 -268.032)" fill="#a4c441"/>
          <path id="Trazado_175423" data-name="Trazado 175423" d="M6.526,357.509a4.7,4.7,0,0,0,5.512,3.578l.87-.29a5.445,5.445,0,0,0,3.578-6.383,90.148,90.148,0,0,0-6.673-15.376A78.294,78.294,0,0,0-2.661,322.211a30.311,30.311,0,0,0-4.545-4.062,26.675,26.675,0,0,0-6.286-3.481c-.677-.193-1.257-.387-1.934-.58l-2.031-.29a19.938,19.938,0,0,0-4.158.1,13.725,13.725,0,0,0-3.868,1.16,22.923,22.923,0,0,0-3.385,1.837,23.833,23.833,0,0,0-5.319,5.029,28.836,28.836,0,0,0-3.385,6.093A33.089,33.089,0,0,0-39.7,340.586a40.441,40.441,0,0,0,.484,5.9,24.172,24.172,0,0,0,.484,2.8l.58,2.611.58,2.611c.193.87.484,1.644.677,2.418.484,1.547.87,3.095,1.354,4.642.387,1.451.87,2.9,1.257,4.255s.677,2.708,1.064,3.965a43.906,43.906,0,0,1,1.257,6.963,44.576,44.576,0,0,1-.1,10.154c-.29,2.418-.58,3.965.193,4.449s2.224-.387,3.965-2.9a22.987,22.987,0,0,0,2.321-4.932,35.42,35.42,0,0,0,1.354-6.963,40.846,40.846,0,0,0-.29-8.414c-.193-1.451-.387-3-.677-4.545s-.58-3-.87-4.545-.677-3.095-.967-4.642a19.807,19.807,0,0,1-.484-2.321c-.1-.774-.29-1.547-.387-2.321s-.29-1.547-.387-2.321l-.29-2.321c-.1-1.547-.193-3.095-.193-4.642a23.365,23.365,0,0,1,1.644-8.51,15.278,15.278,0,0,1,1.934-3.481,12.826,12.826,0,0,1,2.611-2.514,10.566,10.566,0,0,1,1.451-.774,7.123,7.123,0,0,1,1.354-.387,2.76,2.76,0,0,1,1.257,0c.193,0,.484.1.677.1a1.792,1.792,0,0,1,.677.193,11,11,0,0,1,3.095,1.741,31.752,31.752,0,0,1,3.288,3A72.359,72.359,0,0,1,.24,344.164,75.941,75.941,0,0,1,6.526,357.509Z" transform="translate(62.334 -268.327)" fill="#447278"/>
          <path id="Trazado_175424" data-name="Trazado 175424" d="M1.445,359.068A6.045,6.045,0,0,0,2.7,361a4.108,4.108,0,0,0,1.644.967,4.844,4.844,0,0,0,3.675-.29,5.865,5.865,0,0,0,2.9-2.611,4.334,4.334,0,0,0,.387-3.772,96.3,96.3,0,0,0-6.673-14.313l-1.16-2.031c-.387-.677-.87-1.354-1.257-2.031-.87-1.354-1.741-2.708-2.708-4.062-.484-.677-.967-1.354-1.547-2.128a4.653,4.653,0,0,0-.87-1.064,9.63,9.63,0,0,0-.967-1.064,26.348,26.348,0,0,0-2.418-2.224,17.1,17.1,0,0,0-3.095-2.031,13.938,13.938,0,0,0-3.868-1.257,17.264,17.264,0,0,0-2.224-.193,18.779,18.779,0,0,0-2.321.193,10.525,10.525,0,0,0-2.321.677c-.387.193-.677.29-1.064.484-.29.193-.677.387-.967.58a14.771,14.771,0,0,0-3.191,2.8,14.73,14.73,0,0,0-2.128,3.288,11.8,11.8,0,0,0-.677,1.644,11.125,11.125,0,0,0-.58,1.644l-.484,1.644c-.1.58-.193,1.064-.29,1.547-.193,1.064-.29,2.031-.387,3-.677,7.737.193,15.086.967,21.759a111.7,111.7,0,0,1,1.064,18.181,47.528,47.528,0,0,1-.967,7.446,32.189,32.189,0,0,1-2.031,6.093,28.122,28.122,0,0,1-5.125,7.833c-1.547,1.644-2.611,2.708-2.321,3.578s1.934,1.16,4.739.193a21.968,21.968,0,0,0,4.642-2.611,23.9,23.9,0,0,0,4.739-5.125,32.093,32.093,0,0,0,3.868-7.446,42.78,42.78,0,0,0,2.128-9.09c.87-6.479.484-13.346,0-20.115s-1.064-13.442-.484-19.728c.1-.774.193-1.547.29-2.128a3.436,3.436,0,0,1,.193-.967l.193-.87a6.663,6.663,0,0,1,.29-.774,4.718,4.718,0,0,1,.29-.677,3.994,3.994,0,0,1,.677-1.064c.193-.193.387-.484.677-.58.193-.1.29-.193.387-.193h.484l.87.29a3.993,3.993,0,0,1,1.064.677,6.071,6.071,0,0,1,1.16,1.064c.193.193.387.484.58.677a4.842,4.842,0,0,0,.677.774c.387.58.87,1.064,1.257,1.741.87,1.16,1.741,2.321,2.514,3.481l1.16,1.741,1.064,1.741A119.911,119.911,0,0,1,1.445,359.068Z" transform="translate(62.289 -268.629)" fill="#4a9aa0"/>
          <path id="Trazado_175425" data-name="Trazado 175425" d="M1.919,365.884a3.745,3.745,0,0,0,3,2.321A4.988,4.988,0,0,0,8.4,367.141a9.584,9.584,0,0,0,2.611-2.611,2.6,2.6,0,0,0,.58-2.611c-1.16-2.708-2.418-6.479-4.255-10.734a62.315,62.315,0,0,0-3.288-6.77,29.162,29.162,0,0,0-5.609-7.253A15.253,15.253,0,0,0-6.4,334.067a9.505,9.505,0,0,0-1.547-.484,13.186,13.186,0,0,1-1.644-.387,10.51,10.51,0,0,0-1.741-.1,12.96,12.96,0,0,0-1.934.1,14.138,14.138,0,0,0-1.934.484,14.878,14.878,0,0,0-1.837.774,11.059,11.059,0,0,0-3.095,2.514c-.193.29-.387.484-.58.774a3.393,3.393,0,0,0-.484.774l-.484.774a1.559,1.559,0,0,1-.387.677l-.29.774c-.1.193-.193.484-.29.677a7.123,7.123,0,0,0-.387,1.354A29.039,29.039,0,0,0-23.8,347.7a35.665,35.665,0,0,0-.1,4.545,82.176,82.176,0,0,0,.677,8.414c.387,2.708.774,5.222,1.16,7.64l.58,3.481c0,.29.1.484.1.774s.1.484.1.774c.1.58.1,1.064.193,1.644A85.509,85.509,0,0,1-20.71,386.1c-.193,3.095-.58,5.609-.87,7.446s-.29,3.095.484,3.578a1.318,1.318,0,0,0,1.451,0,6.687,6.687,0,0,0,2.128-1.547,21.336,21.336,0,0,0,4.352-8.123,45.794,45.794,0,0,0,1.837-13.055v-2.8l-.1-.967-.29-3.772c-.193-2.418-.484-4.932-.677-7.446s-.29-4.932-.29-7.35c0-1.161.1-2.321.193-3.481.1-.967.29-1.934.484-2.9a1.374,1.374,0,0,1,.193-.58l.1-.29.1-.193c0-.1.1-.1.1-.193l.1-.1v-.1h.193a.355.355,0,0,1,.29.1c.1,0,.193.1.29.1a4.211,4.211,0,0,1,1.547.967,17.375,17.375,0,0,1,1.837,1.934c.58.774,1.16,1.644,1.741,2.514q1.6,2.756,2.9,5.512C-.885,359.211.566,362.789,1.919,365.884Z" transform="translate(61.814 -268.965)" fill="#a4c441"/>
          <path id="Trazado_175426" data-name="Trazado 175426" d="M138.736,314.67c1.837,8.027,3,16.15,4.062,24.273,1.934,15.086,3.868,30.269,1.934,45.356s-8.123,30.173-19.922,39.65C113.592,433.04,98.6,436.134,84.1,436.811c-13.152.677-26.981.87-39.263-3.772-46.613-17.6-50.578-84.909-34.524-82.2s35.588,17.988,47.58,0c6.963-10.541,14.8-33.557,21.662-44.2C91.156,288.946,130.419,278.115,138.736,314.67Z" transform="translate(60.968 -267.556)" fill="#4a9aa0"/>
          <path id="Trazado_175427" data-name="Trazado 175427" d="M73.647,356.837c-2.418-.87-2.514-4.255-2.031-6.866l2.321-14.409s-5.8,14.8-12.862,17.794a12.147,12.147,0,0,1-3.675.967c.87-1.064,1.644-2.224,2.418-3.385,6.963-10.541,14.7-33.654,21.662-44.2,11.6-17.7,50.868-28.529,59.185,7.93,1.837,8.027,3,16.15,4.062,24.273.774,5.8,1.547,11.6,2.031,17.5-6.479-1.837-10.058-17.5-10.058-17.5a134.813,134.813,0,0,1,.677,14.023c-.1,1.547-.29,3.288-1.451,4.352-1.547,1.354-4.062.87-5.8-.193a16.317,16.317,0,0,1-6.479-8.7c-1.16-3.481-1.934-10.831-1.934-10.831s.193,12.959-1.644,19.051c-.774,2.611-2.128,5.512-4.835,6.189-3.481.87-6.576-2.611-8.123-5.9-3.288-7.06-2.611-21.372-2.611-21.372s-1.451,15.667-3.578,18.374-6,4.158-8.994,2.514c-2.321-1.257-3.385-4.062-4.062-6.576-1.16-4.642-.677-14.216-.677-14.216s-3.675,13.152-7.833,18.568C78,355.774,75.774,357.611,73.647,356.837Z" transform="translate(59.136 -267.559)" fill="#fc7a38"/>
          <g id="Grupo_90926" data-name="Grupo 90926" transform="translate(150.621 36.933)">
            <path id="Trazado_175428" data-name="Trazado 175428" d="M138.348,306.45a5.093,5.093,0,0,0-.29,6.963,5.185,5.185,0,0,0,4.158,1.934,4.862,4.862,0,0,0,4.255-3.578,5.335,5.335,0,0,0-.387-4.545A5,5,0,0,0,141.443,305,4.442,4.442,0,0,0,138.348,306.45Z" transform="translate(-94.1 -304.972)" fill="#ff6a17"/>
            <path id="Trazado_175429" data-name="Trazado 175429" d="M93.955,310.657a4.337,4.337,0,0,0-.29,5.9,3.958,3.958,0,0,0,7.06-1.354,4.526,4.526,0,0,0-.29-3.868,4.4,4.4,0,0,0-3.868-1.934A3.4,3.4,0,0,0,93.955,310.657Z" transform="translate(-92.645 -305.118)" fill="#fff"/>
            <path id="Trazado_175430" data-name="Trazado 175430" d="M94.5,314.41a1.59,1.59,0,0,0,.774,1.16,2.092,2.092,0,0,0,2.321-3.481,2.41,2.41,0,0,0-1.644-.29A2.85,2.85,0,0,0,94.5,314.41Z" transform="translate(-92.706 -305.196)"/>
            <path id="Trazado_175431" data-name="Trazado 175431" d="M138.955,306.957a4.337,4.337,0,0,0-.29,5.9,4.448,4.448,0,0,0,3.481,1.644,4.565,4.565,0,0,0,3.288-6.866,4.118,4.118,0,0,0-6.479-.677Z" transform="translate(-94.127 -304.996)" fill="#fff"/>
            <path id="Trazado_175432" data-name="Trazado 175432" d="M139.5,310.812a1.59,1.59,0,0,0,.774,1.16,2.08,2.08,0,1,0,2.418-3.385,1.977,1.977,0,0,0-1.644-.29A2.541,2.541,0,0,0,139.5,310.812Z" transform="translate(-94.188 -305.079)"/>
          </g>
          <g id="Grupo_90927" data-name="Grupo 90927" transform="translate(160.195 92.857)">
            <path id="Trazado_175433" data-name="Trazado 175433" d="M140.467,366.194c-.1-.387-.967-.1-.967.193a27.349,27.349,0,0,1,.29,3.965,10.53,10.53,0,0,1-.1,1.837c-.1.484.1.87.193.87s.29-.29.484-.774a11.407,11.407,0,0,0,.387-1.934A10.225,10.225,0,0,0,140.467,366.194Z" transform="translate(-103.763 -362.906)" fill="#fc7a38"/>
            <path id="Trazado_175434" data-name="Trazado 175434" d="M133.452,370.391c-.1-.484-.967-.193-.967.1a15.58,15.58,0,0,1-.1,4.739,5.514,5.514,0,0,0-.1,1.257,2.861,2.861,0,0,1-.193.967c-.1.58-.1.967.1,1.064s.387-.29.58-.87a6.672,6.672,0,0,1,.387-.967,4.8,4.8,0,0,0,.29-1.257A17.521,17.521,0,0,0,133.452,370.391Z" transform="translate(-103.517 -363.041)" fill="#fc7a38"/>
            <path id="Trazado_175435" data-name="Trazado 175435" d="M145.226,375.391c0-.484-.967-.193-.967.1a11.169,11.169,0,0,1-.484,3.965c-.1.387-.193.677-.29.967a6.665,6.665,0,0,1-.29.774c-.1.484-.193.774-.1.87s.387-.1.677-.58c.193-.29.29-.484.484-.774a11.532,11.532,0,0,0,.967-5.319Z" transform="translate(-103.88 -363.206)" fill="#fc7a38"/>
            <path id="Trazado_175436" data-name="Trazado 175436" d="M131.462,362.993c0-.29-.967-.193-.967-.1-.1,1.16-.387,4.449.193,4.449S131.462,364.154,131.462,362.993Z" transform="translate(-103.461 -362.8)" fill="#fc7a38"/>
            <path id="Trazado_175437" data-name="Trazado 175437" d="M126.258,367.691c0-.387-.967-.29-.967-.1-.1,1.547-.58,5.8,0,5.9S126.161,369.238,126.258,367.691Z" transform="translate(-103.286 -362.952)" fill="#fc7a38"/>
            <path id="Trazado_175438" data-name="Trazado 175438" d="M120.229,372.088c.1-.387-.87-.484-.87-.193-.387,1.644-1.644,6.093-1.064,6.189S119.842,373.732,120.229,372.088Z" transform="translate(-103.06 -363.094)" fill="#fc7a38"/>
            <path id="Trazado_175439" data-name="Trazado 175439" d="M123.153,377.593c0-.387-.967-.193-.967.1a14.045,14.045,0,0,1-.193,3.481c-.1,1.257-.387,2.321-.1,2.418.193,0,.29-.193.58-.58a4.638,4.638,0,0,0,.484-1.644A9.935,9.935,0,0,0,123.153,377.593Z" transform="translate(-103.179 -363.28)" fill="#fc7a38"/>
            <path id="Trazado_175440" data-name="Trazado 175440" d="M139.435,378.187c.1-.484-.87-.484-.967-.193-.29,1.934-1.354,7.06-.774,7.156S139.145,380.121,139.435,378.187Z" transform="translate(-103.698 -363.294)" fill="#fc7a38"/>
            <path id="Trazado_175441" data-name="Trazado 175441" d="M129.938,383.089c0-.387-.87-.387-.967-.193-.29,1.547-1.257,5.8-.677,5.9S129.744,384.636,129.938,383.089Z" transform="translate(-103.388 -363.458)" fill="#fc7a38"/>
            <path id="Trazado_175442" data-name="Trazado 175442" d="M142.445,389.091c0-.484-.967-.193-.967.1a19.986,19.986,0,0,1-.193,4.158c-.1.387-.1.677-.193,1.064s-.1.58-.193.87c-.1.484-.1.87.1.967s.387-.193.58-.677a3.79,3.79,0,0,0,.387-.87c.1-.387.193-.774.29-1.064A18.108,18.108,0,0,0,142.445,389.091Z" transform="translate(-103.807 -363.657)" fill="#fc7a38"/>
            <path id="Trazado_175443" data-name="Trazado 175443" d="M134.816,392.09c0-.484-.967-.29-.967,0a11.937,11.937,0,0,1-.677,4.062c-.1.387-.193.677-.29.967a5.743,5.743,0,0,1-.387.774c-.193.484-.193.87-.1.87s.387-.1.677-.58c.193-.29.387-.484.58-.774.193-.387.29-.677.484-1.064A8.983,8.983,0,0,0,134.816,392.09Z" transform="translate(-103.527 -363.755)" fill="#fc7a38"/>
            <path id="Trazado_175444" data-name="Trazado 175444" d="M124.1,388.686c0-.58-.87-.484-.967-.1a30.13,30.13,0,0,1-1.064,5.125c-.29.967-.58,1.741-.774,2.418s-.29,1.064-.1,1.064.387-.29.774-.87A12.384,12.384,0,0,0,123.034,394,20.77,20.77,0,0,0,124.1,388.686Z" transform="translate(-103.157 -363.639)" fill="#fc7a38"/>
            <path id="Trazado_175445" data-name="Trazado 175445" d="M117.141,383.99c0-.29-.87-.387-.967-.193-.29,1.354-1.16,4.835-.58,4.932S116.947,385.247,117.141,383.99Z" transform="translate(-102.969 -363.488)" fill="#fc7a38"/>
            <path id="Trazado_175446" data-name="Trazado 175446" d="M113.342,378.09c0-.29-.87-.387-.967-.193-.29,1.257-1.16,4.642-.484,4.835S113.245,379.444,113.342,378.09Z" transform="translate(-102.845 -363.294)" fill="#fc7a38"/>
            <path id="Trazado_175447" data-name="Trazado 175447" d="M116.138,394.688c.1-.193-.87-.484-.87-.29-.29.967-1.354,3.675-.774,3.868S115.945,395.752,116.138,394.688Z" transform="translate(-102.934 -363.838)" fill="#fc7a38"/>
            <path id="Trazado_175448" data-name="Trazado 175448" d="M110.642,388.391c0-.484-.967-.193-.967.1a14.4,14.4,0,0,1-.29,4.062c-.1.774-.29,1.354-.387,1.837s-.1.87.1.87.387-.193.58-.677a6.564,6.564,0,0,0,.677-1.934A16.046,16.046,0,0,0,110.642,388.391Z" transform="translate(-102.756 -363.634)" fill="#fc7a38"/>
            <path id="Trazado_175449" data-name="Trazado 175449" d="M126.6,398.491c0-.387-.87-.29-.967-.1a11.412,11.412,0,0,1-.87,3.578,3.434,3.434,0,0,1-.387.87,5.547,5.547,0,0,0-.387.677c-.193.387-.29.774-.1.87s.387-.1.677-.484a4.206,4.206,0,0,0,.58-.677,3.92,3.92,0,0,0,.484-.87A10.365,10.365,0,0,0,126.6,398.491Z" transform="translate(-103.245 -363.967)" fill="#fc7a38"/>
            <path id="Trazado_175450" data-name="Trazado 175450" d="M138.5,401.684c.1-.387-.774-.58-.87-.387-.677,1.644-2.611,6-2.031,6.286S137.917,403.328,138.5,401.684Z" transform="translate(-103.631 -364.065)" fill="#fc7a38"/>
            <path id="Trazado_175451" data-name="Trazado 175451" d="M129.876,407.582c.193-.29-.677-.677-.774-.484-.87,1.257-3.288,4.642-2.8,5.029S129.1,408.839,129.876,407.582Z" transform="translate(-103.326 -364.257)" fill="#fc7a38"/>
            <path id="Trazado_175452" data-name="Trazado 175452" d="M119.887,402.889c.1-.387-.87-.387-.967-.193a13.576,13.576,0,0,1-1.257,3.288,5.4,5.4,0,0,1-.484.774,2.424,2.424,0,0,0-.387.677c-.193.387-.29.677-.193.774s.387,0,.774-.387l.58-.58c.193-.29.387-.484.58-.774A9.467,9.467,0,0,0,119.887,402.889Z" transform="translate(-103.007 -364.11)" fill="#fc7a38"/>
            <path id="Trazado_175453" data-name="Trazado 175453" d="M111.583,399.587c.1-.387-.87-.484-.87-.29a19.973,19.973,0,0,1-1.451,3.288c-.29.58-.677,1.064-.87,1.451s-.29.677-.193.774.387,0,.774-.387a5.089,5.089,0,0,0,1.16-1.354A11.434,11.434,0,0,0,111.583,399.587Z" transform="translate(-102.731 -363.999)" fill="#fc7a38"/>
            <path id="Trazado_175454" data-name="Trazado 175454" d="M112.7,407.585c.1-.387-.774-.58-.87-.29-.58,1.644-2.514,6.189-1.837,6.383S112.123,409.326,112.7,407.585Z" transform="translate(-102.786 -364.261)" fill="#fc7a38"/>
            <path id="Trazado_175455" data-name="Trazado 175455" d="M105.5,402.083c.1-.29-.774-.58-.87-.484-.58,1.16-2.418,4.158-1.837,4.449S104.924,403.243,105.5,402.083Z" transform="translate(-102.55 -364.077)" fill="#fc7a38"/>
            <path id="Trazado_175456" data-name="Trazado 175456" d="M106.853,411.979c.193-.29-.58-.774-.677-.58-1.064,1.257-4.062,4.449-3.578,4.835S105.886,413.236,106.853,411.979Z" transform="translate(-102.546 -364.399)" fill="#fc7a38"/>
            <path id="Trazado_175457" data-name="Trazado 175457" d="M120.47,413.279c.193-.29-.677-.774-.774-.58-.87,1.257-3.481,4.739-3,5.125S119.7,414.536,120.47,413.279Z" transform="translate(-103.01 -364.442)" fill="#fc7a38"/>
            <path id="Trazado_175458" data-name="Trazado 175458" d="M133.334,412.878c.29-.387-.58-.774-.774-.58-1.16,1.547-4.545,5.609-4.062,6S132.27,414.426,133.334,412.878Z" transform="translate(-103.399 -364.428)" fill="#fc7a38"/>
            <path id="Trazado_175459" data-name="Trazado 175459" d="M139.985,410.982c.193-.29-.677-.677-.774-.484-.774,1.16-3.095,4.352-2.514,4.642S139.308,412.142,139.985,410.982Z" transform="translate(-103.667 -364.369)" fill="#fc7a38"/>
          </g>
          <path id="Trazado_175460" data-name="Trazado 175460" d="M88.058,281.015a10.684,10.684,0,0,0-6.479-2.8,6.939,6.939,0,0,0-5.9,3.288c-2.9,4.449,5.222,24.08,12.282,19.535,12.669-8.22,25.144-8.994,38.3-1.741,2.224,1.16,6.189-4.449,7.833-6.383a20.365,20.365,0,0,0,3.965-6.673,9.975,9.975,0,0,0-.387-7.64,7.093,7.093,0,0,0-6.189-3.965,5.246,5.246,0,0,0-5.125,4.835c0-2.418,0-4.835-1.064-6.963s-3.288-3.868-5.609-3.578c-2.9.484-4.545,3.675-5.609,6.383a16.529,16.529,0,0,0-.967-4.835,6.288,6.288,0,0,0-3.385-3.481c-2.321-.774-5.029.677-6.383,2.708a17.464,17.464,0,0,0-2.321,6.963,7.025,7.025,0,1,0-14.023.87,8.608,8.608,0,0,0,1.064,3.481Z" transform="translate(58.554 -266.781)" fill="#fc1515"/>
          <path id="Trazado_175461" data-name="Trazado 175461" d="M96.833,360.62c-1.644,19.148-16.247,36.555-34.911,41.391s-39.843-3-50.771-18.955c-.87-1.257-1.741-2.8-1.354-4.352.774-2.9,4.739-2.8,7.737-2.418A41.1,41.1,0,0,0,49.157,367.1c5.512-4.642,9.767-10.831,15.763-14.99A30.812,30.812,0,0,1,84.745,346.6c4.158.29,8.607,1.741,10.831,5.319C97.123,354.527,97.123,357.622,96.833,360.62Z" transform="translate(60.707 -269.407)" fill="#447278"/>
          <g id="Grupo_90928" data-name="Grupo 90928" transform="translate(89.146 84.777)">
            <path id="Trazado_175462" data-name="Trazado 175462" d="M83.458,372.969a6.78,6.78,0,0,1-5.8-.29,7.538,7.538,0,0,1-4.062-7.737c-5.319,2.224-13.442-5.9-6-10.444.484-.29,2.224.677,1.837.967a5.325,5.325,0,0,0-2.708,5.609c.58,5.222,6.479,3,7.93-.193l.193-.387c.193-.484,2.128.29,1.934.774a3.434,3.434,0,0,1-.387.87,9.624,9.624,0,0,0-.387,7.156c1.451,4.255,6.383,3.481,7.93.29a4.041,4.041,0,0,1,.387-.967c.193-.484,2.128.29,2.031.774a5.592,5.592,0,0,1-.484,1.354,7.939,7.939,0,0,0-.29,3.675,2.478,2.478,0,0,0,4.932-.484c0-.58,2.031.1,2.031.58,0,3-2.9,4.255-5.512,3.095A5.408,5.408,0,0,1,83.458,372.969Z" transform="translate(-30.248 -354.445)" fill="#a4c441"/>
            <path id="Trazado_175463" data-name="Trazado 175463" d="M68.964,381.894a5.752,5.752,0,0,1-6.189.484,4.933,4.933,0,0,1-2.9-5.8,4.737,4.737,0,0,1-3.965-.1c-5.125-2.321-1.934-6.866,1.354-9.381.387-.29,2.128.677,1.837.87-2.418,1.741-4.545,3.578-3.868,6.77.774,3.385,4.932-.484,5.319-.967a2.565,2.565,0,0,0,.484-.58,17.029,17.029,0,0,1,1.354-2.224c.29-.387,2.128.484,1.934.774a13.284,13.284,0,0,1-1.257,1.934,7.774,7.774,0,0,0-1.354,6c.387,2.224,3.385,2.418,5.029,1.547a14.4,14.4,0,0,0,4.062-3.965c.29-.387,2.128.484,2.031.774-1.644,2.708-3,5.319-2.128,8.51,1.16,4.352,5.319,2.224,7.253,1.064a12.412,12.412,0,0,0,3.578-3.868c.29-.484,2.128.484,2.031.774-2.708,3.965-6.576,6.576-11.315,4.642C68.674,387.793,68.19,384.892,68.964,381.894Z" transform="translate(-29.873 -354.859)" fill="#a4c441"/>
            <path id="Trazado_175464" data-name="Trazado 175464" d="M34.708,380.2c.58-.1,2.321,1.064,1.16,1.16-5.609.774-6.383,10.154,0,9.187h.1l.387-.1h.193c.484-.1,2.224.967,1.354,1.16-.387.1-.677.1-1.064.193-1.644.29-3,.774-3.675,2.514-1.644,3.675,4.835,4.545,7.543,4.255.58-.1,2.321,1.064,1.16,1.161-3.095.29-7.833.484-9.864-2.611-1.837-2.8-.58-4.739,1.547-5.8a8.212,8.212,0,0,1-3.385-2.611C27.165,385.035,30.937,380.78,34.708,380.2Z" transform="translate(-29.078 -355.292)" fill="#a4c441"/>
            <path id="Trazado_175465" data-name="Trazado 175465" d="M41.369,381.973c-3.095-3.481,2.611-6.286,5.222-6.673.677-.1,2.321,1.064,1.16,1.257a7.085,7.085,0,0,0-3.578,1.354c-3.578,2.321,2.031,5.222,4.739,4.449.484-.1,2.418.677,1.644,1.064a8.509,8.509,0,0,0-4.158,3.868c-.677,3.095.967,4.352,5.029,3.578.387-.1.774-.29,1.16-.387a21.83,21.83,0,0,1,2.128-1.064c.58-.29,2.418.774,1.547,1.16-.484.29-1.064.484-1.547.774a8.069,8.069,0,0,0-1.16.774c-3.385,2.418,1.16,5.416,3.675,5.706a13.771,13.771,0,0,0,8.027-1.934c.677-.387,2.418.677,1.837,1.064a15.317,15.317,0,0,1-13.732,1.064,5.074,5.074,0,0,1-3.095-3.868,3.1,3.1,0,0,1,.193-1.644,5.947,5.947,0,0,1-4.545-1.354c-2.9-2.321-1.644-5.029.484-6.963A6.786,6.786,0,0,1,41.369,381.973Z" transform="translate(-29.453 -355.131)" fill="#a4c441"/>
          </g>
          <path id="Trazado_175466" data-name="Trazado 175466" d="M139.427,326.435a94.761,94.761,0,0,1,5.319,13.442c1.064,3.385,1.934,7.253.193,10.348a6.225,6.225,0,0,1-5.125,3.288,7.171,7.171,0,0,1-6.286-3.965,18.153,18.153,0,0,1-1.934-7.543c-.484-6.576.1-13.152.677-19.728a3.772,3.772,0,0,1,4.449.1A13.563,13.563,0,0,1,139.427,326.435Z" transform="translate(56.699 -268.586)" fill="#ce0202"/>
          <path id="Trazado_175467" data-name="Trazado 175467" d="M135.722,327.5a99.335,99.335,0,0,1,2.514,14.216c.387,3.578.484,7.543-1.837,10.154a6.488,6.488,0,0,1-5.706,2.224,7.447,7.447,0,0,1-5.416-5.125,17.4,17.4,0,0,1-.387-7.737c.774-6.479,2.708-12.862,4.642-19.148a3.6,3.6,0,0,1,4.352,1.064A11.61,11.61,0,0,1,135.722,327.5Z" transform="translate(56.922 -268.592)" fill="#fc1515"/>
          <g id="Grupo_90929" data-name="Grupo 90929" transform="translate(180.417 46.101)">
            <path id="Trazado_175468" data-name="Trazado 175468" d="M133.464,325.771a10.293,10.293,0,0,1,5.319,2.418,11.3,11.3,0,0,0-5.706-7.543,15.373,15.373,0,0,0-9.477-1.354c0,3.481,1.644,5.512,2.611,6a6.283,6.283,0,0,0,3,.387A21.022,21.022,0,0,1,133.464,325.771Z" transform="translate(-123.461 -314.604)" fill="#ffaa4d"/>
            <path id="Trazado_175469" data-name="Trazado 175469" d="M134.233,314.692c1.644.29,7.446,2.8,4.449,13.346-4.255-4.642-12.862-6.383-13.539-6.77a3.278,3.278,0,0,1-1.644-1.934c-.29-1.354.967-2.611,2.224-3.288A12.452,12.452,0,0,1,134.233,314.692Z" transform="translate(-123.456 -314.452)" fill="#f9c280"/>
            <path id="Trazado_175470" data-name="Trazado 175470" d="M127.77,316.4a2.476,2.476,0,0,1,2.321.58,3.377,3.377,0,0,1,.967,2.321,3.892,3.892,0,0,0-1.934-.87c-.484-.1-.87,0-1.354-.1a1.143,1.143,0,0,1-.87-.87A1.052,1.052,0,0,1,127.77,316.4Z" transform="translate(-123.57 -314.514)" fill="#fc7f03"/>
            <path id="Trazado_175471" data-name="Trazado 175471" d="M134.931,315.391a1.016,1.016,0,0,1,.484.87,8.226,8.226,0,0,1,.387,2.128,6.6,6.6,0,0,0-2.514-2.128c-.193-.1-.387-.193-.387-.387s0-.387.193-.484.29-.193.484-.193A1.646,1.646,0,0,1,134.931,315.391Z" transform="translate(-123.767 -314.475)" fill="#fc7f03"/>
          </g>
        </g>
      </g>
    </g>
    <path id="Trazado_175473" data-name="Trazado 175473" d="M63,78.9Z" transform="translate(598.226 10360.742)" fill="none"/>
    <path id="Trazado_175474" data-name="Trazado 175474" d="M62.989,76.812a30.807,30.807,0,0,0,1.741,15.667,38.441,38.441,0,0,0,8.51,13.249l.193.193v.29a49.219,49.219,0,0,0,3.578,18.278A32.867,32.867,0,0,0,88.326,138.8c.58.484,1.257.87,1.934,1.354l1.934,1.257a33.055,33.055,0,0,0,4.158,2.031,42.115,42.115,0,0,0,17.891,3.385,39.747,39.747,0,0,0,8.9-1.451l1.16-.29.774.967A36.519,36.519,0,0,0,145.867,159.4a37.263,37.263,0,0,0,24.37-3.095l2.128-1.064,1.064,2.224a31.754,31.754,0,0,0,21.276,17.5,39.289,39.289,0,0,0,14.216,1.257c4.642-.484,8.9-2.321,10.831-5.706l1.547-2.708,2.611,1.837a31.79,31.79,0,0,0,11.895,5.125,21.669,21.669,0,0,0,12.379-1.064,25.9,25.9,0,0,0,5.512-3.095,28.967,28.967,0,0,0,4.642-4.449,36.838,36.838,0,0,0,6.383-11.411l1.354-3.868,3.385,2.224a55.39,55.39,0,0,0,17.117,7.543,42.919,42.919,0,0,0,35.1-7.35,40.03,40.03,0,0,0,11.8-13.926l1.16-2.321,2.514.484a34.321,34.321,0,0,0,21.469-2.9,28.726,28.726,0,0,0,8.607-6.576,44.359,44.359,0,0,0,3.191-4.255,31.118,31.118,0,0,0,2.224-4.835A26.429,26.429,0,0,0,371,98.184c-3.288-6.383-9.09-11.411-15.86-14.8l-3.288-1.644,1.741-3.191a23.349,23.349,0,0,0,2.514-15.086A21,21,0,0,0,348.565,50.6a28.431,28.431,0,0,0-14.506-6A35.828,35.828,0,0,0,318.1,46.252l-4.449-3.868a.616.616,0,0,0,0,.58h0v-.1l-.1-.58-.29-1.16a21,21,0,0,0-.677-2.321,5.453,5.453,0,0,0-.387-1.16l-.484-1.16a15.729,15.729,0,0,0-1.064-2.224,32.133,32.133,0,0,0-6.093-7.93,40.045,40.045,0,0,0-17.7-9.767A35.264,35.264,0,0,0,276.808,15.5a38.548,38.548,0,0,0-9.961,1.837,40.773,40.773,0,0,0-17.02,11.121l-1.354,1.354-1.741-.58-.193-.1a.355.355,0,0,1,.29.1,2.677,2.677,0,0,0,.87-.1,2.117,2.117,0,0,0,.967-.87l-4.449,1.16A56.376,56.376,0,0,0,233.1,22.172a34.317,34.317,0,0,0-12.379-3.481,27.53,27.53,0,0,0-12.475,1.934,33.53,33.53,0,0,0-10.638,7.253l-1.547,1.451-1.644-1.257a63.213,63.213,0,0,0-19.148-9.864,67.369,67.369,0,0,0-10.638-2.321,50.715,50.715,0,0,0-10.831-.193,48.537,48.537,0,0,0-10.541,2.128,29.106,29.106,0,0,0-9.381,4.932,43.991,43.991,0,0,0-7.543,7.737,46.832,46.832,0,0,0-3.191,4.449l-2.8,4.642-.774,1.257-1.16-.774a30.561,30.561,0,0,0-9.767-4.352,15.585,15.585,0,0,0-10.251.87,14.9,14.9,0,0,0-4.352,2.9,16.825,16.825,0,0,0-3.385,4.062,20.172,20.172,0,0,0-2.8,10.251v.677h-.58A26.385,26.385,0,0,0,71.4,61.435,27.9,27.9,0,0,0,62.989,76.812Z" transform="translate(598.237 10362.83)" fill="#fff"/>
    <path id="Trazado_175475" data-name="Trazado 175475" d="M381.152,107.443a32.431,32.431,0,0,0-1.257-6.673,36.884,36.884,0,0,0-10.638-16.827,50.722,50.722,0,0,0-7.833-5.706,31,31,0,0,0,1.837-16.247A27.95,27.95,0,0,0,353.2,44.873a36.234,36.234,0,0,0-17.891-7.446,39.3,39.3,0,0,0-15.376.967c-.193-.677-.484-1.451-.677-2.128-.193-.484-.29-.967-.484-1.451l-.58-1.354a23.567,23.567,0,0,0-1.354-2.708,38.826,38.826,0,0,0-7.446-9.477,47.326,47.326,0,0,0-20.6-11.218A40.782,40.782,0,0,0,276.9,8.9a39.924,39.924,0,0,0-11.6,2.321,45.982,45.982,0,0,0-18.471,11.992l-.193.1a62.964,62.964,0,0,0-10.638-6.576,37.469,37.469,0,0,0-14.409-3.772,32.423,32.423,0,0,0-14.8,2.611,36.281,36.281,0,0,0-10.734,7.06A66.675,66.675,0,0,0,165.5,11.413a52.655,52.655,0,0,0-11.7.1,45.779,45.779,0,0,0-11.315,2.611,31.628,31.628,0,0,0-10.251,5.8,55.169,55.169,0,0,0-11.121,13.249l-2.128,3.772a31.607,31.607,0,0,0-9.477-3.675,17.813,17.813,0,0,0-11.6,1.354,18.907,18.907,0,0,0-4.835,3.385,18.61,18.61,0,0,0-3.578,4.642A21.137,21.137,0,0,0,86.775,53.19a29.042,29.042,0,0,0-8.123,2.321,30.436,30.436,0,0,0-7.446,5.222,28.832,28.832,0,0,0-7.93,15.957h0a27.9,27.9,0,0,1,8.414-15.376,26.848,26.848,0,0,1,15.86-6.866h.58V53.77a20.173,20.173,0,0,1,2.8-10.251,17.2,17.2,0,0,1,3.385-4.062,16.294,16.294,0,0,1,4.352-2.9,15.636,15.636,0,0,1,10.251-.87,30.561,30.561,0,0,1,9.767,4.352l1.16.774.774-1.257,2.8-4.642c1.064-1.547,2.128-3,3.288-4.449a43.99,43.99,0,0,1,7.543-7.737,29.106,29.106,0,0,1,9.381-4.932,39.27,39.27,0,0,1,10.541-2.128,55.23,55.23,0,0,1,21.469,2.514A64.285,64.285,0,0,1,194.8,28.046l1.644,1.257,1.547-1.451A33.53,33.53,0,0,1,208.626,20.6,27.53,27.53,0,0,1,221.1,18.666a34.317,34.317,0,0,1,12.379,3.481A61.075,61.075,0,0,1,244.6,29.4l4.449-1.16a1.7,1.7,0,0,1-.967.87,1.365,1.365,0,0,1-.87.1.355.355,0,0,1-.29-.1l.193.1,1.741.58,1.257-1.354a40.7,40.7,0,0,1,17.117-11.218,34.864,34.864,0,0,1,9.961-1.837,39.1,39.1,0,0,1,10.058,1.064,40.915,40.915,0,0,1,17.7,9.767,30.439,30.439,0,0,1,6.093,7.93,15.736,15.736,0,0,1,1.064,2.224l.484,1.16c.1.387.29.774.387,1.16a21.008,21.008,0,0,1,.677,2.321l.29,1.16.1.58v.1a.616.616,0,0,1,0-.58l4.449,3.868a34.365,34.365,0,0,1,15.957-1.644,29.287,29.287,0,0,1,14.506,6,20.816,20.816,0,0,1,7.543,12.862,24.35,24.35,0,0,1-2.514,14.99l-1.741,3.191,3.288,1.644c6.77,3.288,12.572,8.317,15.86,14.8a26.4,26.4,0,0,1,1.644,20.792,31.118,31.118,0,0,1-2.224,4.835,28.735,28.735,0,0,1-3.191,4.255,31.818,31.818,0,0,1-8.607,6.576,34.321,34.321,0,0,1-21.469,2.9l-2.8-.677-1.16,2.321a41.918,41.918,0,0,1-46.9,21.276,51.188,51.188,0,0,1-17.117-7.543l-3.385-2.224-1.354,3.868a36.839,36.839,0,0,1-6.383,11.411,28.968,28.968,0,0,1-4.642,4.449,25.9,25.9,0,0,1-5.512,3.095,21.669,21.669,0,0,1-12.379,1.064A31.79,31.79,0,0,1,224,169.239l-2.611-1.837-1.547,2.708c-1.934,3.481-6.189,5.319-10.831,5.706a41.551,41.551,0,0,1-14.216-1.257,32.011,32.011,0,0,1-21.276-17.5l-1.064-2.224-2.128,1.064a36.665,36.665,0,0,1-24.37,3.095,35.738,35.738,0,0,1-20.792-13.346l-.774-.967-1.16.29a34.913,34.913,0,0,1-8.9,1.451,41.838,41.838,0,0,1-17.891-3.385A33.056,33.056,0,0,1,92.288,141l-1.934-1.257a13.819,13.819,0,0,1-1.934-1.354A34.165,34.165,0,0,1,77.1,124.077,49.218,49.218,0,0,1,73.527,105.8v-.1l-.193-.193a39.9,39.9,0,0,1-8.51-13.249,31.041,31.041,0,0,1-1.741-15.667h0A33.051,33.051,0,0,0,64.146,92.55a40.12,40.12,0,0,0,8.027,13.732,53.808,53.808,0,0,0,3.095,18.761,35.614,35.614,0,0,0,11.6,15.57,9.2,9.2,0,0,0,1.934,1.451c.677.484,1.354.87,2.031,1.354a47.537,47.537,0,0,0,4.352,2.321,45.323,45.323,0,0,0,19.148,4.255,38.264,38.264,0,0,0,8.7-1.064,39.747,39.747,0,0,0,9.284,8.7,39.093,39.093,0,0,0,12.669,5.609,39.714,39.714,0,0,0,13.926.87,44.548,44.548,0,0,0,11.218-2.9,36.2,36.2,0,0,0,23.21,18.568,43.443,43.443,0,0,0,16.15,1.644,24.54,24.54,0,0,0,8.317-2.128,15.7,15.7,0,0,0,5.029-3.675,36.867,36.867,0,0,0,11.8,4.739A27.468,27.468,0,0,0,250.4,179.1a30.556,30.556,0,0,0,6.963-3.868,33.547,33.547,0,0,0,5.706-5.416,38.833,38.833,0,0,0,6.093-9.671,58.265,58.265,0,0,0,15.86,6.479,49,49,0,0,0,40.714-8.317,47.393,47.393,0,0,0,12.669-14.023,40.737,40.737,0,0,0,23.4-3.868,37.621,37.621,0,0,0,10.638-8.027,31.684,31.684,0,0,0,4.062-5.416,35.183,35.183,0,0,0,2.9-6.093,30.964,30.964,0,0,0,1.547-6.576A32.807,32.807,0,0,0,381.152,107.443Z" transform="translate(598.24 10363.049)" fill="#131313"/>
    <path id="Trazado_175476" data-name="Trazado 175476" d="M322.4,43.8Z" transform="translate(589.684 10361.897)" fill="#131313"/>
    <path id="Trazado_175477" data-name="Trazado 175477" d="M85.81,90.222c-1.741,1.741-3.868,3.772-6,.967s1.064-4.739,1.741-7.156c-2.514-.967-6.093-5.029-3.191-7.156C81.748,74.459,85.133,79.1,88.421,79c3.578-.1,8.22-2.224,11.8-.774,4.062,1.741,3.481,7.64-.58,8.027C94.61,86.934,89.678,86.354,85.81,90.222Z" transform="translate(597.755 10360.832)" fill="#d8c99c"/>
    <path id="Trazado_175478" data-name="Trazado 175478" d="M151.011,119.961c-19.438-8.123-30.463-25.531-51.061-30.269-10.251-2.321-8.607-14.506-2.128-16.15,59.958-14.409,45.452-42.841,118.756-39.65,6.673.29,7.35,16.15,6.77,25.724-.677,10.444.193,21.082-.1,31.333-.1,6.576,1.837,21.372-3.481,26.594a14.427,14.427,0,0,0,.193-2.031c-.193,4.449-3.772,9.187-6.479,12.185C195.787,132.823,167.065,126.634,151.011,119.961Z" transform="translate(597.25 10362.232)" fill="#b2361e"/>
    <path id="Trazado_175479" data-name="Trazado 175479" d="M94.245,86.21c1.16-7.06,14.313-5.609,29.689-11.8,41.294-16.537,77.366-14.6,83.942-9.381,2.9,2.224,4.642-14.409,8.317-14.023,3.578.387-1.934,9.187,1.644,8.8,1.934-.193,3.772-.29,5.512-.484.58-9.574-.193-25.144-6.77-25.434-73.3-3.191-58.8,25.241-118.756,39.65C93.084,74.7,90.86,81.665,94.245,86.21Z" transform="translate(597.25 10362.232)" fill="#b85425" opacity="0.2"/>
    <path id="Trazado_175480" data-name="Trazado 175480" d="M130.4,104.678c.193,1.354,12.185,9.961,18.664,13.926,5.319,3.288,44.485,15.86,63.15,9.477-7.543-5.125-24.08-16.73-27.175-26.981-2.611.87-5.125,1.741-7.446,2.418-10.734,3.288-22.243,2.031-33.267.58-3.868-.484-6.479-2.031-10.541-1.451C132.14,103.034,130.109,102.937,130.4,104.678Z" transform="translate(596.007 10360.011)" fill="#b85425" opacity="0.1"/>
    <path id="Trazado_175481" data-name="Trazado 175481" d="M188.5,73.36c13.442-26.981,15.376-40.617,33.364-39.263,17.988,1.257,9.961,15.28,24.467,39.65,11.315,19.051-13.055,55.123-31.043,53.866S177.859,94.926,188.5,73.36Z" transform="translate(594.193 10362.221)" fill="#f4f9e3"/>
    <path id="Trazado_175482" data-name="Trazado 175482" d="M189.5,73.7C202.555,47.592,204.392,34.44,221.8,35.7s9.574,14.8,23.693,38.393c11.025,18.374-12.669,53.382-30.076,52.125S179.152,94.5,189.5,73.7Z" transform="translate(594.157 10362.167)" fill="#f6907a"/>
    <path id="Trazado_175483" data-name="Trazado 175483" d="M191.205,74.366c12.282-24.854,14.119-37.329,30.463-36.168,16.44,1.16,8.994,14.119,22.243,36.555,10.348,17.5-11.895,50.771-28.335,49.611C199.232,123.2,181.438,94.191,191.205,74.366Z" transform="translate(594.096 10362.085)" fill="#c84a40"/>
    <path id="Trazado_175484" data-name="Trazado 175484" d="M199.524,77.213c9.864-19.825,11.315-29.883,24.564-28.915s7.253,11.315,17.988,29.206c8.317,14.023-9.574,40.617-22.823,39.65S191.691,93.073,199.524,77.213Z" transform="translate(593.803 10361.752)" fill="#e5756b"/>
    <path id="Trazado_175485" data-name="Trazado 175485" d="M200.828,77.57c9.284-18.664,10.638-28.142,23.21-27.271,12.475.87,6.866,10.638,17.02,27.562,7.93,13.152-9.09,38.3-21.566,37.426C206.92,114.415,193.381,92.462,200.828,77.57Z" transform="translate(593.757 10361.686)" fill="#c84a40"/>
    <path id="Trazado_175486" data-name="Trazado 175486" d="M206.848,79.437c6.673-13.346,7.64-20.018,16.537-19.438s4.932,7.543,12.088,19.632c5.609,9.381-6.479,27.271-15.376,26.594S201.529,89.978,206.848,79.437Z" transform="translate(593.539 10361.365)" fill="#e5756b"/>
    <path id="Trazado_175487" data-name="Trazado 175487" d="M208.354,79.9c6-11.992,6.866-18.084,14.893-17.5S227.7,69.168,234.078,80c5.029,8.414-5.8,24.564-13.829,23.983S203.615,89.38,208.354,79.9Z" transform="translate(593.484 10361.286)" fill="#c84a40"/>
    <path id="Trazado_175488" data-name="Trazado 175488" d="M213.4,84.758c.484-7.446,4.545-13.249,8.994-12.959s7.64,6.576,7.06,14.023c-.484,7.446-4.545,13.249-8.994,12.959C216.009,98.588,212.915,92.3,213.4,84.758Z" transform="translate(593.275 10360.977)" fill="#f4f9e3"/>
    <path id="Trazado_175489" data-name="Trazado 175489" d="M214.6,84.921c.484-6.383,3.868-11.411,7.737-11.121,3.772.29,6.576,5.706,6.093,12.088s-3.868,11.411-7.737,11.121C216.822,96.816,214.115,91.4,214.6,84.921Z" transform="translate(593.235 10360.91)" fill="#dc554e"/>
    <path id="Trazado_175490" data-name="Trazado 175490" d="M218.8,85.448c.193-2.611,1.547-4.545,3.095-4.449s2.611,2.321,2.418,4.835c-.193,2.611-1.547,4.545-3.095,4.449C219.767,90.187,218.7,88.06,218.8,85.448Z" transform="translate(593.095 10360.673)" fill="#b62118"/>
    <path id="Trazado_175491" data-name="Trazado 175491" d="M220.1,85.6c.1-1.741.87-3,1.741-3,.87.1,1.451,1.451,1.354,3.191s-.87,3-1.741,3S220,87.339,220.1,85.6Z" transform="translate(593.053 10360.62)" fill="#f4f9e3"/>
    <path id="Trazado_175492" data-name="Trazado 175492" d="M242.953,66.41c-5.512,2.224-15.57,10.444-15.57,10.444L226.9,75.6s10.251-8.22,14.506-11.8C241.986,63.412,243.534,66.12,242.953,66.41Z" transform="translate(592.829 10361.24)" fill="#f4f9e3"/>
    <path id="Trazado_175493" data-name="Trazado 175493" d="M216,76.482s-8.9-13.636-17.7-21.469c-.387-.29,1.16-2.9,1.354-2.514,2.224,3.868,16.827,22.92,16.827,22.92Z" transform="translate(593.772 10361.612)" fill="#f4f9e3"/>
    <path id="Trazado_175494" data-name="Trazado 175494" d="M218.937,99.174a.748.748,0,0,1-.1.29c-6.189,27.271-2.9,29.109-2.9,29.4h0l-4.739-1.257s.1-.29.29-1.064A178.538,178.538,0,0,0,217.679,98.4Z" transform="translate(593.345 10360.1)" fill="#f4f9e3"/>
    <path id="Trazado_175495" data-name="Trazado 175495" d="M271.4,78.963a10.513,10.513,0,0,0-1.451-.193c-5.512-.677-23.5-3.095-29.592,4.739-6.963,8.9-25.337,7.543-32.977,12.959-7.737,5.416-11.8,17.407,6,21.856s19.535-1.354,29.5,6.963c10.058,8.317,53.479,17.6,64.89,3.868s22.726-5.706,29.689-12.765c7.06-7.06-9.671-16.053-9.671-19.728s15.086-2.708,7.543-10.251S277.972,80.7,271.4,78.963Z" transform="translate(593.688 10360.775)" fill="#fff7bb"/>
    <path id="Trazado_175496" data-name="Trazado 175496" d="M329.9,94.233c0,.87.967,2.031,2.321,3.385a1.793,1.793,0,0,1-.193-.677c0-3.675,15.086-2.708,7.543-10.251l-.29-.29C341.311,91.332,329.9,91.042,329.9,94.233Z" transform="translate(589.437 10360.495)" fill="#e8c787"/>
    <path id="Trazado_175497" data-name="Trazado 175497" d="M335.643,106.6c1.741,2.708,2.224,5.416-.29,8.027-7.06,7.06-18.374-.967-29.689,12.765-11.411,13.732-54.833,4.449-64.891-3.868s-11.8-2.514-29.5-6.963c-4.449-1.064-7.543-2.708-9.477-4.545,1.547,3,5.125,5.609,11.7,7.253,17.794,4.449,19.535-1.354,29.5,6.963,10.058,8.317,53.479,17.6,64.89,3.868s22.726-5.706,29.689-12.765C340.865,113.95,338.737,110.081,335.643,106.6Z" transform="translate(593.655 10359.83)" fill="#e8c787"/>
    <path id="Trazado_175498" data-name="Trazado 175498" d="M343.827,101.463s-5.416,4.158.967,6.866,14.216.87,12.475-3.385C355.529,100.592,347.5,99.142,343.827,101.463Z" transform="translate(589.049 10360.035)" fill="#fff7bb"/>
    <path id="Trazado_175499" data-name="Trazado 175499" d="M357.283,105a6.436,6.436,0,0,0-2.8-3,5.772,5.772,0,0,1,.87,1.451c1.741,4.255-6.093,6.093-12.475,3.385a2.9,2.9,0,0,1-.774-.387,5.834,5.834,0,0,0,2.611,1.837C351.19,111.09,359.024,109.253,357.283,105Z" transform="translate(589.035 10359.981)" fill="#e8c787" opacity="0.67"/>
    <path id="Trazado_175500" data-name="Trazado 175500" d="M349.351,113.573c-3.578,3.578.1,10.058,5.319,10.058s6.383-9.09,1.644-10.058S350.512,112.412,349.351,113.573Z" transform="translate(588.843 10359.627)" fill="#fff7bb"/>
    <path id="Trazado_175501" data-name="Trazado 175501" d="M312.287,92.3c0,8.123-12.572,10.154-28.045,10.154-11.315,0-20.985-1.064-25.531-4.739A6.83,6.83,0,0,1,256.1,92.3a7.762,7.762,0,0,1,.58-2.9c2.514-6.77,13.926-11.895,27.562-11.895a58.776,58.776,0,0,1,5.9.29,41.994,41.994,0,0,1,5.222.87C305.227,80.981,312.287,86.2,312.287,92.3Z" transform="translate(591.867 10360.788)" fill="#fd9609"/>
    <path id="Trazado_175502" data-name="Trazado 175502" d="M312.288,92.777c.1,6-6.189,8.317-11.992,9.477-11.121,2.128-46.033,3.385-44.1-10.154-.484,11.508,24.08,10.734,35.878,10.154C299.909,101.771,311.9,100.514,312.288,92.777Z" transform="translate(591.866 10360.308)" fill="#f7751e"/>
    <path id="Trazado_175503" data-name="Trazado 175503" d="M295.456,80.4c0,9.574-14.7,17.407-32.88,17.407-1.354,0-2.9-.1-4.158-.1A6.14,6.14,0,0,1,256,92.106c.387-8.123,12.572-14.506,28.142-14.506a45.024,45.024,0,0,1,11.121,1.257A6.729,6.729,0,0,1,295.456,80.4Z" transform="translate(591.871 10360.785)" fill="#fd9609"/>
    <path id="Trazado_175504" data-name="Trazado 175504" d="M294.029,81.945c0,4.449-12.185,7.93-27.175,7.93a83.315,83.315,0,0,1-10.154-.58c2.514-6.77,13.926-11.895,27.562-11.895a58.776,58.776,0,0,1,5.9.29C292.578,79.044,294.029,80.495,294.029,81.945Z" transform="translate(591.847 10360.791)" fill="#fd9609"/>
    <path id="Trazado_175505" data-name="Trazado 175505" d="M301.83,83.9s5.222-.87,6.383,3.868C309.374,92.6,285.1,99.758,285.1,99.758S307.923,90.087,301.83,83.9Z" transform="translate(590.912 10360.579)" fill="#fff" opacity="0.18"/>
    <path id="Trazado_175506" data-name="Trazado 175506" d="M246.225,87.964s-18.374,1.837-23.4,9.187-16.634,1.837-13.539,8.317,56.38,17.02,60.635,12.765c4.158-4.158-30.559-2.224-30.559-11.895C239.262,96.764,267.984,82.935,246.225,87.964Z" transform="translate(593.426 10360.479)" fill="#fff" opacity="0.56"/>
    <path id="Trazado_175507" data-name="Trazado 175507" d="M258.1,107.474s6.093-2.8,17.311,0,32.107,3.385,38.1,0,1.354-16.537,7.737-15.376,8.9,10.444,8.9,15.376-24.564,2.031-26.4,7.833C301.715,121.11,260.808,106.6,258.1,107.474Z" transform="translate(591.801 10360.31)" fill="#fff" opacity="0.58"/>
    <path id="Trazado_175508" data-name="Trazado 175508" d="M348.412,101.3s-5.319.29-5.512,2.224,4.545,3.578,6.576,3.481c1.354,0,6.383-.677,5.029-3.191C353.054,101.3,348.412,101.3,348.412,101.3Z" transform="translate(589.009 10360.005)" fill="#fff"/>
    <path id="Trazado_175509" data-name="Trazado 175509" d="M351.037,114.2s-2.9,1.354-1.451,3.675,2.708,2.418,3.675,3.385,4.062-.193,2.128-3.481C353.454,114.393,351.037,114.2,351.037,114.2Z" transform="translate(588.802 10359.58)" fill="#fff" opacity="0.44"/>
    <path id="Trazado_175510" data-name="Trazado 175510" d="M213.881,197.623a29.437,29.437,0,0,0,3.578,8.414,38.15,38.15,0,0,0-9.864,1.547,26.7,26.7,0,0,0-9.477,4.835,17.652,17.652,0,0,0-6,8.9,20.281,20.281,0,0,0-.677,5.416,18.521,18.521,0,0,0,.484,3.965A93.261,93.261,0,0,0,178.2,229.15c-5.125-.1-10.251,0-15.376,1.741a30.229,30.229,0,0,0-6.963,3.772,49.049,49.049,0,0,0-5.9,5.029,75.135,75.135,0,0,0-8.8,10.444,107.894,107.894,0,0,0-10.251-7.156,49.658,49.658,0,0,0-6.383-3.288,21.251,21.251,0,0,0-7.253-1.934,21.711,21.711,0,0,0-7.446,1.064,40.944,40.944,0,0,0-6.673,2.9,48.744,48.744,0,0,0-6,3.868c-1.16.87-2.224,1.644-3.191,2.514l-.87-2.031a32.215,32.215,0,0,0-2.708-4.642,22.822,22.822,0,0,0-7.93-7.253,23.594,23.594,0,0,0-5.125-2.031c-.87-.193-1.837-.387-2.708-.58a14.542,14.542,0,0,0-2.9,0,22.615,22.615,0,0,0-10.154,3.965c-5.9,3.965-10.444,9.09-14.7,14.409-1.257,1.644-2.514,3.385-3.675,5.222a83.671,83.671,0,0,1,12.669-26.691c.484-.774,1.064-1.451,1.644-2.321a24.6,24.6,0,0,0,1.547-2.708,18.988,18.988,0,0,0,1.644-6.093,16.375,16.375,0,0,0-.484-6.479,21.174,21.174,0,0,0-2.9-5.706A40.336,40.336,0,0,0,48.9,196.85c-1.934-1.451-3.868-2.708-5.9-3.965.774-.484,1.644-.967,2.418-1.451a66.278,66.278,0,0,0,5.9-4.352,30.7,30.7,0,0,0,5.125-5.512,18.1,18.1,0,0,0,3.385-7.156,19.909,19.909,0,0,0-.1-7.93,38.26,38.26,0,0,0-2.224-7.156c-.967-2.224-2.031-4.449-3.191-6.576-.484-.87-.967-1.741-1.547-2.611a103.863,103.863,0,0,0,13.442-1.451,67.974,67.974,0,0,0,8.8-1.934,30.763,30.763,0,0,0,8.51-3.868l.967-.774.967-.87.87-.87.774-.967a34.194,34.194,0,0,0,2.514-3.965,53.614,53.614,0,0,0,3.578-8.414,124.038,124.038,0,0,0,3.675-14.6,114.777,114.777,0,0,0,14.6,5.319,76.827,76.827,0,0,0,18.181,3,43.9,43.9,0,0,0,9.381-.774,58.049,58.049,0,0,0,8.9-2.514,81.91,81.91,0,0,0,8.414-3.675c2.128-1.16,4.255-2.321,6.286-3.578.967,1.741,1.934,3.288,3,4.932a47.851,47.851,0,0,0,4.739,6,47.8,47.8,0,0,0,11.8,9.767c4.739,2.514,9.961,3.288,14.99,3.481a74.321,74.321,0,0,0,13.926-.774c-.484,3.578-.774,7.156-.967,10.734a62.155,62.155,0,0,0,.29,11.992,14.643,14.643,0,0,0,1.934,5.9,22.44,22.44,0,0,0,3.868,4.642,69.376,69.376,0,0,0,8.8,7.156,22.4,22.4,0,0,0-3.675,2.031,19.279,19.279,0,0,0-3.578,3.288,17.932,17.932,0,0,0-4.158,8.607A21.791,21.791,0,0,0,213.881,197.623Z" transform="translate(598.884 10359.711)" fill="#fff"/>
    <path id="Trazado_175511" data-name="Trazado 175511" d="M51.741,225.594a20.415,20.415,0,0,0,2.708-4.352,12.739,12.739,0,0,0,1.257-4.642,10.287,10.287,0,0,0-.387-4.545,13.523,13.523,0,0,0-2.128-4.255,35.279,35.279,0,0,0-7.446-7.253,67.186,67.186,0,0,0-8.994-5.706L32.4,192.617l4.352-2.128a42.7,42.7,0,0,0,5.8-3.288,42.2,42.2,0,0,0,5.319-3.965,29.652,29.652,0,0,0,4.449-4.739,12.824,12.824,0,0,0,2.514-11.411A32.909,32.909,0,0,0,52.9,160.9a60.082,60.082,0,0,0-6.479-11.7l-2.514-3.675,4.352-.1a123.589,123.589,0,0,0,16.924-1.451,77.505,77.505,0,0,0,8.22-1.741,24.389,24.389,0,0,0,7.253-3.191,15.415,15.415,0,0,0,4.739-5.9,58.037,58.037,0,0,0,3.191-7.64,121.354,121.354,0,0,0,4.062-16.537l.484-2.8,2.514,1.257a112.372,112.372,0,0,0,16.44,6.189A73.94,73.94,0,0,0,129.3,116.7a43.874,43.874,0,0,0,16.924-2.8,73.78,73.78,0,0,0,15.667-7.737l1.741-1.16.87,1.837a49.593,49.593,0,0,0,3.481,6.286,61.63,61.63,0,0,0,4.352,5.9,43.913,43.913,0,0,0,10.831,9.477,27.847,27.847,0,0,0,6.673,2.514,45.219,45.219,0,0,0,7.253,1.064,74.536,74.536,0,0,0,14.7-.484l1.257-.193-.193,1.16c-.58,3.868-1.064,7.833-1.354,11.8a60.12,60.12,0,0,0,0,11.8,11.814,11.814,0,0,0,1.644,5.416,23.657,23.657,0,0,0,3.675,4.545,67.141,67.141,0,0,0,8.994,7.64l.58.387-.58.193a19.033,19.033,0,0,0-4.255,2.031,21.766,21.766,0,0,0-3.578,3,19.316,19.316,0,0,0-4.449,8.317,19.246,19.246,0,0,1,7.737-11.895,19.6,19.6,0,0,1,3.675-2.031,63.172,63.172,0,0,1-8.8-7.156,25.293,25.293,0,0,1-3.868-4.642,13.734,13.734,0,0,1-1.934-5.9,62.971,62.971,0,0,1-.29-12.088c.193-3.578.58-7.156.967-10.734a74.778,74.778,0,0,1-13.926.774c-5.029-.29-10.251-.967-14.99-3.481a44.3,44.3,0,0,1-11.895-9.767,67.743,67.743,0,0,1-4.739-6,51.569,51.569,0,0,1-3-4.932,58.189,58.189,0,0,1-6.286,3.578,65.135,65.135,0,0,1-8.414,3.675,58.051,58.051,0,0,1-8.9,2.514,43.391,43.391,0,0,1-9.381.774,76.828,76.828,0,0,1-18.181-3,109.622,109.622,0,0,1-14.6-5.319,121.852,121.852,0,0,1-3.481,14.506,53.168,53.168,0,0,1-3.481,8.414,24.809,24.809,0,0,1-2.514,3.965l-.774.967-.87.87-.967.87-.967.774a30.763,30.763,0,0,1-8.51,3.868,67.974,67.974,0,0,1-8.8,1.934c-4.449.677-8.994,1.16-13.442,1.451.484.87,1.064,1.741,1.547,2.611a68.952,68.952,0,0,1,3.191,6.576,36.156,36.156,0,0,1,2.224,7.156,19.909,19.909,0,0,1,.1,7.93,20.955,20.955,0,0,1-3.481,7.253,30.7,30.7,0,0,1-5.125,5.512,37.137,37.137,0,0,1-5.9,4.352c-.774.484-1.644.967-2.418,1.451,2.031,1.257,3.965,2.514,5.9,3.965A40.335,40.335,0,0,1,57.35,204.8a20.614,20.614,0,0,1,2.9,5.609,16.244,16.244,0,0,1,.484,6.479,19.141,19.141,0,0,1-1.741,6.093,24.6,24.6,0,0,1-1.547,2.708,26.406,26.406,0,0,0-1.644,2.321A85.777,85.777,0,0,0,43.134,254.7c1.16-1.741,2.418-3.481,3.675-5.222,4.158-5.416,8.8-10.541,14.6-14.409a22.616,22.616,0,0,1,10.154-3.965,14.542,14.542,0,0,1,2.9,0,13.551,13.551,0,0,1,2.708.58,25.706,25.706,0,0,1,5.125,2.031,23.787,23.787,0,0,1,7.93,7.253,27.724,27.724,0,0,1,2.708,4.642l.87,2.031c1.064-.87,2.128-1.741,3.191-2.514a57.344,57.344,0,0,1,6-3.868,40.945,40.945,0,0,1,6.673-2.9,21.712,21.712,0,0,1,7.446-1.064,21.251,21.251,0,0,1,7.253,1.934,49.658,49.658,0,0,1,6.383,3.288A92.718,92.718,0,0,1,141,249.674a70.544,70.544,0,0,1,8.9-10.444,49.047,49.047,0,0,1,5.9-5.029,30.228,30.228,0,0,1,6.963-3.772c5.029-1.741,10.251-1.934,15.376-1.741a93.259,93.259,0,0,1,13.732,1.547,17.8,17.8,0,0,1-.484-3.965,17,17,0,0,1,.677-5.416,18.07,18.07,0,0,1,6-8.9,26.7,26.7,0,0,1,9.477-4.835,37.513,37.513,0,0,1,9.864-1.547,29.437,29.437,0,0,1-3.578-8.414,20.071,20.071,0,0,1-.193-9.574,21.345,21.345,0,0,0,.484,9.574,24.962,24.962,0,0,0,1.741,4.449,25.812,25.812,0,0,0,2.418,4.158l.387.484h-.967a40.009,40.009,0,0,0-10.154,1.837,24.205,24.205,0,0,0-8.9,4.835,15.923,15.923,0,0,0-5.319,8.317,16.864,16.864,0,0,0,.484,9.767l.58,1.451-1.547-.29a95.836,95.836,0,0,0-14.8-1.451,61.3,61.3,0,0,0-7.35.387,35.408,35.408,0,0,0-7.06,1.547c-4.449,1.741-8.317,4.932-11.7,8.414a81.284,81.284,0,0,0-9.187,11.508l-.967,1.451-1.257-1.064a109.177,109.177,0,0,0-11.218-7.64,49.538,49.538,0,0,0-6-3,18.848,18.848,0,0,0-6.093-1.547,19.259,19.259,0,0,0-6.189.967,30.111,30.111,0,0,0-6,2.708,53.9,53.9,0,0,0-10.638,8.027L92.068,254.8l-.87-3.191a32.261,32.261,0,0,0-1.644-4.255,24.173,24.173,0,0,0-2.418-3.965,19.8,19.8,0,0,0-6.673-6,16.634,16.634,0,0,0-4.158-1.547,15.2,15.2,0,0,0-2.224-.387,7.144,7.144,0,0,0-2.031,0,18.433,18.433,0,0,0-8.123,3.385,64.175,64.175,0,0,0-13.539,13.539,84.735,84.735,0,0,0-9.864,16.634l-5.8,13.055,1.354-14.216A85.41,85.41,0,0,1,51.741,225.594Z" transform="translate(599.233 10359.882)" fill="#131313"/>
    <path id="Trazado_192258" data-name="Trazado 192258" d="M2.676-10.449a.616.616,0,0,1-.152.358,2.226,2.226,0,0,1-.363.372,2.333,2.333,0,0,1-.456.292,1.061,1.061,0,0,1-.464.119.534.534,0,0,1-.177-.113A2.7,2.7,0,0,1,.853-9.6Q.82-9.639.761-9.725T.642-9.9a1.471,1.471,0,0,1-.093-.166.385.385,0,0,1-.034-.086A.685.685,0,0,1,.6-10.535a.427.427,0,0,1,.219-.173.959.959,0,0,1,.312-.046h.38q.068,0,.253-.007a3.072,3.072,0,0,1,.4.013,1.339,1.339,0,0,1,.363.08A.218.218,0,0,1,2.676-10.449ZM3.807-5.312a1.744,1.744,0,0,1-.245.9Q3.318-4,3.039-3.6t-.523.816a1.744,1.744,0,0,0-.245.9.5.5,0,0,0,.127.325A1.231,1.231,0,0,0,2.71-1.3a1.69,1.69,0,0,0,.422.179,1.681,1.681,0,0,0,.456.066,1.374,1.374,0,0,0,.6-.133A2.955,2.955,0,0,0,4.7-1.5a5.422,5.422,0,0,0,.447-.378,3.032,3.032,0,0,1,.413-.332.676.676,0,0,1,.228-.053q.194-.027.245-.027a2.525,2.525,0,0,1-.177.956,2.028,2.028,0,0,1-.532.757,2.5,2.5,0,0,1-.886.5A3.771,3.771,0,0,1,3.233.1a2.956,2.956,0,0,1-.97-.173,3.318,3.318,0,0,1-.886-.458,2.825,2.825,0,0,1-.641-.644,1.271,1.271,0,0,1-.253-.743,2.273,2.273,0,0,1,.16-.869,4.414,4.414,0,0,1,.38-.73q.219-.338.456-.657a4.241,4.241,0,0,0,.405-.664,2.066,2.066,0,0,0,.2-.737,2.247,2.247,0,0,0-.135-.9.405.405,0,0,1,.135-.086q.1-.046.211-.086l.219-.08a.54.54,0,0,1,.16-.04,1.018,1.018,0,0,1,.591.153,1.153,1.153,0,0,1,.346.372,1.269,1.269,0,0,1,.16.471A3.439,3.439,0,0,1,3.807-5.312Zm10.07,2.974a3.222,3.222,0,0,0-1.073.185q-.526.185-1.06.41t-1.087.41A3.629,3.629,0,0,1,9.5-1.148a2.917,2.917,0,0,1-1.395-.314A2.837,2.837,0,0,1,7.137-2.3a3.637,3.637,0,0,1-.567-1.23,5.828,5.828,0,0,1-.185-1.483,9.832,9.832,0,0,1,.15-1.647A10.317,10.317,0,0,1,7-8.422a10.314,10.314,0,0,1,.786-1.688,6.974,6.974,0,0,1,1.1-1.442,5.1,5.1,0,0,1,1.415-1,3.956,3.956,0,0,1,1.729-.376,3.1,3.1,0,0,1,1.21.232,3.573,3.573,0,0,1,1,.636,4.6,4.6,0,0,1,.793.93,5.883,5.883,0,0,1,.567,1.121,7.145,7.145,0,0,1,.342,1.21,6.339,6.339,0,0,1,.116,1.176,3.5,3.5,0,0,1-.185,1.114q-.185.554-.4,1.08t-.4,1.046A3.049,3.049,0,0,0,14.9-3.363v.137q.15.178.444.479t.595.663a4.72,4.72,0,0,1,.52.766,1.622,1.622,0,0,1,.219.772.723.723,0,0,1-.1.4q-.1.144-.52.144l-.3-.3q-.1-.109-.342-.4t-.52-.615q-.273-.328-.526-.615t-.349-.41ZM7.547-4.949a5.893,5.893,0,0,0,.089,1.06,2.272,2.272,0,0,0,.314.834,1.529,1.529,0,0,0,.636.547,2.387,2.387,0,0,0,1.039.2q.164,0,.472-.027t.67-.089q.362-.062.738-.157a3.116,3.116,0,0,0,.677-.253,2.027,2.027,0,0,0,.5-.355.644.644,0,0,0,.2-.472.617.617,0,0,0-.116-.267q-.116-.185-.3-.444t-.4-.554q-.219-.294-.417-.588t-.355-.533a1.4,1.4,0,0,1-.2-.4q.1-.246.253-.28a1.644,1.644,0,0,1,.349-.034.689.689,0,0,1,.451.157,1.815,1.815,0,0,1,.349.39,5.3,5.3,0,0,1,.3.506,5.3,5.3,0,0,0,.3.506,1.921,1.921,0,0,0,.342.39.662.662,0,0,0,.444.157.586.586,0,0,0,.444-.2,1.534,1.534,0,0,0,.3-.5,3.416,3.416,0,0,0,.178-.67q.062-.369.089-.711t.034-.622q.007-.28.007-.4a7.1,7.1,0,0,0-.144-1.408,3.89,3.89,0,0,0-.492-1.278,2.879,2.879,0,0,0-.916-.93,2.58,2.58,0,0,0-1.415-.362,2.451,2.451,0,0,0-1.23.335,4.284,4.284,0,0,0-1.08.889,6.847,6.847,0,0,0-.882,1.265,10.364,10.364,0,0,0-.663,1.47,10.107,10.107,0,0,0-.417,1.5A7.077,7.077,0,0,0,7.547-4.949Zm9.967-.629q0-.082.007-.294t.007-.444q0-.232.007-.431t.007-.28a2.419,2.419,0,0,1,.226-.321.743.743,0,0,1,.273-.219.489.489,0,0,1,.314-.021.676.676,0,0,1,.349.273v.287q-.014.068-.055.321t-.1.554q-.055.3-.1.554a2.4,2.4,0,0,0-.048.321,4.825,4.825,0,0,0,.055.649q.055.39.157.813a7.522,7.522,0,0,0,.26.848,3.8,3.8,0,0,0,.376.759,2.418,2.418,0,0,0,.485.554.951.951,0,0,0,.622.219,1.322,1.322,0,0,0,.772-.232,2.22,2.22,0,0,0,.581-.6,3.54,3.54,0,0,0,.4-.834,7.7,7.7,0,0,0,.253-.937,8.628,8.628,0,0,0,.137-.909q.041-.437.041-.766a3.871,3.871,0,0,0-.048-.622q-.048-.294-.116-.581t-.116-.567a3.365,3.365,0,0,1-.048-.567.394.394,0,0,1,.185-.369.8.8,0,0,1,.417-.109.643.643,0,0,1,.465.171,1.2,1.2,0,0,1,.28.431,2.236,2.236,0,0,1,.137.595,6.529,6.529,0,0,1,.034.663q0,.328-.014.622t-.014.472a9.211,9.211,0,0,1-.068,1.053,8.1,8.1,0,0,1-.239,1.21,9.965,9.965,0,0,1-.424,1.224,4.815,4.815,0,0,1-.615,1.073,3.05,3.05,0,0,1-.834.759,2,2,0,0,1-1.06.287,1.978,1.978,0,0,1-1.08-.294,2.614,2.614,0,0,1-.786-.779,5.049,5.049,0,0,1-.54-1.1,8.23,8.23,0,0,1-.335-1.23,11.561,11.561,0,0,1-.164-1.2Q17.514-5.154,17.514-5.578ZM24.541-3.8a6.289,6.289,0,0,1,.178-1.477A4.126,4.126,0,0,1,25.286-6.6,3.083,3.083,0,0,1,26.3-7.561a2.911,2.911,0,0,1,1.511-.369,2.024,2.024,0,0,1,.889.185,1.963,1.963,0,0,1,.643.485,2,2,0,0,1,.39.7,2.726,2.726,0,0,1,.13.841,3.044,3.044,0,0,1-.321,1.354,3.888,3.888,0,0,1-.861,1.155,3.627,3.627,0,0,1-1.237.752,2.654,2.654,0,0,1-1.422.116.878.878,0,0,0,.267.636,1.664,1.664,0,0,0,.608.362,3.088,3.088,0,0,0,.738.157q.383.034.684.034A3,3,0,0,0,28.9-1.2q.273-.055.547-.123T30-1.449A3.1,3.1,0,0,1,30.6-1.5a2.227,2.227,0,0,1,.246.014.8.8,0,0,1,.232.062.406.406,0,0,1,.178.15.446.446,0,0,1,.068.253.553.553,0,0,1-.191.431,1.718,1.718,0,0,1-.485.294A3.005,3.005,0,0,1,30-.116q-.355.062-.69.1T28.69.021q-.28.007-.417.007A4.185,4.185,0,0,1,26.7-.253a3.318,3.318,0,0,1-1.176-.779,3.348,3.348,0,0,1-.731-1.2A4.6,4.6,0,0,1,24.541-3.8Zm1.449-.889a1.42,1.42,0,0,0,.13.7q.13.219.636.219a1.948,1.948,0,0,0,.7-.13,2.182,2.182,0,0,0,.622-.362,1.767,1.767,0,0,0,.444-.547,1.456,1.456,0,0,0,.164-.684,2.745,2.745,0,0,0-.034-.424,1.124,1.124,0,0,0-.144-.4.934.934,0,0,0-.28-.3.775.775,0,0,0-.444-.116,1.518,1.518,0,0,0-.745.185,1.858,1.858,0,0,0-.567.479,2.18,2.18,0,0,0-.355.656A2.261,2.261,0,0,0,25.99-4.689Zm2.215-5.742L26.729-8.244a.363.363,0,0,1-.328.164.366.366,0,0,1-.253-.157.607.607,0,0,1-.1-.328.592.592,0,0,1,.144-.39.692.692,0,0,0,.089-.116q.048-.075.062-.1.137-.219.314-.492t.369-.513a5.143,5.143,0,0,1,.376-.424,1.027,1.027,0,0,1,.349-.246.275.275,0,0,1,.28.027A.634.634,0,0,1,28.205-10.432ZM38.473-2.775a3.262,3.262,0,0,1,.4-1.579,4.15,4.15,0,0,1,1.046-1.258,5.13,5.13,0,0,1,1.463-.827,4.718,4.718,0,0,1,1.647-.3,1.259,1.259,0,0,1,.827.3,2.646,2.646,0,0,1,.608.731,3.867,3.867,0,0,1,.376.909,3.247,3.247,0,0,1,.13.834A3.205,3.205,0,0,1,44.6-2.481a4.665,4.665,0,0,1-.957,1.271,4.961,4.961,0,0,1-1.326.9,3.489,3.489,0,0,1-1.477.342A2.459,2.459,0,0,1,39.73-.2a1.962,1.962,0,0,1-.725-.6,2.564,2.564,0,0,1-.4-.889A4.412,4.412,0,0,1,38.473-2.775Zm1.162.137a2.789,2.789,0,0,0,.062.622,1.1,1.1,0,0,0,.219.458,1,1,0,0,0,.417.294,1.759,1.759,0,0,0,.643.1,2.071,2.071,0,0,0,1.012-.28,3.689,3.689,0,0,0,.909-.711,3.7,3.7,0,0,0,.649-.95,2.355,2.355,0,0,0,.246-1.012,3.085,3.085,0,0,0-.041-.479,1.946,1.946,0,0,0-.137-.479,1,1,0,0,0-.273-.369.674.674,0,0,0-.451-.15,1.364,1.364,0,0,0-.581.164,4.925,4.925,0,0,0-.7.424,6.937,6.937,0,0,0-.711.588q-.349.328-.636.656a3.885,3.885,0,0,0-.458.629A1.072,1.072,0,0,0,39.635-2.639ZM45.5-5.045a2.756,2.756,0,0,1,.615-1.969A2.5,2.5,0,0,1,48-7.656a6.3,6.3,0,0,1,1.073.1,3.522,3.522,0,0,1,1.019.335,2.051,2.051,0,0,1,.759.663,1.879,1.879,0,0,1,.294,1.094,3.088,3.088,0,0,1-.321,1.388,5.875,5.875,0,0,1-.807,1.217,8.954,8.954,0,0,1-1.066,1.053q-.581.485-1.087.923a.816.816,0,0,0-.048.226q-.021.171-.021.226a1.8,1.8,0,0,0,.267.909q.267.458.581.93a9.976,9.976,0,0,1,.574.978,2.276,2.276,0,0,1,.26,1.053q0,.328-.137.39a1.687,1.687,0,0,1-.574.062,1.278,1.278,0,0,1-.54-.513,7.217,7.217,0,0,1-.533-.991q-.267-.588-.52-1.319T46.7-.431q-.226-.759-.424-1.5t-.349-1.374q-.15-.629-.267-1.087T45.5-5.045Zm1.162.123q0,.205.027.595a4.94,4.94,0,0,0,.116.772,2.127,2.127,0,0,0,.267.663.554.554,0,0,0,.492.28,1.534,1.534,0,0,0,.854-.287,3.2,3.2,0,0,0,.766-.725,4.3,4.3,0,0,0,.547-.937,2.351,2.351,0,0,0,.212-.909.822.822,0,0,0-.164-.54,1.16,1.16,0,0,0-.417-.314,1.793,1.793,0,0,0-.54-.15,4.633,4.633,0,0,0-.547-.034,1.619,1.619,0,0,0-1.2.417A1.58,1.58,0,0,0,46.662-4.922Zm5.865-.205q0-.082.007-.267t.014-.39q.007-.205.014-.4t.007-.273a1.169,1.169,0,0,1,.39-.355,2.7,2.7,0,0,1,.485-.219,9.375,9.375,0,0,0,.232,1.572q.191.834.41,1.675t.39,1.661a7.533,7.533,0,0,1,.171,1.531.55.55,0,0,1-.629.615.8.8,0,0,1-.643-.314,2.407,2.407,0,0,1-.417-.8,7.25,7.25,0,0,1-.253-1.08,11.752,11.752,0,0,1-.13-1.169q-.034-.574-.041-1.053T52.527-5.127Zm.191-5.127a1.026,1.026,0,0,1,.438.355.663.663,0,0,1,.157.444q-.021.2-.308.273a1.886,1.886,0,0,1-.957-.157,1.364,1.364,0,0,1,.144-.643A.54.54,0,0,1,52.719-10.254ZM55.18-4.607a.653.653,0,0,1,.178-.513.856.856,0,0,1,.574-.157h.137q.041.219.1.506a3.805,3.805,0,0,0,.164.588,3.261,3.261,0,0,0,.26.554,1.263,1.263,0,0,0,.369.4,2.153,2.153,0,0,1,.239-.923,3.28,3.28,0,0,1,.561-.793A3.491,3.491,0,0,1,58.5-5.53a2.606,2.606,0,0,1,.8-.321h.3a2.055,2.055,0,0,1,1.121.294,2.526,2.526,0,0,1,.772.766,3.762,3.762,0,0,1,.472,1.073A10.045,10.045,0,0,1,62.214-2.5a11.341,11.341,0,0,1,.109,1.2q.021.581.021.991h-1q-.082-.82-.205-1.572-.041-.3-.109-.636t-.15-.629q-.082-.294-.178-.547a2,2,0,0,0-.219-.431q-.055-.055-.144-.15t-.185-.191q-.1-.1-.178-.164a.366.366,0,0,0-.1-.068.727.727,0,0,0-.711.157,2.436,2.436,0,0,0-.533.718,4.75,4.75,0,0,0-.376,1.025q-.144.574-.239,1.1t-.137.916q-.041.39-.055.472a.691.691,0,0,1-.643.144,1.284,1.284,0,0,1-.567-.431,3.475,3.475,0,0,1-.479-.82q-.212-.492-.39-1.046t-.321-1.114Q55.289-4.129,55.18-4.607ZM68.975-1.764q-.52.355-.9.636a5.957,5.957,0,0,1-.731.472,3.1,3.1,0,0,1-.759.287,4.369,4.369,0,0,1-.991.1A2.427,2.427,0,0,1,63.711-.95,2.909,2.909,0,0,1,63.1-2.967a4.555,4.555,0,0,1,.137-1.08,5.656,5.656,0,0,1,.4-1.114,6.531,6.531,0,0,1,.636-1.053,4.949,4.949,0,0,1,.834-.882A4.09,4.09,0,0,1,66.1-7.7a2.8,2.8,0,0,1,1.114-.226,3.239,3.239,0,0,1,1.545.485,2.493,2.493,0,0,1,.848,1A4.781,4.781,0,0,1,70-5.093q.109.745.171,1.538t.157,1.586a5.018,5.018,0,0,0,.4,1.463A2.376,2.376,0,0,1,70.39.13a.241.241,0,0,1-.349.062,1.671,1.671,0,0,1-.444-.6Q69.344-.889,68.975-1.764ZM64.258-2.939A1.8,1.8,0,0,0,64.552-1.8a1.283,1.283,0,0,0,1.046.362,2.95,2.95,0,0,0,1.073-.2,2.832,2.832,0,0,0,.9-.547,2.658,2.658,0,0,0,.615-.841,2.529,2.529,0,0,0,.232-1.094q0-.246.014-.69a4.753,4.753,0,0,0-.055-.882,2.1,2.1,0,0,0-.26-.759.626.626,0,0,0-.574-.321,2.5,2.5,0,0,0-1.312.362,3.787,3.787,0,0,0-1.039.923A4.494,4.494,0,0,0,64.5-4.245,3.813,3.813,0,0,0,64.258-2.939ZM74.211-.615q.219-.15.526-.39t.622-.513a7.008,7.008,0,0,0,.588-.574,3.222,3.222,0,0,0,.431-.581,1.084,1.084,0,0,0,.157-.526.482.482,0,0,0-.246-.41q-.437,0-.957.034t-1.039.027a6.539,6.539,0,0,1-1-.089,2.612,2.612,0,0,1-.868-.3,1.6,1.6,0,0,1-.608-.622,2.1,2.1,0,0,1-.226-1.032,3.089,3.089,0,0,1,.28-1.333,3.651,3.651,0,0,1,.745-1.053,5.555,5.555,0,0,1,1.046-.807,9.111,9.111,0,0,1,1.169-.595,1.745,1.745,0,0,1,.656.342A2.941,2.941,0,0,1,76-8.49a.807.807,0,0,1-.376.465,3.5,3.5,0,0,1-.643.287l-.759.26a2.868,2.868,0,0,0-.718.362,1.917,1.917,0,0,0-.54.588,1.822,1.822,0,0,0-.219.95.843.843,0,0,0,.219.643,1.175,1.175,0,0,0,.574.28,3.209,3.209,0,0,0,.807.055q.451-.021.923-.062t.923-.048A2.469,2.469,0,0,1,77-4.6a1.188,1.188,0,0,1,.567.376,1.189,1.189,0,0,1,.212.766,1.529,1.529,0,0,1-.144.561,5.436,5.436,0,0,1-.383.731,6.474,6.474,0,0,1-.561.772,6.435,6.435,0,0,1-.67.69,4.2,4.2,0,0,1-.7.506,1.327,1.327,0,0,1-.649.2A.366.366,0,0,1,74.3-.205,1.024,1.024,0,0,1,74.211-.615Zm10.117-1a2.542,2.542,0,0,1,.4-1.408,4.318,4.318,0,0,1,.984-1.073,6.7,6.7,0,0,1,1.271-.779q.684-.321,1.271-.533t.984-.342q.4-.13.4-.212a9.009,9.009,0,0,0-.048-.937q-.048-.458-.1-.923t-.1-.923a8.745,8.745,0,0,1-.048-.909v-.889q.561-.205.8.041t.075.848q.055.3.15.943t.212,1.449q.116.807.246,1.7t.246,1.7q.116.813.2,1.449t.123.95a2.554,2.554,0,0,1,.027.267q.014.2.021.424t.014.417q.007.191.007.273a3.9,3.9,0,0,1-.7-.041.293.293,0,0,1-.232-.164,1.024,1.024,0,0,1-.048-.355,2.19,2.19,0,0,0-.137-.643,8.216,8.216,0,0,1-.957.656,5.317,5.317,0,0,1-.9.417,4.631,4.631,0,0,1-.909.219,7.351,7.351,0,0,1-.978.062,4.58,4.58,0,0,1-.841-.075,2.111,2.111,0,0,1-.718-.267,1.455,1.455,0,0,1-.506-.52A1.607,1.607,0,0,1,84.328-1.613ZM85.518-1.9a.607.607,0,0,0,.1.355.859.859,0,0,0,.246.232.936.936,0,0,0,.321.13,1.705,1.705,0,0,0,.335.034,3.276,3.276,0,0,0,1.032-.185,3.88,3.88,0,0,0,1.025-.52,3.021,3.021,0,0,0,.779-.8,1.8,1.8,0,0,0,.308-1.012.877.877,0,0,0-.15-.588.771.771,0,0,0-.574-.164,3.123,3.123,0,0,0-1.019.205,5.54,5.54,0,0,0-1.121.547,3.687,3.687,0,0,0-.909.8A1.515,1.515,0,0,0,85.518-1.9Zm6.74-1.9a6.289,6.289,0,0,1,.178-1.477A4.126,4.126,0,0,1,93-6.6a3.083,3.083,0,0,1,1.012-.957,2.911,2.911,0,0,1,1.511-.369,2.024,2.024,0,0,1,.889.185,1.963,1.963,0,0,1,.643.485,2,2,0,0,1,.39.7,2.726,2.726,0,0,1,.13.841,3.044,3.044,0,0,1-.321,1.354,3.888,3.888,0,0,1-.861,1.155,3.627,3.627,0,0,1-1.237.752,2.654,2.654,0,0,1-1.422.116A.878.878,0,0,0,94-1.7a1.664,1.664,0,0,0,.608.362,3.088,3.088,0,0,0,.738.157q.383.034.684.034a3,3,0,0,0,.588-.055q.273-.055.547-.123t.554-.123a3.1,3.1,0,0,1,.595-.055,2.227,2.227,0,0,1,.246.014.8.8,0,0,1,.232.062.406.406,0,0,1,.178.15.446.446,0,0,1,.068.253.553.553,0,0,1-.191.431,1.718,1.718,0,0,1-.485.294,3.005,3.005,0,0,1-.649.185q-.355.062-.69.1t-.615.041q-.28.007-.417.007a4.185,4.185,0,0,1-1.572-.28,3.318,3.318,0,0,1-1.176-.779,3.348,3.348,0,0,1-.731-1.2A4.6,4.6,0,0,1,92.258-3.8Zm1.449-.889a1.42,1.42,0,0,0,.13.7q.13.219.636.219a1.948,1.948,0,0,0,.7-.13,2.182,2.182,0,0,0,.622-.362,1.767,1.767,0,0,0,.444-.547A1.456,1.456,0,0,0,96.4-5.5a2.745,2.745,0,0,0-.034-.424,1.124,1.124,0,0,0-.144-.4.934.934,0,0,0-.28-.3A.775.775,0,0,0,95.5-6.74a1.518,1.518,0,0,0-.745.185,1.858,1.858,0,0,0-.567.479,2.18,2.18,0,0,0-.355.656A2.261,2.261,0,0,0,93.707-4.689Z" transform="translate(678.014 10530.142)" fill="#12263f"/>
    <path id="Trazado_192259" data-name="Trazado 192259" d="M3.65-10.732q.615,0,.615.643a1.018,1.018,0,0,1-.376.533.594.594,0,0,1-.431.1A.679.679,0,0,1,3.1-9.666a.579.579,0,0,1-.171-.369.567.567,0,0,1,.15-.4A1.031,1.031,0,0,1,3.65-10.732Zm3.1,0q.615,0,.615.643a1.1,1.1,0,0,1-.383.533.586.586,0,0,1-.431.1.648.648,0,0,1-.362-.205.594.594,0,0,1-.164-.369.58.58,0,0,1,.144-.4A1.007,1.007,0,0,1,6.754-10.732ZM13.111-.889a.532.532,0,0,1,.219-.5,1.345,1.345,0,0,1,.554-.164q.335-.034.718-.041a2.18,2.18,0,0,0,.718-.13,1.206,1.206,0,0,0,.554-.41,1.466,1.466,0,0,0,.219-.889,18.74,18.74,0,0,0-.185-2.871,3.84,3.84,0,0,0-.738-1.846,2.772,2.772,0,0,0-1.531-.93,8.146,8.146,0,0,0-2.55-.123.463.463,0,0,1-.13-.1q-.089-.082-.185-.178T10.6-9.249q-.075-.089-.1-.13a.121.121,0,0,1-.014-.055.3.3,0,0,1-.014-.1.225.225,0,0,1,.014-.068.121.121,0,0,1,.014-.055,1,1,0,0,1,.116-.1,1.075,1.075,0,0,1,.178-.1l.178-.082a.31.31,0,0,1,.116-.034l.786-.041,1.2-.062,1.442-.075q.772-.041,1.545-.075t1.477-.048q.7-.014,1.265-.014a1.093,1.093,0,0,1-.164.649,1.075,1.075,0,0,1-.4.342,2.107,2.107,0,0,1-.52.171,3.314,3.314,0,0,0-.52.144.993.993,0,0,0-.4.273.789.789,0,0,0-.164.54,6.572,6.572,0,0,0,.144,1.381q.144.67.321,1.333t.321,1.333a6.442,6.442,0,0,1,.144,1.354,2.319,2.319,0,0,1-.273,1.121,2.954,2.954,0,0,1-.718.875,3.517,3.517,0,0,1-1,.581,3.062,3.062,0,0,1-1.1.212,2.712,2.712,0,0,1-.458-.041,1.287,1.287,0,0,1-.437-.157,1.113,1.113,0,0,1-.328-.287A.691.691,0,0,1,13.111-.889Zm12.332-.875q-.52.355-.9.636a5.957,5.957,0,0,1-.731.472,3.1,3.1,0,0,1-.759.287,4.369,4.369,0,0,1-.991.1A2.427,2.427,0,0,1,20.18-.95a2.909,2.909,0,0,1-.615-2.017,4.555,4.555,0,0,1,.137-1.08,5.656,5.656,0,0,1,.4-1.114,6.531,6.531,0,0,1,.636-1.053,4.949,4.949,0,0,1,.834-.882,4.09,4.09,0,0,1,.991-.608A2.8,2.8,0,0,1,23.68-7.93a3.239,3.239,0,0,1,1.545.485,2.493,2.493,0,0,1,.848,1,4.781,4.781,0,0,1,.4,1.354q.109.745.171,1.538T26.8-1.969a5.018,5.018,0,0,0,.4,1.463,2.376,2.376,0,0,1-.335.636.241.241,0,0,1-.349.062,1.671,1.671,0,0,1-.444-.6Q25.813-.889,25.443-1.764ZM20.727-2.939A1.8,1.8,0,0,0,21.021-1.8a1.283,1.283,0,0,0,1.046.362,2.95,2.95,0,0,0,1.073-.2,2.832,2.832,0,0,0,.9-.547,2.658,2.658,0,0,0,.615-.841,2.529,2.529,0,0,0,.232-1.094q0-.246.014-.69a4.753,4.753,0,0,0-.055-.882,2.1,2.1,0,0,0-.26-.759.626.626,0,0,0-.574-.321,2.5,2.5,0,0,0-1.312.362,3.787,3.787,0,0,0-1.039.923,4.494,4.494,0,0,0-.684,1.237A3.813,3.813,0,0,0,20.727-2.939Zm7.027-2.8a1.029,1.029,0,0,1,.116-.533q.116-.191.5-.191.041,0,.157.007l.144.007q.1.424.2.923t.239,1q.137.506.308,1a4.441,4.441,0,0,0,.417.889,1.539,1.539,0,0,0,.355-.615,4.95,4.95,0,0,0,.164-.718q.055-.362.1-.7a1.453,1.453,0,0,1,.2-.574.859.859,0,0,1,.444-.349,1.512,1.512,0,0,1,.813,0,1.725,1.725,0,0,1,.916.212,2.284,2.284,0,0,1,.595.533q.253.321.492.684a2.726,2.726,0,0,0,.608.649l.205-.444a5.009,5.009,0,0,1,.308-.561q.185-.294.4-.588a4.749,4.749,0,0,1,.444-.533,2.692,2.692,0,0,1,.479-.4.889.889,0,0,1,.479-.157,1.451,1.451,0,0,1,.971.349,3.145,3.145,0,0,1,.7.875,5.721,5.721,0,0,1,.485,1.176,12.071,12.071,0,0,1,.3,1.251q.109.6.157,1.1t.048.718a.408.408,0,0,1-.082.273.507.507,0,0,1-.205.144.991.991,0,0,1-.267.062q-.144.014-.267.014A.725.725,0,0,1,38.6-.239q-.055-.007-.123-.021L38.322-.3l-.889-4.088q0-.041-.109-.157a.734.734,0,0,0-.164-.144.152.152,0,0,1-.068-.014.1.1,0,0,1-.041-.007.061.061,0,0,0-.027-.007.788.788,0,0,0-.54.232,2.746,2.746,0,0,0-.472.588,6.431,6.431,0,0,0-.41.793q-.191.438-.342.868t-.267.793q-.116.362-.185.554a.792.792,0,0,1-.219.048q-.164.021-.219.021a.7.7,0,0,1-.588-.267,2.2,2.2,0,0,1-.335-.663,6.892,6.892,0,0,1-.219-.868,6.892,6.892,0,0,0-.219-.868,1.957,1.957,0,0,0-.355-.663.787.787,0,0,0-.636-.267q-.15,0-.287.3a4.246,4.246,0,0,0-.246.759q-.109.458-.205.984t-.157.984q-.062.458-.089.772L31.008-.3a.335.335,0,0,1-.109.089l-.171.1a.774.774,0,0,1-.178.082A.5.5,0,0,1,30.42,0a1.055,1.055,0,0,1-.738-.349,3.65,3.65,0,0,1-.649-.9A9.228,9.228,0,0,1,28.5-2.475q-.239-.67-.4-1.312t-.253-1.162A5.1,5.1,0,0,1,27.754-5.742Zm12.3,2.967a3.262,3.262,0,0,1,.4-1.579A4.15,4.15,0,0,1,41.5-5.612a5.13,5.13,0,0,1,1.463-.827,4.718,4.718,0,0,1,1.647-.3,1.259,1.259,0,0,1,.827.3,2.646,2.646,0,0,1,.608.731,3.867,3.867,0,0,1,.376.909,3.247,3.247,0,0,1,.13.834,3.205,3.205,0,0,1-.369,1.483,4.665,4.665,0,0,1-.957,1.271,4.961,4.961,0,0,1-1.326.9,3.489,3.489,0,0,1-1.477.342A2.459,2.459,0,0,1,41.316-.2a1.962,1.962,0,0,1-.725-.6,2.564,2.564,0,0,1-.4-.889A4.412,4.412,0,0,1,40.059-2.775Zm1.162.137a2.789,2.789,0,0,0,.062.622,1.1,1.1,0,0,0,.219.458,1,1,0,0,0,.417.294,1.759,1.759,0,0,0,.643.1,2.071,2.071,0,0,0,1.012-.28,3.689,3.689,0,0,0,.909-.711,3.7,3.7,0,0,0,.649-.95,2.355,2.355,0,0,0,.246-1.012,3.085,3.085,0,0,0-.041-.479,1.946,1.946,0,0,0-.137-.479,1,1,0,0,0-.273-.369.674.674,0,0,0-.451-.15,1.364,1.364,0,0,0-.581.164A4.925,4.925,0,0,0,43.2-5a6.937,6.937,0,0,0-.711.588q-.349.328-.636.656a3.885,3.885,0,0,0-.458.629A1.072,1.072,0,0,0,41.221-2.639ZM44.5-10.117,43.025-7.93a.363.363,0,0,1-.328.164.366.366,0,0,1-.253-.157.607.607,0,0,1-.1-.328.592.592,0,0,1,.144-.39.692.692,0,0,0,.089-.116q.048-.075.062-.1.137-.219.314-.492t.369-.513a5.144,5.144,0,0,1,.376-.424,1.027,1.027,0,0,1,.349-.246.275.275,0,0,1,.28.027A.634.634,0,0,1,44.5-10.117Zm2.584,5.51a.653.653,0,0,1,.178-.513.856.856,0,0,1,.574-.157h.137q.041.219.1.506a3.805,3.805,0,0,0,.164.588,3.261,3.261,0,0,0,.26.554,1.263,1.263,0,0,0,.369.4,2.153,2.153,0,0,1,.239-.923,3.28,3.28,0,0,1,.561-.793A3.491,3.491,0,0,1,50.4-5.53a2.606,2.606,0,0,1,.8-.321h.3a2.055,2.055,0,0,1,1.121.294,2.526,2.526,0,0,1,.772.766,3.762,3.762,0,0,1,.472,1.073A10.045,10.045,0,0,1,54.12-2.5a11.341,11.341,0,0,1,.109,1.2q.021.581.021.991h-1q-.082-.82-.205-1.572-.041-.3-.109-.636t-.15-.629q-.082-.294-.178-.547a2,2,0,0,0-.219-.431q-.055-.055-.144-.15t-.185-.191q-.1-.1-.178-.164a.366.366,0,0,0-.1-.068.727.727,0,0,0-.711.157,2.436,2.436,0,0,0-.533.718,4.75,4.75,0,0,0-.376,1.025q-.144.574-.239,1.1t-.137.916q-.041.39-.055.472a.691.691,0,0,1-.643.144,1.284,1.284,0,0,1-.567-.431,3.475,3.475,0,0,1-.479-.82q-.212-.492-.39-1.046t-.321-1.114Q47.2-4.129,47.086-4.607Zm13.945.492a3.222,3.222,0,0,1,.253-1.2,4.3,4.3,0,0,1,.677-1.142,3.963,3.963,0,0,1,.978-.854,2.19,2.19,0,0,1,1.169-.342,1.9,1.9,0,0,1,.629.109,1.867,1.867,0,0,1,.567.314,1.644,1.644,0,0,1,.41.492,1.315,1.315,0,0,1,.157.643,1.671,1.671,0,0,1-.444-.055,3.9,3.9,0,0,1-.39-.13q-.191-.075-.376-.13a1.415,1.415,0,0,0-.4-.055,1.407,1.407,0,0,0-.909.28,2.015,2.015,0,0,0-.554.7,3.2,3.2,0,0,0-.28.909,5.957,5.957,0,0,0-.075.909q0,.068.007.26t.014.4q.007.212.014.4a1.947,1.947,0,0,0,.021.26,2.434,2.434,0,0,0,.294.506,1.035,1.035,0,0,0,.308.267.952.952,0,0,0,.355.109,4.3,4.3,0,0,0,.451.021,1.631,1.631,0,0,0,.622-.109,3.04,3.04,0,0,0,.5-.26,3.475,3.475,0,0,0,.438-.335,4.428,4.428,0,0,1,.431-.342,2.3,2.3,0,0,1,.492-.26,1.686,1.686,0,0,1,.608-.1,2.814,2.814,0,0,1-.239,1.189,2.575,2.575,0,0,1-.67.889A3.049,3.049,0,0,1,65.071-.2a3.893,3.893,0,0,1-1.265.2,1.733,1.733,0,0,1-1.155-.437,3.993,3.993,0,0,1-.875-1.073,5.7,5.7,0,0,1-.554-1.347A4.912,4.912,0,0,1,61.031-4.115Zm6.727,1.34a3.262,3.262,0,0,1,.4-1.579A4.15,4.15,0,0,1,69.2-5.612a5.13,5.13,0,0,1,1.463-.827,4.718,4.718,0,0,1,1.647-.3,1.259,1.259,0,0,1,.827.3,2.646,2.646,0,0,1,.608.731,3.867,3.867,0,0,1,.376.909,3.247,3.247,0,0,1,.13.834,3.205,3.205,0,0,1-.369,1.483,4.665,4.665,0,0,1-.957,1.271,4.961,4.961,0,0,1-1.326.9,3.489,3.489,0,0,1-1.477.342A2.459,2.459,0,0,1,69.016-.2a1.962,1.962,0,0,1-.725-.6,2.564,2.564,0,0,1-.4-.889A4.412,4.412,0,0,1,67.758-2.775Zm1.162.137a2.789,2.789,0,0,0,.062.622,1.1,1.1,0,0,0,.219.458,1,1,0,0,0,.417.294,1.759,1.759,0,0,0,.643.1,2.071,2.071,0,0,0,1.012-.28,3.689,3.689,0,0,0,.909-.711,3.7,3.7,0,0,0,.649-.95,2.355,2.355,0,0,0,.246-1.012,3.085,3.085,0,0,0-.041-.479,1.946,1.946,0,0,0-.137-.479,1,1,0,0,0-.273-.369.674.674,0,0,0-.451-.15,1.364,1.364,0,0,0-.581.164A4.925,4.925,0,0,0,70.9-5a6.936,6.936,0,0,0-.711.588q-.349.328-.636.656a3.884,3.884,0,0,0-.458.629A1.072,1.072,0,0,0,68.92-2.639Zm5.865-1.969a.653.653,0,0,1,.178-.513.856.856,0,0,1,.574-.157h.137q.041.219.1.506a3.806,3.806,0,0,0,.164.588,3.261,3.261,0,0,0,.26.554,1.263,1.263,0,0,0,.369.4,2.153,2.153,0,0,1,.239-.923,3.28,3.28,0,0,1,.561-.793A3.491,3.491,0,0,1,78.1-5.53a2.606,2.606,0,0,1,.8-.321h.3a2.055,2.055,0,0,1,1.121.294,2.526,2.526,0,0,1,.772.766,3.762,3.762,0,0,1,.472,1.073A10.044,10.044,0,0,1,81.819-2.5a11.342,11.342,0,0,1,.109,1.2q.021.581.021.991h-1q-.082-.82-.205-1.572-.041-.3-.109-.636t-.15-.629q-.082-.294-.178-.547a2,2,0,0,0-.219-.431q-.055-.055-.144-.15t-.185-.191q-.1-.1-.178-.164a.366.366,0,0,0-.1-.068.727.727,0,0,0-.711.157,2.436,2.436,0,0,0-.533.718,4.75,4.75,0,0,0-.376,1.025q-.144.574-.239,1.1t-.137.916q-.041.39-.055.472a.691.691,0,0,1-.643.144,1.284,1.284,0,0,1-.567-.431,3.475,3.475,0,0,1-.479-.82q-.212-.492-.39-1.046t-.321-1.114Q74.895-4.129,74.785-4.607Z" transform="translate(687.51 10548.709)" fill="#12263f"/>
    <path id="Trazado_192260" data-name="Trazado 192260" d="M-.027-8.49q0-.068.007-.239t.007-.355q0-.185.007-.349T0-9.652a1.5,1.5,0,0,1,.567-.437.331.331,0,0,1,.362.075.913.913,0,0,1,.2.458,5.81,5.81,0,0,1,.089.711q.027.4.027.834t.014.813a6.383,6.383,0,0,0,.055.663.629.629,0,0,0,.15.383H6.152a.463.463,0,0,0,.41-.178.92.92,0,0,0,.144-.465,3.65,3.65,0,0,0-.021-.656Q6.645-7.82,6.61-8.21a7.25,7.25,0,0,1-.027-.766,1.849,1.849,0,0,1,.123-.663,1.045,1.045,0,0,1,.362-.465,1.232,1.232,0,0,1,.725-.178,1.3,1.3,0,0,1,.219.567,3.262,3.262,0,0,1,.021.636q-.021.328-.068.649a4.222,4.222,0,0,0-.048.622,12.781,12.781,0,0,0,.1,1.613q.1.807.219,1.613t.219,1.606a12.409,12.409,0,0,1,.1,1.579,3.459,3.459,0,0,1-.109,1.21q-.137.362-.342.328T7.649-.273A4.359,4.359,0,0,1,7.185-1.3,9.22,9.22,0,0,1,6.843-2.81a10.76,10.76,0,0,1-.1-1.88H1.8q.1.943.253,1.777T2.3-1.442A5.527,5.527,0,0,1,2.372-.431q-.021.376-.28.39a.923.923,0,0,1-.67-.267A2.23,2.23,0,0,1,.95-1.039,5.5,5.5,0,0,1,.629-2.126Q.506-2.748.424-3.438T.294-4.854Q.246-5.578.205-6.248T.109-7.5A9.863,9.863,0,0,0-.027-8.49ZM9.352-5.578q0-.082.007-.294t.007-.444q0-.232.007-.431t.007-.28A2.419,2.419,0,0,1,9.6-7.349a.743.743,0,0,1,.273-.219.489.489,0,0,1,.314-.021.676.676,0,0,1,.349.273v.287q-.014.068-.055.321t-.1.554q-.055.3-.1.554a2.4,2.4,0,0,0-.048.321,4.825,4.825,0,0,0,.055.649q.055.39.157.813a7.522,7.522,0,0,0,.26.848,3.8,3.8,0,0,0,.376.759,2.418,2.418,0,0,0,.485.554.951.951,0,0,0,.622.219,1.322,1.322,0,0,0,.772-.232,2.22,2.22,0,0,0,.581-.6,3.54,3.54,0,0,0,.4-.834,7.7,7.7,0,0,0,.253-.937,8.628,8.628,0,0,0,.137-.909q.041-.437.041-.766a3.871,3.871,0,0,0-.048-.622q-.048-.294-.116-.581T14.1-7.485a3.365,3.365,0,0,1-.048-.567.394.394,0,0,1,.185-.369.8.8,0,0,1,.417-.109.643.643,0,0,1,.465.171,1.2,1.2,0,0,1,.28.431,2.236,2.236,0,0,1,.137.595,6.529,6.529,0,0,1,.034.663q0,.328-.014.622t-.014.472a9.211,9.211,0,0,1-.068,1.053,8.1,8.1,0,0,1-.239,1.21,9.965,9.965,0,0,1-.424,1.224A4.815,4.815,0,0,1,14.2-1.019a3.05,3.05,0,0,1-.834.759A2,2,0,0,1,12.3.027a1.978,1.978,0,0,1-1.08-.294,2.614,2.614,0,0,1-.786-.779,5.049,5.049,0,0,1-.54-1.1,8.23,8.23,0,0,1-.335-1.23,11.561,11.561,0,0,1-.164-1.2Q9.352-5.154,9.352-5.578ZM16.379-3.8a6.289,6.289,0,0,1,.178-1.477A4.126,4.126,0,0,1,17.124-6.6a3.083,3.083,0,0,1,1.012-.957,2.911,2.911,0,0,1,1.511-.369,2.024,2.024,0,0,1,.889.185,1.963,1.963,0,0,1,.643.485,2,2,0,0,1,.39.7,2.726,2.726,0,0,1,.13.841,3.044,3.044,0,0,1-.321,1.354,3.888,3.888,0,0,1-.861,1.155,3.627,3.627,0,0,1-1.237.752,2.654,2.654,0,0,1-1.422.116.878.878,0,0,0,.267.636,1.664,1.664,0,0,0,.608.362,3.088,3.088,0,0,0,.738.157q.383.034.684.034A3,3,0,0,0,20.74-1.2q.273-.055.547-.123t.554-.123a3.1,3.1,0,0,1,.595-.055,2.227,2.227,0,0,1,.246.014.8.8,0,0,1,.232.062.406.406,0,0,1,.178.15.446.446,0,0,1,.068.253.553.553,0,0,1-.191.431,1.718,1.718,0,0,1-.485.294,3.005,3.005,0,0,1-.649.185q-.355.062-.69.1t-.615.041q-.28.007-.417.007a4.185,4.185,0,0,1-1.572-.28,3.318,3.318,0,0,1-1.176-.779,3.348,3.348,0,0,1-.731-1.2A4.6,4.6,0,0,1,16.379-3.8Zm1.449-.889a1.42,1.42,0,0,0,.13.7q.13.219.636.219a1.948,1.948,0,0,0,.7-.13,2.182,2.182,0,0,0,.622-.362,1.767,1.767,0,0,0,.444-.547,1.456,1.456,0,0,0,.164-.684,2.745,2.745,0,0,0-.034-.424,1.124,1.124,0,0,0-.144-.4.934.934,0,0,0-.28-.3.775.775,0,0,0-.444-.116,1.518,1.518,0,0,0-.745.185,1.858,1.858,0,0,0-.567.479,2.18,2.18,0,0,0-.355.656A2.261,2.261,0,0,0,17.828-4.689Zm6.1-2.434q.1-.328.226-.3t.321.314a7.321,7.321,0,0,1,.431.766q.239.479.513,1.032t.595,1.128a10.459,10.459,0,0,0,.67,1.053,4.149,4.149,0,0,0,.738.793,1.614,1.614,0,0,0,.8.369l1.094-5.66q.027-.232.212-.267a1.987,1.987,0,0,1,.362-.034q.615,0,.615.574,0,.3-.055.957T30.27-4.956q-.123.786-.3,1.613a11.765,11.765,0,0,1-.424,1.511,4.428,4.428,0,0,1-.567,1.121.892.892,0,0,1-.7.438,1.939,1.939,0,0,1-1.107-.376,4.847,4.847,0,0,1-1.032-.984,8.983,8.983,0,0,1-.889-1.36,13.559,13.559,0,0,1-.7-1.511,11.051,11.051,0,0,1-.458-1.456A5.254,5.254,0,0,1,23.926-7.123Zm7.4,4.348a3.262,3.262,0,0,1,.4-1.579,4.15,4.15,0,0,1,1.046-1.258,5.13,5.13,0,0,1,1.463-.827,4.718,4.718,0,0,1,1.647-.3,1.259,1.259,0,0,1,.827.3,2.646,2.646,0,0,1,.608.731,3.867,3.867,0,0,1,.376.909,3.247,3.247,0,0,1,.13.834,3.205,3.205,0,0,1-.369,1.483A4.665,4.665,0,0,1,36.49-1.21a4.961,4.961,0,0,1-1.326.9,3.489,3.489,0,0,1-1.477.342A2.459,2.459,0,0,1,32.58-.2a1.962,1.962,0,0,1-.725-.6,2.564,2.564,0,0,1-.4-.889A4.412,4.412,0,0,1,31.322-2.775Zm1.162.137a2.789,2.789,0,0,0,.062.622,1.1,1.1,0,0,0,.219.458,1,1,0,0,0,.417.294,1.759,1.759,0,0,0,.643.1,2.071,2.071,0,0,0,1.012-.28,3.689,3.689,0,0,0,.909-.711,3.7,3.7,0,0,0,.649-.95,2.355,2.355,0,0,0,.246-1.012,3.085,3.085,0,0,0-.041-.479,1.946,1.946,0,0,0-.137-.479,1,1,0,0,0-.273-.369.674.674,0,0,0-.451-.15,1.364,1.364,0,0,0-.581.164,4.925,4.925,0,0,0-.7.424,6.937,6.937,0,0,0-.711.588q-.349.328-.636.656a3.885,3.885,0,0,0-.458.629A1.072,1.072,0,0,0,32.484-2.639Zm8.49,2.023q.219-.15.526-.39t.622-.513a7.008,7.008,0,0,0,.588-.574,3.222,3.222,0,0,0,.431-.581A1.084,1.084,0,0,0,43.3-3.2a.482.482,0,0,0-.246-.41q-.438,0-.957.034t-1.039.027a6.539,6.539,0,0,1-1-.089,2.612,2.612,0,0,1-.868-.3,1.6,1.6,0,0,1-.608-.622,2.1,2.1,0,0,1-.226-1.032,3.089,3.089,0,0,1,.28-1.333,3.651,3.651,0,0,1,.745-1.053,5.555,5.555,0,0,1,1.046-.807,9.112,9.112,0,0,1,1.169-.595,1.745,1.745,0,0,1,.656.342,2.941,2.941,0,0,1,.52.547.807.807,0,0,1-.376.465,3.5,3.5,0,0,1-.643.287l-.759.26a2.868,2.868,0,0,0-.718.362,1.917,1.917,0,0,0-.54.588,1.822,1.822,0,0,0-.219.95.843.843,0,0,0,.219.643,1.174,1.174,0,0,0,.574.28,3.209,3.209,0,0,0,.807.055q.451-.021.923-.062t.923-.048a2.469,2.469,0,0,1,.807.109,1.188,1.188,0,0,1,.567.376,1.189,1.189,0,0,1,.212.766A1.529,1.529,0,0,1,44.4-2.9a5.436,5.436,0,0,1-.383.731,6.474,6.474,0,0,1-.561.772,6.435,6.435,0,0,1-.67.69,4.2,4.2,0,0,1-.7.506,1.327,1.327,0,0,1-.649.2.366.366,0,0,1-.376-.205A1.024,1.024,0,0,1,40.975-.615Zm7.492-10.117q.615,0,.615.643a1.018,1.018,0,0,1-.376.533.594.594,0,0,1-.431.1.679.679,0,0,1-.362-.205.579.579,0,0,1-.171-.369.567.567,0,0,1,.15-.4A1.031,1.031,0,0,1,48.467-10.732Zm3.1,0q.615,0,.615.643a1.1,1.1,0,0,1-.383.533.586.586,0,0,1-.431.1.648.648,0,0,1-.362-.205.594.594,0,0,1-.164-.369.58.58,0,0,1,.144-.4A1.007,1.007,0,0,1,51.57-10.732ZM57.955-.588a.736.736,0,0,1,.123-.369,2.14,2.14,0,0,1,.294-.383,1.907,1.907,0,0,1,.369-.3.718.718,0,0,1,.376-.123q.027,0,.144.116a2.447,2.447,0,0,1,.171.185q.027.041.075.13t.1.185a1.651,1.651,0,0,1,.075.171.469.469,0,0,1,.027.089.865.865,0,0,1-.068.39.373.373,0,0,1-.178.178.626.626,0,0,1-.253.048H58.9q-.055,0-.205.007a1.956,1.956,0,0,1-.321-.014.893.893,0,0,1-.294-.082A.229.229,0,0,1,57.955-.588Zm-.916-5.291a2.18,2.18,0,0,1,.2-.923q.2-.431.424-.841t.424-.841a2.18,2.18,0,0,0,.2-.923.6.6,0,0,0-.1-.335,1.109,1.109,0,0,0-.253-.273,1.232,1.232,0,0,0-.342-.185,1.1,1.1,0,0,0-.369-.068.92.92,0,0,0-.485.137,2.365,2.365,0,0,0-.417.321,4.887,4.887,0,0,0-.362.39,2.662,2.662,0,0,1-.335.342.455.455,0,0,1-.185.055,1.63,1.63,0,0,1-.2.027,3.232,3.232,0,0,1,.144-.984,2.163,2.163,0,0,1,.431-.779,1.967,1.967,0,0,1,.718-.513,2.46,2.46,0,0,1,.978-.185,1.942,1.942,0,0,1,.786.178,2.546,2.546,0,0,1,.718.472,2.7,2.7,0,0,1,.52.663,1.556,1.556,0,0,1,.205.766,2.911,2.911,0,0,1-.13.9,5.084,5.084,0,0,1-.308.752q-.178.349-.369.677a4.71,4.71,0,0,0-.328.684,2.589,2.589,0,0,0-.164.759,2.9,2.9,0,0,0,.109.923.335.335,0,0,1-.109.089q-.082.048-.171.089l-.178.082a.362.362,0,0,1-.13.041.7.7,0,0,1-.479-.157,1.126,1.126,0,0,1-.28-.383,1.559,1.559,0,0,1-.13-.485A4.488,4.488,0,0,1,57.039-5.879Z" transform="translate(699.744 10567.276)" fill="#12263f"/>
  </g>
</svg>
