<svg xmlns="http://www.w3.org/2000/svg" xmlns:xlink="http://www.w3.org/1999/xlink" width="399" height="399" viewBox="0 0 399 399">
  <defs>
    <clipPath id="clip-path">
      <rect id="Rectángulo_38249" data-name="Rectángulo 38249" width="399" height="399" rx="18.98" transform="translate(0.232 0.4)" fill="none"/>
    </clipPath>
  </defs>
  <g id="Grupo_94313" data-name="Grupo 94313" transform="translate(-1021 -10363.74)">
    <path id="Trazado_192261" data-name="Trazado 192261" d="M18.98,0H380.02A18.98,18.98,0,0,1,399,18.98V380.02A18.98,18.98,0,0,1,380.02,399H18.98A18.98,18.98,0,0,1,0,380.02V18.98A18.98,18.98,0,0,1,18.98,0Z" transform="translate(1021 10363.74)" fill="#ffecb1"/>
    <g id="Grupo_90921" data-name="Grupo 90921" transform="translate(1020.768 10363.34)" clip-path="url(#clip-path)">
      <g id="Grupo_90920" data-name="Grupo 90920" transform="translate(38.846 168.969)">
        <path id="Trazado_175343" data-name="Trazado 175343" d="M397.851,324.836a4.768,4.768,0,0,1-3.984-1.615c-1.132-1.625.338-3.365,1.654-4.294,1.567-1.083,3.539-.764,5.29-1.344a13.665,13.665,0,0,0,8.152-8.191,25.2,25.2,0,0,0,1.354-12.408c-.358-2.843-3.124-9.332-6.876-5.88-3.133,2.9.455,7.969,2.437,10.444,2.34,2.9,5.619,5.522,9.545,5.348,4.294-.184,7.737-3.143,10.386-6.315.783-.967,4.661-7.533,6-6.934,1.141.5-.213,4.091-.435,4.835a25.493,25.493,0,0,1-3.762,7.34c-2.737,3.675-7.137,6.857-11.847,7.176-5.406.358-10.106-1.934-13.877-5.715-3.617-3.656-7.031-8.849-6.77-14.206A10.763,10.763,0,0,1,405.394,283c5.174-.058,9.332,3.868,11.025,8.52,3.627,9.893.571,23.867-8.307,29.979a18.278,18.278,0,0,1-10.261,3.336Z" transform="translate(-51.802 -178.287)" fill="#ea8879"/>
        <path id="Trazado_175344" data-name="Trazado 175344" d="M263,396.1c29.844,35.569,29.3,81.07,23.413,114.772-.232.967-.629,4.168-.629,4.168l18.2,1.741a21.548,21.548,0,0,1,.435-4.245c4.332-34.65,18.848-69.958,21.16-104.212C319.467,408.14,269.054,396.226,263,396.1Z" transform="translate(-47.506 -182.012)" fill="#e0665a"/>
        <path id="Trazado_175345" data-name="Trazado 175345" d="M114.16,398.28c29.824,35.579,29.312,81.079,23.413,114.811-.222.967-.629,4.168-.629,4.168l18.2,1.741a21.14,21.14,0,0,1,.445-4.245c4.332-34.66,18.839-69.958,21.16-104.212C170.666,410.33,120.243,398.415,114.16,398.28Z" transform="translate(-42.605 -182.083)" fill="#e0665a"/>
        <path id="Trazado_175346" data-name="Trazado 175346" d="M109.808,248.076c6.673-3.1,13.539-6.325,18.568-11.682s7.9-13.452,5.087-20.25a18.838,18.838,0,0,0-6.769-8c-9.11-6.392-21.111-6.489-32.223-5.8s-20.8,2.514-29.312-.89c-10.145-4.071,3.926,18.616,10.493,26.73,4.381,5.406,8.829,10.889,14.506,14.9S103.01,249.546,109.808,248.076Z" transform="translate(-40.874 -175.586)" fill="#e0665a"/>
        <path id="Trazado_175347" data-name="Trazado 175347" d="M292.172,238.649c-22.939-8.191-72.414-17.543-94-19.883-16.247-1.76-32.784-2.611-48.837.426s-31.73,10.3-42.483,22.6c-8.1,9.284-12.785,20.541-15.019,32.581C81.08,285.639,64.814,285.32,54.118,299.11c-7.369,9.5-23.384,11.489,10.193,55.346-17.794,14.409-2.621,22.465,7.069,22.436s20.5,8.655,23.6,13.878c61.573,103.873,251.2,67.211,268.14,49.891s26.488-29.6,29.592-57.5C396.065,352.9,407.36,279.788,292.172,238.649Z" transform="translate(-40.288 -176.12)" fill="#ea8879"/>
        <path id="Trazado_175348" data-name="Trazado 175348" d="M61.465,292.393c-6.769,1.112-10.909,6.228-14.816,11.837s-7.514,11.6-6.209,18.374a13.539,13.539,0,0,0,3.162,6.9,14.806,14.806,0,0,0,6.286,3.539c8.23,2.688,17.1,2.466,25.743,2.215,4.4-.135,9.236-.435,12.379-3.51a13.539,13.539,0,0,0,3.365-6.886c1.857-8.462-3.743-15.56-9.584-21.962S69.985,291.039,61.465,292.393Z" transform="translate(-40.169 -178.59)" fill="#fcc0bb"/>
        <g id="Grupo_90918" data-name="Grupo 90918" transform="translate(44.039 76.112)">
          <path id="Trazado_175349" data-name="Trazado 175349" d="M174.789,265.985a7.978,7.978,0,0,0-3.723,2.717,12.871,12.871,0,0,0-2.021,5.28c-.58,2.834-.851,6.035.861,8.356,1.422,1.934,3.868,2.756,6.228,3.191,3.075.571,6.692.464,8.7-1.934,1.412-1.644,1.673-3.955,1.741-6.112a14.951,14.951,0,0,0-1.17-7.292A8.974,8.974,0,0,0,174.789,265.985Z" transform="translate(-88.437 -253.825)" fill="#fff"/>
          <path id="Trazado_175350" data-name="Trazado 175350" d="M179.149,272.938a3.124,3.124,0,0,0-1.837,1.151,4.836,4.836,0,0,0-.706,2.224,7.35,7.35,0,0,0,.135,3.278,4.11,4.11,0,0,0,5.735,2.36,5.9,5.9,0,0,0,1.731-5.928,4.526,4.526,0,0,0-5.058-3.085Z" transform="translate(-88.696 -254.066)"/>
          <path id="Trazado_175351" data-name="Trazado 175351" d="M93.534,253.981a10.144,10.144,0,0,0-4.719,3.423,16.44,16.44,0,0,0-2.543,6.682c-.735,3.568-1.083,7.621,1.093,10.56,1.789,2.427,4.893,3.481,7.862,4.033,3.868.725,8.462.58,11.025-2.418,1.779-2.07,2.108-4.99,2.2-7.737.106-3.143,0-6.412-1.47-9.207a11.334,11.334,0,0,0-13.442-5.338Z" transform="translate(-85.707 -253.426)" fill="#ea8879"/>
          <path id="Trazado_175352" data-name="Trazado 175352" d="M94.349,256.615a8.065,8.065,0,0,0-3.733,2.717,13,13,0,0,0-2.012,5.28c-.58,2.833-.861,6.035.861,8.355,1.422,1.934,3.868,2.756,6.228,3.191,3.066.571,6.692.464,8.7-1.934,1.4-1.644,1.673-3.955,1.741-6.112a15.067,15.067,0,0,0-1.17-7.292A8.974,8.974,0,0,0,94.349,256.615Z" transform="translate(-85.788 -253.516)" fill="#fff"/>
          <path id="Trazado_175353" data-name="Trazado 175353" d="M98.679,263.618a3.1,3.1,0,0,0-1.828,1.151,4.68,4.68,0,0,0-.706,2.224,7.2,7.2,0,0,0,.135,3.278,4.11,4.11,0,0,0,5.735,2.36,5.919,5.919,0,0,0,1.731-5.928,4.545,4.545,0,0,0-5.067-3.085Z" transform="translate(-86.047 -253.759)"/>
        </g>
        <path id="Trazado_175354" data-name="Trazado 175354" d="M83.3,323.279c-.967-5.261-3.926-9.883-6.857-14.342a9.748,9.748,0,0,0-2.756-3.124c-1.18-.754-4.207-1.934-3.868,0s3.675,14.322,7.978,20.26c.832,1.151,1.992,2.379,3.394,2.2a2.766,2.766,0,0,0,2.128-1.934A6.325,6.325,0,0,0,83.3,323.279Z" transform="translate(-41.144 -179.004)" fill="#e0665a"/>
        <path id="Trazado_175355" data-name="Trazado 175355" d="M58.529,308.71c.309-1.151.571-2.514-.213-3.414a2.485,2.485,0,0,0-2.746-.474,6.77,6.77,0,0,0-2.331,1.808,31.488,31.488,0,0,0-5.947,8.278c-1.412,3.1-4.39,9.177-1.112,9.97s6.644-3,8.549-6.064S57.562,312.2,58.529,308.71Z" transform="translate(-40.318 -178.999)" fill="#e0665a"/>
        <g id="Grupo_90919" data-name="Grupo 90919" transform="translate(199.083 57.974)">
          <path id="Trazado_175356" data-name="Trazado 175356" d="M303.965,308.008c3.772,2.1,8.3,4.236,12.707,4.178,2.234,0,2.3-1.934,1.547-4a12.137,12.137,0,0,0-3.414-5.174c-2.708-1.934-5.57-4.139-8.907-4.884-3.153-.629-6.576.716-6.77,3.462-.193,2.534,2.157,4.884,4.835,6.421C305.184,308.685,301.267,306.471,303.965,308.008Z" transform="translate(-247.778 -236.755)" fill="#fcad9a"/>
          <path id="Trazado_175357" data-name="Trazado 175357" d="M372.495,363.538c3.772,2.108,8.3,4.236,12.707,4.178,2.234,0,2.3-1.934,1.538-4a12.147,12.147,0,0,0-3.4-5.164c-2.708-1.934-5.57-4.149-8.907-4.893-3.153-.629-6.576.725-6.769,3.472-.193,2.534,2.157,4.835,4.835,6.412C373.714,364.215,369.8,362,372.495,363.538Z" transform="translate(-250.035 -238.583)" fill="#fcad9a"/>
          <path id="Trazado_175358" data-name="Trazado 175358" d="M306.13,287.3a7,7,0,0,0-1.422-3.6,13.094,13.094,0,0,0-3.114-3.037,15.036,15.036,0,0,0-2.824-1.6,8.606,8.606,0,0,0-3.066-.609,8.7,8.7,0,0,0-3.23.358c-.9.387-1.364,1.132-.793,2.6.967,2.6,10.067,8.878,12.988,8.3a2.118,2.118,0,0,0,1.46-2.418C306.052,286.041,306.188,288.362,306.13,287.3Z" transform="translate(-247.525 -236.111)" fill="#fcad9a"/>
          <path id="Trazado_175359" data-name="Trazado 175359" d="M292.5,292.489c-.6-1.576-2.36-2.5-3.984-3.143a9.091,9.091,0,0,0-4.507-.667,4.981,4.981,0,0,0-2.514,2.07,4.158,4.158,0,0,0-.667,3.665,3.182,3.182,0,0,0,.793,1.315,3.133,3.133,0,0,0,1.044.6,18.538,18.538,0,0,0,5.009,1.122,5.716,5.716,0,0,0,2.64-.522,3.627,3.627,0,0,0,2.186-4.439C291.9,290.922,293.174,294.287,292.5,292.489Z" transform="translate(-247.17 -236.447)" fill="#fcad9a"/>
          <path id="Trazado_175360" data-name="Trazado 175360" d="M366.553,288.888a4.3,4.3,0,0,0-1.837-1.634,13.946,13.946,0,0,0-7.166-1.654,5.522,5.522,0,0,0-2.959,1.731,3.317,3.317,0,0,0-.967,3.617,4.149,4.149,0,0,0,2.5,2.35c.967.4,2.118.406,3.133.754a7.2,7.2,0,0,0,6-.387A3.588,3.588,0,0,0,366.553,288.888Z" transform="translate(-249.567 -236.347)" fill="#fcad9a"/>
          <path id="Trazado_175361" data-name="Trazado 175361" d="M295.775,266.165c1.75-.919,1.7-3.172.232-4.835a9.138,9.138,0,0,0-2.833-2.147c-3.491-1.683-7.5-2.224-11.305-2.717-2.65-.4-5.706.106-7.011.967s-.909,2.176,2.9,3.607c4.6,1.441,9.129,4.139,13.771,5.242a6,6,0,0,0,4.226-.106C297.525,265.246,294.634,266.755,295.775,266.165Z" transform="translate(-246.957 -235.384)" fill="#fcad9a"/>
          <path id="Trazado_175362" data-name="Trazado 175362" d="M255.29,269.608a51.061,51.061,0,0,0,12.417,3.868c2.215.426,2.834-.8,2.592-2.456a9.516,9.516,0,0,0-2.543-4.835c-2.321-2.35-6.073-3.549-9.671-4.236a18.21,18.21,0,0,0-4.391-.29,4.623,4.623,0,0,0-3.259,1.538c-.851,1.17-.358,2.737.706,3.868a14.98,14.98,0,0,0,4.178,2.572C259.265,271.281,254.516,269.26,255.29,269.608Z" transform="translate(-246.161 -235.558)" fill="#fcad9a"/>
          <path id="Trazado_175363" data-name="Trazado 175363" d="M329.826,341.455a39.826,39.826,0,0,0,8.878,4.835c1.625.658,2.282-.193,2.34-1.489a7.3,7.3,0,0,0-1.219-4.081c-1.412-2.137-4.091-3.617-6.77-4.671a13.925,13.925,0,0,0-3.307-.87,3.578,3.578,0,0,0-2.708.677,2.36,2.36,0,0,0,0,3.037,11.46,11.46,0,0,0,2.795,2.582C332.6,343.321,329.285,341.078,329.826,341.455Z" transform="translate(-248.68 -237.979)" fill="#fcad9a"/>
          <path id="Trazado_175364" data-name="Trazado 175364" d="M330.923,271.381a29.167,29.167,0,0,0,11.1,4.507c1.934.28,2.282-.967,1.934-2.466a11.711,11.711,0,0,0-2.476-4.526,19.671,19.671,0,0,0-11.827-5.348,3.288,3.288,0,0,0-2.9.88c-.793.967-.455,2.553.474,3.868a12.94,12.94,0,0,0,3.665,3.133C334.453,273.654,329.53,270.511,330.923,271.381Z" transform="translate(-248.674 -235.619)" fill="#fcad9a"/>
          <path id="Trazado_175365" data-name="Trazado 175365" d="M259.849,234.892c-4.1-.387-8.7-.513-12.369,1.731-1.4.87-2.137,1.934-.571,2.669,4.042,1.837,9.187,2.012,13.491,2.959s9.168,3.037,13.462,2.756c3.443-.164,2.35-2.611,1.1-4.42a9.855,9.855,0,0,0-2.7-2.389c-3.685-2.35-8.162-2.9-12.417-3.307Z" transform="translate(-246.03 -234.67)" fill="#fcad9a"/>
          <path id="Trazado_175366" data-name="Trazado 175366" d="M304.755,317.15c-3.162-.619-8.268-1.557-11.324-.1a4.739,4.739,0,0,0-1.934,2.524c-.319,1.141,0,2.244,2.079,2.514,6.122.89,13.365,4.42,19.486,3.868,3.791-.232,1.8-3.53-.155-5.367-2.108-2.079-5.377-2.979-8.181-3.472C302.337,316.676,305.519,317.286,304.755,317.15Z" transform="translate(-247.524 -237.358)" fill="#fcad9a"/>
          <path id="Trazado_175367" data-name="Trazado 175367" d="M334.08,282.2c-2.2-.841-6.141-2.746-8.539-2.031-.967.29-4.11,3.52-.967,5.048,4.42,2.128,10.4,6.77,15.531,6.363,3.095-.358,1.335-3.646-.058-5.483a13.675,13.675,0,0,0-5.957-3.868C332.3,281.509,336.353,283.047,334.08,282.2Z" transform="translate(-248.572 -236.163)" fill="#fcad9a"/>
          <path id="Trazado_175368" data-name="Trazado 175368" d="M350.965,337.328c3.772,2.108,8.3,4.236,12.707,4.178,2.234,0,2.3-1.934,1.538-4a12.059,12.059,0,0,0-3.4-5.164c-2.708-1.934-5.57-4.149-8.907-4.893-3.153-.629-6.576.725-6.77,3.472-.193,2.534,2.157,4.835,4.835,6.412C352.184,338.005,348.267,335.791,350.965,337.328Z" transform="translate(-249.326 -237.72)" fill="#fcad9a"/>
          <path id="Trazado_175369" data-name="Trazado 175369" d="M353.13,316.628a7.031,7.031,0,0,0-1.422-3.607,13.094,13.094,0,0,0-3.114-3.037,15.938,15.938,0,0,0-2.834-1.6,8.3,8.3,0,0,0-3.056-.6,8.7,8.7,0,0,0-3.23.348c-.9.387-1.364,1.141-.793,2.6.967,2.6,10.067,8.878,12.988,8.307a2.128,2.128,0,0,0,1.46-2.418C353.052,315.361,353.188,317.663,353.13,316.628Z" transform="translate(-249.073 -237.077)" fill="#fcad9a"/>
          <path id="Trazado_175370" data-name="Trazado 175370" d="M339.5,321.868c-.6-1.586-2.36-2.5-3.984-3.143a8.974,8.974,0,0,0-4.507-.667,4.9,4.9,0,0,0-2.514,2.06,4.178,4.178,0,0,0-.667,3.675,3.075,3.075,0,0,0,.793,1.306,3.231,3.231,0,0,0,1.044.609,19.209,19.209,0,0,0,5.009,1.122,5.967,5.967,0,0,0,2.64-.522,3.636,3.636,0,0,0,2.186-4.439Z" transform="translate(-248.718 -237.414)" fill="#fcad9a"/>
          <path id="Trazado_175371" data-name="Trazado 175371" d="M359.553,356.888a4.362,4.362,0,0,0-1.837-1.634,13.946,13.946,0,0,0-7.166-1.654,5.493,5.493,0,0,0-2.959,1.731,3.317,3.317,0,0,0-.967,3.617,4.149,4.149,0,0,0,2.495,2.35c.967.4,2.108.406,3.133.754a7.2,7.2,0,0,0,6-.387,3.588,3.588,0,0,0,1.306-4.777C359.128,356.1,360.52,358.464,359.553,356.888Z" transform="translate(-249.336 -238.586)" fill="#fcad9a"/>
          <path id="Trazado_175372" data-name="Trazado 175372" d="M280.283,306.488a4.264,4.264,0,0,0-1.828-1.634,13.868,13.868,0,0,0-7.166-1.654,5.513,5.513,0,0,0-2.969,1.731,3.307,3.307,0,0,0-.967,3.617,4.13,4.13,0,0,0,2.5,2.35c.967.4,2.108.406,3.133.754a7.2,7.2,0,0,0,6-.387,3.6,3.6,0,0,0,1.277-4.777Z" transform="translate(-246.726 -236.927)" fill="#fcad9a"/>
          <path id="Trazado_175373" data-name="Trazado 175373" d="M383.344,339.732a29.273,29.273,0,0,0,11.121,4.536c1.934.28,2.282-.967,1.934-2.466a11.711,11.711,0,0,0-2.476-4.526,19.534,19.534,0,0,0-11.827-5.348,3.317,3.317,0,0,0-2.9.88c-.793.967-.445,2.553.474,3.868a13.211,13.211,0,0,0,3.675,3.056Z" transform="translate(-250.401 -237.871)" fill="#fcad9a"/>
          <path id="Trazado_175374" data-name="Trazado 175374" d="M381.08,311.516c-2.2-.841-6.141-2.746-8.539-2.031-.967.29-4.11,3.52-.967,5.048,4.42,2.128,10.4,6.77,15.531,6.373,3.095-.367,1.335-3.656-.058-5.493a13.848,13.848,0,0,0-5.957-3.868C379.3,310.829,383.352,312.376,381.08,311.516Z" transform="translate(-250.119 -237.129)" fill="#fcad9a"/>
          <path id="Trazado_175375" data-name="Trazado 175375" d="M270.611,285.725a2.669,2.669,0,0,0-1.112-2.234c-2.63-2.292-8.7-3.733-12.069-3.008-3.143.59-3.772,4.71-.338,4.468,3.791-.251,6.421,3.23,10.251,3.095,1.5-.048,3.133-.89,3.278-2.321C270.688,284.845,270.466,287.156,270.611,285.725Z" transform="translate(-246.318 -236.173)" fill="#fcad9a"/>
          <path id="Trazado_175376" data-name="Trazado 175376" d="M320.04,258.227a4.139,4.139,0,0,0-1.886-2.514A29.7,29.7,0,0,0,302.6,250.8c-1.992,0-3.085,1.131-3.114,2.244s1.015,2.234,3.317,2.456c5,.561,8.7,4.632,13.761,5,1.876.135,3.675-.735,3.472-2.273C319.915,257.3,320.292,259.765,320.04,258.227Z" transform="translate(-247.791 -235.202)" fill="#fcad9a"/>
        </g>
        <path id="Trazado_175377" data-name="Trazado 175377" d="M105.35,358.642a99.818,99.818,0,0,0,12.262,2.253,31.975,31.975,0,0,0,3.2.261c1.054.048,2.176.145,3.172.145,2.031,0,4.081.058,6.131,0a84.388,84.388,0,0,0,12.369-.9,44.641,44.641,0,0,0,11.808-3.443,29.569,29.569,0,0,0,2.688-1.412,23.472,23.472,0,0,0,2.534-1.615,32.658,32.658,0,0,0,4.41-3.733,33.762,33.762,0,0,0,6.218-8.549,35.617,35.617,0,0,0,3.153-8.617,29.263,29.263,0,0,0,0-13.152c-.2-.754-.377-1.422-.59-1.982a14.73,14.73,0,0,0-.658-1.383c-.4-.725-.725-1.064-.967-.967s-.4.532-.445,1.325v3.365a38.035,38.035,0,0,1-1.828,11.6,35.038,35.038,0,0,1-3.317,7.214,30.666,30.666,0,0,1-5.648,6.934,27.929,27.929,0,0,1-3.752,2.9,18.968,18.968,0,0,1-2.1,1.238c-.7.416-1.48.735-2.244,1.093a40.4,40.4,0,0,1-10.212,2.688,84.442,84.442,0,0,1-11.431.648c-1.934,0-3.955,0-5.977-.1-1.035,0-1.934-.1-2.9-.145a28.379,28.379,0,0,1-2.9-.242c-7.6-.822-15.27-3.356-23.21-4.6-1.934-.377-3.955-.532-5.9-.774-.967-.068-1.934-.106-2.9-.155a28.747,28.747,0,0,0-2.9-.068,55.391,55.391,0,0,0-5.58.251l-2.7.261a11.748,11.748,0,0,0-1.306.174l-1.286.222a94.527,94.527,0,0,0-9.477,2.06l-2.369.745c1.277,1.76,2.64,3.578,4.1,5.493,2.727-.609,5.638-1.373,8.771-1.77a61.893,61.893,0,0,1,20.425.29C97.739,356.8,101.433,357.733,105.35,358.642Z" transform="translate(-40.845 -179.359)" fill="#d3433c"/>
        <path id="Trazado_175378" data-name="Trazado 175378" d="M219.585,238.17c-7.359.309-14.922.58-21.856-1.876s-13.181-8.336-13.8-15.676A18.848,18.848,0,0,1,186.3,210.4c5.174-9.854,15.792-15.473,25.995-19.893s19.651-7.3,25.647-14.226c7.166-8.259,5.038,18.374,2.9,28.567-1.412,6.818-2.9,13.732-6.073,19.9S226.3,236.361,219.585,238.17Z" transform="translate(-44.902 -174.722)" fill="#ea8879"/>
        <path id="Trazado_175379" data-name="Trazado 175379" d="M194.99,229.465a14.777,14.777,0,0,1,1.731-10.4c2.988-5.483,8.181-9.448,13.742-12.35s11.46-4.913,17.088-7.572c.967-.455,2.118-.967,3.066-.435,1.18.638,1.2,2.282,1.035,3.607q-.6,4.922-1.567,9.777c-1.189,5.947-2.9,11.934-6.238,16.972s-8.7,9.042-14.777,9.526S196.489,235.345,194.99,229.465Z" transform="translate(-45.257 -175.504)" fill="#e0665a"/>
        <path id="Trazado_175380" data-name="Trazado 175380" d="M162.22,402.7c29.844,35.579,29.312,81.079,23.413,114.782-.222.967-.629,4.168-.629,4.168l18.2,1.731a21.024,21.024,0,0,1,.445-4.236c4.332-34.66,18.839-69.958,21.15-104.221C218.726,414.75,168.3,402.826,162.22,402.7Z" transform="translate(-44.188 -182.229)" fill="#ea8879"/>
        <path id="Trazado_175381" data-name="Trazado 175381" d="M311,400.331c29.834,35.579,29.3,81.079,23.413,114.782-.232.967-.638,4.168-.638,4.168l18.21,1.731a21.423,21.423,0,0,1,.435-4.236c4.333-34.66,27.465-87.443,29.786-121.7C376.152,394.9,317.112,400.457,311,400.331Z" transform="translate(-49.087 -181.978)" fill="#ea8879"/>
      </g>
    </g>
    <g id="Grupo_90922" data-name="Grupo 90922" transform="translate(1065.815 10389.038)">
      <path id="Trazado_175382" data-name="Trazado 175382" d="M46.61,79.7v-.01h0v.01Z" transform="translate(-46.582 -28.322)" fill="none"/>
      <path id="Trazado_175383" data-name="Trazado 175383" d="M46.61,78.078a40.772,40.772,0,0,0,4.652,18.664,41.284,41.284,0,0,0,13.065,14.332,72.666,72.666,0,0,0,17.823,8.791,133.564,133.564,0,0,0,19.477,5.029,270.86,270.86,0,0,0,40.269,4.081c6.769.232,13.539.348,20.308.309s13.471-.29,20.173-.89l1.76-.155.5,1.634,9.526,30.695,6.354-14.806,9.032-20.84.5-1.18,1.325-.3c7.466-1.721,14.912-3.481,22.243-5.532s14.506-4.371,20.947-7.737a36.845,36.845,0,0,0,8.646-6.035,25.2,25.2,0,0,0,5.744-8.278c2.621-6.238,3.153-13.539,2.9-20.531a40.173,40.173,0,0,0-1.789-10.2,32.659,32.659,0,0,0-4.632-9.178c-4.071-5.619-10.029-9.912-16.634-13.065a97.452,97.452,0,0,0-21.276-6.9,205.022,205.022,0,0,0-22.523-3.423c-15.193-1.528-30.55-2.012-45.907-2.108a455.374,455.374,0,0,0-45.975,1.615q-5.706.551-11.382,1.383c-3.772.542-7.533,1.189-11.257,2.012a88.835,88.835,0,0,0-21.459,7.253c-6.682,3.394-12.707,8.172-16.6,14.429a40.076,40.076,0,0,0-5.8,20.889h0Z" transform="translate(-46.582 -26.701)" fill="#fff"/>
      <path id="Trazado_175384" data-name="Trazado 175384" d="M277.149,74.972a45.686,45.686,0,0,0-2.05-11.431,38.171,38.171,0,0,0-5.377-10.551,41.236,41.236,0,0,0-8.433-8.481,56.863,56.863,0,0,0-10.251-6.073,103.012,103.012,0,0,0-22.455-7.089,211,211,0,0,0-23.113-3.288C190,26.676,174.524,26.473,159.05,26.609a436.154,436.154,0,0,0-46.294,2.543,181.378,181.378,0,0,0-22.833,4.023A90.9,90.9,0,0,0,68.262,41.25c-6.77,3.685-12.833,8.82-16.614,15.357a40.581,40.581,0,0,0-5.038,21.343h0a40.075,40.075,0,0,1,5.8-20.889c3.868-6.257,9.922-11.034,16.6-14.429A88.836,88.836,0,0,1,90.5,35.37c3.723-.822,7.485-1.47,11.257-2.012s7.582-1.015,11.382-1.383c15.251-1.451,30.617-1.673,45.975-1.615s30.714.58,45.907,2.108a205.02,205.02,0,0,1,22.523,3.423,97.452,97.452,0,0,1,21.276,6.9c6.605,3.153,12.572,7.446,16.634,13.065a32.658,32.658,0,0,1,4.632,9.178,40.171,40.171,0,0,1,1.789,10.2c.261,7.011-.271,14.293-2.9,20.531a25.2,25.2,0,0,1-5.744,8.278,36.845,36.845,0,0,1-8.646,6.035c-6.431,3.365-13.665,5.657-20.947,7.737s-14.748,3.81-22.243,5.532l-1.325.3-.5,1.18-9.032,20.84-6.373,14.777-9.535-30.763-.5-1.634-1.76.155c-6.7.6-13.413.9-20.173.89s-13.539-.077-20.309-.309a270.853,270.853,0,0,1-40.269-4.081,133.562,133.562,0,0,1-19.477-5.029,72.666,72.666,0,0,1-17.823-8.791A41.284,41.284,0,0,1,51.261,96.615a40.772,40.772,0,0,1-4.652-18.664h0a41.11,41.11,0,0,0,3.868,18.974A42.29,42.29,0,0,0,63.426,112.03a74.223,74.223,0,0,0,17.959,9.545,135.8,135.8,0,0,0,19.67,5.7,273.854,273.854,0,0,0,40.617,5c6.769.387,13.636.58,20.463.658,6.238.1,12.514-.077,18.761-.493l10.522,35.617,1.857,6.3,2.7-6.054,9.245-20.753,8.7-19.583c7.069-1.615,14.148-3.278,21.189-5.232,7.456-2.108,14.961-4.429,22.069-8.1a41.139,41.139,0,0,0,9.893-6.934,30.415,30.415,0,0,0,6.876-9.971A42.27,42.27,0,0,0,276.8,86.364l.271-2.9.135-2.834C277.246,78.8,277.285,76.9,277.149,74.972Z" transform="translate(-46.581 -26.573)" fill="#131313"/>
    </g>
    <g id="Grupo" transform="translate(1087.911 10402.235)">
      <path id="Trazado_192265" data-name="Trazado 192265" d="M1.6-8.889a.681.681,0,0,0,.349-.1.458.458,0,0,0,.219-.245.343.343,0,0,0-.089-.32A1.269,1.269,0,0,0,1.49-9.88a1.157,1.157,0,0,0-.526.169.408.408,0,0,0-.178.251A.362.362,0,0,0,.854-9.2a.9.9,0,0,0,.219.226.725.725,0,0,0,.28.126A.286.286,0,0,0,1.6-8.889ZM.574-.556q.369.314.574.138a1.192,1.192,0,0,0,.308-.665,6.434,6.434,0,0,0,.116-1.173q.014-.684.021-1.4T1.62-5.011a4.938,4.938,0,0,1,.116-1.017,1.7,1.7,0,0,0-.027-.326.53.53,0,0,0-.1-.226.414.414,0,0,0-.219-.132A1.457,1.457,0,0,0,1-6.755a.123.123,0,0,0-.082.038.506.506,0,0,0-.082.22,5.476,5.476,0,0,0-.082.565Q.711-5.551.677-4.86T.608-3.129Q.574-2.087.574-.556ZM9.762-.588q-.055-.219-.144-.629t-.191-.9q-.1-.492-.2-1.032T9.051-4.2q-.082-.513-.13-.943a6.634,6.634,0,0,1-.048-.7q0-.123.027-.424T8.982-6.9l.1-.615a2.449,2.449,0,0,1,.089-.4.514.514,0,0,1,.144-.014,1.877,1.877,0,0,0,.219-.014q.116-.014.219-.021T9.9-7.971a3.044,3.044,0,0,1,1.244.26,5.812,5.812,0,0,1,1.121.656,10.337,10.337,0,0,1,1.039.889q.506.492,1.019.957a10.974,10.974,0,0,0,1.046.841A4.138,4.138,0,0,0,16.5-3.8q0-.068.007-.212t.007-.308q0-.164.007-.308t.007-.212a12.713,12.713,0,0,0-.109-1.682q-.109-.82-.246-1.641T15.928-9.81a12.975,12.975,0,0,1-.109-1.7q.1,0,.239.007a1.688,1.688,0,0,1,.294.041.9.9,0,0,1,.273.109.366.366,0,0,1,.164.226,14.715,14.715,0,0,0,.246,1.976q.191.991.4,1.982t.362,1.982a12.508,12.508,0,0,1,.157,1.962q0,.178-.007.383a1.786,1.786,0,0,1-.055.39.73.73,0,0,1-.157.308.416.416,0,0,1-.328.123,2.742,2.742,0,0,1-1.312-.321,6.745,6.745,0,0,1-1.169-.8A13.243,13.243,0,0,1,13.815-4.2,13.243,13.243,0,0,0,12.708-5.25a6.922,6.922,0,0,0-1.176-.807,2.709,2.709,0,0,0-1.306-.328,9.568,9.568,0,0,0,.109,1.47q.109.7.239,1.4t.239,1.388a8.943,8.943,0,0,1,.109,1.4.363.363,0,0,1-.185.355.863.863,0,0,1-.4.1A1.574,1.574,0,0,1,10-.308Q9.844-.342,9.762-.588Zm8.764-2.187a3.262,3.262,0,0,1,.4-1.579,4.15,4.15,0,0,1,1.046-1.258,5.13,5.13,0,0,1,1.463-.827,4.718,4.718,0,0,1,1.647-.3,1.259,1.259,0,0,1,.827.3,2.646,2.646,0,0,1,.608.731,3.867,3.867,0,0,1,.376.909,3.247,3.247,0,0,1,.13.834,3.205,3.205,0,0,1-.369,1.483,4.665,4.665,0,0,1-.957,1.271,4.961,4.961,0,0,1-1.326.9,3.489,3.489,0,0,1-1.477.342A2.459,2.459,0,0,1,19.783-.2a1.962,1.962,0,0,1-.725-.6,2.564,2.564,0,0,1-.4-.889A4.412,4.412,0,0,1,18.525-2.775Zm1.162.137a2.789,2.789,0,0,0,.062.622,1.1,1.1,0,0,0,.219.458,1,1,0,0,0,.417.294,1.759,1.759,0,0,0,.643.1,2.071,2.071,0,0,0,1.012-.28,3.689,3.689,0,0,0,.909-.711A3.7,3.7,0,0,0,23.6-3.1a2.355,2.355,0,0,0,.246-1.012,3.085,3.085,0,0,0-.041-.479,1.946,1.946,0,0,0-.137-.479,1,1,0,0,0-.273-.369.674.674,0,0,0-.451-.15,1.364,1.364,0,0,0-.581.164,4.925,4.925,0,0,0-.7.424,6.937,6.937,0,0,0-.711.588q-.349.328-.636.656a3.885,3.885,0,0,0-.458.629A1.072,1.072,0,0,0,19.688-2.639Zm7.738.561a.446.446,0,0,1,.253.068.369.369,0,0,1,.144.171.87.87,0,0,1,.055.232,2.416,2.416,0,0,1,.014.253,4.42,4.42,0,0,1-.062.677,6.636,6.636,0,0,1-.185.813,6.673,6.673,0,0,1-.308.841,3.613,3.613,0,0,1-.431.738,2.2,2.2,0,0,1-.554.52,1.224,1.224,0,0,1-.677.2,5.686,5.686,0,0,1,.062-.738q.062-.451.178-.957t.28-1a7.766,7.766,0,0,1,.355-.9,2.908,2.908,0,0,1,.41-.656A.62.62,0,0,1,27.426-2.078ZM38.555,7.273a3.2,3.2,0,0,0,1.367-.28,2.988,2.988,0,0,0,1.019-.766,3.529,3.529,0,0,0,.643-1.107,3.761,3.761,0,0,0,.226-1.292q0-.342-.034-.9t-.1-1.217q-.068-.656-.2-1.34a11.388,11.388,0,0,0-.321-1.292,4.793,4.793,0,0,0-.472-1.066,1.7,1.7,0,0,0-.649-.649q-.355.273-.7.5a4.09,4.09,0,0,1-.711.376,4.819,4.819,0,0,1-.766.239,3.87,3.87,0,0,1-.848.089,4.007,4.007,0,0,1-1-.109,1.6,1.6,0,0,1-.7-.369,1.565,1.565,0,0,1-.417-.684,3.527,3.527,0,0,1-.137-1.066,1.926,1.926,0,0,1,.219-.882,3.346,3.346,0,0,1,.581-.807,5.3,5.3,0,0,1,.82-.69,7.031,7.031,0,0,1,.943-.547,5.339,5.339,0,0,1,.957-.355,3.374,3.374,0,0,1,.841-.123q.355,0,.588.021a1.013,1.013,0,0,1,.4.109.764.764,0,0,1,.28.273,2.49,2.49,0,0,1,.226.5q.314,1.066.725,2.3t.779,2.529q.369,1.3.622,2.618a13.537,13.537,0,0,1,.253,2.55,4.939,4.939,0,0,1-.308,1.853,3.586,3.586,0,0,1-.807,1.244,3.528,3.528,0,0,1-1.135.745A4.865,4.865,0,0,1,39.457,8a6.745,6.745,0,0,1-1.244.034,5.567,5.567,0,0,1-1.039-.157,2.282,2.282,0,0,1-.663-.267q-.226-.15-.109-.253a1.289,1.289,0,0,1,.622-.144A9.665,9.665,0,0,1,38.555,7.273ZM38.746-5.92a5.13,5.13,0,0,0-1.634.608,3.123,3.123,0,0,0-.93.834,1.748,1.748,0,0,0-.335.889,1.276,1.276,0,0,0,.164.759,1.176,1.176,0,0,0,.554.472,1.166,1.166,0,0,0,.827.014,2.733,2.733,0,0,0,.991-.622,5.744,5.744,0,0,0,1.06-1.422q0-.232.007-.506a1.914,1.914,0,0,0-.048-.5A.779.779,0,0,0,39.2-5.77.613.613,0,0,0,38.746-5.92Zm4.2.178A2.417,2.417,0,0,1,42.957-6a.869.869,0,0,1,.055-.232.4.4,0,0,1,.13-.171.407.407,0,0,1,.253-.068q.137,0,.308.212a3.734,3.734,0,0,1,.349.533q.178.321.349.7t.3.7q.13.321.212.554a1.822,1.822,0,0,0,.1.246q.178-.479.4-1.039a5.531,5.531,0,0,1,.54-1.046,3.186,3.186,0,0,1,.766-.813A1.779,1.779,0,0,1,47.8-6.74a1.875,1.875,0,0,1,.622.1,1.554,1.554,0,0,1,.52.3,1.536,1.536,0,0,1,.362.472,1.388,1.388,0,0,1,.137.629.437.437,0,0,1-.239.424,1.164,1.164,0,0,1-.54.123h-.137l-.588-.588a.056.056,0,0,1-.041-.014.151.151,0,0,1-.048-.007A.151.151,0,0,0,47.8-5.3a1.007,1.007,0,0,0-.745.267,1.715,1.715,0,0,0-.4.656,3.241,3.241,0,0,0-.171.82q-.034.431-.034.786a2.886,2.886,0,0,0,.055.554q.055.28.123.547t.123.547a3.028,3.028,0,0,1,.055.581q0,.574-.615.574a1.051,1.051,0,0,1-.711-.362,5.39,5.39,0,0,1-.731-.923,11.609,11.609,0,0,1-.69-1.237q-.328-.677-.574-1.319t-.39-1.162A3.237,3.237,0,0,1,42.943-5.742ZM55.809-1.764q-.52.355-.9.636a5.957,5.957,0,0,1-.731.472,3.1,3.1,0,0,1-.759.287,4.369,4.369,0,0,1-.991.1A2.427,2.427,0,0,1,50.545-.95a2.909,2.909,0,0,1-.615-2.017,4.555,4.555,0,0,1,.137-1.08,5.656,5.656,0,0,1,.4-1.114,6.531,6.531,0,0,1,.636-1.053,4.949,4.949,0,0,1,.834-.882,4.09,4.09,0,0,1,.991-.608,2.8,2.8,0,0,1,1.114-.226,3.239,3.239,0,0,1,1.545.485,2.493,2.493,0,0,1,.848,1,4.781,4.781,0,0,1,.4,1.354q.109.745.171,1.538t.157,1.586a5.018,5.018,0,0,0,.4,1.463,2.376,2.376,0,0,1-.335.636.241.241,0,0,1-.349.062,1.671,1.671,0,0,1-.444-.6Q56.178-.889,55.809-1.764ZM51.092-2.939A1.8,1.8,0,0,0,51.386-1.8a1.283,1.283,0,0,0,1.046.362,2.95,2.95,0,0,0,1.073-.2,2.832,2.832,0,0,0,.9-.547,2.658,2.658,0,0,0,.615-.841,2.529,2.529,0,0,0,.232-1.094q0-.246.014-.69a4.753,4.753,0,0,0-.055-.882,2.1,2.1,0,0,0-.26-.759.626.626,0,0,0-.574-.321,2.5,2.5,0,0,0-1.312.362,3.787,3.787,0,0,0-1.039.923,4.493,4.493,0,0,0-.684,1.237A3.813,3.813,0,0,0,51.092-2.939Zm7.055-1.176a3.222,3.222,0,0,1,.253-1.2,4.3,4.3,0,0,1,.677-1.142,3.963,3.963,0,0,1,.978-.854,2.19,2.19,0,0,1,1.169-.342,1.9,1.9,0,0,1,.629.109,1.867,1.867,0,0,1,.567.314,1.644,1.644,0,0,1,.41.492,1.316,1.316,0,0,1,.157.643,1.671,1.671,0,0,1-.444-.055,3.9,3.9,0,0,1-.39-.13q-.191-.075-.376-.13a1.415,1.415,0,0,0-.4-.055,1.407,1.407,0,0,0-.909.28,2.015,2.015,0,0,0-.554.7,3.2,3.2,0,0,0-.28.909,5.957,5.957,0,0,0-.075.909q0,.068.007.26t.014.4q.007.212.014.4a1.947,1.947,0,0,0,.021.26,2.434,2.434,0,0,0,.294.506,1.035,1.035,0,0,0,.308.267.952.952,0,0,0,.355.109,4.3,4.3,0,0,0,.451.021,1.631,1.631,0,0,0,.622-.109,3.04,3.04,0,0,0,.5-.26,3.474,3.474,0,0,0,.438-.335,4.428,4.428,0,0,1,.431-.342,2.3,2.3,0,0,1,.492-.26,1.686,1.686,0,0,1,.608-.1,2.814,2.814,0,0,1-.239,1.189,2.575,2.575,0,0,1-.67.889A3.049,3.049,0,0,1,62.187-.2a3.893,3.893,0,0,1-1.265.2,1.733,1.733,0,0,1-1.155-.437,3.993,3.993,0,0,1-.875-1.073,5.7,5.7,0,0,1-.554-1.347A4.912,4.912,0,0,1,58.146-4.115Zm7.3-1.012q0-.082.007-.267t.014-.39q.007-.205.014-.4t.007-.273a1.169,1.169,0,0,1,.39-.355,2.7,2.7,0,0,1,.485-.219A9.376,9.376,0,0,0,66.6-5.455q.191.834.41,1.675t.39,1.661a7.533,7.533,0,0,1,.171,1.531.55.55,0,0,1-.629.615.8.8,0,0,1-.643-.314,2.407,2.407,0,0,1-.417-.8,7.25,7.25,0,0,1-.253-1.08,11.752,11.752,0,0,1-.13-1.169q-.034-.574-.041-1.053T65.447-5.127Zm.191-5.127a1.026,1.026,0,0,1,.438.355.663.663,0,0,1,.157.444q-.021.2-.308.273a1.886,1.886,0,0,1-.957-.157,1.364,1.364,0,0,1,.144-.643A.54.54,0,0,1,65.639-10.254Zm8.34,8.49q-.52.355-.9.636a5.957,5.957,0,0,1-.731.472,3.1,3.1,0,0,1-.759.287,4.369,4.369,0,0,1-.991.1A2.427,2.427,0,0,1,68.715-.95,2.909,2.909,0,0,1,68.1-2.967a4.555,4.555,0,0,1,.137-1.08,5.656,5.656,0,0,1,.4-1.114,6.531,6.531,0,0,1,.636-1.053,4.949,4.949,0,0,1,.834-.882A4.09,4.09,0,0,1,71.1-7.7a2.8,2.8,0,0,1,1.114-.226,3.239,3.239,0,0,1,1.545.485,2.493,2.493,0,0,1,.848,1A4.781,4.781,0,0,1,75-5.093q.109.745.171,1.538t.157,1.586a5.018,5.018,0,0,0,.4,1.463,2.376,2.376,0,0,1-.335.636.241.241,0,0,1-.349.062,1.671,1.671,0,0,1-.444-.6Q74.348-.889,73.979-1.764ZM69.262-2.939A1.8,1.8,0,0,0,69.556-1.8a1.283,1.283,0,0,0,1.046.362,2.95,2.95,0,0,0,1.073-.2,2.832,2.832,0,0,0,.9-.547,2.658,2.658,0,0,0,.615-.841,2.529,2.529,0,0,0,.232-1.094q0-.246.014-.69a4.753,4.753,0,0,0-.055-.882,2.1,2.1,0,0,0-.26-.759.626.626,0,0,0-.574-.321,2.5,2.5,0,0,0-1.312.362,3.787,3.787,0,0,0-1.039.923,4.494,4.494,0,0,0-.684,1.237A3.813,3.813,0,0,0,69.262-2.939ZM79.215-.615q.219-.15.526-.39t.622-.513a7.008,7.008,0,0,0,.588-.574,3.222,3.222,0,0,0,.431-.581,1.084,1.084,0,0,0,.157-.526.482.482,0,0,0-.246-.41q-.437,0-.957.034T79.3-3.548a6.539,6.539,0,0,1-1-.089,2.612,2.612,0,0,1-.868-.3,1.6,1.6,0,0,1-.608-.622,2.1,2.1,0,0,1-.226-1.032,3.089,3.089,0,0,1,.28-1.333,3.651,3.651,0,0,1,.745-1.053,5.555,5.555,0,0,1,1.046-.807,9.111,9.111,0,0,1,1.169-.595,1.745,1.745,0,0,1,.656.342,2.941,2.941,0,0,1,.52.547.807.807,0,0,1-.376.465,3.5,3.5,0,0,1-.643.287l-.759.26a2.868,2.868,0,0,0-.718.362,1.917,1.917,0,0,0-.54.588,1.822,1.822,0,0,0-.219.95.843.843,0,0,0,.219.643,1.175,1.175,0,0,0,.574.28,3.209,3.209,0,0,0,.807.055q.451-.021.923-.062T81.2-4.71A2.469,2.469,0,0,1,82-4.6a1.188,1.188,0,0,1,.567.376,1.189,1.189,0,0,1,.212.766,1.529,1.529,0,0,1-.144.561,5.436,5.436,0,0,1-.383.731,6.474,6.474,0,0,1-.561.772,6.435,6.435,0,0,1-.67.69,4.2,4.2,0,0,1-.7.506,1.327,1.327,0,0,1-.649.2A.366.366,0,0,1,79.3-.205,1.024,1.024,0,0,1,79.215-.615Zm5.168-.574a.64.64,0,0,1,.349.109.488.488,0,0,1,.219.267.4.4,0,0,1-.089.349,1.249,1.249,0,0,1-.588.355,1.094,1.094,0,0,1-.526-.185.447.447,0,0,1-.178-.273.422.422,0,0,1,.068-.287.943.943,0,0,1,.219-.246.7.7,0,0,1,.28-.137A.267.267,0,0,1,84.383-1.189Zm-1.025-9.078q.369-.342.574-.15a1.348,1.348,0,0,1,.308.725,7.616,7.616,0,0,1,.116,1.278q.014.745.021,1.524T84.4-5.414a5.84,5.84,0,0,0,.116,1.107,2.014,2.014,0,0,1-.027.355.605.605,0,0,1-.1.246.411.411,0,0,1-.219.144,1.343,1.343,0,0,1-.4.048.118.118,0,0,1-.082-.041.581.581,0,0,1-.082-.239q-.041-.2-.082-.615T83.46-5.578q-.034-.752-.068-1.887T83.357-10.268ZM96.1-7.629a2.8,2.8,0,0,1-1.066-.492,6.212,6.212,0,0,1-1.019-.93,9.864,9.864,0,0,1-.916-1.217,11.022,11.022,0,0,1-.745-1.354,8.79,8.79,0,0,1-.492-1.326,4.362,4.362,0,0,1-.178-1.148q0-.068.007-.164a1.2,1.2,0,0,1,.027-.185.284.284,0,0,1,.089-.15.256.256,0,0,1,.178-.062.814.814,0,0,1,.588.239,2.447,2.447,0,0,1,.451.636,7.07,7.07,0,0,1,.383.9q.178.506.362,1.025t.39,1.025a5.559,5.559,0,0,0,.458.9,2.312,2.312,0,0,0,.581.636,1.243,1.243,0,0,0,.752.239.293.293,0,0,0,.075-.014.293.293,0,0,1,.075-.014,3.333,3.333,0,0,0,.69-.909,11.263,11.263,0,0,0,.567-1.224q.26-.656.506-1.354t.513-1.3a7.494,7.494,0,0,1,.561-1.053,1.662,1.662,0,0,1,.677-.629l.588.6q.109.109.034.444a6.784,6.784,0,0,1-.26.834q-.185.5-.458,1.107t-.574,1.265q-.3.656-.6,1.306T97.8-8.764q-.239.574-.39,1.025a2.414,2.414,0,0,0-.15.711A5.286,5.286,0,0,0,97.5-5.441q.239.766.513,1.524T98.52-2.4a5.269,5.269,0,0,1,.232,1.552v.28a1.054,1.054,0,0,1-.048.321.415.415,0,0,1-.178.232A.468.468,0,0,1,98.15,0a8.932,8.932,0,0,1-.889-1.675,16.567,16.567,0,0,1-.656-1.948,15,15,0,0,1-.4-2.044A12.734,12.734,0,0,1,96.1-7.629Zm4.375,4.854a3.262,3.262,0,0,1,.4-1.579,4.15,4.15,0,0,1,1.046-1.258,5.13,5.13,0,0,1,1.463-.827,4.718,4.718,0,0,1,1.647-.3,1.259,1.259,0,0,1,.827.3,2.646,2.646,0,0,1,.608.731,3.867,3.867,0,0,1,.376.909,3.247,3.247,0,0,1,.13.834,3.205,3.205,0,0,1-.369,1.483,4.665,4.665,0,0,1-.957,1.271,4.961,4.961,0,0,1-1.326.9,3.489,3.489,0,0,1-1.477.342A2.459,2.459,0,0,1,101.732-.2a1.962,1.962,0,0,1-.725-.6,2.564,2.564,0,0,1-.4-.889A4.412,4.412,0,0,1,100.475-2.775Zm1.162.137a2.789,2.789,0,0,0,.062.622,1.1,1.1,0,0,0,.219.458,1,1,0,0,0,.417.294,1.759,1.759,0,0,0,.643.1,2.071,2.071,0,0,0,1.012-.28,3.689,3.689,0,0,0,.909-.711,3.7,3.7,0,0,0,.649-.95,2.355,2.355,0,0,0,.246-1.012,3.085,3.085,0,0,0-.041-.479,1.946,1.946,0,0,0-.137-.479,1,1,0,0,0-.273-.369.674.674,0,0,0-.451-.15,1.364,1.364,0,0,0-.581.164,4.925,4.925,0,0,0-.7.424,6.936,6.936,0,0,0-.711.588q-.349.328-.636.656a3.884,3.884,0,0,0-.458.629A1.072,1.072,0,0,0,101.637-2.639ZM113.8-3.8a6.289,6.289,0,0,1,.178-1.477A4.126,4.126,0,0,1,114.55-6.6a3.083,3.083,0,0,1,1.012-.957,2.911,2.911,0,0,1,1.511-.369,2.024,2.024,0,0,1,.889.185,1.963,1.963,0,0,1,.643.485,2,2,0,0,1,.39.7,2.726,2.726,0,0,1,.13.841,3.044,3.044,0,0,1-.321,1.354,3.888,3.888,0,0,1-.861,1.155,3.627,3.627,0,0,1-1.237.752,2.654,2.654,0,0,1-1.422.116.878.878,0,0,0,.267.636,1.664,1.664,0,0,0,.608.362,3.088,3.088,0,0,0,.738.157q.383.034.684.034a3,3,0,0,0,.588-.055q.273-.055.547-.123t.554-.123a3.1,3.1,0,0,1,.595-.055,2.227,2.227,0,0,1,.246.014.8.8,0,0,1,.232.062.406.406,0,0,1,.178.15.446.446,0,0,1,.068.253.553.553,0,0,1-.191.431,1.718,1.718,0,0,1-.485.294,3.005,3.005,0,0,1-.649.185q-.355.062-.69.1t-.615.041q-.28.007-.417.007a4.185,4.185,0,0,1-1.572-.28,3.318,3.318,0,0,1-1.176-.779,3.348,3.348,0,0,1-.731-1.2A4.6,4.6,0,0,1,113.8-3.8Zm1.449-.889a1.42,1.42,0,0,0,.13.7q.13.219.636.219a1.948,1.948,0,0,0,.7-.13,2.182,2.182,0,0,0,.622-.362,1.767,1.767,0,0,0,.444-.547,1.456,1.456,0,0,0,.164-.684,2.745,2.745,0,0,0-.034-.424,1.124,1.124,0,0,0-.144-.4.934.934,0,0,0-.28-.3.775.775,0,0,0-.444-.116,1.518,1.518,0,0,0-.745.185,1.858,1.858,0,0,0-.567.479,2.18,2.18,0,0,0-.355.656A2.261,2.261,0,0,0,115.254-4.689Zm8.8,4.074q.219-.15.526-.39t.622-.513a7.008,7.008,0,0,0,.588-.574,3.222,3.222,0,0,0,.431-.581,1.084,1.084,0,0,0,.157-.526.482.482,0,0,0-.246-.41q-.437,0-.957.034t-1.039.027a6.539,6.539,0,0,1-1-.089,2.612,2.612,0,0,1-.868-.3,1.6,1.6,0,0,1-.608-.622,2.1,2.1,0,0,1-.226-1.032,3.089,3.089,0,0,1,.28-1.333,3.651,3.651,0,0,1,.745-1.053,5.555,5.555,0,0,1,1.046-.807,9.111,9.111,0,0,1,1.169-.595,1.745,1.745,0,0,1,.656.342,2.941,2.941,0,0,1,.52.547.807.807,0,0,1-.376.465,3.5,3.5,0,0,1-.643.287l-.759.26a2.868,2.868,0,0,0-.718.362,1.917,1.917,0,0,0-.54.588,1.822,1.822,0,0,0-.219.95.843.843,0,0,0,.219.643,1.175,1.175,0,0,0,.574.28,3.209,3.209,0,0,0,.807.055q.451-.021.923-.062t.923-.048a2.469,2.469,0,0,1,.807.109,1.188,1.188,0,0,1,.567.376,1.189,1.189,0,0,1,.212.766,1.529,1.529,0,0,1-.144.561,5.436,5.436,0,0,1-.383.731,6.474,6.474,0,0,1-.561.772,6.435,6.435,0,0,1-.67.69,4.2,4.2,0,0,1-.7.506,1.327,1.327,0,0,1-.649.2.366.366,0,0,1-.376-.205A1.024,1.024,0,0,1,124.059-.615Zm3.814-6.275a.152.152,0,0,1,.014-.068.225.225,0,0,1,.014-.068,2.323,2.323,0,0,1,.164-.178q.109-.109.137-.109h2.748a4.335,4.335,0,0,0-.041-.479q-.041-.328-.075-.725a7.037,7.037,0,0,1-.021-.827,3.111,3.111,0,0,1,.116-.779,1.322,1.322,0,0,1,.328-.574.86.86,0,0,1,.636-.226,10.276,10.276,0,0,0,.191,2.215,3.636,3.636,0,0,0,.513,1.285,1.5,1.5,0,0,0,.731.588,2.292,2.292,0,0,0,.841.116,3.99,3.99,0,0,0,.841-.13,5.664,5.664,0,0,1,.731-.15.854.854,0,0,1,.513.062q.191.1.191.485a.546.546,0,0,1-.13.41,1.025,1.025,0,0,1-.5.191l-.362.048q-.253.034-.567.062t-.67.062q-.355.034-.67.062t-.574.034q-.26.007-.383.007,0,.068-.014.232t-.014.219a3.633,3.633,0,0,0,.191,1.169q.191.567.417,1.128t.417,1.121a3.571,3.571,0,0,1,.191,1.162,1.3,1.3,0,0,1-.021.226.511.511,0,0,1-.082.205.389.389,0,0,1-.178.137A.474.474,0,0,1,133.178,0a1.2,1.2,0,0,1-.772-.588,3.623,3.623,0,0,1-.376-1.073,9.751,9.751,0,0,1-.164-1.319q-.041-.7-.13-1.306a3.986,3.986,0,0,0-.28-1.039.858.858,0,0,0-.615-.526l-2.639-.6q-.055,0-.164-.116a.89.89,0,0,1-.137-.171.152.152,0,0,1-.014-.068A.19.19,0,0,1,127.873-6.891Zm14.971,5.127q-.52.355-.9.636a5.957,5.957,0,0,1-.731.472,3.105,3.105,0,0,1-.759.287,4.369,4.369,0,0,1-.991.1A2.427,2.427,0,0,1,137.58-.95a2.909,2.909,0,0,1-.615-2.017,4.555,4.555,0,0,1,.137-1.08,5.655,5.655,0,0,1,.4-1.114,6.531,6.531,0,0,1,.636-1.053,4.949,4.949,0,0,1,.834-.882,4.09,4.09,0,0,1,.991-.608,2.8,2.8,0,0,1,1.114-.226,3.239,3.239,0,0,1,1.545.485,2.493,2.493,0,0,1,.848,1,4.781,4.781,0,0,1,.4,1.354q.109.745.171,1.538t.157,1.586a5.018,5.018,0,0,0,.4,1.463,2.376,2.376,0,0,1-.335.636.241.241,0,0,1-.349.062,1.671,1.671,0,0,1-.444-.6Q143.213-.889,142.844-1.764Zm-4.717-1.176a1.8,1.8,0,0,0,.294,1.142,1.283,1.283,0,0,0,1.046.362,2.95,2.95,0,0,0,1.073-.2,2.832,2.832,0,0,0,.9-.547,2.658,2.658,0,0,0,.615-.841,2.529,2.529,0,0,0,.232-1.094q0-.246.014-.69a4.753,4.753,0,0,0-.055-.882,2.1,2.1,0,0,0-.26-.759.626.626,0,0,0-.574-.321,2.5,2.5,0,0,0-1.312.362,3.787,3.787,0,0,0-1.039.923,4.493,4.493,0,0,0-.684,1.237A3.813,3.813,0,0,0,138.127-2.939Zm7.328-2.8A2.418,2.418,0,0,1,145.469-6a.869.869,0,0,1,.055-.232.4.4,0,0,1,.13-.171.407.407,0,0,1,.253-.068q.137,0,.308.212a3.734,3.734,0,0,1,.349.533q.178.321.349.7t.3.7q.13.321.212.554a1.822,1.822,0,0,0,.1.246q.178-.479.4-1.039a5.531,5.531,0,0,1,.54-1.046,3.186,3.186,0,0,1,.766-.813,1.779,1.779,0,0,1,1.087-.328,1.875,1.875,0,0,1,.622.1,1.554,1.554,0,0,1,.52.3,1.536,1.536,0,0,1,.362.472,1.388,1.388,0,0,1,.137.629.437.437,0,0,1-.239.424,1.164,1.164,0,0,1-.54.123h-.137l-.588-.588a.056.056,0,0,1-.041-.014.151.151,0,0,1-.048-.007.151.151,0,0,0-.048-.007,1.007,1.007,0,0,0-.745.267,1.715,1.715,0,0,0-.4.656,3.241,3.241,0,0,0-.171.82q-.034.431-.034.786a2.887,2.887,0,0,0,.055.554q.055.28.123.547t.123.547a3.028,3.028,0,0,1,.055.581q0,.574-.615.574a1.051,1.051,0,0,1-.711-.362,5.39,5.39,0,0,1-.731-.923,11.609,11.609,0,0,1-.69-1.237q-.328-.677-.574-1.319t-.39-1.162A3.237,3.237,0,0,1,145.455-5.742Zm7.561.615q0-.082.007-.267t.014-.39q.007-.205.014-.4t.007-.273a1.169,1.169,0,0,1,.39-.355,2.7,2.7,0,0,1,.485-.219,9.375,9.375,0,0,0,.232,1.572q.191.834.41,1.675t.39,1.661a7.533,7.533,0,0,1,.171,1.531.55.55,0,0,1-.629.615.8.8,0,0,1-.643-.314,2.407,2.407,0,0,1-.417-.8,7.25,7.25,0,0,1-.253-1.08,11.752,11.752,0,0,1-.13-1.169q-.034-.574-.041-1.053T153.016-5.127Zm1.969-4.99-1.49,2.188a.357.357,0,0,1-.321.164.361.361,0,0,1-.246-.157.607.607,0,0,1-.1-.328.626.626,0,0,1,.13-.39.692.692,0,0,0,.089-.116q.048-.075.062-.1.137-.219.314-.492t.369-.513a4.448,4.448,0,0,1,.383-.424,1.122,1.122,0,0,1,.349-.246.278.278,0,0,1,.28.027A.608.608,0,0,1,154.984-10.117Zm6.563,8.354q-.52.355-.9.636a5.957,5.957,0,0,1-.731.472,3.105,3.105,0,0,1-.759.287,4.369,4.369,0,0,1-.991.1,2.427,2.427,0,0,1-1.887-.677,2.909,2.909,0,0,1-.615-2.017,4.555,4.555,0,0,1,.137-1.08,5.655,5.655,0,0,1,.4-1.114,6.531,6.531,0,0,1,.636-1.053,4.949,4.949,0,0,1,.834-.882,4.09,4.09,0,0,1,.991-.608,2.8,2.8,0,0,1,1.114-.226,3.239,3.239,0,0,1,1.545.485,2.493,2.493,0,0,1,.848,1,4.781,4.781,0,0,1,.4,1.354q.109.745.171,1.538t.157,1.586a5.018,5.018,0,0,0,.4,1.463,2.376,2.376,0,0,1-.335.636.241.241,0,0,1-.349.062,1.671,1.671,0,0,1-.444-.6Q161.916-.889,161.547-1.764ZM156.83-2.939a1.8,1.8,0,0,0,.294,1.142,1.283,1.283,0,0,0,1.046.362,2.95,2.95,0,0,0,1.073-.2,2.832,2.832,0,0,0,.9-.547,2.658,2.658,0,0,0,.615-.841,2.529,2.529,0,0,0,.232-1.094q0-.246.014-.69a4.753,4.753,0,0,0-.055-.882,2.1,2.1,0,0,0-.26-.759.626.626,0,0,0-.574-.321,2.5,2.5,0,0,0-1.312.362,3.787,3.787,0,0,0-1.039.923,4.493,4.493,0,0,0-.684,1.237A3.813,3.813,0,0,0,156.83-2.939Z" transform="translate(0 20)" fill="#12263f"/>
      <path id="Trazado_192264" data-name="Trazado 192264" d="M0-4.115a3.222,3.222,0,0,1,.253-1.2A4.3,4.3,0,0,1,.93-6.46a3.963,3.963,0,0,1,.978-.854,2.19,2.19,0,0,1,1.169-.342,1.9,1.9,0,0,1,.629.109,1.867,1.867,0,0,1,.567.314,1.644,1.644,0,0,1,.41.492A1.316,1.316,0,0,1,4.84-6.1,1.671,1.671,0,0,1,4.4-6.152a3.9,3.9,0,0,1-.39-.13q-.191-.075-.376-.13a1.415,1.415,0,0,0-.4-.055,1.407,1.407,0,0,0-.909.28,2.015,2.015,0,0,0-.554.7,3.2,3.2,0,0,0-.28.909,5.957,5.957,0,0,0-.075.909q0,.068.007.26t.014.4q.007.212.014.4a1.947,1.947,0,0,0,.021.26,2.434,2.434,0,0,0,.294.506,1.035,1.035,0,0,0,.308.267.952.952,0,0,0,.355.109,4.3,4.3,0,0,0,.451.021,1.631,1.631,0,0,0,.622-.109,3.04,3.04,0,0,0,.5-.26A3.474,3.474,0,0,0,4.43-2.14a4.428,4.428,0,0,1,.431-.342,2.3,2.3,0,0,1,.492-.26,1.686,1.686,0,0,1,.608-.1,2.814,2.814,0,0,1-.239,1.189,2.575,2.575,0,0,1-.67.889A3.049,3.049,0,0,1,4.04-.2,3.893,3.893,0,0,1,2.775,0,1.733,1.733,0,0,1,1.62-.437,3.993,3.993,0,0,1,.745-1.511,5.7,5.7,0,0,1,.191-2.857,4.912,4.912,0,0,1,0-4.115Zm6.727,1.34a3.262,3.262,0,0,1,.4-1.579A4.15,4.15,0,0,1,8.169-5.612a5.13,5.13,0,0,1,1.463-.827,4.718,4.718,0,0,1,1.647-.3,1.259,1.259,0,0,1,.827.3,2.646,2.646,0,0,1,.608.731,3.867,3.867,0,0,1,.376.909,3.247,3.247,0,0,1,.13.834,3.205,3.205,0,0,1-.369,1.483,4.665,4.665,0,0,1-.957,1.271,4.961,4.961,0,0,1-1.326.9A3.489,3.489,0,0,1,9.092.027,2.459,2.459,0,0,1,7.984-.2,1.962,1.962,0,0,1,7.26-.8a2.564,2.564,0,0,1-.4-.889A4.412,4.412,0,0,1,6.727-2.775Zm1.162.137a2.789,2.789,0,0,0,.062.622,1.1,1.1,0,0,0,.219.458,1,1,0,0,0,.417.294,1.759,1.759,0,0,0,.643.1,2.071,2.071,0,0,0,1.012-.28,3.689,3.689,0,0,0,.909-.711A3.7,3.7,0,0,0,11.8-3.1a2.355,2.355,0,0,0,.246-1.012A3.085,3.085,0,0,0,12-4.594a1.946,1.946,0,0,0-.137-.479,1,1,0,0,0-.273-.369.674.674,0,0,0-.451-.15,1.364,1.364,0,0,0-.581.164,4.925,4.925,0,0,0-.7.424,6.937,6.937,0,0,0-.711.588q-.349.328-.636.656a3.885,3.885,0,0,0-.458.629A1.072,1.072,0,0,0,7.889-2.639Zm5.564-3.1a1.029,1.029,0,0,1,.116-.533q.116-.191.5-.191.041,0,.157.007l.144.007q.1.424.2.923t.239,1q.137.506.308,1a4.442,4.442,0,0,0,.417.889,1.539,1.539,0,0,0,.355-.615,4.95,4.95,0,0,0,.164-.718q.055-.362.1-.7a1.453,1.453,0,0,1,.2-.574.859.859,0,0,1,.444-.349,1.512,1.512,0,0,1,.813,0,1.725,1.725,0,0,1,.916.212,2.284,2.284,0,0,1,.595.533q.253.321.492.684a2.726,2.726,0,0,0,.608.649l.205-.444a5.009,5.009,0,0,1,.308-.561q.185-.294.4-.588a4.749,4.749,0,0,1,.444-.533,2.692,2.692,0,0,1,.479-.4.889.889,0,0,1,.479-.157,1.451,1.451,0,0,1,.971.349,3.145,3.145,0,0,1,.7.875,5.721,5.721,0,0,1,.485,1.176,12.072,12.072,0,0,1,.3,1.251q.109.6.157,1.1t.048.718a.408.408,0,0,1-.082.273.507.507,0,0,1-.205.144.991.991,0,0,1-.267.062q-.144.014-.267.014a.725.725,0,0,1-.082-.007q-.055-.007-.123-.021L24.021-.3l-.889-4.088q0-.041-.109-.157a.734.734,0,0,0-.164-.144.152.152,0,0,1-.068-.014.1.1,0,0,1-.041-.007.061.061,0,0,0-.027-.007.788.788,0,0,0-.54.232,2.746,2.746,0,0,0-.472.588,6.431,6.431,0,0,0-.41.793q-.191.438-.342.868t-.267.793q-.116.362-.185.554a.792.792,0,0,1-.219.048q-.164.021-.219.021a.7.7,0,0,1-.588-.267,2.2,2.2,0,0,1-.335-.663,6.892,6.892,0,0,1-.219-.868,6.892,6.892,0,0,0-.219-.868,1.956,1.956,0,0,0-.355-.663.787.787,0,0,0-.636-.267q-.15,0-.287.3a4.246,4.246,0,0,0-.246.759q-.109.458-.205.984t-.157.984q-.062.458-.089.772L16.707-.3a.335.335,0,0,1-.109.089l-.171.1a.774.774,0,0,1-.178.082.5.5,0,0,1-.13.027,1.055,1.055,0,0,1-.738-.349,3.65,3.65,0,0,1-.649-.9A9.228,9.228,0,0,1,14.2-2.475q-.239-.67-.4-1.312t-.253-1.162A5.1,5.1,0,0,1,13.453-5.742Zm12.3.7a2.756,2.756,0,0,1,.615-1.969,2.5,2.5,0,0,1,1.887-.643,6.3,6.3,0,0,1,1.073.1,3.522,3.522,0,0,1,1.019.335,2.051,2.051,0,0,1,.759.663A1.879,1.879,0,0,1,31.4-5.469a3.087,3.087,0,0,1-.321,1.388,5.875,5.875,0,0,1-.807,1.217A8.954,8.954,0,0,1,29.21-1.812q-.581.485-1.087.923a.816.816,0,0,0-.048.226q-.021.171-.021.226a1.8,1.8,0,0,0,.267.909q.267.458.581.93a9.977,9.977,0,0,1,.574.978,2.276,2.276,0,0,1,.26,1.053q0,.328-.137.39a1.687,1.687,0,0,1-.574.062,1.278,1.278,0,0,1-.54-.513,7.217,7.217,0,0,1-.533-.991q-.267-.588-.52-1.319t-.479-1.49q-.226-.759-.424-1.5t-.349-1.374q-.15-.629-.267-1.087T25.758-5.045Zm1.162.123q0,.205.027.595a4.94,4.94,0,0,0,.116.772,2.127,2.127,0,0,0,.267.663.554.554,0,0,0,.492.28,1.534,1.534,0,0,0,.854-.287,3.2,3.2,0,0,0,.766-.725,4.3,4.3,0,0,0,.547-.937,2.352,2.352,0,0,0,.212-.909.822.822,0,0,0-.164-.54,1.16,1.16,0,0,0-.417-.314,1.793,1.793,0,0,0-.54-.15,4.633,4.633,0,0,0-.547-.034,1.619,1.619,0,0,0-1.2.417A1.58,1.58,0,0,0,26.92-4.922Zm5.291-.82A2.417,2.417,0,0,1,32.225-6a.869.869,0,0,1,.055-.232.4.4,0,0,1,.13-.171.407.407,0,0,1,.253-.068q.137,0,.308.212a3.734,3.734,0,0,1,.349.533q.178.321.349.7t.3.7q.13.321.212.554a1.822,1.822,0,0,0,.1.246q.178-.479.4-1.039a5.531,5.531,0,0,1,.54-1.046,3.186,3.186,0,0,1,.766-.813,1.779,1.779,0,0,1,1.087-.328,1.875,1.875,0,0,1,.622.1,1.554,1.554,0,0,1,.52.3,1.536,1.536,0,0,1,.362.472,1.388,1.388,0,0,1,.137.629.437.437,0,0,1-.239.424,1.164,1.164,0,0,1-.54.123h-.137L37.2-5.277a.056.056,0,0,1-.041-.014.151.151,0,0,1-.048-.007.151.151,0,0,0-.048-.007,1.007,1.007,0,0,0-.745.267,1.715,1.715,0,0,0-.4.656,3.241,3.241,0,0,0-.171.82q-.034.431-.034.786a2.886,2.886,0,0,0,.055.554q.055.28.123.547t.123.547a3.028,3.028,0,0,1,.055.581q0,.574-.615.574a1.051,1.051,0,0,1-.711-.362,5.39,5.39,0,0,1-.731-.923,11.609,11.609,0,0,1-.69-1.237q-.328-.677-.574-1.319t-.39-1.162A3.237,3.237,0,0,1,32.211-5.742ZM39.2-2.775a3.262,3.262,0,0,1,.4-1.579A4.15,4.15,0,0,1,40.64-5.612,5.13,5.13,0,0,1,42.1-6.439a4.718,4.718,0,0,1,1.647-.3,1.259,1.259,0,0,1,.827.3,2.646,2.646,0,0,1,.608.731,3.867,3.867,0,0,1,.376.909,3.247,3.247,0,0,1,.13.834,3.205,3.205,0,0,1-.369,1.483,4.665,4.665,0,0,1-.957,1.271,4.961,4.961,0,0,1-1.326.9,3.489,3.489,0,0,1-1.477.342A2.459,2.459,0,0,1,40.455-.2a1.962,1.962,0,0,1-.725-.6,2.564,2.564,0,0,1-.4-.889A4.412,4.412,0,0,1,39.2-2.775Zm1.162.137a2.789,2.789,0,0,0,.062.622,1.1,1.1,0,0,0,.219.458,1,1,0,0,0,.417.294,1.759,1.759,0,0,0,.643.1,2.071,2.071,0,0,0,1.012-.28,3.689,3.689,0,0,0,.909-.711,3.7,3.7,0,0,0,.649-.95,2.355,2.355,0,0,0,.246-1.012,3.085,3.085,0,0,0-.041-.479,1.946,1.946,0,0,0-.137-.479,1,1,0,0,0-.273-.369.674.674,0,0,0-.451-.15,1.364,1.364,0,0,0-.581.164,4.925,4.925,0,0,0-.7.424,6.937,6.937,0,0,0-.711.588q-.349.328-.636.656a3.885,3.885,0,0,0-.458.629A1.072,1.072,0,0,0,40.359-2.639Zm5.564-3.1a1.029,1.029,0,0,1,.116-.533q.116-.191.5-.191.041,0,.157.007l.144.007q.1.424.2.923t.239,1q.137.506.308,1A4.442,4.442,0,0,0,48-2.639a1.539,1.539,0,0,0,.355-.615,4.95,4.95,0,0,0,.164-.718q.055-.362.1-.7a1.453,1.453,0,0,1,.2-.574.859.859,0,0,1,.444-.349,1.512,1.512,0,0,1,.813,0A1.725,1.725,0,0,1,51-5.38a2.284,2.284,0,0,1,.595.533q.253.321.492.684a2.726,2.726,0,0,0,.608.649l.205-.444a5.009,5.009,0,0,1,.308-.561q.185-.294.4-.588a4.749,4.749,0,0,1,.444-.533,2.692,2.692,0,0,1,.479-.4A.889.889,0,0,1,55-6.193a1.451,1.451,0,0,1,.971.349,3.145,3.145,0,0,1,.7.875,5.721,5.721,0,0,1,.485,1.176,12.071,12.071,0,0,1,.3,1.251q.109.6.157,1.1t.048.718a.408.408,0,0,1-.082.273.507.507,0,0,1-.205.144.991.991,0,0,1-.267.062q-.144.014-.267.014a.725.725,0,0,1-.082-.007q-.055-.007-.123-.021L56.492-.3,55.6-4.389q0-.041-.109-.157a.734.734,0,0,0-.164-.144.152.152,0,0,1-.068-.014.1.1,0,0,1-.041-.007.061.061,0,0,0-.027-.007.788.788,0,0,0-.54.232,2.746,2.746,0,0,0-.472.588,6.431,6.431,0,0,0-.41.793q-.191.438-.342.868t-.267.793q-.116.362-.185.554a.792.792,0,0,1-.219.048q-.164.021-.219.021a.7.7,0,0,1-.588-.267,2.2,2.2,0,0,1-.335-.663,6.892,6.892,0,0,1-.219-.868,6.892,6.892,0,0,0-.219-.868,1.957,1.957,0,0,0-.355-.663.787.787,0,0,0-.636-.267q-.15,0-.287.3a4.246,4.246,0,0,0-.246.759q-.109.458-.205.984t-.157.984q-.062.458-.089.772L49.178-.3a.335.335,0,0,1-.109.089l-.171.1a.774.774,0,0,1-.178.082A.5.5,0,0,1,48.59,0a1.055,1.055,0,0,1-.738-.349,3.65,3.65,0,0,1-.649-.9,9.228,9.228,0,0,1-.533-1.224q-.239-.67-.4-1.312t-.253-1.162A5.1,5.1,0,0,1,45.924-5.742ZM58.229-3.8a6.289,6.289,0,0,1,.178-1.477A4.126,4.126,0,0,1,58.974-6.6a3.083,3.083,0,0,1,1.012-.957A2.911,2.911,0,0,1,61.5-7.93a2.024,2.024,0,0,1,.889.185,1.963,1.963,0,0,1,.643.485,2,2,0,0,1,.39.7,2.726,2.726,0,0,1,.13.841,3.044,3.044,0,0,1-.321,1.354,3.888,3.888,0,0,1-.861,1.155,3.627,3.627,0,0,1-1.237.752,2.654,2.654,0,0,1-1.422.116.878.878,0,0,0,.267.636,1.664,1.664,0,0,0,.608.362,3.088,3.088,0,0,0,.738.157q.383.034.684.034A3,3,0,0,0,62.59-1.2q.273-.055.547-.123t.554-.123a3.1,3.1,0,0,1,.595-.055,2.227,2.227,0,0,1,.246.014.8.8,0,0,1,.232.062.406.406,0,0,1,.178.15.446.446,0,0,1,.068.253.553.553,0,0,1-.191.431,1.718,1.718,0,0,1-.485.294,3.005,3.005,0,0,1-.649.185q-.355.062-.69.1t-.615.041q-.28.007-.417.007a4.185,4.185,0,0,1-1.572-.28,3.318,3.318,0,0,1-1.176-.779,3.348,3.348,0,0,1-.731-1.2A4.6,4.6,0,0,1,58.229-3.8Zm1.449-.889a1.42,1.42,0,0,0,.13.7q.13.219.636.219a1.948,1.948,0,0,0,.7-.13,2.182,2.182,0,0,0,.622-.362,1.767,1.767,0,0,0,.444-.547,1.456,1.456,0,0,0,.164-.684,2.745,2.745,0,0,0-.034-.424,1.124,1.124,0,0,0-.144-.4.934.934,0,0,0-.28-.3.775.775,0,0,0-.444-.116,1.518,1.518,0,0,0-.745.185,1.858,1.858,0,0,0-.567.479,2.18,2.18,0,0,0-.355.656A2.261,2.261,0,0,0,59.678-4.689Zm5.879-2.2a.152.152,0,0,1,.014-.068.225.225,0,0,1,.014-.068,2.323,2.323,0,0,1,.164-.178q.109-.109.137-.109h2.748a4.335,4.335,0,0,0-.041-.479q-.041-.328-.075-.725a7.033,7.033,0,0,1-.021-.827,3.111,3.111,0,0,1,.116-.779,1.322,1.322,0,0,1,.328-.574.86.86,0,0,1,.636-.226,10.276,10.276,0,0,0,.191,2.215,3.635,3.635,0,0,0,.513,1.285,1.5,1.5,0,0,0,.731.588,2.292,2.292,0,0,0,.841.116,3.99,3.99,0,0,0,.841-.13A5.663,5.663,0,0,1,73.425-7a.854.854,0,0,1,.513.062q.191.1.191.485a.546.546,0,0,1-.13.41,1.025,1.025,0,0,1-.5.191l-.362.048q-.253.034-.567.062t-.67.062q-.355.034-.67.062t-.574.034q-.26.007-.383.007,0,.068-.014.232t-.014.219a3.633,3.633,0,0,0,.191,1.169q.191.567.417,1.128t.417,1.121a3.572,3.572,0,0,1,.191,1.162,1.3,1.3,0,0,1-.021.226.511.511,0,0,1-.082.205.389.389,0,0,1-.178.137A.474.474,0,0,1,70.861,0a1.2,1.2,0,0,1-.772-.588,3.623,3.623,0,0,1-.376-1.073,9.751,9.751,0,0,1-.164-1.319q-.041-.7-.13-1.306a3.986,3.986,0,0,0-.28-1.039.858.858,0,0,0-.615-.526l-2.639-.6q-.055,0-.164-.116a.89.89,0,0,1-.137-.171.152.152,0,0,1-.014-.068A.19.19,0,0,1,65.557-6.891Zm9.666,1.764q0-.082.007-.267t.014-.39q.007-.205.014-.4t.007-.273a1.169,1.169,0,0,1,.39-.355,2.7,2.7,0,0,1,.485-.219,9.376,9.376,0,0,0,.232,1.572q.191.834.41,1.675t.39,1.661a7.533,7.533,0,0,1,.171,1.531.55.55,0,0,1-.629.615.8.8,0,0,1-.643-.314,2.407,2.407,0,0,1-.417-.8,7.25,7.25,0,0,1-.253-1.08,11.752,11.752,0,0,1-.13-1.169q-.034-.574-.041-1.053T75.223-5.127Zm.191-5.127a1.026,1.026,0,0,1,.438.355.663.663,0,0,1,.157.444q-.021.2-.308.273a1.886,1.886,0,0,1-.957-.157,1.364,1.364,0,0,1,.144-.643A.54.54,0,0,1,75.414-10.254Zm2.16,8.641a2.542,2.542,0,0,1,.4-1.408,4.318,4.318,0,0,1,.984-1.073,6.7,6.7,0,0,1,1.271-.779Q80.91-5.2,81.5-5.407t.984-.342q.4-.13.4-.212a9.009,9.009,0,0,0-.048-.937q-.048-.458-.1-.923t-.1-.923a8.745,8.745,0,0,1-.048-.909v-.889q.561-.205.8.041t.075.848q.055.3.15.943t.212,1.449q.116.807.246,1.7t.246,1.7q.116.813.2,1.449t.123.95a2.554,2.554,0,0,1,.027.267q.014.2.021.424t.014.417q.007.191.007.273a3.9,3.9,0,0,1-.7-.041.293.293,0,0,1-.232-.164,1.024,1.024,0,0,1-.048-.355,2.19,2.19,0,0,0-.137-.643,8.216,8.216,0,0,1-.957.656,5.317,5.317,0,0,1-.9.417,4.631,4.631,0,0,1-.909.219,7.351,7.351,0,0,1-.978.062,4.58,4.58,0,0,1-.841-.075,2.111,2.111,0,0,1-.718-.267,1.455,1.455,0,0,1-.506-.52A1.607,1.607,0,0,1,77.574-1.613ZM78.764-1.9a.607.607,0,0,0,.1.355.859.859,0,0,0,.246.232.936.936,0,0,0,.321.13,1.705,1.705,0,0,0,.335.034,3.276,3.276,0,0,0,1.032-.185,3.88,3.88,0,0,0,1.025-.52,3.021,3.021,0,0,0,.779-.8,1.8,1.8,0,0,0,.308-1.012.877.877,0,0,0-.15-.588.771.771,0,0,0-.574-.164,3.123,3.123,0,0,0-1.019.205,5.54,5.54,0,0,0-1.121.547,3.687,3.687,0,0,0-.909.8A1.515,1.515,0,0,0,78.764-1.9Zm6.74-.875a3.262,3.262,0,0,1,.4-1.579,4.15,4.15,0,0,1,1.046-1.258,5.13,5.13,0,0,1,1.463-.827,4.718,4.718,0,0,1,1.647-.3,1.259,1.259,0,0,1,.827.3,2.646,2.646,0,0,1,.608.731,3.867,3.867,0,0,1,.376.909,3.247,3.247,0,0,1,.13.834,3.205,3.205,0,0,1-.369,1.483,4.665,4.665,0,0,1-.957,1.271,4.961,4.961,0,0,1-1.326.9,3.489,3.489,0,0,1-1.477.342A2.459,2.459,0,0,1,86.762-.2a1.962,1.962,0,0,1-.725-.6,2.564,2.564,0,0,1-.4-.889A4.412,4.412,0,0,1,85.5-2.775Zm1.162.137a2.789,2.789,0,0,0,.062.622,1.1,1.1,0,0,0,.219.458,1,1,0,0,0,.417.294,1.759,1.759,0,0,0,.643.1,2.071,2.071,0,0,0,1.012-.28,3.689,3.689,0,0,0,.909-.711,3.7,3.7,0,0,0,.649-.95,2.355,2.355,0,0,0,.246-1.012,3.085,3.085,0,0,0-.041-.479,1.946,1.946,0,0,0-.137-.479,1,1,0,0,0-.273-.369.674.674,0,0,0-.451-.15,1.364,1.364,0,0,0-.581.164,4.925,4.925,0,0,0-.7.424,6.936,6.936,0,0,0-.711.588q-.349.328-.636.656a3.884,3.884,0,0,0-.458.629A1.072,1.072,0,0,0,86.666-2.639Zm7.738.561a.446.446,0,0,1,.253.068.369.369,0,0,1,.144.171.87.87,0,0,1,.055.232,2.416,2.416,0,0,1,.014.253,4.42,4.42,0,0,1-.062.677,6.636,6.636,0,0,1-.185.813,6.673,6.673,0,0,1-.308.841,3.613,3.613,0,0,1-.431.738,2.2,2.2,0,0,1-.554.52,1.224,1.224,0,0,1-.677.2,5.686,5.686,0,0,1,.062-.738q.062-.451.178-.957t.28-1a7.766,7.766,0,0,1,.355-.9,2.908,2.908,0,0,1,.41-.656A.62.62,0,0,1,94.4-2.078Zm7.3-3.664a1.029,1.029,0,0,1,.116-.533q.116-.191.5-.191.041,0,.157.007l.144.007q.1.424.2.923t.239,1q.137.506.308,1a4.441,4.441,0,0,0,.417.889,1.539,1.539,0,0,0,.355-.615,4.951,4.951,0,0,0,.164-.718q.055-.362.1-.7a1.453,1.453,0,0,1,.2-.574.859.859,0,0,1,.444-.349,1.512,1.512,0,0,1,.813,0,1.725,1.725,0,0,1,.916.212,2.284,2.284,0,0,1,.595.533q.253.321.492.684a2.726,2.726,0,0,0,.608.649l.205-.444a5.009,5.009,0,0,1,.308-.561q.185-.294.4-.588a4.749,4.749,0,0,1,.444-.533,2.692,2.692,0,0,1,.479-.4.889.889,0,0,1,.479-.157,1.451,1.451,0,0,1,.971.349,3.145,3.145,0,0,1,.7.875,5.721,5.721,0,0,1,.485,1.176,12.071,12.071,0,0,1,.3,1.251q.109.6.157,1.1t.048.718a.408.408,0,0,1-.082.273.507.507,0,0,1-.205.144.991.991,0,0,1-.267.062q-.144.014-.267.014a.725.725,0,0,1-.082-.007q-.055-.007-.123-.021l-.15-.041-.889-4.088q0-.041-.109-.157a.734.734,0,0,0-.164-.144.152.152,0,0,1-.068-.014A.1.1,0,0,1,111-4.71a.061.061,0,0,0-.027-.007.788.788,0,0,0-.54.232,2.747,2.747,0,0,0-.472.588,6.43,6.43,0,0,0-.41.793q-.191.438-.342.868t-.267.793q-.116.362-.185.554a.792.792,0,0,1-.219.048q-.164.021-.219.021a.7.7,0,0,1-.588-.267,2.2,2.2,0,0,1-.335-.663,6.892,6.892,0,0,1-.219-.868,6.892,6.892,0,0,0-.219-.868,1.956,1.956,0,0,0-.355-.663.787.787,0,0,0-.636-.267q-.15,0-.287.3a4.245,4.245,0,0,0-.246.759q-.109.458-.205.984t-.157.984q-.062.458-.089.772l-.027.314a.335.335,0,0,1-.109.089l-.171.1a.774.774,0,0,1-.178.082.5.5,0,0,1-.13.027,1.055,1.055,0,0,1-.738-.349,3.65,3.65,0,0,1-.649-.9,9.229,9.229,0,0,1-.533-1.224q-.239-.67-.4-1.312t-.253-1.162A5.1,5.1,0,0,1,101.705-5.742Zm12.879.615q0-.082.007-.267t.014-.39q.007-.205.014-.4t.007-.273a1.169,1.169,0,0,1,.39-.355,2.7,2.7,0,0,1,.485-.219,9.376,9.376,0,0,0,.232,1.572q.191.834.41,1.675t.39,1.661A7.533,7.533,0,0,1,116.7-.588a.55.55,0,0,1-.629.615.8.8,0,0,1-.643-.314,2.407,2.407,0,0,1-.417-.8,7.25,7.25,0,0,1-.253-1.08,11.752,11.752,0,0,1-.13-1.169q-.034-.574-.041-1.053T114.584-5.127Zm.191-5.127a1.026,1.026,0,0,1,.438.355.663.663,0,0,1,.157.444q-.021.2-.308.273a1.886,1.886,0,0,1-.957-.157,1.364,1.364,0,0,1,.144-.643A.54.54,0,0,1,114.775-10.254ZM117.236-3.8a6.289,6.289,0,0,1,.178-1.477,4.126,4.126,0,0,1,.567-1.326,3.083,3.083,0,0,1,1.012-.957A2.911,2.911,0,0,1,120.5-7.93a2.024,2.024,0,0,1,.889.185,1.963,1.963,0,0,1,.643.485,2,2,0,0,1,.39.7,2.726,2.726,0,0,1,.13.841,3.044,3.044,0,0,1-.321,1.354,3.888,3.888,0,0,1-.861,1.155,3.627,3.627,0,0,1-1.237.752,2.654,2.654,0,0,1-1.422.116.878.878,0,0,0,.267.636,1.664,1.664,0,0,0,.608.362,3.088,3.088,0,0,0,.738.157q.383.034.684.034A3,3,0,0,0,121.6-1.2q.273-.055.547-.123t.554-.123a3.1,3.1,0,0,1,.595-.055,2.227,2.227,0,0,1,.246.014.8.8,0,0,1,.232.062.406.406,0,0,1,.178.15.446.446,0,0,1,.068.253.553.553,0,0,1-.191.431,1.718,1.718,0,0,1-.485.294,3.005,3.005,0,0,1-.649.185q-.355.062-.69.1t-.615.041q-.28.007-.417.007a4.185,4.185,0,0,1-1.572-.28,3.318,3.318,0,0,1-1.176-.779,3.348,3.348,0,0,1-.731-1.2A4.6,4.6,0,0,1,117.236-3.8Zm1.449-.889a1.42,1.42,0,0,0,.13.7q.13.219.636.219a1.948,1.948,0,0,0,.7-.13,2.182,2.182,0,0,0,.622-.362,1.767,1.767,0,0,0,.444-.547,1.456,1.456,0,0,0,.164-.684,2.745,2.745,0,0,0-.034-.424,1.124,1.124,0,0,0-.144-.4.934.934,0,0,0-.28-.3.775.775,0,0,0-.444-.116,1.518,1.518,0,0,0-.745.185,1.858,1.858,0,0,0-.567.479,2.18,2.18,0,0,0-.355.656A2.261,2.261,0,0,0,118.686-4.689Zm6.18.082a.653.653,0,0,1,.178-.513.856.856,0,0,1,.574-.157h.137q.041.219.1.506a3.806,3.806,0,0,0,.164.588,3.261,3.261,0,0,0,.26.554,1.263,1.263,0,0,0,.369.4,2.153,2.153,0,0,1,.239-.923,3.28,3.28,0,0,1,.561-.793,3.491,3.491,0,0,1,.738-.588,2.606,2.606,0,0,1,.8-.321h.3a2.055,2.055,0,0,1,1.121.294,2.526,2.526,0,0,1,.772.766,3.762,3.762,0,0,1,.472,1.073A10.046,10.046,0,0,1,131.9-2.5a11.34,11.34,0,0,1,.109,1.2q.021.581.021.991h-1q-.082-.82-.205-1.572-.041-.3-.109-.636t-.15-.629q-.082-.294-.178-.547a2,2,0,0,0-.219-.431q-.055-.055-.144-.15t-.185-.191q-.1-.1-.178-.164a.367.367,0,0,0-.1-.068.727.727,0,0,0-.711.157,2.436,2.436,0,0,0-.533.718,4.749,4.749,0,0,0-.376,1.025q-.144.574-.239,1.1t-.137.916q-.041.39-.055.472a.691.691,0,0,1-.643.144,1.284,1.284,0,0,1-.567-.431,3.475,3.475,0,0,1-.479-.82q-.212-.492-.39-1.046t-.321-1.114Q124.975-4.129,124.865-4.607Zm7.615-2.283a.152.152,0,0,1,.014-.068.225.225,0,0,1,.014-.068,2.32,2.32,0,0,1,.164-.178q.109-.109.137-.109h2.748a4.335,4.335,0,0,0-.041-.479q-.041-.328-.075-.725a7.037,7.037,0,0,1-.021-.827,3.111,3.111,0,0,1,.116-.779,1.322,1.322,0,0,1,.328-.574.86.86,0,0,1,.636-.226,10.276,10.276,0,0,0,.191,2.215,3.636,3.636,0,0,0,.513,1.285,1.5,1.5,0,0,0,.731.588,2.292,2.292,0,0,0,.841.116,3.99,3.99,0,0,0,.841-.13,5.664,5.664,0,0,1,.731-.15.854.854,0,0,1,.513.062q.191.1.191.485a.546.546,0,0,1-.13.41,1.025,1.025,0,0,1-.5.191l-.362.048q-.253.034-.567.062t-.67.062q-.355.034-.67.062t-.574.034q-.26.007-.383.007,0,.068-.014.232t-.014.219a3.633,3.633,0,0,0,.191,1.169q.191.567.417,1.128t.417,1.121a3.571,3.571,0,0,1,.191,1.162,1.3,1.3,0,0,1-.021.226.511.511,0,0,1-.082.205.389.389,0,0,1-.178.137A.474.474,0,0,1,137.785,0a1.2,1.2,0,0,1-.772-.588,3.623,3.623,0,0,1-.376-1.073,9.751,9.751,0,0,1-.164-1.319q-.041-.7-.13-1.306a3.986,3.986,0,0,0-.28-1.039.858.858,0,0,0-.615-.526l-2.639-.6q-.055,0-.164-.116a.89.89,0,0,1-.137-.171.152.152,0,0,1-.014-.068A.19.19,0,0,1,132.48-6.891Zm9.092,1.148A2.418,2.418,0,0,1,141.586-6a.869.869,0,0,1,.055-.232.4.4,0,0,1,.13-.171.407.407,0,0,1,.253-.068q.137,0,.308.212a3.734,3.734,0,0,1,.349.533q.178.321.349.7t.3.7q.13.321.212.554a1.822,1.822,0,0,0,.1.246q.178-.479.4-1.039a5.531,5.531,0,0,1,.54-1.046,3.186,3.186,0,0,1,.766-.813,1.779,1.779,0,0,1,1.087-.328,1.875,1.875,0,0,1,.622.1,1.554,1.554,0,0,1,.52.3,1.536,1.536,0,0,1,.362.472,1.388,1.388,0,0,1,.137.629.437.437,0,0,1-.239.424,1.164,1.164,0,0,1-.54.123h-.137l-.588-.588a.056.056,0,0,1-.041-.014.151.151,0,0,1-.048-.007.151.151,0,0,0-.048-.007,1.007,1.007,0,0,0-.745.267,1.715,1.715,0,0,0-.4.656,3.241,3.241,0,0,0-.171.82q-.034.431-.034.786a2.887,2.887,0,0,0,.055.554q.055.28.123.547t.123.547a3.028,3.028,0,0,1,.055.581q0,.574-.615.574a1.051,1.051,0,0,1-.711-.362,5.39,5.39,0,0,1-.731-.923,11.609,11.609,0,0,1-.69-1.237q-.328-.677-.574-1.319t-.39-1.162A3.237,3.237,0,0,1,141.572-5.742Zm12.865,3.979q-.52.355-.9.636a5.957,5.957,0,0,1-.731.472,3.105,3.105,0,0,1-.759.287,4.369,4.369,0,0,1-.991.1,2.427,2.427,0,0,1-1.887-.677,2.909,2.909,0,0,1-.615-2.017,4.555,4.555,0,0,1,.137-1.08,5.655,5.655,0,0,1,.4-1.114,6.531,6.531,0,0,1,.636-1.053,4.949,4.949,0,0,1,.834-.882,4.09,4.09,0,0,1,.991-.608,2.8,2.8,0,0,1,1.114-.226,3.239,3.239,0,0,1,1.545.485,2.493,2.493,0,0,1,.848,1,4.781,4.781,0,0,1,.4,1.354q.109.745.171,1.538t.157,1.586a5.018,5.018,0,0,0,.4,1.463,2.376,2.376,0,0,1-.335.636.241.241,0,0,1-.349.062,1.671,1.671,0,0,1-.444-.6Q154.807-.889,154.438-1.764Zm-4.717-1.176a1.8,1.8,0,0,0,.294,1.142,1.283,1.283,0,0,0,1.046.362,2.95,2.95,0,0,0,1.073-.2,2.832,2.832,0,0,0,.9-.547,2.658,2.658,0,0,0,.615-.841,2.529,2.529,0,0,0,.232-1.094q0-.246.014-.69a4.753,4.753,0,0,0-.055-.882,2.1,2.1,0,0,0-.26-.759A.626.626,0,0,0,153-6.768a2.5,2.5,0,0,0-1.312.362,3.787,3.787,0,0,0-1.039.923,4.493,4.493,0,0,0-.684,1.237A3.813,3.813,0,0,0,149.721-2.939Zm9.953,2.324q.219-.15.526-.39t.622-.513a7.008,7.008,0,0,0,.588-.574,3.221,3.221,0,0,0,.431-.581A1.084,1.084,0,0,0,162-3.2a.482.482,0,0,0-.246-.41q-.438,0-.957.034t-1.039.027a6.539,6.539,0,0,1-1-.089,2.612,2.612,0,0,1-.868-.3,1.6,1.6,0,0,1-.608-.622,2.1,2.1,0,0,1-.226-1.032,3.089,3.089,0,0,1,.28-1.333,3.651,3.651,0,0,1,.745-1.053,5.554,5.554,0,0,1,1.046-.807,9.112,9.112,0,0,1,1.169-.595,1.745,1.745,0,0,1,.656.342,2.941,2.941,0,0,1,.52.547.807.807,0,0,1-.376.465,3.5,3.5,0,0,1-.643.287l-.759.26a2.868,2.868,0,0,0-.718.362,1.917,1.917,0,0,0-.54.588,1.822,1.822,0,0,0-.219.95.843.843,0,0,0,.219.643,1.174,1.174,0,0,0,.574.28,3.209,3.209,0,0,0,.807.055q.451-.021.923-.062t.923-.048a2.469,2.469,0,0,1,.807.109,1.188,1.188,0,0,1,.567.376,1.189,1.189,0,0,1,.212.766,1.529,1.529,0,0,1-.144.561,5.437,5.437,0,0,1-.383.731,6.474,6.474,0,0,1-.561.772,6.434,6.434,0,0,1-.67.69,4.2,4.2,0,0,1-.7.506,1.327,1.327,0,0,1-.649.2.366.366,0,0,1-.376-.205A1.024,1.024,0,0,1,159.674-.615Z" transform="translate(0.203 38.568)" fill="#12263f"/>
      <path id="Trazado_192263" data-name="Trazado 192263" d="M5.154-1.777a1.685,1.685,0,0,0-.561.1q-.273.1-.547.219t-.554.219a1.828,1.828,0,0,1-.595.1,2.8,2.8,0,0,1-1.08-.2A2.323,2.323,0,0,1,1-1.9a2.513,2.513,0,0,1-.52-.841A2.957,2.957,0,0,1,.3-3.8,2.557,2.557,0,0,1,.588-5.065a2.367,2.367,0,0,1,.759-.827A3.09,3.09,0,0,1,2.42-6.337a5.814,5.814,0,0,1,1.23-.13,2.158,2.158,0,0,1,1.258.458,4.429,4.429,0,0,1,1,1.114,8.22,8.22,0,0,1,.772,1.538,13.763,13.763,0,0,1,.54,1.743A14.618,14.618,0,0,1,7.533.109a11.113,11.113,0,0,1,.082,1.483A4.513,4.513,0,0,1,7.5,2.625q-.1.383-.308.342a.776.776,0,0,1-.554-.321,2.066,2.066,0,0,1-.287-.663,4.2,4.2,0,0,1-.123-.868Q6.207.643,6.193.171t-.048-.9a2.967,2.967,0,0,0-.13-.711.655.655,0,0,0-.3-.39A.634.634,0,0,0,5.154-1.777ZM1.463-3.664a1.031,1.031,0,0,0,.116.465,1.625,1.625,0,0,0,.308.424,1.765,1.765,0,0,0,.424.314.986.986,0,0,0,.465.123,2.357,2.357,0,0,0,.6-.1,3.3,3.3,0,0,0,.725-.3,2.662,2.662,0,0,0,.615-.465.834.834,0,0,0,.26-.595,5.177,5.177,0,0,0-.055-.807,1.5,1.5,0,0,0-.191-.561.8.8,0,0,0-.4-.321,1.9,1.9,0,0,0-.684-.1,1.91,1.91,0,0,0-.725.157,2.612,2.612,0,0,0-.7.431,2.693,2.693,0,0,0-.54.622A1.334,1.334,0,0,0,1.463-3.664ZM7.807-5.578q0-.082.007-.294t.007-.444q0-.232.007-.431t.007-.28a2.419,2.419,0,0,1,.226-.321.743.743,0,0,1,.273-.219.489.489,0,0,1,.314-.021A.676.676,0,0,1,9-7.314v.287q-.014.068-.055.321t-.1.554q-.055.3-.1.554a2.4,2.4,0,0,0-.048.321,4.825,4.825,0,0,0,.055.649q.055.39.157.813a7.522,7.522,0,0,0,.26.848,3.8,3.8,0,0,0,.376.759,2.418,2.418,0,0,0,.485.554.951.951,0,0,0,.622.219,1.322,1.322,0,0,0,.772-.232A2.22,2.22,0,0,0,12-2.27a3.54,3.54,0,0,0,.4-.834,7.7,7.7,0,0,0,.253-.937,8.628,8.628,0,0,0,.137-.909q.041-.437.041-.766a3.871,3.871,0,0,0-.048-.622q-.048-.294-.116-.581t-.116-.567a3.365,3.365,0,0,1-.048-.567.394.394,0,0,1,.185-.369.8.8,0,0,1,.417-.109.643.643,0,0,1,.465.171,1.2,1.2,0,0,1,.28.431,2.236,2.236,0,0,1,.137.595,6.529,6.529,0,0,1,.034.663q0,.328-.014.622T14-5.578a9.211,9.211,0,0,1-.068,1.053,8.1,8.1,0,0,1-.239,1.21,9.965,9.965,0,0,1-.424,1.224,4.815,4.815,0,0,1-.615,1.073,3.05,3.05,0,0,1-.834.759,2,2,0,0,1-1.06.287A1.978,1.978,0,0,1,9.68-.267a2.614,2.614,0,0,1-.786-.779,5.049,5.049,0,0,1-.54-1.1,8.23,8.23,0,0,1-.335-1.23,11.561,11.561,0,0,1-.164-1.2Q7.807-5.154,7.807-5.578ZM14.834-3.8a6.289,6.289,0,0,1,.178-1.477A4.126,4.126,0,0,1,15.579-6.6a3.083,3.083,0,0,1,1.012-.957A2.911,2.911,0,0,1,18.1-7.93a2.024,2.024,0,0,1,.889.185,1.963,1.963,0,0,1,.643.485,2,2,0,0,1,.39.7,2.726,2.726,0,0,1,.13.841,3.044,3.044,0,0,1-.321,1.354,3.888,3.888,0,0,1-.861,1.155,3.627,3.627,0,0,1-1.237.752,2.654,2.654,0,0,1-1.422.116.878.878,0,0,0,.267.636,1.664,1.664,0,0,0,.608.362,3.088,3.088,0,0,0,.738.157q.383.034.684.034A3,3,0,0,0,19.2-1.2q.273-.055.547-.123t.554-.123a3.1,3.1,0,0,1,.595-.055,2.227,2.227,0,0,1,.246.014.8.8,0,0,1,.232.062.406.406,0,0,1,.178.15.446.446,0,0,1,.068.253.553.553,0,0,1-.191.431,1.718,1.718,0,0,1-.485.294,3.005,3.005,0,0,1-.649.185q-.355.062-.69.1t-.615.041q-.28.007-.417.007a4.185,4.185,0,0,1-1.572-.28,3.318,3.318,0,0,1-1.176-.779,3.348,3.348,0,0,1-.731-1.2A4.6,4.6,0,0,1,14.834-3.8Zm1.449-.889a1.42,1.42,0,0,0,.13.7q.13.219.636.219a1.948,1.948,0,0,0,.7-.13,2.182,2.182,0,0,0,.622-.362,1.767,1.767,0,0,0,.444-.547,1.456,1.456,0,0,0,.164-.684,2.745,2.745,0,0,0-.034-.424,1.124,1.124,0,0,0-.144-.4.934.934,0,0,0-.28-.3.775.775,0,0,0-.444-.116,1.518,1.518,0,0,0-.745.185,1.858,1.858,0,0,0-.567.479,2.18,2.18,0,0,0-.355.656A2.261,2.261,0,0,0,16.283-4.689Zm12.182-2.2a.152.152,0,0,1,.014-.068.225.225,0,0,1,.014-.068,2.322,2.322,0,0,1,.164-.178q.109-.109.137-.109h2.748a4.335,4.335,0,0,0-.041-.479q-.041-.328-.075-.725a7.034,7.034,0,0,1-.021-.827,3.111,3.111,0,0,1,.116-.779,1.322,1.322,0,0,1,.328-.574.86.86,0,0,1,.636-.226,10.276,10.276,0,0,0,.191,2.215,3.636,3.636,0,0,0,.513,1.285,1.5,1.5,0,0,0,.731.588,2.292,2.292,0,0,0,.841.116,3.99,3.99,0,0,0,.841-.13A5.663,5.663,0,0,1,36.333-7a.854.854,0,0,1,.513.062q.191.1.191.485a.546.546,0,0,1-.13.41,1.025,1.025,0,0,1-.5.191l-.362.048q-.253.034-.567.062t-.67.062q-.355.034-.67.062t-.574.034q-.26.007-.383.007,0,.068-.014.232t-.014.219a3.633,3.633,0,0,0,.191,1.169q.191.567.417,1.128t.417,1.121a3.572,3.572,0,0,1,.191,1.162,1.3,1.3,0,0,1-.021.226.511.511,0,0,1-.082.205.389.389,0,0,1-.178.137A.474.474,0,0,1,33.77,0,1.2,1.2,0,0,1,33-.588a3.623,3.623,0,0,1-.376-1.073,9.751,9.751,0,0,1-.164-1.319q-.041-.7-.13-1.306a3.986,3.986,0,0,0-.28-1.039.858.858,0,0,0-.615-.526l-2.639-.6q-.055,0-.164-.116a.89.89,0,0,1-.137-.171.152.152,0,0,1-.014-.068A.19.19,0,0,1,28.465-6.891Zm9.092,1.313q0-.082.007-.294t.007-.444q0-.232.007-.431t.007-.28a2.419,2.419,0,0,1,.226-.321.743.743,0,0,1,.273-.219.489.489,0,0,1,.314-.021.676.676,0,0,1,.349.273v.287q-.014.068-.055.321t-.1.554q-.055.3-.1.554a2.4,2.4,0,0,0-.048.321,4.826,4.826,0,0,0,.055.649q.055.39.157.813a7.522,7.522,0,0,0,.26.848,3.8,3.8,0,0,0,.376.759,2.418,2.418,0,0,0,.485.554.951.951,0,0,0,.622.219,1.322,1.322,0,0,0,.772-.232,2.22,2.22,0,0,0,.581-.6,3.54,3.54,0,0,0,.4-.834,7.7,7.7,0,0,0,.253-.937,8.628,8.628,0,0,0,.137-.909q.041-.437.041-.766a3.871,3.871,0,0,0-.048-.622q-.048-.294-.116-.581t-.116-.567a3.365,3.365,0,0,1-.048-.567.394.394,0,0,1,.185-.369.8.8,0,0,1,.417-.109.643.643,0,0,1,.465.171,1.2,1.2,0,0,1,.28.431,2.236,2.236,0,0,1,.137.595,6.529,6.529,0,0,1,.034.663q0,.328-.014.622t-.014.472a9.211,9.211,0,0,1-.068,1.053,8.1,8.1,0,0,1-.239,1.21,9.965,9.965,0,0,1-.424,1.224A4.815,4.815,0,0,1,42.4-1.019a3.05,3.05,0,0,1-.834.759,2,2,0,0,1-1.06.287,1.978,1.978,0,0,1-1.08-.294,2.614,2.614,0,0,1-.786-.779,5.049,5.049,0,0,1-.54-1.1,8.23,8.23,0,0,1-.335-1.23,11.562,11.562,0,0,1-.164-1.2Q37.557-5.154,37.557-5.578ZM42.123-11.2,40.646-9.01a.363.363,0,0,1-.328.164A.366.366,0,0,1,40.065-9a.607.607,0,0,1-.1-.328.592.592,0,0,1,.144-.39.692.692,0,0,0,.089-.116q.048-.075.062-.1.137-.219.314-.492t.369-.513a5.144,5.144,0,0,1,.376-.424,1.027,1.027,0,0,1,.349-.246.275.275,0,0,1,.28.027A.634.634,0,0,1,42.123-11.2ZM53.512-.615q.219-.15.526-.39t.622-.513a7.008,7.008,0,0,0,.588-.574,3.222,3.222,0,0,0,.431-.581,1.084,1.084,0,0,0,.157-.526.482.482,0,0,0-.246-.41q-.438,0-.957.034t-1.039.027a6.539,6.539,0,0,1-1-.089,2.612,2.612,0,0,1-.868-.3,1.6,1.6,0,0,1-.608-.622,2.1,2.1,0,0,1-.226-1.032,3.089,3.089,0,0,1,.28-1.333,3.651,3.651,0,0,1,.745-1.053,5.555,5.555,0,0,1,1.046-.807,9.112,9.112,0,0,1,1.169-.595,1.745,1.745,0,0,1,.656.342,2.941,2.941,0,0,1,.52.547.807.807,0,0,1-.376.465,3.5,3.5,0,0,1-.643.287l-.759.26a2.868,2.868,0,0,0-.718.362,1.917,1.917,0,0,0-.54.588,1.822,1.822,0,0,0-.219.95.843.843,0,0,0,.219.643,1.174,1.174,0,0,0,.574.28,3.209,3.209,0,0,0,.807.055q.451-.021.923-.062t.923-.048A2.469,2.469,0,0,1,56.3-4.6a1.188,1.188,0,0,1,.567.376,1.189,1.189,0,0,1,.212.766,1.529,1.529,0,0,1-.144.561,5.436,5.436,0,0,1-.383.731,6.474,6.474,0,0,1-.561.772,6.435,6.435,0,0,1-.67.69,4.2,4.2,0,0,1-.7.506,1.327,1.327,0,0,1-.649.2A.366.366,0,0,1,53.6-.205,1.024,1.024,0,0,1,53.512-.615Zm4.115-2.16a3.262,3.262,0,0,1,.4-1.579,4.15,4.15,0,0,1,1.046-1.258,5.13,5.13,0,0,1,1.463-.827,4.718,4.718,0,0,1,1.647-.3,1.259,1.259,0,0,1,.827.3,2.646,2.646,0,0,1,.608.731,3.867,3.867,0,0,1,.376.909,3.247,3.247,0,0,1,.13.834,3.205,3.205,0,0,1-.369,1.483,4.665,4.665,0,0,1-.957,1.271,4.961,4.961,0,0,1-1.326.9,3.489,3.489,0,0,1-1.477.342A2.459,2.459,0,0,1,58.885-.2a1.962,1.962,0,0,1-.725-.6,2.564,2.564,0,0,1-.4-.889A4.412,4.412,0,0,1,57.627-2.775Zm1.162.137a2.789,2.789,0,0,0,.062.622,1.1,1.1,0,0,0,.219.458,1,1,0,0,0,.417.294,1.759,1.759,0,0,0,.643.1,2.071,2.071,0,0,0,1.012-.28,3.689,3.689,0,0,0,.909-.711A3.7,3.7,0,0,0,62.7-3.1a2.355,2.355,0,0,0,.246-1.012,3.085,3.085,0,0,0-.041-.479,1.946,1.946,0,0,0-.137-.479,1,1,0,0,0-.273-.369.674.674,0,0,0-.451-.15,1.364,1.364,0,0,0-.581.164,4.925,4.925,0,0,0-.7.424,6.937,6.937,0,0,0-.711.588q-.349.328-.636.656a3.885,3.885,0,0,0-.458.629A1.072,1.072,0,0,0,58.789-2.639Zm3.281-7.479L60.594-7.93a.363.363,0,0,1-.328.164.366.366,0,0,1-.253-.157.607.607,0,0,1-.1-.328.592.592,0,0,1,.144-.39.692.692,0,0,0,.089-.116q.048-.075.062-.1.137-.219.314-.492t.369-.513a5.144,5.144,0,0,1,.376-.424,1.027,1.027,0,0,1,.349-.246.275.275,0,0,1,.28.027A.634.634,0,0,1,62.07-10.117Zm2.912,2.379a5.36,5.36,0,0,0-.055-.772,2.857,2.857,0,0,1-.027-.67.723.723,0,0,1,.212-.472.98.98,0,0,1,.677-.178,4.767,4.767,0,0,1,.294.957q.144.643.28,1.477t.26,1.812q.123.978.226,1.962t.178,1.935q.075.95.116,1.729-.451.3-.725.041A1.954,1.954,0,0,1,65.967-.8a9.154,9.154,0,0,1-.273-1.518q-.1-.9-.185-1.859t-.212-1.9A13.378,13.378,0,0,0,64.982-7.738Zm2.871,4.963a3.262,3.262,0,0,1,.4-1.579A4.15,4.15,0,0,1,69.3-5.612a5.13,5.13,0,0,1,1.463-.827,4.718,4.718,0,0,1,1.647-.3,1.259,1.259,0,0,1,.827.3,2.646,2.646,0,0,1,.608.731,3.867,3.867,0,0,1,.376.909,3.247,3.247,0,0,1,.13.834,3.205,3.205,0,0,1-.369,1.483,4.665,4.665,0,0,1-.957,1.271,4.961,4.961,0,0,1-1.326.9,3.489,3.489,0,0,1-1.477.342A2.459,2.459,0,0,1,69.111-.2a1.962,1.962,0,0,1-.725-.6,2.564,2.564,0,0,1-.4-.889A4.412,4.412,0,0,1,67.854-2.775Zm1.162.137a2.789,2.789,0,0,0,.062.622,1.1,1.1,0,0,0,.219.458,1,1,0,0,0,.417.294,1.759,1.759,0,0,0,.643.1,2.071,2.071,0,0,0,1.012-.28,3.689,3.689,0,0,0,.909-.711,3.7,3.7,0,0,0,.649-.95,2.355,2.355,0,0,0,.246-1.012,3.085,3.085,0,0,0-.041-.479,1.946,1.946,0,0,0-.137-.479,1,1,0,0,0-.273-.369.674.674,0,0,0-.451-.15,1.364,1.364,0,0,0-.581.164,4.925,4.925,0,0,0-.7.424,6.936,6.936,0,0,0-.711.588q-.349.328-.636.656a3.884,3.884,0,0,0-.458.629A1.072,1.072,0,0,0,69.016-2.639ZM81.184-3.8a6.289,6.289,0,0,1,.178-1.477A4.126,4.126,0,0,1,81.929-6.6a3.083,3.083,0,0,1,1.012-.957,2.911,2.911,0,0,1,1.511-.369,2.024,2.024,0,0,1,.889.185,1.963,1.963,0,0,1,.643.485,2,2,0,0,1,.39.7,2.726,2.726,0,0,1,.13.841,3.044,3.044,0,0,1-.321,1.354,3.888,3.888,0,0,1-.861,1.155,3.627,3.627,0,0,1-1.237.752,2.654,2.654,0,0,1-1.422.116.878.878,0,0,0,.267.636,1.664,1.664,0,0,0,.608.362,3.088,3.088,0,0,0,.738.157q.383.034.684.034a3,3,0,0,0,.588-.055q.273-.055.547-.123t.554-.123A3.1,3.1,0,0,1,87.24-1.5a2.227,2.227,0,0,1,.246.014.8.8,0,0,1,.232.062.406.406,0,0,1,.178.15.446.446,0,0,1,.068.253.553.553,0,0,1-.191.431,1.718,1.718,0,0,1-.485.294,3.005,3.005,0,0,1-.649.185q-.355.062-.69.1t-.615.041q-.28.007-.417.007a4.185,4.185,0,0,1-1.572-.28,3.318,3.318,0,0,1-1.176-.779,3.348,3.348,0,0,1-.731-1.2A4.6,4.6,0,0,1,81.184-3.8Zm1.449-.889a1.42,1.42,0,0,0,.13.7q.13.219.636.219a1.948,1.948,0,0,0,.7-.13,2.182,2.182,0,0,0,.622-.362,1.767,1.767,0,0,0,.444-.547,1.456,1.456,0,0,0,.164-.684,2.745,2.745,0,0,0-.034-.424,1.124,1.124,0,0,0-.144-.4.934.934,0,0,0-.28-.3.775.775,0,0,0-.444-.116,1.518,1.518,0,0,0-.745.185,1.858,1.858,0,0,0-.567.479,2.18,2.18,0,0,0-.355.656A2.261,2.261,0,0,0,82.633-4.689Zm8.8,4.074q.219-.15.526-.39t.622-.513a7.008,7.008,0,0,0,.588-.574,3.222,3.222,0,0,0,.431-.581,1.084,1.084,0,0,0,.157-.526.482.482,0,0,0-.246-.41q-.437,0-.957.034t-1.039.027a6.539,6.539,0,0,1-1-.089,2.612,2.612,0,0,1-.868-.3,1.6,1.6,0,0,1-.608-.622,2.1,2.1,0,0,1-.226-1.032,3.089,3.089,0,0,1,.28-1.333,3.651,3.651,0,0,1,.745-1.053,5.555,5.555,0,0,1,1.046-.807,9.111,9.111,0,0,1,1.169-.595,1.745,1.745,0,0,1,.656.342,2.941,2.941,0,0,1,.52.547.807.807,0,0,1-.376.465,3.5,3.5,0,0,1-.643.287l-.759.26a2.868,2.868,0,0,0-.718.362,1.917,1.917,0,0,0-.54.588,1.822,1.822,0,0,0-.219.95.843.843,0,0,0,.219.643,1.175,1.175,0,0,0,.574.28,3.209,3.209,0,0,0,.807.055q.451-.021.923-.062t.923-.048a2.469,2.469,0,0,1,.807.109,1.188,1.188,0,0,1,.567.376,1.189,1.189,0,0,1,.212.766,1.529,1.529,0,0,1-.144.561,5.436,5.436,0,0,1-.383.731,6.474,6.474,0,0,1-.561.772,6.435,6.435,0,0,1-.67.69,4.2,4.2,0,0,1-.7.506A1.327,1.327,0,0,1,91.9,0a.366.366,0,0,1-.376-.205A1.024,1.024,0,0,1,91.438-.615Zm3.814-6.275a.152.152,0,0,1,.014-.068.225.225,0,0,1,.014-.068,2.323,2.323,0,0,1,.164-.178q.109-.109.137-.109h2.748a4.335,4.335,0,0,0-.041-.479q-.041-.328-.075-.725a7.033,7.033,0,0,1-.021-.827,3.111,3.111,0,0,1,.116-.779,1.322,1.322,0,0,1,.328-.574.86.86,0,0,1,.636-.226,10.276,10.276,0,0,0,.191,2.215,3.635,3.635,0,0,0,.513,1.285,1.5,1.5,0,0,0,.731.588,2.292,2.292,0,0,0,.841.116,3.99,3.99,0,0,0,.841-.13A5.663,5.663,0,0,1,103.12-7a.854.854,0,0,1,.513.062q.191.1.191.485a.546.546,0,0,1-.13.41,1.025,1.025,0,0,1-.5.191l-.362.048q-.253.034-.567.062t-.67.062q-.355.034-.67.062t-.574.034q-.26.007-.383.007,0,.068-.014.232t-.014.219a3.633,3.633,0,0,0,.191,1.169q.191.567.417,1.128t.417,1.121a3.572,3.572,0,0,1,.191,1.162,1.3,1.3,0,0,1-.021.226.511.511,0,0,1-.082.205.389.389,0,0,1-.178.137A.474.474,0,0,1,100.557,0a1.2,1.2,0,0,1-.772-.588,3.623,3.623,0,0,1-.376-1.073,9.751,9.751,0,0,1-.164-1.319q-.041-.7-.13-1.306a3.986,3.986,0,0,0-.28-1.039.858.858,0,0,0-.615-.526l-2.639-.6q-.055,0-.164-.116a.89.89,0,0,1-.137-.171.152.152,0,0,1-.014-.068A.19.19,0,0,1,95.252-6.891Zm14.971,5.127q-.52.355-.9.636a5.957,5.957,0,0,1-.731.472,3.1,3.1,0,0,1-.759.287,4.369,4.369,0,0,1-.991.1,2.427,2.427,0,0,1-1.887-.677,2.909,2.909,0,0,1-.615-2.017,4.555,4.555,0,0,1,.137-1.08,5.656,5.656,0,0,1,.4-1.114,6.531,6.531,0,0,1,.636-1.053,4.949,4.949,0,0,1,.834-.882,4.09,4.09,0,0,1,.991-.608,2.8,2.8,0,0,1,1.114-.226A3.239,3.239,0,0,1,110-7.444a2.493,2.493,0,0,1,.848,1,4.781,4.781,0,0,1,.4,1.354q.109.745.171,1.538t.157,1.586a5.018,5.018,0,0,0,.4,1.463,2.376,2.376,0,0,1-.335.636.241.241,0,0,1-.349.062,1.671,1.671,0,0,1-.444-.6Q110.592-.889,110.223-1.764Zm-4.717-1.176A1.8,1.8,0,0,0,105.8-1.8a1.283,1.283,0,0,0,1.046.362,2.95,2.95,0,0,0,1.073-.2,2.832,2.832,0,0,0,.9-.547,2.658,2.658,0,0,0,.615-.841,2.529,2.529,0,0,0,.232-1.094q0-.246.014-.69a4.753,4.753,0,0,0-.055-.882,2.1,2.1,0,0,0-.26-.759.626.626,0,0,0-.574-.321,2.5,2.5,0,0,0-1.312.362,3.787,3.787,0,0,0-1.039.923,4.494,4.494,0,0,0-.684,1.237A3.813,3.813,0,0,0,105.506-2.939Zm7.328-2.8A2.416,2.416,0,0,1,112.848-6a.87.87,0,0,1,.055-.232.4.4,0,0,1,.13-.171.407.407,0,0,1,.253-.068q.137,0,.308.212a3.735,3.735,0,0,1,.349.533q.178.321.349.7t.3.7q.13.321.212.554a1.821,1.821,0,0,0,.1.246q.178-.479.4-1.039a5.531,5.531,0,0,1,.54-1.046,3.186,3.186,0,0,1,.766-.813,1.779,1.779,0,0,1,1.087-.328,1.875,1.875,0,0,1,.622.1,1.554,1.554,0,0,1,.52.3,1.536,1.536,0,0,1,.362.472,1.388,1.388,0,0,1,.137.629.437.437,0,0,1-.239.424,1.164,1.164,0,0,1-.54.123h-.137l-.588-.588a.056.056,0,0,1-.041-.014.151.151,0,0,1-.048-.007.152.152,0,0,0-.048-.007,1.007,1.007,0,0,0-.745.267,1.715,1.715,0,0,0-.4.656,3.241,3.241,0,0,0-.171.82q-.034.431-.034.786a2.886,2.886,0,0,0,.055.554q.055.28.123.547t.123.547a3.028,3.028,0,0,1,.055.581q0,.574-.615.574a1.051,1.051,0,0,1-.711-.362,5.39,5.39,0,0,1-.731-.923,11.608,11.608,0,0,1-.69-1.237q-.328-.677-.574-1.319t-.39-1.162A3.237,3.237,0,0,1,112.834-5.742Zm7.561.615q0-.082.007-.267t.014-.39q.007-.205.014-.4t.007-.273a1.169,1.169,0,0,1,.39-.355,2.7,2.7,0,0,1,.485-.219,9.376,9.376,0,0,0,.232,1.572q.191.834.41,1.675t.39,1.661a7.533,7.533,0,0,1,.171,1.531.55.55,0,0,1-.629.615.8.8,0,0,1-.643-.314,2.407,2.407,0,0,1-.417-.8,7.25,7.25,0,0,1-.253-1.08,11.752,11.752,0,0,1-.13-1.169q-.034-.574-.041-1.053T120.395-5.127Zm1.969-4.99-1.49,2.188a.357.357,0,0,1-.321.164.361.361,0,0,1-.246-.157.607.607,0,0,1-.1-.328.626.626,0,0,1,.13-.39.692.692,0,0,0,.089-.116q.048-.075.062-.1.137-.219.314-.492t.369-.513a4.448,4.448,0,0,1,.383-.424,1.122,1.122,0,0,1,.349-.246.278.278,0,0,1,.28.027A.608.608,0,0,1,122.363-10.117Zm6.563,8.354q-.52.355-.9.636a5.957,5.957,0,0,1-.731.472,3.1,3.1,0,0,1-.759.287,4.369,4.369,0,0,1-.991.1,2.427,2.427,0,0,1-1.887-.677,2.909,2.909,0,0,1-.615-2.017,4.555,4.555,0,0,1,.137-1.08,5.656,5.656,0,0,1,.4-1.114,6.531,6.531,0,0,1,.636-1.053,4.949,4.949,0,0,1,.834-.882,4.09,4.09,0,0,1,.991-.608,2.8,2.8,0,0,1,1.114-.226,3.239,3.239,0,0,1,1.545.485,2.493,2.493,0,0,1,.848,1,4.781,4.781,0,0,1,.4,1.354q.109.745.171,1.538t.157,1.586a5.018,5.018,0,0,0,.4,1.463,2.376,2.376,0,0,1-.335.636.241.241,0,0,1-.349.062,1.671,1.671,0,0,1-.444-.6Q129.295-.889,128.926-1.764Zm-4.717-1.176A1.8,1.8,0,0,0,124.5-1.8a1.283,1.283,0,0,0,1.046.362,2.95,2.95,0,0,0,1.073-.2,2.832,2.832,0,0,0,.9-.547,2.658,2.658,0,0,0,.615-.841,2.529,2.529,0,0,0,.232-1.094q0-.246.014-.69a4.753,4.753,0,0,0-.055-.882,2.1,2.1,0,0,0-.26-.759.626.626,0,0,0-.574-.321,2.5,2.5,0,0,0-1.312.362,3.787,3.787,0,0,0-1.039.923,4.494,4.494,0,0,0-.684,1.237A3.813,3.813,0,0,0,124.209-2.939Zm9.953,2.324q.219-.15.526-.39t.622-.513a7.008,7.008,0,0,0,.588-.574,3.221,3.221,0,0,0,.431-.581,1.084,1.084,0,0,0,.157-.526.482.482,0,0,0-.246-.41q-.438,0-.957.034t-1.039.027a6.539,6.539,0,0,1-1-.089,2.612,2.612,0,0,1-.868-.3,1.6,1.6,0,0,1-.608-.622,2.1,2.1,0,0,1-.226-1.032,3.089,3.089,0,0,1,.28-1.333,3.651,3.651,0,0,1,.745-1.053,5.554,5.554,0,0,1,1.046-.807,9.112,9.112,0,0,1,1.169-.595,1.745,1.745,0,0,1,.656.342,2.941,2.941,0,0,1,.52.547.807.807,0,0,1-.376.465,3.5,3.5,0,0,1-.643.287l-.759.26a2.868,2.868,0,0,0-.718.362,1.917,1.917,0,0,0-.54.588,1.822,1.822,0,0,0-.219.95.843.843,0,0,0,.219.643,1.174,1.174,0,0,0,.574.28,3.209,3.209,0,0,0,.807.055q.451-.021.923-.062t.923-.048a2.469,2.469,0,0,1,.807.109,1.188,1.188,0,0,1,.567.376,1.189,1.189,0,0,1,.212.766,1.529,1.529,0,0,1-.144.561,5.437,5.437,0,0,1-.383.731,6.474,6.474,0,0,1-.561.772,6.434,6.434,0,0,1-.67.69,4.2,4.2,0,0,1-.7.506,1.327,1.327,0,0,1-.649.2.366.366,0,0,1-.376-.205A1.024,1.024,0,0,1,134.162-.615Z" transform="translate(14.303 57.136)" fill="#12263f"/>
      <path id="Trazado_192262" data-name="Trazado 192262" d="M.848-5.127q0-.082.007-.267t.014-.39q.007-.205.014-.4t.007-.273a1.169,1.169,0,0,1,.39-.355,2.7,2.7,0,0,1,.485-.219A9.375,9.375,0,0,0,2-5.455q.191.834.41,1.675T2.8-2.119A7.533,7.533,0,0,1,2.967-.588a.55.55,0,0,1-.629.615A.8.8,0,0,1,1.7-.287a2.407,2.407,0,0,1-.417-.8,7.25,7.25,0,0,1-.253-1.08A11.752,11.752,0,0,1,.9-3.336Q.861-3.91.854-4.389T.848-5.127Zm.191-5.127a1.026,1.026,0,0,1,.438.355.663.663,0,0,1,.157.444q-.021.2-.308.273a1.886,1.886,0,0,1-.957-.157A1.364,1.364,0,0,1,.513-9.98.54.54,0,0,1,1.039-10.254ZM3.5-4.607a.653.653,0,0,1,.178-.513.856.856,0,0,1,.574-.157h.137q.041.219.1.506a3.806,3.806,0,0,0,.164.588,3.261,3.261,0,0,0,.26.554,1.263,1.263,0,0,0,.369.4,2.153,2.153,0,0,1,.239-.923,3.28,3.28,0,0,1,.561-.793,3.491,3.491,0,0,1,.738-.588,2.606,2.606,0,0,1,.8-.321h.3a2.055,2.055,0,0,1,1.121.294,2.526,2.526,0,0,1,.772.766,3.762,3.762,0,0,1,.472,1.073A10.045,10.045,0,0,1,10.534-2.5a11.341,11.341,0,0,1,.109,1.2q.021.581.021.991h-1q-.082-.82-.205-1.572-.041-.3-.109-.636T9.2-3.138q-.082-.294-.178-.547A2,2,0,0,0,8.8-4.115q-.055-.055-.144-.15t-.185-.191q-.1-.1-.178-.164a.366.366,0,0,0-.1-.068.727.727,0,0,0-.711.157,2.436,2.436,0,0,0-.533.718,4.75,4.75,0,0,0-.376,1.025q-.144.574-.239,1.1t-.137.916q-.041.39-.055.472a.691.691,0,0,1-.643.144,1.284,1.284,0,0,1-.567-.431,3.475,3.475,0,0,1-.479-.82q-.212-.492-.39-1.046T3.753-3.568Q3.609-4.129,3.5-4.607Zm7.834-2.516q.1-.328.226-.3t.321.314a7.321,7.321,0,0,1,.431.766q.239.479.513,1.032t.595,1.128a10.459,10.459,0,0,0,.67,1.053,4.149,4.149,0,0,0,.738.793,1.614,1.614,0,0,0,.8.369l1.094-5.66q.027-.232.212-.267a1.987,1.987,0,0,1,.362-.034q.615,0,.615.574,0,.3-.055.957t-.178,1.442q-.123.786-.3,1.613a11.765,11.765,0,0,1-.424,1.511,4.428,4.428,0,0,1-.567,1.121.892.892,0,0,1-.7.438,1.939,1.939,0,0,1-1.107-.376,4.847,4.847,0,0,1-1.032-.984,8.983,8.983,0,0,1-.889-1.36,13.559,13.559,0,0,1-.7-1.511A11.05,11.05,0,0,1,11.5-5.961,5.254,5.254,0,0,1,11.334-7.123Zm7.4,4.348a3.262,3.262,0,0,1,.4-1.579,4.15,4.15,0,0,1,1.046-1.258,5.13,5.13,0,0,1,1.463-.827,4.718,4.718,0,0,1,1.647-.3,1.259,1.259,0,0,1,.827.3,2.646,2.646,0,0,1,.608.731,3.867,3.867,0,0,1,.376.909,3.247,3.247,0,0,1,.13.834,3.205,3.205,0,0,1-.369,1.483A4.665,4.665,0,0,1,23.9-1.21a4.961,4.961,0,0,1-1.326.9A3.489,3.489,0,0,1,21.1.027,2.459,2.459,0,0,1,19.988-.2a1.962,1.962,0,0,1-.725-.6,2.564,2.564,0,0,1-.4-.889A4.412,4.412,0,0,1,18.73-2.775Zm1.162.137a2.789,2.789,0,0,0,.062.622,1.1,1.1,0,0,0,.219.458,1,1,0,0,0,.417.294,1.759,1.759,0,0,0,.643.1,2.071,2.071,0,0,0,1.012-.28,3.689,3.689,0,0,0,.909-.711A3.7,3.7,0,0,0,23.8-3.1a2.355,2.355,0,0,0,.246-1.012,3.085,3.085,0,0,0-.041-.479,1.946,1.946,0,0,0-.137-.479,1,1,0,0,0-.273-.369.674.674,0,0,0-.451-.15,1.364,1.364,0,0,0-.581.164,4.925,4.925,0,0,0-.7.424,6.937,6.937,0,0,0-.711.588q-.349.328-.636.656a3.885,3.885,0,0,0-.458.629A1.072,1.072,0,0,0,19.893-2.639Zm6.193-5.1a5.361,5.361,0,0,0-.055-.772A2.857,2.857,0,0,1,26-9.181a.723.723,0,0,1,.212-.472.98.98,0,0,1,.677-.178,4.767,4.767,0,0,1,.294.957q.144.643.28,1.477t.26,1.812q.123.978.226,1.962t.178,1.935q.075.95.116,1.729-.451.3-.725.041A1.954,1.954,0,0,1,27.07-.8,9.154,9.154,0,0,1,26.8-2.317q-.1-.9-.185-1.859t-.212-1.9A13.377,13.377,0,0,0,26.086-7.738Zm2.871,2.16q0-.082.007-.294t.007-.444q0-.232.007-.431t.007-.28a2.419,2.419,0,0,1,.226-.321.743.743,0,0,1,.273-.219.489.489,0,0,1,.314-.021.676.676,0,0,1,.349.273v.287q-.014.068-.055.321t-.1.554q-.055.3-.1.554a2.4,2.4,0,0,0-.048.321,4.825,4.825,0,0,0,.055.649q.055.39.157.813a7.522,7.522,0,0,0,.26.848,3.8,3.8,0,0,0,.376.759,2.418,2.418,0,0,0,.485.554.951.951,0,0,0,.622.219,1.322,1.322,0,0,0,.772-.232,2.22,2.22,0,0,0,.581-.6,3.54,3.54,0,0,0,.4-.834,7.7,7.7,0,0,0,.253-.937,8.628,8.628,0,0,0,.137-.909q.041-.437.041-.766a3.871,3.871,0,0,0-.048-.622q-.048-.294-.116-.581t-.116-.567a3.365,3.365,0,0,1-.048-.567.394.394,0,0,1,.185-.369.8.8,0,0,1,.417-.109.643.643,0,0,1,.465.171,1.2,1.2,0,0,1,.28.431,2.236,2.236,0,0,1,.137.595,6.529,6.529,0,0,1,.034.663q0,.328-.014.622t-.014.472a9.211,9.211,0,0,1-.068,1.053,8.1,8.1,0,0,1-.239,1.21,9.965,9.965,0,0,1-.424,1.224A4.815,4.815,0,0,1,33.8-1.019a3.05,3.05,0,0,1-.834.759,2,2,0,0,1-1.06.287,1.978,1.978,0,0,1-1.08-.294,2.614,2.614,0,0,1-.786-.779,5.049,5.049,0,0,1-.54-1.1,8.23,8.23,0,0,1-.335-1.23A11.561,11.561,0,0,1,29-4.573Q28.957-5.154,28.957-5.578Zm6.754,1.463a3.222,3.222,0,0,1,.253-1.2,4.3,4.3,0,0,1,.677-1.142,3.963,3.963,0,0,1,.978-.854,2.19,2.19,0,0,1,1.169-.342,1.9,1.9,0,0,1,.629.109,1.867,1.867,0,0,1,.567.314,1.644,1.644,0,0,1,.41.492,1.316,1.316,0,0,1,.157.643,1.671,1.671,0,0,1-.444-.055,3.9,3.9,0,0,1-.39-.13q-.191-.075-.376-.13a1.415,1.415,0,0,0-.4-.055,1.407,1.407,0,0,0-.909.28,2.015,2.015,0,0,0-.554.7,3.2,3.2,0,0,0-.28.909,5.957,5.957,0,0,0-.075.909q0,.068.007.26t.014.4q.007.212.014.4a1.947,1.947,0,0,0,.021.26,2.434,2.434,0,0,0,.294.506,1.035,1.035,0,0,0,.308.267.952.952,0,0,0,.355.109,4.3,4.3,0,0,0,.451.021,1.631,1.631,0,0,0,.622-.109,3.04,3.04,0,0,0,.5-.26,3.474,3.474,0,0,0,.438-.335,4.428,4.428,0,0,1,.431-.342,2.3,2.3,0,0,1,.492-.26,1.686,1.686,0,0,1,.608-.1,2.814,2.814,0,0,1-.239,1.189,2.575,2.575,0,0,1-.67.889A3.049,3.049,0,0,1,39.751-.2a3.893,3.893,0,0,1-1.265.2,1.733,1.733,0,0,1-1.155-.437,3.993,3.993,0,0,1-.875-1.073A5.7,5.7,0,0,1,35.9-2.857,4.912,4.912,0,0,1,35.711-4.115Zm6.727-1.627A2.417,2.417,0,0,1,42.451-6a.869.869,0,0,1,.055-.232.4.4,0,0,1,.13-.171.407.407,0,0,1,.253-.068q.137,0,.308.212a3.734,3.734,0,0,1,.349.533q.178.321.349.7t.3.7q.13.321.212.554a1.822,1.822,0,0,0,.1.246q.178-.479.4-1.039a5.531,5.531,0,0,1,.54-1.046,3.186,3.186,0,0,1,.766-.813,1.779,1.779,0,0,1,1.087-.328,1.875,1.875,0,0,1,.622.1,1.554,1.554,0,0,1,.52.3,1.536,1.536,0,0,1,.362.472,1.388,1.388,0,0,1,.137.629.437.437,0,0,1-.239.424,1.164,1.164,0,0,1-.54.123h-.137l-.588-.588a.056.056,0,0,1-.041-.014.151.151,0,0,1-.048-.007.151.151,0,0,0-.048-.007,1.007,1.007,0,0,0-.745.267,1.715,1.715,0,0,0-.4.656,3.241,3.241,0,0,0-.171.82q-.034.431-.034.786a2.886,2.886,0,0,0,.055.554q.055.28.123.547t.123.547a3.028,3.028,0,0,1,.055.581q0,.574-.615.574a1.051,1.051,0,0,1-.711-.362,5.39,5.39,0,0,1-.731-.923,11.609,11.609,0,0,1-.69-1.237q-.328-.677-.574-1.319t-.39-1.162A3.237,3.237,0,0,1,42.438-5.742ZM55.3-1.764q-.52.355-.9.636a5.957,5.957,0,0,1-.731.472,3.1,3.1,0,0,1-.759.287,4.369,4.369,0,0,1-.991.1A2.427,2.427,0,0,1,50.039-.95a2.909,2.909,0,0,1-.615-2.017,4.555,4.555,0,0,1,.137-1.08,5.656,5.656,0,0,1,.4-1.114A6.531,6.531,0,0,1,50.6-6.214a4.949,4.949,0,0,1,.834-.882,4.09,4.09,0,0,1,.991-.608,2.8,2.8,0,0,1,1.114-.226,3.239,3.239,0,0,1,1.545.485,2.493,2.493,0,0,1,.848,1,4.781,4.781,0,0,1,.4,1.354q.109.745.171,1.538t.157,1.586a5.018,5.018,0,0,0,.4,1.463,2.376,2.376,0,0,1-.335.636.241.241,0,0,1-.349.062,1.671,1.671,0,0,1-.444-.6Q55.672-.889,55.3-1.764ZM50.586-2.939A1.8,1.8,0,0,0,50.88-1.8a1.283,1.283,0,0,0,1.046.362A2.95,2.95,0,0,0,53-1.634a2.832,2.832,0,0,0,.9-.547,2.658,2.658,0,0,0,.615-.841,2.529,2.529,0,0,0,.232-1.094q0-.246.014-.69a4.753,4.753,0,0,0-.055-.882,2.1,2.1,0,0,0-.26-.759.626.626,0,0,0-.574-.321,2.5,2.5,0,0,0-1.312.362,3.787,3.787,0,0,0-1.039.923,4.493,4.493,0,0,0-.684,1.237A3.813,3.813,0,0,0,50.586-2.939Zm7.027,1.326a2.542,2.542,0,0,1,.4-1.408,4.318,4.318,0,0,1,.984-1.073,6.7,6.7,0,0,1,1.271-.779q.684-.321,1.271-.533t.984-.342q.4-.13.4-.212A9.008,9.008,0,0,0,62.87-6.9q-.048-.458-.1-.923t-.1-.923a8.744,8.744,0,0,1-.048-.909v-.889q.561-.205.8.041t.075.848q.055.3.15.943t.212,1.449q.116.807.246,1.7t.246,1.7q.116.813.2,1.449t.123.95A2.554,2.554,0,0,1,64.7-1.2q.014.2.021.424t.014.417q.007.191.007.273a3.9,3.9,0,0,1-.7-.041A.293.293,0,0,1,63.8-.287a1.024,1.024,0,0,1-.048-.355,2.191,2.191,0,0,0-.137-.643,8.215,8.215,0,0,1-.957.656,5.317,5.317,0,0,1-.9.417,4.631,4.631,0,0,1-.909.219,7.351,7.351,0,0,1-.978.062,4.58,4.58,0,0,1-.841-.075,2.112,2.112,0,0,1-.718-.267,1.455,1.455,0,0,1-.506-.52A1.607,1.607,0,0,1,57.613-1.613ZM58.8-1.9a.607.607,0,0,0,.1.355.859.859,0,0,0,.246.232.936.936,0,0,0,.321.13,1.706,1.706,0,0,0,.335.034,3.276,3.276,0,0,0,1.032-.185,3.88,3.88,0,0,0,1.025-.52,3.021,3.021,0,0,0,.779-.8,1.8,1.8,0,0,0,.308-1.012.877.877,0,0,0-.15-.588.771.771,0,0,0-.574-.164,3.123,3.123,0,0,0-1.019.205,5.54,5.54,0,0,0-1.121.547,3.687,3.687,0,0,0-.909.8A1.515,1.515,0,0,0,58.8-1.9Zm6.74-.875a3.262,3.262,0,0,1,.4-1.579,4.15,4.15,0,0,1,1.046-1.258,5.13,5.13,0,0,1,1.463-.827,4.718,4.718,0,0,1,1.647-.3,1.259,1.259,0,0,1,.827.3,2.646,2.646,0,0,1,.608.731,3.867,3.867,0,0,1,.376.909,3.247,3.247,0,0,1,.13.834,3.205,3.205,0,0,1-.369,1.483,4.665,4.665,0,0,1-.957,1.271,4.961,4.961,0,0,1-1.326.9,3.489,3.489,0,0,1-1.477.342A2.459,2.459,0,0,1,66.8-.2a1.962,1.962,0,0,1-.725-.6,2.564,2.564,0,0,1-.4-.889A4.412,4.412,0,0,1,65.543-2.775Zm1.162.137a2.789,2.789,0,0,0,.062.622,1.1,1.1,0,0,0,.219.458,1,1,0,0,0,.417.294,1.759,1.759,0,0,0,.643.1,2.071,2.071,0,0,0,1.012-.28,3.689,3.689,0,0,0,.909-.711,3.7,3.7,0,0,0,.649-.95,2.355,2.355,0,0,0,.246-1.012,3.085,3.085,0,0,0-.041-.479,1.946,1.946,0,0,0-.137-.479,1,1,0,0,0-.273-.369.674.674,0,0,0-.451-.15,1.364,1.364,0,0,0-.581.164,4.925,4.925,0,0,0-.7.424,6.936,6.936,0,0,0-.711.588q-.349.328-.636.656a3.884,3.884,0,0,0-.458.629A1.072,1.072,0,0,0,66.705-2.639ZM74.2-1.107q.615,0,.615.643a.962.962,0,0,1-.383.526.653.653,0,0,1-.431.1.637.637,0,0,1-.355-.2.579.579,0,0,1-.171-.369.567.567,0,0,1,.15-.4A1.031,1.031,0,0,1,74.2-1.107Z" transform="translate(48.895 75.703)" fill="#12263f"/>
    </g>
  </g>
</svg>
