<svg xmlns="http://www.w3.org/2000/svg" width="230.74" height="210.024" viewBox="0 0 230.74 210.024">
  <g id="Grupo_94250" data-name="Grupo 94250" transform="translate(-960.001 -3862)">
    <g id="Grupo_91879" data-name="Grupo 91879" transform="translate(909.471 3831.522)">
      <g id="Grupo_91877" data-name="Grupo 91877">
        <rect id="Rectángulo_38328" data-name="Rectángulo 38328" width="2.17" height="60.4" transform="translate(172.17 33.19)" fill="#cfd8dc"/>
        <path id="Trazado_181385" data-name="Trazado 181385" d="M172.18,32.78c18.22-8.63,27.47,10.4,44.91,2V68.25c-18.53,8.14-23.09-15.41-44.91-2Z" fill="#ef5438" fill-rule="evenodd"/>
      </g>
      <g id="Grupo_91878" data-name="Grupo 91878">
        <path id="Trazado_181386" data-name="Trazado 181386" d="M173.1,81.08l73.17,131.47H99.93Z" fill="#104c82" fill-rule="evenodd"/>
        <path id="Trazado_181387" data-name="Trazado 181387" d="M173.1,81.08l38.46,69.1L193.8,173.8,185,157.98l-13.22,23.73-17.54-31.53L144,165.16l-9.36-14.98Z" fill="#eceff1" fill-rule="evenodd"/>
      </g>
    </g>
    <g id="Grupo_91884" data-name="Grupo 91884" transform="translate(909.471 3831.522)">
      <g id="Grupo_91880" data-name="Grupo 91880">
        <rect id="Rectángulo_38329" data-name="Rectángulo 38329" width="14.47" height="65.56" transform="translate(212.85 167.34)" fill="#039be5"/>
        <rect id="Rectángulo_38330" data-name="Rectángulo 38330" width="14.47" height="82.67" transform="translate(236.13 150.23)" fill="#039be5"/>
        <rect id="Rectángulo_38331" data-name="Rectángulo 38331" width="14.47" height="102.62" transform="translate(259.42 130.28)" fill="#039be5"/>
      </g>
      <g id="Grupo_91881" data-name="Grupo 91881">
        <rect id="Rectángulo_38332" data-name="Rectángulo 38332" width="14.47" height="16.49" transform="translate(212.85 167.34)" fill="#c25257"/>
        <rect id="Rectángulo_38333" data-name="Rectángulo 38333" width="14.47" height="25.08" transform="translate(236.13 150.23)" fill="#c25257"/>
        <rect id="Rectángulo_38334" data-name="Rectángulo 38334" width="14.47" height="30.65" transform="translate(259.42 130.28)" fill="#c25257"/>
      </g>
      <g id="Grupo_91883" data-name="Grupo 91883">
        <path id="Trazado_181388" data-name="Trazado 181388" d="M205.45,198.58c3,1.19,6.06,2.58,9.21,4.11a36.83,36.83,0,0,0,33.74-.22c10.49-5.27,20.87-15.69,30.24-32.31l2.63,1.48c-9.68,17.17-20.51,28-31.52,33.52a39.74,39.74,0,0,1-36.4.24c-2.7-1.31-5.33-2.52-7.9-3.57Z" fill="#e4e7ec" fill-rule="evenodd"/>
        <g id="Grupo_91882" data-name="Grupo 91882">
          <path id="Trazado_181389" data-name="Trazado 181389" d="M213.08,198.69a4.87,4.87,0,1,1-4.87,4.87,4.87,4.87,0,0,1,4.87-4.87Z" fill="#fdd247" fill-rule="evenodd"/>
          <path id="Trazado_181390" data-name="Trazado 181390" d="M240.16,201.43a4.87,4.87,0,1,1-4.87,4.87,4.87,4.87,0,0,1,4.87-4.87Z" fill="#fdd247" fill-rule="evenodd"/>
          <path id="Trazado_181391" data-name="Trazado 181391" d="M268.43,183.85a4.87,4.87,0,1,1-4.87,4.87A4.87,4.87,0,0,1,268.43,183.85Z" fill="#fdd247" fill-rule="evenodd"/>
        </g>
      </g>
    </g>
    <g id="Grupo_91892" data-name="Grupo 91892" transform="translate(909.471 3831.522)">
      <g id="Grupo_91885" data-name="Grupo 91885">
        <path id="Trazado_181392" data-name="Trazado 181392" d="M157.46,171.2A47.58,47.58,0,1,1,93.4,150.58,47.58,47.58,0,0,1,157.46,171.2Z" fill="#02749e" fill-rule="evenodd"/>
        <path id="Trazado_181393" data-name="Trazado 181393" d="M151.18,174.41a40.54,40.54,0,1,1-54.56-17.56,40.54,40.54,0,0,1,54.56,17.56Z" fill="#fff" fill-rule="evenodd"/>
        <path id="Trazado_181394" data-name="Trazado 181394" d="M144.91,177.63a33.49,33.49,0,1,1-45.08-14.51A33.49,33.49,0,0,1,144.91,177.63Z" fill="#02749e" fill-rule="evenodd"/>
        <path id="Trazado_181395" data-name="Trazado 181395" d="M138.64,180.85a26.44,26.44,0,1,1-35.59-11.46,26.44,26.44,0,0,1,35.59,11.46Z" fill="#fff" fill-rule="evenodd"/>
        <path id="Trazado_181396" data-name="Trazado 181396" d="M132.37,184.07a19.39,19.39,0,1,1-26.1-8.4,19.39,19.39,0,0,1,26.1,8.4Z" fill="#02749e" fill-rule="evenodd"/>
        <circle id="Elipse_7603" data-name="Elipse 7603" cx="12.34" cy="12.34" r="12.34" transform="translate(98.305 188.232) rotate(-29.37)" fill="#fff"/>
        <path id="Trazado_181397" data-name="Trazado 181397" d="M119.82,190.5a5.29,5.29,0,1,1-7.12-2.29A5.29,5.29,0,0,1,119.82,190.5Z" fill="#02749e" fill-rule="evenodd"/>
      </g>
      <g id="Grupo_91891" data-name="Grupo 91891">
        <g id="Grupo_91889" data-name="Grupo 91889">
          <g id="Grupo_91886" data-name="Grupo 91886">
            <path id="Trazado_181398" data-name="Trazado 181398" d="M58.88,143.52l4.72,4.44-8.34,2.42-4.73-4.44Z" fill="#ffd600" fill-rule="evenodd"/>
            <path id="Trazado_181399" data-name="Trazado 181399" d="M68.78,135.96l-4.72-4.43-1.89,8.48,4.73,4.43Z" fill="#ffd600" fill-rule="evenodd"/>
          </g>
          <g id="Grupo_91887" data-name="Grupo 91887">
            <path id="Trazado_181400" data-name="Trazado 181400" d="M65.95,150.16l4.72,4.43-8.34,2.42-4.72-4.43Z" fill="#ffab00" fill-rule="evenodd"/>
            <path id="Trazado_181401" data-name="Trazado 181401" d="M75.85,142.6l-4.72-4.43-1.89,8.47,4.73,4.43Z" fill="#ffab00" fill-rule="evenodd"/>
          </g>
          <g id="Grupo_91888" data-name="Grupo 91888">
            <path id="Trazado_181402" data-name="Trazado 181402" d="M73.02,156.79l4.72,4.43-8.34,2.43-4.72-4.44Z" fill="#ffd600" fill-rule="evenodd"/>
            <path id="Trazado_181403" data-name="Trazado 181403" d="M82.92,149.23,78.2,144.8l-1.88,8.48,4.72,4.43Z" fill="#ffd600" fill-rule="evenodd"/>
          </g>
        </g>
        <g id="Grupo_91890" data-name="Grupo 91890">
          <path id="Trazado_181404" data-name="Trazado 181404" d="M56.91,141.68l56.9,53.37a2.46,2.46,0,0,0,3.54-3.18,2.533,2.533,0,0,0-.13-.22l-57-53.46c.64.67.42,2-.5,2.9A2.24,2.24,0,0,1,56.91,141.68Z" fill="#853672" fill-rule="evenodd"/>
          <path id="Trazado_181405" data-name="Trazado 181405" d="M117.22,191.65l-57-53.46a1.92,1.92,0,0,1,0,2.33l57.16,53.62a2.46,2.46,0,0,0,0-2.27,2.529,2.529,0,0,0-.16-.22Z" fill="#6f2e61" fill-rule="evenodd"/>
        </g>
        <path id="Trazado_181406" data-name="Trazado 181406" d="M56.81,141.59c.67.67,2,.44,2.92-.5s1.15-2.26.48-2.92-2-.44-2.92.5S56.14,140.92,56.81,141.59Z" fill="#a46797" fill-rule="evenodd"/>
      </g>
    </g>
  </g>
</svg>
