<svg xmlns="http://www.w3.org/2000/svg" width="604" height="438.58" viewBox="0 0 604 438.58">
  <g id="Grupo_94348" data-name="Grupo 94348" transform="translate(-810 -3105.253)">
    <rect id="Rect치ngulo_39754" data-name="Rect치ngulo 39754" width="604" height="438.58" transform="translate(810 3105.253)" fill="none"/>
    <path id="Trazado_190842" data-name="Trazado 190842" d="M350,426.59h-3v-2.35c4.18.06,8.37,0,12.46-.2l.11,2.35C356.43,426.52,353.19,426.59,350,426.59ZM334.4,426c-4.13-.29-8.35-.7-12.54-1.22l.29-2.34c4.15.52,8.33.93,12.42,1.22Zm37.77-.65-.26-2.34c4.17-.47,8.31-1.08,12.32-1.81l.42,2.31c-4.06.77-8.26,1.39-12.48,1.87ZM309.4,422.9c-4.08-.72-8.23-1.56-12.34-2.49l.52-2.29c4.07.92,8.19,1.75,12.23,2.47Zm87.6-2.1-.6-2.28c4.05-1.06,8.05-2.29,11.89-3.65l.79,2.22C405.15,418.47,401.08,419.72,397,420.8Zm-112.12-3.42c-4-1.1-8.06-2.32-12.06-3.61l.72-2.24q6,1.935,12,3.58Zm135.91-5-1-2.14a121.209,121.209,0,0,0,11-5.69l1.18,2a117.342,117.342,0,0,1-11.21,5.82ZM260.9,409.64c-3.91-1.46-7.85-3-11.71-4.63l.91-2.17c3.83,1.61,7.74,3.15,11.62,4.59Zm-23.21-9.74c-3.78-1.76-7.58-3.63-11.29-5.55l1.08-2.09c3.69,1.9,7.46,3.76,11.21,5.52Zm204.93-.18-1.37-1.91A114.681,114.681,0,0,0,450.9,390l1.57,1.75a115.811,115.811,0,0,1-9.85,7.97ZM215.34,388.35c-3.64-2.06-7.28-4.21-10.83-6.41l1.24-2c3.52,2.18,7.14,4.32,10.74,6.37Zm246.07-5.53-1.75-1.57a112.783,112.783,0,0,0,7.73-9.69c2.11-3,4.08-6.06,5.88-9.19l2,1.17c-1.84,3.2-3.85,6.35-6,9.38a115.76,115.76,0,0,1-7.86,9.9Zm-267.47-7.69q-3.75-2.52-7.47-5.16l-2.85-2.05L185,366c.93.68,1.88,1.36,2.83,2,2.45,1.75,4.93,3.46,7.41,5.12Zm-20.36-14.79c-3.29-2.58-6.57-5.26-9.75-7.95l1.52-1.79c3.15,2.67,6.41,5.32,9.68,7.89ZM481,352.23l-2.15-.94a115.009,115.009,0,0,0,4.32-11.62l2.25.7A117.409,117.409,0,0,1,481,352.23Zm-326.59-8.16c-3.09-2.83-6.15-5.75-9.11-8.68l1.65-1.67c2.94,2.91,6,5.81,9,8.62Zm334.15-16-2.3-.47c.81-4,1.44-8.13,1.88-12.28l2.33.25c-.47,4.26-1.1,8.43-1.93,12.54Zm-352-1.75c-2.86-3.07-5.68-6.22-8.39-9.38l1.78-1.53c2.69,3.13,5.49,6.26,8.33,9.31Zm-16.38-19.1c-2.61-3.3-5.15-6.68-7.58-10.06l1.91-1.37c2.41,3.35,4.93,6.7,7.51,10ZM491.19,303h-2.35v-2.11c0-3.39-.12-6.86-.36-10.32l2.35-.16q.36,5.265.36,10.48C491.21,301.56,491.2,302.27,491.19,303ZM105.43,286.82c-2.3-3.52-4.53-7.12-6.63-10.7l2-1.19c2.08,3.54,4.29,7.11,6.57,10.61Zm381.74-8.67c-.59-4.06-1.34-8.18-2.23-12.25l2.29-.51c.91,4.13,1.67,8.3,2.27,12.42Zm-394.48-13c-2-3.73-3.82-7.53-5.55-11.31l2.14-1c1.71,3.74,3.56,7.51,5.49,11.2Zm389.18-11.29c-1.13-3.91-2.42-7.9-3.83-11.86l2.22-.79c1.42,4,2.72,8,3.87,12ZM82.2,242.2c-1.54-3.92-3-7.91-4.27-11.86l2.24-.73c1.27,3.9,2.69,7.85,4.22,11.73Zm391.32-11.86c-1.59-3.77-3.32-7.59-5.15-11.36l2.11-1c1.85,3.81,3.6,7.67,5.21,11.47ZM74.39,218.24c-1-4.09-2-8.24-2.74-12.31l2.31-.44c.75,4,1.67,8.12,2.71,12.16Zm388.23-10.33c-2-3.59-4.09-7.22-6.29-10.78l2-1.24c2.22,3.6,4.35,7.26,6.35,10.88ZM69.77,193.45c-.47-4.22-.78-8.46-.92-12.59l2.35-.08c.14,4.08.44,8.25.91,12.41Zm379.76-6.79c-2.32-3.41-4.76-6.83-7.26-10.16l1.89-1.41c2.51,3.36,5,6.81,7.32,10.24ZM71.32,168.34,69,168.22c.23-4.23.65-8.47,1.25-12.58l2.33.34C72,160,71.54,164.18,71.32,168.34Zm363.25-1.67c-2.61-3.19-5.34-6.39-8.1-9.5l1.75-1.56c2.79,3.13,5.54,6.35,8.17,9.57ZM418,148c-2.88-3-5.86-6-8.85-8.82l1.62-1.69c3,2.88,6,5.87,8.92,8.87ZM75,143.79l-2.28-.57a120.3,120.3,0,0,1,3.7-12.1l2.21.81A118.128,118.128,0,0,0,75,143.79Zm325-13c-3.09-2.74-6.29-5.47-9.51-8.1l1.49-1.82c3.24,2.65,6.47,5.4,9.58,8.16ZM83.45,120.52l-2.11-1a111.311,111.311,0,0,1,6.22-11l2,1.26a111.149,111.149,0,0,0-6.11,10.74Zm297.15-5.61c-2.79-2.11-5.63-4.2-8.46-6.21l-1.63-1.15,1.35-1.93,1.65,1.16c2.84,2,5.71,4.13,8.51,6.26Zm-20.45-14.35c-3.48-2.26-7-4.47-10.61-6.59l1.21-2c3.58,2.13,7.17,4.36,10.68,6.64Zm-263.36-.9L95,98.18a117.72,117.72,0,0,1,8.49-9.39l1.66,1.68a111.254,111.254,0,0,0-8.36,9.19ZM338.68,87.78c-3.63-2-7.36-3.92-11.08-5.76l1-2.11c3.74,1.86,7.49,3.81,11.16,5.81Zm-224.3-5.54-1.46-1.84a118.924,118.924,0,0,1,10.3-7.34l1.26,2a118.044,118.044,0,0,0-10.1,7.18ZM316.3,76.7c-3.81-1.7-7.68-3.34-11.5-4.86l.87-2.19c3.85,1.54,7.75,3.19,11.59,4.9Zm-181-7.8-1.06-2.1c3.69-1.88,7.57-3.62,11.52-5.19l.87,2.19c-3.92,1.54-7.73,3.25-11.36,5.1Zm157.8-1.44c-3.93-1.38-7.92-2.68-11.87-3.87l.68-2.26q6,1.815,12,3.91Zm-23.89-7.22c-4-1-8.13-2-12.17-2.79l.47-2.3c4.07.83,8.2,1.78,12.28,2.81Zm-110.87-.53-.68-2.25c4-1.19,8.09-2.26,12.23-3.15l.5,2.29c-4.08.89-8.13,1.93-12.05,3.11Zm86.42-4.46c-4.14-.64-8.31-1.17-12.38-1.58l.24-2.34c4.11.41,8.32,1,12.49,1.59Zm-62.11-.85-.34-2.32c4.09-.59,8.31-1,12.54-1.36l.18,2.34c-4.18.32-8.35.77-12.38,1.34Zm37.29-1.65c-4.16-.2-8.34-.27-12.46-.22V50.18c4.16,0,8.39,0,12.6.22Z" transform="translate(810 3105.253)" fill="#fff"/>
    <path id="Trazado_190843" data-name="Trazado 190843" d="M224.05,417.59c-4.23,0-8.46-.18-12.59-.43l.14-2.35c4.09.25,8.29.4,12.47.43Zm12.59-.2-.1-2.35c4.12-.16,8.32-.43,12.46-.8l.21,2.35c-4.21.41-8.41.63-12.57.8Zm-37.74-1.34c-4.2-.48-8.39-1.1-12.47-1.81l.41-2.32c4,.71,8.18,1.32,12.34,1.8Zm62.82-.84-.31-2.33c4.08-.55,8.23-1.19,12.34-1.92l.41,2.32C270,414,265.83,414.66,261.72,415.21Zm-87.63-3.54c-4.12-1-8.2-2.13-12.16-3.37l.71-2.25c3.9,1.23,7.94,2.35,12,3.33Zm112.42-.85-.51-2.29c4-.89,8.11-1.88,12.14-2.94l.6,2.27c-4.06,1.07-8.18,2.07-12.23,2.96Zm24.33-6.41-.69-2.25c4-1.21,8-2.52,11.87-3.89l.77,2.22c-3.94,1.38-7.96,2.7-11.95,3.92ZM150,404.08c-4-1.58-7.84-3.3-11.55-5.12l1-2.11c3.65,1.8,7.48,3.49,11.38,5Zm184.56-8-.86-2.19c3.84-1.51,7.73-3.11,11.55-4.78l.94,2.15c-3.81,1.74-7.73,3.34-11.59,4.86Zm-207.2-3.21c-3.62-2.19-7.16-4.55-10.51-7l1.4-1.89c3.29,2.42,6.76,4.74,10.33,6.9Zm230.27-6.85-1-2.12q3.32-1.59,6.62-3.27,2.3-1.16,4.56-2.35l1.09,2.08q-2.28,1.2-4.59,2.37c-2.19,1.17-4.41,2.27-6.64,3.33Zm-250.58-8.17a121.87,121.87,0,0,1-8.94-9l1.75-1.57a121.181,121.181,0,0,0,8.77,8.79ZM379.9,374.3l-1.17-2c3.62-2.08,7.23-4.24,10.72-6.42l1.25,2c-3.48,2.2-7.11,4.37-10.76,6.46ZM401.29,361,400,359.08c3.44-2.34,6.87-4.77,10.2-7.21l1.39,1.89C408.22,356.23,404.76,358.67,401.29,361ZM90.22,359.08a116,116,0,0,1-6.79-10.67l2-1.15a114,114,0,0,0,6.66,10.45Zm331.33-13-1.47-1.84c3.27-2.6,6.5-5.29,9.61-8l1.54,1.78c-3.14,2.76-6.39,5.47-9.68,8.09ZM77.84,337.05a116.584,116.584,0,0,1-4.3-11.91l2.26-.67A112.576,112.576,0,0,0,80,336.13Zm362.73-7.43L439,327.91c3-2.84,6-5.79,8.9-8.75l1.68,1.64C446.63,323.79,443.62,326.75,440.57,329.62Zm-370-16.78a121.278,121.278,0,0,1-1.65-12.55l2.34-.18a122.359,122.359,0,0,0,1.62,12.3Zm387.55-1.25L456.37,310c2.77-3.11,5.49-6.31,8.08-9.51l1.83,1.48C463.67,305.22,460.92,308.45,458.12,311.59ZM474,292l-1.9-1.39c2.47-3.37,4.86-6.82,7.11-10.25l2,1.29C478.89,285.14,476.47,288.62,474,292ZM70.9,287.67H68.55c.08-4.13.35-8.38.81-12.61l2.34.26c-.47,4.14-.7,8.31-.82,12.37ZM487.79,271l-2-1.18c2.09-3.6,4.1-7.29,6-10.95l2.09,1.06C491.94,263.6,489.91,267.32,487.79,271ZM73.56,263l-2.31-.45c.8-4.06,1.78-8.19,2.91-12.28l2.27.63C75.31,254.94,74.34,259,73.56,263Zm425.6-14.54-2.16-.93c1.65-3.83,3.18-7.73,4.55-11.59l2.22.78c-1.39,3.93-2.94,7.88-4.61,11.75ZM80.2,239l-2.2-.75c1.39-3.89,3-7.84,4.64-11.73l2.15.94C83.11,231.3,81.57,235.2,80.2,239Zm427.35-14.35-2.27-.62c1.11-4,2.06-8.11,2.83-12.11l2.31.44c-.78,4.11-1.74,8.24-2.87,12.33ZM90.1,216.19,88,215.12c1.88-3.7,3.92-7.42,6-11.06l2,1.19C94,208.85,92,212.53,90.1,216.19Zm422.19-16.28-2.34-.25c.44-4.16.69-8.33.75-12.4h2.35C513,191.43,512.73,195.68,512.29,199.91Zm-409.62-5.25-2-1.3c2.28-3.46,4.71-6.94,7.21-10.33l1.89,1.39c-2.44,3.37-4.84,6.81-7.1,10.24Zm407.6-19.81a122.269,122.269,0,0,0-1.67-12.29l2.31-.44a121.541,121.541,0,0,1,1.7,12.54Zm-392.82-.29-1.82-1.48c2.61-3.21,5.36-6.44,8.17-9.58l1.76,1.57c-2.79,3.12-5.56,6.31-8.11,9.49ZM134.09,156l-1.69-1.65c2.92-3,5.94-5.94,9-8.81l1.6,1.72C140,150.05,137,153,134.09,156Zm18.2-17.1-1.54-1.78c3.14-2.71,6.4-5.41,9.69-8l1.46,1.84c-3.26,2.52-6.49,5.2-9.61,7.89Zm19.54-15.55-1.39-1.9c3.35-2.45,6.81-4.88,10.29-7.24l1.32,2c-3.46,2.24-6.9,4.66-10.22,7.09Zm20.7-14-1.24-2c3.52-2.19,7.15-4.36,10.8-6.45l1.17,2c-3.63,2.1-7.26,4.24-10.73,6.41Zm21.69-12.39-1.09-2.09q2-1.06,4.11-2.12,3.57-1.8,7.14-3.52l1,2.12c-2.37,1.14-4.74,2.3-7.1,3.5-1.34.65-2.71,1.36-4.06,2.07Zm249.5-5.12c-3.28-2.43-6.74-4.77-10.31-6.94l1.22-2c3.63,2.21,7.16,4.59,10.49,7.06ZM236.77,86.12,235.84,84c3.83-1.67,7.75-3.28,11.64-4.8l.85,2.19C244.47,82.87,240.58,84.47,236.77,86.12Zm205.74-7.26c-3.66-1.81-7.48-3.52-11.35-5.07l.87-2.18c3.93,1.57,7.81,3.3,11.53,5.15ZM260.05,77l-.77-2.22c4-1.38,8-2.69,12-3.9l.69,2.25C268,74.37,264,75.67,260.05,77ZM284,69.76l-.6-2.27c4.07-1.07,8.19-2.06,12.24-2.94l.5,2.3C292.07,67.72,288,68.71,284,69.76Zm135.49-.17c-3.89-1.24-7.93-2.37-12-3.36l.56-2.29c4.11,1,8.2,2.16,12.14,3.41ZM308.35,64.43l-.41-2.32c4.12-.72,8.31-1.36,12.44-1.9l.31,2.33C316.59,63.07,312.44,63.71,308.35,64.43Zm86.9-.78c-4-.72-8.18-1.33-12.33-1.82l.28-2.34c4.19.5,8.38,1.12,12.46,1.85ZM333.1,61.19l-.2-2.34c4.19-.36,8.42-.62,12.57-.78l.09,2.35C341.45,60.58,337.26,60.84,333.1,61.19Zm37.4-.49c-4.09-.25-8.29-.41-12.47-.45V57.9c4.22,0,8.45.2,12.59.46Z" transform="translate(810 3105.253)" fill="#5aa5d1"/>
    <g id="Grupo_94102" data-name="Grupo 94102" transform="translate(810 3105.253)">
      <path id="Trazado_190844" data-name="Trazado 190844" d="M55,107.86,88.3,339.18c1.6,11.11,11.72,20.14,22.59,20.14h338.6c10.88,0,18-9,15.9-20.14L421.77,107.86c-2-10.48-12.11-19-22.63-19H71.28C60.75,88.89,53.44,97.38,55,107.86Z" fill="#1565ab"/>
      <path id="Trazado_190845" data-name="Trazado 190845" d="M115.67,346.66,78.88,96.47H406.14l46.71,250.19Z" fill="#fff"/>
      <g id="Grupo_94101" data-name="Grupo 94101">
        <path id="Trazado_190846" data-name="Trazado 190846" d="M295.44,156.05l18.88,109.73H128.38l-8.04-53.62,48.72-39.76,46.69,34.59Z" fill="#9ad7f5"/>
        <path id="Trazado_190847" data-name="Trazado 190847" d="M163.49,134.57H119.7a13.22,13.22,0,0,1-12.64-10.95h0a9.2,9.2,0,0,1,9.32-10.93h43.68a13.3,13.3,0,0,1,12.69,10.93h0a9.13,9.13,0,0,1-9.26,10.95Z" fill="#9ad7f5"/>
        <path id="Trazado_190848" data-name="Trazado 190848" d="M222.12,134.57H195.64a13.37,13.37,0,0,1-12.74-10.95h0a9.1,9.1,0,0,1,9.23-10.93h26.41a13.43,13.43,0,0,1,12.77,10.93h0a9.07,9.07,0,0,1-9.19,10.95Z" fill="#9ad7f5"/>
        <path id="Trazado_190849" data-name="Trazado 190849" d="M280.76,134.57H254.27a13.48,13.48,0,0,1-12.81-10.95h0c-1-6,3.09-10.93,9.14-10.93H277a13.54,13.54,0,0,1,12.84,10.93h0C290.9,129.66,286.83,134.57,280.76,134.57Z" fill="#9ad7f5"/>
        <path id="Trazado_190850" data-name="Trazado 190850" d="M357.92,194.61H334.18a13.78,13.78,0,0,1-13-11.12h0c-1.07-6.13,3-11.09,9.1-11.09H354a13.83,13.83,0,0,1,13,11.09h0C368.1,189.63,364,194.61,357.92,194.61Z" fill="#9ad7f5"/>
        <g id="Grupo_94099" data-name="Grupo 94099">
          <path id="Trazado_190851" data-name="Trazado 190851" d="M169.06,172.4l16.13,93.14-3.03.47Z" fill="#008eb0"/>
          <path id="Trazado_190852" data-name="Trazado 190852" d="M215.75,206.99l11.01,58.54-3.03.49Z" fill="#008eb0"/>
          <path id="Trazado_190853" data-name="Trazado 190853" d="M259.61,178.96l16.04,86.56-3.03.51Z" fill="#008eb0"/>
          <path id="Trazado_190854" data-name="Trazado 190854" d="M120.34,212.16l4.52,26.73,4.39,26.76-.87-.75,46.49-.42,46.48-.14c15.5,0,31-.15,46.49-.06l46.48.15L313,266c-3.14-18.29-6-36.63-9-54.94s-5.8-36.66-8.56-55q5.31,27.33,10.33,54.71c3.33,18.26,6.74,36.5,9.88,54.79l.28,1.57h-1.61l-46.48.14c-15.5.09-31,0-46.49,0l-46.48-.14-46.49-.42h-.76l-.1-.74L123.86,239Z" fill="#008eb0"/>
        </g>
        <path id="Trazado_190855" data-name="Trazado 190855" d="M386.48,159.85H324.64a9.44,9.44,0,0,1-8.93-7.6l-5.59-32a6.16,6.16,0,0,1,6.24-7.52h61.49a9.48,9.48,0,0,1,8.94,7.52l5.89,32a6.15,6.15,0,0,1-6.2,7.6Z" fill="#9ad7f5"/>
        <path id="Trazado_190856" data-name="Trazado 190856" d="M405.85,265.78H343.23a9.62,9.62,0,0,1-9.06-7.8l-7.51-43a6.27,6.27,0,0,1,6.3-7.7h62.19a9.62,9.62,0,0,1,9.05,7.7l7.91,43C412.9,262.29,410.1,265.78,405.85,265.78Z" fill="#9ad7f5"/>
        <path id="Trazado_190857" data-name="Trazado 190857" d="M376.31,183.49c1.11,6.14,7,11.12,13.08,11.12s10.16-5,9-11.12-7-11.09-13.08-11.09S375.19,177.36,376.31,183.49Z" fill="#9ad7f5"/>
        <path id="Trazado_190858" data-name="Trazado 190858" d="M373.46,325.69H219.33a9.54,9.54,0,0,1-9-7.91l-4.3-26.9c-.69-4.33,2.2-7.84,6.46-7.84H366.22a9.61,9.61,0,0,1,9,7.84l4.59,26.9C380.6,322.15,377.74,325.69,373.46,325.69Z" fill="#ffa726"/>
        <path id="Trazado_190859" data-name="Trazado 190859" d="M151.85,283h16.34c11.53,0,22.37,9.51,24.21,21.27h0c1.85,11.79-6,21.38-17.63,21.38H158.35c-11.59,0-22.42-9.59-24.19-21.38h0C132.4,292.55,140.32,283,151.85,283Z" fill="#9ad7f5"/>
        <g id="Grupo_94100" data-name="Grupo 94100">
          <path id="Trazado_190860" data-name="Trazado 190860" d="M245.23,305.12h-4L244.2,314h-5l-8-24.22h9a13.14,13.14,0,0,1,7.25,1.91,9.94,9.94,0,0,1,4.12,5.41,6.75,6.75,0,0,1,.3,4.13,4.59,4.59,0,0,1-2.37,2.64l8.52,9.89.08.24h-5.36Zm-5.32-4h4a3,3,0,0,0,2.59-1,2.77,2.77,0,0,0,.16-2.63,5.46,5.46,0,0,0-1.87-2.7,5.37,5.37,0,0,0-3.31-1h-4Z" fill="#12263f"/>
          <path id="Trazado_190861" data-name="Trazado 190861" d="M269,314.32a11.94,11.94,0,0,1-7.25-2.43,12.87,12.87,0,0,1-4.63-6.47L257,305a10.36,10.36,0,0,1-.56-4.84,4.89,4.89,0,0,1,1.88-3.3,6.48,6.48,0,0,1,4-1.15,10.17,10.17,0,0,1,6.58,2.33,13.789,13.789,0,0,1,4.32,6.6l.65,2H262.39a6.84,6.84,0,0,0,2.34,2.83,5.7,5.7,0,0,0,3.32,1.06c1.86,0,3.08-.67,3.68-2l3.24,2.65a4.5,4.5,0,0,1-2.14,2.38A7.831,7.831,0,0,1,269,314.32Zm-5.45-14.79a2.11,2.11,0,0,0-2,1,4,4,0,0,0-.22,2.77H268l-.13-.38a5.26,5.26,0,0,0-1.69-2.48,4.15,4.15,0,0,0-2.61-.91Z" fill="#12263f"/>
          <path id="Trazado_190862" data-name="Trazado 190862" d="M292.31,305.15q1.38,4.17.33,6.67c-.71,1.66-2.13,2.5-4.27,2.5a7.75,7.75,0,0,1-5-1.9l2.82,8.49h-4.81L273.07,296h4.46l.75,1.76a3.92,3.92,0,0,1,3.86-2.09,8.59,8.59,0,0,1,6,2.46,15.77,15.77,0,0,1,4.1,6.78Zm-4.92-.35a9.89,9.89,0,0,0-2.18-3.87,4.13,4.13,0,0,0-3-1.36c-1.5,0-2.35.57-2.53,1.73l2.44,7.36a4.65,4.65,0,0,0,3.74,1.78c2.25,0,2.78-1.88,1.53-5.64Z" fill="#12263f"/>
          <path id="Trazado_190863" data-name="Trazado 190863" d="M294.43,304.82a10.071,10.071,0,0,1-.55-4.77,4.78,4.78,0,0,1,1.89-3.25,6.82,6.82,0,0,1,4.12-1.14,11.05,11.05,0,0,1,6.69,2.23,13.54,13.54,0,0,1,4.57,6.05l.45,1.23c.91,2.76.88,5-.11,6.65s-2.78,2.5-5.37,2.5a11,11,0,0,1-7-2.5A14,14,0,0,1,294.5,305Zm4.92.34a9.6,9.6,0,0,0,2.27,3.93,4.52,4.52,0,0,0,3.21,1.35,2.17,2.17,0,0,0,2.28-1.34c.36-.89.21-2.32-.44-4.29a9.43,9.43,0,0,0-2.27-3.89,4.53,4.53,0,0,0-3.22-1.39,2.16,2.16,0,0,0-2.28,1.38C298.56,301.82,298.71,303.24,299.35,305.16Z" fill="#12263f"/>
          <path id="Trazado_190864" data-name="Trazado 190864" d="M323.12,300.5a14,14,0,0,0-1.77-.14c-1.82,0-2.81.62-3,1.85L322.29,314h-4.81l-6-18h4.54l.85,2.14a3,3,0,0,1,3.18-2.47,5.94,5.94,0,0,1,1.57.21Z" fill="#12263f"/>
          <path id="Trazado_190865" data-name="Trazado 190865" d="M329.05,291.56l1.47,4.43h3.08l1.17,3.53h-3.08l3,9a3.18,3.18,0,0,0,.86,1.43,2.5,2.5,0,0,0,1.61.43,6.766,6.766,0,0,0,1.37-.12l1.21,3.65a8.45,8.45,0,0,1-2.76.43c-3.38,0-5.66-1.7-6.86-5.11l-3.21-9.69h-2.63L323.09,296h2.62l-1.46-4.43Z" fill="#12263f"/>
          <path id="Trazado_190866" data-name="Trazado 190866" d="M350.65,314.32a12,12,0,0,1-7.26-2.43,12.87,12.87,0,0,1-4.63-6.47l-.16-.47a10.361,10.361,0,0,1-.56-4.84,4.89,4.89,0,0,1,1.88-3.3,6.48,6.48,0,0,1,4-1.15A10.15,10.15,0,0,1,350.5,298a13.79,13.79,0,0,1,4.32,6.6l.65,2H344a6.92,6.92,0,0,0,2.34,2.83,5.7,5.7,0,0,0,3.33,1.06c1.85,0,3.07-.67,3.67-2l3.24,2.65a4.46,4.46,0,0,1-2.14,2.38,7.82,7.82,0,0,1-3.79.8Zm-5.46-14.79a2.11,2.11,0,0,0-2,1,4,4,0,0,0-.22,2.77h6.69l-.13-.38a5.26,5.26,0,0,0-1.69-2.48A4.15,4.15,0,0,0,345.19,299.53Z" fill="#12263f"/>
        </g>
      </g>
    </g>
    <g id="Grupo_94106" data-name="Grupo 94106" transform="translate(810 3105.253)">
      <g id="Grupo_94104" data-name="Grupo 94104">
        <rect id="Rect치ngulo_39755" data-name="Rect치ngulo 39755" width="86.07" height="21.07" transform="matrix(0.198, -0.98, 0.98, 0.198, 133.689, 349.275)" fill="#5aa5d1"/>
        <g id="Grupo_94103" data-name="Grupo 94103">
          <path id="Trazado_190867" data-name="Trazado 190867" d="M133.68,349.28l1.55-7.65a26.44,26.44,0,0,1,20.65,4.17l-1.54,7.65Z" fill="#428fbd"/>
          <path id="Trazado_190868" data-name="Trazado 190868" d="M149.34,271.7l1.37-6.78,20.66,4.16L170,275.87a22.94,22.94,0,0,1-20.66-4.17Z" fill="#428fbd"/>
        </g>
        <path id="Trazado_190869" data-name="Trazado 190869" d="M142.26,244.91A20.33,20.33,0,0,1,154,232.24l-4.17,20.68,11.94,10.53,15.08-5.07L181,237.69a20.34,20.34,0,0,1,5.9,16.23c-1,11.64-12.76,23-27.29,20.06S138.72,256,142.26,244.91Z" fill="#5aa5d1"/>
        <path id="Trazado_190870" data-name="Trazado 190870" d="M183.14,240.21q-1.74,10.18-3.67,20.32l-.05.23-.22.09-17.93,6.43-.3.1-.24-.21-14-12.88-.18-.17.05-.23q2.16-10.09,4.5-20.15-1.74,10.17-3.67,20.32l-.13-.4,14.19,12.72-.54-.1,18-6.22-.27.31Q180.8,250.27,183.14,240.21Z" fill="#428fbd"/>
        <path id="Trazado_190871" data-name="Trazado 190871" d="M158.34,280.36h0a5.28,5.28,0,0,1,4.14,6.23l-9.54,47.28a5.29,5.29,0,0,1-6.23,4.14h0a5.29,5.29,0,0,1-4.14-6.23l9.54-47.29A5.29,5.29,0,0,1,158.34,280.36Z" fill="#428fbd"/>
        <path id="Trazado_190872" data-name="Trazado 190872" d="M114.08,366.87a23.46,23.46,0,0,0,6.8,18.72l4.82-23.86,17.4-5.85L156.87,368l-4.82,23.86a23.49,23.49,0,0,0,13.54-14.61c4.08-12.85-3.29-30.15-20-33.54S115.3,353.44,114.08,366.87Z" fill="#5aa5d1"/>
        <path id="Trazado_190873" data-name="Trazado 190873" d="M118.44,382.68q2-11.74,4.23-23.44l.06-.26.26-.1,20.69-7.41.34-.13.27.25,16.18,14.86.21.19-.06.26q-2.48,11.66-5.18,23.25,2-11.75,4.23-23.44l.15.46L143.47,352.5l.61.12-20.77,7.17.31-.36Q121.13,371.09,118.44,382.68Z" fill="#428fbd"/>
      </g>
      <path id="Trazado_190874" data-name="Trazado 190874" d="M67.13,223.2c-1.16,3.19-3.62,6.37-13.87,14.54L44,227C55.89,217.9,64.18,210.5,67.13,223.2Z" fill="#ffa726"/>
      <path id="Trazado_190875" data-name="Trazado 190875" d="M57.64,222.28l-2.62,14.04,4.14-3.35Z" fill="#ffa726"/>
      <path id="Trazado_190876" data-name="Trazado 190876" d="M53.26,237.74,43,246.18s6.44,7.71,19.31,17.63c-5.53,7.68-39.56-9.46-30.58-23.63,3.65-5.76,7.53-8.72,12.29-13.16Z" fill="#f79885"/>
      <g id="Grupo_94105" data-name="Grupo 94105">
        <path id="Trazado_190877" data-name="Trazado 190877" d="M75.28,201.47c-1-1.69-3.49-6.89-2.19-11.14s11.46-3.84,13.71-2c4.08,3.35,2,18.62-.43,19.42C85.75,208,79.88,208.89,75.28,201.47Z" fill="#f79885"/>
        <path id="Trazado_190878" data-name="Trazado 190878" d="M85.71,193.43s-.15,6.14,3.28,6c0,0,1,7.38-2.62,8.81-2.88,1.14-5.44-1-5.44-1s6.44,1.86,3.34-11.49Z" fill="#ffa726"/>
        <path id="Trazado_190879" data-name="Trazado 190879" d="M74.63,202.3c.43,4.74-1.88,14-1.88,14,1.38,5.17,6.19,1.08,10,.9,0,0,1.9-8.76,1-13.81C82,193.37,73.86,193.73,74.63,202.3Z" fill="#f79885"/>
        <path id="Trazado_190880" data-name="Trazado 190880" d="M85.71,193.43s5.58-3.37,3.44-7.89-6.18-.63-6.18-.63-5-4.07-8.09-2.79-.71,4.21-.71,4.21-5,.78-4.76,4,2.29,4.28,3.5,7.43-.29,5.33,5.22,5C86.24,202.26,85.71,193.43,85.71,193.43Z" fill="#ffecb1"/>
      </g>
      <path id="Trazado_190881" data-name="Trazado 190881" d="M104.59,383.12H101.8v8.76h12.4l-.65-1.73S107.08,388.86,104.59,383.12Z" fill="#22365b"/>
      <path id="Trazado_190882" data-name="Trazado 190882" d="M103.17,266.85s4.93,92.39,3.57,117.75H99.33s-4.64-7.88-10.44-28.24c-3.79-13.31-7.52-50.65-9.91-88Z" fill="#008eb0"/>
      <path id="Trazado_190883" data-name="Trazado 190883" d="M63.89,383.12H61.22l-.43,8.76h9.38l-.65-1.73S66.06,389.65,63.89,383.12Z" fill="#22365b"/>
      <path id="Trazado_190884" data-name="Trazado 190884" d="M51.74,358.67c2,17.2,7.09,25.93,7.09,25.93h7.41c.48-17,19.61-117.82,19.61-117.82l-27,1.55h0C53.71,300.91,50.45,347.57,51.74,358.67Z" fill="#008eb0"/>
      <path id="Trazado_190885" data-name="Trazado 190885" d="M103.69,273.26c-15.55,10.4-46.54,1.15-46.54,1.15,2-23,.71-57.16.71-57.16,21.44-6.7,38.79-2.75,38.79-2.75C104.55,233.67,103.69,273.26,103.69,273.26Z" fill="#ffa726"/>
      <path id="Trazado_190886" data-name="Trazado 190886" d="M96.81,218.51c3.24,1.16,4.87,11.44,4.87,11.44l.33,17C91.57,242.25,86.38,218.83,96.81,218.51Z" fill="#ffa726"/>
      <path id="Trazado_190887" data-name="Trazado 190887" d="M96.6,214.5c3.19,1.16,7,5.64,13.42,17.05l-12.61,8.63C90.24,229.51,86.16,214.83,96.6,214.5Z" fill="#ffa726"/>
      <path id="Trazado_190888" data-name="Trazado 190888" d="M110,231.55,117.91,245a221.518,221.518,0,0,0,29.42-11.84c.65,9.14-28,30-38.3,21.37-5.23-4.38-8-9-11.62-14.39Z" fill="#f79885"/>
      <path id="Trazado_190889" data-name="Trazado 190889" d="M146.66,236.52a1.46,1.46,0,0,0,1.88-1s2.14,2.29,2.62,2.1c.75-.33-1.1-2-.76-2.17s1.57,1.81,2.43,2a2.54,2.54,0,0,0,2.34-.78c.56-.71-.65-4.48-2-5.11s-4.28.64-5.27,1.23C140.92,237,145.93,236.38,146.66,236.52Z" fill="#f79885"/>
    </g>
    <g id="Grupo_94107" data-name="Grupo 94107" transform="translate(810 3105.253)">
      <path id="Trazado_190890" data-name="Trazado 190890" d="M408.28,278.25s-24.78,82.23,9.05,97.18,94.43-52.33,94.43-52.33Z" fill="#f0786a"/>
      <path id="Trazado_190891" data-name="Trazado 190891" d="M286.51,291.82s-13.18,11.86,6.05,24.89c12.19,8.26,25.21,11.21,40.77,11.21,25.18,0,76.53-19.57,76.53-19.57s23.6,7.08,24.79,13.57-35.42,46-33.06,62,19.48,10.67,30.1,8,40.14-22.83,51.35-22.49,41.9,2.82,52.53-32.95,7.67-48.16,7.67-48.16-83.22-58-121.58-48.77S351.43,313.07,286.51,291.82Z" fill="#f79885"/>
      <path id="Trazado_190892" data-name="Trazado 190892" d="M286.51,291.82a8.78,8.78,0,0,0-.91,5.25,7.37,7.37,0,0,0,2.79,4.19,28.21,28.21,0,0,0,9.64,4.58c3.39.88,7.21,1.26,10-.5a6.2,6.2,0,0,0,2.79-3.92,10.94,10.94,0,0,0-.45-5.34,9.43,9.43,0,0,1,1.65,5.48,7,7,0,0,1-3,5.24,10.3,10.3,0,0,1-5.77,1.79,20.11,20.11,0,0,1-5.81-.76,25.161,25.161,0,0,1-10.15-5.4,8,8,0,0,1-2.7-5.25,8.44,8.44,0,0,1,1.92-5.36Z" fill="#f0786a"/>
      <path id="Trazado_190893" data-name="Trazado 190893" d="M543.24,288.28l-37,82.43,47.6,34.71s46-41.4,39.74-102.78Z" fill="#12263f"/>
      <path id="Trazado_190894" data-name="Trazado 190894" d="M538.81,371.88c4.33,2.5,6.69,6.51,5.28,9s-6.07,2.4-10.39-.1-6.7-6.51-5.28-8.95S534.48,369.38,538.81,371.88Z" fill="#008eb0"/>
    </g>
    <g id="Grupo_94108" data-name="Grupo 94108" transform="translate(810 3105.253)">
      <path id="Trazado_190895" data-name="Trazado 190895" d="M12.51,288.35V276.48l-3.74,2.11v-2.21l3.91-2.28h2.94v14.25Z" fill="#7fb8db"/>
      <path id="Trazado_190896" data-name="Trazado 190896" d="M26.08,305.67V293.8l-3.74,2.11V293.7l3.91-2.28H29.2v14.25Z" fill="#7fb8db"/>
      <path id="Trazado_190897" data-name="Trazado 190897" d="M30.22,281.25a9.34,9.34,0,0,1-1.36,5.49,4.7,4.7,0,0,1-4.07,1.86q-5.35,0-5.36-7.35a12.36,12.36,0,0,1,.59-4.2,4.56,4.56,0,0,1,1.76-2.39,5.5,5.5,0,0,1,3.1-.77,4.6,4.6,0,0,1,4.05,1.83A9.67,9.67,0,0,1,30.22,281.25Zm-3.13,0a17.35,17.35,0,0,0-.21-3.08,3.07,3.07,0,0,0-.67-1.57,1.79,1.79,0,0,0-1.35-.48,2,2,0,0,0-1.43.48,2.94,2.94,0,0,0-.68,1.58,17.15,17.15,0,0,0-.21,3.07,16.08,16.08,0,0,0,.22,3.05,3,3,0,0,0,.68,1.58,2.16,2.16,0,0,0,2.74,0,3.27,3.27,0,0,0,.7-1.61,16.89,16.89,0,0,0,.21-3.02Z" fill="#7fb8db"/>
      <path id="Trazado_190898" data-name="Trazado 190898" d="M20.5,298.78a9.27,9.27,0,0,1-1.36,5.49,4.71,4.71,0,0,1-4.07,1.87q-5.35,0-5.36-7.36a12.55,12.55,0,0,1,.59-4.19,4.64,4.64,0,0,1,1.76-2.4,5.58,5.58,0,0,1,3.1-.77,4.57,4.57,0,0,1,4.05,1.84,9.61,9.61,0,0,1,1.29,5.52Zm-3.12,0a16.29,16.29,0,0,0-.22-3.08,3.07,3.07,0,0,0-.67-1.57,1.79,1.79,0,0,0-1.35-.48,1.92,1.92,0,0,0-1.43.49,2.91,2.91,0,0,0-.68,1.57,17.229,17.229,0,0,0-.21,3.07,16.27,16.27,0,0,0,.22,3.06,3,3,0,0,0,.69,1.58,1.86,1.86,0,0,0,1.36.47,1.79,1.79,0,0,0,1.37-.5,3.22,3.22,0,0,0,.7-1.61,16.66,16.66,0,0,0,.22-3Z" fill="#7fb8db"/>
    </g>
    <g id="Grupo_94110" data-name="Grupo 94110" transform="translate(810 3105.253)">
      <g id="Grupo_94109" data-name="Grupo 94109">
        <path id="Trazado_190899" data-name="Trazado 190899" d="M12.12,165.45l1-3.36,10.72-1.39-.67,2.38-8.72,1.21,6.82,5.56-.67,2.37Z" fill="#9ad7f5"/>
        <path id="Trazado_190900" data-name="Trazado 190900" d="M21,174.22l7.18-15.15,2.22.62-7.14,15.17Z" fill="#9ad7f5"/>
        <path id="Trazado_190901" data-name="Trazado 190901" d="M27.44,174.15l.66-2.37,8.71-1.2L30,165l.67-2.38,8.43,6.77-.94,3.36Z" fill="#9ad7f5"/>
      </g>
      <path id="Trazado_190902" data-name="Trazado 190902" d="M25.76,187.7a19.81,19.81,0,1,1,19.08-14.45h0A19.84,19.84,0,0,1,25.76,187.7Zm0-38.23a18.47,18.47,0,1,0,5,.69,18.109,18.109,0,0,0-4.99-.69Z" fill="#9ad7f5"/>
    </g>
    <g id="Grupo_94111" data-name="Grupo 94111" transform="translate(810 3105.253)">
      <path id="Trazado_190903" data-name="Trazado 190903" d="M484,108.87a9.37,9.37,0,0,1,2.45,9l18.86,18.86a4.773,4.773,0,0,1-6.75,6.75l-18.9-18.88a9.39,9.39,0,0,1-11.69-10l5.65,5.64,6.63-1.79L482,111.8l-5.64-5.64a9.36,9.36,0,0,1,7.64,2.71Zm1.43,12.67-2,2,13.9,13.9,2-2Z" fill="#ffa726"/>
      <path id="Trazado_190904" data-name="Trazado 190904" d="M495.17,118.94a.81.81,0,0,0-1.15,0l-1.43,1.44a.8.8,0,0,0,0,1.14l1.8,1.8-19.21,19.12,1.67,1.66,19.2-19.1,1.81,1.8a.81.81,0,0,0,1.14,0l1.43-1.44a.8.8,0,0,0,0-1.14.81.81,0,0,1,0-1.14l.34-.34a.81.81,0,0,1,1.14,0,.8.8,0,0,0,1.14,0l9.13-9.21a.81.81,0,0,0,0-1.14l-5.27-5.27a.8.8,0,0,0-1.14,0l-9.13,9.21a.81.81,0,0,0,0,1.15.81.81,0,0,1,0,1.14l-.33.33a.81.81,0,0,1-1.14-.01Z" fill="#ffa726"/>
      <path id="Trazado_190905" data-name="Trazado 190905" d="M490.2,155.3a30.44,30.44,0,1,1,30.44-30.44A30.44,30.44,0,0,1,490.2,155.3Zm0-58.37a27.94,27.94,0,1,0,27.94,27.937A27.94,27.94,0,0,0,490.2,96.93Z" fill="#ffa726"/>
    </g>
  </g>
</svg>
