<svg xmlns="http://www.w3.org/2000/svg" xmlns:xlink="http://www.w3.org/1999/xlink" width="1200" height="421.902" viewBox="0 0 1200 421.902">
  <defs>
    <clipPath id="clip-path">
      <path id="Trazado_189718" data-name="Trazado 189718" d="M971.841,0A171.973,171.973,0,0,0,806.15,217.559l-25.272,8.4,57.8,28.948,28.973-57.8-26.76,8.9a135.048,135.048,0,0,1-4.38-34.167c0-74.621,60.708-135.33,135.33-135.33s135.33,60.709,135.33,135.33c0,73.8-59.381,133.983-132.872,135.3v.031H0v36.513H973.7l.025-.011a171.885,171.885,0,0,0,65.009-330.164A170.793,170.793,0,0,0,971.841,0Z" transform="translate(0 0)" fill="none"/>
    </clipPath>
    <linearGradient id="linear-gradient" y1="1.061" x2="0.001" y2="1.061" gradientUnits="objectBoundingBox">
      <stop offset="0" stop-color="#36dac9"/>
      <stop offset="1" stop-color="#039be5"/>
    </linearGradient>
  </defs>
  <g id="Grupo_94317" data-name="Grupo 94317" transform="translate(-180 -1299)">
    <g id="Grupo_93766" data-name="Grupo 93766" transform="translate(180 1356.229)">
      <path id="Trazado_189717" data-name="Trazado 189717" d="M1091.845,324.722h0Zm0-34.267H829.967v34.267h261.878v20.986l49.671-38.291-49.671-38.288Z" transform="translate(58.485 18.964)" fill="#5c80fc"/>
      <g id="Grupo_93767" data-name="Grupo 93767" transform="translate(0 0)">
        <g id="Grupo_93766-2" data-name="Grupo 93766" clip-path="url(#clip-path)">
          <rect id="Rectángulo_39533" data-name="Rectángulo 39533" width="1143.684" height="343.686" transform="translate(0 0)" fill="url(#linear-gradient)"/>
        </g>
      </g>
    </g>
    <g id="cf11_scrum_slide" data-name="cf11_scrum slide" transform="translate(935 1299)">
      <g id="Capa_1" data-name="Capa 1">
        <rect id="Rectángulo_39520" data-name="Rectángulo 39520" width="400" height="400" fill="none"/>
        <g id="Grupo_93765" data-name="Grupo 93765" transform="translate(105.427 98.564)">
          <g id="Grupo_93758" data-name="Grupo 93758">
            <path id="Trazado_189634" data-name="Trazado 189634" d="M116.876,114.655c-2.8-3.507-1.973-6.253.2-8.067s17.907-8.44,19.12-8.507c4-.24,7.107,4.613,4.08,9.187-.813,1.227-12.627,8.627-14.787,9.587S120.156,118.775,116.876,114.655Z" transform="translate(-67.063 -65.873)" fill="#ffa17b"/>
            <path id="Trazado_189635" data-name="Trazado 189635" d="M113.884,116.309c.413,1.333,2.413,6.467,10.533,1.92a87,87,0,0,1,8.76-3.707,15.04,15.04,0,0,0,0-8c-1.48-4.52-2.107-6.667-2.107-6.667s-11.813-1.027-13.333,1.333C117.337,101.776,112.764,112.376,113.884,116.309Z" transform="translate(-67.525 -65.353)" fill="#6a0000"/>
            <path id="Trazado_189636" data-name="Trazado 189636" d="M135.9,111.17c-2.44.987-4.88.8-7.493-4.427S121.74,88.45,121.74,88.45l4-1.6s8.307,8.947,9.893,11.72S142.313,108.557,135.9,111.17Z" transform="translate(-64.847 -69.614)" fill="#ffa17b"/>
            <path id="Trazado_189637" data-name="Trazado 189637" d="M123.971,94.687c-1.147-1.627-2.907-2.413-2.893-3.88a58.159,58.159,0,0,1,1.907-7.587,4.827,4.827,0,0,0-.773-3.24c-.907-1.107-1.64-1.787-1.333-2.4s3.547,2.467,3.853,3.56,2.16,10.453,2.16,10.453Z" transform="translate(-65.158 -72.731)" fill="#ffa17b"/>
            <path id="Trazado_189638" data-name="Trazado 189638" d="M90.73,218.127s3.08,5.68,2.587,6.907a5.947,5.947,0,0,1-5.76,2.453C85.13,227.113,81.7,224.1,81.1,223.9c-1.333-.44.253-8,.253-8Z" transform="translate(-78.571 -26.598)" fill="#121212"/>
            <path id="Trazado_189639" data-name="Trazado 189639" d="M115.955,84.62s-4,12.413-4.84,12.827c-2.787,1.333-11.48.653-13.92,3.533-2.947,3.493,2.907,27.053,2.667,33.333s-5.933,16.947-6.853,22.973,18,13.333,18.667,13.333,6.813-5.693,8-7.653-.347-14.32.693-18.12,6.453-18.187,6.867-19.013a27.44,27.44,0,0,0,2.56-11.8c.12-1.333.733-3.333.333-4.293-.813-1.907-7.093-5.827-7-6.667s2.12-12,2.12-12Z" transform="translate(-74.435 -70.358)" fill="#ffba90"/>
            <path id="Trazado_189640" data-name="Trazado 189640" d="M110.943,94.24l9.253,9.573,2.667-3.88s6.667.56,7.133,2.387-.093,9.587-.12,10.933a60.172,60.172,0,0,1-3.293,12.133c-1.08,2.88-2.067,6.813-3.88,11.72-1.547,4.2-2.4,13.333-2.4,13.333s-4.267.173-10.867-.16a99.318,99.318,0,0,1-15.707-1.867c-1.467-1.213,4.267-14.667,4.347-16s-3.507-28.52-2.88-31.427a6.067,6.067,0,0,1,5.08-4.893C102.81,95.56,110.943,94.24,110.943,94.24Z" transform="translate(-74.264 -67.151)" fill="#900000"/>
            <path id="Trazado_189641" data-name="Trazado 189641" d="M101.987,95.42s-8.253,2.04-2.667,9.48c2.44,3.213,4.733,15.12,7.28,16.72,9.093,5.693-1.48,21.333-2.667,23.053a7.853,7.853,0,0,0-1.2,4l-9.88-1.133c-3.067.6,5.68-15.72,5.333-19.093s-3.2-25.64-2.573-28A6.747,6.747,0,0,1,101.987,95.42Z" transform="translate(-74.694 -66.758)" fill="#6a0000"/>
            <path id="Trazado_189642" data-name="Trazado 189642" d="M119.543,94.917l-10.08-7.027-2.053,6.533,2.88,3.013Z" transform="translate(-69.624 -69.268)" fill="#ffa17b"/>
            <g id="Grupo_93755" data-name="Grupo 93755" transform="translate(37.389)">
              <path id="Trazado_189643" data-name="Trazado 189643" d="M126.836,79.094c-2.253-3.24-10.053-7.507-15.387-2.947s-4.773,10.387-3.32,14.24a14.093,14.093,0,0,0,5.467,7.08c.613.453,6.507,2.907,7.827,2.773.907-.093,2.933-6.067,3.173-5.987a1.133,1.133,0,0,0,1.147-.627c.227-.707.44-5.333.72-5.693S129.409,82.8,126.836,79.094Z" transform="translate(-107.105 -73.845)" fill="#ffba90"/>
              <path id="Trazado_189644" data-name="Trazado 189644" d="M127.923,82.279s-4.08-3.693-11.107.293c-1.507.867-.24,6.253-.653,6.667s-3.813-4.6-3.773-4c.413,6-2.133,8.68-2.667,8.6-1.573-.24-4.573-9.333-.747-15.133a10.96,10.96,0,0,1,12.413-4.253C122.963,75.106,127.856,76.6,127.923,82.279Z" transform="translate(-107.112 -73.923)" fill="#9f3820"/>
              <path id="Trazado_189645" data-name="Trazado 189645" d="M113.741,84.378c.147,1.92-.147,4.387-1.187,4.453s-1.987-1.427-2.12-3.333.573-3.52,1.613-3.587S113.594,82.471,113.741,84.378Z" transform="translate(-106.01 -71.262)" fill="#ffba90"/>
            </g>
            <g id="Grupo_93756" data-name="Grupo 93756" transform="translate(28.004 182.179)">
              <rect id="Rectángulo_39521" data-name="Rectángulo 39521" width="7.4" height="1.373" transform="translate(1.449 9.75)" fill="#121212"/>
              <path id="Trazado_189646" data-name="Trazado 189646" d="M101.8,210.588a13.2,13.2,0,0,0-1.72,5.187c-.107,1.467.76,4.533,1.72,4.533a71.406,71.406,0,0,1,9.013.507c2.893.387,4,2.04,11.333,2.027,2.16,0,5.96-.133,5.96-1.013,0-3.827-7.08-2.467-9.333-4.533-5.68-5.24-9.467-6.507-9.467-6.507a66.159,66.159,0,0,0-7.507-.2Z" transform="translate(-100.073 -210.557)" fill="#121212"/>
            </g>
            <path id="Trazado_189647" data-name="Trazado 189647" d="M106.585,135.26s-9.853,9.853-10.307,14.147,3.693,18.027,5.173,28.827,2.373,12.987,2,15.533-3.253,12.88-3.16,19.773c.12,8-.307,24.467-.307,24.467s2.147,1.68,7.667,1.653a12,12,0,0,0,6.667-2.547s2.227-40.333,2.667-44.573c.293-2.747,2.533-21.667,3.213-37.107.227-4.96-.92-19.16-.92-21.213Z" transform="translate(-73.346 -53.824)" fill="#121212"/>
            <path id="Trazado_189648" data-name="Trazado 189648" d="M114.957,99.923l-.213,2.747-4.893-5Z" transform="translate(-68.811 -66.008)" fill="#6a0000"/>
            <path id="Trazado_189649" data-name="Trazado 189649" d="M113.52,102.17l1.787-3,1.107,1.467Z" transform="translate(-67.587 -65.508)" fill="#6a0000"/>
            <path id="Trazado_189650" data-name="Trazado 189650" d="M96.48,134.51A145.118,145.118,0,0,0,90.987,150.6c-1.573,6.453-3.427,39.84-4,42.987s-2.533,12.733-4,22.213-2.427,28.533-2.427,28.533l12.147,1.907s7.24-40,8.387-46.227S114.28,149.2,114.28,149.2l1.48-14.333Z" transform="translate(-78.574 -53.728)" fill="#2c2c2c"/>
            <path id="Trazado_189651" data-name="Trazado 189651" d="M96.873,161.82c-1.027,4.28-4,33.333-4.24,34.96s-7.747,46.16-8.093,48.213l-4-.627s.907-19.04,2.427-28.533,3.48-19.08,4-22.213,2.413-36.533,4-42.987A145.12,145.12,0,0,1,96.46,134.54l10.667.32S97.887,157.513,96.873,161.82Z" transform="translate(-78.581 -53.718)" fill="#121212"/>
            <path id="Trazado_189652" data-name="Trazado 189652" d="M92.47,134.6l19.813.333c1.12,0,8.467-.693,8.467-.693l.147,2.96s-7.12.587-10.533.587S91.79,137,91.79,137Z" transform="translate(-74.831 -53.818)" fill="#411417"/>
            <rect id="Rectángulo_39522" data-name="Rectángulo 39522" width="4.747" height="3.413" rx="0.62" transform="translate(35.373 80.942)" fill="#802816"/>
            <path id="Trazado_189653" data-name="Trazado 189653" d="M105.3,94.99l2.813-2.2,8.36,8.76-2.547,3.133Z" transform="translate(-70.327 -67.634)" fill="#ad0000"/>
            <path id="Trazado_189654" data-name="Trazado 189654" d="M114.86,99.64,116.5,103l1.147-2.8-1.467-2.44Z" transform="translate(-67.141 -65.978)" fill="#ad0000"/>
            <path id="Trazado_189655" data-name="Trazado 189655" d="M109.787,98.124c-2.493-3.76-6.28-2.893-9.733-.307S79.227,119.831,79.2,121.244s4.24,6.347,6.2,5.853,19.36-15.36,21.813-18S112.707,102.538,109.787,98.124Z" transform="translate(-79.027 -66.702)" fill="#ffba90"/>
            <path id="Trazado_189656" data-name="Trazado 189656" d="M109.517,101.772c0,1.72-.667,5.72-3.293,7.68-3.707,2.787-12.907,10.813-12.907,10.813a16,16,0,0,1-5.76-4.573,14.56,14.56,0,0,1-3.187-7.12s14.173-11.747,17.72-12.893a6.067,6.067,0,0,1,7.427,6.093Z" transform="translate(-77.304 -66.723)" fill="#900000"/>
            <path id="Trazado_189657" data-name="Trazado 189657" d="M80.31,113.969c-4,2.867,2.667,10.587,6.093,14.2s13.56,14.387,13.56,14.387l4.12-3.48a95.574,95.574,0,0,0-14.147-23.52C89.07,114.476,84.417,111.036,80.31,113.969Z" transform="translate(-79.071 -60.96)" fill="#ffba90"/>
            <g id="Grupo_93757" data-name="Grupo 93757" transform="translate(19.679 75.182)">
              <path id="Trazado_189658" data-name="Trazado 189658" d="M99.688,142.421h0a.96.96,0,0,0,.347-1.333l-2.027-3.533a.96.96,0,0,0-1.333-.36h0a.933.933,0,0,0-.347,1.333l2.027,3.533a.947.947,0,0,0,1.333.36Z" transform="translate(-93.048 -128.061)" fill="#ffba90"/>
              <path id="Trazado_189659" data-name="Trazado 189659" d="M100.874,141.862h0a.96.96,0,0,0,.36-1.333l-2.027-3.547a.96.96,0,0,0-1.333-.347h0a.96.96,0,0,0-.36,1.333l2.027,3.547a.96.96,0,0,0,1.333.347Z" transform="translate(-92.647 -128.248)" fill="#ffba90"/>
              <path id="Trazado_189660" data-name="Trazado 189660" d="M102.063,141.249h0a.973.973,0,0,0,.36-1.333l-2.027-3.533a.973.973,0,0,0-1.333-.36h0a.947.947,0,0,0-.347,1.333l2.027,3.547a.96.96,0,0,0,1.32.347Z" transform="translate(-92.25 -128.449)" fill="#ffba90"/>
              <path id="Trazado_189661" data-name="Trazado 189661" d="M103.124,140.542h0a.96.96,0,0,0,.36-1.333l-2.027-3.507a.96.96,0,0,0-1.333-.347h0a.96.96,0,0,0-.36,1.333l2.027,3.547a.96.96,0,0,0,1.333.307Z" transform="translate(-91.897 -128.675)" fill="#ffba90"/>
              <path id="Trazado_189662" data-name="Trazado 189662" d="M96.843,130.31a65.65,65.65,0,0,1,6.227,5.053,41.442,41.442,0,0,1,2.453,5.92s-2.253-.493-3.187.227-3.173,2.813-3.173,2.813a29.041,29.041,0,0,1-4-5.04,20.906,20.906,0,0,1-1.333-3.92Z" transform="translate(-93.83 -130.31)" fill="#ffba90"/>
            </g>
          </g>
          <g id="Grupo_93761" data-name="Grupo 93761" transform="translate(58.034 29.426)">
            <g id="Grupo_93759" data-name="Grupo 93759" transform="translate(11.472 56.876)">
              <rect id="Rectángulo_39523" data-name="Rectángulo 39523" width="4.08" height="50.773" transform="translate(3.587 51)" fill="#6a6a6a"/>
              <rect id="Rectángulo_39524" data-name="Rectángulo 39524" width="3.92" height="50.773" transform="translate(46.653 51)" fill="#6a6a6a"/>
              <path id="Trazado_189663" data-name="Trazado 189663" d="M139.29,181.2l-2.093.053-1.707-36.16,2.093-.053Z" transform="translate(-129.77 -136.52)" fill="#6a6a6a"/>
              <path id="Trazado_189664" data-name="Trazado 189664" d="M166.423,181.253l-2.093-.053,1.68-36.16,2.093.053Z" transform="translate(-120.157 -136.52)" fill="#6a6a6a"/>
              <path id="Trazado_189665" data-name="Trazado 189665" d="M181.08,178.473H134.347a3.147,3.147,0,0,1-3.147-3.147h0a3.147,3.147,0,0,1,3.147-3.147H181.08a3.147,3.147,0,0,1,3.147,3.147h0A3.147,3.147,0,0,1,181.08,178.473Z" transform="translate(-131.2 -127.473)" fill="#2c2c2c"/>
              <rect id="Rectángulo_39525" data-name="Rectángulo 39525" width="48.84" height="18.733" rx="1.66" transform="translate(2.52)" fill="#2c2c2c"/>
            </g>
            <g id="Grupo_93760" data-name="Grupo 93760">
              <path id="Trazado_189666" data-name="Trazado 189666" d="M166.1,135.058c-1.947-2.48-.627-6.667,4-10.227a112.706,112.706,0,0,1,9.493-6.32c1.24-.88,8.293-6.773,10.413-8s4.813-1.333,6.32.693c1.267,1.667-.173,5.947-3.013,9.107S171.3,141.724,166.1,135.058Z" transform="translate(-108.385 -91.448)" fill="#ffba90"/>
              <path id="Trazado_189667" data-name="Trazado 189667" d="M153.349,135.058c1.933-2.48.613-6.667-4-10.227a110.455,110.455,0,0,0-9.493-6.32c-1.24-.88-8.28-6.773-10.413-8s-4.813-1.333-6.32.693c-1.333,1.667.187,5.947,3.027,9.107S148.136,141.724,153.349,135.058Z" transform="translate(-122.584 -91.448)" fill="#ffba90"/>
              <path id="Trazado_189668" data-name="Trazado 189668" d="M123.135,117.627c1.16,2.293,3.32,3.547,9.947.6s21.107-11.747,21.107-11.747l-1.88-3.68s-14.507,2.8-18.12,4.267S120.121,111.667,123.135,117.627Z" transform="translate(-122.596 -93.724)" fill="#ffba90"/>
              <path id="Trazado_189669" data-name="Trazado 189669" d="M174.451,149.767c3.147-7.933,10.893-21.333,6.92-24-5.173-3.427-20.427-6.187-20.427-6.187v.253s-15.56.413-21.08,3.267c-4.227,2.187,2.12,17.08,4.387,25.333.547,1.973.4,10.6-.267,18.293-.16,1.893-1.6,10.667-1.52,14.24,0,1.08,11.187,8.413,14.667,8.773v-.267c3.52,0,16.44-5.973,16.573-7.053.467-3.587-.64-12.413-.6-14.32C173.291,160.353,173.691,151.66,174.451,149.767Z" transform="translate(-117.313 -88.131)" fill="#ffba90"/>
              <path id="Trazado_189670" data-name="Trazado 189670" d="M164.647,120.443c-.267-1.6-.72-9.467-.72-9.467l-5.187-.28v.253l-5.187-.28s-1.333,7.773-1.733,9.333-4.84,3.72-4.84,3.72l11.04.6v-.267l11.04.6S164.913,122.017,164.647,120.443Z" transform="translate(-114.468 -91.101)" fill="#ffba90"/>
              <path id="Trazado_189671" data-name="Trazado 189671" d="M164.42,118.2c-.2-2.413-.4-5.84-.467-6.907l-.32-.36-4.893-.253v.253l-5.187-.28s-1.333,7.773-1.733,9.333-4.84,3.72-4.84,3.72h.52l10.667-2.24a44.879,44.879,0,0,0,6.293-3.307Z" transform="translate(-114.468 -91.107)" fill="#ffa17b"/>
              <path id="Trazado_189672" data-name="Trazado 189672" d="M152.63,127.067a17.76,17.76,0,0,0-5.613-5.24,111.906,111.906,0,0,1-10.667-7.307,8.173,8.173,0,0,0-6.147,3.573,26.665,26.665,0,0,0-3.253,5.44s15.68,11.76,16.84,12.133S149.683,131.253,152.63,127.067Z" transform="translate(-121.145 -89.817)" fill="#c4ddff"/>
              <path id="Trazado_189673" data-name="Trazado 189673" d="M168.109,109.477c-.387,6.853-5.973,13.333-10.373,13.147-4.2-.24-9.2-7.373-8.8-14.24s5-12.187,10.293-11.88S168.5,102.61,168.109,109.477Z" transform="translate(-113.824 -95.827)" fill="#ffba90"/>
              <path id="Trazado_189674" data-name="Trazado 189674" d="M149.2,109.922c-.387-.773-1.64-4-1.24-5.44a27.84,27.84,0,0,1,2.867-5.333c.613-.907,5.733-3.107,6.48-3.133a20.266,20.266,0,0,1,4.293.253c1.547.333,4.227,1.547,4.773,2.827s2.013,2.8,2.467,3.827a13.813,13.813,0,0,1,1.027,4c-.147.36-1.013,3.44-1.093,3.68a5.558,5.558,0,0,1-.56.92s-2.213-6.667-2.24-7.32-13.093-1.56-13.92-1.173S149.2,109.922,149.2,109.922Z" transform="translate(-114.168 -95.993)" fill="#9f3820"/>
              <path id="Trazado_189675" data-name="Trazado 189675" d="M149.952,212.233l-9.213-.933a78.179,78.179,0,0,0-7.827,6.307,6.76,6.76,0,0,0-2.08,5.733s7.8,2.04,11.107,0a76.092,76.092,0,0,1,8-4.08Z" transform="translate(-119.867 -57.557)"/>
              <path id="Trazado_189676" data-name="Trazado 189676" d="M143.44,158.42l-7.72,12.947-.48,6.333h22.853l17.107-.547,3.147-5.28-4.387-13.44Z" transform="translate(-118.381 -75.184)" fill="#001e3e"/>
              <path id="Trazado_189677" data-name="Trazado 189677" d="M134.61,172.393l2.32,56.16h14.2l1.333-56.16s-2.12-7.173-9.493-7.173C136.69,165.22,134.61,172.393,134.61,172.393Z" transform="translate(-118.591 -72.917)" fill="#002957"/>
              <path id="Trazado_189678" data-name="Trazado 189678" d="M143.033,165.22h0c-6.333,0-8.413,7.173-8.413,7.173l2.32,56.16h6.107Z" transform="translate(-118.588 -72.917)" fill="#001e3e"/>
              <path id="Trazado_189679" data-name="Trazado 189679" d="M158.53,212.9l9.2-.92a75.746,75.746,0,0,1,7.827,6.293,6.747,6.747,0,0,1,2.093,5.733s-7.813,2.04-11.12,0a76.482,76.482,0,0,0-8-4.08Z" transform="translate(-110.618 -57.331)"/>
              <path id="Trazado_189680" data-name="Trazado 189680" d="M173.56,173.023,171.24,229.2H156.973l-1.333-56.173s2.12-7.173,9.493-7.173C171.467,165.85,173.56,173.023,173.56,173.023Z" transform="translate(-111.581 -72.707)" fill="#002957"/>
              <path id="Trazado_189681" data-name="Trazado 189681" d="M164.6,165.9c-6.92.36-8.96,7.107-8.96,7.107l1.333,56.173H164.6Z" transform="translate(-111.581 -72.691)" fill="#001e3e"/>
              <path id="Trazado_189682" data-name="Trazado 189682" d="M182.64,126.193c-.453-1.333-4.32-2.347-7.707-3.6-2.987-1.107-5.64-2.44-5.64-2.44l-8.693,4.36-8.16-5.333s-2.787,1.04-5.867,1.827c-3.507.88-7.4,1.56-8,2.747s4.227,25.187,4.813,27.24-2.347,16.56-.827,20.867l15.467.76h0l15.12-.36c1.64-4.747.973-17.853,1.773-19.827S183.893,129.7,182.64,126.193Z" transform="translate(-117.288 -88.264)" fill="#c4ddff"/>
              <path id="Trazado_189683" data-name="Trazado 189683" d="M161.77,169.5c-1.427-.947-3.587-1.907-4.893-2.76s0-3.627.08-5.08,4.12-4.08,6.867-5.013,7.467-.453,8.6-2.333-1.72-3.76-2.987-3.8-9.333-2.6-10.667-2.453-10.933.907-12.453-.307-8.627-23.64-8.627-23.64c1.533,7.507,5.573,23.813,5.973,25.107.653,2.027-2.493,16.853-.84,21.12l16.4,1.12h0l14.16-.773s-2.093-.573-3.44-1.027S163.2,170.443,161.77,169.5Z" transform="translate(-117.565 -86.621)" fill="#aaceff"/>
              <path id="Trazado_189684" data-name="Trazado 189684" d="M145.133,109.633c1.747-.827,3.613-.653,4.293-1.893a57.89,57.89,0,0,0,2-7.32,4.84,4.84,0,0,1,2.2-2.36c1.333-.507,2.24-.733,2.28-1.333s-4.173.387-4.947,1.173-6.8,7.8-6.8,7.8Z" transform="translate(-115.408 -95.81)" fill="#ffba90"/>
              <path id="Trazado_189685" data-name="Trazado 189685" d="M196.283,117.627c-1.16,2.293-3.32,3.547-9.947.6S165.23,106.48,165.23,106.48l1.88-3.68s14.48,2.8,18.147,4.24S199.323,111.667,196.283,117.627Z" transform="translate(-108.385 -93.724)" fill="#ffba90"/>
              <path id="Trazado_189686" data-name="Trazado 189686" d="M165.33,127.067a17.76,17.76,0,0,1,5.573-5.24,111.907,111.907,0,0,0,10.667-7.307,8.173,8.173,0,0,1,6.147,3.573,27.348,27.348,0,0,1,3.267,5.44S172.85,137,171.69,137.373,165.677,131.373,165.33,127.067Z" transform="translate(-108.351 -89.817)" fill="#c4ddff"/>
              <path id="Trazado_189687" data-name="Trazado 189687" d="M169.343,109.633c-1.747-.827-3.613-.653-4.293-1.893a57.9,57.9,0,0,1-2-7.32,4.693,4.693,0,0,0-2.2-2.36c-1.333-.507-2.227-.733-2.28-1.333s4.173.387,4.96,1.173,6.787,7.8,6.787,7.8Z" transform="translate(-110.605 -95.81)" fill="#ffba90"/>
            </g>
          </g>
          <g id="Grupo_93762" data-name="Grupo 93762" transform="translate(136.383 4.639)">
            <path id="Trazado_189688" data-name="Trazado 189688" d="M206.987,105.364c2.32,1.333,1.987,5.093-.52,8.68s-19.44,19.267-20.853,19.36-4.667-1.493-4.213-3.48,12.667-17.333,15.24-19.907S203.961,103.684,206.987,105.364Z" transform="translate(-181.358 -68.221)" fill="#ffa17b"/>
            <path id="Trazado_189689" data-name="Trazado 189689" d="M212.907,210.877a9.333,9.333,0,0,0,1.64,4,3.88,3.88,0,0,1,.107,3.587c-1.427,1.52-3.2,1.107-4.96,2.373s-4.253,5.547-5.787,6.027-5.053.547-5.333-.173,3.24-3.64,3.24-3.64c5.107-7.187,5.507-10.44,5.507-10.44S212.881,210.584,212.907,210.877Z" transform="translate(-175.624 -32.921)" fill="#ffa17b"/>
            <path id="Trazado_189690" data-name="Trazado 189690" d="M202.048,222.42s-1,.96-.813,1.227,1.853.12,2.253-.12a43.707,43.707,0,0,0,9.333-7.92,5.867,5.867,0,0,0,1.04-2.867,4.627,4.627,0,0,1,1.547,3.68,4.774,4.774,0,0,1-.56,1.44,40.34,40.34,0,0,1-4.373,2.973c-1.76,1.267-4,5.56-5.56,6.027s-6.773.733-7.04,0S200.421,223.753,202.048,222.42Z" transform="translate(-175.858 -32.29)" fill="#592210"/>
            <path id="Trazado_189691" data-name="Trazado 189691" d="M212.323,215.25s-.907,3.013-1.16,4a33.131,33.131,0,0,0-.52,4.773h-.68s.493-6.12-2.587-4.093C206.416,220.6,212.323,215.25,212.323,215.25Z" transform="translate(-172.72 -31.454)" fill="#592210"/>
            <path id="Trazado_189692" data-name="Trazado 189692" d="M215.32,142.089c2.52.84,3.12,15.6,1.253,25.4-1.787,9.333-2.973,22.04-3.773,22.667s-7.733,1.64-8.84.96-5.333-38.867-5.44-40.8S204.387,138.449,215.32,142.089Z" transform="translate(-175.637 -56.106)" fill="#ffa17b"/>
            <path id="Trazado_189693" data-name="Trazado 189693" d="M211.513,178.682c4.187,4.107,5.093,14.787,4.867,18.88s-5.093,25.667-4.867,27.147-5.48.347-5.44-.48c.44-8.28-1.853-30.16-2.2-32.333s-1.48-12-1.493-13C202.327,173.856,209.127,176.322,211.513,178.682Z" transform="translate(-174.35 -44.553)" fill="#ffa17b"/>
            <path id="Trazado_189694" data-name="Trazado 189694" d="M205.993,90.26s2.387,11.76,3.267,12.173c2.667,1.333,9.787,1.213,12.173,4,2.893,3.427-3.573,18.467-2.027,31.16.747,6.147,9.067,18.84,9.987,24.76s-17.72,13.08-18.4,13.08-8.72-5.453-9.853-7.387.4-18.493-.6-22.227-4-11.013-4.733-11.52-3.707-2.093-4.36-4.507c-.947-3.52,3-9.907,2.907-11.173s-1.027-2.893-.627-3.827c.8-1.867,6.213-6.667,6.107-7.533s-2.96-10.667-2.96-10.667Z" transform="translate(-178.044 -73.117)" fill="#ffba90"/>
            <path id="Trazado_189695" data-name="Trazado 189695" d="M196.4,100.307l.293,1.053,7.653,1.6a4.64,4.64,0,0,0,3.68-.787l.213-.16s-1.107-2.427-1.947-4.76a27.132,27.132,0,0,1-1.24-5.173Z" transform="translate(-176.344 -72.51)" fill="#ffa17b"/>
            <path id="Trazado_189696" data-name="Trazado 189696" d="M221.3,142.133c2.667.333,5.8,14.667,6.173,24.667.493,13.44,2.093,25.173,1.453,26s-8.24,2.267-9.44,1.813-9.747-33.467-10.227-35.333S209.863,140.653,221.3,142.133Z" transform="translate(-172.086 -55.857)" fill="#ffba90"/>
            <path id="Trazado_189697" data-name="Trazado 189697" d="M229.98,217.12s2.16,5.173,2.133,6.56-.693,4.693-1.76,4.853-3.733-2.333-4-2.667c-1.88-2.333-1.933-7-1.933-7Z" transform="translate(-167.004 -30.83)" fill="#592210"/>
            <path id="Trazado_189698" data-name="Trazado 189698" d="M228.874,214.92a30.883,30.883,0,0,1,2.067,7.04c.093.733-.44,3.653-1.453,3.68-2.867,0-5.2-4.893-5.107-6.667s.16-3.613.16-3.613Z" transform="translate(-167.018 -31.564)" fill="#ffba90"/>
            <path id="Trazado_189699" data-name="Trazado 189699" d="M220.684,177.559c-3.76.72-4.707,3.347-2.867,14.373,1.333,8.36,6.667,27.28,9.12,36,.8,2.773.507,4.627.773,4.613,1.067,0,4.267-.08,4.573-2.547.08-.533-1.147-2.373-1.147-3.867,0-8.6-.093-30.413-.6-33.467C229.938,189.065,226.684,176.4,220.684,177.559Z" transform="translate(-169.508 -44.042)" fill="#ffba90"/>
            <path id="Trazado_189700" data-name="Trazado 189700" d="M192.84,119.14l18.227-4.933,8.573-12.827,1.093,18.667s-1.96,9.04-1.333,13.173,9.573,17.933,11.72,25.493,6.96,46.667,6.96,46.667a107.774,107.774,0,0,1-20,2.373,85.612,85.612,0,0,1-17.853-1.48s-.08-46.173,0-47.853,1.52-10.893.64-14.947-3.907-12.173-5.333-13.093-3.627-1.813-4.227-4.36S192.84,119.14,192.84,119.14Z" transform="translate(-178.077 -69.41)" fill="#ff8311"/>
            <path id="Trazado_189701" data-name="Trazado 189701" d="M193.9,114.033l-1.227-4.56,5.693-5.293Z" transform="translate(-177.587 -68.477)" fill="#ff8311"/>
            <path id="Trazado_189702" data-name="Trazado 189702" d="M209.258,114.563s.853,13.533-2.093,15.067-10.747,4.813-10.533,6.667,16.733,5.413,18.667,7.147,8.947,19.507,9.853,28.64,1.12,35.32,1.12,35.32l9.907-1.667s-4.733-39.067-6.96-46.667c-2.293-7.92-10.587-20.56-11.32-24.253-.493-2.44,2.28-20.6,2.28-20.6l-1.627-13.52-5.92-.387Z" transform="translate(-176.268 -69.767)" fill="#ff6e18"/>
            <path id="Trazado_189703" data-name="Trazado 189703" d="M224.4,126.01c1.547,2.107-.213,8.52-2.573,12.493S211.157,153.6,211.157,153.6l-3.667-2.133s9.907-22.027,10.52-23.187S221.743,122.437,224.4,126.01Z" transform="translate(-172.647 -61.641)" fill="#ffba90"/>
            <path id="Trazado_189704" data-name="Trazado 189704" d="M212.152,101.8c2.347-1.24,5.333,1.08,7,5.133s5.653,26.787,4.973,28-3.787,3.12-5.213,1.667-7.693-20-8.467-23.6S209.072,103.417,212.152,101.8Z" transform="translate(-171.869 -69.381)" fill="#ffba90"/>
            <path id="Trazado_189705" data-name="Trazado 189705" d="M210.7,143.6a4.213,4.213,0,0,1-3.667,1.853,6.76,6.76,0,0,0-4.747,2.667,30.836,30.836,0,0,0-2.373,2.973c-.093.853.867.413.827.667s-.187,1.16.667,1.107.733.187.893.453.867.293,1.2.067.573.227,1.027.147a2.44,2.44,0,0,0,1.24-.867,4.88,4.88,0,0,1,3.4-1.84c1.72-.307,4.467-.92,4.693-3.747S210.7,143.6,210.7,143.6Z" transform="translate(-175.175 -55.337)" fill="#ffba90"/>
            <path id="Trazado_189706" data-name="Trazado 189706" d="M197.26,81.679s-.533-3.16,2.24-3.84c6.44-1.573,10.12,1.333,11.307,5.107,1.547,4.88-1.027,10.187-.28,16.627.307,2.667,3.08,3.907,2.867,4-.68.533-9.333,4.213-7.427-14.093C206.26,86.626,197.26,81.679,197.26,81.679Z" transform="translate(-176.071 -77.403)" fill="#9f3820"/>
            <path id="Trazado_189707" data-name="Trazado 189707" d="M209.222,91.992c.347,7.013-5.333,12.987-8.947,13.16s-8.493-5.333-9.507-12.36,3.027-11.733,8.36-11.96S208.876,85.059,209.222,91.992Z" transform="translate(-178.273 -76.262)" fill="#ffba90"/>
            <path id="Trazado_189708" data-name="Trazado 189708" d="M194.363,86.79c1.147,1.747,3.267,2.507,7.467,1.973,3-.387,5.773,3.307,6.08,4.933.107.627,0,3.76,0,3.76A10.667,10.667,0,0,0,205.643,83.4c-7.333-6.667-13.333-.72-13.333-.107a17.1,17.1,0,0,0,2.053,3.493Z" transform="translate(-177.707 -76.447)" fill="#9f3820"/>
            <path id="Trazado_189709" data-name="Trazado 189709" d="M196.446,84.293s.6,2.84-1.707,3.92a13.694,13.694,0,0,0-4.2,3.587s-1.893-6.667,2.573-9.067S196.446,84.293,196.446,84.293Z" transform="translate(-178.43 -75.883)" fill="#9f3820"/>
            <path id="Trazado_189710" data-name="Trazado 189710" d="M208.86,106.991s1.213-5.253,3.187-6.027,5.013-.547,7.133,4.24a42.667,42.667,0,0,1,2.667,11.68l-11.467,1.573A48.48,48.48,0,0,1,208.86,106.991Z" transform="translate(-172.19 -69.661)" fill="#ff8311"/>
            <path id="Trazado_189711" data-name="Trazado 189711" d="M182.17,132.517c-1.68-2.16,0-8.973,2.333-13.227s10.773-16.2,10.773-16.2l3.92,2.133s-9.76,23.493-10.36,24.72S185.117,136.3,182.17,132.517Z" transform="translate(-181.314 -68.84)" fill="#ffba90"/>
            <path id="Trazado_189712" data-name="Trazado 189712" d="M193.867,110.275s-4-5.333-4.28-5.467.36-11.373.907-11.027a4.267,4.267,0,0,1,1.147,3.267c0,1.693,4.973,6.973,5.267,10S193.867,110.275,193.867,110.275Z" transform="translate(-178.637 -71.946)" fill="#ffba90"/>
          </g>
          <g id="Grupo_93763" data-name="Grupo 93763" transform="translate(15.493 103.129)">
            <rect id="Rectángulo_39526" data-name="Rectángulo 39526" width="96.947" height="5.96" transform="translate(6.987 99.28) rotate(-90)" fill="#74828c"/>
            <rect id="Rectángulo_39527" data-name="Rectángulo 39527" width="96.947" height="5.96" transform="translate(161.4 99.8) rotate(-90)" fill="#74828c"/>
            <rect id="Rectángulo_39528" data-name="Rectángulo 39528" width="157.893" height="13.093" transform="translate(8.173 1.933)" fill="#74828c"/>
            <path id="Trazado_189713" data-name="Trazado 189713" d="M256.31,160.133l-160.4,1.293V157.08l160.4.053Z" transform="translate(-88.95 -149.333)" fill="#b6b6bb"/>
            <rect id="Rectángulo_39529" data-name="Rectángulo 39529" width="174.52" height="8.107" fill="#939fa7"/>
          </g>
          <g id="Grupo_93764" data-name="Grupo 93764" transform="translate(86.359 58.262)">
            <rect id="Rectángulo_39530" data-name="Rectángulo 39530" width="48.56" height="34.053" fill="#2c2c2c"/>
            <rect id="Rectángulo_39531" data-name="Rectángulo 39531" width="11.04" height="32.76" transform="translate(20.067 11.707)" fill="#404040"/>
            <path id="Trazado_189714" data-name="Trazado 189714" d="M143.84,117.62l20.067,11.707h11.04L192.4,117.62Z" transform="translate(-143.84 -117.62)" fill="#404040"/>
            <path id="Trazado_189715" data-name="Trazado 189715" d="M143.84,151.353l19.92-8.507.147-13.52L143.84,117.62Z" transform="translate(-143.84 -117.62)" fill="#1c1c1c"/>
            <path id="Trazado_189716" data-name="Trazado 189716" d="M184.673,117.62,167.02,129.327l.2,12.773,17.453,9.573-15.92-10.48.227-10.76Z" transform="translate(-136.113 -117.62)" fill="#1c1c1c"/>
            <rect id="Rectángulo_39532" data-name="Rectángulo 39532" width="20.467" height="2.053" transform="translate(16.56 42.813)" fill="#404040"/>
          </g>
        </g>
      </g>
    </g>
  </g>
</svg>
