<svg xmlns="http://www.w3.org/2000/svg" xmlns:xlink="http://www.w3.org/1999/xlink" width="1200" height="422.032" viewBox="0 0 1200 422.032">
  <defs>
    <clipPath id="clip-path">
      <path id="Trazado_189718" data-name="Trazado 189718" d="M971.841,0A171.973,171.973,0,0,0,806.15,217.559l-25.272,8.4,57.8,28.948,28.973-57.8-26.76,8.9a135.048,135.048,0,0,1-4.38-34.167c0-74.621,60.708-135.33,135.33-135.33s135.33,60.709,135.33,135.33c0,73.8-59.381,133.983-132.872,135.3v.031H0v36.513H973.7l.025-.011a171.885,171.885,0,0,0,65.009-330.164A170.793,170.793,0,0,0,971.841,0Z" transform="translate(0 0)" fill="none"/>
    </clipPath>
    <linearGradient id="linear-gradient" y1="1.061" x2="0.001" y2="1.061" gradientUnits="objectBoundingBox">
      <stop offset="0" stop-color="#36dac9"/>
      <stop offset="1" stop-color="#039be5"/>
    </linearGradient>
  </defs>
  <g id="Grupo_94318" data-name="Grupo 94318" transform="translate(-180 -1776)">
    <g id="Grupo_93768" data-name="Grupo 93768" transform="translate(180 1833.359)" opacity="0.3">
      <path id="Trazado_189717" data-name="Trazado 189717" d="M1091.845,324.722h0Zm0-34.267H829.967v34.267h261.878v20.986l49.671-38.291-49.671-38.288Z" transform="translate(58.485 18.964)" fill="#5c80fc"/>
      <g id="Grupo_93767" data-name="Grupo 93767" transform="translate(0 0)">
        <g id="Grupo_93766" data-name="Grupo 93766" clip-path="url(#clip-path)">
          <rect id="Rectángulo_39533" data-name="Rectángulo 39533" width="1143.684" height="343.686" transform="translate(0 0)" fill="url(#linear-gradient)"/>
        </g>
      </g>
    </g>
    <g id="cf11_scrum_slide_copia" data-name="cf11_scrum slide copia" transform="translate(935 1776)">
      <g id="Capa_1" data-name="Capa 1">
        <rect id="Rectángulo_39503" data-name="Rectángulo 39503" width="400" height="400" fill="none"/>
        <g id="Grupo_93754" data-name="Grupo 93754" transform="translate(87.168 93.395)">
          <g id="Grupo_93738" data-name="Grupo 93738" transform="translate(72.692 2.488)">
            <path id="Trazado_189500" data-name="Trazado 189500" d="M152.267,134.917,124.04,165.783l3.72-62.853,23.107-6.84Z" transform="translate(-118.513 -63.853)" fill="#596e7a"/>
            <path id="Trazado_189501" data-name="Trazado 189501" d="M149.293,96.65s-2.667-1.96-8.533-2.667a22.56,22.56,0,0,0-8.827.387l-.773-9.493,2.213-9.227,13.573,2.4,2.347,10.067Z" transform="translate(-116.139 -70.667)" fill="#631707"/>
            <g id="Grupo_93735" data-name="Grupo 93735" transform="translate(14.341 166.157)">
              <path id="Trazado_189502" data-name="Trazado 189502" d="M132.7,196.53a10.56,10.56,0,0,1-1.587,4.147,3.493,3.493,0,0,0,.107,3.213c1.333,1.333,2.947.813,4.587,1.84s4.133,4.72,5.533,5.067,4.56.2,4.76-.467-3.133-3.093-3.133-3.093c-5-6.147-5.56-9.333-5.56-9.333a32.493,32.493,0,0,0-4.707-1.373Z" transform="translate(-130.608 -196.53)" fill="#ffa17b"/>
              <path id="Trazado_189503" data-name="Trazado 189503" d="M143.006,206.563s.96.8.8,1.04a3,3,0,0,1-2.027,0,39.294,39.294,0,0,1-8.827-6.56,5.08,5.08,0,0,1-1.093-2.493,4.133,4.133,0,0,0-1.173,3.373,4.374,4.374,0,0,0,.573,1.253,35.289,35.289,0,0,0,4.107,2.413c1.64,1.027,3.933,4.733,5.333,5.08s6.107.253,6.307-.413S144.566,207.63,143.006,206.563Z" transform="translate(-130.646 -195.857)" fill="#592210"/>
              <path id="Trazado_189504" data-name="Trazado 189504" d="M130.65,200.91s.987,2.667,1.333,3.547a29.127,29.127,0,0,1,.747,4.24h.613s-.8-5.44,2.08-3.813C136.263,205.363,130.65,200.91,130.65,200.91Z" transform="translate(-130.65 -195.07)" fill="#592210"/>
            </g>
            <path id="Trazado_189505" data-name="Trazado 189505" d="M144.208,167.652c-4.667,2.413-8.253,11.333-9.133,14.92s-2.52,23.773-2.987,25.027,4.64,1.333,4.813.547c1.8-7.227,9.52-25.333,10.387-27.16s4.44-9.933,4.707-10.76C153.314,165.945,146.888,166.265,144.208,167.652Z" transform="translate(-115.84 -40.308)" fill="#ffa17b"/>
            <g id="Grupo_93736" data-name="Grupo 93736" transform="translate(49.074 83.81)">
              <path id="Trazado_189506" data-name="Trazado 189506" d="M161.837,142.18a13.88,13.88,0,0,1,0,2.427,10.549,10.549,0,0,1-.667,1.56,1.867,1.867,0,0,0,0,1.333c.347.28.8-.333.96-.72a10.3,10.3,0,0,0,.707-1.813,10.668,10.668,0,0,0,.4-2.4C163.117,142.153,161.837,142.18,161.837,142.18Z" transform="translate(-155.251 -132.3)" fill="#ffa17b"/>
              <path id="Trazado_189507" data-name="Trazado 189507" d="M162.316,141.72a13.552,13.552,0,0,1-.627,2.173c-.24.4-.56.44-1.027.773s-.8.773-.72,1.187.72,0,1.067-.12a3.854,3.854,0,0,0,1.427-1.24,9.467,9.467,0,0,0,1-2.027C163.463,142.093,162.316,141.72,162.316,141.72Z" transform="translate(-155.623 -132.453)" fill="#ffa17b"/>
              <path id="Trazado_189508" data-name="Trazado 189508" d="M162.317,141.52a12.464,12.464,0,0,1-.853,1.707c-.253.293-.52.28-.96.48s-.787.52-.773.88.6.147.907,0a3.28,3.28,0,0,0,1.333-.8,8.251,8.251,0,0,0,1.12-1.533C163.21,141.973,162.317,141.52,162.317,141.52Z" transform="translate(-155.69 -132.52)" fill="#ffa17b"/>
              <path id="Trazado_189509" data-name="Trazado 189509" d="M159.287,148.1c.173.227.773-.133,1.133-.6a3.547,3.547,0,0,0,.307-2.293c-.12-.587,0-1.48.387-1.547a3.587,3.587,0,0,1,2.227,1.093,7.84,7.84,0,0,1,1.067,2.347,9.4,9.4,0,0,1-.56,2.147,3.747,3.747,0,0,0-.333,1.56.56.56,0,0,0,.52.52c.213.067.32-.787.76-1.44a18.522,18.522,0,0,0,1.227-2.48c0-.147-.36-2.587-.52-3.307s-2.52-3.733-2.493-4-2.307-5.333-2.307-5.333l-4,1.013a24.852,24.852,0,0,1,2.24,4.2,12.268,12.268,0,0,1-.307,2.2,8.213,8.213,0,0,0,.613,3.413C159.5,146.6,159.02,147.757,159.287,148.1Z" transform="translate(-156.7 -134.77)" fill="#ffba90"/>
            </g>
            <path id="Trazado_189510" data-name="Trazado 189510" d="M130.152,196.12a8.76,8.76,0,0,1-.307,3.84c-.653,1.4-3.053,4.307-4.2,4s-2.373-3.56-2.52-4.067c-.867-3.187,1.093-8.253,1.093-8.253Z" transform="translate(-118.891 -32.003)" fill="#9f3820"/>
            <path id="Trazado_189511" data-name="Trazado 189511" d="M146.45,97.072c2.48-.32,5.333,7.093,6.16,15.267,1.533,14.213,4.12,18.667-.2,19.573-3.933.88-4.8-4.88-7.747-16.8C142.37,105.792,141.33,97.739,146.45,97.072Z" transform="translate(-112.269 -63.529)" fill="#ffa17b"/>
            <path id="Trazado_189512" data-name="Trazado 189512" d="M121.362,94.9c1.333-1.893,7.333-1.933,9.613-2.2a58.415,58.415,0,0,1,8.88.653,57.585,57.585,0,0,1,8.587,2.413c2.04,1.027,7.72,3.133,8.28,5.333.827,3.347-11.76,18.827-7.547,29.733,1.4,3.613,9.6,13.187,9.64,17.067,0,4.733-13.947,11.427-13.947,11.427l-.867.24-.867.227s-15.467,1.2-17.8-2.92c-1.907-3.387,1.933-20.213,1.453-24.88C125.562,120.06,119.442,97.767,121.362,94.9Z" transform="translate(-119.528 -64.983)" fill="#ffba90"/>
            <path id="Trazado_189513" data-name="Trazado 189513" d="M153.114,135.63c1.973,3.027,2.32,8.707,2.027,16.16-.4,10.147-3.853,25.2-4.16,26.667-1.333,6.667-7.853,6.88-9.227,1.773-.373-1.413-3.733-29.973-3.613-33.213s0-9.16,2.067-12.92C141.727,131.31,150.181,131.137,153.114,135.63Z" transform="translate(-113.813 -51.847)" fill="#ffa17b"/>
            <path id="Trazado_189514" data-name="Trazado 189514" d="M133.25,92.087c.96-1.613,2.04-8.107,2.04-8.107l4.12.733,4.133.72s-1.213,6.48-.853,8.307,3.267,4.933,3.267,4.933l-8.773-1.52-8.733-1.547S132.277,93.687,133.25,92.087Z" transform="translate(-117.043 -67.89)" fill="#ffba90"/>
            <path id="Trazado_189515" data-name="Trazado 189515" d="M149.538,118.913c2.16-.76,6.347,1.773,9.213,8.48,3.293,7.733,8.187,18.667,6.36,19.613-.867.4-1.987-.28-2.8-1.92-1.707-3.453-6.267-8.347-9.533-12.747C147.7,125.553,145.365,120.406,149.538,118.913Z" transform="translate(-110.731 -56.289)" fill="#ffba90"/>
            <path id="Trazado_189516" data-name="Trazado 189516" d="M132.05,91.917s1.173-3.707,1.173-3.72c.267-1.2.507-2.4.667-3.253h0l4-.453h.36l4.133.72s-1.213,6.48-.853,8.307,3.227,4.987,3.227,4.987-5.413-2.4-6.413-2.973Z" transform="translate(-115.843 -67.72)" fill="#ffa17b"/>
            <path id="Trazado_189517" data-name="Trazado 189517" d="M148.279,84.917c-1.147,6.48-7.64,10.747-10.947,10.16s-6.667-6.667-6.107-13.333,5.187-10.067,10.093-9.2S149.412,78.437,148.279,84.917Z" transform="translate(-116.138 -71.747)" fill="#ffba90"/>
            <path id="Trazado_189518" data-name="Trazado 189518" d="M135.263,77.176c.693,1.827,2.467,2.96,6.413,3.347,2.827.28,4.587,4.24,4.533,5.787,0,.6,2.04,11.587,2.04,11.587s3.413-13.867-1.907-21.467-12.067-3.44-12.133-2.867a17.333,17.333,0,0,0,1.053,3.613Z" transform="translate(-115.123 -71.913)" fill="#9f3820"/>
            <path id="Trazado_189519" data-name="Trazado 189519" d="M138.116,75.34s0,2.76-2.373,3.227c-4.427.88-3.653,16.773-3.653,16.773s-4.76-19.907,3.293-22.12C139.983,71.966,138.116,75.34,138.116,75.34Z" transform="translate(-116.295 -71.57)" fill="#9f3820"/>
            <path id="Trazado_189520" data-name="Trazado 189520" d="M130.622,190.94s-.64,7.04-.933,7.773-2.28,3.267-3.32,2.827c-2.92-1.187-3.08-7.24-2.213-8.947.507-1,.987-2.067,1.333-2.747a11.066,11.066,0,0,1,1.933-2.667Z" transform="translate(-118.628 -33.49)" fill="#ffba90"/>
            <path id="Trazado_189521" data-name="Trazado 189521" d="M147.149,164.862c2.747,2.48,2.88,4.813-1.133,11.587s-16.333,23.88-17.16,23.32-4-3.067-2.36-5.04c1.093-1.333,1.333-3.88,2.733-7.8,2.533-6.76,5.92-15.24,6.667-16.64C137.269,168.1,142.749,160.9,147.149,164.862Z" transform="translate(-117.849 -41.319)" fill="#ffba90"/>
            <path id="Trazado_189522" data-name="Trazado 189522" d="M124.049,139.593c-.787,3.52.88,8.973,3.773,15.84,4,9.333,12.467,22.253,13.253,23.507,3.627,5.76,9.773,3.693,9.267-1.573-.133-1.453-7.027-29.333-8.267-32.373s-3.24-8.573-6.48-11.36C133.169,131.553,125.2,134.353,124.049,139.593Z" transform="translate(-118.575 -51.569)" fill="#ffba90"/>
            <g id="Grupo_93737" data-name="Grupo 93737" transform="translate(2.634 28.877)">
              <path id="Trazado_189523" data-name="Trazado 189523" d="M151.59,96.93V112.5s-3.64,10.667-2.253,16,7.213,11.307,10.547,18.667,0,31.333,0,31.333-8.907,2.853-11.707,0a7.08,7.08,0,0,0-8.733-.733c-1.613,1.187-5.653,5.16-5.653,5.16s-8.107-13.053-9.813-25.24c-1.333-9.76,2.28-21.973,1.56-26.933s-3.667-24.987-3.667-24.987,4.2.427,8.773.64c1.333,0-2.667-12.853-1.333-12.84,3.267,0,4.36,14.027,12.52,12.187,6.067-1.333,5.92-10.667,5.92-10.667Z" transform="translate(-121.87 -93.57)" fill="#002957"/>
              <path id="Trazado_189524" data-name="Trazado 189524" d="M126.9,111.927c1.787-1.2,12.947,2.52,17.333,1.627,3.533-.707,5.013-4,5.48-5.333-.72,2.28-3.24,10.867-2.053,15.427,1.333,5.333,7.213,11.307,10.547,18.667s0,31.333,0,31.333-8.907,2.853-11.707,0l-.16-.133-5.067-14.933s8.213,2.387,8.093-4.76-7.173-23.213-9.227-27.373S125.115,113.113,126.9,111.927Z" transform="translate(-120.249 -88.687)" fill="#001e3e"/>
            </g>
            <path id="Trazado_189525" data-name="Trazado 189525" d="M131.168,92.7a78.051,78.051,0,0,1,2.947,10.333c.747,4.227-6.8,38.56-8,45.693s-.8,18.187-.8,18.187l-4.253-4.133s2.973-18.507,2.893-28.68-4.227-35.053-3.44-38.333S131.168,92.7,131.168,92.7Z" transform="translate(-119.721 -64.984)" fill="#939fa7"/>
            <path id="Trazado_189526" data-name="Trazado 189526" d="M142.15,95s2.013,15.893,1.773,19.907,2.307,20.36,2.307,20.36,4.24-32.587,3.853-34.667C149.537,97.667,142.15,95,142.15,95Z" transform="translate(-112.476 -64.217)" fill="#939fa7"/>
            <path id="Trazado_189527" data-name="Trazado 189527" d="M122.782,93.832c2.147-.8,5.08,4,6.36,9.88,2.24,10.147,4.787,12.813,1.053,14.493-3.4,1.533-4.533-2.52-7.853-10.667C119.729,101.192,118.315,95.485,122.782,93.832Z" transform="translate(-119.894 -64.635)" fill="#ffa17b"/>
            <path id="Trazado_189528" data-name="Trazado 189528" d="M124.945,116.72c-1.4-1.747,2.173-6.96,8.947-11.293,7.8-5,18.853-12.333,20-10.667,1.587,2.2-7.52,9.053-14.013,15.48S127.852,120.32,124.945,116.72Z" transform="translate(-118.311 -64.377)" fill="#ffa17b"/>
            <path id="Trazado_189529" data-name="Trazado 189529" d="M142.67,98.964a3.64,3.64,0,0,0,1.093-3.427,5.907,5.907,0,0,1,1.6-4.48,28.117,28.117,0,0,1,2.227-2.48c.733-.2.493.693.707.627s.973-.32,1.053.413.253.613.52.707.373.72.227,1.04.28.453.267.867a2.08,2.08,0,0,1-.573,1.2,4.253,4.253,0,0,0-1.12,3.2c0,1.533-.16,4-2.573,4.6S142.67,98.964,142.67,98.964Z" transform="translate(-112.303 -66.367)" fill="#ffa17b"/>
          </g>
          <g id="Grupo_93739" data-name="Grupo 93739" transform="translate(107.096)">
            <path id="Trazado_189530" data-name="Trazado 189530" d="M176,74.878s1.187-5.013,6.187-4.827c4.267.173,7.667,4.147,6.107,10.2-1.733,6.667-.56,12.32.08,12.2s.467,1.627-.96,1.947-5.813.227-6.2-4.493a14.386,14.386,0,0,0-2.787-7.573Z" transform="translate(-135.597 -70.046)" fill="#7c3311"/>
            <path id="Trazado_189531" data-name="Trazado 189531" d="M180.859,198.47a1.973,1.973,0,0,1,1.173,1.667c0,.907.133,6.667.133,6.667A8.494,8.494,0,0,0,179.5,208.5c-1.173,1.053-2.253,3.36-3.853,4a8.093,8.093,0,0,1-5.093.507c-.72-.293-.467-1.907.573-3.573l3.467-5.56Z" transform="translate(-137.55 -27.238)" fill="#9f3820"/>
            <path id="Trazado_189532" data-name="Trazado 189532" d="M175.03,197.868a25.334,25.334,0,0,1-.587,3.4,41.784,41.784,0,0,1-2.253,6.8c-.733,1.453-.613,2.507,1.68,1.84s5.933-6.547,6.667-9.013c.32-1.12-.36-2.307-.493-3.027C179.67,196.175,175.03,197.868,175.03,197.868Z" transform="translate(-137.001 -27.69)" fill="#ffba90"/>
            <path id="Trazado_189533" data-name="Trazado 189533" d="M198.163,204.443a8.893,8.893,0,0,1,1.48,3.52c.093,1.533-.573,5.24-1.667,5.507s-3.573-1.973-3.92-2.347c-2.147-2.387-2.827-7.773-2.827-7.773Z" transform="translate(-130.521 -25.612)" fill="#9f3820"/>
            <path id="Trazado_189534" data-name="Trazado 189534" d="M195.8,199.49s2.667,6.48,2.747,7.28-.413,4-1.467,4.067c-2.947.36-5.813-4.88-5.867-6.787s-.16-4-.16-4Z" transform="translate(-130.581 -26.898)" fill="#ffba90"/>
            <path id="Trazado_189535" data-name="Trazado 189535" d="M176.231,94.768c-2.027-1.413-7.853,3.813-12.333,10.573-7.787,11.76-12,14.44-8.693,17.24,3.04,2.56,6.427-2.093,14.4-11.2C175.857,104.261,180.4,97.675,176.231,94.768Z" transform="translate(-142.908 -61.883)" fill="#121212"/>
            <path id="Trazado_189536" data-name="Trazado 189536" d="M168.573,130.33c-1.16,3-2.04,5.8-1.627,7.347,1.16,4.533,14.547,8.387,14.547,8.387h.88V131.4C177.226,131.357,173.719,130.33,168.573,130.33Z" transform="translate(-138.65 -49.952)" fill="#002957"/>
            <path id="Trazado_189537" data-name="Trazado 189537" d="M167.734,134.656c-1.72,3.12-1.64,8.733-.787,16,1.16,9.96,4.427,25.827,4.827,27.24,1.853,6.453,8.213,6.187,9.173,1.053.28-1.413,2.453-30.04,2.093-33.213a34.666,34.666,0,0,0-4.387-12.56C176.934,130.59,170.281,130,167.734,134.656Z" transform="translate(-138.811 -49.665)" fill="#002957"/>
            <path id="Trazado_189538" data-name="Trazado 189538" d="M199.3,97.837c-.92-2.067-5.64-2.973-7.8-3.613a56.8,56.8,0,0,0-8.76-.893s-10.347,1.04-12.587.96c-.947,0-1.64,3.373-2,4.347-2.053,5.467-4.493,11.813.64,16.253,1.173,1,2.2,12.533,2.2,17.867a28.506,28.506,0,0,1-2.053,9.907c5.16,0,8.653,1.027,13.8,1.027h15.48a86.329,86.329,0,0,1-3.72-10.933C191.5,116.33,200.674,100.89,199.3,97.837Z" transform="translate(-139.018 -62.285)" fill="#ffba90"/>
            <path id="Trazado_189539" data-name="Trazado 189539" d="M181.309,174.65c-.253-9.893-3-11.84-6.533-11.84-5.667,0-4.72,10.573-4.627,13.787s4.36,28.653,5.467,32.707h4.96C181.229,202.383,181.536,182.757,181.309,174.65Z" transform="translate(-137.586 -39.125)" fill="#002957"/>
            <path id="Trazado_189540" data-name="Trazado 189540" d="M171.57,93.93c3.44,0,5.427,2.187,3.92,7.92s-7.413,12.493-7.413,12.493l-8.747-7.32S168.317,93.943,171.57,93.93Z" transform="translate(-141.154 -62.085)" fill="#32c4b4"/>
            <path id="Trazado_189541" data-name="Trazado 189541" d="M185.363,92.863c-.667-1.72-.6-8.213-.6-8.213H176.5s.067,6.493-.587,8.213-4,4.253-4,4.253h17.507S186.083,94.6,185.363,92.863Z" transform="translate(-136.961 -65.178)" fill="#ffba90"/>
            <path id="Trazado_189542" data-name="Trazado 189542" d="M199.3,97.837c-.92-2.067-6.667-3.853-8.893-4.507a13.64,13.64,0,0,1-11.667,4.76c-2.413-.253-4.747-3.867-4.747-3.867-1.333,0-2.933.093-3.84,0s-1.64,3.373-2,4.347c-2.053,5.467-4.493,11.813.64,16.253,1.173,1,2.2,12.533,2.2,17.867a28.506,28.506,0,0,1-2.053,9.907c5.16,0,8.653,1.027,13.8,1.027h15.48a86.323,86.323,0,0,1-3.72-10.933C191.5,116.33,200.674,100.89,199.3,97.837Z" transform="translate(-139.018 -62.285)" fill="#36dac9"/>
            <path id="Trazado_189543" data-name="Trazado 189543" d="M199.083,211.432c0-3.467-3.267-30.773-4.093-34.08s-2.4-15.773-10.253-13.333c-3.387,1.08-4.08,3.547-1.52,13.707,2.08,8.28,8.227,27.76,10.987,34.667A19.479,19.479,0,0,0,199.083,211.432Z" transform="translate(-133.707 -38.827)" fill="#001e3e"/>
            <path id="Trazado_189544" data-name="Trazado 189544" d="M178.49,131.11v14.667h.893s15.04-2.813,16.213-7.347c.4-1.547-.48-4.347-1.627-7.36Z" transform="translate(-134.767 -49.705)" fill="#002957"/>
            <path id="Trazado_189545" data-name="Trazado 189545" d="M194.4,134.726c1.893,3.013,2.16,8.627,1.76,16a263.476,263.476,0,0,1-3.32,26.28c-1.44,6.56-9.04,6.667-10.32,1.587-.347-1.4-3.227-29.627-3.08-32.827s.16-9.04,2.24-12.72C183.228,130.3,191.575,130.246,194.4,134.726Z" transform="translate(-134.452 -49.681)" fill="#002957"/>
            <path id="Trazado_189546" data-name="Trazado 189546" d="M184.833,87.863V84.65h-8.267s.067,6.493-.587,8.213-4,4.253-4,4.253l12.92-9.253Z" transform="translate(-136.937 -65.178)" fill="#ffa17b"/>
            <path id="Trazado_189547" data-name="Trazado 189547" d="M187.294,83.607c.093,6.493-5.413,11.827-8.72,11.867s-7.667-5.2-8.373-11.747,3.16-10.667,8.067-10.787S187.174,77.114,187.294,83.607Z" transform="translate(-137.558 -69.082)" fill="#ffba90"/>
            <path id="Trazado_189548" data-name="Trazado 189548" d="M175.057,78.376c1,1.64,3.253,2.12,7.16,1.773,2.787-.253,3.507,2.667,3.733,4.12a22.921,22.921,0,0,1-.227,3.08s4.147-5.547-1.627-12.64c-4-4.92-9.773-1.64-10.76-.587C172.911,74.549,174.577,77.576,175.057,78.376Z" transform="translate(-136.508 -69.37)" fill="#9f3820"/>
            <path id="Trazado_189549" data-name="Trazado 189549" d="M177.42,76.016a4.44,4.44,0,0,1-3.28,3.88,4.347,4.347,0,0,0-3.587,4.427s-4.107-8,2.093-10.667C176.607,71.936,177.487,75.109,177.42,76.016Z" transform="translate(-137.857 -69.011)" fill="#9f3820"/>
            <path id="Trazado_189550" data-name="Trazado 189550" d="M188.656,113.243c-4.173,1.64-8.2-.84-11.573-.587-7.053.52-9.48-3.467-10.52-5.027s-.067-6.667,0-6.88c-1.213,4.173-1.493,8.427,2.24,11.667,1.173,1,2.2,12.533,2.2,17.867a28.507,28.507,0,0,1-2.053,9.907,72.714,72.714,0,0,1,8.653.72s-.453-3.88-.92-5.88a21.987,21.987,0,0,1,1.693-11.107c1.693-3.293,11.64-5.333,12.613-6.333C193.736,114.8,195.416,110.55,188.656,113.243Z" transform="translate(-139.013 -59.812)" fill="#32c4b4"/>
            <path id="Trazado_189551" data-name="Trazado 189551" d="M185.065,177.654c-.533-3.587-1.333-19.693-2.427-28.467-.8-6.48-2.4-7.213-3.187-7.147v.067c-.147,3.173,2.36,29.467,2.973,34.187a43.373,43.373,0,0,0,1.547,8.693c2.08,8.28,8.227,27.76,10.987,34.667a23.573,23.573,0,0,0,2.387-.213l1.12-.36s-6.48-22.4-10.093-33.333C187.412,182.894,185.518,180.348,185.065,177.654Z" transform="translate(-134.449 -46.049)" fill="#001e3e"/>
            <path id="Trazado_189552" data-name="Trazado 189552" d="M169.649,139.917c-.267-4,4.88-7.68,7.213-8.933-3.267-.213-8.107-.653-8.107-.653-3.2,4.747-2.667,13.333-1.787,20.653,1.147,9.827,4.333,25.333,4.813,27.147a37.932,37.932,0,0,0-.387,9.333c.08,3.147,4.36,28.653,5.467,32.707l-3.24-40.253S170.022,145.517,169.649,139.917Z" transform="translate(-138.833 -49.952)" fill="#001e3e"/>
            <path id="Trazado_189553" data-name="Trazado 189553" d="M159.09,122.294c-2.08.84-5.467-2.747-6.88-8.693-1.64-6.867-4.173-16.627-2.293-17.333,2.573-.907,5.4,7.253,8.8,13.333S163.41,120.547,159.09,122.294Z" transform="translate(-144.514 -61.329)" fill="#ffa17b"/>
            <path id="Trazado_189554" data-name="Trazado 189554" d="M199.248,118.146c2.16.467,2.84,6.253.587,13.2-2.587,8-6.133,19.533-8,19.027-2.587-.693-.213-10.787.493-19.093S194.768,117.186,199.248,118.146Z" transform="translate(-130.712 -54.048)" fill="#ffba90"/>
            <path id="Trazado_189555" data-name="Trazado 189555" d="M187.753,95.814c2.6-1.013,7.107,6.053,9.693,14.453,4.507,14.573,8.173,18.507,3.72,20.72-4,2-6.16-3.84-11.72-15.627C185.086,106.148,182.313,97.921,187.753,95.814Z" transform="translate(-132.683 -61.489)" fill="#2c2c2c"/>
            <path id="Trazado_189556" data-name="Trazado 189556" d="M153.807,104.337a8.653,8.653,0,0,1,.76-2.907,8.694,8.694,0,0,0,1.547-4.6,10.146,10.146,0,0,1,.733-4.08c.187-.387-.64-.547-1.24,0s-.76,3.44-1.213,3.493-1.6-7.773-2.187-7.853c-.88-.12.107,5.333-.227,5.333-.707.213-1.333-5.333-2.12-5.333-.933,0,.547,5.827.2,5.88s-2.307-4.787-2.987-4.547,1.8,4.96,1.333,5.147-2.293-2.453-2.667-2.027,1.813,3.093,2.107,3.6,1.773,5.08,2.36,5.333,1.333,2.307,1.333,2.307Z" transform="translate(-145.698 -63.932)" fill="#ffa17b"/>
            <path id="Trazado_189557" data-name="Trazado 189557" d="M159.1,121.414c-2.08.84-5.053-.987-7.213-8.507a81.7,81.7,0,0,1-2.667-13.093c-.133-1.027,4.373-1.52,5.093-.08,1.867,3.747,2.96,5.333,5.027,9.453C162.661,115.708,163.421,119.668,159.1,121.414Z" transform="translate(-144.525 -60.449)" fill="#121212"/>
            <path id="Trazado_189558" data-name="Trazado 189558" d="M199.293,118.146c2.16.467,3.12,6.147.867,13.093-1.88,5.8-3.653,11.587-4.653,14.053-.453,1.12-5.013-.44-4.987-1.013.107-2.32.68-4.613,1.333-12.92S194.813,117.186,199.293,118.146Z" transform="translate(-130.757 -54.047)" fill="#2c2c2c"/>
            <path id="Trazado_189559" data-name="Trazado 189559" d="M184.254,97.707c1.427-3.12,5.333-4.44,9.093.187s5.013,14.48,5.013,14.48l-11.107,2.667S181.32,104.04,184.254,97.707Z" transform="translate(-133.118 -61.768)" fill="#36dac9"/>
            <path id="Trazado_189560" data-name="Trazado 189560" d="M191.919,139.16a17.385,17.385,0,0,0-1.52,1.333,15.442,15.442,0,0,1-2.013,2.573c-.6.387-1.053.44-1.147.56s-.08,1.507,1.067,1.08,2.093-1.427,2.453-1.333.413,2.667.213,3.187-2.027,4-2.107,4.107-.2.68,0,.813a1.951,1.951,0,0,0,1.24-.24c.173-.147.307.32.507.28s.933-.28.933-.28a3.32,3.32,0,0,0,1.173-.267,16.508,16.508,0,0,0,1.68-1.467,24.718,24.718,0,0,0,1.947-4c.107-.8-.653-5.92-.653-5.92Z" transform="translate(-131.863 -47.008)" fill="#ffba90"/>
          </g>
          <g id="Grupo_93744" data-name="Grupo 93744" transform="translate(111.514 7.427)">
            <path id="Trazado_189561" data-name="Trazado 189561" d="M208.347,108.627c.067,4.307-3.467,5.64-7.707,5.44s-25.653-5.707-26.467-6.813-.107-7.267,1.747-7.92,20.787,1.24,24.24,2.013S208.253,103.587,208.347,108.627Z" transform="translate(-140.735 -67.756)" fill="#ffba90"/>
            <path id="Trazado_189562" data-name="Trazado 189562" d="M205.127,105.093c-.933-1.333-3.667-4.253-10.253-5.013-4.387-.507-12.8-1.24-12.8-1.24a15.014,15.014,0,0,0-2.08,6.667,13.973,13.973,0,0,0,1.333,7.307s17.533,1.987,20.867.613C203.167,113.04,207.714,108.84,205.127,105.093Z" transform="translate(-138.702 -67.875)" fill="#aaceff"/>
            <path id="Trazado_189563" data-name="Trazado 189563" d="M186.98,107.76c-1.333,4.493-10.36.987-14.667-.947s-16.973-9.8-16.973-9.8l2.133-3.133a102.068,102.068,0,0,1,25.04,5.747C183.74,100.107,188.313,103.187,186.98,107.76Z" transform="translate(-146.902 -69.529)" fill="#ffba90"/>
            <path id="Trazado_189564" data-name="Trazado 189564" d="M224.269,215.023s-2.973,5.493-2.507,6.667a5.8,5.8,0,0,0,5.573,2.373c2.347-.36,5.667-3.28,6.24-3.467,1.333-.427-.253-7.747-.253-7.747Z" transform="translate(-124.778 -29.872)" fill="#121212"/>
            <path id="Trazado_189565" data-name="Trazado 189565" d="M205.8,86s3.813,12,4.68,12.4c2.667,1.24,11.093.64,13.453,3.413,2.853,3.373-2.813,26.147-2.56,32.227s5.72,16.373,6.667,22.2-17.4,12.907-18.067,12.907-6.587-5.493-7.707-7.4.333-13.827-.653-17.507-6.253-17.573-6.667-18.36a26.468,26.468,0,0,1-2.48-11.413c-.107-1.253-.707-3.227-.32-4.147.773-1.84,6.853-5.627,6.76-6.413s-2.053-11.573-2.053-11.573Z" transform="translate(-134.677 -72.155)" fill="#ffba90"/>
            <path id="Trazado_189566" data-name="Trazado 189566" d="M210.621,95.3l-8.933,9.253-2.667-3.747s-5.733-.32-6.16.867a48.185,48.185,0,0,0-1.227,13.427c.173,1.333,1.987,5.56,3.787,10.307,1.053,2.787,2,6.573,3.747,11.32,1.507,4,2.333,12.84,2.333,12.84s4.12.16,10.493-.16a96.533,96.533,0,0,0,15.173-1.8c1.427-1.173-4.12-14.16-4.2-15.453s3.4-27.56,2.787-30.373a5.853,5.853,0,0,0-4.893-4.733C218.488,96.58,210.621,95.3,210.621,95.3Z" transform="translate(-134.823 -69.055)" fill="#c4ddff"/>
            <path id="Trazado_189567" data-name="Trazado 189567" d="M214.671,96.45s8,1.973,2.533,9.16c-2.36,3.107-4.587,14.667-7.04,16.147-8.787,5.507,1.427,20.613,2.6,22.28a7.6,7.6,0,0,1,1.16,3.92l9.547-1.093c2.96.573-5.493-15.2-5.2-18.453s3.093-24.773,2.48-27.013A6.507,6.507,0,0,0,214.671,96.45Z" transform="translate(-129.806 -68.672)" fill="#aaceff"/>
            <path id="Trazado_189568" data-name="Trazado 189568" d="M196.26,95.957l9.733-6.787,1.987,6.307-2.773,2.92Z" transform="translate(-133.262 -71.099)" fill="#ffa17b"/>
            <g id="Grupo_93740" data-name="Grupo 93740" transform="translate(54.963)">
              <path id="Trazado_189569" data-name="Trazado 189569" d="M191.322,80.662c2.16-3.12,9.707-7.253,14.867-2.853s4.613,10.04,3.2,13.773a13.693,13.693,0,0,1-5.333,6.84c-.587.44-6.293,2.813-7.56,2.667-.88-.093-2.84-5.867-3.067-5.787a1.093,1.093,0,0,1-1.12-.6c-.2-.68-.413-5.107-.68-5.507S188.829,84.249,191.322,80.662Z" transform="translate(-190.234 -75.524)" fill="#ffba90"/>
              <path id="Trazado_189570" data-name="Trazado 189570" d="M190.26,83.768s4-3.573,10.733.28c1.453.827.24,6.04.64,6.387s3.68-4.44,3.64-3.88c-.4,5.8,2.053,8.4,2.56,8.32,1.533-.24,4.427-8.96.72-14.667a10.587,10.587,0,0,0-11.973-4.08C195.047,76.835,190.327,78.261,190.26,83.768Z" transform="translate(-190.225 -75.616)" fill="#9f3820"/>
              <path id="Trazado_189571" data-name="Trazado 189571" d="M199.748,85.781c-.133,1.853.147,4.24,1.147,4.307s1.92-1.333,2.053-3.24-.56-3.4-1.56-3.467S199.881,83.928,199.748,85.781Z" transform="translate(-187.073 -73.03)" fill="#ffba90"/>
            </g>
            <g id="Grupo_93741" data-name="Grupo 93741" transform="translate(57.091 176.125)">
              <rect id="Rectángulo_39504" data-name="Rectángulo 39504" width="7.147" height="1.333" transform="translate(25.693 10.746) rotate(180)" fill="#121212"/>
              <path id="Trazado_189572" data-name="Trazado 189572" d="M217.243,207.737a12.494,12.494,0,0,1,1.667,5.013c.107,1.413-.733,4.387-1.653,4.387a69.081,69.081,0,0,0-8.72.48c-2.787.373-3.827,1.973-10.96,1.96-2.08,0-5.747-.133-5.747-.987,0-3.68,6.84-2.373,9.013-4.373,5.48-5.053,9.133-6.28,9.133-6.28a64.874,64.874,0,0,1,7.267-.2Z" transform="translate(-191.83 -207.71)" fill="#121212"/>
            </g>
            <path id="Trazado_189573" data-name="Trazado 189573" d="M211.63,134.96s9.52,9.52,9.96,13.667-3.573,17.427-4.987,27.867-2.293,12.547-1.947,15.013,3.16,12.44,3.053,19.093c-.107,7.76.307,23.653.307,23.653s-2.08,1.613-7.413,1.587a11.613,11.613,0,0,1-6.413-2.453s-2.147-38.987-2.573-43.08c-.28-2.667-2.453-20.933-3.12-35.84-.213-4.8.893-18.52.893-20.507Z" transform="translate(-132.525 -56.169)" fill="#121212"/>
            <path id="Trazado_189574" data-name="Trazado 189574" d="M199,100.8l.213,2.653,4.72-4.84Z" transform="translate(-132.349 -67.952)" fill="#aaceff"/>
            <path id="Trazado_189575" data-name="Trazado 189575" d="M199.86,102.963l-1.733-2.893-1.067,1.413Z" transform="translate(-132.995 -67.465)" fill="#aaceff"/>
            <path id="Trazado_189576" data-name="Trazado 189576" d="M224.117,134.22a139.636,139.636,0,0,1,5.333,15.547c1.507,6.24,3.32,38.507,3.853,41.533s2.44,12.32,3.907,21.48,2.293,27.573,2.293,27.573l-11.733,1.84s-7-38.667-8.107-44.68S206.93,148.42,206.93,148.42l-1.44-13.853Z" transform="translate(-130.185 -56.082)" fill="#2c2c2c"/>
            <path id="Trazado_189577" data-name="Trazado 189577" d="M221.673,160.573c.973,4.133,3.853,32.187,4.08,33.773s7.493,44.613,7.827,46.667l3.867-.6S236.58,222,235.113,212.84s-3.36-18.44-3.907-21.48-2.347-35.293-3.853-41.533a139.644,139.644,0,0,0-5.333-15.547l-10.28.307S220.687,156.427,221.673,160.573Z" transform="translate(-128.102 -56.062)" fill="#121212"/>
            <path id="Trazado_189578" data-name="Trazado 189578" d="M226.527,134.307l-19.147.32c-1.08,0-8.187-.667-8.187-.667l-.133,2.853s6.88.573,10.173.573,17.947-.76,17.947-.76Z" transform="translate(-132.329 -56.169)" fill="#411417"/>
            <rect id="Rectángulo_39505" data-name="Rectángulo 39505" width="4.587" height="3.293" rx="0.6" transform="translate(77.051 81.591) rotate(180)" fill="#802816"/>
            <path id="Trazado_189579" data-name="Trazado 189579" d="M201.38,100.62l-4.28.04,1.2,3.187,2.147-.067Z" transform="translate(-132.982 -67.282)" fill="#121212"/>
            <path id="Trazado_189580" data-name="Trazado 189580" d="M198.481,103.017a32.306,32.306,0,0,0-1.56,15.827c1.333,9.12,1.173,29.76,1.173,29.76l2.373,4.187,2.88-4.933s-1.947-22.533-3.013-29.187.293-15.72.293-15.72Z" transform="translate(-133.163 -66.505)" fill="#121212"/>
            <path id="Trazado_189581" data-name="Trazado 189581" d="M209.787,96.033l-2.72-2.133L199,102.367l2.453,3.027Z" transform="translate(-132.349 -69.522)" fill="#d5eeff"/>
            <path id="Trazado_189582" data-name="Trazado 189582" d="M198.537,100.527l-1.587,3.24-1.12-2.707,1.427-2.36Z" transform="translate(-133.405 -67.922)" fill="#d5eeff"/>
            <path id="Trazado_189583" data-name="Trazado 189583" d="M210.447,99.066c2.413-3.64,6.067-2.813,9.413-.307s20.12,21.333,20.147,22.667-4.093,6.133-5.987,5.653-18.667-14.84-21.093-17.333S207.58,103.319,210.447,99.066Z" transform="translate(-128.929 -68.621)" fill="#ffba90"/>
            <path id="Trazado_189584" data-name="Trazado 189584" d="M209.1,102.578c0,1.653.64,5.52,3.173,7.427,3.587,2.667,12.467,10.44,12.467,10.44a15.347,15.347,0,0,0,5.573-4.413,14.147,14.147,0,0,0,3.08-6.88s-13.64-11.36-17.12-12.453a5.853,5.853,0,0,0-7.173,5.88Z" transform="translate(-128.983 -68.64)" fill="#c4ddff"/>
            <path id="Trazado_189585" data-name="Trazado 189585" d="M237.247,114.364c3.853,2.773-2.56,10.227-5.88,13.72s-13.107,13.907-13.107,13.907l-4-3.36a92.775,92.775,0,0,1,13.667-22.747C228.847,114.858,233.327,111.578,237.247,114.364Z" transform="translate(-127.262 -63.066)" fill="#ffba90"/>
            <g id="Grupo_93742" data-name="Grupo 93742" transform="translate(80.857 72.725)">
              <path id="Trazado_189586" data-name="Trazado 189586" d="M213.485,141.843h0a.933.933,0,0,1-.347-1.253l1.96-3.413a.933.933,0,0,1,1.267-.347h0a.933.933,0,0,1,.347,1.253l-1.96,3.427a.92.92,0,0,1-1.267.333Z" transform="translate(-208.531 -127.977)" fill="#ffba90"/>
              <path id="Trazado_189587" data-name="Trazado 189587" d="M212.3,141.287h0a.947.947,0,0,1-.333-1.267l1.96-3.413a.933.933,0,0,1,1.267-.347h0a.92.92,0,0,1,.333,1.253l-1.96,3.413a.92.92,0,0,1-1.267.36Z" transform="translate(-208.922 -128.167)" fill="#ffba90"/>
              <path id="Trazado_189588" data-name="Trazado 189588" d="M211.183,140.723h0a.933.933,0,0,1-.333-1.253l1.96-3.413a.933.933,0,0,1,1.267-.347h0a.933.933,0,0,1,.333,1.333l-1.987,3.333A.92.92,0,0,1,211.183,140.723Z" transform="translate(-209.295 -128.35)" fill="#ffba90"/>
              <path id="Trazado_189589" data-name="Trazado 189589" d="M210.115,140.044h0a.933.933,0,0,1-.347-1.253l1.96-3.427a.933.933,0,0,1,1.267-.333h0a.933.933,0,0,1,.347,1.253l-1.893,3.427a.933.933,0,0,1-1.333.333Z" transform="translate(-209.654 -128.578)" fill="#ffba90"/>
              <path id="Trazado_189590" data-name="Trazado 189590" d="M218.1,130.16a65.721,65.721,0,0,0-6.027,4.88,39.92,39.92,0,0,0-2.373,5.72s2.187-.48,3.093.227,3.053,2.667,3.053,2.667a27.7,27.7,0,0,0,3.933-4.867A20.066,20.066,0,0,0,221.113,135Z" transform="translate(-209.639 -130.16)" fill="#ffba90"/>
            </g>
            <g id="Grupo_93743" data-name="Grupo 93743" transform="translate(0 11.809)">
              <path id="Trazado_189591" data-name="Trazado 189591" d="M159.13,100.629s-3.867,1.013-5.333-1.107-.853-5.227-.907-5.96c-.2-3.053-3.333-5.333-3.773-7.16s.627-2.267.987-1.693c2.053,3.227,4.307,4.573,5.04,6.107a58.356,58.356,0,0,0,4.933,6.36Z" transform="translate(-149.011 -84.473)" fill="#ffba90"/>
              <path id="Trazado_189592" data-name="Trazado 189592" d="M156.047,98.648a8.893,8.893,0,0,1-4-1.853c-1.107-1.267-.72-3.453-1.507-4.64s.093-1.147.347-1.133,1.2,1.48,1.733,2.08S156.753,95.234,156.047,98.648Z" transform="translate(-148.609 -82.292)" fill="#ffba90"/>
            </g>
          </g>
          <g id="Grupo_93751" data-name="Grupo 93751" transform="translate(0 24.554)">
            <g id="Grupo_93749" data-name="Grupo 93749" transform="translate(16.994)">
              <g id="Grupo_93745" data-name="Grupo 93745" transform="translate(3.813 92.051)">
                <path id="Trazado_189593" data-name="Trazado 189593" d="M121.243,206.522a13.841,13.841,0,0,0-1.8,5.547c-.12,1.547.787,4.827,1.8,4.827a74.174,74.174,0,0,1,9.493.533c3.027.413,4.16,2.187,11.92,2.16,2.267,0,6.387-.147,6.267-1.08s-7.453-2.667-9.813-4.827c-5.973-5.587-9.947-6.933-9.947-6.933S121.523,206.229,121.243,206.522Z" transform="translate(-68.164 -141.189)" fill="#121212"/>
                <rect id="Rectángulo_39506" data-name="Rectángulo 39506" width="7.787" height="1.467" transform="translate(52.772 75.707)" fill="#121212"/>
                <path id="Trazado_189594" data-name="Trazado 189594" d="M106.633,161.447s29.213,9.547,30.413,10.92,9.4,52.933,9.4,52.933-2.04,1.893-7.32,2.307a28.763,28.763,0,0,1-7.067,0s-8-33.093-7.773-37.467a45.559,45.559,0,0,0-1.427-10.947s-33.947-1.68-36.28-3.693c-13.333-11.453,1.333-18,1.333-18l18.907,1.333Z" transform="translate(-80.981 -157.5)" fill="#001e3e"/>
              </g>
              <path id="Trazado_189595" data-name="Trazado 189595" d="M103.908,133.208c1.947,4.333,5.573,4,9.52,1.907s21.733-15.44,22.013-18.267c.147-1.48-2.12-5.613-4.2-5.467s-18.893,9.333-21.827,11.6S101.628,128.128,103.908,133.208Z" transform="translate(-69.722 -80.824)" fill="#aaceff"/>
              <path id="Trazado_189596" data-name="Trazado 189596" d="M104.186,105.86s-3.84,12.333-5.16,13.52c-2.493,2.187-8.627,2.907-11.2,5.92-3.12,3.667-.987,23.227-1.333,29.853s-5.467,19.493-8.093,25.333,14.16,14.533,14.853,14.667,9.987-3.613,11.72-5.333,3.387-17.96,4.493-21.96,5.88-17.747,6.32-18.667a28.853,28.853,0,0,0,2.76-12.4c.12-1.333.787-3.507.36-4.52-.84-2-7.427-6.16-7.32-7.013s2.293-12.587,2.293-12.587Z" transform="translate(-78.121 -82.663)" fill="#ffba90"/>
              <g id="Grupo_93746" data-name="Grupo 93746" transform="translate(37.841 162.982)">
                <rect id="Rectángulo_39507" data-name="Rectángulo 39507" width="7.787" height="1.52" transform="translate(1.517 10.788)" fill="#121212"/>
                <path id="Trazado_189597" data-name="Trazado 189597" d="M108.326,210.794a14.84,14.84,0,0,0-1.813,5.707c-.12,1.613.8,4.987,1.8,4.987a71.639,71.639,0,0,1,9.493.56c3.04.427,4.173,2.253,12,2.24,2.267,0,6.373-.16,6.253-1.12s-7.44-2.667-9.8-5c-5.973-5.76-9.96-7.147-9.96-7.147S108.5,210.487,108.326,210.794Z" transform="translate(-106.502 -210.699)" fill="#121212"/>
              </g>
              <path id="Trazado_189598" data-name="Trazado 189598" d="M98.65,116l10.36,11.04,2.24-4.987s4.427-1.613,6.187-.573,2.133,11.573,2.093,12.987-2.507,9.227-4.493,14.387c-1.16,3.027-2.213,7.16-4.133,12.307a138.138,138.138,0,0,0-3.693,14.667,20.773,20.773,0,0,1-11.72-.573c-7.653-2.507-15.813-3.787-16.08-4.173-1.16-1.64,4.347-11.533,5.133-18.027.173-1.4.6-26.08,1.333-29.147a6.387,6.387,0,0,1,5.333-5.12A45.148,45.148,0,0,0,98.65,116Z" transform="translate(-77.745 -79.283)" fill="#c4ddff"/>
              <path id="Trazado_189599" data-name="Trazado 189599" d="M104.11,138c-6.747-19.627-11.627-19.467-11.627-19.467l-.973-.547-.32.08a6.387,6.387,0,0,0-5.333,5.12c-.667,3.067-1.093,27.747-1.333,29.147-.787,6.493-6.293,16.387-5.133,18.027.24.347,6.827,1.413,13.707,3.44l12.613,1.613a13.923,13.923,0,0,0,1.48-.307,138.155,138.155,0,0,1,3.693-14.667c1.067-2.853,4.64-13.52,5.333-15.733,0,0-2.667,4.627-5.547,4C108.363,148.23,107.843,148.883,104.11,138Z" transform="translate(-77.751 -78.619)" fill="#aaceff"/>
              <path id="Trazado_189600" data-name="Trazado 189600" d="M79.606,157.19a34.187,34.187,0,0,0-1.333,12.253c.76,5.56,2.133,11.8,15.107,13.013s21.053,1.893,21.453,1.933-.987,11.16-.453,18.92,1.453,28.293,1.453,28.293a34.119,34.119,0,0,0,8,.92c5.147.093,6.827-1.72,6.827-1.72s3.533-48.587,2.293-52.627c-2.093-6.8-23.827-12.373-24.653-13.587-.68-1-.507-5.587-.507-5.587Z" transform="translate(-78.101 -65.553)" fill="#002957"/>
              <path id="Trazado_189601" data-name="Trazado 189601" d="M89.586,118.46c-4.733.52-5.653,4.747-4.76,9.547s9.027,25.853,10.36,26.667,10.147,1.907,10.573-.307-6.667-22.4-8.08-26.227S95.133,117.86,89.586,118.46Z" transform="translate(-75.988 -78.476)" fill="#c4ddff"/>
              <path id="Trazado_189602" data-name="Trazado 189602" d="M99.243,108.18l8.413,7.693-.76,4.36-9.68-.867-2.507-2.853L98.1,107.46Z" transform="translate(-72.591 -82.129)" fill="#ffa17b"/>
              <path id="Trazado_189603" data-name="Trazado 189603" d="M108.538,96.448c-3.707-2.173-13.333-2.787-16.253,4.227s.32,12.56,3.56,15.72a15.373,15.373,0,0,0,8.627,4.493c.8.173,7.653-.133,8.867-.88.827-.52,0-7.4.227-7.44a1.2,1.2,0,0,0,.813-1.147c-.12-.813-2.08-5.453-2.013-6.013S112.778,99.008,108.538,96.448Z" transform="translate(-73.78 -86.29)" fill="#ffba90"/>
              <path id="Trazado_189604" data-name="Trazado 189604" d="M111.1,99.207s-5.693-1.773-10.573,5.467c-1.053,1.56,2.667,6.333,2.493,6.88s-5.867-2.8-5.547-2.227c3.253,5.773,2.067,9.627,1.52,9.787-1.64.493-8.813-7.08-7.893-14.667a11.573,11.573,0,0,1,9.973-10.013C102.994,94.407,108.327,93.607,111.1,99.207Z" transform="translate(-73.822 -86.489)" fill="#9f3820"/>
              <path id="Trazado_189605" data-name="Trazado 189605" d="M99.167,106.627c1.053,1.827,1.933,4.427.973,4.973s-2.667-.493-3.64-2.333-1.107-3.773-.147-4.32S98.127,104.787,99.167,106.627Z" transform="translate(-72.262 -83.043)" fill="#ffba90"/>
              <path id="Trazado_189606" data-name="Trazado 189606" d="M102.277,122.13l-.093,2.827L99.73,122.4Z" transform="translate(-70.918 -77.239)" fill="#aaceff"/>
              <path id="Trazado_189607" data-name="Trazado 189607" d="M123.046,122.207c3.107,4.133,10.187-1.72,13.907-5.427s12.707-15.76,12.707-15.76l-3.16-3.64s-18.667,14.08-19.773,15.08S119.873,117.967,123.046,122.207Z" transform="translate(-63.461 -85.489)" fill="#ffba90"/>
              <path id="Trazado_189608" data-name="Trazado 189608" d="M101.57,124.933l.987-2.733.707,1.493Z" transform="translate(-70.305 -77.216)" fill="#aaceff"/>
              <path id="Trazado_189609" data-name="Trazado 189609" d="M79.463,157.19l-.853,2.973,29.04,2.067-.04-3.24Z" transform="translate(-77.958 -65.553)" fill="#411417"/>
              <path id="Trazado_189610" data-name="Trazado 189610" d="M99.777,161.873H98.9a1.747,1.747,0,0,1-1.747-1.747h0A1.747,1.747,0,0,1,98.9,158.38h.88a1.747,1.747,0,0,1,1.733,1.747h0a1.747,1.747,0,0,1-1.733,1.747Z" transform="translate(-71.778 -65.156)" fill="#802816"/>
              <path id="Trazado_189611" data-name="Trazado 189611" d="M92.83,116.757l2.507-2.507,9.24,10.507-1.987,2.973Z" transform="translate(-73.218 -79.866)" fill="#e7dfd3"/>
              <ellipse id="Elipse_7746" data-name="Elipse 7746" cx="6.907" cy="5.88" rx="6.907" ry="5.88" transform="translate(16.279 67.064)" fill="#e7dfd3"/>
              <path id="Trazado_189612" data-name="Trazado 189612" d="M104.673,144.637c0,3.253-3.093,5.88-6.907,5.88s-6.907-2.667-6.907-5.88,3.093-5.867,6.907-5.867S104.673,141.4,104.673,144.637Z" transform="translate(-73.875 -71.693)" fill="#c4ddff"/>
              <path id="Trazado_189613" data-name="Trazado 189613" d="M104.673,145.24c0,3.24-3.093,5.88-6.907,5.88s-6.907-2.667-6.907-5.88,3.093-5.88,6.907-5.88S104.673,142,104.673,145.24Z" transform="translate(-73.875 -71.496)" fill="#e7dfd3"/>
              <path id="Trazado_189614" data-name="Trazado 189614" d="M102.31,123.147l1.507-3.787,1.307,2.107-1.787,4.413Z" transform="translate(-70.058 -78.163)" fill="#e7dfd3"/>
              <g id="Grupo_93747" data-name="Grupo 93747" transform="translate(61.269 62.866)">
                <path id="Trazado_189615" data-name="Trazado 189615" d="M129.071,136.8l.493-.947a.427.427,0,0,1,.587-.187h0a.44.44,0,0,1,.187.587l-.48.947a.44.44,0,0,1-.587.187h0a.44.44,0,0,1-.2-.587Z" transform="translate(-122.422 -135.611)" fill="#84a19f"/>
                <path id="Trazado_189616" data-name="Trazado 189616" d="M124.2,151.119h0c-.373-.187.16-2.08.347-2.453l5.827-12a.76.76,0,0,1,1.013-.347h0a.76.76,0,0,1,.36,1.027l-5.813,12C125.749,149.706,124.589,151.292,124.2,151.119Z" transform="translate(-124.073 -135.401)" fill="#415b60"/>
                <rect id="Rectángulo_39508" data-name="Rectángulo 39508" width="1.667" height="0.773" transform="translate(5.864 1.948) rotate(24.5)" fill="#84a19f"/>
                <path id="Trazado_189617" data-name="Trazado 189617" d="M127.7,141.548h0a.253.253,0,0,1-.12-.333l1.88-4a.267.267,0,0,1,.333-.12h0a.24.24,0,0,1,.12.32l-1.88,4A.267.267,0,0,1,127.7,141.548Z" transform="translate(-122.913 -135.123)" fill="#bfd7d5"/>
              </g>
              <path id="Trazado_189618" data-name="Trazado 189618" d="M92.239,145.2c-.733,5.12,9.96,5.72,15.2,5.747s22.373-1.333,22.373-1.333l-2.373-4.76s-26.28-4.107-27.76-4.187S92.972,139.985,92.239,145.2Z" transform="translate(-73.427 -71.081)" fill="#ffba90"/>
              <g id="Grupo_93748" data-name="Grupo 93748" transform="translate(53.519 71.517)">
                <path id="Trazado_189619" data-name="Trazado 189619" d="M129.367,147.253h0a.88.88,0,0,0-.84-.893l-3.733-.12a.88.88,0,0,0-.893.853h0a.867.867,0,0,0,.84.893l3.733.12a.88.88,0,0,0,.893-.853Z" transform="translate(-116.38 -140.72)" fill="#ffba90"/>
                <path id="Trazado_189620" data-name="Trazado 189620" d="M129.467,145.993h0a.867.867,0,0,0-.84-.893l-3.733-.12a.88.88,0,0,0-.893.853h0a.88.88,0,0,0,.84.893l3.733.12A.88.88,0,0,0,129.467,145.993Z" transform="translate(-116.347 -141.14)" fill="#ffba90"/>
                <path id="Trazado_189621" data-name="Trazado 189621" d="M129.547,144.79h0a.88.88,0,0,0-.853-.893l-3.72-.107a.853.853,0,0,0-.893.84h0a.88.88,0,0,0,.84.893l3.733.107A.867.867,0,0,0,129.547,144.79Z" transform="translate(-116.32 -141.537)" fill="#ffba90"/>
                <path id="Trazado_189622" data-name="Trazado 189622" d="M129.507,143.63h0a.867.867,0,0,0-.84-.893l-3.733-.107a.867.867,0,0,0-.893.84h0a.88.88,0,0,0,.84.893l3.733.107a.88.88,0,0,0,.893-.84Z" transform="translate(-116.333 -141.923)" fill="#ffba90"/>
                <path id="Trazado_189623" data-name="Trazado 189623" d="M118.26,144.553a61.21,61.21,0,0,1,6.907-2.453,38.378,38.378,0,0,1,5.8.92s-1.48,1.52-1.333,2.667.68,3.813.68,3.813a26.666,26.666,0,0,1-5.88.76,18.734,18.734,0,0,1-3.72-.787Z" transform="translate(-118.26 -142.1)" fill="#ffba90"/>
              </g>
              <path id="Trazado_189624" data-name="Trazado 189624" d="M139.69,101.593a4.653,4.653,0,0,0,1.333-4.333,7.467,7.467,0,0,1,2-5.64,33.334,33.334,0,0,1,2.813-3.12c.933-.253.613.867.88.773s1.24-.4,1.333.547.333.76.653.88.48.907.293,1.333.347.573.333,1.093a2.667,2.667,0,0,1-.72,1.52,5.333,5.333,0,0,0-1.413,4c0,1.933-.2,5.04-3.253,5.8S139.69,101.593,139.69,101.593Z" transform="translate(-57.598 -88.462)" fill="#ffba90"/>
              <path id="Trazado_189625" data-name="Trazado 189625" d="M119.9,114.049c0,.44,1.24,4.693,2.933,6.333a5.333,5.333,0,0,0,4,1.707,17.584,17.584,0,0,1,1.333-1.84c.8-.88,2.467-.827,2.373-1.587s-2.933-1.467-4.547-3.573-1.133-4-1.52-4.147-1.56,1.227-2.213,1.493S119.794,112.356,119.9,114.049Z" transform="translate(-64.196 -80.972)" fill="#c4ddff"/>
            </g>
            <g id="Grupo_93750" data-name="Grupo 93750" transform="translate(0 47.405)">
              <rect id="Rectángulo_39509" data-name="Rectángulo 39509" width="7" height="49.787" transform="translate(33.486 120.486) rotate(180)" fill="#939fa7"/>
              <rect id="Rectángulo_39510" data-name="Rectángulo 39510" width="3.88" height="13.853" transform="translate(13.299 71.219) rotate(180)" fill="#939fa7"/>
              <rect id="Rectángulo_39511" data-name="Rectángulo 39511" width="46.147" height="10.053" rx="1.4" transform="translate(55.566 75.539) rotate(180)" fill="#2c2c2c"/>
              <rect id="Rectángulo_39512" data-name="Rectángulo 39512" width="7.267" height="61.707" rx="1.19" transform="translate(14.416 61.285) rotate(173.3)" fill="#2c2c2c"/>
              <path id="Trazado_189626" data-name="Trazado 189626" d="M69.4,125.583h0a1.187,1.187,0,0,1,1.333,1.027l6.413,54.467a1.173,1.173,0,0,1-1.04,1.333h0a1.16,1.16,0,0,1-1.333-1.027l-6.413-54.453a1.187,1.187,0,0,1,1.04-1.347Z" transform="translate(-64.384 -123.497)" fill="#404048"/>
              <path id="Trazado_189627" data-name="Trazado 189627" d="M98.31,219.737a4.08,4.08,0,1,0,4-4.067,4.08,4.08,0,0,0-4,4.067Z" transform="translate(-54.398 -93.465)" fill="#2c2c2c"/>
              <path id="Trazado_189628" data-name="Trazado 189628" d="M70.6,219.737a4.08,4.08,0,1,0,4.067-4.067,4.08,4.08,0,0,0-4.067,4.067Z" transform="translate(-63.634 -93.465)" fill="#2c2c2c"/>
              <path id="Trazado_189629" data-name="Trazado 189629" d="M69.61,217.857h48.667a3.427,3.427,0,0,0-3.427-3.427H73.037a3.427,3.427,0,0,0-3.427,3.427Z" transform="translate(-63.964 -93.878)" fill="#939fa7"/>
              <rect id="Rectángulo_39513" data-name="Rectángulo 39513" width="1.76" height="45.453" transform="translate(29.366 120.486) rotate(180)" fill="#939fa7"/>
            </g>
          </g>
          <g id="Grupo_93752" data-name="Grupo 93752" transform="translate(41.539 104.178)">
            <rect id="Rectángulo_39514" data-name="Rectángulo 39514" width="99.093" height="6.507" transform="translate(7.84 99.36) rotate(-90)" fill="#74828c"/>
            <rect id="Rectángulo_39515" data-name="Rectángulo 39515" width="99.093" height="6.507" transform="translate(146.733 99.36) rotate(-90)" fill="#74828c"/>
            <rect id="Rectángulo_39516" data-name="Rectángulo 39516" width="143.4" height="14.093" transform="translate(8.747 1.813)" fill="#74828c"/>
            <path id="Trazado_189630" data-name="Trazado 189630" d="M247.7,157.52l-145.293,1.4v-4.68l145.293.053Z" transform="translate(-94.57 -146.16)" fill="#b6b6bb"/>
            <rect id="Rectángulo_39517" data-name="Rectángulo 39517" width="161.44" height="8.187" fill="#939fa7"/>
          </g>
          <g id="Grupo_93753" data-name="Grupo 93753" transform="translate(72.232 73.552)">
            <path id="Trazado_189631" data-name="Trazado 189631" d="M130.46,153.65h37.827l4.253-28.44H134.713Z" transform="translate(-115.913 -125.21)" fill="#8b8b8b"/>
            <rect id="Rectángulo_39518" data-name="Rectángulo 39518" width="14.533" height="2.187" transform="translate(0 28.44)" fill="#8b8b8b"/>
            <path id="Trazado_189632" data-name="Trazado 189632" d="M134.713,125.21l33.533,28.44H130.46Z" transform="translate(-115.913 -125.21)" fill="#767676" opacity="0.5"/>
            <rect id="Rectángulo_39519" data-name="Rectángulo 39519" width="37.787" height="2.187" transform="translate(52.333 30.627) rotate(180)" fill="#767676"/>
            <path id="Trazado_189633" data-name="Trazado 189633" d="M146,136.8a2.667,2.667,0,1,0,3.28-2.52A2.947,2.947,0,0,0,146,136.8Z" transform="translate(-110.734 -122.196)" fill="#aaceff"/>
          </g>
        </g>
      </g>
    </g>
  </g>
</svg>
