<svg xmlns="http://www.w3.org/2000/svg" xmlns:xlink="http://www.w3.org/1999/xlink" width="1200" height="417.422" viewBox="0 0 1200 417.422">
  <defs>
    <clipPath id="clip-path">
      <path id="Trazado_189718" data-name="Trazado 189718" d="M971.841,0A171.973,171.973,0,0,0,806.15,217.559l-25.272,8.4,57.8,28.948,28.973-57.8-26.76,8.9a135.048,135.048,0,0,1-4.38-34.167c0-74.621,60.708-135.33,135.33-135.33s135.33,60.709,135.33,135.33c0,73.8-59.381,133.983-132.872,135.3v.031H0v36.513H973.7l.025-.011a171.885,171.885,0,0,0,65.009-330.164A170.793,170.793,0,0,0,971.841,0Z" transform="translate(0 0)" fill="none"/>
    </clipPath>
    <linearGradient id="linear-gradient" y1="1.061" x2="0.001" y2="1.061" gradientUnits="objectBoundingBox">
      <stop offset="0" stop-color="#36dac9"/>
      <stop offset="1" stop-color="#039be5"/>
    </linearGradient>
  </defs>
  <g id="Grupo_94319" data-name="Grupo 94319" transform="translate(-180 -2255)">
    <g id="Grupo_93769" data-name="Grupo 93769" transform="translate(180 2307.749)" opacity="0.3">
      <path id="Trazado_189717" data-name="Trazado 189717" d="M1091.845,324.722h0Zm0-34.267H829.967v34.267h261.878v20.986l49.671-38.291-49.671-38.288Z" transform="translate(58.485 18.964)" fill="#5c80fc"/>
      <g id="Grupo_93767" data-name="Grupo 93767" transform="translate(0 0)">
        <g id="Grupo_93766" data-name="Grupo 93766" clip-path="url(#clip-path)">
          <rect id="Rectángulo_39533" data-name="Rectángulo 39533" width="1143.684" height="343.686" transform="translate(0 0)" fill="url(#linear-gradient)"/>
        </g>
      </g>
    </g>
    <g id="cf11_scrum_slide_copia_2" data-name="cf11_scrum slide copia 2" transform="translate(935 2255)">
      <g id="Capa_1" data-name="Capa 1">
        <rect id="Rectángulo_39433" data-name="Rectángulo 39433" width="400" height="400" fill="none"/>
        <g id="Grupo_93696" data-name="Grupo 93696" transform="translate(93.973 65.326)">
          <g id="Grupo_93692" data-name="Grupo 93692" transform="translate(99.427)">
            <g id="Grupo_93688" data-name="Grupo 93688" transform="translate(0 9.42)">
              <rect id="Rectángulo_39434" data-name="Rectángulo 39434" width="2.947" height="73.56" transform="translate(5.427 81.68)" fill="#ababb0"/>
              <rect id="Rectángulo_39435" data-name="Rectángulo 39435" width="2.947" height="73.56" transform="translate(57.307 81.68)" fill="#ababb0"/>
              <rect id="Rectángulo_39436" data-name="Rectángulo 39436" width="2.947" height="64.64" transform="translate(45.613 81.68)" fill="#8d8d95"/>
              <rect id="Rectángulo_39437" data-name="Rectángulo 39437" width="2.947" height="64.64" transform="translate(15.64 81.68)" fill="#8d8d95"/>
              <rect id="Rectángulo_39438" data-name="Rectángulo 39438" width="65.947" height="88.707" rx="1.04" fill="#ababb0"/>
              <rect id="Rectángulo_39439" data-name="Rectángulo 39439" width="64.307" height="86.507" rx="1.01" transform="translate(0.813 1.067)" fill="#e1e5e7"/>
              <path id="Trazado_189234" data-name="Trazado 189234" d="M149.12,122.59v5.347l2.947-1.133-.053-4.213Z" transform="translate(-143.693 -33.883)" fill="#8d8d95"/>
              <path id="Trazado_189235" data-name="Trazado 189235" d="M188.03,122.64v5.333l2.947-1.133-.053-4.2Z" transform="translate(-130.723 -33.867)" fill="#8d8d95"/>
              <path id="Trazado_189236" data-name="Trazado 189236" d="M156.78,122.64v11.12l2.96-2.36-.067-8.76Z" transform="translate(-141.14 -33.867)" fill="#b6b6bb"/>
              <path id="Trazado_189237" data-name="Trazado 189237" d="M179.26,122.64v11.12l2.947-2.36-.053-8.76Z" transform="translate(-133.647 -33.867)" fill="#b6b6bb"/>
            </g>
            <g id="Grupo_93691" data-name="Grupo 93691" transform="translate(4.827)">
              <g id="Grupo_93689" data-name="Grupo 93689" transform="translate(0.8 20.54)">
                <path id="Trazado_189238" data-name="Trazado 189238" d="M205.123,64.853H149.5a.227.227,0,1,1,0-.453h55.627a.227.227,0,1,1,0,.453Z" transform="translate(-149.27 -64.4)" fill="#a4b3b3"/>
                <path id="Trazado_189239" data-name="Trazado 189239" d="M205.123,69.193H149.5a.213.213,0,0,1-.227-.227.227.227,0,0,1,.227-.227h55.627a.24.24,0,0,1,.227.227A.227.227,0,0,1,205.123,69.193Z" transform="translate(-149.27 -62.953)" fill="#a4b3b3"/>
                <path id="Trazado_189240" data-name="Trazado 189240" d="M205.123,73.53H149.5a.22.22,0,1,1,0-.44h55.627a.22.22,0,1,1,0,.44Z" transform="translate(-149.27 -61.503)" fill="#a4b3b3"/>
                <path id="Trazado_189241" data-name="Trazado 189241" d="M205.123,77.883H149.5a.227.227,0,0,1-.227-.227.213.213,0,0,1,.227-.227h55.627a.227.227,0,0,1,.227.227.24.24,0,0,1-.227.227Z" transform="translate(-149.27 -60.057)" fill="#a4b3b3"/>
                <path id="Trazado_189242" data-name="Trazado 189242" d="M205.123,82.223H149.5a.227.227,0,1,1,0-.453h55.627a.227.227,0,1,1,0,.453Z" transform="translate(-149.27 -58.61)" fill="#a4b3b3"/>
                <path id="Trazado_189243" data-name="Trazado 189243" d="M205.123,86.563H149.5a.213.213,0,0,1-.227-.227.227.227,0,0,1,.227-.227h55.627a.24.24,0,0,1,.227.227A.227.227,0,0,1,205.123,86.563Z" transform="translate(-149.27 -57.163)" fill="#a4b3b3"/>
                <path id="Trazado_189244" data-name="Trazado 189244" d="M205.123,90.9H149.5a.213.213,0,0,1-.227-.227.227.227,0,0,1,.227-.227h55.627a.24.24,0,0,1,.227.227A.227.227,0,0,1,205.123,90.9Z" transform="translate(-149.27 -55.717)" fill="#a4b3b3"/>
                <path id="Trazado_189245" data-name="Trazado 189245" d="M205.123,95.253H149.5a.227.227,0,0,1-.227-.227.213.213,0,0,1,.227-.227h55.627a.227.227,0,0,1,.227.227A.24.24,0,0,1,205.123,95.253Z" transform="translate(-149.27 -54.267)" fill="#a4b3b3"/>
                <path id="Trazado_189246" data-name="Trazado 189246" d="M205.123,99.593H149.5a.227.227,0,0,1-.227-.227.213.213,0,0,1,.227-.227h55.627a.227.227,0,0,1,.227.227A.24.24,0,0,1,205.123,99.593Z" transform="translate(-149.27 -52.82)" fill="#a4b3b3"/>
                <path id="Trazado_189247" data-name="Trazado 189247" d="M205.123,103.933H149.5a.227.227,0,1,1,0-.453h55.627a.227.227,0,1,1,0,.453Z" transform="translate(-149.27 -51.373)" fill="#a4b3b3"/>
                <path id="Trazado_189248" data-name="Trazado 189248" d="M205.123,108.273H149.5a.213.213,0,0,1-.227-.227.227.227,0,0,1,.227-.227h55.627a.24.24,0,0,1,.227.227.227.227,0,0,1-.227.227Z" transform="translate(-149.27 -49.927)" fill="#a4b3b3"/>
                <path id="Trazado_189249" data-name="Trazado 189249" d="M205.123,112.61H149.5a.22.22,0,1,1,0-.44h55.627a.22.22,0,1,1,0,.44Z" transform="translate(-149.27 -48.477)" fill="#a4b3b3"/>
              </g>
              <rect id="Rectángulo_39440" data-name="Rectángulo 39440" width="3.72" height="64.453" transform="translate(53.907 20.394)" fill="#a4b3b3"/>
              <rect id="Rectángulo_39441" data-name="Rectángulo 39441" width="3.72" height="64.133" transform="translate(0 20.54)" fill="#a4b3b3"/>
              <g id="Grupo_93690" data-name="Grupo 93690" transform="translate(4.113)">
                <path id="Trazado_189250" data-name="Trazado 189250" d="M152.615,124.734a.88.88,0,0,1-.4-.093.853.853,0,0,1-.36-1.16l15.08-29.147,9.813,8,6.387-20.667,10.28,5.693,7.227-37.88a.867.867,0,0,1,1.147-.4.853.853,0,0,1,.413,1.133l-7.453,40.12-10.667-5.92-6.453,20.867L167.5,97l-14.08,27.267a.867.867,0,0,1-.8.467Z" transform="translate(-151.754 -48.994)" fill="#02749e"/>
                <path id="Trazado_189251" data-name="Trazado 189251" d="M192.615,55.988h0a.813.813,0,0,1-1.107-.333L188.535,50.2a.813.813,0,0,1,.333-1.107h0a.827.827,0,0,1,1.107.32l2.973,5.467a.813.813,0,0,1-.333,1.107Z" transform="translate(-139.527 -48.994)" fill="#02749e"/>
                <path id="Trazado_189252" data-name="Trazado 189252" d="M185.12,54.335h0a.813.813,0,0,0,1.147.093l4.72-4a.813.813,0,0,0,.08-1.147h0a.813.813,0,0,0-1.147-.093l-4.72,4a.813.813,0,0,0-.08,1.147Z" transform="translate(-140.699 -48.995)" fill="#02749e"/>
              </g>
            </g>
          </g>
          <g id="Grupo_93695" data-name="Grupo 93695" transform="translate(52.085 27.002)">
            <g id="Grupo_93694" data-name="Grupo 93694" transform="translate(0.772)">
              <path id="Trazado_189253" data-name="Trazado 189253" d="M144.494,112.134c1.16-6.667,4.973-18.333,1.573-19.787-4.453-1.907-16.44-1.747-16.44-1.747v.2s-11.733,2.667-15.48,5.747c-2.867,2.347,4.227,13.013,7.2,19.08a58.322,58.322,0,0,1,3.6,14.267c.16,1.507.467,8.48,1.08,11.307.173.84,9.76,4.173,13.227,4.28,2.667.093,11.56-7.147,11.493-8-.2-2.88-2.933-9.52-3.187-11C146.534,120.467,144.214,113.8,144.494,112.134Z" transform="translate(-109.004 -62.129)" fill="#ffba90"/>
              <path id="Trazado_189254" data-name="Trazado 189254" d="M117.439,94.838c2.4.347,4,3.4,3.213,7.88s-1.707,7.44-1.92,8.6-1,8.213-1.507,10.053a3.64,3.64,0,0,1-3.893,3.013c-1.6-.267-3.08-3.413-3.2-6.667S110.959,93.9,117.439,94.838Z" transform="translate(-110.123 -60.726)" fill="#ffba90"/>
              <path id="Trazado_189255" data-name="Trazado 189255" d="M132.33,90.43c-.44-1.173-1.973-7.08-1.973-7.08l-4,.573v.2l-4,.56s.173,6.093.08,7.347-3.107,3.547-3.107,3.547l18.08-2.027S132.77,91.6,132.33,90.43Z" transform="translate(-107.054 -64.545)" fill="#ffba90"/>
              <path id="Trazado_189256" data-name="Trazado 189256" d="M131.79,88.767c-.507-1.8-1.187-4.373-1.333-5.173l-.293-.213-3.747.533v.2l-4,.56s.173,6.093.08,7.347-3.107,3.547-3.107,3.547h.4l7.72-3.36a34.856,34.856,0,0,0,4.28-3.453Z" transform="translate(-107.034 -64.535)" fill="#ffa17b"/>
              <path id="Trazado_189257" data-name="Trazado 189257" d="M129.564,121.461c-4.907-.107-6.88,3.267-6.933,13.747s1.867,24.267,2.507,25.92,6.667,1.027,7.307.08,3.213-24.253,3.28-27.653S134.9,121.581,129.564,121.461Z" transform="translate(-105.954 -51.842)" fill="#ffba90"/>
              <path id="Trazado_189258" data-name="Trazado 189258" d="M128.145,149.33c-1.493,0-5,2.013-4.813,11.787s4.16,24.093,4.16,24.093h3.533s1.92-19.013,1.933-22.493C133,154.823,132.878,149.343,128.145,149.33Z" transform="translate(-105.722 -42.551)" fill="#ffba90"/>
              <path id="Trazado_189259" data-name="Trazado 189259" d="M137.746,122.258c4.867-.613,7.16,2.56,8.293,12.973s.773,22.907.293,24.613-6.28,1.667-7.067.8-6.013-22.347-6.427-25.72S132.453,122.925,137.746,122.258Z" transform="translate(-102.603 -51.6)" fill="#ffba90"/>
              <path id="Trazado_189260" data-name="Trazado 189260" d="M132.885,99.33c-1.107-2.16.507-5.187,4.573-7.173s7.067-2.92,8.133-3.413,7.28-4,9.08-4.587a3.64,3.64,0,0,1,4.693,1.453c.72,1.44-1,4.48-3.613,6.48S135.818,105.144,132.885,99.33Z" transform="translate(-102.649 -64.392)" fill="#ffba90"/>
              <path id="Trazado_189261" data-name="Trazado 189261" d="M143.007,148.927c-1.453-.347-5.627.267-7.76,9.813s-1.667,24.187-1.667,24.187l3.813.173s5.987-17.16,6.827-20.52C146.154,154.914,147.607,150.061,143.007,148.927Z" transform="translate(-102.318 -42.709)" fill="#ffba90"/>
              <path id="Trazado_189262" data-name="Trazado 189262" d="M112.754,113.058c-1.867.653-3.053,2.173-1.493,7.493s6.773,17.187,6.773,17.187l3.027-1.067s-.64-11.267-1.333-14.2S117.647,111.351,112.754,113.058Z" transform="translate(-109.984 -54.719)" fill="#ffba90"/>
              <path id="Trazado_189263" data-name="Trazado 189263" d="M132.76,78.627c2.733,4.387,2.133,10.813-.68,12.573s-8.84-.56-11.573-4.933-2.2-9.653,1.187-11.76S130.027,74.254,132.76,78.627Z" transform="translate(-107.244 -67.782)" fill="#ffba90"/>
              <path id="Trazado_189264" data-name="Trazado 189264" d="M123.072,88.966c-.573-.307-4.347-3.373-4.72-4.413s-1.333-3.12-.547-4.507c.173-.307,1.013-.667.56-1.547-.693-1.333,1.813-2.987,2.067-3.187a14.532,14.532,0,0,1,2.747-1.707c1.093-.467,3.373-1.187,7.32.96.747.4-2.307.173-2.667-.2s-5.04,4.413-5.333,5.013a14.976,14.976,0,0,0-.427,2.413c0,.333.947,1.947.907,2.293s-1.333,1.067-1.333,1.52A5.013,5.013,0,0,0,123.072,88.966Z" transform="translate(-107.663 -67.96)" fill="#9f3820"/>
              <g id="Grupo_93693" data-name="Grupo 93693" transform="translate(7.956 79.032)">
                <path id="Trazado_189265" data-name="Trazado 189265" d="M120.08,137.122h0a.68.68,0,0,0,.28-.907l-1.333-2.547a.68.68,0,0,0-.907-.28h0a.667.667,0,0,0-.28.907l1.333,2.547A.68.68,0,0,0,120.08,137.122Z" transform="translate(-115.533 -126.922)" fill="#ffba90"/>
                <path id="Trazado_189266" data-name="Trazado 189266" d="M120.952,136.763h0a.693.693,0,0,0,.28-.907L119.9,133.31a.68.68,0,0,0-.92-.28h0a.68.68,0,0,0-.28.907l1.333,2.547a.667.667,0,0,0,.92.28Z" transform="translate(-115.245 -127.043)" fill="#ffba90"/>
                <path id="Trazado_189267" data-name="Trazado 189267" d="M121.788,136.363h0a.693.693,0,0,0,.28-.92l-1.333-2.533a.667.667,0,0,0-.907-.28h0a.693.693,0,0,0-.28.907l1.333,2.547A.693.693,0,0,0,121.788,136.363Z" transform="translate(-114.961 -127.176)" fill="#ffba90"/>
                <path id="Trazado_189268" data-name="Trazado 189268" d="M122.579,135.893h0a.667.667,0,0,0,.28-.907l-1.333-2.547a.667.667,0,0,0-.907-.28h0a.68.68,0,0,0-.28.907l1.333,2.547a.667.667,0,0,0,.907.28Z" transform="translate(-114.699 -127.333)" fill="#ffba90"/>
                <path id="Trazado_189269" data-name="Trazado 189269" d="M118.423,128.52a45.159,45.159,0,0,1,4.267,3.707,29.067,29.067,0,0,1,1.6,4.24s-1.587-.413-2.267.08-2.293,1.907-2.293,1.907a20.267,20.267,0,0,1-2.747-3.667A13.921,13.921,0,0,1,116.09,132Z" transform="translate(-116.09 -128.52)" fill="#ffba90"/>
              </g>
              <path id="Trazado_189270" data-name="Trazado 189270" d="M149.887,93.357c1.72.987,3.64.907,6.667-3.747s8.64-16.32,8.64-16.32l-2.773-1.6s-8.147,7.813-9.907,10.267S145.407,90.77,149.887,93.357Z" transform="translate(-97.451 -68.431)" fill="#ffba90"/>
              <path id="Trazado_189271" data-name="Trazado 189271" d="M133.586,174.8s-.747,3.813-.16,5.467c.16.44,11,1.72,12.587,1.12s2.907-1.213,2.907-1.213-.307-1.64-1-1.72-7.333-1.987-8-2.96-1.24-2.52-1.627-1.96A6.093,6.093,0,0,1,133.586,174.8Z" transform="translate(-102.43 -34.525)" fill="#121212"/>
              <path id="Trazado_189272" data-name="Trazado 189272" d="M146.013,181.023c.893-.333,1.68-.667,2.227-.907a8.307,8.307,0,0,1-2.533.32c-1.253-.227-5.547-1.627-8.4-2.587a4.667,4.667,0,0,1-3.187-3.36h-.533s-.747,3.813-.16,5.467C133.586,180.343,144.426,181.623,146.013,181.023Z" transform="translate(-102.43 -34.165)" fill="#020202"/>
              <path id="Trazado_189273" data-name="Trazado 189273" d="M148.947,178.7a22.08,22.08,0,0,1-3.347,1.333c-.453,0-6.667-1.48-10.107-1.853-1-.107-1.853-.32-2.253-.373-.187,0,0,1.053,0,1.053l.28.747s11.627,1.093,12,1.067,3.813-1.427,3.813-1.427Z" transform="translate(-102.445 -33.058)" fill="#1a2228"/>
              <path id="Trazado_189274" data-name="Trazado 189274" d="M131.154,176.48l-4.587-.24a7.373,7.373,0,0,1-1.24,2.84c-.787,1.24-2,2.507-1.947,3.48,0,.627.32,1.333.92,1.333,1.52.2,4.427.4,5.24-.147a8.12,8.12,0,0,0,1.707-2.24,4.427,4.427,0,0,0,.253-2.52C131.46,178.333,131.154,176.48,131.154,176.48Z" transform="translate(-105.704 -33.581)" fill="#1a2228"/>
              <path id="Trazado_189275" data-name="Trazado 189275" d="M131.154,176.057l-4.587-.227a7.373,7.373,0,0,1-1.24,2.84c-.787,1.227-2,2.507-1.947,3.48,0,.627.28,1.147.88,1.213,1.52.187,4.427.387,5.227-.16a6.786,6.786,0,0,0,1.627-2.04,4.707,4.707,0,0,0,.387-2.56C131.46,177.95,131.154,176.057,131.154,176.057Z" transform="translate(-105.704 -33.718)" fill="#121212"/>
              <path id="Trazado_189276" data-name="Trazado 189276" d="M126.767,175.392c-.533.32-.787,3.333-.787,3.507s.947.267,1.333.2c1.427-.24,1.973-2.667,1.653-3.373S127.233,175.112,126.767,175.392Z" transform="translate(-104.837 -33.934)" fill="#121212"/>
              <path id="Trazado_189277" data-name="Trazado 189277" d="M131.5,178.5a22.7,22.7,0,0,0-.293-2.253,7.842,7.842,0,0,1,.08.813,4.56,4.56,0,0,1-.373,2.56,7,7,0,0,1-1.627,2.04c-.8.547-3.707.36-5.24.16a.853.853,0,0,1-.573-.32,1.333,1.333,0,0,0-.093.547c0,.627.28,1.147.88,1.213,1.52.187,4.427.387,5.227-.16a6.787,6.787,0,0,0,1.627-2.04,4.706,4.706,0,0,0,.387-2.56Z" transform="translate(-105.704 -33.578)" fill="#020202"/>
              <path id="Trazado_189278" data-name="Trazado 189278" d="M122.784,73.806c1.707-1.067,6.667-2.547,8.2,1.067.507,1.213-1.24,3.453-1.24,3.453s.24-2.547-1.773-2.12-2.32,3.067-4,3.627-2.52,1.24-3.227.293S120.811,75.033,122.784,73.806Z" transform="translate(-106.668 -68.134)" fill="#9f3820"/>
              <path id="Trazado_189279" data-name="Trazado 189279" d="M126.69,75.163s1.493.627,1.867,1.573a1.787,1.787,0,0,1,0,1.48,1.333,1.333,0,0,0,.88-1.173A2.773,2.773,0,0,0,127.1,73.79Z" transform="translate(-104.601 -67.731)" fill="#9f3820"/>
              <path id="Trazado_189280" data-name="Trazado 189280" d="M158.15,73.425c1.213-1.253,1.667-2.667,2.88-3.147,1.56-.6,3.813-.16,5.12-.4s2-.733,2.147-.613c.653.6-.373,1.333-.373,1.333a8.827,8.827,0,0,0,2.867-.453c1.547-.573,3.28-.96,3.427-.573S170.91,71.3,170,71.745s-9.267,4-9.267,4Z" transform="translate(-94.114 -69.246)" fill="#ffba90"/>
            </g>
            <path id="Trazado_189281" data-name="Trazado 189281" d="M122.2,122.66h13.467l.747,12.107s-2.96,24-2.467,24.147,1.227.8.733,1.053-1.04.68-.613,1.107-.24,1.72,0,2.4-.667,27.573-1.04,28.8-4.493,1.547-6.093.933-1.48-1.493-1.48-1.493-2.56-20.12-2.547-21.72.573-8.213.387-8.653.547-1.133.56-1.747a8.654,8.654,0,0,0,0-1.667c-.12-.427-1.333-17.333-1.72-20.373S122.2,122.66,122.2,122.66Z" transform="translate(-105.401 -51.441)" fill="#003554"/>
            <path id="Trazado_189282" data-name="Trazado 189282" d="M132.24,123.417l10.507-3.027a92.32,92.32,0,0,1,3.4,11.867c1.067,5.507,1.64,27.413,1.64,27.827s-.387,3.2-.84,5.587-7.067,26.08-7.067,26.08a4.467,4.467,0,0,1-4.24.84c-2.373-.827-2.813-2.133-2.813-2.133s.773-22,2.573-24.133c1.253-1.48,2.053-3.04,1.8-3.12s-.573-.827-.08-1.107.667-1.333.08-1.333-.32-2.747-.653-4.947-3.72-21.56-3.72-21.56Z" transform="translate(-101.979 -52.198)" fill="#003554"/>
            <path id="Trazado_189283" data-name="Trazado 189283" d="M123.367,91.367s3.76,2.667,7.48,2.08a7.373,7.373,0,0,0,5.187-3.547l5.813.987,6.307,5.813s-3.227,12.6-3.133,16.547,4,17.987,4,17.987A28.787,28.787,0,0,1,137.3,133.9c-6.16-.093-12.92,0-12.92,0s-.88-10.507-2.667-15.573-7.493-15.773-7.493-15.773l3.2-7.867Z" transform="translate(-107.985 -62.361)" fill="#c4ddff"/>
            <path id="Trazado_189284" data-name="Trazado 189284" d="M122.029,137.557c.36,3.08,1.6,20,1.72,20.373a8.653,8.653,0,0,1,0,1.667c0,.613-.733,1.333-.56,1.747s-.36,7.053-.387,8.653,2.547,21.72,2.547,21.72A1.514,1.514,0,0,0,126,192.77c-.213-3.373-.987-16.227-1.053-20.067-.08-4.44.787-12.667,1.187-13.227s-1.187-28.573-.48-30.667,9.973-6.16,9.973-6.16H122.162S121.709,134.49,122.029,137.557Z" transform="translate(-105.421 -51.445)" fill="#001e3e"/>
            <path id="Trazado_189285" data-name="Trazado 189285" d="M134.867,132.989c-1.573-1.6-1.893-1.333-1.96-1.24.76,4.347,3.213,18.427,3.493,20.28.333,2.2.08,4.867.653,4.947s.413,1.067-.08,1.333-.16,1.027.08,1.107-.547,1.64-1.8,3.12c-1.8,2.133-2.573,24.133-2.573,24.133s.44,1.333,2.813,2.133h.133c.293-3.64.92-11.28,1.213-14.413.4-4.2,4-14.173,4-15.693S136.76,134.949,134.867,132.989Z" transform="translate(-101.832 -48.437)" fill="#001e3e"/>
            <path id="Trazado_189286" data-name="Trazado 189286" d="M134.04,113.173c1.667-3.253,8.707-7.36,7.84-8.707s-14.413,2.84-15.76,2.667-2.56-7.253-2.56-7.253L119,112.56c.373.88.707,1.693.973,2.4,1.853,5.067,2.667,15.573,2.667,15.573s6.76-.093,12.92,0a14.363,14.363,0,0,0,1.707-.08C137.08,129.613,132.427,116.307,134.04,113.173Z" transform="translate(-106.392 -59.035)" fill="#aaceff"/>
            <path id="Trazado_189287" data-name="Trazado 189287" d="M121.65,91.6s4.827,19.32,5.693,23.84,1.813,25.973.773,26.667-5.533,0-5.533,0-3.827-31-4.627-32.64-4.293-13.333-3.773-13.987a74.215,74.215,0,0,1,7.467-3.88Z" transform="translate(-108.015 -61.795)" fill="#ff8311"/>
            <path id="Trazado_189288" data-name="Trazado 189288" d="M131.87,90.174a38.52,38.52,0,0,1,5.787,17.04c.56,9.24,1.787,31.76,2.347,32.267s5.787,0,6.267-.533-3.213-23.293-3.173-27.667,0-13.52-.773-15.36-3.08-6.813-5.333-6.04a12.133,12.133,0,0,1-5.12.293Z" transform="translate(-102.102 -62.395)" fill="#ff8311"/>
            <path id="Trazado_189289" data-name="Trazado 189289" d="M115.672,94.466c-.733-.427-4.227,5.24-5.333,12.533a106.056,106.056,0,0,0-.72,16.933l7.333,19.56a23.266,23.266,0,0,0,3.587-.84,8.107,8.107,0,0,0,3-1.853s-1.92-10.28-2.813-13.627a20.32,20.32,0,0,0-2.44-5.333l2.387-14.667S119.365,96.626,115.672,94.466Z" transform="translate(-109.544 -60.847)" fill="#ff8311"/>
            <path id="Trazado_189290" data-name="Trazado 189290" d="M136,95.627s15.573-7.133,15.907-7.387,3.093-4.827,5.107-7.547a106.45,106.45,0,0,1,7.8-8.373,7.72,7.72,0,0,1,2.973,1.08,12.493,12.493,0,0,1,2.32,3.093s-11.76,17.44-12.173,17.8-17.107,10.28-17.107,10.28Z" transform="translate(-100.725 -68.221)" fill="#ff8311"/>
          </g>
          <path id="Trazado_189291" data-name="Trazado 189291" d="M290.933,176.616H273.84V162.229a17.16,17.16,0,0,0-1.893-7.813c-.093-3.827-.893-7.107-3.067-8.067-.893-.92-3.853-1.64-6.56-2.48-1.24-.387-2.413-.813-3.32-1.173l.107-.08-2.52-2.96h-1.12c-.067-.4-.147-.947-.227-1.56a1.62,1.62,0,0,0-.093-.653c-.093-.227,0-.16,0-.24l-.08-.56a1.817,1.817,0,0,0,0-.267,1.614,1.614,0,0,0-.067-.56,1.332,1.332,0,0,1,0-.227,5.883,5.883,0,0,0-.093-.72,2.839,2.839,0,0,1,0-.48v-.667c1.573-1.093,4.587-7.253,2.667-12.24a8.893,8.893,0,0,0-9.333-5.587,7.347,7.347,0,0,0-6.24,5.827h.147a10.986,10.986,0,0,0-.947,4.12c-.16,4.773,1.333,9.64,4,11.293-.12,1-.253,1.933-.36,2.587h-1.093l-2.533,2.973.08.08c-.893.347-2.04.76-3.253,1.133a31.4,31.4,0,0,0-6.253,2.2l-.093.067-.24.2a12.787,12.787,0,0,0-3.4,6c-1.48,4.787-2.827,8.413-3.187,9.667-.28,1-1.613,5.56-2.387,8.507-1.333,2.853-.613,4.84.613,5.947l.187.133H211.933a2.667,2.667,0,0,0,1.12-2.813c0-2.667-1.2-7.133-2.067-14.667a42.948,42.948,0,0,0-1.573-7.747l.573-.373a10.667,10.667,0,0,0-3.133-4.973,2.28,2.28,0,0,0-1.147-.787,32.855,32.855,0,0,0-4.067-1.227h0c-1.227-.333-2.373-.6-3.08-.8,0,0-.96-.733-1.92-1.653.133-.213.133-.413,0-.48-.48-.173,3.04-7,4.773-8.427s2.667-6.6-.16-9.427a3.2,3.2,0,0,0-2.667-1.053c-.133-.333-.267-.653-.427-1-3.867-7.653-10.6-4.773-10.667-4.253-4.373.56-4.933,6.533-4.933,6.533l.36-.2c-.08.267-.16.533-.227.813-1.333,5.88.813,11.733,3.587,12.907l-.293,2.253c-.627,1.613-3.773,4-3.773,4-.493.147-1.187.307-1.973.507l-.08-.347s-5.533,1.093-6.827,2.36c-1.947,1.893-4.147,8.293-4.147,8.293l.2.067c-.64,1.507-1.267,3.107-1.84,4.773-4.08,11.933-5.573,15.907-2.667,17.587l.227.12.147.08h-20a4.932,4.932,0,0,0-.133-1.333c-.547-2.093-3.16-9.333-3.613-10.573s-2.04-4.867-3.867-9.653a12.973,12.973,0,0,0-3.88-5.947c-.813-.973-4-1.72-6.8-2.667-1.24-.387-2.413-.813-3.333-1.173l.093-.08-2.587-3.04H120c-.107-.667-.24-1.613-.36-2.667,2.667-1.693,4.24-6.667,4.08-11.56a11.107,11.107,0,0,0-.973-4.2h.147a7.533,7.533,0,0,0-6.373-5.973,9.12,9.12,0,0,0-9.507,5.72c-1.947,5.093,1.147,11.4,2.76,12.52a14.278,14.278,0,0,1-.187,1.547v1.44l-.08.627v.16a4.907,4.907,0,0,1-.107.773h0c-.08.6-.16,1.133-.227,1.52h-1.6l-2.587,3.027.107.093c-.92.36-2.12.8-3.4,1.2-2.667.853-5.733,1.573-6.667,2.493a7.053,7.053,0,0,0-3.013,3.667c-2.12,4.827-4.387,11.093-4.907,12.36s-2.853,7.653-3.64,10.04a3.773,3.773,0,0,0-.453,1.493H70.48v7.213h6.493v79h5.333V191.2H93.413a7.84,7.84,0,0,0,4.067,6.84,12.08,12.08,0,0,0-.667,4.88,1.973,1.973,0,0,0-1.787,1.947V209.2a1.987,1.987,0,0,0,1.987,1.987h17.333v37.48H99.987A2.827,2.827,0,0,0,97.16,251.5h1.72a3.373,3.373,0,1,0,5.467,0H122.2c.213,1.333.6,2.667,1.333,3.147,1.16.72,3.373.707,5.64.307a3.36,3.36,0,0,0,6.373-1.493,3.679,3.679,0,0,0-.067-.68,8.827,8.827,0,0,0,1.573-1.333h.36a3.306,3.306,0,0,0,0-.36c1.76-1.96,2.933-4.587,2.48-6.213-.32-1.187-3.24-2.667-6.2-2.307l1.16-26.853,10.987,6.347.92-1.467,4.293,2.52a66.414,66.414,0,0,1,6.573-4.173c2.973-1.573,4.88-8.307,4.88-8.307a5.853,5.853,0,0,0-5.213-.96,44.6,44.6,0,0,0-5.08,1.787l-17.4-11.56a8.286,8.286,0,0,0,.173-1.173h0l.267.16,2.2-3.893c.653-1.12,1.427-2.44,2.173-3.747H168.68a7.907,7.907,0,0,0,4.12,4.68,16.881,16.881,0,0,0-.147,3.84c.107,1.133.627,1.333,1.133,1.413h-4.48a1.987,1.987,0,0,0-1.987,1.987v4.347a1.987,1.987,0,0,0,1.987,1.88h5.973a53.519,53.519,0,0,0,3.107,11.307,11.561,11.561,0,0,0,2.787,1.067c1.333,2.12,3.307,4.987,5.453,8v16.453H172.24a2.827,2.827,0,0,0-2.827,2.827h1.76a3.427,3.427,0,0,0-.627,1.96,3.373,3.373,0,1,0,6.107-1.96H196.88c.693,1.24,2.88,3.6,3.92,3.293a1.333,1.333,0,0,0,.467-.307,3.36,3.36,0,0,0,6.56-1.027,3.427,3.427,0,0,0-.627-1.96h2.493a2.84,2.84,0,0,0-2.84-2.827H205.52c-.293-.44-.547-.747-.547-.747h0c-.427-.987-1.16-2.52-1.747-3.707,0-2.4.36-5.653.667-9.493.253-3.12.52-6.587.733-9.733a13.239,13.239,0,0,0,2.027-.373s.947-5.973,1.48-12.76h1.627a1.987,1.987,0,0,0,1.987-1.973v-4.307a1.987,1.987,0,0,0-1.987-1.987h-1.333c0-.92,0-1.813-.08-2.667a24.683,24.683,0,0,0-.613-4.6c-.24-.96-.52-1.84-.813-2.667h27.827l-4.213,7.307h0a10.667,10.667,0,0,0-1.093,2.347l1.707,41.333a2.587,2.587,0,0,0-2.667.32c-2.28,2.267-.613,7.52-.613,7.52s2.56,4.173,5.973,4.373a34.055,34.055,0,0,0,7.573-.787v-5.067h12.96v.6h2.133v3.733a34.56,34.56,0,0,0,6.253.987,11.267,11.267,0,0,0,3.88-.44,3.345,3.345,0,0,0,4.693-4.307,2.051,2.051,0,0,1,.187-.573h1.2a2.853,2.853,0,0,0-.76-1.933,4.24,4.24,0,0,0-.787-3.693c-.973-.973-2.747-.773-4.453-.227l1.4-33.787h4.707a1.987,1.987,0,0,0,1.987-1.987v-4.333a1.987,1.987,0,0,0-1.987-1.973h-4.773a11.175,11.175,0,0,0-1.427-2.387l-.693-2.107H266a7.867,7.867,0,0,0,7.28-4.92h5.693v71.52h5.333V183.829h6.667Zm-122.667,0h-.773l.773-.28Zm34.56-4.493a14.253,14.253,0,0,0,5.187,4.493h-5.187Zm-74.853,19.52v-.44h3.547l-1.68,3.667Zm66.52,31.387c.12.693.24,1.413.36,2.133-.28-.72-.56-1.44-.827-2.147ZM233.6,170.122c.52-.707,1.24-1.92,2.013-3.28.4,1.507.707,2.573.827,2.92a37.335,37.335,0,0,1,0,6.853h-8.493c2.413-1.587,4.56-4.947,5.653-6.493Zm-98.067,5.52c.2.333.44.653.667.973h-8.16v-1.893a6.573,6.573,0,0,1,.147-1.653c.24-.693,1.227-4.373,2.307-8.64a74.772,74.772,0,0,0,5.04,11.213Zm-15.373,42.6.76,30.427h-.76Zm72.253,19.32a34.508,34.508,0,0,1,3.533,5.253c.133,1.027.293,2.08.44,2.827v.613h-3.933Zm51.133,8.16.867-36.8h5.267v36.8Z" transform="translate(-70.48 -26.715)" fill="#7395cb"/>
        </g>
      </g>
    </g>
  </g>
</svg>
