<svg xmlns="http://www.w3.org/2000/svg" xmlns:xlink="http://www.w3.org/1999/xlink" width="1200" height="418.552" viewBox="0 0 1200 418.552">
  <defs>
    <clipPath id="clip-path">
      <path id="Trazado_189718" data-name="Trazado 189718" d="M971.841,0A171.973,171.973,0,0,0,806.15,217.559l-25.272,8.4,57.8,28.948,28.973-57.8-26.76,8.9a135.048,135.048,0,0,1-4.38-34.167c0-74.621,60.708-135.33,135.33-135.33s135.33,60.709,135.33,135.33c0,73.8-59.381,133.983-132.872,135.3v.031H0v36.513H973.7l.025-.011a171.885,171.885,0,0,0,65.009-330.164A170.793,170.793,0,0,0,971.841,0Z" transform="translate(0 0)" fill="none"/>
    </clipPath>
    <linearGradient id="linear-gradient" y1="1.061" x2="0.001" y2="1.061" gradientUnits="objectBoundingBox">
      <stop offset="0" stop-color="#36dac9"/>
      <stop offset="1" stop-color="#039be5"/>
    </linearGradient>
  </defs>
  <g id="Grupo_94320" data-name="Grupo 94320" transform="translate(-180 -3215)">
    <g id="Grupo_93771" data-name="Grupo 93771" transform="translate(180 3268.879)" opacity="0.3">
      <path id="Trazado_189717" data-name="Trazado 189717" d="M1091.845,324.722h0Zm0-34.267H829.967v34.267h261.878v20.986l49.671-38.291-49.671-38.288Z" transform="translate(58.485 18.964)" fill="#5c80fc"/>
      <g id="Grupo_93767" data-name="Grupo 93767" transform="translate(0 0)">
        <g id="Grupo_93766" data-name="Grupo 93766" clip-path="url(#clip-path)">
          <rect id="Rectángulo_39533" data-name="Rectángulo 39533" width="1143.684" height="343.686" transform="translate(0 0)" fill="url(#linear-gradient)"/>
        </g>
      </g>
    </g>
    <g id="cf11_scrum_slide_copia_4" data-name="cf11_scrum slide copia 4" transform="translate(975 3215)">
      <g id="Capa_1" data-name="Capa 1">
        <rect id="Rectángulo_39490" data-name="Rectángulo 39490" width="400" height="400" fill="none"/>
        <g id="Grupo_93734" data-name="Grupo 93734" transform="translate(82.938 87.092)">
          <g id="Grupo_93721" data-name="Grupo 93721" transform="translate(66.673 4.215)">
            <path id="Trazado_189369" data-name="Trazado 189369" d="M149.563,133.863,120.27,165.917l3.867-65.24L148.11,93.57Z" transform="translate(-109.522 -60.117)" fill="#596e7a"/>
            <path id="Trazado_189370" data-name="Trazado 189370" d="M146.473,94.127S143.7,92.1,137.62,91.46a23.067,23.067,0,0,0-9.16.4l-.8-9.867,2.293-9.573,14.053,2.427,2.467,10.4Z" transform="translate(-107.058 -67.167)" fill="#631707"/>
            <g id="Grupo_93718" data-name="Grupo 93718" transform="translate(19.895 172.453)">
              <path id="Trazado_189371" data-name="Trazado 189371" d="M129.261,197.82a10.666,10.666,0,0,1-1.653,4.293,3.627,3.627,0,0,0,.12,3.347c1.413,1.333,3.053.84,4.76,1.907s4.293,4.907,5.733,5.253,4.747.2,4.947-.48-3.253-3.213-3.253-3.213c-5.187-6.373-5.773-9.68-5.773-9.68a33.223,33.223,0,0,0-4.88-1.427Z" transform="translate(-127.088 -197.82)" fill="#ffa17b"/>
              <path id="Trazado_189372" data-name="Trazado 189372" d="M139.953,208.23s.987.827.84,1.08-1.72.24-2.107,0a40.614,40.614,0,0,1-9.16-6.8,5.333,5.333,0,0,1-1.147-2.6,4.347,4.347,0,0,0-1.213,3.507,4.586,4.586,0,0,0,.6,1.333,37.944,37.944,0,0,0,4.253,2.507c1.707,1.067,4.093,4.907,5.533,5.267s6.333.267,6.533-.427S141.62,209.363,139.953,208.23Z" transform="translate(-127.126 -197.123)" fill="#592210"/>
              <path id="Trazado_189373" data-name="Trazado 189373" d="M127.13,202.37s1.027,2.747,1.333,3.68a30.667,30.667,0,0,1,.773,4.4h.627s-.827-5.64,2.16-4C132.957,206.983,127.13,202.37,127.13,202.37Z" transform="translate(-127.13 -196.303)" fill="#592210"/>
            </g>
            <path id="Trazado_189374" data-name="Trazado 189374" d="M141.2,167.839c-4.84,2.507-8.56,11.773-9.48,15.493s-2.667,24.667-3.107,25.973,4.813,1.333,5,.56c1.867-7.493,9.88-26.347,10.787-28.173s4.6-10.307,4.88-11.173C150.7,166.066,143.977,166.412,141.2,167.839Z" transform="translate(-106.748 -35.679)" fill="#ffa17b"/>
            <g id="Grupo_93719" data-name="Grupo 93719" transform="translate(55.962 86.92)">
              <path id="Trazado_189375" data-name="Trazado 189375" d="M159.5,141.41a16.182,16.182,0,0,1,0,2.52,11.4,11.4,0,0,1-.707,1.613,1.933,1.933,0,0,0,0,1.4c.373.293.827-.347,1-.733a10.211,10.211,0,0,0,.733-1.893,10.668,10.668,0,0,0,.413-2.493C160.833,141.383,159.5,141.41,159.5,141.41Z" transform="translate(-152.686 -131.09)" fill="#ffa17b"/>
              <path id="Trazado_189376" data-name="Trazado 189376" d="M160,140.94a14.348,14.348,0,0,1-.667,2.253c-.24.4-.573.453-1.053.8s-.84.8-.747,1.227.747,0,1.107-.133a4,4,0,0,0,1.48-1.333,9.92,9.92,0,0,0,1.04-2.107C161.187,141.273,160,140.94,160,140.94Z" transform="translate(-153.067 -131.247)" fill="#ffa17b"/>
              <path id="Trazado_189377" data-name="Trazado 189377" d="M159.99,140.73a11.787,11.787,0,0,1-.88,1.76c-.267.307-.547.293-.987.507s-.827.547-.813.907.613.16.947,0a3.28,3.28,0,0,0,1.413-.84,7.507,7.507,0,0,0,1.173-1.6C160.9,141.183,159.99,140.73,159.99,140.73Z" transform="translate(-153.137 -131.317)" fill="#ffa17b"/>
              <path id="Trazado_189378" data-name="Trazado 189378" d="M156.847,147.577c.187.227.8-.133,1.173-.627a3.707,3.707,0,0,0,.32-2.373c-.12-.613,0-1.533.4-1.613a3.8,3.8,0,0,1,2.32,1.133,8.467,8.467,0,0,1,1.107,2.44,9.332,9.332,0,0,1-.587,2.227,3.853,3.853,0,0,0-.347,1.627.587.587,0,0,0,.533.533c.227,0,.333-.827.787-1.493a18.506,18.506,0,0,0,1.333-2.573c0-.147-.373-2.667-.533-3.44s-2.667-3.867-2.587-4.173-2.4-5.573-2.4-5.573l-4.187,1.053a26.065,26.065,0,0,1,2.32,4.347,12.13,12.13,0,0,1-.32,2.293,8.6,8.6,0,0,0,.64,3.547C157.06,146,156.607,147.217,156.847,147.577Z" transform="translate(-154.18 -133.67)" fill="#ffa17b"/>
            </g>
            <path id="Trazado_189379" data-name="Trazado 189379" d="M126.634,197.39a9.16,9.16,0,0,1-.333,4c-.667,1.453-3.16,4.48-4.347,4.133s-2.48-3.68-2.667-4.213c-.893-3.307,1.133-8.56,1.133-8.56Z" transform="translate(-109.925 -27.057)" fill="#9f3820"/>
            <path id="Trazado_189380" data-name="Trazado 189380" d="M143.523,94.6c2.573-.333,5.48,7.36,6.4,15.84,1.587,14.747,4.267,19.307-.213,20.307-4.067.92-4.987-5.067-8-17.427C139.283,103.643,138.217,95.3,143.523,94.6Z" transform="translate(-103.042 -59.776)" fill="#ffa17b"/>
            <path id="Trazado_189381" data-name="Trazado 189381" d="M117.486,92.34c1.333-1.96,7.613-2.013,9.973-2.28a60.238,60.238,0,0,1,9.227.68,61.024,61.024,0,0,1,8.907,2.507c2.12,1.067,8,3.267,8.587,5.56.867,3.48-12.2,19.547-7.813,30.867,1.453,3.76,9.96,13.68,10,17.707,0,4.92-14.48,11.867-14.48,11.867l-.893.253-.907.24s-16,1.24-18.467-3.04c-1.987-3.507,2.013-20.987,1.507-25.827C121.846,118.447,115.5,95.313,117.486,92.34Z" transform="translate(-110.577 -61.287)" fill="#ffba90"/>
            <path id="Trazado_189382" data-name="Trazado 189382" d="M150.447,134.613c2.04,3.133,2.413,9.04,2.107,16.76-.427,10.547-4,26.173-4.32,27.68-1.413,6.92-8.147,7.147-9.573,1.853-.4-1.467-3.88-31.107-3.76-34.48s0-9.507,2.147-13.4C138.634,130.133,147.394,129.947,150.447,134.613Z" transform="translate(-104.646 -47.653)" fill="#ffa17b"/>
            <path id="Trazado_189383" data-name="Trazado 189383" d="M129.817,89.41c1-1.667,2.12-8.4,2.12-8.4l4.28.747,4.28.76s-1.253,6.667-.88,8.627S143,96.263,143,96.263l-9.067-1.587-9.067-1.6S128.817,91.077,129.817,89.41Z" transform="translate(-107.988 -64.303)" fill="#ffba90"/>
            <path id="Trazado_189384" data-name="Trazado 189384" d="M146.7,117.264c2.227-.787,6.573,1.84,9.547,8.8,3.413,8,8.507,19.44,6.6,20.347-.893.427-2.067-.28-2.907-1.987-1.76-3.573-6.493-8.653-9.88-13.227C144.823,124.144,142.409,118.8,146.7,117.264Z" transform="translate(-101.448 -52.264)" fill="#ffa17b"/>
            <path id="Trazado_189385" data-name="Trazado 189385" d="M128.58,89.237l1.213-3.84c.293-1.253.533-2.507.693-3.387h0l4.107-.48h.373l4.28.76s-1.253,6.667-.88,8.627,3.387,5.12,3.387,5.12-5.613-2.493-6.667-3.08S128.58,89.237,128.58,89.237Z" transform="translate(-106.752 -64.13)" fill="#ffa17b"/>
            <path id="Trazado_189386" data-name="Trazado 189386" d="M145.438,81.975c-1.187,6.667-7.92,11.147-11.36,10.547s-6.893-6.893-6.333-13.8,5.333-10.453,10.467-9.547S146.585,75.242,145.438,81.975Z" transform="translate(-107.05 -68.295)" fill="#ffba90"/>
            <path id="Trazado_189387" data-name="Trazado 189387" d="M131.947,73.947c.707,1.893,2.56,3.08,6.667,3.48,2.933.28,4.76,4.387,4.693,6,0,.627,2.12,12,2.12,12s3.52-14.4-2-22.267-12.52-3.573-12.587-2.973a16.694,16.694,0,0,0,1.107,3.76Z" transform="translate(-105.998 -68.48)" fill="#9f3820"/>
            <path id="Trazado_189388" data-name="Trazado 189388" d="M134.925,72.043s0,2.867-2.467,3.347c-4.587.907-3.787,17.413-3.787,17.413s-4.933-20.667,3.427-22.96C136.8,68.536,134.925,72.043,134.925,72.043Z" transform="translate(-107.203 -68.123)" fill="#9f3820"/>
            <path id="Trazado_189389" data-name="Trazado 189389" d="M127.109,191.983s-.667,7.307-.987,8.067-2.347,3.387-3.44,2.947c-3.027-1.253-3.187-7.52-2.293-9.333.52-1.04,1.027-2.147,1.413-2.853a12.107,12.107,0,0,1,2.013-2.76Z" transform="translate(-109.64 -28.623)" fill="#ffba90"/>
            <path id="Trazado_189390" data-name="Trazado 189390" d="M144.244,164.953c2.853,2.573,2.987,5-1.173,12s-16.947,24.787-17.813,24.2-4.107-3.187-2.44-5.227c1.133-1.333,1.333-4,2.84-8.107,2.667-7,6.133-15.813,6.987-17.267C133.991,168.3,139.684,160.847,144.244,164.953Z" transform="translate(-108.829 -36.726)" fill="#ffba90"/>
            <path id="Trazado_189391" data-name="Trazado 189391" d="M120.26,138.726c-.813,3.653.907,9.333,3.92,16.44,4.093,9.72,12.933,23.093,13.76,24.4,3.747,5.973,10.133,3.827,9.613-1.64-.147-1.507-7.293-30.48-8.587-33.587s-3.36-8.907-6.667-11.8C129.754,130.379,121.474,133.286,120.26,138.726Z" transform="translate(-109.592 -47.366)" fill="#ffba90"/>
            <g id="Grupo_93720" data-name="Grupo 93720" transform="translate(7.722 29.907)">
              <path id="Trazado_189392" data-name="Trazado 189392" d="M148.867,94.457v16.16s-3.773,11.133-2.333,16.627,7.48,11.733,10.947,19.347,0,32.533,0,32.533-9.253,2.96-12.16,0-7.4-2-9.067-.76-5.867,5.333-5.867,5.333-8.4-13.533-10.173-26.2c-1.427-10.12,2.36-22.787,1.613-28S118,103.563,118,103.563s4.36.44,9.12.68c1.427,0-2.8-13.333-1.333-13.333,3.387,0,4.533,14.56,13,12.653,6.293-1.413,6.133-11.093,6.133-11.093Z" transform="translate(-118 -90.91)" fill="#002957"/>
              <path id="Trazado_189393" data-name="Trazado 189393" d="M123.244,110.017c1.853-1.24,13.427,2.667,18.013,1.693,3.667-.733,5.213-4.187,5.693-5.56-.747,2.36-3.373,11.28-2.133,16,1.44,5.48,7.48,11.733,10.947,19.347s0,32.533,0,32.533-9.253,2.96-12.16,0l-.16-.133L138.19,158.39s8.52,2.48,8.387-4.933-7.44-24.093-9.56-28.413S121.39,111.283,123.244,110.017Z" transform="translate(-116.31 -85.83)" fill="#001e3e"/>
            </g>
            <path id="Trazado_189394" data-name="Trazado 189394" d="M127.657,90.061a81.522,81.522,0,0,1,3.08,10.667c.76,4.387-7.08,40-8.373,47.427s-.84,18.88-.84,18.88l-4.36-4.24s3.08-19.213,3.013-29.773S115.83,96.647,116.6,93.247,127.657,90.061,127.657,90.061Z" transform="translate(-110.775 -61.287)" fill="#939fa7"/>
            <path id="Trazado_189395" data-name="Trazado 189395" d="M139.07,92.45s2.08,16.493,1.84,20.667,2.387,21.12,2.387,21.12,4.4-33.813,4-36C146.723,95.25,139.07,92.45,139.07,92.45Z" transform="translate(-103.255 -60.49)" fill="#939fa7"/>
            <path id="Trazado_189396" data-name="Trazado 189396" d="M120.864,91.123c-2.573-.333-5.48,7.373-6.4,15.853-1.587,14.747-4.267,19.307.213,20.307,4.08.907,4.987-5.067,8-17.44C125.1,100.176,126.17,91.816,120.864,91.123Z" transform="translate(-112.209 -60.936)" fill="#ffa17b"/>
            <path id="Trazado_189397" data-name="Trazado 189397" d="M113.837,114.4c1.947-1.333,6.827.12,11.453,6.12,5.333,6.893,13.12,16.667,11.52,18.013-.76.64-2.08.24-3.32-1.187-2.667-3.013-8.467-6.667-12.907-10.307C113.757,121.538,110.064,116.978,113.837,114.4Z" transform="translate(-112.169 -53.324)" fill="#ffba90"/>
            <path id="Trazado_189398" data-name="Trazado 189398" d="M140.1,130.367c0-.44-7.907-3.293-12.493.4-.827.667,1.707,2.84,3,3.32a2.573,2.573,0,0,0,2.667-.48C136.8,130.287,139.944,131.953,140.1,130.367Z" transform="translate(-107.129 -48.34)" fill="#ffba90"/>
            <path id="Trazado_189399" data-name="Trazado 189399" d="M130.05,130.463a16.866,16.866,0,0,1,3.573-.733,7.066,7.066,0,0,0,.76-.2,5.776,5.776,0,0,1,.68,0c.173,0,.293-.12.453-.133s.493.147.693.133a6.543,6.543,0,0,0,.64-.147c.613-.093.653.32.84.307a3.6,3.6,0,0,1,.88,0,8.427,8.427,0,0,1,2.347,2.253c.173.347,1.587,2.12,1.44,2.307s-1.013.333-1.907-.52a10.641,10.641,0,0,0-1.88-1.627,10.855,10.855,0,0,1,.573,2.373c0,.413-.413.52-.747.48s-.907-.933-.907-.933-.4.72-.573.707c-.613,0-.92-.867-1.093-1.107s-.307.747-.56.707c-.987-.16-1.24-2.573-2.2-2.293C132.65,132.21,130.477,131.837,130.05,130.463Z" transform="translate(-106.262 -48.183)" fill="#ffba90"/>
          </g>
          <g id="Grupo_93724" data-name="Grupo 93724" transform="translate(96.433 2.613)">
            <path id="Trazado_189400" data-name="Trazado 189400" d="M179.2,71.2s3.213-4.587,6.667-1.853,3.267,8.6,1.547,10.44-4.64,9.907-4.067,10.027-.173,1.507-1.453,1.333a4.387,4.387,0,0,1-3.56-5.8,12.76,12.76,0,0,0,.28-7.147Z" transform="translate(-120.009 -66.879)" fill="#9f3820"/>
            <path id="Trazado_189401" data-name="Trazado 189401" d="M179.957,196.777a9.454,9.454,0,0,0,1.693,4.093,4,4,0,0,1,.107,3.693c-1.467,1.56-3.293,1.147-5.107,2.44s-4.373,5.72-5.947,6.2-5.2.573-5.48-.173,3.347-3.773,3.347-3.773c5.333-7.387,5.667-10.667,5.667-10.667S179.931,196.484,179.957,196.777Z" transform="translate(-124.301 -24.122)" fill="#ffa17b"/>
            <path id="Trazado_189402" data-name="Trazado 189402" d="M168.8,208.617s-1.027.987-.827,1.253,1.907.133,2.32-.107a44.773,44.773,0,0,0,9.6-8.16,5.8,5.8,0,0,0,1.067-2.933,4.747,4.747,0,0,1,1.6,3.773,5.334,5.334,0,0,1-.573,1.48,40.935,40.935,0,0,1-4.507,3.067c-1.8,1.333-4.147,5.707-5.72,6.2s-6.96.747-7.227,0S167.108,209.963,168.8,208.617Z" transform="translate(-124.532 -23.482)" fill="#121212"/>
            <path id="Trazado_189403" data-name="Trazado 189403" d="M179.36,201.27s-.933,3.12-1.2,4.16a33.464,33.464,0,0,0-.533,4.893h-.693s.507-6.28-2.667-4.2C173.28,206.777,179.36,201.27,179.36,201.27Z" transform="translate(-121.318 -22.615)" fill="#121212"/>
            <path id="Trazado_189404" data-name="Trazado 189404" d="M178.527,163.707c4.307,4.213,5.227,15.2,5,19.413s-5.24,26.387-5.013,27.907-5.627.36-5.587-.493c.453-8.52-1.907-31.013-2.253-33.24s-1.52-12.373-1.533-13.333C169.073,158.707,176.06,161.24,178.527,163.707Z" transform="translate(-122.991 -36.079)" fill="#ffa17b"/>
            <path id="Trazado_189405" data-name="Trazado 189405" d="M197.513,203.2s2.227,5.333,2.2,6.747-.707,4.827-1.813,4.987-3.827-2.4-4.147-2.787c-1.933-2.387-1.973-7.2-1.973-7.2Z" transform="translate(-115.444 -21.972)" fill="#2c2c2c"/>
            <path id="Trazado_189406" data-name="Trazado 189406" d="M196.377,200.93a31.867,31.867,0,0,1,2.133,7.253c.08.747-.453,3.747-1.507,3.773-2.947.08-5.333-5.027-5.253-6.813s.173-3.72.173-3.72Z" transform="translate(-115.454 -22.728)" fill="#ffba90"/>
            <path id="Trazado_189407" data-name="Trazado 189407" d="M187.97,162.519c-3.853.747-4.84,3.44-2.947,14.773,1.453,8.6,6.827,28,9.333,37,.813,2.84.52,4.747.787,4.747,1.093,0,4.387-.08,4.707-2.667.08-.547-1.173-2.44-1.187-4,0-8.867-.093-31.28-.613-34.413C197.463,174.359,194.117,161.332,187.97,162.519Z" transform="translate(-118.007 -35.557)" fill="#ffba90"/>
            <path id="Trazado_189408" data-name="Trazado 189408" d="M171.662,90.2c-2.453-.827-6.787,6.147-9.333,14.28-4.413,14.133-8.773,16.453-4,19.027,5.96,3.2,6.093-3.093,11.48-14.667C174.062,99.877,176.729,91.9,171.662,90.2Z" transform="translate(-127.286 -59.662)" fill="#c4ddff"/>
            <path id="Trazado_189409" data-name="Trazado 189409" d="M166.281,132.817c-1.8,3.28-1.72,9.173-.827,16.84,1.213,10.467,4.653,27.12,5.08,28.6,1.933,6.773,8.613,6.493,9.627,1.107.28-1.48,2.56-31.533,2.187-34.88a36,36,0,0,0-4.6-13.173C175.947,128.55,168.947,127.937,166.281,132.817Z" transform="translate(-124.425 -46.642)" fill="#ffa17b"/>
            <path id="Trazado_189410" data-name="Trazado 189410" d="M192.443,132.776c2.4,2.853,3.48,8.653,4.12,16.347a271.2,271.2,0,0,1,.32,27.827c-.56,7.013-8.44,8.2-10.507,3.12-.573-1.4-7.613-30.347-7.907-33.693s-1.133-9.44.507-13.547C180.189,129.763,188.856,128.51,192.443,132.776Z" transform="translate(-120.04 -46.361)" fill="#ffba90"/>
            <path id="Trazado_189411" data-name="Trazado 189411" d="M167.165,128.27c-1.213,3.16-2.133,6.093-1.72,7.733,1.227,4.76,15.28,8.787,15.28,8.787h.933V129.363C176.245,129.363,172.578,128.27,167.165,128.27Z" transform="translate(-124.256 -46.948)" fill="#00537e"/>
            <path id="Trazado_189412" data-name="Trazado 189412" d="M199.43,94.183c-.96-2.16-5.92-3.12-8.2-3.8a60.187,60.187,0,0,0-9.187-.933s-10.867,1.093-13.213,1c-1,0-1.733,3.547-2.107,4.573-2.16,5.733-4.707,12.4.68,17.053,1.227,1.067,2.293,13.16,2.293,18.773a30.094,30.094,0,0,1-2.147,10.387c5.413,0,9.08,1.093,14.493,1.093h16.24a91.732,91.732,0,0,1-3.893-11.48C191.23,113.57,200.87,97.41,199.43,94.183Z" transform="translate(-124.64 -59.888)" fill="#c4ddff"/>
            <path id="Trazado_189413" data-name="Trazado 189413" d="M177.58,129.09v15.427h.933s15.8-2.947,17.027-7.693c.413-1.64-.507-4.573-1.72-7.733Z" transform="translate(-120.177 -46.675)" fill="#00537e"/>
            <path id="Trazado_189414" data-name="Trazado 189414" d="M184.647,88.947c-.693-1.813-.627-8.627-.627-8.627h-8.667s0,6.813-.627,8.627a13.467,13.467,0,0,1-3.467,4l6.387,2.947,9.267-3.427a13.92,13.92,0,0,1-2.267-3.52Z" transform="translate(-122.284 -62.932)" fill="#ffba90"/>
            <path id="Trazado_189415" data-name="Trazado 189415" d="M184.25,83.693c-.067-1.827,0-3.373,0-3.373h-8.667s0,6.813-.627,8.627S170.73,93.4,170.73,93.4L184.3,83.693Z" transform="translate(-122.461 -62.932)" fill="#ffa17b"/>
            <path id="Trazado_189416" data-name="Trazado 189416" d="M187.69,81.742c-1.987,6.52-9.187,10.107-12.52,9.107s-6.013-7.653-4.627-14.44S177.13,66.7,182.05,68.2,189.663,75.222,187.69,81.742Z" transform="translate(-122.647 -67.1)" fill="#ffba90"/>
            <path id="Trazado_189417" data-name="Trazado 189417" d="M174.983,72.307c.48,1.96,2.173,3.36,6.187,4.24,2.867.64,4.187,4.933,3.933,6.52-.093.613-1.2,3.453-1.2,3.453a10.4,10.4,0,0,0,2.533-13.613c-4.533-8.453-12-5.04-12.107-4.453a16.374,16.374,0,0,0,.653,3.853Z" transform="translate(-121.261 -67.279)" fill="#9f3820"/>
            <path id="Trazado_189418" data-name="Trazado 189418" d="M178.2,70.71s-.373,2.8-2.84,3.027a13.427,13.427,0,0,0-5.027,1.907s.453-6.667,5.333-7.453S178.2,70.71,178.2,70.71Z" transform="translate(-122.594 -67.015)" fill="#9f3820"/>
            <path id="Trazado_189419" data-name="Trazado 189419" d="M186.61,110.98c-1.44-.68-4.6-.387-12-.773s-8.467-4.133-9.56-5.76-.067-6.933,0-7.227c-1.333,4.387-1.573,8.853,2.36,12.24,1.227,1.067,2.293,13.16,2.293,18.773a30.093,30.093,0,0,1-2.147,10.387,76.58,76.58,0,0,1,9.08.76,35.32,35.32,0,0,1-.96-6.16c0-8.08,16-2.467,17.813-5.933s-6.267-11.88-5.333-13.04S188.09,111.593,186.61,110.98Z" transform="translate(-124.647 -57.298)" fill="#aaceff"/>
            <path id="Trazado_189420" data-name="Trazado 189420" d="M176.3,90.3l.773,2.28-4.08-1.707Z" transform="translate(-121.707 -59.605)" fill="#aaceff"/>
            <path id="Trazado_189421" data-name="Trazado 189421" d="M176.05,92.58l.84-2.28,2.4,1.133Z" transform="translate(-120.687 -59.605)" fill="#aaceff"/>
            <path id="Trazado_189422" data-name="Trazado 189422" d="M167.431,128.27a26.787,26.787,0,0,0-2.853,11.173c-.48,7.227,4.68,40.413,4.68,40.413l14.333.813,18.987-1.48s-.44-30.333-1.333-39.4S197.8,128.5,197.8,128.5l-17.227.693Z" transform="translate(-124.522 -46.948)" fill="#900000"/>
            <path id="Trazado_189423" data-name="Trazado 189423" d="M176.68,91.283l2.613,3.933,7.773-4.16-2.813-3.707Z" transform="translate(-120.477 -60.588)" fill="#d5eeff"/>
            <path id="Trazado_189424" data-name="Trazado 189424" d="M169.83,90.913l3.453-3.133,4.067,3.36-2.92,3.6Z" transform="translate(-122.761 -60.445)" fill="#d5eeff"/>
            <path id="Trazado_189425" data-name="Trazado 189425" d="M179.815,159.023c-1,1.147-.56,10.213-2.107,12s-4.093,1.587-5.507-1.587-5.107-25.653-2.107-33.533a11.107,11.107,0,0,1,6.427-6.853l-.547-.16-8.533-.6a26.787,26.787,0,0,0-2.853,11.173c-.48,7.227,4.68,40.413,4.68,40.413l14.333.813,3.053-.173a5.093,5.093,0,0,1-3.893-3.827C181.695,170.41,180.668,158.023,179.815,159.023Z" transform="translate(-124.519 -46.942)" fill="#6a0000"/>
            <path id="Trazado_189426" data-name="Trazado 189426" d="M190.947,91.761c2.92.347,4.12,8.453,2.92,16.787-2.093,14.493-.32,19.547-5.52,19.347-4.72-.187-4.173-6.133-4.307-18.667C183.987,99.308,184.934,91.041,190.947,91.761Z" transform="translate(-118.025 -59.133)" fill="#c4ddff"/>
            <rect id="Rectángulo_39491" data-name="Rectángulo 39491" width="21.76" height="29.013" transform="matrix(1, -0.016, 0.016, 1, 40.859, 39.389)" fill="#002957"/>
            <path id="Trazado_189427" data-name="Trazado 189427" d="M168.7,96.9s1.333,10.013,5.107,14.667,13.413,6.013,13.413,6.013l.16,8-21.76.347-.453-29.013Z" transform="translate(-124.314 -57.405)" fill="#001e3e"/>
            <path id="Trazado_189428" data-name="Trazado 189428" d="M167.275,119.834c1.56-1.813.2-5.693-5.333-10.307-6.427-5.333-15.493-13.107-16.813-11.44-1.787,2.293,5.547,9.587,10.547,16.387S164.049,123.594,167.275,119.834Z" transform="translate(-131.086 -57.086)" fill="#ffba90"/>
            <path id="Trazado_189429" data-name="Trazado 189429" d="M197.4,119.886c.613-2.227-3.773-6.067-10.453-7.893-7.693-2.093-18.667-5.333-19.133-3.267-.627,2.747,8.667,6.2,15.733,10.173S196.164,124.5,197.4,119.886Z" transform="translate(-123.442 -53.684)" fill="#ffba90"/>
            <g id="Grupo_93722" data-name="Grupo 93722" transform="translate(39.271 51.22)">
              <path id="Trazado_189430" data-name="Trazado 189430" d="M164.006,108.9h0a.667.667,0,0,1,.827-.467l2.8.76a.68.68,0,0,1,.48.827h0a.68.68,0,0,1-.84.467l-2.787-.76a.667.667,0,0,1-.48-.827Z" transform="translate(-163.981 -104.788)" fill="#ffba90"/>
              <path id="Trazado_189431" data-name="Trazado 189431" d="M164.125,107.953h0a.68.68,0,0,1,.84-.467l2.8.76a.653.653,0,0,1,.467.827h0a.68.68,0,0,1-.827.467l-2.8-.76A.693.693,0,0,1,164.125,107.953Z" transform="translate(-163.94 -105.105)" fill="#ffba90"/>
              <path id="Trazado_189432" data-name="Trazado 189432" d="M164.348,107.052h0a.68.68,0,0,1,.827-.467l2.8.76a.693.693,0,0,1,.48.84h0a.68.68,0,0,1-.84.467l-2.8-.76a.653.653,0,0,1-.467-.84Z" transform="translate(-163.87 -105.404)" fill="#ffba90"/>
              <path id="Trazado_189433" data-name="Trazado 189433" d="M164.637,106.2h0a.68.68,0,0,1,.827-.48l2.8.76a.693.693,0,0,1,.48.84h0a.693.693,0,0,1-.84.48l-2.8-.76A.68.68,0,0,1,164.637,106.2Z" transform="translate(-163.772 -105.694)" fill="#ffba90"/>
              <path id="Trazado_189434" data-name="Trazado 189434" d="M174.033,109.3a44.584,44.584,0,0,0-4.267-2.96,28.492,28.492,0,0,0-4.507-.627s.747,1.467.413,2.24-1.333,2.667-1.333,2.667a38.517,38.517,0,0,0,4.067,1.573,15.188,15.188,0,0,0,3.493.627Z" transform="translate(-163.862 -105.688)" fill="#ffba90"/>
            </g>
            <g id="Grupo_93723" data-name="Grupo 93723" transform="translate(0 38.699)">
              <path id="Trazado_189435" data-name="Trazado 189435" d="M153.077,100.444s-1.48-3.68-4-3.613-4.68,2.4-5.333,2.787c-2.547,1.64-6.24.507-7.933,1.213s-1.44,1.84-.773,1.787c3.787-.267,6.187.747,7.853.413a59.266,59.266,0,0,1,8,.173Z" transform="translate(-134.528 -96.127)" fill="#ffba90"/>
              <path id="Trazado_189436" data-name="Trazado 189436" d="M149.714,98.366a8.853,8.853,0,0,0-3.8-2.053c-1.667-.147-3.187,1.467-4.6,1.533s-.853.76-.693.947a16.239,16.239,0,0,0,2.667.16C144.088,99.019,147.394,100.939,149.714,98.366Z" transform="translate(-132.578 -96.303)" fill="#ffba90"/>
            </g>
          </g>
          <g id="Grupo_93729" data-name="Grupo 93729">
            <path id="Trazado_189437" data-name="Trazado 189437" d="M105.5,121.66c4.333,2.573,8.88-6.827,10.867-11.533s6.4-19.013,6.4-19.013L117.8,88.66a137.667,137.667,0,0,0-14.76,23.307C102.415,113.273,101.082,119.047,105.5,121.66Z" transform="translate(-48.82 -57.538)" fill="#ffba90"/>
            <path id="Trazado_189438" data-name="Trazado 189438" d="M72.679,213.853s3.16,5.827,2.667,7.08a6.053,6.053,0,0,1-5.907,2.52c-2.48-.373-6.013-3.48-6.667-3.667-1.413-.467.253-8.227.253-8.227Z" transform="translate(-62.204 -16.572)" fill="#121212"/>
            <path id="Trazado_189439" data-name="Trazado 189439" d="M86.937,92.758c-3.68,2.827-2.44,6.667.56,10.147s22,17.827,23.48,17.773,6.2-4.787,5.507-6.787S101.524,97.2,98.564,94.8,91.257,89.464,86.937,92.758Z" transform="translate(-54.715 -56.663)" fill="#ffba90"/>
            <path id="Trazado_189440" data-name="Trazado 189440" d="M90.569,91.314c1.76-.12,6.04.253,11.093,5.333,3.36,3.373,9.627,9.973,9.627,9.973a16.48,16.48,0,0,1-4.267,6.24,14.947,14.947,0,0,1-7.04,3.773S86.556,103.168,85.489,99.448C85.169,98.288,85.676,91.634,90.569,91.314Z" transform="translate(-54.467 -56.659)" fill="#32c4b4"/>
            <path id="Trazado_189441" data-name="Trazado 189441" d="M83.471,78s-.613,13.333-1.333,14.013C79.671,94,70.871,95.64,69.231,99.147c-2,4.24,8.867,23.347,10.28,29.653S77.938,144.88,77,151.067s18.467,13.707,19.187,13.707,6.987-5.84,8.173-7.853,0-17.88,0-21.92.987-18.227,1.173-19.147A28.267,28.267,0,0,0,105,103.467c-.24-1.333-.16-3.493-.827-4.333-1.333-1.667-8.573-3.88-8.68-4.72S94.4,82,94.4,82Z" transform="translate(-59.943 -61.092)" fill="#ffba90"/>
            <path id="Trazado_189442" data-name="Trazado 189442" d="M82.248,88.47,93.968,95.5l1.693-4.573s7.68,2.427,8.68,4.093,1.467,5.907,1.787,7.253a61.187,61.187,0,0,1,0,12.893c-.32,3.147-.24,7.293-.733,12.64-.413,4.573,0,16,0,16s-4.373.173-11.147-.173a99.894,99.894,0,0,1-16.107-1.907c-1.507-1.24.613-13.333.333-14.667s-9.853-24.64-10-27.693a6.227,6.227,0,0,1,3.72-6.2C74.515,91.923,82.248,88.47,82.248,88.47Z" transform="translate(-60.12 -57.602)" fill="#36dac9"/>
            <path id="Trazado_189443" data-name="Trazado 189443" d="M73.371,91.51s-7.653,4.213-.08,10.08c3.267,2.547,18.907,6.493,21.853,7.4,10.533,3.227-5.76,26.547-7,28.307a8.067,8.067,0,0,0-1.24,4.2l-10.133-1.173c-3.147.613,1.68-14.453.493-17.707s-8.787-21.88-8.773-24.333A6.907,6.907,0,0,1,73.371,91.51Z" transform="translate(-60.109 -56.588)" fill="#32c4b4"/>
            <path id="Trazado_189444" data-name="Trazado 189444" d="M91.4,85.833,79.543,81.54l-.293,7.027L82.9,90.78Z" transform="translate(-56.521 -59.912)" fill="#ffa17b"/>
            <g id="Grupo_93725" data-name="Grupo 93725" transform="translate(19.069)">
              <path id="Trazado_189445" data-name="Trazado 189445" d="M94.845,68.515c-3.093-2.667-12-4.787-16,1.16s-1.96,11.56.507,14.987a14.52,14.52,0,0,0,7.293,5.573c.72.293,7.227,1.147,8.493.667.867-.333,1.333-6.8,1.56-6.773s.96-.4.973-.92c0-.76-.973-5.333-.813-5.853S98.379,71.5,94.845,68.515Z" transform="translate(-76.479 -65.14)" fill="#ffba90"/>
              <path id="Trazado_189446" data-name="Trazado 189446" d="M96.765,71.48s-5.013-2.587-10.92,3.24c-1.333,1.253,1.413,6.253,1.107,6.667s-5-3.547-4.813-2.973c2.013,5.84.2,9.173-.333,9.227-1.64.187-7-8-4.76-14.8a11.227,11.227,0,0,1,11.173-7.507C89.965,65.68,95.191,65.867,96.765,71.48Z" transform="translate(-76.506 -65.319)" fill="#9f3820"/>
              <path id="Trazado_189447" data-name="Trazado 189447" d="M83.767,76.61c.653,1.867,1.013,4.387,0,4.733s-2.347-.893-3-2.747-.36-3.64.64-4S83.114,74.757,83.767,76.61Z" transform="translate(-75.201 -62.262)" fill="#ffba90"/>
            </g>
            <g id="Grupo_93726" data-name="Grupo 93726" transform="translate(26.744 187.693)">
              <rect id="Rectángulo_39492" data-name="Rectángulo 39492" width="7.587" height="1.413" transform="translate(1.478 10.002)" fill="#121212"/>
              <path id="Trazado_189448" data-name="Trazado 189448" d="M84.033,206.117a13.213,13.213,0,0,0-1.76,5.333c-.12,1.493.773,4.64,1.747,4.64a72.781,72.781,0,0,1,9.333.52c2.947.4,4,2.093,11.627,2.08,2.2,0,6.107-.133,6.107-1.04,0-3.92-7.267-2.533-9.573-4.653-5.813-5.333-9.707-6.667-9.707-6.667a69.437,69.437,0,0,0-7.773-.213Z" transform="translate(-82.262 -206.089)" fill="#121212"/>
            </g>
            <path id="Trazado_189449" data-name="Trazado 189449" d="M88.938,128.857s-10.107,10.093-10.56,14.507,3.787,18.493,5.333,29.573,2.44,13.333,2.067,16-3.347,13.213-3.253,20.28c.12,8.227-.32,25.093-.32,25.093s2.213,1.733,7.88,1.707a12.36,12.36,0,0,0,6.8-2.667s2.28-41.333,2.667-45.733c.307-2.813,2.667-22.24,3.307-38.067.227-5.093-.947-19.653-.933-21.76Z" transform="translate(-56.823 -44.495)" fill="#001e3e"/>
            <path id="Trazado_189450" data-name="Trazado 189450" d="M88.613,91.87l.52,2.787L82.96,90.99Z" transform="translate(-55.285 -56.762)" fill="#aaceff"/>
            <path id="Trazado_189451" data-name="Trazado 189451" d="M87.59,94.6l.973-3.453,1.493,1.16Z" transform="translate(-53.741 -56.708)" fill="#aaceff"/>
            <path id="Trazado_189452" data-name="Trazado 189452" d="M78.583,128.06a150.3,150.3,0,0,0-5.653,16.52c-1.6,6.667-3.507,40.867-4.08,44.093s-2.587,13.067-4.147,22.8-2.493,29.333-2.493,29.333l12.467,1.84s7.44-40.933,8.587-47.387S96.8,143.14,96.8,143.14l1.533-14.667Z" transform="translate(-62.201 -44.405)" fill="#002957"/>
            <path id="Trazado_189453" data-name="Trazado 189453" d="M78.97,156.073c-1.04,4.387-4.093,34.173-4.347,35.853s-8,47.36-8.307,49.48l-4.107-.64s.933-19.547,2.493-29.333,3.573-19.587,4.147-22.8,2.48-37.48,4.08-44.093a150.3,150.3,0,0,1,5.653-16.52l10.907.333S80.01,151.673,78.97,156.073Z" transform="translate(-62.201 -44.418)" fill="#001e3e"/>
            <path id="Trazado_189454" data-name="Trazado 189454" d="M74.453,128.15l20.333.347c1.147,0,8.693-.707,8.693-.707l.147,3.027s-7.32.6-10.827.6-19.04-.8-19.04-.8Z" transform="translate(-58.351 -44.495)" fill="#411417"/>
            <rect id="Rectángulo_39493" data-name="Rectángulo 39493" width="4.88" height="3.507" rx="0.63" transform="translate(34.302 83.815)" fill="#802816"/>
            <path id="Trazado_189455" data-name="Trazado 189455" d="M77.59,89.73,79.8,86.81l10.6,6.453-1.68,3.787Z" transform="translate(-57.075 -58.155)" fill="#d5eeff"/>
            <path id="Trazado_189456" data-name="Trazado 189456" d="M88.32,91.7,90.84,94.6l.4-3.08L89.133,89.49Z" transform="translate(-53.498 -57.262)" fill="#d5eeff"/>
            <path id="Trazado_189457" data-name="Trazado 189457" d="M72.708,93.228c-4.56.893-5.227,4.813-4.133,9.107s12.72,28.4,14.053,28.973,7.68-1.52,8-3.56-6.933-24.4-8.467-27.76S78.028,92.2,72.708,93.228Z" transform="translate(-60.233 -56.066)" fill="#ffba90"/>
            <path id="Trazado_189458" data-name="Trazado 189458" d="M76.736,93.374c1.627.68,5.16,2.88,6,6.147C83.909,104.134,87.9,116,87.9,116a16.293,16.293,0,0,1-6.667,3.653,14.88,14.88,0,0,1-8,.227s-5.52-18-5.227-21.867a6.2,6.2,0,0,1,8.733-4.64Z" transform="translate(-60.274 -56.159)" fill="#36dac9"/>
            <path id="Trazado_189459" data-name="Trazado 189459" d="M78.886,116.846c-4.08,2.947,2.733,10.867,6.253,14.573s14.88,13.44,14.88,13.44l4.227-3.573a138.52,138.52,0,0,0-15.453-22.813C87.819,117.366,83.059,113.846,78.886,116.846Z" transform="translate(-57.064 -48.538)" fill="#ffba90"/>
            <path id="Trazado_189460" data-name="Trazado 189460" d="M113,90.844s.933-4.84,1.68-5.693,4.307-8,4.853-7.08-2,6.92-1.8,7.027a19.826,19.826,0,0,1,4.427,2.4c1,1.013-3.093,7.373-3.093,7.373l-4.707.853Z" transform="translate(-45.271 -61.096)" fill="#ffba90"/>
            <g id="Grupo_93727" data-name="Grupo 93727" transform="translate(45.03 90.379)">
              <path id="Trazado_189461" data-name="Trazado 189461" d="M107.4,133.872l1.053-.693a.533.533,0,0,1,.707.147h0a.52.52,0,0,1-.147.72l-1.04.68a.52.52,0,0,1-.72-.147h0a.52.52,0,0,1,.147-.707Z" transform="translate(-92.244 -133.103)" fill="#84a19f"/>
              <path id="Trazado_189462" data-name="Trazado 189462" d="M96.008,144.756h0c-.28-.413,1.333-2.027,1.773-2.307l12.907-8.8a.907.907,0,0,1,1.253.227h0a.907.907,0,0,1-.24,1.253l-12.907,8.813C98.408,144.223,96.3,145.17,96.008,144.756Z" transform="translate(-95.976 -132.974)" fill="#415b60"/>
              <rect id="Rectángulo_39494" data-name="Rectángulo 39494" width="1.953" height="0.917" transform="translate(13.581 0.098) rotate(54.395)" fill="#84a19f"/>
              <path id="Trazado_189463" data-name="Trazado 189463" d="M103.64,137.734h0a.307.307,0,0,1,0-.413l4.267-2.987a.28.28,0,0,1,.4.067h0a.28.28,0,0,1-.08.4l-4.253,3A.293.293,0,0,1,103.64,137.734Z" transform="translate(-93.448 -132.712)" fill="#bfd7d5"/>
            </g>
            <g id="Grupo_93728" data-name="Grupo 93728" transform="translate(41.515 89.748)">
              <path id="Trazado_189464" data-name="Trazado 189464" d="M99.436,145.016h0a.973.973,0,0,0,.36-1.333l-2.08-3.56a.973.973,0,0,0-1.333-.36h0a.973.973,0,0,0-.36,1.333l2.08,3.627A.973.973,0,0,0,99.436,145.016Z" transform="translate(-92.489 -130.296)" fill="#ffba90"/>
              <path id="Trazado_189465" data-name="Trazado 189465" d="M100.695,144.463h0a.973.973,0,0,0,.36-1.333l-2.08-3.627a.973.973,0,0,0-1.333-.36h0a.987.987,0,0,0-.36,1.333l2.08,3.627a.987.987,0,0,0,1.333.36Z" transform="translate(-92.068 -130.503)" fill="#ffba90"/>
              <path id="Trazado_189466" data-name="Trazado 189466" d="M101.886,143.833h0a.973.973,0,0,0,.36-1.333l-2.08-3.627a.973.973,0,0,0-1.333-.36h0a.973.973,0,0,0-.36,1.333l2.08,3.627a.987.987,0,0,0,1.333.36Z" transform="translate(-91.673 -130.713)" fill="#ffba90"/>
              <path id="Trazado_189467" data-name="Trazado 189467" d="M102.975,143.135h0a.987.987,0,0,0,.36-1.333l-2.08-3.68a.987.987,0,0,0-1.333-.36h0a.987.987,0,0,0-.36,1.333l2.08,3.64A1,1,0,0,0,102.975,143.135Z" transform="translate(-91.308 -130.962)" fill="#ffba90"/>
              <path id="Trazado_189468" data-name="Trazado 189468" d="M96.567,132.63a67.775,67.775,0,0,1,6.4,5.173,43.443,43.443,0,0,1,2.52,6.08s-2.32-.52-3.28.227S98.953,147,98.953,147a30.333,30.333,0,0,1-4.173-5.173,21.494,21.494,0,0,1-1.44-4Z" transform="translate(-93.34 -132.63)" fill="#ffba90"/>
            </g>
          </g>
          <g id="Grupo_93730" data-name="Grupo 93730" transform="translate(34.222 103.482)">
            <rect id="Rectángulo_39495" data-name="Rectángulo 39495" width="98.4" height="6.467" transform="translate(7.787 98.667) rotate(-90)" fill="#74828c"/>
            <rect id="Rectángulo_39496" data-name="Rectángulo 39496" width="98.4" height="6.467" transform="translate(184.4 98.667) rotate(-90)" fill="#74828c"/>
            <rect id="Rectángulo_39497" data-name="Rectángulo 39497" width="181.093" height="13.987" transform="translate(8.693 1.813)" fill="#74828c"/>
            <path id="Trazado_189469" data-name="Trazado 189469" d="M276.67,152.213,93.71,153.6v-4.64l182.96.053Z" transform="translate(-85.923 -140.92)" fill="#b6b6bb"/>
            <rect id="Rectángulo_39498" data-name="Rectángulo 39498" width="199" height="8.133" fill="#939fa7"/>
          </g>
          <g id="Grupo_93731" data-name="Grupo 93731" transform="translate(114.619 1.329)">
            <path id="Trazado_189470" data-name="Trazado 189470" d="M225.017,94.669c2.747-1.427,7.107.573,9.333,7.267s7.213,24.36,7.907,27.307,3.387,9-2.227,11.613-8-3.333-10.027-7.893C221.017,112.709,217.563,98.5,225.017,94.669Z" transform="translate(-123.907 -57.009)" fill="#ffba90"/>
            <path id="Trazado_189471" data-name="Trazado 189471" d="M193.063,122.325c-1.053-2.76-3.373-4.587-11.347-2.667s-24.427,8-24.427,8l.56,4.453s16.84.587,21.227-.28S195.8,129.538,193.063,122.325Z" transform="translate(-145.127 -48.799)" fill="#ffba90"/>
            <path id="Trazado_189472" data-name="Trazado 189472" d="M246,125c-1.053-2.76-3.373-4.587-11.347-2.667s-24.427,8-24.427,8l.56,4.44s16.84.6,21.227-.28S248.737,132.222,246,125Z" transform="translate(-127.48 -47.909)" fill="#ffba90"/>
            <path id="Trazado_189473" data-name="Trazado 189473" d="M222.46,220.247a25.027,25.027,0,0,1,6.667-1.587c1.613,0,3.613,1.333,3.72,2.747,0,.533-.587,1.173-1.133,1.827s-7.307,5.333-8.76,5.52a17.453,17.453,0,0,1-6.547-.227c-1.413-.507-1.427-5.333-1.427-5.333Z" transform="translate(-125.897 -15.534)" fill="#121212"/>
            <path id="Trazado_189474" data-name="Trazado 189474" d="M201.167,126.62c-3.053-9.333-10.947-25.333-6.333-28.2,6.027-3.64,23.36-5.88,23.36-5.88v.293s14.8,1.907,20.813,5.547c4.627,2.787-.733,19.16-3.773,28.52-.733,2.253-.653,12.32-.373,21.253.08,2.2,1.867,12.333,1.573,16.52-.093,1.253-14.24,9-18.2,9.2v-.293c-4-.2-18.107-7.933-18.2-9.187-.307-4.187,1.48-14.32,1.547-16.52C201.82,138.94,201.9,128.873,201.167,126.62Z" transform="translate(-133.083 -57.574)" fill="#ffba90"/>
            <path id="Trazado_189475" data-name="Trazado 189475" d="M208.451,96.584c-2.093-2.267-6.867-1.867-11.2,3.68s-15.067,20.453-16.707,23-6.24,7.32-1.853,11.68,8.667-.413,12.107-4C206.091,114.9,214.1,102.7,208.451,96.584Z" transform="translate(-138.608 -56.658)" fill="#ffba90"/>
            <path id="Trazado_189476" data-name="Trazado 189476" d="M207.857,93.11c.387-1.787,1.333-10.6,1.333-10.6h5.92V82.8h5.84s1,8.813,1.333,10.667,5.24,4.36,5.24,4.36H215.11v-.293H202.67S207.457,94.9,207.857,93.11Z" transform="translate(-130 -60.917)" fill="#ffa17b"/>
            <path id="Trazado_189477" data-name="Trazado 189477" d="M221.333,139.27c7.133,0,9.907,4.947,9.72,20.2s-2.467,31.8-3.453,34.187-11.093,2.427-12.08,1.04S212,161.67,212,156.71,213.547,139.3,221.333,139.27Z" transform="translate(-126.89 -41.997)" fill="#ffba90"/>
            <rect id="Rectángulo_39499" data-name="Rectángulo 39499" width="12.187" height="16.64" rx="2" transform="translate(100.944 163.718) rotate(178.59)" fill="#ffba90"/>
            <path id="Trazado_189478" data-name="Trazado 189478" d="M221.075,182.21c2.187,0,7.533.72,7.24,14.947s-6.32,33.707-6.32,33.707h-5.16s-2.52-26.333-2.533-31.387C214.262,187.983,214.195,182.21,221.075,182.21Z" transform="translate(-126.125 -27.684)" fill="#ffba90"/>
            <path id="Trazado_189479" data-name="Trazado 189479" d="M208.048,139.37c-7.093-.773-10.387,3.88-11.787,19.08s-.893,31.88-.16,34.347,10.773,3.587,11.907,2.307,6.933-32.48,7.453-37.413S215.768,140.237,208.048,139.37Z" transform="translate(-132.431 -41.991)" fill="#ffba90"/>
            <rect id="Rectángulo_39500" data-name="Rectángulo 39500" width="12.187" height="16.64" rx="2" transform="matrix(0.992, 0.129, -0.129, 0.992, 64.288, 146.253)" fill="#ffba90"/>
            <path id="Trazado_189480" data-name="Trazado 189480" d="M202.251,182.01c-2.173-.227-7.56,0-8.773,14.107s2.76,34.187,2.76,34.187l5.12.533s5.333-25.92,5.827-30.933C208.384,188.49,209.064,182.757,202.251,182.01Z" transform="translate(-133.141 -27.764)" fill="#ffba90"/>
            <path id="Trazado_189481" data-name="Trazado 189481" d="M229.053,137A187.362,187.362,0,0,1,232,156.373c.4,6.827-2.933,36.707-2.947,40s.227,13.4,0,23.307-2.747,29.4-2.747,29.4l-12.68-.307V200.307c0-6.587-1.627-41.253-1.627-41.253V137.507Z" transform="translate(-126.89 -42.754)" fill="#001e3e"/>
            <path id="Trazado_189482" data-name="Trazado 189482" d="M201.662,136.68a185.257,185.257,0,0,0-4.987,18.987c-1.12,6.76-.947,36.827-1.333,40.093s-1.613,13.333-2.453,23.173-.307,29.547-.307,29.547l12.64,1.013s4.4-41.653,5.093-48.2,8.227-41.053,8.227-41.053l-.067-22.667Z" transform="translate(-133.418 -42.86)" fill="#001e3e"/>
            <path id="Trazado_189483" data-name="Trazado 189483" d="M224.92,221.113a47.922,47.922,0,0,1,0,5.867c-.133.76-2.067,1.587-5.333,1.8a13.334,13.334,0,0,1-5.48-.987c-1.467-.667.48-6.933.48-6.933Z" transform="translate(-126.37 -14.8)" fill="#121212"/>
            <path id="Trazado_189484" data-name="Trazado 189484" d="M198.3,219.45a24.867,24.867,0,0,0-6.667-1.6c-1.6,0-3.613,1.333-3.72,2.733,0,.533.587,1.187,1.133,1.84s7.293,5.333,8.747,5.52a17.64,17.64,0,0,0,6.56-.2c1.333-.507,1.427-5.333,1.427-5.333Z" transform="translate(-134.92 -15.804)" fill="#121212"/>
            <path id="Trazado_189485" data-name="Trazado 189485" d="M203.1,162.307c-.72,4.48-1.547,34.573-1.68,36.28s-4.44,48.08-4.64,50.227l-4.16-.333s-.533-19.667.307-29.547,2.12-19.893,2.453-23.173.16-33.333,1.333-40.093A185.236,185.236,0,0,1,201.7,136.68l16.867.933c.147,24.4-18.92,17.88-19.507,19.253S203.368,160.627,203.1,162.307Z" transform="translate(-133.405 -42.86)" fill="#003554"/>
            <path id="Trazado_189486" data-name="Trazado 189486" d="M223.033,156.78c-1.08,5.653-2.667,33.333-2.44,34.04s0,51.533,0,51.533l-.227.133-6.827-.173V193.847c0-6.587-1.2-32.107-1.2-32.107s1.907-4.987,4.96-4.707S223.247,155.647,223.033,156.78Z" transform="translate(-126.777 -36.294)" fill="#003554"/>
            <path id="Trazado_189487" data-name="Trazado 189487" d="M204,81.224a19.547,19.547,0,0,0-.28,2.667c0,.413.547.973.6,1.333.373,3.627,1.16,7.64,3.227,7.573,3.707-.12,5.933.253,8.44.253,3.76,0,8.6-4.28,9.467-11.893.853-7.36-6.533-13.24-13.427-13.147-6.667.093-8.36,5.133-8.093,11.907C203.95,80.41,203.977,80.81,204,81.224Z" transform="translate(-129.654 -65.751)" fill="#ffa17b"/>
            <path id="Trazado_189488" data-name="Trazado 189488" d="M215.519,66.442c-5.507-.973-14.053,3.907-10.8,6.907.96.893,1.16,9.333,1.16,9.333s1.173-.613,1.613-.12.76,3.44,1.333,4.76,3.76,6.4,4.693,6.4,6.84.227,7.6-.587a35.415,35.415,0,0,0,4.133-8.08C225.986,82.562,229.626,68.962,215.519,66.442Z" transform="translate(-129.556 -66.315)" fill="#9f3820"/>
            <path id="Trazado_189489" data-name="Trazado 189489" d="M206.008,76.33c0-.293,1.56-1.24,2.307.773.373,1.013-.947,5.44-1.2,5.44C206.462,82.543,205.822,77.837,206.008,76.33Z" transform="translate(-128.898 -63.137)" fill="#ffa17b"/>
            <path id="Trazado_189490" data-name="Trazado 189490" d="M193.408,98.53c.773-1.333,5-2.4,8.893-3.613a41.839,41.839,0,0,0,6.187-2.507h19.347a28.892,28.892,0,0,0,7,1.907c4.36.533,5.507,2.48,6.173,3.853s.96,14.053-4.8,30.667c-.787,2.267,1.253,18.173-.72,22.933l-17.08,1.573-17.08-1.48c-1.573-5.453,0-20.96-.773-23.24S192.088,100.677,193.408,98.53Z" transform="translate(-133.138 -57.617)" fill="#2c2c2c"/>
            <path id="Trazado_189491" data-name="Trazado 189491" d="M203.17,94.143l23.6.027-3.307-3.893-17-.027Z" transform="translate(-129.833 -58.337)" fill="#121212"/>
            <path id="Trazado_189492" data-name="Trazado 189492" d="M199.137,96.31s-2.853.36-6.667,7.293c-2.667,4.853-13.16,19.173-13.16,19.173a18.16,18.16,0,0,0,6.533,6.667c3.853,2.2,5.067,1.72,5.067,1.72l13.973-15.12Z" transform="translate(-137.787 -56.317)" fill="#2c2c2c"/>
            <path id="Trazado_189493" data-name="Trazado 189493" d="M230.36,95.29s4.333,2.573,6.453,11.107c1.333,5.333,5.867,22.507,5.867,22.507a18.08,18.08,0,0,1-8.427,4.107c-4.36.76-5.333-.107-5.333-.107l-8-18.973Z" transform="translate(-123.917 -56.657)" fill="#2c2c2c"/>
            <path id="Trazado_189494" data-name="Trazado 189494" d="M163.424,126.772s-1.333-1.653-1.573-1.867a17.427,17.427,0,0,1-3.187-2.373c-.467-.76-.52-1.333-.68-1.453s-1.867,0-1.333,1.48,1.733,2.587,1.68,3.067-3.32.76-4,.547-4.867-2.293-5.08-2.387-.853-.187-1.013,0a2.666,2.666,0,0,0,.28,1.573c.187.213-.4.427-.347.693s.333,1.173.333,1.173a4.121,4.121,0,0,0,.32,1.493,17.145,17.145,0,0,0,1.8,2.053,27.013,27.013,0,0,0,4.893,2.187c.987.08,6.667,0,8.36-1.68C164.691,130.492,163.424,126.772,163.424,126.772Z" transform="translate(-148.167 -48.072)" fill="#ffba90"/>
            <path id="Trazado_189495" data-name="Trazado 189495" d="M233.883,140.593H198.87a.84.84,0,0,1-.84-.827l.733-2.48a.827.827,0,0,1,.827-.827h34.293a.827.827,0,0,1,.827.827v2.533a.827.827,0,0,1-.827.773Z" transform="translate(-131.547 -42.934)" fill="#121212"/>
          </g>
          <path id="Trazado_189496" data-name="Trazado 189496" d="M152.87,187.337c2.04,2.28,7.707.213,12-2.667,4.8-3.187,10.84-12.427,10.84-12.427L166.8,164.11a21.467,21.467,0,0,1-6.84,7.813c-4.333,2.667-5.187-1.12-5.187-1.12Z" transform="translate(-31.981 -32.388)" fill="#aaceff"/>
          <path id="Trazado_189497" data-name="Trazado 189497" d="M152.87,185.65s.453-2.52,1.333-2.987a2.373,2.373,0,0,1,2.987.467l-2.44-13.96Z" transform="translate(-31.981 -30.702)" fill="#c4ddff"/>
          <g id="Grupo_93732" data-name="Grupo 93732" transform="translate(133.729 92.202)">
            <rect id="Rectángulo_39501" data-name="Rectángulo 39501" width="9.16" height="11.36" fill="#a8c9f7"/>
            <path id="Trazado_189498" data-name="Trazado 189498" d="M169.123,144.079l-.173-1.04c.147,0,3.52-.64,3.52-3.547s-3.2-2.907-3.333-2.907v-1.053a4.093,4.093,0,0,1,4.373,4C173.523,142.532,170.643,143.826,169.123,144.079Z" transform="translate(-160.35 -134.119)" fill="#a8c9f7"/>
          </g>
          <g id="Grupo_93733" data-name="Grupo 93733" transform="translate(58.075 92.202)">
            <rect id="Rectángulo_39502" data-name="Rectángulo 39502" width="9.16" height="11.36" transform="translate(13.173 11.36) rotate(180)" fill="#a8c9f7"/>
            <path id="Trazado_189499" data-name="Trazado 189499" d="M110.16,144.139l.173-1.04c-.147,0-3.52-.64-3.52-3.547s3.2-2.907,3.333-2.907v-1.053a4.093,4.093,0,0,0-4.387,4C105.76,142.526,108.64,143.819,110.16,144.139Z" transform="translate(-105.76 -134.099)" fill="#a8c9f7"/>
          </g>
        </g>
      </g>
    </g>
  </g>
</svg>
