<svg xmlns="http://www.w3.org/2000/svg" width="596.573" height="358.726" viewBox="0 0 596.573 358.726">
  <g id="Grupo_94322" data-name="Grupo 94322" transform="translate(-810 -4297.235)">
    <g id="Grupo_93837" data-name="Grupo 93837" transform="translate(807.884 4220.745)">
      <g id="Grupo_93835" data-name="Grupo 93835">
        <path id="Trazado_189896" data-name="Trazado 189896" d="M427,240.34a.252.252,0,1,1-.02-.5c.9-.06,1.82-.14,2.74-.24a.29.29,0,0,1,.33.22.272.272,0,0,1-.26.27c-.92.1-1.85.18-2.76.25Z" fill="#325899"/>
        <path id="Trazado_189897" data-name="Trazado 189897" d="M435.2,239.36a.247.247,0,1,1-.06-.49c1.77-.28,3.57-.63,5.37-1a.31.31,0,0,1,.36.18.25.25,0,0,1-.21.3c-1.81.39-3.63.74-5.41,1Zm10.68-2.31a.31.31,0,0,1-.28-.17.24.24,0,0,1,.19-.31c1.74-.47,3.48-1,5.19-1.54a.31.31,0,0,1,.38.14.24.24,0,0,1-.17.32c-1.72.55-3.47,1.07-5.22,1.54Zm10.29-3.33a.32.32,0,0,1-.27-.15.23.23,0,0,1,.15-.32c1.68-.64,3.34-1.32,4.94-2a.34.34,0,0,1,.4.11.22.22,0,0,1-.12.33c-1.61.71-3.28,1.39-5,2A.28.28,0,0,1,456.17,233.72Zm9.75-4.31a.3.3,0,0,1-.25-.12.23.23,0,0,1,.1-.34c1.59-.81,3.13-1.66,4.58-2.53a.33.33,0,0,1,.41.06.21.21,0,0,1-.06.34c-1.47.88-3,1.74-4.62,2.55a.29.29,0,0,1-.16.04Zm9-5.36a.32.32,0,0,1-.23-.09.22.22,0,0,1,0-.35,47.375,47.375,0,0,0,4-3.11.33.33,0,0,1,.42,0,.22.22,0,0,1,0,.35c-1.24,1.06-2.6,2.12-4.05,3.15a.35.35,0,0,1-.18.05Zm7.62-6.62a.29.29,0,0,1-.18-.05.21.21,0,0,1-.06-.34,30.281,30.281,0,0,0,3-3.82.32.32,0,0,1,.4-.1.22.22,0,0,1,.12.33,29.664,29.664,0,0,1-3,3.88.28.28,0,0,1-.32.1Zm5.1-8.07h-.09a.26.26,0,0,1-.2-.31,16.082,16.082,0,0,0,1-4.43.27.27,0,0,1,.31-.24.28.28,0,0,1,.28.26,16.489,16.489,0,0,1-1,4.55.29.29,0,0,1-.34.17Zm.55-9.05a.29.29,0,0,1-.29-.2,17.331,17.331,0,0,0-1.73-4.27.24.24,0,0,1,.14-.33.32.32,0,0,1,.4.12,17.429,17.429,0,0,1,1.77,4.38.26.26,0,0,1-.23.3Zm-4.56-8.26a.33.33,0,0,1-.24-.1c-.34-.39-.69-.77-1.06-1.15a25.278,25.278,0,0,0-2.51-2.25.21.21,0,0,1,0-.34.33.33,0,0,1,.42,0,25.159,25.159,0,0,1,2.57,2.29c.37.38.73.78,1.07,1.17a.22.22,0,0,1-.07.34.34.34,0,0,1-.22.04Zm-7.89-6.27a.33.33,0,0,1-.17,0c-1.42-.8-3-1.59-4.69-2.34a.22.22,0,0,1-.12-.33.33.33,0,0,1,.4-.1c1.71.75,3.31,1.55,4.75,2.36a.23.23,0,0,1,.07.35.3.3,0,0,1-.28.06Zm-9.7-4.31h-.12c-1.6-.57-3.32-1.13-5.12-1.66a.23.23,0,0,1-.18-.31.31.31,0,0,1,.38-.15c1.81.53,3.54,1.09,5.16,1.67a.22.22,0,0,1,.15.32.29.29,0,0,1-.31.13Zm-10.39-3.09h-.09c-1.69-.42-3.47-.84-5.31-1.23a.24.24,0,0,1-.21-.3.31.31,0,0,1,.36-.18c1.84.4,3.64.81,5.34,1.24a.23.23,0,0,1,.19.3.28.28,0,0,1-.32.17Zm-10.69-2.3h-.07c-1.74-.32-3.56-.64-5.4-.94a.26.26,0,0,1-.23-.29.3.3,0,0,1,.35-.2c1.85.31,3.67.62,5.41,1a.26.26,0,0,1,.23.29.31.31,0,0,1-.33.14Zm-10.84-1.78H434c-1.75-.26-3.58-.5-5.44-.74a.243.243,0,0,1-.25-.28.29.29,0,0,1,.34-.21c1.86.24,3.7.49,5.46.74a.25.25,0,0,1,.24.28.29.29,0,0,1-.27.21Zm-10.93-1.4h0c-1.78-.2-3.62-.4-5.48-.59a.26.26,0,0,1-.25-.27.3.3,0,0,1,.33-.22c1.86.19,3.7.39,5.48.59a.27.27,0,0,1,.26.28.29.29,0,0,1-.38.21Zm-11-1.11h0l-5.49-.47a.26.26,0,0,1-.27-.27.28.28,0,0,1,.32-.22l5.5.47a.28.28,0,0,1,.27.28.31.31,0,0,1-.34.21Zm-11-.91h0l-5.51-.39a.27.27,0,0,1-.27-.26.28.28,0,0,1,.32-.23c1.85.13,3.69.25,5.51.39a.27.27,0,0,1,.27.27.29.29,0,0,1-.33.22Zm-11-.74h0l-5.51-.32a.26.26,0,0,1-.27-.26.28.28,0,0,1,.31-.23l5.52.32a.27.27,0,0,1,.27.26.28.28,0,0,1-.34.23Zm-11-.61h0l-5.52-.26a.27.27,0,0,1-.27-.26.28.28,0,0,1,.31-.24l5.52.27a.27.27,0,0,1,.28.26.29.29,0,0,1-.37.23Zm-11-.51h0l-5.52-.22a.25.25,0,0,1,0-.5l5.52.23a.27.27,0,0,1,.28.26.28.28,0,0,1-.37.21Zm-11-.43h0l-5.52-.2a.27.27,0,0,1-.28-.26.26.26,0,0,1,.31-.23l5.52.19a.27.27,0,0,1,.28.26.29.29,0,0,1-.43.24Zm-11-.39h0l-5.69-.2a.27.27,0,0,1-.28-.26.28.28,0,0,1,.31-.24l5.52.18a.27.27,0,0,1,.28.26.28.28,0,0,1-.33.26ZM335,167.86h0l-5.52-.17a.27.27,0,0,1-.29-.25.28.28,0,0,1,.31-.24l5.52.16a.28.28,0,0,1,.29.26.29.29,0,0,1-.31.24Zm-11-.33h0l-5.53-.16a.252.252,0,1,1,.02-.5L324,167a.26.26,0,0,1,.28.25.27.27,0,0,1-.34.28Zm-11.05-.33h0l-5.52-.17a.25.25,0,1,1,0-.49l5.52.17a.27.27,0,0,1,.29.25.28.28,0,0,1-.35.24Zm-11-.34h0l-5.53-.18a.254.254,0,1,1,.03-.5l5.52.19a.26.26,0,0,1,.28.25.27.27,0,0,1-.4.24Zm-11-.38h0c-1.85-.07-3.69-.13-5.52-.21A.26.26,0,0,1,285,166a.27.27,0,0,1,.31-.24l5.52.21a.26.26,0,0,1,.28.26.28.28,0,0,1-.3.25Zm-11-.43h0l-5.52-.24a.27.27,0,0,1-.28-.26.29.29,0,0,1,.31-.24l5.52.25a.26.26,0,0,1,.28.26.28.28,0,0,1-.49.23Zm-11-.51h0c-1.85-.1-3.69-.19-5.52-.3a.25.25,0,0,1-.27-.26.29.29,0,0,1,.31-.23l5.52.3a.26.26,0,0,1,.28.26.293.293,0,0,1-.54.23Zm-11-.62h0l-5.51-.36a.26.26,0,0,1-.27-.27.28.28,0,0,1,.32-.22l5.5.36a.27.27,0,0,1,.28.26.307.307,0,0,1-.57.23Zm-11-.76h0c-1.88-.14-3.73-.29-5.5-.45a.26.26,0,0,1-.27-.27.3.3,0,0,1,.33-.22c1.77.16,3.62.31,5.49.45a.256.256,0,0,1,.27.27.31.31,0,0,1-.58.22Zm-11-1h0c-1.88-.18-3.72-.38-5.49-.58a.25.25,0,0,1-.25-.27.28.28,0,0,1,.33-.21c1.77.19,3.61.39,5.48.57a.27.27,0,0,1,.26.28.314.314,0,0,1-.58.24Zm-11-1.23h0c-1.87-.24-3.7-.49-5.46-.75a.26.26,0,0,1-.24-.29.3.3,0,0,1,.34-.2c1.76.26,3.59.51,5.45.75a.26.26,0,0,1,.25.28.309.309,0,1,1-.55.28Zm-10.87-1.62h-.07c-1.86-.32-3.68-.66-5.4-1a.25.25,0,0,1-.21-.3.31.31,0,0,1,.36-.18c1.7.35,3.51.68,5.38,1a.25.25,0,0,1,.23.29.3.3,0,0,1-.5.22Zm-10.73-2.19h-.08c-1.85-.45-3.62-.93-5.27-1.42a.24.24,0,0,1-.18-.31.33.33,0,0,1,.38-.15c1.64.49,3.4,1,5.23,1.41a.25.25,0,0,1,.21.3.3.3,0,0,1-.5.2ZM192.79,155a.31.31,0,0,1-.13,0,49.147,49.147,0,0,1-4.88-2.13.22.22,0,0,1-.1-.34.33.33,0,0,1,.41-.08,48,48,0,0,0,4.82,2.1.24.24,0,0,1,.15.33A.32.32,0,0,1,192.79,155Zm-9.25-4.8a.31.31,0,0,1-.2-.07,18,18,0,0,1-3.55-3.44.22.22,0,0,1,.1-.34.32.32,0,0,1,.4.07,17,17,0,0,0,3.45,3.35.22.22,0,0,1,0,.35.33.33,0,0,1-.2.11ZM178,142.62a.28.28,0,0,1-.28-.18,21.92,21.92,0,0,1-1-4.54.26.26,0,0,1,.27-.27.29.29,0,0,1,.32.22,21.8,21.8,0,0,0,1,4.46.26.26,0,0,1-.21.31Zm-1-9.07h0a.27.27,0,0,1-.27-.26,23.759,23.759,0,0,1,.94-4.55.31.31,0,0,1,.36-.18.238.238,0,0,1,.22.3,23.871,23.871,0,0,0-.93,4.47.27.27,0,0,1-.32.22Zm2.7-8.83h-.11a.22.22,0,0,1-.16-.32,34.471,34.471,0,0,1,2.49-4.12.34.34,0,0,1,.41-.09.23.23,0,0,1,.11.34,33.642,33.642,0,0,0-2.47,4.06.29.29,0,0,1-.28.13Zm5.54-7.9a.35.35,0,0,1-.18,0,.22.22,0,0,1-.06-.35c1.07-1.19,2.26-2.39,3.53-3.55a.33.33,0,0,1,.42,0,.21.21,0,0,1,0,.34c-1.26,1.15-2.43,2.33-3.5,3.52a.33.33,0,0,1-.22.04Zm7.39-6.79a.35.35,0,0,1-.22-.08.22.22,0,0,1,0-.35c1.31-1,2.72-2,4.19-3a.32.32,0,0,1,.41,0,.21.21,0,0,1,0,.34c-1.45,1-2.85,2-4.16,3a.37.37,0,0,1-.23.06Zm8.59-5.76a.36.36,0,0,1-.25-.1.23.23,0,0,1,.07-.35c1.48-.86,3-1.71,4.63-2.53a.33.33,0,0,1,.41.08.23.23,0,0,1-.1.34c-1.58.81-3.12,1.66-4.59,2.52a.35.35,0,0,1-.18.04Zm9.37-4.84a.32.32,0,0,1-.26-.12.24.24,0,0,1,.12-.34c1.59-.73,3.25-1.44,4.92-2.11a.32.32,0,0,1,.39.11.23.23,0,0,1-.13.33c-1.66.67-3.31,1.38-4.89,2.1a.4.4,0,0,1-.16.03Zm9.92-4a.32.32,0,0,1-.27-.15.23.23,0,0,1,.15-.33c1.67-.6,3.4-1.18,5.13-1.74a.33.33,0,0,1,.38.15.23.23,0,0,1-.17.31c-1.72.56-3.44,1.14-5.1,1.74Zm10.31-3.3a.32.32,0,0,1-.29-.17.24.24,0,0,1,.19-.31c1.72-.49,3.5-1,5.27-1.41a.31.31,0,0,1,.37.17.25.25,0,0,1-.2.31c-1.77.44-3.53.91-5.25,1.39Zm10.57-2.64a.31.31,0,0,1-.29-.19.25.25,0,0,1,.21-.3c1.77-.38,3.58-.75,5.38-1.09a.3.3,0,0,1,.35.19.24.24,0,0,1-.22.29c-1.79.34-3.59.71-5.36,1.09Zm10.77-2a.3.3,0,0,1-.3-.2.25.25,0,0,1,.24-.29c1.79-.29,3.63-.56,5.45-.8a.3.3,0,0,1,.34.2.27.27,0,0,1-.25.29c-1.81.24-3.64.51-5.43.79ZM263.05,86a.29.29,0,0,1-.3-.22.26.26,0,0,1,.26-.27c1.81-.2,3.66-.38,5.49-.53a.3.3,0,0,1,.33.22.27.27,0,0,1-.27.27c-1.83.15-3.67.33-5.48.53Zm11-.92a.3.3,0,0,1-.3-.23.28.28,0,0,1,.28-.27c1.82-.1,3.67-.19,5.52-.26a.25.25,0,1,1,.02.49c-1.84.07-3.69.16-5.5.27Z" fill="#325899"/>
        <path id="Trazado_189898" data-name="Trazado 189898" d="M285.12,84.65a.29.29,0,0,1-.3-.25.28.28,0,0,1,.3-.25h2.77a.25.25,0,1,1,0,.49h-2.76Z" fill="#325899"/>
      </g>
      <g id="Grupo_93836" data-name="Grupo 93836">
        <path id="Trazado_189899" data-name="Trazado 189899" d="M283.89,84.79l9.13.46-2.74-3.85Z" fill="#244885"/>
        <path id="Trazado_189900" data-name="Trazado 189900" d="M292.31,86.46l11.89-2.92L289.46,83Z" fill="#3a67b3"/>
        <path id="Trazado_189901" data-name="Trazado 189901" d="M304.21,83.53,285.9,76.49l2.6,3.52Z" fill="#3a67b3"/>
        <path id="Trazado_189902" data-name="Trazado 189902" d="M304.2,83.54l-14.77-.51-5.54,1.76,4.61-4.84Z" fill="#295399"/>
      </g>
    </g>
    <g id="Grupo_93838" data-name="Grupo 93838" transform="translate(807.884 4220.745)">
      <rect id="Rectángulo_39553" data-name="Rectángulo 39553" width="596.06" height="116.35" transform="translate(2.117 286.649) rotate(-0.2)" fill="#ebecff"/>
      <rect id="Rectángulo_39554" data-name="Rectángulo 39554" width="596.06" height="32.23" transform="translate(2.523 402.987) rotate(-0.2)" fill="#dddef0"/>
    </g>
    <g id="Grupo_93841" data-name="Grupo 93841" transform="translate(807.884 4220.745)">
      <path id="Trazado_189903" data-name="Trazado 189903" d="M400.9,337.7c-3.81,0-7.22-.18-8-.23a.57.57,0,0,1-.52-.6.56.56,0,0,1,.59-.52c6.63.41,17.12.42,18.9-1.26.16-.15.16-.25.16-.29,0-1.15-2.2-2.08-4.14-2.91s-4-1.71-4.38-3.1a2.19,2.19,0,0,1,.54-1.9c2.92-3.67,17.05-2.94,18.65-2.85a.57.57,0,0,1,.53.6.56.56,0,0,1-.59.52c-4.2-.24-15.55-.29-17.71,2.43-.43.54-.35.83-.33.93.22.84,2.09,1.64,3.73,2.34,2.37,1,4.81,2.05,4.82,3.94a1.52,1.52,0,0,1-.51,1.11C411.14,337.33,405.71,337.68,400.9,337.7Z" fill="#464e8c"/>
      <g id="Grupo_93840" data-name="Grupo 93840">
        <path id="Trazado_189904" data-name="Trazado 189904" d="M260.8,354.62v2.92a3.89,3.89,0,0,0,3.9,3.87l139.3-.49a3.89,3.89,0,0,0,3.88-3.9v-2.91Z" fill="#464e8c"/>
        <path id="Trazado_189905" data-name="Trazado 189905" d="M386.44,331.73l-104.39.37a6.23,6.23,0,0,0-4.29,1.71l-16.23,19.34c-1.37,1.63-.76,3,1.4,3l142.79-.51c2.17,0,2.77-1.37,1.39-3l-16.37-19.23a6.21,6.21,0,0,0-4.3-1.68Z" fill="#a9add9"/>
        <g id="Grupo_93839" data-name="Grupo 93839">
          <path id="Trazado_189906" data-name="Trazado 189906" d="M286.15,333.75h-4.36a1.67,1.67,0,0,0-1.21.5l-1.73,2.19c-.24.29,0,.53.44.52h4.56a1.66,1.66,0,0,0,1.24-.54l1.53-2.19C286.82,334,286.6,333.74,286.15,333.75Z" fill="#464e8c"/>
          <path id="Trazado_189907" data-name="Trazado 189907" d="M275.3,348.93,270,349a2.33,2.33,0,0,0-1.59.75L265.72,353c-.35.45-.16.81.43.81h5.66a2.24,2.24,0,0,0,1.64-.82l2.34-3.33C276.08,349.26,275.86,348.93,275.3,348.93Z" fill="#464e8c"/>
          <path id="Trazado_189908" data-name="Trazado 189908" d="M284.22,348.9h-5.35a2,2,0,0,0-1.51.74L275.09,353c-.31.45-.08.82.51.82h5.66a2,2,0,0,0,1.55-.82l2-3.33C285,349.23,284.78,348.9,284.22,348.9Z" fill="#464e8c"/>
          <path id="Trazado_189909" data-name="Trazado 189909" d="M334.63,348.73h-5.34a1,1,0,0,0-1.06.75L328,352.8a.9.9,0,0,0,1,.81h5.66a1,1,0,0,0,1.05-.82l-.06-3.32C335.65,349.05,335.19,348.72,334.63,348.73Z" fill="#464e8c"/>
          <path id="Trazado_189910" data-name="Trazado 189910" d="M343.8,348.69h-5.35c-.55,0-1,.33-1,.74l.14,3.32a1,1,0,0,0,1.1.81h5.66a.9.9,0,0,0,1-.81l-.43-3.32A1.07,1.07,0,0,0,343.8,348.69Z" fill="#464e8c"/>
          <path id="Trazado_189911" data-name="Trazado 189911" d="M353,348.66h-5.35c-.56,0-1,.33-.89.74l.51,3.32a1.15,1.15,0,0,0,1.19.81h5.66c.59,0,1-.37.87-.82l-.81-3.32a1.21,1.21,0,0,0-1.18-.73Z" fill="#464e8c"/>
          <path id="Trazado_189912" data-name="Trazado 189912" d="M367.91,348.61h-10.4c-1.09,0-1.88.34-1.77.75l.87,3.32c.12.44,1.15.81,2.29.8h11c1.15,0,1.92-.37,1.72-.82l-1.45-3.31C370,348.93,369,348.6,367.91,348.61Z" fill="#464e8c"/>
          <path id="Trazado_189913" data-name="Trazado 189913" d="M294.1,333.72h-4.36a1.55,1.55,0,0,0-1.15.5l-1.48,2.19c-.19.29,0,.53.51.52h4.56a1.44,1.44,0,0,0,1.17-.54l1.28-2.18C294.79,333.93,294.55,333.72,294.1,333.72Z" fill="#464e8c"/>
          <path id="Trazado_189914" data-name="Trazado 189914" d="M294,338.09h-4.64a1.57,1.57,0,0,0-1.23.56l-1.59,2.49c-.22.34,0,.61.53.61h4.88a1.54,1.54,0,0,0,1.25-.61l1.37-2.49C294.7,338.34,294.44,338.09,294,338.09Z" fill="#464e8c"/>
          <path id="Trazado_189915" data-name="Trazado 189915" d="M302.52,338.06h-4.65a1.39,1.39,0,0,0-1.16.56l-1.29,2.49c-.18.33.09.61.6.6h4.88a1.35,1.35,0,0,0,1.18-.61l1.07-2.49C303.28,338.31,303,338.06,302.52,338.06Z" fill="#464e8c"/>
          <path id="Trazado_189916" data-name="Trazado 189916" d="M311.07,338h-4.64a1.21,1.21,0,0,0-1.1.56l-1,2.49c-.14.33.17.6.67.6h4.89a1.19,1.19,0,0,0,1.1-.61l.77-2.49C311.87,338.28,311.55,338,311.07,338Z" fill="#464e8c"/>
          <path id="Trazado_189917" data-name="Trazado 189917" d="M319.63,338H315a1.07,1.07,0,0,0-1,.56l-.69,2.49c-.1.33.24.6.75.6h4.88c.51,0,1-.27,1-.6l.47-2.49C320.45,338.25,320.11,338,319.63,338Z" fill="#464e8c"/>
          <path id="Trazado_189918" data-name="Trazado 189918" d="M328.18,338h-4.64a1,1,0,0,0-1,.56l-.39,2.49c-.06.33.31.6.82.6h4.88a.958.958,0,0,0,1-.61l.18-2.48C329,338.22,328.66,338,328.18,338Z" fill="#464e8c"/>
          <path id="Trazado_189919" data-name="Trazado 189919" d="M336.73,337.94h-4.64c-.48,0-.89.25-.9.56l-.09,2.5c0,.33.38.6.89.6h4.88c.51,0,.91-.27.89-.61l-.12-2.48C337.62,338.19,337.22,337.94,336.73,337.94Z" fill="#464e8c"/>
          <path id="Trazado_189920" data-name="Trazado 189920" d="M345.29,337.91h-4.65c-.48,0-.85.25-.83.56L340,341c0,.34.46.61,1,.61h4.89c.5,0,.87-.28.81-.61l-.42-2.48A.955.955,0,0,0,345.29,337.91Z" fill="#464e8c"/>
          <path id="Trazado_189921" data-name="Trazado 189921" d="M353.84,337.88H349.2c-.48,0-.83.25-.76.56l.5,2.48c.06.34.53.61,1,.6h4.88c.51,0,.84-.28.74-.61l-.72-2.48A1.08,1.08,0,0,0,353.84,337.88Z" fill="#464e8c"/>
          <path id="Trazado_189922" data-name="Trazado 189922" d="M294.16,343.06h-5a1.67,1.67,0,0,0-1.32.64l-1.72,2.86c-.23.39,0,.7.57.7h5.25a1.63,1.63,0,0,0,1.34-.7l1.46-2.86C295,343.34,294.67,343.06,294.16,343.06Z" fill="#464e8c"/>
          <path id="Trazado_189923" data-name="Trazado 189923" d="M302.63,343h-5a1.48,1.48,0,0,0-1.25.64l-1.4,2.86c-.18.39.11.7.65.7h5.24a1.42,1.42,0,0,0,1.27-.7l1.14-2.86C303.45,343.31,303.15,343,302.63,343Z" fill="#464e8c"/>
          <path id="Trazado_189924" data-name="Trazado 189924" d="M311.1,343h-5a1.31,1.31,0,0,0-1.18.64l-1.08,2.86c-.14.39.18.7.73.7h5.24a1.25,1.25,0,0,0,1.19-.7l.82-2.86C312,343.28,311.62,343,311.1,343Z" fill="#464e8c"/>
          <path id="Trazado_189925" data-name="Trazado 189925" d="M319.57,343h-5a1.14,1.14,0,0,0-1.1.64l-.77,2.86c-.1.38.26.7.81.69h5.24a1.11,1.11,0,0,0,1.11-.7l.51-2.86C320.46,343.25,320.09,343,319.57,343Z" fill="#464e8c"/>
          <path id="Trazado_189926" data-name="Trazado 189926" d="M328,342.94h-5a1,1,0,0,0-1,.64l-.44,2.86c-.06.38.33.69.87.69h5.25c.54,0,1-.31,1-.7l.19-2.85C329,343.22,328.56,342.94,328,342.94Z" fill="#464e8c"/>
          <path id="Trazado_189927" data-name="Trazado 189927" d="M336.52,342.91h-5a.948.948,0,0,0-1,.64l-.12,2.86c0,.38.41.69,1,.69h5.24c.55,0,1-.31,1-.7l-.13-2.85C337.47,343.19,337,342.91,336.52,342.91Z" fill="#464e8c"/>
          <path id="Trazado_189928" data-name="Trazado 189928" d="M345,342.88h-5c-.52,0-.92.29-.89.64l.19,2.86c0,.38.48.69,1,.69h5.24c.55,0,.94-.32.88-.7l-.45-2.85C346,343.16,345.51,342.88,345,342.88Z" fill="#464e8c"/>
          <path id="Trazado_189929" data-name="Trazado 189929" d="M353.46,342.85h-5c-.52,0-.88.29-.82.64l.51,2.86c.06.38.56.69,1.11.69h5.24c.54,0,.9-.32.8-.7l-.76-2.85a1.14,1.14,0,0,0-1.08-.64Z" fill="#464e8c"/>
          <path id="Trazado_189930" data-name="Trazado 189930" d="M302.05,333.69h-4.36a1.35,1.35,0,0,0-1.1.49l-1.21,2.19c-.16.29.09.53.57.52h4.56a1.29,1.29,0,0,0,1.11-.53l1-2.19C302.77,333.91,302.5,333.69,302.05,333.69Z" fill="#464e8c"/>
          <path id="Trazado_189931" data-name="Trazado 189931" d="M310,333.66h-4.36a1.19,1.19,0,0,0-1,.49l-1,2.19c-.13.29.15.53.63.53h4.56a1.14,1.14,0,0,0,1.05-.53l.76-2.19C310.74,333.88,310.45,333.66,310,333.66Z" fill="#464e8c"/>
          <path id="Trazado_189932" data-name="Trazado 189932" d="M318,333.63h-4.36a1,1,0,0,0-1,.49l-.69,2.19c-.1.29.21.53.69.53h4.57a1.05,1.05,0,0,0,1-.53l.5-2.19C318.72,333.85,318.4,333.63,318,333.63Z" fill="#464e8c"/>
          <path id="Trazado_189933" data-name="Trazado 189933" d="M325.89,333.61h-4.35c-.46,0-.87.22-.92.49l-.44,2.19c-.06.29.28.53.76.53h4.57c.47,0,.88-.24.91-.53l.24-2.19C326.69,333.82,326.35,333.6,325.89,333.61Z" fill="#464e8c"/>
          <path id="Trazado_189934" data-name="Trazado 189934" d="M333.84,333.58h-4.35c-.46,0-.84.22-.87.5l-.17,2.18c0,.29.34.53.82.53h4.57c.47,0,.85-.24.85-.53v-2.19C334.67,333.79,334.3,333.58,333.84,333.58Z" fill="#464e8c"/>
          <path id="Trazado_189935" data-name="Trazado 189935" d="M341.79,333.55h-4.35c-.46,0-.82.22-.81.49l.09,2.18c0,.29.4.53.88.53h4.57c.47,0,.83-.24.79-.53l-.28-2.18C342.64,333.77,342.25,333.55,341.79,333.55Z" fill="#464e8c"/>
          <path id="Trazado_189936" data-name="Trazado 189936" d="M349.74,333.52h-4.36c-.45,0-.78.22-.74.49l.34,2.18c0,.29.47.53.95.53h4.57c.47,0,.8-.24.73-.53l-.54-2.18C350.62,333.74,350.2,333.52,349.74,333.52Z" fill="#464e8c"/>
          <path id="Trazado_189937" data-name="Trazado 189937" d="M361.69,333.48h-8.24c-.86,0-1.5.22-1.42.49l.58,2.19c.08.29.87.52,1.77.52h8.64c.9,0,1.52-.24,1.39-.54l-1-2.18C363.34,333.69,362.55,333.48,361.69,333.48Z" fill="#464e8c"/>
          <path id="Trazado_189938" data-name="Trazado 189938" d="M365.8,342.81h-8.11c-.84,0-1.44.29-1.34.64l.83,2.85c.11.39.92.7,1.81.69h8.56c.89,0,1.48-.31,1.31-.7l-1.25-2.85C367.45,343.09,366.65,342.81,365.8,342.81Z" fill="#464e8c"/>
          <path id="Trazado_189939" data-name="Trazado 189939" d="M364,337.85h-6.28c-.65,0-1.1.25-1,.56l.79,2.48c.1.34.75.61,1.43.6h6.6c.69,0,1.12-.28,1-.61l-1.09-2.48A1.831,1.831,0,0,0,364,337.85Z" fill="#464e8c"/>
          <path id="Trazado_189940" data-name="Trazado 189940" d="M286.51,338h-8.2a1.81,1.81,0,0,0-1.25.65l-1.8,2.26c-.3.39-.2.7.23.7h8.61a1.69,1.69,0,0,0,1.24-.7l1.49-2.27C287.06,338.32,286.92,338,286.51,338Z" fill="#464e8c"/>
          <path id="Trazado_189941" data-name="Trazado 189941" d="M285.93,343H274.68a2.28,2.28,0,0,0-1.61.74l-2.06,2.6c-.35.45-.15.81.45.8h11.86a2,2,0,0,0,1.57-.8l1.61-2.61C286.75,343.29,286.49,343,285.93,343Z" fill="#464e8c"/>
          <path id="Trazado_189942" data-name="Trazado 189942" d="M324.51,348.76l-34.78.12a2.27,2.27,0,0,0-1.81.95l-1.61,2.9c-.31.57,0,1,.79,1l36.84-.12a1.42,1.42,0,0,0,1.47-1l.29-2.9C325.75,349.18,325.22,348.76,324.51,348.76Z" fill="#464e8c"/>
        </g>
        <path id="Trazado_189943" data-name="Trazado 189943" d="M372.77,336.42h-4.59a1.47,1.47,0,0,1-1.27-.6L366,334c-.15-.31.16-.57.68-.57h4.39a1.59,1.59,0,0,1,1.27.55l1,1.82C373.6,336.15,373.31,336.42,372.77,336.42Z" fill="#464e8c"/>
        <path id="Trazado_189944" data-name="Trazado 189944" d="M380.85,336.39h-4.59a1.7,1.7,0,0,1-1.34-.6L373.85,334c-.19-.31.09-.56.61-.56h4.39a1.77,1.77,0,0,1,1.33.56l1.24,1.81C381.65,336.12,381.4,336.39,380.85,336.39Z" fill="#464e8c"/>
        <path id="Trazado_189945" data-name="Trazado 189945" d="M388.94,336.37h-4.59a1.86,1.86,0,0,1-1.41-.6L381.65,334c-.22-.31,0-.56.55-.56h4.39A2,2,0,0,1,388,334l1.46,1.81C389.7,336.09,389.48,336.36,388.94,336.37Z" fill="#464e8c"/>
        <path id="Trazado_189946" data-name="Trazado 189946" d="M375.43,341.2h-4.91a1.63,1.63,0,0,1-1.38-.68l-1-2.07c-.17-.35.14-.64.7-.64h4.68a1.67,1.67,0,0,1,1.37.64l1.18,2.06C376.3,340.89,376,341.2,375.43,341.2Z" fill="#464e8c"/>
        <path id="Trazado_189947" data-name="Trazado 189947" d="M384.06,341.17h-4.9a1.86,1.86,0,0,1-1.46-.68l-1.22-2.07c-.21-.35.07-.64.62-.64h4.69a1.93,1.93,0,0,1,1.44.64l1.42,2.06C384.9,340.86,384.65,341.17,384.06,341.17Z" fill="#464e8c"/>
        <path id="Trazado_189948" data-name="Trazado 189948" d="M392.7,341.14h-4.9a2.12,2.12,0,0,1-1.54-.68l-1.46-2.07c-.25-.35,0-.64.55-.64H390a2.13,2.13,0,0,1,1.52.63l1.65,2.06C393.51,340.83,393.28,341.14,392.7,341.14Z" fill="#464e8c"/>
        <path id="Trazado_189949" data-name="Trazado 189949" d="M378.47,346.68h-5.26a1.75,1.75,0,0,1-1.51-.78l-1.13-2.38c-.19-.4.13-.73.73-.73h5a1.83,1.83,0,0,1,1.49.73l1.35,2.37C379.4,346.32,379.1,346.68,378.47,346.68Z" fill="#464e8c"/>
        <path id="Trazado_189950" data-name="Trazado 189950" d="M387.75,346.65h-5.27a2,2,0,0,1-1.6-.79l-1.4-2.37c-.24-.4,0-.73.64-.73h5a2.08,2.08,0,0,1,1.58.73l1.63,2.37C388.63,346.29,388.37,346.65,387.75,346.65Z" fill="#464e8c"/>
        <path id="Trazado_189951" data-name="Trazado 189951" d="M397,346.62h-5.26a2.27,2.27,0,0,1-1.69-.79l-1.68-2.37c-.29-.4,0-.73.56-.73h5a2.37,2.37,0,0,1,1.66.73l1.9,2.37C397.87,346.26,397.65,346.62,397,346.62Z" fill="#464e8c"/>
        <path id="Trazado_189952" data-name="Trazado 189952" d="M382,353h-5.69a2,2,0,0,1-1.66-.92l-1.31-2.75c-.22-.47.12-.85.76-.85h5.38a2,2,0,0,1,1.64.84l1.57,2.75C383,352.62,382.68,353,382,353Z" fill="#464e8c"/>
        <path id="Trazado_189953" data-name="Trazado 189953" d="M392,353h-5.69a2.21,2.21,0,0,1-1.76-.91l-1.63-2.76c-.28-.46,0-.84.65-.84h5.39a2.28,2.28,0,0,1,1.74.84l1.89,2.75C393,352.58,392.69,353,392,353Z" fill="#464e8c"/>
        <path id="Trazado_189954" data-name="Trazado 189954" d="M402,353h-5.68a2.55,2.55,0,0,1-1.88-.92l-1.94-2.75c-.34-.47-.09-.85.55-.85h5.39a2.65,2.65,0,0,1,1.83.84l2.21,2.75C402.92,352.55,402.71,353,402,353Z" fill="#464e8c"/>
      </g>
    </g>
    <g id="Grupo_93846" data-name="Grupo 93846" transform="translate(807.884 4220.745)">
      <rect id="Rectángulo_39555" data-name="Rectángulo 39555" width="212.06" height="131.98" transform="translate(229.822 121.906) rotate(-0.2)" fill="#fff"/>
      <path id="Trazado_189955" data-name="Trazado 189955" d="M443.52,117.89l-214.45.76a3.19,3.19,0,0,0-3.19,3.2l.5,140.84a3.19,3.19,0,0,0,3.21,3.18L444,265.12a3.19,3.19,0,0,0,3.17-3.21l-.49-140.84a3.19,3.19,0,0,0-3.16-3.18ZM441.6,246.31a3.37,3.37,0,0,1-3.38,3.33L234,250.36a3.35,3.35,0,0,1-3.4-3.31l-.43-120.92a3.37,3.37,0,0,1,3.38-3.34l204.22-.71a3.35,3.35,0,0,1,3.4,3.3Z" fill="#736d99"/>
      <path id="Trazado_189956" data-name="Trazado 189956" d="M332.26,257.76a5.17,5.17,0,1,1,5.19,5.15,5.17,5.17,0,0,1-5.19-5.15Z" fill="#fff"/>
      <g id="Grupo_93842" data-name="Grupo 93842">
        <path id="Trazado_189957" data-name="Trazado 189957" d="M340.35,253.49a5.155,5.155,0,0,1-7.15,7.21,5.16,5.16,0,1,0,7.15-7.21Z" fill="#ccc"/>
      </g>
      <path id="Trazado_189958" data-name="Trazado 189958" d="M403,309.17l-27.52.1c-10.59-.78-23.51-1.21-37.43-1.16s-26.84.57-37.42,1.42l-27.53.1a1,1,0,0,0-.26.65v5.16a1,1,0,0,0,.28.65c3,3.61,31,6.34,65,6.22s61.93-3,64.92-6.68a1,1,0,0,0,.27-.65v-5.16A1,1,0,0,0,403,309.17Z" fill="#a1a5c4"/>
      <path id="Trazado_189959" data-name="Trazado 189959" d="M403.29,309.82c0,.91-1.57,1.78-4.43,2.59h0c-4.71,1.34-12.9,2.49-23.33,3.32-10.59.85-23.5,1.37-37.42,1.42s-26.84-.38-37.43-1.16-18.63-1.85-23.35-3.15h0c-2.87-.79-4.45-1.65-4.45-2.56a1,1,0,0,1,.26-.65c3-3.64,30.92-6.57,64.93-6.69s61.95,2.61,65,6.23A1,1,0,0,1,403.29,309.82Z" fill="#c8cbe3"/>
      <g id="Grupo_93843" data-name="Grupo 93843">
        <path id="Trazado_189960" data-name="Trazado 189960" d="M360.85,308.03l-47.78.17,6.89-38.63v-.01l.71-4.01,33.57-.12Z" fill="#c8cbe3"/>
        <path id="Trazado_189961" data-name="Trazado 189961" d="M360.85,308h-5.68s-2.79-23.31-9.41-30.91c-8.73-10-25.8-7.57-25.8-7.57h0l.71-4,33.57-.12Z" fill="#a1a5c4"/>
      </g>
      <g id="Grupo_93845" data-name="Grupo 93845">
        <path id="Trazado_189962" data-name="Trazado 189962" d="M442,124.73l.42,121.83a3.37,3.37,0,0,1-3.39,3.36l-205.22.72a3.37,3.37,0,0,1-3.42-3.33L230,125.48a3.38,3.38,0,0,1,3.4-3.36l205.22-.72a3.38,3.38,0,0,1,3.38,3.33Z" fill="#fff"/>
        <path id="Trazado_189963" data-name="Trazado 189963" d="M442,124.73v10l-212,.75v-10a3.38,3.38,0,0,1,3.4-3.36l205.22-.72a3.38,3.38,0,0,1,3.38,3.33Z" fill="#dfe0f0"/>
        <path id="Trazado_189964" data-name="Trazado 189964" d="M403.27,124.39,243.78,125c-3.5,0-6.33,1.66-6.32,3.7h0c0,2,2.85,3.66,6.35,3.65l159.49-.56c3.5,0,6.33-1.67,6.32-3.7h0C409.62,126,406.77,124.38,403.27,124.39Z" fill="#fff"/>
        <path id="Trazado_189965" data-name="Trazado 189965" d="M427.15,131.67H416.77a3.75,3.75,0,0,1-3.83-3.66h0a3.75,3.75,0,0,1,3.81-3.69h10.37A3.75,3.75,0,0,1,431,128h0A3.76,3.76,0,0,1,427.15,131.67Z" fill="#fff"/>
        <path id="Trazado_189966" data-name="Trazado 189966" d="M424.44,129.77l-1.68-1.13h-.06a2.2,2.2,0,1,0-1.93,1.14,2.25,2.25,0,0,0,1.43-.53l.08.08,1.69,1.13a.43.43,0,0,0,.31.06.42.42,0,0,0,.27-.16.39.39,0,0,0-.11-.59Zm-3.67-.63a1.5,1.5,0,1,1,1.55-1.5,1.52,1.52,0,0,1-1.55,1.5Z" fill="#dfe0f0"/>
        <g id="Grupo_93844" data-name="Grupo 93844">
          <path id="Trazado_189967" data-name="Trazado 189967" d="M435.56,125.53a.87.87,0,1,1,.87.83.86.86,0,0,1-.87-.83Z" fill="#fff"/>
          <path id="Trazado_189968" data-name="Trazado 189968" d="M435.57,127.61a.87.87,0,1,1,.87.83A.85.85,0,0,1,435.57,127.61Z" fill="#fff"/>
          <path id="Trazado_189969" data-name="Trazado 189969" d="M435.57,129.69a.87.87,0,0,1,1.73,0,.84.84,0,0,1-.86.83A.86.86,0,0,1,435.57,129.69Z" fill="#fff"/>
        </g>
      </g>
    </g>
    <g id="Grupo_93849" data-name="Grupo 93849" transform="translate(807.884 4220.745)">
      <g id="Grupo_93847" data-name="Grupo 93847">
        <path id="Trazado_189970" data-name="Trazado 189970" d="M289.34,183.51l-14.8.05a15.91,15.91,0,0,1-16-15.86h0a15.9,15.9,0,0,1,15.85-16H289.2a15.91,15.91,0,0,1,16,15.86h0A15.91,15.91,0,0,1,289.34,183.51Z" fill="#dfe0f0"/>
        <path id="Trazado_189971" data-name="Trazado 189971" d="M346.33,183.31l-14.8.05a15.91,15.91,0,0,1-16-15.86h0a15.91,15.91,0,0,1,15.86-16l14.8-.05a15.91,15.91,0,0,1,16,15.86h0a15.91,15.91,0,0,1-15.86,16Z" fill="#dfe0f0"/>
        <path id="Trazado_189972" data-name="Trazado 189972" d="M403.32,183.11h-14.8a15.91,15.91,0,0,1-16-15.86h0a15.91,15.91,0,0,1,15.86-16l14.8-.05a15.91,15.91,0,0,1,16,15.86h0a15.91,15.91,0,0,1-15.86,16.05Z" fill="#dfe0f0"/>
        <path id="Trazado_189973" data-name="Trazado 189973" d="M405.93,167.17l-14.55-6.83a.92.92,0,0,0-1.31.83l.05,13.77a.91.91,0,0,0,1.31.82l14.5-6.93a.92.92,0,0,0,0-1.66Z" fill="#fff"/>
        <path id="Trazado_189974" data-name="Trazado 189974" d="M302.79,193.82l-43.48.16a1.57,1.57,0,0,1-1.58-1.57h0a1.57,1.57,0,0,1,1.56-1.58l43.49-.15a1.57,1.57,0,0,1,1.58,1.56h0a1.57,1.57,0,0,1-1.57,1.58Z" fill="#dfe0f0"/>
        <path id="Trazado_189975" data-name="Trazado 189975" d="M361.45,193.62l-43.49.15a1.57,1.57,0,0,1-1.57-1.57h0a1.57,1.57,0,0,1,1.56-1.58l43.49-.15A1.58,1.58,0,0,1,363,192h0a1.58,1.58,0,0,1-1.55,1.62Z" fill="#dfe0f0"/>
        <path id="Trazado_189976" data-name="Trazado 189976" d="M420.11,193.41l-43.49.15A1.57,1.57,0,0,1,375,192h0a1.57,1.57,0,0,1,1.57-1.58l43.49-.16a1.57,1.57,0,0,1,1.57,1.57h0A1.56,1.56,0,0,1,420.11,193.41Z" fill="#dfe0f0"/>
        <path id="Trazado_189977" data-name="Trazado 189977" d="M427.82,201.89l-180,.64a1.3,1.3,0,0,0,0,2.59l180-.63a1.3,1.3,0,0,0,0-2.6Z" fill="#dfe0f0"/>
        <path id="Trazado_189978" data-name="Trazado 189978" d="M427.85,212.81l-180,.64a1.3,1.3,0,1,0,0,2.59l180-.64a1.3,1.3,0,0,0,0-2.59Z" fill="#dfe0f0"/>
        <path id="Trazado_189979" data-name="Trazado 189979" d="M427.89,223.73l-180,.63a1.3,1.3,0,0,0,0,2.59l180-.63a1.3,1.3,0,0,0,0-2.59Z" fill="#dfe0f0"/>
        <path id="Trazado_189980" data-name="Trazado 189980" d="M427.93,234.65l-180,.63a1.3,1.3,0,0,0,0,2.59l180-.63a1.3,1.3,0,1,0,0-2.59Z" fill="#dfe0f0"/>
        <path id="Trazado_189981" data-name="Trazado 189981" d="M294.43,175.31a1.079,1.079,0,0,0-.1-.27h0l-.06-16a2.5,2.5,0,0,0-2.81-2.47l-17.6,2.29.06,15.36a5.75,5.75,0,0,0-3.63,0c-2.27.69-3.79,2.3-3.4,3.6s2.55,1.8,4.82,1.12,3.8-2.3,3.4-3.6a1.17,1.17,0,0,0-.23-.46V164.72l18.48-2.07v11.48a5.68,5.68,0,0,0-3.72-.21c-2.3.56-3.91,2.09-3.59,3.4s2.45,1.94,4.75,1.39S294.75,176.63,294.43,175.31Zm-1.08-13.62-18.48,2.07V159.7l16.75-2.18a1.52,1.52,0,0,1,1.21.36,1.57,1.57,0,0,1,.52,1.15Z" fill="#fff"/>
      </g>
      <g id="Grupo_93848" data-name="Grupo 93848">
        <path id="Trazado_189982" data-name="Trazado 189982" d="M347.83,165.83h-.65a8.629,8.629,0,0,0-.91-2.36l.53-.54a2.054,2.054,0,0,0-2.91-2.9l-.46.47a8.26,8.26,0,0,0-2.31-1v-.76a2.06,2.06,0,0,0-4.11,0v.65a8.819,8.819,0,0,0-2.35.91l-.54-.54a2.054,2.054,0,1,0-2.89,2.92l.46.46a8.2,8.2,0,0,0-1,2.3h-.76a2.05,2.05,0,1,0,0,4.1h.64a8.63,8.63,0,0,0,.91,2.36l-.53.54a2.051,2.051,0,1,0,2.91,2.89l.46-.46h0a8.42,8.42,0,0,0,2.31,1v.76a2.06,2.06,0,0,0,4.11,0V176a8.34,8.34,0,0,0,2.36-.92l.54.54a2.051,2.051,0,0,0,2.89-2.91l-.46-.46a8.419,8.419,0,0,0,1-2.31h.76a2.06,2.06,0,0,0,0-4.11Zm-8.93,8a6.13,6.13,0,1,0,0-.02Z" fill="#fff"/>
        <path id="Trazado_189983" data-name="Trazado 189983" d="M335,167.71a3.87,3.87,0,1,0,3.85-3.88A3.87,3.87,0,0,0,335,167.71Z" fill="#fff"/>
      </g>
    </g>
    <g id="Grupo_93851" data-name="Grupo 93851" transform="translate(807.884 4220.745)">
      <path id="Trazado_189984" data-name="Trazado 189984" d="M483,291.17c.4-.1.82-.2,1.23-.28A36.47,36.47,0,0,0,473,308.38a24.16,24.16,0,0,1,10.7-7.19c-4.79,2.91-8.93,9.64-8.73,15.51-4.94,0-14.1-.2-22.49,0a16.65,16.65,0,0,0-10.75-15.06,14.53,14.53,0,0,1,10.18,2.76c-2-7-8-12.52-14.38-15.67,7,2.35,13.8,6.58,17.57,13.12-.55-13.95-6.76-21.21-15.71-32.27h0l-.22-.27c8.18,3.65,17.19,18.84,20.32,28.18-.66-17.68-.65-31.11,8.45-44.49-4.57,14-4.43,28-3.55,42.44a38.78,38.78,0,0,1,19.95-24.64c-7.75,10.29-14.35,14.9-15.23,29.8A23.55,23.55,0,0,1,483,291.17Z" fill="#62c0a6"/>
      <g id="Grupo_93850" data-name="Grupo 93850">
        <path id="Trazado_189985" data-name="Trazado 189985" d="M459.24,311.5c0,.46-2.59,0-2.58.47-3.7-16.45-15.48-21.81-17.72-22.69,6.53,2.44,12.62,6.51,16.14,12.61a60.43,60.43,0,0,1,4.16,9.61Z" fill="#62c0a6"/>
        <path id="Trazado_189986" data-name="Trazado 189986" d="M461.9,312c0,.88-2-.31-2,.6.11-14.78-11.85-38.51-20.57-42.93h0l-.22-.27c8.18,3.65,17.19,18.84,20.32,28.18A55.672,55.672,0,0,1,461.9,312Z" fill="#62c0a6"/>
        <path id="Trazado_189987" data-name="Trazado 189987" d="M465.34,311.48c-.34.94-2.33.06-2.6,1.07-1.39-20.43-3.11-35,2.77-55.45h0q1.08-2,2.41-4c-4.57,14-4.43,28-3.55,42.44C464.78,305.64,465.1,306.86,465.34,311.48Z" fill="#62c0a6"/>
        <path id="Trazado_189988" data-name="Trazado 189988" d="M480.91,275.18c-6.89,8.52-10.82,12.46-11.82,25.46-1,6.72-.58,6.75-.46,10.83-.45.53-1.8.75-2.2-.15-1.48-21.37,7.24-28.7,15.37-39.08l.63-.37.6-.34h.07l.59-.32.63-.33C483.85,271.41,482.56,272.9,480.91,275.18Z" fill="#62c0a6"/>
        <path id="Trazado_189989" data-name="Trazado 189989" d="M484.2,290.89l-.23.19a2.432,2.432,0,0,1-.25.2l-.47.42c-.16.14-.32.28-.47.43l-.47.44-.46.46-.4.41-.11.13c-.26.28-.52.56-.77.86l-.48.57c-.14.17-.28.33-.41.5s-.28.35-.41.53l-.4.54-.4.54c-.11.17-.23.32-.34.48l-.07.11-.35.53c-.13.19-.25.39-.37.58s-.24.38-.35.57l-.35.58c-.22.37-.42.74-.62,1.1a39.81,39.81,0,0,0-2.26,5c-.3.79-.56,1.58-.78,2.36.16-.19-.65,2.52-1,3.82-.68.63-2.13-.65-2.7,0,1.13-6,6.78-16.76,12.66-20.76.22-.06.44-.13.67-.18l.35-.1C483.37,291.07,483.79,291,484.2,290.89Z" fill="#62c0a6"/>
        <path id="Trazado_189990" data-name="Trazado 189990" d="M473.84,316.28c-4.72,0-13.31-.18-21.4,0v.45c8.39-.24,17.56,0,22.49,0-.2-5.87,3.94-12.6,8.73-15.51a18.522,18.522,0,0,0-3.64,1.52C476.41,306.1,473.68,311.48,473.84,316.28Z" fill="#62c0a6"/>
        <path id="Trazado_189991" data-name="Trazado 189991" d="M454.71,312.19c-1.9-7.13-5.79-9.39-6.82-9.83h.1a14.54,14.54,0,0,1,3.9,2.05h0a12.85,12.85,0,0,1,3.92,7.1C457.82,313.84,455.34,312.85,454.71,312.19Z" fill="#62c0a6"/>
      </g>
      <path id="Trazado_189992" data-name="Trazado 189992" d="M483.78,328.61a20.56,20.56,0,0,1-3.09,10.9,19.837,19.837,0,0,1-1.45,2.08,21.219,21.219,0,0,1-2.16,2.29c-2.46.22-4.9.39-7.3.5a145.507,145.507,0,0,1-20.44-.4,21.549,21.549,0,0,1-2.19-2.29,19.667,19.667,0,0,1-1.46-2.06,20.49,20.49,0,0,1-.75-20.61,16,16,0,0,1,1.18-1.95,22.829,22.829,0,0,1,2.92-3.41l28.13-.1A21.48,21.48,0,0,1,480.1,317a18.4,18.4,0,0,1,1.2,1.94A20.54,20.54,0,0,1,483.78,328.61Z" fill="#d94559"/>
      <path id="Trazado_189993" data-name="Trazado 189993" d="M481.29,318.89l-36.36.13a16.125,16.125,0,0,1,1.19-1.95l34-.12a15.6,15.6,0,0,1,1.17,1.94Z" fill="#fff"/>
      <path id="Trazado_189994" data-name="Trazado 189994" d="M480.69,339.51a19.842,19.842,0,0,1-1.45,2.08q-15.83.59-32.09.1a19.67,19.67,0,0,1-1.46-2.06C457.55,340,469.23,340,480.69,339.51Z" fill="#fff"/>
      <path id="Trazado_189995" data-name="Trazado 189995" d="M476.9,313.56l-27.61.1a1.06,1.06,0,0,1-1.06-1.06h0a1.06,1.06,0,0,1,1.06-1.07l27.6-.09A1.06,1.06,0,0,1,478,312.5h0a1.07,1.07,0,0,1-1.1,1.06Z" fill="#d94559"/>
      <path id="Trazado_189996" data-name="Trazado 189996" d="M450.64,314.35a1,1,0,1,1-1,1A1,1,0,0,1,450.64,314.35Z" fill="#fff"/>
      <path id="Trazado_189997" data-name="Trazado 189997" d="M454.34,314.34a1,1,0,1,1-1,1A1,1,0,0,1,454.34,314.34Z" fill="#fff"/>
      <path id="Trazado_189998" data-name="Trazado 189998" d="M458,314.33a1,1,0,1,1-1,1A1,1,0,0,1,458,314.33Z" fill="#fff"/>
      <path id="Trazado_189999" data-name="Trazado 189999" d="M461.74,314.31a1,1,0,1,1-1,1A1,1,0,0,1,461.74,314.31Z" fill="#fff"/>
      <path id="Trazado_190000" data-name="Trazado 190000" d="M465.44,314.3a1,1,0,1,1-1,1A1,1,0,0,1,465.44,314.3Z" fill="#fff"/>
      <path id="Trazado_190001" data-name="Trazado 190001" d="M469.14,314.29a1,1,0,1,1-1,1A1,1,0,0,1,469.14,314.29Z" fill="#fff"/>
      <path id="Trazado_190002" data-name="Trazado 190002" d="M472.84,314.28a1,1,0,1,1-1,1A1,1,0,0,1,472.84,314.28Z" fill="#fff"/>
      <path id="Trazado_190003" data-name="Trazado 190003" d="M476.53,314.26a1,1,0,1,1-1,1A1,1,0,0,1,476.53,314.26Z" fill="#fff"/>
      <path id="Trazado_190004" data-name="Trazado 190004" d="M483.78,328.61a20.56,20.56,0,0,1-6.7,15.27c-2.46.22-4.9.39-7.3.5a29.613,29.613,0,0,0,4.39-4.7c7.45-10.14-.33-24.47-12.91-24.43l-13.77.05a20.013,20.013,0,0,1,1.55-1.64l28.13-.1A21.48,21.48,0,0,1,480.1,317a18.4,18.4,0,0,1,1.2,1.94A20.54,20.54,0,0,1,483.78,328.61Z" fill="#ccc"/>
    </g>
    <g id="Grupo_93857" data-name="Grupo 93857" transform="translate(807.884 4220.745)">
      <path id="Trazado_190005" data-name="Trazado 190005" d="M315.2,176.61l.23,64.31a2,2,0,0,1-2.07,2l-103.4.36a2,2,0,0,1-2.08-2L207.65,177a2,2,0,0,1,2.07-2l103.4-.37a2.26,2.26,0,0,1,.74.13A2,2,0,0,1,315.2,176.61Z" fill="#68c3ef"/>
      <path id="Trazado_190006" data-name="Trazado 190006" d="M315.2,176.61v4.19l-107.56.38V177a2,2,0,0,1,2.07-2l103.4-.37a2.26,2.26,0,0,1,.74.13,2,2,0,0,1,1.35,1.85Z" fill="#326ab3"/>
      <path id="Trazado_190007" data-name="Trazado 190007" d="M313.36,243.2l-103.4.36a2.32,2.32,0,0,1-2.37-2.26l-.23-64.3a2.34,2.34,0,0,1,2.36-2.28l103.4-.36a2.4,2.4,0,0,1,.84.15,2.28,2.28,0,0,1,1.53,2.11l.22,64.31a2.31,2.31,0,0,1-2.35,2.27ZM209.72,175.26a1.76,1.76,0,0,0-1.79,1.73l.23,64.31A1.76,1.76,0,0,0,210,243l103.4-.37a1.75,1.75,0,0,0,1.78-1.73l-.22-64.31a1.74,1.74,0,0,0-1.16-1.6,1.76,1.76,0,0,0-.64-.11Z" fill="#fff"/>
      <g id="Grupo_93852" data-name="Grupo 93852">
        <path id="Trazado_190008" data-name="Trazado 190008" d="M210.65,178.07a1.06,1.06,0,1,1,1.06,1.06,1.06,1.06,0,0,1-1.06-1.06Z" fill="#fff"/>
        <path id="Trazado_190009" data-name="Trazado 190009" d="M214.79,178.06a1.06,1.06,0,1,1,1.07,1.06,1.06,1.06,0,0,1-1.07-1.06Z" fill="#fff"/>
        <path id="Trazado_190010" data-name="Trazado 190010" d="M219,178a1.06,1.06,0,1,1,.314.753A1.07,1.07,0,0,1,219,178Z" fill="#fff"/>
      </g>
      <rect id="Rectángulo_39556" data-name="Rectángulo 39556" width="11.28" height="1.2" rx="0.6" transform="translate(301.786 177.315) rotate(-0.2)" fill="#fff"/>
      <g id="Grupo_93856" data-name="Grupo 93856">
        <g id="Grupo_93853" data-name="Grupo 93853">
          <rect id="Rectángulo_39557" data-name="Rectángulo 39557" width="4.08" height="4.06" transform="translate(274.682 222.039) rotate(-0.2)" fill="#a7a9ac"/>
          <rect id="Rectángulo_39558" data-name="Rectángulo 39558" width="4.08" height="11.38" transform="translate(280.656 214.698) rotate(-0.2)" fill="#a7a9ac"/>
          <rect id="Rectángulo_39559" data-name="Rectángulo 39559" width="4.08" height="8.36" transform="translate(286.667 217.697) rotate(-0.2)" fill="#a7a9ac"/>
          <rect id="Rectángulo_39560" data-name="Rectángulo 39560" width="4.08" height="6.17" transform="translate(292.674 219.866) rotate(-0.2)" fill="#a7a9ac"/>
          <rect id="Rectángulo_39561" data-name="Rectángulo 39561" width="4.08" height="14.89" transform="translate(298.634 211.126) rotate(-0.2)" fill="#a7a9ac"/>
        </g>
        <g id="Grupo_93854" data-name="Grupo 93854">
          <path id="Trazado_190011" data-name="Trazado 190011" d="M228.68,208.42a11.08,11.08,0,0,1-7.14-2.56l7.22-7.64,9.06,5.35a11.1,11.1,0,0,1-9.14,4.85Z" fill="#a7a9ac"/>
          <path id="Trazado_190012" data-name="Trazado 190012" d="M229.31,196.7V186.35a11.09,11.09,0,0,1,10.44,10.32Z" fill="#a7a9ac"/>
          <path id="Trazado_190013" data-name="Trazado 190013" d="M233.15,198.4h8.64a11,11,0,0,1-1.21,4.42Z" fill="#a7a9ac"/>
          <path id="Trazado_190014" data-name="Trazado 190014" d="M220.57,205a10.89,10.89,0,0,1-3-7.54,11.07,11.07,0,0,1,10.38-11v10.75Z" fill="#a7a9ac"/>
        </g>
        <rect id="Rectángulo_39562" data-name="Rectángulo 39562" width="25.34" height="3.82" rx="1.56" transform="translate(216.511 215.972) rotate(-0.2)" fill="#a7a9ac"/>
        <rect id="Rectángulo_39563" data-name="Rectángulo 39563" width="25.34" height="3.82" rx="1.56" transform="translate(215.76 224.09)" fill="#a7a9ac"/>
        <rect id="Rectángulo_39564" data-name="Rectángulo 39564" width="25.34" height="3.82" rx="1.56" transform="translate(216.563 230.702) rotate(-0.2)" fill="#a7a9ac"/>
        <g id="Grupo_93855" data-name="Grupo 93855">
          <path id="Trazado_190015" data-name="Trazado 190015" d="M264.59,187.84l-16,.06a.63.63,0,0,1-.63-.62h0a.63.63,0,0,1,.62-.63l16-.06a.64.64,0,0,1,.63.63h0a.63.63,0,0,1-.62.62Z" fill="#a7a9ac"/>
          <path id="Trazado_190016" data-name="Trazado 190016" d="M292.83,187.74l-24.77.09a.63.63,0,0,1-.63-.62h0a.63.63,0,0,1,.63-.63l24.76-.09a.63.63,0,0,1,.63.63h0A.62.62,0,0,1,292.83,187.74Z" fill="#a7a9ac"/>
          <path id="Trazado_190017" data-name="Trazado 190017" d="M302.09,187.71H296.9a.55.55,0,0,1-.55-.54h0a.55.55,0,0,1,.54-.55h5.2a.55.55,0,0,1,.55.54h0a.54.54,0,0,1-.55.55Z" fill="#a7a9ac"/>
          <path id="Trazado_190018" data-name="Trazado 190018" d="M302,194.18l-53.41.19a.63.63,0,0,1-.63-.62h0a.63.63,0,0,1,.62-.63l53.41-.19a.63.63,0,0,1,.63.63h0A.62.62,0,0,1,302,194.18Z" fill="#a7a9ac"/>
          <path id="Trazado_190019" data-name="Trazado 190019" d="M264.66,206.57l-16,.05A.63.63,0,0,1,248,206h0a.63.63,0,0,1,.63-.63l16-.06a.63.63,0,0,1,.63.63h0a.63.63,0,0,1-.6.63Z" fill="#a7a9ac"/>
          <path id="Trazado_190020" data-name="Trazado 190020" d="M292.89,206.47l-24.76.08a.61.61,0,0,1-.63-.62h0a.63.63,0,0,1,.62-.63l24.77-.09a.63.63,0,0,1,.63.63h0a.63.63,0,0,1-.63.63Z" fill="#a7a9ac"/>
          <path id="Trazado_190021" data-name="Trazado 190021" d="M275.23,200.06l-26.58.09a.63.63,0,0,1-.63-.62h0a.63.63,0,0,1,.62-.63l26.58-.1a.63.63,0,0,1,.63.63h0a.63.63,0,0,1-.62.63Z" fill="#a7a9ac"/>
          <path id="Trazado_190022" data-name="Trazado 190022" d="M302.06,200l-20.47.07a.61.61,0,0,1-.62-.62h0a.61.61,0,0,1,.62-.63l20.46-.07a.63.63,0,0,1,.63.62h0a.63.63,0,0,1-.62.63Z" fill="#a7a9ac"/>
          <path id="Trazado_190023" data-name="Trazado 190023" d="M302.16,206.43h-5.2a.54.54,0,0,1-.54-.54h0a.55.55,0,0,1,.54-.55h5.2a.55.55,0,0,1,.54.55h0a.53.53,0,0,1-.54.54Z" fill="#a7a9ac"/>
        </g>
        <rect id="Rectángulo_39565" data-name="Rectángulo 39565" width="28.06" height="0.93" rx="0.46" transform="translate(274.709 229.759) rotate(-0.2)" fill="#a7a9ac"/>
        <rect id="Rectángulo_39566" data-name="Rectángulo 39566" width="28.06" height="0.93" rx="0.46" transform="translate(274.732 233.429) rotate(-0.2)" fill="#a7a9ac"/>
        <rect id="Rectángulo_39567" data-name="Rectángulo 39567" width="21.94" height="19.22" transform="translate(246.22 216.06)" fill="#a7a9ac"/>
      </g>
    </g>
    <g id="Grupo_93861" data-name="Grupo 93861" transform="translate(807.884 4220.745)">
      <path id="Trazado_190024" data-name="Trazado 190024" d="M466,102.1l.23,65a2.06,2.06,0,0,1-2.09,2l-104.52.37a2,2,0,0,1-2.1-2l-.23-65a2.05,2.05,0,0,1,2.09-2l104.51-.37a2.27,2.27,0,0,1,.75.13A2,2,0,0,1,466,102.1Z" fill="#68c3ef"/>
      <path id="Trazado_190025" data-name="Trazado 190025" d="M466,102.1v4.23l-108.72.39v-4.23a2.05,2.05,0,0,1,2.09-2l104.51-.37a2.27,2.27,0,0,1,.75.13A2,2,0,0,1,466,102.1Z" fill="#326ab3"/>
      <path id="Trazado_190026" data-name="Trazado 190026" d="M464.18,169.41l-104.52.37a2.34,2.34,0,0,1-2.39-2.29l-.23-65a2.35,2.35,0,0,1,2.38-2.31l104.51-.37a2.51,2.51,0,0,1,.86.15,2.32,2.32,0,0,1,1.54,2.14l.23,65a2.35,2.35,0,0,1-2.38,2.31ZM359.42,100.74a1.76,1.76,0,0,0-1.8,1.74l.22,65a1.78,1.78,0,0,0,1.82,1.73l104.52-.36a1.78,1.78,0,0,0,1.8-1.75l-.23-65a1.75,1.75,0,0,0-1.17-1.62,2,2,0,0,0-.64-.11Z" fill="#fff"/>
      <g id="Grupo_93858" data-name="Grupo 93858">
        <path id="Trazado_190027" data-name="Trazado 190027" d="M360.36,103.58a1.08,1.08,0,1,1,.669,1,1.09,1.09,0,0,1-.669-1Z" fill="#fff"/>
        <path id="Trazado_190028" data-name="Trazado 190028" d="M364.55,103.57a1.065,1.065,0,1,1,1.06,1.06A1.06,1.06,0,0,1,364.55,103.57Z" fill="#fff"/>
        <path id="Trazado_190029" data-name="Trazado 190029" d="M368.78,103.55a1.077,1.077,0,1,1,1.08,1.08A1.08,1.08,0,0,1,368.78,103.55Z" fill="#fff"/>
      </g>
      <rect id="Rectángulo_39568" data-name="Rectángulo 39568" width="11.4" height="1.22" rx="0.61" transform="translate(452.484 102.82) rotate(-0.2)" fill="#fff"/>
      <g id="Grupo_93860" data-name="Grupo 93860">
        <g id="Grupo_93859" data-name="Grupo 93859">
          <rect id="Rectángulo_39569" data-name="Rectángulo 39569" width="5.11" height="4.96" transform="translate(421.267 140.878) rotate(-0.2)" fill="#a7a9ac"/>
          <rect id="Rectángulo_39570" data-name="Rectángulo 39570" width="5.11" height="13.92" transform="translate(428.746 131.902) rotate(-0.2)" fill="#a7a9ac"/>
          <rect id="Rectángulo_39571" data-name="Rectángulo 39571" width="5.11" height="10.22" transform="translate(436.279 135.576) rotate(-0.2)" fill="#a7a9ac"/>
          <rect id="Rectángulo_39572" data-name="Rectángulo 39572" width="5.11" height="7.54" transform="translate(443.788 138.22) rotate(-0.2)" fill="#a7a9ac"/>
          <rect id="Rectángulo_39573" data-name="Rectángulo 39573" width="5.11" height="18.2" transform="translate(451.261 127.544) rotate(-0.2)" fill="#a7a9ac"/>
        </g>
        <rect id="Rectángulo_39574" data-name="Rectángulo 39574" width="35.15" height="1.13" rx="0.565" transform="translate(420.78 151.79)" fill="#a7a9ac"/>
        <rect id="Rectángulo_39575" data-name="Rectángulo 39575" width="35.15" height="1.13" rx="0.565" transform="translate(421.326 154.818) rotate(-0.2)" fill="#a7a9ac"/>
        <rect id="Rectángulo_39576" data-name="Rectángulo 39576" width="22.18" height="19.42" transform="translate(364.579 115.316) rotate(-0.2)" fill="#a7a9ac"/>
        <rect id="Rectángulo_39577" data-name="Rectángulo 39577" width="22.18" height="19.42" transform="translate(393.948 115.224) rotate(-0.2)" fill="#a7a9ac"/>
        <rect id="Rectángulo_39578" data-name="Rectángulo 39578" width="51.55" height="2" rx="1" transform="translate(364.675 139.996) rotate(-0.2)" fill="#a7a9ac"/>
        <rect id="Rectángulo_39579" data-name="Rectángulo 39579" width="51.55" height="2" rx="1" transform="translate(364.689 147.116) rotate(-0.2)" fill="#a7a9ac"/>
        <rect id="Rectángulo_39580" data-name="Rectángulo 39580" width="51.55" height="2" rx="1" transform="translate(364.724 154.236) rotate(-0.2)" fill="#a7a9ac"/>
      </g>
    </g>
    <g id="Grupo_93863" data-name="Grupo 93863" transform="translate(807.884 4220.745)">
      <rect id="Rectángulo_39581" data-name="Rectángulo 39581" width="40.97" height="26.44" rx="5.76" transform="translate(212.948 111.846) rotate(-0.2)" fill="#e8586b"/>
      <g id="Grupo_93862" data-name="Grupo 93862">
        <path id="Trazado_190030" data-name="Trazado 190030" d="M219.54,121.29v3.76h4.35v-3.76h1.17v9h-1.18v-4.21h-4.35v4.22h-1.16v-9Z" fill="#fff"/>
        <path id="Trazado_190031" data-name="Trazado 190031" d="M228.79,122.24h-2.73v-1h6.66v1H230v8h-1.18Z" fill="#fff"/>
        <path id="Trazado_190032" data-name="Trazado 190032" d="M241.31,126.25c-.07-1.25-.15-2.76-.14-3.88h0c-.31,1.06-.68,2.18-1.13,3.42l-1.57,4.37h-.88l-1.47-4.28c-.43-1.26-.79-2.42-1.05-3.49h0c0,1.12-.08,2.63-.16,4l-.22,3.86h-1.11l.59-9h1.49l1.54,4.34c.38,1.11.69,2.1.92,3h0a31.173,31.173,0,0,1,.94-3l1.59-4.36h1.48l.59,9h-1.14Z" fill="#fff"/>
        <path id="Trazado_190033" data-name="Trazado 190033" d="M244.45,121.2h1.16v8h3.84v1h-5Z" fill="#fff"/>
      </g>
    </g>
    <rect id="Rectángulo_39582" data-name="Rectángulo 39582" width="40.97" height="26.44" rx="13.19" transform="translate(1141.828 4420.677) rotate(-0.2)" fill="#ffac75"/>
    <rect id="Rectángulo_39583" data-name="Rectángulo 39583" width="40.97" height="26.44" rx="5.76" transform="translate(1199.417 4420.477) rotate(-0.2)" fill="#e8586b"/>
    <g id="Grupo_93864" data-name="Grupo 93864" transform="translate(807.884 4220.745)">
      <path id="Trazado_190034" data-name="Trazado 190034" d="M365.18,207.34l-3.22-1.48.02,2.14-18.86.06.01,1.8,18.88-.07.03,2.13,3.18-1.55,3.18-1.56Z" fill="#fff"/>
      <path id="Trazado_190035" data-name="Trazado 190035" d="M342.01,215.72l3.21-1.5-.01,2.13,18.87-.06v1.8l-18.88.06-.01,2.13-3.2-1.53-3.19-1.54Z" fill="#fff"/>
    </g>
    <g id="Grupo_93865" data-name="Grupo 93865" transform="translate(807.884 4220.745)">
      <path id="Trazado_190036" data-name="Trazado 190036" d="M405.54,220.39a.74.74,0,0,1-.52-.22l-6-5.94a.73.73,0,0,1-.22-.52.78.78,0,0,1,.21-.52l6-6a.74.74,0,0,1,1,0,.73.73,0,0,1,0,1l-5.42,5.46,5.46,5.43a.73.73,0,0,1,0,1,.74.74,0,0,1-.51.31Z" fill="#fff"/>
      <path id="Trazado_190037" data-name="Trazado 190037" d="M418.65,220.34a.7.7,0,0,0,.52-.22l5.95-6a.736.736,0,0,0-.01-1.04l-6-5.95a.74.74,0,0,0-1,0,.73.73,0,0,0,0,1l5.47,5.42-5.43,5.47a.74.74,0,0,0,0,1,.77.77,0,0,0,.5.32Z" fill="#fff"/>
      <path id="Trazado_190038" data-name="Trazado 190038" d="M409.15,220.37a.49.49,0,0,1-.29-.06.73.73,0,0,1-.39-1l5.16-11.95A.756.756,0,0,1,415,208l-5.16,12A.73.73,0,0,1,409.15,220.37Z" fill="#fff"/>
    </g>
    <g id="Grupo_93868" data-name="Grupo 93868" transform="translate(807.884 4220.745)">
      <g id="Grupo_93867" data-name="Grupo 93867">
        <path id="Trazado_190039" data-name="Trazado 190039" d="M436.49,377.7l-34.44.13h0a13.94,13.94,0,0,1,13.89-14h6.58a13.94,13.94,0,0,1,14,13.89h0Z" fill="#464e8c"/>
        <path id="Trazado_190040" data-name="Trazado 190040" d="M414.75,353.28c-6.85-2.13-25.12,6.12-25.12,6.12l-.49,15.05c16.74,2,22-4.63,26.57-7.16s18,5.41,21.44,2.43S421.6,355.41,414.75,353.28Z" fill="#ffccc2"/>
        <g id="Grupo_93866" data-name="Grupo 93866">
          <path id="Trazado_190041" data-name="Trazado 190041" d="M198.37,220.16s-2.28,20.33,3.4,35.9l-38.17.13s7.13-23.4,4.44-36.06Z" fill="#fdbeb2"/>
          <path id="Trazado_190042" data-name="Trazado 190042" d="M256.39,386.82q-.735,9-1.5,18c-.82,9.92-1.59,19.83-2.18,29.53l-129.92.46c-.37-9.75-1-19.66-1.84-29.52-3.8-46.84-10.67-92.56-3.71-114.85,5.85-18.77,38.7-34.56,47.45-38.18.76-.32,1.33-.54,1.69-.66,15.2,4.9,24.69,2.8,33.62,0l.42.14c4.89,1.57,27.6,7.73,41.64,18h0c4,3,7.34,6.25,9.31,9.88C262.83,300.72,260.07,342.58,256.39,386.82Z" fill="#ffa726"/>
          <path id="Trazado_190043" data-name="Trazado 190043" d="M217.74,162.92c.29.87,15.15,61.94-5.86,66.48s-39.86-2.91-41.11-4.11.67-59.52.67-59.52Z" fill="#fdbeb2"/>
        </g>
        <path id="Trazado_190044" data-name="Trazado 190044" d="M241.82,271.22c17.11-.06,57.11,71.63,72.83,81.64l83.06.12,2.45,24.25s-63.22,14.2-95.56,14.14c-21.39,0-66.77-30-66.77-30Z" fill="#ffa726"/>
        <path id="Trazado_190045" data-name="Trazado 190045" d="M257.41,374.92c-.59,7.47-1.22,15-1.82,22.5-1,12.4-1.94,24.79-2.66,36.92l-82.31.29c9-2.11,20.94-3.61,36.33-3.32,45.65.84,44.55-32.19,30.38-46.63s-23.14-43.07-23.14-43.07l20.21,15.58Z" fill="#f08339"/>
      </g>
      <path id="Trazado_190046" data-name="Trazado 190046" d="M260.8,308h0a196.691,196.691,0,0,0-3.89-26h0c-6.88-24.34-18-38.87-22.62-81.93h0c0-2.3,2.79-31.67-21.19-47-15.46-9.9-26.91-9.23-39.56-5.85-10.17,2.72-22.74,10.58-31.15,24.36-11.53,18.85-6.61,35.94-7.35,56.63-1.44,40.13-23.09,62.67-33.42,80.32h0c-4.6,7.88-7,14.77-4.27,21.83,2.17,5.65,7.43,11,18.2,15.09,17.65,6.69,50.09,9.89,107.89,5.19a80.4,80.4,0,0,0,15.27-5.38h0c11-5.29,16.2-11.7,18.94-16.27a19.652,19.652,0,0,0,1.9-4.1h0C260.65,321.65,261.38,316.63,260.8,308ZM253,276.61s-17.08-25.27-18.3-62.32C236.25,230.72,240.23,247.91,253,276.61ZM143.32,348.24c-10.67-1.12-20.07-2.19-28-6.32a33.241,33.241,0,0,1-7.28-5.07c-2.37-2.17-6.87-6.41-7.32-12.56-.41-5.66,2.93-10.37,3.16-10.29s-2.46,4.57-1.55,10.1c.13.75.75,4.21,4.59,8.72a30.4,30.4,0,0,0,8.23,6.71A48.66,48.66,0,0,0,122,342.8c6.38,2.47,12,3.11,22.8,4.31,11.68,1.27,19.24,1.39,19.24,1.59S154.69,349.44,143.32,348.24Z" fill="#353957"/>
    </g>
    <g id="Grupo_93870" data-name="Grupo 93870" transform="translate(807.884 4220.745)">
      <path id="Trazado_190047" data-name="Trazado 190047" d="M113.49,100.11l21.12-.07a20.91,20.91,0,0,1,21,20.84h0a20.83,20.83,0,0,1-6.7,15.41c1.39,4.66,4.88,7.62,14.32,9.43-10.26,1.31-17.7-.28-22.6-4.72a21,21,0,0,1-5.85.86l-21.13.07a20.91,20.91,0,0,1-21-20.83h0A20.92,20.92,0,0,1,113.49,100.11Z" fill="#68c3ef"/>
      <g id="Grupo_93869" data-name="Grupo 93869">
        <path id="Trazado_190048" data-name="Trazado 190048" d="M106.34,114.29a23.37,23.37,0,0,1,4-.32,6.57,6.57,0,0,1,4.51,1.32,4.29,4.29,0,0,1,1.41,3.35,4.73,4.73,0,0,1-1.22,3.43,6.67,6.67,0,0,1-4.9,1.78,7.13,7.13,0,0,1-1.67-.14v6.43H106.4Zm2.1,7.73a6.44,6.44,0,0,0,1.71.16c2.5,0,4-1.23,4-3.44s-1.51-3.14-3.79-3.13a9,9,0,0,0-2,.17Z" fill="#fff"/>
        <path id="Trazado_190049" data-name="Trazado 190049" d="M121.08,114.05v6.71h7.76v-6.72h2.09l.06,16h-2.1v-7.52h-7.77v7.53h-2.07L119,114.06Z" fill="#fff"/>
        <path id="Trazado_190050" data-name="Trazado 190050" d="M134.55,114.19a23.459,23.459,0,0,1,4-.32,6.57,6.57,0,0,1,4.51,1.32,4.34,4.34,0,0,1,1.42,3.35,4.72,4.72,0,0,1-1.23,3.43,6.67,6.67,0,0,1-4.9,1.78,7.13,7.13,0,0,1-1.67-.14v6.43H134.6Zm2.1,7.73a6.441,6.441,0,0,0,1.71.16c2.5,0,4-1.22,4-3.44s-1.51-3.14-3.79-3.13a9,9,0,0,0-2,.17Z" fill="#fff"/>
      </g>
    </g>
    <path id="Trazado_190051" data-name="Trazado 190051" d="M479.69,238.59a.69.69,0,0,1,.08.51.67.67,0,0,1-.47.49l-2.25.66a.66.66,0,0,1-.65-.16.63.63,0,0,1-.19-.64l.55-2.28a.67.67,0,0,1,1.12-.33l1.7,1.61a.76.76,0,0,1,.11.14Zm-2.95,1.09h0a.14.14,0,0,0,.14,0l2.25-.66a.13.13,0,0,0,.1-.11.11.11,0,0,0,0-.13l-1.7-1.62a.13.13,0,0,0-.14,0,.16.16,0,0,0-.1.1l-.55,2.28A.17.17,0,0,0,476.74,239.68Z" transform="translate(807.884 4220.745)" fill="#e8586b"/>
    <path id="Trazado_190052" data-name="Trazado 190052" d="M105.58,181.61a.61.61,0,0,1,.07.46.68.68,0,0,1-.44.46l-2.11.64a.6.6,0,0,1-.77-.71l.55-2.09a.68.68,0,0,1,.44-.46.64.64,0,0,1,.61.14l1.55,1.44Zm-2.76,1h0a.11.11,0,0,0,.12,0l2.11-.64a.19.19,0,0,0,.09-.1.13.13,0,0,0,0-.12l-1.55-1.45a.17.17,0,0,0-.13,0,.15.15,0,0,0-.09.1l-.55,2.09a.16.16,0,0,0,0,.17Z" transform="translate(807.884 4220.745)" fill="#e8586b"/>
    <path id="Trazado_190053" data-name="Trazado 190053" d="M328.52,102l1.07-1.09a.61.61,0,0,0,0-.88.63.63,0,0,0-.89,0l-1.07,1.08L326.54,100a.63.63,0,0,0-.88.89l1.08,1.07-1.07,1.08a.64.64,0,0,0,0,.89.66.66,0,0,0,.45.18.62.62,0,0,0,.44-.18l1.07-1.08,1.08,1.07a.66.66,0,0,0,.45.18.62.62,0,0,0,.44-.18.63.63,0,0,0,0-.89Z" transform="translate(807.884 4220.745)" fill="#ffac40"/>
    <path id="Trazado_190054" data-name="Trazado 190054" d="M117.54,237l1.07-1.09a.61.61,0,0,0,0-.88.62.62,0,0,0-.89,0l-1.07,1.08-1.08-1.07a.62.62,0,0,0-.89,0,.63.63,0,0,0,0,.89l1.08,1.07-1.07,1.08a.64.64,0,0,0,0,.89.66.66,0,0,0,.45.18.62.62,0,0,0,.44-.18l1.07-1.08,1.09,1.07a.63.63,0,1,0,.88-.89Z" transform="translate(807.884 4220.745)" fill="#ffac40"/>
    <path id="Trazado_190055" data-name="Trazado 190055" d="M484.94,123.8a1.88,1.88,0,1,1,1.343-.554,1.89,1.89,0,0,1-1.343.554Zm0-3.19a1.34,1.34,0,1,1-.01,0Z" transform="translate(807.884 4220.745)" fill="#3c3987"/>
    <path id="Trazado_190056" data-name="Trazado 190056" d="M182.41,103.23a1.9,1.9,0,1,1,1.88-1.9,1.9,1.9,0,0,1-1.88,1.9Zm0-3.2a1.3,1.3,0,1,0,1.3,1.3,1.31,1.31,0,0,0-1.3-1.3Z" transform="translate(807.884 4220.745)" fill="#3c3987"/>
  </g>
</svg>
