<svg xmlns="http://www.w3.org/2000/svg" width="596.402" height="396.45" viewBox="0 0 596.402 396.45">
  <g id="Grupo_94323" data-name="Grupo 94323" transform="translate(-180 -4673.937)">
    <path id="Trazado_189719" data-name="Trazado 189719" d="M510.25,338.47a3.79,3.79,0,0,1,3.45-1.93,5.75,5.75,0,0,1,3.72,1.66,12.228,12.228,0,0,1,2.4,3.38,15.71,15.71,0,0,1,2,6.56,65.72,65.72,0,0,0,6.17-8c.17-.26.33-.52.49-.78l-6.31-3.51a12.819,12.819,0,0,1-3.85-2.85,4.31,4.31,0,0,1-.79-4.49,3.79,3.79,0,0,1,3.45-1.93,5.79,5.79,0,0,1,3.73,1.66,12.5,12.5,0,0,1,2.4,3.38,15.44,15.44,0,0,1,2,6.78,66.519,66.519,0,0,0,5-10.06l-6.26-3.8a12.69,12.69,0,0,1-3.74-3,4.31,4.31,0,0,1-.61-4.52,3.8,3.8,0,0,1,3.52-1.8,5.79,5.79,0,0,1,3.66,1.8,12.667,12.667,0,0,1,2.27,3.48,15.779,15.779,0,0,1,1.71,6.41,66.614,66.614,0,0,0,2.38-7.79c.19-.78.35-1.56.51-2.35l-6.31-4.13a12.691,12.691,0,0,1-3.64-3.11,4.3,4.3,0,0,1-.46-4.54,3.8,3.8,0,0,1,3.57-1.68,5.78,5.78,0,0,1,3.6,1.92,12.348,12.348,0,0,1,2.15,3.55,16.581,16.581,0,0,1,1.49,5.75,63.394,63.394,0,0,0,.79-8.13l-3.5-6.47a12.66,12.66,0,0,1-1.72-4.47,4.33,4.33,0,0,1,1.75-4.22,3.8,3.8,0,0,1,4,.23,5.77,5.77,0,0,1,2.24,3.4,12.3,12.3,0,0,1,.21,4.15,14.821,14.821,0,0,1-2.28,7.25h0a62.714,62.714,0,0,1-.85,8.65,16.4,16.4,0,0,1,4.17-4.62,12.23,12.23,0,0,1,3.57-2.12,5.74,5.74,0,0,1,4.08,0,3.78,3.78,0,0,1,2.36,3.17,4.32,4.32,0,0,1-2.54,3.79,12.561,12.561,0,0,1-4.67,1l-7.32.66a65.9,65.9,0,0,1-2.9,10.23,16,16,0,0,1,5.41-3.68,12.481,12.481,0,0,1,4-1.17,5.78,5.78,0,0,1,4,1,3.8,3.8,0,0,1,1.51,3.65,4.3,4.3,0,0,1-3.4,3,12.491,12.491,0,0,1-4.79-.16l-7.24-1.18-.12.32a69.173,69.173,0,0,1-4.94,9.8,15.05,15.05,0,0,1,6.65-3,12.239,12.239,0,0,1,4.13-.34,5.74,5.74,0,0,1,3.66,1.79,3.81,3.81,0,0,1,.74,3.89,4.33,4.33,0,0,1-3.95,2.29,12.9,12.9,0,0,1-4.65-1.13l-7.07-2.71-.09.13v.06h-.05a65.063,65.063,0,0,1-6.41,8.55,16.36,16.36,0,0,1,6.58-.47,12.589,12.589,0,0,1,4.11,1,5.81,5.81,0,0,1,3,2.9,3.83,3.83,0,0,1-.53,4,4.37,4.37,0,0,1-4.55.95,12.781,12.781,0,0,1-4.13-2.59l-5.4-4.42-.19-.1a63.318,63.318,0,0,1-8.77,7.83c-.33.25-.78-.23-.44-.48a64.206,64.206,0,0,0,8.63-7.68l-6-3.33A12.551,12.551,0,0,1,511,343a4.33,4.33,0,0,1-.75-4.53Z" transform="translate(171.14 4638.617)" fill="#b6dbff"/>
    <path id="Trazado_189720" data-name="Trazado 189720" d="M506.33,378.72l-1.56,22.66c2.17-1.48,4.51-2.76,6.76-4.06a43.9,43.9,0,0,0,6.41-4.28,24,24,0,0,0,4.94-5.91,36.577,36.577,0,0,1,4.31-6.23,17.06,17.06,0,0,1,4.84-3.48c3.69-1.88,7.75-2.85,11.48-4.62a18.549,18.549,0,0,0,5.16-3.44,27.2,27.2,0,0,0,4.39-6.09,58.693,58.693,0,0,1,4-6.36,22.629,22.629,0,0,1,4.57-4.44,29.1,29.1,0,0,1,11.71-4.9c10.23-2,20.52,1,30.13,4.33l1.71.61c1-5.87-7.44-10.77-12.79-11.94-3.66-.8-7.46.35-11.19.12-18.92-1.16-31-8-40.59,13.49-1.07,2.41-2,5-3.91,6.8C528.09,368.07,507.21,362.41,506.33,378.72Z" transform="translate(171.14 4638.617)" fill="#d7edff"/>
    <path id="Trazado_189721" data-name="Trazado 189721" d="M519.74,425.39c15.19,6.05,31.19-6.8,21.77-24.32C534.85,392,544,386.74,552,385c4-.88,8.86-.93,11.08-4.38,3.91-7.88-6.22-18.46,11.07-22,9.75-2,27.51,7.05,31-5.43a.262.262,0,0,1,.05-.18c-9.13-3.23-18.7-6.36-28.49-5.4a31.22,31.22,0,0,0-12.32,3.75,23.228,23.228,0,0,0-5,3.82,28.181,28.181,0,0,0-4.16,5.66c-1.26,2.14-2.42,4.36-3.89,6.38a17.8,17.8,0,0,1-4.67,4.53c-3.34,2.17-7.22,3.25-10.9,4.67A28.39,28.39,0,0,0,530.3,379a17.2,17.2,0,0,0-4.72,4.86c-1.39,2.1-2.54,4.35-4.1,6.34a24,24,0,0,1-5.37,4.88c-3.61,2.5-7.63,4.34-11.23,6.85a22.67,22.67,0,0,0,14.86,23.46Z" transform="translate(171.14 4638.617)" fill="#b6dbff"/>
    <path id="Trazado_189722" data-name="Trazado 189722" d="M504.77,401.38v.58c3.6-2.51,7.62-4.35,11.23-6.85a24,24,0,0,0,5.37-4.88c1.56-2,2.71-4.24,4.1-6.34a17.2,17.2,0,0,1,4.72-4.86,28.6,28.6,0,0,1,5.41-2.66c3.69-1.42,7.57-2.5,10.91-4.67a17.8,17.8,0,0,0,4.67-4.53,73.755,73.755,0,0,0,3.88-6.38,28.22,28.22,0,0,1,4.17-5.66,23.168,23.168,0,0,1,5-3.82,31.309,31.309,0,0,1,12.33-3.75c9.79-1,19.36,2.17,28.48,5.4a3.623,3.623,0,0,0,.1-.45l-1.71-.61c-9.61-3.34-19.9-6.29-30.13-4.33a29.1,29.1,0,0,0-11.71,4.9,22.63,22.63,0,0,0-4.57,4.44,58.7,58.7,0,0,0-4,6.36,27.2,27.2,0,0,1-4.39,6.09,18.55,18.55,0,0,1-5.16,3.44c-3.73,1.77-7.79,2.74-11.48,4.62a17.061,17.061,0,0,0-4.84,3.48,36.581,36.581,0,0,0-4.31,6.23,24,24,0,0,1-4.94,5.91,43.89,43.89,0,0,1-6.41,4.28C509.28,398.62,506.94,399.9,504.77,401.38Z" transform="translate(171.14 4638.617)" fill="#035875"/>
    <path id="Trazado_189723" data-name="Trazado 189723" d="M504.77,401.38v.58c3.6-2.51,7.62-4.35,11.23-6.85a24,24,0,0,0,5.37-4.88c1.56-2,2.71-4.24,4.1-6.34a17.2,17.2,0,0,1,4.72-4.86,28.6,28.6,0,0,1,5.41-2.66c3.69-1.42,7.57-2.5,10.91-4.67a17.8,17.8,0,0,0,4.67-4.53,73.755,73.755,0,0,0,3.88-6.38,28.22,28.22,0,0,1,4.17-5.66,23.168,23.168,0,0,1,5-3.82,31.309,31.309,0,0,1,12.33-3.75c9.79-1,19.36,2.17,28.48,5.4a3.623,3.623,0,0,0,.1-.45l-1.71-.61c-9.61-3.34-19.9-6.29-30.13-4.33a29.1,29.1,0,0,0-11.71,4.9,22.63,22.63,0,0,0-4.57,4.44,58.7,58.7,0,0,0-4,6.36,27.2,27.2,0,0,1-4.39,6.09,18.55,18.55,0,0,1-5.16,3.44c-3.73,1.77-7.79,2.74-11.48,4.62a17.061,17.061,0,0,0-4.84,3.48,36.581,36.581,0,0,0-4.31,6.23,24,24,0,0,1-4.94,5.91,43.89,43.89,0,0,1-6.41,4.28C509.28,398.62,506.94,399.9,504.77,401.38Z" transform="translate(171.14 4638.617)" fill="#fff"/>
    <path id="Trazado_189724" data-name="Trazado 189724" d="M136.25,338.47a3.79,3.79,0,0,0-3.45-1.93,5.77,5.77,0,0,0-3.72,1.66,12.441,12.441,0,0,0-2.4,3.38,15.71,15.71,0,0,0-2,6.56,65.724,65.724,0,0,1-6.17-8l-.49-.78,6.31-3.51a13,13,0,0,0,3.86-2.85,4.31,4.31,0,0,0,.78-4.49,3.78,3.78,0,0,0-3.45-1.93,5.75,5.75,0,0,0-3.72,1.66,12.08,12.08,0,0,0-2.4,3.38,15.32,15.32,0,0,0-2,6.78,67.47,67.47,0,0,1-5-10.06l6.26-3.8a12.691,12.691,0,0,0,3.74-3A4.31,4.31,0,0,0,123,317a3.79,3.79,0,0,0-3.52-1.8,5.75,5.75,0,0,0-3.65,1.8,12.219,12.219,0,0,0-2.27,3.48,15.79,15.79,0,0,0-1.72,6.41,66.61,66.61,0,0,1-2.38-7.79c-.18-.78-.35-1.56-.51-2.35l6.31-4.13a12.6,12.6,0,0,0,3.65-3.11,4.32,4.32,0,0,0,.46-4.54,3.83,3.83,0,0,0-3.58-1.68,5.78,5.78,0,0,0-3.6,1.92,12.35,12.35,0,0,0-2.15,3.55,16.579,16.579,0,0,0-1.49,5.75,63.378,63.378,0,0,1-.79-8.13l3.5-6.47a12.66,12.66,0,0,0,1.72-4.47,4.33,4.33,0,0,0-1.75-4.22,3.79,3.79,0,0,0-3.94.23,5.74,5.74,0,0,0-2.25,3.4,12.3,12.3,0,0,0-.21,4.15,14.82,14.82,0,0,0,2.28,7.25h0a62.721,62.721,0,0,0,.85,8.65,16.25,16.25,0,0,0-4.17-4.62,12.229,12.229,0,0,0-3.57-2.12,5.71,5.71,0,0,0-4.07,0,3.79,3.79,0,0,0-2.37,3.17,4.32,4.32,0,0,0,2.54,3.79,12.61,12.61,0,0,0,4.68,1l7.31.66a65.9,65.9,0,0,0,2.9,10.23,15.94,15.94,0,0,0-5.41-3.68,12.48,12.48,0,0,0-4-1.17,5.8,5.8,0,0,0-3.95,1,3.8,3.8,0,0,0-1.51,3.65,4.32,4.32,0,0,0,3.4,3,12.48,12.48,0,0,0,4.79-.16l7.24-1.18a.866.866,0,0,0,.13.32,67.108,67.108,0,0,0,4.94,9.8,15.15,15.15,0,0,0-6.65-3,12.32,12.32,0,0,0-4.14-.34,5.78,5.78,0,0,0-3.66,1.79,3.81,3.81,0,0,0-.74,3.89,4.33,4.33,0,0,0,4,2.29,12.85,12.85,0,0,0,4.65-1.13l7.08-2.71.08.13v.06h0a66.891,66.891,0,0,0,6.41,8.55,16.361,16.361,0,0,0-6.58-.47,12.529,12.529,0,0,0-4.1,1,5.87,5.87,0,0,0-3,2.9,3.86,3.86,0,0,0,.53,4,4.38,4.38,0,0,0,4.55.95,12.94,12.94,0,0,0,4.14-2.59l5.39-4.42.19-.1a63.913,63.913,0,0,0,8.77,7.83c.34.25.78-.23.45-.48a63,63,0,0,1-8.63-7.68l6-3.33a12.631,12.631,0,0,0,3.85-2.84,4.31,4.31,0,0,0,.82-4.42Z" transform="translate(171.14 4638.617)" fill="#b6dbff"/>
    <path id="Trazado_189725" data-name="Trazado 189725" d="M140.17,378.72l1.56,22.66c-2.17-1.48-4.5-2.76-6.76-4.06a45,45,0,0,1-6.41-4.28,24,24,0,0,1-4.94-5.91,36.531,36.531,0,0,0-4.3-6.23,17.34,17.34,0,0,0-4.84-3.48c-3.69-1.88-7.75-2.85-11.49-4.62a18.84,18.84,0,0,1-5.16-3.44,27.519,27.519,0,0,1-4.39-6.09,58.7,58.7,0,0,0-4-6.36,22.369,22.369,0,0,0-4.57-4.44,29.049,29.049,0,0,0-11.7-4.9c-10.24-2-20.53,1-30.14,4.33l-1.71.61c-1-5.87,7.45-10.77,12.79-11.94,3.66-.8,7.46.35,11.19.12,18.92-1.16,31.05-8,40.6,13.49,1.06,2.41,2,5,3.9,6.8C118.41,368.07,139.29,362.41,140.17,378.72Z" transform="translate(171.14 4638.617)" fill="#d7edff"/>
    <path id="Trazado_189726" data-name="Trazado 189726" d="M126.76,425.39c-15.18,6.05-31.19-6.8-21.76-24.32,6.65-9.08-2.46-14.33-10.53-16.1-4-.88-8.86-.93-11.08-4.38-3.91-7.88,6.22-18.46-11.06-22-9.76-2-27.51,7.05-31-5.43a1,1,0,0,1,0-.18c9.12-3.23,18.69-6.36,28.48-5.4a31.31,31.31,0,0,1,12.33,3.75,23.171,23.171,0,0,1,5,3.82,28.219,28.219,0,0,1,4.17,5.66c1.26,2.14,2.41,4.36,3.88,6.38a17.689,17.689,0,0,0,4.68,4.53c3.33,2.17,7.21,3.25,10.9,4.67A28.6,28.6,0,0,1,116.2,379a17.2,17.2,0,0,1,4.72,4.86c1.39,2.1,2.54,4.35,4.1,6.34a24,24,0,0,0,5.37,4.88c3.61,2.5,7.63,4.34,11.23,6.85a22.65,22.65,0,0,1-14.86,23.46Z" transform="translate(171.14 4638.617)" fill="#b6dbff"/>
    <path id="Trazado_189727" data-name="Trazado 189727" d="M141.73,401.38v.58c-3.59-2.51-7.62-4.35-11.23-6.85a24,24,0,0,1-5.37-4.88c-1.56-2-2.7-4.24-4.1-6.34a16.94,16.94,0,0,0-4.72-4.86,28.6,28.6,0,0,0-5.41-2.66c-3.68-1.42-7.57-2.5-10.9-4.67a17.69,17.69,0,0,1-4.68-4.53c-1.46-2-2.62-4.24-3.88-6.38a28.57,28.57,0,0,0-4.16-5.66,23.47,23.47,0,0,0-5-3.82,31.26,31.26,0,0,0-12.33-3.75c-9.78-1-19.35,2.17-28.48,5.4a2.425,2.425,0,0,0-.1-.45l1.71-.61c9.61-3.34,19.9-6.29,30.14-4.33a29.049,29.049,0,0,1,11.7,4.9,22.37,22.37,0,0,1,4.57,4.44,58.7,58.7,0,0,1,4,6.36,27.519,27.519,0,0,0,4.39,6.09A18.841,18.841,0,0,0,103,372.8c3.74,1.77,7.8,2.74,11.49,4.62a17.339,17.339,0,0,1,4.84,3.48,36.532,36.532,0,0,1,4.3,6.23,24,24,0,0,0,4.94,5.91,45,45,0,0,0,6.41,4.28C137.23,398.62,139.56,399.9,141.73,401.38Z" transform="translate(171.14 4638.617)" fill="#035875"/>
    <path id="Trazado_189728" data-name="Trazado 189728" d="M141.73,401.38v.58c-3.59-2.51-7.62-4.35-11.23-6.85a24,24,0,0,1-5.37-4.88c-1.56-2-2.7-4.24-4.1-6.34a16.94,16.94,0,0,0-4.72-4.86,28.6,28.6,0,0,0-5.41-2.66c-3.68-1.42-7.57-2.5-10.9-4.67a17.69,17.69,0,0,1-4.68-4.53c-1.46-2-2.62-4.24-3.88-6.38a28.57,28.57,0,0,0-4.16-5.66,23.47,23.47,0,0,0-5-3.82,31.26,31.26,0,0,0-12.33-3.75c-9.78-1-19.35,2.17-28.48,5.4a2.425,2.425,0,0,0-.1-.45l1.71-.61c9.61-3.34,19.9-6.29,30.14-4.33a29.049,29.049,0,0,1,11.7,4.9,22.37,22.37,0,0,1,4.57,4.44,58.7,58.7,0,0,1,4,6.36,27.519,27.519,0,0,0,4.39,6.09A18.841,18.841,0,0,0,103,372.8c3.74,1.77,7.8,2.74,11.49,4.62a17.339,17.339,0,0,1,4.84,3.48,36.532,36.532,0,0,1,4.3,6.23,24,24,0,0,0,4.94,5.91,45,45,0,0,0,6.41,4.28C137.23,398.62,139.56,399.9,141.73,401.38Z" transform="translate(171.14 4638.617)" fill="#fff"/>
    <path id="Trazado_189729" data-name="Trazado 189729" d="M168.19,35.32H361.73c6,0,10.83,5.23,10.83,11.67V178.6c0,6.44-4.85,11.67-10.83,11.67H168.19c-6,0-10.83-5.23-10.83-11.67V47C157.36,40.55,162.21,35.32,168.19,35.32Z" transform="translate(171.14 4638.617)" fill="#1565ae"/>
    <path id="Trazado_189730" data-name="Trazado 189730" d="M369.57,61.88V177.66A10.4,10.4,0,0,1,359,187.92H170.87a10.39,10.39,0,0,1-10.52-10.26V61.88a10.39,10.39,0,0,1,10.52-10.26H359a10.4,10.4,0,0,1,10.57,10.26Z" transform="translate(171.14 4638.617)" fill="#fff"/>
    <path id="Trazado_189731" data-name="Trazado 189731" d="M196.9,43.7a1.81,1.81,0,1,0-1.81,1.95,1.88,1.88,0,0,0,1.81-1.95Z" transform="translate(171.14 4638.617)" fill="#fff"/>
    <path id="Trazado_189732" data-name="Trazado 189732" d="M187.75,43.7a1.81,1.81,0,1,0-1.81,1.95,1.88,1.88,0,0,0,1.81-1.95Z" transform="translate(171.14 4638.617)" fill="#fff"/>
    <path id="Trazado_189733" data-name="Trazado 189733" d="M178.6,43.7a1.81,1.81,0,1,0-1.81,1.95,1.88,1.88,0,0,0,1.81-1.95Z" transform="translate(171.14 4638.617)" fill="#fff"/>
    <path id="Trazado_189734" data-name="Trazado 189734" d="M313,45.65h41.51a1.94,1.94,0,0,0,1.94-1.95h0a1.94,1.94,0,0,0-1.94-1.94H313a1.94,1.94,0,0,0-1.94,1.94h0A1.94,1.94,0,0,0,313,45.65Z" transform="translate(171.14 4638.617)" fill="#fff"/>
    <path id="Trazado_189735" data-name="Trazado 189735" d="M174.62,64.5h56.54c1.75,0,3.17,2.22,3.17,5v61.31c0,2.74-1.42,5-3.17,5H174.62c-1.74,0-3.16-2.22-3.16-5V69.46C171.46,66.72,172.88,64.5,174.62,64.5Z" transform="translate(171.14 4638.617)" fill="#52a1fa"/>
    <path id="Trazado_189736" data-name="Trazado 189736" d="M175.41,71.42h55c1.7,0,3.07,2,3.07,4.37v54.58c0,2.41-1.37,4.37-3.07,4.37h-55c-1.7,0-3.08-2-3.08-4.37V75.79C172.33,73.38,173.71,71.42,175.41,71.42Z" transform="translate(171.14 4638.617)" fill="#fff"/>
    <path id="Trazado_189737" data-name="Trazado 189737" d="M202.77,75.14h0a8.68,8.68,0,0,1,8.68,8.68h0a8.68,8.68,0,0,1-8.68,8.68h0a8.67,8.67,0,0,1-8.68-8.68h0a8.68,8.68,0,0,1,8.68-8.68Z" transform="translate(171.14 4638.617)" fill="#badaff"/>
    <g id="Grupo_93776" data-name="Grupo 93776" transform="translate(171.14 4638.617)">
      <path id="Trazado_189738" data-name="Trazado 189738" d="M202.64,85.26a3.24,3.24,0,1,0-2.292-.96A3.24,3.24,0,0,0,202.64,85.26Z" fill="#fff"/>
      <path id="Trazado_189739" data-name="Trazado 189739" d="M205.61,85.29a.71.71,0,0,0-.88,0,3.18,3.18,0,0,1-2,.73,3.25,3.25,0,0,1-2-.69.69.69,0,0,0-.88,0,3.07,3.07,0,0,0-1.05,2.42v.09a1,1,0,0,0,1,1h6a1,1,0,0,0,1-1v-.09A3,3,0,0,0,205.61,85.29Z" fill="#fff"/>
    </g>
    <rect id="Rectángulo_39534" data-name="Rectángulo 39534" width="4.37" height="2.94" rx="0.51" transform="translate(362.39 4740.117)" fill="#ffd385"/>
    <rect id="Rectángulo_39535" data-name="Rectángulo 39535" width="4.37" height="2.94" rx="0.51" transform="translate(371.72 4740.117)" fill="#9ccaff"/>
    <rect id="Rectángulo_39536" data-name="Rectángulo 39536" width="4.37" height="2.94" rx="0.51" transform="translate(381.06 4740.117)" fill="#3695b5"/>
    <path id="Trazado_189740" data-name="Trazado 189740" d="M213.8,95H191.57a.32.32,0,0,0-.32.32h0a.32.32,0,0,0,.32.32H213.8a.32.32,0,0,0,.33-.32h0A.33.33,0,0,0,213.8,95Z" transform="translate(171.14 4638.617)" fill="#abd2ff"/>
    <path id="Trazado_189741" data-name="Trazado 189741" d="M213.8,96.68H191.57a.32.32,0,0,0-.32.32h0a.32.32,0,0,0,.32.32H213.8a.32.32,0,0,0,.33-.32h0a.33.33,0,0,0-.33-.32Z" transform="translate(171.14 4638.617)" fill="#abd2ff"/>
    <g id="Grupo_93778" data-name="Grupo 93778" transform="translate(171.14 4638.617)">
      <g id="Grupo_93777" data-name="Grupo 93777">
        <path id="Trazado_189742" data-name="Trazado 189742" d="M230.4,108.76h-43c-.35,0-.62.14-.62.32h0c0,.17.27.32.62.32h43c.35,0,.62-.15.62-.32h0C231,108.9,230.75,108.76,230.4,108.76Z" fill="#abd2ff"/>
        <path id="Trazado_189743" data-name="Trazado 189743" d="M230.4,111.1h-43c-.35,0-.62.15-.62.32h0c0,.18.27.32.62.32h43c.35,0,.62-.14.62-.32h0C231,111.25,230.75,111.1,230.4,111.1Z" fill="#abd2ff"/>
      </g>
      <rect id="Rectángulo_39537" data-name="Rectángulo 39537" width="5.5" height="4.77" rx="0.93" transform="translate(179.05 107.86)" fill="#badaff"/>
    </g>
    <g id="Grupo_93780" data-name="Grupo 93780" transform="translate(171.14 4638.617)">
      <g id="Grupo_93779" data-name="Grupo 93779">
        <path id="Trazado_189744" data-name="Trazado 189744" d="M230.4,117.46h-43c-.35,0-.62.14-.62.32h0c0,.17.27.32.62.32h43c.35,0,.62-.15.62-.32h0C231,117.6,230.75,117.46,230.4,117.46Z" fill="#abd2ff"/>
        <path id="Trazado_189745" data-name="Trazado 189745" d="M230.4,119.8h-43c-.35,0-.62.15-.62.32h0c0,.18.27.32.62.32h43c.35,0,.62-.14.62-.32h0A.642.642,0,0,0,230.4,119.8Z" fill="#abd2ff"/>
      </g>
      <rect id="Rectángulo_39538" data-name="Rectángulo 39538" width="5.5" height="4.77" rx="0.93" transform="translate(179.05 116.56)" fill="#badaff"/>
    </g>
    <g id="Grupo_93782" data-name="Grupo 93782" transform="translate(171.14 4638.617)">
      <g id="Grupo_93781" data-name="Grupo 93781">
        <path id="Trazado_189746" data-name="Trazado 189746" d="M230.4,126.16h-43c-.35,0-.62.14-.62.32h0c0,.17.27.32.62.32h43c.35,0,.62-.15.62-.32h0C231,126.3,230.75,126.16,230.4,126.16Z" fill="#abd2ff"/>
        <path id="Trazado_189747" data-name="Trazado 189747" d="M230.4,128.5h-43c-.35,0-.62.14-.62.32h0c0,.18.27.32.62.32h43c.35,0,.62-.14.62-.32h0C231,128.64,230.75,128.5,230.4,128.5Z" fill="#abd2ff"/>
      </g>
      <rect id="Rectángulo_39539" data-name="Rectángulo 39539" width="5.5" height="4.77" rx="0.93" transform="translate(179.05 125.26)" fill="#badaff"/>
    </g>
    <g id="Grupo_93783" data-name="Grupo 93783" transform="translate(171.14 4638.617)">
      <path id="Trazado_189748" data-name="Trazado 189748" d="M228.62,75.14h-.14a1.87,1.87,0,0,0-.2-.51l.12-.11a.45.45,0,0,0-.63-.63l-.1.1a1.67,1.67,0,0,0-.49-.22h0V73.6a.45.45,0,0,0-.89,0v.14a1.69,1.69,0,0,0-.5.2l-.12-.12a.45.45,0,1,0-.63.63l.1.1a2.161,2.161,0,0,0-.22.49h-.16a.45.45,0,0,0,0,.89h.14a1.84,1.84,0,0,0,.19.51l-.11.11a.43.43,0,0,0,0,.63.44.44,0,0,0,.62,0l.1-.1h0a1.73,1.73,0,0,0,.5.22v.16a.44.44,0,0,0,.44.45.45.45,0,0,0,.44-.45v-.14a1.84,1.84,0,0,0,.51-.19l.12.11a.42.42,0,0,0,.62,0,.44.44,0,0,0,0-.62l-.1-.1h0a1.73,1.73,0,0,0,.22-.5h.17a.44.44,0,0,0,0-.88Zm-.62.39a1.32,1.32,0,1,1-1.31-1.31A1.32,1.32,0,0,1,228,75.53Z" fill="#badaff"/>
      <path id="Trazado_189749" data-name="Trazado 189749" d="M225.86,75.53a.83.83,0,1,0,.83-.83A.83.83,0,0,0,225.86,75.53Z" fill="#badaff"/>
    </g>
    <g id="Grupo_93784" data-name="Grupo 93784" transform="translate(171.14 4638.617)">
      <path id="Trazado_189750" data-name="Trazado 189750" d="M231.3,78.48h-.08a1.658,1.658,0,0,0-.12-.31l.07-.07a.26.26,0,0,0,0-.38.28.28,0,0,0-.38,0l-.06.06a1,1,0,0,0-.3-.13h0v-.1a.27.27,0,1,0-.53,0v.08a1.43,1.43,0,0,0-.31.12l-.07-.07a.27.27,0,1,0-.38.38l.06.06a.81.81,0,0,0-.13.3H229a.27.27,0,1,0,0,.54h.08a.79.79,0,0,0,.12.3l-.07.07a.27.27,0,0,0,.38.38l.06-.06h0a1,1,0,0,0,.3.14v.1a.27.27,0,0,0,.53,0V79.8a.84.84,0,0,0,.31-.12l.07.07a.26.26,0,0,0,.38,0,.27.27,0,0,0,0-.37l-.06-.06h0a1.3,1.3,0,0,0,.13-.3h.1a.27.27,0,1,0,0-.54Zm-.37.24a.8.8,0,1,1-.8-.8.8.8,0,0,1,.8.8Z" fill="#badaff"/>
      <path id="Trazado_189751" data-name="Trazado 189751" d="M229.63,78.72a.51.51,0,1,0,.216-.524.51.51,0,0,0-.216.524Z" fill="#badaff"/>
    </g>
    <rect id="Rectángulo_39540" data-name="Rectángulo 39540" width="9.73" height="1.61" transform="translate(347.31 4713.396)" fill="#badaff"/>
    <rect id="Rectángulo_39541" data-name="Rectángulo 39541" width="28.71" height="24.91" rx="3.87" transform="translate(456.29 4703.117)" fill="#ed466a"/>
    <g id="Grupo_93786" data-name="Grupo 93786" transform="translate(171.14 4638.617)">
      <path id="Trazado_189752" data-name="Trazado 189752" d="M297.58,81.07a.91.91,0,0,1-1.31-.8V73.66a.9.9,0,0,1,1.28-.83l3.73,1.72,3.29,1.51a.91.91,0,0,1,0,1.64l-3.26,1.58Z" fill="#fff"/>
      <path id="Trazado_189753" data-name="Trazado 189753" d="M299.47,84.87a8.15,8.15,0,1,1,8.15-8.15A8.15,8.15,0,0,1,299.47,84.87Zm0-15.72A7.57,7.57,0,1,0,307,76.72a7.57,7.57,0,0,0-7.53-7.57Z" fill="#fff"/>
    </g>
    <path id="Trazado_189754" data-name="Trazado 189754" d="M326.84,89.6h0a3.86,3.86,0,0,1-1-.14.186.186,0,0,1,.09-.36,4.169,4.169,0,0,0,.93.13.19.19,0,0,1,.19.18.2.2,0,0,1-.21.19Zm21,0h-.28a.2.2,0,0,1-.19-.19.19.19,0,0,1,.19-.18h.28a3.79,3.79,0,0,0,.67-.06.17.17,0,0,1,.21.14.18.18,0,0,1-.14.22,4.628,4.628,0,0,1-.75.07Zm-1.27,0h-1a.2.2,0,0,1-.19-.19.19.19,0,0,1,.19-.18h1a.18.18,0,0,1,.19.18.19.19,0,0,1-.2.19Zm-2,0h-1a.19.19,0,0,1-.19-.19.18.18,0,0,1,.19-.18h1a.19.19,0,0,1,.19.18.2.2,0,0,1-.17.19Zm-2,0h-1a.19.19,0,0,1-.18-.19.18.18,0,0,1,.18-.18h1a.18.18,0,0,1,.18.18.19.19,0,0,1-.13.19Zm-2,0h-1a.19.19,0,0,1-.18-.19.18.18,0,0,1,.18-.18h1a.18.18,0,0,1,.18.18.19.19,0,0,1-.1.19Zm-2,0h-1a.2.2,0,0,1-.19-.19.19.19,0,0,1,.19-.18h1a.18.18,0,0,1,.19.18.19.19,0,0,1-.09.19Zm-2,0h-1a.19.19,0,0,1-.19-.19.18.18,0,0,1,.19-.18h1a.19.19,0,0,1,.19.18.2.2,0,0,1-.06.19Zm-2,0h-1a.19.19,0,0,1-.18-.19.18.18,0,0,1,.18-.18h1a.19.19,0,0,1,.19.18.2.2,0,0,1-.03.19Zm-2,0h-1a.19.19,0,0,1-.18-.19.18.18,0,0,1,.18-.18h1a.18.18,0,0,1,.18.18.19.19,0,0,1,.01.19Zm-2,0h-1a.2.2,0,0,1-.19-.19.19.19,0,0,1,.19-.18h1a.18.18,0,0,1,.18.18.19.19,0,0,1,.04.19Zm-2,0h-1a.19.19,0,0,1-.19-.19.18.18,0,0,1,.19-.18h1a.18.18,0,0,1,.19.18.19.19,0,0,1,.05.19Zm20.66-.37a.183.183,0,0,1-.08-.35,3.63,3.63,0,0,0,.79-.5.184.184,0,0,1,.24.28,4.45,4.45,0,0,1-.87.56ZM325,89.1a.17.17,0,0,1-.1,0,4.06,4.06,0,0,1-.82-.61.187.187,0,0,1,.27-.26,3.19,3.19,0,0,0,.75.56.18.18,0,0,1,.07.25.2.2,0,0,1-.17.06ZM351,88a.15.15,0,0,1-.11,0,.19.19,0,0,1,0-.26,4.072,4.072,0,0,0,.45-.82.182.182,0,1,1,.34.13,3.8,3.8,0,0,1-.49.91A.19.19,0,0,1,351,88Zm-27.42-.25a.19.19,0,0,1-.16-.09,4,4,0,0,1-.42-.94.187.187,0,0,1,.36-.1,3.81,3.81,0,0,0,.38.85.19.19,0,0,1-.06.26Zm28.12-1.57h0a.19.19,0,0,1-.16-.21V85a.2.2,0,0,1,.19-.19.19.19,0,0,1,.18.19v1a.19.19,0,0,1-.24.17Zm-28.7-.3a.19.19,0,0,1-.19-.18v-1a.185.185,0,0,1,.37,0v1a.18.18,0,0,1-.17.2Zm28.7-1.68a.2.2,0,0,1-.19-.19V83a.19.19,0,0,1,.19-.19.18.18,0,0,1,.18.19v1a.19.19,0,0,1-.18.2ZM323,83.9a.18.18,0,0,1-.19-.18v-1a.185.185,0,0,1,.37,0v1A.18.18,0,0,1,323,83.9Zm28.71-1.68a.19.19,0,0,1-.19-.18v-1a.19.19,0,0,1,.19-.18.18.18,0,0,1,.18.18v1a.18.18,0,0,1-.19.18ZM323,81.93a.18.18,0,0,1-.19-.18v-1a.19.19,0,1,1,.37,0v1A.18.18,0,0,1,323,81.93Zm28.71-1.68a.19.19,0,0,1-.19-.18v-1a.19.19,0,0,1,.19-.18.18.18,0,0,1,.18.18v1a.18.18,0,0,1-.19.18ZM323,80a.18.18,0,0,1-.19-.19v-1a.185.185,0,1,1,.37,0v1A.18.18,0,0,1,323,80Zm28.71-1.68a.19.19,0,0,1-.19-.19v-1a.2.2,0,0,1,.19-.19.19.19,0,0,1,.18.19v1a.18.18,0,0,1-.19.15ZM323,78a.19.19,0,0,1-.19-.19v-1a.185.185,0,0,1,.37,0v1A.19.19,0,0,1,323,78Zm28.71-1.68a.2.2,0,0,1-.19-.19v-1a.19.19,0,0,1,.19-.19.18.18,0,0,1,.18.19v1a.19.19,0,0,1-.19.18ZM323,76a.18.18,0,0,1-.19-.18v-1a.185.185,0,0,1,.37,0v1A.18.18,0,0,1,323,76Zm28.71-1.67a.2.2,0,0,1-.19-.19v-1a.19.19,0,0,1,.19-.18.18.18,0,0,1,.18.18v1a.19.19,0,0,1-.19.2ZM323,74a.18.18,0,0,1-.19-.18v-1a.185.185,0,0,1,.37,0v1A.18.18,0,0,1,323,74Zm28.71-1.68a.19.19,0,0,1-.19-.18v-1a.19.19,0,0,1,.19-.18.18.18,0,0,1,.18.18v1a.18.18,0,0,1-.19.22ZM323,72.07a.18.18,0,0,1-.19-.19v-1a.19.19,0,1,1,.37,0v1a.18.18,0,0,1-.18.19Zm28.71-1.68a.19.19,0,0,1-.19-.18v-1a.2.2,0,0,1,.19-.19.19.19,0,0,1,.18.19v1a.18.18,0,0,1-.19.18ZM323,70.1a.19.19,0,0,1-.19-.19v-1a.185.185,0,1,1,.37,0v1A.19.19,0,0,1,323,70.1Zm28.71-1.68a.19.19,0,0,1-.19-.18,3.542,3.542,0,0,0-.15-.92.188.188,0,0,1,.36-.11,4.339,4.339,0,0,1,.16,1,.19.19,0,0,1-.18.19ZM323,68.13h0a.17.17,0,0,1-.16-.2,3.48,3.48,0,0,1,.24-1,.18.18,0,0,1,.24-.11.19.19,0,0,1,.1.24,4,4,0,0,0-.22.91.18.18,0,0,1-.2.16Zm28.13-1.58a.19.19,0,0,1-.16-.09,3.45,3.45,0,0,0-.58-.73.19.19,0,1,1,.26-.27,4.231,4.231,0,0,1,.64.81.187.187,0,0,1-.15.28ZM323.7,66.3a.2.2,0,0,1-.11,0,.18.18,0,0,1,0-.26,3.828,3.828,0,0,1,.7-.75.18.18,0,0,1,.26,0,.19.19,0,0,1,0,.26,3.451,3.451,0,0,0-.63.69.19.19,0,0,1-.21.06Zm26-1.11a.16.16,0,0,1-.09,0,3.681,3.681,0,0,0-.87-.35.2.2,0,0,1-.13-.23.19.19,0,0,1,.23-.13,4.13,4.13,0,0,1,.95.39.167.167,0,0,1-.05.32Zm-24.54-.14A.21.21,0,0,1,325,65a.19.19,0,0,1,.09-.25,4.17,4.17,0,0,1,1-.32.19.19,0,0,1,.07.37,3.42,3.42,0,0,0-.89.28.11.11,0,0,1-.07-.03Zm22.66-.37h-1a.185.185,0,0,1,0-.37h1a.2.2,0,0,1,.2.19.17.17,0,0,1-.16.18Zm-2,0h-1a.19.19,0,1,1,0-.37h1a.188.188,0,0,1,.04.37Zm-2,0h-1a.19.19,0,1,1,0-.37h1a.19.19,0,0,1,.06.37Zm-2,0h-1a.185.185,0,1,1,0-.37h1a.19.19,0,1,1,0,.37Zm-2,0h-1a.185.185,0,0,1,0-.37h1a.221.221,0,0,1,.12.37Zm-2,0h-1a.185.185,0,0,1,0-.37h1a.3.3,0,0,1,.18.37Zm-2,0h-1a.19.19,0,1,1,0-.37h1a.276.276,0,0,1,.18.37Zm-2,0h-1a.185.185,0,1,1,0-.37h1a.19.19,0,1,1,0,.37Zm-2,0h-1a.185.185,0,0,1,0-.37h1a.19.19,0,1,1,0,.37Zm-2,0h-1a.185.185,0,0,1,0-.37h1a.678.678,0,0,1,.26.37Zm-2,0h-1a.19.19,0,1,1,0-.37h1a1.127,1.127,0,0,1,.29.37Z" transform="translate(171.14 4638.617)" fill="#ed466a"/>
    <rect id="Rectángulo_39542" data-name="Rectángulo 39542" width="34.93" height="24.11" rx="1.67" transform="translate(412.41 4703.507)" fill="#f3a97c"/>
    <g id="Grupo_93788" data-name="Grupo 93788" transform="translate(171.14 4638.617)">
      <path id="Trazado_189755" data-name="Trazado 189755" d="M244.69,83.34l6.46-8.89a.84.84,0,0,1,1.38,0L258,82.91a.84.84,0,0,0,1.43,0l1.24-2.19a.84.84,0,0,1,1.46,0l1.05,1.86a.84.84,0,0,0,1.51-.11l2.89-7.33a.84.84,0,0,1,1.58,0l2.86,8.43a.84.84,0,0,1-.8,1.11H245.37a.84.84,0,0,1-.68-1.34Z" fill="#fff"/>
      <path id="Trazado_189756" data-name="Trazado 189756" d="M257.3,71.5a2.45,2.45,0,1,1,.7,1.764,2.45,2.45,0,0,1-.7-1.764Z" fill="#fff"/>
      <path id="Trazado_189757" data-name="Trazado 189757" d="M252.13,70.45h-.14a.38.38,0,0,0,0-.1,1,1,0,0,0-1.92-.23.55.55,0,0,0-.39-.16.59.59,0,0,0-.5.29.67.67,0,0,0-.31-.07.8.8,0,1,0,.49,1.42,1.9,1.9,0,0,0,1.19.36,2,2,0,0,0,1.14-.32.63.63,0,0,0,.43.16.69.69,0,0,0,0-1.37Z" fill="#fff"/>
      <path id="Trazado_189758" data-name="Trazado 189758" d="M269.09,70.45h-.13a.381.381,0,0,0,0-.1.984.984,0,0,0-1.94-.25.57.57,0,0,0-.39-.16.58.58,0,0,0-.5.29.68.68,0,0,0-.32-.07.8.8,0,1,0,.5,1.42,1.87,1.87,0,0,0,1.19.36,1.89,1.89,0,0,0,1.13-.32.67.67,0,0,0,.43.16.69.69,0,1,0,0-1.37Z" fill="#fff"/>
    </g>
    <rect id="Rectángulo_39543" data-name="Rectángulo 39543" width="100.01" height="41.31" rx="4.72" transform="translate(412.45 4733.567)" fill="#82bbff"/>
    <g id="Grupo_93790" data-name="Grupo 93790" transform="translate(171.14 4638.617)">
      <path id="Trazado_189759" data-name="Trazado 189759" d="M296.73,106.1H280.49a.64.64,0,0,1-.64-.64h0a.64.64,0,0,1,.64-.64h16.24a.64.64,0,0,1,.63.64h0a.64.64,0,0,1-.63.64Z" fill="#fff"/>
      <path id="Trazado_189760" data-name="Trazado 189760" d="M325.41,106.1H300.25a.64.64,0,0,1-.64-.64h0a.64.64,0,0,1,.64-.64h25.16a.64.64,0,0,1,.64.64h0A.64.64,0,0,1,325.41,106.1Z" fill="#fff"/>
      <path id="Trazado_189761" data-name="Trazado 189761" d="M334.82,106.1h-5.28a.56.56,0,0,1-.55-.56h0a.55.55,0,0,1,.55-.55h5.28a.56.56,0,0,1,.56.55h0a.56.56,0,0,1-.56.56Z" fill="#fff"/>
      <path id="Trazado_189762" data-name="Trazado 189762" d="M334.74,112.67H280.49a.64.64,0,0,1-.64-.63h0a.64.64,0,0,1,.64-.64h54.25a.64.64,0,0,1,.64.64h0A.64.64,0,0,1,334.74,112.67Z" fill="#fff"/>
      <path id="Trazado_189763" data-name="Trazado 189763" d="M296.73,125.12H280.49a.64.64,0,0,1-.64-.64h0a.64.64,0,0,1,.64-.64h16.24a.64.64,0,0,1,.63.64h0a.64.64,0,0,1-.63.64Z" fill="#fff"/>
      <path id="Trazado_189764" data-name="Trazado 189764" d="M325.41,125.12H300.25a.64.64,0,0,1-.64-.64h0a.64.64,0,0,1,.64-.64h25.16a.64.64,0,0,1,.64.64h0a.64.64,0,0,1-.64.64Z" fill="#fff"/>
      <path id="Trazado_189765" data-name="Trazado 189765" d="M307.49,118.54h-27a.64.64,0,0,1-.64-.64h0a.64.64,0,0,1,.64-.63h27a.63.63,0,0,1,.63.63h0a.63.63,0,0,1-.63.64Z" fill="#fff"/>
      <path id="Trazado_189766" data-name="Trazado 189766" d="M334.74,118.54H314a.63.63,0,0,1-.63-.64h0a.63.63,0,0,1,.63-.63h20.79a.64.64,0,0,1,.64.63h0a.64.64,0,0,1-.69.64Z" fill="#fff"/>
      <path id="Trazado_189767" data-name="Trazado 189767" d="M334.82,125.12h-5.28a.56.56,0,0,1-.55-.56h0a.55.55,0,0,1,.55-.55h5.28a.56.56,0,0,1,.56.55h0A.56.56,0,0,1,334.82,125.12Z" fill="#fff"/>
    </g>
    <g id="Grupo_93791" data-name="Grupo 93791" transform="translate(171.14 4638.617)">
      <path id="Trazado_189768" data-name="Trazado 189768" d="M273.22,112.36h-.92A11.83,11.83,0,0,0,271,109l.77-.77a2.934,2.934,0,1,0-4.15-4.15l-.66.66a11.62,11.62,0,0,0-3.29-1.47h0v-1.08a2.93,2.93,0,1,0-5.86,0v.92a11.83,11.83,0,0,0-3.37,1.29l-.77-.77a2.934,2.934,0,0,0-4.15,4.15l.66.66a11.62,11.62,0,0,0-1.47,3.29h-1.09a2.93,2.93,0,0,0,0,5.86h.93a11.83,11.83,0,0,0,1.29,3.37l-.77.77a2.934,2.934,0,1,0,4.15,4.15l.65-.66h0a11.809,11.809,0,0,0,3.3,1.47v1.09a2.93,2.93,0,0,0,5.86,0v-.93a11.83,11.83,0,0,0,3.37-1.29l.77.77a2.934,2.934,0,0,0,4.15-4.15l-.66-.65h0a11.811,11.811,0,0,0,1.47-3.3h1.08a2.93,2.93,0,0,0,0-5.86ZM269.16,115a8.73,8.73,0,1,1-8.73-8.73,8.73,8.73,0,0,1,8.73,8.73Z" fill="#fff"/>
      <path id="Trazado_189769" data-name="Trazado 189769" d="M254.91,115a5.52,5.52,0,1,0,5.52-5.52,5.52,5.52,0,0,0-5.52,5.52Z" fill="#fff"/>
    </g>
    <rect id="Rectángulo_39544" data-name="Rectángulo 39544" width="34.58" height="34.58" rx="3.54" transform="translate(343.47 4785.057)" fill="#82bbff"/>
    <g id="Grupo_93793" data-name="Grupo 93793" transform="translate(171.14 4638.617)">
      <path id="Trazado_189770" data-name="Trazado 189770" d="M182.59,168.67h-1.81l-5.23-5.23,4.8-4.8h1.81l-4.81,4.8Z" fill="#fff"/>
      <path id="Trazado_189771" data-name="Trazado 189771" d="M203.89,163.44l-5.23,5.23h-1.81l5.23-5.23-4.8-4.8h1.8Z" fill="#fff"/>
      <path id="Trazado_189772" data-name="Trazado 189772" d="M193.71,158.64l-6.47,10.03h-1.52l6.47-10.03Z" fill="#fff"/>
    </g>
    <g id="Grupo_93806" data-name="Grupo 93806" transform="translate(171.14 4638.617)">
      <g id="Grupo_93796" data-name="Grupo 93796">
        <path id="Trazado_189773" data-name="Trazado 189773" d="M323.32,223.63s22.91,3.4,30.62-8,3.47-55-20.29-63.5C325,149,301,151.5,299.11,177.48c-1.33,18.32-16.78,31.33-6.21,39.4S323.32,223.63,323.32,223.63Z" fill="#30334d"/>
        <path id="Trazado_189774" data-name="Trazado 189774" d="M295.53,217.7c-1.26-1-2.82-1.55-4.16-2.45a11.39,11.39,0,0,1-3.19-3.11c-1.76-2.71-1.14-6.16-.23-9,1.92-6.1,6-11.22,8.75-17,1.48-3.07,2.76-6.57,2.65-10,0-.08-.13-.08-.14,0a24.279,24.279,0,0,1-1.06,5.19,31.2,31.2,0,0,1-2,4.59c-1.61,3-3.6,5.88-5.39,8.83a36.629,36.629,0,0,0-4.16,8.76c-.83,2.91-1.06,5.95.63,8.65a11.88,11.88,0,0,0,3.41,3.4,15.45,15.45,0,0,0,4.79,2.42A.156.156,0,0,0,295.53,217.7Z" fill="#30334d"/>
        <path id="Trazado_189775" data-name="Trazado 189775" d="M359.5,195.1a73.278,73.278,0,0,0-3.27-12,56.743,56.743,0,0,0-4.88-10.48A42,42,0,0,0,343,162.56c-.07-.07-.19,0-.11.11a49.8,49.8,0,0,1,12.21,19.22,70.3,70.3,0,0,1,2.95,10.93,33.686,33.686,0,0,1,.72,6.93,19.689,19.689,0,0,1-1.19,6.16,30.9,30.9,0,0,1-3,5.94c-1.22,1.94-2.73,3.72-3.82,5.74-.24.44.33.95.71.57a32.338,32.338,0,0,0,3.74-5,35.819,35.819,0,0,0,3-5.47A21.6,21.6,0,0,0,359.5,195.1Z" fill="#30334d"/>
      </g>
      <path id="Trazado_189776" data-name="Trazado 189776" d="M364.77,343.61c-4.8,3.2-9.84,6.29-14.15,8.85v4h-6.91c-2.63,1.49-4.26,2.37-4.26,2.37L338,356.47h-1.2c-1.6,2.41-5.75,7.92-10.18,7.81a12.89,12.89,0,0,1-3.57-.58,13,13,0,0,1-3.57.58c-3.32.08-6.48-3-8.53-5.55l-.48.82s-2.22-1.17-5.68-3.08h-7.6v-4.3c-4.09-2.36-8.69-5.1-13.11-7.94,1.88-3.61,3.27-5.92,3.27-5.92h.22l9.62-.48,13.78-.69,8.93-.44,6.42-.32,12.3-.61,12-.6,11.07-.55s.4,1.12,1.05,3C363.28,339.15,364,341.23,364.77,343.61Z" fill="#353957"/>
      <path id="Trazado_189777" data-name="Trazado 189777" d="M369.92,251.25a283.457,283.457,0,0,1-5.53,35.44c-4.65,21.44-8.72,32.66-1.47,50.8-27.86,17.93-70.33,8.42-75.79,2.15,4.49-12.7,1.46-28.9-2.45-44.88-4.41-18.09-9.94-35.91-6.89-48,1.08-4.3,11.92-8.26,19.73-11.38a150,150,0,0,1,16.44-5h0c4.77,0,12.22-.25,18.75.26h.24l.62.05h.46l.6.05c5.84.53,9.69,2,15,3.5C357.47,236.7,370.72,242.58,369.92,251.25Z" fill="#32c0b0"/>
      <g id="Grupo_93797" data-name="Grupo 93797">
        <path id="Trazado_189778" data-name="Trazado 189778" d="M333,231c-.07,1.38-9.12,14.11-9.12,14.11L314,230.38l3.71-19.25,12.81.26.08.61Z" fill="#f9cbcb"/>
        <path id="Trazado_189779" data-name="Trazado 189779" d="M333,231c-3.34-4-4.59-15.88-16.36-14.49l1-5.26,12.81.26.09.47Z" fill="#ebb0b0"/>
      </g>
      <g id="Grupo_93804" data-name="Grupo 93804">
        <path id="Trazado_189780" data-name="Trazado 189780" d="M304.2,189.53l2.94,10.54c-.12,0-.19-.06-.3,0v-.06c-14.94-.63-16.06-17.9-5.83-15.87C301.37,186.12,303,187.83,304.2,189.53Z" fill="#f9cbcb"/>
        <path id="Trazado_189781" data-name="Trazado 189781" d="M343,201.33c-.36.11-.7.15-1.12.24.06-.17,1.7-9.48,1.78-9.93a33,33,0,0,0,2.62-5.83C355.18,182.72,357.38,197.57,343,201.33Z" fill="#f9cbcb"/>
        <path id="Trazado_189782" data-name="Trazado 189782" d="M348.49,184.18c-.7,36.64-45.08,42.76-48.54-1.45C302.17,140.58,350.77,148.71,348.49,184.18Z" fill="#f9cbcb"/>
        <g id="Grupo_93803" data-name="Grupo 93803">
          <g id="Grupo_93798" data-name="Grupo 93798">
            <path id="Trazado_189783" data-name="Trazado 189783" d="M329.11,200a3.88,3.88,0,0,1-1.22,2.81,4.74,4.74,0,0,1-6.66-.18,3.85,3.85,0,0,1-1.05-2.63c0-2.26,2.8-.26,4.46-.26C326,199.76,329.11,197.76,329.11,200Z" fill="#b34d4d"/>
            <path id="Trazado_189784" data-name="Trazado 189784" d="M327.89,202.83a4.74,4.74,0,0,1-6.66-.18,4.68,4.68,0,0,1,3.25-1.12,4.47,4.47,0,0,1,3.41,1.3Z" fill="#ff8787"/>
          </g>
          <g id="Grupo_93801" data-name="Grupo 93801">
            <g id="Grupo_93799" data-name="Grupo 93799">
              <path id="Trazado_189785" data-name="Trazado 189785" d="M317,188.92a2.54,2.54,0,1,1-2.43-3.06,2.79,2.79,0,0,1,2.43,3.06Z" fill="#ffe5e5"/>
              <path id="Trazado_189786" data-name="Trazado 189786" d="M316.48,188.91a2,2,0,1,1-1.91-2.41,2.18,2.18,0,0,1,1.91,2.41Z" fill="#30334d"/>
              <path id="Trazado_189787" data-name="Trazado 189787" d="M315.74,188.89a1.25,1.25,0,1,1-1.19-1.51,1.37,1.37,0,0,1,1.19,1.51Z" fill="#191b36"/>
              <path id="Trazado_189788" data-name="Trazado 189788" d="M313.2,188a.55.55,0,0,1,.56-.53.56.56,0,0,1,.54.56.55.55,0,0,1-.57.53.53.53,0,0,1-.53-.56Z" fill="#fff"/>
              <path id="Trazado_189789" data-name="Trazado 189789" d="M314.58,187.38a.26.26,0,0,1,.25-.24.24.24,0,0,1,.24.25.23.23,0,0,1-.25.24A.25.25,0,0,1,314.58,187.38Z" fill="#fff"/>
            </g>
            <g id="Grupo_93800" data-name="Grupo 93800">
              <path id="Trazado_189790" data-name="Trazado 189790" d="M331.61,189.3a2.54,2.54,0,1,0,2.28-3.17,2.78,2.78,0,0,0-2.28,3.17Z" fill="#ffe5e5"/>
              <path id="Trazado_189791" data-name="Trazado 189791" d="M332.15,189.26a2,2,0,1,0,1.79-2.49A2.18,2.18,0,0,0,332.15,189.26Z" fill="#30334d"/>
              <path id="Trazado_189792" data-name="Trazado 189792" d="M332.88,189.21a1.25,1.25,0,1,0,1.12-1.56A1.36,1.36,0,0,0,332.88,189.21Z" fill="#191b36"/>
              <path id="Trazado_189793" data-name="Trazado 189793" d="M335.38,188.2a.56.56,0,0,0-.59-.51.55.55,0,0,0-.51.58.56.56,0,0,0,.59.51.55.55,0,0,0,.51-.58Z" fill="#fff"/>
            </g>
            <path id="Trazado_189794" data-name="Trazado 189794" d="M316.58,183.58a3.57,3.57,0,0,0-4.47.1.53.53,0,0,0,0,.75.54.54,0,0,0,.75,0,2.56,2.56,0,0,1,1.53-.57,2.64,2.64,0,0,1,1.66.6.52.52,0,0,0,.72-.18.53.53,0,0,0-.19-.7Z" fill="#30334d"/>
            <path id="Trazado_189795" data-name="Trazado 189795" d="M336.26,184.27a3.57,3.57,0,0,0-4.47.19.52.52,0,0,0,0,.74.54.54,0,0,0,.75,0,2.49,2.49,0,0,1,1.52-.59,2.57,2.57,0,0,1,1.67.56.53.53,0,0,0,.72-.19A.54.54,0,0,0,336.26,184.27Z" fill="#30334d"/>
            <path id="Trazado_189796" data-name="Trazado 189796" d="M333.64,187.52a.25.25,0,0,1,.27.42.24.24,0,0,1-.34-.08A.25.25,0,0,1,333.64,187.52Z" fill="#fff"/>
          </g>
          <path id="Trazado_189797" data-name="Trazado 189797" d="M339.27,195.3c0,1.37-1.71,2.47-3.82,2.47s-3.82-1.1-3.82-2.47,1.71-2.47,3.82-2.47S339.27,193.94,339.27,195.3Z" fill="#ffbaba"/>
          <path id="Trazado_189798" data-name="Trazado 189798" d="M316.89,195.3c0,1.37-1.71,2.47-3.82,2.47s-3.82-1.1-3.82-2.47,1.71-2.47,3.82-2.47S316.89,193.94,316.89,195.3Z" fill="#ffbaba"/>
          <g id="Grupo_93802" data-name="Grupo 93802">
            <path id="Trazado_189799" data-name="Trazado 189799" d="M325.34,193.2a1.84,1.84,0,0,1-.32-.6.1.1,0,0,0-.19,0,1.46,1.46,0,0,0,.11.68c0,.11.08.21.11.32a.572.572,0,0,1,0,.13.5.5,0,0,1,0,.12v.05h0l-.05.05h-.57l-.12-.06h-.06a.31.31,0,0,0-.25,0,.28.28,0,0,0-.2.34c0,.19.24.29.39.35a1.761,1.761,0,0,0,.45.12,1,1,0,0,0,.74-.2h.06l.06-.05.12-.15a.81.81,0,0,0,.12-.37,1.17,1.17,0,0,0-.4-.73Z" fill="#ffbaba"/>
            <path id="Trazado_189800" data-name="Trazado 189800" d="M325.16,194.44Z" fill="#ffbaba"/>
          </g>
        </g>
        <path id="Trazado_189801" data-name="Trazado 189801" d="M348.59,193.32c-.33-.54-.64-1.08-.92-1.62h0a30.2,30.2,0,0,1-1.86-4.5h0c-2.94-9-1.68-17.29-13.39-23.63,9.26,2.51,12.84,12.8,14.65,22,.29,1.47.53,2.92.75,4.3a19.34,19.34,0,0,0,.42-4.48h0a74.069,74.069,0,0,0-.46-10.83h0c-1.15-9.59-4.62-20.4-13.9-22a28.881,28.881,0,0,0-4.11-1.27,24.469,24.469,0,0,0-5.24-.62,23.26,23.26,0,0,0-19.78,10.71c-5.34,8-6.05,14.24-4.85,22.61h0c.2,1.4.45,2.87.76,4.4v.08h0v.15c-.2-1.2.53-1.44,1.72-1.44,1.49,0,3.68.31,5.65-.43a16.3,16.3,0,0,0,4.89-.21h0a16.36,16.36,0,0,0,2.16-.57c8.7-2.87,15.6-12.44,16.1-22.64,12.76,6.34,10.85,14.78,14.14,25h0A34.678,34.678,0,0,0,347,192.5a3.169,3.169,0,0,0,.34.54h0c.34.45.8.92,1.06.92S348.67,193.79,348.59,193.32ZM329.07,171c-3.36,8.95-11.64,15.07-20.33,15.46a31.942,31.942,0,0,0,5.38-2.56h0c.48-.28.95-.57,1.43-.88h0c6.2-4,12.62-10.42,15.19-18.31A29.219,29.219,0,0,1,329.07,171Z" fill="#353957"/>
      </g>
      <path id="Trazado_189802" data-name="Trazado 189802" d="M321.41,275.82c-.06-3.65,5.68-3.65,5.62,0S321.35,279.47,321.41,275.82Z" fill="#fff"/>
      <path id="Trazado_189803" data-name="Trazado 189803" d="M321.41,285.25c-.06-3.65,5.68-3.65,5.62,0S321.35,288.9,321.41,285.25Z" fill="#fff"/>
      <path id="Trazado_189804" data-name="Trazado 189804" d="M321.41,254.77c-.06-3.65,5.68-3.65,5.62,0S321.35,258.42,321.41,254.77Z" fill="#fff"/>
      <path id="Trazado_189805" data-name="Trazado 189805" d="M321.41,264.2c-.06-3.65,5.68-3.65,5.62,0S321.35,267.85,321.41,264.2Z" fill="#fff"/>
      <path id="Trazado_189806" data-name="Trazado 189806" d="M353.82,261.48H337.63a1.2,1.2,0,0,1,0-2.39h16.19a1.2,1.2,0,0,1,0,2.39Z" fill="#fff"/>
      <path id="Trazado_189807" data-name="Trazado 189807" d="M314,230.38c-3.51,1.78-6.48,3.85-7.91,6.81,7.25,1.82,12.6,2.59,17.84,7.94Z" fill="#fff"/>
      <path id="Trazado_189808" data-name="Trazado 189808" d="M333.83,230.38c3.51,1.78,6.48,3.85,7.91,6.81-7.25,1.82-12.6,2.59-17.83,7.94Z" fill="#fff"/>
      <g id="Grupo_93805" data-name="Grupo 93805">
        <path id="Trazado_189809" data-name="Trazado 189809" d="M362.92,337.49c-27.86,17.93-70.33,8.42-75.79,2.15,4.49-12.7,1.46-28.9-2.45-44.88l8.86-7.69s-2.33,26.24,6.79,35.88c5.36,5.66,12.38,10.1,17.28,12.81a10.41,10.41,0,0,0,11-.6c8.33-5.85,23.83-17.36,24-22.2.24-6.63.61-31.82.61-31.82s9,3.66,11.16,5.55C359.74,308.13,355.67,319.35,362.92,337.49Z" fill="#d94559"/>
      </g>
      <path id="Trazado_189810" data-name="Trazado 189810" d="M329.78,356.47a9.61,9.61,0,0,1-6.73,7.23,13,13,0,0,1-3.57.58c-3.32.08-6.48-3-8.53-5.55-.69-.86-1.26-1.66-1.66-2.26s-.69-1.11-.69-1.11l4.27-8,1.74-3.28s2,.28,4.52.85c1.24.28,2.6.63,3.92,1a19.749,19.749,0,0,1,4.18,1.78,4.28,4.28,0,0,1,2,2.1,12.83,12.83,0,0,1,.55,6.66Z" fill="#f9cbcb"/>
      <path id="Trazado_189811" data-name="Trazado 189811" d="M337.49,355.36l-.08.14c-.11.18-.32.52-.61,1-1.6,2.41-5.75,7.92-10.18,7.81a12.89,12.89,0,0,1-3.57-.58,9.64,9.64,0,0,1-6.74-7.23,12.94,12.94,0,0,1,.53-6.63,4.3,4.3,0,0,1,2-2.08,20.267,20.267,0,0,1,4.21-1.8,56.706,56.706,0,0,1,7.46-1.74l1-.16,1.72,3.24Z" fill="#f9cbcb"/>
      <path id="Trazado_189812" data-name="Trazado 189812" d="M319.48,344.31l-.35.6-1.64,2.78-5.19,8.78-1.3,2.26-.48.82s-2.22-1.17-5.68-3.08c-2.13-1.18-4.75-2.65-7.6-4.3-4.09-2.36-8.69-5.1-13.11-7.94-8.87-5.66-17-11.67-19.06-15.66-7.44-14.61,3.2-78,14.62-84.5h0c1.85-1.05,14.9,39.22,14.9,39.22l-1,3.79h0l-5.81,21.74-1.9,7.12,3.24,2.74,8.12,6.84L311,337.13Z" fill="#32c0b0"/>
      <path id="Trazado_189813" data-name="Trazado 189813" d="M382.34,328.57c-2,3.9-9.43,9.63-17.57,15-4.8,3.2-9.84,6.29-14.15,8.85-2.66,1.57-5,2.94-6.91,4-2.63,1.49-4.26,2.37-4.26,2.37L338,356.47l-.59-1-5-8.13-1.93-3.15-.51-.84,8.62-7.62,12-10.61,8.35-7.38,2.65-2.35-1.85-6.76-6.59-24-.38-1.38s.16-.78.43-2.14c1.79-8.74,8.63-41.2,11.46-39.49l.07.06.25.21a23.65,23.65,0,0,1,4.36,5.54C380.81,266.51,388.93,315.64,382.34,328.57Z" fill="#32c0b0"/>
    </g>
    <g id="Grupo_93807" data-name="Grupo 93807" transform="translate(171.14 4638.617)">
      <path id="Trazado_189814" data-name="Trazado 189814" d="M377.05,266.45H272c-4.07,0-7,3.69-6.52,8.18L272,337a7.2,7.2,0,0,0,7.05,6.31h91a7.21,7.21,0,0,0,7-6.31l6.49-62.33C384,270.14,381.13,266.45,377.05,266.45Z" fill="#fff"/>
      <path id="Trazado_189815" data-name="Trazado 189815" d="M377.83,266.5a9,9,0,0,1,.2,2.86l-5.93,63.43a7.2,7.2,0,0,1-7.05,6.41H273.31a5.317,5.317,0,0,1-.69,0,7.25,7.25,0,0,0,6.42,4.11h91a7.21,7.21,0,0,0,7-6.31l6.49-62.33C384,270.43,381.49,266.94,377.83,266.5Z" fill="#dddff0"/>
    </g>
    <rect id="Rectángulo_39545" data-name="Rectángulo 39545" width="410.86" height="5.6" transform="translate(287.9 4981.687)" fill="#68c3ef"/>
    <rect id="Rectángulo_39546" data-name="Rectángulo 39546" width="380.06" height="81.78" transform="translate(303.3 4987.287)" fill="#68c3ef"/>
    <rect id="Rectángulo_39547" data-name="Rectángulo 39547" width="380.06" height="5.53" transform="translate(303.3 4987.287)" fill="#ccc"/>
    <path id="Trazado_189816" data-name="Trazado 189816" d="M601.35,430.14v.62a.92.92,0,0,1-.79,1H54.65a.92.92,0,0,1-.78-1v-.62a.91.91,0,0,1,.78-1H600.56a.91.91,0,0,1,.79,1Z" transform="translate(171.14 4638.617)" fill="#1565ae"/>
    <rect id="Rectángulo_39548" data-name="Rectángulo 39548" width="33.98" height="2.63" rx="1.29" transform="translate(180 5067.757)" fill="#1565ae"/>
    <path id="Trazado_189817" data-name="Trazado 189817" d="M206.35,343.07H168.81a13.42,13.42,0,0,1,13.42-13.42h10.7a13.42,13.42,0,0,1,13.42,13.42Z" transform="translate(171.14 4638.617)" fill="#ffa726"/>
    <path id="Trazado_189818" data-name="Trazado 189818" d="M190.21,329.65H185c0-33.57-9.11-47.91-15.14-57.39-3.17-5-5.67-8.92-5.67-13.7,0-18.59,39-25.49,43.41-26.22l.85,5.19c-10.84,1.78-39,9-39,21,0,3.25,2,6.45,4.85,10.88C180.61,279.43,190.21,294.55,190.21,329.65Z" transform="translate(171.14 4638.617)" fill="#1565ae"/>
    <path id="Trazado_189819" data-name="Trazado 189819" d="M251,227.31a8.69,8.69,0,0,0-10.12-7l-38.55,7a8.63,8.63,0,0,0-6.85,6.55,3.52,3.52,0,0,0,.21,7,3.42,3.42,0,0,0,1-.2,8.66,8.66,0,0,0,8.76,3.73l38.55-7A8.69,8.69,0,0,0,251,227.31Z" transform="translate(171.14 4638.617)" fill="#ffa726"/>
    <path id="Trazado_189820" data-name="Trazado 189820" d="M465.88,334.83v6.85H446a3.43,3.43,0,1,1,0-6.85Z" transform="translate(171.14 4638.617)" fill="#fff"/>
    <path id="Trazado_189821" data-name="Trazado 189821" d="M446,334.83c-3,0-5.1,3.85-1.63,6.85H465.9V343H409.59a1.45,1.45,0,0,1-1.46-1.45v-6.64a1.46,1.46,0,0,1,1.46-1.46h56.29v1.35Z" transform="translate(171.14 4638.617)" fill="#1565ae"/>
    <g id="Grupo_93812" data-name="Grupo 93812" transform="translate(171.14 4638.617)">
      <path id="Trazado_189822" data-name="Trazado 189822" d="M445.75,334.84h20.13v-1.35H447.27A3.4,3.4,0,0,0,445.75,334.84Z" fill="#036e91"/>
      <path id="Trazado_189823" data-name="Trazado 189823" d="M444,341.37H416.8a6,6,0,0,1-6-6v-1.92h-1.25a1.46,1.46,0,0,0-1.46,1.46v6.64a1.45,1.45,0,0,0,1.46,1.45h56.29v-1.35H444.35Z" fill="#1b468f"/>
    </g>
    <path id="Trazado_189824" data-name="Trazado 189824" d="M442.55,338.26a3.43,3.43,0,0,0,3.43,3.42h19.9V343H446a4.78,4.78,0,1,1,0-9.55h19.9v1.35H446a3.44,3.44,0,0,0-3.45,3.46Z" transform="translate(171.14 4638.617)" fill="#628bd1"/>
    <rect id="Rectángulo_39549" data-name="Rectángulo 39549" width="1.28" height="9.55" transform="translate(599.45 4972.097)" fill="#fff"/>
    <rect id="Rectángulo_39550" data-name="Rectángulo 39550" width="1.28" height="9.55" transform="translate(596.24 4972.097)" fill="#fff"/>
    <path id="Trazado_189825" data-name="Trazado 189825" d="M432.37,338.77a2.78,2.78,0,1,1,2.77,2.77,2.78,2.78,0,0,1-2.77-2.77Z" transform="translate(171.14 4638.617)" fill="#fff"/>
    <g id="Grupo_93813" data-name="Grupo 93813" transform="translate(171.14 4638.617)">
      <path id="Trazado_189826" data-name="Trazado 189826" d="M456.3,336.21H445.83a.25.25,0,0,1-.25-.25h0a.25.25,0,0,1,.25-.26H456.3a.25.25,0,0,1,.26.26h0a.25.25,0,0,1-.26.25Z" fill="#e6e8f0"/>
      <path id="Trazado_189827" data-name="Trazado 189827" d="M463.83,341.1H452a.26.26,0,0,1-.26-.26h0a.26.26,0,0,1,.26-.26h11.88a.26.26,0,0,1,.25.26h0a.26.26,0,0,1-.3.26Z" fill="#e6e8f0"/>
      <path id="Trazado_189828" data-name="Trazado 189828" d="M456.3,338.71h-6.51a.26.26,0,0,1-.26-.26h0a.26.26,0,0,1,.26-.26h6.51a.26.26,0,0,1,.26.26h0A.26.26,0,0,1,456.3,338.71Z" fill="#e6e8f0"/>
      <path id="Trazado_189829" data-name="Trazado 189829" d="M448.5,338.71h-2.78a.26.26,0,0,1-.26-.26h0a.26.26,0,0,1,.26-.26h2.78a.26.26,0,0,1,.26.26h0a.26.26,0,0,1-.26.26Z" fill="#e6e8f0"/>
      <path id="Trazado_189830" data-name="Trazado 189830" d="M462.7,338.71h-2.79a.26.26,0,0,1-.26-.26h0a.26.26,0,0,1,.26-.26h2.79a.26.26,0,0,1,.25.26h0A.26.26,0,0,1,462.7,338.71Z" fill="#e6e8f0"/>
      <path id="Trazado_189831" data-name="Trazado 189831" d="M460.79,336.47h-.88a.26.26,0,0,1-.26-.26h0a.26.26,0,0,1,.26-.25h.88a.26.26,0,0,1,.26.25h0a.26.26,0,0,1-.26.26Z" fill="#e6e8f0"/>
      <path id="Trazado_189832" data-name="Trazado 189832" d="M450.59,341.1h-.88a.26.26,0,0,1-.26-.26h0a.26.26,0,0,1,.26-.26h.88a.26.26,0,0,1,.26.26h0A.26.26,0,0,1,450.59,341.1Z" fill="#e6e8f0"/>
      <path id="Trazado_189833" data-name="Trazado 189833" d="M465.22,338.71h-.88a.26.26,0,0,1-.26-.26h0a.26.26,0,0,1,.26-.26h.88a.26.26,0,0,1,.26.26h0A.26.26,0,0,1,465.22,338.71Z" fill="#e6e8f0"/>
    </g>
    <path id="Trazado_189834" data-name="Trazado 189834" d="M457.06,337.28v2.97l1.52-1.05,1.51,1.05v-2.97Z" transform="translate(171.14 4638.617)" fill="#c24e4e"/>
    <path id="Trazado_189835" data-name="Trazado 189835" d="M414.9,325.28v6.85h19.9a3.43,3.43,0,1,0,0-6.85Z" transform="translate(171.14 4638.617)" fill="#fff"/>
    <path id="Trazado_189836" data-name="Trazado 189836" d="M434.8,325.28c3,0,5.1,3.85,1.63,6.85H414.9v1.35h56.68a1.07,1.07,0,0,0,1.07-1.06V325a1.06,1.06,0,0,0-1.07-1.06H414.9v1.35Z" transform="translate(171.14 4638.617)" fill="#ffbc47"/>
    <g id="Grupo_93815" data-name="Grupo 93815" transform="translate(171.14 4638.617)">
      <path id="Trazado_189837" data-name="Trazado 189837" d="M435.73,325.41a3.4,3.4,0,0,0-2.61-1.22H414.9v1.09h19.9A3.121,3.121,0,0,1,435.73,325.41Z" fill="#ffb32e"/>
      <path id="Trazado_189838" data-name="Trazado 189838" d="M471.58,323.93H471v3.6a4.86,4.86,0,0,1-4.86,4.86H414.9v1.09h56.68a1.07,1.07,0,0,0,1.07-1.06V325a1.06,1.06,0,0,0-1.07-1.07Z" fill="#ffb129"/>
    </g>
    <path id="Trazado_189839" data-name="Trazado 189839" d="M438.23,328.7a3.44,3.44,0,0,1-3.43,3.43H414.9v1.35h19.9a4.78,4.78,0,1,0,0-9.55H414.9v1.35h19.9a3.43,3.43,0,0,1,3.43,3.42Z" transform="translate(171.14 4638.617)" fill="#ffcd75"/>
    <rect id="Rectángulo_39551" data-name="Rectángulo 39551" width="1.28" height="9.55" transform="translate(623.61 4972.097) rotate(180)" fill="#fff"/>
    <rect id="Rectángulo_39552" data-name="Rectángulo 39552" width="1.28" height="9.55" transform="translate(626.81 4972.097) rotate(180)" fill="#fff"/>
    <path id="Trazado_189840" data-name="Trazado 189840" d="M442.84,328.7a2.63,2.63,0,1,1,2.63,2.62,2.63,2.63,0,0,1-2.63-2.62Z" transform="translate(171.14 4638.617)" fill="#fff"/>
    <g id="Grupo_93816" data-name="Grupo 93816" transform="translate(171.14 4638.617)">
      <path id="Trazado_189841" data-name="Trazado 189841" d="M427.53,326.59H415.8a.25.25,0,0,1-.25-.26h0a.25.25,0,0,1,.25-.25h11.73a.25.25,0,0,1,.25.25h0a.25.25,0,0,1-.25.26Z" fill="#e6e8f0"/>
      <path id="Trazado_189842" data-name="Trazado 189842" d="M435.91,331.47h-13.3a.25.25,0,0,1-.25-.26h0a.25.25,0,0,1,.25-.25h13.3a.25.25,0,0,1,.25.25h0a.25.25,0,0,1-.25.26Z" fill="#e6e8f0"/>
      <path id="Trazado_189843" data-name="Trazado 189843" d="M427.53,329.08H420.2a.25.25,0,0,1-.25-.25h0a.25.25,0,0,1,.25-.26h7.33a.25.25,0,0,1,.25.26h0A.25.25,0,0,1,427.53,329.08Z" fill="#e6e8f0"/>
      <path id="Trazado_189844" data-name="Trazado 189844" d="M418.84,329.08h-3.17a.26.26,0,0,1-.26-.25h0a.26.26,0,0,1,.26-.26h3.17a.25.25,0,0,1,.25.26h0A.25.25,0,0,1,418.84,329.08Z" fill="#e6e8f0"/>
      <path id="Trazado_189845" data-name="Trazado 189845" d="M434.65,329.08h-3.17a.25.25,0,0,1-.25-.25h0a.25.25,0,0,1,.25-.26h3.17a.26.26,0,0,1,.26.26h0A.26.26,0,0,1,434.65,329.08Z" fill="#e6e8f0"/>
      <path id="Trazado_189846" data-name="Trazado 189846" d="M432.81,326.59h-1a.25.25,0,0,1-.26-.26h0a.25.25,0,0,1,.26-.25h1a.26.26,0,0,1,.26.25h0A.26.26,0,0,1,432.81,326.59Z" fill="#e6e8f0"/>
      <path id="Trazado_189847" data-name="Trazado 189847" d="M421.16,331.47h-1a.25.25,0,0,1-.26-.26h0a.25.25,0,0,1,.26-.25h1a.26.26,0,0,1,.26.25h0A.26.26,0,0,1,421.16,331.47Z" fill="#e6e8f0"/>
      <path id="Trazado_189848" data-name="Trazado 189848" d="M437.46,329.08h-1a.26.26,0,0,1-.26-.25h0a.26.26,0,0,1,.26-.26h1a.25.25,0,0,1,.26.26h0a.25.25,0,0,1-.26.25Z" fill="#e6e8f0"/>
    </g>
    <path id="Trazado_189849" data-name="Trazado 189849" d="M430.95,327.21v2.99l-1.34-1.06-1.34,1.06v-2.99Z" transform="translate(171.14 4638.617)" fill="#c24e4e"/>
    <path id="Trazado_189850" data-name="Trazado 189850" d="M462.5,323.69c-.29-.11-49.4.2-49.61-.11a6.28,6.28,0,0,1-2.85-2.64h0v-6.27h0a6.489,6.489,0,0,1,3.08-2.75h49.3C461.25,315.74,461.7,319.85,462.5,323.69Z" transform="translate(171.14 4638.617)" fill="#fff"/>
    <path id="Trazado_189851" data-name="Trazado 189851" d="M463.26,322.39a1,1,0,0,1-.68,1.63H414.7a6.379,6.379,0,0,1-2.48-.5l-.23-.1-.23-.12-.19-.1-.2-.12-.17-.1-.17-.12-.14-.1-.15-.12-.13-.1-.14-.12-.11-.1-.12-.12-.06-.05h-.05L410,322l-.1-.1-.1-.12-.09-.1-.09-.12-.08-.1a.831.831,0,0,1-.08-.12l-.08-.1-.07-.12a.608.608,0,0,1-.07-.1l-.07-.12-.06-.1h0a6.43,6.43,0,0,1,0-6.25h0l.06-.1a.752.752,0,0,1,.07-.12l.06-.1.08-.12.07-.1.09-.12a.853.853,0,0,1,.07-.1l.1-.12a.391.391,0,0,1,.08-.1l.1-.12.1-.1.11-.12.1-.1.12-.12.12-.1.13-.12.13-.1.15-.12.14-.1.17-.12.17-.1.19-.12.2-.11.23-.11.23-.1a6.229,6.229,0,0,1,2.49-.51h47.88a1,1,0,1,1,0,1.91H414.86a3.616,3.616,0,0,0-.47,0,3.871,3.871,0,0,0-.68.12l-.36.1a.8.8,0,0,0-.31.12l-.23.1-.23.12-.18.1-.18.12-.15.1-.15.12-.13.1-.13.12-.11.1-.11.12a.94.94,0,0,0-.1.1l-.1.12a.39.39,0,0,0-.08.1l-.09.12-.08.1-.07.12a.36.36,0,0,0-.07.1.743.743,0,0,1-.07.12.47.47,0,0,0,0,.1l-.06.12a.471.471,0,0,0-.05.1.61.61,0,0,0-.05.12l-.05.1v.34a.38.38,0,0,0,0,.1.271.271,0,0,0,0,.12v.1a.5.5,0,0,0,0,.12.36.36,0,0,0,0,.1s0,.08,0,.12a.34.34,0,0,0,0,.1.49.49,0,0,0,0,.12.34.34,0,0,0,0,.1.49.49,0,0,0,0,.12v.32a.49.49,0,0,0,0,.12.34.34,0,0,0,0,.1.49.49,0,0,0,0,.12v.76a.561.561,0,0,0,0,.12v.1a.611.611,0,0,0,0,.12.42.42,0,0,0,0,.1.608.608,0,0,0,.05.12.126.126,0,0,0,.05.1l.06.12.06.1a.751.751,0,0,0,.07.12l.06.1a.833.833,0,0,0,.08.12l.07.1.09.12.08.1.11.12.09.1.11.12.12.1.13.12.12.1.16.12.15.1.18.12.18.1.23.12.23.1.32.12.37.1a4.446,4.446,0,0,0,.73.12h48.11A1,1,0,0,1,463.26,322.39Z" transform="translate(171.14 4638.617)" fill="#ffa726"/>
    <path id="Trazado_189852" data-name="Trazado 189852" d="M438.85,315.57H414.26a.26.26,0,0,1-.26-.26h0a.26.26,0,0,1,.26-.25h24.59a.25.25,0,0,1,.25.25h0A.26.26,0,0,1,438.85,315.57Z" transform="translate(171.14 4638.617)" fill="#e6e8f0"/>
    <path id="Trazado_189853" data-name="Trazado 189853" d="M456,320.45H428.23a.26.26,0,0,1-.26-.26h0a.26.26,0,0,1,.26-.25H456a.26.26,0,0,1,.26.25h0A.26.26,0,0,1,456,320.45Z" transform="translate(171.14 4638.617)" fill="#e6e8f0"/>
    <path id="Trazado_189854" data-name="Trazado 189854" d="M438.85,318.06H423.29a.26.26,0,0,1-.26-.25h0a.26.26,0,0,1,.26-.26h15.56a.25.25,0,0,1,.25.26h0A.25.25,0,0,1,438.85,318.06Z" transform="translate(171.14 4638.617)" fill="#e6e8f0"/>
    <path id="Trazado_189855" data-name="Trazado 189855" d="M421,318.06h-7a.26.26,0,0,1-.26-.25h0a.26.26,0,0,1,.26-.26h7a.26.26,0,0,1,.26.26h0A.26.26,0,0,1,421,318.06Z" transform="translate(171.14 4638.617)" fill="#e6e8f0"/>
    <path id="Trazado_189856" data-name="Trazado 189856" d="M453.46,318.06h-7a.25.25,0,0,1-.26-.25h0a.25.25,0,0,1,.26-.26h7a.25.25,0,0,1,.25.26h0A.25.25,0,0,1,453.46,318.06Z" transform="translate(171.14 4638.617)" fill="#e6e8f0"/>
    <path id="Trazado_189857" data-name="Trazado 189857" d="M449.11,315.83h-2.68a.26.26,0,0,1-.26-.26h0a.26.26,0,0,1,.26-.26h2.68a.26.26,0,0,1,.25.26h0a.26.26,0,0,1-.25.26Z" transform="translate(171.14 4638.617)" fill="#e6e8f0"/>
    <path id="Trazado_189858" data-name="Trazado 189858" d="M425.79,320.45h-2.68a.26.26,0,0,1-.26-.26h0a.26.26,0,0,1,.26-.25h2.68a.25.25,0,0,1,.25.25h0a.25.25,0,0,1-.25.26Z" transform="translate(171.14 4638.617)" fill="#e6e8f0"/>
    <path id="Trazado_189859" data-name="Trazado 189859" d="M459.23,318.06h-2.68a.25.25,0,0,1-.25-.25h0a.25.25,0,0,1,.25-.26h2.68a.26.26,0,0,1,.26.26h0A.26.26,0,0,1,459.23,318.06Z" transform="translate(171.14 4638.617)" fill="#e6e8f0"/>
    <path id="Trazado_189860" data-name="Trazado 189860" d="M443.73,318.94l-1.6-.91-1.61.91v-3.88h3.21Z" transform="translate(171.14 4638.617)" fill="#c24e4e"/>
    <path id="Trazado_189861" data-name="Trazado 189861" d="M504,194.05h-5.18a.65.65,0,1,1,0-1.29H504a.65.65,0,0,1,0,1.29Zm-10.35,0h-5.18a.65.65,0,0,1,0-1.29h5.18a.65.65,0,0,1,0,1.29Zm-10.35,0h-5.18a.65.65,0,0,1,0-1.29h5.18a.65.65,0,0,1,0,1.29Zm-10.35,0h-5.18a.65.65,0,0,1,0-1.29h5.18a.65.65,0,1,1,0,1.29Zm-10.35,0h-5.17a.65.65,0,1,1,0-1.29h5.17a.65.65,0,1,1,0,1.29Zm-10.35,0H447a.65.65,0,1,1,0-1.29h5.17a.65.65,0,1,1,0,1.29Zm-10.35,0h-5.17a.65.65,0,1,1,0-1.29h5.17a.65.65,0,1,1,0,1.29Zm-10.35,0h-5.17a.65.65,0,1,1,0-1.29h5.17a.65.65,0,1,1,0,1.29Zm-10.34,0H416a.65.65,0,1,1,0-1.29h5.18a.65.65,0,0,1,0,1.29Zm-10.35,0h-5.18a.65.65,0,0,1,0-1.29h5.18a.65.65,0,0,1,0,1.29Zm-10.35,0h-5.18a.65.65,0,0,1,0-1.29h5.18a.65.65,0,0,1,0,1.29Zm106.17-2.49a.65.65,0,0,1-.65-.65v-5.17a.65.65,0,1,1,1.29,0v5.17a.65.65,0,0,1-.69.65Zm0-10.35a.65.65,0,0,1-.65-.65v-5.17a.65.65,0,1,1,1.29,0v5.17a.65.65,0,0,1-.69.65Zm0-10.35a.65.65,0,0,1-.65-.64V165a.65.65,0,1,1,1.29,0v5.18a.64.64,0,0,1-.69.68Zm0-10.35a.65.65,0,0,1-.65-.64v-5.18a.65.65,0,0,1,1.29,0v5.18a.64.64,0,0,1-.69.64Zm0-10.35a.64.64,0,0,1-.65-.64v-5.18a.65.65,0,0,1,1.29,0v5.18a.64.64,0,0,1-.69.64Zm0-10.34a.65.65,0,0,1-.65-.65V134a.65.65,0,0,1,1.29,0v5.18a.65.65,0,0,1-.69.64Zm0-10.35a.65.65,0,0,1-.65-.65v-5.17a.65.65,0,1,1,1.29,0v5.17a.65.65,0,0,1-.69.65Zm0-10.35a.65.65,0,0,1-.65-.65V113.3a.65.65,0,1,1,1.29,0v5.17a.65.65,0,0,1-.69.65Zm-.07-10.28h-5.18a.65.65,0,0,1,0-1.3h5.18a.65.65,0,0,1,0,1.3Zm-10.35,0H491a.65.65,0,1,1,0-1.3h5.18a.65.65,0,0,1,0,1.3Zm-10.35,0h-5.17a.65.65,0,1,1,0-1.3h5.17a.65.65,0,0,1,0,1.3Zm-10.35,0h-5.17a.65.65,0,0,1,0-1.3h5.17a.65.65,0,0,1,0,1.3Zm-10.35,0H460a.65.65,0,1,1,0-1.3h5.17a.65.65,0,0,1,0,1.3Zm-10.35,0h-5.17a.65.65,0,1,1,0-1.3h5.17a.65.65,0,0,1,0,1.3Zm-10.34,0h-5.18a.65.65,0,0,1,0-1.3h5.18a.65.65,0,0,1,0,1.3Zm-10.35,0h-5.18a.65.65,0,0,1,0-1.3h5.18a.65.65,0,0,1,0,1.3Zm-10.35,0h-5.18a.65.65,0,1,1,0-1.3h5.18a.65.65,0,0,1,0,1.3Zm-10.35,0h-5.18a.65.65,0,1,1,0-1.3h5.18a.65.65,0,0,1,0,1.3Zm-10.35,0H397.9a.65.65,0,0,1,0-1.3h5.17a.65.65,0,0,1,0,1.3Zm-10.35,0h-4.85a.65.65,0,1,1,0-1.3h4.85a.65.65,0,0,1,0,1.3Z" transform="translate(171.14 4638.617)" fill="#68c3ef"/>
    <path id="Trazado_189862" data-name="Trazado 189862" d="M256.74,146.13H223a6.16,6.16,0,0,0-6,6.32V174.7a6.16,6.16,0,0,0,6,6.32h33.71a6.16,6.16,0,0,0,6-6.32V152.45a6.16,6.16,0,0,0-5.97-6.32Z" transform="translate(171.14 4638.617)" fill="#f3a97c"/>
    <path id="Trazado_189863" data-name="Trazado 189863" d="M234.89,176.63h-3.08a3.08,3.08,0,0,1-3-3.14.28.28,0,0,1,0-.09c.06-.52.14-1.06.22-1.57.34-2.27.7-4.6-.19-6.51a8.08,8.08,0,0,0-1.4-1.44.69.69,0,0,1-.23-.52.65.65,0,0,1,.23-.52,9.86,9.86,0,0,0,1.42-1.48c1-1.8.5-4-.06-6.15a1.1,1.1,0,0,1,0-.18,3.07,3.07,0,0,1,3-3.15h3.1a.68.68,0,1,1,0,1.36h-3.1a1.74,1.74,0,0,0-1.69,1.7c.62,2.37,1.1,4.86-.09,7.09a7.251,7.251,0,0,1-1.15,1.32,5.559,5.559,0,0,1,1.16,1.37c1.07,2.3.68,4.85.31,7.32-.08.52-.15,1-.21,1.49a1.74,1.74,0,0,0,1.69,1.74h3.08a.68.68,0,0,1,0,1.36Z" transform="translate(171.14 4638.617)" fill="#fff"/>
    <path id="Trazado_189864" data-name="Trazado 189864" d="M249.45,176.63h-3.09a.68.68,0,0,1,0-1.36h3.09a1.75,1.75,0,0,0,1.69-1.74c-.06-.49-.14-1-.21-1.49-.38-2.47-.76-5,.3-7.32a6,6,0,0,1,1.16-1.37,6.79,6.79,0,0,1-1.14-1.32c-1.2-2.23-.71-4.72-.09-7.09a1.74,1.74,0,0,0-1.69-1.7h-3.11a.68.68,0,0,1,0-1.36h3.11a3.07,3.07,0,0,1,3,3.15.571.571,0,0,1,0,.18c-.56,2.12-1,4.35-.06,6.15a10.619,10.619,0,0,0,1.43,1.48.68.68,0,0,1,.23.52.66.66,0,0,1-.24.52,7.911,7.911,0,0,0-1.39,1.44c-.89,1.91-.54,4.24-.2,6.51.08.51.16,1,.23,1.57v.09a3.07,3.07,0,0,1-3.02,3.14ZM251.81,155.03Z" transform="translate(171.14 4638.617)" fill="#fff"/>
    <circle id="Elipse_7747" data-name="Elipse 7747" cx="10.99" cy="10.99" r="10.99" transform="translate(666.89 4818.587)" fill="#e3566a"/>
    <path id="Trazado_189865" data-name="Trazado 189865" d="M518.76,186.94a11,11,0,0,0-7-7.95,9.462,9.462,0,0,0-1.49-.44,10.917,10.917,0,0,0-1.51-.18.105.105,0,0,0,0,.21,11.93,11.93,0,0,1,2.55.71,10.93,10.93,0,0,1,2.33,1.26,11.15,11.15,0,0,1,3.34,3.91,10.94,10.94,0,0,1,1,2.71C518.06,187.7,518.87,187.47,518.76,186.94Z" transform="translate(171.14 4638.617)" fill="#e3566a"/>
    <path id="Trazado_189866" data-name="Trazado 189866" d="M519.41,191a5.3,5.3,0,0,0-.08-.8,3.533,3.533,0,0,0-.17-.73c-.1-.23-.21-.45-.31-.68s-.28-.07-.26.07a5.159,5.159,0,0,1,0,.68v2.16a.4.4,0,0,0,.34.38.37.37,0,0,0,.43-.28,3.57,3.57,0,0,0,.05-.8Z" transform="translate(171.14 4638.617)" fill="#e3566a"/>
    <path id="Trazado_189867" data-name="Trazado 189867" d="M498.75,187.7a10.079,10.079,0,0,1,1.67-.13,2.77,2.77,0,0,1,1.89.56,1.81,1.81,0,0,1,.59,1.41,2,2,0,0,1-.52,1.44,2.79,2.79,0,0,1-2.06.74,3,3,0,0,1-.7-.06v2.7h-.87Zm.87,3.25a2.918,2.918,0,0,0,.72.07c1.05,0,1.69-.51,1.69-1.44s-.63-1.32-1.59-1.32a3.65,3.65,0,0,0-.82.07Z" transform="translate(171.14 4638.617)" fill="#fff"/>
    <path id="Trazado_189868" data-name="Trazado 189868" d="M504.94,187.62v2.82h3.26v-2.82h.88v6.74h-.88V191.2h-3.26v3.16h-.87v-6.74Z" transform="translate(171.14 4638.617)" fill="#fff"/>
    <path id="Trazado_189869" data-name="Trazado 189869" d="M510.59,187.7a10.078,10.078,0,0,1,1.67-.13,2.77,2.77,0,0,1,1.89.56,1.81,1.81,0,0,1,.59,1.41,2,2,0,0,1-.52,1.44,2.79,2.79,0,0,1-2.06.74,3,3,0,0,1-.7-.06v2.7h-.87Zm.87,3.25a2.918,2.918,0,0,0,.72.07c1.05,0,1.69-.51,1.69-1.44s-.63-1.32-1.59-1.32a3.65,3.65,0,0,0-.82.07Z" transform="translate(171.14 4638.617)" fill="#fff"/>
    <circle id="Elipse_7748" data-name="Elipse 7748" cx="10.94" cy="10.94" r="10.94" transform="translate(659.5 4748.182) rotate(-45)" fill="#ffbc47"/>
    <path id="Trazado_189870" data-name="Trazado 189870" d="M507.76,96.53a10.93,10.93,0,0,1,7.91,6.94,8.149,8.149,0,0,1,.44,1.48,12.535,12.535,0,0,1,.19,1.5.11.11,0,0,1-.22,0,11.179,11.179,0,0,0-.7-2.53,10.219,10.219,0,0,0-1.26-2.32,11,11,0,0,0-3.89-3.33,10.8,10.8,0,0,0-2.69-1C507,97.23,507.23,96.42,507.76,96.53Z" transform="translate(171.14 4638.617)" fill="#ffbc47"/>
    <path id="Trazado_189871" data-name="Trazado 189871" d="M503.72,95.88a7,7,0,0,1,.79.08,3,3,0,0,1,.73.18c.23.09.45.2.68.3s.06.28-.07.26a5.3,5.3,0,0,0-.69,0h-2.14a.41.41,0,0,1-.39-.34.4.4,0,0,1,.28-.43,3.64,3.64,0,0,1,.81-.05Z" transform="translate(171.14 4638.617)" fill="#ffbc47"/>
    <path id="Trazado_189872" data-name="Trazado 189872" d="M495.85,107.07v2.09h2.41v-2.09h.65v5h-.65v-2.34h-2.41v2.34h-.65v-5Z" transform="translate(171.14 4638.617)" fill="#fff"/>
    <path id="Trazado_189873" data-name="Trazado 189873" d="M501,107.62h-1.52v-.55h3.7v.55h-1.53v4.44H501Z" transform="translate(171.14 4638.617)" fill="#fff"/>
    <path id="Trazado_189874" data-name="Trazado 189874" d="M507.92,109.87c0-.7-.08-1.53-.07-2.15h0c-.18.58-.38,1.2-.63,1.89l-.89,2.42h-.48l-.81-2.37c-.24-.71-.44-1.35-.58-1.94h0c0,.62-.05,1.45-.1,2.2l-.13,2.14h-.62l.35-5h.82l.85,2.42c.21.61.38,1.16.51,1.68h0a17.4,17.4,0,0,1,.53-1.68l.88-2.42h.83l.31,5h-.63Z" transform="translate(171.14 4638.617)" fill="#fff"/>
    <path id="Trazado_189875" data-name="Trazado 189875" d="M509.67,107.07h.65v4.45h2.13v.54h-2.78Z" transform="translate(171.14 4638.617)" fill="#fff"/>
    <circle id="Elipse_7749" data-name="Elipse 7749" cx="11.18" cy="11.18" r="11.18" transform="translate(606.181 4739.875) rotate(-22.5)" fill="#e3566a"/>
    <path id="Trazado_189876" data-name="Trazado 189876" d="M453.9,121.05a11.19,11.19,0,0,0,5-2.5A11.43,11.43,0,0,0,462,114a10.068,10.068,0,0,0,.45-1.51,14.729,14.729,0,0,0,.19-1.54.11.11,0,0,0-.22,0,12.3,12.3,0,0,1-.72,2.59,10.68,10.68,0,0,1-1.29,2.37,11.13,11.13,0,0,1-4,3.4,11.28,11.28,0,0,1-2.75,1C453.14,120.34,453.36,121.17,453.9,121.05Z" transform="translate(171.14 4638.617)" fill="#e3566a"/>
    <path id="Trazado_189877" data-name="Trazado 189877" d="M449.77,121.72a5.56,5.56,0,0,0,.81-.08,3.28,3.28,0,0,0,.75-.18c.23-.09.46-.21.69-.32s.06-.27-.07-.26a5.47,5.47,0,0,1-.7,0h-2.19a.4.4,0,0,0-.11.78,3.749,3.749,0,0,0,.82.06Z" transform="translate(171.14 4638.617)" fill="#e3566a"/>
    <path id="Trazado_189878" data-name="Trazado 189878" d="M444.65,110.81l-.89-1.54c-.36-.6-.59-1-.81-1.39h0c-.2.41-.4.78-.76,1.4l-.84,1.53h-1l2.14-3.54-2.06-3.46h1.05l.93,1.64c.26.46.45.81.64,1.19h0c.2-.42.38-.74.64-1.19l.95-1.64h1l-2.13,3.41,2.18,3.59Z" transform="translate(171.14 4638.617)" fill="#fff"/>
    <path id="Trazado_189879" data-name="Trazado 189879" d="M452.66,107.74c-.05-1-.11-2.15-.1-3h0c-.24.82-.53,1.7-.89,2.66l-1.23,3.4h-.69l-1.13-3.33a27.436,27.436,0,0,1-.81-2.73h0c0,.88-.07,2.05-.13,3.1l-.19,3h-.86l.49-7h1.15l1.2,3.39c.29.86.53,1.63.7,2.36h0a24.292,24.292,0,0,1,.73-2.36l1.25-3.39h1.15l.44,7h-.88Z" transform="translate(171.14 4638.617)" fill="#fff"/>
    <path id="Trazado_189880" data-name="Trazado 189880" d="M455.12,103.81h.9v6.25h3v.75h-3.9Z" transform="translate(171.14 4638.617)" fill="#fff"/>
    <circle id="Elipse_7750" data-name="Elipse 7750" cx="10.87" cy="10.87" r="10.87" transform="translate(556.33 4736.677)" fill="#69b0ff"/>
    <path id="Trazado_189881" data-name="Trazado 189881" d="M392.13,95.61A11,11,0,0,0,387.32,98a11.13,11.13,0,0,0-3.05,4.45,9.542,9.542,0,0,0-.44,1.47,15.011,15.011,0,0,0-.18,1.5.105.105,0,0,0,.21,0,11.637,11.637,0,0,1,.7-2.52,10.681,10.681,0,0,1,1.25-2.3,10.91,10.91,0,0,1,6.54-4.26C392.88,96.3,392.65,95.49,392.13,95.61Z" transform="translate(171.14 4638.617)" fill="#69b0ff"/>
    <path id="Trazado_189882" data-name="Trazado 189882" d="M396.15,95a5.161,5.161,0,0,0-.79.08,3.591,3.591,0,0,0-.72.17c-.23.09-.45.21-.68.31s-.06.27.07.25a5.147,5.147,0,0,1,.68,0h2.13a.39.39,0,0,0,.38-.34A.38.38,0,0,0,397,95a3.569,3.569,0,0,0-.85,0Z" transform="translate(171.14 4638.617)" fill="#69b0ff"/>
    <path id="Trazado_189883" data-name="Trazado 189883" d="M387.8,111.46l-1.28-5h.69l.6,2.55c.15.63.28,1.26.37,1.75h0c.08-.51.24-1.1.41-1.76l.67-2.54H390l.61,2.56c.14.6.28,1.2.35,1.73h0c.1-.55.24-1.12.4-1.75l.67-2.54h.67l-1.44,5h-.68l-.63-2.63a13.32,13.32,0,0,1-.33-1.65h0a15.745,15.745,0,0,1-.39,1.65l-.72,2.63Z" transform="translate(171.14 4638.617)" fill="#fff"/>
    <path id="Trazado_189884" data-name="Trazado 189884" d="M394.26,111.46l-1.28-5h.69l.6,2.55c.15.63.28,1.26.37,1.75h0c.08-.51.24-1.1.41-1.76l.68-2.54h.68L397,109c.14.6.28,1.2.35,1.73h0c.1-.55.25-1.12.4-1.75l.67-2.54h.67l-1.43,5H397l-.63-2.63a15.452,15.452,0,0,1-.33-1.65h0a15.738,15.738,0,0,1-.39,1.65l-.72,2.63Z" transform="translate(171.14 4638.617)" fill="#fff"/>
    <path id="Trazado_189885" data-name="Trazado 189885" d="M400.72,111.46l-1.28-5h.69l.6,2.55c.15.63.29,1.26.38,1.75h0c.08-.51.24-1.1.41-1.76l.68-2.54h.68l.61,2.56c.15.6.28,1.2.36,1.73h0c.11-.55.25-1.12.41-1.75l.66-2.54h.67l-1.43,5h-.68l-.64-2.63a15.461,15.461,0,0,1-.33-1.65h0c-.09.5-.2,1-.38,1.65l-.72,2.63Z" transform="translate(171.14 4638.617)" fill="#fff"/>
    <circle id="Elipse_7751" data-name="Elipse 7751" cx="10.87" cy="10.87" r="10.87" transform="translate(611.696 4823.793) rotate(-22.5)" fill="#69b0ff"/>
    <path id="Trazado_189886" data-name="Trazado 189886" d="M450.65,178a10.94,10.94,0,0,0-4.81,2.43,11.13,11.13,0,0,0-3,4.45,9.539,9.539,0,0,0-.44,1.47,12.531,12.531,0,0,0-.18,1.5.105.105,0,0,0,.21,0,11.642,11.642,0,0,1,.7-2.52,10.448,10.448,0,0,1,1.25-2.3,10.91,10.91,0,0,1,6.54-4.26C451.39,178.69,451.17,177.88,450.65,178Z" transform="translate(171.14 4638.617)" fill="#69b0ff"/>
    <path id="Trazado_189887" data-name="Trazado 189887" d="M454.67,177.35a6.819,6.819,0,0,0-.79.07,3.45,3.45,0,0,0-.72.18c-.24.09-.45.21-.68.31s-.06.27.07.25a5.1,5.1,0,0,1,.68,0h2.13a.4.4,0,0,0,.38-.34.38.38,0,0,0-.27-.42A3.569,3.569,0,0,0,454.67,177.35Z" transform="translate(171.14 4638.617)" fill="#69b0ff"/>
    <path id="Trazado_189888" data-name="Trazado 189888" d="M451.76,186h1.32v6.82c0,2.71-1.33,3.54-3.08,3.54a4.41,4.41,0,0,1-1.41-.24l.2-1.08a3,3,0,0,0,1.1.2c1.18,0,1.87-.53,1.87-2.52Z" transform="translate(171.14 4638.617)" fill="#fff"/>
    <path id="Trazado_189889" data-name="Trazado 189889" d="M455.09,194.55a4.69,4.69,0,0,0,2.36.66c1.35,0,2.13-.71,2.13-1.73s-.54-1.5-1.92-2C456,190.86,455,190,455,188.56a3.023,3.023,0,0,1,3.3-2.76,4.58,4.58,0,0,1,2.25.5l-.36,1.07a4.14,4.14,0,0,0-1.94-.48c-1.39,0-1.92.83-1.92,1.52,0,1,.62,1.42,2,2,1.72.66,2.6,1.49,2.6,3s-1.17,2.93-3.57,2.93a5.18,5.18,0,0,1-2.6-.65Z" transform="translate(171.14 4638.617)" fill="#fff"/>
    <circle id="Elipse_7752" data-name="Elipse 7752" cx="12.37" cy="12.37" r="12.37" transform="translate(557.08 4816.597)" fill="#ffbc47"/>
    <path id="Trazado_189890" data-name="Trazado 189890" d="M393.63,175.49a12.36,12.36,0,0,0-8.94,7.84,9.72,9.72,0,0,0-.5,1.67,14.093,14.093,0,0,0-.21,1.7.12.12,0,0,0,.24,0,13.585,13.585,0,0,1,.8-2.87,11.64,11.64,0,0,1,1.42-2.62,12.41,12.41,0,0,1,4.4-3.77,12.659,12.659,0,0,1,3-1.08C394.48,176.28,394.23,175.36,393.63,175.49Z" transform="translate(171.14 4638.617)" fill="#ffbc47"/>
    <path id="Trazado_189891" data-name="Trazado 189891" d="M398.2,174.75a6.537,6.537,0,0,0-.89.09,3.351,3.351,0,0,0-.83.2c-.26.1-.51.23-.76.35s-.08.31.07.29a5.09,5.09,0,0,1,.78,0h2.42a.46.46,0,0,0,.44-.38.45.45,0,0,0-.32-.49,4.619,4.619,0,0,0-.91-.06Z" transform="translate(171.14 4638.617)" fill="#ffbc47"/>
    <path id="Trazado_189892" data-name="Trazado 189892" d="M393.55,193.48a4.26,4.26,0,0,1-1.77.32,3.13,3.13,0,0,1-3.31-3.39,3.33,3.33,0,0,1,3.5-3.52,3.56,3.56,0,0,1,1.59.3l-.21.71a3.12,3.12,0,0,0-1.35-.28,2.49,2.49,0,0,0-2.61,2.76,2.43,2.43,0,0,0,2.57,2.69,3.44,3.44,0,0,0,1.41-.27Z" transform="translate(171.14 4638.617)" fill="#fff"/>
    <path id="Trazado_189893" data-name="Trazado 189893" d="M394.52,192.65a3,3,0,0,0,1.55.43c.88,0,1.4-.46,1.4-1.14s-.36-1-1.26-1.33c-1.1-.39-1.77-1-1.77-1.9a1.93,1.93,0,0,1,2.17-1.82,3,3,0,0,1,1.48.33l-.24.71a2.67,2.67,0,0,0-1.27-.32c-.92,0-1.27.54-1.27,1,0,.63.41.94,1.34,1.29,1.13.44,1.7,1,1.7,2s-.76,1.93-2.34,1.93a3.44,3.44,0,0,1-1.71-.43Z" transform="translate(171.14 4638.617)" fill="#fff"/>
    <path id="Trazado_189894" data-name="Trazado 189894" d="M399.42,192.65a3.07,3.07,0,0,0,1.55.43c.89,0,1.4-.46,1.4-1.14s-.35-1-1.26-1.33c-1.09-.39-1.77-1-1.77-1.9a1.94,1.94,0,0,1,2.17-1.82,3,3,0,0,1,1.48.33l-.24.71a2.67,2.67,0,0,0-1.27-.32c-.92,0-1.26.54-1.26,1,0,.63.4.94,1.33,1.29,1.13.44,1.71,1,1.71,2s-.77,1.93-2.35,1.93a3.47,3.47,0,0,1-1.71-.43Z" transform="translate(171.14 4638.617)" fill="#fff"/>
    <path id="Trazado_189895" data-name="Trazado 189895" d="M404.34,192.7a2.94,2.94,0,0,0,1.43.4c1.13,0,1.48-.71,1.47-1.25,0-.9-.83-1.29-1.67-1.29h-.49v-.66h.49c.63,0,1.44-.32,1.44-1.09,0-.52-.33-1-1.14-1a2.46,2.46,0,0,0-1.29.42l-.23-.63a3.08,3.08,0,0,1,1.69-.5c1.27,0,1.85.76,1.85,1.54a1.61,1.61,0,0,1-1.19,1.52h0a1.69,1.69,0,0,1,1.44,1.66c0,1-.81,1.94-2.36,1.94a3.29,3.29,0,0,1-1.68-.44Z" transform="translate(171.14 4638.617)" fill="#fff"/>
  </g>
</svg>
