<svg xmlns="http://www.w3.org/2000/svg" width="521.176" height="339.515" viewBox="0 0 521.176 339.515">
  <g id="Grupo_94324" data-name="Grupo 94324" transform="translate(-824.305 -5123.586)">
    <path id="Trazado_192266" data-name="Trazado 192266" d="M11.131-.8A8.566,8.566,0,0,1,6.8.208,6.267,6.267,0,0,1,2.27-1.382,5.783,5.783,0,0,1,.614-5.761a6.113,6.113,0,0,1,1.81-4.574A6.593,6.593,0,0,1,7.238-12.1a9.779,9.779,0,0,1,3.337.523v2.515a6.632,6.632,0,0,0-3.37-.8A3.618,3.618,0,0,0,4.487-8.778a3.979,3.979,0,0,0-1.05,2.893,3.991,3.991,0,0,0,.942,2.839,3.321,3.321,0,0,0,2.544,1A3.541,3.541,0,0,0,8.45-2.316V-4.64H6.068V-6.782h5.063Zm7.6-5.337a2.275,2.275,0,0,0-1.1-.257,1.59,1.59,0,0,0-1.336.627,2.734,2.734,0,0,0-.481,1.706V0H13.19V-8.5h2.623v1.577h.033a2.269,2.269,0,0,1,2.241-1.727,1.689,1.689,0,0,1,.647.1ZM26.857,0H24.375V-1.22h-.033A2.77,2.77,0,0,1,21.81.208a2.648,2.648,0,0,1-1.947-.7,2.513,2.513,0,0,1-.71-1.872q0-2.474,2.93-2.855l2.308-.307q0-1.395-1.511-1.395a5.157,5.157,0,0,0-2.889.9V-7.994a6.5,6.5,0,0,1,1.5-.5,7.876,7.876,0,0,1,1.731-.216q3.636,0,3.636,3.627ZM24.392-3.453v-.573l-1.544.2q-1.278.166-1.278,1.154a.953.953,0,0,0,.311.735,1.2,1.2,0,0,0,.843.286,1.553,1.553,0,0,0,1.2-.51A1.844,1.844,0,0,0,24.392-3.453Zm1.685-9.073-2.6,2.681H21.586l2.158-2.681Zm8.4,1.951a2.65,2.65,0,0,0-.971-.2q-1.262,0-1.262,1.37v.9h1.942v1.934H32.245V0H29.63V-6.566H28.2V-8.5H29.63V-9.554a3.06,3.06,0,0,1,.946-2.341,3.609,3.609,0,0,1,2.573-.888,4.519,4.519,0,0,1,1.328.166Zm2.3.73a1.532,1.532,0,0,1-1.087-.394,1.27,1.27,0,0,1-.423-.967,1.225,1.225,0,0,1,.423-.963,1.583,1.583,0,0,1,1.087-.374,1.579,1.579,0,0,1,1.092.374,1.231,1.231,0,0,1,.419.963,1.265,1.265,0,0,1-.419.979A1.558,1.558,0,0,1,36.777-9.845ZM38.072,0H35.449V-8.5h2.623Zm8.649-.307a5.186,5.186,0,0,1-2.565.515A4.338,4.338,0,0,1,40.985-.979a4.1,4.1,0,0,1-1.212-3.063,4.516,4.516,0,0,1,1.3-3.416,4.8,4.8,0,0,1,3.474-1.249,4.457,4.457,0,0,1,2.175.4v2.225A2.99,2.99,0,0,0,44.887-6.7a2.417,2.417,0,0,0-1.789.66,2.462,2.462,0,0,0-.66,1.822,2.422,2.422,0,0,0,.631,1.772A2.319,2.319,0,0,0,44.8-1.8a3.462,3.462,0,0,0,1.917-.614ZM55.512,0H53.03V-1.22H53A2.77,2.77,0,0,1,50.465.208a2.648,2.648,0,0,1-1.947-.7,2.513,2.513,0,0,1-.71-1.872q0-2.474,2.93-2.855l2.308-.307q0-1.395-1.511-1.395a5.157,5.157,0,0,0-2.889.9V-7.994a6.5,6.5,0,0,1,1.5-.5,7.876,7.876,0,0,1,1.731-.216q3.636,0,3.636,3.627ZM53.046-3.453v-.573l-1.544.2q-1.278.166-1.278,1.154a.953.953,0,0,0,.311.735,1.2,1.2,0,0,0,.843.286,1.553,1.553,0,0,0,1.2-.51A1.844,1.844,0,0,0,53.046-3.453Zm8.94,3V-3.113a5.1,5.1,0,0,0,1.569.909,5.043,5.043,0,0,0,1.71.3,3.792,3.792,0,0,0,.884-.091,2.071,2.071,0,0,0,.631-.253,1.1,1.1,0,0,0,.378-.382.953.953,0,0,0,.125-.477,1.032,1.032,0,0,0-.2-.623,2.144,2.144,0,0,0-.544-.506,5.681,5.681,0,0,0-.818-.448q-.473-.216-1.021-.44a5.211,5.211,0,0,1-2.079-1.419,3.1,3.1,0,0,1-.685-2.025,3.226,3.226,0,0,1,.374-1.6,3.172,3.172,0,0,1,1.017-1.1,4.559,4.559,0,0,1,1.49-.635,7.656,7.656,0,0,1,1.793-.2,10.784,10.784,0,0,1,1.648.112,6.48,6.48,0,0,1,1.324.344v2.482a4,4,0,0,0-.652-.365,5.163,5.163,0,0,0-.726-.261,5.54,5.54,0,0,0-.743-.154,5.258,5.258,0,0,0-.7-.05,3.658,3.658,0,0,0-.83.087,2.129,2.129,0,0,0-.631.245,1.218,1.218,0,0,0-.4.378.9.9,0,0,0-.141.494.943.943,0,0,0,.158.535,1.809,1.809,0,0,0,.448.448,4.757,4.757,0,0,0,.706.415q.415.2.938.419a10.452,10.452,0,0,1,1.282.635,4.559,4.559,0,0,1,.975.76,2.959,2.959,0,0,1,.623.967A3.417,3.417,0,0,1,70.1-3.345a3.391,3.391,0,0,1-.378,1.673A3.066,3.066,0,0,1,68.7-.577a4.445,4.445,0,0,1-1.507.6,8.707,8.707,0,0,1-1.814.183A10.085,10.085,0,0,1,63.518.042,5.625,5.625,0,0,1,61.986-.457ZM74.462-.988h-.033v4.9H71.806V-8.5h2.623v1.278h.033a3.083,3.083,0,0,1,2.731-1.486,3.072,3.072,0,0,1,2.552,1.133,4.824,4.824,0,0,1,.9,3.084A5.229,5.229,0,0,1,79.6-1.079,3.424,3.424,0,0,1,76.8.208,2.647,2.647,0,0,1,74.462-.988Zm-.075-3.486v.681a2.164,2.164,0,0,0,.465,1.436,1.513,1.513,0,0,0,1.22.556,1.608,1.608,0,0,0,1.39-.693,3.347,3.347,0,0,0,.494-1.963q0-2.241-1.743-2.241a1.637,1.637,0,0,0-1.316.61A2.433,2.433,0,0,0,74.388-4.474Zm13.505-1.66a2.275,2.275,0,0,0-1.1-.257,1.59,1.59,0,0,0-1.336.627,2.734,2.734,0,0,0-.481,1.706V0H82.348V-8.5h2.623v1.577H85a2.269,2.269,0,0,1,2.241-1.727,1.689,1.689,0,0,1,.647.1Zm2.615-3.71a1.532,1.532,0,0,1-1.087-.394A1.27,1.27,0,0,1,89-11.206a1.225,1.225,0,0,1,.423-.963,1.583,1.583,0,0,1,1.087-.374,1.579,1.579,0,0,1,1.092.374,1.231,1.231,0,0,1,.419.963,1.265,1.265,0,0,1-.419.979A1.558,1.558,0,0,1,90.508-9.845ZM91.8,0H89.18V-8.5H91.8ZM102.22,0H99.605V-4.723q0-1.976-1.411-1.976a1.4,1.4,0,0,0-1.121.523,1.992,1.992,0,0,0-.44,1.328V0H94.011V-8.5h2.623v1.345h.033A3.006,3.006,0,0,1,99.4-8.708q2.822,0,2.822,3.5Zm7.213-.1a3.877,3.877,0,0,1-1.751.307q-2.772,0-2.772-2.88V-6.566h-1.378V-8.5h1.378v-1.834l2.615-.747V-8.5h1.909v1.934h-1.909v3.437q0,1.328,1.054,1.328a1.777,1.777,0,0,0,.855-.241Zm6.425.1V-11.9h4.333a5.411,5.411,0,0,1,3.063.73,2.349,2.349,0,0,1,1.071,2.059,2.436,2.436,0,0,1-.652,1.685,3.423,3.423,0,0,1-1.664,1v.033a3.3,3.3,0,0,1,2.03.938,2.623,2.623,0,0,1,.76,1.9,3.177,3.177,0,0,1-1.17,2.594,4.9,4.9,0,0,1-3.2.959Zm2.681-9.928v2.822h1.179a1.965,1.965,0,0,0,1.307-.4,1.372,1.372,0,0,0,.477-1.108q0-1.312-1.959-1.312Zm0,4.814v3.138h1.453a2.236,2.236,0,0,0,1.457-.432,1.442,1.442,0,0,0,.527-1.179,1.345,1.345,0,0,0-.519-1.121,2.3,2.3,0,0,0-1.448-.407ZM134.577,0h-2.615V-1.295h-.042a2.966,2.966,0,0,1-2.6,1.5q-2.955,0-2.955-3.578V-8.5h2.615v4.9q0,1.8,1.428,1.8a1.412,1.412,0,0,0,1.129-.494,1.992,1.992,0,0,0,.423-1.341V-8.5h2.615Zm7.753-6.134a2.275,2.275,0,0,0-1.1-.257,1.59,1.59,0,0,0-1.336.627,2.734,2.734,0,0,0-.481,1.706V0h-2.623V-8.5h2.623v1.577h.033a2.269,2.269,0,0,1,2.241-1.727,1.689,1.689,0,0,1,.647.1ZM151.809,0h-2.615V-4.723q0-1.976-1.411-1.976a1.4,1.4,0,0,0-1.121.523,1.992,1.992,0,0,0-.44,1.328V0H143.6V-8.5h2.623v1.345h.033a3.006,3.006,0,0,1,2.731-1.552q2.822,0,2.822,3.5ZM162.2,0h-2.623V-1.17h-.033A2.941,2.941,0,0,1,156.914.208a3.223,3.223,0,0,1-2.565-1.125,4.656,4.656,0,0,1-.971-3.142,5.068,5.068,0,0,1,1.071-3.378,3.493,3.493,0,0,1,2.806-1.27,2.387,2.387,0,0,1,2.291,1.179h.033v-5.055H162.2Zm-2.573-4.134v-.639a2.011,2.011,0,0,0-.481-1.378,1.59,1.59,0,0,0-1.253-.548,1.58,1.58,0,0,0-1.361.685,3.18,3.18,0,0,0-.49,1.88,2.752,2.752,0,0,0,.473,1.727,1.571,1.571,0,0,0,1.312.606,1.577,1.577,0,0,0,1.3-.639A2.664,2.664,0,0,0,159.628-4.134ZM168.46.208a4.569,4.569,0,0,1-3.341-1.191A4.318,4.318,0,0,1,163.9-4.217a4.319,4.319,0,0,1,1.262-3.3,4.767,4.767,0,0,1,3.412-1.191,4.514,4.514,0,0,1,3.32,1.191,4.234,4.234,0,0,1,1.2,3.15,4.5,4.5,0,0,1-1.241,3.345A4.62,4.62,0,0,1,168.46.208Zm.066-6.906a1.75,1.75,0,0,0-1.444.639,2.819,2.819,0,0,0-.515,1.81q0,2.449,1.976,2.449,1.884,0,1.884-2.515Q170.428-6.7,168.527-6.7Zm18.585-1.8L184.663,0h-2.756l-1.253-4.98a5.07,5.07,0,0,1-.141-1.087h-.05a6.507,6.507,0,0,1-.166,1.054L178.953,0H176.23l-2.4-8.5H176.5l1.17,5.545a7.208,7.208,0,0,1,.125.946h.05A5.24,5.24,0,0,1,178-2.988L179.459-8.5h2.5l1.312,5.545a8.815,8.815,0,0,1,.116.963h.058a9.581,9.581,0,0,1,.133-.963l1.1-5.545ZM196.567,0h-2.615V-4.723q0-1.976-1.411-1.976a1.4,1.4,0,0,0-1.121.523,1.992,1.992,0,0,0-.44,1.328V0h-2.623V-8.5h2.623v1.345h.033a3.006,3.006,0,0,1,2.731-1.552q2.822,0,2.822,3.5Z" transform="translate(958.482 5136.369)" fill="#12263f"/>
    <path id="Trazado_192267" data-name="Trazado 192267" d="M2.434-3.705V0H1.285V-9.8H3.979a3.555,3.555,0,0,1,2.437.766,2.734,2.734,0,0,1,.865,2.16,2.971,2.971,0,0,1-.96,2.283,3.67,3.67,0,0,1-2.594.889Zm0-5.059v4.02h1.2a2.69,2.69,0,0,0,1.815-.543,1.924,1.924,0,0,0,.625-1.535q0-1.941-2.3-1.941ZM14.636,0H13.515V-1.107h-.027A2.3,2.3,0,0,1,11.327.164q-2.5,0-2.5-2.98V-7H9.939v4.006q0,2.215,1.7,2.215a1.715,1.715,0,0,0,1.35-.6,2.315,2.315,0,0,0,.53-1.583V-7h1.121Zm8.073,0H21.588V-3.992q0-2.229-1.627-2.229a1.765,1.765,0,0,0-1.391.632,2.344,2.344,0,0,0-.55,1.6V0H16.9V-7H18.02v1.162h.027a2.526,2.526,0,0,1,2.3-1.326,2.142,2.142,0,0,1,1.757.742,3.3,3.3,0,0,1,.608,2.143Zm5.359-.068A2.161,2.161,0,0,1,27.022.15Q25.184.15,25.184-1.9V-6.043h-1.2V-7h1.2V-8.709L26.3-9.071V-7h1.764v.957H26.3V-2.1a1.635,1.635,0,0,0,.239,1,.955.955,0,0,0,.793.3,1.179,1.179,0,0,0,.731-.232Zm4.283.232a3.247,3.247,0,0,1-2.478-.981,3.633,3.633,0,0,1-.926-2.6,3.785,3.785,0,0,1,.964-2.755,3.465,3.465,0,0,1,2.6-.991,3.14,3.14,0,0,1,2.444.964,3.822,3.822,0,0,1,.878,2.673,3.761,3.761,0,0,1-.947,2.683A3.317,3.317,0,0,1,32.351.164Zm.082-6.385a2.132,2.132,0,0,0-1.709.735A3.018,3.018,0,0,0,30.1-3.459,2.854,2.854,0,0,0,30.731-1.5a2.161,2.161,0,0,0,1.7.718,2.049,2.049,0,0,0,1.671-.7,3.055,3.055,0,0,0,.584-2A3.108,3.108,0,0,0,34.1-5.51,2.04,2.04,0,0,0,32.433-6.221ZM37.2-.253v-1.2a3.318,3.318,0,0,0,2.017.677q1.477,0,1.477-.984a.854.854,0,0,0-.126-.475,1.26,1.26,0,0,0-.342-.345,2.631,2.631,0,0,0-.506-.27q-.291-.12-.625-.25a8.056,8.056,0,0,1-.817-.373,2.468,2.468,0,0,1-.588-.424,1.577,1.577,0,0,1-.355-.537,1.9,1.9,0,0,1-.12-.7,1.673,1.673,0,0,1,.226-.872,2,2,0,0,1,.6-.636,2.805,2.805,0,0,1,.858-.386,3.805,3.805,0,0,1,.995-.13,4.016,4.016,0,0,1,1.627.314v1.135a3.171,3.171,0,0,0-1.777-.506,2.078,2.078,0,0,0-.567.072,1.389,1.389,0,0,0-.434.2.932.932,0,0,0-.28.311.819.819,0,0,0-.1.4.959.959,0,0,0,.1.458,1.008,1.008,0,0,0,.291.328,2.221,2.221,0,0,0,.465.26q.273.116.622.253a8.658,8.658,0,0,1,.834.366,2.86,2.86,0,0,1,.629.424,1.656,1.656,0,0,1,.4.543,1.753,1.753,0,0,1,.14.731,1.725,1.725,0,0,1-.229.9,1.963,1.963,0,0,1-.612.636,2.8,2.8,0,0,1-.882.376,4.354,4.354,0,0,1-1.046.123A3.971,3.971,0,0,1,37.2-.253ZM53.379,0H52.257V-1.189H52.23A2.588,2.588,0,0,1,49.824.164a2.615,2.615,0,0,1-2.109-.94,3.856,3.856,0,0,1-.79-2.56A4.2,4.2,0,0,1,47.8-6.118a2.886,2.886,0,0,1,2.331-1.046,2.244,2.244,0,0,1,2.1,1.135h.027v-4.334h1.121ZM52.257-3.165V-4.2A2,2,0,0,0,51.7-5.633a1.88,1.88,0,0,0-1.422-.588,1.936,1.936,0,0,0-1.613.752,3.3,3.3,0,0,0-.588,2.078,2.964,2.964,0,0,0,.564,1.911,1.843,1.843,0,0,0,1.514.7,1.915,1.915,0,0,0,1.521-.677A2.521,2.521,0,0,0,52.257-3.165Zm9.017-.055H56.332a2.618,2.618,0,0,0,.629,1.8,2.168,2.168,0,0,0,1.654.636,3.439,3.439,0,0,0,2.174-.779V-.506a4.063,4.063,0,0,1-2.44.67A2.959,2.959,0,0,1,56.017-.79a3.9,3.9,0,0,1-.848-2.683A3.828,3.828,0,0,1,56.1-6.135a2.97,2.97,0,0,1,2.3-1.029,2.632,2.632,0,0,1,2.126.889,3.705,3.705,0,0,1,.752,2.468Zm-1.148-.95a2.281,2.281,0,0,0-.468-1.511,1.6,1.6,0,0,0-1.282-.54,1.811,1.811,0,0,0-1.347.567,2.575,2.575,0,0,0-.684,1.483ZM72.615,0H71.494V-4.033q0-2.188-1.627-2.187a1.774,1.774,0,0,0-1.381.632,2.356,2.356,0,0,0-.561,1.624V0H66.8V-10.363h1.121v4.525h.027a2.546,2.546,0,0,1,2.3-1.326q2.365,0,2.365,2.851ZM75.3-8.777a.71.71,0,0,1-.513-.205.692.692,0,0,1-.212-.52.7.7,0,0,1,.212-.523.7.7,0,0,1,.513-.208.724.724,0,0,1,.523.208.7.7,0,0,1,.215.523.693.693,0,0,1-.215.513A.718.718,0,0,1,75.3-8.777ZM75.848,0H74.727V-7h1.121Zm1.846-.253v-1.2a3.318,3.318,0,0,0,2.017.677q1.477,0,1.477-.984a.854.854,0,0,0-.126-.475,1.26,1.26,0,0,0-.342-.345,2.631,2.631,0,0,0-.506-.27q-.291-.12-.625-.25a8.056,8.056,0,0,1-.817-.373,2.468,2.468,0,0,1-.588-.424,1.577,1.577,0,0,1-.355-.537,1.9,1.9,0,0,1-.12-.7,1.673,1.673,0,0,1,.226-.872,2,2,0,0,1,.6-.636,2.805,2.805,0,0,1,.858-.386,3.805,3.805,0,0,1,.995-.13,4.016,4.016,0,0,1,1.627.314v1.135a3.171,3.171,0,0,0-1.777-.506,2.078,2.078,0,0,0-.567.072,1.389,1.389,0,0,0-.434.2.932.932,0,0,0-.28.311.819.819,0,0,0-.1.4.959.959,0,0,0,.1.458,1.008,1.008,0,0,0,.291.328,2.221,2.221,0,0,0,.465.26q.273.116.622.253a8.658,8.658,0,0,1,.834.366,2.86,2.86,0,0,1,.629.424,1.656,1.656,0,0,1,.4.543,1.753,1.753,0,0,1,.14.731,1.725,1.725,0,0,1-.229.9,1.963,1.963,0,0,1-.612.636,2.8,2.8,0,0,1-.882.376,4.354,4.354,0,0,1-1.046.123A3.971,3.971,0,0,1,77.694-.253Zm9.611.185A2.161,2.161,0,0,1,86.259.15Q84.421.15,84.421-1.9V-6.043h-1.2V-7h1.2V-8.709l1.121-.362V-7h1.764v.957H85.542V-2.1a1.635,1.635,0,0,0,.239,1,.955.955,0,0,0,.793.3,1.179,1.179,0,0,0,.731-.232Zm4.283.232A3.247,3.247,0,0,1,89.11-.817a3.633,3.633,0,0,1-.926-2.6,3.785,3.785,0,0,1,.964-2.755,3.465,3.465,0,0,1,2.6-.991A3.14,3.14,0,0,1,94.2-6.2a3.822,3.822,0,0,1,.878,2.673,3.761,3.761,0,0,1-.947,2.683A3.317,3.317,0,0,1,91.588.164Zm.082-6.385a2.132,2.132,0,0,0-1.709.735,3.018,3.018,0,0,0-.629,2.027A2.854,2.854,0,0,0,89.968-1.5a2.161,2.161,0,0,0,1.7.718,2.049,2.049,0,0,0,1.671-.7,3.055,3.055,0,0,0,.584-2,3.108,3.108,0,0,0-.584-2.023A2.04,2.04,0,0,0,91.67-6.221Zm8.846.355a1.371,1.371,0,0,0-.848-.226,1.431,1.431,0,0,0-1.2.677,3.129,3.129,0,0,0-.482,1.846V0H96.866V-7h1.121v1.442h.027a2.444,2.444,0,0,1,.731-1.152,1.668,1.668,0,0,1,1.1-.414,1.83,1.83,0,0,1,.67.1Zm1.791-2.912a.71.71,0,0,1-.513-.205.692.692,0,0,1-.212-.52.7.7,0,0,1,.212-.523.7.7,0,0,1,.513-.208.724.724,0,0,1,.523.208.7.7,0,0,1,.215.523.693.693,0,0,1-.215.513A.718.718,0,0,1,102.307-8.777ZM102.854,0h-1.121V-7h1.121Zm7.28,0h-1.121V-1.094h-.027A2.347,2.347,0,0,1,106.832.164,2.3,2.3,0,0,1,105.2-.39a1.918,1.918,0,0,1-.591-1.47q0-1.962,2.311-2.283l2.1-.294q0-1.784-1.442-1.784a3.446,3.446,0,0,0-2.283.861V-6.508a4.338,4.338,0,0,1,2.379-.656q2.468,0,2.468,2.611Zm-1.121-3.541-1.688.232a2.741,2.741,0,0,0-1.176.386,1.114,1.114,0,0,0-.4.981,1.068,1.068,0,0,0,.366.837,1.413,1.413,0,0,0,.974.325,1.8,1.8,0,0,0,1.377-.584,2.088,2.088,0,0,0,.543-1.48ZM119.54-9.379a1.493,1.493,0,0,0-.745-.185q-1.176,0-1.176,1.483V-7h1.641v.957h-1.641V0h-1.114V-6.043h-1.2V-7h1.2V-8.135a2.358,2.358,0,0,1,.636-1.74,2.146,2.146,0,0,1,1.586-.639,2.2,2.2,0,0,1,.813.123Zm1.5.6a.71.71,0,0,1-.513-.205.692.692,0,0,1-.212-.52.7.7,0,0,1,.212-.523.7.7,0,0,1,.513-.208.724.724,0,0,1,.523.208.7.7,0,0,1,.215.523.693.693,0,0,1-.215.513A.718.718,0,0,1,121.037-8.777ZM121.584,0h-1.121V-7h1.121Zm8.08,0h-1.121V-3.992q0-2.229-1.627-2.229a1.765,1.765,0,0,0-1.391.632,2.344,2.344,0,0,0-.55,1.6V0h-1.121V-7h1.121v1.162H125a2.526,2.526,0,0,1,2.3-1.326,2.142,2.142,0,0,1,1.757.742,3.3,3.3,0,0,1,.608,2.143Zm7.123,0h-1.121V-1.094h-.027A2.347,2.347,0,0,1,133.486.164a2.3,2.3,0,0,1-1.637-.554,1.918,1.918,0,0,1-.591-1.47q0-1.962,2.311-2.283l2.1-.294q0-1.784-1.442-1.784a3.446,3.446,0,0,0-2.283.861V-6.508a4.338,4.338,0,0,1,2.379-.656q2.468,0,2.468,2.611Zm-1.121-3.541-1.688.232a2.741,2.741,0,0,0-1.176.386,1.114,1.114,0,0,0-.4.981,1.068,1.068,0,0,0,.366.837,1.413,1.413,0,0,0,.974.325,1.8,1.8,0,0,0,1.377-.584,2.088,2.088,0,0,0,.543-1.48ZM140.021,0H138.9V-10.363h1.121Zm2.844-8.777a.71.71,0,0,1-.513-.205.692.692,0,0,1-.212-.52.7.7,0,0,1,.212-.523.7.7,0,0,1,.513-.208.724.724,0,0,1,.523.208.7.7,0,0,1,.215.523.693.693,0,0,1-.215.513A.718.718,0,0,1,142.865-8.777ZM143.411,0H142.29V-7h1.121Zm7.15-6.679L146.419-.957h4.1V0h-5.749V-.349l4.143-5.694h-3.753V-7h5.4ZM157.022,0H155.9V-1.094h-.027A2.347,2.347,0,0,1,153.72.164a2.3,2.3,0,0,1-1.637-.554,1.918,1.918,0,0,1-.591-1.47q0-1.962,2.311-2.283l2.1-.294q0-1.784-1.442-1.784a3.446,3.446,0,0,0-2.283.861V-6.508a4.338,4.338,0,0,1,2.379-.656q2.468,0,2.468,2.611ZM155.9-3.541l-1.688.232a2.741,2.741,0,0,0-1.176.386,1.114,1.114,0,0,0-.4.981,1.068,1.068,0,0,0,.366.837,1.413,1.413,0,0,0,.974.325,1.8,1.8,0,0,0,1.377-.584,2.088,2.088,0,0,0,.543-1.48ZM165.109,0h-1.121V-1.189h-.027A2.588,2.588,0,0,1,161.554.164a2.615,2.615,0,0,1-2.109-.94,3.856,3.856,0,0,1-.79-2.56,4.2,4.2,0,0,1,.875-2.782,2.886,2.886,0,0,1,2.331-1.046,2.244,2.244,0,0,1,2.1,1.135h.027v-4.334h1.121Zm-1.121-3.165V-4.2a2,2,0,0,0-.561-1.436,1.88,1.88,0,0,0-1.422-.588,1.936,1.936,0,0,0-1.613.752,3.3,3.3,0,0,0-.588,2.078,2.964,2.964,0,0,0,.564,1.911,1.843,1.843,0,0,0,1.514.7,1.915,1.915,0,0,0,1.521-.677A2.521,2.521,0,0,0,163.988-3.165ZM170.3.164a3.247,3.247,0,0,1-2.478-.981,3.634,3.634,0,0,1-.926-2.6,3.785,3.785,0,0,1,.964-2.755,3.465,3.465,0,0,1,2.6-.991,3.14,3.14,0,0,1,2.444.964,3.822,3.822,0,0,1,.878,2.673,3.761,3.761,0,0,1-.947,2.683A3.317,3.317,0,0,1,170.3.164Zm.082-6.385a2.132,2.132,0,0,0-1.709.735,3.018,3.018,0,0,0-.629,2.027,2.854,2.854,0,0,0,.636,1.962,2.161,2.161,0,0,0,1.7.718,2.049,2.049,0,0,0,1.671-.7,3.055,3.055,0,0,0,.584-2,3.108,3.108,0,0,0-.584-2.023A2.04,2.04,0,0,0,170.386-6.221Zm4.771,5.968v-1.2a3.318,3.318,0,0,0,2.017.677q1.477,0,1.477-.984a.854.854,0,0,0-.126-.475,1.26,1.26,0,0,0-.342-.345,2.631,2.631,0,0,0-.506-.27q-.291-.12-.625-.25a8.056,8.056,0,0,1-.817-.373,2.468,2.468,0,0,1-.588-.424,1.577,1.577,0,0,1-.355-.537,1.9,1.9,0,0,1-.12-.7,1.673,1.673,0,0,1,.226-.872,2,2,0,0,1,.6-.636,2.805,2.805,0,0,1,.858-.386,3.805,3.805,0,0,1,.995-.13,4.016,4.016,0,0,1,1.627.314v1.135a3.171,3.171,0,0,0-1.777-.506,2.078,2.078,0,0,0-.567.072,1.389,1.389,0,0,0-.434.2.932.932,0,0,0-.28.311.819.819,0,0,0-.1.4.959.959,0,0,0,.1.458,1.008,1.008,0,0,0,.291.328,2.221,2.221,0,0,0,.465.26q.273.116.622.253a8.658,8.658,0,0,1,.834.366,2.86,2.86,0,0,1,.629.424,1.656,1.656,0,0,1,.4.543,1.753,1.753,0,0,1,.14.731,1.725,1.725,0,0,1-.229.9,1.963,1.963,0,0,1-.612.636,2.8,2.8,0,0,1-.882.376,4.354,4.354,0,0,1-1.046.123A3.971,3.971,0,0,1,175.158-.253ZM6.371,17H1.285V7.2H2.434v8.764H6.371Zm2.475,0H7.725V10H8.846Zm1-10.568L8.06,8.674H7.191L8.716,6.432ZM16.926,17H15.8V13.008q0-2.229-1.627-2.229a1.765,1.765,0,0,0-1.391.632,2.344,2.344,0,0,0-.55,1.6V17H11.115V10h1.121v1.162h.027a2.526,2.526,0,0,1,2.3-1.326,2.142,2.142,0,0,1,1.757.742,3.3,3.3,0,0,1,.608,2.143Zm7.738-3.22H19.722a2.618,2.618,0,0,0,.629,1.8A2.168,2.168,0,0,0,22,16.221a3.439,3.439,0,0,0,2.174-.779v1.053a4.063,4.063,0,0,1-2.44.67,2.959,2.959,0,0,1-2.331-.954,3.9,3.9,0,0,1-.848-2.683,3.828,3.828,0,0,1,.926-2.663,2.97,2.97,0,0,1,2.3-1.029,2.632,2.632,0,0,1,2.126.889,3.705,3.705,0,0,1,.752,2.468Zm-1.148-.95a2.281,2.281,0,0,0-.468-1.511,1.6,1.6,0,0,0-1.282-.54,1.811,1.811,0,0,0-1.347.567,2.575,2.575,0,0,0-.684,1.483ZM31.37,17H30.249V15.906h-.027a2.347,2.347,0,0,1-2.153,1.258,2.3,2.3,0,0,1-1.637-.554,1.918,1.918,0,0,1-.591-1.47q0-1.962,2.311-2.283l2.1-.294q0-1.784-1.442-1.784a3.446,3.446,0,0,0-2.283.861V10.492A4.338,4.338,0,0,1,28.9,9.836q2.468,0,2.468,2.611Zm-1.121-3.541-1.688.232a2.741,2.741,0,0,0-1.176.386,1.114,1.114,0,0,0-.4.981,1.068,1.068,0,0,0,.366.837,1.413,1.413,0,0,0,.974.325,1.8,1.8,0,0,0,1.377-.584,2.088,2.088,0,0,0,.543-1.48Zm7.643-5.236a.71.71,0,0,1-.513-.205.692.692,0,0,1-.212-.52.718.718,0,0,1,.725-.731.724.724,0,0,1,.523.208.73.73,0,0,1,0,1.036A.718.718,0,0,1,37.892,8.223ZM38.438,17H37.317V10h1.121Zm8.244,0H45.562V15.811h-.027a2.588,2.588,0,0,1-2.406,1.354,2.615,2.615,0,0,1-2.109-.94,3.856,3.856,0,0,1-.79-2.56,4.2,4.2,0,0,1,.875-2.782,2.886,2.886,0,0,1,2.331-1.046,2.244,2.244,0,0,1,2.1,1.135h.027V6.637h1.121Zm-1.121-3.165V12.8A2,2,0,0,0,45,11.367a1.88,1.88,0,0,0-1.422-.588,1.936,1.936,0,0,0-1.613.752,3.3,3.3,0,0,0-.588,2.078,2.964,2.964,0,0,0,.564,1.911,1.843,1.843,0,0,0,1.514.7,1.915,1.915,0,0,0,1.521-.677A2.521,2.521,0,0,0,45.562,13.835Zm9.017-.055H49.636a2.618,2.618,0,0,0,.629,1.8,2.168,2.168,0,0,0,1.654.636,3.439,3.439,0,0,0,2.174-.779v1.053a4.063,4.063,0,0,1-2.44.67,2.959,2.959,0,0,1-2.331-.954,3.9,3.9,0,0,1-.848-2.683,3.828,3.828,0,0,1,.926-2.663,2.97,2.97,0,0,1,2.3-1.029,2.632,2.632,0,0,1,2.126.889,3.705,3.705,0,0,1,.752,2.468Zm-1.148-.95a2.281,2.281,0,0,0-.468-1.511,1.6,1.6,0,0,0-1.282-.54,1.811,1.811,0,0,0-1.347.567,2.575,2.575,0,0,0-.684,1.483ZM61.284,17H60.163V15.906h-.027a2.347,2.347,0,0,1-2.153,1.258,2.3,2.3,0,0,1-1.637-.554,1.918,1.918,0,0,1-.591-1.47q0-1.962,2.311-2.283l2.1-.294q0-1.784-1.442-1.784a3.446,3.446,0,0,0-2.283.861V10.492a4.338,4.338,0,0,1,2.379-.656q2.468,0,2.468,2.611Zm-1.121-3.541-1.688.232a2.741,2.741,0,0,0-1.176.386,1.114,1.114,0,0,0-.4.981,1.068,1.068,0,0,0,.366.837,1.413,1.413,0,0,0,.974.325,1.8,1.8,0,0,0,1.377-.584,2.088,2.088,0,0,0,.543-1.48ZM64.518,17H63.4V6.637h1.121ZM1.285,34V24.2H3.992q5.182,0,5.182,4.778a4.815,4.815,0,0,1-1.439,3.647A5.338,5.338,0,0,1,3.883,34Zm1.148-8.764v7.725H3.9a4.152,4.152,0,0,0,3-1.032A3.869,3.869,0,0,0,7.971,29q0-3.767-4.006-3.767ZM16.577,30.78H11.635a2.618,2.618,0,0,0,.629,1.8,2.168,2.168,0,0,0,1.654.636,3.439,3.439,0,0,0,2.174-.779v1.053a4.063,4.063,0,0,1-2.44.67,2.959,2.959,0,0,1-2.331-.954,3.9,3.9,0,0,1-.848-2.683,3.828,3.828,0,0,1,.926-2.663,2.97,2.97,0,0,1,2.3-1.029,2.632,2.632,0,0,1,2.126.889,3.705,3.705,0,0,1,.752,2.468Zm-1.148-.95a2.281,2.281,0,0,0-.468-1.511,1.6,1.6,0,0,0-1.282-.54,1.811,1.811,0,0,0-1.347.567,2.575,2.575,0,0,0-.684,1.483Zm2.42,3.917v-1.2a3.318,3.318,0,0,0,2.017.677q1.477,0,1.477-.984a.854.854,0,0,0-.126-.475,1.26,1.26,0,0,0-.342-.345,2.631,2.631,0,0,0-.506-.27q-.291-.12-.625-.25a8.056,8.056,0,0,1-.817-.373,2.468,2.468,0,0,1-.588-.424,1.577,1.577,0,0,1-.355-.537,1.9,1.9,0,0,1-.12-.7,1.673,1.673,0,0,1,.226-.872,2,2,0,0,1,.6-.636,2.805,2.805,0,0,1,.858-.386,3.805,3.805,0,0,1,.995-.13,4.016,4.016,0,0,1,1.627.314v1.135a3.171,3.171,0,0,0-1.777-.506,2.078,2.078,0,0,0-.567.072,1.389,1.389,0,0,0-.434.2.932.932,0,0,0-.28.311.819.819,0,0,0-.1.4.959.959,0,0,0,.1.458,1.008,1.008,0,0,0,.291.328,2.221,2.221,0,0,0,.465.26q.273.116.622.253a8.658,8.658,0,0,1,.834.366,2.86,2.86,0,0,1,.629.424,1.656,1.656,0,0,1,.4.543,1.753,1.753,0,0,1,.14.731,1.725,1.725,0,0,1-.229.9,1.963,1.963,0,0,1-.612.636,2.8,2.8,0,0,1-.882.376,4.354,4.354,0,0,1-1.046.123A3.971,3.971,0,0,1,17.849,33.747ZM29.224,34H28.1V32.906h-.027a2.347,2.347,0,0,1-2.153,1.258,2.3,2.3,0,0,1-1.637-.554,1.918,1.918,0,0,1-.591-1.47q0-1.962,2.311-2.283l2.1-.294q0-1.784-1.442-1.784a3.446,3.446,0,0,0-2.283.861V27.492a4.338,4.338,0,0,1,2.379-.656q2.468,0,2.468,2.611ZM28.1,30.459l-1.688.232a2.741,2.741,0,0,0-1.176.386,1.114,1.114,0,0,0-.4.981,1.068,1.068,0,0,0,.366.837,1.413,1.413,0,0,0,.974.325,1.8,1.8,0,0,0,1.377-.584,2.088,2.088,0,0,0,.543-1.48Zm6.884-2.324a1.371,1.371,0,0,0-.848-.226,1.431,1.431,0,0,0-1.2.677,3.129,3.129,0,0,0-.482,1.846V34H31.336V27h1.121v1.442h.027a2.444,2.444,0,0,1,.731-1.152,1.668,1.668,0,0,1,1.1-.414,1.83,1.83,0,0,1,.67.1Zm4.867,0a1.371,1.371,0,0,0-.848-.226,1.431,1.431,0,0,0-1.2.677,3.129,3.129,0,0,0-.482,1.846V34H36.2V27h1.121v1.442h.027a2.444,2.444,0,0,1,.731-1.152,1.668,1.668,0,0,1,1.1-.414,1.83,1.83,0,0,1,.67.1Zm4,6.029a3.247,3.247,0,0,1-2.478-.981,3.634,3.634,0,0,1-.926-2.6,3.785,3.785,0,0,1,.964-2.755,3.465,3.465,0,0,1,2.6-.991,3.14,3.14,0,0,1,2.444.964,3.822,3.822,0,0,1,.878,2.673,3.761,3.761,0,0,1-.947,2.683A3.318,3.318,0,0,1,43.856,34.164Zm.082-6.385a2.132,2.132,0,0,0-1.709.735,3.018,3.018,0,0,0-.629,2.027,2.854,2.854,0,0,0,.636,1.962,2.161,2.161,0,0,0,1.7.718,2.049,2.049,0,0,0,1.671-.7,3.055,3.055,0,0,0,.584-2,3.108,3.108,0,0,0-.584-2.023A2.04,2.04,0,0,0,43.938,27.779ZM50.255,34H49.133V23.637h1.121Zm3.391,0H52.524V23.637h1.121Zm5.2.164a3.247,3.247,0,0,1-2.478-.981,3.634,3.634,0,0,1-.926-2.6,3.785,3.785,0,0,1,.964-2.755,3.465,3.465,0,0,1,2.6-.991,3.14,3.14,0,0,1,2.444.964,3.822,3.822,0,0,1,.878,2.673,3.761,3.761,0,0,1-.947,2.683A3.318,3.318,0,0,1,58.84,34.164Zm.082-6.385a2.132,2.132,0,0,0-1.709.735,3.018,3.018,0,0,0-.629,2.027A2.854,2.854,0,0,0,57.22,32.5a2.161,2.161,0,0,0,1.7.718,2.049,2.049,0,0,0,1.671-.7,3.055,3.055,0,0,0,.584-2,3.108,3.108,0,0,0-.584-2.023A2.04,2.04,0,0,0,58.923,27.779Zm12.681.355a1.371,1.371,0,0,0-.848-.226,1.431,1.431,0,0,0-1.2.677,3.129,3.129,0,0,0-.482,1.846V34H67.953V27h1.121v1.442H69.1a2.444,2.444,0,0,1,.731-1.152,1.668,1.668,0,0,1,1.1-.414,1.83,1.83,0,0,1,.67.1Zm6.7,2.646H73.364a2.618,2.618,0,0,0,.629,1.8,2.168,2.168,0,0,0,1.654.636,3.439,3.439,0,0,0,2.174-.779v1.053a4.063,4.063,0,0,1-2.44.67,2.959,2.959,0,0,1-2.331-.954,3.9,3.9,0,0,1-.848-2.683,3.828,3.828,0,0,1,.926-2.663,2.97,2.97,0,0,1,2.3-1.029,2.632,2.632,0,0,1,2.126.889,3.705,3.705,0,0,1,.752,2.468Zm-1.148-.95a2.281,2.281,0,0,0-.468-1.511,1.6,1.6,0,0,0-1.282-.54,1.811,1.811,0,0,0-1.347.567,2.575,2.575,0,0,0-.684,1.483ZM85.012,34H83.891V32.906h-.027a2.347,2.347,0,0,1-2.153,1.258,2.3,2.3,0,0,1-1.637-.554,1.918,1.918,0,0,1-.591-1.47q0-1.962,2.311-2.283l2.1-.294q0-1.784-1.442-1.784a3.446,3.446,0,0,0-2.283.861V27.492a4.338,4.338,0,0,1,2.379-.656q2.468,0,2.468,2.611Zm-1.121-3.541-1.688.232a2.741,2.741,0,0,0-1.176.386,1.114,1.114,0,0,0-.4.981A1.068,1.068,0,0,0,81,32.9a1.413,1.413,0,0,0,.974.325,1.8,1.8,0,0,0,1.377-.584,2.088,2.088,0,0,0,.543-1.48ZM88.245,34H87.124V23.637h1.121ZM6.371,51H1.285V41.2H2.434v8.764H6.371Zm2.475,0H7.725V44H8.846Zm1-10.568L8.06,42.674H7.191l1.524-2.242ZM16.926,51H15.8V47.008q0-2.229-1.627-2.229a1.765,1.765,0,0,0-1.391.632,2.344,2.344,0,0,0-.55,1.6V51H11.115V44h1.121v1.162h.027a2.526,2.526,0,0,1,2.3-1.326,2.142,2.142,0,0,1,1.757.742,3.3,3.3,0,0,1,.608,2.143Zm7.738-3.22H19.722a2.618,2.618,0,0,0,.629,1.8A2.168,2.168,0,0,0,22,50.221a3.439,3.439,0,0,0,2.174-.779v1.053a4.063,4.063,0,0,1-2.44.67,2.959,2.959,0,0,1-2.331-.954,3.9,3.9,0,0,1-.848-2.683,3.828,3.828,0,0,1,.926-2.663,2.97,2.97,0,0,1,2.3-1.029,2.632,2.632,0,0,1,2.126.889,3.705,3.705,0,0,1,.752,2.468Zm-1.148-.95a2.281,2.281,0,0,0-.468-1.511,1.6,1.6,0,0,0-1.282-.54,1.811,1.811,0,0,0-1.347.567,2.575,2.575,0,0,0-.684,1.483ZM31.37,51H30.249V49.906h-.027a2.347,2.347,0,0,1-2.153,1.258,2.3,2.3,0,0,1-1.637-.554,1.918,1.918,0,0,1-.591-1.47q0-1.962,2.311-2.283l2.1-.294q0-1.784-1.442-1.784a3.446,3.446,0,0,0-2.283.861V44.492a4.338,4.338,0,0,1,2.379-.656q2.468,0,2.468,2.611Zm-1.121-3.541-1.688.232a2.741,2.741,0,0,0-1.176.386,1.114,1.114,0,0,0-.4.981,1.068,1.068,0,0,0,.366.837,1.413,1.413,0,0,0,.974.325,1.8,1.8,0,0,0,1.377-.584,2.088,2.088,0,0,0,.543-1.48ZM43.292,51H42.171V49.811h-.027a2.588,2.588,0,0,1-2.406,1.354,2.615,2.615,0,0,1-2.109-.94,3.856,3.856,0,0,1-.79-2.56,4.2,4.2,0,0,1,.875-2.782,2.886,2.886,0,0,1,2.331-1.046,2.244,2.244,0,0,1,2.1,1.135h.027V40.637h1.121Zm-1.121-3.165V46.8a2,2,0,0,0-.561-1.436,1.88,1.88,0,0,0-1.422-.588,1.936,1.936,0,0,0-1.613.752,3.3,3.3,0,0,0-.588,2.078,2.964,2.964,0,0,0,.564,1.911,1.843,1.843,0,0,0,1.514.7,1.915,1.915,0,0,0,1.521-.677A2.521,2.521,0,0,0,42.171,47.835Zm9.017-.055H46.245a2.618,2.618,0,0,0,.629,1.8,2.168,2.168,0,0,0,1.654.636,3.439,3.439,0,0,0,2.174-.779v1.053a4.063,4.063,0,0,1-2.44.67,2.959,2.959,0,0,1-2.331-.954,3.9,3.9,0,0,1-.848-2.683,3.828,3.828,0,0,1,.926-2.663,2.97,2.97,0,0,1,2.3-1.029,2.632,2.632,0,0,1,2.126.889,3.705,3.705,0,0,1,.752,2.468Zm-1.148-.95a2.281,2.281,0,0,0-.468-1.511,1.6,1.6,0,0,0-1.282-.54,1.811,1.811,0,0,0-1.347.567,2.575,2.575,0,0,0-.684,1.483Zm9.926,4.1a2.162,2.162,0,0,1-1.046.219q-1.839,0-1.839-2.051V44.957h-1.2V44h1.2V42.291l1.121-.362V44h1.764v.957H58.2V48.9a1.635,1.635,0,0,0,.239,1,.955.955,0,0,0,.793.3,1.179,1.179,0,0,0,.731-.232Zm7.123-3.151H62.146a2.618,2.618,0,0,0,.629,1.8,2.168,2.168,0,0,0,1.654.636,3.439,3.439,0,0,0,2.174-.779v1.053a4.063,4.063,0,0,1-2.44.67,2.959,2.959,0,0,1-2.331-.954,3.9,3.9,0,0,1-.848-2.683,3.828,3.828,0,0,1,.926-2.663,2.97,2.97,0,0,1,2.3-1.029,2.632,2.632,0,0,1,2.126.889,3.705,3.705,0,0,1,.752,2.468Zm-1.148-.95a2.281,2.281,0,0,0-.468-1.511,1.6,1.6,0,0,0-1.282-.54,1.811,1.811,0,0,0-1.347.567,2.575,2.575,0,0,0-.684,1.483ZM74.594,51H73.473V47.008q0-2.229-1.627-2.229a1.765,1.765,0,0,0-1.391.632,2.344,2.344,0,0,0-.55,1.6V51H68.783V44H69.9v1.162h.027a2.526,2.526,0,0,1,2.3-1.326,2.142,2.142,0,0,1,1.757.742,3.3,3.3,0,0,1,.608,2.143Zm8.087,0H81.56V49.811h-.027a2.588,2.588,0,0,1-2.406,1.354,2.615,2.615,0,0,1-2.109-.94,3.856,3.856,0,0,1-.79-2.56,4.2,4.2,0,0,1,.875-2.782,2.886,2.886,0,0,1,2.331-1.046,2.244,2.244,0,0,1,2.1,1.135h.027V40.637h1.121ZM81.56,47.835V46.8A2,2,0,0,0,81,45.367a1.88,1.88,0,0,0-1.422-.588,1.936,1.936,0,0,0-1.613.752,3.3,3.3,0,0,0-.588,2.078,2.964,2.964,0,0,0,.564,1.911,1.843,1.843,0,0,0,1.514.7,1.915,1.915,0,0,0,1.521-.677A2.521,2.521,0,0,0,81.56,47.835Zm9.017-.055H85.634a2.618,2.618,0,0,0,.629,1.8,2.168,2.168,0,0,0,1.654.636,3.439,3.439,0,0,0,2.174-.779v1.053a4.063,4.063,0,0,1-2.44.67,2.959,2.959,0,0,1-2.331-.954,3.9,3.9,0,0,1-.848-2.683,3.828,3.828,0,0,1,.926-2.663,2.97,2.97,0,0,1,2.3-1.029,2.632,2.632,0,0,1,2.126.889,3.705,3.705,0,0,1,.752,2.468Zm-1.148-.95a2.281,2.281,0,0,0-.468-1.511,1.6,1.6,0,0,0-1.282-.54,1.811,1.811,0,0,0-1.347.567,2.575,2.575,0,0,0-.684,1.483ZM98.082,51H96.961V47.008q0-2.229-1.627-2.229a1.765,1.765,0,0,0-1.391.632,2.344,2.344,0,0,0-.55,1.6V51H92.271V44h1.121v1.162h.027a2.526,2.526,0,0,1,2.3-1.326,2.142,2.142,0,0,1,1.757.742,3.3,3.3,0,0,1,.608,2.143Zm6.884-.321a3.643,3.643,0,0,1-1.914.485,3.169,3.169,0,0,1-2.417-.974,3.53,3.53,0,0,1-.919-2.526,3.881,3.881,0,0,1,.991-2.779,3.467,3.467,0,0,1,2.646-1.049,3.682,3.682,0,0,1,1.627.342v1.148a2.85,2.85,0,0,0-1.668-.547,2.254,2.254,0,0,0-1.76.769,2.918,2.918,0,0,0-.687,2.02,2.779,2.779,0,0,0,.646,1.941,2.227,2.227,0,0,0,1.733.711,2.81,2.81,0,0,0,1.723-.608Zm2.27-8.456a.71.71,0,0,1-.513-.205.692.692,0,0,1-.212-.52.718.718,0,0,1,.725-.731.724.724,0,0,1,.523.208.73.73,0,0,1,0,1.036A.718.718,0,0,1,107.235,42.223ZM107.782,51h-1.121V44h1.121Zm7.28,0h-1.121V49.906h-.027a2.347,2.347,0,0,1-2.153,1.258,2.3,2.3,0,0,1-1.637-.554,1.918,1.918,0,0,1-.591-1.47q0-1.962,2.311-2.283l2.1-.294q0-1.784-1.442-1.784a3.446,3.446,0,0,0-2.283.861V44.492a4.338,4.338,0,0,1,2.379-.656q2.468,0,2.468,2.611Zm-1.121-3.541-1.688.232a2.741,2.741,0,0,0-1.176.386,1.114,1.114,0,0,0-.4.981,1.068,1.068,0,0,0,.366.837,1.413,1.413,0,0,0,.974.325,1.8,1.8,0,0,0,1.377-.584,2.088,2.088,0,0,0,.543-1.48Z" transform="translate(1146.181 5192.743)" fill="#12263f"/>
    <path id="Trazado_192268" data-name="Trazado 192268" d="M0,0H12.657V84.392H0Z" transform="translate(933.428 5346.415)" fill="#ffa726"/>
    <path id="Trazado_192269" data-name="Trazado 192269" d="M0,0H12.657V12.657H0Z" transform="translate(1019.861 5418.15)" fill="#ffa726"/>
    <path id="Trazado_192270" data-name="Trazado 192270" d="M0,0H12.657V18.287H0Z" transform="translate(1103.851 5412.52)" fill="#ffa726"/>
    <path id="Trazado_192271" data-name="Trazado 192271" d="M0,0H12.657V30.944H0Z" transform="translate(1188.708 5399.863)" fill="#ffa726"/>
    <path id="Trazado_192272" data-name="Trazado 192272" d="M0,0H12.657V54.853H0Z" transform="translate(1146.047 5375.954)" fill="#ffa726"/>
    <path id="Trazado_192273" data-name="Trazado 192273" d="M0,0,427.109,263.489" transform="translate(894.517 5167.318)" fill="none" stroke="#32c5b5" stroke-width="3"/>
    <path id="Trazado_133027" data-name="Trazado 133027" d="M635.384,371.776H505.52l-42.662-32.824L420.42,282.227l-41.955-22.888-43.136,3.742-43.136-14.143H252.11l-45.24-85.8" transform="translate(687.646 5004.179)" fill="none" stroke="#1565b3" stroke-miterlimit="10" stroke-width="3"/>
    <path id="Trazado_192274" data-name="Trazado 192274" d="M0,0H0" transform="translate(894.517 5205.29)" fill="none" stroke="#8c8c8c" stroke-linecap="round" stroke-width="2"/>
    <path id="Trazado_192275" data-name="Trazado 192275" d="M0,0,423.654,198.387" transform="translate(897.757 5206.811)" fill="none" stroke="#8c8c8c" stroke-linecap="round" stroke-width="2" stroke-dasharray="0 4"/>
    <path id="Trazado_192276" data-name="Trazado 192276" d="M0,0H0" transform="translate(1323.031 5405.959)" fill="none" stroke="#8c8c8c" stroke-linecap="round" stroke-width="2"/>
    <path id="Trazado_192277" data-name="Trazado 192277" d="M49.858,0H0" transform="translate(1084.579 5189.187)" fill="none" stroke="#ffa726" stroke-linecap="round" stroke-width="3"/>
    <path id="Trazado_192278" data-name="Trazado 192278" d="M49.858,0H0" transform="translate(1084.579 5207.563)" fill="none" stroke="#32c5b5" stroke-width="3"/>
    <path id="Trazado_192279" data-name="Trazado 192279" d="M49.858,0H0" transform="translate(1084.579 5225.931)" fill="none" stroke="#1565b3" stroke-width="3"/>
    <path id="Trazado_192280" data-name="Trazado 192280" d="M49.858,0H0" transform="translate(1084.579 5244.308)" fill="none" stroke="#8c8c8c" stroke-linecap="round" stroke-width="2" stroke-dasharray="0 4"/>
    <path id="Trazado_133028" data-name="Trazado 133028" d="M181.31,119.19V422.02H655.154" transform="translate(690.327 5008.788)" fill="none" stroke="#94b4d9" stroke-miterlimit="10" stroke-width="1"/>
    <path id="Trazado_192281" data-name="Trazado 192281" d="M5.918-7.846q-.193.334-.466.832T4.875-5.895q-.3.621-.621,1.336T3.662-3.082q-.275.762-.483,1.544A11.486,11.486,0,0,0,2.877,0H1.846a11.684,11.684,0,0,1,.325-1.532q.22-.782.5-1.535t.589-1.45q.311-.7.6-1.283T4.4-6.835q.243-.448.39-.7H.574V-8.4H5.918Zm6.527,3.609a8.254,8.254,0,0,1-.19,1.869A4.355,4.355,0,0,1,11.7-.993a2.479,2.479,0,0,1-.885.85,2.422,2.422,0,0,1-1.192.29A2.262,2.262,0,0,1,8.5-.132a2.364,2.364,0,0,1-.835-.812,4.113,4.113,0,0,1-.516-1.31,8.1,8.1,0,0,1-.176-1.778,9.166,9.166,0,0,1,.185-1.945A4.45,4.45,0,0,1,7.7-7.392a2.412,2.412,0,0,1,.888-.861A2.492,2.492,0,0,1,9.8-8.543Q12.445-8.543,12.445-4.236Zm-.984.094q0-3.586-1.705-3.586-1.8,0-1.8,3.65,0,3.4,1.764,3.4Q11.461-.674,11.461-4.143ZM5.988,37.334a3.113,3.113,0,0,1-.2,1.131,2.718,2.718,0,0,1-.551.891,2.461,2.461,0,0,1-.838.583,2.654,2.654,0,0,1-1.055.208,2.4,2.4,0,0,1-1.134-.264,2.4,2.4,0,0,1-.85-.759,3.639,3.639,0,0,1-.53-1.21A6.555,6.555,0,0,1,.65,36.3a7.572,7.572,0,0,1,.243-1.989,4.833,4.833,0,0,1,.691-1.529A3.187,3.187,0,0,1,2.666,31.8a2.9,2.9,0,0,1,1.412-.346,3.4,3.4,0,0,1,1.395.24v.908A2.961,2.961,0,0,0,4.1,32.271a2.043,2.043,0,0,0-1.014.252,2.328,2.328,0,0,0-.773.712,3.472,3.472,0,0,0-.5,1.11,5.634,5.634,0,0,0-.173,1.447H1.67a2.018,2.018,0,0,1,1.916-1.049,2.522,2.522,0,0,1,.993.188,2.144,2.144,0,0,1,.756.53,2.388,2.388,0,0,1,.483.817A3.111,3.111,0,0,1,5.988,37.334ZM5,37.457a2.615,2.615,0,0,0-.111-.791,1.716,1.716,0,0,0-.319-.6,1.377,1.377,0,0,0-.513-.378,1.725,1.725,0,0,0-.691-.132,1.618,1.618,0,0,0-.662.135,1.649,1.649,0,0,0-.527.366,1.715,1.715,0,0,0-.475,1.192,2.606,2.606,0,0,0,.123.812,2.1,2.1,0,0,0,.346.659,1.644,1.644,0,0,0,.53.442,1.448,1.448,0,0,0,.683.161,1.563,1.563,0,0,0,.662-.138,1.477,1.477,0,0,0,.51-.384,1.777,1.777,0,0,0,.328-.589A2.334,2.334,0,0,0,5,37.457Zm7.441-1.693a8.254,8.254,0,0,1-.19,1.869,4.355,4.355,0,0,1-.551,1.374,2.479,2.479,0,0,1-.885.85,2.422,2.422,0,0,1-1.192.29A2.262,2.262,0,0,1,8.5,39.868a2.364,2.364,0,0,1-.835-.812,4.113,4.113,0,0,1-.516-1.31,8.1,8.1,0,0,1-.176-1.778,9.166,9.166,0,0,1,.185-1.945A4.45,4.45,0,0,1,7.7,32.608a2.412,2.412,0,0,1,.888-.861,2.492,2.492,0,0,1,1.216-.29Q12.445,31.457,12.445,35.764Zm-.984.094q0-3.586-1.705-3.586-1.8,0-1.8,3.65,0,3.4,1.764,3.4Q11.461,39.326,11.461,35.857ZM5.678,77.434a2.828,2.828,0,0,1-.211,1.113,2.434,2.434,0,0,1-.6.855,2.689,2.689,0,0,1-.94.551,3.678,3.678,0,0,1-1.225.193,3.383,3.383,0,0,1-1.74-.352v-1.02a3.2,3.2,0,0,0,1.752.551,2.371,2.371,0,0,0,.823-.135,1.829,1.829,0,0,0,.624-.375,1.606,1.606,0,0,0,.4-.58,1.964,1.964,0,0,0,.138-.744,1.594,1.594,0,0,0-.551-1.286,2.415,2.415,0,0,0-1.6-.466q-.17,0-.357.006l-.375.015q-.187.009-.366.021t-.325.029L1.406,71.6H5.291v.867H2.238l-.17,2.467q.187-.012.4-.021t.375-.009a3.771,3.771,0,0,1,1.2.176,2.533,2.533,0,0,1,.894.5,2.1,2.1,0,0,1,.557.8A2.8,2.8,0,0,1,5.678,77.434Zm6.768-1.67a8.254,8.254,0,0,1-.19,1.869,4.355,4.355,0,0,1-.551,1.374,2.479,2.479,0,0,1-.885.85,2.422,2.422,0,0,1-1.192.29A2.262,2.262,0,0,1,8.5,79.868a2.364,2.364,0,0,1-.835-.812,4.113,4.113,0,0,1-.516-1.31,8.1,8.1,0,0,1-.176-1.778,9.166,9.166,0,0,1,.185-1.945A4.45,4.45,0,0,1,7.7,72.608a2.412,2.412,0,0,1,.888-.861,2.492,2.492,0,0,1,1.216-.29Q12.445,71.457,12.445,75.764Zm-.984.094q0-3.586-1.705-3.586-1.8,0-1.8,3.65,0,3.4,1.764,3.4Q11.461,79.326,11.461,75.857ZM4.98,111.6v5.549H6.059v.879H4.98V120H4.031v-1.975H.082v-.832q.551-.621,1.113-1.327t1.075-1.433q.513-.727.949-1.45a13.254,13.254,0,0,0,.735-1.386Zm-3.814,5.549H4.031v-4.113q-.439.768-.832,1.371t-.747,1.1q-.354.492-.677.891Zm11.279-1.383a8.254,8.254,0,0,1-.19,1.869,4.355,4.355,0,0,1-.551,1.374,2.479,2.479,0,0,1-.885.85,2.422,2.422,0,0,1-1.192.29,2.262,2.262,0,0,1-1.128-.278,2.364,2.364,0,0,1-.835-.812,4.113,4.113,0,0,1-.516-1.31,8.1,8.1,0,0,1-.176-1.778,9.166,9.166,0,0,1,.185-1.945,4.45,4.45,0,0,1,.542-1.415,2.412,2.412,0,0,1,.888-.861,2.492,2.492,0,0,1,1.216-.29Q12.445,111.457,12.445,115.764Zm-.984.094q0-3.586-1.705-3.586-1.8,0-1.8,3.65,0,3.4,1.764,3.4Q11.461,119.326,11.461,115.857ZM5.584,157.621a2.449,2.449,0,0,1-.214,1.034,2.283,2.283,0,0,1-.6.8,2.786,2.786,0,0,1-.935.513,3.78,3.78,0,0,1-1.2.182,3.49,3.49,0,0,1-1.91-.457v-1.031a3.061,3.061,0,0,0,1.945.668,2.644,2.644,0,0,0,.794-.111,1.78,1.78,0,0,0,.609-.322,1.431,1.431,0,0,0,.393-.51,1.592,1.592,0,0,0,.138-.674q0-1.646-2.344-1.646h-.7v-.814h.662q2.074,0,2.074-1.547,0-1.43-1.582-1.43a2.694,2.694,0,0,0-1.67.6v-.932a3.651,3.651,0,0,1,1.91-.48,2.935,2.935,0,0,1,.955.146,2.188,2.188,0,0,1,.732.41,1.818,1.818,0,0,1,.472.633,1.953,1.953,0,0,1,.167.814A2.051,2.051,0,0,1,3.6,155.594v.023a2.651,2.651,0,0,1,.791.208,2.111,2.111,0,0,1,.627.419,1.868,1.868,0,0,1,.413.606A1.936,1.936,0,0,1,5.584,157.621Zm6.861-1.857a8.254,8.254,0,0,1-.19,1.869,4.355,4.355,0,0,1-.551,1.374,2.479,2.479,0,0,1-.885.85,2.422,2.422,0,0,1-1.192.29,2.262,2.262,0,0,1-1.128-.278,2.364,2.364,0,0,1-.835-.812,4.113,4.113,0,0,1-.516-1.31,8.1,8.1,0,0,1-.176-1.778,9.166,9.166,0,0,1,.185-1.945,4.45,4.45,0,0,1,.542-1.415,2.412,2.412,0,0,1,.888-.861,2.492,2.492,0,0,1,1.216-.29Q12.445,151.457,12.445,155.764Zm-.984.094q0-3.586-1.705-3.586-1.8,0-1.8,3.65,0,3.4,1.764,3.4Q11.461,159.326,11.461,155.857ZM4.523,193.8a1.737,1.737,0,0,0-.12-.674,1.3,1.3,0,0,0-.817-.762,1.916,1.916,0,0,0-.609-.094,2.016,2.016,0,0,0-.551.076,2.678,2.678,0,0,0-.524.211,3.226,3.226,0,0,0-.492.322,3.555,3.555,0,0,0-.442.416v-1.031a2.873,2.873,0,0,1,.905-.6,3.187,3.187,0,0,1,1.222-.208,2.949,2.949,0,0,1,.955.149,2.19,2.19,0,0,1,.762.437,2.018,2.018,0,0,1,.507.709,2.391,2.391,0,0,1,.185.967,3.315,3.315,0,0,1-.114.9,2.791,2.791,0,0,1-.346.762,3.676,3.676,0,0,1-.583.686,8.258,8.258,0,0,1-.826.668q-.592.422-.976.721a4.313,4.313,0,0,0-.609.56,1.624,1.624,0,0,0-.316.521,1.823,1.823,0,0,0-.091.6H5.824V200H.639v-.416a3.467,3.467,0,0,1,.117-.949,2.465,2.465,0,0,1,.387-.779,4.325,4.325,0,0,1,.706-.738q.437-.369,1.069-.832a6.76,6.76,0,0,0,.765-.627,3.26,3.26,0,0,0,.5-.6,2.146,2.146,0,0,0,.267-.606A2.615,2.615,0,0,0,4.523,193.8Zm7.922,1.963a8.254,8.254,0,0,1-.19,1.869,4.355,4.355,0,0,1-.551,1.374,2.479,2.479,0,0,1-.885.85,2.422,2.422,0,0,1-1.192.29,2.262,2.262,0,0,1-1.128-.278,2.364,2.364,0,0,1-.835-.812,4.113,4.113,0,0,1-.516-1.31,8.1,8.1,0,0,1-.176-1.778,9.166,9.166,0,0,1,.185-1.945,4.45,4.45,0,0,1,.542-1.415,2.412,2.412,0,0,1,.888-.861,2.492,2.492,0,0,1,1.216-.29Q12.445,191.457,12.445,195.764Zm-.984.094q0-3.586-1.705-3.586-1.8,0-1.8,3.65,0,3.4,1.764,3.4Q11.461,199.326,11.461,195.857ZM4.242,240H3.281v-7.26a2.224,2.224,0,0,1-.325.255,5.3,5.3,0,0,1-.48.284q-.267.141-.562.264a4.088,4.088,0,0,1-.577.193v-.973a5.586,5.586,0,0,0,.671-.237q.354-.149.7-.334t.647-.387a5.14,5.14,0,0,0,.527-.4h.363Zm8.2-4.236a8.254,8.254,0,0,1-.19,1.869,4.355,4.355,0,0,1-.551,1.374,2.479,2.479,0,0,1-.885.85,2.422,2.422,0,0,1-1.192.29,2.262,2.262,0,0,1-1.128-.278,2.364,2.364,0,0,1-.835-.812,4.113,4.113,0,0,1-.516-1.31,8.1,8.1,0,0,1-.176-1.778,9.166,9.166,0,0,1,.185-1.945,4.45,4.45,0,0,1,.542-1.415,2.412,2.412,0,0,1,.888-.861,2.492,2.492,0,0,1,1.216-.29Q12.445,231.457,12.445,235.764Zm-.984.094q0-3.586-1.705-3.586-1.8,0-1.8,3.65,0,3.4,1.764,3.4Q11.461,239.326,11.461,235.857ZM5.977,275.764a8.254,8.254,0,0,1-.19,1.869,4.355,4.355,0,0,1-.551,1.374,2.479,2.479,0,0,1-.885.85,2.422,2.422,0,0,1-1.192.29,2.262,2.262,0,0,1-1.128-.278,2.364,2.364,0,0,1-.835-.812,4.113,4.113,0,0,1-.516-1.31A8.1,8.1,0,0,1,.5,275.969a9.166,9.166,0,0,1,.185-1.945,4.45,4.45,0,0,1,.542-1.415,2.412,2.412,0,0,1,.888-.861,2.492,2.492,0,0,1,1.216-.29Q5.977,271.457,5.977,275.764Zm-.984.094q0-3.586-1.705-3.586-1.8,0-1.8,3.65,0,3.4,1.764,3.4Q4.992,279.326,4.992,275.857Z" transform="translate(849.349 5136.337)" fill="#4480c0"/>
    <path id="Trazado_192282" data-name="Trazado 192282" d="M5.977-4.236a8.254,8.254,0,0,1-.19,1.869A4.355,4.355,0,0,1,5.235-.993a2.479,2.479,0,0,1-.885.85,2.422,2.422,0,0,1-1.192.29A2.262,2.262,0,0,1,2.03-.132,2.364,2.364,0,0,1,1.2-.943,4.113,4.113,0,0,1,.68-2.253,8.1,8.1,0,0,1,.5-4.031,9.166,9.166,0,0,1,.688-5.977,4.45,4.45,0,0,1,1.23-7.392a2.412,2.412,0,0,1,.888-.861,2.492,2.492,0,0,1,1.216-.29Q5.977-8.543,5.977-4.236Zm-.984.094q0-3.586-1.705-3.586-1.8,0-1.8,3.65,0,3.4,1.764,3.4Q4.992-.674,4.992-4.143ZM45.2,0h-.961V-7.26A2.224,2.224,0,0,1,43.912-7a5.3,5.3,0,0,1-.48.284q-.267.141-.562.264a4.088,4.088,0,0,1-.577.193v-.973a5.586,5.586,0,0,0,.671-.237q.354-.149.7-.334t.647-.387a5.14,5.14,0,0,0,.527-.4H45.2ZM86.435-6.2a1.737,1.737,0,0,0-.12-.674,1.335,1.335,0,0,0-.328-.478,1.344,1.344,0,0,0-.489-.284,1.916,1.916,0,0,0-.609-.094,2.016,2.016,0,0,0-.551.076,2.678,2.678,0,0,0-.524.211,3.226,3.226,0,0,0-.492.322,3.555,3.555,0,0,0-.442.416V-7.734a2.873,2.873,0,0,1,.905-.6,3.187,3.187,0,0,1,1.222-.208,2.949,2.949,0,0,1,.955.149,2.19,2.19,0,0,1,.762.437,2.018,2.018,0,0,1,.507.709,2.391,2.391,0,0,1,.185.967,3.315,3.315,0,0,1-.114.9,2.791,2.791,0,0,1-.346.762,3.676,3.676,0,0,1-.583.686,8.258,8.258,0,0,1-.826.668q-.592.422-.976.721a4.313,4.313,0,0,0-.609.56,1.624,1.624,0,0,0-.316.521,1.823,1.823,0,0,0-.091.6h4.184V0H82.55V-.416a3.467,3.467,0,0,1,.117-.949,2.465,2.465,0,0,1,.387-.779,4.325,4.325,0,0,1,.706-.738q.437-.369,1.069-.832a6.76,6.76,0,0,0,.765-.627,3.26,3.26,0,0,0,.5-.6,2.146,2.146,0,0,0,.267-.606A2.615,2.615,0,0,0,86.435-6.2Zm42.016,3.82a2.449,2.449,0,0,1-.214,1.034,2.284,2.284,0,0,1-.6.8,2.786,2.786,0,0,1-.935.513,3.78,3.78,0,0,1-1.2.182,3.49,3.49,0,0,1-1.91-.457V-1.342a3.061,3.061,0,0,0,1.945.668,2.644,2.644,0,0,0,.794-.111,1.78,1.78,0,0,0,.609-.322,1.431,1.431,0,0,0,.393-.51,1.592,1.592,0,0,0,.138-.674q0-1.646-2.344-1.646h-.7v-.814h.662q2.074,0,2.074-1.547,0-1.43-1.582-1.43a2.694,2.694,0,0,0-1.67.6v-.932a3.651,3.651,0,0,1,1.91-.48,2.935,2.935,0,0,1,.955.146,2.188,2.188,0,0,1,.732.41,1.818,1.818,0,0,1,.472.633,1.953,1.953,0,0,1,.167.814,2.051,2.051,0,0,1-1.676,2.133v.023a2.651,2.651,0,0,1,.791.208,2.111,2.111,0,0,1,.627.419,1.867,1.867,0,0,1,.413.606A1.936,1.936,0,0,1,128.452-2.379ZM168.8-8.4v5.549h1.078v.879H168.8V0h-.949V-1.975h-3.949v-.832q.551-.621,1.113-1.327t1.075-1.433q.513-.727.949-1.45a13.253,13.253,0,0,0,.735-1.386Zm-3.814,5.549h2.865V-6.967q-.439.768-.832,1.371t-.747,1.1q-.354.492-.677.891Zm45.468.287a2.828,2.828,0,0,1-.211,1.113,2.434,2.434,0,0,1-.6.855,2.689,2.689,0,0,1-.94.551,3.678,3.678,0,0,1-1.225.193,3.383,3.383,0,0,1-1.74-.352v-1.02a3.2,3.2,0,0,0,1.752.551,2.371,2.371,0,0,0,.823-.135,1.829,1.829,0,0,0,.624-.375,1.606,1.606,0,0,0,.4-.58,1.963,1.963,0,0,0,.138-.744,1.594,1.594,0,0,0-.551-1.286,2.415,2.415,0,0,0-1.6-.466q-.17,0-.357.006l-.375.015q-.187.009-.366.021t-.325.029l.287-4.213h3.885v.867h-3.053l-.17,2.467q.188-.012.4-.021t.375-.009a3.771,3.771,0,0,1,1.2.176,2.533,2.533,0,0,1,.894.5,2.1,2.1,0,0,1,.557.8A2.8,2.8,0,0,1,210.457-2.566Zm41.266-.1a3.113,3.113,0,0,1-.2,1.131,2.718,2.718,0,0,1-.551.891,2.461,2.461,0,0,1-.838.583,2.654,2.654,0,0,1-1.055.208,2.4,2.4,0,0,1-1.134-.264,2.4,2.4,0,0,1-.85-.759,3.639,3.639,0,0,1-.53-1.21,6.555,6.555,0,0,1-.182-1.611,7.572,7.572,0,0,1,.243-1.989,4.833,4.833,0,0,1,.691-1.529A3.187,3.187,0,0,1,248.4-8.2a2.9,2.9,0,0,1,1.412-.346,3.4,3.4,0,0,1,1.395.24v.908a2.961,2.961,0,0,0-1.371-.334,2.043,2.043,0,0,0-1.014.252,2.328,2.328,0,0,0-.773.712,3.472,3.472,0,0,0-.5,1.11,5.634,5.634,0,0,0-.173,1.447h.023a2.018,2.018,0,0,1,1.916-1.049,2.522,2.522,0,0,1,.993.188,2.144,2.144,0,0,1,.756.53,2.388,2.388,0,0,1,.483.817A3.111,3.111,0,0,1,251.723-2.666Zm-.984.123a2.615,2.615,0,0,0-.111-.791,1.716,1.716,0,0,0-.319-.6,1.377,1.377,0,0,0-.513-.378,1.725,1.725,0,0,0-.691-.132,1.618,1.618,0,0,0-.662.135,1.649,1.649,0,0,0-.527.366,1.7,1.7,0,0,0-.349.539,1.707,1.707,0,0,0-.126.653,2.606,2.606,0,0,0,.123.812,2.1,2.1,0,0,0,.346.659,1.644,1.644,0,0,0,.53.442,1.448,1.448,0,0,0,.683.161,1.563,1.563,0,0,0,.662-.138,1.477,1.477,0,0,0,.51-.384,1.777,1.777,0,0,0,.328-.589A2.334,2.334,0,0,0,250.739-2.543Zm41.87-5.3q-.193.334-.466.832t-.577,1.119q-.3.621-.621,1.336t-.592,1.477q-.275.762-.483,1.544a11.486,11.486,0,0,0-.3,1.538h-1.031a11.684,11.684,0,0,1,.325-1.532q.22-.782.5-1.535t.589-1.45q.311-.7.6-1.283t.536-1.034q.243-.448.39-.7h-4.213V-8.4h5.344Zm35.565,5.5a2.236,2.236,0,0,1,.105-.671,2.43,2.43,0,0,1,.3-.63,2.5,2.5,0,0,1,.486-.533,2.319,2.319,0,0,1,.659-.381,2.491,2.491,0,0,1-.867-.782,1.85,1.85,0,0,1-.322-1.058,2.04,2.04,0,0,1,.179-.855,2.061,2.061,0,0,1,.5-.68,2.289,2.289,0,0,1,.75-.448,2.67,2.67,0,0,1,.938-.161,2.645,2.645,0,0,1,.943.164,2.329,2.329,0,0,1,.75.451,2.025,2.025,0,0,1,.492.68,2.055,2.055,0,0,1,.176.85,1.85,1.85,0,0,1-.322,1.058,2.522,2.522,0,0,1-.855.782,2.3,2.3,0,0,1,.65.381,2.534,2.534,0,0,1,.483.533,2.43,2.43,0,0,1,.3.63,2.236,2.236,0,0,1,.105.671,2.5,2.5,0,0,1-.2,1.008,2.252,2.252,0,0,1-.56.782A2.583,2.583,0,0,1,332-.047a3.219,3.219,0,0,1-1.1.182,3.177,3.177,0,0,1-1.1-.182,2.623,2.623,0,0,1-.861-.507,2.267,2.267,0,0,1-.565-.782A2.464,2.464,0,0,1,328.174-2.344Zm1.043-.082a1.985,1.985,0,0,0,.12.709,1.528,1.528,0,0,0,.34.539,1.484,1.484,0,0,0,.533.343,1.926,1.926,0,0,0,.694.12,1.829,1.829,0,0,0,.68-.123,1.584,1.584,0,0,0,.536-.346,1.554,1.554,0,0,0,.352-.539,1.885,1.885,0,0,0,.126-.7,1.8,1.8,0,0,0-.12-.659,1.65,1.65,0,0,0-.343-.542A1.61,1.61,0,0,0,331.6-4a1.734,1.734,0,0,0-.7-.135,1.753,1.753,0,0,0-.671.126,1.605,1.605,0,0,0-.533.352,1.628,1.628,0,0,0-.354.539A1.793,1.793,0,0,0,329.217-2.426Zm.3-3.9a1.4,1.4,0,0,0,.108.554,1.4,1.4,0,0,0,.3.445,1.4,1.4,0,0,0,.442.3,1.349,1.349,0,0,0,.539.108,1.339,1.339,0,0,0,.542-.111,1.4,1.4,0,0,0,.442-.3,1.462,1.462,0,0,0,.3-.445,1.354,1.354,0,0,0,.111-.548,1.437,1.437,0,0,0-.108-.562,1.377,1.377,0,0,0-.3-.445,1.385,1.385,0,0,0-.442-.3,1.385,1.385,0,0,0-.548-.108,1.4,1.4,0,0,0-.565.111,1.366,1.366,0,0,0-.439.3,1.319,1.319,0,0,0-.284.448A1.515,1.515,0,0,0,329.516-6.322Zm44.97,1.617a8.369,8.369,0,0,1-.229,2.054,4.581,4.581,0,0,1-.668,1.523,2.957,2.957,0,0,1-1.072.949,3.108,3.108,0,0,1-1.441.325,3.453,3.453,0,0,1-1.465-.293v-.92a2.986,2.986,0,0,0,1.488.393,2.161,2.161,0,0,0,1.017-.234,2.105,2.105,0,0,0,.759-.683,3.351,3.351,0,0,0,.475-1.1,6.236,6.236,0,0,0,.164-1.506h-.023a1.919,1.919,0,0,1-1.875,1.084,2.521,2.521,0,0,1-.99-.19,2.268,2.268,0,0,1-.779-.539,2.467,2.467,0,0,1-.51-.829,2.977,2.977,0,0,1-.182-1.061,3.089,3.089,0,0,1,.2-1.137,2.649,2.649,0,0,1,.563-.888,2.517,2.517,0,0,1,.855-.577,2.8,2.8,0,0,1,1.081-.205,2.393,2.393,0,0,1,1.122.255,2.249,2.249,0,0,1,.823.744,3.677,3.677,0,0,1,.51,1.2A6.875,6.875,0,0,1,374.486-4.705Zm-1.037-.861a2.925,2.925,0,0,0-.126-.885,2.142,2.142,0,0,0-.349-.683,1.564,1.564,0,0,0-.53-.439,1.468,1.468,0,0,0-.671-.155,1.521,1.521,0,0,0-.645.138,1.549,1.549,0,0,0-.519.387,1.846,1.846,0,0,0-.346.592,2.15,2.15,0,0,0-.126.747,2.458,2.458,0,0,0,.12.8,1.664,1.664,0,0,0,.343.595,1.48,1.48,0,0,0,.536.372,1.809,1.809,0,0,0,.694.129,1.591,1.591,0,0,0,.63-.126,1.668,1.668,0,0,0,.516-.34,1.566,1.566,0,0,0,.346-.5A1.549,1.549,0,0,0,373.448-5.566ZM413.8,0h-.961V-7.26a2.224,2.224,0,0,1-.325.255,5.3,5.3,0,0,1-.48.284q-.267.141-.562.264a4.088,4.088,0,0,1-.577.193v-.973a5.586,5.586,0,0,0,.671-.237q.354-.149.7-.334t.647-.387a5.14,5.14,0,0,0,.527-.4h.363ZM422-4.236a8.254,8.254,0,0,1-.19,1.869,4.355,4.355,0,0,1-.551,1.374,2.479,2.479,0,0,1-.885.85,2.422,2.422,0,0,1-1.192.29,2.262,2.262,0,0,1-1.128-.278,2.364,2.364,0,0,1-.835-.812,4.113,4.113,0,0,1-.516-1.31,8.1,8.1,0,0,1-.176-1.778,9.166,9.166,0,0,1,.185-1.945,4.45,4.45,0,0,1,.542-1.415,2.412,2.412,0,0,1,.888-.861,2.492,2.492,0,0,1,1.216-.29Q422-8.543,422-4.236Zm-.984.094q0-3.586-1.705-3.586-1.8,0-1.8,3.65,0,3.4,1.764,3.4Q421.02-.674,421.02-4.143Z" transform="translate(890.694 5446.131)" fill="#4480c0"/>
    <path id="Trazado_192283" data-name="Trazado 192283" d="M1.285,0V-9.8H3.992q5.182,0,5.182,4.778A4.815,4.815,0,0,1,7.735-1.377,5.338,5.338,0,0,1,3.883,0ZM2.434-8.764v7.725H3.9a4.152,4.152,0,0,0,3-1.032A3.869,3.869,0,0,0,7.971-5q0-3.767-4.006-3.767ZM12.072,0H10.951V-7h1.121Zm1-10.568L11.286-8.326h-.868l1.524-2.242ZM19.353,0H18.231V-1.094H18.2A2.347,2.347,0,0,1,16.051.164,2.3,2.3,0,0,1,14.414-.39a1.918,1.918,0,0,1-.591-1.47q0-1.962,2.311-2.283l2.1-.294q0-1.784-1.442-1.784a3.446,3.446,0,0,0-2.283.861V-6.508a4.338,4.338,0,0,1,2.379-.656q2.468,0,2.468,2.611ZM18.231-3.541l-1.688.232a2.741,2.741,0,0,0-1.176.386,1.114,1.114,0,0,0-.4.981,1.068,1.068,0,0,0,.366.837,1.413,1.413,0,0,0,.974.325,1.8,1.8,0,0,0,1.377-.584,2.088,2.088,0,0,0,.543-1.48Zm2.81,3.288v-1.2a3.318,3.318,0,0,0,2.017.677q1.477,0,1.477-.984a.854.854,0,0,0-.126-.475,1.26,1.26,0,0,0-.342-.345,2.631,2.631,0,0,0-.506-.27q-.291-.12-.625-.25a8.056,8.056,0,0,1-.817-.373A2.468,2.468,0,0,1,21.53-3.9a1.577,1.577,0,0,1-.355-.537,1.9,1.9,0,0,1-.12-.7,1.673,1.673,0,0,1,.226-.872,2,2,0,0,1,.6-.636,2.805,2.805,0,0,1,.858-.386,3.805,3.805,0,0,1,.995-.13,4.016,4.016,0,0,1,1.627.314v1.135a3.171,3.171,0,0,0-1.777-.506,2.078,2.078,0,0,0-.567.072,1.389,1.389,0,0,0-.434.2.932.932,0,0,0-.28.311.819.819,0,0,0-.1.4.959.959,0,0,0,.1.458,1.008,1.008,0,0,0,.291.328,2.221,2.221,0,0,0,.465.26q.273.116.622.253a8.658,8.658,0,0,1,.834.366,2.86,2.86,0,0,1,.629.424,1.656,1.656,0,0,1,.4.543,1.753,1.753,0,0,1,.14.731,1.725,1.725,0,0,1-.229.9,1.963,1.963,0,0,1-.612.636,2.8,2.8,0,0,1-.882.376,4.354,4.354,0,0,1-1.046.123A3.971,3.971,0,0,1,21.041-.253Z" transform="translate(1096.126 5462.937)" fill="#12263f"/>
    <path id="Trazado_192284" data-name="Trazado 192284" d="M2.781-4.234V0H1.469V-11.2H4.547a4.063,4.063,0,0,1,2.785.875A3.124,3.124,0,0,1,8.32-7.859a3.4,3.4,0,0,1-1.1,2.609A4.194,4.194,0,0,1,4.258-4.234Zm0-5.781v4.594H4.156A3.074,3.074,0,0,0,6.23-6.043,2.2,2.2,0,0,0,6.945-7.8q0-2.219-2.625-2.219ZM16.727,0H15.445V-1.266h-.031A2.631,2.631,0,0,1,12.945.188q-2.859,0-2.859-3.406V-8h1.273v4.578q0,2.531,1.938,2.531a1.96,1.96,0,0,0,1.543-.691,2.645,2.645,0,0,0,.605-1.809V-8h1.281Zm9.227,0H24.672V-4.562q0-2.547-1.859-2.547a2.017,2.017,0,0,0-1.59.723,2.679,2.679,0,0,0-.629,1.824V0H19.313V-8h1.281v1.328h.031A2.887,2.887,0,0,1,23.25-8.187a2.448,2.448,0,0,1,2.008.848,3.776,3.776,0,0,1,.7,2.449Zm6.125-.078a2.47,2.47,0,0,1-1.2.25q-2.1,0-2.1-2.344V-6.906H27.406V-8h1.375V-9.953l1.281-.414V-8h2.016v1.094H30.063V-2.4a1.869,1.869,0,0,0,.273,1.148,1.091,1.091,0,0,0,.906.344,1.347,1.347,0,0,0,.836-.266Zm4.895.266A3.711,3.711,0,0,1,34.141-.934a4.153,4.153,0,0,1-1.059-2.973,4.326,4.326,0,0,1,1.1-3.148A3.96,3.96,0,0,1,37.16-8.187a3.588,3.588,0,0,1,2.793,1.1,4.368,4.368,0,0,1,1,3.055A4.3,4.3,0,0,1,39.875-.965,3.791,3.791,0,0,1,36.973.188Zm.094-7.3a2.437,2.437,0,0,0-1.953.84,3.449,3.449,0,0,0-.719,2.316,3.262,3.262,0,0,0,.727,2.242,2.469,2.469,0,0,0,1.945.82,2.342,2.342,0,0,0,1.91-.8,3.492,3.492,0,0,0,.668-2.289A3.552,3.552,0,0,0,38.977-6.3,2.332,2.332,0,0,0,37.067-7.109ZM42.52-.289V-1.664a3.792,3.792,0,0,0,2.3.773q1.688,0,1.688-1.125a.976.976,0,0,0-.145-.543,1.44,1.44,0,0,0-.391-.395,3.007,3.007,0,0,0-.578-.309q-.332-.137-.715-.285a9.207,9.207,0,0,1-.934-.426,2.82,2.82,0,0,1-.672-.484,1.8,1.8,0,0,1-.406-.613,2.17,2.17,0,0,1-.137-.8,1.912,1.912,0,0,1,.258-1,2.286,2.286,0,0,1,.688-.727,3.206,3.206,0,0,1,.98-.441A4.349,4.349,0,0,1,45.6-8.187a4.59,4.59,0,0,1,1.859.359v1.3a3.624,3.624,0,0,0-2.031-.578,2.374,2.374,0,0,0-.648.082,1.587,1.587,0,0,0-.5.23,1.065,1.065,0,0,0-.32.355.936.936,0,0,0-.113.457,1.1,1.1,0,0,0,.113.523,1.152,1.152,0,0,0,.332.375,2.538,2.538,0,0,0,.531.3q.312.133.711.289a9.894,9.894,0,0,1,.953.418,3.269,3.269,0,0,1,.719.484,1.893,1.893,0,0,1,.457.621,2,2,0,0,1,.16.836,1.971,1.971,0,0,1-.262,1.031,2.243,2.243,0,0,1-.7.727,3.2,3.2,0,0,1-1.008.43,4.976,4.976,0,0,1-1.2.141A4.539,4.539,0,0,1,42.52-.289ZM62.77,0H61.457V-5.109h-5.8V0H54.348V-11.2H55.66v4.914h5.8V-11.2H62.77Zm3.422-10.031a.812.812,0,0,1-.586-.234.791.791,0,0,1-.242-.594.8.8,0,0,1,.242-.6.8.8,0,0,1,.586-.238.827.827,0,0,1,.6.238.8.8,0,0,1,.246.6.792.792,0,0,1-.246.586A.82.82,0,0,1,66.192-10.031ZM66.817,0H65.535V-8h1.281Zm2.109-.289V-1.664a3.792,3.792,0,0,0,2.3.773q1.688,0,1.688-1.125a.976.976,0,0,0-.145-.543,1.44,1.44,0,0,0-.391-.395,3.007,3.007,0,0,0-.578-.309q-.332-.137-.715-.285a9.207,9.207,0,0,1-.934-.426,2.82,2.82,0,0,1-.672-.484,1.8,1.8,0,0,1-.406-.613,2.17,2.17,0,0,1-.137-.8,1.912,1.912,0,0,1,.258-1,2.286,2.286,0,0,1,.688-.727,3.206,3.206,0,0,1,.98-.441A4.349,4.349,0,0,1,72-8.187a4.59,4.59,0,0,1,1.859.359v1.3a3.624,3.624,0,0,0-2.031-.578,2.374,2.374,0,0,0-.648.082,1.587,1.587,0,0,0-.5.23,1.065,1.065,0,0,0-.32.355.936.936,0,0,0-.113.457,1.1,1.1,0,0,0,.113.523,1.152,1.152,0,0,0,.332.375,2.538,2.538,0,0,0,.531.3q.313.133.711.289a9.9,9.9,0,0,1,.953.418,3.269,3.269,0,0,1,.719.484,1.893,1.893,0,0,1,.457.621,2,2,0,0,1,.16.836,1.971,1.971,0,0,1-.262,1.031,2.243,2.243,0,0,1-.7.727,3.2,3.2,0,0,1-1.008.43,4.976,4.976,0,0,1-1.2.141A4.539,4.539,0,0,1,68.926-.289ZM79.91-.078a2.47,2.47,0,0,1-1.2.25q-2.1,0-2.1-2.344V-6.906H75.238V-8h1.375V-9.953l1.281-.414V-8H79.91v1.094H77.895V-2.4a1.869,1.869,0,0,0,.273,1.148,1.091,1.091,0,0,0,.906.344,1.347,1.347,0,0,0,.836-.266ZM84.8.188A3.711,3.711,0,0,1,81.973-.934a4.153,4.153,0,0,1-1.059-2.973,4.326,4.326,0,0,1,1.1-3.148,3.96,3.96,0,0,1,2.977-1.133,3.588,3.588,0,0,1,2.793,1.1,4.368,4.368,0,0,1,1,3.055A4.3,4.3,0,0,1,87.707-.965,3.791,3.791,0,0,1,84.8.188Zm.094-7.3a2.437,2.437,0,0,0-1.953.84,3.449,3.449,0,0,0-.719,2.316,3.262,3.262,0,0,0,.727,2.242,2.469,2.469,0,0,0,1.945.82,2.342,2.342,0,0,0,1.91-.8,3.492,3.492,0,0,0,.668-2.289A3.552,3.552,0,0,0,86.809-6.3,2.332,2.332,0,0,0,84.9-7.109ZM95.008-6.7a1.567,1.567,0,0,0-.969-.258,1.635,1.635,0,0,0-1.371.773,3.576,3.576,0,0,0-.551,2.109V0H90.836V-8h1.281v1.648h.031a2.793,2.793,0,0,1,.836-1.316,1.906,1.906,0,0,1,1.258-.473,2.092,2.092,0,0,1,.766.109Zm2.047-3.328a.812.812,0,0,1-.586-.234.791.791,0,0,1-.242-.594.8.8,0,0,1,.242-.6.8.8,0,0,1,.586-.238.827.827,0,0,1,.6.238.8.8,0,0,1,.246.6.792.792,0,0,1-.246.586A.82.82,0,0,1,97.055-10.031ZM97.68,0H96.4V-8H97.68ZM106,0h-1.281V-1.25h-.031A2.682,2.682,0,0,1,102.227.188a2.63,2.63,0,0,1-1.871-.633,2.192,2.192,0,0,1-.676-1.68q0-2.242,2.641-2.609l2.4-.336q0-2.039-1.648-2.039a3.938,3.938,0,0,0-2.609.984V-7.437a4.958,4.958,0,0,1,2.719-.75Q106-8.187,106-5.2Zm-1.281-4.047-1.93.266a3.133,3.133,0,0,0-1.344.441,1.273,1.273,0,0,0-.453,1.121,1.221,1.221,0,0,0,.418.957,1.615,1.615,0,0,0,1.113.371,2.056,2.056,0,0,0,1.574-.668,2.387,2.387,0,0,0,.621-1.691Z" transform="translate(836 5320.483) rotate(-90)"/>
  </g>
</svg>
