<svg xmlns="http://www.w3.org/2000/svg" xmlns:xlink="http://www.w3.org/1999/xlink" width="590" height="327.285" viewBox="0 0 590 327.285">
  <defs>
    <linearGradient id="linear-gradient" x1="11.245" y1="-5.338" x2="10.166" y2="-4.114" gradientUnits="objectBoundingBox">
      <stop offset="0" stop-color="#f8ea43"/>
      <stop offset="0.08" stop-color="#f8eb49"/>
      <stop offset="0.37" stop-color="#f9ec59"/>
      <stop offset="0.6" stop-color="#f9ed5e"/>
      <stop offset="0.72" stop-color="#efe34b"/>
      <stop offset="0.83" stop-color="#e9dc3f"/>
    </linearGradient>
    <linearGradient id="linear-gradient-2" x1="11.422" y1="-5.386" x2="10.343" y2="-4.163" xlink:href="#linear-gradient"/>
    <linearGradient id="linear-gradient-3" x1="11.515" y1="-5.435" x2="10.436" y2="-4.211" xlink:href="#linear-gradient"/>
    <linearGradient id="linear-gradient-4" x1="11.58" y1="-5.384" x2="10.501" y2="-4.16" xlink:href="#linear-gradient"/>
    <linearGradient id="linear-gradient-5" x1="-5.321" y1="2.724" x2="-6.424" y2="3.979" gradientUnits="objectBoundingBox">
      <stop offset="0" stop-color="#68c3ef"/>
      <stop offset="0.02" stop-color="#6bc4ef"/>
      <stop offset="0.24" stop-color="#85cff2"/>
      <stop offset="0.44" stop-color="#95d5f4"/>
      <stop offset="0.6" stop-color="#9ad7f5"/>
      <stop offset="0.62" stop-color="#94d5f4"/>
      <stop offset="0.75" stop-color="#74c8f0"/>
      <stop offset="0.82" stop-color="#68c3ef"/>
    </linearGradient>
    <linearGradient id="linear-gradient-6" x1="-5.411" y1="2.631" x2="-6.514" y2="3.885" xlink:href="#linear-gradient-5"/>
    <linearGradient id="linear-gradient-7" x1="9.592" y1="-4.718" x2="8.691" y2="-3.653" xlink:href="#linear-gradient"/>
    <linearGradient id="linear-gradient-8" x1="-5.404" y1="2.723" x2="-6.507" y2="3.977" xlink:href="#linear-gradient-5"/>
    <linearGradient id="linear-gradient-9" x1="11.493" y1="-5.723" x2="10.413" y2="-4.5" xlink:href="#linear-gradient"/>
    <linearGradient id="linear-gradient-10" x1="11.218" y1="-5.972" x2="10.139" y2="-4.748" xlink:href="#linear-gradient"/>
    <linearGradient id="linear-gradient-11" x1="11.405" y1="-5.962" x2="10.326" y2="-4.738" xlink:href="#linear-gradient"/>
    <linearGradient id="linear-gradient-12" x1="-5.45" y1="2.793" x2="-6.553" y2="4.046" xlink:href="#linear-gradient-5"/>
    <linearGradient id="linear-gradient-13" x1="-5.325" y1="2.67" x2="-6.427" y2="3.924" xlink:href="#linear-gradient-5"/>
    <linearGradient id="linear-gradient-14" x1="1.324" y1="-0.254" x2="0.201" y2="1.013" gradientUnits="objectBoundingBox">
      <stop offset="0" stop-color="#e6a339"/>
      <stop offset="0.6" stop-color="#e5a138"/>
      <stop offset="0.82" stop-color="#de972c"/>
    </linearGradient>
    <linearGradient id="linear-gradient-15" x1="1.328" y1="-0.253" x2="0.205" y2="1.014" xlink:href="#linear-gradient-14"/>
    <linearGradient id="linear-gradient-16" x1="-11.783" y1="5.512" x2="-12.843" y2="6.743" gradientUnits="objectBoundingBox">
      <stop offset="0" stop-color="#4480c0"/>
      <stop offset="0.23" stop-color="#5e8cc7"/>
      <stop offset="0.44" stop-color="#6e93cb"/>
      <stop offset="0.6" stop-color="#7396cc"/>
      <stop offset="0.61" stop-color="#7095cb"/>
      <stop offset="0.75" stop-color="#5086c3"/>
      <stop offset="0.82" stop-color="#4480c0"/>
    </linearGradient>
    <linearGradient id="linear-gradient-17" x1="9.687" y1="-5.277" x2="8.599" y2="-4.043" gradientUnits="objectBoundingBox">
      <stop offset="0" stop-color="#36dbca"/>
      <stop offset="0.06" stop-color="#3edccc"/>
      <stop offset="0.26" stop-color="#58dfd1"/>
      <stop offset="0.45" stop-color="#68e0d4"/>
      <stop offset="0.6" stop-color="#6de1d5"/>
      <stop offset="0.64" stop-color="#62e0d3"/>
      <stop offset="0.76" stop-color="#42dccc"/>
      <stop offset="0.83" stop-color="#36dbca"/>
    </linearGradient>
    <linearGradient id="linear-gradient-18" x1="9.777" y1="-5.078" x2="8.688" y2="-3.844" xlink:href="#linear-gradient-17"/>
    <linearGradient id="linear-gradient-19" x1="9.921" y1="-4.847" x2="8.833" y2="-3.614" xlink:href="#linear-gradient-17"/>
    <linearGradient id="linear-gradient-20" x1="9.858" y1="-4.712" x2="8.77" y2="-3.479" xlink:href="#linear-gradient-17"/>
    <linearGradient id="linear-gradient-21" x1="11.591" y1="-5.223" x2="10.514" y2="-4.001" gradientUnits="objectBoundingBox">
      <stop offset="0" stop-color="#9ad3ea"/>
      <stop offset="0.08" stop-color="#a0d8ee"/>
      <stop offset="0.37" stop-color="#b0e4f9"/>
      <stop offset="0.6" stop-color="#b5e8fd"/>
      <stop offset="0.72" stop-color="#a1d7ed"/>
      <stop offset="0.82" stop-color="#95cce3"/>
    </linearGradient>
    <linearGradient id="linear-gradient-22" x1="11.491" y1="-5.408" x2="10.414" y2="-4.187" xlink:href="#linear-gradient-21"/>
    <linearGradient id="linear-gradient-23" x1="11.738" y1="-5.955" x2="10.661" y2="-4.732" xlink:href="#linear-gradient-21"/>
    <linearGradient id="linear-gradient-24" x1="11.849" y1="-5.19" x2="10.771" y2="-3.968" xlink:href="#linear-gradient-21"/>
    <linearGradient id="linear-gradient-25" x1="11.226" y1="-5.708" x2="10.146" y2="-4.485" xlink:href="#linear-gradient"/>
    <linearGradient id="linear-gradient-26" x1="11.481" y1="-5.526" x2="10.403" y2="-4.304" xlink:href="#linear-gradient-21"/>
    <linearGradient id="linear-gradient-27" x1="11.593" y1="-5.278" x2="10.516" y2="-4.056" xlink:href="#linear-gradient-21"/>
  </defs>
  <g id="Grupo_94325" data-name="Grupo 94325" transform="translate(-200 -5495.617)">
    <path id="Trazado_192285" data-name="Trazado 192285" d="M0,0H590V327.284H0Z" transform="translate(200 5495.617)" fill="#276871"/>
    <path id="Trazado_192286" data-name="Trazado 192286" d="M5,0H.8V-7H4.839v1.284H2.378V-4.16h2.29v1.279H2.378v1.6H5ZM6.753-5.791a.9.9,0,0,1-.64-.232.747.747,0,0,1-.249-.569.721.721,0,0,1,.249-.566.931.931,0,0,1,.64-.22.929.929,0,0,1,.642.22.724.724,0,0,1,.247.566.744.744,0,0,1-.247.576A.917.917,0,0,1,6.753-5.791Zm.762,5.7a2.718,2.718,0,0,1-.542,1.772,1.9,1.9,0,0,1-1.562.664A2.16,2.16,0,0,1,4.673,2.2V.991a1.2,1.2,0,0,0,.571.181q.728,0,.728-1.143V-5H7.515Zm5.791-1.973H10.044q.078,1.089,1.372,1.089a2.679,2.679,0,0,0,1.45-.391V-.249a3.81,3.81,0,0,1-1.8.371,2.536,2.536,0,0,1-1.88-.671,2.537,2.537,0,0,1-.669-1.873,2.676,2.676,0,0,1,.723-1.973,2.408,2.408,0,0,1,1.777-.728,2.185,2.185,0,0,1,1.692.649,2.5,2.5,0,0,1,.6,1.763Zm-1.431-.947q0-1.074-.869-1.074a.83.83,0,0,0-.642.308,1.4,1.4,0,0,0-.33.767ZM22.163,0H20.625V-2.852q0-1.089-.8-1.089a.736.736,0,0,0-.62.327,1.344,1.344,0,0,0-.239.815V0H17.422V-2.881q0-1.06-.786-1.06A.754.754,0,0,0,16-3.628a1.375,1.375,0,0,0-.237.85V0H14.224V-5h1.543v.781h.02a1.845,1.845,0,0,1,.671-.652,1.845,1.845,0,0,1,.945-.251,1.44,1.44,0,0,1,1.45.933,1.85,1.85,0,0,1,1.68-.933q1.631,0,1.631,2.012Zm2.783-.581h-.02V2.3H23.384V-5h1.543v.752h.02a1.814,1.814,0,0,1,1.606-.874,1.807,1.807,0,0,1,1.5.667,2.838,2.838,0,0,1,.53,1.814,3.076,3.076,0,0,1-.618,2.007,2.014,2.014,0,0,1-1.643.757A1.557,1.557,0,0,1,24.946-.581ZM24.9-2.632v.4a1.273,1.273,0,0,0,.273.845.89.89,0,0,0,.718.327.946.946,0,0,0,.818-.408A1.969,1.969,0,0,0,27-2.622Q27-3.94,25.977-3.94a.963.963,0,0,0-.774.359A1.431,1.431,0,0,0,24.9-2.632ZM31.128,0H29.585V-7.4h1.543ZM34.81.122a2.688,2.688,0,0,1-1.965-.7,2.54,2.54,0,0,1-.715-1.9,2.54,2.54,0,0,1,.742-1.941,2.8,2.8,0,0,1,2.007-.7,2.655,2.655,0,0,1,1.953.7,2.491,2.491,0,0,1,.708,1.853A2.644,2.644,0,0,1,36.809-.6,2.718,2.718,0,0,1,34.81.122Zm.039-4.062a1.029,1.029,0,0,0-.85.376A1.658,1.658,0,0,0,33.7-2.5q0,1.44,1.162,1.44,1.108,0,1.108-1.479Q35.967-3.94,34.849-3.94ZM46.191,0H44.648V-.688h-.02a1.73,1.73,0,0,1-1.548.811A1.9,1.9,0,0,1,41.572-.54,2.739,2.739,0,0,1,41-2.388a2.981,2.981,0,0,1,.63-1.987,2.055,2.055,0,0,1,1.65-.747,1.4,1.4,0,0,1,1.348.693h.02V-7.4h1.543ZM44.678-2.432v-.376a1.183,1.183,0,0,0-.283-.811.935.935,0,0,0-.737-.322.929.929,0,0,0-.8.4,1.871,1.871,0,0,0-.288,1.106,1.619,1.619,0,0,0,.278,1.016.924.924,0,0,0,.771.356.928.928,0,0,0,.764-.376A1.567,1.567,0,0,0,44.678-2.432Zm7.3.371H48.721Q48.8-.972,50.093-.972a2.679,2.679,0,0,0,1.45-.391V-.249a3.81,3.81,0,0,1-1.8.371,2.536,2.536,0,0,1-1.88-.671,2.537,2.537,0,0,1-.669-1.873,2.676,2.676,0,0,1,.723-1.973,2.408,2.408,0,0,1,1.777-.728,2.185,2.185,0,0,1,1.692.649,2.5,2.5,0,0,1,.6,1.763Zm-1.431-.947q0-1.074-.869-1.074a.83.83,0,0,0-.642.308,1.4,1.4,0,0,0-.33.767Zm8.13,2.949a2.281,2.281,0,0,1-1.03.181q-1.631,0-1.631-1.694v-2.29H55.21V-5h.811V-6.079l1.538-.439V-5h1.123v1.138H57.559v2.021q0,.781.62.781a1.045,1.045,0,0,0,.5-.142ZM63.711,0h-1.46V-.718h-.02a1.63,1.63,0,0,1-1.489.84A1.558,1.558,0,0,1,59.6-.291a1.478,1.478,0,0,1-.417-1.1q0-1.455,1.724-1.68l1.357-.181q0-.82-.889-.82a3.033,3.033,0,0,0-1.7.532V-4.7A3.823,3.823,0,0,1,60.554-5a4.633,4.633,0,0,1,1.018-.127,1.888,1.888,0,0,1,2.139,2.134Zm-1.45-2.031v-.337l-.908.117q-.752.1-.752.679a.561.561,0,0,0,.183.432.7.7,0,0,0,.5.168.913.913,0,0,0,.708-.3A1.085,1.085,0,0,0,62.261-2.031Zm4.233,1.45h-.02V0H64.932V-7.4h1.543v3.154h.02a1.831,1.831,0,0,1,1.626-.874,1.784,1.784,0,0,1,1.489.664,2.864,2.864,0,0,1,.522,1.816,3.1,3.1,0,0,1-.61,2.007,1.988,1.988,0,0,1-1.631.757A1.575,1.575,0,0,1,66.494-.581ZM66.45-2.69v.513a1.17,1.17,0,0,0,.278.8.905.905,0,0,0,.713.317.946.946,0,0,0,.818-.408,1.969,1.969,0,0,0,.291-1.155,1.566,1.566,0,0,0-.266-.969.9.9,0,0,0-.759-.349.981.981,0,0,0-.769.347A1.317,1.317,0,0,0,66.45-2.69ZM72.676,0H71.133V-7.4h1.543Zm5.791-2.061H75.205q.078,1.089,1.372,1.089a2.679,2.679,0,0,0,1.45-.391V-.249a3.81,3.81,0,0,1-1.8.371,2.536,2.536,0,0,1-1.88-.671,2.537,2.537,0,0,1-.669-1.873A2.676,2.676,0,0,1,74.4-4.395a2.408,2.408,0,0,1,1.777-.728,2.185,2.185,0,0,1,1.692.649,2.5,2.5,0,0,1,.6,1.763Zm-1.431-.947q0-1.074-.869-1.074a.83.83,0,0,0-.642.308,1.4,1.4,0,0,0-.33.767Zm5.61-.6A1.338,1.338,0,0,0,82-3.76a.936.936,0,0,0-.786.369,1.608,1.608,0,0,0-.283,1V0H79.385V-5h1.543v.928h.02a1.335,1.335,0,0,1,1.318-1.016.994.994,0,0,1,.381.059ZM85.508.122a2.688,2.688,0,0,1-1.965-.7,2.54,2.54,0,0,1-.715-1.9,2.54,2.54,0,0,1,.742-1.941,2.8,2.8,0,0,1,2.007-.7,2.655,2.655,0,0,1,1.953.7,2.491,2.491,0,0,1,.708,1.853A2.644,2.644,0,0,1,87.508-.6,2.718,2.718,0,0,1,85.508.122Zm.039-4.062a1.029,1.029,0,0,0-.85.376,1.658,1.658,0,0,0-.3,1.064q0,1.44,1.162,1.44,1.108,0,1.108-1.479Q86.665-3.94,85.547-3.94ZM96.89,0H95.347V-.688h-.02a1.73,1.73,0,0,1-1.548.811A1.9,1.9,0,0,1,92.271-.54,2.739,2.739,0,0,1,91.7-2.388a2.981,2.981,0,0,1,.63-1.987,2.055,2.055,0,0,1,1.65-.747,1.4,1.4,0,0,1,1.348.693h.02V-7.4H96.89ZM95.376-2.432v-.376a1.183,1.183,0,0,0-.283-.811.935.935,0,0,0-.737-.322.929.929,0,0,0-.8.4,1.871,1.871,0,0,0-.288,1.106,1.619,1.619,0,0,0,.278,1.016.924.924,0,0,0,.771.356.928.928,0,0,0,.764-.376A1.567,1.567,0,0,0,95.376-2.432Zm7.3.371H99.419Q99.5-.972,100.791-.972a2.679,2.679,0,0,0,1.45-.391V-.249a3.81,3.81,0,0,1-1.8.371,2.536,2.536,0,0,1-1.88-.671,2.537,2.537,0,0,1-.669-1.873,2.676,2.676,0,0,1,.723-1.973,2.408,2.408,0,0,1,1.777-.728,2.185,2.185,0,0,1,1.692.649,2.5,2.5,0,0,1,.6,1.763Zm-1.431-.947q0-1.074-.869-1.074a.83.83,0,0,0-.642.308,1.4,1.4,0,0,0-.33.767Zm8.13,2.949a2.281,2.281,0,0,1-1.03.181q-1.631,0-1.631-1.694v-2.29h-.811V-5h.811V-6.079l1.538-.439V-5h1.123v1.138h-1.123v2.021q0,.781.62.781a1.045,1.045,0,0,0,.5-.142ZM114.409,0h-1.46V-.718h-.02a1.63,1.63,0,0,1-1.489.84A1.558,1.558,0,0,1,110.3-.291a1.478,1.478,0,0,1-.417-1.1q0-1.455,1.724-1.68l1.357-.181q0-.82-.889-.82a3.033,3.033,0,0,0-1.7.532V-4.7A3.823,3.823,0,0,1,111.253-5a4.633,4.633,0,0,1,1.018-.127,1.888,1.888,0,0,1,2.139,2.134Zm-1.45-2.031v-.337l-.908.117q-.752.1-.752.679a.561.561,0,0,0,.183.432.7.7,0,0,0,.5.168.913.913,0,0,0,.708-.3A1.085,1.085,0,0,0,112.959-2.031Zm5.933-1.577a1.338,1.338,0,0,0-.649-.151.936.936,0,0,0-.786.369,1.608,1.608,0,0,0-.283,1V0H115.63V-5h1.543v.928h.02a1.335,1.335,0,0,1,1.318-1.016.994.994,0,0,1,.381.059Zm5.071,1.548H120.7q.078,1.089,1.372,1.089a2.679,2.679,0,0,0,1.45-.391V-.249a3.81,3.81,0,0,1-1.8.371,2.536,2.536,0,0,1-1.88-.671,2.537,2.537,0,0,1-.669-1.873,2.676,2.676,0,0,1,.723-1.973,2.408,2.408,0,0,1,1.777-.728,2.185,2.185,0,0,1,1.692.649,2.5,2.5,0,0,1,.6,1.763Zm-1.431-.947q0-1.074-.869-1.074a.83.83,0,0,0-.642.308,1.4,1.4,0,0,0-.33.767ZM129.041,0h-1.46V-.718h-.02a1.63,1.63,0,0,1-1.489.84,1.558,1.558,0,0,1-1.145-.413,1.478,1.478,0,0,1-.417-1.1q0-1.455,1.724-1.68l1.357-.181q0-.82-.889-.82a3.033,3.033,0,0,0-1.7.532V-4.7A3.823,3.823,0,0,1,125.884-5a4.633,4.633,0,0,1,1.018-.127,1.888,1.888,0,0,1,2.139,2.134Zm-1.45-2.031v-.337l-.908.117q-.752.1-.752.679a.561.561,0,0,0,.183.432.7.7,0,0,0,.5.168.913.913,0,0,0,.708-.3A1.085,1.085,0,0,0,127.591-2.031Zm2.344,1.9v-1.25a3.285,3.285,0,0,0,.759.342,2.517,2.517,0,0,0,.715.112,1.534,1.534,0,0,0,.647-.112.363.363,0,0,0,.237-.342.316.316,0,0,0-.107-.244,1,1,0,0,0-.276-.171,3.13,3.13,0,0,0-.369-.132q-.2-.059-.386-.132a3.7,3.7,0,0,1-.525-.242,1.517,1.517,0,0,1-.381-.3,1.18,1.18,0,0,1-.234-.4,1.578,1.578,0,0,1-.081-.532,1.37,1.37,0,0,1,.183-.723,1.5,1.5,0,0,1,.488-.5,2.231,2.231,0,0,1,.7-.283,3.641,3.641,0,0,1,.818-.09,4.538,4.538,0,0,1,.674.051,5.03,5.03,0,0,1,.674.149V-3.73a2.435,2.435,0,0,0-.627-.256,2.647,2.647,0,0,0-.657-.085,1.455,1.455,0,0,0-.286.027.941.941,0,0,0-.237.078.435.435,0,0,0-.161.132.3.3,0,0,0-.059.183.338.338,0,0,0,.088.234.763.763,0,0,0,.229.168,2.266,2.266,0,0,0,.315.127q.173.056.344.115a4.476,4.476,0,0,1,.557.234,1.78,1.78,0,0,1,.427.3,1.17,1.17,0,0,1,.273.4,1.423,1.423,0,0,1,.1.547,1.426,1.426,0,0,1-.193.759,1.544,1.544,0,0,1-.513.513,2.325,2.325,0,0,1-.737.288,4.087,4.087,0,0,1-.867.09A4.468,4.468,0,0,1,129.934-.132ZM142.312,0h-1.543V-.688h-.02A1.73,1.73,0,0,1,139.2.122a1.9,1.9,0,0,1-1.509-.662,2.739,2.739,0,0,1-.571-1.848,2.981,2.981,0,0,1,.63-1.987,2.055,2.055,0,0,1,1.65-.747,1.4,1.4,0,0,1,1.348.693h.02V-7.4h1.543ZM140.8-2.432v-.376a1.183,1.183,0,0,0-.283-.811.935.935,0,0,0-.737-.322.929.929,0,0,0-.8.4,1.871,1.871,0,0,0-.288,1.106,1.619,1.619,0,0,0,.278,1.016.924.924,0,0,0,.771.356.928.928,0,0,0,.764-.376A1.567,1.567,0,0,0,140.8-2.432Zm7.3.371h-3.262q.078,1.089,1.372,1.089a2.679,2.679,0,0,0,1.45-.391V-.249a3.81,3.81,0,0,1-1.8.371,2.536,2.536,0,0,1-1.88-.671,2.537,2.537,0,0,1-.669-1.873,2.676,2.676,0,0,1,.723-1.973,2.408,2.408,0,0,1,1.777-.728,2.185,2.185,0,0,1,1.692.649,2.5,2.5,0,0,1,.6,1.763Zm-1.431-.947q0-1.074-.869-1.074a.83.83,0,0,0-.642.308,1.4,1.4,0,0,0-.33.767Zm4.937,2.739V-1.831a3,3,0,0,0,.923.535,2.966,2.966,0,0,0,1.006.178,2.231,2.231,0,0,0,.52-.054,1.218,1.218,0,0,0,.371-.149.649.649,0,0,0,.222-.225.56.56,0,0,0,.073-.281.607.607,0,0,0-.117-.366,1.261,1.261,0,0,0-.32-.3,3.342,3.342,0,0,0-.481-.264q-.278-.127-.6-.259a3.065,3.065,0,0,1-1.223-.835,1.823,1.823,0,0,1-.4-1.191,1.9,1.9,0,0,1,.22-.94,1.866,1.866,0,0,1,.6-.647A2.682,2.682,0,0,1,153.274-7a4.5,4.5,0,0,1,1.055-.12,6.344,6.344,0,0,1,.969.066,3.812,3.812,0,0,1,.779.2v1.46a2.355,2.355,0,0,0-.383-.215,3.037,3.037,0,0,0-.427-.154,3.259,3.259,0,0,0-.437-.09,3.093,3.093,0,0,0-.413-.029,2.152,2.152,0,0,0-.488.051,1.252,1.252,0,0,0-.371.144.717.717,0,0,0-.234.222.527.527,0,0,0-.083.291.555.555,0,0,0,.093.315,1.064,1.064,0,0,0,.264.264,2.8,2.8,0,0,0,.415.244q.244.12.552.247a6.147,6.147,0,0,1,.754.374,2.682,2.682,0,0,1,.574.447,1.741,1.741,0,0,1,.366.569,2.01,2.01,0,0,1,.127.745,2,2,0,0,1-.222.984,1.8,1.8,0,0,1-.6.645,2.615,2.615,0,0,1-.886.354,5.122,5.122,0,0,1-1.067.107,5.932,5.932,0,0,1-1.1-.1A3.309,3.309,0,0,1,151.609-.269Zm9.565.088a3.051,3.051,0,0,1-1.509.3,2.552,2.552,0,0,1-1.865-.7,2.412,2.412,0,0,1-.713-1.8,2.657,2.657,0,0,1,.764-2.009,2.824,2.824,0,0,1,2.043-.735,2.622,2.622,0,0,1,1.279.234v1.309A1.759,1.759,0,0,0,160.1-3.94a1.422,1.422,0,0,0-1.052.388,1.448,1.448,0,0,0-.388,1.072,1.425,1.425,0,0,0,.371,1.042,1.364,1.364,0,0,0,1.021.378,2.037,2.037,0,0,0,1.128-.361Zm4.272-3.428a1.338,1.338,0,0,0-.649-.151.936.936,0,0,0-.786.369,1.608,1.608,0,0,0-.283,1V0h-1.543V-5h1.543v.928h.02a1.335,1.335,0,0,1,1.318-1.016.994.994,0,0,1,.381.059ZM170.945,0h-1.538V-.762h-.024a1.745,1.745,0,0,1-1.528.884q-1.738,0-1.738-2.1V-5h1.538v2.881q0,1.06.84,1.06a.831.831,0,0,0,.664-.291,1.172,1.172,0,0,0,.249-.789V-5h1.538Zm9.238,0h-1.538V-2.852q0-1.089-.8-1.089a.736.736,0,0,0-.62.327,1.344,1.344,0,0,0-.239.815V0h-1.543V-2.881q0-1.06-.786-1.06a.754.754,0,0,0-.632.313,1.375,1.375,0,0,0-.237.85V0h-1.543V-5h1.543v.781h.02a1.845,1.845,0,0,1,.671-.652,1.845,1.845,0,0,1,.945-.251,1.44,1.44,0,0,1,1.45.933,1.85,1.85,0,0,1,1.68-.933q1.631,0,1.631,2.012Z" transform="translate(383.281 5513.787)" fill="#fff"/>
    <path id="Trazado_192287" data-name="Trazado 192287" d="M2.14-2.171V0H.721V-6.3H2.944q2.382,0,2.382,2.008a1.927,1.927,0,0,1-.683,1.536,2.707,2.707,0,0,1-1.826.587Zm0-3.041v1.964H2.7q1.134,0,1.134-.993,0-.971-1.134-.971Z" transform="translate(223.231 5544.181)" fill="#fff"/>
    <path id="Trazado_192288" data-name="Trazado 192288" d="M3.52-3.248a1.2,1.2,0,0,0-.584-.136.842.842,0,0,0-.708.332,1.447,1.447,0,0,0-.255.9V0H.584V-4.5H1.973v.835h.018a1.2,1.2,0,0,1,1.187-.914.894.894,0,0,1,.343.053Z" transform="translate(229.731 5544.181)" fill="#fff"/>
    <path id="Trazado_192289" data-name="Trazado 192289" d="M2.729.11A2.419,2.419,0,0,1,.96-.521,2.286,2.286,0,0,1,.316-2.232,2.286,2.286,0,0,1,.984-3.979,2.524,2.524,0,0,1,2.791-4.61a2.39,2.39,0,0,1,1.758.631,2.242,2.242,0,0,1,.637,1.668A2.379,2.379,0,0,1,4.529-.541,2.446,2.446,0,0,1,2.729.11Zm.035-3.656A.926.926,0,0,0,2-3.208a1.492,1.492,0,0,0-.272.958q0,1.3,1.046,1.3,1,0,1-1.332Q3.771-3.546,2.764-3.546ZM10.49,0H9.1V-.62H9.083A1.557,1.557,0,0,1,7.69.11a1.706,1.706,0,0,1-1.358-.6,2.465,2.465,0,0,1-.514-1.663,2.683,2.683,0,0,1,.567-1.789A1.849,1.849,0,0,1,7.871-4.61a1.264,1.264,0,0,1,1.213.624H9.1V-6.662H10.49ZM9.127-2.188v-.338a1.065,1.065,0,0,0-.255-.729.842.842,0,0,0-.664-.29.836.836,0,0,0-.721.363,1.684,1.684,0,0,0-.259,1,1.457,1.457,0,0,0,.25.914.832.832,0,0,0,.694.321.835.835,0,0,0,.688-.338A1.41,1.41,0,0,0,9.127-2.188ZM15.935,0H14.55V-.686h-.022a1.57,1.57,0,0,1-1.375.8q-1.564,0-1.564-1.894V-4.5h1.384v2.593q0,.954.756.954a.748.748,0,0,0,.6-.261,1.054,1.054,0,0,0,.224-.71V-4.5h1.384Zm4.579-.163A2.746,2.746,0,0,1,19.156.11a2.3,2.3,0,0,1-1.679-.628,2.17,2.17,0,0,1-.642-1.622,2.391,2.391,0,0,1,.688-1.808,2.542,2.542,0,0,1,1.839-.661,2.36,2.36,0,0,1,1.151.211v1.178a1.583,1.583,0,0,0-.971-.325A1.28,1.28,0,0,0,18.6-3.2a1.3,1.3,0,0,0-.349.965,1.282,1.282,0,0,0,.334.938,1.227,1.227,0,0,0,.918.341,1.833,1.833,0,0,0,1.015-.325Zm3.63.11a2.053,2.053,0,0,1-.927.163q-1.468,0-1.468-1.525V-3.476h-.729V-4.5h.729v-.971l1.384-.4V-4.5h1.011v1.024H23.133v1.819q0,.7.558.7a.941.941,0,0,0,.453-.127Zm3.4.053V-6.3h2.294a2.865,2.865,0,0,1,1.622.387,1.244,1.244,0,0,1,.567,1.09,1.29,1.29,0,0,1-.345.892A1.812,1.812,0,0,1,30.8-3.4v.018a1.746,1.746,0,0,1,1.074.5,1.389,1.389,0,0,1,.4,1.006,1.682,1.682,0,0,1-.62,1.373A2.593,2.593,0,0,1,29.966,0Zm1.419-5.256v1.494h.624a1.04,1.04,0,0,0,.692-.213.726.726,0,0,0,.253-.587q0-.694-1.037-.694Zm0,2.549v1.661h.769a1.184,1.184,0,0,0,.771-.229.763.763,0,0,0,.279-.624.712.712,0,0,0-.275-.593,1.215,1.215,0,0,0-.767-.215ZM36.923,0H35.609V-.646h-.018a1.467,1.467,0,0,1-1.34.756A1.4,1.4,0,0,1,33.22-.261a1.331,1.331,0,0,1-.376-.991q0-1.31,1.551-1.512l1.222-.163q0-.738-.8-.738a2.73,2.73,0,0,0-1.529.479V-4.232a3.441,3.441,0,0,1,.793-.264A4.17,4.17,0,0,1,35-4.61a1.7,1.7,0,0,1,1.925,1.92ZM35.618-1.828v-.3l-.817.105q-.677.088-.677.611a.5.5,0,0,0,.165.389.633.633,0,0,0,.446.152.822.822,0,0,0,.637-.27A.976.976,0,0,0,35.618-1.828ZM41.432-.163A2.746,2.746,0,0,1,40.074.11,2.3,2.3,0,0,1,38.4-.519a2.17,2.17,0,0,1-.642-1.622,2.391,2.391,0,0,1,.688-1.808A2.542,2.542,0,0,1,40.28-4.61a2.36,2.36,0,0,1,1.151.211v1.178a1.583,1.583,0,0,0-.971-.325,1.28,1.28,0,0,0-.947.349,1.3,1.3,0,0,0-.349.965,1.282,1.282,0,0,0,.334.938,1.227,1.227,0,0,0,.918.341,1.833,1.833,0,0,0,1.015-.325ZM46.85,0H45.185L43.748-2.232H43.73V0H42.341V-6.662H43.73v4.241h.018L45.088-4.5h1.648L45.123-2.386Zm1.912,0H47.373V-6.662h1.389Zm3.313.11a2.419,2.419,0,0,1-1.769-.631,2.286,2.286,0,0,1-.644-1.712,2.286,2.286,0,0,1,.668-1.747,2.524,2.524,0,0,1,1.806-.631,2.39,2.39,0,0,1,1.758.631,2.242,2.242,0,0,1,.637,1.668,2.379,2.379,0,0,1-.657,1.771A2.446,2.446,0,0,1,52.075.11Zm.035-3.656a.926.926,0,0,0-.765.338,1.492,1.492,0,0,0-.272.958q0,1.3,1.046,1.3,1,0,1-1.332Q53.117-3.546,52.11-3.546ZM59.845-.514a2.546,2.546,0,0,1-.725,1.94,2.939,2.939,0,0,1-2.1.688,3.33,3.33,0,0,1-1.441-.259V.686a2.76,2.76,0,0,0,1.4.4,1.51,1.51,0,0,0,1.09-.371A1.333,1.333,0,0,0,58.456-.29V-.646h-.018a1.551,1.551,0,0,1-1.4.756A1.686,1.686,0,0,1,55.67-.5a2.459,2.459,0,0,1-.505-1.626,2.739,2.739,0,0,1,.563-1.815,1.836,1.836,0,0,1,1.481-.672,1.367,1.367,0,0,1,1.23.633h.018V-4.5h1.389ZM58.474-2.162v-.356a1.094,1.094,0,0,0-.253-.727.817.817,0,0,0-.657-.3.849.849,0,0,0-.725.36,1.7,1.7,0,0,0-.264,1.015,1.43,1.43,0,0,0,.25.89.816.816,0,0,0,.686.327.85.85,0,0,0,.7-.332A1.36,1.36,0,0,0,58.474-2.162Z" transform="translate(233.231 5544.181)" fill="#fff"/>
    <path id="Trazado_192290" data-name="Trazado 192290" d="M2.14-2.171V0H.721V-6.3H2.944q2.382,0,2.382,2.008a1.927,1.927,0,0,1-.683,1.536,2.707,2.707,0,0,1-1.826.587Zm0-3.041v1.964H2.7q1.134,0,1.134-.993,0-.971-1.134-.971Zm4.676,0a.811.811,0,0,1-.576-.209.673.673,0,0,1-.224-.512.649.649,0,0,1,.224-.51.838.838,0,0,1,.576-.2.836.836,0,0,1,.578.2.652.652,0,0,1,.222.51.67.67,0,0,1-.222.519A.825.825,0,0,1,6.816-5.212ZM7.5,0H6.113V-4.5H7.5Zm2.558,0H8.67V-6.662h1.389Zm4.913,0H13.658V-.646h-.018A1.467,1.467,0,0,1,12.3.11,1.4,1.4,0,0,1,11.27-.261a1.331,1.331,0,0,1-.376-.991q0-1.31,1.551-1.512l1.222-.163q0-.738-.8-.738a2.73,2.73,0,0,0-1.529.479V-4.232a3.441,3.441,0,0,1,.793-.264,4.17,4.17,0,0,1,.916-.114,1.7,1.7,0,0,1,1.925,1.92ZM13.667-1.828v-.3l-.817.105q-.677.088-.677.611a.5.5,0,0,0,.165.389.633.633,0,0,0,.446.152.822.822,0,0,0,.637-.27A.976.976,0,0,0,13.667-1.828ZM22.957,0H21.568V-.62h-.018A1.557,1.557,0,0,1,20.158.11a1.706,1.706,0,0,1-1.358-.6,2.465,2.465,0,0,1-.514-1.663,2.683,2.683,0,0,1,.567-1.789,1.849,1.849,0,0,1,1.485-.672,1.264,1.264,0,0,1,1.213.624h.018V-6.662h1.389ZM21.595-2.188v-.338a1.065,1.065,0,0,0-.255-.729.842.842,0,0,0-.664-.29.836.836,0,0,0-.721.363,1.684,1.684,0,0,0-.259,1,1.457,1.457,0,0,0,.25.914.832.832,0,0,0,.694.321.835.835,0,0,0,.688-.338A1.41,1.41,0,0,0,21.595-2.188Zm6.574.334H25.233q.07.98,1.235.98a2.411,2.411,0,0,0,1.305-.352v1A3.429,3.429,0,0,1,26.152.11a2.283,2.283,0,0,1-1.692-.6,2.283,2.283,0,0,1-.6-1.685,2.408,2.408,0,0,1,.65-1.775,2.167,2.167,0,0,1,1.6-.655,1.967,1.967,0,0,1,1.523.584,2.251,2.251,0,0,1,.538,1.586Zm-1.288-.853q0-.967-.782-.967a.747.747,0,0,0-.578.277,1.257,1.257,0,0,0-.3.69Zm6,2.184h-.018V2.07H31.478V-4.5h1.389v.677h.018A1.632,1.632,0,0,1,34.33-4.61a1.627,1.627,0,0,1,1.351.6,2.554,2.554,0,0,1,.477,1.633A2.768,2.768,0,0,1,35.6-.571,1.813,1.813,0,0,1,34.124.11,1.4,1.4,0,0,1,32.884-.523Zm-.04-1.846v.36a1.146,1.146,0,0,0,.246.76.8.8,0,0,0,.646.294.851.851,0,0,0,.736-.367,1.772,1.772,0,0,0,.261-1.039q0-1.187-.923-1.187a.867.867,0,0,0-.7.323A1.288,1.288,0,0,0,32.845-2.369Z" transform="translate(223.724 5556.275)" fill="#fff"/>
    <path id="Trazado_192291" data-name="Trazado 192291" d="M3.52-3.248a1.2,1.2,0,0,0-.584-.136.842.842,0,0,0-.708.332,1.447,1.447,0,0,0-.255.9V0H.584V-4.5H1.973v.835h.018a1.2,1.2,0,0,1,1.187-.914.894.894,0,0,1,.343.053Z" transform="translate(262.794 5556.275)" fill="#fff"/>
    <path id="Trazado_192292" data-name="Trazado 192292" d="M2.729.11A2.419,2.419,0,0,1,.96-.521,2.286,2.286,0,0,1,.316-2.232,2.286,2.286,0,0,1,.984-3.979,2.524,2.524,0,0,1,2.791-4.61a2.39,2.39,0,0,1,1.758.631,2.242,2.242,0,0,1,.637,1.668A2.379,2.379,0,0,1,4.529-.541,2.446,2.446,0,0,1,2.729.11Zm.035-3.656A.926.926,0,0,0,2-3.208a1.492,1.492,0,0,0-.272.958q0,1.3,1.046,1.3,1,0,1-1.332Q3.771-3.546,2.764-3.546ZM10.49,0H9.1V-.62H9.083A1.557,1.557,0,0,1,7.69.11a1.706,1.706,0,0,1-1.358-.6,2.465,2.465,0,0,1-.514-1.663,2.683,2.683,0,0,1,.567-1.789A1.849,1.849,0,0,1,7.871-4.61a1.264,1.264,0,0,1,1.213.624H9.1V-6.662H10.49ZM9.127-2.188v-.338a1.065,1.065,0,0,0-.255-.729.842.842,0,0,0-.664-.29.836.836,0,0,0-.721.363,1.684,1.684,0,0,0-.259,1,1.457,1.457,0,0,0,.25.914.832.832,0,0,0,.694.321.835.835,0,0,0,.688-.338A1.41,1.41,0,0,0,9.127-2.188ZM15.935,0H14.55V-.686h-.022a1.57,1.57,0,0,1-1.375.8q-1.564,0-1.564-1.894V-4.5h1.384v2.593q0,.954.756.954a.748.748,0,0,0,.6-.261,1.054,1.054,0,0,0,.224-.71V-4.5h1.384Zm4.579-.163A2.746,2.746,0,0,1,19.156.11a2.3,2.3,0,0,1-1.679-.628,2.17,2.17,0,0,1-.642-1.622,2.391,2.391,0,0,1,.688-1.808,2.542,2.542,0,0,1,1.839-.661,2.36,2.36,0,0,1,1.151.211v1.178a1.583,1.583,0,0,0-.971-.325A1.28,1.28,0,0,0,18.6-3.2a1.3,1.3,0,0,0-.349.965,1.282,1.282,0,0,0,.334.938,1.227,1.227,0,0,0,.918.341,1.833,1.833,0,0,0,1.015-.325Z" transform="translate(266.293 5556.275)" fill="#fff"/>
    <path id="Trazado_192293" data-name="Trazado 192293" d="M2.57-.041a1.6,1.6,0,0,1-.721.126Q.708.085.708-1.1V-2.7H.14v-.8H.708v-.755l1.077-.308V-3.5H2.57v.8H1.784v1.415q0,.547.434.547a.732.732,0,0,0,.352-.1Z" transform="translate(288.567 5554.275)" fill="#fff"/>
    <path id="Trazado_192294" data-name="Trazado 192294" d="M2.426.1A2.15,2.15,0,0,1,.854-.463,2.032,2.032,0,0,1,.281-1.984,2.032,2.032,0,0,1,.875-3.537,2.243,2.243,0,0,1,2.48-4.1a2.124,2.124,0,0,1,1.563.561,1.993,1.993,0,0,1,.566,1.482A2.115,2.115,0,0,1,4.025-.48,2.174,2.174,0,0,1,2.426.1Zm.031-3.25a.823.823,0,0,0-.68.3A1.326,1.326,0,0,0,1.535-2q0,1.152.93,1.152.887,0,.887-1.184Q3.352-3.152,2.457-3.152Z" transform="translate(291.826 5555.275)" fill="#fff"/>
    <path id="Trazado_192295" data-name="Trazado 192295" d="M.431-.242V-1.648a2.7,2.7,0,0,0,.831.481,2.67,2.67,0,0,0,.905.16,2.008,2.008,0,0,0,.468-.048,1.1,1.1,0,0,0,.334-.134.585.585,0,0,0,.2-.2.5.5,0,0,0,.066-.253.546.546,0,0,0-.105-.33,1.135,1.135,0,0,0-.288-.268,3.008,3.008,0,0,0-.433-.237q-.25-.114-.541-.233a2.759,2.759,0,0,1-1.1-.751A1.641,1.641,0,0,1,.4-4.535a1.708,1.708,0,0,1,.2-.846,1.68,1.68,0,0,1,.538-.582A2.414,2.414,0,0,1,1.929-6.3a4.053,4.053,0,0,1,.949-.108,5.709,5.709,0,0,1,.872.059,3.431,3.431,0,0,1,.7.182v1.314a2.119,2.119,0,0,0-.345-.193,2.733,2.733,0,0,0-.385-.138,2.933,2.933,0,0,0-.393-.081,2.784,2.784,0,0,0-.371-.026,1.937,1.937,0,0,0-.439.046,1.127,1.127,0,0,0-.334.13.645.645,0,0,0-.211.2.474.474,0,0,0-.075.261.5.5,0,0,0,.083.283.958.958,0,0,0,.237.237,2.518,2.518,0,0,0,.374.22q.22.108.5.222a5.533,5.533,0,0,1,.679.336,2.414,2.414,0,0,1,.516.4,1.566,1.566,0,0,1,.33.512,1.809,1.809,0,0,1,.114.67,1.8,1.8,0,0,1-.2.885,1.623,1.623,0,0,1-.543.58,2.353,2.353,0,0,1-.8.319,4.61,4.61,0,0,1-.96.1A5.339,5.339,0,0,1,1.241.022,2.978,2.978,0,0,1,.431-.242Zm6.6-.281H7.018V2.07H5.629V-4.5H7.018v.677h.018A1.632,1.632,0,0,1,8.481-4.61a1.627,1.627,0,0,1,1.351.6,2.554,2.554,0,0,1,.477,1.633A2.768,2.768,0,0,1,9.754-.571,1.813,1.813,0,0,1,8.275.11,1.4,1.4,0,0,1,7.036-.523ZM7-2.369v.36a1.146,1.146,0,0,0,.246.76.8.8,0,0,0,.646.294.851.851,0,0,0,.736-.367A1.772,1.772,0,0,0,8.886-2.36q0-1.187-.923-1.187a.867.867,0,0,0-.7.323A1.288,1.288,0,0,0,7-2.369Zm7.15-.879a1.2,1.2,0,0,0-.584-.136.842.842,0,0,0-.708.332,1.447,1.447,0,0,0-.255.9V0H11.21V-4.5H12.6v.835h.018A1.2,1.2,0,0,1,13.8-4.579a.894.894,0,0,1,.343.053ZM15.53-5.212a.811.811,0,0,1-.576-.209.673.673,0,0,1-.224-.512.649.649,0,0,1,.224-.51.838.838,0,0,1,.576-.2.836.836,0,0,1,.578.2.652.652,0,0,1,.222.51.67.67,0,0,1-.222.519A.825.825,0,0,1,15.53-5.212ZM16.216,0H14.827V-4.5h1.389Zm5.515,0H20.347V-2.5q0-1.046-.747-1.046a.741.741,0,0,0-.593.277,1.055,1.055,0,0,0-.233.7V0H17.385V-4.5h1.389v.712h.018a1.591,1.591,0,0,1,1.446-.822q1.494,0,1.494,1.854ZM25.55-.053a2.053,2.053,0,0,1-.927.163q-1.468,0-1.468-1.525V-3.476h-.729V-4.5h.729v-.971l1.384-.4V-4.5H25.55v1.024H24.539v1.819q0,.7.558.7a.941.941,0,0,0,.453-.127Zm3.4.053V-6.3h2.294a2.865,2.865,0,0,1,1.622.387,1.244,1.244,0,0,1,.567,1.09,1.29,1.29,0,0,1-.345.892,1.812,1.812,0,0,1-.881.532v.018a1.746,1.746,0,0,1,1.074.5,1.389,1.389,0,0,1,.4,1.006,1.682,1.682,0,0,1-.62,1.373A2.593,2.593,0,0,1,31.373,0Zm1.419-5.256v1.494h.624a1.04,1.04,0,0,0,.692-.213.726.726,0,0,0,.253-.587q0-.694-1.037-.694Zm0,2.549v1.661h.769a1.184,1.184,0,0,0,.771-.229A.763.763,0,0,0,32.19-1.9a.712.712,0,0,0-.275-.593,1.215,1.215,0,0,0-.767-.215ZM38.329,0H37.015V-.646H37a1.467,1.467,0,0,1-1.34.756,1.4,1.4,0,0,1-1.031-.371,1.331,1.331,0,0,1-.376-.991q0-1.31,1.551-1.512l1.222-.163q0-.738-.8-.738a2.73,2.73,0,0,0-1.529.479V-4.232a3.441,3.441,0,0,1,.793-.264A4.17,4.17,0,0,1,36.4-4.61a1.7,1.7,0,0,1,1.925,1.92ZM37.024-1.828v-.3l-.817.105q-.677.088-.677.611a.5.5,0,0,0,.165.389.633.633,0,0,0,.446.152.822.822,0,0,0,.637-.27A.976.976,0,0,0,37.024-1.828ZM42.838-.163A2.746,2.746,0,0,1,41.48.11,2.3,2.3,0,0,1,39.8-.519,2.17,2.17,0,0,1,39.16-2.14a2.391,2.391,0,0,1,.688-1.808,2.542,2.542,0,0,1,1.839-.661,2.36,2.36,0,0,1,1.151.211v1.178a1.583,1.583,0,0,0-.971-.325,1.28,1.28,0,0,0-.947.349,1.3,1.3,0,0,0-.349.965,1.282,1.282,0,0,0,.334.938,1.227,1.227,0,0,0,.918.341,1.833,1.833,0,0,0,1.015-.325ZM48.256,0H46.591L45.154-2.232h-.018V0H43.748V-6.662h1.389v4.241h.018L46.494-4.5h1.648L46.529-2.386Zm1.912,0H48.779V-6.662h1.389Zm3.313.11a2.419,2.419,0,0,1-1.769-.631,2.286,2.286,0,0,1-.644-1.712,2.286,2.286,0,0,1,.668-1.747,2.524,2.524,0,0,1,1.806-.631,2.39,2.39,0,0,1,1.758.631,2.242,2.242,0,0,1,.637,1.668,2.379,2.379,0,0,1-.657,1.771A2.446,2.446,0,0,1,53.481.11Zm.035-3.656a.926.926,0,0,0-.765.338,1.492,1.492,0,0,0-.272.958q0,1.3,1.046,1.3,1,0,1-1.332Q54.523-3.546,53.517-3.546ZM61.251-.514a2.546,2.546,0,0,1-.725,1.94,2.939,2.939,0,0,1-2.1.688,3.33,3.33,0,0,1-1.441-.259V.686a2.76,2.76,0,0,0,1.4.4,1.51,1.51,0,0,0,1.09-.371A1.333,1.333,0,0,0,59.862-.29V-.646h-.018a1.551,1.551,0,0,1-1.4.756A1.686,1.686,0,0,1,57.076-.5a2.459,2.459,0,0,1-.505-1.626,2.739,2.739,0,0,1,.563-1.815,1.836,1.836,0,0,1,1.481-.672,1.367,1.367,0,0,1,1.23.633h.018V-4.5h1.389ZM59.88-2.162v-.356a1.094,1.094,0,0,0-.253-.727.817.817,0,0,0-.657-.3.849.849,0,0,0-.725.36,1.7,1.7,0,0,0-.264,1.015,1.43,1.43,0,0,0,.25.89.816.816,0,0,0,.686.327.85.85,0,0,0,.7-.332A1.36,1.36,0,0,0,59.88-2.162Z" transform="translate(323.275 5544.181)" fill="#fff"/>
    <path id="Trazado_192296" data-name="Trazado 192296" d="M2.14-2.171V0H.721V-6.3H2.944q2.382,0,2.382,2.008a1.927,1.927,0,0,1-.683,1.536,2.707,2.707,0,0,1-1.826.587Zm0-3.041v1.964H2.7q1.134,0,1.134-.993,0-.971-1.134-.971Zm4.676,0a.811.811,0,0,1-.576-.209.673.673,0,0,1-.224-.512.649.649,0,0,1,.224-.51.838.838,0,0,1,.576-.2.836.836,0,0,1,.578.2.652.652,0,0,1,.222.51.67.67,0,0,1-.222.519A.825.825,0,0,1,6.816-5.212ZM7.5,0H6.113V-4.5H7.5Zm2.558,0H8.67V-6.662h1.389Zm4.913,0H13.658V-.646h-.018A1.467,1.467,0,0,1,12.3.11,1.4,1.4,0,0,1,11.27-.261a1.331,1.331,0,0,1-.376-.991q0-1.31,1.551-1.512l1.222-.163q0-.738-.8-.738a2.73,2.73,0,0,0-1.529.479V-4.232a3.441,3.441,0,0,1,.793-.264,4.17,4.17,0,0,1,.916-.114,1.7,1.7,0,0,1,1.925,1.92ZM13.667-1.828v-.3l-.817.105q-.677.088-.677.611a.5.5,0,0,0,.165.389.633.633,0,0,0,.446.152.822.822,0,0,0,.637-.27A.976.976,0,0,0,13.667-1.828ZM22.957,0H21.568V-.62h-.018A1.557,1.557,0,0,1,20.158.11a1.706,1.706,0,0,1-1.358-.6,2.465,2.465,0,0,1-.514-1.663,2.683,2.683,0,0,1,.567-1.789,1.849,1.849,0,0,1,1.485-.672,1.264,1.264,0,0,1,1.213.624h.018V-6.662h1.389ZM21.595-2.188v-.338a1.065,1.065,0,0,0-.255-.729.842.842,0,0,0-.664-.29.836.836,0,0,0-.721.363,1.684,1.684,0,0,0-.259,1,1.457,1.457,0,0,0,.25.914.832.832,0,0,0,.694.321.835.835,0,0,0,.688-.338A1.41,1.41,0,0,0,21.595-2.188Zm6.574.334H25.233q.07.98,1.235.98a2.411,2.411,0,0,0,1.305-.352v1A3.429,3.429,0,0,1,26.152.11a2.283,2.283,0,0,1-1.692-.6,2.283,2.283,0,0,1-.6-1.685,2.408,2.408,0,0,1,.65-1.775,2.167,2.167,0,0,1,1.6-.655,1.967,1.967,0,0,1,1.523.584,2.251,2.251,0,0,1,.538,1.586Zm-1.288-.853q0-.967-.782-.967a.747.747,0,0,0-.578.277,1.257,1.257,0,0,0-.3.69ZM30.384,0H29V-6.662h1.389Zm3.5-.242V-1.648a2.7,2.7,0,0,0,.831.481,2.67,2.67,0,0,0,.905.16,2.008,2.008,0,0,0,.468-.048,1.1,1.1,0,0,0,.334-.134.585.585,0,0,0,.2-.2.5.5,0,0,0,.066-.253.546.546,0,0,0-.105-.33,1.135,1.135,0,0,0-.288-.268,3.008,3.008,0,0,0-.433-.237q-.25-.114-.541-.233a2.759,2.759,0,0,1-1.1-.751,1.641,1.641,0,0,1-.363-1.072,1.708,1.708,0,0,1,.2-.846,1.68,1.68,0,0,1,.538-.582A2.414,2.414,0,0,1,35.38-6.3a4.053,4.053,0,0,1,.949-.108,5.709,5.709,0,0,1,.872.059,3.431,3.431,0,0,1,.7.182v1.314a2.119,2.119,0,0,0-.345-.193,2.733,2.733,0,0,0-.385-.138,2.933,2.933,0,0,0-.393-.081,2.784,2.784,0,0,0-.371-.026,1.937,1.937,0,0,0-.439.046,1.127,1.127,0,0,0-.334.13.645.645,0,0,0-.211.2.474.474,0,0,0-.075.261.5.5,0,0,0,.083.283.958.958,0,0,0,.237.237,2.518,2.518,0,0,0,.374.22q.22.108.5.222a5.533,5.533,0,0,1,.679.336,2.414,2.414,0,0,1,.516.4,1.566,1.566,0,0,1,.33.512,1.809,1.809,0,0,1,.114.67,1.8,1.8,0,0,1-.2.885,1.623,1.623,0,0,1-.543.58,2.353,2.353,0,0,1-.8.319,4.61,4.61,0,0,1-.96.1,5.339,5.339,0,0,1-.987-.088A2.978,2.978,0,0,1,33.882-.242Zm6.6-.281h-.018V2.07H39.081V-4.5h1.389v.677h.018a1.632,1.632,0,0,1,1.446-.787,1.627,1.627,0,0,1,1.351.6,2.554,2.554,0,0,1,.477,1.633A2.768,2.768,0,0,1,43.2-.571,1.813,1.813,0,0,1,41.726.11,1.4,1.4,0,0,1,40.487-.523Zm-.04-1.846v.36a1.146,1.146,0,0,0,.246.76.8.8,0,0,0,.646.294.851.851,0,0,0,.736-.367,1.772,1.772,0,0,0,.261-1.039q0-1.187-.923-1.187a.867.867,0,0,0-.7.323A1.288,1.288,0,0,0,40.447-2.369Zm7.15-.879a1.2,1.2,0,0,0-.584-.136.842.842,0,0,0-.708.332,1.447,1.447,0,0,0-.255.9V0H44.662V-4.5H46.05v.835h.018a1.2,1.2,0,0,1,1.187-.914.894.894,0,0,1,.343.053Zm1.384-1.964a.811.811,0,0,1-.576-.209.673.673,0,0,1-.224-.512.649.649,0,0,1,.224-.51.838.838,0,0,1,.576-.2.836.836,0,0,1,.578.2.652.652,0,0,1,.222.51.67.67,0,0,1-.222.519A.825.825,0,0,1,48.981-5.212ZM49.667,0H48.278V-4.5h1.389Zm5.515,0H53.8V-2.5q0-1.046-.747-1.046a.741.741,0,0,0-.593.277,1.055,1.055,0,0,0-.233.7V0H50.836V-4.5h1.389v.712h.018a1.591,1.591,0,0,1,1.446-.822q1.494,0,1.494,1.854ZM59-.053a2.053,2.053,0,0,1-.927.163q-1.468,0-1.468-1.525V-3.476h-.729V-4.5h.729v-.971l1.384-.4V-4.5H59v1.024H57.99v1.819q0,.7.558.7A.941.941,0,0,0,59-1.081Z" transform="translate(324.798 5556.275)" fill="#fff"/>
    <path id="Trazado_192297" data-name="Trazado 192297" d="M4.5,0H.721V-6.3H4.355v1.156H2.14v1.4H4.2v1.151H2.14v1.441H4.5ZM9.721,0H8.336V-2.5q0-1.046-.747-1.046A.741.741,0,0,0,7-3.27a1.055,1.055,0,0,0-.233.7V0H5.375V-4.5H6.763v.712h.018A1.591,1.591,0,0,1,8.227-4.61q1.494,0,1.494,1.854Zm4.988-.523h-.018V2.07H13.3V-4.5h1.389v.677h.018a1.632,1.632,0,0,1,1.446-.787,1.627,1.627,0,0,1,1.351.6,2.554,2.554,0,0,1,.477,1.633,2.768,2.768,0,0,1-.556,1.806A1.813,1.813,0,0,1,15.948.11,1.4,1.4,0,0,1,14.708-.523Zm-.04-1.846v.36a1.146,1.146,0,0,0,.246.76.8.8,0,0,0,.646.294.851.851,0,0,0,.736-.367,1.772,1.772,0,0,0,.261-1.039q0-1.187-.923-1.187a.867.867,0,0,0-.7.323A1.288,1.288,0,0,0,14.669-2.369Zm7.15-.879a1.2,1.2,0,0,0-.584-.136.842.842,0,0,0-.708.332,1.447,1.447,0,0,0-.255.9V0H18.883V-4.5h1.389v.835h.018a1.2,1.2,0,0,1,1.187-.914.894.894,0,0,1,.343.053ZM24.394.11a2.419,2.419,0,0,1-1.769-.631,2.286,2.286,0,0,1-.644-1.712,2.286,2.286,0,0,1,.668-1.747,2.524,2.524,0,0,1,1.806-.631,2.39,2.39,0,0,1,1.758.631,2.242,2.242,0,0,1,.637,1.668,2.379,2.379,0,0,1-.657,1.771A2.446,2.446,0,0,1,24.394.11Zm.035-3.656a.926.926,0,0,0-.765.338,1.492,1.492,0,0,0-.272.958q0,1.3,1.046,1.3,1,0,1-1.332Q25.436-3.546,24.429-3.546ZM32.164-.514a2.546,2.546,0,0,1-.725,1.94,2.939,2.939,0,0,1-2.1.688A3.33,3.33,0,0,1,27.9,1.854V.686a2.76,2.76,0,0,0,1.4.4,1.51,1.51,0,0,0,1.09-.371A1.333,1.333,0,0,0,30.775-.29V-.646h-.018a1.551,1.551,0,0,1-1.4.756A1.686,1.686,0,0,1,27.989-.5a2.459,2.459,0,0,1-.505-1.626,2.739,2.739,0,0,1,.563-1.815,1.836,1.836,0,0,1,1.481-.672,1.367,1.367,0,0,1,1.23.633h.018V-4.5h1.389ZM30.793-2.162v-.356a1.094,1.094,0,0,0-.253-.727.817.817,0,0,0-.657-.3.849.849,0,0,0-.725.36,1.7,1.7,0,0,0-.264,1.015,1.43,1.43,0,0,0,.25.89.816.816,0,0,0,.686.327.85.85,0,0,0,.7-.332A1.36,1.36,0,0,0,30.793-2.162Zm5.467-1.085a1.2,1.2,0,0,0-.584-.136.842.842,0,0,0-.708.332,1.447,1.447,0,0,0-.255.9V0H33.324V-4.5h1.389v.835h.018a1.2,1.2,0,0,1,1.187-.914.894.894,0,0,1,.343.053Zm4.564,1.393H37.888q.07.98,1.235.98a2.411,2.411,0,0,0,1.305-.352v1A3.429,3.429,0,0,1,38.806.11a2.283,2.283,0,0,1-1.692-.6,2.283,2.283,0,0,1-.6-1.685,2.408,2.408,0,0,1,.65-1.775,2.167,2.167,0,0,1,1.6-.655,1.967,1.967,0,0,1,1.523.584,2.251,2.251,0,0,1,.538,1.586Zm-1.288-.853q0-.967-.782-.967a.747.747,0,0,0-.578.277,1.257,1.257,0,0,0-.3.69ZM41.355-.119V-1.244a2.957,2.957,0,0,0,.683.308,2.266,2.266,0,0,0,.644.1,1.381,1.381,0,0,0,.582-.1.327.327,0,0,0,.213-.308.285.285,0,0,0-.1-.22.9.9,0,0,0-.248-.154,2.818,2.818,0,0,0-.332-.119q-.18-.053-.347-.119a3.326,3.326,0,0,1-.472-.218,1.365,1.365,0,0,1-.343-.27,1.062,1.062,0,0,1-.211-.356,1.42,1.42,0,0,1-.073-.479,1.233,1.233,0,0,1,.165-.65,1.346,1.346,0,0,1,.439-.446,2.008,2.008,0,0,1,.628-.255,3.277,3.277,0,0,1,.736-.081,4.084,4.084,0,0,1,.606.046,4.526,4.526,0,0,1,.606.134v1.072a2.191,2.191,0,0,0-.565-.231,2.382,2.382,0,0,0-.591-.077,1.31,1.31,0,0,0-.257.024.847.847,0,0,0-.213.07.391.391,0,0,0-.145.119.273.273,0,0,0-.053.165.3.3,0,0,0,.079.211A.687.687,0,0,0,43-2.925a2.039,2.039,0,0,0,.283.114l.31.1a4.028,4.028,0,0,1,.5.211,1.6,1.6,0,0,1,.385.268,1.053,1.053,0,0,1,.246.36,1.281,1.281,0,0,1,.086.492,1.284,1.284,0,0,1-.174.683,1.39,1.39,0,0,1-.461.461,2.093,2.093,0,0,1-.664.259,3.679,3.679,0,0,1-.78.081A4.021,4.021,0,0,1,41.355-.119Zm6.4.229a2.419,2.419,0,0,1-1.769-.631,2.286,2.286,0,0,1-.644-1.712,2.286,2.286,0,0,1,.668-1.747,2.524,2.524,0,0,1,1.806-.631,2.39,2.39,0,0,1,1.758.631,2.242,2.242,0,0,1,.637,1.668,2.379,2.379,0,0,1-.657,1.771A2.446,2.446,0,0,1,47.753.11Zm.035-3.656a.926.926,0,0,0-.765.338,1.492,1.492,0,0,0-.272.958q0,1.3,1.046,1.3,1,0,1-1.332Q48.795-3.546,47.789-3.546Z" transform="translate(414.972 5544.181)" fill="#fff"/>
    <path id="Trazado_192298" data-name="Trazado 192298" d="M5.34,0H3.891L3.02-1.441q-.1-.164-.187-.293a1.628,1.628,0,0,0-.182-.221A.722.722,0,0,0,2.459-2.1a.486.486,0,0,0-.217-.049H1.9V0H.641V-5.6h2Q4.68-5.6,4.68-4.078a1.578,1.578,0,0,1-.09.541,1.5,1.5,0,0,1-.254.447,1.609,1.609,0,0,1-.4.344,2.045,2.045,0,0,1-.518.227V-2.5a.8.8,0,0,1,.242.127,1.734,1.734,0,0,1,.227.205A2.861,2.861,0,0,1,4.1-1.92q.1.135.182.264ZM1.9-4.656V-3.1h.547A.907.907,0,0,0,3.1-3.332a.782.782,0,0,0,.25-.59q0-.734-.879-.734Z" transform="translate(499.334 5543.181)" fill="#fff"/>
    <path id="Trazado_192299" data-name="Trazado 192299" d="M4.627-1.854H1.692q.07.98,1.235.98a2.411,2.411,0,0,0,1.305-.352v1A3.429,3.429,0,0,1,2.61.11a2.283,2.283,0,0,1-1.692-.6,2.283,2.283,0,0,1-.6-1.685,2.408,2.408,0,0,1,.65-1.775,2.167,2.167,0,0,1,1.6-.655,1.967,1.967,0,0,1,1.523.584,2.251,2.251,0,0,1,.538,1.586ZM3.34-2.707q0-.967-.782-.967A.747.747,0,0,0,1.98-3.4a1.257,1.257,0,0,0-.3.69Z" transform="translate(505.767 5544.181)" fill="#fff"/>
    <path id="Trazado_192300" data-name="Trazado 192300" d="M4.869-4.5,3.195,0H1.613L.018-4.5H1.5l.782,2.773a4.05,4.05,0,0,1,.154.8h.018A4.539,4.539,0,0,1,2.619-1.7l.8-2.8Zm1.3-.712a.811.811,0,0,1-.576-.209.673.673,0,0,1-.224-.512.649.649,0,0,1,.224-.51.838.838,0,0,1,.576-.2.836.836,0,0,1,.578.2.652.652,0,0,1,.222.51.67.67,0,0,1-.222.519A.825.825,0,0,1,6.166-5.212ZM6.851,0H5.462V-4.5H6.851Zm.875-.119V-1.244a2.957,2.957,0,0,0,.683.308,2.266,2.266,0,0,0,.644.1,1.381,1.381,0,0,0,.582-.1.327.327,0,0,0,.213-.308.285.285,0,0,0-.1-.22A.9.9,0,0,0,9.5-1.617a2.818,2.818,0,0,0-.332-.119q-.18-.053-.347-.119a3.326,3.326,0,0,1-.472-.218,1.365,1.365,0,0,1-.343-.27A1.062,1.062,0,0,1,7.8-2.7a1.42,1.42,0,0,1-.073-.479,1.233,1.233,0,0,1,.165-.65,1.346,1.346,0,0,1,.439-.446,2.008,2.008,0,0,1,.628-.255,3.277,3.277,0,0,1,.736-.081,4.084,4.084,0,0,1,.606.046,4.526,4.526,0,0,1,.606.134v1.072a2.191,2.191,0,0,0-.565-.231,2.382,2.382,0,0,0-.591-.077,1.31,1.31,0,0,0-.257.024.847.847,0,0,0-.213.07.391.391,0,0,0-.145.119.273.273,0,0,0-.053.165.3.3,0,0,0,.079.211.687.687,0,0,0,.207.152,2.039,2.039,0,0,0,.283.114l.31.1a4.028,4.028,0,0,1,.5.211,1.6,1.6,0,0,1,.385.268,1.053,1.053,0,0,1,.246.36,1.281,1.281,0,0,1,.086.492,1.284,1.284,0,0,1-.174.683,1.39,1.39,0,0,1-.461.461,2.093,2.093,0,0,1-.664.259A3.679,3.679,0,0,1,9.1.11,4.021,4.021,0,0,1,7.726-.119Zm4.957-5.093a.811.811,0,0,1-.576-.209.673.673,0,0,1-.224-.512.649.649,0,0,1,.224-.51.838.838,0,0,1,.576-.2.836.836,0,0,1,.578.2.652.652,0,0,1,.222.51.67.67,0,0,1-.222.519A.825.825,0,0,1,12.683-5.212ZM13.368,0H11.979V-4.5h1.389Zm3.313.11a2.419,2.419,0,0,1-1.769-.631,2.286,2.286,0,0,1-.644-1.712,2.286,2.286,0,0,1,.668-1.747,2.524,2.524,0,0,1,1.806-.631,2.39,2.39,0,0,1,1.758.631,2.242,2.242,0,0,1,.637,1.668,2.379,2.379,0,0,1-.657,1.771A2.446,2.446,0,0,1,16.682.11Zm.035-3.656a.926.926,0,0,0-.765.338,1.492,1.492,0,0,0-.272.958q0,1.3,1.046,1.3,1,0,1-1.332Q17.723-3.546,16.717-3.546Zm1.49-3.085L16.831-5.212h-1l1.143-1.419ZM24.381,0H23V-2.5q0-1.046-.747-1.046a.741.741,0,0,0-.593.277,1.055,1.055,0,0,0-.233.7V0H20.035V-4.5h1.389v.712h.018a1.591,1.591,0,0,1,1.446-.822q1.494,0,1.494,1.854Z" transform="translate(511.148 5544.181)" fill="#fff"/>
    <path id="Trazado_192301" data-name="Trazado 192301" d="M1.991-.523H1.973V2.07H.584V-4.5H1.973v.677h.018A1.632,1.632,0,0,1,3.437-4.61a1.627,1.627,0,0,1,1.351.6,2.554,2.554,0,0,1,.477,1.633A2.768,2.768,0,0,1,4.709-.571,1.813,1.813,0,0,1,3.23.11,1.4,1.4,0,0,1,1.991-.523Zm-.04-1.846v.36a1.146,1.146,0,0,0,.246.76.8.8,0,0,0,.646.294.851.851,0,0,0,.736-.367A1.772,1.772,0,0,0,3.841-2.36q0-1.187-.923-1.187a.867.867,0,0,0-.7.323A1.288,1.288,0,0,0,1.951-2.369ZM8.31.11A2.419,2.419,0,0,1,6.541-.521,2.286,2.286,0,0,1,5.9-2.232a2.286,2.286,0,0,1,.668-1.747A2.524,2.524,0,0,1,8.372-4.61a2.39,2.39,0,0,1,1.758.631,2.242,2.242,0,0,1,.637,1.668A2.379,2.379,0,0,1,10.11-.541,2.446,2.446,0,0,1,8.31.11Zm.035-3.656a.926.926,0,0,0-.765.338,1.492,1.492,0,0,0-.272.958q0,1.3,1.046,1.3,1,0,1-1.332Q9.352-3.546,8.345-3.546Zm6.258.3a1.2,1.2,0,0,0-.584-.136.842.842,0,0,0-.708.332,1.447,1.447,0,0,0-.255.9V0H11.667V-4.5h1.389v.835h.018a1.2,1.2,0,0,1,1.187-.914.894.894,0,0,1,.343.053ZM19.138-.523h-.018V2.07H17.732V-4.5h1.389v.677h.018a1.632,1.632,0,0,1,1.446-.787,1.627,1.627,0,0,1,1.351.6,2.554,2.554,0,0,1,.477,1.633,2.768,2.768,0,0,1-.556,1.806A1.813,1.813,0,0,1,20.377.11,1.4,1.4,0,0,1,19.138-.523ZM19.1-2.369v.36a1.146,1.146,0,0,0,.246.76.8.8,0,0,0,.646.294.851.851,0,0,0,.736-.367,1.772,1.772,0,0,0,.261-1.039q0-1.187-.923-1.187a.867.867,0,0,0-.7.323A1.288,1.288,0,0,0,19.1-2.369ZM26.969,0H25.655V-.646h-.018A1.467,1.467,0,0,1,24.3.11a1.4,1.4,0,0,1-1.031-.371,1.331,1.331,0,0,1-.376-.991q0-1.31,1.551-1.512l1.222-.163q0-.738-.8-.738a2.73,2.73,0,0,0-1.529.479V-4.232a3.441,3.441,0,0,1,.793-.264,4.17,4.17,0,0,1,.916-.114,1.7,1.7,0,0,1,1.925,1.92ZM25.664-1.828v-.3l-.817.105q-.677.088-.677.611a.5.5,0,0,0,.165.389.633.633,0,0,0,.446.152.822.822,0,0,0,.637-.27A.976.976,0,0,0,25.664-1.828Z" transform="translate(497.301 5556.275)" fill="#fff"/>
    <path id="Trazado_192302" data-name="Trazado 192302" d="M3.52-3.248a1.2,1.2,0,0,0-.584-.136.842.842,0,0,0-.708.332,1.447,1.447,0,0,0-.255.9V0H.584V-4.5H1.973v.835h.018a1.2,1.2,0,0,1,1.187-.914.894.894,0,0,1,.343.053Z" transform="translate(525.935 5556.275)" fill="#fff"/>
    <path id="Trazado_192303" data-name="Trazado 192303" d="M4.627-1.854H1.692q.07.98,1.235.98a2.411,2.411,0,0,0,1.305-.352v1A3.429,3.429,0,0,1,2.61.11a2.283,2.283,0,0,1-1.692-.6,2.283,2.283,0,0,1-.6-1.685,2.408,2.408,0,0,1,.65-1.775,2.167,2.167,0,0,1,1.6-.655,1.967,1.967,0,0,1,1.523.584,2.251,2.251,0,0,1,.538,1.586ZM3.34-2.707q0-.967-.782-.967A.747.747,0,0,0,1.98-3.4a1.257,1.257,0,0,0-.3.69ZM5.159-.119V-1.244a2.957,2.957,0,0,0,.683.308,2.266,2.266,0,0,0,.644.1,1.381,1.381,0,0,0,.582-.1.327.327,0,0,0,.213-.308.285.285,0,0,0-.1-.22.9.9,0,0,0-.248-.154A2.818,2.818,0,0,0,6.6-1.736q-.18-.053-.347-.119a3.326,3.326,0,0,1-.472-.218,1.365,1.365,0,0,1-.343-.27A1.062,1.062,0,0,1,5.232-2.7a1.42,1.42,0,0,1-.073-.479,1.233,1.233,0,0,1,.165-.65,1.346,1.346,0,0,1,.439-.446,2.008,2.008,0,0,1,.628-.255,3.277,3.277,0,0,1,.736-.081,4.084,4.084,0,0,1,.606.046,4.526,4.526,0,0,1,.606.134v1.072a2.191,2.191,0,0,0-.565-.231,2.382,2.382,0,0,0-.591-.077,1.31,1.31,0,0,0-.257.024.847.847,0,0,0-.213.07.391.391,0,0,0-.145.119.273.273,0,0,0-.053.165.3.3,0,0,0,.079.211.687.687,0,0,0,.207.152,2.039,2.039,0,0,0,.283.114l.31.1a4.028,4.028,0,0,1,.5.211,1.6,1.6,0,0,1,.385.268,1.053,1.053,0,0,1,.246.36,1.281,1.281,0,0,1,.086.492,1.284,1.284,0,0,1-.174.683,1.39,1.39,0,0,1-.461.461,2.093,2.093,0,0,1-.664.259,3.679,3.679,0,0,1-.78.081A4.021,4.021,0,0,1,5.159-.119Z" transform="translate(529.519 5556.275)" fill="#fff"/>
    <path id="Trazado_192304" data-name="Trazado 192304" d="M4.5,0H.721V-6.3H4.355v1.156H2.14v1.4H4.2v1.151H2.14v1.441H4.5ZM9.721,0H8.336V-2.5q0-1.046-.747-1.046A.741.741,0,0,0,7-3.27a1.055,1.055,0,0,0-.233.7V0H5.375V-4.5H6.763v.712h.018A1.591,1.591,0,0,1,8.227-4.61q1.494,0,1.494,1.854Zm4.988-.523h-.018V2.07H13.3V-4.5h1.389v.677h.018a1.632,1.632,0,0,1,1.446-.787,1.627,1.627,0,0,1,1.351.6,2.554,2.554,0,0,1,.477,1.633,2.768,2.768,0,0,1-.556,1.806A1.813,1.813,0,0,1,15.948.11,1.4,1.4,0,0,1,14.708-.523Zm-.04-1.846v.36a1.146,1.146,0,0,0,.246.76.8.8,0,0,0,.646.294.851.851,0,0,0,.736-.367,1.772,1.772,0,0,0,.261-1.039q0-1.187-.923-1.187a.867.867,0,0,0-.7.323A1.288,1.288,0,0,0,14.669-2.369Zm7.15-.879a1.2,1.2,0,0,0-.584-.136.842.842,0,0,0-.708.332,1.447,1.447,0,0,0-.255.9V0H18.883V-4.5h1.389v.835h.018a1.2,1.2,0,0,1,1.187-.914.894.894,0,0,1,.343.053ZM26.767,0H25.383V-.686h-.022a1.57,1.57,0,0,1-1.375.8q-1.564,0-1.564-1.894V-4.5h1.384v2.593q0,.954.756.954a.748.748,0,0,0,.6-.261,1.054,1.054,0,0,0,.224-.71V-4.5h1.384Zm5.212-1.854H29.043q.07.98,1.235.98a2.411,2.411,0,0,0,1.305-.352v1A3.429,3.429,0,0,1,29.962.11a2.283,2.283,0,0,1-1.692-.6,2.283,2.283,0,0,1-.6-1.685,2.408,2.408,0,0,1,.65-1.775,2.167,2.167,0,0,1,1.6-.655,1.967,1.967,0,0,1,1.523.584,2.251,2.251,0,0,1,.538,1.586Zm-1.288-.853q0-.967-.782-.967a.747.747,0,0,0-.578.277,1.257,1.257,0,0,0-.3.69Zm3.52,2.184h-.018V0H32.805V-6.662h1.389v2.839h.018a1.648,1.648,0,0,1,1.463-.787,1.606,1.606,0,0,1,1.34.6,2.577,2.577,0,0,1,.47,1.635,2.791,2.791,0,0,1-.549,1.806A1.789,1.789,0,0,1,35.468.11,1.418,1.418,0,0,1,34.211-.523Zm-.04-1.9v.461a1.053,1.053,0,0,0,.25.721.815.815,0,0,0,.642.286.851.851,0,0,0,.736-.367,1.772,1.772,0,0,0,.261-1.039,1.41,1.41,0,0,0-.24-.872.808.808,0,0,0-.683-.314.883.883,0,0,0-.692.312A1.185,1.185,0,0,0,34.172-2.421ZM42.042,0H40.729V-.646h-.018a1.467,1.467,0,0,1-1.34.756A1.4,1.4,0,0,1,38.34-.261a1.331,1.331,0,0,1-.376-.991q0-1.31,1.551-1.512l1.222-.163q0-.738-.8-.738a2.73,2.73,0,0,0-1.529.479V-4.232A3.441,3.441,0,0,1,39.2-4.5a4.17,4.17,0,0,1,.916-.114,1.7,1.7,0,0,1,1.925,1.92ZM40.737-1.828v-.3l-.817.105q-.677.088-.677.611a.5.5,0,0,0,.165.389.633.633,0,0,0,.446.152.822.822,0,0,0,.637-.27A.976.976,0,0,0,40.737-1.828ZM42.847-.119V-1.244a2.957,2.957,0,0,0,.683.308,2.266,2.266,0,0,0,.644.1,1.381,1.381,0,0,0,.582-.1.327.327,0,0,0,.213-.308.285.285,0,0,0-.1-.22.9.9,0,0,0-.248-.154,2.818,2.818,0,0,0-.332-.119q-.18-.053-.347-.119a3.326,3.326,0,0,1-.472-.218,1.365,1.365,0,0,1-.343-.27,1.062,1.062,0,0,1-.211-.356,1.42,1.42,0,0,1-.073-.479,1.233,1.233,0,0,1,.165-.65,1.346,1.346,0,0,1,.439-.446,2.008,2.008,0,0,1,.628-.255,3.277,3.277,0,0,1,.736-.081,4.084,4.084,0,0,1,.606.046,4.526,4.526,0,0,1,.606.134v1.072a2.191,2.191,0,0,0-.565-.231,2.382,2.382,0,0,0-.591-.077,1.31,1.31,0,0,0-.257.024.847.847,0,0,0-.213.07.391.391,0,0,0-.145.119.273.273,0,0,0-.053.165.3.3,0,0,0,.079.211.687.687,0,0,0,.207.152,2.039,2.039,0,0,0,.283.114l.31.1a4.028,4.028,0,0,1,.5.211,1.6,1.6,0,0,1,.385.268,1.053,1.053,0,0,1,.246.36,1.281,1.281,0,0,1,.086.492,1.284,1.284,0,0,1-.174.683,1.39,1.39,0,0,1-.461.461A2.093,2.093,0,0,1,45,.029a3.679,3.679,0,0,1-.78.081A4.021,4.021,0,0,1,42.847-.119Z" transform="translate(573.583 5544.181)" fill="#fff"/>
    <path id="Trazado_192305" data-name="Trazado 192305" d="M6.174,0H4.75V-2.566H2.14V0H.721V-6.3H2.14v2.514H4.75V-6.3H6.174Zm5.348-1.854H8.587q.07.98,1.235.98a2.411,2.411,0,0,0,1.305-.352v1A3.429,3.429,0,0,1,9.505.11a2.283,2.283,0,0,1-1.692-.6,2.283,2.283,0,0,1-.6-1.685,2.408,2.408,0,0,1,.65-1.775,2.167,2.167,0,0,1,1.6-.655,1.967,1.967,0,0,1,1.523.584,2.251,2.251,0,0,1,.538,1.586Zm-1.288-.853q0-.967-.782-.967a.747.747,0,0,0-.578.277,1.257,1.257,0,0,0-.3.69ZM15.759-.163A2.746,2.746,0,0,1,14.4.11a2.3,2.3,0,0,1-1.679-.628,2.17,2.17,0,0,1-.642-1.622,2.391,2.391,0,0,1,.688-1.808,2.542,2.542,0,0,1,1.839-.661,2.36,2.36,0,0,1,1.151.211v1.178a1.583,1.583,0,0,0-.971-.325,1.28,1.28,0,0,0-.947.349,1.3,1.3,0,0,0-.349.965,1.282,1.282,0,0,0,.334.938,1.227,1.227,0,0,0,.918.341,1.833,1.833,0,0,0,1.015-.325ZM20.988,0H19.6V-2.558q0-.989-.721-.989a.738.738,0,0,0-.6.277,1.068,1.068,0,0,0-.229.7V0H16.668V-6.662h1.389v2.83h.018a1.578,1.578,0,0,1,1.384-.778q1.529,0,1.529,1.846Zm3.243.11a2.419,2.419,0,0,1-1.769-.631,2.286,2.286,0,0,1-.644-1.712,2.286,2.286,0,0,1,.668-1.747,2.524,2.524,0,0,1,1.806-.631,2.39,2.39,0,0,1,1.758.631,2.242,2.242,0,0,1,.637,1.668,2.379,2.379,0,0,1-.657,1.771A2.446,2.446,0,0,1,24.231.11Zm.035-3.656a.926.926,0,0,0-.765.338,1.492,1.492,0,0,0-.272.958q0,1.3,1.046,1.3,1,0,1-1.332Q25.273-3.546,24.267-3.546Z" transform="translate(650.812 5544.181)" fill="#fff"/>
    <path id="Trazado_192306" data-name="Trazado 192306" d="M.721,0V-6.3H3.015a2.865,2.865,0,0,1,1.622.387A1.244,1.244,0,0,1,5.2-4.825a1.29,1.29,0,0,1-.345.892,1.812,1.812,0,0,1-.881.532v.018a1.746,1.746,0,0,1,1.074.5,1.389,1.389,0,0,1,.4,1.006,1.682,1.682,0,0,1-.62,1.373A2.593,2.593,0,0,1,3.142,0ZM2.14-5.256v1.494h.624a1.04,1.04,0,0,0,.692-.213.726.726,0,0,0,.253-.587q0-.694-1.037-.694Zm0,2.549v1.661h.769a1.184,1.184,0,0,0,.771-.229A.763.763,0,0,0,3.959-1.9a.712.712,0,0,0-.275-.593,1.215,1.215,0,0,0-.767-.215ZM7.743,0H6.354V-6.662H7.743Zm3.313.11A2.419,2.419,0,0,1,9.288-.521a2.286,2.286,0,0,1-.644-1.712,2.286,2.286,0,0,1,.668-1.747,2.524,2.524,0,0,1,1.806-.631,2.39,2.39,0,0,1,1.758.631,2.242,2.242,0,0,1,.637,1.668,2.379,2.379,0,0,1-.657,1.771A2.446,2.446,0,0,1,11.057.11Zm.035-3.656a.926.926,0,0,0-.765.338,1.492,1.492,0,0,0-.272.958q0,1.3,1.046,1.3,1,0,1-1.332Q12.1-3.546,11.092-3.546ZM18.817,2.07H17.429V-.62h-.018A1.543,1.543,0,0,1,16.027.11a1.723,1.723,0,0,1-1.365-.591,2.44,2.44,0,0,1-.516-1.659,2.7,2.7,0,0,1,.567-1.8,1.84,1.84,0,0,1,1.477-.672,1.339,1.339,0,0,1,1.222.633h.018V-4.5h1.389ZM17.455-2.149v-.36a1.1,1.1,0,0,0-.255-.738.822.822,0,0,0-.655-.3.848.848,0,0,0-.725.363,1.679,1.679,0,0,0-.264,1,1.418,1.418,0,0,0,.257.9.814.814,0,0,0,.67.325.861.861,0,0,0,.705-.33A1.337,1.337,0,0,0,17.455-2.149ZM24.262,0H22.878V-.686h-.022a1.57,1.57,0,0,1-1.375.8q-1.564,0-1.564-1.894V-4.5H21.3v2.593q0,.954.756.954a.748.748,0,0,0,.6-.261,1.054,1.054,0,0,0,.224-.71V-4.5h1.384Zm5.212-1.854H26.539q.07.98,1.235.98a2.411,2.411,0,0,0,1.305-.352v1A3.429,3.429,0,0,1,27.457.11a2.283,2.283,0,0,1-1.692-.6,2.283,2.283,0,0,1-.6-1.685,2.408,2.408,0,0,1,.65-1.775,2.167,2.167,0,0,1,1.6-.655,1.967,1.967,0,0,1,1.523.584,2.251,2.251,0,0,1,.538,1.586Zm-1.288-.853q0-.967-.782-.967a.747.747,0,0,0-.578.277,1.257,1.257,0,0,0-.3.69ZM34.044,0H32.73V-.646h-.018a1.467,1.467,0,0,1-1.34.756,1.4,1.4,0,0,1-1.031-.371,1.331,1.331,0,0,1-.376-.991q0-1.31,1.551-1.512l1.222-.163q0-.738-.8-.738a2.73,2.73,0,0,0-1.529.479V-4.232A3.441,3.441,0,0,1,31.2-4.5a4.17,4.17,0,0,1,.916-.114,1.7,1.7,0,0,1,1.925,1.92ZM32.739-1.828v-.3l-.817.105q-.677.088-.677.611a.5.5,0,0,0,.165.389.633.633,0,0,0,.446.152.822.822,0,0,0,.637-.27A.976.976,0,0,0,32.739-1.828ZM39.546,0H38.158V-.62H38.14A1.557,1.557,0,0,1,36.747.11a1.706,1.706,0,0,1-1.358-.6,2.465,2.465,0,0,1-.514-1.663,2.683,2.683,0,0,1,.567-1.789,1.849,1.849,0,0,1,1.485-.672,1.264,1.264,0,0,1,1.213.624h.018V-6.662h1.389ZM38.184-2.188v-.338a1.065,1.065,0,0,0-.255-.729.842.842,0,0,0-.664-.29.836.836,0,0,0-.721.363,1.684,1.684,0,0,0-.259,1,1.457,1.457,0,0,0,.25.914.832.832,0,0,0,.694.321.835.835,0,0,0,.688-.338A1.41,1.41,0,0,0,38.184-2.188ZM42.86.11a2.419,2.419,0,0,1-1.769-.631,2.286,2.286,0,0,1-.644-1.712,2.286,2.286,0,0,1,.668-1.747,2.524,2.524,0,0,1,1.806-.631,2.39,2.39,0,0,1,1.758.631,2.242,2.242,0,0,1,.637,1.668,2.379,2.379,0,0,1-.657,1.771A2.446,2.446,0,0,1,42.86.11ZM42.9-3.546a.926.926,0,0,0-.765.338,1.492,1.492,0,0,0-.272.958q0,1.3,1.046,1.3,1,0,1-1.332Q43.9-3.546,42.9-3.546ZM45.923-.119V-1.244a2.957,2.957,0,0,0,.683.308,2.266,2.266,0,0,0,.644.1,1.381,1.381,0,0,0,.582-.1.327.327,0,0,0,.213-.308.285.285,0,0,0-.1-.22.9.9,0,0,0-.248-.154,2.818,2.818,0,0,0-.332-.119q-.18-.053-.347-.119a3.326,3.326,0,0,1-.472-.218,1.365,1.365,0,0,1-.343-.27A1.062,1.062,0,0,1,46-2.7a1.42,1.42,0,0,1-.073-.479,1.233,1.233,0,0,1,.165-.65,1.346,1.346,0,0,1,.439-.446,2.008,2.008,0,0,1,.628-.255,3.277,3.277,0,0,1,.736-.081,4.084,4.084,0,0,1,.606.046,4.526,4.526,0,0,1,.606.134v1.072a2.191,2.191,0,0,0-.565-.231,2.382,2.382,0,0,0-.591-.077,1.31,1.31,0,0,0-.257.024.847.847,0,0,0-.213.07.391.391,0,0,0-.145.119.273.273,0,0,0-.053.165.3.3,0,0,0,.079.211.687.687,0,0,0,.207.152,2.039,2.039,0,0,0,.283.114l.31.1a4.028,4.028,0,0,1,.5.211,1.6,1.6,0,0,1,.385.268,1.053,1.053,0,0,1,.246.36,1.281,1.281,0,0,1,.086.492,1.284,1.284,0,0,1-.174.683,1.39,1.39,0,0,1-.461.461,2.093,2.093,0,0,1-.664.259A3.679,3.679,0,0,1,47.3.11,4.021,4.021,0,0,1,45.923-.119Z" transform="translate(714.468 5544.181)" fill="#fff"/>
    <path id="Trazado_192307" data-name="Trazado 192307" d="M0,0H589.994" transform="translate(200 5522.521)" fill="none" stroke="#3a8f9c" stroke-width="1"/>
    <path id="Trazado_192308" data-name="Trazado 192308" d="M0,0H589.994" transform="translate(200 5572.583)" fill="none" stroke="#3a8f9c" stroke-width="1"/>
    <path id="Trazado_192309" data-name="Trazado 192309" d="M0,0H481.73" transform="translate(308.265 5622.65)" fill="none" stroke="#3a8f9c" stroke-width="1"/>
    <path id="Trazado_192310" data-name="Trazado 192310" d="M0,0H481.73" transform="translate(308.265 5672.711)" fill="none" stroke="#3a8f9c" stroke-width="1"/>
    <path id="Trazado_192311" data-name="Trazado 192311" d="M0,0H481.73" transform="translate(308.265 5722.773)" fill="none" stroke="#3a8f9c" stroke-width="1"/>
    <path id="Trazado_192312" data-name="Trazado 192312" d="M0,0H481.73" transform="translate(308.265 5772.834)" fill="none" stroke="#3a8f9c" stroke-width="1"/>
    <path id="Trazado_192313" data-name="Trazado 192313" d="M0,0V300.381" transform="translate(308.265 5522.521)" fill="none" stroke="#3a8f9c" stroke-width="1"/>
    <path id="Trazado_192314" data-name="Trazado 192314" d="M0,0V300.381" transform="translate(400.308 5522.521)" fill="none" stroke="#3a8f9c" stroke-width="1"/>
    <path id="Trazado_192315" data-name="Trazado 192315" d="M0,0V300.381" transform="translate(485.997 5522.521)" fill="none" stroke="#3a8f9c" stroke-width="1"/>
    <path id="Trazado_192316" data-name="Trazado 192316" d="M0,0V300.381" transform="translate(554.995 5522.521)" fill="none" stroke="#3a8f9c" stroke-width="1"/>
    <path id="Trazado_192317" data-name="Trazado 192317" d="M0,0V300.381" transform="translate(623.998 5522.521)" fill="none" stroke="#3a8f9c" stroke-width="1"/>
    <path id="Trazado_192318" data-name="Trazado 192318" d="M0,0V300.381" transform="translate(697.396 5522.521)" fill="none" stroke="#3a8f9c" stroke-width="1"/>
    <path id="Trazado_133029" data-name="Trazado 133029" d="M99.27,206.19l29.043,1.573s-1.12,26.753-1.31,30.123c0,0-9.8-.129-13.617-.3s-15.935-2.307-15.935-2.307Z" transform="translate(113.401 5381.018)" fill="url(#linear-gradient)"/>
    <path id="Trazado_133030" data-name="Trazado 133030" d="M147.47,388.3l29.048,1.59s-1.12,26.747-1.316,30.123c0,0-9.8-.129-13.611-.3S145.65,417.4,145.65,417.4Z" transform="translate(92.189 5300.873)" fill="url(#linear-gradient-2)"/>
    <path id="Trazado_133031" data-name="Trazado 133031" d="M194.3,481l29.043,1.585s-1.12,26.753-1.31,30.123c0,0-9.8-.129-13.617-.3s-15.935-2.29-15.935-2.29Z" transform="translate(71.58 5260.076)" fill="url(#linear-gradient-3)"/>
    <path id="Trazado_133032" data-name="Trazado 133032" d="M139.57,546.24l29.048,1.585s-1.12,26.753-1.316,30.123c0,0-9.8-.123-13.611-.3s-15.941-2.312-15.941-2.312Z" transform="translate(95.666 5231.365)" fill="url(#linear-gradient-4)"/>
    <path id="Trazado_133033" data-name="Trazado 133033" d="M303.35,197.881l29.115-.761s1.047,26.786,1.12,30.162c0,0-9.793.666-13.611.8s-16.092-1.019-16.092-1.019Z" transform="translate(22.787 5385.009)" fill="url(#linear-gradient-5)"/>
    <path id="Trazado_133034" data-name="Trazado 133034" d="M106.45,389.721l29.115-.761s1.047,26.786,1.12,30.162c0,0-9.793.666-13.611.8s-16.092-1.019-16.092-1.019Z" transform="translate(109.44 5300.582)" fill="url(#linear-gradient-6)"/>
    <path id="Trazado_133035" data-name="Trazado 133035" d="M349.83,373.635l27.816-8.505s8.158,25.5,9.127,28.74c0,0-9.244,3.253-12.878,4.4s-15.761,3.315-15.761,3.315Z" transform="translate(2.332 5311.07)" fill="url(#linear-gradient-7)"/>
    <path id="Trazado_133036" data-name="Trazado 133036" d="M303.35,371.606l29.115-.756s1.047,26.78,1.12,30.162c0,0-9.793.666-13.611.8s-16.092-1.019-16.092-1.019Z" transform="translate(22.787 5308.552)" fill="url(#linear-gradient-8)"/>
    <path id="Trazado_133037" data-name="Trazado 133037" d="M493.809,464.7l29.048,1.585s-1.12,26.753-1.316,30.123c0,0-9.8-.123-13.611-.3S492,493.8,492,493.8Z" transform="translate(-60.236 5267.25)" fill="url(#linear-gradient-9)"/>
    <path id="Trazado_133038" data-name="Trazado 133038" d="M760.07,196.46l29.042,1.59s-1.12,26.747-1.31,30.123c0,0-9.8-.129-13.617-.3s-15.935-2.307-15.935-2.307Z" transform="translate(-177.41 5385.299)" fill="url(#linear-gradient-10)"/>
    <path id="Trazado_133039" data-name="Trazado 133039" d="M743.36,385l29.043,1.585s-1.12,26.753-1.31,30.123c0,0-9.8-.123-13.611-.3s-15.941-2.3-15.941-2.3Z" transform="translate(-170.056 5302.325)" fill="url(#linear-gradient-11)"/>
    <path id="Trazado_133040" data-name="Trazado 133040" d="M452.78,466.116l29.115-.756s1.053,26.781,1.12,30.162c0,0-9.787.666-13.606.8s-16.092-1.019-16.092-1.019Z" transform="translate(-42.976 5266.959)" fill="url(#linear-gradient-12)"/>
    <path id="Trazado_133041" data-name="Trazado 133041" d="M186.35,207.6l29.115-.761s1.047,26.786,1.12,30.168c0,0-9.793.661-13.611.8s-16.092-1.019-16.092-1.019Z" transform="translate(74.277 5380.731)" fill="url(#linear-gradient-13)"/>
    <path id="Trazado_133042" data-name="Trazado 133042" d="M133.776,214.85l29.059.05s.3,26.747.274,30.123c0,0-9.782.386-13.595.42s-16.025-1.467-16.025-1.467Z" transform="translate(97.541 5377.206)" fill="url(#linear-gradient-14)"/>
    <path id="Trazado_133043" data-name="Trazado 133043" d="M98.846,300l29.059.05s.3,26.747.274,30.123c0,0-9.787.392-13.595.42s-16.025-1.478-16.025-1.478Z" transform="translate(112.913 5339.732)" fill="url(#linear-gradient-15)"/>
    <path id="Trazado_133044" data-name="Trazado 133044" d="M97,476.506l28.992-1.976s2.172,26.657,2.385,30.028c0,0-9.737,1.069-13.533,1.366s-16.086-.342-16.086-.342Z" transform="translate(113.599 5262.924)" fill="url(#linear-gradient-16)"/>
    <path id="Trazado_133045" data-name="Trazado 133045" d="M870.261,283.32l29.065,1.321s-.862,26.764-1.036,30.14c0,0-9.8-.034-13.617-.174s-15.963-2.161-15.963-2.161Z" transform="translate(-226.022 5347.073)" fill="url(#linear-gradient-17)"/>
    <path id="Trazado_133046" data-name="Trazado 133046" d="M621.534,380.16l29.065,1.316s-.862,26.769-1.036,30.146c0,0-9.8-.034-13.617-.174S620,409.286,620,409.286Z" transform="translate(-116.568 5304.455)" fill="url(#linear-gradient-18)"/>
    <path id="Trazado_133047" data-name="Trazado 133047" d="M336.311,554.77l29.07,1.316s-.868,26.769-1.036,30.168c0,0-9.8-.034-13.623-.168s-15.963-2.167-15.963-2.167Z" transform="translate(8.963 5227.611)" fill="url(#linear-gradient-19)"/>
    <path id="Trazado_133048" data-name="Trazado 133048" d="M166.889,474.54l29.043,1.316S195.069,502.625,194.9,506c0,0-9.8-.039-13.617-.174s-15.969-2.167-15.969-2.167Z" transform="translate(83.537 5262.919)" fill="url(#linear-gradient-20)"/>
    <path id="Trazado_133049" data-name="Trazado 133049" d="M147.456,297.18l29.065,1.641s-1.159,26.769-1.372,30.14c0,0-9.8-.146-13.623-.325s-15.946-2.34-15.946-2.34Z" transform="translate(92.22 5340.974)" fill="url(#linear-gradient-21)"/>
    <path id="Trazado_133050" data-name="Trazado 133050" d="M336.35,203.38l29.065,1.641s-1.159,26.764-1.372,30.14c0,0-9.8-.146-13.617-.325s-15.946-2.34-15.946-2.34Z" transform="translate(9.087 5382.254)" fill="url(#linear-gradient-22)"/>
    <path id="Trazado_133051" data-name="Trazado 133051" d="M875.12,460.27l29.065,1.641s-1.159,26.764-1.372,30.123c0,0-9.8-.146-13.617-.325s-15.946-2.34-15.946-2.34Z" transform="translate(-228.021 5269.2)" fill="url(#linear-gradient-23)"/>
    <path id="Trazado_133052" data-name="Trazado 133052" d="M107.69,546.18l29.065,1.641s-1.159,26.764-1.372,30.14c0,0-9.8-.146-13.617-.325s-15.946-2.34-15.946-2.34Z" transform="translate(109.718 5231.391)" fill="url(#linear-gradient-24)"/>
    <path id="Trazado_133053" data-name="Trazado 133053" d="M486.57,196.46l29.043,1.59s-1.12,26.747-1.31,30.123c0,0-9.8-.129-13.617-.3s-15.935-2.307-15.935-2.307Z" transform="translate(-57.045 5385.299)" fill="url(#linear-gradient-25)"/>
    <path id="Trazado_133054" data-name="Trazado 133054" d="M454.656,196.4l29.059,1.641s-1.159,26.764-1.366,30.14c0,0-9.81-.146-13.623-.325s-15.946-2.34-15.946-2.34Z" transform="translate(-42.976 5385.326)" fill="url(#linear-gradient-26)"/>
    <path id="Trazado_133055" data-name="Trazado 133055" d="M202.637,298.92l29.048,1.641s-1.159,26.764-1.372,30.14c0,0-9.8-.146-13.623-.325s-15.941-2.34-15.941-2.34Z" transform="translate(67.94 5340.208)" fill="url(#linear-gradient-27)"/>
  </g>
</svg>
