<svg xmlns="http://www.w3.org/2000/svg" width="594.166" height="593.845" viewBox="0 0 594.166 593.845">
  <g id="Grupo_94326" data-name="Grupo 94326" transform="translate(-180 -6054.796)">
    <path id="Trazado_190057" data-name="Trazado 190057" d="M579.39,454.61h0a7.22,7.22,0,0,0-1.07-3.13,13.79,13.79,0,0,0-5-4.58l-43.86-25.4c1.57-1.24,1.48-2.93-.34-4l-40.44-23.42,5.84-3.38c4.31-2.5,4.53-6.42.48-8.76s-10.81-2.22-15.12.27L474,385.6l-40.44-23.42a8.41,8.41,0,0,0-6.89-.19l-39.53-22.9c-7.56-4.37-19.18-4.73-25.95-.81l-249,144.26a10.49,10.49,0,0,0-3.59,3.23,6.54,6.54,0,0,0-1,2.57,6,6,0,0,0,0,1.74l-.1,6.46c0,2.91,2.06,5.94,6.12,8.29L299.76,612.62c7.56,4.37,19.18,4.73,25.95.81l249-144.26c3.14-1.82,4.68-4.23,4.69-6.75v-6.68h0A5.239,5.239,0,0,0,579.39,454.61Zm-94.94-70.13a7,7,0,0,1,6.34-.12c1.7,1,1.6,2.63-.21,3.68a7,7,0,0,1-6.34.11c-1.69-.98-1.6-2.62.21-3.67Z" transform="translate(169.53 5971.966)" fill="#dfe4fb"/>
    <path id="Trazado_190058" data-name="Trazado 190058" d="M491,643.38a1.087,1.087,0,0,0-.07-.24,14.14,14.14,0,0,0-.09-6.78c-1.29-4.92-5.21-9.65-11.77-13.44l-.45-.26a48.685,48.685,0,0,0-9.41-4c-15.69-4.83-35.56-3.42-48.71,4.22-8.84,5.14-12.81,12-11.91,18.75h0l.09,4a14.049,14.049,0,0,0,.07,3h0c.73,5.53,4.78,11,12.1,15.18,13,7.49,32.34,9,47.81,4.5a48,48,0,0,0,10.75-4.5C489,658.27,492.89,650.63,491,643.38Zm-20.34,8.5a33.559,33.559,0,0,1-6.65,2.89c-11.09,3.52-25.32,2.56-34.76-2.9-4.11-2.37-6.75-5.26-7.93-8.3,1.07-3.18,3.72-6.21,7.95-8.67,9.35-5.43,23.52-6.41,34.64-2.92h0a34.474,34.474,0,0,1,5.33,2.14c.5.25,1,.51,1.44.78,4.12,2.38,6.75,5.28,7.92,8.33-1.07,3.17-3.71,6.19-7.93,8.65Z" transform="translate(169.53 5971.966)" fill="#dfe4fb"/>
    <ellipse id="Elipse_7753" data-name="Elipse 7753" cx="55.09" cy="15.93" rx="55.09" ry="15.93" transform="translate(180 6525.256)" fill="#dfe4fb"/>
    <ellipse id="Elipse_7754" data-name="Elipse 7754" cx="55.09" cy="15.93" rx="55.09" ry="15.93" transform="translate(651.84 6241.846)" fill="#dfe4fb"/>
    <ellipse id="Elipse_7755" data-name="Elipse 7755" cx="14.15" cy="6.38" rx="14.15" ry="6.38" transform="translate(465.92 6236.226)" fill="#dfe4fb"/>
    <ellipse id="Elipse_7756" data-name="Elipse 7756" cx="14.15" cy="6.38" rx="14.15" ry="6.38" transform="translate(586.49 6213.526)" fill="#dfe4fb"/>
    <ellipse id="Elipse_7757" data-name="Elipse 7757" cx="14.15" cy="6.38" rx="14.15" ry="6.38" transform="translate(328.09 6232.216)" fill="#dfe4fb"/>
    <g id="Grupo_93872" data-name="Grupo 93872" transform="translate(169.53 5971.966)">
      <path id="Trazado_190059" data-name="Trazado 190059" d="M527.1,547.05l-.41.24-3.39,1.97Z" fill="#e3e5f2"/>
      <path id="Trazado_190060" data-name="Trazado 190060" d="M521.86,556.55a2.72,2.72,0,0,0,1.61,2.24,8.39,8.39,0,0,0,7.62,0l2.32-1.35v-.08l28.75-16.7,4-2.33v-.52l.33-.2c9.45,4,22.75,3.55,31.19-1.36,4.62-2.69,6.94-6.21,6.95-9.75v-6.31a2.837,2.837,0,0,1,0,.29c.15-3.7-2.23-7.44-7.11-10.26-9.44-5.45-24.72-5.47-34,0-4.71,2.73-7,6.34-6.94,9.95v6.11a8.459,8.459,0,0,0,.68,3.31l-2.7,1.57-18.86,11-8.95,5.2-1.07.62h.07l-2.25,1.31a2.65,2.65,0,0,0-1.56,2.19Z" fill="#e3e5f2"/>
    </g>
    <g id="Grupo_93874" data-name="Grupo 93874" transform="translate(169.53 5971.966)">
      <ellipse id="Elipse_7758" data-name="Elipse 7758" cx="20.39" cy="11.34" rx="20.39" ry="11.34" transform="translate(556.862 504.731) rotate(-0.15)" fill="#abcfff"/>
      <path id="Trazado_190061" data-name="Trazado 190061" d="M597.65,514.29v6.31c0-3-2-6.1-6-8.43-8-4.62-20.89-4.63-28.8,0-3.92,2.27-5.88,5.25-5.89,8.24V514.1c0-3,2-6,5.88-8.25,7.92-4.6,20.81-4.58,28.81,0C595.64,508.19,597.65,511.24,597.65,514.29Z" fill="#3a67b3"/>
      <ellipse id="Elipse_7759" data-name="Elipse 7759" cx="20.39" cy="10.94" rx="20.39" ry="10.94" transform="translate(556.863 505.541) rotate(-0.14)" fill="#6d6e71"/>
      <path id="Trazado_190062" data-name="Trazado 190062" d="M553.2,520.36v-6.31c0,3,1.6,6,4.84,8.44v6.32C554.81,526.31,553.19,523.33,553.2,520.36Z" fill="#3a67b3"/>
      <path id="Trazado_190063" data-name="Trazado 190063" d="M563.2,525.43l-.02,6.31-2.02,1.18.01-6.31Z" fill="#005773"/>
      <path id="Trazado_190064" data-name="Trazado 190064" d="M601.34,514.31v6.32c0,3.53-2.32,7.06-7,9.75-8.44,4.91-21.74,5.35-31.19,1.36v-6.31c9.44,4,22.75,3.54,31.19-1.37C599,521.38,601.33,517.85,601.34,514.31Z" fill="#3a67b3"/>
      <g id="Grupo_93873" data-name="Grupo 93873">
        <path id="Trazado_190065" data-name="Trazado 190065" d="M562.86,527.35l-.01,5.11-4.01,2.33.01-5.11Z" fill="#3a67b3"/>
        <path id="Trazado_190066" data-name="Trazado 190066" d="M558.85,529.68l-28.87,16.78-7.68-4.43,1.48-.86,27.4-15.92Z" fill="#f3ca81"/>
        <path id="Trazado_190067" data-name="Trazado 190067" d="M558.85,529.68l-.01,5.11-28.88,16.78.02-5.11Z" fill="#e3b35d"/>
        <path id="Trazado_190068" data-name="Trazado 190068" d="M530.11,546.46l-.01,5.11-2.33,1.35.02-5.11Z" fill="#3a67b3"/>
        <path id="Trazado_190069" data-name="Trazado 190069" d="M518.54,550.67v-5.11a2.7,2.7,0,0,0,1.6,2.24,8.44,8.44,0,0,0,7.63,0v5.11a8.44,8.44,0,0,1-7.63,0A2.72,2.72,0,0,1,518.54,550.67Z" fill="#3a67b3"/>
        <path id="Trazado_190070" data-name="Trazado 190070" d="M523.91,541.17l-1.47.86,7.67,4.43-2.32,1.35a8.44,8.44,0,0,1-7.63,0c-2.12-1.23-2.14-3.21,0-4.42Z" fill="#5885d1"/>
        <path id="Trazado_190071" data-name="Trazado 190071" d="M561.17,526.37l-4.14-2.39-1.84-1.06-4.01,2.33,7.68,4.42,4-2.32Z" fill="#5885d1"/>
      </g>
      <path id="Trazado_190072" data-name="Trazado 190072" d="M558.06,522.49l1.84-1.07,5.11,3-1.81,1c9.44,4,22.75,3.54,31.19-1.37,9.34-5.42,9.25-14.27-.18-19.71s-24.71-5.47-34.05-.05C551.66,509.25,551,517,558.06,522.49Zm4.73-16.67c7.92-4.6,20.81-4.58,28.81,0s8.07,12.08.16,16.68-20.81,4.58-28.8,0-8.08-12.08-.17-16.68Z" fill="#5885d1"/>
      <path id="Trazado_190073" data-name="Trazado 190073" d="M565.01,524.38l-1.81,1.05-2.03,1.18-5.11-2.96,2-1.16,1.84-1.07Z" fill="#5885d1"/>
    </g>
    <g id="Grupo_93876" data-name="Grupo 93876" transform="translate(169.53 5971.966)">
      <path id="Trazado_190074" data-name="Trazado 190074" d="M579.39,442.62v7.83c0,2.51-1.55,4.93-4.69,6.75l-249,144.25c-6.77,3.93-18.39,3.56-25.95-.81L113.61,492.85c-4.06-2.35-6.13-5.37-6.12-8.29l.1-6.45v-1.75a6.6,6.6,0,0,1,1-2.57,13.63,13.63,0,0,0,5,4.6L299.8,586.18c7.56,4.37,19.18,4.73,25.95.8l249-144.24a10.41,10.41,0,0,0,3.61-3.25,7.271,7.271,0,0,1,1.03,3.13Z" fill="#7f7ea6"/>
      <path id="Trazado_190075" data-name="Trazado 190075" d="M579.39,443.75h0c-.22,2.31-1.77,4.5-4.68,6.19l-249,144.24c-6.77,3.93-18.39,3.57-25.95-.8L113.65,485.61c-3.69-2.14-5.73-4.84-6.06-7.5a6,6,0,0,1,0-1.75,6.6,6.6,0,0,1,1-2.57,10.59,10.59,0,0,1,3.59-3.23l249-144.25c6.77-3.92,18.39-3.56,25.95.81L573.3,434.91a14,14,0,0,1,5,4.58,7.271,7.271,0,0,1,1.07,3.13h0A5.152,5.152,0,0,1,579.39,443.75Z" fill="#9f9dc9"/>
    </g>
    <g id="Grupo_93880" data-name="Grupo 93880" transform="translate(169.53 5971.966)">
      <g id="Grupo_93879" data-name="Grupo 93879">
        <g id="Grupo_93877" data-name="Grupo 93877">
          <path id="Trazado_190076" data-name="Trazado 190076" d="M399.41,390.84l-5.74,1.85,2.56,1.48Z" fill="#fff"/>
          <path id="Trazado_190077" data-name="Trazado 190077" d="M416.11,369.26,444,385.43l1.5-.87a.66.66,0,0,1,.58,0l25.56,14.8c.16.09.16.24,0,.34l-1.5.87,26,15.07h0c2.88,1.66,7.7,1.57,10.77-.21l11.78-6.82-37.95-22h0l-7.39-4.27-45.2-26.18L416.46,363C413.39,364.79,413.23,367.59,416.11,369.26Z" fill="#fff"/>
          <path id="Trazado_190078" data-name="Trazado 190078" d="M569.84,446.5,363.91,565.82l-4.54,2.64-3.88,2.24-34.61,20c-4.46,2.58-12.35,2.23-17.59-.8l-40.17-23.2-10.82-6.27-1.45-.84-133.7-77.42c-5.24-3.05-5.88-7.62-1.4-10.21l249-144.25c4.47-2.58,12.36-2.22,17.6.8l42,24.33a2.49,2.49,0,0,0,1.27,1.79l-12.31,7.14c-4.35,2.52-4.57,6.49-.48,8.85l28.42,16.46-.78.45a.18.18,0,0,0,0,.34L466,402.67a.66.66,0,0,0,.58,0l.78-.44,26.53,15.36c4.09,2.37,10.93,2.24,15.29-.28l12.31-7.13a7.31,7.31,0,0,0,3.11.73l43.87,25.4c2.62,1.52,4.17,3.45,4.35,5.45S571.92,445.29,569.84,446.5Z" fill="#fff"/>
          <path id="Trazado_190079" data-name="Trazado 190079" d="M345.14,397.35c-.22-1.26-.44-2.52-.65-3.78l-15.61,1.78v-5.06l-6.19.55q1.08,3.65,2.18,7.31Z" fill="#fff"/>
          <path id="Trazado_190080" data-name="Trazado 190080" d="M309.49,418c-.22-1.26-.44-2.51-.65-3.77L293.23,416v-5.05l-6.2.54c.73,2.44,1.46,4.87,2.18,7.31Z" fill="#fff"/>
          <path id="Trazado_190081" data-name="Trazado 190081" d="M273.84,438.66c-.22-1.26-.44-2.52-.65-3.78l-15.61,1.78V431.6l-6.19.55c.73,2.43,1.46,4.87,2.18,7.3Z" fill="#fff"/>
          <path id="Trazado_190082" data-name="Trazado 190082" d="M238.2,459.31c-.23-1.26-.44-2.51-.66-3.77l-15.61,1.78v-5.06l-6.19.54c.73,2.44,1.46,4.87,2.18,7.31Z" fill="#fff"/>
          <path id="Trazado_190083" data-name="Trazado 190083" d="M186.29,478v-5.06l-6.19.55,2.19,7.3,20.27-.79-.66-3.78Z" fill="#fff"/>
        </g>
        <path id="Trazado_190084" data-name="Trazado 190084" d="M529.1,405.53l-40.44-23.42,5.84-3.39c4.31-2.5,4.53-6.42.48-8.76s-10.81-2.22-15.12.28L474,373.63l-40.44-23.42a8.37,8.37,0,0,0-7.59.14,2.78,2.78,0,0,0-1.69,2.48,2.49,2.49,0,0,0,1.27,1.81l-12.31,7.13c-4.35,2.52-4.57,6.49-.48,8.85l28.42,16.46-.78.45c-.16.09-.15.24,0,.34l25.6,14.8a.64.64,0,0,0,.57,0l.78-.45,26.53,15.36c4.09,2.37,10.93,2.24,15.29-.28l12.31-7.13a7.31,7.31,0,0,0,3.11.73,8.31,8.31,0,0,0,4.29-1C531,408.67,531.13,406.7,529.1,405.53Zm-44.65-33a7,7,0,0,1,6.34-.12c1.7,1,1.6,2.63-.21,3.68a7,7,0,0,1-6.34.11c-1.69-1-1.6-2.64.21-3.69ZM507,415.44c-3.07,1.78-7.89,1.87-10.77.21h0l-26-15.07,1.5-.87c.16-.1.16-.25,0-.34l-25.56-14.8a.66.66,0,0,0-.58,0l-1.5.87-27.93-16.17c-2.88-1.67-2.72-4.47.35-6.25l11.78-6.82,45.2,26.18,7.39,4.27,37.95,22Z" fill="#326ab3"/>
        <g id="Grupo_93878" data-name="Grupo 93878">
          <path id="Trazado_190085" data-name="Trazado 190085" d="M310.89,396.82l17.88,10.35a9.53,9.53,0,0,0,8.67,0l15.63-9.05c2.39-1.39,2.38-3.64,0-5l-17.88-10.35a9.56,9.56,0,0,0-8.68,0l-15.62,9.05C308.48,393.18,308.49,395.43,310.89,396.82Zm18-6.53v5.06l15.61-1.78c.21,1.26.43,2.52.65,3.78l-20.27.8q-1.1-3.66-2.18-7.31Z" fill="#bdd4ff"/>
          <path id="Trazado_190086" data-name="Trazado 190086" d="M275.47,417.34l17.88,10.35a9.53,9.53,0,0,0,8.67,0l15.64-9.05c2.39-1.39,2.38-3.64,0-5l-17.87-10.35a9.56,9.56,0,0,0-8.68,0l-15.63,9.05C273.07,413.7,273.08,416,275.47,417.34ZM293.24,411v5.05l15.61-1.77c.21,1.26.43,2.51.65,3.77l-20.27.8c-.72-2.44-1.45-4.87-2.18-7.31Z" fill="#bdd4ff"/>
          <path id="Trazado_190087" data-name="Trazado 190087" d="M240.06,437.86l17.87,10.35a9.56,9.56,0,0,0,8.68,0l15.63-9c2.39-1.39,2.38-3.64,0-5l-17.88-10.35a9.56,9.56,0,0,0-8.68,0l-15.62,9.05C237.65,434.22,237.66,436.47,240.06,437.86Zm17.52-6.26v5.06l15.61-1.78c.21,1.26.43,2.52.65,3.78l-20.27.79c-.72-2.43-1.45-4.87-2.18-7.3Z" fill="#bdd4ff"/>
          <path id="Trazado_190088" data-name="Trazado 190088" d="M204.64,458.38l17.88,10.35a9.53,9.53,0,0,0,8.67,0l15.63-9.05c2.39-1.39,2.38-3.64,0-5L228.94,444.3a9.56,9.56,0,0,0-8.68,0l-15.63,9.05C202.24,454.74,202.24,457,204.64,458.38Zm17.29-6.12v5.06l15.61-1.78c.22,1.26.43,2.51.66,3.77l-20.28.8c-.72-2.44-1.45-4.87-2.18-7.31Z" fill="#bdd4ff"/>
          <path id="Trazado_190089" data-name="Trazado 190089" d="M211.39,475.17l-17.87-10.35a9.56,9.56,0,0,0-8.68,0l-15.63,9.05c-2.39,1.39-2.38,3.64,0,5l17.88,10.35a9.56,9.56,0,0,0,8.68,0l15.62-9.05C213.8,478.81,213.79,476.56,211.39,475.17Zm-29.11,5.59-2.19-7.3,6.19-.55v5.06l15.6-1.78.66,3.78Z" fill="#bdd4ff"/>
          <path id="Trazado_190090" data-name="Trazado 190090" d="M478.26,469,367.84,405a2.69,2.69,0,0,0-2.48.05c-.71.41-.74,1.05-.07,1.43l110.42,63.94a2.72,2.72,0,0,0,2.48,0C478.89,470,478.93,469.33,478.26,469Z" fill="#bdd4ff"/>
          <path id="Trazado_190091" data-name="Trazado 190091" d="M350.13,413.88c-.7.41-.9,1-.42,1.24l78.72,45.59a2.48,2.48,0,0,0,2.14-.25c.7-.41.89-1,.42-1.24l-78.73-45.59a2.46,2.46,0,0,0-2.13.25Z" fill="#bdd4ff"/>
          <path id="Trazado_190092" data-name="Trazado 190092" d="M357.9,410.77l44.69,25.87h0a2.76,2.76,0,0,0,2.47,0c.71-.41.74-1.06.08-1.44l-44.69-25.87h0a2.75,2.75,0,0,0-2.48.05C357.28,409.74,357.24,410.38,357.9,410.77Z" fill="#bdd4ff"/>
          <path id="Trazado_190093" data-name="Trazado 190093" d="M423.54,448.77a2.69,2.69,0,0,0,2.47,0c.71-.41.75-1.06.08-1.44l-13.26-7.68a2.72,2.72,0,0,0-2.48,0c-.71.42-.74,1.06-.08,1.44Z" fill="#bdd4ff"/>
          <path id="Trazado_190094" data-name="Trazado 190094" d="M442.38,489.74,332,425.8h0a2.73,2.73,0,0,0-2.47.05c-.71.41-.74,1-.08,1.43l110.42,63.94a2.74,2.74,0,0,0,2.49,0C443,490.77,443.05,490.13,442.38,489.74Z" fill="#bdd4ff"/>
          <path id="Trazado_190095" data-name="Trazado 190095" d="M314.25,434.67c-.71.41-.9,1-.43,1.24l78.73,45.58h0a2.48,2.48,0,0,0,2.14-.25c.7-.41.89-1,.42-1.24l-78.73-45.59A2.46,2.46,0,0,0,314.25,434.67Z" fill="#bdd4ff"/>
          <path id="Trazado_190096" data-name="Trazado 190096" d="M369.27,456l-44.69-25.87a2.72,2.72,0,0,0-2.48,0c-.7.41-.74,1.05-.08,1.44l44.69,25.87h0a2.76,2.76,0,0,0,2.47-.05C369.9,457,369.93,456.34,369.27,456Z" fill="#bdd4ff"/>
          <path id="Trazado_190097" data-name="Trazado 190097" d="M387.65,469.56a2.71,2.71,0,0,0,2.48,0c.71-.41.74-1.06.08-1.44L377,460.4a2.69,2.69,0,0,0-2.48.05c-.71.4-.74,1.05-.08,1.43Z" fill="#bdd4ff"/>
          <path id="Trazado_190098" data-name="Trazado 190098" d="M406.5,510.53,296.08,446.59h0a2.73,2.73,0,0,0-2.47.05c-.71.41-.74,1.05-.08,1.43L403.94,512h0a2.73,2.73,0,0,0,2.47,0C407.13,511.56,407.17,510.92,406.5,510.53Z" fill="#bdd4ff"/>
          <path id="Trazado_190099" data-name="Trazado 190099" d="M278.37,455.46c-.71.41-.9,1-.43,1.24l78.73,45.58h0a2.46,2.46,0,0,0,2.13-.25c.71-.41.9-1,.43-1.24L280.5,455.21A2.46,2.46,0,0,0,278.37,455.46Z" fill="#bdd4ff"/>
          <path id="Trazado_190100" data-name="Trazado 190100" d="M333.38,476.74,288.7,450.87a2.72,2.72,0,0,0-2.48,0c-.71.41-.74,1.06-.08,1.44l44.68,25.87a2.74,2.74,0,0,0,2.49,0C334,477.77,334,477.12,333.38,476.74Z" fill="#bdd4ff"/>
          <path id="Trazado_190101" data-name="Trazado 190101" d="M351.77,490.35a2.72,2.72,0,0,0,2.48,0c.71-.41.74-1.06.08-1.44l-13.27-7.68h0a2.78,2.78,0,0,0-2.48.05c-.7.41-.74,1.06-.08,1.44Z" fill="#bdd4ff"/>
          <path id="Trazado_190102" data-name="Trazado 190102" d="M370.62,531.32,260.19,467.38h0a2.72,2.72,0,0,0-2.48.05c-.7.41-.74,1.05-.07,1.43L368.06,532.8h0a2.73,2.73,0,0,0,2.47,0C371.25,532.35,371.28,531.71,370.62,531.32Z" fill="#bdd4ff"/>
          <path id="Trazado_190103" data-name="Trazado 190103" d="M242.48,476.25c-.7.41-.89,1-.42,1.24l78.72,45.59a2.48,2.48,0,0,0,2.14-.25c.71-.41.89-1,.42-1.24L244.62,476a2.48,2.48,0,0,0-2.14.25Z" fill="#bdd4ff"/>
          <path id="Trazado_190104" data-name="Trazado 190104" d="M297.5,497.53l-44.68-25.88a2.75,2.75,0,0,0-2.48.05c-.71.41-.75,1.05-.08,1.44L294.94,499a2.72,2.72,0,0,0,2.48,0C298.13,498.56,298.16,497.91,297.5,497.53Z" fill="#bdd4ff"/>
          <path id="Trazado_190105" data-name="Trazado 190105" d="M315.89,511.14a2.75,2.75,0,0,0,2.48,0c.71-.41.74-1.06.08-1.44L305.18,502h0a2.75,2.75,0,0,0-2.48,0c-.7.41-.74,1.06-.08,1.44Z" fill="#bdd4ff"/>
          <path id="Trazado_190106" data-name="Trazado 190106" d="M334.74,552.11,224.31,488.17a2.75,2.75,0,0,0-2.48.05c-.7.41-.74,1-.08,1.43l110.43,63.94h0a2.75,2.75,0,0,0,2.48-.05C335.36,553.14,335.4,552.5,334.74,552.11Z" fill="#bdd4ff"/>
          <path id="Trazado_190107" data-name="Trazado 190107" d="M287.46,542.38,208.74,496.8h0a2.46,2.46,0,0,0-2.13.25c-.71.41-.89,1-.42,1.24l78.72,45.59a2.48,2.48,0,0,0,2.14-.25C287.75,543.21,287.93,542.66,287.46,542.38Z" fill="#bdd4ff"/>
          <path id="Trazado_190108" data-name="Trazado 190108" d="M214.38,493.93l44.68,25.87a2.72,2.72,0,0,0,2.48,0c.71-.41.74-1.06.08-1.44l-44.68-25.88a2.77,2.77,0,0,0-2.49.05C213.75,492.9,213.71,493.54,214.38,493.93Z" fill="#bdd4ff"/>
          <path id="Trazado_190109" data-name="Trazado 190109" d="M280,531.93a2.75,2.75,0,0,0,2.48,0c.7-.41.74-1.06.08-1.44l-13.27-7.68h0a2.75,2.75,0,0,0-2.48,0c-.7.42-.74,1.06-.08,1.44Z" fill="#bdd4ff"/>
        </g>
      </g>
    </g>
    <path id="Trazado_190110" data-name="Trazado 190110" d="M515,228a125.358,125.358,0,0,1,1.74,14.71A132.432,132.432,0,0,1,515.36,274l-5.48-.33s-4.78-22.71-7.33-38.23c-.66-3.93-1.16-7.44-1.41-10.08-1.41-15,6.08-56.4,6.56-59.08v-.1h0l17.63-1.43C534,195.19,522.76,201.46,515,228Z" transform="translate(169.53 5971.966)" fill="#f1cccd"/>
    <path id="Trazado_190111" data-name="Trazado 190111" d="M546.45,272.05c-.51-2.37-8.1-20.13-15.28-30.48-1.71-2.47-3.31-4.63-4.66-6.21-9.62-11.3-19-71.39-19-71.39l14.3-1.16c12.36,12.88,11,32.13,12.91,50.86a44.169,44.169,0,0,0,5.78,17.91c.62,1.06,1.2,2.14,1.77,3.25,3.92,7.73,7.72,18.6,11.59,36Z" transform="translate(169.53 5971.966)" fill="#f1cccd"/>
    <path id="Trazado_190112" data-name="Trazado 190112" d="M493.84,218.31A1.65,1.65,0,0,0,495.7,220c17.1-2.19,28,3.53,41.62,1.34q1.17-.18,2.37-.45a3.34,3.34,0,0,0,2.58-3c1.47-22.06.32-41.94-5.76-54.68H504.7S494.19,198.88,493.84,218.31Z" transform="translate(169.53 5971.966)" fill="#3a67b3"/>
    <path id="Trazado_190113" data-name="Trazado 190113" d="M537.4,200.13c0,10.89,0,17.56-.08,21.19q1.17-.18,2.37-.45a3.34,3.34,0,0,0,2.58-3c1.47-22.06.32-41.94-5.76-54.68H535l-1.72,1.69a166.274,166.274,0,0,1,4.12,35.25Z" transform="translate(169.53 5971.966)" fill="#23519e"/>
    <path id="Trazado_190114" data-name="Trazado 190114" d="M510.73,90.74A8.21,8.21,0,0,1,513,84.61c2-1.88,5.18-2.15,7.85-1.37a24.16,24.16,0,0,1,7.23,4.06c3.52,2.54,7.28,5.43,8.32,9.65,1.21,4.89-1.62,10.23.07,15,1.21,3.4,4.43,5.59,7,8.1s4.79,6.33,3.25,9.59c-1.75,3.73-7.21,4.34-9.22,7.92-1.27,2.26-.83,5.13-1.84,7.51a6.56,6.56,0,0,1-12.31-.6c-.53-1.7-.35-3.56-.92-5.25-.86-2.6-3.27-4.31-5.11-6.34a16,16,0,0,1-2.27-18.39c-2.79-5.13-4.07-10.68-2.27-17.1a11.92,11.92,0,0,1-2.05-6.65Z" transform="translate(169.53 5971.966)" fill="#343852"/>
    <rect id="Rectángulo_39584" data-name="Rectángulo 39584" width="24.01" height="33.66" rx="2.17" transform="matrix(0.942, -0.337, 0.337, 0.942, 634.337, 6077.908)" fill="#23519e"/>
    <path id="Trazado_190115" data-name="Trazado 190115" d="M503.89,143.08s-.62,12.73-7.27,13.28c-5.58.48-12-20.93-16.39-26.58-4.24-5.43-6.65-9.81-3.76-11.54,7.62-4.55,8,3.21,8.34,9.14l8.93,13.79,9.38-24.33Z" transform="translate(169.53 5971.966)" fill="#f1cccd"/>
    <path id="Trazado_190116" data-name="Trazado 190116" d="M514.69,104.07c7.21,6.14,11.27-5,11.27-5s3.2-1.47,1.93-4.4c-1.12-2.59-3.91.61-3.91.61-3.8,0-6.83-3.3-8.41-5.49a1.16,1.16,0,0,0-2,.3,22.669,22.669,0,0,0-1.29,8.76A7.54,7.54,0,0,0,514.69,104.07Z" transform="translate(169.53 5971.966)" fill="#f1cccd"/>
    <path id="Trazado_190117" data-name="Trazado 190117" d="M557.94,192.24c-3.41.85-6.93-4.49-6.93-4.49s-1.39,3.47-2.45,1.89.65-5.86.65-5.86l-1-3.23-11-36,.79-26.72c6.94,2.93,13.29,47.54,15.09,61.33.34,2.54.51,4,.51,4S561.62,191.33,557.94,192.24Z" transform="translate(169.53 5971.966)" fill="#f1cccd"/>
    <path id="Trazado_190118" data-name="Trazado 190118" d="M480,130.16c2.44,6.91,11.13,26.49,16.68,26.49a2.64,2.64,0,0,0,1-.2c2.3-1,4.51-5.1,6.17-9.08a83.565,83.565,0,0,0,2.85-8.13v-.05c.63,6.12-1.75,24.8-2.48,24.54,7.91,2.72,17.64,3.29,27.11,1.58h.07a59.281,59.281,0,0,0,6-1.4c-5.18-7.52-6.75-20.75-4.1-25.21a3.577,3.577,0,0,0,.12.69c1.45,7.37,14.56,44.25,14.68,44.22,1.42-.33,6.25-1.35,6.23-1.46-1.89-14-9.52-63.83-16.45-66.69-3.5-1.44-14-5.69-14-5.69a.28.28,0,0,0-.13,0l-7.69.19s.84-.21.81-.19c-.64.33-9.87,2.61-13,4.72-4.45,3-10,26.34-10,26.34a.23.23,0,0,1-.42.05l-8.4-14.46a56.747,56.747,0,0,0-5.05,3.74Z" transform="translate(169.53 5971.966)" fill="#e8586c"/>
    <path id="Trazado_190119" data-name="Trazado 190119" d="M516.85,109.72c3,4.06,4.86,3.69,7.19,0l-.82-7.44-5.89.44C517.13,103.44,517.1,108.52,516.85,109.72Z" transform="translate(169.53 5971.966)" fill="#f1cccd"/>
    <path id="Trazado_190120" data-name="Trazado 190120" d="M533.42,139.37l-.12-.69C533.33,138.87,533.36,139.1,533.42,139.37Z" transform="translate(169.53 5971.966)" fill="#db85b4"/>
    <path id="Trazado_190121" data-name="Trazado 190121" d="M533.3,164.85l4.1-1c-5.18-7.52-6.74-20.69-4.09-25.15l-1.35-4C528.78,140.88,526.83,150.07,533.3,164.85Z" transform="translate(169.53 5971.966)" fill="#de4358"/>
    <path id="Trazado_190122" data-name="Trazado 190122" d="M497.67,156.45c2.3-1,4.51-5.1,6.17-9.08l2.85-8.13v-.05a24.231,24.231,0,0,1-.35-11.48C503.3,132.92,504.32,151.08,497.67,156.45Z" transform="translate(169.53 5971.966)" fill="#de4358"/>
    <path id="Trazado_190123" data-name="Trazado 190123" d="M552.4,264.72l2.78,3.55,4,7.61-1.34,1-5.53-5.26.59,5.63a4.64,4.64,0,0,1-1.26,4.07c-3,2.7-9.3,7.26-11,5.29s4.33-6.42,4.45-10.11.09-8.11.09-8.11Z" transform="translate(169.53 5971.966)" fill="#343852"/>
    <path id="Trazado_190124" data-name="Trazado 190124" d="M515.44,273.55l1.33,4.41-.93,7.45-1.48.07L513,279l-2.39,4.33a4.07,4.07,0,0,1-2.93,2.29c-3.48.44-10.28.55-10.56-1.74s6.31-2.44,8.24-5,4.49-5.44,4.49-5.44Z" transform="translate(169.53 5971.966)" fill="#343852"/>
    <path id="Trazado_190125" data-name="Trazado 190125" d="M120.71,346.74s-5,28-12.25,30c-3.29.87-7.51.14-11.55-1.23-6.82-2.31-13.1-6.41-13.32-7.53l-6.92-21c4,1.72,26.69,14.66,28.55,15.9,3-4.51,9.52-16.24,9.73-17.11,0,0-1.41-6.32-.16-8.1,1.1-1.57,1.5,3.59,2,3s3.52-8,5.52-5.87C126.72,339.48,120.71,346.74,120.71,346.74Z" transform="translate(169.53 5971.966)" fill="#f9cbcb"/>
    <path id="Trazado_190126" data-name="Trazado 190126" d="M101.38,359.85c-.52,5.49-3.7,12.9-4,16.34-6.82-2.31-15-3.08-15.27-4.21L76.7,346.93C80.66,348.65,93.46,355.15,101.38,359.85Z" transform="translate(169.53 5971.966)" fill="#fc7487"/>
    <path id="Trazado_190127" data-name="Trazado 190127" d="M74.84,466.44A94.469,94.469,0,0,0,72.05,481c-1.2,11.38-.86,28.91,1.22,40l5.84-.57s8.24-30,12.14-45.26c1-3.88,1.78-7.35,2.18-10,2.36-14.94-6.36-57.28-6.92-60v-.1h0L63,401.78C50.51,431.47,65.31,438.94,74.84,466.44Z" transform="translate(169.53 5971.966)" fill="#f1cccd"/>
    <path id="Trazado_190128" data-name="Trazado 190128" d="M63.77,442.05c3.31,6.81,7.55,14.23,11.07,24.39-1.3,4.84-2.78,9.87-4.49,15.73L90.67,485c1-3.89,2.36-17.17,2.76-19.79,2.36-14.94-6.36-57.28-6.92-60v-.1h0L63,401.78C55.11,420.51,58.1,430.39,63.77,442.05Z" transform="translate(169.53 5971.966)" fill="#2c58a3"/>
    <path id="Trazado_190129" data-name="Trazado 190129" d="M63.77,442.05c3.31,6.81,7.55,14.23,11.07,24.39-1.3,4.84-2.78,9.87-4.49,15.73l3.75.52c.64-5.8,5.77-15.33,7.49-15C80.06,467.29,66.1,440,65,430.48Z" transform="translate(169.53 5971.966)" fill="#285094"/>
    <path id="Trazado_190130" data-name="Trazado 190130" d="M50.25,527.86,35.94,511.27S46.45,494.86,55,484a85.755,85.755,0,0,1,5.55-6.59c11.65-12.06,17.73-72.83,17.73-72.83H59c-15.09,13.87-11.29,33-11.74,51.84a35.56,35.56,0,0,1-5.79,18.35q-1.06,1.66-2,3.39c-4.4,8-7,17.46-9.42,32.93l-3,10.05Z" transform="translate(169.53 5971.966)" fill="#f1cccd"/>
    <path id="Trazado_190131" data-name="Trazado 190131" d="M38.47,477.78,44,480.33l11.3,5.17c2-2.61,3.55-6.45,5.17-8.14,11.65-12.06,19.16-73.07,19.16-73.07l-19.86.23H59c-14.59,13.41-11.53,31.7-11.71,50a34.31,34.31,0,0,1-7,20.61,20.849,20.849,0,0,0-1.82,2.65Z" transform="translate(169.53 5971.966)" fill="#3a67b3"/>
    <path id="Trazado_190132" data-name="Trazado 190132" d="M38.47,477.78,44,480.33a85.179,85.179,0,0,0,6-11.82c3.78-9.58,1.45-22.59,2.36-40.88.67-13.48,12.06-20,12.06-20l-4.6-3.09H59c-14.59,13.41-11.53,31.7-11.71,50a34.31,34.31,0,0,1-7,20.61,20.849,20.849,0,0,0-1.82,2.63Z" transform="translate(169.53 5971.966)" fill="#23519e"/>
    <path id="Trazado_190133" data-name="Trazado 190133" d="M49.2,365.3c.17,12.13,3.16,33.17,4.29,40.74a3.88,3.88,0,0,0,1.63,2.64,3.74,3.74,0,0,0,1.61.64,107,107,0,0,0,16,1.24,80.694,80.694,0,0,0,13.65-1.12A4,4,0,0,0,89.57,406c.62-5.72-1.18-18.29-.89-30.51.19-7.73-2.24-27.52-16.68-30.64l-8.46-.08c-9.48,2.46-13.46,9.72-14.11,14.79A40.3,40.3,0,0,0,49.2,365.3Z" transform="translate(169.53 5971.966)" fill="#e8586c"/>
    <path id="Trazado_190134" data-name="Trazado 190134" d="M79.79,518.78c9,3.45,18.95,3.09,19.57,11.2L71.1,529a20.34,20.34,0,0,1,1.71-10.21Z" transform="translate(169.53 5971.966)" fill="#3e4261"/>
    <path id="Trazado_190135" data-name="Trazado 190135" d="M35.94,511.27c7.19,6.39,18,10.9,15.67,18.71l-26.1-8.73c.9-3.33,2.11-8.68,4.68-11.32Z" transform="translate(169.53 5971.966)" fill="#3e4261"/>
    <g id="Grupo_93883" data-name="Grupo 93883" transform="translate(169.53 5971.966)">
      <path id="Trazado_190136" data-name="Trazado 190136" d="M69.37,337.39c-2.76.85-3.87,2.23-7.39.64-5.36-2.42-9.88-11.7-2.77-15.9.49-1.46,1-2,2.87-2.44s3.79.41,6.38.36,6.24-2.7,8.49,1.06-3.33,6.68-6.13,8.53S68.93,334.68,69.37,337.39Z" fill="#3e4261"/>
      <path id="Trazado_190137" data-name="Trazado 190137" d="M63.42,344.8c3.08,3.07,6,3.66,8.58.05l-.73-5.94-.3-2.5H64.16L64,338Z" fill="#f9cbcb"/>
      <path id="Trazado_190138" data-name="Trazado 190138" d="M63.93,339.07c1.68,2,6.32,2.61,7.58,1.74l-.54-4.4-6.85-2.87Z" fill="#f0b4b4"/>
      <path id="Trazado_190139" data-name="Trazado 190139" d="M74.46,324.51c1.25,3.53,2.48,11.34-.52,14.25-1.9,1.84-8.78,1.13-10.19-3.93-1.66-1.2-2.88-4.14-1.35-5.47,1.09-.95,2.48,1.56,4.39,1.15.72-.16-1.5-5,.75-5.82S72.18,325.66,74.46,324.51Z" fill="#f9cbcb"/>
    </g>
    <g id="Grupo_93884" data-name="Grupo 93884" transform="translate(169.53 5971.966)">
      <path id="Trazado_190140" data-name="Trazado 190140" d="M109.55,295.08l3.38,13.35L94.84,313l-3.39-13.35a.94.94,0,0,1,0-.16,9.17,9.17,0,0,1-.22-2.84,9.336,9.336,0,0,1,18.31-1.76Z" fill="#66a6ff"/>
      <path id="Trazado_190141" data-name="Trazado 190141" d="M109.5,294.91a9.34,9.34,0,0,0-11.3-6.58,8.831,8.831,0,0,0-1.7.62,9.2,9.2,0,0,1,4.3,1.3,9.36,9.36,0,0,1,3.08,3,9.11,9.11,0,0,1,1.15,2.6v.16l3.39,13.35L94.78,312.8l.06.22,18.09-4.59-3.38-13.35Z" fill="#4f94f5"/>
      <path id="Trazado_190142" data-name="Trazado 190142" d="M109.5,294.91a57,57,0,0,1-18.09,4.6,9.17,9.17,0,0,1-.22-2.84,61.911,61.911,0,0,0,17.16-4.35A9.18,9.18,0,0,1,109.5,294.91Z" fill="#3a67b3"/>
      <path id="Trazado_190143" data-name="Trazado 190143" d="M120.29,305.65c.47,2.12,1.46,6.6,1.95,8.76l15.91,71.64c5.23,23.56,10.32,46.47,12.7,57.18a29.066,29.066,0,0,1,.61,4.24,28.36,28.36,0,0,1-.72,8.36l-2.1,8.72-2.22,9.23a1.24,1.24,0,0,1-2.13.53L138,467.24l-6-6.74a28.1,28.1,0,0,1-6-10.86L110.15,394,89.74,322.66c-.59-2.17-1.87-6.49-2.46-8.63a7.87,7.87,0,0,1,5.63-9.79l17.76-4.51a7.88,7.88,0,0,1,9.62,5.92Z" fill="#66a6ff"/>
      <path id="Trazado_190144" data-name="Trazado 190144" d="M110.67,299.73,106,300.91a7.83,7.83,0,0,1,4.57,5.52l2,8.75S135.25,417.32,141.17,444a27.78,27.78,0,0,1-.11,12.6L139,465.32l-.57,2.35,5.89,6.64a1.24,1.24,0,0,0,2.13-.54l2.22-9.22,2.1-8.72a28.07,28.07,0,0,0,.11-12.6c-5.93-26.68-28.61-128.82-28.61-128.82-.49-2.16-1.48-6.64-1.95-8.75a7.88,7.88,0,0,0-9.65-5.93Z" fill="#4f94f5"/>
      <path id="Trazado_190145" data-name="Trazado 190145" d="M123.73,308.5l1.32,5.2-35.3,8.96-1.48-5.16Z" fill="#3a67b3"/>
      <path id="Trazado_190146" data-name="Trazado 190146" d="M136.05,350.72h0c-1.33.33-2.77-.78-3.2-2.5-3.5-13.76-6.17-28.78-9.41-39.14-.86-2.76.24-5.58,2.42-6.13h0c1.85-.47,3.87.87,4.74,3.16,3.57,9.38.82,21,7,40.63C138.17,348.53,137.46,350.36,136.05,350.72Z" fill="#3a67b3"/>
      <path id="Trazado_190147" data-name="Trazado 190147" d="M148.64,464.55l-2.22,9.22a1.24,1.24,0,0,1-2.13.54L138,467.24a19.5,19.5,0,0,1,10.64-2.69Z" fill="#3a67b3"/>
      <path id="Trazado_190148" data-name="Trazado 190148" d="M138.15,386.05c5.23,23.56,10.32,46.47,12.7,57.18a29.066,29.066,0,0,1,.61,4.24c-6.24,5.8-14.48,7.26-23.65,6.7a27.868,27.868,0,0,1-1.74-4.53L110.15,394a26.47,26.47,0,0,0,19.6-2.28,45.379,45.379,0,0,0,8.4-5.67Z" fill="#b3d3ff"/>
      <path id="Trazado_190149" data-name="Trazado 190149" d="M129.36,391.9c5,23.85,9.69,46.08,12,57a35.2,35.2,0,0,1,.6,3.93,23.889,23.889,0,0,0,9.51-5.39,29.071,29.071,0,0,0-.61-4.24c-2.38-10.71-7.47-33.62-12.7-57.18a45.379,45.379,0,0,1-8.4,5.66Z" fill="#9ec7ff"/>
    </g>
    <g id="Grupo_93885" data-name="Grupo 93885" transform="translate(169.53 5971.966)">
      <path id="Trazado_190150" data-name="Trazado 190150" d="M60.71,375.15s7.57,9.11,14.43,14.12A22,22,0,0,0,79.82,392c10,3.79,33.1.8,33.1.8,7.27,3.71,16.46,1.51,18.28-1.23,3.21-4.9-8.71-.28-9.86-3.21,0,0,5.48-3,3.94-5.16s-11.08,3.65-11.08,3.65A91.76,91.76,0,0,0,85.62,380c-.73-1-1.47-2.07-2.23-3.09-5.51-7.31-11.9-14-20.59-18.4C58.59,364,58.71,369.58,60.71,375.15Z" fill="#f9cbcb"/>
      <path id="Trazado_190151" data-name="Trazado 190151" d="M73,389.51l11.94-13.35c-5.51-7.32-16.06-23.36-23.42-17C51.72,367.72,66.13,384.5,73,389.51Z" fill="#fc7487"/>
    </g>
    <ellipse id="Elipse_7760" data-name="Elipse 7760" cx="45.72" cy="21.7" rx="45.72" ry="21.7" transform="translate(351.16 6290.496)" fill="#dfe4fb"/>
    <g id="Grupo_93887" data-name="Grupo 93887" transform="translate(169.53 5971.966)">
      <path id="Trazado_190152" data-name="Trazado 190152" d="M234.12,326.66c-6.94,4-18.23,4-25.21,0-3.51-2-5.27-4.69-5.26-7.35v4.29c0,2.66,1.74,5.32,5.26,7.35,7,4,18.27,4,25.2,0,3.45-2,5.18-4.63,5.19-7.25v-4.3C239.29,322,237.56,324.65,234.12,326.66Z" fill="#eba221"/>
      <path id="Trazado_190153" data-name="Trazado 190153" d="M234,312.06c-7-4-18.27-4-25.21,0s-6.9,10.57.08,14.6,18.27,4,25.21,0S241,316.09,234,312.06Zm-1.82,13.5c-5.9,3.43-15.49,3.43-21.42,0s-6-9-.07-12.41,15.48-3.42,21.42,0,6,8.98.11,12.41Z" fill="#ffc45c"/>
      <path id="Trazado_190154" data-name="Trazado 190154" d="M231.08,313.77c-5.34-3.08-14-3.08-19.28,0s-5.28,8.09.06,11.17,14,3.08,19.28,0S236.42,316.85,231.08,313.77Z" fill="#ffc45c"/>
      <path id="Trazado_190155" data-name="Trazado 190155" d="M232.15,313.15c-5.94-3.42-15.53-3.42-21.42,0s-5.87,9,.07,12.41,15.52,3.43,21.42,0S238.08,316.58,232.15,313.15Zm-1,11.79c-5.3,3.08-13.94,3.08-19.28,0s-5.37-8.08-.06-11.17,13.94-3.08,19.28,0,5.36,8.08.05,11.17Z" fill="#eba72f"/>
    </g>
    <g id="Grupo_93889" data-name="Grupo 93889" transform="translate(169.53 5971.966)">
      <g id="Grupo_93888" data-name="Grupo 93888">
        <path id="Trazado_190156" data-name="Trazado 190156" d="M230.34,314.18l-1.74,1.01v.43l1.74-1.01Z" fill="#ebcc70"/>
        <path id="Trazado_190157" data-name="Trazado 190157" d="M222.89,316a4,4,0,0,1,2.91-.26v-.43a4,4,0,0,0-2.91.26c-.55.32-.8.66-.8,1.08v.43C222.09,316.65,222.34,316.31,222.89,316Z" fill="#ebcc70"/>
        <path id="Trazado_190158" data-name="Trazado 190158" d="M228.79,317.55a4,4,0,0,0-1.52-1.59L223,318.45v.43l4.28-2.49a4.07,4.07,0,0,1,1.52,1.59l1.72-.5v-.43Z" fill="#ebcc70"/>
        <path id="Trazado_190159" data-name="Trazado 190159" d="M220.56,318.35a3.28,3.28,0,0,1-.77-1.85v.43a3.28,3.28,0,0,0,.77,1.85Z" fill="#ebcc70"/>
        <path id="Trazado_190160" data-name="Trazado 190160" d="M221.58,320.29a1.84,1.84,0,0,0-.27-.87v.43a1.84,1.84,0,0,1,.27.87Z" fill="#ebcc70"/>
        <path id="Trazado_190161" data-name="Trazado 190161" d="M221.31,319.42l-4.03,2.35v.43l4.03-2.35Z" fill="#ebcc70"/>
        <path id="Trazado_190162" data-name="Trazado 190162" d="M214.37,322.29h.07v-.43h-.07a5.75,5.75,0,0,1-2.34-2.2v.43a5.69,5.69,0,0,0,2.34,2.2Z" fill="#ebcc70"/>
        <path id="Trazado_190163" data-name="Trazado 190163" d="M222.44,322.3a7.85,7.85,0,0,1-6.55.28l-1.84,1.07-1.35-.74v.43l1.34.74,1.85-1.08a7.85,7.85,0,0,0,6.55-.27c1-.56,1.41-1.17,1.41-1.86v-.43C223.85,321.14,223.41,321.74,222.44,322.3Z" fill="#ebcc70"/>
      </g>
      <path id="Trazado_190164" data-name="Trazado 190164" d="M228.6,315.19l1.74-1-1.27-.78-1.87,1.09a7.35,7.35,0,0,0-6.12.22c-1.65,1-1.59,2.19-.52,3.64l-4.78,2.77a4.75,4.75,0,0,1-2-2l-1.79.56a5.75,5.75,0,0,0,2.34,2.2h.07l-1.74,1,1.35.74,1.84-1.07a7.85,7.85,0,0,0,6.55-.28c1.79-1,1.77-2.21.55-3.85l4.28-2.49a4,4,0,0,1,1.52,1.59l1.72-.5a4.73,4.73,0,0,0-1.87-1.84Zm-7.91,6.27a4.43,4.43,0,0,1-3.41.31l4-2.35C221.81,320.33,221.62,320.92,220.69,321.46Zm1.59-4.11a1.21,1.21,0,0,1,.61-1.79,4,4,0,0,1,2.91-.26Z" fill="#ffe79e"/>
    </g>
    <g id="Grupo_93891" data-name="Grupo 93891" transform="translate(169.53 5971.966)">
      <path id="Trazado_190165" data-name="Trazado 190165" d="M234.12,321.4c-6.94,4-18.23,4-25.21,0-3.51-2-5.27-4.69-5.26-7.35v4.29c0,2.66,1.74,5.33,5.26,7.36,7,4,18.27,4,25.2,0,3.45-2,5.18-4.62,5.19-7.25v-4.29C239.29,316.77,237.56,319.4,234.12,321.4Z" fill="#eba221"/>
      <path id="Trazado_190166" data-name="Trazado 190166" d="M234,306.8c-7-4-18.27-4-25.21,0s-6.9,10.57.08,14.6,18.27,4,25.21,0S241,310.83,234,306.8Zm-1.82,13.5c-5.9,3.43-15.49,3.43-21.42,0s-6-9-.07-12.41,15.48-3.43,21.42,0,6,8.99.11,12.41Z" fill="#ffc45c"/>
      <path id="Trazado_190167" data-name="Trazado 190167" d="M231.08,308.52c-5.34-3.09-14-3.09-19.28,0s-5.28,8.08.06,11.17,14,3.08,19.28,0S236.42,311.6,231.08,308.52Z" fill="#ffc45c"/>
      <path id="Trazado_190168" data-name="Trazado 190168" d="M232.15,307.9c-5.94-3.43-15.53-3.43-21.42,0s-5.87,9,.07,12.41,15.52,3.42,21.42,0S238.08,311.32,232.15,307.9Zm-1,11.78c-5.3,3.09-13.94,3.09-19.28,0s-5.37-8.09-.06-11.17,13.94-3.09,19.28,0,5.36,8.09.05,11.17Z" fill="#eba72f"/>
    </g>
    <g id="Grupo_93893" data-name="Grupo 93893" transform="translate(169.53 5971.966)">
      <g id="Grupo_93892" data-name="Grupo 93892">
        <path id="Trazado_190169" data-name="Trazado 190169" d="M230.34,308.93l-1.74,1v.43l1.74-1.01Z" fill="#ebcc70"/>
        <path id="Trazado_190170" data-name="Trazado 190170" d="M222.89,310.73a4,4,0,0,1,2.91-.26v-.42a4,4,0,0,0-2.91.26c-.55.32-.8.66-.8,1.08v.43C222.09,311.4,222.34,311.06,222.89,310.73Z" fill="#ebcc70"/>
        <path id="Trazado_190171" data-name="Trazado 190171" d="M228.79,312.3a4,4,0,0,0-1.52-1.59L223,313.2v.43l4.28-2.49a4.07,4.07,0,0,1,1.52,1.59l1.72-.5v-.43Z" fill="#ebcc70"/>
        <path id="Trazado_190172" data-name="Trazado 190172" d="M220.56,313.09a3.25,3.25,0,0,1-.77-1.85v.43a3.25,3.25,0,0,0,.77,1.85Z" fill="#ebcc70"/>
        <path id="Trazado_190173" data-name="Trazado 190173" d="M221.58,315a1.78,1.78,0,0,0-.27-.86v.43a1.78,1.78,0,0,1,.27.86Z" fill="#ebcc70"/>
        <path id="Trazado_190174" data-name="Trazado 190174" d="M221.31,314.17l-4.03,2.34v.43l4.03-2.34Z" fill="#ebcc70"/>
        <path id="Trazado_190175" data-name="Trazado 190175" d="M214.37,317h.07v-.42h-.07a5.81,5.81,0,0,1-2.34-2.19v.42a5.69,5.69,0,0,0,2.34,2.19Z" fill="#ebcc70"/>
        <path id="Trazado_190176" data-name="Trazado 190176" d="M222.44,317.05a7.85,7.85,0,0,1-6.55.27l-1.84,1.07-1.35-.73v.43l1.34.73,1.85-1.07a7.81,7.81,0,0,0,6.55-.28c1-.56,1.41-1.16,1.41-1.86v-.43C223.85,315.88,223.41,316.48,222.44,317.05Z" fill="#ebcc70"/>
      </g>
      <path id="Trazado_190177" data-name="Trazado 190177" d="M228.6,309.93l1.74-1-1.27-.77-1.87,1.08a7.39,7.39,0,0,0-6.12.22c-1.65,1-1.59,2.19-.52,3.64l-4.78,2.78a4.76,4.76,0,0,1-2-2l-1.79.57a5.81,5.81,0,0,0,2.34,2.19h.07l-1.74,1,1.35.73,1.84-1.07a7.85,7.85,0,0,0,6.55-.27c1.79-1,1.77-2.21.55-3.85l4.28-2.49a4,4,0,0,1,1.52,1.59l1.72-.5A4.74,4.74,0,0,0,228.6,309.93Zm-7.91,6.27a4.43,4.43,0,0,1-3.41.31l4-2.34c.53.9.34,1.5-.59,2.03Zm1.59-4.11a1.2,1.2,0,0,1,.61-1.78,4,4,0,0,1,2.91-.26Z" fill="#ffe79e"/>
    </g>
    <g id="Grupo_93895" data-name="Grupo 93895" transform="translate(169.53 5971.966)">
      <path id="Trazado_190178" data-name="Trazado 190178" d="M234.12,316.14c-6.94,4-18.23,4-25.21,0-3.51-2-5.27-4.7-5.26-7.36v4.3c0,2.66,1.74,5.32,5.26,7.35,7,4,18.27,4,25.2,0,3.45-2,5.18-4.63,5.19-7.25v-4.3C239.29,311.52,237.56,314.14,234.12,316.14Z" fill="#eba221"/>
      <path id="Trazado_190179" data-name="Trazado 190179" d="M234,301.54c-7-4-18.27-4-25.21,0s-6.9,10.57.08,14.61,18.27,4,25.21,0S241,305.58,234,301.54Zm-1.82,13.51c-5.9,3.42-15.49,3.42-21.42,0s-6-9-.07-12.41,15.48-3.42,21.42,0,6,8.98.11,12.41Z" fill="#ffc45c"/>
      <path id="Trazado_190180" data-name="Trazado 190180" d="M231.08,303.26c-5.34-3.08-14-3.08-19.28,0s-5.28,8.09.06,11.17,14,3.08,19.28,0S236.42,306.34,231.08,303.26Z" fill="#ffc45c"/>
      <path id="Trazado_190181" data-name="Trazado 190181" d="M232.15,302.64c-5.94-3.42-15.53-3.43-21.42,0s-5.87,9,.07,12.41,15.52,3.42,21.42,0S238.08,306.07,232.15,302.64Zm-1,11.79c-5.3,3.08-13.94,3.08-19.28,0s-5.37-8.09-.06-11.17,13.94-3.08,19.28,0,5.36,8.08.05,11.17Z" fill="#eba72f"/>
    </g>
    <g id="Grupo_93897" data-name="Grupo 93897" transform="translate(169.53 5971.966)">
      <g id="Grupo_93896" data-name="Grupo 93896">
        <path id="Trazado_190182" data-name="Trazado 190182" d="M230.34,303.67l-1.74,1.01v.43l1.74-1.01Z" fill="#ebcc70"/>
        <path id="Trazado_190183" data-name="Trazado 190183" d="M222.89,305.48a4,4,0,0,1,2.91-.26v-.43a4,4,0,0,0-2.91.26c-.55.32-.8.66-.8,1.08v.43C222.09,306.14,222.34,305.8,222.89,305.48Z" fill="#ebcc70"/>
        <path id="Trazado_190184" data-name="Trazado 190184" d="M228.79,307a4,4,0,0,0-1.52-1.59L223,307.94v.43l4.28-2.49a4.07,4.07,0,0,1,1.52,1.59l1.72-.5v-.43Z" fill="#ebcc70"/>
        <path id="Trazado_190185" data-name="Trazado 190185" d="M220.56,307.84a3.3,3.3,0,0,1-.77-1.85v.43a3.3,3.3,0,0,0,.77,1.85Z" fill="#ebcc70"/>
        <path id="Trazado_190186" data-name="Trazado 190186" d="M221.58,309.78a1.84,1.84,0,0,0-.27-.87v.43a1.81,1.81,0,0,1,.27.86Z" fill="#ebcc70"/>
        <path id="Trazado_190187" data-name="Trazado 190187" d="M221.31,308.91l-4.03,2.35v.43l4.03-2.35Z" fill="#ebcc70"/>
        <path id="Trazado_190188" data-name="Trazado 190188" d="M214.37,311.78h.07v-.43h-.07a5.82,5.82,0,0,1-2.34-2.2v.43a5.75,5.75,0,0,0,2.34,2.2Z" fill="#ebcc70"/>
        <path id="Trazado_190189" data-name="Trazado 190189" d="M222.44,311.79a7.85,7.85,0,0,1-6.55.27l-1.84,1.08-1.35-.74v.43l1.34.74,1.85-1.08a7.85,7.85,0,0,0,6.55-.27c1-.56,1.41-1.17,1.41-1.86v-.43C223.85,310.62,223.41,311.23,222.44,311.79Z" fill="#ebcc70"/>
      </g>
      <path id="Trazado_190190" data-name="Trazado 190190" d="M228.6,304.68l1.74-1-1.27-.78L227.2,304a7.35,7.35,0,0,0-6.12.22c-1.65.95-1.59,2.19-.52,3.64l-4.78,2.77a4.75,4.75,0,0,1-2-2l-1.79.56a5.82,5.82,0,0,0,2.34,2.2h.07l-1.74,1,1.35.74,1.84-1.08a7.85,7.85,0,0,0,6.55-.27c1.79-1,1.77-2.21.55-3.85l4.28-2.49a4,4,0,0,1,1.52,1.59l1.72-.5A4.73,4.73,0,0,0,228.6,304.68ZM220.69,311a4.47,4.47,0,0,1-3.41.31l4-2.35C221.81,309.81,221.62,310.41,220.69,311Zm1.59-4.11a1.2,1.2,0,0,1,.61-1.79,4,4,0,0,1,2.91-.26Z" fill="#ffe79e"/>
    </g>
    <g id="Grupo_93899" data-name="Grupo 93899" transform="translate(169.53 5971.966)">
      <path id="Trazado_190191" data-name="Trazado 190191" d="M234.12,310.89c-6.94,4-18.23,4-25.21,0-3.51-2-5.27-4.69-5.26-7.35v4.29c0,2.66,1.74,5.32,5.26,7.35,7,4,18.27,4,25.2,0,3.45-2,5.18-4.62,5.19-7.25v-4.29C239.29,306.26,237.56,308.89,234.12,310.89Z" fill="#eba221"/>
      <path id="Trazado_190192" data-name="Trazado 190192" d="M234,296.29c-7-4-18.27-4-25.21,0s-6.9,10.57.08,14.6,18.27,4,25.21,0S241,300.32,234,296.29Zm-1.82,13.5c-5.9,3.43-15.49,3.43-21.42,0s-6-9-.07-12.41,15.48-3.42,21.42,0,6,8.99.11,12.41Z" fill="#ffc45c"/>
      <path id="Trazado_190193" data-name="Trazado 190193" d="M231.08,298c-5.34-3.08-14-3.08-19.28,0s-5.28,8.09.06,11.17,14,3.09,19.28,0S236.42,301.09,231.08,298Z" fill="#ffc45c"/>
      <path id="Trazado_190194" data-name="Trazado 190194" d="M232.15,297.39c-5.94-3.43-15.53-3.43-21.42,0s-5.87,9,.07,12.41,15.52,3.43,21.42,0S238.08,300.81,232.15,297.39Zm-1,11.78c-5.3,3.09-13.94,3.09-19.28,0s-5.37-8.08-.06-11.17,13.94-3.08,19.28,0,5.36,8.09.05,11.17Z" fill="#eba72f"/>
    </g>
    <g id="Grupo_93901" data-name="Grupo 93901" transform="translate(169.53 5971.966)">
      <g id="Grupo_93900" data-name="Grupo 93900">
        <path id="Trazado_190195" data-name="Trazado 190195" d="M230.34,298.41l-1.74,1.01v.43l1.74-1.01Z" fill="#ebcc70"/>
        <path id="Trazado_190196" data-name="Trazado 190196" d="M222.89,300.22a4,4,0,0,1,2.91-.26v-.43a4,4,0,0,0-2.91.26c-.55.32-.8.67-.8,1.08v.43C222.09,300.89,222.34,300.54,222.89,300.22Z" fill="#ebcc70"/>
        <path id="Trazado_190197" data-name="Trazado 190197" d="M228.79,301.79a3.93,3.93,0,0,0-1.52-1.59L223,302.68v.43l4.28-2.49a4.08,4.08,0,0,1,1.52,1.6l1.72-.5v-.43Z" fill="#ebcc70"/>
        <path id="Trazado_190198" data-name="Trazado 190198" d="M220.56,302.58a3.25,3.25,0,0,1-.77-1.85v.43a3.25,3.25,0,0,0,.77,1.85Z" fill="#ebcc70"/>
        <path id="Trazado_190199" data-name="Trazado 190199" d="M221.58,304.52a1.78,1.78,0,0,0-.27-.86v.43a1.78,1.78,0,0,1,.27.86Z" fill="#ebcc70"/>
        <path id="Trazado_190200" data-name="Trazado 190200" d="M221.31,303.66,217.28,306v.43l4.03-2.34Z" fill="#ebcc70"/>
        <path id="Trazado_190201" data-name="Trazado 190201" d="M214.37,306.52h.07v-.43h-.07a5.75,5.75,0,0,1-2.34-2.2v.43a5.69,5.69,0,0,0,2.34,2.2Z" fill="#ebcc70"/>
        <path id="Trazado_190202" data-name="Trazado 190202" d="M222.44,306.53a7.81,7.81,0,0,1-6.55.28l-1.84,1.07-1.35-.73v.43l1.34.73,1.85-1.07a7.85,7.85,0,0,0,6.55-.28c1-.56,1.41-1.16,1.41-1.86v-.43C223.85,305.37,223.41,306,222.44,306.53Z" fill="#ebcc70"/>
      </g>
      <path id="Trazado_190203" data-name="Trazado 190203" d="M228.6,299.42l1.74-1-1.27-.77-1.87,1.08a7.35,7.35,0,0,0-6.12.22c-1.65,1-1.59,2.19-.52,3.64l-4.78,2.78a4.82,4.82,0,0,1-2-2l-1.79.56a5.75,5.75,0,0,0,2.34,2.2h.07l-1.74,1,1.35.73,1.84-1.07a7.81,7.81,0,0,0,6.55-.28c1.79-1,1.77-2.21.55-3.85l4.28-2.48a3.93,3.93,0,0,1,1.52,1.59l1.72-.5A4.74,4.74,0,0,0,228.6,299.42Zm-7.91,6.27a4.43,4.43,0,0,1-3.41.31l4-2.34C221.81,304.56,221.62,305.15,220.69,305.69Zm1.59-4.11a1.21,1.21,0,0,1,.61-1.79,4,4,0,0,1,2.91-.26Z" fill="#ffe79e"/>
    </g>
    <g id="Grupo_93903" data-name="Grupo 93903" transform="translate(169.53 5971.966)">
      <path id="Trazado_190204" data-name="Trazado 190204" d="M234.12,305.63c-6.94,4-18.23,4-25.21,0-3.51-2-5.27-4.69-5.26-7.35v4.3c0,2.66,1.74,5.32,5.26,7.35,7,4,18.27,4,25.2,0,3.45-2,5.18-4.63,5.19-7.26v-4.29C239.29,301,237.56,303.63,234.12,305.63Z" fill="#eba221"/>
      <path id="Trazado_190205" data-name="Trazado 190205" d="M234,291c-7-4-18.27-4-25.21,0s-6.9,10.57.08,14.6,18.27,4,25.21,0S241,295.06,234,291Zm-1.82,13.51c-5.9,3.42-15.49,3.42-21.42,0s-6-9-.07-12.41,15.48-3.43,21.42,0,6,9.01.11,12.44Z" fill="#ffc45c"/>
      <path id="Trazado_190206" data-name="Trazado 190206" d="M231.08,292.75c-5.34-3.09-14-3.09-19.28,0s-5.28,8.08.06,11.17,14,3.08,19.28,0S236.42,295.83,231.08,292.75Z" fill="#ffc45c"/>
      <path id="Trazado_190207" data-name="Trazado 190207" d="M232.15,292.13c-5.94-3.43-15.53-3.43-21.42,0s-5.87,9,.07,12.41,15.52,3.42,21.42,0S238.08,295.56,232.15,292.13Zm-1,11.79c-5.3,3.08-13.94,3.08-19.28,0s-5.37-8.09-.06-11.17,13.94-3.09,19.28,0,5.36,8.08.05,11.17Z" fill="#eba72f"/>
    </g>
    <g id="Grupo_93905" data-name="Grupo 93905" transform="translate(169.53 5971.966)">
      <g id="Grupo_93904" data-name="Grupo 93904">
        <path id="Trazado_190208" data-name="Trazado 190208" d="M230.34,293.16l-1.74,1.01v.43l1.74-1.01Z" fill="#ebcc70"/>
        <path id="Trazado_190209" data-name="Trazado 190209" d="M222.89,295a4,4,0,0,1,2.91-.26v-.43a4,4,0,0,0-2.91.26c-.55.32-.8.66-.8,1.08v.43A1.21,1.21,0,0,1,222.89,295Z" fill="#ebcc70"/>
        <path id="Trazado_190210" data-name="Trazado 190210" d="M228.79,296.53a4,4,0,0,0-1.52-1.59L223,297.43v.43l4.28-2.49a4.07,4.07,0,0,1,1.52,1.59l1.72-.5V296Z" fill="#ebcc70"/>
        <path id="Trazado_190211" data-name="Trazado 190211" d="M220.56,297.33a3.3,3.3,0,0,1-.77-1.86v.43a3.25,3.25,0,0,0,.77,1.85Z" fill="#ebcc70"/>
        <path id="Trazado_190212" data-name="Trazado 190212" d="M221.58,299.26a1.81,1.81,0,0,0-.27-.86v.43a1.81,1.81,0,0,1,.27.86Z" fill="#ebcc70"/>
        <path id="Trazado_190213" data-name="Trazado 190213" d="M221.31,298.4l-4.03,2.35v.43l4.03-2.35Z" fill="#ebcc70"/>
        <path id="Trazado_190214" data-name="Trazado 190214" d="M214.37,301.27h.07v-.43h-.07a5.82,5.82,0,0,1-2.34-2.2v.43a5.75,5.75,0,0,0,2.34,2.2Z" fill="#ebcc70"/>
        <path id="Trazado_190215" data-name="Trazado 190215" d="M222.44,301.28a7.85,7.85,0,0,1-6.55.27l-1.84,1.08-1.35-.74v.43l1.34.73,1.85-1.07a7.85,7.85,0,0,0,6.55-.27c1-.57,1.41-1.17,1.41-1.86v-.43C223.85,300.11,223.41,300.71,222.44,301.28Z" fill="#ebcc70"/>
      </g>
      <path id="Trazado_190216" data-name="Trazado 190216" d="M228.6,294.17l1.74-1-1.27-.78-1.87,1.09a7.35,7.35,0,0,0-6.12.21c-1.65,1-1.59,2.2-.52,3.65l-4.78,2.77a4.75,4.75,0,0,1-2-2l-1.79.56a5.82,5.82,0,0,0,2.34,2.2h.07l-1.74,1,1.35.74,1.84-1.08a7.85,7.85,0,0,0,6.55-.27c1.79-1,1.77-2.21.55-3.85l4.28-2.49a4,4,0,0,1,1.52,1.59l1.72-.5A4.73,4.73,0,0,0,228.6,294.17Zm-7.91,6.27a4.52,4.52,0,0,1-3.41.31l4-2.35C221.81,299.3,221.62,299.9,220.69,300.44Zm1.59-4.11a1.2,1.2,0,0,1,.61-1.79,4,4,0,0,1,2.91-.26Z" fill="#ffe79e"/>
    </g>
    <g id="Grupo_93907" data-name="Grupo 93907" transform="translate(169.53 5971.966)">
      <path id="Trazado_190217" data-name="Trazado 190217" d="M256.81,338.67c-6.94,4-18.23,4-25.21,0-3.52-2-5.27-4.69-5.26-7.35v4.29c0,2.66,1.75,5.32,5.27,7.35,7,4,18.26,4,25.2,0,3.45-2,5.18-4.62,5.18-7.25v-4.29C262,334,260.25,336.66,256.81,338.67Z" fill="#eba221"/>
      <path id="Trazado_190218" data-name="Trazado 190218" d="M256.73,324.07c-7-4-18.28-4-25.21,0s-6.91,10.57.08,14.6,18.27,4,25.21,0S263.71,328.1,256.73,324.07Zm-1.82,13.5c-5.9,3.43-15.49,3.43-21.42,0s-6-9-.07-12.41,15.48-3.42,21.42,0S260.8,334.14,254.91,337.57Z" fill="#ffc45c"/>
      <path id="Trazado_190219" data-name="Trazado 190219" d="M253.77,325.78c-5.34-3.08-14-3.08-19.28,0s-5.28,8.09.06,11.17,14,3.09,19.28,0S259.11,328.87,253.77,325.78Z" fill="#ffc45c"/>
      <path id="Trazado_190220" data-name="Trazado 190220" d="M254.84,325.17c-5.94-3.43-15.53-3.43-21.42,0s-5.87,9,.07,12.41,15.52,3.43,21.42,0S260.77,328.59,254.84,325.17Zm-1,11.78c-5.31,3.09-13.94,3.09-19.28,0s-5.37-8.08-.06-11.17,13.94-3.08,19.28,0,5.36,8.09.05,11.22Z" fill="#eba72f"/>
    </g>
    <g id="Grupo_93909" data-name="Grupo 93909" transform="translate(169.53 5971.966)">
      <g id="Grupo_93908" data-name="Grupo 93908">
        <path id="Trazado_190221" data-name="Trazado 190221" d="M253.03,326.19l-1.74,1.01v.43l1.74-1.01Z" fill="#ebcc70"/>
        <path id="Trazado_190222" data-name="Trazado 190222" d="M245.58,328a3.94,3.94,0,0,1,2.91-.26v-.43a4,4,0,0,0-2.91.26c-.55.32-.8.67-.8,1.08v.43C244.78,328.67,245,328.32,245.58,328Z" fill="#ebcc70"/>
        <path id="Trazado_190223" data-name="Trazado 190223" d="M251.48,329.57A4,4,0,0,0,250,328l-4.28,2.49v.43L250,328.4a3.89,3.89,0,0,1,1.51,1.6l1.73-.51v-.42Z" fill="#ebcc70"/>
        <path id="Trazado_190224" data-name="Trazado 190224" d="M243.25,330.36a3.25,3.25,0,0,1-.77-1.85v.43a3.3,3.3,0,0,0,.76,1.85Z" fill="#ebcc70"/>
        <path id="Trazado_190225" data-name="Trazado 190225" d="M244.27,332.3a1.78,1.78,0,0,0-.27-.86v.43a1.78,1.78,0,0,1,.27.86Z" fill="#ebcc70"/>
        <path id="Trazado_190226" data-name="Trazado 190226" d="M244,331.44l-4.03,2.34v.43l4.03-2.34Z" fill="#ebcc70"/>
        <path id="Trazado_190227" data-name="Trazado 190227" d="M237.06,334.3h.07v-.43h-.07a5.69,5.69,0,0,1-2.34-2.2v.43a5.69,5.69,0,0,0,2.34,2.2Z" fill="#ebcc70"/>
        <path id="Trazado_190228" data-name="Trazado 190228" d="M245.13,334.31a7.85,7.85,0,0,1-6.55.28l-1.85,1.07-1.34-.73v.43l1.34.73,1.85-1.07a7.85,7.85,0,0,0,6.55-.28c1-.56,1.41-1.16,1.41-1.86v-.43C246.54,333.15,246.1,333.75,245.13,334.31Z" fill="#ebcc70"/>
      </g>
      <path id="Trazado_190229" data-name="Trazado 190229" d="M251.29,327.2l1.74-1-1.28-.77-1.86,1.08a7.35,7.35,0,0,0-6.12.22c-1.65,1-1.59,2.19-.52,3.64l-4.78,2.78a4.82,4.82,0,0,1-2-2l-1.79.56a5.69,5.69,0,0,0,2.34,2.2h.07l-1.74,1,1.34.73,1.85-1.07a7.85,7.85,0,0,0,6.55-.28c1.79-1,1.77-2.21.55-3.85L250,328a4,4,0,0,1,1.52,1.6l1.72-.5a4.67,4.67,0,0,0-1.95-1.9Zm-7.91,6.27a4.43,4.43,0,0,1-3.41.31l4-2.34c.53.9.34,1.49-.59,2.03Zm1.59-4.11c-.37-.77-.22-1.3.61-1.79a4,4,0,0,1,2.91-.26Z" fill="#ffe79e"/>
    </g>
    <g id="Grupo_93911" data-name="Grupo 93911" transform="translate(169.53 5971.966)">
      <path id="Trazado_190230" data-name="Trazado 190230" d="M259.19,332.78c-6.94,4-18.22,4-25.21,0-3.51-2-5.27-4.7-5.26-7.36v4.3c0,2.66,1.75,5.32,5.26,7.35,7,4,18.27,4,25.21,0,3.45-2,5.17-4.63,5.18-7.25v-4.3C264.36,328.16,262.64,330.78,259.19,332.78Z" fill="#eba221"/>
      <path id="Trazado_190231" data-name="Trazado 190231" d="M259.11,318.18c-7-4-18.27-4-25.21,0s-6.9,10.57.08,14.61,18.27,4,25.21,0S266.09,322.22,259.11,318.18Zm-1.82,13.51c-5.9,3.42-15.49,3.42-21.42,0s-6-9-.07-12.41,15.49-3.42,21.42,0,5.97,8.98.07,12.41Z" fill="#ffc45c"/>
      <path id="Trazado_190232" data-name="Trazado 190232" d="M256.16,319.9c-5.35-3.08-14-3.08-19.29,0s-5.28,8.09.07,11.17,14,3.08,19.28,0S261.5,323,256.16,319.9Z" fill="#ffc45c"/>
      <path id="Trazado_190233" data-name="Trazado 190233" d="M257.22,319.28c-5.93-3.42-15.52-3.43-21.42,0s-5.86,9,.07,12.41,15.52,3.42,21.42,0S263.15,322.71,257.22,319.28Zm-1,11.79c-5.31,3.08-13.94,3.08-19.28,0s-5.38-8.09-.07-11.17,13.94-3.08,19.29,0S261.53,328,256.22,331.07Z" fill="#eba72f"/>
    </g>
    <g id="Grupo_93913" data-name="Grupo 93913" transform="translate(169.53 5971.966)">
      <g id="Grupo_93912" data-name="Grupo 93912">
        <path id="Trazado_190234" data-name="Trazado 190234" d="M255.41,320.31l-1.74,1.01v.43l1.74-1.01Z" fill="#ebcc70"/>
        <path id="Trazado_190235" data-name="Trazado 190235" d="M248,322.12a3.91,3.91,0,0,1,2.9-.26v-.43a3.93,3.93,0,0,0-2.91.26c-.55.32-.8.66-.81,1.08v.43C247.16,322.78,247.41,322.44,248,322.12Z" fill="#ebcc70"/>
        <path id="Trazado_190236" data-name="Trazado 190236" d="M253.86,323.68a4,4,0,0,0-1.52-1.59l-4.28,2.49V325l4.28-2.49a4,4,0,0,1,1.52,1.59l1.72-.5v-.43Z" fill="#ebcc70"/>
        <path id="Trazado_190237" data-name="Trazado 190237" d="M245.63,324.48a3.21,3.21,0,0,1-.76-1.85v.43a3.3,3.3,0,0,0,.77,1.85Z" fill="#ebcc70"/>
        <path id="Trazado_190238" data-name="Trazado 190238" d="M246.65,326.42a1.93,1.93,0,0,0-.26-.87V326a1.9,1.9,0,0,1,.26.86Z" fill="#ebcc70"/>
        <path id="Trazado_190239" data-name="Trazado 190239" d="M246.39,325.55l-4.04,2.35v.43l4.04-2.35Z" fill="#ebcc70"/>
        <path id="Trazado_190240" data-name="Trazado 190240" d="M239.44,328.42h.08V328h-.07a5.73,5.73,0,0,1-2.35-2.2v.43A5.82,5.82,0,0,0,239.44,328.42Z" fill="#ebcc70"/>
        <path id="Trazado_190241" data-name="Trazado 190241" d="M247.52,328.43a7.86,7.86,0,0,1-6.55.27l-1.85,1.08-1.35-.74v.43l1.35.74,1.84-1.08a7.88,7.88,0,0,0,6.56-.27c1-.56,1.4-1.17,1.4-1.86v-.43C248.92,327.26,248.49,327.87,247.52,328.43Z" fill="#ebcc70"/>
      </g>
      <path id="Trazado_190242" data-name="Trazado 190242" d="M253.67,321.32l1.74-1-1.27-.78-1.87,1.09a7.35,7.35,0,0,0-6.12.22c-1.65,1-1.59,2.19-.52,3.64l-4.78,2.77a4.75,4.75,0,0,1-2-2l-1.79.56a5.73,5.73,0,0,0,2.35,2.2h.07l-1.75,1,1.35.74L241,328.7a7.86,7.86,0,0,0,6.55-.27c1.78-1,1.76-2.21.54-3.85l4.28-2.49a4,4,0,0,1,1.52,1.59l1.72-.5a4.66,4.66,0,0,0-1.94-1.86Zm-7.9,6.27a4.46,4.46,0,0,1-3.42.31l4-2.35a1.31,1.31,0,0,1-.58,2.04Zm1.58-4.11a1.2,1.2,0,0,1,.62-1.79,3.93,3.93,0,0,1,2.91-.26Z" fill="#ffe79e"/>
    </g>
    <g id="Grupo_93915" data-name="Grupo 93915" transform="translate(169.53 5971.966)">
      <path id="Trazado_190243" data-name="Trazado 190243" d="M220.71,352c-6.94,4-18.22,4-25.2,0-3.52-2-5.27-4.7-5.27-7.36v4.3c0,2.66,1.75,5.32,5.26,7.35,7,4,18.27,4,25.21,0,3.45-2,5.18-4.63,5.18-7.25v-4.3C225.89,347.36,224.16,350,220.71,352Z" fill="#eba221"/>
      <path id="Trazado_190244" data-name="Trazado 190244" d="M220.63,337.38c-7-4-18.27-4-25.21,0s-6.9,10.57.09,14.61,18.26,4,25.2,0S227.62,341.41,220.63,337.38Zm-1.82,13.51c-5.89,3.42-15.48,3.42-21.42,0s-6-9-.07-12.41,15.49-3.42,21.42,0S224.71,347.46,218.81,350.89Z" fill="#ffc45c"/>
      <path id="Trazado_190245" data-name="Trazado 190245" d="M217.68,339.1c-5.34-3.09-14-3.09-19.28,0s-5.28,8.08.06,11.17,14,3.08,19.28,0S223,342.18,217.68,339.1Z" fill="#ffc45c"/>
      <path id="Trazado_190246" data-name="Trazado 190246" d="M218.74,338.48c-5.93-3.42-15.52-3.43-21.42,0s-5.86,9,.07,12.41,15.53,3.42,21.42,0S224.68,341.91,218.74,338.48Zm-1,11.79c-5.31,3.08-13.94,3.08-19.28,0s-5.37-8.09-.06-11.17,13.94-3.09,19.28,0,5.37,8.08.06,11.17Z" fill="#eba72f"/>
    </g>
    <g id="Grupo_93917" data-name="Grupo 93917" transform="translate(169.53 5971.966)">
      <g id="Grupo_93916" data-name="Grupo 93916">
        <path id="Trazado_190247" data-name="Trazado 190247" d="M216.93,339.51l-1.73,1.01v.43l1.73-1.01Z" fill="#ebcc70"/>
        <path id="Trazado_190248" data-name="Trazado 190248" d="M209.49,341.32a3.93,3.93,0,0,1,2.91-.26v-.43a3.94,3.94,0,0,0-2.91.26c-.55.32-.8.66-.8,1.08v.43C208.69,342,208.94,341.64,209.49,341.32Z" fill="#ebcc70"/>
        <path id="Trazado_190249" data-name="Trazado 190249" d="M215.38,342.88a4,4,0,0,0-1.51-1.59l-4.29,2.49v.43l4.29-2.49a4,4,0,0,1,1.51,1.59l1.72-.5v-.43Z" fill="#ebcc70"/>
        <path id="Trazado_190250" data-name="Trazado 190250" d="M207.15,343.68a3.35,3.35,0,0,1-.76-1.85v.42a3.28,3.28,0,0,0,.76,1.86Z" fill="#ebcc70"/>
        <path id="Trazado_190251" data-name="Trazado 190251" d="M208.18,345.61a1.81,1.81,0,0,0-.27-.86v.43a1.81,1.81,0,0,1,.27.86Z" fill="#ebcc70"/>
        <path id="Trazado_190252" data-name="Trazado 190252" d="M207.91,344.75l-4.03,2.35-.01.43,4.04-2.35Z" fill="#ebcc70"/>
        <path id="Trazado_190253" data-name="Trazado 190253" d="M201,347.62h.07v-.43H201a5.75,5.75,0,0,1-2.34-2.2v.43a5.68,5.68,0,0,0,2.34,2.2Z" fill="#ebcc70"/>
        <path id="Trazado_190254" data-name="Trazado 190254" d="M209,347.63a7.86,7.86,0,0,1-6.55.27l-1.81,1.1-1.34-.74v.43l1.34.74,1.85-1.08a7.86,7.86,0,0,0,6.55-.27c1-.57,1.41-1.17,1.41-1.86v-.43C210.45,346.46,210,347.07,209,347.63Z" fill="#ebcc70"/>
      </g>
      <path id="Trazado_190255" data-name="Trazado 190255" d="M215.2,340.52l1.73-1-1.27-.78-1.86,1.09a7.39,7.39,0,0,0-6.12.21c-1.65,1-1.59,2.2-.53,3.65l-4.77,2.77a4.75,4.75,0,0,1-2-2l-1.79.56a5.75,5.75,0,0,0,2.34,2.2H201l-1.74,1,1.34.74,1.85-1.08a7.86,7.86,0,0,0,6.55-.27c1.79-1,1.76-2.21.54-3.85l4.29-2.49a4,4,0,0,1,1.51,1.59l1.72-.5a4.69,4.69,0,0,0-1.86-1.84Zm-7.91,6.27a4.52,4.52,0,0,1-3.41.31l4-2.35c.53.9.34,1.5-.59,2.04Zm1.58-4.11a1.21,1.21,0,0,1,.62-1.79,3.94,3.94,0,0,1,2.91-.26Z" fill="#ffe79e"/>
    </g>
    <g id="Grupo_93919" data-name="Grupo 93919" transform="translate(169.53 5971.966)">
      <path id="Trazado_190256" data-name="Trazado 190256" d="M257.94,347c-7.1-3.73-13.1-13.29-13.4-21.35-.15-4.05,1.17-7,3.43-8.36l-3.65,2.27c-2.25,1.41-3.58,4.31-3.42,8.36.29,8.06,6.3,17.62,13.4,21.35,3.53,1.85,6.67,1.92,8.9.53l3.64-2.27C264.61,348.89,261.47,348.82,257.94,347Z" fill="#eba221"/>
      <path id="Trazado_190257" data-name="Trazado 190257" d="M270.27,339.14c-.3-8.06-6.3-17.62-13.41-21.35s-12.62-.23-12.32,7.83,6.3,17.62,13.4,21.35S270.57,347.2,270.27,339.14Zm-12.41,5.64c-6-3.18-11.14-11.3-11.39-18.14s4.44-9.83,10.47-6.66,11.14,11.29,11.39,18.14-4.43,9.88-10.47,6.66Z" fill="#ffc45c"/>
      <path id="Trazado_190258" data-name="Trazado 190258" d="M267.24,337.55c-.23-6.17-4.82-13.48-10.25-16.33s-9.66-.18-9.43,6,4.82,13.47,10.26,16.33S267.47,343.71,267.24,337.55Z" fill="#ffc45c"/>
      <path id="Trazado_190259" data-name="Trazado 190259" d="M268.33,338.12c-.25-6.85-5.35-15-11.39-18.14s-10.72-.19-10.47,6.66,5.35,15,11.39,18.14S268.58,345,268.33,338.12Zm-10.51,5.42c-5.44-2.86-10-10.17-10.26-16.33s4-8.85,9.43-6,10,10.16,10.25,16.33-3.99,8.85-9.42,6Z" fill="#eba72f"/>
    </g>
    <g id="Grupo_93921" data-name="Grupo 93921" transform="translate(169.53 5971.966)">
      <g id="Grupo_93920" data-name="Grupo 93920">
        <path id="Trazado_190260" data-name="Trazado 190260" d="M266.5,337.13l-1.78-.93-.36.23,1.77.93Z" fill="#ebcc70"/>
        <path id="Trazado_190261" data-name="Trazado 190261" d="M261,331.79a3.9,3.9,0,0,1,1.76,2.33l.37-.23a4,4,0,0,0-1.77-2.33,1.29,1.29,0,0,0-1.34-.1l-.37.23A1.27,1.27,0,0,1,261,331.79Z" fill="#ebcc70"/>
        <path id="Trazado_190262" data-name="Trazado 190262" d="M262.82,337.62a4.09,4.09,0,0,0,.54-2.14l-4.39-2.3-.36.23,4.38,2.3a3.89,3.89,0,0,1-.54,2.13l1.34,1.19.37-.22Z" fill="#ebcc70"/>
        <path id="Trazado_190263" data-name="Trazado 190263" d="M257.77,331.07a3.23,3.23,0,0,1,1.16-1.63l-.37.22a3.33,3.33,0,0,0-1.16,1.63Z" fill="#ebcc70"/>
        <path id="Trazado_190264" data-name="Trazado 190264" d="M256.67,333a1.76,1.76,0,0,0,.59-.68l-.36.23a1.84,1.84,0,0,1-.59.68Z" fill="#ebcc70"/>
        <path id="Trazado_190265" data-name="Trazado 190265" d="M257.26,332.28l-4.13-2.17-.37.23,4.14,2.17Z" fill="#ebcc70"/>
        <path id="Trazado_190266" data-name="Trazado 190266" d="M251.14,327.92V328l.37-.23v-.08a5.83,5.83,0,0,1,.61-3.16l-.36.23a5.71,5.71,0,0,0-.62,3.16Z" fill="#ebcc70"/>
        <path id="Trazado_190267" data-name="Trazado 190267" d="M255.42,334.77a7.86,7.86,0,0,1-3.71-5.41l-1.89-1-.1-1.53-.36.23.09,1.53,1.89,1a7.82,7.82,0,0,0,3.72,5.4,2.27,2.27,0,0,0,2.32.21l.37-.23a2.26,2.26,0,0,1-2.33-.2Z" fill="#ebcc70"/>
      </g>
      <path id="Trazado_190268" data-name="Trazado 190268" d="M264.72,336.2l1.78.93v-1.49l-1.91-1a7.38,7.38,0,0,0-3.44-5.07c-1.69-.88-2.7-.18-3.36,1.5l-4.89-2.57a4.8,4.8,0,0,1,.67-2.74l-1.43-1.22a5.83,5.83,0,0,0-.61,3.16v.08l-1.79-.94.1,1.53,1.89,1a7.86,7.86,0,0,0,3.71,5.41c1.83,1,2.81.32,3.55-1.59l4.39,2.3a4.09,4.09,0,0,1-.54,2.14l1.34,1.19A4.74,4.74,0,0,0,264.72,336.2Zm-9.52-3.36a4.5,4.5,0,0,1-2.07-2.73l4.13,2.17c-.5.9-1.1,1.06-2.06.56Zm4.33-.85a1.2,1.2,0,0,1,1.84-.43,4,4,0,0,1,1.77,2.33Z" fill="#ffe79e"/>
    </g>
    <path id="Trazado_190269" data-name="Trazado 190269" d="M420.68,623.52c-8.85,5.14-12.81,12-11.91,18.75l12-1.26c-.27-4.52,2.56-9.08,8.49-12.52,9.35-5.44,23.52-6.42,34.64-2.93l5.46-6.27C453.7,614.47,433.83,615.87,420.68,623.52Z" transform="translate(169.53 5971.966)" fill="#e8b667"/>
    <path id="Trazado_190270" data-name="Trazado 190270" d="M479.24,623.52l-.45-.26a48.709,48.709,0,0,0-9.41-4h0a22.331,22.331,0,0,0-5.6-.78l.16,7a34.473,34.473,0,0,1,5.33,2.14,16.32,16.32,0,0,1,1.44.79c4.51,2.6,7.26,5.84,8.24,9.21L491,637C489.72,632,485.8,627.3,479.24,623.52Z" transform="translate(169.53 5971.966)" fill="#95bbf0"/>
    <g id="Grupo_93923" data-name="Grupo 93923" transform="translate(169.53 5971.966)">
      <path id="Trazado_190271" data-name="Trazado 190271" d="M420.79,641l-7.66.8-4.53-6.56.17,7c.73,5.52,4.78,10.94,12.1,15.17l8.55-5C423.91,649.29,421,645.17,420.79,641Z" fill="#bf3547"/>
      <path id="Trazado_190272" data-name="Trazado 190272" d="M491,637l-12.08.74c1.52,5.21-1.18,10.75-8.1,14.77a32.589,32.589,0,0,1-6.64,2.89l4.49,6.58a47.521,47.521,0,0,0,10.75-4.5C489,651.86,492.89,644.21,491,637Z" fill="#bf3547"/>
    </g>
    <path id="Trazado_190273" data-name="Trazado 190273" d="M468.52,654.93l-47.81-4.5.16,7c13,7.49,32.34,9,47.81,4.5Z" transform="translate(169.53 5971.966)" fill="#95bbf0"/>
    <g id="Grupo_93926" data-name="Grupo 93926" transform="translate(169.53 5971.966)">
      <g id="Grupo_93925" data-name="Grupo 93925">
        <path id="Trazado_190274" data-name="Trazado 190274" d="M420.51,616.5c-8.84,5.14-12.81,12-11.91,18.75l12-1.26c-.27-4.51,2.56-9.07,8.49-12.52,9.35-5.43,23.52-6.41,34.64-2.93l5.46-6.26C453.53,607.45,433.66,608.86,420.51,616.5Z" fill="#f3ca81"/>
        <g id="Grupo_93924" data-name="Grupo 93924">
          <path id="Trazado_190275" data-name="Trazado 190275" d="M420.63,634l-12,1.26c.74,5.53,4.78,11,12.11,15.18l8.55-5C423.75,642.28,420.87,638.16,420.63,634Z" fill="#d94559"/>
          <path id="Trazado_190276" data-name="Trazado 190276" d="M490.85,630l-12.08.74c1.51,5.21-1.18,10.75-8.1,14.77a33.563,33.563,0,0,1-6.65,2.89l4.5,6.58a48.193,48.193,0,0,0,10.75-4.51C488.87,644.84,492.73,637.2,490.85,630Z" fill="#d94559"/>
        </g>
        <path id="Trazado_190277" data-name="Trazado 190277" d="M464,648.35c-11.09,3.53-25.32,2.56-34.76-2.89l-8.55,5c13,7.48,32.33,9,47.81,4.5Z" fill="#b3d3ff"/>
        <path id="Trazado_190278" data-name="Trazado 190278" d="M479.08,616.5l-.45-.25a48.089,48.089,0,0,0-9.41-4l-5.46,6.26a36,36,0,0,1,5.33,2.15q.74.38,1.44.78c4.51,2.6,7.26,5.84,8.24,9.22l12.08-.74C489.56,625,485.64,620.29,479.08,616.5Z" fill="#b3d3ff"/>
      </g>
    </g>
    <path id="Trazado_190279" data-name="Trazado 190279" d="M230,637.18l-33.08-19.1-5.24-3-30.39-17.54a2.33,2.33,0,0,0-2.15,0l-30.33,17.62a.71.71,0,0,0-.42.72.539.539,0,0,1,0-.1l-.06,20.37a.75.75,0,0,0,.46.63l30.38,17.54,5.24,3,33.08,19.1a2.41,2.41,0,0,0,2.16,0L229.9,658.8a.77.77,0,0,0,.44-.62l.06-20.37a.79.79,0,0,0-.4-.63ZM128.42,616.07v-.1Z" transform="translate(169.53 5971.966)" fill="#dfe4fb"/>
    <g id="Grupo_93928" data-name="Grupo 93928" transform="translate(169.53 5971.966)">
      <path id="Trazado_190280" data-name="Trazado 190280" d="M436.11,218.73l8.14-4.73,6.04-8.48-8.14,4.73Z" fill="#ebae41"/>
      <path id="Trazado_190281" data-name="Trazado 190281" d="M461,162.54l-33.13-19.13c-1.73-1-3.29-1.08-4.42-.43l-8.14,4.73c1.13-.65,2.69-.56,4.42.43l33.13,19.13A13.6,13.6,0,0,1,459,178l-.09,34.82a4.411,4.411,0,0,1-1.81,4l8.14-4.73c1.11-.64,1.8-2,1.81-4l.1-34.82A13.64,13.64,0,0,0,461,162.54Z" fill="#ebae41"/>
    </g>
    <path id="Trazado_190282" data-name="Trazado 190282" d="M452.85,167.27A13.6,13.6,0,0,1,459,178l-.09,34.82c0,3.93-2.8,5.52-6.22,3.54l-10.56-6.09-6,8.48-6-15.42-10.55-6.1a13.61,13.61,0,0,1-6.19-10.7l.1-34.82c0-3.94,2.8-5.52,6.23-3.55Z" transform="translate(169.53 5971.966)" fill="#ffc45c"/>
    <g id="Grupo_93930" data-name="Grupo 93930" transform="translate(169.53 5971.966)">
      <path id="Trazado_190283" data-name="Trazado 190283" d="M309.84,261.24l-8.15-4.73-6.04-8.48,8.14,4.73Z" fill="#d44054"/>
      <path id="Trazado_190284" data-name="Trazado 190284" d="M285,205.05l33.14-19.12c1.72-1,3.28-1.09,4.41-.44l8.14,4.74c-1.13-.66-2.69-.57-4.41.43L293.1,209.79a13.58,13.58,0,0,0-6.18,10.7l.1,34.82c0,1.95.69,3.33,1.8,4l-8.14-4.73c-1.11-.65-1.8-2-1.81-4l-.09-34.82A13.63,13.63,0,0,1,285,205.05Z" fill="#d44054"/>
    </g>
    <path id="Trazado_190285" data-name="Trazado 190285" d="M293.1,209.79a13.58,13.58,0,0,0-6.18,10.7l.1,34.82c0,3.93,2.79,5.52,6.21,3.54l10.56-6.09,6,8.48,6-15.42,10.56-6.09a13.64,13.64,0,0,0,6.2-10.73l-.1-34.82c0-3.93-2.8-5.52-6.22-3.54Z" transform="translate(169.53 5971.966)" fill="#e8586c"/>
    <g id="Grupo_93932" data-name="Grupo 93932" transform="translate(169.53 5971.966)">
      <path id="Trazado_190286" data-name="Trazado 190286" d="M173.58,231.34l-8.14-4.73-6.05-8.48,8.14,4.73Z" fill="#70a4eb"/>
      <path id="Trazado_190287" data-name="Trazado 190287" d="M148.7,175.16,181.83,156c1.72-1,3.28-1.09,4.41-.43l8.14,4.73c-1.13-.66-2.69-.57-4.41.43l-33.13,19.13a13.6,13.6,0,0,0-6.18,10.7l.1,34.82c0,2,.69,3.33,1.81,4l-8.14-4.73c-1.12-.65-1.81-2-1.81-4l-.1-34.82a13.58,13.58,0,0,1,6.18-10.67Z" fill="#70a4eb"/>
    </g>
    <path id="Trazado_190288" data-name="Trazado 190288" d="M156.84,179.89a13.6,13.6,0,0,0-6.18,10.7l.1,34.82c0,3.93,2.79,5.52,6.22,3.55l10.55-6.1,6.05,8.48,6-15.42,10.56-6.09a13.64,13.64,0,0,0,6.18-10.71l-.1-34.82c0-3.93-2.8-5.52-6.22-3.54Z" transform="translate(169.53 5971.966)" fill="#8fbeff"/>
  </g>
</svg>
