<svg xmlns="http://www.w3.org/2000/svg" width="447.5" height="228.375" viewBox="0 0 447.5 228.375">
  <g id="Grupo_94327" data-name="Grupo 94327" transform="translate(-887.5 -6908.504)">
    <path id="Trazado_190296" data-name="Trazado 190296" d="M421.49,204.63h0L403.05,190.9l-18.44,13.73h0a70.772,70.772,0,0,0-70.76-70.78h-.08l-13.68-18.4L312.8,98.32,311,97h2.85A107.67,107.67,0,0,1,421.49,204.63Z" transform="translate(778.69 6811.504)" fill="#35afea"/>
    <path id="Trazado_190297" data-name="Trazado 190297" d="M313.74,133.85a70.79,70.79,0,0,0-65.46,44l-22.21,5.66-12-19.56A107.7,107.7,0,0,1,311,97l1.79,1.34-12.71,17.13Z" transform="translate(778.69 6811.504)" fill="#36d5c4"/>
    <path id="Trazado_190298" data-name="Trazado 190298" d="M303.93,274.7H232.08a107.11,107.11,0,0,1-25.94-70v-.11A107.37,107.37,0,0,1,214.08,164l12,19.56,22.21-5.66a70.62,70.62,0,0,0-5.23,26.76v.11a70.79,70.79,0,0,0,60.87,69.93Z" transform="translate(778.69 6811.504)" fill="#32bfaf"/>
    <path id="Trazado_190299" data-name="Trazado 190299" d="M421.49,204.63A107.652,107.652,0,0,1,313.86,312.29l.01.18H224.63v-.11l13.72-18.47-13.72-18.44v-.75h79.31a71.631,71.631,0,0,0,9.89.68h0a70.64,70.64,0,0,0,70.71-70.75h0l18.44-13.73,18.42,13.73Z" transform="translate(778.69 6811.504)" fill="#039be5"/>
    <path id="Trazado_190300" data-name="Trazado 190300" d="M368.08,276.52l-20-10a70.609,70.609,0,0,1-34.23,8.85h0a70,70,0,0,1-9.89-.69H224.63v.76l13.72,18.44-13.72,18.47v.11h89.24v-.18a107.24,107.24,0,0,0,54.21-14.65Z" transform="translate(778.69 6811.504)" fill="#1565ad"/>
    <path id="Trazado_190301" data-name="Trazado 190301" d="M238.35,293.89l-13.72,18.47v.11H108.81V274.69H224.63v.76Z" transform="translate(778.69 6811.504)" fill="#104c82"/>
    <path id="Trazado_190302" data-name="Trazado 190302" d="M506.13,322.49v-7.14a2.89,2.89,0,0,0-2.89-2.88H313.87v-.18a107.42,107.42,0,0,0,81.7-37.59H503.24a2.9,2.9,0,0,0,2.89-2.89v-7.12a2.88,2.88,0,0,1,4.45-2.42L555,291.17a2.89,2.89,0,0,1,0,4.84l-44.42,28.9a2.88,2.88,0,0,1-4.45-2.42Z" transform="translate(778.69 6811.504)" fill="#027499"/>
    <path id="Trazado_192319" data-name="Trazado 192319" d="M12.524,0H9.431l-.9-2.8H4.052L3.164,0H.088L4.676-12.6H8.042ZM7.884-4.983,6.53-9.22a5.52,5.52,0,0,1-.211-1.134h-.07a4.807,4.807,0,0,1-.22,1.1L4.658-4.983ZM22.649-1.028a5.092,5.092,0,0,1-1.45,3.88A5.877,5.877,0,0,1,17,4.228a6.659,6.659,0,0,1-2.883-.519V1.371a5.521,5.521,0,0,0,2.8.809,3.02,3.02,0,0,0,2.18-.743A2.665,2.665,0,0,0,19.872-.58v-.712h-.035A3.1,3.1,0,0,1,17.033.22,3.372,3.372,0,0,1,14.3-.993a4.919,4.919,0,0,1-1.011-3.252,5.478,5.478,0,0,1,1.125-3.63A3.673,3.673,0,0,1,17.376-9.22a2.733,2.733,0,0,1,2.461,1.266h.035V-9h2.777Zm-2.742-3.3v-.712A2.188,2.188,0,0,0,19.4-6.491a1.635,1.635,0,0,0-1.314-.6,1.7,1.7,0,0,0-1.45.721,3.389,3.389,0,0,0-.527,2.03,2.86,2.86,0,0,0,.5,1.78,1.633,1.633,0,0,0,1.371.655,1.7,1.7,0,0,0,1.393-.664A2.721,2.721,0,0,0,19.907-4.324Zm6.469-6.1a1.622,1.622,0,0,1-1.151-.417,1.345,1.345,0,0,1-.448-1.024,1.3,1.3,0,0,1,.448-1.02,1.676,1.676,0,0,1,1.151-.4,1.672,1.672,0,0,1,1.156.4,1.3,1.3,0,0,1,.444,1.02,1.34,1.34,0,0,1-.444,1.037A1.65,1.65,0,0,1,26.376-10.424ZM27.747,0H24.97V-9h2.777Zm5.115,0H30.085V-13.324h2.777Z" transform="translate(1076.47 7018.754)" fill="#12263f"/>
    <path id="Trazado_192320" data-name="Trazado 192320" d="M3.129-4.764V0H1.652V-12.6H5.115a4.571,4.571,0,0,1,3.133.984A3.515,3.515,0,0,1,9.36-8.842,3.82,3.82,0,0,1,8.125-5.906,4.718,4.718,0,0,1,4.79-4.764Zm0-6.5V-6.1H4.676a3.458,3.458,0,0,0,2.333-.7,2.474,2.474,0,0,0,.8-1.973q0-2.5-2.953-2.5ZM12.981,0H11.54V-13.324h1.441Zm9.36,0H20.9V-1.406h-.035A3.018,3.018,0,0,1,18.1.211a2.959,2.959,0,0,1-2.1-.712,2.466,2.466,0,0,1-.76-1.89q0-2.522,2.971-2.936L20.9-5.7Q20.9-8,19.046-8A4.431,4.431,0,0,0,16.11-6.891V-8.367a5.577,5.577,0,0,1,3.059-.844q3.173,0,3.173,3.357ZM20.9-4.553l-2.171.3a3.525,3.525,0,0,0-1.512.5,1.432,1.432,0,0,0-.51,1.261,1.374,1.374,0,0,0,.47,1.077A1.817,1.817,0,0,0,18.431-1,2.314,2.314,0,0,0,20.2-1.753a2.685,2.685,0,0,0,.7-1.9ZM32.528,0H31.087V-5.133Q31.087-8,29-8a2.269,2.269,0,0,0-1.789.813A3.013,3.013,0,0,0,26.5-5.133V0H25.058V-9H26.5v1.494h.035a3.248,3.248,0,0,1,2.953-1.705,2.753,2.753,0,0,1,2.259.954A4.248,4.248,0,0,1,32.528-5.5Zm9.949-4.14H36.123a3.366,3.366,0,0,0,.809,2.32A2.788,2.788,0,0,0,39.059-1a4.422,4.422,0,0,0,2.795-1V-.65a5.224,5.224,0,0,1-3.138.861,3.8,3.8,0,0,1-3-1.226,5.018,5.018,0,0,1-1.09-3.45A4.921,4.921,0,0,1,35.82-7.888a3.819,3.819,0,0,1,2.958-1.323,3.384,3.384,0,0,1,2.733,1.143A4.764,4.764,0,0,1,42.478-4.9ZM41-5.361A2.933,2.933,0,0,0,40.4-7.3,2.051,2.051,0,0,0,38.751-8a2.328,2.328,0,0,0-1.731.729,3.311,3.311,0,0,0-.879,1.907ZM51.1,0H49.658V-1.406h-.035A3.018,3.018,0,0,1,46.854.211,2.959,2.959,0,0,1,44.75-.5a2.466,2.466,0,0,1-.76-1.89q0-2.522,2.971-2.936l2.7-.378Q49.658-8,47.8-8a4.431,4.431,0,0,0-2.936,1.107V-8.367a5.577,5.577,0,0,1,3.059-.844q3.173,0,3.173,3.357ZM49.658-4.553l-2.171.3a3.525,3.525,0,0,0-1.512.5,1.432,1.432,0,0,0-.51,1.261,1.374,1.374,0,0,0,.47,1.077A1.817,1.817,0,0,0,47.188-1a2.314,2.314,0,0,0,1.771-.751,2.685,2.685,0,0,0,.7-1.9ZM59.95-.413a4.684,4.684,0,0,1-2.461.624,4.074,4.074,0,0,1-3.107-1.252A4.539,4.539,0,0,1,53.2-4.289a4.99,4.99,0,0,1,1.274-3.573,4.458,4.458,0,0,1,3.4-1.349,4.735,4.735,0,0,1,2.092.439v1.477A3.665,3.665,0,0,0,57.823-8a2.9,2.9,0,0,0-2.263.989,3.752,3.752,0,0,0-.883,2.6,3.573,3.573,0,0,0,.831,2.5A2.863,2.863,0,0,0,57.735-1a3.613,3.613,0,0,0,2.215-.782Zm2.918-10.872a.913.913,0,0,1-.659-.264.89.89,0,0,1-.272-.668.9.9,0,0,1,.272-.672.905.905,0,0,1,.659-.268.931.931,0,0,1,.672.268.9.9,0,0,1,.277.672.891.891,0,0,1-.277.659A.923.923,0,0,1,62.868-11.285ZM63.571,0H62.13V-9h1.441Zm6.68.211A4.175,4.175,0,0,1,67.065-1.05a4.672,4.672,0,0,1-1.191-3.344,4.867,4.867,0,0,1,1.239-3.542,4.455,4.455,0,0,1,3.349-1.274A4.037,4.037,0,0,1,73.6-7.972a4.914,4.914,0,0,1,1.129,3.437,4.835,4.835,0,0,1-1.217,3.45A4.265,4.265,0,0,1,70.251.211ZM70.356-8a2.742,2.742,0,0,0-2.2.945,3.88,3.88,0,0,0-.809,2.606,3.67,3.67,0,0,0,.817,2.522A2.778,2.778,0,0,0,70.356-1a2.635,2.635,0,0,0,2.149-.905,3.928,3.928,0,0,0,.751-2.575,4,4,0,0,0-.751-2.6A2.623,2.623,0,0,0,70.356-8Zm14.15,8H83.065V-5.133Q83.065-8,80.974-8a2.269,2.269,0,0,0-1.789.813,3.013,3.013,0,0,0-.708,2.052V0H77.036V-9h1.441v1.494h.035a3.248,3.248,0,0,1,2.953-1.705,2.753,2.753,0,0,1,2.259.954A4.248,4.248,0,0,1,84.507-5.5Z" transform="translate(894.37 7111.884)" fill="#fff"/>
    <path id="Trazado_192321" data-name="Trazado 192321" d="M8.191,0H1.652V-12.6H3.129V-1.336H8.191Zm8.183,0H14.933V-1.406H14.9A3.018,3.018,0,0,1,12.129.211a2.959,2.959,0,0,1-2.1-.712,2.466,2.466,0,0,1-.76-1.89q0-2.522,2.971-2.936l2.7-.378Q14.933-8,13.078-8a4.431,4.431,0,0,0-2.936,1.107V-8.367A5.577,5.577,0,0,1,13.2-9.211q3.173,0,3.173,3.357ZM14.933-4.553l-2.171.3a3.525,3.525,0,0,0-1.512.5A1.432,1.432,0,0,0,10.74-2.5a1.374,1.374,0,0,0,.47,1.077A1.817,1.817,0,0,0,12.463-1a2.314,2.314,0,0,0,1.771-.751,2.685,2.685,0,0,0,.7-1.9ZM26.561,0H25.119V-5.133Q25.119-8,23.027-8a2.269,2.269,0,0,0-1.789.813,3.013,3.013,0,0,0-.708,2.052V0H19.09V-9h1.441v1.494h.035A3.248,3.248,0,0,1,23.52-9.211a2.753,2.753,0,0,1,2.259.954A4.248,4.248,0,0,1,26.561-5.5Zm8.991-8.587L30.226-1.23H35.5V0H28.107V-.448L33.434-7.77H28.608V-9h6.943ZM43.857,0H42.416V-1.406h-.035A3.018,3.018,0,0,1,39.612.211a2.959,2.959,0,0,1-2.1-.712,2.466,2.466,0,0,1-.76-1.89q0-2.522,2.971-2.936l2.7-.378Q42.416-8,40.562-8a4.431,4.431,0,0,0-2.936,1.107V-8.367a5.577,5.577,0,0,1,3.059-.844q3.173,0,3.173,3.357ZM42.416-4.553l-2.171.3a3.525,3.525,0,0,0-1.512.5,1.432,1.432,0,0,0-.51,1.261,1.374,1.374,0,0,0,.47,1.077A1.817,1.817,0,0,0,39.946-1a2.314,2.314,0,0,0,1.771-.751,2.685,2.685,0,0,0,.7-1.9ZM59.353,0H57.911V-5.168A3.9,3.9,0,0,0,57.45-7.33,1.75,1.75,0,0,0,55.9-8a1.921,1.921,0,0,0-1.569.844,3.228,3.228,0,0,0-.646,2.021V0H52.242V-5.344Q52.242-8,50.194-8a1.9,1.9,0,0,0-1.564.8,3.288,3.288,0,0,0-.615,2.07V0H46.573V-9h1.441v1.424h.035a3.058,3.058,0,0,1,2.795-1.635,2.606,2.606,0,0,1,1.608.514,2.586,2.586,0,0,1,.94,1.349,3.212,3.212,0,0,1,2.988-1.863q2.971,0,2.971,3.665Zm3.463-11.285a.913.913,0,0,1-.659-.264.89.89,0,0,1-.272-.668.9.9,0,0,1,.272-.672.905.905,0,0,1,.659-.268.931.931,0,0,1,.672.268.9.9,0,0,1,.277.672.891.891,0,0,1-.277.659A.923.923,0,0,1,62.815-11.285ZM63.519,0H62.077V-9h1.441ZM73.67-4.14H67.315a3.366,3.366,0,0,0,.809,2.32A2.788,2.788,0,0,0,70.251-1a4.422,4.422,0,0,0,2.795-1V-.65a5.224,5.224,0,0,1-3.138.861,3.8,3.8,0,0,1-3-1.226,5.018,5.018,0,0,1-1.09-3.45,4.921,4.921,0,0,1,1.191-3.423A3.819,3.819,0,0,1,69.97-9.211,3.384,3.384,0,0,1,72.7-8.068,4.764,4.764,0,0,1,73.67-4.9ZM72.193-5.361a2.933,2.933,0,0,0-.6-1.942A2.051,2.051,0,0,0,69.943-8a2.328,2.328,0,0,0-1.731.729,3.311,3.311,0,0,0-.879,1.907ZM83.32,0H81.879V-5.133Q81.879-8,79.787-8A2.269,2.269,0,0,0,78-7.185a3.013,3.013,0,0,0-.708,2.052V0H75.85V-9h1.441v1.494h.035a3.248,3.248,0,0,1,2.953-1.705,2.753,2.753,0,0,1,2.259.954A4.248,4.248,0,0,1,83.32-5.5Zm6.891-.088a2.779,2.779,0,0,1-1.345.281Q86.5.193,86.5-2.443V-7.77H84.955V-9H86.5v-2.2l1.441-.466V-9h2.268v1.23H87.943V-2.7a2.1,2.1,0,0,0,.308,1.292,1.228,1.228,0,0,0,1.02.387,1.515,1.515,0,0,0,.94-.3Zm5.507.3A4.175,4.175,0,0,1,92.531-1.05a4.672,4.672,0,0,1-1.191-3.344A4.867,4.867,0,0,1,92.58-7.937a4.455,4.455,0,0,1,3.349-1.274A4.037,4.037,0,0,1,99.07-7.972,4.914,4.914,0,0,1,100.2-4.535a4.835,4.835,0,0,1-1.217,3.45A4.265,4.265,0,0,1,95.717.211ZM95.823-8a2.742,2.742,0,0,0-2.2.945,3.88,3.88,0,0,0-.809,2.606,3.67,3.67,0,0,0,.817,2.522A2.778,2.778,0,0,0,95.823-1a2.635,2.635,0,0,0,2.149-.905,3.928,3.928,0,0,0,.751-2.575,4,4,0,0,0-.751-2.6A2.623,2.623,0,0,0,95.823-8Z" transform="translate(1184.1 7111.884)" fill="#fff"/>
    <path id="Trazado_192322" data-name="Trazado 192322" d="M1.469,0V-11.2H4.563q5.922,0,5.922,5.461A5.5,5.5,0,0,1,8.84-1.574,6.1,6.1,0,0,1,4.438,0ZM2.781-10.016v8.828H4.453a4.745,4.745,0,0,0,3.43-1.18A4.422,4.422,0,0,0,9.109-5.711q0-4.3-4.578-4.3Z" transform="translate(1070.86 7109.734) rotate(9.18)" fill="#fff"/>
    <path id="Trazado_192323" data-name="Trazado 192323" d="M1.953-10.031a.812.812,0,0,1-.586-.234.791.791,0,0,1-.242-.594.8.8,0,0,1,.242-.6.8.8,0,0,1,.586-.238.827.827,0,0,1,.6.238.8.8,0,0,1,.246.6.792.792,0,0,1-.246.586A.82.82,0,0,1,1.953-10.031ZM2.578,0H1.3V-8H2.578Z" transform="translate(1081.74 7111.354) rotate(4.53)" fill="#fff"/>
    <path id="Trazado_192324" data-name="Trazado 192324" d="M.813-.289V-1.664a3.792,3.792,0,0,0,2.3.773Q4.8-.891,4.8-2.016a.976.976,0,0,0-.145-.543,1.44,1.44,0,0,0-.391-.395,3.007,3.007,0,0,0-.578-.309q-.332-.137-.715-.285a9.207,9.207,0,0,1-.934-.426,2.82,2.82,0,0,1-.672-.484A1.8,1.8,0,0,1,.965-5.07a2.17,2.17,0,0,1-.137-.8,1.912,1.912,0,0,1,.258-1A2.286,2.286,0,0,1,1.773-7.6a3.206,3.206,0,0,1,.98-.441,4.349,4.349,0,0,1,1.137-.148,4.59,4.59,0,0,1,1.859.359v1.3a3.624,3.624,0,0,0-2.031-.578,2.374,2.374,0,0,0-.648.082,1.587,1.587,0,0,0-.5.23,1.065,1.065,0,0,0-.32.355.936.936,0,0,0-.113.457,1.1,1.1,0,0,0,.113.523,1.152,1.152,0,0,0,.332.375,2.538,2.538,0,0,0,.531.3q.312.133.711.289a9.9,9.9,0,0,1,.953.418A3.269,3.269,0,0,1,5.5-3.6a1.893,1.893,0,0,1,.457.621,2,2,0,0,1,.16.836,1.971,1.971,0,0,1-.262,1.031,2.243,2.243,0,0,1-.7.727,3.2,3.2,0,0,1-1.008.43,4.976,4.976,0,0,1-1.2.141A4.539,4.539,0,0,1,.813-.289Z" transform="translate(1086 7111.754) rotate(1)" fill="#fff"/>
    <path id="Trazado_192325" data-name="Trazado 192325" d="M7.727-3.68H2.078A2.992,2.992,0,0,0,2.8-1.617a2.478,2.478,0,0,0,1.891.727,3.931,3.931,0,0,0,2.484-.891v1.2A4.643,4.643,0,0,1,4.383.188,3.381,3.381,0,0,1,1.719-.9,4.461,4.461,0,0,1,.75-3.969,4.375,4.375,0,0,1,1.809-7.012,3.394,3.394,0,0,1,4.438-8.187a3.008,3.008,0,0,1,2.43,1.016,4.234,4.234,0,0,1,.859,2.82ZM6.414-4.766a2.607,2.607,0,0,0-.535-1.727,1.823,1.823,0,0,0-1.465-.617,2.07,2.07,0,0,0-1.539.648,2.943,2.943,0,0,0-.781,1.7Z" transform="translate(1094.95 7111.884) rotate(-4.574)" fill="#fff"/>
    <path id="Trazado_192326" data-name="Trazado 192326" d="M7.938,0H6.656V-4.562q0-2.547-1.859-2.547a2.017,2.017,0,0,0-1.59.723,2.679,2.679,0,0,0-.629,1.824V0H1.3V-8H2.578v1.328h.031A2.887,2.887,0,0,1,5.234-8.187a2.448,2.448,0,0,1,2.008.848,3.776,3.776,0,0,1,.7,2.449ZM7.094-11.391a2.235,2.235,0,0,1-.375,1.34,1.188,1.188,0,0,1-1.016.52,2.621,2.621,0,0,1-1.266-.406,2.143,2.143,0,0,0-.93-.336q-.688,0-.687.883H2.086a2.192,2.192,0,0,1,.375-1.34,1.23,1.23,0,0,1,1.047-.5,2.286,2.286,0,0,1,1.164.406,2.043,2.043,0,0,0,1,.344q.656,0,.656-.906Z" transform="translate(1104.09 7111.174) rotate(-9.81)" fill="#fff"/>
    <path id="Trazado_192327" data-name="Trazado 192327" d="M4.641.188A3.711,3.711,0,0,1,1.809-.934,4.153,4.153,0,0,1,.75-3.906a4.326,4.326,0,0,1,1.1-3.148A3.96,3.96,0,0,1,4.828-8.187a3.588,3.588,0,0,1,2.793,1.1,4.368,4.368,0,0,1,1,3.055A4.3,4.3,0,0,1,7.543-.965,3.791,3.791,0,0,1,4.641.188Zm.094-7.3a2.437,2.437,0,0,0-1.953.84,3.449,3.449,0,0,0-.719,2.316,3.262,3.262,0,0,0,.727,2.242,2.469,2.469,0,0,0,1.945.82,2.342,2.342,0,0,0,1.91-.8,3.492,3.492,0,0,0,.668-2.289A3.552,3.552,0,0,0,6.645-6.3,2.332,2.332,0,0,0,4.734-7.109Z" transform="matrix(0.963, -0.268, 0.268, 0.963, 1113.48, 7109.524)" fill="#fff"/>
    <path id="Trazado_192328" data-name="Trazado 192328" d="M1.469,0V-11.2H4.563q5.922,0,5.922,5.461A5.5,5.5,0,0,1,8.84-1.574,6.1,6.1,0,0,1,4.438,0ZM2.781-10.016v8.828H4.453a4.745,4.745,0,0,0,3.43-1.18A4.422,4.422,0,0,0,9.109-5.711q0-4.3-4.578-4.3Z" transform="translate(1162.33 7081.874) rotate(-49.461)" fill="#fff"/>
    <path id="Trazado_192329" data-name="Trazado 192329" d="M7.727-3.68H2.078A2.992,2.992,0,0,0,2.8-1.617a2.478,2.478,0,0,0,1.891.727,3.931,3.931,0,0,0,2.484-.891v1.2A4.643,4.643,0,0,1,4.383.188,3.381,3.381,0,0,1,1.719-.9,4.461,4.461,0,0,1,.75-3.969,4.375,4.375,0,0,1,1.809-7.012,3.394,3.394,0,0,1,4.438-8.187a3.008,3.008,0,0,1,2.43,1.016,4.234,4.234,0,0,1,.859,2.82ZM6.414-4.766a2.607,2.607,0,0,0-.535-1.727,1.823,1.823,0,0,0-1.465-.617,2.07,2.07,0,0,0-1.539.648,2.943,2.943,0,0,0-.781,1.7Z" transform="translate(1169.61 7073.304) rotate(-55.2)" fill="#fff"/>
    <path id="Trazado_192330" data-name="Trazado 192330" d="M.813-.289V-1.664a3.792,3.792,0,0,0,2.3.773Q4.8-.891,4.8-2.016a.976.976,0,0,0-.145-.543,1.44,1.44,0,0,0-.391-.395,3.007,3.007,0,0,0-.578-.309q-.332-.137-.715-.285a9.207,9.207,0,0,1-.934-.426,2.82,2.82,0,0,1-.672-.484A1.8,1.8,0,0,1,.965-5.07a2.17,2.17,0,0,1-.137-.8,1.912,1.912,0,0,1,.258-1A2.286,2.286,0,0,1,1.773-7.6a3.206,3.206,0,0,1,.98-.441,4.349,4.349,0,0,1,1.137-.148,4.59,4.59,0,0,1,1.859.359v1.3a3.624,3.624,0,0,0-2.031-.578,2.374,2.374,0,0,0-.648.082,1.587,1.587,0,0,0-.5.23,1.065,1.065,0,0,0-.32.355.936.936,0,0,0-.113.457,1.1,1.1,0,0,0,.113.523,1.152,1.152,0,0,0,.332.375,2.538,2.538,0,0,0,.531.3q.312.133.711.289a9.9,9.9,0,0,1,.953.418A3.269,3.269,0,0,1,5.5-3.6a1.893,1.893,0,0,1,.457.621,2,2,0,0,1,.16.836,1.971,1.971,0,0,1-.262,1.031,2.243,2.243,0,0,1-.7.727,3.2,3.2,0,0,1-1.008.43,4.976,4.976,0,0,1-1.2.141A4.539,4.539,0,0,1,.813-.289Z" transform="matrix(0.492, -0.87, 0.87, 0.492, 1174.8, 7065.774)" fill="#fff"/>
    <path id="Trazado_192331" data-name="Trazado 192331" d="M7.023,0H5.742V-1.25H5.711A2.682,2.682,0,0,1,3.25.188,2.63,2.63,0,0,1,1.379-.445,2.192,2.192,0,0,1,.7-2.125q0-2.242,2.641-2.609l2.4-.336q0-2.039-1.648-2.039a3.938,3.938,0,0,0-2.609.984V-7.437A4.958,4.958,0,0,1,4.2-8.187q2.82,0,2.82,2.984ZM5.742-4.047l-1.93.266a3.133,3.133,0,0,0-1.344.441,1.273,1.273,0,0,0-.453,1.121,1.221,1.221,0,0,0,.418.957,1.615,1.615,0,0,0,1.113.371,2.056,2.056,0,0,0,1.574-.668A2.387,2.387,0,0,0,5.742-3.25Z" transform="matrix(0.411, -0.912, 0.912, 0.411, 1179.17, 7058.004)" fill="#fff"/>
    <path id="Trazado_192332" data-name="Trazado 192332" d="M5.469-6.7A1.567,1.567,0,0,0,4.5-6.961a1.635,1.635,0,0,0-1.371.773,3.576,3.576,0,0,0-.551,2.109V0H1.3V-8H2.578v1.648h.031a2.793,2.793,0,0,1,.836-1.316A1.906,1.906,0,0,1,4.7-8.141a2.092,2.092,0,0,1,.766.109Z" transform="translate(1182.87 7049.524) rotate(-70.4)" fill="#fff"/>
    <path id="Trazado_192333" data-name="Trazado 192333" d="M5.469-6.7A1.567,1.567,0,0,0,4.5-6.961a1.635,1.635,0,0,0-1.371.773,3.576,3.576,0,0,0-.551,2.109V0H1.3V-8H2.578v1.648h.031a2.793,2.793,0,0,1,.836-1.316A1.906,1.906,0,0,1,4.7-8.141a2.092,2.092,0,0,1,.766.109Z" transform="matrix(0.278, -0.961, 0.961, 0.278, 1184.82, 7044.014)" fill="#fff"/>
    <path id="Trazado_192334" data-name="Trazado 192334" d="M4.641.188A3.711,3.711,0,0,1,1.809-.934,4.153,4.153,0,0,1,.75-3.906a4.326,4.326,0,0,1,1.1-3.148A3.96,3.96,0,0,1,4.828-8.187a3.588,3.588,0,0,1,2.793,1.1,4.368,4.368,0,0,1,1,3.055A4.3,4.3,0,0,1,7.543-.965,3.791,3.791,0,0,1,4.641.188Zm.094-7.3a2.437,2.437,0,0,0-1.953.84,3.449,3.449,0,0,0-.719,2.316,3.262,3.262,0,0,0,.727,2.242,2.469,2.469,0,0,0,1.945.82,2.342,2.342,0,0,0,1.91-.8,3.492,3.492,0,0,0,.668-2.289A3.552,3.552,0,0,0,6.645-6.3,2.332,2.332,0,0,0,4.734-7.109Z" transform="translate(1186.49 7038.434) rotate(-78.35)" fill="#fff"/>
    <path id="Trazado_192335" data-name="Trazado 192335" d="M2.578,0H1.3V-11.844H2.578Z" transform="translate(1188.33 7028.984) rotate(-82.519)" fill="#fff"/>
    <path id="Trazado_192336" data-name="Trazado 192336" d="M2.578,0H1.3V-11.844H2.578Z" transform="translate(1188.9 7024.764) rotate(-85.47)" fill="#fff"/>
    <path id="Trazado_192337" data-name="Trazado 192337" d="M4.641.188A3.711,3.711,0,0,1,1.809-.934,4.153,4.153,0,0,1,.75-3.906a4.326,4.326,0,0,1,1.1-3.148A3.96,3.96,0,0,1,4.828-8.187a3.588,3.588,0,0,1,2.793,1.1,4.368,4.368,0,0,1,1,3.055A4.3,4.3,0,0,1,7.543-.965,3.791,3.791,0,0,1,4.641.188Zm.094-7.3a2.437,2.437,0,0,0-1.953.84,3.449,3.449,0,0,0-.719,2.316,3.262,3.262,0,0,0,.727,2.242,2.469,2.469,0,0,0,1.945.82,2.342,2.342,0,0,0,1.91-.8,3.492,3.492,0,0,0,.668-2.289A3.552,3.552,0,0,0,6.645-6.3,2.332,2.332,0,0,0,4.734-7.109Z" transform="matrix(0.019, -1, 1, 0.019, 1189.34, 7020.474)" fill="#fff"/>
    <path id="Trazado_192338" data-name="Trazado 192338" d="M2.781-4.234V0H1.469V-11.2H4.547a4.063,4.063,0,0,1,2.785.875A3.124,3.124,0,0,1,8.32-7.859a3.4,3.4,0,0,1-1.1,2.609A4.194,4.194,0,0,1,4.258-4.234Zm0-5.781v4.594H4.156A3.074,3.074,0,0,0,6.23-6.043,2.2,2.2,0,0,0,6.945-7.8q0-2.219-2.625-2.219Z" transform="translate(1161.35 6945.364) rotate(-137.55)" fill="#fff"/>
    <path id="Trazado_192339" data-name="Trazado 192339" d="M5.469-6.7A1.567,1.567,0,0,0,4.5-6.961a1.635,1.635,0,0,0-1.371.773,3.576,3.576,0,0,0-.551,2.109V0H1.3V-8H2.578v1.648h.031a2.793,2.793,0,0,1,.836-1.316A1.906,1.906,0,0,1,4.7-8.141a2.092,2.092,0,0,1,.766.109Z" transform="translate(1153.38 6938.244) rotate(-142.326)" fill="#fff"/>
    <path id="Trazado_192340" data-name="Trazado 192340" d="M7.766,0H6.484V-1.266H6.453A2.631,2.631,0,0,1,3.984.188q-2.859,0-2.859-3.406V-8H2.4v4.578Q2.4-.891,4.336-.891a1.96,1.96,0,0,0,1.543-.691,2.645,2.645,0,0,0,.605-1.809V-8H7.766Z" transform="matrix(-0.838, -0.546, 0.546, -0.838, 1148.68, 6934.564)" fill="#fff"/>
    <path id="Trazado_192341" data-name="Trazado 192341" d="M7.727-3.68H2.078A2.992,2.992,0,0,0,2.8-1.617a2.478,2.478,0,0,0,1.891.727,3.931,3.931,0,0,0,2.484-.891v1.2A4.643,4.643,0,0,1,4.383.188,3.381,3.381,0,0,1,1.719-.9,4.461,4.461,0,0,1,.75-3.969,4.375,4.375,0,0,1,1.809-7.012,3.394,3.394,0,0,1,4.438-8.187a3.008,3.008,0,0,1,2.43,1.016,4.234,4.234,0,0,1,.859,2.82ZM6.414-4.766a2.607,2.607,0,0,0-.535-1.727,1.823,1.823,0,0,0-1.465-.617,2.07,2.07,0,0,0-1.539.648,2.943,2.943,0,0,0-.781,1.7Z" transform="translate(1140.67 6929.404) rotate(-152.44)" fill="#fff"/>
    <path id="Trazado_192342" data-name="Trazado 192342" d="M2.609-1.156H2.578V0H1.3V-11.844H2.578v5.25h.031A3.03,3.03,0,0,1,5.375-8.187a2.932,2.932,0,0,1,2.41,1.074,4.436,4.436,0,0,1,.871,2.879A4.959,4.959,0,0,1,7.68-1.02,3.251,3.251,0,0,1,5.008.188,2.631,2.631,0,0,1,2.609-1.156ZM2.578-4.383v1.117a2.379,2.379,0,0,0,.645,1.684,2.14,2.14,0,0,0,1.637.691,2.145,2.145,0,0,0,1.824-.891,4.086,4.086,0,0,0,.66-2.477,3.225,3.225,0,0,0-.617-2.094,2.043,2.043,0,0,0-1.672-.758,2.27,2.27,0,0,0-1.8.777A2.854,2.854,0,0,0,2.578-4.383Z" transform="translate(1132.52 6925.174) rotate(-158.305)" fill="#fff"/>
    <path id="Trazado_192343" data-name="Trazado 192343" d="M7.023,0H5.742V-1.25H5.711A2.682,2.682,0,0,1,3.25.188,2.63,2.63,0,0,1,1.379-.445,2.192,2.192,0,0,1,.7-2.125q0-2.242,2.641-2.609l2.4-.336q0-2.039-1.648-2.039a3.938,3.938,0,0,0-2.609.984V-7.437A4.958,4.958,0,0,1,4.2-8.187q2.82,0,2.82,2.984ZM5.742-4.047l-1.93.266a3.133,3.133,0,0,0-1.344.441,1.273,1.273,0,0,0-.453,1.121,1.221,1.221,0,0,0,.418.957,1.615,1.615,0,0,0,1.113.371,2.056,2.056,0,0,0,1.574-.668A2.387,2.387,0,0,0,5.742-3.25Z" transform="translate(1123.53 6921.594) rotate(-163.64)" fill="#fff"/>
    <path id="Trazado_192344" data-name="Trazado 192344" d="M1.469,0V-11.2H4.563q5.922,0,5.922,5.461A5.5,5.5,0,0,1,8.84-1.574,6.1,6.1,0,0,1,4.438,0ZM2.781-10.016v8.828H4.453a4.745,4.745,0,0,0,3.43-1.18A4.422,4.422,0,0,0,9.109-5.711q0-4.3-4.578-4.3Z" transform="translate(1055.74 6923.094) rotate(155.3)" fill="#fff"/>
    <path id="Trazado_192345" data-name="Trazado 192345" d="M7.727-3.68H2.078A2.992,2.992,0,0,0,2.8-1.617a2.478,2.478,0,0,0,1.891.727,3.931,3.931,0,0,0,2.484-.891v1.2A4.643,4.643,0,0,1,4.383.188,3.381,3.381,0,0,1,1.719-.9,4.461,4.461,0,0,1,.75-3.969,4.375,4.375,0,0,1,1.809-7.012,3.394,3.394,0,0,1,4.438-8.187a3.008,3.008,0,0,1,2.43,1.016,4.234,4.234,0,0,1,.859,2.82ZM6.414-4.766a2.607,2.607,0,0,0-.535-1.727,1.823,1.823,0,0,0-1.465-.617,2.07,2.07,0,0,0-1.539.648,2.943,2.943,0,0,0-.781,1.7Z" transform="translate(1045.57 6927.874) rotate(149.331)" fill="#fff"/>
    <path id="Trazado_192346" data-name="Trazado 192346" d="M.813-.289V-1.664a3.792,3.792,0,0,0,2.3.773Q4.8-.891,4.8-2.016a.976.976,0,0,0-.145-.543,1.44,1.44,0,0,0-.391-.395,3.007,3.007,0,0,0-.578-.309q-.332-.137-.715-.285a9.207,9.207,0,0,1-.934-.426,2.82,2.82,0,0,1-.672-.484A1.8,1.8,0,0,1,.965-5.07a2.17,2.17,0,0,1-.137-.8,1.912,1.912,0,0,1,.258-1A2.286,2.286,0,0,1,1.773-7.6a3.206,3.206,0,0,1,.98-.441,4.349,4.349,0,0,1,1.137-.148,4.59,4.59,0,0,1,1.859.359v1.3a3.624,3.624,0,0,0-2.031-.578,2.374,2.374,0,0,0-.648.082,1.587,1.587,0,0,0-.5.23,1.065,1.065,0,0,0-.32.355.936.936,0,0,0-.113.457,1.1,1.1,0,0,0,.113.523,1.152,1.152,0,0,0,.332.375,2.538,2.538,0,0,0,.531.3q.312.133.711.289a9.9,9.9,0,0,1,.953.418A3.269,3.269,0,0,1,5.5-3.6a1.893,1.893,0,0,1,.457.621,2,2,0,0,1,.16.836,1.971,1.971,0,0,1-.262,1.031,2.243,2.243,0,0,1-.7.727,3.2,3.2,0,0,1-1.008.43,4.976,4.976,0,0,1-1.2.141A4.539,4.539,0,0,1,.813-.289Z" transform="translate(1037.73 6932.564) rotate(143.931)" fill="#fff"/>
    <path id="Trazado_192347" data-name="Trazado 192347" d="M2.609-1.156H2.578V3.68H1.3V-8H2.578v1.406h.031A3.03,3.03,0,0,1,5.375-8.187,2.93,2.93,0,0,1,7.789-7.113a4.449,4.449,0,0,1,.867,2.879A4.959,4.959,0,0,1,7.68-1.02,3.251,3.251,0,0,1,5.008.188,2.676,2.676,0,0,1,2.609-1.156ZM2.578-4.383v1.117a2.379,2.379,0,0,0,.645,1.684,2.14,2.14,0,0,0,1.637.691,2.145,2.145,0,0,0,1.824-.891,4.086,4.086,0,0,0,.66-2.477,3.225,3.225,0,0,0-.617-2.094,2.043,2.043,0,0,0-1.672-.758,2.27,2.27,0,0,0-1.8.777A2.854,2.854,0,0,0,2.578-4.383Z" transform="matrix(-0.75, 0.66, -0.66, -0.75, 1030.52, 6937.804)" fill="#fff"/>
    <path id="Trazado_192348" data-name="Trazado 192348" d="M2.578,0H1.3V-11.844H2.578Z" transform="translate(1023.48 6944.144) rotate(134.594)" fill="#fff"/>
    <path id="Trazado_192349" data-name="Trazado 192349" d="M1.953-10.031a.812.812,0,0,1-.586-.234.791.791,0,0,1-.242-.594.8.8,0,0,1,.242-.6.8.8,0,0,1,.586-.238.827.827,0,0,1,.6.238.8.8,0,0,1,.246.6.792.792,0,0,1-.246.586A.82.82,0,0,1,1.953-10.031ZM2.578,0H1.3V-8H2.578Z" transform="translate(1020.55 6947.134) rotate(132.158)" fill="#fff"/>
    <path id="Trazado_192350" data-name="Trazado 192350" d="M7.727-3.68H2.078A2.992,2.992,0,0,0,2.8-1.617a2.478,2.478,0,0,0,1.891.727,3.931,3.931,0,0,0,2.484-.891v1.2A4.643,4.643,0,0,1,4.383.188,3.381,3.381,0,0,1,1.719-.9,4.461,4.461,0,0,1,.75-3.969,4.375,4.375,0,0,1,1.809-7.012,3.394,3.394,0,0,1,4.438-8.187a3.008,3.008,0,0,1,2.43,1.016,4.234,4.234,0,0,1,.859,2.82ZM6.414-4.766a2.607,2.607,0,0,0-.535-1.727,1.823,1.823,0,0,0-1.465-.617,2.07,2.07,0,0,0-1.539.648,2.943,2.943,0,0,0-.781,1.7Z" transform="matrix(-0.619, 0.785, -0.785, -0.619, 1017.57, 6950.314)" fill="#fff"/>
    <path id="Trazado_192351" data-name="Trazado 192351" d="M8.125-.641q0,4.406-4.219,4.406A5.664,5.664,0,0,1,1.313,3.2V1.922a5.327,5.327,0,0,0,2.578.75q2.953,0,2.953-3.141v-.875H6.813A3,3,0,0,1,4.063.188,3,3,0,0,1,1.66-.879,4.263,4.263,0,0,1,.75-3.742a4.981,4.981,0,0,1,.98-3.242,3.275,3.275,0,0,1,2.684-1.2,2.608,2.608,0,0,1,2.4,1.3h.031V-8H8.125ZM6.844-3.617V-4.8A2.289,2.289,0,0,0,6.2-6.43a2.122,2.122,0,0,0-1.605-.68,2.225,2.225,0,0,0-1.859.863,3.853,3.853,0,0,0-.672,2.418,3.308,3.308,0,0,0,.645,2.137,2.082,2.082,0,0,0,1.707.8,2.23,2.23,0,0,0,1.754-.766A2.854,2.854,0,0,0,6.844-3.617Z" transform="matrix(-0.541, 0.841, -0.841, -0.541, 1011.92, 6957.524)" fill="#fff"/>
    <path id="Trazado_192352" data-name="Trazado 192352" d="M7.766,0H6.484V-1.266H6.453A2.631,2.631,0,0,1,3.984.188q-2.859,0-2.859-3.406V-8H2.4v4.578Q2.4-.891,4.336-.891a1.96,1.96,0,0,0,1.543-.691,2.645,2.645,0,0,0,.605-1.809V-8H7.766Z" transform="translate(1006.7 6965.694) rotate(117.09)" fill="#fff"/>
    <path id="Trazado_192353" data-name="Trazado 192353" d="M7.727-3.68H2.078A2.992,2.992,0,0,0,2.8-1.617a2.478,2.478,0,0,0,1.891.727,3.931,3.931,0,0,0,2.484-.891v1.2A4.643,4.643,0,0,1,4.383.188,3.381,3.381,0,0,1,1.719-.9,4.461,4.461,0,0,1,.75-3.969,4.375,4.375,0,0,1,1.809-7.012,3.394,3.394,0,0,1,4.438-8.187a3.008,3.008,0,0,1,2.43,1.016,4.234,4.234,0,0,1,.859,2.82ZM6.414-4.766a2.607,2.607,0,0,0-.535-1.727,1.823,1.823,0,0,0-1.465-.617,2.07,2.07,0,0,0-1.539.648,2.943,2.943,0,0,0-.781,1.7Z" transform="translate(1002.39 6974.204) rotate(111.56)" fill="#fff"/>
    <path id="Trazado_192354" data-name="Trazado 192354" d="M9.5,0H7.938L6.063-3.141a6.84,6.84,0,0,0-.5-.746,2.85,2.85,0,0,0-.5-.5,1.718,1.718,0,0,0-.547-.285,2.249,2.249,0,0,0-.66-.09H2.781V0H1.469V-11.2H4.813a4.765,4.765,0,0,1,1.355.184,3.033,3.033,0,0,1,1.078.559,2.6,2.6,0,0,1,.715.934,3.1,3.1,0,0,1,.258,1.309,3.151,3.151,0,0,1-.176,1.074,2.805,2.805,0,0,1-.5.871,3.031,3.031,0,0,1-.781.652A3.988,3.988,0,0,1,5.734-5.2v.031a2.363,2.363,0,0,1,.488.285,2.687,2.687,0,0,1,.395.379,5.019,5.019,0,0,1,.371.5q.184.277.41.645ZM2.781-10.016v4.063H4.563a2.7,2.7,0,0,0,.91-.148A2.107,2.107,0,0,0,6.2-6.527a1.931,1.931,0,0,0,.477-.68,2.275,2.275,0,0,0,.172-.9,1.756,1.756,0,0,0-.582-1.4,2.5,2.5,0,0,0-1.684-.5Z" transform="translate(994.08 7020.654) rotate(83.34)" fill="#fff"/>
    <path id="Trazado_192355" data-name="Trazado 192355" d="M7.727-3.68H2.078A2.992,2.992,0,0,0,2.8-1.617a2.478,2.478,0,0,0,1.891.727,3.931,3.931,0,0,0,2.484-.891v1.2A4.643,4.643,0,0,1,4.383.188,3.381,3.381,0,0,1,1.719-.9,4.461,4.461,0,0,1,.75-3.969,4.375,4.375,0,0,1,1.809-7.012,3.394,3.394,0,0,1,4.438-8.187a3.008,3.008,0,0,1,2.43,1.016,4.234,4.234,0,0,1,.859,2.82ZM6.414-4.766a2.607,2.607,0,0,0-.535-1.727,1.823,1.823,0,0,0-1.465-.617,2.07,2.07,0,0,0-1.539.648,2.943,2.943,0,0,0-.781,1.7Z" transform="translate(995.38 7031.154) rotate(77.5)" fill="#fff"/>
    <path id="Trazado_192356" data-name="Trazado 192356" d="M7.586-8,4.4,0H3.141L.109-8H1.516L3.547-2.187A5.217,5.217,0,0,1,3.828-1.07h.031a5.283,5.283,0,0,1,.25-1.086L6.234-8Z" transform="translate(997.38 7039.964) rotate(72.38)" fill="#fff"/>
    <path id="Trazado_192357" data-name="Trazado 192357" d="M1.953-10.031a.812.812,0,0,1-.586-.234.791.791,0,0,1-.242-.594.8.8,0,0,1,.242-.6.8.8,0,0,1,.586-.238.827.827,0,0,1,.6.238.8.8,0,0,1,.246.6.792.792,0,0,1-.246.586A.82.82,0,0,1,1.953-10.031ZM2.578,0H1.3V-8H2.578Z" transform="translate(999.93 7047.754) rotate(68.69)" fill="#fff"/>
    <path id="Trazado_192358" data-name="Trazado 192358" d="M.813-.289V-1.664a3.792,3.792,0,0,0,2.3.773Q4.8-.891,4.8-2.016a.976.976,0,0,0-.145-.543,1.44,1.44,0,0,0-.391-.395,3.007,3.007,0,0,0-.578-.309q-.332-.137-.715-.285a9.207,9.207,0,0,1-.934-.426,2.82,2.82,0,0,1-.672-.484A1.8,1.8,0,0,1,.965-5.07a2.17,2.17,0,0,1-.137-.8,1.912,1.912,0,0,1,.258-1A2.286,2.286,0,0,1,1.773-7.6a3.206,3.206,0,0,1,.98-.441,4.349,4.349,0,0,1,1.137-.148,4.59,4.59,0,0,1,1.859.359v1.3a3.624,3.624,0,0,0-2.031-.578,2.374,2.374,0,0,0-.648.082,1.587,1.587,0,0,0-.5.23,1.065,1.065,0,0,0-.32.355.936.936,0,0,0-.113.457,1.1,1.1,0,0,0,.113.523,1.152,1.152,0,0,0,.332.375,2.538,2.538,0,0,0,.531.3q.312.133.711.289a9.9,9.9,0,0,1,.953.418A3.269,3.269,0,0,1,5.5-3.6a1.893,1.893,0,0,1,.457.621,2,2,0,0,1,.16.836,1.971,1.971,0,0,1-.262,1.031,2.243,2.243,0,0,1-.7.727,3.2,3.2,0,0,1-1.008.43,4.976,4.976,0,0,1-1.2.141A4.539,4.539,0,0,1,.813-.289Z" transform="translate(1001.46 7051.834) rotate(65.225)" fill="#fff"/>
    <path id="Trazado_192359" data-name="Trazado 192359" d="M1.953-10.031a.812.812,0,0,1-.586-.234.791.791,0,0,1-.242-.594.8.8,0,0,1,.242-.6.8.8,0,0,1,.586-.238.827.827,0,0,1,.6.238.8.8,0,0,1,.246.6.792.792,0,0,1-.246.586A.82.82,0,0,1,1.953-10.031ZM2.578,0H1.3V-8H2.578Z" transform="matrix(0.485, 0.875, -0.875, 0.485, 1005.26, 7059.704)" fill="#fff"/>
    <path id="Trazado_192360" data-name="Trazado 192360" d="M4.641.188A3.711,3.711,0,0,1,1.809-.934,4.153,4.153,0,0,1,.75-3.906a4.326,4.326,0,0,1,1.1-3.148A3.96,3.96,0,0,1,4.828-8.187a3.588,3.588,0,0,1,2.793,1.1,4.368,4.368,0,0,1,1,3.055A4.3,4.3,0,0,1,7.543-.965,3.791,3.791,0,0,1,4.641.188Zm.094-7.3a2.437,2.437,0,0,0-1.953.84,3.449,3.449,0,0,0-.719,2.316,3.262,3.262,0,0,0,.727,2.242,2.469,2.469,0,0,0,1.945.82,2.342,2.342,0,0,0,1.91-.8,3.492,3.492,0,0,0,.668-2.289A3.552,3.552,0,0,0,6.645-6.3,2.332,2.332,0,0,0,4.734-7.109Zm1.875-4.969L4.563-9.516H3.57l1.742-2.562Z" transform="matrix(0.546, 0.838, -0.838, 0.546, 1007.32, 7063.584)" fill="#fff"/>
    <path id="Trazado_192361" data-name="Trazado 192361" d="M7.938,0H6.656V-4.562q0-2.547-1.859-2.547a2.017,2.017,0,0,0-1.59.723,2.679,2.679,0,0,0-.629,1.824V0H1.3V-8H2.578v1.328h.031A2.887,2.887,0,0,1,5.234-8.187a2.448,2.448,0,0,1,2.008.848,3.776,3.776,0,0,1,.7,2.449Z" transform="matrix(0.626, 0.78, -0.78, 0.626, 1012.72, 7071.794)" fill="#fff"/>
  </g>
</svg>
