<?xml version="1.0" encoding="utf-8"?>
<!-- Generator: Adobe Illustrator 26.0.3, SVG Export Plug-In . SVG Version: 6.00 Build 0)  -->
<svg version="1.1" id="Layer_1" xmlns="http://www.w3.org/2000/svg" xmlns:xlink="http://www.w3.org/1999/xlink" x="0px" y="0px"
	 viewBox="0 0 534.8 287.7" style="enable-background:new 0 0 534.8 287.7;" xml:space="preserve">
<style type="text/css">
	.st0{fill:#B0C0D2;}
	.st1{fill:#DEE4F0;}
	.st2{fill:#FFFFFF;}
	.st3{fill:#12263F;}
	.st4{fill:#FFA726;}
	.st5{fill:#F6F6F6;}
	.st6{fill:none;stroke:#AFAFAF;stroke-linecap:round;}
	.st7{clip-path:url(#SVGID_00000073690068170879054830000007702464036051595954_);}
	.st8{fill:#1565C0;}
</style>
<path id="Trazado_192362" class="st0" d="M1,48.4h199v47.9H1V48.4z"/>
<path id="Trazado_192363" class="st1" d="M201,48.4h198v47.9H201V48.4z"/>
<path id="Trazado_192364" class="st2" d="M1,94.9h399v47.9H1V94.9z"/>
<path id="Trazado_192365" class="st3" d="M58.9,80.2v-2.5c0.4,0.4,0.9,0.7,1.5,0.9c0.5,0.2,1.1,0.3,1.6,0.3c0.3,0,0.6,0,0.8-0.1
	c0.2,0,0.4-0.1,0.6-0.2c0.1-0.1,0.3-0.2,0.4-0.4c0.1-0.1,0.1-0.3,0.1-0.4c0-0.2-0.1-0.4-0.2-0.6c-0.1-0.2-0.3-0.3-0.5-0.5
	c-0.2-0.2-0.5-0.3-0.8-0.4c-0.3-0.1-0.6-0.3-1-0.4c-0.8-0.3-1.4-0.7-2-1.3c-0.4-0.5-0.7-1.2-0.6-1.9c0-0.5,0.1-1,0.4-1.5
	c0.2-0.4,0.6-0.8,1-1c0.4-0.3,0.9-0.5,1.4-0.6c0.6-0.1,1.1-0.2,1.7-0.2c0.5,0,1,0,1.6,0.1c0.4,0.1,0.8,0.2,1.2,0.3V72
	c-0.2-0.1-0.4-0.2-0.6-0.3c-0.2-0.1-0.5-0.2-0.7-0.2c-0.2-0.1-0.5-0.1-0.7-0.1c-0.2,0-0.4,0-0.7,0c-0.3,0-0.5,0-0.8,0.1
	c-0.2,0-0.4,0.1-0.6,0.2c-0.2,0.1-0.3,0.2-0.4,0.4c-0.1,0.1-0.1,0.3-0.1,0.5c0,0.2,0,0.4,0.1,0.5c0.1,0.2,0.3,0.3,0.4,0.4
	c0.2,0.1,0.4,0.3,0.7,0.4c0.3,0.1,0.6,0.3,0.9,0.4c0.4,0.2,0.8,0.4,1.2,0.6c0.3,0.2,0.6,0.4,0.9,0.7c0.3,0.3,0.5,0.6,0.6,0.9
	c0.1,0.4,0.2,0.8,0.2,1.2c0,0.5-0.1,1.1-0.4,1.6c-0.2,0.4-0.6,0.8-1,1c-0.4,0.3-0.9,0.5-1.4,0.6c-0.6,0.1-1.1,0.2-1.7,0.2
	c-0.6,0-1.2,0-1.8-0.2C59.8,80.6,59.3,80.4,58.9,80.2z M75.3,77.3h-5.2c0.1,1.2,0.8,1.7,2.2,1.7c0.8,0,1.6-0.2,2.3-0.6v1.8
	c-0.9,0.4-1.9,0.6-2.9,0.6c-1.1,0.1-2.2-0.3-3-1.1c-0.8-0.8-1.1-1.9-1.1-3c-0.1-1.2,0.4-2.3,1.2-3.2c0.7-0.8,1.8-1.2,2.8-1.2
	c1-0.1,2,0.3,2.7,1c0.7,0.8,1,1.8,1,2.8L75.3,77.3z M73,75.8c0-1.1-0.5-1.7-1.4-1.7c-0.4,0-0.8,0.2-1,0.5c-0.3,0.3-0.5,0.8-0.5,1.2
	H73z M89.5,80.6H87V76c0-1.2-0.4-1.7-1.3-1.7c-0.4,0-0.8,0.2-1,0.5c-0.3,0.4-0.4,0.8-0.4,1.3v4.5h-2.5V76c0-1.1-0.4-1.7-1.3-1.7
	c-0.4,0-0.8,0.2-1,0.5c-0.3,0.4-0.4,0.9-0.4,1.4v4.4h-2.5v-8h2.5v1.2h0c0.6-0.9,1.5-1.4,2.6-1.4c1-0.1,2,0.5,2.3,1.5
	c0.5-1,1.6-1.5,2.7-1.5c1.7,0,2.6,1.1,2.6,3.2L89.5,80.6z M98.1,80.6h-2.3v-1.1h0c-0.5,0.9-1.4,1.4-2.4,1.3c-0.7,0-1.3-0.2-1.8-0.7
	c-0.5-0.5-0.7-1.1-0.7-1.8c0-1.6,0.9-2.4,2.8-2.7l2.2-0.3c0-0.9-0.5-1.3-1.4-1.3c-1,0-1.9,0.3-2.7,0.9v-1.9c0.4-0.2,0.9-0.4,1.4-0.5
	c0.5-0.1,1.1-0.2,1.6-0.2c2.3,0,3.4,1.1,3.4,3.4L98.1,80.6z M95.8,77.4v-0.5L94.3,77c-0.8,0.1-1.2,0.5-1.2,1.1
	c0,0.3,0.1,0.5,0.3,0.7c0.2,0.2,0.5,0.3,0.8,0.3c0.4,0,0.8-0.2,1.1-0.5C95.6,78.2,95.8,77.8,95.8,77.4z M107.8,80.6h-2.5v-4.4
	c0-1.2-0.4-1.9-1.3-1.9c-0.4,0-0.8,0.2-1.1,0.5c-0.3,0.4-0.4,0.8-0.4,1.2v4.6H100v-8h2.5v1.3h0c0.5-0.9,1.5-1.5,2.6-1.5
	c1.8,0,2.7,1.1,2.7,3.3L107.8,80.6z M116.4,80.6H114v-1.1h0c-0.5,0.9-1.4,1.4-2.4,1.3c-0.7,0-1.3-0.2-1.8-0.7
	c-0.5-0.5-0.7-1.1-0.7-1.8c0-1.6,0.9-2.4,2.8-2.7l2.2-0.3c0-0.9-0.5-1.3-1.4-1.3c-1,0-1.9,0.3-2.7,0.9v-1.9c0.4-0.2,0.9-0.4,1.4-0.5
	c0.5-0.1,1.1-0.2,1.6-0.2c2.3,0,3.4,1.1,3.4,3.4L116.4,80.6z M114,77.4v-0.5l-1.5,0.2c-0.8,0.1-1.2,0.5-1.2,1.1
	c0,0.3,0.1,0.5,0.3,0.7c0.2,0.2,0.5,0.3,0.8,0.3c0.4,0,0.8-0.2,1.1-0.5C113.9,78.2,114.1,77.8,114,77.4z M128.2,69.2v11.5h-2.5v-8.7
	c-0.1,0.1-0.3,0.2-0.5,0.3c-0.2,0.1-0.4,0.2-0.6,0.3c-0.2,0.1-0.4,0.2-0.6,0.2c-0.2,0.1-0.4,0.1-0.7,0.1v-2.1
	c0.6-0.2,1.2-0.4,1.8-0.7c0.5-0.3,1.1-0.6,1.5-1H128.2z"/>
<path id="Trazado_192366" class="st3" d="M263.9,80.2v-2.5c0.4,0.4,0.9,0.7,1.5,0.9c0.5,0.2,1.1,0.3,1.6,0.3c0.3,0,0.6,0,0.8-0.1
	c0.2,0,0.4-0.1,0.6-0.2c0.1-0.1,0.3-0.2,0.4-0.4c0.1-0.1,0.1-0.3,0.1-0.4c0-0.2-0.1-0.4-0.2-0.6c-0.1-0.2-0.3-0.3-0.5-0.5
	c-0.2-0.2-0.5-0.3-0.8-0.4c-0.3-0.1-0.6-0.3-1-0.4c-0.8-0.3-1.4-0.7-2-1.3c-0.4-0.5-0.7-1.2-0.6-1.9c0-0.5,0.1-1,0.4-1.5
	c0.2-0.4,0.6-0.8,1-1c0.4-0.3,0.9-0.5,1.4-0.6c0.6-0.1,1.1-0.2,1.7-0.2c0.5,0,1,0,1.6,0.1c0.4,0.1,0.8,0.2,1.2,0.3V72
	c-0.2-0.1-0.4-0.2-0.6-0.3c-0.2-0.1-0.5-0.2-0.7-0.2c-0.2-0.1-0.5-0.1-0.7-0.1c-0.2,0-0.4,0-0.7,0c-0.3,0-0.5,0-0.8,0.1
	c-0.2,0-0.4,0.1-0.6,0.2c-0.2,0.1-0.3,0.2-0.4,0.4c-0.1,0.1-0.1,0.3-0.1,0.5c0,0.2,0,0.4,0.1,0.5c0.1,0.2,0.3,0.3,0.4,0.4
	c0.2,0.1,0.4,0.3,0.7,0.4c0.3,0.1,0.6,0.3,0.9,0.4c0.4,0.2,0.8,0.4,1.2,0.6c0.3,0.2,0.6,0.4,0.9,0.7c0.3,0.3,0.5,0.6,0.6,0.9
	c0.1,0.4,0.2,0.8,0.2,1.2c0,0.5-0.1,1.1-0.4,1.6c-0.2,0.4-0.6,0.8-1,1c-0.4,0.3-0.9,0.5-1.4,0.6c-0.6,0.1-1.1,0.2-1.7,0.2
	c-0.6,0-1.2,0-1.8-0.2C264.8,80.6,264.3,80.4,263.9,80.2z M280.3,77.3h-5.2c0.1,1.2,0.8,1.7,2.2,1.7c0.8,0,1.6-0.2,2.3-0.6v1.8
	c-0.9,0.4-1.9,0.6-2.9,0.6c-1.1,0.1-2.2-0.3-3-1.1c-0.8-0.8-1.1-1.9-1.1-3c-0.1-1.2,0.4-2.3,1.2-3.2c0.7-0.8,1.8-1.2,2.8-1.2
	c1-0.1,2,0.3,2.7,1c0.7,0.8,1,1.8,1,2.8L280.3,77.3z M278,75.8c0-1.1-0.5-1.7-1.4-1.7c-0.4,0-0.8,0.2-1,0.5
	c-0.3,0.3-0.5,0.8-0.5,1.2H278z M294.5,80.6H292V76c0-1.2-0.4-1.7-1.3-1.7c-0.4,0-0.8,0.2-1,0.5c-0.3,0.4-0.4,0.8-0.4,1.3v4.5h-2.5
	V76c0-1.1-0.4-1.7-1.3-1.7c-0.4,0-0.8,0.2-1,0.5c-0.3,0.4-0.4,0.9-0.4,1.4v4.4h-2.5v-8h2.5v1.2h0c0.6-0.9,1.5-1.4,2.6-1.4
	c1-0.1,2,0.5,2.3,1.5c0.5-1,1.6-1.5,2.7-1.5c1.7,0,2.6,1.1,2.6,3.2L294.5,80.6z M303.1,80.6h-2.3v-1.1h0c-0.5,0.9-1.4,1.4-2.4,1.3
	c-0.7,0-1.3-0.2-1.8-0.7c-0.5-0.5-0.7-1.1-0.7-1.8c0-1.6,0.9-2.4,2.8-2.7l2.2-0.3c0-0.9-0.5-1.3-1.4-1.3c-1,0-1.9,0.3-2.7,0.9v-1.9
	c0.4-0.2,0.9-0.4,1.4-0.5c0.5-0.1,1.1-0.2,1.6-0.2c2.3,0,3.4,1.1,3.4,3.4V80.6z M300.8,77.4v-0.5l-1.5,0.2c-0.8,0.1-1.2,0.5-1.2,1.1
	c0,0.3,0.1,0.5,0.3,0.7c0.2,0.2,0.5,0.3,0.8,0.3c0.4,0,0.8-0.2,1.1-0.5C300.6,78.2,300.8,77.8,300.8,77.4z M312.8,80.6h-2.5v-4.4
	c0-1.2-0.4-1.9-1.3-1.9c-0.4,0-0.8,0.2-1.1,0.5c-0.3,0.4-0.4,0.8-0.4,1.2v4.6H305v-8h2.5v1.3h0c0.5-0.9,1.5-1.5,2.6-1.5
	c1.8,0,2.7,1.1,2.7,3.3L312.8,80.6z M321.4,80.6H319v-1.1h0c-0.5,0.9-1.4,1.4-2.4,1.3c-0.7,0-1.3-0.2-1.8-0.7
	c-0.5-0.5-0.7-1.1-0.7-1.8c0-1.6,0.9-2.4,2.8-2.7l2.2-0.3c0-0.9-0.5-1.3-1.4-1.3c-1,0-1.9,0.3-2.7,0.9v-1.9c0.4-0.2,0.9-0.4,1.4-0.5
	c0.5-0.1,1.1-0.2,1.6-0.2c2.3,0,3.4,1.1,3.4,3.4V80.6z M319,77.4v-0.5l-1.5,0.2c-0.8,0.1-1.2,0.5-1.2,1.1c0,0.3,0.1,0.5,0.3,0.7
	c0.2,0.2,0.5,0.3,0.8,0.3c0.4,0,0.8-0.2,1.1-0.5C318.9,78.2,319.1,77.8,319,77.4z M330,78.6h4.8v2.1h-7.5v-0.8
	c0-0.5,0.1-1.1,0.3-1.5c0.2-0.4,0.4-0.9,0.7-1.2c0.3-0.4,0.6-0.7,1-1c0.3-0.3,0.7-0.5,1-0.8c0.3-0.2,0.6-0.5,0.9-0.7
	c0.2-0.2,0.4-0.4,0.6-0.6c0.2-0.2,0.3-0.4,0.4-0.6c0.1-0.2,0.1-0.5,0.1-0.7c0-0.4-0.1-0.8-0.4-1.1c-0.4-0.3-0.8-0.4-1.2-0.4
	c-1,0-2,0.4-2.8,1.1v-2.2c1-0.6,2.1-1,3.3-0.9c0.5,0,1,0.1,1.5,0.2c0.4,0.1,0.8,0.3,1.1,0.6c0.3,0.3,0.6,0.6,0.7,1
	c0.2,0.4,0.3,0.9,0.2,1.3c0,0.5-0.1,0.9-0.2,1.4c-0.2,0.4-0.4,0.8-0.6,1.1c-0.3,0.3-0.6,0.6-0.9,0.9c-0.3,0.3-0.7,0.5-1.1,0.8
	c-0.2,0.2-0.5,0.4-0.7,0.5c-0.2,0.2-0.4,0.3-0.6,0.5c-0.2,0.1-0.3,0.3-0.4,0.5C330.1,78.2,330.1,78.4,330,78.6L330,78.6z"/>
<path id="Trazado_190303" class="st4" d="M1,0h399v48.4H1V0z"/>
<path id="Trazado_192367" class="st2" d="M126.2,24.9c0,0.8-0.2,1.6-0.7,2.2c-0.5,0.6-1.1,1.1-1.9,1.4c-0.9,0.3-1.9,0.5-2.9,0.5
	c-1.2,0-2.5-0.2-3.6-0.7v-3.5c0.5,0.4,1.1,0.7,1.7,0.9c0.6,0.2,1.2,0.3,1.8,0.4c0.3,0,0.7-0.1,1-0.2c0.2-0.1,0.4-0.4,0.3-0.7
	c0-0.2-0.1-0.4-0.2-0.5c-0.1-0.2-0.3-0.3-0.5-0.4c-0.4-0.2-0.8-0.4-1.3-0.6c-2-0.8-3-2-3-3.8c0-1.1,0.5-2.2,1.4-2.9
	c1.1-0.8,2.4-1.2,3.7-1.1c0.4,0,0.8,0,1.2,0.1s0.7,0.1,1,0.1c0.3,0.1,0.7,0.2,1.3,0.3v3.2c-1-0.6-2-0.8-3.1-0.9
	c-0.4,0-0.7,0.1-1,0.2c-0.2,0.1-0.4,0.4-0.4,0.6c0,0.3,0.1,0.5,0.3,0.7c0.4,0.3,0.8,0.5,1.3,0.7c1,0.4,2,1,2.8,1.7
	C125.9,23.3,126.2,24.1,126.2,24.9z M137.5,23.9c0,0.9-0.2,1.8-0.5,2.6c-0.3,0.7-0.8,1.3-1.4,1.8c-0.6,0.4-1.3,0.6-2.1,0.6
	c-0.9,0.1-1.9-0.4-2.4-1.2h0v5.1h-3.7V19.7h3.7v1.2h0c0.3-0.4,0.7-0.8,1.2-1.1c0.5-0.3,1.1-0.4,1.6-0.4c1-0.1,2,0.4,2.7,1.2
	C137.3,21.6,137.6,22.8,137.5,23.9z M133.7,24.1c0-0.5-0.1-0.9-0.3-1.3c-0.2-0.3-0.6-0.5-1-0.5c-0.4,0-0.8,0.2-1,0.5
	c-0.3,0.4-0.4,0.9-0.4,1.4v0.2c0,0.5,0.1,0.9,0.3,1.4c0.2,0.3,0.6,0.5,0.9,0.5c0.4,0,0.8-0.2,1-0.6
	C133.6,25.2,133.8,24.6,133.7,24.1L133.7,24.1z M145.7,22.9c-0.2-0.1-0.4-0.1-0.6-0.2c-0.2,0-0.4-0.1-0.6-0.1
	c-1.2,0-1.9,0.7-1.9,2.1v3.9h-3.7v-9h3.7v1.6h0c0.2-0.5,0.5-1,1-1.3c0.4-0.3,1-0.5,1.5-0.4c0.2,0,0.4,0,0.5,0.1L145.7,22.9z
	 M150.7,17.3c0,0.5-0.2,1-0.6,1.3c-0.4,0.3-1,0.5-1.5,0.5c-0.5,0-1.1-0.2-1.5-0.5c-0.4-0.3-0.6-0.8-0.6-1.3c0-0.5,0.2-0.9,0.6-1.3
	c0.4-0.3,1-0.5,1.5-0.5c0.5,0,1.1,0.1,1.5,0.5C150.5,16.3,150.8,16.8,150.7,17.3L150.7,17.3z M146.8,28.7v-9h3.7v9H146.8z
	 M158.2,28.7v-4.9c0-0.4-0.1-0.8-0.2-1.2c-0.2-0.3-0.5-0.4-0.8-0.4c-0.3,0-0.6,0.1-0.8,0.4c-0.2,0.3-0.3,0.6-0.3,1v5.1h-3.7v-9h3.7
	v1.4h0c0.3-0.5,0.7-0.9,1.2-1.2c0.5-0.3,1.1-0.4,1.6-0.4c2,0,3,1.2,3,3.7v5.5H158.2z M169.9,28.6c-0.3,0.1-0.5,0.2-0.8,0.2
	c-0.5,0.1-0.9,0.1-1.4,0.1c-0.9,0.1-1.8-0.3-2.4-0.9c-0.6-0.7-0.9-1.5-0.9-2.5v-3.3h-1.4v-2.6h1.4v-1.8l3.7-1v2.8h1.9v2.6h-1.9V25
	c0,0.8,0.3,1.2,0.9,1.2c0.3,0,0.6-0.1,0.9-0.2L169.9,28.6z M172.9,30.8h-3.3l6.2-14.7h3.3L172.9,30.8z M180.1,28.7V16.1h3.8v12.6
	H180.1z M192.4,28.6c-0.3,0.1-0.5,0.2-0.8,0.2c-0.5,0.1-0.9,0.1-1.4,0.1c-0.9,0.1-1.8-0.3-2.4-0.9c-0.6-0.7-0.9-1.5-0.9-2.5v-3.3
	h-1.4v-2.6h1.4v-1.8l3.7-1v2.8h1.9v2.6h-1.9V25c0,0.8,0.3,1.2,0.9,1.2c0.3,0,0.6-0.1,0.9-0.2V28.6z M196.8,25.3
	c0.1,0.4,0.3,0.7,0.7,0.9c0.5,0.2,1,0.4,1.5,0.3c0.9,0,1.7-0.2,2.5-0.5v2.4c-1.1,0.4-2.2,0.6-3.3,0.5c-1.3,0.1-2.6-0.3-3.7-1.2
	c-0.9-0.9-1.4-2.1-1.3-3.3c0-0.9,0.2-1.8,0.6-2.6c0.4-0.7,1-1.3,1.7-1.7c0.8-0.4,1.6-0.6,2.5-0.6c0.8,0,1.7,0.2,2.4,0.5
	c0.6,0.3,1.2,0.9,1.5,1.5c0.4,0.7,0.5,1.5,0.5,2.3v1.4L196.8,25.3z M199,23.3c0-1-0.4-1.6-1.1-1.6c-0.3,0-0.6,0.2-0.8,0.4
	c-0.2,0.3-0.4,0.7-0.4,1.1L199,23.3z M210.4,22.9c-0.2-0.1-0.4-0.1-0.6-0.2c-0.2,0-0.4-0.1-0.6-0.1c-1.2,0-1.9,0.7-1.9,2.1v3.9h-3.7
	v-9h3.7v1.6h0c0.2-0.5,0.5-1,1-1.3c0.4-0.3,1-0.5,1.5-0.4c0.2,0,0.4,0,0.5,0.1V22.9z M216.5,28.7v-1.4h0c-0.5,1-1.6,1.6-2.7,1.6
	c-0.7,0-1.5-0.2-2-0.8c-0.5-0.6-0.8-1.3-0.7-2c0-1.8,1.1-2.8,3.3-3.1l2.2-0.3c0-0.3-0.2-0.6-0.4-0.7c-0.3-0.2-0.7-0.3-1.1-0.3
	c-1.1,0-2.2,0.3-3.2,0.9v-2.4c0.6-0.2,1.2-0.4,1.8-0.5c0.6-0.1,1.2-0.2,1.9-0.2c1.2-0.1,2.4,0.2,3.3,1c0.8,0.9,1.1,2.1,1,3.3v5
	H216.5z M214.3,25.6c0,0.2,0.1,0.4,0.2,0.6c0.2,0.2,0.4,0.3,0.7,0.2c0.4,0,0.7-0.2,1-0.4c0.3-0.3,0.4-0.7,0.4-1.1v-0.3l-1.3,0.2
	C214.6,24.9,214.3,25.2,214.3,25.6z M229,28.5c-0.4,0.2-0.7,0.3-1.1,0.3c-0.6,0.1-1.2,0.1-1.8,0.1c-0.9,0-1.8-0.2-2.5-0.6
	c-0.7-0.4-1.3-0.9-1.7-1.6c-0.4-0.7-0.6-1.5-0.6-2.3c0-0.9,0.2-1.8,0.7-2.7c0.4-0.7,1.1-1.3,1.9-1.7c0.9-0.4,1.8-0.6,2.8-0.6
	c0.5,0,1.1,0,1.6,0.1c0.3,0,0.6,0.1,0.9,0.3v2.9c-0.2-0.2-0.5-0.3-0.8-0.4c-0.3-0.1-0.6-0.2-1-0.2c-0.6,0-1.2,0.1-1.7,0.5
	c-0.4,0.4-0.6,0.9-0.6,1.5c0,0.5,0.2,1.1,0.6,1.4c0.4,0.4,1,0.5,1.5,0.5c0.7,0,1.3-0.2,1.9-0.5V28.5z M234.5,17.3
	c0,0.5-0.2,1-0.6,1.3c-0.4,0.3-1,0.5-1.5,0.5c-0.5,0-1.1-0.2-1.5-0.5c-0.4-0.3-0.6-0.8-0.6-1.3c0-0.5,0.2-0.9,0.6-1.3
	c0.4-0.3,1-0.5,1.5-0.5c0.5,0,1.1,0.1,1.5,0.5C234.3,16.3,234.5,16.8,234.5,17.3L234.5,17.3z M230.5,28.7v-9h3.7v9H230.5z M246,24.1
	c0.1,1.3-0.4,2.6-1.4,3.6c-1.1,0.9-2.4,1.4-3.8,1.3c-1.4,0.1-2.8-0.4-3.8-1.3c-0.9-0.9-1.4-2.2-1.4-3.5c0-0.9,0.2-1.7,0.6-2.5
	c0.4-0.7,1.1-1.3,1.8-1.6c0.9-0.4,1.8-0.6,2.7-0.6c1,0,1.9,0.2,2.8,0.6c0.7,0.4,1.4,0.9,1.8,1.6C245.8,22.4,246.1,23.2,246,24.1z
	 M242.2,24.1c0-1.2-0.5-1.8-1.4-1.8s-1.4,0.6-1.4,1.9c0,1.4,0.5,2,1.4,2C241.8,26.2,242.3,25.5,242.2,24.1L242.2,24.1z M241.3,18.3
	h-2.6l2.6-2.8h3.1L241.3,18.3z M253.3,28.7v-4.9c0-0.4-0.1-0.8-0.2-1.2c-0.2-0.3-0.5-0.4-0.8-0.4c-0.3,0-0.6,0.1-0.8,0.4
	c-0.2,0.3-0.3,0.6-0.3,1v5.1h-3.7v-9h3.7v1.4h0c0.3-0.5,0.7-0.9,1.2-1.2c0.5-0.3,1.1-0.4,1.6-0.4c2,0,3,1.2,3,3.7v5.5H253.3z"/>
<path id="Trazado_192368" class="st5" d="M1,142.8h399v47.9H1V142.8z"/>
<path id="Trazado_192369" class="st6" d="M200,49.6v45.7"/>
<path id="Trazado_192370" class="st2" d="M0,94.9h400v47.9H0V94.9z"/>
<path id="Trazado_192371" class="st2" d="M0,190.7h400v47.9H0V190.7z"/>
<path id="Trazado_192372" class="st3" d="M173.5,124.3h-1.6l-1.9-3.1c-0.2-0.3-0.3-0.5-0.5-0.7c-0.1-0.2-0.3-0.4-0.5-0.5
	c-0.2-0.1-0.3-0.2-0.5-0.3c-0.2-0.1-0.4-0.1-0.7-0.1h-1.1v4.8h-1.3v-11.2h3.3c0.5,0,0.9,0.1,1.4,0.2c0.4,0.1,0.8,0.3,1.1,0.6
	c0.3,0.3,0.6,0.6,0.7,0.9c0.2,0.4,0.3,0.9,0.3,1.3c0,0.4-0.1,0.7-0.2,1.1c-0.1,0.3-0.3,0.6-0.5,0.9c-0.2,0.3-0.5,0.5-0.8,0.7
	c-0.3,0.2-0.7,0.3-1,0.4v0c0.2,0.1,0.3,0.2,0.5,0.3c0.1,0.1,0.3,0.2,0.4,0.4c0.1,0.2,0.3,0.3,0.4,0.5c0.1,0.2,0.3,0.4,0.4,0.6
	L173.5,124.3z M166.7,114.2v4.1h1.8c0.3,0,0.6,0,0.9-0.1c0.3-0.1,0.5-0.2,0.7-0.4c0.2-0.2,0.4-0.4,0.5-0.7c0.1-0.3,0.2-0.6,0.2-0.9
	c0-0.5-0.2-1-0.6-1.4c-0.5-0.4-1.1-0.5-1.7-0.5L166.7,114.2z M180.8,120.6h-5.6c0,0.8,0.2,1.5,0.7,2.1c0.5,0.5,1.2,0.8,1.9,0.7
	c0.9,0,1.8-0.3,2.5-0.9v1.2c-0.8,0.5-1.8,0.8-2.8,0.8c-1,0.1-2-0.3-2.7-1.1c-0.7-0.9-1-2-1-3.1c0-1.1,0.3-2.2,1.1-3
	c0.7-0.8,1.6-1.2,2.6-1.2c0.9-0.1,1.8,0.3,2.4,1c0.6,0.8,0.9,1.8,0.9,2.8L180.8,120.6z M179.5,119.5c0-0.6-0.2-1.2-0.5-1.7
	c-0.4-0.4-0.9-0.6-1.5-0.6c-0.6,0-1.1,0.2-1.5,0.6c-0.4,0.5-0.7,1.1-0.8,1.7L179.5,119.5z M189.6,127.9h-1.3v-5.1h0
	c-0.5,1-1.6,1.6-2.7,1.6c-0.9,0-1.8-0.4-2.4-1.1c-0.6-0.8-1-1.9-0.9-2.9c-0.1-1.1,0.3-2.3,1-3.2c0.7-0.8,1.7-1.2,2.7-1.2
	c1-0.1,1.9,0.4,2.4,1.3h0v-1.1h1.3V127.9z M188.3,120.7v-1.2c0-0.6-0.2-1.2-0.6-1.7c-0.4-0.5-1-0.7-1.6-0.7c-0.7,0-1.4,0.3-1.8,0.9
	c-0.5,0.7-0.7,1.6-0.7,2.4c0,0.8,0.2,1.5,0.6,2.2c0.4,0.5,1,0.8,1.7,0.8c0.7,0,1.3-0.3,1.8-0.8C188.1,122.1,188.3,121.4,188.3,120.7
	z M198.6,124.3h-1.3V123h0c-0.5,0.9-1.4,1.5-2.5,1.5c-1.9,0-2.9-1.1-2.9-3.4v-4.8h1.3v4.6c0,1.7,0.6,2.5,1.9,2.5
	c0.6,0,1.2-0.2,1.5-0.7c0.4-0.5,0.6-1.2,0.6-1.8v-4.6h1.3V124.3z M201.9,114.2c-0.2,0-0.4-0.1-0.6-0.2c-0.2-0.2-0.2-0.4-0.2-0.6
	c0-0.5,0.4-0.8,0.8-0.8c0,0,0,0,0,0c0.2,0,0.4,0.1,0.6,0.2c0.3,0.3,0.3,0.9,0,1.2c0,0,0,0,0,0C202.3,114.1,202.1,114.2,201.9,114.2z
	 M202.5,124.3h-1.3v-8h1.3V124.3z M204.6,124v-1.4c0.7,0.5,1.5,0.8,2.3,0.8c1.1,0,1.7-0.4,1.7-1.1c0-0.2,0-0.4-0.1-0.5
	c-0.1-0.2-0.2-0.3-0.4-0.4c-0.2-0.1-0.4-0.2-0.6-0.3c-0.2-0.1-0.5-0.2-0.7-0.3c-0.3-0.1-0.6-0.3-0.9-0.4c-0.2-0.1-0.5-0.3-0.7-0.5
	c-0.2-0.2-0.3-0.4-0.4-0.6c-0.1-0.3-0.1-0.5-0.1-0.8c0-0.4,0.1-0.7,0.3-1c0.2-0.3,0.4-0.5,0.7-0.7c0.3-0.2,0.6-0.4,1-0.4
	c0.4-0.1,0.8-0.1,1.1-0.1c0.6,0,1.3,0.1,1.9,0.4v1.3c-0.6-0.4-1.3-0.6-2-0.6c-0.2,0-0.4,0-0.6,0.1c-0.2,0-0.3,0.1-0.5,0.2
	c-0.1,0.1-0.2,0.2-0.3,0.4c-0.1,0.1-0.1,0.3-0.1,0.5c0,0.2,0,0.4,0.1,0.5c0.1,0.1,0.2,0.3,0.3,0.4c0.2,0.1,0.3,0.2,0.5,0.3
	c0.2,0.1,0.4,0.2,0.7,0.3c0.3,0.1,0.6,0.3,1,0.4c0.3,0.1,0.5,0.3,0.7,0.5c0.2,0.2,0.3,0.4,0.5,0.6c0.1,0.3,0.2,0.5,0.2,0.8
	c0,0.4-0.1,0.7-0.3,1c-0.2,0.3-0.4,0.5-0.7,0.7c-0.3,0.2-0.6,0.3-1,0.4c-0.4,0.1-0.8,0.1-1.2,0.1C206,124.5,205.3,124.3,204.6,124
	L204.6,124z M212.5,114.2c-0.2,0-0.4-0.1-0.6-0.2c-0.2-0.2-0.2-0.4-0.2-0.6c0-0.5,0.4-0.8,0.8-0.8c0,0,0,0,0,0
	c0.2,0,0.4,0.1,0.6,0.2c0.3,0.3,0.3,0.9,0,1.2c0,0,0,0,0,0C213,114.1,212.8,114.2,212.5,114.2z M213.2,124.3h-1.3v-8h1.3V124.3z
	 M219.5,124.2c-0.4,0.2-0.8,0.3-1.2,0.2c-1.4,0-2.1-0.8-2.1-2.3v-4.7h-1.4v-1.1h1.4v-2l1.3-0.4v2.4h2v1.1h-2v4.5
	c0,0.4,0.1,0.8,0.3,1.1c0.2,0.2,0.6,0.4,0.9,0.3c0.3,0,0.6-0.1,0.8-0.3L219.5,124.2z M224.5,124.5c-1.1,0-2.1-0.4-2.8-1.1
	c-0.7-0.8-1.1-1.9-1.1-3c-0.1-1.2,0.3-2.3,1.1-3.1c0.8-0.8,1.9-1.2,3-1.1c1-0.1,2.1,0.3,2.8,1.1c0.7,0.9,1.1,1.9,1,3.1
	c0.1,1.1-0.3,2.2-1.1,3.1C226.7,124.1,225.6,124.5,224.5,124.5L224.5,124.5z M224.6,117.2c-0.7,0-1.5,0.3-2,0.8
	c-0.5,0.7-0.8,1.5-0.7,2.3c0,0.8,0.2,1.6,0.7,2.2c0.5,0.6,1.2,0.9,1.9,0.8c0.7,0,1.4-0.3,1.9-0.8c0.5-0.7,0.7-1.5,0.7-2.3
	c0.1-0.8-0.2-1.6-0.7-2.3C226,117.4,225.3,117.1,224.6,117.2L224.6,117.2z M230.1,124v-1.4c0.7,0.5,1.5,0.8,2.3,0.8
	c1.1,0,1.7-0.4,1.7-1.1c0-0.2,0-0.4-0.1-0.5c-0.1-0.2-0.2-0.3-0.4-0.4c-0.2-0.1-0.4-0.2-0.6-0.3c-0.2-0.1-0.5-0.2-0.7-0.3
	c-0.3-0.1-0.6-0.3-0.9-0.4c-0.2-0.1-0.5-0.3-0.7-0.5c-0.2-0.2-0.3-0.4-0.4-0.6c-0.1-0.3-0.1-0.5-0.1-0.8c0-0.4,0.1-0.7,0.3-1
	c0.2-0.3,0.4-0.5,0.7-0.7c0.3-0.2,0.6-0.4,1-0.4c0.4-0.1,0.8-0.1,1.1-0.1c0.6,0,1.3,0.1,1.9,0.4v1.3c-0.6-0.4-1.3-0.6-2-0.6
	c-0.2,0-0.4,0-0.6,0.1c-0.2,0-0.3,0.1-0.5,0.2c-0.1,0.1-0.2,0.2-0.3,0.4c-0.1,0.1-0.1,0.3-0.1,0.5c0,0.2,0,0.4,0.1,0.5
	c0.1,0.1,0.2,0.3,0.3,0.4c0.2,0.1,0.3,0.2,0.5,0.3c0.2,0.1,0.4,0.2,0.7,0.3c0.3,0.1,0.6,0.3,1,0.4c0.3,0.1,0.5,0.3,0.7,0.5
	c0.2,0.2,0.3,0.4,0.5,0.6c0.1,0.3,0.2,0.5,0.2,0.8c0,0.4-0.1,0.7-0.3,1c-0.2,0.3-0.4,0.5-0.7,0.7c-0.3,0.2-0.6,0.3-1,0.4
	c-0.4,0.1-0.8,0.1-1.2,0.1C231.4,124.5,230.7,124.3,230.1,124L230.1,124z M111.7,174.3v-11.2h3.1c3.9,0,5.9,1.8,5.9,5.5
	c0.1,1.6-0.5,3.1-1.6,4.2c-1.2,1.1-2.8,1.7-4.4,1.6H111.7z M113,164.2v8.8h1.7c1.3,0.1,2.5-0.3,3.4-1.2c0.9-0.9,1.3-2.1,1.2-3.3
	c0-2.9-1.5-4.3-4.6-4.3L113,164.2z M123.4,164.2c-0.2,0-0.4-0.1-0.6-0.2c-0.2-0.2-0.2-0.4-0.2-0.6c0-0.5,0.4-0.8,0.8-0.8
	c0,0,0,0,0,0c0.2,0,0.4,0.1,0.6,0.2c0.3,0.3,0.3,0.9,0,1.2c0,0,0,0,0,0C123.8,164.1,123.6,164.2,123.4,164.2L123.4,164.2z
	 M124,174.3h-1.3v-8h1.3V174.3z M126.1,174v-1.4c0.7,0.5,1.5,0.8,2.3,0.8c1.1,0,1.7-0.4,1.7-1.1c0-0.2,0-0.4-0.1-0.5
	c-0.1-0.2-0.2-0.3-0.4-0.4c-0.2-0.1-0.4-0.2-0.6-0.3c-0.2-0.1-0.5-0.2-0.7-0.3c-0.3-0.1-0.6-0.3-0.9-0.4c-0.2-0.1-0.5-0.3-0.7-0.5
	c-0.2-0.2-0.3-0.4-0.4-0.6c-0.1-0.3-0.1-0.5-0.1-0.8c0-0.4,0.1-0.7,0.3-1c0.2-0.3,0.4-0.5,0.7-0.7c0.3-0.2,0.6-0.4,1-0.4
	c0.4-0.1,0.8-0.1,1.1-0.1c0.6,0,1.3,0.1,1.9,0.4v1.3c-0.6-0.4-1.3-0.6-2-0.6c-0.2,0-0.4,0-0.6,0.1c-0.2,0-0.3,0.1-0.5,0.2
	c-0.1,0.1-0.2,0.2-0.3,0.4c-0.1,0.1-0.1,0.3-0.1,0.5c0,0.2,0,0.4,0.1,0.5c0.1,0.1,0.2,0.3,0.3,0.4c0.2,0.1,0.3,0.2,0.5,0.3
	c0.2,0.1,0.4,0.2,0.7,0.3c0.3,0.1,0.6,0.3,1,0.4c0.3,0.1,0.5,0.3,0.7,0.5c0.2,0.2,0.3,0.4,0.5,0.6c0.1,0.3,0.2,0.5,0.2,0.8
	c0,0.4-0.1,0.7-0.3,1c-0.2,0.3-0.4,0.5-0.7,0.7c-0.3,0.2-0.6,0.3-1,0.4c-0.4,0.1-0.8,0.1-1.2,0.1C127.5,174.5,126.8,174.3,126.1,174
	z M139.8,170.6h-5.6c0,0.8,0.2,1.5,0.7,2.1c0.5,0.5,1.2,0.8,1.9,0.7c0.9,0,1.8-0.3,2.5-0.9v1.2c-0.8,0.5-1.8,0.8-2.8,0.8
	c-1,0.1-2-0.3-2.7-1.1c-0.7-0.9-1-2-1-3.1c0-1.1,0.3-2.2,1.1-3c0.7-0.8,1.6-1.2,2.6-1.2c0.9-0.1,1.8,0.3,2.4,1
	c0.6,0.8,0.9,1.8,0.9,2.8L139.8,170.6z M138.5,169.5c0-0.6-0.2-1.2-0.5-1.7c-0.4-0.4-0.9-0.6-1.5-0.6c-0.6,0-1.1,0.2-1.5,0.6
	c-0.4,0.5-0.7,1.1-0.8,1.7L138.5,169.5z M148.4,174.3h-1.3v-4.6c0-1.7-0.6-2.5-1.9-2.5c-0.6,0-1.2,0.3-1.6,0.7
	c-0.4,0.5-0.7,1.2-0.6,1.8v4.6h-1.3v-8h1.3v1.3h0c0.5-1,1.5-1.5,2.6-1.5c0.8,0,1.5,0.3,2,0.8c0.5,0.7,0.8,1.6,0.7,2.4L148.4,174.3z
	 M147.6,162.9c0,0.5-0.1,0.9-0.4,1.3c-0.2,0.3-0.6,0.5-1,0.5c-0.4,0-0.9-0.2-1.3-0.4c-0.3-0.2-0.6-0.3-0.9-0.3
	c-0.5,0-0.7,0.3-0.7,0.9h-0.7c0-0.5,0.1-0.9,0.4-1.3c0.2-0.3,0.6-0.5,1-0.5c0.4,0,0.8,0.2,1.2,0.4c0.3,0.2,0.6,0.3,1,0.3
	c0.4,0,0.7-0.3,0.7-0.9L147.6,162.9z M154.2,174.5c-1.1,0-2.1-0.4-2.8-1.1c-0.7-0.8-1.1-1.9-1.1-3c-0.1-1.2,0.3-2.3,1.1-3.1
	c0.8-0.8,1.9-1.2,3-1.1c1-0.1,2.1,0.3,2.8,1.1c0.7,0.9,1.1,1.9,1,3.1c0.1,1.1-0.3,2.2-1.1,3.1C156.3,174.1,155.2,174.5,154.2,174.5
	L154.2,174.5z M154.2,167.2c-0.7,0-1.5,0.3-2,0.8c-0.5,0.7-0.8,1.5-0.7,2.3c0,0.8,0.2,1.6,0.7,2.2c0.5,0.6,1.2,0.9,1.9,0.8
	c0.7,0,1.4-0.3,1.9-0.8c0.5-0.7,0.7-1.5,0.7-2.3c0.1-0.8-0.2-1.6-0.7-2.3C155.7,167.4,155,167.1,154.2,167.2L154.2,167.2z
	 M171,170.6h-5.6c0,0.8,0.2,1.5,0.7,2.1c0.5,0.5,1.2,0.8,1.9,0.7c0.9,0,1.8-0.3,2.5-0.9v1.2c-0.8,0.5-1.8,0.8-2.8,0.8
	c-1,0.1-2-0.3-2.7-1.1c-0.7-0.9-1-2-1-3.1c0-1.1,0.3-2.2,1.1-3c0.7-0.8,1.6-1.2,2.6-1.2c0.9-0.1,1.8,0.3,2.4,1
	c0.6,0.8,0.9,1.8,0.9,2.8L171,170.6z M169.7,169.5c0-0.6-0.2-1.2-0.5-1.7c-0.4-0.4-0.9-0.6-1.5-0.6c-0.6,0-1.1,0.2-1.5,0.6
	c-0.4,0.5-0.7,1.1-0.8,1.7L169.7,169.5z M178,164.2c-0.2,0-0.4-0.1-0.6-0.2c-0.2-0.2-0.2-0.4-0.2-0.6c0-0.5,0.4-0.8,0.8-0.8
	c0,0,0,0,0,0c0.2,0,0.4,0.1,0.6,0.2c0.3,0.3,0.3,0.9,0,1.2c0,0,0,0,0,0C178.4,164.1,178.2,164.2,178,164.2L178,164.2z M178.6,174.3
	h-1.3v-8h1.3V174.3z M192.6,174.3h-1.3v-4.6c0.1-0.7-0.1-1.3-0.4-1.9c-0.3-0.4-0.8-0.6-1.4-0.6c-0.6,0-1.1,0.3-1.4,0.8
	c-0.4,0.5-0.6,1.2-0.6,1.8v4.6h-1.3v-4.8c0-1.6-0.6-2.4-1.8-2.4c-0.6,0-1.1,0.3-1.4,0.7c-0.4,0.5-0.6,1.2-0.5,1.8v4.6h-1.3v-8h1.3
	v1.3h0c0.5-0.9,1.4-1.5,2.5-1.5c1,0,2,0.7,2.3,1.7c0.5-1,1.5-1.7,2.7-1.7c1.8,0,2.6,1.1,2.6,3.3L192.6,174.3z M196.3,173.1
	L196.3,173.1l0,4.8H195v-11.7h1.3v1.4h0c0.5-1,1.6-1.6,2.8-1.6c0.9,0,1.8,0.4,2.4,1.1c0.6,0.8,0.9,1.8,0.9,2.9
	c0.1,1.2-0.3,2.3-1,3.2c-0.6,0.8-1.6,1.3-2.7,1.2C197.7,174.5,196.8,174,196.3,173.1L196.3,173.1z M196.3,169.9v1.1
	c0,0.6,0.2,1.2,0.6,1.7c0.9,0.9,2.3,0.9,3.3,0c0.1-0.1,0.1-0.2,0.2-0.2c0.5-0.7,0.7-1.6,0.7-2.5c0-0.7-0.2-1.5-0.6-2.1
	c-0.4-0.5-1-0.8-1.7-0.8c-0.7,0-1.3,0.3-1.8,0.8C196.5,168.5,196.2,169.2,196.3,169.9L196.3,169.9z M205.7,174.3h-1.3v-11.8h1.3
	V174.3z M214.7,170.6H209c0,0.8,0.2,1.5,0.7,2.1c0.5,0.5,1.2,0.8,1.9,0.7c0.9,0,1.8-0.3,2.5-0.9v1.2c-0.8,0.5-1.8,0.8-2.8,0.8
	c-1,0.1-2-0.3-2.7-1.1c-0.7-0.9-1-2-1-3.1c0-1.1,0.3-2.2,1.1-3c0.7-0.8,1.6-1.2,2.6-1.2c0.9-0.1,1.8,0.3,2.4,1
	c0.6,0.8,0.9,1.8,0.9,2.8L214.7,170.6z M213.4,169.5c0-0.6-0.2-1.2-0.5-1.7c-0.4-0.4-0.9-0.6-1.5-0.6c-0.6,0-1.1,0.2-1.5,0.6
	c-0.4,0.5-0.7,1.1-0.8,1.7L213.4,169.5z M228,174.3h-1.3v-4.6c0.1-0.7-0.1-1.3-0.4-1.9c-0.3-0.4-0.8-0.6-1.4-0.6
	c-0.6,0-1.1,0.3-1.4,0.8c-0.4,0.5-0.6,1.2-0.6,1.8v4.6h-1.3v-4.8c0-1.6-0.6-2.4-1.8-2.4c-0.6,0-1.1,0.3-1.4,0.7
	c-0.4,0.5-0.6,1.2-0.5,1.8v4.6h-1.3v-8h1.3v1.3h0c0.5-0.9,1.4-1.5,2.5-1.5c1,0,2,0.7,2.3,1.7c0.5-1,1.5-1.7,2.7-1.7
	c1.8,0,2.6,1.1,2.6,3.3L228,174.3z M236.8,170.6h-5.6c0,0.8,0.2,1.5,0.7,2.1c0.5,0.5,1.2,0.8,1.9,0.7c0.9,0,1.8-0.3,2.5-0.9v1.2
	c-0.8,0.5-1.8,0.8-2.8,0.8c-1,0.1-2-0.3-2.7-1.1c-0.7-0.9-1-2-1-3.1c0-1.1,0.3-2.2,1.1-3c0.7-0.8,1.6-1.2,2.6-1.2
	c0.9-0.1,1.8,0.3,2.4,1c0.6,0.8,0.9,1.8,0.9,2.8L236.8,170.6z M235.5,169.5c0-0.6-0.2-1.2-0.5-1.7c-0.4-0.4-0.9-0.6-1.5-0.6
	c-0.6,0-1.1,0.2-1.5,0.6c-0.4,0.5-0.7,1.1-0.8,1.7L235.5,169.5z M245.4,174.3h-1.3v-4.6c0-1.7-0.6-2.5-1.9-2.5
	c-0.6,0-1.2,0.3-1.6,0.7c-0.4,0.5-0.7,1.2-0.6,1.8v4.6h-1.3v-8h1.3v1.3h0c0.5-1,1.5-1.5,2.6-1.5c0.8,0,1.5,0.3,2,0.8
	c0.5,0.7,0.8,1.6,0.7,2.4L245.4,174.3z M251.5,174.2c-0.4,0.2-0.8,0.3-1.2,0.2c-1.4,0-2.1-0.8-2.1-2.3v-4.7h-1.4v-1.1h1.4v-2
	l1.3-0.4v2.4h2v1.1h-2v4.5c0,0.4,0.1,0.8,0.3,1.1c0.2,0.2,0.6,0.4,0.9,0.3c0.3,0,0.6-0.1,0.8-0.3L251.5,174.2z M259,174.3h-1.3V173
	h0c-0.5,0.9-1.4,1.5-2.5,1.4c-0.7,0-1.4-0.2-1.9-0.6c-0.5-0.4-0.7-1-0.7-1.7c0-1.5,0.9-2.4,2.6-2.6l2.4-0.3c0-1.4-0.5-2-1.6-2
	c-1,0-1.9,0.3-2.6,1v-1.3c0.8-0.5,1.8-0.8,2.7-0.8c1.9,0,2.8,1,2.8,3L259,174.3z M257.7,170.2l-1.9,0.3c-0.5,0-0.9,0.2-1.3,0.4
	c-0.3,0.3-0.5,0.7-0.5,1.1c0,0.4,0.1,0.7,0.4,1c0.3,0.3,0.7,0.4,1.1,0.4c0.6,0,1.2-0.2,1.6-0.7c0.4-0.5,0.6-1.1,0.6-1.7L257.7,170.2
	z M266.8,173.9c-0.7,0.4-1.4,0.6-2.2,0.6c-1,0-2-0.4-2.8-1.1c-0.7-0.8-1.1-1.8-1.1-2.9c-0.1-1.2,0.4-2.3,1.1-3.2
	c0.8-0.8,1.9-1.3,3-1.2c0.6,0,1.3,0.1,1.9,0.4v1.3c-0.6-0.4-1.2-0.6-1.9-0.6c-0.8,0-1.5,0.3-2,0.9c-0.5,0.6-0.8,1.5-0.8,2.3
	c0,0.8,0.2,1.6,0.7,2.2c0.5,0.5,1.2,0.8,2,0.8c0.7,0,1.4-0.3,2-0.7L266.8,173.9z M269.4,164.2c-0.2,0-0.4-0.1-0.6-0.2
	c-0.2-0.2-0.2-0.4-0.2-0.6c0-0.5,0.4-0.8,0.8-0.8c0,0,0,0,0,0c0.2,0,0.4,0.1,0.6,0.2c0.3,0.3,0.3,0.9,0,1.2c0,0,0,0,0,0
	C269.9,164.2,269.7,164.2,269.4,164.2L269.4,164.2z M270.1,174.3h-1.3v-8h1.3V174.3z M276,174.5c-1.1,0-2.1-0.4-2.8-1.1
	c-0.7-0.8-1.1-1.9-1.1-3c-0.1-1.2,0.3-2.3,1.1-3.1c0.8-0.8,1.9-1.2,3-1.1c1-0.1,2.1,0.3,2.8,1.1c0.7,0.9,1.1,1.9,1,3.1
	c0.1,1.1-0.3,2.2-1.1,3.1C278.1,174.1,277.1,174.5,276,174.5L276,174.5z M276.1,167.2c-0.7,0-1.5,0.3-2,0.8
	c-0.5,0.7-0.8,1.5-0.7,2.3c0,0.8,0.2,1.6,0.7,2.2c0.5,0.6,1.2,0.9,1.9,0.8c0.7,0,1.4-0.3,1.9-0.8c0.5-0.7,0.7-1.5,0.7-2.3
	c0.1-0.8-0.2-1.6-0.7-2.3C277.5,167.4,276.8,167.1,276.1,167.2L276.1,167.2z M278,162.2l-2,2.6h-1l1.7-2.6L278,162.2z M288.7,174.3
	h-1.3v-4.6c0-1.7-0.6-2.5-1.9-2.5c-0.6,0-1.2,0.3-1.6,0.7c-0.4,0.5-0.7,1.2-0.6,1.8v4.6H282v-8h1.3v1.3h0c0.5-1,1.5-1.5,2.6-1.5
	c0.8,0,1.5,0.3,2,0.8c0.5,0.7,0.8,1.6,0.7,2.4L288.7,174.3z M174.6,220v4.2h-1.3v-11.2h3.1c1-0.1,2,0.2,2.8,0.9c0.7,0.6,1,1.5,1,2.5
	c0,1-0.4,1.9-1.1,2.6c-0.8,0.7-1.9,1.1-3,1L174.6,220z M174.6,214.2v4.6h1.4c0.7,0.1,1.5-0.2,2.1-0.6c0.5-0.4,0.8-1.1,0.7-1.8
	c0-1.5-0.9-2.2-2.6-2.2L174.6,214.2z M186.3,217.6c-0.3-0.2-0.6-0.3-1-0.3c-0.6,0-1.1,0.3-1.4,0.8c-0.4,0.6-0.6,1.4-0.6,2.1v4.1
	h-1.3v-8h1.3v1.6h0c0.1-0.5,0.4-1,0.8-1.3c0.3-0.3,0.8-0.5,1.3-0.5c0.3,0,0.5,0,0.8,0.1L186.3,217.6z M194.1,224.3h-1.3V223h0
	c-0.5,0.9-1.4,1.5-2.5,1.5c-1.9,0-2.9-1.1-2.9-3.4v-4.8h1.3v4.6c0,1.7,0.6,2.5,1.9,2.5c0.6,0,1.2-0.2,1.5-0.7
	c0.4-0.5,0.6-1.2,0.6-1.8v-4.6h1.3V224.3z M203.2,220.6h-5.6c0,0.8,0.2,1.5,0.7,2.1c0.5,0.5,1.2,0.8,1.9,0.7c0.9,0,1.8-0.3,2.5-0.9
	v1.2c-0.8,0.5-1.8,0.8-2.8,0.8c-1,0.1-2-0.3-2.7-1.1c-0.7-0.9-1-2-1-3.1c0-1.1,0.3-2.2,1.1-3c0.7-0.8,1.6-1.2,2.6-1.2
	c0.9-0.1,1.8,0.3,2.4,1c0.6,0.8,0.9,1.8,0.9,2.8L203.2,220.6z M201.9,219.5c0-0.6-0.2-1.2-0.5-1.7c-0.4-0.4-0.9-0.6-1.5-0.6
	c-0.6,0-1.1,0.2-1.5,0.6c-0.4,0.5-0.7,1.1-0.8,1.7L201.9,219.5z M206.4,223.1L206.4,223.1l0,1.2h-1.3v-11.8h1.3v5.2h0
	c0.5-1,1.6-1.6,2.8-1.6c0.9,0,1.8,0.4,2.4,1.1c0.6,0.8,0.9,1.8,0.9,2.9c0.1,1.2-0.3,2.3-1,3.2c-0.6,0.8-1.6,1.3-2.7,1.2
	C207.8,224.5,206.9,224,206.4,223.1L206.4,223.1z M206.4,219.9v1.1c0,0.6,0.2,1.2,0.6,1.7c0.9,0.9,2.3,0.9,3.3,0
	c0.1-0.1,0.1-0.2,0.2-0.2c0.5-0.7,0.7-1.6,0.7-2.5c0-0.7-0.2-1.5-0.6-2.1c-0.4-0.5-1-0.8-1.7-0.8c-0.7,0-1.3,0.3-1.8,0.8
	C206.6,218.5,206.4,219.2,206.4,219.9L206.4,219.9z M220.2,224.3H219V223h0c-0.5,0.9-1.4,1.5-2.5,1.4c-0.7,0-1.4-0.2-1.9-0.6
	c-0.5-0.4-0.7-1-0.7-1.7c0-1.5,0.9-2.4,2.6-2.6l2.4-0.3c0-1.4-0.5-2-1.6-2c-1,0-1.9,0.3-2.6,1v-1.3c0.8-0.5,1.8-0.8,2.7-0.8
	c1.9,0,2.8,1,2.8,3L220.2,224.3z M219,220.2l-1.9,0.3c-0.5,0-0.9,0.2-1.3,0.4c-0.3,0.3-0.5,0.7-0.5,1.1c0,0.4,0.1,0.7,0.4,1
	c0.3,0.3,0.7,0.4,1.1,0.4c0.6,0,1.2-0.2,1.6-0.7c0.4-0.5,0.6-1.1,0.6-1.7L219,220.2z M222.2,224v-1.4c0.7,0.5,1.5,0.8,2.3,0.8
	c1.1,0,1.7-0.4,1.7-1.1c0-0.2,0-0.4-0.1-0.5c-0.1-0.2-0.2-0.3-0.4-0.4c-0.2-0.1-0.4-0.2-0.6-0.3c-0.2-0.1-0.5-0.2-0.7-0.3
	c-0.3-0.1-0.6-0.3-0.9-0.4c-0.2-0.1-0.5-0.3-0.7-0.5c-0.2-0.2-0.3-0.4-0.4-0.6c-0.1-0.3-0.1-0.5-0.1-0.8c0-0.4,0.1-0.7,0.3-1
	c0.2-0.3,0.4-0.5,0.7-0.7c0.3-0.2,0.6-0.4,1-0.4c0.4-0.1,0.8-0.1,1.1-0.1c0.6,0,1.3,0.1,1.9,0.4v1.3c-0.6-0.4-1.3-0.6-2-0.6
	c-0.2,0-0.4,0-0.6,0.1c-0.2,0-0.3,0.1-0.5,0.2c-0.1,0.1-0.2,0.2-0.3,0.4c-0.1,0.1-0.1,0.3-0.1,0.5c0,0.2,0,0.4,0.1,0.5
	c0.1,0.1,0.2,0.3,0.3,0.4c0.2,0.1,0.3,0.2,0.5,0.3c0.2,0.1,0.4,0.2,0.7,0.3c0.3,0.1,0.6,0.3,1,0.4c0.3,0.1,0.5,0.3,0.7,0.5
	c0.2,0.2,0.3,0.4,0.5,0.6c0.1,0.3,0.2,0.5,0.2,0.8c0,0.4-0.1,0.7-0.3,1c-0.2,0.3-0.4,0.5-0.7,0.7c-0.3,0.2-0.6,0.3-1,0.4
	c-0.4,0.1-0.8,0.1-1.2,0.1C223.6,224.5,222.8,224.3,222.2,224z"/>
<g>
	<defs>
		<rect id="SVGID_1_" x="466" width="27.4" height="244.2"/>
	</defs>
	<clipPath id="SVGID_00000140725125108252483290000007210411614017128884_">
		<use xlink:href="#SVGID_1_"  style="overflow:visible;"/>
	</clipPath>
	
		<g id="Grupo_93936" transform="translate(1296 7818.072)" style="clip-path:url(#SVGID_00000140725125108252483290000007210411614017128884_);">
		<path id="Trazado_190304" class="st8" d="M-815.2-7574.4l12.5-19.2c0.4-0.6,0.2-1.3-0.4-1.7c-0.2-0.1-0.4-0.2-0.7-0.2h-3.1
			c-0.7,0-1.2-0.6-1.2-1.2c0,0,0,0,0,0v-221.3h-16.3v221.3c0,0.7-0.6,1.2-1.2,1.2c0,0,0,0,0,0h-3.1c-0.7,0-1.2,0.6-1.2,1.2
			c0,0.2,0.1,0.5,0.2,0.7l12.5,19.2c0.4,0.6,1.1,0.7,1.7,0.4C-815.5-7574.1-815.3-7574.3-815.2-7574.4"/>
	</g>
</g>
<g>
	<path class="st3" d="M376.1,269.7l-1.1,5.7h-2.8l2.8-14.3h5.1c1.4,0,2.5,0.4,3.3,1.1c0.8,0.8,1,1.8,0.7,3.1c-0.2,0.8-0.5,1.5-0.9,2
		s-1.1,0.9-1.9,1.2c0.7,0.3,1.2,0.7,1.4,1.3c0.3,0.6,0.3,1.3,0.1,2.1l-0.2,1c-0.1,0.4-0.1,0.8-0.1,1.3s0.1,0.7,0.3,1l0,0.2h-2.9
		c-0.2-0.2-0.3-0.6-0.3-1c0-0.5,0.1-0.9,0.2-1.4l0.2-1c0.2-0.8,0.1-1.3-0.2-1.7c-0.3-0.4-0.7-0.6-1.3-0.6H376.1z M376.6,267.5h2.2
		c0.7,0,1.2-0.2,1.6-0.5c0.4-0.3,0.7-0.8,0.9-1.5c0.1-0.7,0.1-1.2-0.2-1.6c-0.3-0.4-0.7-0.5-1.4-0.5h-2.2L376.6,267.5z"/>
	<path class="st3" d="M388.9,275.6c-1.4,0-2.4-0.5-3.2-1.5s-1-2.2-0.7-3.7l0.1-0.4c0.3-1.6,0.9-3,1.8-3.9c1-1,2.1-1.5,3.5-1.5
		c1.3,0,2.3,0.4,2.9,1.3s0.8,2,0.6,3.5l-0.2,1.6h-5.9c-0.1,0.7,0.1,1.3,0.4,1.8c0.3,0.4,0.8,0.7,1.4,0.7c0.5,0,1-0.1,1.5-0.2
		c0.4-0.1,0.9-0.3,1.4-0.6l0.5,1.8c-0.5,0.3-1,0.6-1.7,0.9C390.5,275.5,389.7,275.6,388.9,275.6z M390.1,266.9
		c-0.4,0-0.8,0.2-1.2,0.6s-0.6,0.9-0.7,1.6l0,0h3l0-0.3c0.1-0.6,0.1-1.1-0.1-1.5C390.9,267,390.6,266.9,390.1,266.9z"/>
	<path class="st3" d="M397.3,275.4h-2.8l3.1-15.3h2.8L397.3,275.4z"/>
	<path class="st3" d="M404.1,275.6c-1.4,0-2.4-0.5-3.2-1.5c-0.7-1-1-2.2-0.7-3.7l0.1-0.4c0.3-1.6,0.9-3,1.8-3.9c1-1,2.1-1.5,3.5-1.5
		c1.3,0,2.3,0.4,2.9,1.3c0.6,0.9,0.8,2,0.6,3.5l-0.2,1.6h-5.9c-0.1,0.7,0.1,1.3,0.4,1.8s0.8,0.7,1.4,0.7c0.5,0,1-0.1,1.5-0.2
		c0.4-0.1,0.9-0.3,1.4-0.6l0.5,1.8c-0.5,0.3-1,0.6-1.7,0.9C405.6,275.5,404.9,275.6,404.1,275.6z M405.2,266.9
		c-0.4,0-0.8,0.2-1.2,0.6c-0.3,0.4-0.6,0.9-0.7,1.6l0,0h3l0-0.3c0.1-0.6,0.1-1.1-0.1-1.5C406.1,267,405.7,266.9,405.2,266.9z"/>
	<path class="st3" d="M415.3,275.4c0-0.2-0.1-0.4-0.1-0.6c0-0.2,0-0.4,0-0.6c-0.4,0.4-0.8,0.8-1.3,1c-0.5,0.3-1,0.4-1.6,0.4
		c-0.9,0-1.6-0.3-2.1-0.9c-0.5-0.6-0.6-1.4-0.4-2.3c0.2-1.1,0.7-1.9,1.6-2.5c0.8-0.5,2-0.8,3.4-0.8h1.3l0.2-0.8
		c0.1-0.5,0.1-0.9-0.1-1.2c-0.2-0.3-0.5-0.4-0.9-0.4c-0.4,0-0.7,0.1-1,0.3c-0.3,0.2-0.4,0.5-0.5,0.9l-2.7,0l0-0.1
		c0.2-1,0.7-1.7,1.6-2.4c0.9-0.6,2-0.9,3.3-0.9c1.1,0,2,0.3,2.6,1c0.6,0.7,0.9,1.6,0.6,2.7l-0.9,4.4c-0.1,0.5-0.2,1-0.2,1.4
		s0,0.8,0.1,1.3H415.3z M413.5,273.5c0.3,0,0.7-0.1,1-0.3c0.3-0.2,0.6-0.4,0.9-0.7l0.4-1.8h-1.3c-0.5,0-0.9,0.2-1.2,0.5
		c-0.3,0.3-0.5,0.7-0.6,1.1c-0.1,0.4,0,0.7,0.1,0.9C412.9,273.4,413.1,273.5,413.5,273.5z"/>
	<path class="st3" d="M425.6,272.5c0.1-0.3,0-0.6-0.3-0.8c-0.2-0.2-0.7-0.4-1.4-0.6c-1.1-0.3-1.9-0.6-2.5-1.1
		c-0.5-0.5-0.7-1.2-0.6-2c0.2-0.9,0.6-1.7,1.4-2.3s1.8-0.9,3.1-0.9s2.2,0.3,2.8,1c0.7,0.6,0.9,1.4,0.7,2.4l0,0.1h-2.7
		c0.1-0.4,0-0.8-0.2-1c-0.2-0.3-0.5-0.4-1-0.4c-0.4,0-0.7,0.1-1,0.3c-0.3,0.2-0.4,0.5-0.5,0.8c-0.1,0.3,0,0.6,0.2,0.8
		s0.7,0.4,1.4,0.6c1.2,0.3,2,0.6,2.5,1.2c0.5,0.5,0.7,1.2,0.6,2.1c-0.2,1-0.7,1.8-1.5,2.4c-0.9,0.6-1.9,0.9-3.2,0.9
		c-1.3,0-2.2-0.4-2.9-1.1s-0.9-1.5-0.7-2.4l0-0.1h2.6c-0.1,0.6,0,1,0.3,1.2c0.3,0.3,0.6,0.4,1.2,0.4c0.4,0,0.8-0.1,1.1-0.3
		C425.3,273.2,425.5,272.9,425.6,272.5z"/>
	<path class="st3" d="M434,275.6c-1.4,0-2.4-0.5-3.2-1.5c-0.7-1-1-2.2-0.7-3.7l0.1-0.4c0.3-1.6,0.9-3,1.8-3.9c1-1,2.1-1.5,3.5-1.5
		c1.3,0,2.3,0.4,2.9,1.3c0.6,0.9,0.8,2,0.6,3.5l-0.2,1.6h-5.9c-0.1,0.7,0.1,1.3,0.4,1.8s0.8,0.7,1.4,0.7c0.5,0,1-0.1,1.5-0.2
		c0.4-0.1,0.9-0.3,1.4-0.6l0.5,1.8c-0.5,0.3-1,0.6-1.7,0.9C435.5,275.5,434.8,275.6,434,275.6z M435.1,266.9c-0.4,0-0.8,0.2-1.2,0.6
		c-0.3,0.4-0.6,0.9-0.7,1.6l0,0h3l0-0.3c0.1-0.6,0.1-1.1-0.1-1.5C436,267,435.6,266.9,435.1,266.9z"/>
	<path class="st3" d="M446.2,276.7h-2.1l5.2-15.5h2.1L446.2,276.7z"/>
	<path class="st3" d="M462.7,275.6c-1.6,0-2.8-0.5-3.8-1.4c-1-1-1.5-2.2-1.5-3.8v-0.3c0-1.1,0.2-2,0.6-2.9c0.4-0.8,1-1.5,1.7-1.9
		c0.8-0.5,1.6-0.7,2.6-0.7c1.4,0,2.6,0.5,3.4,1.4c0.8,0.9,1.2,2.2,1.2,3.9v1.2h-6.7c0.1,0.7,0.4,1.2,0.8,1.7s1,0.6,1.7,0.6
		c1.1,0,1.9-0.4,2.6-1.2l1.4,1.6c-0.4,0.6-1,1.1-1.7,1.4C464.3,275.5,463.5,275.6,462.7,275.6z M462.3,266.9c-0.6,0-1,0.2-1.4,0.6
		s-0.6,0.9-0.7,1.6h3.9v-0.2c0-0.6-0.2-1.1-0.5-1.5S462.9,266.9,462.3,266.9z"/>
	<path class="st3" d="M471.2,264.8l0.1,1.2c0.8-0.9,1.8-1.4,3-1.4c1.1,0,2,0.3,2.5,1s0.8,1.6,0.8,3v6.8h-2.8v-6.8
		c0-0.6-0.1-1-0.4-1.3c-0.3-0.3-0.7-0.4-1.3-0.4c-0.8,0-1.4,0.3-1.8,1v7.5h-2.8v-10.6H471.2z"/>
	<path class="st3" d="M483.2,262.2v2.6h1.8v2.1h-1.8v5.3c0,0.4,0.1,0.7,0.2,0.8c0.2,0.2,0.4,0.3,0.9,0.3c0.3,0,0.6,0,0.8-0.1v2.1
		c-0.6,0.2-1.1,0.3-1.7,0.3c-2,0-3-1-3-3v-5.7h-1.5v-2.1h1.5v-2.6H483.2z"/>
	<path class="st3" d="M492.6,267.5c-0.4-0.1-0.7-0.1-1-0.1c-1.1,0-1.8,0.4-2.1,1.1v6.9h-2.8v-10.6h2.7l0.1,1.3
		c0.6-1,1.4-1.5,2.4-1.5c0.3,0,0.6,0,0.9,0.1L492.6,267.5z"/>
	<path class="st3" d="M498.6,275.6c-1.6,0-2.8-0.5-3.8-1.4c-1-1-1.5-2.2-1.5-3.8v-0.3c0-1.1,0.2-2,0.6-2.9c0.4-0.8,1-1.5,1.7-1.9
		c0.8-0.5,1.6-0.7,2.6-0.7c1.4,0,2.6,0.5,3.4,1.4c0.8,0.9,1.2,2.2,1.2,3.9v1.2h-6.7c0.1,0.7,0.4,1.2,0.8,1.7s1,0.6,1.7,0.6
		c1.1,0,1.9-0.4,2.6-1.2l1.4,1.6c-0.4,0.6-1,1.1-1.7,1.4C500.3,275.5,499.5,275.6,498.6,275.6z M498.3,266.9c-0.6,0-1,0.2-1.4,0.6
		c-0.3,0.4-0.6,0.9-0.7,1.6h3.9v-0.2c0-0.6-0.2-1.1-0.5-1.5S498.9,266.9,498.3,266.9z"/>
	<path class="st3" d="M504.2,270.1c0-1.6,0.4-2.9,1.2-3.9c0.8-1,1.8-1.5,3.1-1.5c1.2,0,2.1,0.4,2.7,1.2l0.1-1h2.6v10.2
		c0,0.9-0.2,1.7-0.6,2.4c-0.4,0.7-1,1.2-1.8,1.6s-1.7,0.5-2.7,0.5c-0.8,0-1.5-0.2-2.3-0.5c-0.7-0.3-1.3-0.7-1.7-1.2l1.3-1.7
		c0.7,0.8,1.6,1.2,2.6,1.2c0.8,0,1.3-0.2,1.8-0.6c0.4-0.4,0.6-1,0.6-1.7v-0.6c-0.7,0.7-1.5,1.1-2.6,1.1c-1.3,0-2.3-0.5-3.1-1.5
		c-0.8-1-1.2-2.3-1.2-4V270.1z M507,270.3c0,1,0.2,1.7,0.6,2.3c0.4,0.5,0.9,0.8,1.6,0.8c0.9,0,1.5-0.3,1.9-1v-4.5
		c-0.4-0.6-1-1-1.8-1c-0.7,0-1.2,0.3-1.6,0.8C507.2,268.3,507,269.2,507,270.3z"/>
	<path class="st3" d="M522.2,275.4c-0.1-0.3-0.2-0.6-0.3-0.9c-0.7,0.8-1.6,1.1-2.7,1.1c-1,0-1.9-0.3-2.6-0.9c-0.7-0.6-1-1.4-1-2.3
		c0-1.1,0.4-2,1.2-2.6c0.8-0.6,2-0.9,3.6-0.9h1.3v-0.6c0-0.5-0.1-0.9-0.4-1.2s-0.6-0.4-1.2-0.4c-0.5,0-0.9,0.1-1.1,0.3
		c-0.3,0.2-0.4,0.5-0.4,0.9h-2.8c0-0.6,0.2-1.2,0.6-1.7c0.4-0.5,0.9-0.9,1.6-1.2s1.5-0.4,2.3-0.4c1.3,0,2.3,0.3,3.1,1
		c0.8,0.7,1.2,1.6,1.2,2.8v4.6c0,1,0.1,1.8,0.4,2.3v0.2H522.2z M519.8,273.5c0.4,0,0.8-0.1,1.2-0.3c0.4-0.2,0.6-0.4,0.8-0.7v-1.8
		h-1.1c-1.4,0-2.2,0.5-2.3,1.5l0,0.2c0,0.4,0.1,0.6,0.4,0.9C519.1,273.4,519.4,273.5,519.8,273.5z"/>
</g>
</svg>
