<svg xmlns="http://www.w3.org/2000/svg" width="462.342" height="409.468" viewBox="0 0 462.342 409.468">
  <g id="Grupo_94333" data-name="Grupo 94333" transform="translate(-862 -11257)">
    <path id="Trazado_190454" data-name="Trazado 190454" d="M403.28,180.1a49.75,49.75,0,1,0,60.46-36,49.75,49.75,0,0,0-60.46,36Zm12.28,1.44h0a37.52,37.52,0,0,1,46.74-25.11h0a37.51,37.51,0,0,1,25.12,46.74h0a37.52,37.52,0,0,1-46.74,25.11h0a37.52,37.52,0,0,1-25.12-46.74Z" transform="translate(790.52 11224.828)" fill="#eefbff"/>
    <path id="Trazado_190455" data-name="Trazado 190455" d="M368.8,180.18c.24,1.19,1.31,1.6,4,2.65,4.74,1.89,9.49,3.77,14.17,5.82a3.28,3.28,0,0,1,1.56,2.3c.54,5,.79,10,1.38,14.94.18,1.54,0,2.35-1.35,3.22-5.53,3.47-10.95,7.1-16.36,10.63,1.35,5.79,8.16,18.81,11.8,22.46,5.73-2.42,11.62-4.79,17.41-7.39,1.8-.81,2.72-.66,4.22.78a131.689,131.689,0,0,0,11.12,9.28c1.56,1.19,2.38,2.12,1.88,4.25-1.31,5.54-2.27,11.16-3.49,16.72-.32,1.49,0,2.43,1.44,2.89l20.83,6.43c1.71.53,2-.87,2.4-1.88,2.15-5.09,4.34-10.16,6.33-15.32.74-1.94,1.74-2.57,3.84-2.64,5.57-.17,11.12-.71,17.11-1.13l11.46,17.41a74.42,74.42,0,0,0,22.21-12c-2.72-6.55-5.45-13.1-7.85-18.87,4.12-5.22,8-10,11.68-14.93a2.8,2.8,0,0,1,3.45-1.32c5.48,1.2,11,2.23,16.49,3.4,1.18.25,2,.3,2.66-1a71.3,71.3,0,0,0,6.55-20.49,2.24,2.24,0,0,0-1.68-2.79c-5.34-2.21-10.64-4.52-16-6.7a2.61,2.61,0,0,1-2-2.66c-.41-5.48-1.05-10.95-1.84-16.39a2.21,2.21,0,0,1,1.22-2.57c5.45-3.59,10.88-7.22,16.45-10.93a79.768,79.768,0,0,0-11.6-22.08l-19.66,8.18-16.07-13.33c1-4.9,2.16-10.54,3.23-16.19.89-4.64,1.55-4-3.11-6a8.16,8.16,0,0,1-1.23-.81L469,110.41a15.549,15.549,0,0,1-2.92-.36c-2.38-.76-3.73-.22-4.68,2.34-2,5.33-4.3,10.53-6.6,15.73a3,3,0,0,1-2,1.49c-4.88.62-9.83.81-14.66,1.68-2.36.43-3.36-.22-4.52-2.06-3.31-5.22-6.83-10.31-10.61-16L400.78,124.9c.58,1.47.9,2.32,1.25,3.16,2.16,5.17,4.27,10.37,6.51,15.51.64,1.46.32,2.28-.68,3.46-3.43,4.08-6.6,8.38-10,12.48a3.32,3.32,0,0,1-2.66.94c-4.53-.79-9-1.82-13.53-2.7-3.66-.71-5-1-6.18.23Zm32.77-.51a51.52,51.52,0,1,1,5.65,39,51.52,51.52,0,0,1-5.65-39Z" transform="translate(790.52 11224.828)" fill="#eefbff"/>
    <path id="Trazado_190456" data-name="Trazado 190456" d="M81,250c.76.59,1.63.28,3.77-.47,3.83-1.33,7.67-2.67,11.55-3.88a2.64,2.64,0,0,1,2.14.57c2.91,2.71,5.66,5.59,8.6,8.27a2.15,2.15,0,0,1,.86,2.64c-1.51,5-2.89,10-4.3,14.9,3.83,2.78,14.7,7.07,18.78,7.37,2.19-4.44,4.5-8.93,6.62-13.51a2.51,2.51,0,0,1,2.95-1.73,103,103,0,0,0,11.52-.21c1.55-.09,2.53,0,3.34,1.58,2.1,4,4.44,7.89,6.61,11.87.58,1.07,1.24,1.48,2.36,1l15.88-7c1.3-.57.73-1.55.46-2.37-1.35-4.19-2.68-8.38-4.17-12.51a2.84,2.84,0,0,1,.94-3.59c3.25-3,6.31-6.22,9.69-9.58l16,4.49a59.36,59.36,0,0,0,7.13-18.75l-14.54-7.25c-.24-5.29-.36-10.18-.75-15.06a2.22,2.22,0,0,1,1.38-2.59c3.93-2.13,7.78-4.38,11.69-6.54.84-.46,1.39-.89,1.08-2a56.519,56.519,0,0,0-6.73-15.72,1.78,1.78,0,0,0-2.47-.81c-4.35,1.45-8.74,2.82-13.09,4.3a2.08,2.08,0,0,1-2.56-.59c-3.1-3.08-6.33-6-9.64-8.9a1.75,1.75,0,0,1-.6-2.18c1.41-5,2.78-10,4.2-15.13a63.471,63.471,0,0,0-18.47-7.24l-7.56,15.15-16.6.35c-2-3.45-4.19-7.45-6.49-11.41-1.88-3.25-1.17-3.23-5-2a6.239,6.239,0,0,1-1.16.15l-9.48,4.25a12.171,12.171,0,0,1-1.94,1.3c-1.83.79-2.36,1.81-1.6,3.85,1.58,4.23,2.9,8.57,4.22,12.9a2.37,2.37,0,0,1-.45,2c-2.61,2.91-5.49,5.61-7.94,8.64-1.19,1.49-2.13,1.62-3.79,1.12-4.71-1.42-9.47-2.65-14.69-4.08-2.45,6.25-4.85,12.35-7.27,18.53l2.4,1.25c4,2,8,4,12,5.93a2.25,2.25,0,0,1,1.39,2.44c.06,4.24.39,8.47.48,12.71a2.63,2.63,0,0,1-1.11,1.95c-3.13,1.89-6.37,3.6-9.55,5.42-2.56,1.48-3.51,2-3.59,3.36Zm19.44-17.36a20.755,20.755,0,1,0,0-.05Z" transform="translate(790.52 11224.828)" fill="#024e73"/>
    <path id="Trazado_190457" data-name="Trazado 190457" d="M119.83,121.13l1.74-3.19-1.63-3.26a.49.49,0,0,1,.53-.71l3.57.67,2.58-2.57a.5.5,0,0,1,.85.29l.46,3.62,3.23,1.66a.5.5,0,0,1,0,.9l-3.29,1.56-.58,3.59a.5.5,0,0,1-.85.27l-2.49-2.65-3.59.56a.51.51,0,0,1-.53-.74Z" transform="translate(790.52 11224.828)" fill="#ffc359"/>
    <path id="Trazado_190458" data-name="Trazado 190458" d="M346.61,54.46l1.75-3.19L346.72,48a.5.5,0,0,1,.53-.72l3.57.67,2.58-2.57a.5.5,0,0,1,.85.3l.46,3.61L357.94,51a.5.5,0,0,1,0,.9l-3.28,1.56L354.07,57a.5.5,0,0,1-.86.27l-2.49-2.65-3.59.56a.51.51,0,0,1-.52-.72Z" transform="translate(790.52 11224.828)" fill="#ffc359"/>
    <path id="Trazado_190459" data-name="Trazado 190459" d="M309.83,136.28l1.49-2.41-1.19-.49a.51.51,0,0,1-.29-.66h0a.52.52,0,0,1,.67-.29l1.38.56,1.33-2.17-1.28-.51a.52.52,0,0,1-.28-.67h0a.51.51,0,0,1,.66-.28l1.46.59,1.55-2.48a.5.5,0,0,1,.62-.2l.22.09a.51.51,0,0,1,.25.74L315,130.44l2.12.86,1.54-2.49a.51.51,0,0,1,.62-.2l.25.1a.51.51,0,0,1,.24.74l-1.44,2.34,1.2.49a.5.5,0,0,1,.28.66h0a.5.5,0,0,1-.66.28l-1.38-.56-1.31,2.18,1.27.52a.51.51,0,0,1,.29.66h0a.52.52,0,0,1-.67.28l-1.46-.59-1.57,2.56a.52.52,0,0,1-.63.21l-.26-.11a.51.51,0,0,1-.24-.74l1.48-2.41-2.11-.86L311,136.92a.51.51,0,0,1-.62.21l-.26-.11a.51.51,0,0,1-.29-.74Zm5.39-1.93,1.33-2.17-2.12-.86-1.32,2.17Z" transform="translate(790.52 11224.828)" fill="#3ed5fc"/>
    <path id="Trazado_190460" data-name="Trazado 190460" d="M289.91,176.4l-2,10.7c.17.55.69.69,2,1,2.31.65,4.62,1.29,6.91,2a1.56,1.56,0,0,1,.84,1c.5,2.29.86,4.62,1.39,6.91a1.28,1.28,0,0,1-.47,1.57c-2.41,1.89-4.76,3.86-7.11,5.77.92,2.64,4.75,8.38,6.63,9.9,2.55-1.41,5.18-2.81,7.76-4.31a1.47,1.47,0,0,1,2,.15,63.159,63.159,0,0,0,5.65,3.78c.79.48,1.22.87,1.09,1.89-.33,2.65-.5,5.32-.79,8-.08.71.1,1.14.81,1.28l10,2c.82.17.88-.5,1-1,.76-2.49,1.53-5,2.2-7.47a1.68,1.68,0,0,1,1.66-1.43c2.59-.36,5.16-.88,7.93-1.38l6.22,7.56a35,35,0,0,0,9.77-6.69l-4.6-8.42c1.66-2.64,3.26-5.05,4.71-7.55a1.31,1.31,0,0,1,1.54-.79c2.62.29,5.25.49,7.87.76.57.06,1,0,1.19-.59a33.519,33.519,0,0,0,2-9.9,1.06,1.06,0,0,0-.92-1.22c-2.61-.76-5.19-1.57-7.8-2.33a1.23,1.23,0,0,1-1.05-1.14c-.46-2.54-1-5.06-1.67-7.56a1.06,1.06,0,0,1,.44-1.27c2.37-1.94,4.72-3.91,7.14-5.92a37.79,37.79,0,0,0-6.52-9.73l-8.77,4.8-8.17-5.42c.22-2.34.48-5,.7-7.72.18-2.22.53-2-1.75-2.64a3.55,3.55,0,0,1-.61-.32l-6-1.14a7,7,0,0,1-1.38,0c-1.15-.23-1.75.09-2.07,1.33-.66,2.59-1.48,5.13-2.3,7.67a1.4,1.4,0,0,1-.88.8c-2.25.53-4.55.87-6.76,1.52a1.74,1.74,0,0,1-2.21-.74c-1.81-2.27-3.7-4.47-5.75-6.93l-9.77,6.54c.35.66.54,1,.74,1.41,1.27,2.31,2.51,4.63,3.82,6.92a1.32,1.32,0,0,1-.15,1.65c-1.4,2.08-2.66,4.24-4.05,6.33a1.58,1.58,0,0,1-1.19.57c-2.16-.15-4.31-.41-6.46-.59C291,175.84,290.39,175.79,289.91,176.4Zm19.89,9a17.62,17.62,0,0,1,20.57-14.06h0a17.62,17.62,0,0,1,14.05,20.58h0a17.6,17.6,0,0,1-20.57,14h0a17.61,17.61,0,0,1-14.05-20.57Z" transform="translate(790.52 11224.828)" fill="#ffa726"/>
    <path id="Trazado_190461" data-name="Trazado 190461" d="M269.73,50.54l-1.38,7.3c.12.37.48.47,1.36.71,1.57.44,3.15.88,4.71,1.37a1.07,1.07,0,0,1,.58.68c.34,1.57.59,3.16.94,4.72a.84.84,0,0,1-.32,1.07c-1.64,1.3-3.24,2.64-4.85,3.94a22.76,22.76,0,0,0,4.53,6.76c1.74-1,3.54-1.92,5.29-3a1,1,0,0,1,1.38.11,40.51,40.51,0,0,0,3.86,2.58c.53.33.83.59.74,1.29-.23,1.81-.35,3.63-.54,5.45-.06.49.07.77.55.87l6.86,1.34c.56.11.6-.34.7-.68.52-1.69,1-3.39,1.5-5.1a1.14,1.14,0,0,1,1.13-1c1.77-.24,3.52-.6,5.42-.94l4.24,5.16a24.12,24.12,0,0,0,6.68-4.57L310,72.93c1.14-1.8,2.23-3.45,3.22-5.15a.88.88,0,0,1,1.05-.54c1.79.19,3.58.34,5.37.52.39,0,.67,0,.82-.41a23.26,23.26,0,0,0,1.39-6.75.72.72,0,0,0-.63-.83c-1.78-.53-3.55-1.08-5.32-1.59a.84.84,0,0,1-.72-.79c-.31-1.73-.71-3.45-1.14-5.16a.71.71,0,0,1,.3-.86c1.62-1.33,3.22-2.67,4.87-4a25.55,25.55,0,0,0-4.45-6.65l-6,3.28-5.57-3.7c.14-1.6.33-3.43.48-5.27.12-1.51.35-1.34-1.2-1.81A2.35,2.35,0,0,1,302,33l-4.11-.78a4.9,4.9,0,0,1-.94,0c-.79-.16-1.2.06-1.42.9-.45,1.77-1,3.51-1.57,5.25a1,1,0,0,1-.6.54c-1.53.36-3.1.59-4.61,1a1.17,1.17,0,0,1-1.51-.5c-1.23-1.55-2.53-3-3.93-4.73l-6.66,4.46c.23.45.36.71.5,1,.86,1.57,1.71,3.16,2.6,4.72a.89.89,0,0,1-.1,1.13c-.95,1.41-1.81,2.89-2.76,4.31a1,1,0,0,1-.82.39c-1.47-.09-2.93-.27-4.4-.4C270.5,50.15,270.06,50.12,269.73,50.54Zm13.57,6.14a12,12,0,0,1,14.05-9.59h0a12,12,0,0,1,9.59,14h0a12,12,0,0,1-14,9.6h0a12,12,0,0,1-9.6-14.05Z" transform="translate(790.52 11224.828)" fill="#ffca7d"/>
    <path id="Trazado_190462" data-name="Trazado 190462" d="M228.44,107.38l6.33.76-2.7-4.91Z" transform="translate(790.52 11224.828)" fill="#3ed5fc"/>
    <path id="Trazado_190463" data-name="Trazado 190463" d="M253.61,174.27a4.44,4.44,0,0,0,3.69,4.45,4.34,4.34,0,0,0,4.72-3c1.44-3.84-2.77-6.87-5-4.54-2.13,2.17-1.45,5.39.84,5.39.87,0,2.27-.72,1.71-1.77a.35.35,0,0,0-.6,0c-.28.47-.25.49-.39.59a1.11,1.11,0,0,1-.75.22c-2.34,0-.78-5.39,2-4.1a3.09,3.09,0,0,1,1.44,3.94,3.52,3.52,0,0,1-3.43,2.47,4,4,0,0,1-3.57-3.69.29.29,0,1,0-.58,0Z" transform="translate(790.52 11224.828)" fill="#ffa726"/>
    <path id="Trazado_190464" data-name="Trazado 190464" d="M369.31,95l1.9.82s3.16-.71,3.51-1.3.56-2.1,1-2.1a1.35,1.35,0,0,1,1.4,1.27c.09.76-1.19,2.83-1,3.07a10.422,10.422,0,0,0,2,1,1.54,1.54,0,0,1,.91,1.3h0a.8.8,0,0,1-.59.84l-.58.16.14.59a.84.84,0,0,1-.61,1l-.45.1.11.36a.81.81,0,0,1-.62,1l-.39.08v.1a.83.83,0,0,1-.68.87l-.39.06-5-2.17a3.75,3.75,0,0,1-1.25-.87L367,100.14a.43.43,0,0,1-.16-.53l2-4.4a.42.42,0,0,1,.47-.21Z" transform="translate(790.52 11224.828)" fill="#ffa726"/>
    <path id="Trazado_190465" data-name="Trazado 190465" d="M195.54,69.31l1.89.81s3.16-.7,3.52-1.3.56-2.09,1-2.09a1.36,1.36,0,0,1,1.4,1.27c.08.76-1.2,2.82-1,3.07a10.879,10.879,0,0,0,2,1,1.55,1.55,0,0,1,.91,1.31h0a.84.84,0,0,1-.6.84l-.57.16.13.59a.81.81,0,0,1-.61,1l-.44.11.11.36a.82.82,0,0,1-.63,1l-.38.07v.1a.81.81,0,0,1-.68.87l-.38.06-5-2.16a3.82,3.82,0,0,1-1.26-.88l-1.64-1.05a.43.43,0,0,1-.16-.54L195,69.53A.43.43,0,0,1,195.54,69.31Z" transform="translate(790.52 11224.828)" fill="#ffa726"/>
    <rect id="Rectángulo_39619" data-name="Rectángulo 39619" width="46.91" height="23.9" rx="11.95" transform="translate(1066.03 11410.059)" fill="#3190c1"/>
    <path id="Trazado_190466" data-name="Trazado 190466" d="M270.74,420.81l-36.25,16.71v3.7h129.1v-3.7l-36.58-16.71Z" transform="translate(790.52 11224.828)" fill="#3190c1"/>
    <rect id="Rectángulo_39620" data-name="Rectángulo 39620" width="56.29" height="71.65" transform="translate(1061.26 11574.028)" fill="#3190c1"/>
    <path id="Trazado_190467" data-name="Trazado 190467" d="M469.23,371.67V210.11a13.9,13.9,0,0,0-13.9-13.9H142.08a13.9,13.9,0,0,0-13.9,13.9V371.67Z" transform="translate(790.52 11224.828)" fill="#3190c1"/>
    <rect id="Rectángulo_39621" data-name="Rectángulo 39621" width="129.1" height="3.7" transform="translate(1025.01 11662.348)" fill="#024e73" opacity="0.3"/>
    <rect id="Rectángulo_39622" data-name="Rectángulo 39622" width="56.27" height="8.41" transform="translate(1061.26 11637.238)" fill="#024e73" opacity="0.3"/>
    <path id="Trazado_190468" data-name="Trazado 190468" d="M128.18,371.67v25.89c0,5.39,3.56,9.75,7.95,9.75H461.28c4.39,0,8-4.36,8-9.75V371.67Z" transform="translate(790.52 11224.828)" fill="#024e73"/>
    <circle id="Elipse_7776" data-name="Elipse 7776" cx="3.17" cy="3.17" r="3.17" transform="translate(1085.942 11418.755) rotate(-76.72)" fill="#024e73"/>
    <path id="Trazado_190469" data-name="Trazado 190469" d="M461.25,364.66V210.54a7.44,7.44,0,0,0-7.58-7.31H143.74a7.44,7.44,0,0,0-7.58,7.31V364.66Z" transform="translate(790.52 11224.828)" fill="#dff0f4"/>
    <rect id="Rectángulo_39623" data-name="Rectángulo 39623" width="195.39" height="136.34" transform="translate(940.96 11440.498)" fill="#eefbff"/>
    <rect id="Rectángulo_39624" data-name="Rectángulo 39624" width="195.39" height="15.96" transform="translate(940.96 11440.498)" fill="#3ed5fc"/>
    <rect id="Rectángulo_39625" data-name="Rectángulo 39625" width="13.34" height="103.23" transform="translate(1205.89 11474.608)" fill="#7be0fd" opacity="0.6"/>
    <rect id="Rectángulo_39626" data-name="Rectángulo 39626" width="13.34" height="71.75" transform="translate(1187.26 11506.098)" fill="#7be0fd" opacity="0.6"/>
    <rect id="Rectángulo_39627" data-name="Rectángulo 39627" width="13.34" height="80.87" transform="translate(1224.78 11496.968)" fill="#7be0fd" opacity="0.6"/>
    <rect id="Rectángulo_39628" data-name="Rectángulo 39628" width="13.34" height="84.05" transform="translate(1168.63 11493.788)" fill="#7be0fd" opacity="0.6"/>
    <rect id="Rectángulo_39629" data-name="Rectángulo 39629" width="13.34" height="59.13" transform="translate(1150.01 11518.708)" fill="#7be0fd" opacity="0.6"/>
    <rect id="Rectángulo_39630" data-name="Rectángulo 39630" width="13.34" height="79.44" transform="translate(1205.89 11498.398)" fill="#3190c1" opacity="0.3"/>
    <rect id="Rectángulo_39631" data-name="Rectángulo 39631" width="13.34" height="55.21" transform="translate(1187.26 11522.628)" fill="#3190c1" opacity="0.3"/>
    <rect id="Rectángulo_39632" data-name="Rectángulo 39632" width="13.34" height="62.23" transform="translate(1224.78 11515.608)" fill="#3190c1" opacity="0.3"/>
    <rect id="Rectángulo_39633" data-name="Rectángulo 39633" width="13.34" height="64.68" transform="translate(1168.63 11513.168)" fill="#3190c1" opacity="0.3"/>
    <rect id="Rectángulo_39634" data-name="Rectángulo 39634" width="13.34" height="45.5" transform="translate(1150.01 11532.338)" fill="#3190c1" opacity="0.3"/>
    <rect id="Rectángulo_39635" data-name="Rectángulo 39635" width="180.35" height="23.15" transform="translate(947.7 11463.028)" fill="#7be0fd" opacity="0.6"/>
    <rect id="Rectángulo_39636" data-name="Rectángulo 39636" width="116.08" height="5.93" transform="translate(1011.97 11492.758)" fill="#7be0fd" opacity="0.6"/>
    <rect id="Rectángulo_39637" data-name="Rectángulo 39637" width="57.1" height="68.47" transform="translate(947.7 11492.758)" fill="#3190c1"/>
    <rect id="Rectángulo_39638" data-name="Rectángulo 39638" width="116.08" height="5.93" transform="translate(1011.97 11505.258)" fill="#7be0fd" opacity="0.6"/>
    <rect id="Rectángulo_39639" data-name="Rectángulo 39639" width="116.08" height="5.93" transform="translate(1011.97 11542.778)" fill="#7be0fd" opacity="0.6"/>
    <rect id="Rectángulo_39640" data-name="Rectángulo 39640" width="116.08" height="5.93" transform="translate(1011.97 11555.288)" fill="#7be0fd" opacity="0.6"/>
    <rect id="Rectángulo_39641" data-name="Rectángulo 39641" width="114.31" height="148.76" rx="2.95" transform="translate(863.212 11517.311) rotate(-0.1)" fill="#ffa726"/>
    <rect id="Rectángulo_39642" data-name="Rectángulo 39642" width="102.41" height="139.63" transform="translate(869.169 11521.45) rotate(-0.1)" fill="#fff"/>
    <path id="Trazado_190470" data-name="Trazado 190470" d="M152.07,290.37a1.14,1.14,0,0,0-1.14-1.14l-43,.08a1.14,1.14,0,0,0-1.14,1.14v4.47l45.27-.08Z" transform="translate(790.52 11224.828)" fill="#024e73"/>
    <path id="Trazado_190471" data-name="Trazado 190471" d="M129.42,283.84a6.77,6.77,0,1,0,4.8,1.976A6.78,6.78,0,0,0,129.42,283.84Zm0,11.13a1.7,1.7,0,1,1,.02.03Z" transform="translate(790.52 11224.828)" fill="#024e73"/>
    <path id="Trazado_190472" data-name="Trazado 190472" d="M151.37,289.32a1.14,1.14,0,0,1,.7,1.05v4.47l-45.27.08a5.61,5.61,0,0,0,5.62,5.6l34.06-.07a5.6,5.6,0,0,0,5.59-5.61v-4.47A1.14,1.14,0,0,0,151.37,289.32Z" transform="translate(790.52 11224.828)" fill="#3190c1"/>
    <path id="Trazado_190473" data-name="Trazado 190473" d="M107.93,289.31h0a1.15,1.15,0,0,0-1,.5,1.15,1.15,0,0,1,1-.5Z" transform="translate(790.52 11224.828)" fill="#9bc1f9"/>
    <path id="Trazado_190474" data-name="Trazado 190474" d="M106.84,290.11a.72.72,0,0,1,.09-.2.72.72,0,0,0-.09.2Z" transform="translate(790.52 11224.828)" fill="#9bc1f9"/>
    <path id="Trazado_190475" data-name="Trazado 190475" d="M169.34,337.63H154.78V323.07h14.56Zm-14-.57h13.37V323.69H155.34Z" transform="translate(790.52 11224.828)" fill="#024e73"/>
    <path id="Trazado_190476" data-name="Trazado 190476" d="M169.38,361.86H154.82V347.3h14.55Zm-14-.57h13.36V347.92H155.37Z" transform="translate(790.52 11224.828)" fill="#024e73"/>
    <path id="Trazado_190477" data-name="Trazado 190477" d="M169.42,386.08H154.87V371.52h14.56Zm-14-.57h13.37V372.14H155.43Z" transform="translate(790.52 11224.828)" fill="#024e73"/>
    <path id="Trazado_190478" data-name="Trazado 190478" d="M169.47,410.3H154.91V395.74h14.56Zm-14-.57h13.37V396.36H155.47Z" transform="translate(790.52 11224.828)" fill="#024e73"/>
    <rect id="Rectángulo_39643" data-name="Rectángulo 39643" width="62.31" height="2.1" transform="translate(876.856 11548.347) rotate(-0.1)" fill="#7be0fd"/>
    <rect id="Rectángulo_39644" data-name="Rectángulo 39644" width="62.31" height="2.1" transform="translate(876.866 11554.287) rotate(-0.1)" fill="#7be0fd"/>
    <rect id="Rectángulo_39645" data-name="Rectángulo 39645" width="62.31" height="2.1" transform="translate(876.867 11560.217) rotate(-0.1)" fill="#7be0fd"/>
    <rect id="Rectángulo_39646" data-name="Rectángulo 39646" width="62.31" height="2.1" transform="translate(876.89 11573.396) rotate(-0.1)" fill="#7be0fd"/>
    <rect id="Rectángulo_39647" data-name="Rectángulo 39647" width="62.31" height="2.1" transform="translate(876.91 11579.337) rotate(-0.1)" fill="#7be0fd"/>
    <rect id="Rectángulo_39648" data-name="Rectángulo 39648" width="62.31" height="2.1" transform="translate(876.921 11585.267) rotate(-0.1)" fill="#7be0fd"/>
    <rect id="Rectángulo_39649" data-name="Rectángulo 39649" width="62.31" height="2.1" transform="translate(876.941 11597.137) rotate(-0.1)" fill="#7be0fd"/>
    <rect id="Rectángulo_39650" data-name="Rectángulo 39650" width="62.31" height="2.1" transform="translate(876.952 11603.066) rotate(-0.1)" fill="#7be0fd"/>
    <rect id="Rectángulo_39651" data-name="Rectángulo 39651" width="62.31" height="2.1" transform="translate(876.962 11609.007) rotate(-0.1)" fill="#7be0fd"/>
    <rect id="Rectángulo_39652" data-name="Rectángulo 39652" width="62.31" height="2.1" transform="translate(876.983 11620.877) rotate(-0.1)" fill="#7be0fd"/>
    <rect id="Rectángulo_39653" data-name="Rectángulo 39653" width="62.31" height="2.1" transform="translate(876.983 11626.807) rotate(-0.1)" fill="#7be0fd"/>
    <rect id="Rectángulo_39654" data-name="Rectángulo 39654" width="62.31" height="2.1" transform="translate(876.994 11632.736) rotate(-0.1)" fill="#7be0fd"/>
    <rect id="Rectángulo_39655" data-name="Rectángulo 39655" width="71.88" height="2.1" transform="translate(877.031 11648.087) rotate(-0.1)" fill="#7be0fd"/>
    <rect id="Rectángulo_39656" data-name="Rectángulo 39656" width="86.06" height="2.1" transform="translate(877.04 11653.156) rotate(-0.1)" fill="#7be0fd"/>
    <path id="Trazado_190479" data-name="Trazado 190479" d="M161.99,335.25l-4.52-7.76,1.61-.94,2.63,4.5,4.28-10.27,1.73.72Z" transform="translate(790.52 11224.828)" fill="#fe544e"/>
    <path id="Trazado_190480" data-name="Trazado 190480" d="M162.03,359.79l-4.52-7.75,1.62-.95,2.62,4.51,4.28-10.28,1.73.72Z" transform="translate(790.52 11224.828)" fill="#fe544e"/>
    <path id="Trazado_190481" data-name="Trazado 190481" d="M162.12,407.77l-4.52-7.75,1.61-.95,2.63,4.51,4.28-10.28,1.73.72Z" transform="translate(790.52 11224.828)" fill="#fe544e"/>
    <path id="Trazado_190482" data-name="Trazado 190482" d="M167.15,375.14l-1.3-1.32-3.72,3.69-3.73-3.67-1.3,1.32,3.71,3.66-3.7,3.67,1.3,1.31,3.72-3.68,3.74,3.67,1.3-1.32-3.72-3.66Z" transform="translate(790.52 11224.828)" fill="#fe544e"/>
    <path id="Trazado_190483" data-name="Trazado 190483" d="M89.22,389.42a26.58,26.58,0,0,0-10.38,2.09v3.41a23.73,23.73,0,0,1,23.23,41.3h5.11c.37-.33.73-.67,1.08-1a26.83,26.83,0,0,0-19-45.76Z" transform="translate(790.52 11224.828)" fill="#7be0fd" opacity="0.3"/>
    <path id="Trazado_190484" data-name="Trazado 190484" d="M89.23,396.69a19.48,19.48,0,0,0-10.38,3v1.86a17.8,17.8,0,0,1,10.37-3.32A18,18,0,1,1,78.91,431v1.86a19.55,19.55,0,1,0,10.32-36.14Z" transform="translate(790.52 11224.828)" fill="#7be0fd" opacity="0.3"/>
    <path id="Trazado_190485" data-name="Trazado 190485" d="M108.12,316.65v-7h-2.78v-.61h6.44v.61H109v7Z" transform="translate(790.52 11224.828)" fill="#024e73"/>
    <path id="Trazado_190486" data-name="Trazado 190486" d="M118.88,316v.61H113.3v-7.58h5.39v.61h-4.52v2.66h3.27v.7h-3.27v3Z" transform="translate(790.52 11224.828)" fill="#024e73"/>
    <path id="Trazado_190487" data-name="Trazado 190487" d="M119.77,314.84l.76-.25a2.74,2.74,0,0,0,1,1.19,2.61,2.61,0,0,0,1.46.39,2.33,2.33,0,0,0,1.43-.4,1.28,1.28,0,0,0,.54-1.07,1.18,1.18,0,0,0-.35-.87,3.27,3.27,0,0,0-1.21-.62l-1.23-.36a10.127,10.127,0,0,1-1-.31,2.76,2.76,0,0,1-1-.68,1.4,1.4,0,0,1-.29-.89,1.75,1.75,0,0,1,.72-1.48,3.22,3.22,0,0,1,2-.54,3.47,3.47,0,0,1,1.85.44,2.75,2.75,0,0,1,1.1,1.36l-.73.19a2.47,2.47,0,0,0-.9-1.05,2.61,2.61,0,0,0-1.36-.33,2,2,0,0,0-1.26.36,1.12,1.12,0,0,0-.49.95,1,1,0,0,0,.32.74,2.25,2.25,0,0,0,1,.49c.17.06.42.13.74.21a10.341,10.341,0,0,1,1.78.61,2.51,2.51,0,0,1,.93.74,1.58,1.58,0,0,1,.29.95,1.88,1.88,0,0,1-.78,1.58,3.36,3.36,0,0,1-2.1.59,3.69,3.69,0,0,1-2-.47A3.17,3.17,0,0,1,119.77,314.84Z" transform="translate(790.52 11224.828)" fill="#024e73"/>
    <path id="Trazado_190488" data-name="Trazado 190488" d="M129.44,316.65v-7h-2.78v-.61h6.44v.61h-2.78v7Z" transform="translate(790.52 11224.828)" fill="#024e73"/>
    <path id="Trazado_190489" data-name="Trazado 190489" d="M134.76,316.65v-7.58h.87v7.58Z" transform="translate(790.52 11224.828)" fill="#024e73"/>
    <path id="Trazado_190490" data-name="Trazado 190490" d="M139.13,309.62v7h-.85v-7.58h1.42l4.5,6.4v-6.4h.8v7.58h-.92Z" transform="translate(790.52 11224.828)" fill="#024e73"/>
    <path id="Trazado_190491" data-name="Trazado 190491" d="M153,315.8a3,3,0,0,1-1.11.75,4,4,0,0,1-1.49.25,3.4,3.4,0,0,1-2.66-1,4.24,4.24,0,0,1-.92-2.93,4.17,4.17,0,0,1,.94-2.92,3.92,3.92,0,0,1,4.65-.48,3.12,3.12,0,0,1,1.12,1.71l-.82.14a2.69,2.69,0,0,0-.87-1.35,2.33,2.33,0,0,0-1.46-.44,2.38,2.38,0,0,0-2,.85,3.72,3.72,0,0,0-.69,2.41,3.94,3.94,0,0,0,.7,2.54,2.54,2.54,0,0,0,2.09.85,2.69,2.69,0,0,0,1.67-.48,1.53,1.53,0,0,0,.64-1.28v-.81H150.5V313h3.28v3.61H153Z" transform="translate(790.52 11224.828)" fill="#024e73"/>
    <g id="Grupo_93981" data-name="Grupo 93981" transform="translate(790.52 11224.828)">
      <g id="Grupo_93979" data-name="Grupo 93979">
        <path id="Trazado_190492" data-name="Trazado 190492" d="M276.66,109.63l-1.06,11.12,7.65-6,23.62-13.17-18.56,2.38s-9.39,2.65-9.89,3.13a22.376,22.376,0,0,0-1.76,2.54Z" fill="#024e73"/>
        <path id="Trazado_190493" data-name="Trazado 190493" d="M268.18,103.25l38.69-1.69-30.21,8.07Z" fill="#3190c1"/>
        <path id="Trazado_190494" data-name="Trazado 190494" d="M289.51,120.32l-10.44-7.78,27.8-10.98Z" fill="#3190c1"/>
      </g>
      <g id="Grupo_93980" data-name="Grupo 93980">
        <path id="Trazado_190495" data-name="Trazado 190495" d="M224.17,151.38a24.6,24.6,0,0,1,.4-2.67c.17-.81.39-1.63.64-2.43l.87.27c-.24.78-.45,1.57-.61,2.35a22.46,22.46,0,0,0-.39,2.57,4.682,4.682,0,0,1-.06.75l-.91-.06Q224.13,151.76,224.17,151.38Zm3.43-10.57a34.048,34.048,0,0,1,3.4-4.91l.71.58a33.128,33.128,0,0,0-3.29,4.78Zm28.83-2.87-.16-.1.48-.77.13.08h.09a4.16,4.16,0,0,0,2.52-.4,3.91,3.91,0,0,0,1.42-1.73l.83.37a4.8,4.8,0,0,1-1.75,2.12,5.1,5.1,0,0,1-3.2.54A1.631,1.631,0,0,1,256.43,137.94Zm-21.36-6.35a46,46,0,0,1,4.63-3.73l.52.74a48.07,48.07,0,0,0-4.54,3.66Zm17.46-.63a11.319,11.319,0,0,1,.24-2.69,12.069,12.069,0,0,1,.4-1.48l.87.29a10.89,10.89,0,0,0-.6,3.85,8.842,8.842,0,0,0,.25,1.69l-.89.22a10,10,0,0,1-.27-1.84Zm4.21-4.8h-.12l.36-.84.13.06a9.21,9.21,0,0,1,4.41,4l-.81.43a8.22,8.22,0,0,0-3.97-3.65Zm-11.6-.81a20.549,20.549,0,0,1,3.79-1c.76-.07,1.45-.1,2.11-.1v.91a13.671,13.671,0,0,0-2,.1,18.32,18.32,0,0,0-3.57,1Zm11-3.81a19.839,19.839,0,0,1,4.38-4.1l.52.75a19.23,19.23,0,0,0-4.19,3.91Z" fill="#eefbff"/>
        <path id="Trazado_190496" data-name="Trazado 190496" d="M266.14,115.66A17.332,17.332,0,0,1,269,115l-.13-.9a19.05,19.05,0,0,0-3,.68Z" fill="#eefbff"/>
      </g>
    </g>
    <g id="Grupo_93983" data-name="Grupo 93983" transform="translate(790.52 11224.828)">
      <path id="Trazado_190497" data-name="Trazado 190497" d="M206.84,141.53c.39,0,1.46.37,3,3.33,2,3.78,4.92,15.21,4.92,15.21l-8.73,3.25-1.12-2.39-1.85-18.35S206.73,141.52,206.84,141.53Z" fill="#dff0f4"/>
      <path id="Trazado_190498" data-name="Trazado 190498" d="M195.3,139.88a53,53,0,0,1,11.54,1.65s2.1,18.1-1.9,31.85c-.9,3.08.74,12.76.74,12.76l-25.86-.34s3.06-23.41,1.91-27.19-1.19-17-1.19-17l5.82-1a58.1,58.1,0,0,1,8.94-.73Z" fill="#eefbff"/>
      <path id="Trazado_190499" data-name="Trazado 190499" d="M192.28,219.74s.58,6.6,1.63,8.43-.06,4.94-.11,5.37-2.22,1-5.65.67-3.38-1.16-3.1-2.44,2.1-2.93,2.21-4.15a32.826,32.826,0,0,0-1-5.61Z" fill="#f7a491"/>
      <path id="Trazado_190500" data-name="Trazado 190500" d="M202.76,180.69s17.86-1,21.85,1.43-2.84,14.26-2.84,14.26-12.42-.57-36.76.83c-5.76.34-6.26-15-5.18-16.29S202.76,180.69,202.76,180.69Z" fill="#ffa726"/>
      <path id="Trazado_190501" data-name="Trazado 190501" d="M187.72,234.72c-3.53-.38-3.1-2.11-2.81-3.43.18-.83,1.19-1.8,1.8-2.72a6,6,0,0,0,2.36,1.15c1.59.47,3.78-.46,5.17-1.05a17.339,17.339,0,0,1,.48,4.56C194.66,233.67,191.26,235.1,187.72,234.72Z" fill="#fe544e"/>
      <path id="Trazado_190502" data-name="Trazado 190502" d="M189.67,193.47c.72,5.39,4.25,32.27,4.25,32.27l-8.2,1s-10.08-35.07-9.56-40.44,4.29-5.81,4.29-5.81S187.78,179.18,189.67,193.47Z" fill="#ffca7d"/>
      <path id="Trazado_190503" data-name="Trazado 190503" d="M180.26,143.66c2.42-.91,3.6,20.88,3.93,29.85a104.136,104.136,0,0,0,13.61-.13c.87-.07,2.89-.81,3.76-.92a8.3,8.3,0,0,1,2.13-.1,40.592,40.592,0,0,1,5,2.25c.47.5,1.75,1.75,1.54,2.29s-2.47-1.51-2.47-1.51l-1.09-.61c1.36,1.33,4,3.09,3.59,3.73s-2.71-1.16-4.39-2.38c1.44,1.3,3.22,3.63,2.81,4s-2.4-2.37-4.57-3.14c-.8-.29-1.61.51-2.24.6a4.54,4.54,0,0,1-1.64.09l-2.35-.66c-.8.07-.82.54-1.63.72s-2.48.41-3.67.7c-6.89,1.68-9.18,2.46-11.29,2.46C174.92,180.89,174.55,145.8,180.26,143.66Z" fill="#f7a491"/>
      <path id="Trazado_190504" data-name="Trazado 190504" d="M175.67,164.12c-.45-9.19-.38-20.51,4.77-22.44,2-.77,5.61,3.82,5,22.62A38.9,38.9,0,0,1,175.67,164.12Z" fill="#dff0f4"/>
      <path id="Trazado_190505" data-name="Trazado 190505" d="M217.1,226.14a4.48,4.48,0,0,0-.25,3.85c.93,1.75,5.82,4.33,6.33,5.28a2.29,2.29,0,0,1,.31,1.62L209,233.33l1.11-4.37,1.36-3Z" fill="#f7a491"/>
      <path id="Trazado_190506" data-name="Trazado 190506" d="M217.6,230.92s-4.08.71-5.7-.58-1.5-1.53-2.1-1.31c-.38.14-1,1.89-1.34,3.11a1.2,1.2,0,0,0,.86,1.5l15.11,3.74c1.15.22,1.91-.5,1.14-1.42a14.36,14.36,0,0,0-1.56-1.45C222.88,233.49,217.6,230.92,217.6,230.92Z" fill="#fe544e"/>
      <path id="Trazado_190507" data-name="Trazado 190507" d="M215.68,184.92c1.16-2.42,3.78-5.59,8.4-3.68,4.41,1.81,5.59,6.28,4.2,10.85s-10.54,31.45-10.86,35.14l-7.31.05s1.33-21.28,1.66-26.42a50,50,0,0,1,3.91-15.94Z" fill="#ffca7d"/>
      <path id="Trazado_190508" data-name="Trazado 190508" d="M227.54,160.17H203.12a1.59,1.59,0,0,0-1.47,1l-7.52,18.4H180.67a.69.69,0,0,0-.69.69h0a.68.68,0,0,0,.69.68H219a2.67,2.67,0,0,0,2.44-1.58L229,162.42a1.6,1.6,0,0,0-1.46-2.25Z" fill="#fe544e"/>
      <path id="Trazado_190509" data-name="Trazado 190509" d="M214.39,170.89a1.43,1.43,0,0,1-1.6,1.23,1.54,1.54,0,1,1,1.6-1.23Z" fill="#fff"/>
      <g id="Grupo_93982" data-name="Grupo 93982">
        <path id="Trazado_190510" data-name="Trazado 190510" d="M201.1,117.77a17.339,17.339,0,0,1-2.16-.86,11,11,0,0,0-2.46-.93c-1.37-.21-3.71-.07-5,1.33-1.61,1.75-4.47.32-3.9,9.47.66,10.36,6.42,9.22,6.56,9.05l5.13-6.63S201,133,201,132.88,209.94,120.75,201.1,117.77Z" fill="#024e73"/>
        <path id="Trazado_190511" data-name="Trazado 190511" d="M196.73,136.59l.5,3.7s1.11,5.34-.32,6.36-6.1-6.51-6.1-6.51l.49-9.38Z" fill="#f7a491"/>
        <path id="Trazado_190512" data-name="Trazado 190512" d="M191.15,133.8a10.6,10.6,0,0,0,6,5.93l-.42-3.14-5.43-5.83Z" fill="#f47458"/>
        <path id="Trazado_190513" data-name="Trazado 190513" d="M196.43,120.56a4.94,4.94,0,0,1,5.69,5,35.9,35.9,0,0,1-.42,4.74c-.66,4.28-3.57,8-5.5,7.7s-6.78-4-5.92-10.1C190.8,124.14,193.25,121.07,196.43,120.56Z" fill="#f7a491"/>
        <path id="Trazado_190514" data-name="Trazado 190514" d="M191.61,128.62a1.59,1.59,0,0,1-1.68,1.46,1.61,1.61,0,0,1-1.09-2,1.44,1.44,0,1,1,2.77.49Z" fill="#f7a491"/>
        <path id="Trazado_190515" data-name="Trazado 190515" d="M190.52,126.67s2.33.58,3.2-.92,3.95-4.73,7.89-3.39-3.46-3.26-3.78-3.26h-4.09a39.687,39.687,0,0,0-3,2.66c-.09.26-.94,3.13-.94,3.13Z" fill="#024e73"/>
      </g>
      <path id="Trazado_190516" data-name="Trazado 190516" d="M194.79,132.93l4.24.81a1.88,1.88,0,0,1-2.28,1.29C194.46,134.67,194.79,132.93,194.79,132.93Z" fill="#fff"/>
    </g>
    <path id="Trazado_190517" data-name="Trazado 190517" d="M244.12,424.92s-.78,5.41-2.11,7.16a13.621,13.621,0,0,0-1.81,2.39c-.83,1.65-.37,4.1.25,5.45.31.7,0,.7.7.92a4.42,4.42,0,0,0,5.31-2.51,12.759,12.759,0,0,0,1-4.61c.22-4.92,1.74-7.42,1.74-7.42Z" transform="translate(790.52 11224.828)" fill="#f7a491"/>
    <path id="Trazado_190518" data-name="Trazado 190518" d="M267.48,427.39s.48,6.11.09,8.09c-.21,1.06-1.37,3.25-.84,4.25a2.71,2.71,0,0,0,1.15,1.25l13.78.22c.76,0,.26-.47-.35-.92a28.621,28.621,0,0,0-4.95-2.76c-.21-.1-1-.58-1.23-.74a9.818,9.818,0,0,1-2-1.76c-1-1.1-1.07-6.48-1.07-6.48Z" transform="translate(790.52 11224.828)" fill="#f7a491"/>
    <path id="Trazado_190519" data-name="Trazado 190519" d="M278.26,346.24s1.74,9.91.6,16.41-6.62,66.74-6.62,66.74l-6.08.34s-1.27-25.16-1.05-28.66a54.543,54.543,0,0,1,2-9.36l-.61-20.31,7.68-26.69Z" transform="translate(790.52 11224.828)" fill="#3ed5fc"/>
    <path id="Trazado_190520" data-name="Trazado 190520" d="M260.39,344.15s-4.79,7.25-5.93,13.25.83,24.44-1.36,32.3c-1.19,4.25-5.69,10.82-6.37,16.32s-3.37,19.91-3.37,19.91l6.08,1.21,14.13-36,11.08-32.51,2.84-16.75Z" transform="translate(790.52 11224.828)" fill="#7be0fd"/>
    <path id="Trazado_190521" data-name="Trazado 190521" d="M246.88,437.25a6.78,6.78,0,0,1-6.67-2.8c-.84,1.65-1.25,4.12-.63,5.47.55,1.2,2.14,1.17,3.39,1.21a3.28,3.28,0,0,0,3-1.85,12,12,0,0,0,.91-2.03Z" transform="translate(790.52 11224.828)" fill="#eefbff"/>
    <path id="Trazado_190522" data-name="Trazado 190522" d="M275.12,436.78a12.44,12.44,0,0,1-7.85-.31c-.39,1.1-.9,2.49-.63,3.3.34,1,.81,1.2,1.24,1.21,3.33.09,12.2.21,14.74.24a.41.41,0,0,0,.32-.68C282.31,439.78,275.4,436.94,275.12,436.78Z" transform="translate(790.52 11224.828)" fill="#eefbff"/>
    <path id="Trazado_190523" data-name="Trazado 190523" d="M300.09,329.12c.25-.54-2.43-1.28-2.52-1.86s3.51-.26,3.69-.74c.33-.89-3.91-.6-3.79-1s4.49-.94,4.11-1.72-4.47,1-4.53.49,3.94-1.32,4-2.42c0-.59-6.68,2.25-7.38,1.86s1.11-3,.56-3.46-2.89,5-3.32,5.12-9.62,2.93-12.74,3.39c-.27-1.05-2.62-6.88-2.84-7.88-1.84,1-4.18-.21-6.06.72.95,3.33,3.07,14.32,3.92,14.81,2.58,1.51,16.18-5.67,18.43-6.94s3.4-.67,4.86-1S299.83,329.66,300.09,329.12Z" transform="translate(790.52 11224.828)" fill="#f38b80"/>
    <path id="Trazado_190524" data-name="Trazado 190524" d="M275.89,296.75c.69-3.11,1.36-6.23-.45-9.65a8.78,8.78,0,0,0-6.9-4.7c-8.27-1-6.5,6.74-18.06,8.41-3.59.52-6.93,1-9.93,2.81-5.41,3.22-7.46,8.4-3.87,16.83,8.8,20.64,29.84,2.7,33.05-.95S275.45,298.75,275.89,296.75Z" transform="translate(790.52 11224.828)" fill="#024e73"/>
    <path id="Trazado_190525" data-name="Trazado 190525" d="M262.87,306.57s-4.17.47-6.67,3.19,4,24.56,4.49,28-4.34,13-4.34,13,16.31,3.24,20.55.44c0,0,.37-26.73-.08-29.2s-4.24-12.52-5.15-13.51S262.87,306.57,262.87,306.57Z" transform="translate(790.52 11224.828)" fill="#ffa726"/>
    <path id="Trazado_190526" data-name="Trazado 190526" d="M265,298.14a2.1,2.1,0,0,1-.09.51c-.29,1.51-1.37,6.54-2.1,7.92-.89,1.67,3,7,6.8,6.34,1.12-.19-.95-4.89-.85-5.39.19-.95.45-2.25.71-3.58.15-.75.3-1.52.44-2.23l.73-3.71Z" transform="translate(790.52 11224.828)" fill="#f7a491"/>
    <path id="Trazado_190527" data-name="Trazado 190527" d="M264.89,298.65c.05-.32.09-.51.09-.51l5.64-.14-.73,3.71c-.14.71-.29,1.47-.44,2.21a5.25,5.25,0,0,1-2.69-1.34,7.15,7.15,0,0,1-2.05-3Q264.815,299,264.89,298.65Z" transform="translate(790.52 11224.828)" fill="#f47458" opacity="0.5"/>
    <path id="Trazado_190528" data-name="Trazado 190528" d="M268.37,284.72a6.66,6.66,0,0,0-4,2.48c-1.67,2.15-3.46,8.81.68,12.43s8.24-.48,8.85-4.82S274.41,284.57,268.37,284.72Z" transform="translate(790.52 11224.828)" fill="#f7a491"/>
    <path id="Trazado_190529" data-name="Trazado 190529" d="M275.14,293.73c-.27,1-.95,1.76-1.54,1.59s-.85-1.17-.58-2.22.94-1.75,1.53-1.58S275.4,292.69,275.14,293.73Z" transform="translate(790.52 11224.828)" fill="#f7a491"/>
    <path id="Trazado_190530" data-name="Trazado 190530" d="M270.93,284.74s-5.41,6.22-7.95,6.51-2.88,3.66-2.88,3.66.91-7.76,3.43-9.25S270.93,284.74,270.93,284.74Z" transform="translate(790.52 11224.828)" fill="#024e73"/>
    <path id="Trazado_190531" data-name="Trazado 190531" d="M263.81,292.76c.2,1.12-.21,2.15-.93,2.3s-1.47-.64-1.68-1.77.21-2.15.93-2.3S263.6,291.63,263.81,292.76Z" transform="translate(790.52 11224.828)" fill="#f7a491"/>
    <rect id="Rectángulo_39657" data-name="Rectángulo 39657" width="25.5" height="19.6" rx="0.96" transform="translate(1049.601 11574.189) rotate(-81.68)" fill="#024e73"/>
    <path id="Trazado_190532" data-name="Trazado 190532" d="M276.77,325.43a.18.18,0,0,0-.16-.22l-7.3-1.07a.2.2,0,0,0-.22.16l-.11.76,7.68,1.12Z" transform="translate(790.52 11224.828)" fill="#dff0f4"/>
    <path id="Trazado_190533" data-name="Trazado 190533" d="M273.1,323.75a1.16,1.16,0,1,0,.777.45A1.16,1.16,0,0,0,273.1,323.75Zm-.28,1.89a.75.75,0,1,1,.85-.63A.75.75,0,0,1,272.82,325.64Z" transform="translate(790.52 11224.828)" fill="#dff0f4"/>
    <path id="Trazado_190534" data-name="Trazado 190534" d="M276.68,325.23a.18.18,0,0,1,.09.2l-.11.75L269,325.06a1,1,0,0,0,.81,1.09l5.78.85a1,1,0,0,0,1.09-.82l.11-.75A.18.18,0,0,0,276.68,325.23Z" transform="translate(790.52 11224.828)" fill="#eefbff"/>
    <path id="Trazado_190535" data-name="Trazado 190535" d="M271.34,297H267.4a1.71,1.71,0,0,0,1.81,1.55C271.32,298.57,271.34,297,271.34,297Z" transform="translate(790.52 11224.828)" fill="#fff"/>
    <path id="Trazado_190536" data-name="Trazado 190536" d="M251.46,330.26l6.34.65s-.11,5.37,0,6c0,0,10.84,3,15.37,3.82,0,0,2.06-1.17,2.89-1.54a20,20,0,0,1,3.58-.84c.49-.07.32.48-.1.67a4.12,4.12,0,0,0-1.84,1.34,3.4,3.4,0,0,0,1.36-.11c.48-.21,1.13-.66,1.14-.89s.12-.79.27-.76.1.19.15.38l.15.55c.08.33.17.82.2,1a15.234,15.234,0,0,1-.26,2.34c-.08.89-.33,1.28-.8,1.5a11,11,0,0,1-2.72.55,17.92,17.92,0,0,1-5-.49c-.86-.1-14.66-1.47-14.66-1.47s-5.49-.79-5.85-1.73S251.46,330.26,251.46,330.26Z" transform="translate(790.52 11224.828)" fill="#f7a491"/>
    <path id="Trazado_190537" data-name="Trazado 190537" d="M257,309s-2,.95-3.76,5c-1.67,3.89-2.16,23.32-2.16,23.32l6.62-1.11,3.37-9.05a16.63,16.63,0,0,0-1.71-16.52C258.39,309.37,257.53,308.6,257,309Z" transform="translate(790.52 11224.828)" fill="#ffa726"/>
    <rect id="Rectángulo_39658" data-name="Rectángulo 39658" width="28.13" height="28.13" transform="translate(1152 11440.479)" fill="#7be0fd" opacity="0.6"/>
    <rect id="Rectángulo_39659" data-name="Rectángulo 39659" width="54.88" height="3.82" transform="translate(1185.11 11440.479)" fill="#7be0fd" opacity="0.6"/>
    <rect id="Rectángulo_39660" data-name="Rectángulo 39660" width="37.04" height="3.82" transform="translate(1185.11 11448.588)" fill="#7be0fd" opacity="0.6"/>
    <rect id="Rectángulo_39661" data-name="Rectángulo 39661" width="49.3" height="3.82" transform="translate(1185.11 11456.688)" fill="#7be0fd" opacity="0.6"/>
    <path id="Trazado_190538" data-name="Trazado 190538" d="M468.36,309.05c-1.15-.94-10,3-9.93,4.32s-6.2,14.53-6.2,14.53l-10.92-8.7h0c-.09-.32-1.13-3.7-1.18-4.31s-1.9-1.74-2.75-1.58.73,1.24.83,1.43c.29.54-.81.74-.81.74s-3.12-1-3.19-2-2.2,1.78-1.94,2.17,5.33,4.48,6.07,5.37c0,0,14.12,16.15,15.13,16.57s4-5.19,7-8.89S472,312,468.36,309.05Z" transform="translate(790.52 11224.828)" fill="#f7a491"/>
    <path id="Trazado_190539" data-name="Trazado 190539" d="M496.86,427.77s1.94,1.89,2,2.59.17,8.14-.62,8.83-3.12,1.19-2.38,2c.57.59,4.92.47,7.8.31.85-.05,1.9-6.76,2.23-7.75.49-1.43,1.67-4.66,1.23-5.66a8.48,8.48,0,0,0-2.69-2.42,13.24,13.24,0,0,1-3-3.17Z" transform="translate(790.52 11224.828)" fill="#f48c7f"/>
    <path id="Trazado_190540" data-name="Trazado 190540" d="M476.76,432.18s1.73,4.91,1.74,4.92c.12.78.63,2.7.63,3.4,0,2.66-12-2.25-9.29-3.43a2.77,2.77,0,0,0,1.09-1.86,6.26,6.26,0,0,0-1-3.14Z" transform="translate(790.52 11224.828)" fill="#f7a491"/>
    <g id="Grupo_93986" data-name="Grupo 93986" transform="translate(790.52 11224.828)">
      <path id="Trazado_190541" data-name="Trazado 190541" d="M458,340.82s-.87,8.79-.87,8.92c0,14.23-2.82,42-2.28,44.7,1.31,6.52,15.39,39.81,15.39,39.81l7.61-.91-8.17-40.22,1.9-15.67,5.17-31.71Z" fill="#ffa726"/>
      <path id="Trazado_190542" data-name="Trazado 190542" d="M483.52,348.6l1.45,8.33,3.9,34.31,14.88,33.53s-2.09,4.88-5.18,5.57l-23.68-34.43-14.72-44.05.52-9.79Z" fill="#ffca7d"/>
    </g>
    <path id="Trazado_190543" data-name="Trazado 190543" d="M454.94,319.87,465.49,321s.49-8.65.49-12.78c0-5-.43-11.46-1-11.32a9.21,9.21,0,0,0-5.35,3.2C454.89,306.52,454.94,319.87,454.94,319.87Z" transform="translate(790.52 11224.828)" fill="#3ed5fc"/>
    <path id="Trazado_190544" data-name="Trazado 190544" d="M460.12,307.29c-.22,1.52-4.27,43-4.27,43,19.21,9.28,29.82,1.65,29.82,1.65s-.63-29.14.12-33.11c.5-2.62,1.12-20.07-.58-20.55a41.873,41.873,0,0,0-7.41-1.58c-2.33-.24-11.37-.38-13,.16A20.62,20.62,0,0,0,460.12,307.29Z" transform="translate(790.52 11224.828)" fill="#7be0fd"/>
    <path id="Trazado_190545" data-name="Trazado 190545" d="M504.32,425.59s-4.47,12.59-6.22,13.2c-.46.16-2.69.57-3.12,1.56a4.509,4.509,0,0,0,0,1.29h9.33s1.18-5.55,1.64-8c0,0,2.47-5.95,2.2-6.5S504.32,425.59,504.32,425.59Z" transform="translate(790.52 11224.828)" fill="#024e73"/>
    <path id="Trazado_190546" data-name="Trazado 190546" d="M479.81,441.38l-1.37-4.33s-2.88,1.22-4.32,1a43.17,43.17,0,0,1-4.25-1c-5.74,1.89-10.45,2.81-9.59,4.33Z" transform="translate(790.52 11224.828)" fill="#024e73"/>
    <path id="Trazado_190547" data-name="Trazado 190547" d="M453.46,337.58a1.84,1.84,0,0,1-.29-.22c.34-4.06.28-8-1-9.33l.6-1.28c1.48,1.15,2.18,4.19,1.91,9.12a8.241,8.241,0,0,1-.2,1C454.06,337.36,453.67,337.67,453.46,337.58Z" transform="translate(790.52 11224.828)" fill="#f7a491"/>
    <path id="Trazado_190548" data-name="Trazado 190548" d="M475.23,288.71l1.24,8.16s-4.52,9.72-7.23,8.88c-2.26-.71-.87-9.31-.87-9.31s1.24-4.62.87-6.93S475.23,288.71,475.23,288.71Z" transform="translate(790.52 11224.828)" fill="#f7a491"/>
    <path id="Trazado_190549" data-name="Trazado 190549" d="M469.24,289.51c-.37-2.31,6-.8,6-.8l.1.67a3.539,3.539,0,0,1-.69,1.14,8.37,8.37,0,0,1-5.56,2.52,12.769,12.769,0,0,0,.15-3.53Z" transform="translate(790.52 11224.828)" fill="#f47458"/>
    <g id="Grupo_93987" data-name="Grupo 93987" transform="translate(790.52 11224.828)">
      <path id="Trazado_190550" data-name="Trazado 190550" d="M476.27,277.16c.18-.07,1.45,9.29-.95,11.87s-7.06,3.42-8.73,1.39c-1.85-2.24-1.76-12.31,2-15S476.27,277.16,476.27,277.16Z" fill="#f7a491"/>
      <path id="Trazado_190551" data-name="Trazado 190551" d="M470,270.45a10.38,10.38,0,0,1,5.43,3.1c1.3.15,3.08.87,4.91,3.91a7.59,7.59,0,0,1-2,9.9,5.9,5.9,0,0,0-2.59,4.37l-.42-1.21a6.759,6.759,0,0,1-.32-2.86,5.5,5.5,0,0,1,.42-1.71c.63-1.36-1.36-2.26-1.91-3.39-.43-.86-.45-2.85-1.13-4.29l-.81-1.09a5.12,5.12,0,0,0-3.68-1C466,276.55,466.28,269.7,470,270.45Z" fill="#fe544e"/>
      <path id="Trazado_190552" data-name="Trazado 190552" d="M473.58,284.23c0,1.14.5,2.08,1.16,2.09s1.21-.91,1.23-2.05-.5-2.08-1.16-2.09S473.6,283.09,473.58,284.23Z" fill="#f7a491"/>
    </g>
    <path id="Trazado_190553" data-name="Trazado 190553" d="M469.69,286.87l-3.61-.19a1.58,1.58,0,0,0,1.6,1.51C469.61,288.34,469.69,286.87,469.69,286.87Z" transform="translate(790.52 11224.828)" fill="#fff"/>
    <g id="Grupo_93988" data-name="Grupo 93988" transform="translate(790.52 11224.828)">
      <path id="Trazado_190554" data-name="Trazado 190554" d="M440.16,308.22a34.712,34.712,0,0,0,2.37-2.68l15.76,15.38c1,.95.63,2.86-.75,4.27s-3.28,1.79-4.25.85l-15.75-15.38C438.43,309.9,439.31,309.09,440.16,308.22Z" fill="#ffc359"/>
      <ellipse id="Elipse_7777" data-name="Elipse 7777" cx="39.73" cy="39.98" rx="39.73" ry="39.98" transform="translate(354.885 280.454) rotate(-45.68)" fill="#eefbff" opacity="0.6"/>
      <path id="Trazado_190555" data-name="Trazado 190555" d="M439.9,307.5a39.7,39.7,0,0,1-25.3,12.38l-43.1-43.81v-.24a40,40,0,0,1,12.53-25.09Z" fill="#fff"/>
      <path id="Trazado_190556" data-name="Trazado 190556" d="M410.91,240.09l39.86,40.51a35.669,35.669,0,0,1-.23,3.7,40,40,0,0,1-5,15.57l-53.82-54.71a39.27,39.27,0,0,1,19.19-5.07Z" fill="#fff"/>
      <path id="Trazado_190557" data-name="Trazado 190557" d="M379.87,312.12a44.92,44.92,0,1,0-1-63.71,44.92,44.92,0,0,0,1,63.71Zm3.62-3.71a39.73,39.73,0,1,1,56.36-.49,39.73,39.73,0,0,1-56.36.49Z" fill="#ffc359"/>
      <path id="Trazado_190558" data-name="Trazado 190558" d="M381.77,310.17a42.19,42.19,0,1,0-.89-59.85A42.19,42.19,0,0,0,381.77,310.17Zm1.72-1.76a39.73,39.73,0,1,1,56.36-.49,39.73,39.73,0,0,1-56.36.49Z" fill="#f7b455" opacity="0.5"/>
      <path id="Trazado_190559" data-name="Trazado 190559" d="M507.21,375.73l2.45-2.54a6.37,6.37,0,0,0-.17-9L464,320.07a6.38,6.38,0,0,0-9,.17l-2.45,2.54a6.37,6.37,0,0,0,.17,9l45.48,44.1A6.38,6.38,0,0,0,507.21,375.73Z" fill="#024e73"/>
    </g>
    <path id="Trazado_190560" data-name="Trazado 190560" d="M504.7,350.76a1.217,1.217,0,0,0,0-.27c-.29-2.87-2.67-27-3.07-28s-11.07-16.24-11.07-16.24l-5.26,7.17,10.29,13.73c.23.87,3.95,17.17,3.95,17.17s.76,3,1.1,4.74c-.16.43-.31.84-.44,1.17a11.722,11.722,0,0,1-1.1,1.77,12.788,12.788,0,0,0-1.32,2.33c-.11.42-.3,1.29-.41,1.81a13.87,13.87,0,0,0-.29,1.43,2.84,2.84,0,0,1-.34.76.46.46,0,0,0,.55.66c.37-.12.66-.6.84-.91.51-.85.78-2.4.9-2.32a30.387,30.387,0,0,1,.64,3,32.591,32.591,0,0,0,.91,3.92c.3.56.69.47.8.12s-.33-4.59-.33-4.59-.05-.55.18-.38.64,4.06.8,4.63.55.87.87.42-.28-4.69-.28-4.69-.08-.52.14-.47.5,3.37.68,3.65a.43.43,0,0,0,.81-.09c.25-.56-.39-4.24-.39-4.24s0-.29.17-.19.58,2.9.86,3.16a.3.3,0,0,0,.44,0c.53-.36-.28-3-.27-4.36s-.61-2.82-.42-4.4C504.65,351.16,504.68,350.91,504.7,350.76Z" transform="translate(790.52 11224.828)" fill="#f8a492"/>
    <path id="Trazado_190561" data-name="Trazado 190561" d="M498.93,315.92l-9.14,6.13s-5.16-7.66-7.92-10.39c-3.47-3.42,1.26-13.9,3.49-13.31C490.36,299.68,498.93,315.92,498.93,315.92Z" transform="translate(790.52 11224.828)" fill="#7be0fd"/>
  </g>
</svg>
