<svg xmlns="http://www.w3.org/2000/svg" xmlns:xlink="http://www.w3.org/1999/xlink" width="525.85" height="410.796" viewBox="0 0 525.85 410.796">
  <defs>
    <linearGradient id="linear-gradient" x1="-162.402" y1="1.949" x2="-162.402" y2="1.013" gradientUnits="objectBoundingBox">
      <stop offset="0" stop-color="#513983"/>
      <stop offset="1" stop-color="#d671d9"/>
    </linearGradient>
  </defs>
  <g id="Grupo_94334" data-name="Grupo 94334" transform="translate(-830 -11958)">
    <rect id="Rectángulo_39599" data-name="Rectángulo 39599" width="228.92" height="19.21" rx="9.605" transform="translate(920.24 12333.077)" fill="#7390c6" opacity="0.6"/>
    <path id="Trazado_190305" data-name="Trazado 190305" d="M158.55,292.78s1.45-9.79,5.54-17.72,14.24-28.85,7.54-45.44S131.53,166,66.73,159.49c0,0,12.8,20.16,13.27,29.42.55,11.19-.81,51.06,6.69,63.87s28.05,24.67,45.87,30.34S158.55,292.78,158.55,292.78Z" transform="translate(797.09 11934.117)" fill="url(#linear-gradient)"/>
    <path id="Trazado_190306" data-name="Trazado 190306" d="M158.64,293.86h-.23a1.07,1.07,0,0,1-.94-1c0-.16-1.55-16.88-13.19-40.89-10.75-22.15-32.55-55.24-75.4-87a1.09,1.09,0,0,1-.22-1.52,1.07,1.07,0,0,1,1.51-.22c43.25,32.06,65.26,65.5,76.11,87.91,11.79,24.34,13.29,40.84,13.35,41.53a1.09,1.09,0,0,1-.99,1.19Z" transform="translate(797.09 11934.117)" fill="#513983"/>
    <path id="Trazado_190307" data-name="Trazado 190307" d="M150.39,264.57h-.15a1.08,1.08,0,0,1-.75-1.33l11.36-40.52a1.08,1.08,0,0,1,2.08.58l-11.36,40.52A1.09,1.09,0,0,1,150.39,264.57Z" transform="translate(797.09 11934.117)" fill="#513983"/>
    <path id="Trazado_190308" data-name="Trazado 190308" d="M151.46,267.33a.994.994,0,0,1-.17,0c-.55-.16-13.75-4.27-38.63-31.61a1.083,1.083,0,1,1,1.6-1.46c24.36,26.78,37.51,31,37.64,31a1.1,1.1,0,0,1,.73,1.35,1.08,1.08,0,0,1-1.17.72Z" transform="translate(797.09 11934.117)" fill="#513983"/>
    <path id="Trazado_190309" data-name="Trazado 190309" d="M133.57,232.08a1.09,1.09,0,0,1-.94-1l-3.89-39.24a1.09,1.09,0,0,1,2.16-.21l3.89,39.24a1.09,1.09,0,0,1-1,1.18Z" transform="translate(797.09 11934.117)" fill="#513983"/>
    <path id="Trazado_190310" data-name="Trazado 190310" d="M119.3,212.38a1,1,0,0,1-.28-.07L91.73,201a1.083,1.083,0,1,1,.83-2l27.29,11.33a1.08,1.08,0,0,1-.55,2.07Z" transform="translate(797.09 11934.117)" fill="#513983"/>
    <path id="Trazado_190311" data-name="Trazado 190311" d="M100.65,191.86a1.12,1.12,0,0,1-.81-.55L87.68,169.19a1.08,1.08,0,1,1,1.89-1l12.17,22.11a1.08,1.08,0,0,1-.43,1.47A1,1,0,0,1,100.65,191.86Z" transform="translate(797.09 11934.117)" fill="#513983"/>
    <ellipse id="Elipse_7761" data-name="Elipse 7761" cx="8.48" cy="9.84" rx="8.48" ry="9.84" transform="translate(859.209 11991.12) rotate(-45)" fill="#6d79ff" opacity="0.36"/>
    <path id="Trazado_190312" data-name="Trazado 190312" d="M109.77,27.13A3.7,3.7,0,1,1,116.86,29c-.59,2.26-2.65,3.7-4.61,3.19a4,4,0,0,1-2.48-5.06Z" transform="translate(797.09 11934.117)" fill="#6d79ff" opacity="0.36"/>
    <path id="Trazado_190313" data-name="Trazado 190313" d="M558.76,63.39c0-9.51-6.76-17.21-15.1-17.21H390.31c-8.34,0-15.1,7.7-15.1,17.21V372.74h0v18.8c0,9.5,6.76,17.21,15.1,17.21H543.66c8.34,0,15.1-7.71,15.1-17.21V375.22h0V86.56h0Z" transform="translate(797.09 11934.117)" fill="#87a7f9"/>
    <path id="Trazado_190314" data-name="Trazado 190314" d="M531.85,408.75H378.5c-8.34,0-15.1-7.71-15.1-17.21V63.39c0-9.51,6.76-17.21,15.1-17.21H531.85c8.34,0,15.1,7.7,15.1,17.21V391.54C547,401,540.19,408.75,531.85,408.75Z" transform="translate(797.09 11934.117)" fill="#d7e4ff"/>
    <rect id="Rectángulo_39600" data-name="Rectángulo 39600" width="183.55" height="307.75" transform="translate(1160.49 12010.887)" fill="#12263f"/>
    <path id="Trazado_190315" data-name="Trazado 190315" d="M487,66.57H432.77A2.38,2.38,0,0,1,430.58,64h0a2.37,2.37,0,0,1,2.19-2.52H487A2.37,2.37,0,0,1,489.14,64h0A2.37,2.37,0,0,1,487,66.57Z" transform="translate(797.09 11934.117)" fill="#7390c6"/>
    <path id="Trazado_190316" data-name="Trazado 190316" d="M378.5,49.36H531.85c8.34,0,15.1,7.7,15.1,17.21V63.39c0-9.51-6.76-17.21-15.1-17.21H378.5c-8.34,0-15.1,7.7-15.1,17.21v3.18C363.4,57.06,370.16,49.36,378.5,49.36Z" transform="translate(797.09 11934.117)" fill="#e9f1ff"/>
    <path id="Trazado_190317" data-name="Trazado 190317" d="M531.85,405.57H378.5c-8.34,0-15.1-7.71-15.1-17.21v3.18c0,9.5,6.76,17.21,15.1,17.21H531.85c8.34,0,15.1-7.71,15.1-17.21v-3.18C547,397.86,540.19,405.57,531.85,405.57Z" transform="translate(797.09 11934.117)" fill="#c4d5f2"/>
    <path id="Trazado_190318" data-name="Trazado 190318" d="M546.95,193.92l11.81-5.59v9.17l-11.81,5.13Z" transform="translate(797.09 11934.117)" fill="#fff"/>
    <path id="Trazado_190319" data-name="Trazado 190319" d="M546.95,138.13l11.81-4.97v2.95l-11.81,5.13Z" transform="translate(797.09 11934.117)" fill="#fff"/>
    <rect id="Rectángulo_39601" data-name="Rectángulo 39601" width="224.14" height="134.36" rx="6.93" transform="translate(882.52 12028.277)" fill="#deebff"/>
    <path id="Trazado_190320" data-name="Trazado 190320" d="M302.64,94.16H92.36a6.93,6.93,0,0,0-6.93,6.93v21H309.57v-21A6.93,6.93,0,0,0,302.64,94.16Z" transform="translate(797.09 11934.117)" fill="#7390c6"/>
    <circle id="Elipse_7762" data-name="Elipse 7762" cx="5.27" cy="5.27" r="5.27" transform="translate(1054.453 12042.149) rotate(-45)" fill="#deebff"/>
    <circle id="Elipse_7763" data-name="Elipse 7763" cx="5.27" cy="5.27" r="5.27" transform="translate(1070.255 12042.147) rotate(-45)" fill="#deebff"/>
    <circle id="Elipse_7764" data-name="Elipse 7764" cx="5.27" cy="5.27" r="5.27" transform="translate(1085.835 12043.524) rotate(-59.331)" fill="#ffa726"/>
    <rect id="Rectángulo_39602" data-name="Rectángulo 39602" width="224.14" height="14.55" transform="translate(882.52 12135.787)" fill="#7390c6"/>
    <rect id="Rectángulo_39603" data-name="Rectángulo 39603" width="190.8" height="4.44" transform="translate(899.19 12140.848)" fill="#deebff"/>
    <rect id="Rectángulo_39604" data-name="Rectángulo 39604" width="5.19" height="12.87" transform="translate(984.27 12136.157)" fill="#7390c6"/>
    <path id="Trazado_190321" data-name="Trazado 190321" d="M184.44,140.68v36.64L220.51,159Z" transform="translate(797.09 11934.117)" fill="#7390c6"/>
    <rect id="Rectángulo_39605" data-name="Rectángulo 39605" width="193.74" height="116.14" rx="5.99" transform="translate(957.91 12178.147)" fill="#deebff"/>
    <rect id="Rectángulo_39606" data-name="Rectángulo 39606" width="103.94" height="75.87" transform="translate(1041.66 12212.897)" fill="#7390c6"/>
    <path id="Trazado_190322" data-name="Trazado 190322" d="M348.57,244H166.82a6,6,0,0,0-6,6v18.14H354.57V250A6,6,0,0,0,348.57,244Z" transform="translate(797.09 11934.117)" fill="#7390c6"/>
    <rect id="Rectángulo_39607" data-name="Rectángulo 39607" width="72.07" height="75.87" transform="translate(963.52 12212.897)" fill="#7390c6"/>
    <circle id="Elipse_7765" data-name="Elipse 7765" cx="4.55" cy="4.55" r="4.55" transform="translate(1108.42 12185.587)" fill="#deebff"/>
    <circle id="Elipse_7766" data-name="Elipse 7766" cx="4.55" cy="4.55" r="4.55" transform="translate(1122.08 12185.587)" fill="#deebff"/>
    <circle id="Elipse_7767" data-name="Elipse 7767" cx="4.55" cy="4.55" r="4.55" transform="translate(1135.73 12185.587)" fill="#ed66ed"/>
    <rect id="Rectángulo_39608" data-name="Rectángulo 39608" width="87.25" height="4.55" transform="translate(1050 12225.037)" fill="#7f9be2"/>
    <rect id="Rectángulo_39609" data-name="Rectángulo 39609" width="87.25" height="4.55" transform="translate(1050 12234.907)" fill="#7f9be2"/>
    <rect id="Rectángulo_39610" data-name="Rectángulo 39610" width="87.25" height="4.55" transform="translate(1050 12244.768)" fill="#7f9be2"/>
    <rect id="Rectángulo_39611" data-name="Rectángulo 39611" width="56.14" height="4.55" transform="translate(1081.11 12253.867)" fill="#7f9be2"/>
    <rect id="Rectángulo_39612" data-name="Rectángulo 39612" width="56.14" height="4.55" transform="translate(1081.11 12263.728)" fill="#7f9be2"/>
    <rect id="Rectángulo_39613" data-name="Rectángulo 39613" width="56.14" height="4.55" transform="translate(1081.11 12273.598)" fill="#7f9be2"/>
    <rect id="Rectángulo_39614" data-name="Rectángulo 39614" width="56.14" height="4.55" transform="translate(971.1 12256.147)" fill="#7f9be2"/>
    <rect id="Rectángulo_39615" data-name="Rectángulo 39615" width="56.14" height="4.55" transform="translate(971.1 12266.007)" fill="#7f9be2"/>
    <rect id="Rectángulo_39616" data-name="Rectángulo 39616" width="56.14" height="4.55" transform="translate(971.1 12275.867)" fill="#7f9be2"/>
    <rect id="Rectángulo_39617" data-name="Rectángulo 39617" width="27.31" height="25.79" transform="translate(1050.76 12252.357)" fill="#7f9be2"/>
    <rect id="Rectángulo_39618" data-name="Rectángulo 39618" width="56.14" height="25.79" transform="translate(971.1 12221.247)" fill="#7f9be2"/>
    <path id="Trazado_190323" data-name="Trazado 190323" d="M133.89,427.43v1.88H105.23v-1.74Z" transform="translate(797.09 11934.117)" fill="#000932"/>
    <path id="Trazado_190324" data-name="Trazado 190324" d="M133.89,429.44c0,1.2-6.41,2.17-14.33,2.17s-14.33-1-14.33-2.17,6.42-2.17,14.33-2.17S133.89,428.24,133.89,429.44Z" transform="translate(797.09 11934.117)" fill="#000932"/>
    <path id="Trazado_190325" data-name="Trazado 190325" d="M113.05,423.13a5.12,5.12,0,0,1-5-4.27L105.36,403a5.11,5.11,0,1,1,10.08-1.69l2.66,15.82a5.13,5.13,0,0,1-4.2,5.89A6.219,6.219,0,0,1,113.05,423.13Z" transform="translate(797.09 11934.117)" fill="#ffa08a"/>
    <path id="Trazado_190326" data-name="Trazado 190326" d="M107.41,415.61l-2.18,11.66,27.91-.56a37.8,37.8,0,0,1-8.4-4.43c-2.91-2-4.21-5.73-6.11-8.66Z" transform="translate(797.09 11934.117)" fill="#cce3f5"/>
    <path id="Trazado_190327" data-name="Trazado 190327" d="M133.89,427.43c0,1.2-6.41,2.17-14.33,2.17s-14.33-1-14.33-2.17,6.42-2.17,14.33-2.17S133.89,426.23,133.89,427.43Z" transform="translate(797.09 11934.117)" fill="#cce3f5"/>
    <path id="Trazado_190328" data-name="Trazado 190328" d="M118.16,422a.29.29,0,1,1,0-.58,5.08,5.08,0,0,0,3.81-2,.28.28,0,0,1,.4-.07.29.29,0,0,1,.07.4,5.56,5.56,0,0,1-4.28,2.25Z" transform="translate(797.09 11934.117)" fill="#fff"/>
    <path id="Trazado_190329" data-name="Trazado 190329" d="M119.89,423.76a.29.29,0,0,1,0-.58,5.08,5.08,0,0,0,3.81-2,.28.28,0,0,1,.4-.08.3.3,0,0,1,.07.41,5.56,5.56,0,0,1-4.28,2.25Z" transform="translate(797.09 11934.117)" fill="#fff"/>
    <circle id="Elipse_7768" data-name="Elipse 7768" cx="3.4" cy="3.4" r="3.4" transform="translate(909.48 12346.188)" fill="#cce3f5"/>
    <path id="Trazado_190330" data-name="Trazado 190330" d="M58.72,431.87l-.95,1.63L33.02,419.04l.88-1.5Z" transform="translate(797.09 11934.117)" fill="#000932"/>
    <path id="Trazado_190331" data-name="Trazado 190331" d="M57.71,433.61c-.61,1-6.64-1.36-13.47-5.36s-11.89-8.06-11.28-9.1,6.63,1.36,13.47,5.36S58.31,432.57,57.71,433.61Z" transform="translate(797.09 11934.117)" fill="#000932"/>
    <path id="Trazado_190332" data-name="Trazado 190332" d="M45.47,418.34a5,5,0,0,1-1.81-.33,5.1,5.1,0,0,1-3-6.59l5.68-15a5.113,5.113,0,1,1,9.56,3.63l-5.68,15a5.11,5.11,0,0,1-4.75,3.29Z" transform="translate(797.09 11934.117)" fill="#ffa08a"/>
    <path id="Trazado_190333" data-name="Trazado 190333" d="M41.81,408.31l-7.76,9L58.43,430.9a37.851,37.851,0,0,1-5-8.06c-1.5-3.18-.74-7.07-.91-10.56Z" transform="translate(797.09 11934.117)" fill="#cce3f5"/>
    <path id="Trazado_190334" data-name="Trazado 190334" d="M58.72,431.87c-.6,1-6.63-1.36-13.47-5.36s-11.88-8.06-11.28-9.1,6.64,1.37,13.47,5.36S59.33,430.83,58.72,431.87Z" transform="translate(797.09 11934.117)" fill="#cce3f5"/>
    <path id="Trazado_190335" data-name="Trazado 190335" d="M50.44,419.92a5.1,5.1,0,0,1-2.56-.68.3.3,0,0,1-.1-.4.29.29,0,0,1,.4-.1,5.06,5.06,0,0,0,4.29.2.28.28,0,0,1,.38.14.29.29,0,0,1-.14.38,5.839,5.839,0,0,1-2.27.46Z" transform="translate(797.09 11934.117)" fill="#fff"/>
    <path id="Trazado_190336" data-name="Trazado 190336" d="M51,422.31a5.08,5.08,0,0,1-2.56-.67.3.3,0,0,1-.1-.4.29.29,0,0,1,.4-.1,5,5,0,0,0,4.29.19.291.291,0,0,1,.24.53,5.941,5.941,0,0,1-2.27.45Z" transform="translate(797.09 11934.117)" fill="#fff"/>
    <circle id="Elipse_7769" data-name="Elipse 7769" cx="3.4" cy="3.4" r="3.4" transform="translate(842.487 12349.551) rotate(-84.33)" fill="#cce3f5"/>
    <path id="Trazado_190337" data-name="Trazado 190337" d="M136.31,255.55s-5.8-7.19-.51-12.43l10-1.4v11.55S138.18,255.89,136.31,255.55Z" transform="translate(797.09 11934.117)" fill="#ffa08a"/>
    <path id="Trazado_190338" data-name="Trazado 190338" d="M144.94,245.73l4.82-2,2.4-1,1.19-.51.59-.27.55-.25h0a1.25,1.25,0,1,1,1.13,2.23l-.61.33-.6.3-1.18.59-2.36,1.15-4.73,2.28a1.5,1.5,0,0,1-2-.71,1.52,1.52,0,0,1,.7-2h.07Z" transform="translate(797.09 11934.117)" fill="#ffa08a"/>
    <path id="Trazado_190339" data-name="Trazado 190339" d="M144.84,248.58l4.82-2,2.39-1,1.19-.52.59-.26.55-.26h0a1.257,1.257,0,0,1,1.14,2.24l-.62.33-.6.3-1.18.59-2.36,1.15-4.72,2.28a1.521,1.521,0,1,1-1.32-2.74h.06Z" transform="translate(797.09 11934.117)" fill="#ffa08a"/>
    <path id="Trazado_190340" data-name="Trazado 190340" d="M145,250.34l4.15-1.25,2.07-.63,1-.33,1-.33h0a1.253,1.253,0,0,1,.92,2.33c-.37.16-.71.3-1.06.43l-1,.4-2,.77-4.09,1.51a1.523,1.523,0,0,1-1.05-2.86h.09Z" transform="translate(797.09 11934.117)" fill="#ffa08a"/>
    <path id="Trazado_190341" data-name="Trazado 190341" d="M143.13,243.39l4.84-2,2.41-1,1.2-.51.59-.25.56-.25h0a1.25,1.25,0,1,1,1.13,2.23l-.62.34-.59.31-1.17.6-2.35,1.18-4.7,2.33a1.635,1.635,0,0,1-1.45-2.93h.1Z" transform="translate(797.09 11934.117)" fill="#ffa08a"/>
    <path id="Trazado_190342" data-name="Trazado 190342" d="M139,243l3.59-2.08,1.78-1c.59-.35,1.2-.71,1.74-1h0a1.26,1.26,0,0,1,1.44,2.06c-.59.45-1.15.85-1.72,1.26l-1.7,1.22-3.4,2.41a1.64,1.64,0,0,1-1.89-2.67A.57.57,0,0,1,139,243Z" transform="translate(797.09 11934.117)" fill="#ffa08a"/>
    <path id="Trazado_190343" data-name="Trazado 190343" d="M105.56,276.38c1.33,6.6,13.16,71.92,12.49,127.91a7.76,7.76,0,0,1-7.86,7.67c-7.1-.09-7.62-7.49-7.43-5.88-12.1-48.21-6.74-41.2-13.87-70.22-1.16-4.71-8.52-33.64-11.82-54.32h0a14.478,14.478,0,1,1,28.493-5.161Z" transform="translate(797.09 11934.117)" fill="#1093dd"/>
    <path id="Trazado_190344" data-name="Trazado 190344" d="M82.6,195.55c0,2,.58,4,2.54,4s4.52-1.91,4.56-3.87a3.551,3.551,0,1,0-7.1-.14Z" transform="translate(797.09 11934.117)" fill="#ef9789"/>
    <path id="Trazado_190345" data-name="Trazado 190345" d="M143,247.53a6.3,6.3,0,0,0-7.79-4.32L111,250.13,101.57,223a1.568,1.568,0,0,0-.18-.48A8.35,8.35,0,0,0,86,228.94l13.66,32.62.18.43a7,7,0,0,0,8.78,3.89L139,255.21a6.33,6.33,0,0,0,4-7.68Z" transform="translate(797.09 11934.117)" fill="#ffa08a"/>
    <path id="Trazado_190346" data-name="Trazado 190346" d="M89,279.06c-3,65.32-16.71,96.6-31.59,125.59-4.06,7.92-16.12,3.83-14.58-4.91,5.92-33.41,14.05-51.59,15.6-57.22l-.55,2.65c.61-18.49-.67-32.31,1.47-59.94.23-2.85.47-5.69.8-8.52A14.48,14.48,0,0,1,89,279.06Z" transform="translate(797.09 11934.117)" fill="#0d94f2"/>
    <path id="Trazado_190347" data-name="Trazado 190347" d="M102.09,222.94l4.34,13.32a8.675,8.675,0,1,1-16.28,6l-5.27-13a9.173,9.173,0,0,1,17-6.9q.119.285.21.58Z" transform="translate(797.09 11934.117)" fill="#f9c930"/>
    <path id="Trazado_190348" data-name="Trazado 190348" d="M71.32,206l-.21,16.18c4.18,6.41,11.52,4.55,13.69-.47l-1.12-15A8,8,0,0,0,71.32,206Z" transform="translate(797.09 11934.117)" fill="#ffa08a"/>
    <path id="Trazado_190349" data-name="Trazado 190349" d="M108.94,285.64c-.71-5.83-3.07-24.55-3.58-31.77C103.86,232.4,107,215.53,86.08,216c-3.42.08-21.48,3.18-24.62,3.74-4.24.75-4.64,1.5-4.83,6.07-.17,4.31-.07,5.36,1.54,9.35A43.43,43.43,0,0,1,61,253.1c-.43,11.11-5,32.69-5,32.69C61.76,296.2,97.15,298.53,108.94,285.64Z" transform="translate(797.09 11934.117)" fill="#ffa726"/>
    <path id="Trazado_190350" data-name="Trazado 190350" d="M83.7,206.9l.35,4.69s-5.61.69-9-2.38Z" transform="translate(797.09 11934.117)" fill="#3b3348"/>
    <path id="Trazado_190351" data-name="Trazado 190351" d="M86.22,278.72,63.5,262.37l2-31.51v-.52a8.34,8.34,0,0,0-16.68,0l-.1,35.36v.48A6.83,6.83,0,0,0,52,271.9l27.21,17.25a6.3,6.3,0,0,0,7-10.43Z" transform="translate(797.09 11934.117)" fill="#ffa08a"/>
    <path id="Trazado_190352" data-name="Trazado 190352" d="M67.06,231.17l-1.83,18.69a8.68,8.68,0,0,1-17.3-1.24l.85-18.76a9.17,9.17,0,1,1,18.321.83C67.09,230.84,67.08,231,67.06,231.17Z" transform="translate(797.09 11934.117)" fill="#ffa726"/>
    <path id="Trazado_190353" data-name="Trazado 190353" d="M88.77,186.14h0c-.44-5.25-5.57-9.17-11.56-8.8s-10.71,5-10.37,10.36a8.7,8.7,0,0,0,.58,2.6v8.47A11.07,11.07,0,0,0,71.36,207a12.83,12.83,0,0,0,9.2,3c4.81-.3,7.68-4.7,7.4-9.17l.68-12.45a8.6,8.6,0,0,0,.14-2.16A.276.276,0,0,1,88.77,186.14Z" transform="translate(797.09 11934.117)" fill="#ffa08a"/>
    <path id="Trazado_190354" data-name="Trazado 190354" d="M71.64,195.69c.12,2-.41,4-2.36,4.12s-4.6-1.72-4.73-3.67a3.552,3.552,0,0,1,7.09-.45Z" transform="translate(797.09 11934.117)" fill="#ffa08a"/>
    <path id="Trazado_190355" data-name="Trazado 190355" d="M89.87,182.19a4.24,4.24,0,1,1-1.417-2.937A4.24,4.24,0,0,1,89.87,182.19Z" transform="translate(797.09 11934.117)" fill="#461f16"/>
    <path id="Trazado_190356" data-name="Trazado 190356" d="M78.83,175c-8.33.52-13,5-10.6,9.7,6.36-2.49,15.87-.75,19.1,1.65a3.06,3.06,0,0,0,3.93-.26c1.1-1.07,1-2.31.89-4.24C91.89,177.63,85.92,174.57,78.83,175Z" transform="translate(797.09 11934.117)" fill="#461f16"/>
    <path id="Trazado_190357" data-name="Trazado 190357" d="M73.47,183.05s-3.44,1.63-3.6,4.09-.19,5.9-.19,5.9l-3-.31s-1.68-6.61-.23-9.26S73.47,183.05,73.47,183.05Z" transform="translate(797.09 11934.117)" fill="#461f16"/>
    <path id="Trazado_190358" data-name="Trazado 190358" d="M81.24,199.75a.2.2,0,0,1-.2-.18.21.21,0,0,1,.18-.21,1,1,0,0,0,.72-.38.94.94,0,0,0,.19-.79l-1-5.48a.19.19,0,0,1,.15-.22.2.2,0,0,1,.23.15l1,5.48a1.37,1.37,0,0,1-.26,1.1,1.4,1.4,0,0,1-1,.53Z" transform="translate(797.09 11934.117)" fill="#461f16"/>
    <path id="Trazado_190359" data-name="Trazado 190359" d="M84.07,201.84a2.77,2.77,0,1,1-5.53.34Z" transform="translate(797.09 11934.117)" fill="#fff"/>
    <path id="Trazado_190360" data-name="Trazado 190360" d="M84,190.26a.38.38,0,0,1-.38-.37.37.37,0,0,1,.36-.4l3-.2a.4.4,0,0,1,.41.37.38.38,0,0,1-.36.4l-3,.2Z" transform="translate(797.09 11934.117)" fill="#461f16"/>
    <path id="Trazado_190361" data-name="Trazado 190361" d="M77.82,190.63h-3a.39.39,0,1,1,0-.77h3a.39.39,0,0,1,0,.77Z" transform="translate(797.09 11934.117)" fill="#461f16"/>
    <path id="Trazado_190362" data-name="Trazado 190362" d="M86.15,219c.18,2.87-3.05,5.41-7.22,5.68s-7.69-1.86-7.87-4.73,3-5.41,7.22-5.68S86,216.15,86.15,219Z" transform="translate(797.09 11934.117)" fill="#ffa08a"/>
    <path id="Trazado_190363" data-name="Trazado 190363" d="M68.26,197.49a.36.36,0,0,1-.27-.12A3.15,3.15,0,0,1,67.2,195a.4.4,0,0,1,.43-.34.39.39,0,0,1,.34.43,2.39,2.39,0,0,0,.57,1.74.39.39,0,0,1-.28.66Z" transform="translate(797.09 11934.117)" fill="#461f16"/>
    <path id="Trazado_190364" data-name="Trazado 190364" d="M78.66,192.59a3.57,3.57,0,0,1-2.29,1.28A3.58,3.58,0,0,1,74,192.69a3.53,3.53,0,0,1,2.29-1.28,3.57,3.57,0,0,1,2.37,1.18Z" transform="translate(797.09 11934.117)" fill="#fff"/>
    <path id="Trazado_190365" data-name="Trazado 190365" d="M78.66,192.59a1.24,1.24,0,0,1-1.21,1.25,1.21,1.21,0,0,1-1.25-1.2,1.23,1.23,0,1,1,2.46-.05Z" transform="translate(797.09 11934.117)" fill="#461f16"/>
    <path id="Trazado_190366" data-name="Trazado 190366" d="M87.66,192.43a2.79,2.79,0,0,1-4.63.1,2.79,2.79,0,0,1,4.63-.1Z" transform="translate(797.09 11934.117)" fill="#fff"/>
    <path id="Trazado_190367" data-name="Trazado 190367" d="M87.08,192.44a1.23,1.23,0,1,1-1.26-1.2,1.23,1.23,0,0,1,1.26,1.2Z" transform="translate(797.09 11934.117)" fill="#461f16"/>
    <path id="Trazado_190368" data-name="Trazado 190368" d="M77.24,198.15a2.49,2.49,0,1,1-2.55-2.43,2.49,2.49,0,0,1,2.55,2.43Z" transform="translate(797.09 11934.117)" fill="#ff7d90" opacity="0.5"/>
    <path id="Trazado_190369" data-name="Trazado 190369" d="M88.24,197.7a2.28,2.28,0,1,1-2.33-2.23A2.28,2.28,0,0,1,88.24,197.7Z" transform="translate(797.09 11934.117)" fill="#ff7d90" opacity="0.5"/>
    <path id="Trazado_190370" data-name="Trazado 190370" d="M87.71,294.11v36.64l-3.66-9.34Z" transform="translate(797.09 11934.117)" fill="#0f79b5"/>
    <path id="Trazado_190371" data-name="Trazado 190371" d="M148.12,222.6l-62.95,63a8.09,8.09,0,0,0,0,11.44h0a8.09,8.09,0,0,0,11.44,0l63-62.95Z" transform="translate(797.09 11934.117)" fill="#304064"/>
    <path id="Trazado_190372" data-name="Trazado 190372" d="M217.11,164.91a46.41,46.41,0,1,0,0,65.63,46.41,46.41,0,0,0,0-65.63Zm-4.58,4.58a39.93,39.93,0,1,1-56.47,0A39.93,39.93,0,0,1,212.53,169.49Z" transform="translate(797.09 11934.117)" fill="#304064"/>
    <circle id="Elipse_7770" data-name="Elipse 7770" cx="40.15" cy="40.15" r="40.15" transform="translate(941.39 12091.848)" fill="#679ae2" opacity="0.39"/>
    <g id="Grupo_93956" data-name="Grupo 93956" transform="translate(797.09 11934.117)" opacity="0.53">
      <path id="Trazado_190373" data-name="Trazado 190373" d="M220.77,215a39.9,39.9,0,0,1-5.48,8.57L158.75,167a40.1,40.1,0,0,1,8.57-5.47Z" fill="#eff8ff"/>
      <path id="Trazado_190374" data-name="Trazado 190374" d="M156.06,169.49l.21-.21L213,226.05l-.21.21a40.147,40.147,0,0,1-3.31,3L153.09,172.8A41.846,41.846,0,0,1,156.06,169.49Z" fill="#eff8ff"/>
      <path id="Trazado_190375" data-name="Trazado 190375" d="M149.59,177.94c.47-.82,1-1.62,1.49-2.4l55.7,55.7c-.78.53-1.58,1-2.39,1.49Z" fill="#eff8ff"/>
    </g>
    <path id="Trazado_190376" data-name="Trazado 190376" d="M78.59,288.78s.21-9.23,7.63-9.82l8.53,5.37-7.46,8.82S79.79,290.25,78.59,288.78Z" transform="translate(797.09 11934.117)" fill="#ffa08a"/>
    <path id="Trazado_190377" data-name="Trazado 190377" d="M91.52,286.85l5,1.57,2.5.76,1.24.37.62.18.59.16h0a1.254,1.254,0,1,1-.58,2.44l-.68-.15-.65-.15-1.28-.31-2.55-.64-5.08-1.31a1.523,1.523,0,0,1,.76-2.95h.07Z" transform="translate(797.09 11934.117)" fill="#ffa08a"/>
    <path id="Trazado_190378" data-name="Trazado 190378" d="M89.6,289l5,1.56,2.49.76,1.24.37.62.18.59.16h0a1.25,1.25,0,0,1-.58,2.43l-.68-.14-.65-.16-1.28-.31-2.55-.64-5.07-1.31a1.523,1.523,0,0,1,.76-2.95h.06Z" transform="translate(797.09 11934.117)" fill="#ffa08a"/>
    <path id="Trazado_190379" data-name="Trazado 190379" d="M88.58,290.4l4,1.73,2,.85,1,.41,1,.38h0a1.251,1.251,0,0,1-.8,2.37c-.39-.11-.74-.23-1.09-.35l-1-.36-2.06-.73-4.09-1.49a1.52,1.52,0,0,1,1-2.86h.08Z" transform="translate(797.09 11934.117)" fill="#ffa08a"/>
    <path id="Trazado_190380" data-name="Trazado 190380" d="M91.65,283.9l5,1.62,2.49.79,1.24.39.61.18.59.17h0a1.254,1.254,0,0,1-.58,2.44l-.68-.14-.65-.15-1.29-.3-2.55-.61L90.74,287a1.632,1.632,0,1,1,.78-3.17h.11Z" transform="translate(797.09 11934.117)" fill="#ffa08a"/>
    <path id="Trazado_190381" data-name="Trazado 190381" d="M88.72,280.93l4.08.73,2,.35c.68.12,1.37.23,2,.32h0a1.25,1.25,0,1,1-.23,2.49l-2.12-.14-2.09-.17-4.15-.35a1.64,1.64,0,0,1,.28-3.26h.15Z" transform="translate(797.09 11934.117)" fill="#ffa08a"/>
    <path id="Trazado_190382" data-name="Trazado 190382" d="M357.41,222.42h.09a.2.2,0,0,0,.08-.26,22.21,22.21,0,0,1-.63-18.31,29.72,29.72,0,0,1,4.61-8.05.191.191,0,1,0-.29-.25,29.939,29.939,0,0,0-4.68,8.15,22.57,22.57,0,0,0,.65,18.63.18.18,0,0,0,.17.09Z" transform="translate(797.09 11934.117)" fill="#000932"/>
    <path id="Trazado_190383" data-name="Trazado 190383" d="M357,204.3c2.44-13.72,8.63-20.49,22.37-19.31,14.31,1.23,23.13,16.29,20.7,30a22.23,22.23,0,0,1-2.2,6.48c8.53,3.88,12.91,11.58,9.65,26.38a11.52,11.52,0,0,1-1.79,4.16,9.4,9.4,0,0,1-17.46,6.31A67.449,67.449,0,0,1,377,257.18c-16.54-2.94-18.46-7.08-16.15-20.09.4-2.23,1.86-3.8,2.43-5.75C355.69,226.66,355,215.43,357,204.3Z" transform="translate(797.09 11934.117)" fill="#000932"/>
    <ellipse id="Elipse_7771" data-name="Elipse 7771" cx="13.71" cy="21.99" rx="13.71" ry="21.99" transform="translate(1170.16 12217.907)" fill="#0d94f2"/>
    <path id="Trazado_190384" data-name="Trazado 190384" d="M366.72,227.45,332,221.15l1.91.73-27.62-14.63a5.82,5.82,0,1,0-5.73,10.131l26.76,16.139a5.559,5.559,0,0,0,1.52.63l.39.09,34.31,8.28a7.715,7.715,0,0,0,3.62-15Z" transform="translate(797.09 11934.117)" fill="#ffa08a"/>
    <path id="Trazado_190385" data-name="Trazado 190385" d="M367.33,226.83l-16.16-3.61A8.66,8.66,0,0,0,346.9,240l15.91,4.57a9.15,9.15,0,1,0,5-17.59Z" transform="translate(797.09 11934.117)" fill="#e54880"/>
    <g id="Grupo_93960" data-name="Grupo 93960" transform="translate(797.09 11934.117)">
      <path id="Trazado_190386" data-name="Trazado 190386" d="M307,207.59s1,9-5.59,10.19L294.19,213l5.18-8.07S305.81,206.38,307,207.59Z" fill="#ffa08a"/>
      <path id="Trazado_190387" data-name="Trazado 190387" d="M296.55,208.07l-3.34-.1h0a1.25,1.25,0,0,0-.28,2.48l3.32.64a1.527,1.527,0,1,0,.57-3h-.23Z" fill="#ffa08a"/>
      <path id="Trazado_190388" data-name="Trazado 190388" d="M298,206l-4.6-.16h-.07a1.25,1.25,0,1,0-.23,2.49l4.66.7a1.52,1.52,0,0,0,.45-3H298Z" fill="#ffa08a"/>
      <path id="Trazado_190389" data-name="Trazado 190389" d="M299.29,204.76l-4.83-1.34-2.43-.65-1.22-.32-.62-.16-.32-.07-.35-.08a1.251,1.251,0,0,0-.6,2.43h.06l.27.07.28.08.58.18,1.18.38,2.37.77,4.74,1.59h0a1.51,1.51,0,0,0,1.92-1,1.53,1.53,0,0,0-1-1.92Z" fill="#ffa08a"/>
      <path id="Trazado_190390" data-name="Trazado 190390" d="M297,210.55l-.88-.12-.87-.1c-.58-.05-1.16-.1-1.78-.11a1.26,1.26,0,0,0-.33,2.48h0c.48.12,1,.28,1.49.44l.75.27c.25.09.51.18.74.28a1.64,1.64,0,0,0,1.23-3,1.4,1.4,0,0,0-.35-.1Z" fill="#ffa08a"/>
    </g>
    <path id="Trazado_190391" data-name="Trazado 190391" d="M341.86,402.87a5.24,5.24,0,0,1,3.76,6.39l-2.93,11.24a5.244,5.244,0,1,1-10.15-2.64l2.93-11.24a5.24,5.24,0,0,1,6.39-3.75Z" transform="translate(797.09 11934.117)" fill="#ffa08a"/>
    <g id="Grupo_93962" data-name="Grupo 93962" transform="translate(797.09 11934.117)">
      <path id="Trazado_190392" data-name="Trazado 190392" d="M314.95,426.24l-.38,1.8,27.28,5.87.36-1.66Z" fill="#000932"/>
      <path id="Trazado_190393" data-name="Trazado 190393" d="M314.54,428.16c-.25,1.14,5.66,3.38,13.2,5s13.84,2,14.08.87-5.66-3.38-13.19-5S314.79,427,314.54,428.16Z" fill="#000932"/>
      <path id="Trazado_190394" data-name="Trazado 190394" d="M342.59,420.42,342.27,432l-26.45-6.26a36.709,36.709,0,0,0,8.91-2.49c3.16-1.3,5.17-4.59,7.59-7Z" fill="#cce3f5"/>
      <path id="Trazado_190395" data-name="Trazado 190395" d="M315,426.24c-.24,1.14,5.67,3.38,13.2,5s13.84,2,14.09.87-5.67-3.38-13.2-5S315.2,425.1,315,426.24Z" fill="#cce3f5"/>
      <path id="Trazado_190396" data-name="Trazado 190396" d="M331.1,424.3a.29.29,0,0,0,.28-.23.28.28,0,0,0-.22-.34,4.94,4.94,0,0,1-3.21-2.67.28.28,0,0,0-.38-.15.29.29,0,0,0-.15.37,5.44,5.44,0,0,0,3.62,3Z" fill="#fff"/>
      <path id="Trazado_190397" data-name="Trazado 190397" d="M329.09,425.63a.29.29,0,0,0,.06-.57,4.91,4.91,0,0,1-3.2-2.67.292.292,0,1,0-.54.22,5.47,5.47,0,0,0,3.62,3Z" fill="#fff"/>
      <path id="Trazado_190398" data-name="Trazado 190398" d="M331.41,417.88a3.29,3.29,0,1,0,1.431-2.086,3.3,3.3,0,0,0-1.431,2.086Z" fill="#cce3f5"/>
    </g>
    <path id="Trazado_190399" data-name="Trazado 190399" d="M411.33,396.67a5.25,5.25,0,0,1,7.33,1.13l6.86,9.37a5.244,5.244,0,1,1-8.46,6.2L410.19,404a5.25,5.25,0,0,1,1.14-7.33Z" transform="translate(797.09 11934.117)" fill="#ffa08a"/>
    <g id="Grupo_93964" data-name="Grupo 93964" transform="translate(797.09 11934.117)">
      <path id="Trazado_190400" data-name="Trazado 190400" d="M412.44,432.3l1.15,1.43,21.79-17.43-1.06-1.33Z" fill="#000932"/>
      <path id="Trazado_190401" data-name="Trazado 190401" d="M413.66,433.83c.73.91,6.2-2.25,12.22-7.07s10.31-9.45,9.58-10.36-6.2,2.25-12.22,7.06S412.94,432.92,413.66,433.83Z" fill="#000932"/>
      <path id="Trazado_190402" data-name="Trazado 190402" d="M425.39,407.2l8.75,7.55-21.56,16.54a36.5,36.5,0,0,0,3.69-8.47c1-3.28-.29-6.92-.62-10.3Z" fill="#cce3f5"/>
      <path id="Trazado_190403" data-name="Trazado 190403" d="M412.44,432.3c.73.91,6.2-2.25,12.22-7.07s10.3-9.45,9.57-10.36S428,417.12,422,421.93,411.71,431.39,412.44,432.3Z" fill="#cce3f5"/>
      <path id="Trazado_190404" data-name="Trazado 190404" d="M417.89,419.68a5,5,0,0,0,3.2-1.08.28.28,0,0,0,.05-.4.29.29,0,0,0-.41-.05,4.86,4.86,0,0,1-4.09.8.28.28,0,0,0-.36.2.27.27,0,0,0,.19.35,5.109,5.109,0,0,0,1.42.18Z" fill="#fff"/>
      <path id="Trazado_190405" data-name="Trazado 190405" d="M417.65,422.07a5.06,5.06,0,0,0,3.21-1.07.3.3,0,0,0,0-.41.29.29,0,0,0-.4,0,4.9,4.9,0,0,1-4.1.79.291.291,0,1,0-.16.56,5.629,5.629,0,0,0,1.45.13Z" fill="#fff"/>
      <circle id="Elipse_7772" data-name="Elipse 7772" cx="3.31" cy="3.31" r="3.31" transform="translate(414.387 413.321) rotate(-58.5)" fill="#cce3f5"/>
    </g>
    <path id="Trazado_190406" data-name="Trazado 190406" d="M370.21,203.91c-.11,1.89-.85,3.78-2.74,3.68s-4.2-2.18-4.09-4.07a3.421,3.421,0,1,1,6.83.39Z" transform="translate(797.09 11934.117)" fill="#ef9789"/>
    <path id="Trazado_190407" data-name="Trazado 190407" d="M382.4,205.75c-.22,1.61.08,3.33,1.69,3.55s3.91-1.12,4.14-2.73a2.944,2.944,0,0,0-5.83-.82Z" transform="translate(797.09 11934.117)" fill="#ffa08a"/>
    <path id="Trazado_190408" data-name="Trazado 190408" d="M380,212.76l1.65,16.06c-3.83,6.62-11.35,3.17-12.58.1l.32-15C371.56,210.15,375.89,208.87,380,212.76Z" transform="translate(797.09 11934.117)" fill="#ffa08a"/>
    <path id="Trazado_190409" data-name="Trazado 190409" d="M350,280.51c-.6,2.59-1.1,5.2-1.6,7.81l-.72,3.91c-.23,1.31-.46,2.62-.68,3.93q-1.32,7.84-2.4,15.75c-1.46,10.54-2.23,21.2-3.59,31.75-.35,2.64-.69,5.27-1.12,7.89-.23,1.31-.5,2.61-.82,3.9s-.66,2.58-1,3.87a61.249,61.249,0,0,0-1.63,7.79c-.34,2.64-.68,5.28-1,7.92-.63,5.29-1.2,10.58-1.68,15.9s-.89,10.64-1.1,16a7.77,7.77,0,0,0,15.09,2.89c1.78-5.06,3.37-10.17,4.89-15.28s2.94-10.25,4.31-15.39q1-3.86,2-7.73a60.923,60.923,0,0,0,1.37-7.84c.17-1.32.31-2.65.5-4s.41-2.62.69-3.92c.57-2.6,1.22-5.17,1.87-7.75,2.63-10.31,5.85-20.5,8.39-30.83,1.27-5.16,2.48-10.34,3.59-15.53.28-1.3.56-2.6.82-3.9l.78-3.9c.5-2.61,1-5.22,1.4-7.84a14.46,14.46,0,0,0-28.36-5.4Z" transform="translate(797.09 11934.117)" fill="#1093dd"/>
    <path id="Trazado_190410" data-name="Trazado 190410" d="M366.05,285.45c.31,2.88.71,5.74,1.12,8.6s.87,5.72,1.36,8.57q1.44,8.55,3.19,17.06c1.17,5.67,2.52,11.32,3.83,17,.33,1.41.65,2.83,1,4.24L377,343l.46,2.12c.6,2.83,1.16,5.67,1.7,8.52l.19,1a8.4,8.4,0,0,0,1,2.68,57.709,57.709,0,0,1,3.16,6.1c.94,2.1,1.85,4.21,2.93,6.23s2.33,3.95,3.53,5.91l1.84,2.91.92,1.46.94,1.45c2.48,3.86,5,7.71,7.62,11.51s5.25,7.58,8,11.28a7.78,7.78,0,0,0,13.54-7.27c-1.54-4.37-3.21-8.67-4.95-12.94s-3.53-8.51-5.38-12.72l-.7-1.58-.7-1.57c-.47-1.05-.93-2.1-1.41-3.14-1-2.09-1.86-4.2-3-6.21s-2.35-3.94-3.57-5.89a57.739,57.739,0,0,1-3.35-6l1.2,3.68c-.27-2.88-.52-5.77-.73-8.65l-.15-2.17-.14-2.17c-.09-1.45-.18-2.9-.25-4.35-.32-5.79-.59-11.59-1-17.36s-1-11.54-1.68-17.28c-.33-2.87-.68-5.74-1.08-8.61s-.81-5.72-1.32-8.57a14.46,14.46,0,0,0-28.61,4.06Z" transform="translate(797.09 11934.117)" fill="#0d94f2"/>
    <path id="Trazado_190411" data-name="Trazado 190411" d="M374.81,290.15l.73,5.15a.192.192,0,1,0,.38-.06l-.73-5.14a.19.19,0,0,0-.21-.17.2.2,0,0,0-.17.22Z" transform="translate(797.09 11934.117)" fill="#38b6fc"/>
    <path id="Trazado_190412" data-name="Trazado 190412" d="M376.27,300.45l.72,5.14a.19.19,0,0,0,.38,0l-.73-5.15a.187.187,0,1,0-.37.06Z" transform="translate(797.09 11934.117)" fill="#38b6fc"/>
    <path id="Trazado_190413" data-name="Trazado 190413" d="M377.72,310.74l.72,5.15a.2.2,0,0,0,.22.16.19.19,0,0,0,.16-.21l-.73-5.15a.19.19,0,0,0-.21-.16.18.18,0,0,0-.16.21Z" transform="translate(797.09 11934.117)" fill="#38b6fc"/>
    <path id="Trazado_190414" data-name="Trazado 190414" d="M379.17,321l.73,5.15a.2.2,0,0,0,.21.15.19.19,0,0,0,.15-.2l-.72-5.15a.2.2,0,0,0-.21-.16.19.19,0,0,0-.16.21Z" transform="translate(797.09 11934.117)" fill="#38b6fc"/>
    <path id="Trazado_190415" data-name="Trazado 190415" d="M380.63,331.33l.73,5.15a.19.19,0,0,0,.2.15.18.18,0,0,0,.14-.2l-.72-5.14a.17.17,0,0,0-.2-.15.18.18,0,0,0-.15.19Z" transform="translate(797.09 11934.117)" fill="#38b6fc"/>
    <path id="Trazado_190416" data-name="Trazado 190416" d="M382.09,341.63l.73,5.15a.17.17,0,0,0,.18.13.16.16,0,0,0,.14-.18l-.72-5.15a.17.17,0,0,0-.19-.14.18.18,0,0,0-.14.19Z" transform="translate(797.09 11934.117)" fill="#38b6fc"/>
    <path id="Trazado_190417" data-name="Trazado 190417" d="M383.55,351.92l.73,5.15a.16.16,0,0,0,.17.13.15.15,0,0,0,.13-.17l-.72-5.15a.16.16,0,0,0-.31,0Z" transform="translate(797.09 11934.117)" fill="#38b6fc"/>
    <path id="Trazado_190418" data-name="Trazado 190418" d="M387.09,361.47l3,4.25a.151.151,0,1,0,.25-.17h0l-3-4.25a.14.14,0,0,0-.2,0A.16.16,0,0,0,387.09,361.47Z" transform="translate(797.09 11934.117)" fill="#38b6fc"/>
    <path id="Trazado_190419" data-name="Trazado 190419" d="M393.09,370l3,4.24a.15.15,0,0,0,.21,0,.16.16,0,0,0,0-.21l-3-4.25a.16.16,0,0,0-.22,0,.15.15,0,0,0,0,.21Z" transform="translate(797.09 11934.117)" fill="#38b6fc"/>
    <path id="Trazado_190420" data-name="Trazado 190420" d="M399.09,378.46l3,4.24a.134.134,0,0,0,.19-.19l-3-4.25a.15.15,0,0,0-.24.17Z" transform="translate(797.09 11934.117)" fill="#38b6fc"/>
    <path id="Trazado_190421" data-name="Trazado 190421" d="M405.1,386.94l3,4.25a.121.121,0,0,0,.19-.15l-3-4.25a.13.13,0,0,0-.21.15Z" transform="translate(797.09 11934.117)" fill="#38b6fc"/>
    <path id="Trazado_190422" data-name="Trazado 190422" d="M411.11,395.43l3,4.24a.12.12,0,0,0,.16,0,.11.11,0,0,0,0-.15l-3-4.25a.113.113,0,1,0-.16.16Z" transform="translate(797.09 11934.117)" fill="#38b6fc"/>
    <path id="Trazado_190423" data-name="Trazado 190423" d="M346.17,292.92c4.47-20.77,8.38-19.64,8.5-26.87C355,244.57,345,225.34,366,224.71c3.41-.1,18.6,1.94,21.76,2.33,4.26.52,4.7,1.25,5.13,5.8.41,4.28.36,5.33-1,9.4-1.79,5.23-1.61,15.13-1,21.7,1.06,11.05,8.58,27.46,8.58,27.46C394.2,302.08,358.61,305.13,346.17,292.92Z" transform="translate(797.09 11934.117)" fill="#ef487d"/>
    <path id="Trazado_190424" data-name="Trazado 190424" d="M369.33,214.71l-.1,4.7s6.49.69,8.76-3.53Z" transform="translate(797.09 11934.117)" fill="#3b3348"/>
    <ellipse id="Elipse_7773" data-name="Elipse 7773" cx="4.59" cy="6.65" rx="4.59" ry="6.65" transform="matrix(0.009, -1, 1, 0.009, 1165.586, 12165.481)" fill="#ffa08a"/>
    <circle id="Elipse_7774" data-name="Elipse 7774" cx="8.55" cy="8.55" r="8.55" transform="matrix(0.968, -0.252, 0.252, 0.968, 1144.47, 12168.654)" fill="#ef487d"/>
    <path id="Trazado_190425" data-name="Trazado 190425" d="M365.15,203.05c-.73,7.42,2.6,13.56,7.14,14.25,5.48.84,12.93-5.89,13.66-13.31s-4.37-12.88-9.89-13.43S365.88,195.63,365.15,203.05Z" transform="translate(797.09 11934.117)" fill="#ffa08a"/>
    <path id="Trazado_190426" data-name="Trazado 190426" d="M376,201.67a3.11,3.11,0,0,1,5.13.51,3.11,3.11,0,0,1-5.13-.51Z" transform="translate(797.09 11934.117)" fill="#fff"/>
    <path id="Trazado_190427" data-name="Trazado 190427" d="M376.46,201.69a1.372,1.372,0,1,1,1.23,1.5,1.38,1.38,0,0,1-1.23-1.5Z" transform="translate(797.09 11934.117)" fill="#461f16"/>
    <path id="Trazado_190428" data-name="Trazado 190428" d="M366,200.64a3.11,3.11,0,0,1,5.13.5,3.11,3.11,0,0,1-5.13-.5Z" transform="translate(797.09 11934.117)" fill="#fff"/>
    <path id="Trazado_190429" data-name="Trazado 190429" d="M366.7,200.52a1.36,1.36,0,1,1,.3,1.008A1.37,1.37,0,0,1,366.7,200.52Z" transform="translate(797.09 11934.117)" fill="#461f16"/>
    <path id="Trazado_190430" data-name="Trazado 190430" d="M372.49,208.28a.19.19,0,0,0,.19-.17.2.2,0,0,0-.16-.22.94.94,0,0,1-.66-.41.92.92,0,0,1-.12-.77l1.34-5.2a.19.19,0,0,0-.14-.23.18.18,0,0,0-.23.13l-1.35,5.2a1.34,1.34,0,0,0,.18,1.08,1.3,1.3,0,0,0,.92.58Z" transform="translate(797.09 11934.117)" fill="#461f16"/>
    <path id="Trazado_190431" data-name="Trazado 190431" d="M374.05,210.55a2.028,2.028,0,0,1-4-.67Z" transform="translate(797.09 11934.117)" fill="#fff"/>
    <path id="Trazado_190432" data-name="Trazado 190432" d="M375.7,187.37c-9.33-.64-9.88,8.91-9.88,8.91a37.552,37.552,0,0,0,6.24,1.39,24.17,24.17,0,0,0,10.75-.71S385.39,188,375.7,187.37Z" transform="translate(797.09 11934.117)" fill="#000932"/>
    <path id="Trazado_190433" data-name="Trazado 190433" d="M395.23,197.51a6.78,6.78,0,1,1-6.08-7.41,6.78,6.78,0,0,1,6.08,7.41Z" transform="translate(797.09 11934.117)" fill="#000932"/>
    <path id="Trazado_190434" data-name="Trazado 190434" d="M384.78,207.6a.38.38,0,0,0,.22-.07,3.08,3.08,0,0,0,1.22-2.09.39.39,0,0,0-.36-.41.37.37,0,0,0-.41.35,2.37,2.37,0,0,1-.89,1.52.39.39,0,0,0-.1.54.42.42,0,0,0,.32.16Z" transform="translate(797.09 11934.117)" fill="#461f16"/>
    <path id="Trazado_190435" data-name="Trazado 190435" d="M380.23,200a.37.37,0,0,0,.34-.22.38.38,0,0,0-.18-.51,3.78,3.78,0,0,0-3.22-.19.39.39,0,1,0,.24.74,3,3,0,0,1,2.65.15.47.47,0,0,0,.17.03Z" transform="translate(797.09 11934.117)" fill="#461f16"/>
    <path id="Trazado_190436" data-name="Trazado 190436" d="M370.47,199.16a.39.39,0,0,0,.16-.74,4.42,4.42,0,0,0-3.15-.39.39.39,0,0,0-.3.46.38.38,0,0,0,.45.3,3.63,3.63,0,0,1,2.68.33A.34.34,0,0,0,370.47,199.16Z" transform="translate(797.09 11934.117)" fill="#461f16"/>
    <path id="Trazado_190437" data-name="Trazado 190437" d="M380.51,207.9a2.63,2.63,0,1,1-2.35-2.88A2.63,2.63,0,0,1,380.51,207.9Z" transform="translate(797.09 11934.117)" fill="#ff7d90" opacity="0.5"/>
    <path id="Trazado_190438" data-name="Trazado 190438" d="M370.65,206.82a2.37,2.37,0,1,1-2.12-2.59A2.37,2.37,0,0,1,370.65,206.82Z" transform="translate(797.09 11934.117)" fill="#ff7d90" opacity="0.5"/>
    <path id="Trazado_190439" data-name="Trazado 190439" d="M386.65,312.16a6.741,6.741,0,0,0,1.77-.24l2.51-.69a6.66,6.66,0,0,0,4.75-7.83l-1.36-6.31a.48.48,0,0,0-.58-.36.47.47,0,0,0-.36.57l1.36,6.3a5.69,5.69,0,0,1-4.06,6.7l-2.51.69a5.7,5.7,0,0,1-7.05-4.16l-1.42-5.91a.478.478,0,1,0-.93.22l1.42,5.91a6.65,6.65,0,0,0,6.46,5.11Z" transform="translate(797.09 11934.117)" fill="#38b6fc"/>
    <path id="Trazado_190440" data-name="Trazado 190440" d="M363.53,325.81a.18.18,0,0,0,.18-.14l.7-2.5a.192.192,0,0,0-.37-.1l-.7,2.5a.2.2,0,0,0,.13.24Z" transform="translate(797.09 11934.117)" fill="#38b6fc"/>
    <path id="Trazado_190441" data-name="Trazado 190441" d="M344.28,401.78a.19.19,0,0,1-.15-.23l1.13-4.77a.19.19,0,1,1,.37.09l-1.12,4.77a.2.2,0,0,1-.19.14Zm2.25-9.54a.18.18,0,0,1-.14-.23l1.12-4.76a.194.194,0,1,1,.38.08l-1.13,4.77a.19.19,0,0,1-.19.15Zm2.25-9.53a.19.19,0,0,1-.14-.23l1.13-4.77a.18.18,0,0,1,.23-.14.19.19,0,0,1,.14.23L349,382.57a.19.19,0,0,1-.18.15Zm2.26-9.53a.2.2,0,0,1-.15-.24l1.13-4.76a.19.19,0,0,1,.23-.15.2.2,0,0,1,.14.24L351.27,373a.19.19,0,0,1-.19.15Zm2.25-9.54a.19.19,0,0,1-.15-.23l1.13-4.77a.2.2,0,0,1,.23-.14.19.19,0,0,1,.15.23l-1.13,4.77a.19.19,0,0,1-.19.15Zm2.26-9.53a.21.21,0,0,1-.14-.24l1.33-4.72A.18.18,0,0,1,357,349a.19.19,0,0,1,.14.24L355.79,354a.21.21,0,0,1-.19.14Zm2.64-9.44a.18.18,0,0,1-.13-.23l1.32-4.72a.192.192,0,0,1,.37.1l-1.32,4.72a.19.19,0,0,1-.19.14Zm2.64-9.43a.19.19,0,0,1-.13-.24l1.32-4.71a.192.192,0,0,1,.37.1l-1.32,4.72a.2.2,0,0,1-.19.14Z" transform="translate(797.09 11934.117)" fill="#38b6fc"/>
    <path id="Trazado_190442" data-name="Trazado 190442" d="M342.6,409.08a.19.19,0,0,0,.18-.15l.6-2.53a.19.19,0,1,0-.37-.09l-.6,2.53a.2.2,0,0,0,.14.24Z" transform="translate(797.09 11934.117)" fill="#38b6fc"/>
    <path id="Trazado_190443" data-name="Trazado 190443" d="M382.81,241.31l18.55,30-.75-1.9,7.6,30.31a5.82,5.82,0,0,0,11.36-2.51l-5.89-30.69a5.59,5.59,0,0,0-.55-1.55l-.19-.36-16.8-31a7.7,7.7,0,1,0-13.55,7.33A3.441,3.441,0,0,0,382.81,241.31Z" transform="translate(797.09 11934.117)" fill="#ffa08a"/>
    <path id="Trazado_190444" data-name="Trazado 190444" d="M382,241.3l9.2,16.33a8.66,8.66,0,0,0,15.3-8.09l-8.33-16.79a9.152,9.152,0,1,0-16.4,8.13Z" transform="translate(797.09 11934.117)" fill="#ef487d"/>
    <g id="Grupo_93971" data-name="Grupo 93971" transform="translate(797.09 11934.117)">
      <g id="Grupo_93970" data-name="Grupo 93970">
        <path id="Trazado_190445" data-name="Trazado 190445" d="M408,299s6.07-6.76,11.32-2.66l2.08,8.81-10.25,1.3S407.88,300.68,408,299Z" fill="#ffa08a"/>
        <path id="Trazado_190446" data-name="Trazado 190446" d="M415.26,306.34l2.57,3.93,1.3,2,.66,1,.34.49c.11.16.23.34.36.51a1.25,1.25,0,0,0,2.07-1.39v-.05c-.1-.14-.19-.29-.29-.46l-.3-.49-.59-1-1.17-2-2.34-4.05h0a1.52,1.52,0,1,0-2.63,1.51S415.25,306.31,415.26,306.34Z" fill="#ffa08a"/>
        <path id="Trazado_190447" data-name="Trazado 190447" d="M412.72,306.57l2.56,3.92,1.3,2,.66,1,.34.5c.11.16.23.34.36.51A1.274,1.274,0,1,0,420,313h0c-.09-.15-.19-.29-.29-.46l-.29-.49-.6-1-1.17-2L415.31,305h0a1.52,1.52,0,0,0-2.63,1.51Z" fill="#ffa08a"/>
        <path id="Trazado_190448" data-name="Trazado 190448" d="M411,306.63l1.81,3.46.92,1.72.47.87c.16.29.32.58.51.89a1.253,1.253,0,1,0,2.2-1.2h0c-.13-.25-.27-.53-.4-.82l-.4-.87-.79-1.76-1.56-3.55h0a1.52,1.52,0,0,0-2.78,1.22A.421.421,0,0,0,411,306.63Z" fill="#ffa08a"/>
        <path id="Trazado_190449" data-name="Trazado 190449" d="M417,304.58l2.61,3.9,1.32,1.94.67,1,.35.49.37.51a1.251,1.251,0,0,0,2.08-1.39v-.05l-.28-.47-.29-.49-.58-1L422,307l-2.28-4.08h0a1.634,1.634,0,1,0-2.85,1.6Z" fill="#ffa08a"/>
      </g>
      <path id="Trazado_190450" data-name="Trazado 190450" d="M418.06,302.36l2.62,2.65,1.32,1.32c.45.44.88.87,1.37,1.33a1.25,1.25,0,0,0,1.77-.05,1.27,1.27,0,0,0,0-1.68h0c-.38-.43-.78-.92-1.17-1.39l-1.17-1.44-2.32-2.89h0a1.632,1.632,0,0,0-2.54,2.05Z" fill="#ffa08a"/>
    </g>
    <ellipse id="Elipse_7775" data-name="Elipse 7775" cx="6.72" cy="9.82" rx="6.72" ry="9.82" transform="translate(1156.222 12186.868) rotate(-86)" fill="#fff"/>
    <path id="Trazado_190451" data-name="Trazado 190451" d="M379.3,186a.21.21,0,0,0,.18-.11s2.1-4.74,5.85-4.34a.19.19,0,0,0,.21-.17.2.2,0,0,0-.17-.21c-4-.43-6.23,4.51-6.25,4.56a.21.21,0,0,0,.1.26Z" transform="translate(797.09 11934.117)" fill="#000932"/>
    <path id="Trazado_190452" data-name="Trazado 190452" d="M379.77,186.06a.2.2,0,0,0,.14-.06s2.31-2.34,5.07-1.88a.21.21,0,0,0,.22-.16.19.19,0,0,0-.16-.22c-3-.49-5.31,1.89-5.41,2a.19.19,0,0,0,0,.27.16.16,0,0,0,.14.05Z" transform="translate(797.09 11934.117)" fill="#000932"/>
    <path id="Trazado_190453" data-name="Trazado 190453" d="M404.64,249.38a.21.21,0,0,0,.15-.08,28.529,28.529,0,0,0,3.46-6.64c1.32-3.61,2.39-9,0-14.29-2.44-5.43-9.3-7-10.68-7.24.62-1.5,4-10.08,3.56-16.74-.53-7.33-6.88-11.72-6.95-11.76a.18.18,0,0,0-.26.05.19.19,0,0,0,.05.27c.06,0,6.26,4.33,6.78,11.46s-3.58,16.69-3.62,16.79l-.11.23h.25c.08,0,8,1.24,10.63,7.07,4.44,9.86-3.36,20.44-3.44,20.54a.2.2,0,0,0,0,.27A.19.19,0,0,0,404.64,249.38Z" transform="translate(797.09 11934.117)" fill="#000932"/>
  </g>
</svg>
