<svg xmlns="http://www.w3.org/2000/svg" width="528.56" height="419.08" viewBox="0 0 528.56 419.08">
  <g id="Grupo_94340" data-name="Grupo 94340" transform="translate(-238.54 -1964.421)">
    <rect id="Rectángulo_39673" data-name="Rectángulo 39673" width="49.9" height="82.8" transform="translate(249.58 2040.931)" fill="#bdcddf"/>
    <rect id="Rectángulo_39674" data-name="Rectángulo 39674" width="53.92" height="82.8" transform="translate(301.39 2040.931)" fill="#bdcddf"/>
    <rect id="Rectángulo_39675" data-name="Rectángulo 39675" width="53.92" height="80" transform="translate(301.39 2129.521)" fill="#bdcddf"/>
    <path id="Trazado_190630" data-name="Trazado 190630" d="M199.12,84.83H255.9V11.38h1.92V84.83h46.21V9.75H199.12Z" transform="translate(163.1 1954.671)" fill="#bdcddf"/>
    <rect id="Rectángulo_39676" data-name="Rectángulo 39676" width="46.21" height="82.8" transform="translate(420.92 2040.931)" fill="#bdcddf"/>
    <rect id="Rectángulo_39677" data-name="Rectángulo 39677" width="46.21" height="80" transform="translate(420.92 2129.521)" fill="#bdcddf"/>
    <rect id="Rectángulo_39678" data-name="Rectángulo 39678" width="49.9" height="80" transform="translate(249.58 2129.521)" fill="#bdcddf"/>
    <rect id="Rectángulo_39679" data-name="Rectángulo 39679" width="56.78" height="80" transform="translate(362.22 2129.521)" fill="#bdcddf"/>
    <rect id="Rectángulo_39680" data-name="Rectángulo 39680" width="49.9" height="72.09" transform="translate(249.58 2210.961)" fill="#bdcddf"/>
    <rect id="Rectángulo_39681" data-name="Rectángulo 39681" width="46.21" height="72.09" transform="translate(420.92 2210.961)" fill="#bdcddf"/>
    <path id="Trazado_190631" data-name="Trazado 190631" d="M136.38,84.83V11.38h1.91V84.83h53.92V9.75H86.47V84.83Z" transform="translate(163.1 1954.671)" fill="#bdcddf"/>
    <rect id="Rectángulo_39682" data-name="Rectángulo 39682" width="56.78" height="72.09" transform="translate(362.22 2210.961)" fill="#bdcddf"/>
    <rect id="Rectángulo_39683" data-name="Rectángulo 39683" width="53.92" height="72.09" transform="translate(301.39 2210.961)" fill="#bdcddf"/>
    <rect id="Rectángulo_39684" data-name="Rectángulo 39684" width="56.78" height="82.8" transform="translate(362.22 2040.931)" fill="#bdcddf"/>
    <path id="Trazado_190632" data-name="Trazado 190632" d="M427.33,126.83l-13.55-6.13a33.38,33.38,0,1,1,10.38-8.44Zm-13.59-7.38,12,5.44L423,112l.17-.22a32.15,32.15,0,1,0-9.62,7.83Z" transform="translate(163.1 1954.671)" fill="#e1e1e1"/>
    <circle id="Elipse_7779" data-name="Elipse 7779" cx="29.43" cy="29.43" r="29.43" transform="translate(499.903 2072.249) rotate(-75.63)" fill="#e1e1e1"/>
    <path id="Trazado_190633" data-name="Trazado 190633" d="M351.16,112.65l-3.01,15.55,13.91-6.69Z" transform="translate(163.1 1954.671)" fill="#e1e1e1"/>
    <circle id="Elipse_7780" data-name="Elipse 7780" cx="3.96" cy="3.96" r="3.96" transform="translate(519.529 2047.071)" fill="#fff"/>
    <path id="Trazado_190634" data-name="Trazado 190634" d="M375.22,96.36a4,4,0,1,1-4-4A4,4,0,0,1,375.22,96.36Z" transform="translate(163.1 1954.671)" fill="#fff"/>
    <circle id="Elipse_7781" data-name="Elipse 7781" cx="3.96" cy="3.96" r="3.96" transform="translate(541.279 2047.071)" fill="#fff"/>
    <path id="Trazado_190635" data-name="Trazado 190635" d="M357.89,428.57c0,.14-63.24.26-141.22.26s-141.23-.12-141.23-.26,63.22-.27,141.23-.27S357.89,428.42,357.89,428.57Z" transform="translate(163.1 1954.671)" fill="#1a2e35"/>
    <path id="Trazado_190636" data-name="Trazado 190636" d="M227.26,258.8l8.79-6.15a34.25,34.25,0,1,1,1.58,12.17h0Z" transform="translate(163.1 1954.671)" fill="#fff"/>
    <path id="Trazado_190637" data-name="Trazado 190637" d="M227.26,258.8l.7.39,2,1.14,7.73,4.42-.16.09h0a.12.12,0,0,1,.11-.11.11.11,0,0,1,.1.08,34.11,34.11,0,0,0,13.07,17.58,38.131,38.131,0,0,0,4.91,2.78,34,34,0,0,0,42.57-49.8,34.64,34.64,0,0,0-11.51-10.58,33.46,33.46,0,0,0-14.1-4.22,34.27,34.27,0,0,0-13.53,1.76,33.65,33.65,0,0,0-10.79,6.08l-1.11,1a9.743,9.743,0,0,0-1,1l-1.92,2a46.931,46.931,0,0,0-3.12,4.29,34.08,34.08,0,0,0-5,16,.12.12,0,0,1,0,.08l-6.55,4.5-1.7,1.17-.6.4.54-.4,1.66-1.19,6.53-4.65v.08a34.06,34.06,0,0,1,4.94-16.14,47.725,47.725,0,0,1,3.13-4.35l1.93-2.07a9.93,9.93,0,0,1,1.05-1l1.11-1a34.44,34.44,0,0,1,24.59-8,33.82,33.82,0,0,1,14.3,4.25,34.93,34.93,0,0,1,11.67,10.71,34,34,0,0,1,5.74,15.57,16,16,0,0,1,.16,2.08l.07,2.07-.11,2.07a14,14,0,0,1-.2,2c-.11.68-.21,1.35-.32,2a19,19,0,0,1-.46,2c-.18.66-.32,1.32-.53,2l-.7,1.89a33.89,33.89,0,0,1-8.69,12.87,34.31,34.31,0,0,1-38.08,5.85,38.067,38.067,0,0,1-4.94-2.83,32.39,32.39,0,0,1-4.12-3.37,34.16,34.16,0,0,1-9-14.43h.21a.1.1,0,0,1-.1.11.07.07,0,0,1-.06,0l-7.72-4.57-2-1.17Z" transform="translate(163.1 1954.671)" fill="#1a2e35"/>
    <path id="Trazado_190638" data-name="Trazado 190638" d="M258.12,254.92l3.53-3.53,6.81,6.05,13.36-12.86,3.28,3.53-17.15,16.14Z" transform="translate(163.1 1954.671)" fill="#1a2e35"/>
    <rect id="Rectángulo_39685" data-name="Rectángulo 39685" width="1" height="164.21" transform="translate(524.1 2145.32)" fill="#1a2e35"/>
    <rect id="Rectángulo_39686" data-name="Rectángulo 39686" width="149.52" height="49.69" rx="24.845" transform="translate(440.949 2101.23)" fill="#4dd0e1"/>
    <text id="XP" transform="translate(502.84 2132.631)" fill="#fff" font-size="24" font-family="SegoeUI-Bold, Segoe UI" font-weight="700"><tspan x="0" y="0">XP</tspan></text>
    <g id="Grupo_94030" data-name="Grupo 94030" transform="translate(163.1 1954.671)">
      <path id="Trazado_190639" data-name="Trazado 190639" d="M520.74,406.85H477a5.4,5.4,0,0,1-5.47-5.32V342.69a5.4,5.4,0,0,1,5.47-5.32h27.72l21.46,21.51v42.65A5.4,5.4,0,0,1,520.74,406.85Z" fill="#375a64"/>
      <g id="Grupo_94028" data-name="Grupo 94028" opacity="0.2">
        <path id="Trazado_190640" data-name="Trazado 190640" d="M504.75,337.37v16.56a5,5,0,0,0,5.09,4.95h16.37Z" fill="#fff"/>
      </g>
      <g id="Grupo_94029" data-name="Grupo 94029" opacity="0.2">
        <path id="Trazado_190641" data-name="Trazado 190641" d="M505,355.38s-.21,4,4.49,5.34l.54.12c2.14.37,16.21,2.8,16.21,2.49v-4.45h-16.4S505.75,358.74,505,355.38Z"/>
      </g>
    </g>
    <g id="Grupo_94031" data-name="Grupo 94031" transform="translate(163.1 1954.671)" opacity="0.3">
      <path id="Trazado_190642" data-name="Trazado 190642" d="M471.56,384.95h54.65v17.92a4,4,0,0,1-4,4H475.54a4,4,0,0,1-4-4V384.95Z"/>
    </g>
    <g id="Grupo_94032" data-name="Grupo 94032" transform="translate(163.1 1954.671)">
      <path id="Trazado_190643" data-name="Trazado 190643" d="M490.73,391.53v7.34H489v-3h-3.34v3H484v-7.34h1.7v2.89H489v-2.89Z" fill="#fafafa"/>
      <path id="Trazado_190644" data-name="Trazado 190644" d="M494,392.91h-2.35v-1.38H498v1.38h-2.35v6H494Z" fill="#fafafa"/>
      <path id="Trazado_190645" data-name="Trazado 190645" d="M505.63,398.87v-4.4l-2.16,3.63h-.76l-2.15-3.54v4.31H499v-7.34h1.41l2.75,4.56,2.7-4.56h1.4v7.34Z" fill="#fafafa"/>
      <path id="Trazado_190646" data-name="Trazado 190646" d="M509,391.53h1.7v6h3.68v1.38H509Z" fill="#fafafa"/>
    </g>
    <path id="Trazado_190647" data-name="Trazado 190647" d="M493.67,365.55l-6.56,3,6.56,3v3.1l-9.38-4.48V367l9.38-4.49Z" transform="translate(163.1 1954.671)" fill="#fff"/>
    <path id="Trazado_190648" data-name="Trazado 190648" d="M504.23,371.6l6.56-3-6.56-3v-3.1l9.38,4.49v3.22l-9.38,4.48Z" transform="translate(163.1 1954.671)" fill="#fff"/>
    <path id="Trazado_190649" data-name="Trazado 190649" d="M498.44,359.44l2.9-.07L499.14,378l-2.89-.07Z" transform="translate(163.1 1954.671)" fill="#fff"/>
    <g id="Grupo_94038" data-name="Grupo 94038" transform="translate(163.1 1954.671)">
      <path id="Trazado_190650" data-name="Trazado 190650" d="M394.34,406.85H350.62a5.39,5.39,0,0,1-5.46-5.32V342.69a5.39,5.39,0,0,1,5.46-5.32h27.73l21.45,21.51v42.65a5.39,5.39,0,0,1-5.46,5.32Z" fill="#375a64"/>
      <g id="Grupo_94036" data-name="Grupo 94036" opacity="0.2">
        <path id="Trazado_190651" data-name="Trazado 190651" d="M378.35,337.37v16.56a5,5,0,0,0,5.08,4.95H399.8Z" fill="#fff"/>
      </g>
      <g id="Grupo_94037" data-name="Grupo 94037" opacity="0.2">
        <path id="Trazado_190652" data-name="Trazado 190652" d="M378.57,355.38s-.22,4,4.49,5.34a4.549,4.549,0,0,0,.53.12c2.14.37,16.21,2.8,16.21,2.49v-4.45H383.43S379.34,358.74,378.57,355.38Z"/>
      </g>
    </g>
    <g id="Grupo_94039" data-name="Grupo 94039" transform="translate(163.1 1954.671)" opacity="0.3">
      <path id="Trazado_190653" data-name="Trazado 190653" d="M345.16,384.95H399.8v17.92a4,4,0,0,1-4,4H349.14a4,4,0,0,1-4-4V384.95Z"/>
    </g>
    <g id="Grupo_94040" data-name="Grupo 94040" transform="translate(163.1 1954.671)">
      <path id="Trazado_190654" data-name="Trazado 190654" d="M364.32,391.53v7.34h-1.7v-3h-3.33v3h-1.7v-7.34h1.7v2.89h3.33v-2.89Z" fill="#fafafa"/>
      <path id="Trazado_190655" data-name="Trazado 190655" d="M367.58,392.91h-2.35v-1.38h6.4v1.38h-2.35v6h-1.7Z" fill="#fafafa"/>
      <path id="Trazado_190656" data-name="Trazado 190656" d="M379.23,398.87v-4.4l-2.16,3.63h-.77l-2.15-3.54v4.31h-1.59v-7.34H374l2.75,4.56,2.71-4.56h1.39v7.34Z" fill="#fafafa"/>
      <path id="Trazado_190657" data-name="Trazado 190657" d="M382.56,391.53h1.7v6H388v1.38h-5.39Z" fill="#fafafa"/>
    </g>
    <path id="Trazado_190658" data-name="Trazado 190658" d="M367.26,365.55l-6.56,3,6.56,3v3.1l-9.37-4.48V367l9.37-4.49Z" transform="translate(163.1 1954.671)" fill="#fff"/>
    <path id="Trazado_190659" data-name="Trazado 190659" d="M377.83,371.6l6.56-3-6.56-3v-3.1l9.38,4.49v3.22l-9.38,4.48Z" transform="translate(163.1 1954.671)" fill="#fff"/>
    <path id="Trazado_190660" data-name="Trazado 190660" d="M372,359.44l2.9-.07L372.73,378l-2.88-.07Z" transform="translate(163.1 1954.671)" fill="#fff"/>
    <g id="Grupo_94047" data-name="Grupo 94047" transform="translate(163.1 1954.671)">
      <path id="Trazado_190661" data-name="Trazado 190661" d="M141.07,240.93a48.88,48.88,0,0,0,15.59,36.89q3.5-10.1,7-20.19" fill="#1a2e35"/>
      <g id="Grupo_94046" data-name="Grupo 94046">
        <path id="Trazado_190662" data-name="Trazado 190662" d="M193.62,200.76c-6-3.27-13.21-3.74-19.9-2.4s-12.92,4.37-18.82,7.78c-3.31,1.92-6.61,4-9,7-4.35,5.46-8.64,14.44-9.06,21.41-.34,5.64,1.82,19.75,4.2,24.87,2.19,4.69,12.42,8.27,17.47,9.43L204.85,215a23.45,23.45,0,0,0-11.23-14.24Z" fill="#1a2e35"/>
        <path id="Trazado_190663" data-name="Trazado 190663" d="M201.61,208l-11.11-2c6.07,14.46,7.72,47.52,11.19,62.82,4.09-5.94,13.6-24,13.09-31.23S214.8,206.8,201.61,208Z" fill="#1a2e35"/>
        <path id="Trazado_190664" data-name="Trazado 190664" d="M148.94,232.1a19,19,0,0,1,14.28-17.47l25.58-6.52c11-1.2,18.43,12.4,19.16,23.5.8,12.32,1.3,25.33-.14,34.53-2.9,18.51-17.07,20.9-17.07,20.9v14.2l-8.57,35.44L154.6,298.57l-5.71-66.24C148.87,232,148.91,232.52,148.94,232.1Z" fill="#ffbf9d"/>
        <path id="Trazado_190665" data-name="Trazado 190665" d="M202.4,245.58a2.37,2.37,0,0,1-2.28,2.4,2.26,2.26,0,0,1-2.45-2.13,2.36,2.36,0,0,1,2.28-2.4,2.27,2.27,0,0,1,2.45,2.13Z" fill="#1a2e35"/>
        <path id="Trazado_190666" data-name="Trazado 190666" d="M205.18,238.85c-.29.31-2.09-1-4.65-1s-4.42,1.29-4.69,1c-.14-.14.16-.7,1-1.29a6.55,6.55,0,0,1,3.76-1.17,6.27,6.27,0,0,1,3.7,1.19C205.06,238.16,205.32,238.71,205.18,238.85Z" fill="#1a2e35"/>
        <path id="Trazado_190667" data-name="Trazado 190667" d="M180.15,245.58a2.38,2.38,0,0,1-2.29,2.4,2.27,2.27,0,0,1-2.45-2.13,2.38,2.38,0,0,1,2.28-2.4,2.27,2.27,0,0,1,2.46,2.13Z" fill="#1a2e35"/>
        <path id="Trazado_190668" data-name="Trazado 190668" d="M180.94,238.85c-.3.31-2.1-1-4.65-1s-4.42,1.29-4.7,1c-.14-.14.16-.7,1-1.29a6.55,6.55,0,0,1,3.76-1.17,6.27,6.27,0,0,1,3.7,1.19C180.81,238.16,181.08,238.71,180.94,238.85Z" fill="#1a2e35"/>
        <path id="Trazado_190669" data-name="Trazado 190669" d="M188.92,258.9c0-.14,1.57-.42,4.14-.75.65-.07,1.27-.2,1.38-.65a3.32,3.32,0,0,0-.44-1.93l-1.94-5c-2.69-7.06-4.64-12.87-4.36-13s2.7,5.53,5.39,12.59l1.86,5a3.77,3.77,0,0,1,.35,2.56,1.67,1.67,0,0,1-1.07,1,4.418,4.418,0,0,1-1.11.16C190.53,259,188.93,259.05,188.92,258.9Z" fill="#1a2e35"/>
        <path id="Trazado_190670" data-name="Trazado 190670" d="M166.21,280.45s6,12.71,24.53,10.94V287A46.6,46.6,0,0,1,166.21,280.45Z" fill="#ff9a6c"/>
        <path id="Trazado_190671" data-name="Trazado 190671" d="M180.14,229.63c-.25.69-2.8.37-5.8.74s-5.41,1.19-5.81.57c-.18-.3.24-1,1.21-1.63a10.17,10.17,0,0,1,8.85-1C179.69,228.76,180.24,229.3,180.14,229.63Z" fill="#1a2e35"/>
        <path id="Trazado_190672" data-name="Trazado 190672" d="M204.35,231c-.45.59-2.21,0-4.32,0s-3.91.4-4.32-.2c-.18-.3.1-.88.88-1.43a6.148,6.148,0,0,1,6.96.16C204.3,230.17,204.54,230.76,204.35,231Z" fill="#1a2e35"/>
        <path id="Trazado_190673" data-name="Trazado 190673" d="M202.93,214.71c-1.13-2.78-4.18-4.45-7.18-4.61a15.84,15.84,0,0,0-8.54,2.49c-11,6.37-16.68,21.75-27.56,28.34-2.68,1.62-6.16.14-8.44,2.28s-3.75,5.58-2.5,8.44a25.78,25.78,0,0,1-3.77-6.39,8.75,8.75,0,0,1,.3-7.21c.95-1.63,2.61-2.87,3.07-4.7.4-1.61-.24-3.29-.17-4.95a10.82,10.82,0,0,1,1.7-4.72c4.26-7.54,10.13-14.36,17.68-18.6a31.33,31.33,0,0,1,16.23-4.2A23.93,23.93,0,0,1,199.2,207c2.44,2.27,5,4.62,3.73,7.7" fill="#1a2e35"/>
        <g id="Grupo_94044" data-name="Grupo 94044">
          <path id="Trazado_190674" data-name="Trazado 190674" d="M151.48,245.5c-.2-.53-9.85-4-10,6.25-.12,10,9.93,8,9.95,7.71S151.48,245.5,151.48,245.5Z" fill="#ffbf9d"/>
          <path id="Trazado_190675" data-name="Trazado 190675" d="M148.41,255.66a3,3,0,0,1-.46.25,1.73,1.73,0,0,1-1.3,0c-1.05-.4-1.92-2.08-2-3.87a5.72,5.72,0,0,1,.51-2.49,2,2,0,0,1,1.31-1.32.89.89,0,0,1,1,.49c.13.28.07.48.12.5s.22-.17.14-.58a1.07,1.07,0,0,0-.39-.63,1.25,1.25,0,0,0-.95-.26,2.41,2.41,0,0,0-1.83,1.53,5.89,5.89,0,0,0-.63,2.77c.05,2,1.06,3.89,2.49,4.32a1.86,1.86,0,0,0,1.59-.24C148.39,255.9,148.45,255.68,148.41,255.66Z" fill="#ff9a6c"/>
        </g>
        <path id="Trazado_190676" data-name="Trazado 190676" d="M147.51,240.38a2.94,2.94,0,0,0,.6-.33c.38-.24,1-.57,1.67-1.06a34.141,34.141,0,0,0,5.38-4.9,93.31,93.31,0,0,0,6.58-8.55A78.388,78.388,0,0,1,170,215.31a31.491,31.491,0,0,1,5.31-4.2,26.311,26.311,0,0,1,5.73-2.6,28.44,28.44,0,0,1,10.56-1.29,27.249,27.249,0,0,1,7.07,1.38c.82.25,1.42.53,1.84.69a6,6,0,0,0,.65.23,2.711,2.711,0,0,0-.61-.32,17.442,17.442,0,0,0-1.82-.77,26.211,26.211,0,0,0-7.11-1.54,28.211,28.211,0,0,0-10.7,1.22,26.231,26.231,0,0,0-5.84,2.62,31.169,31.169,0,0,0-5.39,4.25,75.591,75.591,0,0,0-8.25,10.32,102.25,102.25,0,0,1-6.48,8.58,37,37,0,0,1-5.24,5c-.68.52-1.25.86-1.61,1.13a4.212,4.212,0,0,0-.6.37Z" fill="#375a64"/>
        <g id="Grupo_94045" data-name="Grupo 94045">
          <path id="Trazado_190677" data-name="Trazado 190677" d="M147.28,257.42a2,2,0,1,0,.47.15" fill="#fff"/>
          <path id="Trazado_190678" data-name="Trazado 190678" d="M147.75,257.57a2.71,2.71,0,0,1,.89,1.34,1.65,1.65,0,0,1-.39,1.56,1.86,1.86,0,0,1-1.85.54,1.9,1.9,0,0,1-1.21-1.51,1.7,1.7,0,0,1,.59-1.5,2.66,2.66,0,0,1,1.5-.58.936.936,0,0,0-.46-.11,2.1,2.1,0,0,0-1.25.44,2,2,0,0,0-.8,1.79,2.14,2.14,0,0,0,3.8,1.21,2.084,2.084,0,0,0-.38-3C147.93,257.57,147.76,257.55,147.75,257.57Z" fill="#1a2e35"/>
        </g>
      </g>
      <path id="Trazado_190679" data-name="Trazado 190679" d="M150,243.2c-.16,2.72-.28,5.6,1,8s4.43,4.06,6.8,2.71c1.93-1.11,2.51-3.58,2.83-5.78.95-6.34,1.38-12.76,2.38-19.1Z" fill="#1a2e35"/>
      <path id="Trazado_190680" data-name="Trazado 190680" d="M200.48,210c0,.06-.88-.16-2.48-.22a17.05,17.05,0,0,0-6.59,1.21,21.4,21.4,0,0,0-4.13,2.13,43.439,43.439,0,0,0-4.26,3.25,51.22,51.22,0,0,0-8.35,9c-1.26,1.77-2.39,3.6-3.6,5.29a25.18,25.18,0,0,1-4,4.49,44.769,44.769,0,0,1-8.42,5.64c-2.55,1.34-4.68,2.29-6.15,2.94l-1.71.73a2.289,2.289,0,0,1-.61.21,4.458,4.458,0,0,1,.56-.32l1.66-.82c1.44-.71,3.55-1.71,6.06-3.09a45.871,45.871,0,0,0,8.26-5.67,25,25,0,0,0,3.89-4.43c1.2-1.67,2.32-3.5,3.6-5.3a50.349,50.349,0,0,1,8.46-9.06A43.716,43.716,0,0,1,187,212.7a21.5,21.5,0,0,1,4.25-2.11,16.46,16.46,0,0,1,6.74-1.05,12.369,12.369,0,0,1,1.85.25,2.851,2.851,0,0,1,.64.21Z" fill="#375a64"/>
      <path id="Trazado_190681" data-name="Trazado 190681" d="M149.74,237.05a3.9,3.9,0,0,1-.88.59l-2.52,1.48-.85.49a2.56,2.56,0,0,1-1.09.36,1,1,0,0,1-.68-.16.87.87,0,0,1-.37-.65,2.21,2.21,0,0,1,.47-1.26q1.35-2.16,2.93-4.69l.39.36a10.4,10.4,0,0,1-6.76,2,3.269,3.269,0,0,1-.91-.15,1.22,1.22,0,0,1-.77-.68,1.06,1.06,0,0,1,.17-1,4.451,4.451,0,0,1,.56-.63,20.559,20.559,0,0,0,3.4-4.28,35.743,35.743,0,0,0,2.16-4.59,5.62,5.62,0,0,1-.32,1.35,18.622,18.622,0,0,1-1.5,3.44,19.91,19.91,0,0,1-3.37,4.45c-.38.35-.74.76-.6,1.07s.68.47,1.21.47a10,10,0,0,0,3.37-.4,10.181,10.181,0,0,0,3-1.51l1.19-.87-.8,1.24-3,4.65a2,2,0,0,0-.43,1c0,.28.26.44.58.42a5,5,0,0,0,1.79-.74l2.6-1.34a4.45,4.45,0,0,1,1.03-.42Z" fill="#375a64"/>
    </g>
    <path id="Trazado_190682" data-name="Trazado 190682" d="M179.21,263.61a3.33,3.33,0,0,1,3.44-2.53,3.51,3.51,0,0,1,2.68,1.91,4.32,4.32,0,0,1,.15,3.33l-.06.24a3.79,3.79,0,0,1-4.26.91A3.55,3.55,0,0,1,179.21,263.61Z" transform="translate(163.1 1954.671)" fill="#ff9a6c"/>
    <path id="Trazado_190683" data-name="Trazado 190683" d="M187.28,266.61c0-.39-2.58-.26-4.52-2.38s-1.8-4.88-2.16-4.88c-.17,0-.47.63-.45,1.8a6.45,6.45,0,0,0,1.66,4.08,5.59,5.59,0,0,0,3.78,1.83C186.67,267.11,187.3,266.79,187.28,266.61Z" transform="translate(163.1 1954.671)" fill="#1a2e35"/>
    <path id="Trazado_190684" data-name="Trazado 190684" d="M137.16,295.82l17.78-2.58,35.56,5.27,9.98,3.52-1.77,21.83-34.19,6.29-23.07-6.83-8.72-12.83Z" transform="translate(163.1 1954.671)" fill="#ffbf9d"/>
    <g id="Grupo_94051" data-name="Grupo 94051" transform="translate(163.1 1954.671)">
      <path id="Trazado_190685" data-name="Trazado 190685" d="M126,297.91l14.88-3.51s10.51,32.52,36.47,31.12c21.16-1.14,21.4-24.76,21.4-24.76L214,305.65s5.83,39.11-.63,66.81l-3.52,15.2,2.06,40.49-112.77.18Z" fill="#4dd0e1"/>
      <g id="Grupo_94049" data-name="Grupo 94049" opacity="0.3">
        <path id="Trazado_190686" data-name="Trazado 190686" d="M170.16,420.29c-5.48-.14-10.55.33-16,.19-6.58-.16-13.22-.32-19.72.75-4.87.8-9.61,2.29-14.49,3.06-6.64,1-13.74.67-19.66-2.53l1-5.52,22.47-5.41Z"/>
      </g>
      <path id="Trazado_190687" data-name="Trazado 190687" d="M226.69,314.76c-5.16-6.66-13.73-9.43-13.73-9.43l-5.77,50.22,10.92,73.13,35.79-.17S234.16,324.41,226.69,314.76Z" fill="#4dd0e1"/>
      <path id="Trazado_190688" data-name="Trazado 190688" d="M127.7,297.54s-24.09,1.93-32.7,41.39c-3.91,17.85-8.85,38.77-10.28,52.83-1,10.2,4.51,26.16,14.68,27.47l12.78,1.71a20.941,20.941,0,0,0,7.53-.28c8.07-1.85,8.89-7.39,10.32-13.27l3.73-11.78c2-11.2-8.4-13.29-14.16-13.17l4.3-51.12Z" fill="#4dd0e1"/>
      <path id="Trazado_190689" data-name="Trazado 190689" d="M215.94,333.25a3.719,3.719,0,0,1,.11.55l.24,1.59c.05.35.11.73.17,1.15s.09.89.14,1.38c.1,1,.22,2.11.27,3.36a83.742,83.742,0,0,1,.06,8.78,106.462,106.462,0,0,1-1.07,10.69c-.55,3.78-1.25,7.34-2,10.57s-1.4,6.12-2,8.54-1.12,4.38-1.49,5.72l-.43,1.55a3.211,3.211,0,0,1-.17.53,2.31,2.31,0,0,1,.1-.55l.36-1.56c.33-1.4.8-3.36,1.37-5.75s1.24-5.33,1.92-8.55,1.37-6.79,1.92-10.55.93-7.37,1.09-10.66a77.034,77.034,0,0,0,0-8.75c0-1.24-.14-2.37-.22-3.35,0-.49-.07-.95-.11-1.38s-.09-.8-.13-1.15c-.07-.67-.13-1.2-.17-1.6a2.631,2.631,0,0,1,.04-.56Z" fill="#1a2e35"/>
      <path id="Trazado_190690" data-name="Trazado 190690" d="M100.67,396.28a4.379,4.379,0,0,1,.19-1,15.838,15.838,0,0,1,.94-2.6,17.68,17.68,0,0,1,14.13-10.29,16.292,16.292,0,0,1,2.76-.09,3.551,3.551,0,0,1,1,.13,36.915,36.915,0,0,0-3.72.23A18.22,18.22,0,0,0,102,392.81,32.7,32.7,0,0,0,100.67,396.28Z" fill="#1a2e35"/>
      <path id="Trazado_190691" data-name="Trazado 190691" d="M106.24,376.62a1.54,1.54,0,0,1,.58-.06,12.7,12.7,0,0,1,1.59.08,18,18,0,0,1,5.08,1.27,18.49,18.49,0,0,1,4.52,2.67,11.49,11.49,0,0,1,1.17,1.07c.26.27.4.43.38.45s-.65-.52-1.72-1.3a21.448,21.448,0,0,0-4.49-2.53,21.869,21.869,0,0,0-5-1.36C107.07,376.71,106.24,376.68,106.24,376.62Z" fill="#1a2e35"/>
      <path id="Trazado_190692" data-name="Trazado 190692" d="M131.18,325.52a5,5,0,0,1-.06-1.06c0-.67-.05-1.65-.13-2.86a45.79,45.79,0,0,0-5.07-18.07c-.56-1.07-1-1.93-1.38-2.51a5.548,5.548,0,0,1-.5-.93,5.55,5.55,0,0,1,.62.85c.39.56.91,1.4,1.5,2.46a41.46,41.46,0,0,1,5.1,18.18,27.315,27.315,0,0,1,0,2.89A7.453,7.453,0,0,1,131.18,325.52Z" fill="#1a2e35"/>
      <path id="Trazado_190693" data-name="Trazado 190693" d="M177.31,361.35a1.69,1.69,0,0,1-.11.41c-.09.27-.19.67-.4,1.17a24.54,24.54,0,0,1-2,4.06A25.81,25.81,0,0,1,156,379.25a25.542,25.542,0,0,1-6.72,0,23.568,23.568,0,0,1-4.43-1c-.51-.15-.89-.32-1.15-.41a2.49,2.49,0,0,1-.4-.18l1.6.45a27.333,27.333,0,0,0,4.41.84,26.2,26.2,0,0,0,25.3-12.15,26.5,26.5,0,0,0,2.1-4C177.08,361.89,177.28,361.34,177.31,361.35Z" fill="#1a2e35"/>
      <path id="Trazado_190694" data-name="Trazado 190694" d="M126.55,416.87a10.95,10.95,0,0,1-1.32,1.24,12,12,0,0,1-4.41,2.1,23.469,23.469,0,0,1-7.25.64c-2.75-.2-5.79-.52-8.94-1a45.349,45.349,0,0,1-8.73-2,10.931,10.931,0,0,1-3.2-2.14,16.73,16.73,0,0,1-2.25-2.55A24,24,0,0,1,88,408.89c-.23-.54-.41-.95-.51-1.24s-.18-.44-.2-.43a2.509,2.509,0,0,0,.12.45c.09.3.24.73.45,1.28a21.929,21.929,0,0,0,2.38,4.37,16,16,0,0,0,2.25,2.62,11.379,11.379,0,0,0,3.28,2.24,44.113,44.113,0,0,0,8.81,2.06c3.17.47,6.2.78,9,1a23.269,23.269,0,0,0,7.34-.73,11.721,11.721,0,0,0,4.44-2.26,7.9,7.9,0,0,0,.94-1,3.663,3.663,0,0,0,.25-.38Z" fill="#1a2e35"/>
      <path id="Trazado_190695" data-name="Trazado 190695" d="M130.52,338.1c-.1,0-2.64,9.83-5.67,22s-5.4,22.09-5.3,22.12,2.64-9.84,5.67-22S130.63,338.12,130.52,338.1Z" fill="#1a2e35"/>
      <path id="Trazado_190696" data-name="Trazado 190696" d="M133.59,393.75a3.73,3.73,0,0,0,.12-.81,12.708,12.708,0,0,0,0-2.24,6.49,6.49,0,0,0-1.08-3.16,9.319,9.319,0,0,0-1.24-1.56,8.83,8.83,0,0,0-1.71-1.27,21.42,21.42,0,0,0-7-2.26,19.641,19.641,0,0,0-2.22-.2,3.5,3.5,0,0,0-.82,0c0,.06,1.16.11,3,.44a23.371,23.371,0,0,1,6.86,2.32,8.529,8.529,0,0,1,1.64,1.22,9.087,9.087,0,0,1,1.2,1.47,6.45,6.45,0,0,1,1.11,3,18.3,18.3,0,0,1,.07,2.21,3.572,3.572,0,0,0,.07.84Z" fill="#1a2e35"/>
      <g id="Grupo_94050" data-name="Grupo 94050" opacity="0.3">
        <path id="Trazado_190697" data-name="Trazado 190697" d="M214.83,366.38c6.14-10.4,6.27-23.93.91-34.76a97.38,97.38,0,0,1-1.09,34.72"/>
      </g>
    </g>
    <g id="Grupo_94053" data-name="Grupo 94053" transform="translate(163.1 1954.671)">
      <g id="Grupo_94052" data-name="Grupo 94052">
        <path id="Trazado_190698" data-name="Trazado 190698" d="M182.3,392.36Z" fill="#ffbf9d"/>
        <path id="Trazado_190699" data-name="Trazado 190699" d="M182,392.49l-.1.05Z" fill="#ffbf9d"/>
        <path id="Trazado_190700" data-name="Trazado 190700" d="M182.26,392.39l-.22.1Z" fill="#ffbf9d"/>
        <path id="Trazado_190701" data-name="Trazado 190701" d="M182.4,392.32h0Z" fill="#ffbf9d"/>
        <path id="Trazado_190702" data-name="Trazado 190702" d="M205,413.1c-1.93-3.66-17-13.3-17-13.3l4.09-.95,4.51,1.91a11.16,11.16,0,0,0,1.95,4.23c1.66,2.37,4.48-.08,4.48-.08l-1.91-9.15-8.94-5.37s-8.4,1.28-9.76,1.93l-3.59,3.28c-1.57,1.23-6.11,6.09-7.35,6.24s-40.25-8.63-40.25-8.63h0c-5.35,4.24-8.17,12.65-9,18.72,0,0-1,3,.09,4.6l47.88,3.76,10.15,2.8a72.464,72.464,0,0,0,8.33,2.87c3.38.71,5.65-.38,5.75-2.25s-2.53-2.07-2.53-2.07a51.6,51.6,0,0,1-6.53-2.87,11.51,11.51,0,0,1-3.68-4l3.62.43s7.69,5.34,10.58,6.9,3.46-1.3,3.69-2.18-8.63-9.55-8.63-9.55,8.43,5.2,10,6.51,3.76,1.7,4.25.82S207,416.76,205,413.1Z" fill="#ffbf9d"/>
        <path id="Trazado_190703" data-name="Trazado 190703" d="M181.94,392.54h-.09Z" fill="#ffbf9d"/>
        <path id="Trazado_190704" data-name="Trazado 190704" d="M181.81,392.6Z" fill="#ffbf9d"/>
        <path id="Trazado_190705" data-name="Trazado 190705" d="M181.85,392.58Z" fill="#ffbf9d"/>
      </g>
      <path id="Trazado_190706" data-name="Trazado 190706" d="M163.41,414a1.79,1.79,0,0,1,0-.6,3.6,3.6,0,0,1,0-.69,4.938,4.938,0,0,1,.17-.91A12.77,12.77,0,0,1,166,407a26.937,26.937,0,0,1,3.69-3.83,11.208,11.208,0,0,1,1.74-1.35,18.735,18.735,0,0,1-1.57,1.53,35.86,35.86,0,0,0-3.58,3.87,14,14,0,0,0-2.49,4.57,20.317,20.317,0,0,0-.38,2.21Z" fill="#ff9a6c"/>
      <path id="Trazado_190707" data-name="Trazado 190707" d="M187.63,399.51a4.37,4.37,0,0,1-2.58-.23,4.44,4.44,0,0,1-2.2-1.37c.07-.09,1,.6,2.31,1S187.63,399.41,187.63,399.51Z" fill="#ff9a6c"/>
      <path id="Trazado_190708" data-name="Trazado 190708" d="M190.14,409.53a46.7,46.7,0,0,1-7.56-3.11,23.528,23.528,0,0,1,3.85,1.39,24,24,0,0,1,3.71,1.72Z" fill="#ff9a6c"/>
      <path id="Trazado_190709" data-name="Trazado 190709" d="M182,414.64a9,9,0,0,1-2-.69,8.829,8.829,0,0,1-1.92-.83,5,5,0,0,1,2.05.5,5.06,5.06,0,0,1,1.87,1.02Z" fill="#ff9a6c"/>
      <path id="Trazado_190710" data-name="Trazado 190710" d="M188.9,410.2a7.691,7.691,0,0,0-1.5,1.3,8.129,8.129,0,0,0-.85,1.78c-.05,0-.09-.24,0-.62a3.1,3.1,0,0,1,.6-1.38,3.16,3.16,0,0,1,1.17-.95C188.64,410.17,188.88,410.15,188.9,410.2Z" fill="#ff9a6c"/>
      <path id="Trazado_190711" data-name="Trazado 190711" d="M192.44,404.61c.05.09-.61.45-1.05,1.21a9.419,9.419,0,0,0-.54,1.52,1.81,1.81,0,0,1,.24-1.7C191.59,404.77,192.43,404.51,192.44,404.61Z" fill="#ff9a6c"/>
      <path id="Trazado_190712" data-name="Trazado 190712" d="M191.24,394.62a1.047,1.047,0,0,1-.28-.48,2.43,2.43,0,0,1,0-1.33,2.54,2.54,0,0,1,.63-1.17c.25-.24.45-.33.47-.29a6.871,6.871,0,0,0-.76,1.55,7.36,7.36,0,0,0-.06,1.72Z" fill="#ff9a6c"/>
      <path id="Trazado_190713" data-name="Trazado 190713" d="M121.85,417.9a5.66,5.66,0,0,0,.07-1.1v-1.28a8.7,8.7,0,0,1,.12-1.7,37.7,37.7,0,0,1,2.09-9.6,33.409,33.409,0,0,1,2.27-4.91c.43-.71.82-1.4,1.26-2,.21-.31.42-.6.62-.88l.61-.78a31.589,31.589,0,0,1,2.75-3,6.888,6.888,0,0,0-.86.7,10.282,10.282,0,0,0-.94.89,16.806,16.806,0,0,0-1.16,1.26l-.64.77c-.21.27-.42.57-.64.87-.46.6-.86,1.29-1.31,2a33.14,33.14,0,0,0-2.33,5,35.419,35.419,0,0,0-2,9.71,15.18,15.18,0,0,1-.06,1.71,9.177,9.177,0,0,0,0,1.29,7.51,7.51,0,0,0,.15,1.05Z" fill="#1a2e35"/>
    </g>
    <g id="Grupo_94054" data-name="Grupo 94054" transform="translate(163.1 1954.671)" opacity="0.3">
      <path id="Trazado_190714" data-name="Trazado 190714" d="M105.42,383.69a24,24,0,0,1,14.19-1.29h0a19.59,19.59,0,0,0-19.14,12.38c-.35.92-1,2-2,1.86s-1.25-1.27-1.25-2.18C97.22,389.67,101,385.53,105.42,383.69Z"/>
    </g>
    <path id="Trazado_190715" data-name="Trazado 190715" d="M216.23,329.87a2.919,2.919,0,0,0,.64-.22c.4-.16,1-.42,1.66-.76a36.429,36.429,0,0,0,5.16-3.17,35.831,35.831,0,0,0,4.54-4,9.773,9.773,0,0,0,1.22-1.37c.22-.37.42-.53.4-.55a23.572,23.572,0,0,0-1.81,1.73,47.152,47.152,0,0,1-4.58,3.88,49.193,49.193,0,0,1-5.05,3.24,20.355,20.355,0,0,0-2.18,1.22Z" transform="translate(163.1 1954.671)" fill="#fff"/>
    <path id="Trazado_190716" data-name="Trazado 190716" d="M130.83,332.65a.88.88,0,0,0,.19.13l.56.34c.5.3,1.25.71,2.23,1.23a63.463,63.463,0,0,0,8.62,3.63,81.878,81.878,0,0,0,13.49,3.24,130.064,130.064,0,0,0,16.92,1.4c6,.15,11.77,0,17-.08a114.514,114.514,0,0,0,13.83-1.05,54.508,54.508,0,0,0,9.11-2.11c1-.36,1.85-.65,2.38-.89l.61-.25.21-.1a1,1,0,0,0-.22.06l-.63.22c-.54.21-1.35.48-2.4.81a56.627,56.627,0,0,1-9.1,2,115.577,115.577,0,0,1-13.8,1c-5.22.1-10.95.2-17,.06A135.1,135.1,0,0,1,156,340.87a84.556,84.556,0,0,1-13.45-3.15,68.622,68.622,0,0,1-8.64-3.5c-1-.5-1.75-.89-2.26-1.17l-.58-.3Z" transform="translate(163.1 1954.671)" fill="#fff"/>
    <path id="Trazado_190717" data-name="Trazado 190717" d="M216,359a5.344,5.344,0,0,0,.91-.2l2.46-.67c2.08-.58,4.94-1.42,8.08-2.36s6-1.81,8.05-2.46l2.43-.79a5.122,5.122,0,0,0,.87-.34,3.828,3.828,0,0,0-.91.19l-2.46.68c-2.08.58-4.94,1.41-8.09,2.35s-6,1.82-8,2.47l-2.43.79A3.619,3.619,0,0,0,216,359Z" transform="translate(163.1 1954.671)" fill="#fff"/>
    <path id="Trazado_190718" data-name="Trazado 190718" d="M213.81,399.9c0,.1,7.42-2,16.5-4.73s16.42-5,16.39-5.11-7.42,2-16.5,4.74S213.78,399.8,213.81,399.9Z" transform="translate(163.1 1954.671)" fill="#fff"/>
    <path id="Trazado_190719" data-name="Trazado 190719" d="M106.9,311.44a4.469,4.469,0,0,0,.81.65c.54.39,1.33.94,2.33,1.59a81.736,81.736,0,0,0,8.11,4.59,78.337,78.337,0,0,0,8.6,3.61c1.13.4,2.05.69,2.69.88a7,7,0,0,0,1,.25,4.261,4.261,0,0,0-1-.39l-2.64-1c-2.22-.85-5.26-2.1-8.52-3.7s-6.1-3.24-8.13-4.48l-2.4-1.49a6.488,6.488,0,0,0-.85-.51Z" transform="translate(163.1 1954.671)" fill="#fff"/>
    <path id="Trazado_190720" data-name="Trazado 190720" d="M92.16,353.47a7.721,7.721,0,0,0,1.2.57c.78.35,1.93.81,3.37,1.34A78.13,78.13,0,0,0,120.09,360c1.53.06,2.77.07,3.62.05A8.232,8.232,0,0,0,125,360a11.128,11.128,0,0,0-1.33-.08c-.85,0-2.08-.08-3.61-.18a92.155,92.155,0,0,1-11.8-1.53,90.647,90.647,0,0,1-11.48-3.1c-1.45-.49-2.61-.91-3.4-1.22a9.542,9.542,0,0,0-1.22-.42Z" transform="translate(163.1 1954.671)" fill="#fff"/>
    <path id="Trazado_190721" data-name="Trazado 190721" d="M113.46,420.71a1.33,1.33,0,0,0,0-.42,10.523,10.523,0,0,0-.18-1.16c-.07-.47-.19-1.12-.26-1.85s-.2-1.54-.23-2.45c0-.46-.06-.94-.09-1.43s0-1,0-1.56c0-1.07,0-2.22.1-3.42a46.32,46.32,0,0,1,3.67-15.2c.5-1.1,1-2.15,1.48-3.1.25-.47.47-.94.72-1.37l.73-1.23c.45-.8.94-1.47,1.33-2.08s.77-1.12,1.08-1.52l.69-1a1.36,1.36,0,0,0,.22-.35,3.557,3.557,0,0,0-.28.3l-.75.92a16.719,16.719,0,0,0-1.13,1.49c-.42.6-.92,1.26-1.39,2.05l-.75,1.23c-.26.43-.5.9-.76,1.38-.53.94-1,2-1.51,3.1a47.941,47.941,0,0,0-2.53,7.49,48.782,48.782,0,0,0-1.17,7.82c0,1.22-.12,2.37-.07,3.46v1.56c0,.5.08,1,.12,1.44a16.635,16.635,0,0,0,.29,2.46c.1.72.21,1.34.32,1.85s.19.84.26,1.15A2.14,2.14,0,0,0,113.46,420.71Z" transform="translate(163.1 1954.671)" fill="#fff"/>
    <path id="Trazado_190722" data-name="Trazado 190722" d="M84.88,398s.06-.6.23-1.67a14.7,14.7,0,0,1,1.45-4.31,18.47,18.47,0,0,1,4.18-5.27,21.929,21.929,0,0,1,7.11-4.15,27.68,27.68,0,0,1,8.14-1.44,52.334,52.334,0,0,1,6.8.26c1.93.18,3.49.37,4.57.49l1.24.14h.44a1.84,1.84,0,0,0-.43-.1l-1.23-.2c-1.07-.17-2.63-.41-4.56-.63a50.158,50.158,0,0,0-6.84-.33,27.27,27.27,0,0,0-8.26,1.42,21.8,21.8,0,0,0-7.21,4.26,17.85,17.85,0,0,0-4.19,5.41A13.76,13.76,0,0,0,85,396.34a12.409,12.409,0,0,0-.09,1.25A3,3,0,0,0,84.88,398Z" transform="translate(163.1 1954.671)" fill="#fff"/>
    <path id="Trazado_190723" data-name="Trazado 190723" d="M164.47,376.62a1.72,1.72,0,0,0,.41.07l1.21.12,4.44.38c3.75.28,8.93.64,14.66.94s10.92.48,14.68.52h6.09a1.241,1.241,0,0,0-.42,0h-1.21l-4.45-.1c-3.76-.11-8.94-.34-14.67-.64l-14.66-.83-4.45-.25-1.21-.05a1.668,1.668,0,0,0-.42-.16Z" transform="translate(163.1 1954.671)" fill="#fff"/>
    <g id="Grupo_94055" data-name="Grupo 94055" transform="translate(163.1 1954.671)" opacity="0.3">
      <path id="Trazado_190724" data-name="Trazado 190724" d="M160.17,378.15c-4.66,1.38-11.12,1.71-15.66,0,3.55,5.05,10.41,6.88,16.36,5.23s11.43-7.6,11.89-13.75a25.46,25.46,0,0,1-12.59,8.52Z"/>
    </g>
    <path id="Trazado_190725" data-name="Trazado 190725" d="M122.38,373.28a1.251,1.251,0,0,0,.37.1l1.07.23c.94.19,2.3.45,4,.74,3.37.59,8,1.32,13.21,1.95s9.88,1.05,13.29,1.29c1.7.12,3.08.2,4,.24h1.48a1.588,1.588,0,0,1-.38-.07l-1.09-.11-4-.36c-3.4-.31-8.09-.77-13.26-1.4s-9.84-1.31-13.21-1.84l-4-.62-1.09-.15A1.907,1.907,0,0,0,122.38,373.28Z" transform="translate(163.1 1954.671)" fill="#fff"/>
    <g id="Grupo_94056" data-name="Grupo 94056" transform="translate(163.1 1954.671)" opacity="0.3">
      <path id="Trazado_190726" data-name="Trazado 190726" d="M130.13,340.34C131.3,353.73,127.65,367,124,380a5.56,5.56,0,0,1-1,2.23,1.93,1.93,0,0,1-2.21.61c-1.12-.57-1-2.2-.65-3.43l10-38.49"/>
    </g>
    <g id="Grupo_94058" data-name="Grupo 94058" transform="translate(163.1 1954.671)">
      <path id="Trazado_190727" data-name="Trazado 190727" d="M317.43,353.69l-15.2,74.64h-132a2.64,2.64,0,0,1-2.64-2.64h0a2.64,2.64,0,0,1,2.64-2.63H196.8l14.09-69.42a2.89,2.89,0,0,1,2.8-2.31l100.86-1.1a2.88,2.88,0,0,1,2.88,3.46Z" fill="#e1e1e1"/>
      <path id="Trazado_190728" data-name="Trazado 190728" d="M317.43,353.69q.006-.115,0-.23a2.34,2.34,0,0,0,0-.68,2.89,2.89,0,0,0-2.27-2.52,4.439,4.439,0,0,0-1-.07h-2.37l-5.94.05-38.14.36-26.58.27-14.9.15-7.81.08h-5a3.23,3.23,0,0,0-1,.29A3.06,3.06,0,0,0,211,353a4.848,4.848,0,0,0-.28,1l-.2,1c-.14.67-.28,1.34-.41,2-.28,1.35-.55,2.71-.83,4.07q-.84,4.11-1.69,8.31l-3.5,17.18c-2.38,11.7-4.85,23.88-7.4,36.42l.18-.15H170.7a6.171,6.171,0,0,0-1,.06,2.82,2.82,0,0,0-2.19,3.19,2.79,2.79,0,0,0,2.68,2.38H302.41v-.12l11.05-54.53,3-14.92c.34-1.7.6-3,.77-3.88s.25-1.33.25-1.33-.1.44-.29,1.32-.45,2.18-.81,3.88c-.7,3.42-1.74,8.44-3.07,14.9-2.65,12.92-6.47,31.58-11.17,54.51l.14-.11H170.18a2.42,2.42,0,0,1-1.08-.29,2.46,2.46,0,0,1-1.25-1.79,2.43,2.43,0,0,1,.4-1.76,2.5,2.5,0,0,1,1.51-1,4.2,4.2,0,0,1,.95-.05H197v-.15c2.55-12.54,5-24.72,7.39-36.42q1.79-8.78,3.49-17.19.84-4.2,1.68-8.3c.28-1.37.55-2.73.82-4.08.14-.67.28-1.34.41-2l.21-1a4.561,4.561,0,0,1,.25-.95,2.69,2.69,0,0,1,1.3-1.36,2.82,2.82,0,0,1,.91-.27h1l4-.05,7.82-.09,14.89-.17,26.58-.31,38.14-.47,5.94-.08h2.37a4.791,4.791,0,0,1,1,.06,2.84,2.84,0,0,1,2.25,2.46A3.94,3.94,0,0,1,317.43,353.69Z" fill="#1a2e35"/>
    </g>
    <path id="Trazado_190729" data-name="Trazado 190729" d="M256.62,387.85a4.36,4.36,0,1,0,4.36-4.36,4.36,4.36,0,0,0-4.36,4.36Z" transform="translate(163.1 1954.671)" fill="#fff"/>
    <path id="Trazado_190730" data-name="Trazado 190730" d="M317.31,354.29h-6.92l-18.87.1-62.25.43-9,.08h-2.21a6.287,6.287,0,0,0-1.13.07,3.23,3.23,0,0,0-1.07.44,3.13,3.13,0,0,0-1.34,1.81c-.16.73-.28,1.42-.43,2.13-1.12,5.62-2.19,11.05-3.22,16.21-2,10.34-3.88,19.64-5.42,27.46l-3.63,18.52c-.42,2.18-.75,3.87-1,5-.1.56-.18,1-.24,1.31a4.337,4.337,0,0,0-.07.45,1.617,1.617,0,0,1,.1-.45c.1-.3.16-.74.28-1.3l1-5c.88-4.38,2.16-10.7,3.74-18.5s3.43-17.11,5.5-27.44c1-5.17,2.12-10.59,3.24-16.21.14-.69.28-1.42.43-2.1a2.76,2.76,0,0,1,1.19-1.61,2.66,2.66,0,0,1,.94-.38,4.639,4.639,0,0,1,1.07-.06h2.21l9-.07,62.25-.55,18.87-.2,5.13-.08h1.34Z" transform="translate(163.1 1954.671)" fill="#1a2e35"/>
    <path id="Trazado_190731" data-name="Trazado 190731" d="M100.31,423.4h.18l.51.05,2,.16c1.71.14,4.2.31,7.27.49,6.15.36,14.66.74,24.05.89s17.91.07,24.07-.09c3.08-.08,5.57-.16,7.29-.24l2-.1h-2l-7.29.12c-6.15.09-14.66.13-24.05,0s-17.89-.49-24-.78l-7.28-.37-2-.09h-.7Z" transform="translate(163.1 1954.671)" fill="#fff"/>
    <line id="Línea_842" data-name="Línea 842" x2="3" transform="translate(695.35 2332.541)" fill="none" stroke="#7390c6" stroke-miterlimit="10" stroke-width="2"/>
    <line id="Línea_843" data-name="Línea 843" x2="59.59" transform="translate(702.46 2332.541)" fill="none" stroke="#7390c6" stroke-miterlimit="10" stroke-width="2" stroke-dasharray="6.16 4.11"/>
    <line id="Línea_844" data-name="Línea 844" x2="3" transform="translate(764.1 2332.541)" fill="none" stroke="#7390c6" stroke-miterlimit="10" stroke-width="2"/>
    <line id="Línea_845" data-name="Línea 845" x2="3" transform="translate(562.899 2332.541)" fill="none" stroke="#7390c6" stroke-miterlimit="10" stroke-width="2"/>
    <line id="Línea_846" data-name="Línea 846" x2="59.59" transform="translate(570.01 2332.541)" fill="none" stroke="#7390c6" stroke-miterlimit="10" stroke-width="2" stroke-dasharray="6.16 4.11"/>
    <line id="Línea_847" data-name="Línea 847" x2="3" transform="translate(631.649 2332.541)" fill="none" stroke="#7390c6" stroke-miterlimit="10" stroke-width="2"/>
  </g>
</svg>
