<svg xmlns="http://www.w3.org/2000/svg" width="499.295" height="402.38" viewBox="0 0 499.295 402.38">
  <g id="Grupo_94341" data-name="Grupo 94341" transform="translate(-895 -2952.2)">
    <rect id="Rectángulo_39662" data-name="Rectángulo 39662" width="47.69" height="79.13" transform="translate(895 3059.391)" fill="#bdcddf"/>
    <rect id="Rectángulo_39663" data-name="Rectángulo 39663" width="51.52" height="79.13" transform="translate(944.521 3059.391)" fill="#bdcddf"/>
    <rect id="Rectángulo_39664" data-name="Rectángulo 39664" width="51.52" height="76.45" transform="translate(944.521 3144.04)" fill="#bdcddf"/>
    <path id="Trazado_190562" data-name="Trazado 190562" d="M172.82,105.82h54.26V35.63h1.83v70.19h44.16V34.07H172.82Z" transform="translate(829.83 2952.2)" fill="#bdcddf"/>
    <rect id="Rectángulo_39665" data-name="Rectángulo 39665" width="44.16" height="79.13" transform="translate(1058.74 3059.391)" fill="#bdcddf"/>
    <rect id="Rectángulo_39666" data-name="Rectángulo 39666" width="44.16" height="76.45" transform="translate(1058.74 3144.04)" fill="#bdcddf"/>
    <rect id="Rectángulo_39667" data-name="Rectángulo 39667" width="47.69" height="76.45" transform="translate(895 3144.04)" fill="#bdcddf"/>
    <rect id="Rectángulo_39668" data-name="Rectángulo 39668" width="54.26" height="76.45" transform="translate(1002.65 3144.04)" fill="#bdcddf"/>
    <path id="Trazado_190563" data-name="Trazado 190563" d="M112.86,105.82V35.63h1.83v70.19h51.53V34.07H65.17v71.75Z" transform="translate(829.83 2952.2)" fill="#bdcddf"/>
    <rect id="Rectángulo_39669" data-name="Rectángulo 39669" width="54.26" height="79.13" transform="translate(1002.65 3059.391)" fill="#bdcddf"/>
    <path id="Trazado_190564" data-name="Trazado 190564" d="M364.57,298.5c0,.14-47.69.26-106.49.26s-106.51-.12-106.51-.26,47.68-.26,106.51-.26S364.57,298.36,364.57,298.5Z" transform="translate(829.83 2952.2)" fill="#1a2e35"/>
    <path id="Trazado_190565" data-name="Trazado 190565" d="M382.88,117.13l-9.68-6.37a37,37,0,1,0-1.34,13.2h0Z" transform="translate(829.83 2952.2)" fill="#fff"/>
    <path id="Trazado_190566" data-name="Trazado 190566" d="M382.88,117.13l-.74.44-2.13,1.3-8.21,5,.17.1h0a.1.1,0,0,0-.11-.12.11.11,0,0,0-.11.08,36.81,36.81,0,0,1-13.59,19.4,41.68,41.68,0,0,1-5.21,3.16A36.7,36.7,0,0,1,305.43,94a37.28,37.28,0,0,1,12.11-11.78,36.15,36.15,0,0,1,15.11-5,36.85,36.85,0,0,1,26.52,7.72l1.22,1a9.391,9.391,0,0,1,1.15,1l2.14,2.14a51.8,51.8,0,0,1,3.5,4.55,36.8,36.8,0,0,1,5.91,17.12.11.11,0,0,0,.05.09l7.21,4.66,1.88,1.21c.42.28.65.41.65.41l-.6-.41-1.82-1.23c-1.65-1.11-4.07-2.72-7.2-4.83l.05.09a36.88,36.88,0,0,0-5.84-17.3,52.464,52.464,0,0,0-3.51-4.6l-2.15-2.18a10.668,10.668,0,0,0-1.17-1l-1.23-1a37.16,37.16,0,0,0-26.81-7.88,36.52,36.52,0,0,0-15.32,5A38,38,0,0,0,305,93.69a37.12,37.12,0,0,0-5.72,17,17,17,0,0,0-.11,2.25v2.24l.19,2.23a16.134,16.134,0,0,0,.28,2.2c.14.73.27,1.45.4,2.18s.39,1.42.57,2.12.38,1.42.63,2.1l.81,2a36.59,36.59,0,0,0,9.79,13.64,37.36,37.36,0,0,0,28.5,9,36.75,36.75,0,0,0,12.82-3.83,41.709,41.709,0,0,0,5.25-3.21,35.808,35.808,0,0,0,4.35-3.77A37,37,0,0,0,372,124h-.23a.12.12,0,0,0,.12.12.07.07,0,0,0,.06,0l8.2-5.17,2.08-1.32Z" transform="translate(829.83 2952.2)" fill="#1a2e35"/>
    <path id="Trazado_190567" data-name="Trazado 190567" d="M329.06,107.65a4.41,4.41,0,1,1,4.42-4.41A4.41,4.41,0,0,1,329.06,107.65Zm0-6.46a2.05,2.05,0,1,0,2.05,2,2.05,2.05,0,0,0-2.05-2Z" transform="translate(829.83 2952.2)" fill="#1a2e35"/>
    <path id="Trazado_190568" data-name="Trazado 190568" d="M329.06,128.65a4.42,4.42,0,1,1,4.42-4.41A4.42,4.42,0,0,1,329.06,128.65Zm0-6.46a2,2,0,1,0,2.05,2,2.05,2.05,0,0,0-2.05-2Z" transform="translate(829.83 2952.2)" fill="#1a2e35"/>
    <path id="Trazado_190569" data-name="Trazado 190569" d="M347,128.65a4.42,4.42,0,1,1,4.41-4.41,4.42,4.42,0,0,1-4.41,4.41Zm0-6.46a2,2,0,1,0,2,2,2.05,2.05,0,0,0-2-2Z" transform="translate(829.83 2952.2)" fill="#1a2e35"/>
    <rect id="Rectángulo_39670" data-name="Rectángulo 39670" width="2.37" height="14.84" transform="translate(1157.58 3058.73)" fill="#1a2e35"/>
    <path id="Trazado_190570" data-name="Trazado 190570" d="M348.55,121.92h-2.37V109.6a5.18,5.18,0,0,0-5.17-5.18h-3.08v-2.36H341a7.55,7.55,0,0,1,7.54,7.54Z" transform="translate(829.83 2952.2)" fill="#1a2e35"/>
    <path id="Trazado_190571" data-name="Trazado 190571" d="M339.61,98.88v8.43l-4.59-4.07Z" transform="translate(829.83 2952.2)" fill="#1a2e35"/>
    <rect id="Rectángulo_39671" data-name="Rectángulo 39671" width="23.33" height="1" transform="translate(1120.67 3328.561)" fill="#1a2e35"/>
    <rect id="Rectángulo_39672" data-name="Rectángulo 39672" width="12.21" height="1" transform="translate(1101.94 3328.561)" fill="#1a2e35"/>
    <path id="Trazado_190572" data-name="Trazado 190572" d="M121.08,244.32h-42a5.19,5.19,0,0,1-5.26-5.12V182.63a5.19,5.19,0,0,1,5.26-5.12l30.66.53,16.62,20.15v41a5.19,5.19,0,0,1-5.28,5.13Z" transform="translate(829.83 2952.2)" fill="#375a64"/>
    <g id="Grupo_93995" data-name="Grupo 93995" transform="translate(829.83 2952.2)" opacity="0.3">
      <path id="Trazado_190573" data-name="Trazado 190573" d="M73.8,223.26h52.54v17.08a4,4,0,0,1-4,4H77.78a4,4,0,0,1-4-4V223.26Z"/>
    </g>
    <g id="Grupo_93996" data-name="Grupo 93996" transform="translate(829.83 2952.2)">
      <path id="Trazado_190574" data-name="Trazado 190574" d="M92.23,229.58v7.07H90.59v-2.9h-3.2v2.9H85.75v-7.07h1.64v2.79h3.2v-2.79Z" fill="#fafafa"/>
      <path id="Trazado_190575" data-name="Trazado 190575" d="M95.36,230.92H93.1v-1.34h6.16v1.34H97v5.73H95.36Z" fill="#fafafa"/>
      <path id="Trazado_190576" data-name="Trazado 190576" d="M106.56,236.65v-4.24l-2.08,3.49h-.73l-2.07-3.4v4.15h-1.54v-7.07h1.36l2.64,4.39,2.6-4.39h1.34v7.07Z" fill="#fafafa"/>
      <path id="Trazado_190577" data-name="Trazado 190577" d="M109.77,229.58h1.63v5.73h3.54v1.34h-5.17Z" fill="#fafafa"/>
    </g>
    <path id="Trazado_190578" data-name="Trazado 190578" d="M95.06,204.61l-6.31,2.91,6.31,2.88v3l-9-4.31V206l9-4.31Z" transform="translate(829.83 2952.2)" fill="#fff"/>
    <path id="Trazado_190579" data-name="Trazado 190579" d="M105.21,210.42l6.31-2.9-6.31-2.89v-3l9,4.31v3.1l-9,4.31Z" transform="translate(829.83 2952.2)" fill="#fff"/>
    <path id="Trazado_190580" data-name="Trazado 190580" d="M99.64,198.73l2.79-.06-2.12,18-2.77-.07Z" transform="translate(829.83 2952.2)" fill="#fff"/>
    <g id="Grupo_93999" data-name="Grupo 93999" transform="translate(829.83 2952.2)">
      <circle id="Elipse_7778" data-name="Elipse 7778" cx="15.51" cy="15.51" r="15.51" transform="translate(106.76 171.09)" fill="#fff"/>
      <path id="Trazado_190581" data-name="Trazado 190581" d="M137.78,186.6a24.829,24.829,0,0,0-.58-3.76,14.879,14.879,0,0,0-1.73-4.08,15.31,15.31,0,0,0-3.93-4.34,15.11,15.11,0,0,0-6.45-2.84,15.27,15.27,0,0,0-8,.68,14.19,14.19,0,0,0-3.86,2.08,14.39,14.39,0,0,0-3.23,3.24,15.22,15.22,0,0,0,0,18,15.319,15.319,0,0,0,25.49-1.17,15,15,0,0,0,1.73-4.08,24.648,24.648,0,0,0,.58-3.77.72.72,0,0,1,0,.25c0,.2,0,.45,0,.74a7.048,7.048,0,0,1-.1,1.2,10.14,10.14,0,0,1-.29,1.62,14.74,14.74,0,0,1-1.68,4.19,15.656,15.656,0,0,1-18.82,6.8,15.84,15.84,0,0,1-7.33-5.48,15.68,15.68,0,0,1,0-18.64,15.687,15.687,0,0,1,7.34-5.47,15.654,15.654,0,0,1,18.82,6.8,15.12,15.12,0,0,1,1.68,4.18,10.54,10.54,0,0,1,.29,1.62,7.05,7.05,0,0,1,.1,1.2c0,.3,0,.54,0,.74A.67.67,0,0,1,137.78,186.6Z" fill="#1a2e35"/>
    </g>
    <path id="Trazado_190582" data-name="Trazado 190582" d="M114.62,187.94l2.1-2.1,4.06,3.6,7.96-7.66,1.95,2.1-10.21,9.62Z" transform="translate(829.83 2952.2)" fill="#4dd0e1"/>
    <g id="Grupo_94004" data-name="Grupo 94004" transform="translate(829.83 2952.2)">
      <path id="Trazado_190583" data-name="Trazado 190583" d="M237,402.36H193.28a5.39,5.39,0,0,1-5.46-5.32V338.2a5.39,5.39,0,0,1,5.46-5.32H221l21.45,21.51V397a5.39,5.39,0,0,1-5.45,5.36Z" fill="#375a64"/>
      <g id="Grupo_94002" data-name="Grupo 94002" opacity="0.2">
        <path id="Trazado_190584" data-name="Trazado 190584" d="M221,332.88v16.56a5,5,0,0,0,5.08,4.95h16.37Z" fill="#fff"/>
      </g>
      <g id="Grupo_94003" data-name="Grupo 94003" opacity="0.2">
        <path id="Trazado_190585" data-name="Trazado 190585" d="M221.23,350.9s-.22,4,4.49,5.33a4.549,4.549,0,0,0,.53.12c2.14.37,16.21,2.81,16.21,2.49v-4.45H226.09S222,354.26,221.23,350.9Z"/>
      </g>
    </g>
    <g id="Grupo_94005" data-name="Grupo 94005" transform="translate(829.83 2952.2)" opacity="0.3">
      <path id="Trazado_190586" data-name="Trazado 190586" d="M187.82,380.46h54.65v17.92a4,4,0,0,1-4,4H191.8a4,4,0,0,1-4-4V380.46Z"/>
    </g>
    <g id="Grupo_94006" data-name="Grupo 94006" transform="translate(829.83 2952.2)">
      <path id="Trazado_190587" data-name="Trazado 190587" d="M207,387v7.35h-1.7v-3H202v3h-1.7V387H202v2.9h3.33V387Z" fill="#fafafa"/>
      <path id="Trazado_190588" data-name="Trazado 190588" d="M210.24,388.43h-2.35V387h6.4v1.39h-2.35v6h-1.7Z" fill="#fafafa"/>
      <path id="Trazado_190589" data-name="Trazado 190589" d="M221.89,394.39V390l-2.16,3.63H219l-2.15-3.54v4.32h-1.59V387h1.4l2.75,4.57,2.71-4.57h1.39v7.35Z" fill="#fafafa"/>
      <path id="Trazado_190590" data-name="Trazado 190590" d="M225.22,387h1.7v6h3.69v1.39h-5.39Z" fill="#fafafa"/>
    </g>
    <path id="Trazado_190591" data-name="Trazado 190591" d="M209.92,361.07l-6.56,3,6.56,3v3.09l-9.37-4.48v-3.22l9.37-4.49Z" transform="translate(829.83 2952.2)" fill="#fff"/>
    <path id="Trazado_190592" data-name="Trazado 190592" d="M220.49,367.11l6.56-3-6.56-3V358l9.38,4.49v3.22l-9.38,4.48Z" transform="translate(829.83 2952.2)" fill="#fff"/>
    <path id="Trazado_190593" data-name="Trazado 190593" d="M214.69,355l2.9-.07-2.2,18.68-2.88-.07Z" transform="translate(829.83 2952.2)" fill="#fff"/>
    <path id="Trazado_190594" data-name="Trazado 190594" d="M458.44,46.88a12.59,12.59,0,0,0-11.62,4.62A8.11,8.11,0,0,0,438,63.43a9,9,0,0,0-.62,14.19l30.8-22.83a12.61,12.61,0,0,0-9.74-7.91Z" transform="translate(829.83 2952.2)" fill="#1a2e35"/>
    <g id="Grupo_94011" data-name="Grupo 94011" transform="translate(829.83 2952.2)">
      <g id="Grupo_94010" data-name="Grupo 94010">
        <path id="Trazado_190595" data-name="Trazado 190595" d="M437.16,79.08a31.42,31.42,0,0,1,32.71-27.31l1.63.08c17.47,1.9,25.62,17.79,23.25,35.21l-5.44,58.22-.29,2.83-40.84,6.1.79-14.87s-16.71-3.46-16.08-20.31C433.19,110.89,435.18,94.18,437.16,79.08Z" fill="#ae7461"/>
        <path id="Trazado_190596" data-name="Trazado 190596" d="M448.84,139.31a40.89,40.89,0,0,0,22.39-5.37s-5.8,11.87-22.53,9.51Z" fill="#6f4439"/>
        <path id="Trazado_190597" data-name="Trazado 190597" d="M441.64,94.64a2.41,2.41,0,0,0,2.2,2.54,2.31,2.31,0,0,0,2.59-2.05,2.41,2.41,0,0,0-2.2-2.54,2.31,2.31,0,0,0-2.59,2.05Z" fill="#1a2e35"/>
        <path id="Trazado_190598" data-name="Trazado 190598" d="M440.37,87.5c.28.32,2.17-.93,4.76-.8s4.42,1.53,4.71,1.22c.15-.13-.13-.71-.92-1.35a6.55,6.55,0,0,0-3.76-1.37,6.36,6.36,0,0,0-3.81,1C440.52,86.79,440.23,87.35,440.37,87.5Z" fill="#1a2e35"/>
        <path id="Trazado_190599" data-name="Trazado 190599" d="M465.73,96.55a2.4,2.4,0,0,0,2.2,2.54,2.3,2.3,0,0,0,2.59-2,2.4,2.4,0,0,0-2.2-2.54,2.31,2.31,0,0,0-2.59,2Z" fill="#1a2e35"/>
        <path id="Trazado_190600" data-name="Trazado 190600" d="M465.79,89.24c.28.33,2.17-.93,4.76-.79S475,90,475.26,89.67c.15-.13-.13-.71-.93-1.36A6.56,6.56,0,0,0,470.58,87a6.36,6.36,0,0,0-3.81,1C466,88.54,465.65,89.1,465.79,89.24Z" fill="#1a2e35"/>
        <path id="Trazado_190601" data-name="Trazado 190601" d="M455.44,108c0-.15-1.58-.5-4.17-1-.66-.1-1.27-.26-1.36-.72a3.34,3.34,0,0,1,.53-1.93c.71-1.57,1.44-3.22,2.21-4.94,3.07-7,5.33-12.82,5-13s-3,5.48-6.07,12.51l-2.12,5a3.87,3.87,0,0,0-.48,2.58,1.67,1.67,0,0,0,1,1,4.27,4.27,0,0,0,1.12.21A21.482,21.482,0,0,0,455.44,108Z" fill="#1a2e35"/>
        <path id="Trazado_190602" data-name="Trazado 190602" d="M463,110.14c-.42,0-.57,2.76-3.07,4.64s-5.48,1.42-5.52,1.81c-.05.17.64.58,1.9.67a6.94,6.94,0,0,0,4.6-1.35,6.07,6.07,0,0,0,2.39-3.9C463.44,110.84,463.16,110.13,463,110.14Z" fill="#1a2e35"/>
        <path id="Trazado_190603" data-name="Trazado 190603" d="M465.62,79.07c.22.71,2.82.51,5.84,1s5.43,1.47,5.87.86c.19-.29-.2-1-1.16-1.71a10.34,10.34,0,0,0-8.92-1.43C466.12,78.2,465.53,78.73,465.62,79.07Z" fill="#1a2e35"/>
        <path id="Trazado_190604" data-name="Trazado 190604" d="M441.69,80.05c.43.61,2.24.09,4.39.17s3.94.59,4.38,0c.2-.29,0-.9-.82-1.49a6.35,6.35,0,0,0-7.07-.13C441.78,79.16,441.5,79.76,441.69,80.05Z" fill="#1a2e35"/>
        <path id="Trazado_190605" data-name="Trazado 190605" d="M439.16,71.43s5-10.33,10.17-12.53c6.31-2.68,8.63,4.21,14.57,2.86s12-3.91,17.75.92c6.31,5.29,3.06,8.62,3.1,16.12.14,30.38,5.24,39.22,7.53,25,.25-1.56,4.65-2.59,5.62-9.16,1.26-8.52,2.11-18.91.5-25.08-1.36-5.21-4.11-8.89-9.15-13.06-8-6.57-19.32-7.26-27.07-6.87S439.11,58.19,439.16,71.43Z" fill="#1a2e35"/>
        <path id="Trazado_190606" data-name="Trazado 190606" d="M491.23,103.32a4.58,4.58,0,0,1,5.15-4.17c3.13.46,6.54,2.42,6,8.9-.94,11.49-12.29,8.18-12.29,7.85S490.79,108.12,491.23,103.32Z" fill="#ae7461"/>
        <path id="Trazado_190607" data-name="Trazado 190607" d="M493,111.78c.05,0,.19.15.51.34a2.09,2.09,0,0,0,1.5.15c1.25-.35,2.43-2.19,2.65-4.26a6.591,6.591,0,0,0-.32-2.91,2.32,2.32,0,0,0-1.38-1.66,1,1,0,0,0-1.23.45c-.18.31-.13.54-.19.56s-.23-.21-.1-.68a1.28,1.28,0,0,1,.51-.68,1.51,1.51,0,0,1,1.14-.21,2.83,2.83,0,0,1,1.94,2,6.82,6.82,0,0,1,.43,3.26c-.26,2.31-1.62,4.38-3.32,4.72a2.14,2.14,0,0,1-1.81-.45C493,112.06,492.92,111.79,493,111.78Z" fill="#6f4439"/>
      </g>
      <path id="Trazado_190608" data-name="Trazado 190608" d="M495.56,83.85A11.8,11.8,0,0,1,490.18,86c-1.95.09-4.12-1.13-4.35-3.08-.1-.87.16-1.86-.38-2.56s-1.9-.64-2.94-.58a8,8,0,0,1-7.95-6.09c-1,1.33-3.13,1.16-4.48.2s-2.18-2.49-3.21-3.79-2.5-2.5-4.15-2.34c-.93.08-1.81.58-2.73.46-1.63-.23-2.33-2.18-2.49-3.81s-.27-3.53-1.61-4.48-2.92-.49-4.43-.34-3.43-.3-3.74-1.79a2.91,2.91,0,0,1,.66-2.22A8.06,8.06,0,0,1,458,53a11.19,11.19,0,0,1,9.69-7.28c4.28-.24,8.26-1.45,10.12,2.41,2.74-2.25,6.93.69,10.35,1.65a11.29,11.29,0,0,1,7.46,7,8,8,0,0,1,8.46,12.11c2.17,1.39,4,3.7,3.89,6.27s-2.72,5-5.16,4.21a4.45,4.45,0,0,1-7.9,4" fill="#1a2e35"/>
    </g>
    <g id="Grupo_94015" data-name="Grupo 94015" transform="translate(829.83 2952.2)">
      <g id="Grupo_94014" data-name="Grupo 94014">
        <g id="Grupo_94013" data-name="Grupo 94013">
          <path id="Trazado_190609" data-name="Trazado 190609" d="M526.44,245.53l34-7.34s-4.67-25.58-10.47-51.52c-4.62-20.68-27.48-26.43-27.48-26.43h0L496,148.56l-3.57-13.74c-14.57,7.2-28.69,14.12-37.22,17.59l-7.79-8.61-3.31,10.34-2.8.29s-11.52,3.5-12.68,3.6c-10.55.84-24.31,12.64-29.46,25-2.13,5.11-10.38,35.67-16.43,67.31-4.37,22.89-6.9,45.11-8,48.12l34,.07,7.84-48.19,2.31,48.47,115.73-.36-8.23-48.71Z" fill="#12263f"/>
          <path id="Trazado_190610" data-name="Trazado 190610" d="M411.52,193.39c-.1,0,.86,12.75,2.15,28.47s2.42,28.46,2.52,28.45-.85-12.76-2.15-28.48S411.62,193.38,411.52,193.39Z" fill="#1a2e35"/>
        </g>
        <path id="Trazado_190611" data-name="Trazado 190611" d="M496,149l-34.41,17.28-6.41-14s11.52-4.95,22-10.54c10.69-5.7,14.85-6.9,14.85-6.9" fill="#e1e1e1"/>
        <path id="Trazado_190612" data-name="Trazado 190612" d="M447.05,143.8l7.79,8.61-7.03,12.53-4.07-10.8" fill="#e1e1e1"/>
      </g>
      <path id="Trazado_190613" data-name="Trazado 190613" d="M529.88,165.05c.06.08-1.07,1-2.68,2.62a32.28,32.28,0,0,0-8.41,15.65c-.5,2.25-.61,3.69-.71,3.68a4,4,0,0,1,0-1,22.863,22.863,0,0,1,.33-2.74,29.582,29.582,0,0,1,3-8.6,29.108,29.108,0,0,1,5.51-7.25,21,21,0,0,1,2.1-1.79,3.922,3.922,0,0,1,.86-.57Z" fill="#1a2e35"/>
      <path id="Trazado_190614" data-name="Trazado 190614" d="M455.22,152.26c.07.05-.77,1.32-2,3.43a95.387,95.387,0,0,0-4.51,8.44l-.38.81-.24.53-.25-.53a64.743,64.743,0,0,1-3.32-8.39c-.34-1.09-.59-2-.74-2.6a3.819,3.819,0,0,1-.18-1,35.994,35.994,0,0,1,1.28,3.45c.77,2.14,1.93,5.09,3.45,8.28h-.5l.38-.82a69.845,69.845,0,0,1,4.68-8.41c.67-1,1.24-1.85,1.66-2.4a3.9,3.9,0,0,1,.67-.79Z" fill="#1a2e35"/>
      <path id="Trazado_190615" data-name="Trazado 190615" d="M493,150.54a2.349,2.349,0,0,0-.48.19l-1.33.63-4.86,2.37c-4.11,2.06-9.74,4.86-16,8l-8.77,4.43.23.08-4.67-10.06c-.58-1.2-1-2.16-1.37-2.86l-.38-.76a1,1,0,0,0-.14-.25.931.931,0,0,0,.09.28l.33.78,1.27,2.9,4.56,10.11.07.17.16-.09,8.79-4.39L486.4,154l4.81-2.48,1.29-.69a3.421,3.421,0,0,0,.5-.29Z" fill="#1a2e35"/>
    </g>
    <path id="Trazado_190616" data-name="Trazado 190616" d="M556.72,220.66s7,34.11,7.63,42c1.13,15.45-6.28,24.71-13.27,29.1-7.26,4.56-48.23,6.71-48.23,6.71l-2.48-24.5L527,257.83l-3.61-27.92Z" transform="translate(829.83 2952.2)" fill="#12263f"/>
    <path id="Trazado_190617" data-name="Trazado 190617" d="M526.85,256.89a3.868,3.868,0,0,0-.06-.57c0-.4-.13-.93-.22-1.6-.21-1.43-.52-3.43-.89-5.88-.78-5-1.85-11.83-3-19.39-2.34-14.77-4-25.41-4.34-27.41a2.235,2.235,0,0,0,0,.57c0,.37.09.91.17,1.61.17,1.39.44,3.41.8,5.89.73,5,1.78,11.83,3,19.4s2.32,14.42,3.15,19.37c.42,2.45.76,4.44,1,5.86.12.67.22,1.2.29,1.59A2.415,2.415,0,0,0,526.85,256.89Z" transform="translate(829.83 2952.2)" fill="#1a2e35"/>
    <path id="Trazado_190618" data-name="Trazado 190618" d="M553.27,290.33l-.2.17a4.363,4.363,0,0,1-.6.45,13.522,13.522,0,0,1-2.65,1.23,67.193,67.193,0,0,1-10.56,2.5,317.178,317.178,0,0,1-36.42,3.55l.19.17c-.24-2.42-.5-5-.76-7.55-.6-5.93-1.19-11.66-1.73-17l-.08.17,25.8-15.59,7.46-4.54,2-1.23.51-.32.17-.12-.19.09-.52.3-2,1.18-7.51,4.45L500.3,273.71l-.1.06v.12c.53,5.28,1.11,11,1.71,16.95.26,2.58.52,5.13.76,7.54v.18h.18a298.862,298.862,0,0,0,36.45-3.68,63.275,63.275,0,0,0,10.56-2.62,11.351,11.351,0,0,0,2.63-1.3,3.1,3.1,0,0,0,.59-.48C553.22,290.4,553.28,290.34,553.27,290.33Z" transform="translate(829.83 2952.2)" fill="#1a2e35"/>
    <g id="Grupo_94016" data-name="Grupo 94016" transform="translate(829.83 2952.2)" opacity="0.3">
      <path id="Trazado_190619" data-name="Trazado 190619" d="M545,247.71a1.67,1.67,0,0,0-1-.58,9.19,9.19,0,0,0-5.81,1.1,39.779,39.779,0,0,0-14.11,11.32l.46-.26c6.24-3.68,11.77-7.43,18.46-9.21a4.11,4.11,0,0,0,1.67-.72,1.33,1.33,0,0,0,.33-1.65Z"/>
    </g>
    <path id="Trazado_190620" data-name="Trazado 190620" d="M500.74,275.44l-3.46.33s-.44-5-1.23-6.95-2.23-7.94-2.23-7.94-15.43-6.49-15.77-6.49-15.43,4.14-15.43,4.14.33,4.14,5.48,4.36a35.3,35.3,0,0,0,9.17-.78l4.81,1.79-9.62.61-16.89,10.13s.12,3,6.71,1.45a26.2,26.2,0,0,0,10-4.36l12.46,1.83-13.14.63-9.84,4.92s.09,4.07,4.12,3.07,6.73-1.62,6.73-1.62L484.3,282l-9.94.55s-6.71.18-6.37,2,5.25,3.36,5.25,3.36l7,1.23s.27,3.13,1.5,4.14,3.13,2.4,4.25,2.43,16.88.86,16.88.86Z" transform="translate(829.83 2952.2)" fill="#ae7461"/>
    <path id="Trazado_190621" data-name="Trazado 190621" d="M492.14,290.73a3.662,3.662,0,0,0,.59-.39,9.78,9.78,0,0,0,1.4-1.35,11,11,0,0,0,2.52-5.82,10.731,10.731,0,0,0-.15-3.52c-.24-1.07-.61-2-.71-2.76a3.73,3.73,0,0,1,.14-1.85c.16-.41.33-.6.31-.62a1.34,1.34,0,0,0-.43.57,3.62,3.62,0,0,0-.25,1.93c.08.83.43,1.76.64,2.79a10.73,10.73,0,0,1,.12,3.42,11.34,11.34,0,0,1-2.38,5.71A22.082,22.082,0,0,1,492.14,290.73Z" transform="translate(829.83 2952.2)" fill="#6f4439"/>
    <path id="Trazado_190622" data-name="Trazado 190622" d="M490.24,289.51a40.175,40.175,0,0,0-5.14-.35,41,41,0,0,0-5.15,0,40.169,40.169,0,0,0,5.14.35A41,41,0,0,0,490.24,289.51Z" transform="translate(829.83 2952.2)" fill="#6f4439"/>
    <path id="Trazado_190623" data-name="Trazado 190623" d="M489.47,282.12a11.709,11.709,0,0,0-2.72-.12,11.24,11.24,0,0,0-2.73.21,11.83,11.83,0,0,0,2.73.12,10.489,10.489,0,0,0,2.72-.21Z" transform="translate(829.83 2952.2)" fill="#6f4439"/>
    <path id="Trazado_190624" data-name="Trazado 190624" d="M490,264.87c0-.1-1.71.19-3.8,0s-3.7-.81-3.74-.71a8.89,8.89,0,0,0,3.71,1,8.7,8.7,0,0,0,3.83-.29Z" transform="translate(829.83 2952.2)" fill="#6f4439"/>
    <g id="Grupo_94019" data-name="Grupo 94019" transform="translate(829.83 2952.2)">
      <path id="Trazado_190625" data-name="Trazado 190625" d="M345,225.87l14.78,72.56h128.3a2.55,2.55,0,0,0,2.56-2.56h0a2.55,2.55,0,0,0-2.56-2.56H462.25l-13.7-67.48a2.8,2.8,0,0,0-2.71-2.25l-98-1.07a2.8,2.8,0,0,0-2.84,3.36Z" fill="#e1e1e1"/>
      <path id="Trazado_190626" data-name="Trazado 190626" d="M345,225.87v-.22a2.622,2.622,0,0,1,0-.65,2.83,2.83,0,0,1,1.36-2.13,2.73,2.73,0,0,1,.84-.33,4.191,4.191,0,0,1,1-.06h8.08l37.08.35,25.84.26,14.48.15,7.59.08h4.89a2.88,2.88,0,0,1,1,.28,3,3,0,0,1,1.41,1.48,5.209,5.209,0,0,1,.27,1l.19,1c.14.65.27,1.31.4,2q.4,2,.81,4,.81,4,1.64,8.08,1.67,8.16,3.4,16.7c2.31,11.38,4.72,23.21,7.2,35.4l-.18-.14h25.4a4.924,4.924,0,0,1,1,.06,2.748,2.748,0,0,1-.47,5.44H359.65v-.11c-4.52-22.3-8.19-40.44-10.74-53-1.26-6.28-2.25-11.17-2.91-14.49l-.75-3.78c-.17-.86-.25-1.3-.25-1.3s.1.44.28,1.29.45,2.12.79,3.77c.69,3.32,1.7,8.21,3,14.48,2.57,12.57,6.29,30.7,10.86,53l-.14-.11H488.17a2.461,2.461,0,0,0,1.05-.28,2.39,2.39,0,0,0,1.21-1.74,2.34,2.34,0,0,0-.39-1.72,2.41,2.41,0,0,0-1.46-1,4,4,0,0,0-.93-.05H462.11v-.14q-3.705-18.285-7.18-35.4-1.72-8.53-3.39-16.71c-.55-2.72-1.09-5.42-1.63-8.07-.27-1.33-.54-2.65-.8-4-.14-.66-.27-1.31-.4-2l-.2-1a4.539,4.539,0,0,0-.25-.93A2.61,2.61,0,0,0,447,224a2.55,2.55,0,0,0-.88-.26h-4.88l-7.59-.08-14.48-.17-25.84-.3-37.08-.46-5.77-.08h-2.31a4,4,0,0,0-1,.05,2.93,2.93,0,0,0-.83.32A2.83,2.83,0,0,0,345,225,3.572,3.572,0,0,0,345,225.87Z" fill="#1a2e35"/>
    </g>
    <path id="Trazado_190627" data-name="Trazado 190627" d="M404.13,259.08a4.24,4.24,0,1,1-4.24-4.24A4.24,4.24,0,0,1,404.13,259.08Z" transform="translate(829.83 2952.2)" fill="#fff"/>
    <path id="Trazado_190628" data-name="Trazado 190628" d="M345.13,226.46h6.73l18.34.09,60.52.43,8.75.07h2.15a5.937,5.937,0,0,1,1.1.06,3.1,3.1,0,0,1,2.34,2.19c.16.71.28,1.38.42,2.07,1.09,5.47,2.13,10.74,3.13,15.76,2,10.05,3.77,19.09,5.28,26.69s2.69,13.74,3.52,18c.41,2.12.73,3.77.94,4.9.1.55.18,1,.24,1.28a3.374,3.374,0,0,1,.07.43,1.391,1.391,0,0,0-.11-.43,12.421,12.421,0,0,1-.27-1.27c-.23-1.13-.57-2.77-1-4.88-.87-4.26-2.11-10.4-3.64-18s-3.34-16.64-5.35-26.67c-1-5-2.06-10.3-3.15-15.76-.14-.68-.27-1.38-.42-2.05a2.69,2.69,0,0,0-1.15-1.56,2.549,2.549,0,0,0-.92-.37,5.71,5.71,0,0,0-1-.06H439.5l-8.75-.07-60.52-.53-18.34-.2-5-.07h-1.3Z" transform="translate(829.83 2952.2)" fill="#1a2e35"/>
    <line id="Línea_841" data-name="Línea 841" y2="177.51" transform="translate(926.01 2952.2)" fill="none" stroke="#7390c6" stroke-miterlimit="10" stroke-width="2" stroke-dasharray="6 4"/>
    <path id="Trazado_190629" data-name="Trazado 190629" d="M102.43,247v22A20.55,20.55,0,0,0,123,289.57h64.36a20.56,20.56,0,0,1,20.55,20.56v22.75" transform="translate(829.83 2952.2)" fill="none" stroke="#7390c6" stroke-miterlimit="10" stroke-width="2" stroke-dasharray="6 4"/>
  </g>
</svg>
